<?xml version="1.0" encoding="utf-8"?>
<!-- Generator: Adobe Illustrator 16.0.0, SVG Export Plug-In . SVG Version: 6.00 Build 0)  -->
<!DOCTYPE svg PUBLIC "-//W3C//DTD SVG 1.1 Tiny//EN" "http://www.w3.org/Graphics/SVG/1.1/DTD/svg11-tiny.dtd">
<svg version="1.1" baseProfile="tiny" id="Layer_1" xmlns="http://www.w3.org/2000/svg" xmlns:xlink="http://www.w3.org/1999/xlink"
	 x="0px" y="0px" width="286.02px" height="153.734px" viewBox="0 0 286.02 153.734" xml:space="preserve">
<g>
	<g>
		
			<line fill="none" stroke="#231F20" stroke-width="0.5" stroke-miterlimit="10" x1="101.395" y1="114.432" x2="101.395" y2="128.324"/>
		<g>
			<circle fill="#386DF9" stroke="#231F20" stroke-width="0.75" stroke-miterlimit="10" cx="129.213" cy="12.893" r="12.518"/>
			<circle fill="#FFFFFF" stroke="#231F20" stroke-width="0.75" stroke-miterlimit="10" cx="79.14" cy="57.404" r="12.519"/>
			<circle fill="#FFFFFF" stroke="#231F20" stroke-width="0.75" stroke-miterlimit="10" cx="179.288" cy="57.404" r="12.518"/>
			<circle fill="#FFFFFF" stroke="#231F20" stroke-width="0.75" stroke-miterlimit="10" cx="56.885" cy="101.913" r="12.519"/>
			<circle fill="#FFFFFF" stroke="#231F20" stroke-width="0.75" stroke-miterlimit="10" cx="101.395" cy="101.913" r="12.519"/>
			<circle fill="#FF1614" stroke="#231F20" stroke-width="0.75" stroke-miterlimit="10" cx="101.395" cy="140.841" r="12.519"/>
			<circle fill="#FFFFFF" stroke="#231F20" stroke-width="0.75" stroke-miterlimit="10" cx="157.033" cy="101.451" r="12.519"/>
			<circle fill="#FFFFFF" stroke="#231F20" stroke-width="0.75" stroke-miterlimit="10" cx="201.542" cy="101.451" r="12.519"/>
		</g>
		<g>
			
				<line fill="none" stroke="#231F20" stroke-width="0.75" stroke-miterlimit="10" x1="129.213" y1="25.412" x2="79.14" y2="44.885"/>
			
				<line fill="none" stroke="#231F20" stroke-width="0.75" stroke-miterlimit="10" x1="129.213" y1="25.412" x2="179.288" y2="44.885"/>
			
				<line fill="none" stroke="#231F20" stroke-width="0.75" stroke-miterlimit="10" x1="79.14" y1="69.922" x2="56.885" y2="89.395"/>
			
				<line fill="none" stroke="#231F20" stroke-width="0.75" stroke-miterlimit="10" x1="79.14" y1="69.922" x2="101.395" y2="89.395"/>
			
				<line fill="none" stroke="#231F20" stroke-width="0.75" stroke-miterlimit="10" x1="179.289" y1="69.458" x2="157.032" y2="88.933"/>
			
				<line fill="none" stroke="#231F20" stroke-width="0.75" stroke-miterlimit="10" x1="179.289" y1="69.458" x2="201.543" y2="88.933"/>
		</g>
	</g>
	<g>
		<rect x="122.259" y="7.33" fill="none" width="13.91" height="16.69"/>
		<path fill="#FFFFFF" d="M125.349,15.508h1.335c0.389,1.135,1.257,1.702,2.604,1.702c0.678,0,1.227-0.158,1.644-0.476
			c0.417-0.316,0.626-0.754,0.626-1.31c0-0.412-0.128-0.749-0.384-1.01c-0.256-0.262-0.673-0.465-1.251-0.609l-1.836-0.484
			c-1.636-0.423-2.454-1.302-2.454-2.638c0-0.856,0.317-1.555,0.952-2.095c0.634-0.539,1.441-0.81,2.42-0.81
			c1.035,0,1.87,0.242,2.504,0.727s1.052,1.144,1.252,1.978h-1.319c-0.367-1.057-1.18-1.585-2.437-1.585
			c-0.623,0-1.132,0.152-1.527,0.459c-0.396,0.306-0.593,0.715-0.593,1.227c0,0.423,0.134,0.754,0.401,0.993
			c0.267,0.239,0.678,0.432,1.235,0.576l1.752,0.45c1.703,0.434,2.554,1.352,2.554,2.754c0,0.913-0.332,1.636-0.993,2.17
			c-0.662,0.534-1.511,0.802-2.545,0.802c-1.035,0-1.903-0.248-2.604-0.743S125.538,16.399,125.349,15.508z"/>
	</g>
	<g>
		<rect x="72.186" y="51.839" fill="none" width="13.909" height="12.516"/>
		<path fill="#231F20" d="M78.522,52.439h1.235l4.006,10.249h-1.335L81.243,59.6H77.02l-1.168,3.088h-1.335L78.522,52.439z
			 M79.123,54.075l-1.669,4.373h3.338L79.123,54.075z"/>
	</g>
	<g>
		<rect x="172.334" y="51.839" fill="none" width="13.909" height="12.516"/>
		<path fill="#231F20" d="M181.274,57.38c0.545,0.145,0.99,0.439,1.335,0.884c0.345,0.445,0.518,0.958,0.518,1.536
			c0,0.924-0.301,1.636-0.901,2.137c-0.601,0.5-1.436,0.751-2.504,0.751h-3.705V52.439h3.371c1.068,0,1.9,0.234,2.496,0.701
			c0.595,0.468,0.893,1.141,0.893,2.02c0,0.579-0.142,1.061-0.426,1.444C182.067,56.988,181.708,57.247,181.274,57.38z
			 M177.302,56.896h2.086c1.413,0,2.12-0.557,2.12-1.669c0-1.091-0.707-1.636-2.12-1.636h-2.086V56.896z M177.302,57.998v3.538h2.42
			c0.679,0,1.202-0.158,1.569-0.476c0.367-0.316,0.551-0.748,0.551-1.293c0-0.557-0.184-0.99-0.551-1.303
			c-0.367-0.311-0.891-0.467-1.569-0.467H177.302z"/>
	</g>
	<g>
		<rect x="50.394" y="95.886" fill="none" width="13.909" height="17.615"/>
		<path fill="#231F20" d="M59.334,101.427c0.545,0.145,0.99,0.439,1.335,0.885c0.345,0.445,0.518,0.957,0.518,1.535
			c0,0.924-0.301,1.636-0.901,2.137c-0.601,0.501-1.436,0.751-2.504,0.751h-3.706V96.487h3.372c1.068,0,1.9,0.233,2.495,0.7
			c0.595,0.468,0.893,1.142,0.893,2.021c0,0.578-0.142,1.06-0.426,1.443S59.769,101.293,59.334,101.427z M55.362,100.943h2.086
			c1.413,0,2.12-0.557,2.12-1.669c0-1.091-0.707-1.636-2.12-1.636h-2.086V100.943z M55.362,102.044v3.539h2.42
			c0.679,0,1.202-0.159,1.569-0.476c0.367-0.317,0.551-0.749,0.551-1.294c0-0.557-0.184-0.99-0.551-1.302
			c-0.368-0.312-0.891-0.468-1.569-0.468H55.362z"/>
	</g>
	<g>
		<rect x="94.903" y="95.886" fill="none" width="13.91" height="17.615"/>
		<path fill="#231F20" d="M98.027,106.735V96.487h3.289c1.502,0,2.707,0.464,3.613,1.394c0.907,0.929,1.36,2.173,1.36,3.73
			s-0.453,2.802-1.36,3.73c-0.907,0.929-2.111,1.394-3.613,1.394H98.027z M99.346,105.549h1.953c1.157,0,2.062-0.353,2.712-1.06
			c0.651-0.706,0.977-1.666,0.977-2.879s-0.328-2.176-0.985-2.888s-1.558-1.068-2.704-1.068h-1.953V105.549z"/>
	</g>
	<g>
		<rect x="94.44" y="134.813" fill="none" width="13.909" height="14.373"/>
		<path fill="#FFFFFF" d="M104.616,141.74h-2.454v-1.135h3.705v0.701c0,1.357-0.392,2.448-1.177,3.271
			c-0.784,0.823-1.805,1.235-3.062,1.235c-1.358,0-2.482-0.484-3.372-1.452c-0.891-0.969-1.335-2.242-1.335-3.822
			c0-1.569,0.445-2.841,1.335-3.814c0.89-0.974,2.003-1.46,3.338-1.46c1.068,0,1.956,0.283,2.663,0.851
			c0.707,0.568,1.166,1.336,1.377,2.304h-1.319c-0.479-1.312-1.385-1.97-2.721-1.97c-1.001,0-1.811,0.376-2.428,1.127
			c-0.618,0.751-0.927,1.738-0.927,2.963c0,1.224,0.312,2.214,0.935,2.971c0.623,0.757,1.441,1.135,2.454,1.135
			c0.879,0,1.577-0.259,2.095-0.775C104.24,143.351,104.538,142.641,104.616,141.74z"/>
	</g>
	<g>
		<rect x="150.541" y="95.424" fill="none" width="13.91" height="17.615"/>
		<path fill="#231F20" d="M156.879,96.025h1.235l4.006,10.248h-1.336l-1.185-3.088h-4.223l-1.169,3.088h-1.335L156.879,96.025z
			 M157.479,97.661l-1.669,4.373h3.338L157.479,97.661z"/>
	</g>
	<g>
		<rect x="194.588" y="95.424" fill="none" width="13.91" height="17.615"/>
		<path fill="#231F20" d="M198.579,104.962c-0.874-0.974-1.311-2.245-1.311-3.813c0-1.569,0.437-2.841,1.311-3.814
			s1.967-1.46,3.28-1.46c1.057,0,1.933,0.283,2.629,0.851c0.695,0.568,1.148,1.336,1.36,2.304h-1.303
			c-0.467-1.312-1.362-1.97-2.687-1.97c-0.979,0-1.77,0.376-2.37,1.127c-0.602,0.751-0.901,1.738-0.901,2.963
			c0,1.213,0.3,2.197,0.901,2.954c0.601,0.757,1.391,1.135,2.37,1.135c1.335,0,2.23-0.661,2.687-1.986h1.303
			c-0.212,0.979-0.665,1.753-1.36,2.32c-0.696,0.567-1.572,0.852-2.629,0.852C200.546,106.423,199.453,105.936,198.579,104.962z"/>
	</g>
	<g>
		<g>
			<rect x="7.186" y="52.272" fill="none" width="63.609" height="31.527"/>
			<path fill="#929497" d="M9.97,57.734v-0.688h0.704c0.571,0,1.043-0.163,1.416-0.49c0.372-0.326,0.559-0.77,0.559-1.331
				c0-0.54-0.187-0.981-0.559-1.323c-0.373-0.342-0.859-0.513-1.461-0.513c-0.561,0-1.033,0.168-1.415,0.505
				s-0.63,0.791-0.742,1.361H7.706c0.123-0.774,0.449-1.396,0.979-1.866c0.53-0.469,1.178-0.704,1.943-0.704
				c0.847,0,1.522,0.235,2.027,0.704c0.505,0.47,0.757,1.071,0.757,1.806c0,0.551-0.163,1.03-0.489,1.438
				c-0.327,0.407-0.734,0.657-1.224,0.749c0.551,0.092,1.004,0.34,1.362,0.742c0.357,0.403,0.535,0.91,0.535,1.522
				c0,0.775-0.263,1.421-0.788,1.936c-0.525,0.516-1.237,0.772-2.135,0.772c-0.867,0-1.576-0.239-2.126-0.719
				s-0.882-1.127-0.995-1.943h0.78c0.112,0.622,0.37,1.104,0.773,1.446c0.403,0.342,0.925,0.513,1.568,0.513
				c0.653,0,1.176-0.182,1.568-0.544c0.393-0.361,0.589-0.844,0.589-1.445c0-0.592-0.207-1.061-0.62-1.408
				c-0.413-0.347-0.921-0.52-1.522-0.52H9.97z"/>
			<path fill="#929497" d="M17.59,54.873h0.658v2.509h2.524v0.658h-2.524v2.509H17.59V58.04h-2.509v-0.658h2.509V54.873z"/>
			<path fill="#929497" d="M27.061,53.45l-3.473,8.767h-0.795l3.458-8.675h-5.141v-0.72h5.952V53.45z"/>
			<path fill="#929497" d="M30.488,54.873h0.658v2.509h2.524v0.658h-2.524v2.509h-0.658V58.04h-2.509v-0.658h2.509V54.873z"/>
			<path fill="#929497" d="M35.904,57.045v-0.643h5.692v0.643H35.904z M35.904,59.003v-0.643h5.692v0.643H35.904z"/>
			<path fill="#929497" d="M46.048,52.807v9.409h-0.765V53.74l-2.463,1.271v-0.812l2.754-1.392H46.048z"/>
			<path fill="#929497" d="M51.495,62.354c-1.041,0-1.877-0.446-2.509-1.339c-0.633-0.893-0.949-2.058-0.949-3.496
				c0-1.438,0.316-2.604,0.949-3.496c0.632-0.893,1.469-1.339,2.509-1.339c1.03,0,1.861,0.446,2.494,1.339s0.949,2.059,0.949,3.496
				c0,1.438-0.316,2.604-0.949,3.496S52.525,62.354,51.495,62.354z M53.453,54.543c-0.479-0.76-1.132-1.14-1.958-1.14
				s-1.479,0.38-1.958,1.14s-0.719,1.752-0.719,2.976c0,1.225,0.24,2.217,0.719,2.977s1.132,1.14,1.958,1.14s1.479-0.38,1.958-1.14
				c0.479-0.76,0.719-1.752,0.719-2.977C54.172,56.295,53.932,55.303,53.453,54.543z"/>
			<path fill="#929497" d="M59.191,54.873h0.658v2.509h2.524v0.658h-2.524v2.509h-0.658V58.04h-2.509v-0.658h2.509V54.873z"/>
		</g>
		<g>
			<rect y="95.886" fill="none" width="44.226" height="30.62"/>
			<path fill="#929497" d="M6.227,97.063l-3.473,8.768H1.958l3.458-8.676H0.275v-0.719h5.952V97.063z"/>
			<path fill="#929497" d="M9.654,98.487h0.658v2.509h2.524v0.658h-2.524v2.509H9.654v-2.509H7.145v-0.658h2.509V98.487z"/>
			<path fill="#929497" d="M20.762,98.563h-0.78c-0.347-1.051-1.025-1.576-2.035-1.576c-0.765,0-1.4,0.375-1.905,1.125
				c-0.505,0.749-0.757,1.741-0.757,2.976c0,0.306,0.01,0.53,0.031,0.673c0.132-0.602,0.446-1.094,0.941-1.477
				c0.495-0.382,1.053-0.573,1.675-0.573c0.857,0,1.573,0.301,2.149,0.902c0.576,0.603,0.865,1.337,0.865,2.203
				c0,0.888-0.291,1.635-0.872,2.242c-0.582,0.606-1.311,0.91-2.188,0.91c-1.275,0-2.198-0.597-2.77-1.79
				c-0.367-0.765-0.551-1.739-0.551-2.923c0-1.529,0.319-2.738,0.957-3.626c0.637-0.888,1.446-1.331,2.425-1.331
				C19.426,96.298,20.364,97.053,20.762,98.563z M16.218,101.08c-0.438,0.465-0.658,1.048-0.658,1.752s0.219,1.288,0.658,1.752
				c0.438,0.465,0.995,0.696,1.668,0.696c0.663,0,1.216-0.231,1.66-0.696c0.443-0.464,0.666-1.048,0.666-1.752
				s-0.222-1.287-0.666-1.752c-0.444-0.464-0.997-0.696-1.66-0.696C17.212,100.383,16.656,100.616,16.218,101.08z"/>
			<path fill="#929497" d="M22.537,100.659v-0.643h5.692v0.643H22.537z M22.537,102.618v-0.643h5.692v0.643H22.537z"/>
			<path fill="#929497" d="M32.681,96.42v9.41h-0.765v-8.477l-2.463,1.271v-0.812l2.754-1.393H32.681z"/>
			<path fill="#929497" d="M36.827,101.347v-0.688h0.704c0.571,0,1.043-0.163,1.416-0.489c0.372-0.326,0.559-0.771,0.559-1.331
				c0-0.541-0.187-0.981-0.559-1.323c-0.373-0.342-0.859-0.513-1.461-0.513c-0.561,0-1.033,0.168-1.415,0.505
				s-0.63,0.79-0.742,1.361h-0.765c0.123-0.774,0.449-1.397,0.979-1.866c0.53-0.47,1.178-0.704,1.943-0.704
				c0.847,0,1.522,0.234,2.027,0.704c0.505,0.469,0.757,1.071,0.757,1.806c0,0.551-0.163,1.03-0.489,1.438
				c-0.327,0.408-0.734,0.658-1.224,0.75c0.551,0.092,1.004,0.339,1.362,0.742c0.357,0.403,0.535,0.91,0.535,1.522
				c0,0.775-0.263,1.42-0.788,1.936c-0.525,0.515-1.237,0.772-2.135,0.772c-0.867,0-1.576-0.239-2.126-0.719
				s-0.882-1.127-0.995-1.943h0.78c0.112,0.622,0.37,1.104,0.773,1.445c0.403,0.343,0.925,0.513,1.568,0.513
				c0.653,0,1.176-0.181,1.568-0.543s0.589-0.844,0.589-1.445c0-0.592-0.207-1.062-0.62-1.408s-0.921-0.521-1.522-0.521H36.827z"/>
		</g>
		<g>
			<rect x="97.391" y="75.495" fill="none" width="41.957" height="27.8"/>
			<path fill="#929497" d="M104.229,78.171h-0.78c-0.347-1.051-1.025-1.576-2.035-1.576c-0.765,0-1.4,0.375-1.905,1.125
				c-0.505,0.749-0.757,1.741-0.757,2.976c0,0.306,0.01,0.53,0.031,0.673c0.132-0.602,0.446-1.094,0.941-1.477
				c0.495-0.382,1.053-0.573,1.675-0.573c0.857,0,1.573,0.301,2.149,0.902c0.576,0.603,0.865,1.337,0.865,2.203
				c0,0.888-0.291,1.635-0.872,2.242c-0.582,0.606-1.311,0.91-2.188,0.91c-1.275,0-2.198-0.597-2.77-1.79
				c-0.367-0.765-0.551-1.739-0.551-2.923c0-1.529,0.319-2.738,0.957-3.626c0.637-0.887,1.446-1.331,2.425-1.331
				C102.893,75.907,103.831,76.662,104.229,78.171z M99.685,80.688c-0.438,0.465-0.658,1.048-0.658,1.752s0.219,1.288,0.658,1.752
				c0.438,0.465,0.995,0.696,1.668,0.696c0.663,0,1.216-0.231,1.66-0.696c0.443-0.464,0.666-1.048,0.666-1.752
				s-0.222-1.287-0.666-1.752c-0.444-0.464-0.997-0.696-1.66-0.696C100.679,79.992,100.123,80.224,99.685,80.688z"/>
			<path fill="#929497" d="M108.559,78.095h0.658v2.509h2.524v0.658h-2.524v2.509h-0.658v-2.509h-2.509v-0.658h2.509V78.095z"/>
			<path fill="#929497" d="M116.332,80.175c-0.745,0-1.346,0.296-1.805,0.888h-0.673v-5.019h4.988v0.72h-4.299v3.411
				c0.49-0.469,1.102-0.703,1.836-0.703c0.847,0,1.55,0.293,2.111,0.88c0.561,0.586,0.842,1.312,0.842,2.18
				c0,0.847-0.286,1.566-0.857,2.157c-0.571,0.592-1.285,0.888-2.142,0.888s-1.561-0.234-2.111-0.704
				c-0.551-0.469-0.898-1.127-1.041-1.974h0.78c0.286,1.316,1.076,1.974,2.372,1.974c0.643,0,1.176-0.224,1.599-0.673
				c0.423-0.449,0.635-1.005,0.635-1.668s-0.212-1.222-0.635-1.675C117.507,80.403,116.974,80.175,116.332,80.175z"/>
			<path fill="#929497" d="M120.998,80.267v-0.643h5.692v0.643H120.998z M120.998,82.226v-0.643h5.692v0.643H120.998z"/>
			<path fill="#929497" d="M131.142,76.03v9.409h-0.765v-8.477l-2.463,1.271v-0.812l2.754-1.392H131.142z"/>
			<path fill="#929497" d="M136.191,76.03v9.409h-0.765v-8.477l-2.463,1.271v-0.812l2.754-1.392H136.191z"/>
		</g>
		<g>
			<rect x="118.369" y="134.813" fill="none" width="10.845" height="18.546"/>
			<path fill="#929497" d="M122.071,135.348v9.41h-0.765v-8.477l-2.463,1.271v-0.812l2.754-1.393H122.071z"/>
			<path fill="#929497" d="M127.12,135.348v9.41h-0.765v-8.477l-2.463,1.271v-0.812l2.754-1.393H127.12z"/>
		</g>
		<g>
			<rect x="218.376" y="95.886" fill="none" width="67.644" height="30.62"/>
			<path fill="#929497" d="M219.11,103.704h0.78c0.347,1.051,1.025,1.576,2.035,1.576c0.765,0,1.399-0.375,1.904-1.125
				c0.506-0.749,0.758-1.741,0.758-2.976c0-0.306-0.01-0.53-0.03-0.673c-0.133,0.602-0.446,1.094-0.941,1.477
				c-0.495,0.382-1.053,0.573-1.675,0.573c-0.857,0-1.574-0.301-2.15-0.902s-0.864-1.336-0.864-2.203
				c0-0.888,0.291-1.635,0.872-2.242c0.581-0.606,1.311-0.91,2.188-0.91c1.274,0,2.197,0.597,2.769,1.79
				c0.367,0.766,0.551,1.739,0.551,2.923c0,1.529-0.318,2.738-0.956,3.626s-1.445,1.331-2.425,1.331
				C220.446,105.968,219.508,105.213,219.11,103.704z M223.654,101.187c0.438-0.464,0.658-1.048,0.658-1.752
				s-0.22-1.288-0.658-1.752s-0.994-0.696-1.667-0.696c-0.664,0-1.217,0.232-1.66,0.696c-0.444,0.464-0.666,1.048-0.666,1.752
				s0.222,1.288,0.666,1.752c0.443,0.464,0.996,0.696,1.66,0.696C222.66,101.883,223.216,101.651,223.654,101.187z"/>
			<path fill="#929497" d="M229.545,98.487h0.658v2.509h2.524v0.658h-2.524v2.509h-0.658v-2.509h-2.51v-0.658h2.51V98.487z"/>
			<path fill="#929497" d="M239.016,97.063l-3.474,8.768h-0.796l3.458-8.676h-5.141v-0.719h5.952V97.063z"/>
			<path fill="#929497" d="M242.443,98.487h0.658v2.509h2.524v0.658h-2.524v2.509h-0.658v-2.509h-2.51v-0.658h2.51V98.487z"/>
			<path fill="#929497" d="M247.859,100.659v-0.643h5.691v0.643H247.859z M247.859,102.618v-0.643h5.691v0.643H247.859z"/>
			<path fill="#929497" d="M258.004,96.42v9.41h-0.766v-8.477l-2.463,1.271v-0.812l2.754-1.393H258.004z"/>
			<path fill="#929497" d="M266.188,98.563h-0.78c-0.347-1.051-1.024-1.576-2.034-1.576c-0.766,0-1.4,0.375-1.905,1.125
				c-0.505,0.749-0.758,1.741-0.758,2.976c0,0.306,0.011,0.53,0.031,0.673c0.132-0.602,0.446-1.094,0.94-1.477
				c0.495-0.382,1.054-0.573,1.676-0.573c0.856,0,1.573,0.301,2.149,0.902c0.576,0.603,0.864,1.337,0.864,2.203
				c0,0.888-0.29,1.635-0.872,2.242c-0.581,0.606-1.311,0.91-2.188,0.91c-1.275,0-2.198-0.597-2.77-1.79
				c-0.367-0.765-0.551-1.739-0.551-2.923c0-1.529,0.318-2.738,0.956-3.626s1.446-1.331,2.426-1.331
				C264.853,96.298,265.791,97.053,266.188,98.563z M261.645,101.08c-0.438,0.465-0.658,1.048-0.658,1.752s0.22,1.288,0.658,1.752
				c0.438,0.465,0.995,0.696,1.668,0.696c0.663,0,1.216-0.231,1.66-0.696c0.443-0.464,0.665-1.048,0.665-1.752
				s-0.222-1.287-0.665-1.752c-0.444-0.464-0.997-0.696-1.66-0.696C262.64,100.383,262.083,100.616,261.645,101.08z"/>
			<path fill="#929497" d="M270.519,98.487h0.658v2.509h2.524v0.658h-2.524v2.509h-0.658v-2.509h-2.51v-0.658h2.51V98.487z"/>
		</g>
		<g>
			<rect x="195.727" y="52.763" fill="none" width="57.764" height="14.808"/>
			<path fill="#929497" d="M199.245,57.445c-0.745,0-1.347,0.296-1.806,0.887h-0.674v-5.019h4.988v0.72h-4.3v3.412
				c0.49-0.47,1.103-0.704,1.837-0.704c0.846,0,1.55,0.293,2.111,0.88c0.561,0.587,0.841,1.313,0.841,2.18
				c0,0.848-0.285,1.566-0.856,2.158c-0.571,0.591-1.285,0.887-2.142,0.887c-0.857,0-1.562-0.234-2.112-0.703
				c-0.551-0.47-0.897-1.127-1.04-1.975h0.78c0.285,1.316,1.076,1.975,2.372,1.975c0.643,0,1.175-0.225,1.599-0.674
				c0.423-0.448,0.635-1.004,0.635-1.668c0-0.662-0.212-1.221-0.635-1.675C200.42,57.671,199.888,57.445,199.245,57.445z"/>
			<path fill="#929497" d="M206.313,55.364h0.658v2.509h2.524v0.658h-2.524v2.509h-0.658v-2.509h-2.51v-0.658h2.51V55.364z"/>
			<path fill="#929497" d="M217.421,55.44h-0.78c-0.347-1.051-1.024-1.576-2.034-1.576c-0.766,0-1.4,0.375-1.905,1.125
				s-0.758,1.742-0.758,2.976c0,0.307,0.011,0.531,0.031,0.674c0.132-0.603,0.446-1.095,0.94-1.477
				c0.495-0.383,1.054-0.574,1.676-0.574c0.856,0,1.573,0.301,2.149,0.903c0.576,0.602,0.864,1.336,0.864,2.203
				c0,0.887-0.29,1.635-0.872,2.241c-0.581,0.607-1.311,0.91-2.188,0.91c-1.275,0-2.198-0.597-2.77-1.79
				c-0.367-0.765-0.551-1.739-0.551-2.922c0-1.53,0.318-2.739,0.956-3.627c0.638-0.887,1.446-1.331,2.426-1.331
				C216.085,53.175,217.023,53.93,217.421,55.44z M212.877,57.957c-0.438,0.465-0.658,1.049-0.658,1.752
				c0,0.704,0.22,1.288,0.658,1.752c0.438,0.465,0.995,0.696,1.668,0.696c0.663,0,1.216-0.231,1.66-0.696
				c0.443-0.464,0.665-1.048,0.665-1.752c0-0.703-0.222-1.287-0.665-1.752c-0.444-0.464-0.997-0.695-1.66-0.695
				C213.872,57.261,213.315,57.493,212.877,57.957z"/>
			<path fill="#929497" d="M219.196,57.537v-0.643h5.691v0.643H219.196z M219.196,59.495v-0.643h5.691v0.643H219.196z"/>
			<path fill="#929497" d="M229.341,53.298v9.409h-0.766v-8.477l-2.463,1.271V54.69l2.754-1.392H229.341z"/>
			<path fill="#929497" d="M234.39,53.298v9.409h-0.766v-8.477l-2.463,1.271V54.69l2.754-1.392H234.39z"/>
		</g>
		<g>
			<rect x="133.574" y="116.722" fill="none" width="71.957" height="30.62"/>
			<path fill="#929497" d="M134.308,124.54h0.78c0.347,1.051,1.025,1.576,2.035,1.576c0.765,0,1.4-0.375,1.905-1.125
				c0.505-0.749,0.757-1.741,0.757-2.976c0-0.306-0.01-0.53-0.031-0.673c-0.132,0.602-0.446,1.094-0.941,1.477
				c-0.495,0.382-1.053,0.573-1.675,0.573c-0.857,0-1.574-0.301-2.149-0.902c-0.577-0.602-0.865-1.336-0.865-2.203
				c0-0.888,0.291-1.635,0.872-2.242c0.582-0.606,1.311-0.91,2.188-0.91c1.275,0,2.198,0.597,2.77,1.79
				c0.367,0.766,0.551,1.739,0.551,2.923c0,1.529-0.319,2.738-0.957,3.626c-0.637,0.888-1.446,1.331-2.425,1.331
				C135.644,126.804,134.706,126.049,134.308,124.54z M138.852,122.023c0.438-0.464,0.658-1.048,0.658-1.752
				s-0.219-1.288-0.658-1.752c-0.439-0.464-0.995-0.696-1.668-0.696c-0.663,0-1.216,0.232-1.66,0.696
				c-0.443,0.464-0.666,1.048-0.666,1.752s0.222,1.288,0.666,1.752c0.444,0.464,0.997,0.696,1.66,0.696
				C137.857,122.719,138.413,122.487,138.852,122.023z"/>
			<path fill="#929497" d="M144.743,119.323h0.658v2.509h2.523v0.658h-2.523v2.509h-0.658v-2.509h-2.51v-0.658h2.51V119.323z"/>
			<path fill="#929497" d="M154.215,117.899l-3.474,8.768h-0.796l3.458-8.676h-5.141v-0.719h5.952V117.899z"/>
			<path fill="#929497" d="M157.642,119.323h0.658v2.509h2.524v0.658H158.3v2.509h-0.658v-2.509h-2.51v-0.658h2.51V119.323z"/>
			<path fill="#929497" d="M163.058,121.495v-0.643h5.691v0.643H163.058z M163.058,123.454v-0.643h5.691v0.643H163.058z"/>
			<path fill="#929497" d="M173.202,117.256v9.41h-0.766v-8.477l-2.463,1.271v-0.812l2.754-1.393H173.202z"/>
			<path fill="#929497" d="M181.387,119.399h-0.78c-0.347-1.051-1.024-1.576-2.034-1.576c-0.766,0-1.4,0.375-1.905,1.125
				c-0.505,0.749-0.758,1.741-0.758,2.976c0,0.306,0.011,0.53,0.031,0.673c0.132-0.602,0.446-1.094,0.94-1.477
				c0.495-0.382,1.054-0.573,1.676-0.573c0.856,0,1.573,0.301,2.149,0.902c0.576,0.603,0.864,1.337,0.864,2.203
				c0,0.888-0.29,1.635-0.872,2.242c-0.581,0.606-1.311,0.91-2.188,0.91c-1.275,0-2.198-0.597-2.77-1.79
				c-0.367-0.765-0.551-1.739-0.551-2.923c0-1.529,0.318-2.738,0.956-3.626s1.446-1.331,2.426-1.331
				C180.051,117.134,180.989,117.889,181.387,119.399z M176.843,121.916c-0.438,0.465-0.658,1.048-0.658,1.752
				s0.22,1.288,0.658,1.752c0.438,0.465,0.995,0.696,1.668,0.696c0.663,0,1.216-0.231,1.66-0.696
				c0.443-0.464,0.665-1.048,0.665-1.752s-0.222-1.287-0.665-1.752c-0.444-0.464-0.997-0.696-1.66-0.696
				C177.838,121.219,177.281,121.452,176.843,121.916z"/>
			<path fill="#929497" d="M185.717,119.323h0.658v2.509h2.524v0.658h-2.524v2.509h-0.658v-2.509h-2.51v-0.658h2.51V119.323z"/>
		</g>
	</g>
</g>
<g>
</g>
<g>
</g>
<g>
</g>
<g>
</g>
<g>
</g>
<g>
</g>
</svg>
