<?xml version="1.0" encoding="utf-8"?>
<!-- Generator: Adobe Illustrator 16.0.0, SVG Export Plug-In . SVG Version: 6.00 Build 0)  -->
<!DOCTYPE svg PUBLIC "-//W3C//DTD SVG 1.1 Tiny//EN" "http://www.w3.org/Graphics/SVG/1.1/DTD/svg11-tiny.dtd">
<svg version="1.1" baseProfile="tiny" id="Layer_1" xmlns="http://www.w3.org/2000/svg" xmlns:xlink="http://www.w3.org/1999/xlink"
	 x="0px" y="0px" width="277.314px" height="146.46px" viewBox="0 0 277.314 146.46" xml:space="preserve">
<g>
	<line fill="none" stroke="#A6A8AB" stroke-miterlimit="10" x1="45.101" y1="27.847" x2="107.568" y2="63.848"/>
	<g>
		<polygon fill="#A6A8AB" points="102.655,65.737 102.43,64.762 107.235,63.657 105.782,58.945 106.739,58.651 108.507,64.391 		"/>
	</g>
</g>
<g>
	<line fill="none" stroke="#A6A8AB" stroke-miterlimit="10" x1="103.39" y1="75.27" x2="45.101" y2="75.27"/>
	<g>
		<polygon fill="#A6A8AB" points="100.075,71.18 99.394,71.913 103.005,75.27 99.394,78.627 100.075,79.359 104.474,75.27 		"/>
	</g>
</g>
<g>
	<line fill="none" stroke="#A6A8AB" stroke-miterlimit="10" x1="44.619" y1="120.441" x2="107.553" y2="86.664"/>
	<g>
		<polygon fill="#A6A8AB" points="106.566,91.836 105.619,91.513 107.215,86.848 102.444,85.597 102.699,84.629 108.508,86.152 		
			"/>
	</g>
</g>
<path fill="none" stroke="#386DF9" stroke-miterlimit="10" d="M45.101,23.942c0,9.246-7.492,16.737-16.737,16.737
	s-16.738-7.491-16.738-16.737c0-9.247,7.493-16.738,16.738-16.738S45.101,14.695,45.101,23.942z"/>
<path fill="none" stroke="#386DF9" stroke-miterlimit="10" d="M45.101,124.367c0,9.246-7.492,16.736-16.737,16.736
	s-16.738-7.49-16.738-16.736s7.493-16.738,16.738-16.738S45.101,115.121,45.101,124.367z"/>
<path fill="none" stroke="#386DF9" stroke-miterlimit="10" d="M45.101,75.27c0,9.247-7.492,16.738-16.737,16.738
	S11.626,84.517,11.626,75.27c0-9.245,7.493-16.737,16.738-16.737S45.101,66.024,45.101,75.27z"/>
<g>
	<line fill="none" stroke="#A6A8AB" stroke-miterlimit="10" x1="196.237" y1="75.27" x2="137.949" y2="75.27"/>
	<g>
		<polygon fill="#A6A8AB" points="192.923,71.18 192.241,71.913 195.853,75.27 192.241,78.627 192.923,79.359 197.321,75.27 		"/>
	</g>
</g>
<g>
	<path fill="none" d="M227.361,76.34c0-0.373,0-2.525-1.242-2.525c-1.14,0-2.815,1.842-3.81,6.043h4.492
		C227.214,78.223,227.361,77.105,227.361,76.34z"/>
	<path fill="none" d="M225.043,84.701c0.6-0.951,1.033-2.008,1.593-4.139h-4.512c-0.187,0.723-0.56,2.234-0.56,3.518
		c0,1.056,0.166,2.547,1.242,2.547C223.677,86.627,224.441,85.717,225.043,84.701z"/>
	<path d="M204.508,81.68c-0.104,0.394-0.104,0.455-0.104,0.621c0,0.641,0.561,0.786,0.809,0.786c0.434,0,0.89-0.331,1.035-0.724
		l0.517-2.133l0.621-2.504c0.166-0.621,0.331-1.242,0.476-1.885c0.062-0.165,0.27-1.076,0.312-1.242
		c0.083-0.248,0.952-1.821,1.883-2.566c0.621-0.456,1.491-0.994,2.691-0.994c1.201,0,1.511,0.952,1.511,1.967
		c0,1.511-1.074,4.554-1.739,6.251c-0.227,0.642-0.371,0.973-0.371,1.531c0,1.326,0.994,2.298,2.298,2.298
		c2.628,0,3.663-4.077,3.663-4.306c0-0.27-0.248-0.27-0.333-0.27c-0.288,0-0.288,0.084-0.432,0.498
		c-0.414,1.471-1.306,3.456-2.838,3.456c-0.475,0-0.682-0.269-0.682-0.911c0-0.703,0.268-1.365,0.517-1.986
		c0.434-1.201,1.697-4.533,1.697-6.147c0-1.823-1.118-2.981-3.208-2.981c-1.761,0-3.105,0.869-4.139,2.152l2.192-8.879
		c0-0.042,0-0.311-0.372-0.311c-0.642,0-2.691,0.228-3.416,0.269c-0.207,0.042-0.518,0.062-0.518,0.558
		c0,0.353,0.248,0.353,0.662,0.353c1.345,0,1.409,0.186,1.409,0.456l-0.084,0.558L204.508,81.68z"/>
	<path d="M228.831,77.479c0-2.029-0.787-4.224-2.691-4.224c-2.921,0-6.046,5.217-6.046,9.687c0,2.318,0.911,4.223,2.691,4.223
		C225.745,87.164,228.831,81.846,228.831,77.479z M226.119,73.814c1.242,0,1.242,2.152,1.242,2.525c0,0.766-0.147,1.883-0.56,3.518
		h-4.492C223.304,75.656,224.979,73.814,226.119,73.814z M221.564,84.08c0-1.283,0.373-2.795,0.56-3.518h4.512
		c-0.56,2.131-0.993,3.188-1.593,4.139c-0.602,1.016-1.366,1.926-2.236,1.926C221.73,86.627,221.564,85.136,221.564,84.08z"/>
	<path d="M240.711,62.118c0-0.207-0.124-0.29-0.29-0.29c-0.27,0-2.773,1.905-4.429,5.444c-1.429,3.084-1.761,6.168-1.761,8.527
		c0,2.175,0.312,5.549,1.842,8.715c1.678,3.416,4.078,5.237,4.348,5.237c0.188,0,0.29-0.082,0.29-0.27c0-0.082,0-0.144-0.475-0.621
		c-3.498-3.518-4.39-8.797-4.39-13.062c0-4.863,1.055-9.728,4.492-13.205C240.711,62.263,240.711,62.201,240.711,62.118z"/>
	<path d="M245.72,80.604c0-0.766-0.6-0.973-1.014-0.973c-0.85,0-1.552,0.725-1.552,1.613c0,1.283,1.408,1.843,2.629,1.843
		c1.842,0,2.854-1.966,2.939-2.132c0.329,1.035,1.325,2.132,3.001,2.132c2.877,0,4.473-3.601,4.473-4.306
		c0-0.27-0.25-0.27-0.333-0.27c-0.249,0-0.312,0.105-0.352,0.291c-0.933,3-2.835,3.663-3.727,3.663c-1.075,0-1.532-0.89-1.532-1.843
		c0-0.62,0.168-1.221,0.478-2.462l0.952-3.81c0.166-0.725,0.807-3.312,2.753-3.312c0.144,0,0.807,0,1.406,0.373
		c-0.785,0.145-1.344,0.849-1.344,1.51c0,0.435,0.308,0.974,1.054,0.974c0.623,0,1.51-0.498,1.51-1.615
		c0-1.449-1.654-1.843-2.585-1.843c-1.637,0-2.608,1.47-2.939,2.111c-0.704-1.842-2.215-2.111-3.021-2.111
		c-2.898,0-4.492,3.603-4.492,4.307c0,0.268,0.288,0.268,0.33,0.268c0.229,0,0.312-0.062,0.374-0.311
		c0.951-2.959,2.795-3.663,3.747-3.663c0.517,0,1.488,0.268,1.488,1.883c0,0.87-0.475,2.733-1.488,6.646
		c-0.456,1.738-1.43,2.897-2.67,2.897c-0.168,0-0.809,0-1.389-0.351C245.12,81.97,245.72,81.389,245.72,80.604z"/>
	<path d="M260.149,61.829c-0.167,0-0.27,0.124-0.27,0.29c0,0.083,0,0.145,0.538,0.641c2.732,2.753,4.326,7.204,4.326,13.041
		c0,4.763-1.035,9.688-4.492,13.206c-0.372,0.333-0.372,0.395-0.372,0.477c0,0.167,0.103,0.27,0.27,0.27
		c0.29,0,2.793-1.904,4.449-5.443c1.429-3.064,1.761-6.169,1.761-8.509c0-2.173-0.313-5.567-1.844-8.713
		C262.839,63.65,260.439,61.829,260.149,61.829z"/>
</g>
<g>
	<path d="M54.285,87.208h4.8c0.229,0,0.559,0,0.559-0.345c0-0.342-0.33-0.342-0.559-0.342h-4.8v-4.812c0-0.241,0-0.559-0.343-0.559
		c-0.344,0-0.344,0.317-0.344,0.559v4.812h-4.798c-0.243,0-0.573,0-0.573,0.342c0,0.345,0.33,0.345,0.573,0.345h4.798v4.798
		c0,0.243,0,0.573,0.344,0.573c0.343,0,0.343-0.33,0.343-0.573V87.208"/>
	<path d="M62.788,89.831l1.82-1.77c2.673-2.368,3.704-3.297,3.704-5.015c0-1.961-1.54-3.322-3.641-3.322
		c-1.935,0-3.208,1.577-3.208,3.105c0,0.955,0.853,0.955,0.905,0.955c0.292,0,0.902-0.204,0.902-0.904
		c0-0.445-0.317-0.891-0.916-0.891c-0.142,0-0.166,0-0.229,0.012c0.395-1.121,1.325-1.757,2.329-1.757
		c1.553,0,2.291,1.401,2.291,2.802c0,1.373-0.853,2.735-1.793,3.792l-3.297,3.679c-0.192,0.191-0.192,0.217-0.192,0.636h6.364
		l0.484-2.99h-0.434c-0.075,0.522-0.202,1.272-0.369,1.527c-0.127,0.141-1.26,0.141-1.642,0.141H62.788"/>
	<path d="M73.43,91.153c-0.662,0-1.681-0.433-1.985-2.073c-0.19-1.032-0.19-2.61-0.19-3.629c0-1.094,0-2.228,0.14-3.155
		c0.33-2.051,1.617-2.203,2.036-2.203c0.573,0,1.705,0.306,2.036,2.013c0.166,0.967,0.166,2.266,0.166,3.346
		c0,1.286,0,2.457-0.19,3.552C75.186,90.631,74.206,91.153,73.43,91.153 M77.056,85.655c0-1.376-0.088-2.749-0.686-4.009
		c-0.79-1.655-2.191-1.922-2.915-1.922c-1.031,0-2.292,0.445-2.992,2.035c-0.547,1.186-0.636,2.52-0.636,3.896
		c0,1.285,0.076,2.838,0.778,4.138c0.736,1.388,1.983,1.729,2.824,1.729c0.93,0,2.24-0.355,2.991-1.985
		C76.968,88.355,77.056,87.018,77.056,85.655z"/>
</g>
<g>
	<path d="M24.948,71.989c0.143-0.622,0.695-2.831,2.369-2.831c0.124,0,0.696,0,1.211,0.301c-0.676,0.126-1.157,0.733-1.157,1.302
		c0,0.391,0.266,0.836,0.908,0.836c0.534,0,1.3-0.427,1.3-1.388c0-1.248-1.424-1.587-2.227-1.587c-1.408,0-2.244,1.284-2.529,1.836
		c-0.605-1.585-1.905-1.836-2.601-1.836c-2.493,0-3.865,3.101-3.865,3.706c0,0.232,0.251,0.232,0.285,0.232
		c0.197,0,0.267-0.038,0.321-0.269c0.819-2.529,2.404-3.134,3.223-3.134c0.445,0,1.285,0.212,1.285,1.603
		c0,0.747-0.411,2.352-1.285,5.716c-0.391,1.498-1.228,2.494-2.295,2.494c-0.144,0-0.697,0-1.196-0.302
		c0.606-0.125,1.123-0.623,1.123-1.301c0-0.64-0.517-0.837-0.89-0.837c-0.711,0-1.316,0.623-1.316,1.389
		c0,1.105,1.21,1.586,2.26,1.586c1.585,0,2.458-1.675,2.529-1.816c0.285,0.873,1.14,1.816,2.582,1.816
		c2.477,0,3.847-3.1,3.847-3.705c0-0.232-0.212-0.232-0.284-0.232c-0.214,0-0.267,0.09-0.319,0.268
		c-0.786,2.566-2.423,3.135-3.191,3.135c-0.942,0-1.318-0.765-1.318-1.586c0-0.515,0.144-1.049,0.412-2.101L24.948,71.989"/>
	<path d="M36.242,72.132c0-0.463-0.02-0.48-0.502-0.48c-1.067,1.069-2.598,1.086-3.275,1.086v0.587c0.391,0,1.496,0,2.422-0.463
		v8.55c0,0.553,0,0.765-1.675,0.765h-0.64v0.604c0.303-0.016,2.367-0.052,2.991-0.052c0.516,0,2.635,0.036,2.993,0.052v-0.604
		h-0.641c-1.674,0-1.674-0.212-1.674-0.765V72.132"/>
</g>
<g>
	<path d="M24.482,120.557c0.144-0.623,0.695-2.85,2.369-2.85c0.126,0,0.695,0,1.21,0.319c-0.675,0.123-1.156,0.712-1.156,1.301
		c0,0.372,0.267,0.836,0.909,0.836c0.533,0,1.298-0.427,1.298-1.388c0-1.248-1.422-1.586-2.225-1.586
		c-1.408,0-2.243,1.265-2.528,1.816c-0.607-1.586-1.908-1.816-2.604-1.816c-2.492,0-3.863,3.1-3.863,3.705
		c0,0.232,0.25,0.232,0.284,0.232c0.196,0,0.267-0.055,0.321-0.27c0.819-2.547,2.405-3.15,3.223-3.15c0.446,0,1.285,0.23,1.285,1.62
		c0,0.746-0.41,2.351-1.285,5.716c-0.391,1.479-1.228,2.494-2.296,2.494c-0.142,0-0.696,0-1.195-0.303
		c0.607-0.125,1.124-0.641,1.124-1.3c0-0.66-0.517-0.837-0.891-0.837c-0.711,0-1.316,0.623-1.316,1.391
		c0,1.104,1.209,1.584,2.261,1.584c1.584,0,2.458-1.693,2.529-1.834c0.285,0.891,1.14,1.834,2.582,1.834
		c2.478,0,3.846-3.1,3.846-3.705c0-0.232-0.212-0.232-0.285-0.232c-0.212,0-0.265,0.09-0.316,0.248
		c-0.785,2.585-2.423,3.154-3.192,3.154c-0.941,0-1.316-0.766-1.316-1.584c0-0.535,0.141-1.051,0.411-2.119L24.482,120.557"/>
	<path d="M38.626,128.357h-0.569c-0.035,0.373-0.216,1.369-0.428,1.531c-0.143,0.106-1.426,0.106-1.656,0.106H32.89
		c1.747-1.567,2.333-2.03,3.349-2.813c1.229-0.998,2.388-2.03,2.388-3.635c0-2.029-1.765-3.258-3.921-3.258
		c-2.082,0-3.49,1.459-3.49,2.992c0,0.854,0.731,0.943,0.892,0.943c0.409,0,0.892-0.285,0.892-0.889
		c0-0.305-0.108-0.892-0.979-0.892c0.515-1.194,1.654-1.55,2.439-1.55c1.675,0,2.548,1.301,2.548,2.652
		c0,1.462-1.033,2.619-1.568,3.225l-4.045,3.99c-0.178,0.16-0.178,0.178-0.178,0.658h6.914L38.626,128.357"/>
</g>
<g>
	<path d="M24.032,25.092h5.215c0.264,0,0.611,0,0.611-0.374c0-0.375-0.347-0.375-0.611-0.375h-5.215v-5.243
		c0-0.264,0-0.61-0.374-0.61c-0.375,0-0.375,0.347-0.375,0.61v5.243h-5.243c-0.264,0-0.622,0-0.622,0.375
		c0,0.374,0.358,0.374,0.622,0.374h5.243v5.229c0,0.264,0,0.625,0.375,0.625c0.374,0,0.374-0.361,0.374-0.625V25.092"/>
	<path d="M36.404,17.425c0-0.458,0-0.486-0.432-0.486c-1.15,1.193-2.801,1.193-3.396,1.193v0.583c0.373,0,1.468,0,2.441-0.485v9.68
		c0,0.68-0.057,0.901-1.733,0.901h-0.597v0.583c0.651-0.056,2.273-0.056,3.021-0.056c0.749,0,2.388,0,3.039,0.056v-0.583h-0.599
		c-1.691,0-1.745-0.209-1.745-0.901V17.425"/>
</g>
<g>
	<path d="M86.826,36.876c0.294,0,0.612,0,0.612-0.344c0-0.346-0.318-0.346-0.612-0.346h-9.278c-0.292,0-0.598,0-0.598,0.346
		c0,0.344,0.306,0.344,0.598,0.344H86.826"/>
	<path d="M93.841,34.788c1.398-0.471,2.395-1.668,2.395-3.029c0-1.401-1.504-2.368-3.158-2.368c-1.731,0-3.028,1.031-3.028,2.341
		c0,0.56,0.367,0.892,0.864,0.892c0.537,0,0.879-0.382,0.879-0.878c0-0.865-0.803-0.865-1.069-0.865
		c0.532-0.84,1.667-1.058,2.29-1.058c0.7,0,1.642,0.369,1.642,1.923c0,0.203-0.025,1.196-0.47,1.959
		c-0.521,0.814-1.107,0.866-1.528,0.891c-0.141,0.014-0.559,0.05-0.672,0.05c-0.142,0.013-0.257,0.039-0.257,0.205
		c0,0.191,0.115,0.191,0.41,0.191h0.749c1.413,0,2.049,1.17,2.049,2.851c0,2.33-1.185,2.826-1.936,2.826
		c-0.736,0-2.034-0.292-2.634-1.297c0.6,0.076,1.131-0.293,1.131-0.943c0-0.625-0.458-0.967-0.953-0.967
		c-0.419,0-0.967,0.242-0.967,0.993c0,1.565,1.603,2.698,3.475,2.698c2.085,0,3.655-1.565,3.655-3.309
		C96.707,36.48,95.621,35.145,93.841,34.788"/>
	<path d="M101.683,40.821c-0.662,0-1.682-0.42-1.987-2.075c-0.19-1.03-0.19-2.608-0.19-3.614c0-1.108,0-2.24,0.14-3.17
		c0.332-2.035,1.617-2.188,2.038-2.188c0.571,0,1.707,0.305,2.035,2.011c0.165,0.954,0.165,2.264,0.165,3.348
		c0,1.285,0,2.443-0.19,3.55C103.437,40.312,102.459,40.821,101.683,40.821 M105.309,35.335c0-1.375-0.088-2.75-0.688-4.023
		c-0.788-1.642-2.189-1.921-2.913-1.921c-1.033,0-2.293,0.446-2.992,2.05c-0.547,1.184-0.636,2.52-0.636,3.894
		c0,1.286,0.076,2.826,0.776,4.136c0.738,1.388,1.984,1.731,2.826,1.731c0.93,0,2.24-0.355,2.989-1.986
		C105.221,38.021,105.309,36.685,105.309,35.335z"/>
</g>
<g>
	<path d="M73.839,118.245h4.8c0.227,0,0.558,0,0.558-0.345c0-0.342-0.331-0.342-0.558-0.342h-4.8v-4.812
		c0-0.241,0-0.559-0.344-0.559s-0.344,0.317-0.344,0.559v4.812h-4.798c-0.243,0-0.573,0-0.573,0.342c0,0.345,0.33,0.345,0.573,0.345
		h4.798v4.798c0,0.243,0,0.573,0.344,0.573s0.344-0.33,0.344-0.573V118.245"/>
	<path d="M82.34,120.868l1.822-1.77c2.672-2.368,3.703-3.297,3.703-5.015c0-1.961-1.539-3.322-3.641-3.322
		c-1.935,0-3.208,1.577-3.208,3.105c0,0.955,0.852,0.955,0.906,0.955c0.291,0,0.901-0.204,0.901-0.904
		c0-0.445-0.318-0.891-0.916-0.891c-0.141,0-0.166,0-0.23,0.012c0.396-1.121,1.325-1.757,2.329-1.757
		c1.554,0,2.292,1.401,2.292,2.802c0,1.373-0.852,2.735-1.793,3.792l-3.297,3.679c-0.192,0.191-0.192,0.217-0.192,0.636h6.364
		l0.484-2.99h-0.434c-0.076,0.522-0.202,1.272-0.369,1.527c-0.128,0.141-1.259,0.141-1.641,0.141H82.34"/>
	<path d="M92.983,122.19c-0.662,0-1.682-0.433-1.987-2.073c-0.19-1.032-0.19-2.61-0.19-3.629c0-1.094,0-2.228,0.14-3.155
		c0.332-2.051,1.617-2.203,2.038-2.203c0.573,0,1.703,0.306,2.035,2.013c0.165,0.967,0.165,2.266,0.165,3.346
		c0,1.286,0,2.457-0.19,3.552C94.737,121.668,93.758,122.19,92.983,122.19 M96.609,116.692c0-1.376-0.09-2.749-0.688-4.009
		c-0.788-1.655-2.189-1.922-2.913-1.922c-1.033,0-2.294,0.445-2.992,2.035c-0.547,1.186-0.637,2.52-0.637,3.896
		c0,1.285,0.075,2.838,0.777,4.138c0.738,1.388,1.984,1.729,2.826,1.729c0.93,0,2.24-0.355,2.989-1.985
		C96.52,119.393,96.609,118.055,96.609,116.692z"/>
</g>
<path fill="none" stroke="#F74848" stroke-miterlimit="10" d="M137.949,75.27c0,9.247-7.491,16.738-16.738,16.738
	c-9.246,0-16.737-7.491-16.737-16.738c0-9.245,7.491-16.737,16.737-16.737C130.458,58.533,137.949,66.024,137.949,75.27z"/>
<g>
</g>
<g>
</g>
<g>
</g>
<g>
</g>
<g>
</g>
<g>
</g>
<g>
</g>
</svg>
