<?xml version="1.0" encoding="utf-8"?>
<!-- Generator: Adobe Illustrator 16.0.0, SVG Export Plug-In . SVG Version: 6.00 Build 0)  -->
<!DOCTYPE svg PUBLIC "-//W3C//DTD SVG 1.1 Tiny//EN" "http://www.w3.org/Graphics/SVG/1.1/DTD/svg11-tiny.dtd">
<svg version="1.1" baseProfile="tiny" id="Layer_1" xmlns="http://www.w3.org/2000/svg" xmlns:xlink="http://www.w3.org/1999/xlink"
	 x="0px" y="0px" width="522px" height="208.347px" viewBox="0 0 522 208.347" overflow="auto" xml:space="preserve">
<g>
	<circle fill="#386DF9" cx="72" cy="118.347" r="27"/>
	<circle fill="#386DF9" cx="18" cy="181.347" r="18"/>
	<circle fill="#386DF9" cx="135" cy="73.347" r="18"/>
	<circle fill="#386DF9" cx="90" cy="37.347" r="18"/>
	<circle fill="#386DF9" cx="270" cy="37.347" r="27"/>
	<circle fill="#386DF9" cx="270" cy="37.347" r="27"/>
	<circle fill="#386DF9" cx="216" cy="73.347" r="27"/>
	<circle fill="#386DF9" cx="216" cy="73.347" r="27"/>
	<circle fill="#386DF9" cx="297" cy="91.347" r="9"/>
	<circle fill="#386DF9" cx="333" cy="127.347" r="18"/>
	<circle fill="#386DF9" cx="387" cy="145.347" r="18"/>
	<circle fill="#386DF9" cx="441" cy="190.347" r="18"/>
	<circle fill="#386DF9" cx="486" cy="145.347" r="18"/>
	<circle fill="#386DF9" cx="432" cy="118.347" r="18"/>
</g>
<g>
	<path fill="none" stroke="#FF1614" stroke-linecap="round" stroke-linejoin="round" d="M68.5,177.347c-18-7-42-43-40.5-63
		c2-21,21.5-40.5,41.5-43c17.5-2.5,30,4.5,40.5,17c6.5,7,10,13,19,14.5c15,2,28-5.5,35.5-17.5c9.5-15,16.5-30.5,27-45
		c14.5-19,27.5-37.5,51.5-39c19.5-1,50.5-4.5,63.5,16.5c10,16.5,3.5,39-9.5,50.5c-9,8.5-37.5,33.5-13.5,43c20.5,8.5,36.5-13,57-10
		c48.5,7-23,81,43.5,73c14-1.5,30.262-6.062,41-14.5c7-5.5,45.5-49,61.5-59.5c10.201-6.315,23.233-9.798,34.513-4.948"/>
	<g>
		<polygon fill="#FF1614" points="516.416,98.059 516.047,97.128 520.632,95.314 518.487,90.874 519.389,90.439 522,95.848 		"/>
	</g>
</g>
<g>
</g>
<g>
</g>
<g>
</g>
<g>
</g>
<g>
</g>
<g>
</g>
<g>
</g>
</svg>
