<?xml version="1.0" encoding="utf-8"?>
<!-- Generator: Adobe Illustrator 16.0.0, SVG Export Plug-In . SVG Version: 6.00 Build 0)  -->
<!DOCTYPE svg PUBLIC "-//W3C//DTD SVG 1.1 Tiny//EN" "http://www.w3.org/Graphics/SVG/1.1/DTD/svg11-tiny.dtd">
<svg version="1.1" baseProfile="tiny" id="Layer_1" xmlns="http://www.w3.org/2000/svg" xmlns:xlink="http://www.w3.org/1999/xlink"
	 x="0px" y="0px" width="535px" height="221px" viewBox="0 0 535 221" xml:space="preserve">
<g>
	<path fill="none" stroke="#FF1614" stroke-linecap="round" stroke-linejoin="round" d="M74.5,185c-18-7-42-43-40.5-63
		c2-21,21.5-40.5,41.5-43c17.5-2.5,30,4.5,40.5,17c6.5,7,10,13,19,14.5c15,2,28-5.5,35.5-17.5c9.5-15,16.5-30.5,27-45
		C212,29,225,10.5,249,9c19.5-1,50.5-4.5,63.5,16.5c10,16.5,3.5,39-9.5,50.5c-9,8.5-37.5,33.5-13.5,43c20.5,8.5,36.5-13,57-10
		c48.5,7-23,81,43.5,73c14-1.5,30.262-6.062,41-14.5c7-5.5,45.5-49,61.5-59.5c10.201-6.315,23.233-9.798,34.513-4.948"/>
	<g>
		<polygon fill="#FF1614" points="522.416,105.712 522.047,104.781 526.632,102.967 524.487,98.527 525.389,98.092 528,103.501 		
			"/>
	</g>
</g>
<g>
</g>
<g>
</g>
<g>
</g>
<g>
</g>
<g>
</g>
<g>
</g>
<g>
</g>
</svg>
