<svg xmlns="http://www.w3.org/2000/svg" xmlns:xlink="http://www.w3.org/1999/xlink" height="288pt" version="1.1" viewBox="0 0 576 288" width="576pt">
 <defs>
  <clipPath id="pd17d8af51d">
   <rect height="223.2" width="446.4" x="72.0" y="28.8"/>
  </clipPath>
 </defs>
<defs>
  <style type="text/css">
*{stroke-linecap:butt;stroke-linejoin:round;}
  </style>
 </defs>
 <g id="figure_1">
  <g id="patch_1">
   <path d=" M0 288 L576 288 L576 0 L0 0 z " style="fill:#ffffff;"/>
  </g>
  <g id="axes_1">
   <g id="patch_2">
    <path d=" M72 252 L518.4 252 L518.4 28.8 L72 28.8 z " style="fill:#eaeaf2;"/>
   </g>
   <g id="matplotlib.axis_1">
    <g id="xtick_1">
     <g id="line2d_1">
      <path clip-path="url(#pd17d8af51d)" d=" M72 252 L72 28.8" style="fill:none;stroke:#ffffff;stroke-linecap:round;stroke-width:1.3;"/>
     </g>
     <g id="line2d_2">
      <defs>
       <path d=" M0 0 L0 0" id="m56cc5124a0" style="stroke:#262626;stroke-width:1.3;"/>
      </defs>
      <g>
       <use style="fill:#262626;stroke:#262626;stroke-width:1.3;" x="72.0" xlink:href="#m56cc5124a0" y="252.0"/>
      </g>
     </g>
     <g id="line2d_3">
      <g>
       <use style="fill:#262626;stroke:#262626;stroke-width:1.3;" x="72.0" xlink:href="#m56cc5124a0" y="28.8"/>
      </g>
     </g>
    </g>
    <g id="xtick_2">
     <g id="line2d_4">
      <path clip-path="url(#pd17d8af51d)" d=" M161.28 252 L161.28 28.8" style="fill:none;stroke:#ffffff;stroke-linecap:round;stroke-width:1.3;"/>
     </g>
     <g id="line2d_5">
      <g>
       <use style="fill:#262626;stroke:#262626;stroke-width:1.3;" x="161.28" xlink:href="#m56cc5124a0" y="252.0"/>
      </g>
     </g>
     <g id="line2d_6">
      <g>
       <use style="fill:#262626;stroke:#262626;stroke-width:1.3;" x="161.28" xlink:href="#m56cc5124a0" y="28.8"/>
      </g>
     </g>
     <g id="text_1">
      <!-- 0 -->
      <defs>
       <path d=" M49.7969 16.5938 Q37.0938 -0.90625 26.8906 -0.90625 Q16.7031 -0.90625 10.3438 7.84375 Q4 16.5938 4 30.6875 Q4 44.7969 10.3438 53.5469 Q16.7031 62.2969 26.8906 62.2969 Q37.0938 62.2969 43.4375 53.5469 Q49.7969 44.7969 49.7969 30.6875 Q49.7969 16.5938 37.0938 -0.90625 M26.9062 55.2031 Q19.5938 55.2031 15.6406 48.5 Q11.7031 41.7969 11.7031 30.6875 Q11.7031 19.5938 15.6406 12.8906 Q19.5938 6.20312 26.9062 6.20312 Q34.0938 6.20312 38.0938 12.9531 Q42.0938 19.7031 42.0938 30.7031 Q42.0938 41.7031 38.0938 48.4531 Q34.0938 55.2031 26.9062 55.2031" id="CalibreRegular-30"/>
      </defs>
      <g style="fill:#262626;" transform="translate(158.005523437 270.395)scale(0.14300000000000002 -0.14300000000000002)">
       <use xlink:href="#CalibreRegular-30"/>
      </g>
     </g>
    </g>
    <g id="xtick_3">
     <g id="line2d_7">
      <path clip-path="url(#pd17d8af51d)" d=" M250.56 252 L250.56 28.8" style="fill:none;stroke:#ffffff;stroke-linecap:round;stroke-width:1.3;"/>
     </g>
     <g id="line2d_8">
      <g>
       <use style="fill:#262626;stroke:#262626;stroke-width:1.3;" x="250.56" xlink:href="#m56cc5124a0" y="252.0"/>
      </g>
     </g>
     <g id="line2d_9">
      <g>
       <use style="fill:#262626;stroke:#262626;stroke-width:1.3;" x="250.56" xlink:href="#m56cc5124a0" y="28.8"/>
      </g>
     </g>
    </g>
    <g id="xtick_4">
     <g id="line2d_10">
      <path clip-path="url(#pd17d8af51d)" d=" M339.84 252 L339.84 28.8" style="fill:none;stroke:#ffffff;stroke-linecap:round;stroke-width:1.3;"/>
     </g>
     <g id="line2d_11">
      <g>
       <use style="fill:#262626;stroke:#262626;stroke-width:1.3;" x="339.84" xlink:href="#m56cc5124a0" y="252.0"/>
      </g>
     </g>
     <g id="line2d_12">
      <g>
       <use style="fill:#262626;stroke:#262626;stroke-width:1.3;" x="339.84" xlink:href="#m56cc5124a0" y="28.8"/>
      </g>
     </g>
     <g id="text_2">
      <!-- x  x+h -->
      <defs>
       <path id="CalibreRegular-20"/>
       <path d=" M42.2031 44.4062 L26.5938 23 L43.0938 0 L34.5938 0 L22.2969 17.2969 L9.90625 0 L1.79688 0 L18.2031 22.7031 L2.70312 44.4062 L11.2969 44.4062 L22.5 28.5 L34 44.4062 z " id="CalibreRegular-78"/>
       <path d=" M23.9062 49.4062 L30.0938 49.4062 L30.0938 32.7969 L46.7031 32.7969 L46.7031 26.5938 L30.0938 26.5938 L30.0938 10 L23.9062 10 L23.9062 26.5938 L7.29688 26.5938 L7.29688 32.7969 L23.9062 32.7969 z " id="CalibreRegular-2b"/>
       <path d=" M6.70312 0 L6.70312 65 L14.2031 65 L14.2031 38.7969 Q16.2969 41.5938 19.75 43.4375 Q23.2031 45.2969 27.2969 45.2969 Q34.7031 45.2969 38.7969 40.8906 Q42.9062 36.5 42.9062 29.0938 L42.9062 0 L35.2969 0 L35.2969 27.9062 Q35.2969 32.7031 32.8438 35.5469 Q30.4062 38.4062 25.5 38.4062 Q21.5938 38.4062 18.5 36.0469 Q15.4062 33.7031 14.2031 30.0938 L14.2031 0 z " id="CalibreRegular-68"/>
      </defs>
      <g style="fill:#262626;" transform="translate(323.330203125 270.395)scale(0.14300000000000002 -0.14300000000000002)">
       <use xlink:href="#CalibreRegular-78"/>
       <use x="44.899993896484375" xlink:href="#CalibreRegular-20"/>
       <use x="66.99998474121094" xlink:href="#CalibreRegular-20"/>
       <use x="89.0999755859375" xlink:href="#CalibreRegular-78"/>
       <use x="133.99996948242188" xlink:href="#CalibreRegular-2b"/>
       <use x="187.9999542236328" xlink:href="#CalibreRegular-68"/>
      </g>
     </g>
    </g>
    <g id="xtick_5">
     <g id="line2d_13">
      <path clip-path="url(#pd17d8af51d)" d=" M429.12 252 L429.12 28.8" style="fill:none;stroke:#ffffff;stroke-linecap:round;stroke-width:1.3;"/>
     </g>
     <g id="line2d_14">
      <g>
       <use style="fill:#262626;stroke:#262626;stroke-width:1.3;" x="429.12" xlink:href="#m56cc5124a0" y="252.0"/>
      </g>
     </g>
     <g id="line2d_15">
      <g>
       <use style="fill:#262626;stroke:#262626;stroke-width:1.3;" x="429.12" xlink:href="#m56cc5124a0" y="28.8"/>
      </g>
     </g>
    </g>
    <g id="xtick_6">
     <g id="line2d_16">
      <path clip-path="url(#pd17d8af51d)" d=" M518.4 252 L518.4 28.8" style="fill:none;stroke:#ffffff;stroke-linecap:round;stroke-width:1.3;"/>
     </g>
     <g id="line2d_17">
      <g>
       <use style="fill:#262626;stroke:#262626;stroke-width:1.3;" x="518.4" xlink:href="#m56cc5124a0" y="252.0"/>
      </g>
     </g>
     <g id="line2d_18">
      <g>
       <use style="fill:#262626;stroke:#262626;stroke-width:1.3;" x="518.4" xlink:href="#m56cc5124a0" y="28.8"/>
      </g>
     </g>
    </g>
   </g>
   <g id="matplotlib.axis_2">
    <g id="ytick_1">
     <g id="line2d_19">
      <path clip-path="url(#pd17d8af51d)" d=" M72 252 L518.4 252" style="fill:none;stroke:#ffffff;stroke-linecap:round;stroke-width:1.3;"/>
     </g>
     <g id="line2d_20">
      <g>
       <use style="fill:#262626;stroke:#262626;stroke-width:1.3;" x="72.0" xlink:href="#m56cc5124a0" y="252.0"/>
      </g>
     </g>
     <g id="line2d_21">
      <g>
       <use style="fill:#262626;stroke:#262626;stroke-width:1.3;" x="518.4" xlink:href="#m56cc5124a0" y="252.0"/>
      </g>
     </g>
    </g>
    <g id="ytick_2">
     <g id="line2d_22">
      <path clip-path="url(#pd17d8af51d)" d=" M72 196.2 L518.4 196.2" style="fill:none;stroke:#ffffff;stroke-linecap:round;stroke-width:1.3;"/>
     </g>
     <g id="line2d_23">
      <g>
       <use style="fill:#262626;stroke:#262626;stroke-width:1.3;" x="72.0" xlink:href="#m56cc5124a0" y="196.2"/>
      </g>
     </g>
     <g id="line2d_24">
      <g>
       <use style="fill:#262626;stroke:#262626;stroke-width:1.3;" x="518.4" xlink:href="#m56cc5124a0" y="196.2"/>
      </g>
     </g>
    </g>
    <g id="ytick_3">
     <g id="line2d_25">
      <path clip-path="url(#pd17d8af51d)" d=" M72 140.4 L518.4 140.4" style="fill:none;stroke:#ffffff;stroke-linecap:round;stroke-width:1.3;"/>
     </g>
     <g id="line2d_26">
      <g>
       <use style="fill:#262626;stroke:#262626;stroke-width:1.3;" x="72.0" xlink:href="#m56cc5124a0" y="140.4"/>
      </g>
     </g>
     <g id="line2d_27">
      <g>
       <use style="fill:#262626;stroke:#262626;stroke-width:1.3;" x="518.4" xlink:href="#m56cc5124a0" y="140.4"/>
      </g>
     </g>
    </g>
    <g id="ytick_4">
     <g id="line2d_28">
      <path clip-path="url(#pd17d8af51d)" d=" M72 84.6 L518.4 84.6" style="fill:none;stroke:#ffffff;stroke-linecap:round;stroke-width:1.3;"/>
     </g>
     <g id="line2d_29">
      <g>
       <use style="fill:#262626;stroke:#262626;stroke-width:1.3;" x="72.0" xlink:href="#m56cc5124a0" y="84.6"/>
      </g>
     </g>
     <g id="line2d_30">
      <g>
       <use style="fill:#262626;stroke:#262626;stroke-width:1.3;" x="518.4" xlink:href="#m56cc5124a0" y="84.6"/>
      </g>
     </g>
    </g>
    <g id="ytick_5">
     <g id="line2d_31">
      <path clip-path="url(#pd17d8af51d)" d=" M72 28.8 L518.4 28.8" style="fill:none;stroke:#ffffff;stroke-linecap:round;stroke-width:1.3;"/>
     </g>
     <g id="line2d_32">
      <g>
       <use style="fill:#262626;stroke:#262626;stroke-width:1.3;" x="72.0" xlink:href="#m56cc5124a0" y="28.8"/>
      </g>
     </g>
     <g id="line2d_33">
      <g>
       <use style="fill:#262626;stroke:#262626;stroke-width:1.3;" x="518.4" xlink:href="#m56cc5124a0" y="28.8"/>
      </g>
     </g>
    </g>
   </g>
   <g id="line2d_34">
    <path clip-path="url(#pd17d8af51d)" d=" M72 252 L518.4 252" style="fill:none;stroke:#dcdce6;stroke-linecap:round;stroke-width:2;"/>
   </g>
   <g id="line2d_35">
    <path clip-path="url(#pd17d8af51d)" d=" M161.28 252 L161.28 28.8" style="fill:none;stroke:#dcdce6;stroke-linecap:round;stroke-width:2;"/>
   </g>
   <g id="line2d_36">
    <path clip-path="url(#pd17d8af51d)" d=" M326.448 252 L326.448 28.8" style="fill:none;stroke:#ffdc52;stroke-linecap:round;stroke-width:2;"/>
   </g>
   <g id="line2d_37">
    <path clip-path="url(#pd17d8af51d)" d=" M344.304 252 L344.304 28.8" style="fill:none;stroke:#ffdc52;stroke-linecap:round;stroke-width:2;"/>
   </g>
   <g id="PolyCollection_1">
    <defs>
     <path d=" M161.28 -236.88 L161.28 -36 L161.445 -36 L161.611 -36 L161.776 -36 L161.941 -36 L162.107 -36 L162.272 -36 L162.437 -36 L162.603 -36 L162.768 -36 L162.933 -36 L163.099 -36 L163.264 -36 L163.429 -36 L163.595 -36 L163.76 -36 L163.925 -36 L164.091 -36 L164.256 -36 L164.421 -36 L164.587 -36 L164.752 -36 L164.917 -36 L165.083 -36 L165.248 -36 L165.413 -36 L165.579 -36 L165.744 -36 L165.909 -36 L166.075 -36 L166.24 -36 L166.405 -36 L166.571 -36 L166.736 -36 L166.901 -36 L167.067 -36 L167.232 -36 L167.397 -36 L167.563 -36 L167.728 -36 L167.893 -36 L168.059 -36 L168.224 -36 L168.389 -36 L168.555 -36 L168.72 -36 L168.885 -36 L169.051 -36 L169.216 -36 L169.381 -36 L169.547 -36 L169.712 -36 L169.877 -36 L170.043 -36 L170.208 -36 L170.373 -36 L170.539 -36 L170.704 -36 L170.869 -36 L171.035 -36 L171.2 -36 L171.365 -36 L171.531 -36 L171.696 -36 L171.861 -36 L172.027 -36 L172.192 -36 L172.357 -36 L172.523 -36 L172.688 -36 L172.853 -36 L173.019 -36 L173.184 -36 L173.349 -36 L173.515 -36 L173.68 -36 L173.845 -36 L174.011 -36 L174.176 -36 L174.341 -36 L174.507 -36 L174.672 -36 L174.837 -36 L175.003 -36 L175.168 -36 L175.333 -36 L175.499 -36 L175.664 -36 L175.829 -36 L175.995 -36 L176.16 -36 L176.325 -36 L176.491 -36 L176.656 -36 L176.821 -36 L176.987 -36 L177.152 -36 L177.317 -36 L177.483 -36 L177.648 -36 L177.813 -36 L177.979 -36 L178.144 -36 L178.309 -36 L178.475 -36 L178.64 -36 L178.805 -36 L178.971 -36 L179.136 -36 L179.301 -36 L179.467 -36 L179.632 -36 L179.797 -36 L179.963 -36 L180.128 -36 L180.293 -36 L180.459 -36 L180.624 -36 L180.789 -36 L180.955 -36 L181.12 -36 L181.285 -36 L181.451 -36 L181.616 -36 L181.781 -36 L181.947 -36 L182.112 -36 L182.277 -36 L182.443 -36 L182.608 -36 L182.773 -36 L182.939 -36 L183.104 -36 L183.269 -36 L183.435 -36 L183.6 -36 L183.765 -36 L183.931 -36 L184.096 -36 L184.261 -36 L184.427 -36 L184.592 -36 L184.757 -36 L184.923 -36 L185.088 -36 L185.253 -36 L185.419 -36 L185.584 -36 L185.749 -36 L185.915 -36 L186.08 -36 L186.245 -36 L186.411 -36 L186.576 -36 L186.741 -36 L186.907 -36 L187.072 -36 L187.237 -36 L187.403 -36 L187.568 -36 L187.733 -36 L187.899 -36 L188.064 -36 L188.229 -36 L188.395 -36 L188.56 -36 L188.725 -36 L188.891 -36 L189.056 -36 L189.221 -36 L189.387 -36 L189.552 -36 L189.717 -36 L189.883 -36 L190.048 -36 L190.213 -36 L190.379 -36 L190.544 -36 L190.709 -36 L190.875 -36 L191.04 -36 L191.205 -36 L191.371 -36 L191.536 -36 L191.701 -36 L191.867 -36 L192.032 -36 L192.197 -36 L192.363 -36 L192.528 -36 L192.693 -36 L192.859 -36 L193.024 -36 L193.189 -36 L193.355 -36 L193.52 -36 L193.685 -36 L193.851 -36 L194.016 -36 L194.181 -36 L194.347 -36 L194.512 -36 L194.677 -36 L194.843 -36 L195.008 -36 L195.173 -36 L195.339 -36 L195.504 -36 L195.669 -36 L195.835 -36 L196 -36 L196.165 -36 L196.331 -36 L196.496 -36 L196.661 -36 L196.827 -36 L196.992 -36 L197.157 -36 L197.323 -36 L197.488 -36 L197.653 -36 L197.819 -36 L197.984 -36 L198.149 -36 L198.315 -36 L198.48 -36 L198.645 -36 L198.811 -36 L198.976 -36 L199.141 -36 L199.307 -36 L199.472 -36 L199.637 -36 L199.803 -36 L199.968 -36 L200.133 -36 L200.299 -36 L200.464 -36 L200.629 -36 L200.795 -36 L200.96 -36 L201.125 -36 L201.291 -36 L201.456 -36 L201.621 -36 L201.787 -36 L201.952 -36 L202.117 -36 L202.283 -36 L202.448 -36 L202.613 -36 L202.779 -36 L202.944 -36 L203.109 -36 L203.275 -36 L203.44 -36 L203.605 -36 L203.771 -36 L203.936 -36 L204.101 -36 L204.267 -36 L204.432 -36 L204.597 -36 L204.763 -36 L204.928 -36 L205.093 -36 L205.259 -36 L205.424 -36 L205.589 -36 L205.755 -36 L205.92 -36 L206.085 -36 L206.251 -36 L206.416 -36 L206.581 -36 L206.747 -36 L206.912 -36 L207.077 -36 L207.243 -36 L207.408 -36 L207.573 -36 L207.739 -36 L207.904 -36 L208.069 -36 L208.235 -36 L208.4 -36 L208.565 -36 L208.731 -36 L208.896 -36 L209.061 -36 L209.227 -36 L209.392 -36 L209.557 -36 L209.723 -36 L209.888 -36 L210.053 -36 L210.219 -36 L210.384 -36 L210.549 -36 L210.715 -36 L210.88 -36 L211.045 -36 L211.211 -36 L211.376 -36 L211.541 -36 L211.707 -36 L211.872 -36 L212.037 -36 L212.203 -36 L212.368 -36 L212.533 -36 L212.699 -36 L212.864 -36 L213.029 -36 L213.195 -36 L213.36 -36 L213.525 -36 L213.691 -36 L213.856 -36 L214.021 -36 L214.187 -36 L214.352 -36 L214.517 -36 L214.683 -36 L214.848 -36 L215.013 -36 L215.179 -36 L215.344 -36 L215.509 -36 L215.675 -36 L215.84 -36 L216.005 -36 L216.171 -36 L216.336 -36 L216.501 -36 L216.667 -36 L216.832 -36 L216.997 -36 L217.163 -36 L217.328 -36 L217.493 -36 L217.659 -36 L217.824 -36 L217.989 -36 L218.155 -36 L218.32 -36 L218.485 -36 L218.651 -36 L218.816 -36 L218.981 -36 L219.147 -36 L219.312 -36 L219.477 -36 L219.643 -36 L219.808 -36 L219.973 -36 L220.139 -36 L220.304 -36 L220.469 -36 L220.635 -36 L220.8 -36 L220.965 -36 L221.131 -36 L221.296 -36 L221.461 -36 L221.627 -36 L221.792 -36 L221.957 -36 L222.123 -36 L222.288 -36 L222.453 -36 L222.619 -36 L222.784 -36 L222.949 -36 L223.115 -36 L223.28 -36 L223.445 -36 L223.611 -36 L223.776 -36 L223.941 -36 L224.107 -36 L224.272 -36 L224.437 -36 L224.603 -36 L224.768 -36 L224.933 -36 L225.099 -36 L225.264 -36 L225.429 -36 L225.595 -36 L225.76 -36 L225.925 -36 L226.091 -36 L226.256 -36 L226.421 -36 L226.587 -36 L226.752 -36 L226.917 -36 L227.083 -36 L227.248 -36 L227.413 -36 L227.579 -36 L227.744 -36 L227.909 -36 L228.075 -36 L228.24 -36 L228.405 -36 L228.571 -36 L228.736 -36 L228.901 -36 L229.067 -36 L229.232 -36 L229.397 -36 L229.563 -36 L229.728 -36 L229.893 -36 L230.059 -36 L230.224 -36 L230.389 -36 L230.555 -36 L230.72 -36 L230.885 -36 L231.051 -36 L231.216 -36 L231.381 -36 L231.547 -36 L231.712 -36 L231.877 -36 L232.043 -36 L232.208 -36 L232.373 -36 L232.539 -36 L232.704 -36 L232.869 -36 L233.035 -36 L233.2 -36 L233.365 -36 L233.531 -36 L233.696 -36 L233.861 -36 L234.027 -36 L234.192 -36 L234.357 -36 L234.523 -36 L234.688 -36 L234.853 -36 L235.019 -36 L235.184 -36 L235.349 -36 L235.515 -36 L235.68 -36 L235.845 -36 L236.011 -36 L236.176 -36 L236.341 -36 L236.507 -36 L236.672 -36 L236.837 -36 L237.003 -36 L237.168 -36 L237.333 -36 L237.499 -36 L237.664 -36 L237.829 -36 L237.995 -36 L238.16 -36 L238.325 -36 L238.491 -36 L238.656 -36 L238.821 -36 L238.987 -36 L239.152 -36 L239.317 -36 L239.483 -36 L239.648 -36 L239.813 -36 L239.979 -36 L240.144 -36 L240.309 -36 L240.475 -36 L240.64 -36 L240.805 -36 L240.971 -36 L241.136 -36 L241.301 -36 L241.467 -36 L241.632 -36 L241.797 -36 L241.963 -36 L242.128 -36 L242.293 -36 L242.459 -36 L242.624 -36 L242.789 -36 L242.955 -36 L243.12 -36 L243.285 -36 L243.451 -36 L243.616 -36 L243.781 -36 L243.947 -36 L244.112 -36 L244.277 -36 L244.443 -36 L244.608 -36 L244.773 -36 L244.939 -36 L245.104 -36 L245.269 -36 L245.435 -36 L245.6 -36 L245.765 -36 L245.931 -36 L246.096 -36 L246.261 -36 L246.427 -36 L246.592 -36 L246.757 -36 L246.923 -36 L247.088 -36 L247.253 -36 L247.419 -36 L247.584 -36 L247.749 -36 L247.915 -36 L248.08 -36 L248.245 -36 L248.411 -36 L248.576 -36 L248.741 -36 L248.907 -36 L249.072 -36 L249.237 -36 L249.403 -36 L249.568 -36 L249.733 -36 L249.899 -36 L250.064 -36 L250.229 -36 L250.395 -36 L250.56 -36 L250.725 -36 L250.891 -36 L251.056 -36 L251.221 -36 L251.387 -36 L251.552 -36 L251.717 -36 L251.883 -36 L252.048 -36 L252.213 -36 L252.379 -36 L252.544 -36 L252.709 -36 L252.875 -36 L253.04 -36 L253.205 -36 L253.371 -36 L253.536 -36 L253.701 -36 L253.867 -36 L254.032 -36 L254.197 -36 L254.363 -36 L254.528 -36 L254.693 -36 L254.859 -36 L255.024 -36 L255.189 -36 L255.355 -36 L255.52 -36 L255.685 -36 L255.851 -36 L256.016 -36 L256.181 -36 L256.347 -36 L256.512 -36 L256.677 -36 L256.843 -36 L257.008 -36 L257.173 -36 L257.339 -36 L257.504 -36 L257.669 -36 L257.835 -36 L258 -36 L258.165 -36 L258.331 -36 L258.496 -36 L258.661 -36 L258.827 -36 L258.992 -36 L259.157 -36 L259.323 -36 L259.488 -36 L259.653 -36 L259.819 -36 L259.984 -36 L260.149 -36 L260.315 -36 L260.48 -36 L260.645 -36 L260.811 -36 L260.976 -36 L261.141 -36 L261.307 -36 L261.472 -36 L261.637 -36 L261.803 -36 L261.968 -36 L262.133 -36 L262.299 -36 L262.464 -36 L262.629 -36 L262.795 -36 L262.96 -36 L263.125 -36 L263.291 -36 L263.456 -36 L263.621 -36 L263.787 -36 L263.952 -36 L264.117 -36 L264.283 -36 L264.448 -36 L264.613 -36 L264.779 -36 L264.944 -36 L265.109 -36 L265.275 -36 L265.44 -36 L265.605 -36 L265.771 -36 L265.936 -36 L266.101 -36 L266.267 -36 L266.432 -36 L266.597 -36 L266.763 -36 L266.928 -36 L267.093 -36 L267.259 -36 L267.424 -36 L267.589 -36 L267.755 -36 L267.92 -36 L268.085 -36 L268.251 -36 L268.416 -36 L268.581 -36 L268.747 -36 L268.912 -36 L269.077 -36 L269.243 -36 L269.408 -36 L269.573 -36 L269.739 -36 L269.904 -36 L270.069 -36 L270.235 -36 L270.4 -36 L270.565 -36 L270.731 -36 L270.896 -36 L271.061 -36 L271.227 -36 L271.392 -36 L271.557 -36 L271.723 -36 L271.888 -36 L272.053 -36 L272.219 -36 L272.384 -36 L272.549 -36 L272.715 -36 L272.88 -36 L273.045 -36 L273.211 -36 L273.376 -36 L273.541 -36 L273.707 -36 L273.872 -36 L274.037 -36 L274.203 -36 L274.368 -36 L274.533 -36 L274.699 -36 L274.864 -36 L275.029 -36 L275.195 -36 L275.36 -36 L275.525 -36 L275.691 -36 L275.856 -36 L276.021 -36 L276.187 -36 L276.352 -36 L276.517 -36 L276.683 -36 L276.848 -36 L277.013 -36 L277.179 -36 L277.344 -36 L277.509 -36 L277.675 -36 L277.84 -36 L278.005 -36 L278.171 -36 L278.336 -36 L278.501 -36 L278.667 -36 L278.832 -36 L278.997 -36 L279.163 -36 L279.328 -36 L279.493 -36 L279.659 -36 L279.824 -36 L279.989 -36 L280.155 -36 L280.32 -36 L280.485 -36 L280.651 -36 L280.816 -36 L280.981 -36 L281.147 -36 L281.312 -36 L281.477 -36 L281.643 -36 L281.808 -36 L281.973 -36 L282.139 -36 L282.304 -36 L282.469 -36 L282.635 -36 L282.8 -36 L282.965 -36 L283.131 -36 L283.296 -36 L283.461 -36 L283.627 -36 L283.792 -36 L283.957 -36 L284.123 -36 L284.288 -36 L284.453 -36 L284.619 -36 L284.784 -36 L284.949 -36 L285.115 -36 L285.28 -36 L285.445 -36 L285.611 -36 L285.776 -36 L285.941 -36 L286.107 -36 L286.272 -36 L286.437 -36 L286.603 -36 L286.768 -36 L286.933 -36 L287.099 -36 L287.264 -36 L287.429 -36 L287.595 -36 L287.76 -36 L287.925 -36 L288.091 -36 L288.256 -36 L288.421 -36 L288.587 -36 L288.752 -36 L288.917 -36 L289.083 -36 L289.248 -36 L289.413 -36 L289.579 -36 L289.744 -36 L289.909 -36 L290.075 -36 L290.24 -36 L290.405 -36 L290.571 -36 L290.736 -36 L290.901 -36 L291.067 -36 L291.232 -36 L291.397 -36 L291.563 -36 L291.728 -36 L291.893 -36 L292.059 -36 L292.224 -36 L292.389 -36 L292.555 -36 L292.72 -36 L292.885 -36 L293.051 -36 L293.216 -36 L293.381 -36 L293.547 -36 L293.712 -36 L293.877 -36 L294.043 -36 L294.208 -36 L294.373 -36 L294.539 -36 L294.704 -36 L294.869 -36 L295.035 -36 L295.2 -36 L295.365 -36 L295.531 -36 L295.696 -36 L295.861 -36 L296.027 -36 L296.192 -36 L296.357 -36 L296.523 -36 L296.688 -36 L296.853 -36 L297.019 -36 L297.184 -36 L297.349 -36 L297.515 -36 L297.68 -36 L297.845 -36 L298.011 -36 L298.176 -36 L298.341 -36 L298.507 -36 L298.672 -36 L298.837 -36 L299.003 -36 L299.168 -36 L299.333 -36 L299.499 -36 L299.664 -36 L299.829 -36 L299.995 -36 L300.16 -36 L300.325 -36 L300.491 -36 L300.656 -36 L300.821 -36 L300.987 -36 L301.152 -36 L301.317 -36 L301.483 -36 L301.648 -36 L301.813 -36 L301.979 -36 L302.144 -36 L302.309 -36 L302.475 -36 L302.64 -36 L302.805 -36 L302.971 -36 L303.136 -36 L303.301 -36 L303.467 -36 L303.632 -36 L303.797 -36 L303.963 -36 L304.128 -36 L304.293 -36 L304.459 -36 L304.624 -36 L304.789 -36 L304.955 -36 L305.12 -36 L305.285 -36 L305.451 -36 L305.616 -36 L305.781 -36 L305.947 -36 L306.112 -36 L306.277 -36 L306.443 -36 L306.608 -36 L306.773 -36 L306.939 -36 L307.104 -36 L307.269 -36 L307.435 -36 L307.6 -36 L307.765 -36 L307.931 -36 L308.096 -36 L308.261 -36 L308.427 -36 L308.592 -36 L308.757 -36 L308.923 -36 L309.088 -36 L309.253 -36 L309.419 -36 L309.584 -36 L309.749 -36 L309.915 -36 L310.08 -36 L310.245 -36 L310.411 -36 L310.576 -36 L310.741 -36 L310.907 -36 L311.072 -36 L311.237 -36 L311.403 -36 L311.568 -36 L311.733 -36 L311.899 -36 L312.064 -36 L312.229 -36 L312.395 -36 L312.56 -36 L312.725 -36 L312.891 -36 L313.056 -36 L313.221 -36 L313.387 -36 L313.552 -36 L313.717 -36 L313.883 -36 L314.048 -36 L314.213 -36 L314.379 -36 L314.544 -36 L314.709 -36 L314.875 -36 L315.04 -36 L315.205 -36 L315.371 -36 L315.536 -36 L315.701 -36 L315.867 -36 L316.032 -36 L316.197 -36 L316.363 -36 L316.528 -36 L316.693 -36 L316.859 -36 L317.024 -36 L317.189 -36 L317.355 -36 L317.52 -36 L317.685 -36 L317.851 -36 L318.016 -36 L318.181 -36 L318.347 -36 L318.512 -36 L318.677 -36 L318.843 -36 L319.008 -36 L319.173 -36 L319.339 -36 L319.504 -36 L319.669 -36 L319.835 -36 L320 -36 L320.165 -36 L320.331 -36 L320.496 -36 L320.661 -36 L320.827 -36 L320.992 -36 L321.157 -36 L321.323 -36 L321.488 -36 L321.653 -36 L321.819 -36 L321.984 -36 L322.149 -36 L322.315 -36 L322.48 -36 L322.645 -36 L322.811 -36 L322.976 -36 L323.141 -36 L323.307 -36 L323.472 -36 L323.637 -36 L323.803 -36 L323.968 -36 L324.133 -36 L324.299 -36 L324.464 -36 L324.629 -36 L324.795 -36 L324.96 -36 L325.125 -36 L325.291 -36 L325.456 -36 L325.621 -36 L325.787 -36 L325.952 -36 L326.117 -36 L326.283 -36 L326.448 -36 L326.448 -160.954 L326.448 -160.954 L326.283 -161.118 L326.117 -161.282 L325.952 -161.446 L325.787 -161.61 L325.621 -161.774 L325.456 -161.937 L325.291 -162.101 L325.125 -162.265 L324.96 -162.428 L324.795 -162.592 L324.629 -162.755 L324.464 -162.919 L324.299 -163.082 L324.133 -163.246 L323.968 -163.409 L323.803 -163.573 L323.637 -163.736 L323.472 -163.899 L323.307 -164.062 L323.141 -164.226 L322.976 -164.389 L322.811 -164.552 L322.645 -164.715 L322.48 -164.878 L322.315 -165.041 L322.149 -165.204 L321.984 -165.367 L321.819 -165.53 L321.653 -165.692 L321.488 -165.855 L321.323 -166.018 L321.157 -166.18 L320.992 -166.343 L320.827 -166.506 L320.661 -166.668 L320.496 -166.83 L320.331 -166.993 L320.165 -167.155 L320 -167.318 L319.835 -167.48 L319.669 -167.642 L319.504 -167.804 L319.339 -167.966 L319.173 -168.128 L319.008 -168.29 L318.843 -168.452 L318.677 -168.614 L318.512 -168.776 L318.347 -168.938 L318.181 -169.099 L318.016 -169.261 L317.851 -169.423 L317.685 -169.584 L317.52 -169.746 L317.355 -169.907 L317.189 -170.068 L317.024 -170.23 L316.859 -170.391 L316.693 -170.552 L316.528 -170.713 L316.363 -170.874 L316.197 -171.035 L316.032 -171.196 L315.867 -171.357 L315.701 -171.518 L315.536 -171.679 L315.371 -171.84 L315.205 -172 L315.04 -172.161 L314.875 -172.321 L314.709 -172.482 L314.544 -172.642 L314.379 -172.802 L314.213 -172.963 L314.048 -173.123 L313.883 -173.283 L313.717 -173.443 L313.552 -173.603 L313.387 -173.763 L313.221 -173.923 L313.056 -174.083 L312.891 -174.242 L312.725 -174.402 L312.56 -174.562 L312.395 -174.721 L312.229 -174.881 L312.064 -175.04 L311.899 -175.199 L311.733 -175.358 L311.568 -175.518 L311.403 -175.677 L311.237 -175.836 L311.072 -175.995 L310.907 -176.153 L310.741 -176.312 L310.576 -176.471 L310.411 -176.63 L310.245 -176.788 L310.08 -176.947 L309.915 -177.105 L309.749 -177.263 L309.584 -177.422 L309.419 -177.58 L309.253 -177.738 L309.088 -177.896 L308.923 -178.054 L308.757 -178.212 L308.592 -178.37 L308.427 -178.527 L308.261 -178.685 L308.096 -178.842 L307.931 -179 L307.765 -179.157 L307.6 -179.314 L307.435 -179.472 L307.269 -179.629 L307.104 -179.786 L306.939 -179.943 L306.773 -180.1 L306.608 -180.256 L306.443 -180.413 L306.277 -180.57 L306.112 -180.726 L305.947 -180.883 L305.781 -181.039 L305.616 -181.195 L305.451 -181.352 L305.285 -181.508 L305.12 -181.664 L304.955 -181.82 L304.789 -181.975 L304.624 -182.131 L304.459 -182.287 L304.293 -182.442 L304.128 -182.598 L303.963 -182.753 L303.797 -182.908 L303.632 -183.064 L303.467 -183.219 L303.301 -183.374 L303.136 -183.529 L302.971 -183.683 L302.805 -183.838 L302.64 -183.993 L302.475 -184.147 L302.309 -184.302 L302.144 -184.456 L301.979 -184.61 L301.813 -184.764 L301.648 -184.918 L301.483 -185.072 L301.317 -185.226 L301.152 -185.38 L300.987 -185.534 L300.821 -185.687 L300.656 -185.841 L300.491 -185.994 L300.325 -186.147 L300.16 -186.3 L299.995 -186.453 L299.829 -186.606 L299.664 -186.759 L299.499 -186.912 L299.333 -187.064 L299.168 -187.217 L299.003 -187.369 L298.837 -187.522 L298.672 -187.674 L298.507 -187.826 L298.341 -187.978 L298.176 -188.13 L298.011 -188.282 L297.845 -188.433 L297.68 -188.585 L297.515 -188.736 L297.349 -188.888 L297.184 -189.039 L297.019 -189.19 L296.853 -189.341 L296.688 -189.492 L296.523 -189.643 L296.357 -189.793 L296.192 -189.944 L296.027 -190.094 L295.861 -190.245 L295.696 -190.395 L295.531 -190.545 L295.365 -190.695 L295.2 -190.845 L295.035 -190.995 L294.869 -191.144 L294.704 -191.294 L294.539 -191.443 L294.373 -191.593 L294.208 -191.742 L294.043 -191.891 L293.877 -192.04 L293.712 -192.189 L293.547 -192.338 L293.381 -192.486 L293.216 -192.635 L293.051 -192.783 L292.885 -192.931 L292.72 -193.079 L292.555 -193.227 L292.389 -193.375 L292.224 -193.523 L292.059 -193.671 L291.893 -193.818 L291.728 -193.966 L291.563 -194.113 L291.397 -194.26 L291.232 -194.407 L291.067 -194.554 L290.901 -194.701 L290.736 -194.847 L290.571 -194.994 L290.405 -195.14 L290.24 -195.286 L290.075 -195.433 L289.909 -195.579 L289.744 -195.724 L289.579 -195.87 L289.413 -196.016 L289.248 -196.161 L289.083 -196.307 L288.917 -196.452 L288.752 -196.597 L288.587 -196.742 L288.421 -196.887 L288.256 -197.031 L288.091 -197.176 L287.925 -197.32 L287.76 -197.465 L287.595 -197.609 L287.429 -197.753 L287.264 -197.897 L287.099 -198.041 L286.933 -198.184 L286.768 -198.328 L286.603 -198.471 L286.437 -198.614 L286.272 -198.757 L286.107 -198.9 L285.941 -199.043 L285.776 -199.186 L285.611 -199.328 L285.445 -199.471 L285.28 -199.613 L285.115 -199.755 L284.949 -199.897 L284.784 -200.039 L284.619 -200.181 L284.453 -200.322 L284.288 -200.464 L284.123 -200.605 L283.957 -200.746 L283.792 -200.887 L283.627 -201.028 L283.461 -201.168 L283.296 -201.309 L283.131 -201.449 L282.965 -201.59 L282.8 -201.73 L282.635 -201.87 L282.469 -202.009 L282.304 -202.149 L282.139 -202.289 L281.973 -202.428 L281.808 -202.567 L281.643 -202.706 L281.477 -202.845 L281.312 -202.984 L281.147 -203.123 L280.981 -203.261 L280.816 -203.399 L280.651 -203.537 L280.485 -203.675 L280.32 -203.813 L280.155 -203.951 L279.989 -204.089 L279.824 -204.226 L279.659 -204.363 L279.493 -204.5 L279.328 -204.637 L279.163 -204.774 L278.997 -204.911 L278.832 -205.047 L278.667 -205.183 L278.501 -205.32 L278.336 -205.456 L278.171 -205.591 L278.005 -205.727 L277.84 -205.863 L277.675 -205.998 L277.509 -206.133 L277.344 -206.268 L277.179 -206.403 L277.013 -206.538 L276.848 -206.672 L276.683 -206.807 L276.517 -206.941 L276.352 -207.075 L276.187 -207.209 L276.021 -207.343 L275.856 -207.476 L275.691 -207.61 L275.525 -207.743 L275.36 -207.876 L275.195 -208.009 L275.029 -208.142 L274.864 -208.274 L274.699 -208.407 L274.533 -208.539 L274.368 -208.671 L274.203 -208.803 L274.037 -208.934 L273.872 -209.066 L273.707 -209.197 L273.541 -209.329 L273.376 -209.46 L273.211 -209.591 L273.045 -209.721 L272.88 -209.852 L272.715 -209.982 L272.549 -210.112 L272.384 -210.242 L272.219 -210.372 L272.053 -210.502 L271.888 -210.632 L271.723 -210.761 L271.557 -210.89 L271.392 -211.019 L271.227 -211.148 L271.061 -211.276 L270.896 -211.405 L270.731 -211.533 L270.565 -211.661 L270.4 -211.789 L270.235 -211.917 L270.069 -212.044 L269.904 -212.172 L269.739 -212.299 L269.573 -212.426 L269.408 -212.553 L269.243 -212.68 L269.077 -212.806 L268.912 -212.932 L268.747 -213.058 L268.581 -213.184 L268.416 -213.31 L268.251 -213.436 L268.085 -213.561 L267.92 -213.686 L267.755 -213.811 L267.589 -213.936 L267.424 -214.061 L267.259 -214.185 L267.093 -214.309 L266.928 -214.433 L266.763 -214.557 L266.597 -214.681 L266.432 -214.805 L266.267 -214.928 L266.101 -215.051 L265.936 -215.174 L265.771 -215.297 L265.605 -215.419 L265.44 -215.542 L265.275 -215.664 L265.109 -215.786 L264.944 -215.908 L264.779 -216.029 L264.613 -216.151 L264.448 -216.272 L264.283 -216.393 L264.117 -216.514 L263.952 -216.634 L263.787 -216.755 L263.621 -216.875 L263.456 -216.995 L263.291 -217.115 L263.125 -217.235 L262.96 -217.354 L262.795 -217.473 L262.629 -217.592 L262.464 -217.711 L262.299 -217.83 L262.133 -217.948 L261.968 -218.067 L261.803 -218.185 L261.637 -218.303 L261.472 -218.42 L261.307 -218.538 L261.141 -218.655 L260.976 -218.772 L260.811 -218.889 L260.645 -219.006 L260.48 -219.122 L260.315 -219.238 L260.149 -219.354 L259.984 -219.47 L259.819 -219.586 L259.653 -219.701 L259.488 -219.816 L259.323 -219.931 L259.157 -220.046 L258.992 -220.161 L258.827 -220.275 L258.661 -220.389 L258.496 -220.503 L258.331 -220.617 L258.165 -220.731 L258 -220.844 L257.835 -220.957 L257.669 -221.07 L257.504 -221.183 L257.339 -221.295 L257.173 -221.407 L257.008 -221.52 L256.843 -221.631 L256.677 -221.743 L256.512 -221.855 L256.347 -221.966 L256.181 -222.077 L256.016 -222.188 L255.851 -222.298 L255.685 -222.408 L255.52 -222.519 L255.355 -222.629 L255.189 -222.738 L255.024 -222.848 L254.859 -222.957 L254.693 -223.066 L254.528 -223.175 L254.363 -223.283 L254.197 -223.392 L254.032 -223.5 L253.867 -223.608 L253.701 -223.716 L253.536 -223.823 L253.371 -223.931 L253.205 -224.038 L253.04 -224.144 L252.875 -224.251 L252.709 -224.357 L252.544 -224.464 L252.379 -224.57 L252.213 -224.675 L252.048 -224.781 L251.883 -224.886 L251.717 -224.991 L251.552 -225.096 L251.387 -225.2 L251.221 -225.305 L251.056 -225.409 L250.891 -225.513 L250.725 -225.617 L250.56 -225.72 L250.395 -225.823 L250.229 -225.926 L250.064 -226.029 L249.899 -226.131 L249.733 -226.234 L249.568 -226.336 L249.403 -226.438 L249.237 -226.539 L249.072 -226.641 L248.907 -226.742 L248.741 -226.843 L248.576 -226.943 L248.411 -227.044 L248.245 -227.144 L248.08 -227.244 L247.915 -227.344 L247.749 -227.443 L247.584 -227.542 L247.419 -227.641 L247.253 -227.74 L247.088 -227.839 L246.923 -227.937 L246.757 -228.035 L246.592 -228.133 L246.427 -228.23 L246.261 -228.328 L246.096 -228.425 L245.931 -228.522 L245.765 -228.618 L245.6 -228.715 L245.435 -228.811 L245.269 -228.907 L245.104 -229.002 L244.939 -229.098 L244.773 -229.193 L244.608 -229.288 L244.443 -229.383 L244.277 -229.477 L244.112 -229.571 L243.947 -229.665 L243.781 -229.759 L243.616 -229.852 L243.451 -229.945 L243.285 -230.038 L243.12 -230.131 L242.955 -230.223 L242.789 -230.316 L242.624 -230.408 L242.459 -230.499 L242.293 -230.591 L242.128 -230.682 L241.963 -230.773 L241.797 -230.864 L241.632 -230.954 L241.467 -231.044 L241.301 -231.134 L241.136 -231.224 L240.971 -231.313 L240.805 -231.402 L240.64 -231.491 L240.475 -231.58 L240.309 -231.668 L240.144 -231.757 L239.979 -231.844 L239.813 -231.932 L239.648 -232.019 L239.483 -232.107 L239.317 -232.193 L239.152 -232.28 L238.987 -232.366 L238.821 -232.453 L238.656 -232.538 L238.491 -232.624 L238.325 -232.709 L238.16 -232.794 L237.995 -232.879 L237.829 -232.964 L237.664 -233.048 L237.499 -233.132 L237.333 -233.216 L237.168 -233.299 L237.003 -233.382 L236.837 -233.465 L236.672 -233.548 L236.507 -233.63 L236.341 -233.712 L236.176 -233.794 L236.011 -233.876 L235.845 -233.957 L235.68 -234.038 L235.515 -234.119 L235.349 -234.2 L235.184 -234.28 L235.019 -234.36 L234.853 -234.44 L234.688 -234.519 L234.523 -234.598 L234.357 -234.677 L234.192 -234.756 L234.027 -234.834 L233.861 -234.912 L233.696 -234.99 L233.531 -235.068 L233.365 -235.145 L233.2 -235.222 L233.035 -235.299 L232.869 -235.375 L232.704 -235.452 L232.539 -235.527 L232.373 -235.603 L232.208 -235.678 L232.043 -235.754 L231.877 -235.828 L231.712 -235.903 L231.547 -235.977 L231.381 -236.051 L231.216 -236.125 L231.051 -236.198 L230.885 -236.271 L230.72 -236.344 L230.555 -236.417 L230.389 -236.489 L230.224 -236.561 L230.059 -236.633 L229.893 -236.704 L229.728 -236.775 L229.563 -236.846 L229.397 -236.917 L229.232 -236.987 L229.067 -237.057 L228.901 -237.127 L228.736 -237.196 L228.571 -237.266 L228.405 -237.335 L228.24 -237.403 L228.075 -237.471 L227.909 -237.539 L227.744 -237.607 L227.579 -237.675 L227.413 -237.742 L227.248 -237.809 L227.083 -237.875 L226.917 -237.942 L226.752 -238.008 L226.587 -238.073 L226.421 -238.139 L226.256 -238.204 L226.091 -238.269 L225.925 -238.333 L225.76 -238.397 L225.595 -238.461 L225.429 -238.525 L225.264 -238.588 L225.099 -238.652 L224.933 -238.714 L224.768 -238.777 L224.603 -238.839 L224.437 -238.901 L224.272 -238.962 L224.107 -239.024 L223.941 -239.085 L223.776 -239.145 L223.611 -239.206 L223.445 -239.266 L223.28 -239.326 L223.115 -239.385 L222.949 -239.445 L222.784 -239.503 L222.619 -239.562 L222.453 -239.62 L222.288 -239.678 L222.123 -239.736 L221.957 -239.793 L221.792 -239.851 L221.627 -239.907 L221.461 -239.964 L221.296 -240.02 L221.131 -240.076 L220.965 -240.131 L220.8 -240.187 L220.635 -240.242 L220.469 -240.296 L220.304 -240.351 L220.139 -240.405 L219.973 -240.458 L219.808 -240.512 L219.643 -240.565 L219.477 -240.618 L219.312 -240.67 L219.147 -240.722 L218.981 -240.774 L218.816 -240.826 L218.651 -240.877 L218.485 -240.928 L218.32 -240.979 L218.155 -241.029 L217.989 -241.079 L217.824 -241.129 L217.659 -241.178 L217.493 -241.227 L217.328 -241.276 L217.163 -241.324 L216.997 -241.372 L216.832 -241.42 L216.667 -241.468 L216.501 -241.515 L216.336 -241.562 L216.171 -241.608 L216.005 -241.654 L215.84 -241.7 L215.675 -241.746 L215.509 -241.791 L215.344 -241.836 L215.179 -241.881 L215.013 -241.925 L214.848 -241.969 L214.683 -242.013 L214.517 -242.056 L214.352 -242.099 L214.187 -242.142 L214.021 -242.184 L213.856 -242.226 L213.691 -242.268 L213.525 -242.309 L213.36 -242.35 L213.195 -242.391 L213.029 -242.431 L212.864 -242.471 L212.699 -242.511 L212.533 -242.551 L212.368 -242.59 L212.203 -242.629 L212.037 -242.667 L211.872 -242.705 L211.707 -242.743 L211.541 -242.78 L211.376 -242.817 L211.211 -242.854 L211.045 -242.891 L210.88 -242.927 L210.715 -242.963 L210.549 -242.998 L210.384 -243.033 L210.219 -243.068 L210.053 -243.103 L209.888 -243.137 L209.723 -243.171 L209.557 -243.204 L209.392 -243.237 L209.227 -243.27 L209.061 -243.302 L208.896 -243.335 L208.731 -243.366 L208.565 -243.398 L208.4 -243.429 L208.235 -243.46 L208.069 -243.49 L207.904 -243.52 L207.739 -243.55 L207.573 -243.58 L207.408 -243.609 L207.243 -243.637 L207.077 -243.666 L206.912 -243.694 L206.747 -243.722 L206.581 -243.749 L206.416 -243.776 L206.251 -243.803 L206.085 -243.829 L205.92 -243.855 L205.755 -243.881 L205.589 -243.906 L205.424 -243.931 L205.259 -243.956 L205.093 -243.98 L204.928 -244.004 L204.763 -244.027 L204.597 -244.051 L204.432 -244.073 L204.267 -244.096 L204.101 -244.118 L203.936 -244.14 L203.771 -244.162 L203.605 -244.183 L203.44 -244.204 L203.275 -244.224 L203.109 -244.244 L202.944 -244.264 L202.779 -244.283 L202.613 -244.302 L202.448 -244.321 L202.283 -244.339 L202.117 -244.357 L201.952 -244.375 L201.787 -244.392 L201.621 -244.409 L201.456 -244.426 L201.291 -244.442 L201.125 -244.458 L200.96 -244.473 L200.795 -244.488 L200.629 -244.503 L200.464 -244.517 L200.299 -244.531 L200.133 -244.545 L199.968 -244.558 L199.803 -244.571 L199.637 -244.584 L199.472 -244.596 L199.307 -244.608 L199.141 -244.62 L198.976 -244.631 L198.811 -244.642 L198.645 -244.652 L198.48 -244.662 L198.315 -244.672 L198.149 -244.681 L197.984 -244.69 L197.819 -244.699 L197.653 -244.707 L197.488 -244.715 L197.323 -244.723 L197.157 -244.73 L196.992 -244.737 L196.827 -244.743 L196.661 -244.749 L196.496 -244.755 L196.331 -244.76 L196.165 -244.765 L196 -244.77 L195.835 -244.774 L195.669 -244.778 L195.504 -244.781 L195.339 -244.784 L195.173 -244.787 L195.008 -244.789 L194.843 -244.791 L194.677 -244.793 L194.512 -244.794 L194.347 -244.795 L194.181 -244.796 L194.016 -244.796 L193.851 -244.795 L193.685 -244.795 L193.52 -244.794 L193.355 -244.792 L193.189 -244.791 L193.024 -244.789 L192.859 -244.786 L192.693 -244.783 L192.528 -244.78 L192.363 -244.776 L192.197 -244.772 L192.032 -244.768 L191.867 -244.763 L191.701 -244.758 L191.536 -244.752 L191.371 -244.746 L191.205 -244.74 L191.04 -244.733 L190.875 -244.726 L190.709 -244.719 L190.544 -244.711 L190.379 -244.703 L190.213 -244.694 L190.048 -244.685 L189.883 -244.676 L189.717 -244.666 L189.552 -244.656 L189.387 -244.645 L189.221 -244.634 L189.056 -244.623 L188.891 -244.611 L188.725 -244.599 L188.56 -244.587 L188.395 -244.574 L188.229 -244.561 L188.064 -244.547 L187.899 -244.533 L187.733 -244.518 L187.568 -244.504 L187.403 -244.488 L187.237 -244.473 L187.072 -244.457 L186.907 -244.44 L186.741 -244.424 L186.576 -244.406 L186.411 -244.389 L186.245 -244.371 L186.08 -244.353 L185.915 -244.334 L185.749 -244.315 L185.584 -244.295 L185.419 -244.275 L185.253 -244.255 L185.088 -244.234 L184.923 -244.213 L184.757 -244.191 L184.592 -244.169 L184.427 -244.147 L184.261 -244.124 L184.096 -244.101 L183.931 -244.078 L183.765 -244.054 L183.6 -244.029 L183.435 -244.005 L183.269 -243.979 L183.104 -243.954 L182.939 -243.928 L182.773 -243.902 L182.608 -243.875 L182.443 -243.848 L182.277 -243.82 L182.112 -243.792 L181.947 -243.764 L181.781 -243.735 L181.616 -243.706 L181.451 -243.676 L181.285 -243.646 L181.12 -243.616 L180.955 -243.585 L180.789 -243.554 L180.624 -243.522 L180.459 -243.49 L180.293 -243.458 L180.128 -243.425 L179.963 -243.391 L179.797 -243.358 L179.632 -243.324 L179.467 -243.289 L179.301 -243.254 L179.136 -243.219 L178.971 -243.183 L178.805 -243.147 L178.64 -243.11 L178.475 -243.073 L178.309 -243.036 L178.144 -242.998 L177.979 -242.96 L177.813 -242.921 L177.648 -242.882 L177.483 -242.843 L177.317 -242.803 L177.152 -242.762 L176.987 -242.722 L176.821 -242.681 L176.656 -242.639 L176.491 -242.597 L176.325 -242.555 L176.16 -242.512 L175.995 -242.468 L175.829 -242.425 L175.664 -242.381 L175.499 -242.336 L175.333 -242.291 L175.168 -242.246 L175.003 -242.2 L174.837 -242.154 L174.672 -242.107 L174.507 -242.06 L174.341 -242.012 L174.176 -241.965 L174.011 -241.916 L173.845 -241.867 L173.68 -241.818 L173.515 -241.769 L173.349 -241.719 L173.184 -241.668 L173.019 -241.617 L172.853 -241.566 L172.688 -241.514 L172.523 -241.462 L172.357 -241.409 L172.192 -241.356 L172.027 -241.303 L171.861 -241.249 L171.696 -241.194 L171.531 -241.14 L171.365 -241.084 L171.2 -241.029 L171.035 -240.973 L170.869 -240.916 L170.704 -240.859 L170.539 -240.802 L170.373 -240.744 L170.208 -240.686 L170.043 -240.627 L169.877 -240.568 L169.712 -240.508 L169.547 -240.448 L169.381 -240.388 L169.216 -240.327 L169.051 -240.265 L168.885 -240.204 L168.72 -240.141 L168.555 -240.079 L168.389 -240.016 L168.224 -239.952 L168.059 -239.888 L167.893 -239.824 L167.728 -239.759 L167.563 -239.694 L167.397 -239.628 L167.232 -239.562 L167.067 -239.495 L166.901 -239.428 L166.736 -239.36 L166.571 -239.293 L166.405 -239.224 L166.24 -239.155 L166.075 -239.086 L165.909 -239.016 L165.744 -238.946 L165.579 -238.875 L165.413 -238.804 L165.248 -238.733 L165.083 -238.661 L164.917 -238.588 L164.752 -238.515 L164.587 -238.442 L164.421 -238.368 L164.256 -238.294 L164.091 -238.219 L163.925 -238.144 L163.76 -238.069 L163.595 -237.993 L163.429 -237.916 L163.264 -237.839 L163.099 -237.762 L162.933 -237.684 L162.768 -237.605 L162.603 -237.527 L162.437 -237.447 L162.272 -237.368 L162.107 -237.288 L161.941 -237.207 L161.776 -237.126 L161.611 -237.044 L161.445 -236.962 L161.28 -236.88 z " id="mcb08f00bea"/>
    </defs>
    <g clip-path="url(#pd17d8af51d)">
     <use style="fill:#ffdc52;fill-opacity:0.4;" x="0.0" xlink:href="#mcb08f00bea" y="288.0"/>
    </g>
   </g>
   <g id="PolyCollection_2">
    <defs>
     <path d=" M161.28 -236.88 L161.28 -36 L161.463 -36 L161.646 -36 L161.83 -36 L162.013 -36 L162.196 -36 L162.379 -36 L162.562 -36 L162.746 -36 L162.929 -36 L163.112 -36 L163.295 -36 L163.478 -36 L163.662 -36 L163.845 -36 L164.028 -36 L164.211 -36 L164.395 -36 L164.578 -36 L164.761 -36 L164.944 -36 L165.127 -36 L165.311 -36 L165.494 -36 L165.677 -36 L165.86 -36 L166.043 -36 L166.227 -36 L166.41 -36 L166.593 -36 L166.776 -36 L166.959 -36 L167.143 -36 L167.326 -36 L167.509 -36 L167.692 -36 L167.875 -36 L168.059 -36 L168.242 -36 L168.425 -36 L168.608 -36 L168.791 -36 L168.975 -36 L169.158 -36 L169.341 -36 L169.524 -36 L169.708 -36 L169.891 -36 L170.074 -36 L170.257 -36 L170.44 -36 L170.624 -36 L170.807 -36 L170.99 -36 L171.173 -36 L171.356 -36 L171.54 -36 L171.723 -36 L171.906 -36 L172.089 -36 L172.272 -36 L172.456 -36 L172.639 -36 L172.822 -36 L173.005 -36 L173.188 -36 L173.372 -36 L173.555 -36 L173.738 -36 L173.921 -36 L174.105 -36 L174.288 -36 L174.471 -36 L174.654 -36 L174.837 -36 L175.021 -36 L175.204 -36 L175.387 -36 L175.57 -36 L175.753 -36 L175.937 -36 L176.12 -36 L176.303 -36 L176.486 -36 L176.669 -36 L176.853 -36 L177.036 -36 L177.219 -36 L177.402 -36 L177.585 -36 L177.769 -36 L177.952 -36 L178.135 -36 L178.318 -36 L178.501 -36 L178.685 -36 L178.868 -36 L179.051 -36 L179.234 -36 L179.418 -36 L179.601 -36 L179.784 -36 L179.967 -36 L180.15 -36 L180.334 -36 L180.517 -36 L180.7 -36 L180.883 -36 L181.066 -36 L181.25 -36 L181.433 -36 L181.616 -36 L181.799 -36 L181.982 -36 L182.166 -36 L182.349 -36 L182.532 -36 L182.715 -36 L182.898 -36 L183.082 -36 L183.265 -36 L183.448 -36 L183.631 -36 L183.814 -36 L183.998 -36 L184.181 -36 L184.364 -36 L184.547 -36 L184.731 -36 L184.914 -36 L185.097 -36 L185.28 -36 L185.463 -36 L185.647 -36 L185.83 -36 L186.013 -36 L186.196 -36 L186.379 -36 L186.563 -36 L186.746 -36 L186.929 -36 L187.112 -36 L187.295 -36 L187.479 -36 L187.662 -36 L187.845 -36 L188.028 -36 L188.211 -36 L188.395 -36 L188.578 -36 L188.761 -36 L188.944 -36 L189.127 -36 L189.311 -36 L189.494 -36 L189.677 -36 L189.86 -36 L190.044 -36 L190.227 -36 L190.41 -36 L190.593 -36 L190.776 -36 L190.96 -36 L191.143 -36 L191.326 -36 L191.509 -36 L191.692 -36 L191.876 -36 L192.059 -36 L192.242 -36 L192.425 -36 L192.608 -36 L192.792 -36 L192.975 -36 L193.158 -36 L193.341 -36 L193.524 -36 L193.708 -36 L193.891 -36 L194.074 -36 L194.257 -36 L194.441 -36 L194.624 -36 L194.807 -36 L194.99 -36 L195.173 -36 L195.357 -36 L195.54 -36 L195.723 -36 L195.906 -36 L196.089 -36 L196.273 -36 L196.456 -36 L196.639 -36 L196.822 -36 L197.005 -36 L197.189 -36 L197.372 -36 L197.555 -36 L197.738 -36 L197.921 -36 L198.105 -36 L198.288 -36 L198.471 -36 L198.654 -36 L198.837 -36 L199.021 -36 L199.204 -36 L199.387 -36 L199.57 -36 L199.754 -36 L199.937 -36 L200.12 -36 L200.303 -36 L200.486 -36 L200.67 -36 L200.853 -36 L201.036 -36 L201.219 -36 L201.402 -36 L201.586 -36 L201.769 -36 L201.952 -36 L202.135 -36 L202.318 -36 L202.502 -36 L202.685 -36 L202.868 -36 L203.051 -36 L203.234 -36 L203.418 -36 L203.601 -36 L203.784 -36 L203.967 -36 L204.15 -36 L204.334 -36 L204.517 -36 L204.7 -36 L204.883 -36 L205.067 -36 L205.25 -36 L205.433 -36 L205.616 -36 L205.799 -36 L205.983 -36 L206.166 -36 L206.349 -36 L206.532 -36 L206.715 -36 L206.899 -36 L207.082 -36 L207.265 -36 L207.448 -36 L207.631 -36 L207.815 -36 L207.998 -36 L208.181 -36 L208.364 -36 L208.547 -36 L208.731 -36 L208.914 -36 L209.097 -36 L209.28 -36 L209.463 -36 L209.647 -36 L209.83 -36 L210.013 -36 L210.196 -36 L210.38 -36 L210.563 -36 L210.746 -36 L210.929 -36 L211.112 -36 L211.296 -36 L211.479 -36 L211.662 -36 L211.845 -36 L212.028 -36 L212.212 -36 L212.395 -36 L212.578 -36 L212.761 -36 L212.944 -36 L213.128 -36 L213.311 -36 L213.494 -36 L213.677 -36 L213.86 -36 L214.044 -36 L214.227 -36 L214.41 -36 L214.593 -36 L214.777 -36 L214.96 -36 L215.143 -36 L215.326 -36 L215.509 -36 L215.693 -36 L215.876 -36 L216.059 -36 L216.242 -36 L216.425 -36 L216.609 -36 L216.792 -36 L216.975 -36 L217.158 -36 L217.341 -36 L217.525 -36 L217.708 -36 L217.891 -36 L218.074 -36 L218.257 -36 L218.441 -36 L218.624 -36 L218.807 -36 L218.99 -36 L219.173 -36 L219.357 -36 L219.54 -36 L219.723 -36 L219.906 -36 L220.09 -36 L220.273 -36 L220.456 -36 L220.639 -36 L220.822 -36 L221.006 -36 L221.189 -36 L221.372 -36 L221.555 -36 L221.738 -36 L221.922 -36 L222.105 -36 L222.288 -36 L222.471 -36 L222.654 -36 L222.838 -36 L223.021 -36 L223.204 -36 L223.387 -36 L223.57 -36 L223.754 -36 L223.937 -36 L224.12 -36 L224.303 -36 L224.486 -36 L224.67 -36 L224.853 -36 L225.036 -36 L225.219 -36 L225.403 -36 L225.586 -36 L225.769 -36 L225.952 -36 L226.135 -36 L226.319 -36 L226.502 -36 L226.685 -36 L226.868 -36 L227.051 -36 L227.235 -36 L227.418 -36 L227.601 -36 L227.784 -36 L227.967 -36 L228.151 -36 L228.334 -36 L228.517 -36 L228.7 -36 L228.883 -36 L229.067 -36 L229.25 -36 L229.433 -36 L229.616 -36 L229.799 -36 L229.983 -36 L230.166 -36 L230.349 -36 L230.532 -36 L230.716 -36 L230.899 -36 L231.082 -36 L231.265 -36 L231.448 -36 L231.632 -36 L231.815 -36 L231.998 -36 L232.181 -36 L232.364 -36 L232.548 -36 L232.731 -36 L232.914 -36 L233.097 -36 L233.28 -36 L233.464 -36 L233.647 -36 L233.83 -36 L234.013 -36 L234.196 -36 L234.38 -36 L234.563 -36 L234.746 -36 L234.929 -36 L235.113 -36 L235.296 -36 L235.479 -36 L235.662 -36 L235.845 -36 L236.029 -36 L236.212 -36 L236.395 -36 L236.578 -36 L236.761 -36 L236.945 -36 L237.128 -36 L237.311 -36 L237.494 -36 L237.677 -36 L237.861 -36 L238.044 -36 L238.227 -36 L238.41 -36 L238.593 -36 L238.777 -36 L238.96 -36 L239.143 -36 L239.326 -36 L239.509 -36 L239.693 -36 L239.876 -36 L240.059 -36 L240.242 -36 L240.426 -36 L240.609 -36 L240.792 -36 L240.975 -36 L241.158 -36 L241.342 -36 L241.525 -36 L241.708 -36 L241.891 -36 L242.074 -36 L242.258 -36 L242.441 -36 L242.624 -36 L242.807 -36 L242.99 -36 L243.174 -36 L243.357 -36 L243.54 -36 L243.723 -36 L243.906 -36 L244.09 -36 L244.273 -36 L244.456 -36 L244.639 -36 L244.822 -36 L245.006 -36 L245.189 -36 L245.372 -36 L245.555 -36 L245.739 -36 L245.922 -36 L246.105 -36 L246.288 -36 L246.471 -36 L246.655 -36 L246.838 -36 L247.021 -36 L247.204 -36 L247.387 -36 L247.571 -36 L247.754 -36 L247.937 -36 L248.12 -36 L248.303 -36 L248.487 -36 L248.67 -36 L248.853 -36 L249.036 -36 L249.219 -36 L249.403 -36 L249.586 -36 L249.769 -36 L249.952 -36 L250.135 -36 L250.319 -36 L250.502 -36 L250.685 -36 L250.868 -36 L251.052 -36 L251.235 -36 L251.418 -36 L251.601 -36 L251.784 -36 L251.968 -36 L252.151 -36 L252.334 -36 L252.517 -36 L252.7 -36 L252.884 -36 L253.067 -36 L253.25 -36 L253.433 -36 L253.616 -36 L253.8 -36 L253.983 -36 L254.166 -36 L254.349 -36 L254.532 -36 L254.716 -36 L254.899 -36 L255.082 -36 L255.265 -36 L255.449 -36 L255.632 -36 L255.815 -36 L255.998 -36 L256.181 -36 L256.365 -36 L256.548 -36 L256.731 -36 L256.914 -36 L257.097 -36 L257.281 -36 L257.464 -36 L257.647 -36 L257.83 -36 L258.013 -36 L258.197 -36 L258.38 -36 L258.563 -36 L258.746 -36 L258.929 -36 L259.113 -36 L259.296 -36 L259.479 -36 L259.662 -36 L259.845 -36 L260.029 -36 L260.212 -36 L260.395 -36 L260.578 -36 L260.762 -36 L260.945 -36 L261.128 -36 L261.311 -36 L261.494 -36 L261.678 -36 L261.861 -36 L262.044 -36 L262.227 -36 L262.41 -36 L262.594 -36 L262.777 -36 L262.96 -36 L263.143 -36 L263.326 -36 L263.51 -36 L263.693 -36 L263.876 -36 L264.059 -36 L264.242 -36 L264.426 -36 L264.609 -36 L264.792 -36 L264.975 -36 L265.158 -36 L265.342 -36 L265.525 -36 L265.708 -36 L265.891 -36 L266.075 -36 L266.258 -36 L266.441 -36 L266.624 -36 L266.807 -36 L266.991 -36 L267.174 -36 L267.357 -36 L267.54 -36 L267.723 -36 L267.907 -36 L268.09 -36 L268.273 -36 L268.456 -36 L268.639 -36 L268.823 -36 L269.006 -36 L269.189 -36 L269.372 -36 L269.555 -36 L269.739 -36 L269.922 -36 L270.105 -36 L270.288 -36 L270.471 -36 L270.655 -36 L270.838 -36 L271.021 -36 L271.204 -36 L271.388 -36 L271.571 -36 L271.754 -36 L271.937 -36 L272.12 -36 L272.304 -36 L272.487 -36 L272.67 -36 L272.853 -36 L273.036 -36 L273.22 -36 L273.403 -36 L273.586 -36 L273.769 -36 L273.952 -36 L274.136 -36 L274.319 -36 L274.502 -36 L274.685 -36 L274.868 -36 L275.052 -36 L275.235 -36 L275.418 -36 L275.601 -36 L275.785 -36 L275.968 -36 L276.151 -36 L276.334 -36 L276.517 -36 L276.701 -36 L276.884 -36 L277.067 -36 L277.25 -36 L277.433 -36 L277.617 -36 L277.8 -36 L277.983 -36 L278.166 -36 L278.349 -36 L278.533 -36 L278.716 -36 L278.899 -36 L279.082 -36 L279.265 -36 L279.449 -36 L279.632 -36 L279.815 -36 L279.998 -36 L280.181 -36 L280.365 -36 L280.548 -36 L280.731 -36 L280.914 -36 L281.098 -36 L281.281 -36 L281.464 -36 L281.647 -36 L281.83 -36 L282.014 -36 L282.197 -36 L282.38 -36 L282.563 -36 L282.746 -36 L282.93 -36 L283.113 -36 L283.296 -36 L283.479 -36 L283.662 -36 L283.846 -36 L284.029 -36 L284.212 -36 L284.395 -36 L284.578 -36 L284.762 -36 L284.945 -36 L285.128 -36 L285.311 -36 L285.494 -36 L285.678 -36 L285.861 -36 L286.044 -36 L286.227 -36 L286.411 -36 L286.594 -36 L286.777 -36 L286.96 -36 L287.143 -36 L287.327 -36 L287.51 -36 L287.693 -36 L287.876 -36 L288.059 -36 L288.243 -36 L288.426 -36 L288.609 -36 L288.792 -36 L288.975 -36 L289.159 -36 L289.342 -36 L289.525 -36 L289.708 -36 L289.891 -36 L290.075 -36 L290.258 -36 L290.441 -36 L290.624 -36 L290.807 -36 L290.991 -36 L291.174 -36 L291.357 -36 L291.54 -36 L291.724 -36 L291.907 -36 L292.09 -36 L292.273 -36 L292.456 -36 L292.64 -36 L292.823 -36 L293.006 -36 L293.189 -36 L293.372 -36 L293.556 -36 L293.739 -36 L293.922 -36 L294.105 -36 L294.288 -36 L294.472 -36 L294.655 -36 L294.838 -36 L295.021 -36 L295.204 -36 L295.388 -36 L295.571 -36 L295.754 -36 L295.937 -36 L296.121 -36 L296.304 -36 L296.487 -36 L296.67 -36 L296.853 -36 L297.037 -36 L297.22 -36 L297.403 -36 L297.586 -36 L297.769 -36 L297.953 -36 L298.136 -36 L298.319 -36 L298.502 -36 L298.685 -36 L298.869 -36 L299.052 -36 L299.235 -36 L299.418 -36 L299.601 -36 L299.785 -36 L299.968 -36 L300.151 -36 L300.334 -36 L300.517 -36 L300.701 -36 L300.884 -36 L301.067 -36 L301.25 -36 L301.434 -36 L301.617 -36 L301.8 -36 L301.983 -36 L302.166 -36 L302.35 -36 L302.533 -36 L302.716 -36 L302.899 -36 L303.082 -36 L303.266 -36 L303.449 -36 L303.632 -36 L303.815 -36 L303.998 -36 L304.182 -36 L304.365 -36 L304.548 -36 L304.731 -36 L304.914 -36 L305.098 -36 L305.281 -36 L305.464 -36 L305.647 -36 L305.83 -36 L306.014 -36 L306.197 -36 L306.38 -36 L306.563 -36 L306.747 -36 L306.93 -36 L307.113 -36 L307.296 -36 L307.479 -36 L307.663 -36 L307.846 -36 L308.029 -36 L308.212 -36 L308.395 -36 L308.579 -36 L308.762 -36 L308.945 -36 L309.128 -36 L309.311 -36 L309.495 -36 L309.678 -36 L309.861 -36 L310.044 -36 L310.227 -36 L310.411 -36 L310.594 -36 L310.777 -36 L310.96 -36 L311.143 -36 L311.327 -36 L311.51 -36 L311.693 -36 L311.876 -36 L312.06 -36 L312.243 -36 L312.426 -36 L312.609 -36 L312.792 -36 L312.976 -36 L313.159 -36 L313.342 -36 L313.525 -36 L313.708 -36 L313.892 -36 L314.075 -36 L314.258 -36 L314.441 -36 L314.624 -36 L314.808 -36 L314.991 -36 L315.174 -36 L315.357 -36 L315.54 -36 L315.724 -36 L315.907 -36 L316.09 -36 L316.273 -36 L316.457 -36 L316.64 -36 L316.823 -36 L317.006 -36 L317.189 -36 L317.373 -36 L317.556 -36 L317.739 -36 L317.922 -36 L318.105 -36 L318.289 -36 L318.472 -36 L318.655 -36 L318.838 -36 L319.021 -36 L319.205 -36 L319.388 -36 L319.571 -36 L319.754 -36 L319.937 -36 L320.121 -36 L320.304 -36 L320.487 -36 L320.67 -36 L320.853 -36 L321.037 -36 L321.22 -36 L321.403 -36 L321.586 -36 L321.77 -36 L321.953 -36 L322.136 -36 L322.319 -36 L322.502 -36 L322.686 -36 L322.869 -36 L323.052 -36 L323.235 -36 L323.418 -36 L323.602 -36 L323.785 -36 L323.968 -36 L324.151 -36 L324.334 -36 L324.518 -36 L324.701 -36 L324.884 -36 L325.067 -36 L325.25 -36 L325.434 -36 L325.617 -36 L325.8 -36 L325.983 -36 L326.166 -36 L326.35 -36 L326.533 -36 L326.716 -36 L326.899 -36 L327.083 -36 L327.266 -36 L327.449 -36 L327.632 -36 L327.815 -36 L327.999 -36 L328.182 -36 L328.365 -36 L328.548 -36 L328.731 -36 L328.915 -36 L329.098 -36 L329.281 -36 L329.464 -36 L329.647 -36 L329.831 -36 L330.014 -36 L330.197 -36 L330.38 -36 L330.563 -36 L330.747 -36 L330.93 -36 L331.113 -36 L331.296 -36 L331.479 -36 L331.663 -36 L331.846 -36 L332.029 -36 L332.212 -36 L332.396 -36 L332.579 -36 L332.762 -36 L332.945 -36 L333.128 -36 L333.312 -36 L333.495 -36 L333.678 -36 L333.861 -36 L334.044 -36 L334.228 -36 L334.411 -36 L334.594 -36 L334.777 -36 L334.96 -36 L335.144 -36 L335.327 -36 L335.51 -36 L335.693 -36 L335.876 -36 L336.06 -36 L336.243 -36 L336.426 -36 L336.609 -36 L336.793 -36 L336.976 -36 L337.159 -36 L337.342 -36 L337.525 -36 L337.709 -36 L337.892 -36 L338.075 -36 L338.258 -36 L338.441 -36 L338.625 -36 L338.808 -36 L338.991 -36 L339.174 -36 L339.357 -36 L339.541 -36 L339.724 -36 L339.907 -36 L340.09 -36 L340.273 -36 L340.457 -36 L340.64 -36 L340.823 -36 L341.006 -36 L341.189 -36 L341.373 -36 L341.556 -36 L341.739 -36 L341.922 -36 L342.106 -36 L342.289 -36 L342.472 -36 L342.655 -36 L342.838 -36 L343.022 -36 L343.205 -36 L343.388 -36 L343.571 -36 L343.754 -36 L343.938 -36 L344.121 -36 L344.304 -36 L344.304 -143.137 L344.304 -143.137 L344.121 -143.32 L343.938 -143.503 L343.754 -143.687 L343.571 -143.87 L343.388 -144.053 L343.205 -144.236 L343.022 -144.419 L342.838 -144.602 L342.655 -144.785 L342.472 -144.968 L342.289 -145.152 L342.106 -145.335 L341.922 -145.518 L341.739 -145.701 L341.556 -145.884 L341.373 -146.067 L341.189 -146.251 L341.006 -146.434 L340.823 -146.617 L340.64 -146.8 L340.457 -146.983 L340.273 -147.167 L340.09 -147.35 L339.907 -147.533 L339.724 -147.716 L339.541 -147.899 L339.357 -148.083 L339.174 -148.266 L338.991 -148.449 L338.808 -148.632 L338.625 -148.815 L338.441 -148.999 L338.258 -149.182 L338.075 -149.365 L337.892 -149.548 L337.709 -149.731 L337.525 -149.914 L337.342 -150.098 L337.159 -150.281 L336.976 -150.464 L336.793 -150.647 L336.609 -150.83 L336.426 -151.013 L336.243 -151.196 L336.06 -151.379 L335.876 -151.563 L335.693 -151.746 L335.51 -151.929 L335.327 -152.112 L335.144 -152.295 L334.96 -152.478 L334.777 -152.661 L334.594 -152.844 L334.411 -153.027 L334.228 -153.21 L334.044 -153.393 L333.861 -153.575 L333.678 -153.758 L333.495 -153.941 L333.312 -154.124 L333.128 -154.307 L332.945 -154.49 L332.762 -154.672 L332.579 -154.855 L332.396 -155.038 L332.212 -155.221 L332.029 -155.403 L331.846 -155.586 L331.663 -155.769 L331.479 -155.951 L331.296 -156.134 L331.113 -156.316 L330.93 -156.499 L330.747 -156.682 L330.563 -156.864 L330.38 -157.046 L330.197 -157.229 L330.014 -157.411 L329.831 -157.594 L329.647 -157.776 L329.464 -157.958 L329.281 -158.141 L329.098 -158.323 L328.915 -158.505 L328.731 -158.687 L328.548 -158.869 L328.365 -159.051 L328.182 -159.233 L327.999 -159.415 L327.815 -159.597 L327.632 -159.779 L327.449 -159.961 L327.266 -160.143 L327.083 -160.325 L326.899 -160.507 L326.716 -160.688 L326.533 -160.87 L326.35 -161.052 L326.166 -161.233 L325.983 -161.415 L325.8 -161.597 L325.617 -161.778 L325.434 -161.959 L325.25 -162.141 L325.067 -162.322 L324.884 -162.504 L324.701 -162.685 L324.518 -162.866 L324.334 -163.047 L324.151 -163.228 L323.968 -163.409 L323.785 -163.59 L323.602 -163.771 L323.418 -163.952 L323.235 -164.133 L323.052 -164.314 L322.869 -164.495 L322.686 -164.675 L322.502 -164.856 L322.319 -165.037 L322.136 -165.217 L321.953 -165.398 L321.77 -165.578 L321.586 -165.758 L321.403 -165.939 L321.22 -166.119 L321.037 -166.299 L320.853 -166.479 L320.67 -166.659 L320.487 -166.839 L320.304 -167.019 L320.121 -167.199 L319.937 -167.379 L319.754 -167.559 L319.571 -167.738 L319.388 -167.918 L319.205 -168.098 L319.021 -168.277 L318.838 -168.457 L318.655 -168.636 L318.472 -168.815 L318.289 -168.994 L318.105 -169.174 L317.922 -169.353 L317.739 -169.532 L317.556 -169.711 L317.373 -169.89 L317.189 -170.068 L317.006 -170.247 L316.823 -170.426 L316.64 -170.604 L316.457 -170.783 L316.273 -170.961 L316.09 -171.14 L315.907 -171.318 L315.724 -171.496 L315.54 -171.675 L315.357 -171.853 L315.174 -172.031 L314.991 -172.209 L314.808 -172.386 L314.624 -172.564 L314.441 -172.742 L314.258 -172.919 L314.075 -173.097 L313.892 -173.274 L313.708 -173.452 L313.525 -173.629 L313.342 -173.806 L313.159 -173.983 L312.976 -174.16 L312.792 -174.337 L312.609 -174.514 L312.426 -174.691 L312.243 -174.868 L312.06 -175.044 L311.876 -175.221 L311.693 -175.397 L311.51 -175.574 L311.327 -175.75 L311.143 -175.926 L310.96 -176.102 L310.777 -176.278 L310.594 -176.454 L310.411 -176.63 L310.227 -176.805 L310.044 -176.981 L309.861 -177.156 L309.678 -177.332 L309.495 -177.507 L309.311 -177.682 L309.128 -177.858 L308.945 -178.033 L308.762 -178.207 L308.579 -178.382 L308.395 -178.557 L308.212 -178.732 L308.029 -178.906 L307.846 -179.081 L307.663 -179.255 L307.479 -179.429 L307.296 -179.603 L307.113 -179.777 L306.93 -179.951 L306.747 -180.125 L306.563 -180.299 L306.38 -180.472 L306.197 -180.646 L306.014 -180.819 L305.83 -180.993 L305.647 -181.166 L305.464 -181.339 L305.281 -181.512 L305.098 -181.685 L304.914 -181.857 L304.731 -182.03 L304.548 -182.203 L304.365 -182.375 L304.182 -182.547 L303.998 -182.72 L303.815 -182.892 L303.632 -183.064 L303.449 -183.235 L303.266 -183.407 L303.082 -183.579 L302.899 -183.75 L302.716 -183.922 L302.533 -184.093 L302.35 -184.264 L302.166 -184.435 L301.983 -184.606 L301.8 -184.777 L301.617 -184.948 L301.434 -185.118 L301.25 -185.289 L301.067 -185.459 L300.884 -185.629 L300.701 -185.799 L300.517 -185.969 L300.334 -186.139 L300.151 -186.309 L299.968 -186.478 L299.785 -186.648 L299.601 -186.817 L299.418 -186.986 L299.235 -187.155 L299.052 -187.324 L298.869 -187.493 L298.685 -187.662 L298.502 -187.83 L298.319 -187.998 L298.136 -188.167 L297.953 -188.335 L297.769 -188.503 L297.586 -188.671 L297.403 -188.839 L297.22 -189.006 L297.037 -189.174 L296.853 -189.341 L296.67 -189.508 L296.487 -189.675 L296.304 -189.842 L296.121 -190.009 L295.937 -190.176 L295.754 -190.342 L295.571 -190.509 L295.388 -190.675 L295.204 -190.841 L295.021 -191.007 L294.838 -191.173 L294.655 -191.338 L294.472 -191.504 L294.288 -191.669 L294.105 -191.835 L293.922 -192 L293.739 -192.165 L293.556 -192.329 L293.372 -192.494 L293.189 -192.659 L293.006 -192.823 L292.823 -192.987 L292.64 -193.151 L292.456 -193.315 L292.273 -193.479 L292.09 -193.643 L291.907 -193.806 L291.724 -193.97 L291.54 -194.133 L291.357 -194.296 L291.174 -194.459 L290.991 -194.621 L290.807 -194.784 L290.624 -194.946 L290.441 -195.109 L290.258 -195.271 L290.075 -195.433 L289.891 -195.594 L289.708 -195.756 L289.525 -195.917 L289.342 -196.079 L289.159 -196.24 L288.975 -196.401 L288.792 -196.562 L288.609 -196.722 L288.426 -196.883 L288.243 -197.043 L288.059 -197.203 L287.876 -197.363 L287.693 -197.523 L287.51 -197.683 L287.327 -197.842 L287.143 -198.002 L286.96 -198.161 L286.777 -198.32 L286.594 -198.479 L286.411 -198.638 L286.227 -198.796 L286.044 -198.954 L285.861 -199.113 L285.678 -199.271 L285.494 -199.428 L285.311 -199.586 L285.128 -199.744 L284.945 -199.901 L284.762 -200.058 L284.578 -200.215 L284.395 -200.372 L284.212 -200.528 L284.029 -200.685 L283.846 -200.841 L283.662 -200.997 L283.479 -201.153 L283.296 -201.309 L283.113 -201.465 L282.93 -201.62 L282.746 -201.775 L282.563 -201.93 L282.38 -202.085 L282.197 -202.24 L282.014 -202.394 L281.83 -202.548 L281.647 -202.702 L281.464 -202.856 L281.281 -203.01 L281.098 -203.164 L280.914 -203.317 L280.731 -203.47 L280.548 -203.623 L280.365 -203.776 L280.181 -203.929 L279.998 -204.081 L279.815 -204.233 L279.632 -204.385 L279.449 -204.537 L279.265 -204.689 L279.082 -204.84 L278.899 -204.992 L278.716 -205.143 L278.533 -205.294 L278.349 -205.445 L278.166 -205.595 L277.983 -205.745 L277.8 -205.895 L277.617 -206.045 L277.433 -206.195 L277.25 -206.345 L277.067 -206.494 L276.884 -206.643 L276.701 -206.792 L276.517 -206.941 L276.334 -207.089 L276.151 -207.238 L275.968 -207.386 L275.785 -207.534 L275.601 -207.682 L275.418 -207.829 L275.235 -207.976 L275.052 -208.124 L274.868 -208.271 L274.685 -208.417 L274.502 -208.564 L274.319 -208.71 L274.136 -208.856 L273.952 -209.002 L273.769 -209.148 L273.586 -209.293 L273.403 -209.438 L273.22 -209.584 L273.036 -209.728 L272.853 -209.873 L272.67 -210.017 L272.487 -210.162 L272.304 -210.306 L272.12 -210.449 L271.937 -210.593 L271.754 -210.736 L271.571 -210.88 L271.388 -211.022 L271.204 -211.165 L271.021 -211.308 L270.838 -211.45 L270.655 -211.592 L270.471 -211.734 L270.288 -211.875 L270.105 -212.017 L269.922 -212.158 L269.739 -212.299 L269.555 -212.44 L269.372 -212.58 L269.189 -212.721 L269.006 -212.861 L268.823 -213 L268.639 -213.14 L268.456 -213.28 L268.273 -213.419 L268.09 -213.558 L267.907 -213.696 L267.723 -213.835 L267.54 -213.973 L267.357 -214.111 L267.174 -214.249 L266.991 -214.387 L266.807 -214.524 L266.624 -214.661 L266.441 -214.798 L266.258 -214.935 L266.075 -215.071 L265.891 -215.207 L265.708 -215.343 L265.525 -215.479 L265.342 -215.614 L265.158 -215.75 L264.975 -215.885 L264.792 -216.019 L264.609 -216.154 L264.426 -216.288 L264.242 -216.422 L264.059 -216.556 L263.876 -216.69 L263.693 -216.823 L263.51 -216.956 L263.326 -217.089 L263.143 -217.222 L262.96 -217.354 L262.777 -217.486 L262.594 -217.618 L262.41 -217.75 L262.227 -217.881 L262.044 -218.012 L261.861 -218.143 L261.678 -218.274 L261.494 -218.404 L261.311 -218.535 L261.128 -218.664 L260.945 -218.794 L260.762 -218.924 L260.578 -219.053 L260.395 -219.182 L260.212 -219.31 L260.029 -219.439 L259.845 -219.567 L259.662 -219.695 L259.479 -219.823 L259.296 -219.95 L259.113 -220.077 L258.929 -220.204 L258.746 -220.331 L258.563 -220.457 L258.38 -220.583 L258.197 -220.709 L258.013 -220.835 L257.83 -220.96 L257.647 -221.085 L257.464 -221.21 L257.281 -221.335 L257.097 -221.459 L256.914 -221.583 L256.731 -221.707 L256.548 -221.83 L256.365 -221.954 L256.181 -222.077 L255.998 -222.199 L255.815 -222.322 L255.632 -222.444 L255.449 -222.566 L255.265 -222.688 L255.082 -222.809 L254.899 -222.93 L254.716 -223.051 L254.532 -223.172 L254.349 -223.292 L254.166 -223.412 L253.983 -223.532 L253.8 -223.652 L253.616 -223.771 L253.433 -223.89 L253.25 -224.009 L253.067 -224.127 L252.884 -224.245 L252.7 -224.363 L252.517 -224.481 L252.334 -224.598 L252.151 -224.715 L251.968 -224.832 L251.784 -224.949 L251.601 -225.065 L251.418 -225.181 L251.235 -225.296 L251.052 -225.412 L250.868 -225.527 L250.685 -225.642 L250.502 -225.756 L250.319 -225.871 L250.135 -225.985 L249.952 -226.098 L249.769 -226.212 L249.586 -226.325 L249.403 -226.438 L249.219 -226.55 L249.036 -226.663 L248.853 -226.775 L248.67 -226.886 L248.487 -226.998 L248.303 -227.109 L248.12 -227.22 L247.937 -227.33 L247.754 -227.44 L247.571 -227.55 L247.387 -227.66 L247.204 -227.769 L247.021 -227.879 L246.838 -227.987 L246.655 -228.096 L246.471 -228.204 L246.288 -228.312 L246.105 -228.42 L245.922 -228.527 L245.739 -228.634 L245.555 -228.741 L245.372 -228.847 L245.189 -228.953 L245.006 -229.059 L244.822 -229.165 L244.639 -229.27 L244.456 -229.375 L244.273 -229.48 L244.09 -229.584 L243.906 -229.688 L243.723 -229.792 L243.54 -229.895 L243.357 -229.998 L243.174 -230.101 L242.99 -230.204 L242.807 -230.306 L242.624 -230.408 L242.441 -230.509 L242.258 -230.611 L242.074 -230.711 L241.891 -230.812 L241.708 -230.913 L241.525 -231.013 L241.342 -231.112 L241.158 -231.212 L240.975 -231.311 L240.792 -231.41 L240.609 -231.508 L240.426 -231.606 L240.242 -231.704 L240.059 -231.802 L239.876 -231.899 L239.693 -231.996 L239.509 -232.093 L239.326 -232.189 L239.143 -232.285 L238.96 -232.38 L238.777 -232.476 L238.593 -232.571 L238.41 -232.665 L238.227 -232.76 L238.044 -232.854 L237.861 -232.948 L237.677 -233.041 L237.494 -233.134 L237.311 -233.227 L237.128 -233.319 L236.945 -233.411 L236.761 -233.503 L236.578 -233.595 L236.395 -233.686 L236.212 -233.777 L236.029 -233.867 L235.845 -233.957 L235.662 -234.047 L235.479 -234.137 L235.296 -234.226 L235.113 -234.315 L234.929 -234.403 L234.746 -234.491 L234.563 -234.579 L234.38 -234.667 L234.196 -234.754 L234.013 -234.841 L233.83 -234.927 L233.647 -235.013 L233.464 -235.099 L233.28 -235.185 L233.097 -235.27 L232.914 -235.355 L232.731 -235.439 L232.548 -235.523 L232.364 -235.607 L232.181 -235.691 L231.998 -235.774 L231.815 -235.857 L231.632 -235.939 L231.448 -236.021 L231.265 -236.103 L231.082 -236.184 L230.899 -236.265 L230.716 -236.346 L230.532 -236.427 L230.349 -236.507 L230.166 -236.586 L229.983 -236.666 L229.799 -236.745 L229.616 -236.823 L229.433 -236.902 L229.25 -236.98 L229.067 -237.057 L228.883 -237.135 L228.7 -237.211 L228.517 -237.288 L228.334 -237.364 L228.151 -237.44 L227.967 -237.516 L227.784 -237.591 L227.601 -237.666 L227.418 -237.74 L227.235 -237.814 L227.051 -237.888 L226.868 -237.961 L226.685 -238.034 L226.502 -238.107 L226.319 -238.179 L226.135 -238.251 L225.952 -238.323 L225.769 -238.394 L225.586 -238.465 L225.403 -238.535 L225.219 -238.606 L225.036 -238.675 L224.853 -238.745 L224.67 -238.814 L224.486 -238.883 L224.303 -238.951 L224.12 -239.019 L223.937 -239.086 L223.754 -239.154 L223.57 -239.221 L223.387 -239.287 L223.204 -239.353 L223.021 -239.419 L222.838 -239.484 L222.654 -239.549 L222.471 -239.614 L222.288 -239.678 L222.105 -239.742 L221.922 -239.806 L221.738 -239.869 L221.555 -239.932 L221.372 -239.994 L221.189 -240.056 L221.006 -240.118 L220.822 -240.179 L220.639 -240.24 L220.456 -240.301 L220.273 -240.361 L220.09 -240.421 L219.906 -240.48 L219.723 -240.539 L219.54 -240.598 L219.357 -240.656 L219.173 -240.714 L218.99 -240.771 L218.807 -240.829 L218.624 -240.885 L218.441 -240.942 L218.257 -240.998 L218.074 -241.053 L217.891 -241.109 L217.708 -241.163 L217.525 -241.218 L217.341 -241.272 L217.158 -241.326 L216.975 -241.379 L216.792 -241.432 L216.609 -241.484 L216.425 -241.536 L216.242 -241.588 L216.059 -241.639 L215.876 -241.69 L215.693 -241.741 L215.509 -241.791 L215.326 -241.841 L215.143 -241.89 L214.96 -241.939 L214.777 -241.988 L214.593 -242.036 L214.41 -242.084 L214.227 -242.131 L214.044 -242.178 L213.86 -242.225 L213.677 -242.271 L213.494 -242.317 L213.311 -242.362 L213.128 -242.407 L212.944 -242.452 L212.761 -242.496 L212.578 -242.54 L212.395 -242.583 L212.212 -242.626 L212.028 -242.669 L211.845 -242.711 L211.662 -242.753 L211.479 -242.794 L211.296 -242.835 L211.112 -242.876 L210.929 -242.916 L210.746 -242.956 L210.563 -242.995 L210.38 -243.034 L210.196 -243.073 L210.013 -243.111 L209.83 -243.149 L209.647 -243.186 L209.463 -243.223 L209.28 -243.259 L209.097 -243.295 L208.914 -243.331 L208.731 -243.366 L208.547 -243.401 L208.364 -243.436 L208.181 -243.47 L207.998 -243.503 L207.815 -243.536 L207.631 -243.569 L207.448 -243.602 L207.265 -243.633 L207.082 -243.665 L206.899 -243.696 L206.715 -243.727 L206.532 -243.757 L206.349 -243.787 L206.166 -243.816 L205.983 -243.845 L205.799 -243.874 L205.616 -243.902 L205.433 -243.93 L205.25 -243.957 L205.067 -243.984 L204.883 -244.01 L204.7 -244.036 L204.517 -244.062 L204.334 -244.087 L204.15 -244.112 L203.967 -244.136 L203.784 -244.16 L203.601 -244.183 L203.418 -244.206 L203.234 -244.229 L203.051 -244.251 L202.868 -244.273 L202.685 -244.294 L202.502 -244.315 L202.318 -244.335 L202.135 -244.355 L201.952 -244.375 L201.769 -244.394 L201.586 -244.413 L201.402 -244.431 L201.219 -244.449 L201.036 -244.466 L200.853 -244.483 L200.67 -244.499 L200.486 -244.515 L200.303 -244.531 L200.12 -244.546 L199.937 -244.561 L199.754 -244.575 L199.57 -244.589 L199.387 -244.602 L199.204 -244.615 L199.021 -244.628 L198.837 -244.64 L198.654 -244.652 L198.471 -244.663 L198.288 -244.674 L198.105 -244.684 L197.921 -244.694 L197.738 -244.703 L197.555 -244.712 L197.372 -244.72 L197.189 -244.729 L197.005 -244.736 L196.822 -244.743 L196.639 -244.75 L196.456 -244.756 L196.273 -244.762 L196.089 -244.767 L195.906 -244.772 L195.723 -244.777 L195.54 -244.781 L195.357 -244.784 L195.173 -244.787 L194.99 -244.79 L194.807 -244.792 L194.624 -244.793 L194.441 -244.795 L194.257 -244.795 L194.074 -244.796 L193.891 -244.796 L193.708 -244.795 L193.524 -244.794 L193.341 -244.792 L193.158 -244.79 L192.975 -244.788 L192.792 -244.785 L192.608 -244.782 L192.425 -244.778 L192.242 -244.773 L192.059 -244.769 L191.876 -244.763 L191.692 -244.758 L191.509 -244.751 L191.326 -244.745 L191.143 -244.738 L190.96 -244.73 L190.776 -244.722 L190.593 -244.713 L190.41 -244.704 L190.227 -244.695 L190.044 -244.685 L189.86 -244.674 L189.677 -244.664 L189.494 -244.652 L189.311 -244.64 L189.127 -244.628 L188.944 -244.615 L188.761 -244.602 L188.578 -244.588 L188.395 -244.574 L188.211 -244.559 L188.028 -244.544 L187.845 -244.528 L187.662 -244.512 L187.479 -244.495 L187.295 -244.478 L187.112 -244.461 L186.929 -244.443 L186.746 -244.424 L186.563 -244.405 L186.379 -244.385 L186.196 -244.365 L186.013 -244.345 L185.83 -244.324 L185.647 -244.303 L185.463 -244.281 L185.28 -244.258 L185.097 -244.235 L184.914 -244.212 L184.731 -244.188 L184.547 -244.163 L184.364 -244.139 L184.181 -244.113 L183.998 -244.087 L183.814 -244.061 L183.631 -244.034 L183.448 -244.007 L183.265 -243.979 L183.082 -243.95 L182.898 -243.922 L182.715 -243.892 L182.532 -243.862 L182.349 -243.832 L182.166 -243.801 L181.982 -243.77 L181.799 -243.738 L181.616 -243.706 L181.433 -243.673 L181.25 -243.64 L181.066 -243.606 L180.883 -243.572 L180.7 -243.537 L180.517 -243.501 L180.334 -243.466 L180.15 -243.429 L179.967 -243.392 L179.784 -243.355 L179.601 -243.317 L179.418 -243.279 L179.234 -243.24 L179.051 -243.201 L178.868 -243.161 L178.685 -243.12 L178.501 -243.079 L178.318 -243.038 L178.135 -242.996 L177.952 -242.954 L177.769 -242.911 L177.585 -242.867 L177.402 -242.823 L177.219 -242.779 L177.036 -242.734 L176.853 -242.688 L176.669 -242.642 L176.486 -242.596 L176.303 -242.549 L176.12 -242.501 L175.937 -242.453 L175.753 -242.404 L175.57 -242.355 L175.387 -242.306 L175.204 -242.256 L175.021 -242.205 L174.837 -242.154 L174.654 -242.102 L174.471 -242.05 L174.288 -241.997 L174.105 -241.944 L173.921 -241.89 L173.738 -241.836 L173.555 -241.781 L173.372 -241.725 L173.188 -241.669 L173.005 -241.613 L172.822 -241.556 L172.639 -241.499 L172.456 -241.441 L172.272 -241.382 L172.089 -241.323 L171.906 -241.263 L171.723 -241.203 L171.54 -241.143 L171.356 -241.081 L171.173 -241.02 L170.99 -240.957 L170.807 -240.895 L170.624 -240.831 L170.44 -240.767 L170.257 -240.703 L170.074 -240.638 L169.891 -240.573 L169.708 -240.507 L169.524 -240.44 L169.341 -240.373 L169.158 -240.305 L168.975 -240.237 L168.791 -240.168 L168.608 -240.099 L168.425 -240.029 L168.242 -239.959 L168.059 -239.888 L167.875 -239.817 L167.692 -239.745 L167.509 -239.672 L167.326 -239.599 L167.143 -239.526 L166.959 -239.452 L166.776 -239.377 L166.593 -239.302 L166.41 -239.226 L166.227 -239.15 L166.043 -239.073 L165.86 -238.995 L165.677 -238.917 L165.494 -238.839 L165.311 -238.76 L165.127 -238.68 L164.944 -238.6 L164.761 -238.519 L164.578 -238.438 L164.395 -238.356 L164.211 -238.274 L164.028 -238.191 L163.845 -238.107 L163.662 -238.023 L163.478 -237.939 L163.295 -237.854 L163.112 -237.768 L162.929 -237.682 L162.746 -237.595 L162.562 -237.507 L162.379 -237.419 L162.196 -237.331 L162.013 -237.242 L161.83 -237.152 L161.646 -237.062 L161.463 -236.971 L161.28 -236.88 z " id="m37834227d5"/>
    </defs>
    <g clip-path="url(#pd17d8af51d)">
     <use style="fill:#ffdc52;fill-opacity:0.4;" x="0.0" xlink:href="#m37834227d5" y="288.0"/>
    </g>
   </g>
   <g id="patch_3">
    <path d=" M72 252 L72 28.8" style="fill:none;"/>
   </g>
   <g id="patch_4">
    <path d=" M518.4 252 L518.4 28.8" style="fill:none;"/>
   </g>
   <g id="patch_5">
    <path d=" M72 252 L518.4 252" style="fill:none;"/>
   </g>
   <g id="patch_6">
    <path d=" M72 28.8 L518.4 28.8" style="fill:none;"/>
   </g>
   <g id="text_3">
    <!-- $F$ and $f$ -->
    <defs>
     <path d=" M67.9062 66.2031 L66.9062 58.7969 L30.7031 58.7969 L25.7031 38.5938 L55.2969 38.5938 L53.4062 31.0938 L23.7969 31.0938 L16.0938 0 L7.40625 0 L23.9062 66.2031 z " id="STIXGeneral-Italic-1d60d"/>
     <path d=" M38.9062 0 L31.7031 0 L31.7031 3.29688 Q30.2969 1.79688 27 0.5 Q23.7031 -0.796875 20 -0.796875 Q13 -0.796875 8.25 3.09375 Q3.5 7 3.5 13.4062 Q3.5 19.5 8.39062 23.3906 Q13.2969 27.2969 20.5 27.2969 Q23.7969 27.2969 27 26.1875 Q30.2031 25.0938 31.7031 23.7031 L31.7031 29.2969 Q31.7031 33.5938 29.1406 36.1875 Q26.5938 38.7969 21.9062 38.7969 Q14.9062 38.7969 12.7969 32.7031 L5.40625 32.7031 Q6.5 38.2969 11.0469 41.7969 Q15.5938 45.2969 22 45.2969 Q29.9062 45.2969 34.4062 41.0938 Q38.9062 36.9062 38.9062 29.5938 z  M31.7031 11 L31.7031 15.5938 Q30.7031 18 27.75 19.5469 Q24.7969 21.0938 21.2969 21.0938 Q16.9062 21.0938 13.7969 19.0938 Q10.7031 17.0938 10.7031 13.4062 Q10.7031 9.59375 13.7969 7.54688 Q16.9062 5.5 21.2969 5.5 Q24.7969 5.5 27.75 7.04688 Q30.7031 8.59375 31.7031 11" id="CalibreRegular-61"/>
     <path d=" M52.5938 63.2969 L48.7969 57.4062 L47.0938 57.2969 Q44.7031 59.5 43.3438 60.3438 Q42 61.2031 40.0938 61.2031 Q37 61.2031 34.4531 58.7031 Q31.9062 56.2031 30.5938 50.9062 L29.2031 45.2969 L40.5938 45.2969 L38.9062 38.2031 L27.5 38.2031 L18 0 L10.0938 0 L19.5938 38.2031 L11.5 38.2031 L13.2031 45.2969 L21.2969 45.2969 L22.4062 49.4062 Q25.2031 59.5 30.7969 64.2969 Q35.7969 68.2969 41.2031 68.2969 Q48 68.2969 52.5938 63.2969" id="STIXGeneral-Italic-1d627"/>
     <path d=" M36 0 L36 5.20312 Q34.2031 2.59375 30.7969 0.84375 Q27.4062 -0.90625 23.5 -0.90625 Q14.0938 -0.90625 8.79688 5.6875 Q3.5 12.2969 3.5 22.2031 Q3.5 32 8.79688 38.6406 Q14.0938 45.2969 23.5 45.2969 Q27.4062 45.2969 30.7969 43.5469 Q34.2031 41.7969 36 39.2031 L36 65 L43.5938 65 L43.5938 0 z  M36 13.2031 L36 31.2031 Q34.2969 34.5938 31.25 36.5469 Q28.2031 38.5 24.5938 38.5 Q18.4062 38.5 14.75 33.9531 Q11.0938 29.4062 11.0938 22.2031 Q11.0938 15 14.75 10.4531 Q18.4062 5.90625 24.5938 5.90625 Q28.2031 5.90625 31.25 7.84375 Q34.2969 9.79688 36 13.2031" id="CalibreRegular-64"/>
     <path d=" M6.70312 0 L6.70312 44.4062 L14.2031 44.4062 L14.2031 38.7969 Q16.2969 41.5938 19.75 43.4375 Q23.2031 45.2969 27.2969 45.2969 Q34.7031 45.2969 38.7969 40.8906 Q42.9062 36.5 42.9062 29.0938 L42.9062 0 L35.2969 0 L35.2969 27.9062 Q35.2969 32.7031 32.8438 35.5469 Q30.4062 38.4062 25.5 38.4062 Q21.5938 38.4062 18.5 36.0469 Q15.4062 33.7031 14.2031 30.0938 L14.2031 0 z " id="CalibreRegular-6e"/>
    </defs>
    <g style="fill:#262626;" transform="translate(271.5192 23.8)scale(0.17160000000000003 -0.17160000000000003)">
     <use transform="translate(0.0 0.703125)" xlink:href="#STIXGeneral-Italic-1d60d"/>
     <use transform="translate(53.49998474121094 0.703125)" xlink:href="#CalibreRegular-20"/>
     <use transform="translate(75.5999755859375 0.703125)" xlink:href="#CalibreRegular-61"/>
     <use transform="translate(120.59996032714844 0.703125)" xlink:href="#CalibreRegular-6e"/>
     <use transform="translate(169.4999542236328 0.703125)" xlink:href="#CalibreRegular-64"/>
     <use transform="translate(219.699951171875 0.703125)" xlink:href="#CalibreRegular-20"/>
     <use transform="translate(241.79994201660156 0.703125)" xlink:href="#STIXGeneral-Italic-1d627"/>
    </g>
   </g>
   <g id="line2d_38">
    <path clip-path="url(#pd17d8af51d)" d=" M72 173.88 L76.9153 162.509 L81.8306 151.735 L86.2991 142.45 L90.7676 133.642 L95.236 125.301 L99.7045 117.42 L104.173 109.99 L108.641 103.003 L113.11 96.4501 L117.578 90.3233 L121.6 85.1664 L125.622 80.3417 L129.643 75.8429 L133.665 71.664 L137.686 67.7989 L141.708 64.2414 L145.73 60.9854 L149.751 58.0249 L153.773 55.3536 L157.795 52.9654 L161.816 50.8543 L165.838 49.0141 L169.859 47.4387 L173.881 46.122 L177.903 45.0578 L181.924 44.2401 L185.946 43.6626 L189.968 43.3194 L193.989 43.2043 L198.011 43.3111 L202.032 43.6337 L206.054 44.1661 L210.523 44.9961 L214.991 46.0691 L219.459 47.3766 L223.928 48.9103 L228.843 50.8486 L233.759 53.0392 L238.674 55.4709 L244.036 58.3856 L249.398 61.5596 L255.207 65.2736 L261.016 69.2564 L267.272 73.825 L273.975 79.0157 L280.677 84.4849 L288.274 90.9842 L296.317 98.17 L305.254 106.463 L315.532 116.317 L328.49 129.073 L368.259 168.46 L378.537 178.188 L387.474 186.339 L395.517 193.37 L402.667 199.338 L409.369 204.658 L415.625 209.359 L421.881 213.782 L427.69 217.618 L433.052 220.912 L438.414 223.954 L443.777 226.729 L448.692 229.026 L453.607 231.076 L458.076 232.715 L462.544 234.132 L467.013 235.319 L471.481 236.266 L475.95 236.967 L479.971 237.379 L483.993 237.577 L488.014 237.557 L492.036 237.31 L496.058 236.833 L500.079 236.117 L504.101 235.158 L508.123 233.948 L512.144 232.483 L516.166 230.755 L518.4 229.68 L518.4 229.68" style="fill:none;stroke:#386df9;stroke-linecap:round;stroke-width:2.275;"/>
   </g>
   <g id="legend_1">
    <g id="line2d_39">
     <path d=" M441.323 46.675 L469.923 46.675" style="fill:none;stroke:#386df9;stroke-linecap:round;stroke-width:2.275;"/>
    </g>
    <g id="line2d_40"/>
    <g id="text_4">
     <!-- $f(x)$ -->
     <defs>
      <path d=" M54.4062 45.2969 L34.4062 23.5938 L45.2031 0 L35.7969 0 L27.9062 17.5 L12.4062 0 L3 0 L25 23.9062 L15.4062 45.2969 L24.7969 45.2969 L31.5938 30.2031 L45 45.2969 z " id="STIXGeneral-Italic-1d639"/>
      <path d=" M2.90625 66 L4.09375 67.5938 Q15.5 60.7969 22 49.1875 Q28.5 37.5938 28.5 24.7031 Q28.5 -2.59375 3.79688 -17.7031 L2.90625 -16.0938 Q13.2031 -7.59375 16.5469 0.84375 Q19.9062 9.29688 19.9062 24.4062 Q19.9062 39.5938 16.5469 48.75 Q13.2031 57.9062 2.90625 66" id="STIXGeneral-Regular-29"/>
      <path d=" M30.4062 -16.0938 L29.2031 -17.7031 Q17.5938 -11.0938 11.1875 0.5 Q4.79688 12.0938 4.79688 25.2031 Q4.79688 52.9062 29.5 67.5938 L30.4062 66 Q20.2031 57.2969 16.7969 48.8438 Q13.4062 40.4062 13.4062 25.5 Q13.4062 10.7031 16.9062 1.5 Q20.4062 -7.70312 30.4062 -16.0938" id="STIXGeneral-Regular-28"/>
     </defs>
     <g style="fill:#262626;" transform="translate(481.363 51.68)scale(0.14300000000000002 -0.14300000000000002)">
      <use transform="translate(0.0 0.703125)" xlink:href="#STIXGeneral-Italic-1d627"/>
      <use transform="translate(33.59999084472656 0.703125)" xlink:href="#STIXGeneral-Regular-28"/>
      <use transform="translate(66.89997863769531 0.703125)" xlink:href="#STIXGeneral-Italic-1d639"/>
      <use transform="translate(115.0999755859375 0.703125)" xlink:href="#STIXGeneral-Regular-29"/>
     </g>
    </g>
    <g id="patch_7">
     <path d=" M441.323 71.414 L469.923 71.414 L469.923 61.404 L441.323 61.404 z " style="fill:#ffdc52;stroke:#ffdc52;stroke-linejoin:miter;stroke-width:0.39;"/>
    </g>
    <g id="text_5">
     <!-- $F(x)$ -->
     <g style="fill:#262626;" transform="translate(481.363 71.414)scale(0.14300000000000002 -0.14300000000000002)">
      <use transform="translate(0.0 0.40625)" xlink:href="#STIXGeneral-Italic-1d60d"/>
      <use transform="translate(53.49998474121094 0.40625)" xlink:href="#STIXGeneral-Regular-28"/>
      <use transform="translate(86.79997253417969 0.40625)" xlink:href="#STIXGeneral-Italic-1d639"/>
      <use transform="translate(134.99996948242188 0.40625)" xlink:href="#STIXGeneral-Regular-29"/>
     </g>
    </g>
   </g>
  </g>
 </g>
 </svg>
