<svg xmlns="http://www.w3.org/2000/svg" xmlns:xlink="http://www.w3.org/1999/xlink" height="288pt" version="1.1" viewBox="0 0 576 288" width="576pt">
 <defs>
  <clipPath id="pd17d8af51d">
   <rect height="223.2" width="446.4" x="72.0" y="28.8"/>
  </clipPath>
 </defs>
<defs>
  <style type="text/css">
*{stroke-linecap:butt;stroke-linejoin:round;}
  </style>
 </defs>
 <g id="figure_1">
  <g id="patch_1">
   <path d=" M0 288 L576 288 L576 0 L0 0 z " style="fill:#ffffff;"/>
  </g>
  <g id="axes_1">
   <g id="patch_2">
    <path d=" M72 252 L518.4 252 L518.4 28.8 L72 28.8 z " style="fill:#eaeaf2;"/>
   </g>
   <g id="matplotlib.axis_1">
    <g id="xtick_1">
     <g id="line2d_1">
      <path clip-path="url(#pd17d8af51d)" d=" M72 252 L72 28.8" style="fill:none;stroke:#ffffff;stroke-linecap:round;stroke-width:1.3;"/>
     </g>
     <g id="line2d_2">
      <defs>
       <path d=" M0 0 L0 0" id="m56cc5124a0" style="stroke:#262626;stroke-width:1.3;"/>
      </defs>
      <g>
       <use style="fill:#262626;stroke:#262626;stroke-width:1.3;" x="72.0" xlink:href="#m56cc5124a0" y="252.0"/>
      </g>
     </g>
     <g id="line2d_3">
      <g>
       <use style="fill:#262626;stroke:#262626;stroke-width:1.3;" x="72.0" xlink:href="#m56cc5124a0" y="28.8"/>
      </g>
     </g>
    </g>
    <g id="xtick_2">
     <g id="line2d_4">
      <path clip-path="url(#pd17d8af51d)" d=" M161.28 252 L161.28 28.8" style="fill:none;stroke:#ffffff;stroke-linecap:round;stroke-width:1.3;"/>
     </g>
     <g id="line2d_5">
      <g>
       <use style="fill:#262626;stroke:#262626;stroke-width:1.3;" x="161.28" xlink:href="#m56cc5124a0" y="252.0"/>
      </g>
     </g>
     <g id="line2d_6">
      <g>
       <use style="fill:#262626;stroke:#262626;stroke-width:1.3;" x="161.28" xlink:href="#m56cc5124a0" y="28.8"/>
      </g>
     </g>
    </g>
    <g id="xtick_3">
     <g id="line2d_7">
      <path clip-path="url(#pd17d8af51d)" d=" M250.56 252 L250.56 28.8" style="fill:none;stroke:#ffffff;stroke-linecap:round;stroke-width:1.3;"/>
     </g>
     <g id="line2d_8">
      <g>
       <use style="fill:#262626;stroke:#262626;stroke-width:1.3;" x="250.56" xlink:href="#m56cc5124a0" y="252.0"/>
      </g>
     </g>
     <g id="line2d_9">
      <g>
       <use style="fill:#262626;stroke:#262626;stroke-width:1.3;" x="250.56" xlink:href="#m56cc5124a0" y="28.8"/>
      </g>
     </g>
     <g id="text_1">
      <!-- a -->
      <defs>
       <path d=" M38.9062 0 L31.7031 0 L31.7031 3.29688 Q30.2969 1.79688 27 0.5 Q23.7031 -0.796875 20 -0.796875 Q13 -0.796875 8.25 3.09375 Q3.5 7 3.5 13.4062 Q3.5 19.5 8.39062 23.3906 Q13.2969 27.2969 20.5 27.2969 Q23.7969 27.2969 27 26.1875 Q30.2031 25.0938 31.7031 23.7031 L31.7031 29.2969 Q31.7031 33.5938 29.1406 36.1875 Q26.5938 38.7969 21.9062 38.7969 Q14.9062 38.7969 12.7969 32.7031 L5.40625 32.7031 Q6.5 38.2969 11.0469 41.7969 Q15.5938 45.2969 22 45.2969 Q29.9062 45.2969 34.4062 41.0938 Q38.9062 36.9062 38.9062 29.5938 z  M31.7031 11 L31.7031 15.5938 Q30.7031 18 27.75 19.5469 Q24.7969 21.0938 21.2969 21.0938 Q16.9062 21.0938 13.7969 19.0938 Q10.7031 17.0938 10.7031 13.4062 Q10.7031 9.59375 13.7969 7.54688 Q16.9062 5.5 21.2969 5.5 Q24.7969 5.5 27.75 7.04688 Q30.7031 8.59375 31.7031 11" id="CalibreRegular-61"/>
      </defs>
      <g style="fill:#262626;" transform="translate(248.028453125 270.395)scale(0.14300000000000002 -0.14300000000000002)">
       <use xlink:href="#CalibreRegular-61"/>
      </g>
     </g>
    </g>
    <g id="xtick_4">
     <g id="line2d_10">
      <path clip-path="url(#pd17d8af51d)" d=" M339.84 252 L339.84 28.8" style="fill:none;stroke:#ffffff;stroke-linecap:round;stroke-width:1.3;"/>
     </g>
     <g id="line2d_11">
      <g>
       <use style="fill:#262626;stroke:#262626;stroke-width:1.3;" x="339.84" xlink:href="#m56cc5124a0" y="252.0"/>
      </g>
     </g>
     <g id="line2d_12">
      <g>
       <use style="fill:#262626;stroke:#262626;stroke-width:1.3;" x="339.84" xlink:href="#m56cc5124a0" y="28.8"/>
      </g>
     </g>
     <g id="text_2">
      <!-- b -->
      <defs>
       <path d=" M14.2031 5.20312 L14.2031 0 L6.59375 0 L6.59375 65 L14.2031 65 L14.2031 39.2031 Q16 41.7969 19.3906 43.5469 Q22.7969 45.2969 26.7031 45.2969 Q36.0938 45.2969 41.3906 38.6406 Q46.7031 32 46.7031 22.2031 Q46.7031 12.2969 41.3906 5.6875 Q36.0938 -0.90625 26.7031 -0.90625 Q22.7969 -0.90625 19.3906 0.84375 Q16 2.59375 14.2031 5.20312 M14.2031 31.2031 L14.2031 13.2031 Q15.9062 9.79688 18.9531 7.84375 Q22 5.90625 25.5938 5.90625 Q31.7969 5.90625 35.4375 10.4531 Q39.0938 15 39.0938 22.2031 Q39.0938 29.4062 35.4375 33.9531 Q31.7969 38.5 25.5938 38.5 Q22 38.5 18.9531 36.5469 Q15.9062 34.5938 14.2031 31.2031" id="CalibreRegular-62"/>
      </defs>
      <g style="fill:#262626;" transform="translate(336.972179688 270.395)scale(0.14300000000000002 -0.14300000000000002)">
       <use xlink:href="#CalibreRegular-62"/>
      </g>
     </g>
    </g>
    <g id="xtick_5">
     <g id="line2d_13">
      <path clip-path="url(#pd17d8af51d)" d=" M429.12 252 L429.12 28.8" style="fill:none;stroke:#ffffff;stroke-linecap:round;stroke-width:1.3;"/>
     </g>
     <g id="line2d_14">
      <g>
       <use style="fill:#262626;stroke:#262626;stroke-width:1.3;" x="429.12" xlink:href="#m56cc5124a0" y="252.0"/>
      </g>
     </g>
     <g id="line2d_15">
      <g>
       <use style="fill:#262626;stroke:#262626;stroke-width:1.3;" x="429.12" xlink:href="#m56cc5124a0" y="28.8"/>
      </g>
     </g>
    </g>
    <g id="xtick_6">
     <g id="line2d_16">
      <path clip-path="url(#pd17d8af51d)" d=" M518.4 252 L518.4 28.8" style="fill:none;stroke:#ffffff;stroke-linecap:round;stroke-width:1.3;"/>
     </g>
     <g id="line2d_17">
      <g>
       <use style="fill:#262626;stroke:#262626;stroke-width:1.3;" x="518.4" xlink:href="#m56cc5124a0" y="252.0"/>
      </g>
     </g>
     <g id="line2d_18">
      <g>
       <use style="fill:#262626;stroke:#262626;stroke-width:1.3;" x="518.4" xlink:href="#m56cc5124a0" y="28.8"/>
      </g>
     </g>
    </g>
   </g>
   <g id="matplotlib.axis_2">
    <g id="ytick_1">
     <g id="line2d_19">
      <path clip-path="url(#pd17d8af51d)" d=" M72 252 L518.4 252" style="fill:none;stroke:#ffffff;stroke-linecap:round;stroke-width:1.3;"/>
     </g>
     <g id="line2d_20">
      <g>
       <use style="fill:#262626;stroke:#262626;stroke-width:1.3;" x="72.0" xlink:href="#m56cc5124a0" y="252.0"/>
      </g>
     </g>
     <g id="line2d_21">
      <g>
       <use style="fill:#262626;stroke:#262626;stroke-width:1.3;" x="518.4" xlink:href="#m56cc5124a0" y="252.0"/>
      </g>
     </g>
    </g>
    <g id="ytick_2">
     <g id="line2d_22">
      <path clip-path="url(#pd17d8af51d)" d=" M72 196.2 L518.4 196.2" style="fill:none;stroke:#ffffff;stroke-linecap:round;stroke-width:1.3;"/>
     </g>
     <g id="line2d_23">
      <g>
       <use style="fill:#262626;stroke:#262626;stroke-width:1.3;" x="72.0" xlink:href="#m56cc5124a0" y="196.2"/>
      </g>
     </g>
     <g id="line2d_24">
      <g>
       <use style="fill:#262626;stroke:#262626;stroke-width:1.3;" x="518.4" xlink:href="#m56cc5124a0" y="196.2"/>
      </g>
     </g>
    </g>
    <g id="ytick_3">
     <g id="line2d_25">
      <path clip-path="url(#pd17d8af51d)" d=" M72 140.4 L518.4 140.4" style="fill:none;stroke:#ffffff;stroke-linecap:round;stroke-width:1.3;"/>
     </g>
     <g id="line2d_26">
      <g>
       <use style="fill:#262626;stroke:#262626;stroke-width:1.3;" x="72.0" xlink:href="#m56cc5124a0" y="140.4"/>
      </g>
     </g>
     <g id="line2d_27">
      <g>
       <use style="fill:#262626;stroke:#262626;stroke-width:1.3;" x="518.4" xlink:href="#m56cc5124a0" y="140.4"/>
      </g>
     </g>
    </g>
    <g id="ytick_4">
     <g id="line2d_28">
      <path clip-path="url(#pd17d8af51d)" d=" M72 84.6 L518.4 84.6" style="fill:none;stroke:#ffffff;stroke-linecap:round;stroke-width:1.3;"/>
     </g>
     <g id="line2d_29">
      <g>
       <use style="fill:#262626;stroke:#262626;stroke-width:1.3;" x="72.0" xlink:href="#m56cc5124a0" y="84.6"/>
      </g>
     </g>
     <g id="line2d_30">
      <g>
       <use style="fill:#262626;stroke:#262626;stroke-width:1.3;" x="518.4" xlink:href="#m56cc5124a0" y="84.6"/>
      </g>
     </g>
    </g>
    <g id="ytick_5">
     <g id="line2d_31">
      <path clip-path="url(#pd17d8af51d)" d=" M72 28.8 L518.4 28.8" style="fill:none;stroke:#ffffff;stroke-linecap:round;stroke-width:1.3;"/>
     </g>
     <g id="line2d_32">
      <g>
       <use style="fill:#262626;stroke:#262626;stroke-width:1.3;" x="72.0" xlink:href="#m56cc5124a0" y="28.8"/>
      </g>
     </g>
     <g id="line2d_33">
      <g>
       <use style="fill:#262626;stroke:#262626;stroke-width:1.3;" x="518.4" xlink:href="#m56cc5124a0" y="28.8"/>
      </g>
     </g>
    </g>
   </g>
   <g id="line2d_34">
    <path clip-path="url(#pd17d8af51d)" d=" M72 252 L518.4 252" style="fill:none;stroke:#dcdce6;stroke-linecap:round;stroke-width:2;"/>
   </g>
   <g id="line2d_35">
    <path clip-path="url(#pd17d8af51d)" d=" M161.28 252 L161.28 28.8" style="fill:none;stroke:#dcdce6;stroke-linecap:round;stroke-width:2;"/>
   </g>
   <g id="line2d_36">
    <path clip-path="url(#pd17d8af51d)" d=" M250.56 252 L250.56 28.8" style="fill:none;stroke:#ffdc52;stroke-linecap:round;stroke-width:2;"/>
   </g>
   <g id="line2d_37">
    <path clip-path="url(#pd17d8af51d)" d=" M339.84 252 L339.84 28.8" style="fill:none;stroke:#ffdc52;stroke-linecap:round;stroke-width:2;"/>
   </g>
   <g id="PolyCollection_1">
    <defs>
     <path d=" M161.28 -236.88 L161.28 -36 L161.459 -36 L161.637 -36 L161.816 -36 L161.995 -36 L162.174 -36 L162.352 -36 L162.531 -36 L162.71 -36 L162.889 -36 L163.067 -36 L163.246 -36 L163.425 -36 L163.604 -36 L163.782 -36 L163.961 -36 L164.14 -36 L164.319 -36 L164.497 -36 L164.676 -36 L164.855 -36 L165.034 -36 L165.212 -36 L165.391 -36 L165.57 -36 L165.748 -36 L165.927 -36 L166.106 -36 L166.285 -36 L166.463 -36 L166.642 -36 L166.821 -36 L167 -36 L167.178 -36 L167.357 -36 L167.536 -36 L167.715 -36 L167.893 -36 L168.072 -36 L168.251 -36 L168.43 -36 L168.608 -36 L168.787 -36 L168.966 -36 L169.145 -36 L169.323 -36 L169.502 -36 L169.681 -36 L169.859 -36 L170.038 -36 L170.217 -36 L170.396 -36 L170.574 -36 L170.753 -36 L170.932 -36 L171.111 -36 L171.289 -36 L171.468 -36 L171.647 -36 L171.826 -36 L172.004 -36 L172.183 -36 L172.362 -36 L172.541 -36 L172.719 -36 L172.898 -36 L173.077 -36 L173.255 -36 L173.434 -36 L173.613 -36 L173.792 -36 L173.97 -36 L174.149 -36 L174.328 -36 L174.507 -36 L174.685 -36 L174.864 -36 L175.043 -36 L175.222 -36 L175.4 -36 L175.579 -36 L175.758 -36 L175.937 -36 L176.115 -36 L176.294 -36 L176.473 -36 L176.652 -36 L176.83 -36 L177.009 -36 L177.188 -36 L177.366 -36 L177.545 -36 L177.724 -36 L177.903 -36 L178.081 -36 L178.26 -36 L178.439 -36 L178.618 -36 L178.796 -36 L178.975 -36 L179.154 -36 L179.333 -36 L179.511 -36 L179.69 -36 L179.869 -36 L180.048 -36 L180.226 -36 L180.405 -36 L180.584 -36 L180.763 -36 L180.941 -36 L181.12 -36 L181.299 -36 L181.477 -36 L181.656 -36 L181.835 -36 L182.014 -36 L182.192 -36 L182.371 -36 L182.55 -36 L182.729 -36 L182.907 -36 L183.086 -36 L183.265 -36 L183.444 -36 L183.622 -36 L183.801 -36 L183.98 -36 L184.159 -36 L184.337 -36 L184.516 -36 L184.695 -36 L184.874 -36 L185.052 -36 L185.231 -36 L185.41 -36 L185.588 -36 L185.767 -36 L185.946 -36 L186.125 -36 L186.303 -36 L186.482 -36 L186.661 -36 L186.84 -36 L187.018 -36 L187.197 -36 L187.376 -36 L187.555 -36 L187.733 -36 L187.912 -36 L188.091 -36 L188.27 -36 L188.448 -36 L188.627 -36 L188.806 -36 L188.985 -36 L189.163 -36 L189.342 -36 L189.521 -36 L189.699 -36 L189.878 -36 L190.057 -36 L190.236 -36 L190.414 -36 L190.593 -36 L190.772 -36 L190.951 -36 L191.129 -36 L191.308 -36 L191.487 -36 L191.666 -36 L191.844 -36 L192.023 -36 L192.202 -36 L192.381 -36 L192.559 -36 L192.738 -36 L192.917 -36 L193.095 -36 L193.274 -36 L193.453 -36 L193.632 -36 L193.81 -36 L193.989 -36 L194.168 -36 L194.347 -36 L194.525 -36 L194.704 -36 L194.883 -36 L195.062 -36 L195.24 -36 L195.419 -36 L195.598 -36 L195.777 -36 L195.955 -36 L196.134 -36 L196.313 -36 L196.492 -36 L196.67 -36 L196.849 -36 L197.028 -36 L197.206 -36 L197.385 -36 L197.564 -36 L197.743 -36 L197.921 -36 L198.1 -36 L198.279 -36 L198.458 -36 L198.636 -36 L198.815 -36 L198.994 -36 L199.173 -36 L199.351 -36 L199.53 -36 L199.709 -36 L199.888 -36 L200.066 -36 L200.245 -36 L200.424 -36 L200.603 -36 L200.781 -36 L200.96 -36 L201.139 -36 L201.317 -36 L201.496 -36 L201.675 -36 L201.854 -36 L202.032 -36 L202.211 -36 L202.39 -36 L202.569 -36 L202.747 -36 L202.926 -36 L203.105 -36 L203.284 -36 L203.462 -36 L203.641 -36 L203.82 -36 L203.999 -36 L204.177 -36 L204.356 -36 L204.535 -36 L204.714 -36 L204.892 -36 L205.071 -36 L205.25 -36 L205.428 -36 L205.607 -36 L205.786 -36 L205.965 -36 L206.143 -36 L206.322 -36 L206.501 -36 L206.68 -36 L206.858 -36 L207.037 -36 L207.216 -36 L207.395 -36 L207.573 -36 L207.752 -36 L207.931 -36 L208.11 -36 L208.288 -36 L208.467 -36 L208.646 -36 L208.825 -36 L209.003 -36 L209.182 -36 L209.361 -36 L209.539 -36 L209.718 -36 L209.897 -36 L210.076 -36 L210.254 -36 L210.433 -36 L210.612 -36 L210.791 -36 L210.969 -36 L211.148 -36 L211.327 -36 L211.506 -36 L211.684 -36 L211.863 -36 L212.042 -36 L212.221 -36 L212.399 -36 L212.578 -36 L212.757 -36 L212.935 -36 L213.114 -36 L213.293 -36 L213.472 -36 L213.65 -36 L213.829 -36 L214.008 -36 L214.187 -36 L214.365 -36 L214.544 -36 L214.723 -36 L214.902 -36 L215.08 -36 L215.259 -36 L215.438 -36 L215.617 -36 L215.795 -36 L215.974 -36 L216.153 -36 L216.332 -36 L216.51 -36 L216.689 -36 L216.868 -36 L217.046 -36 L217.225 -36 L217.404 -36 L217.583 -36 L217.761 -36 L217.94 -36 L218.119 -36 L218.298 -36 L218.476 -36 L218.655 -36 L218.834 -36 L219.013 -36 L219.191 -36 L219.37 -36 L219.549 -36 L219.728 -36 L219.906 -36 L220.085 -36 L220.264 -36 L220.443 -36 L220.621 -36 L220.8 -36 L220.979 -36 L221.157 -36 L221.336 -36 L221.515 -36 L221.694 -36 L221.872 -36 L222.051 -36 L222.23 -36 L222.409 -36 L222.587 -36 L222.766 -36 L222.945 -36 L223.124 -36 L223.302 -36 L223.481 -36 L223.66 -36 L223.839 -36 L224.017 -36 L224.196 -36 L224.375 -36 L224.554 -36 L224.732 -36 L224.911 -36 L225.09 -36 L225.268 -36 L225.447 -36 L225.626 -36 L225.805 -36 L225.983 -36 L226.162 -36 L226.341 -36 L226.52 -36 L226.698 -36 L226.877 -36 L227.056 -36 L227.235 -36 L227.413 -36 L227.592 -36 L227.771 -36 L227.95 -36 L228.128 -36 L228.307 -36 L228.486 -36 L228.665 -36 L228.843 -36 L229.022 -36 L229.201 -36 L229.379 -36 L229.558 -36 L229.737 -36 L229.916 -36 L230.094 -36 L230.273 -36 L230.452 -36 L230.631 -36 L230.809 -36 L230.988 -36 L231.167 -36 L231.346 -36 L231.524 -36 L231.703 -36 L231.882 -36 L232.061 -36 L232.239 -36 L232.418 -36 L232.597 -36 L232.775 -36 L232.954 -36 L233.133 -36 L233.312 -36 L233.49 -36 L233.669 -36 L233.848 -36 L234.027 -36 L234.205 -36 L234.384 -36 L234.563 -36 L234.742 -36 L234.92 -36 L235.099 -36 L235.278 -36 L235.457 -36 L235.635 -36 L235.814 -36 L235.993 -36 L236.172 -36 L236.35 -36 L236.529 -36 L236.708 -36 L236.886 -36 L237.065 -36 L237.244 -36 L237.423 -36 L237.601 -36 L237.78 -36 L237.959 -36 L238.138 -36 L238.316 -36 L238.495 -36 L238.674 -36 L238.853 -36 L239.031 -36 L239.21 -36 L239.389 -36 L239.568 -36 L239.746 -36 L239.925 -36 L240.104 -36 L240.283 -36 L240.461 -36 L240.64 -36 L240.819 -36 L240.997 -36 L241.176 -36 L241.355 -36 L241.534 -36 L241.712 -36 L241.891 -36 L242.07 -36 L242.249 -36 L242.427 -36 L242.606 -36 L242.785 -36 L242.964 -36 L243.142 -36 L243.321 -36 L243.5 -36 L243.679 -36 L243.857 -36 L244.036 -36 L244.215 -36 L244.394 -36 L244.572 -36 L244.751 -36 L244.93 -36 L245.108 -36 L245.287 -36 L245.466 -36 L245.645 -36 L245.823 -36 L246.002 -36 L246.181 -36 L246.36 -36 L246.538 -36 L246.717 -36 L246.896 -36 L247.075 -36 L247.253 -36 L247.432 -36 L247.611 -36 L247.79 -36 L247.968 -36 L248.147 -36 L248.326 -36 L248.505 -36 L248.683 -36 L248.862 -36 L249.041 -36 L249.219 -36 L249.398 -36 L249.577 -36 L249.756 -36 L249.934 -36 L250.113 -36 L250.292 -36 L250.471 -36 L250.649 -36 L250.828 -36 L251.007 -36 L251.186 -36 L251.364 -36 L251.543 -36 L251.722 -36 L251.901 -36 L252.079 -36 L252.258 -36 L252.437 -36 L252.615 -36 L252.794 -36 L252.973 -36 L253.152 -36 L253.33 -36 L253.509 -36 L253.688 -36 L253.867 -36 L254.045 -36 L254.224 -36 L254.403 -36 L254.582 -36 L254.76 -36 L254.939 -36 L255.118 -36 L255.297 -36 L255.475 -36 L255.654 -36 L255.833 -36 L256.012 -36 L256.19 -36 L256.369 -36 L256.548 -36 L256.726 -36 L256.905 -36 L257.084 -36 L257.263 -36 L257.441 -36 L257.62 -36 L257.799 -36 L257.978 -36 L258.156 -36 L258.335 -36 L258.514 -36 L258.693 -36 L258.871 -36 L259.05 -36 L259.229 -36 L259.408 -36 L259.586 -36 L259.765 -36 L259.944 -36 L260.123 -36 L260.301 -36 L260.48 -36 L260.659 -36 L260.837 -36 L261.016 -36 L261.195 -36 L261.374 -36 L261.552 -36 L261.731 -36 L261.91 -36 L262.089 -36 L262.267 -36 L262.446 -36 L262.625 -36 L262.804 -36 L262.982 -36 L263.161 -36 L263.34 -36 L263.519 -36 L263.697 -36 L263.876 -36 L264.055 -36 L264.234 -36 L264.412 -36 L264.591 -36 L264.77 -36 L264.948 -36 L265.127 -36 L265.306 -36 L265.485 -36 L265.663 -36 L265.842 -36 L266.021 -36 L266.2 -36 L266.378 -36 L266.557 -36 L266.736 -36 L266.915 -36 L267.093 -36 L267.272 -36 L267.451 -36 L267.63 -36 L267.808 -36 L267.987 -36 L268.166 -36 L268.345 -36 L268.523 -36 L268.702 -36 L268.881 -36 L269.059 -36 L269.238 -36 L269.417 -36 L269.596 -36 L269.774 -36 L269.953 -36 L270.132 -36 L270.311 -36 L270.489 -36 L270.668 -36 L270.847 -36 L271.026 -36 L271.204 -36 L271.383 -36 L271.562 -36 L271.741 -36 L271.919 -36 L272.098 -36 L272.277 -36 L272.455 -36 L272.634 -36 L272.813 -36 L272.992 -36 L273.17 -36 L273.349 -36 L273.528 -36 L273.707 -36 L273.885 -36 L274.064 -36 L274.243 -36 L274.422 -36 L274.6 -36 L274.779 -36 L274.958 -36 L275.137 -36 L275.315 -36 L275.494 -36 L275.673 -36 L275.852 -36 L276.03 -36 L276.209 -36 L276.388 -36 L276.566 -36 L276.745 -36 L276.924 -36 L277.103 -36 L277.281 -36 L277.46 -36 L277.639 -36 L277.818 -36 L277.996 -36 L278.175 -36 L278.354 -36 L278.533 -36 L278.711 -36 L278.89 -36 L279.069 -36 L279.248 -36 L279.426 -36 L279.605 -36 L279.784 -36 L279.963 -36 L280.141 -36 L280.32 -36 L280.499 -36 L280.677 -36 L280.856 -36 L281.035 -36 L281.214 -36 L281.392 -36 L281.571 -36 L281.75 -36 L281.929 -36 L282.107 -36 L282.286 -36 L282.465 -36 L282.644 -36 L282.822 -36 L283.001 -36 L283.18 -36 L283.359 -36 L283.537 -36 L283.716 -36 L283.895 -36 L284.074 -36 L284.252 -36 L284.431 -36 L284.61 -36 L284.788 -36 L284.967 -36 L285.146 -36 L285.325 -36 L285.503 -36 L285.682 -36 L285.861 -36 L286.04 -36 L286.218 -36 L286.397 -36 L286.576 -36 L286.755 -36 L286.933 -36 L287.112 -36 L287.291 -36 L287.47 -36 L287.648 -36 L287.827 -36 L288.006 -36 L288.185 -36 L288.363 -36 L288.542 -36 L288.721 -36 L288.899 -36 L289.078 -36 L289.257 -36 L289.436 -36 L289.614 -36 L289.793 -36 L289.972 -36 L290.151 -36 L290.329 -36 L290.508 -36 L290.687 -36 L290.866 -36 L291.044 -36 L291.223 -36 L291.402 -36 L291.581 -36 L291.759 -36 L291.938 -36 L292.117 -36 L292.295 -36 L292.474 -36 L292.653 -36 L292.832 -36 L293.01 -36 L293.189 -36 L293.368 -36 L293.547 -36 L293.725 -36 L293.904 -36 L294.083 -36 L294.262 -36 L294.44 -36 L294.619 -36 L294.798 -36 L294.977 -36 L295.155 -36 L295.334 -36 L295.513 -36 L295.692 -36 L295.87 -36 L296.049 -36 L296.228 -36 L296.406 -36 L296.585 -36 L296.764 -36 L296.943 -36 L297.121 -36 L297.3 -36 L297.479 -36 L297.658 -36 L297.836 -36 L298.015 -36 L298.194 -36 L298.373 -36 L298.551 -36 L298.73 -36 L298.909 -36 L299.088 -36 L299.266 -36 L299.445 -36 L299.624 -36 L299.803 -36 L299.981 -36 L300.16 -36 L300.339 -36 L300.517 -36 L300.696 -36 L300.875 -36 L301.054 -36 L301.232 -36 L301.411 -36 L301.59 -36 L301.769 -36 L301.947 -36 L302.126 -36 L302.305 -36 L302.484 -36 L302.662 -36 L302.841 -36 L303.02 -36 L303.199 -36 L303.377 -36 L303.556 -36 L303.735 -36 L303.914 -36 L304.092 -36 L304.271 -36 L304.45 -36 L304.628 -36 L304.807 -36 L304.986 -36 L305.165 -36 L305.343 -36 L305.522 -36 L305.701 -36 L305.88 -36 L306.058 -36 L306.237 -36 L306.416 -36 L306.595 -36 L306.773 -36 L306.952 -36 L307.131 -36 L307.31 -36 L307.488 -36 L307.667 -36 L307.846 -36 L308.025 -36 L308.203 -36 L308.382 -36 L308.561 -36 L308.739 -36 L308.918 -36 L309.097 -36 L309.276 -36 L309.454 -36 L309.633 -36 L309.812 -36 L309.991 -36 L310.169 -36 L310.348 -36 L310.527 -36 L310.706 -36 L310.884 -36 L311.063 -36 L311.242 -36 L311.421 -36 L311.599 -36 L311.778 -36 L311.957 -36 L312.135 -36 L312.314 -36 L312.493 -36 L312.672 -36 L312.85 -36 L313.029 -36 L313.208 -36 L313.387 -36 L313.565 -36 L313.744 -36 L313.923 -36 L314.102 -36 L314.28 -36 L314.459 -36 L314.638 -36 L314.817 -36 L314.995 -36 L315.174 -36 L315.353 -36 L315.532 -36 L315.71 -36 L315.889 -36 L316.068 -36 L316.246 -36 L316.425 -36 L316.604 -36 L316.783 -36 L316.961 -36 L317.14 -36 L317.319 -36 L317.498 -36 L317.676 -36 L317.855 -36 L318.034 -36 L318.213 -36 L318.391 -36 L318.57 -36 L318.749 -36 L318.928 -36 L319.106 -36 L319.285 -36 L319.464 -36 L319.643 -36 L319.821 -36 L320 -36 L320.179 -36 L320.357 -36 L320.536 -36 L320.715 -36 L320.894 -36 L321.072 -36 L321.251 -36 L321.43 -36 L321.609 -36 L321.787 -36 L321.966 -36 L322.145 -36 L322.324 -36 L322.502 -36 L322.681 -36 L322.86 -36 L323.039 -36 L323.217 -36 L323.396 -36 L323.575 -36 L323.754 -36 L323.932 -36 L324.111 -36 L324.29 -36 L324.468 -36 L324.647 -36 L324.826 -36 L325.005 -36 L325.183 -36 L325.362 -36 L325.541 -36 L325.72 -36 L325.898 -36 L326.077 -36 L326.256 -36 L326.435 -36 L326.613 -36 L326.792 -36 L326.971 -36 L327.15 -36 L327.328 -36 L327.507 -36 L327.686 -36 L327.865 -36 L328.043 -36 L328.222 -36 L328.401 -36 L328.579 -36 L328.758 -36 L328.937 -36 L329.116 -36 L329.294 -36 L329.473 -36 L329.652 -36 L329.831 -36 L330.009 -36 L330.188 -36 L330.367 -36 L330.546 -36 L330.724 -36 L330.903 -36 L331.082 -36 L331.261 -36 L331.439 -36 L331.618 -36 L331.797 -36 L331.975 -36 L332.154 -36 L332.333 -36 L332.512 -36 L332.69 -36 L332.869 -36 L333.048 -36 L333.227 -36 L333.405 -36 L333.584 -36 L333.763 -36 L333.942 -36 L334.12 -36 L334.299 -36 L334.478 -36 L334.657 -36 L334.835 -36 L335.014 -36 L335.193 -36 L335.372 -36 L335.55 -36 L335.729 -36 L335.908 -36 L336.086 -36 L336.265 -36 L336.444 -36 L336.623 -36 L336.801 -36 L336.98 -36 L337.159 -36 L337.338 -36 L337.516 -36 L337.695 -36 L337.874 -36 L338.053 -36 L338.231 -36 L338.41 -36 L338.589 -36 L338.768 -36 L338.946 -36 L339.125 -36 L339.304 -36 L339.483 -36 L339.661 -36 L339.84 -36 L339.84 -147.6 L339.84 -147.6 L339.661 -147.779 L339.483 -147.957 L339.304 -148.136 L339.125 -148.315 L338.946 -148.494 L338.768 -148.672 L338.589 -148.851 L338.41 -149.03 L338.231 -149.209 L338.053 -149.387 L337.874 -149.566 L337.695 -149.745 L337.516 -149.923 L337.338 -150.102 L337.159 -150.281 L336.98 -150.459 L336.801 -150.638 L336.623 -150.817 L336.444 -150.995 L336.265 -151.174 L336.086 -151.353 L335.908 -151.531 L335.729 -151.71 L335.55 -151.888 L335.372 -152.067 L335.193 -152.246 L335.014 -152.424 L334.835 -152.603 L334.657 -152.781 L334.478 -152.96 L334.299 -153.138 L334.12 -153.317 L333.942 -153.495 L333.763 -153.674 L333.584 -153.852 L333.405 -154.03 L333.227 -154.209 L333.048 -154.387 L332.869 -154.565 L332.69 -154.744 L332.512 -154.922 L332.333 -155.1 L332.154 -155.279 L331.975 -155.457 L331.797 -155.635 L331.618 -155.813 L331.439 -155.991 L331.261 -156.17 L331.082 -156.348 L330.903 -156.526 L330.724 -156.704 L330.546 -156.882 L330.367 -157.06 L330.188 -157.238 L330.009 -157.416 L329.831 -157.594 L329.652 -157.772 L329.473 -157.949 L329.294 -158.127 L329.116 -158.305 L328.937 -158.483 L328.758 -158.66 L328.579 -158.838 L328.401 -159.016 L328.222 -159.193 L328.043 -159.371 L327.865 -159.549 L327.686 -159.726 L327.507 -159.904 L327.328 -160.081 L327.15 -160.258 L326.971 -160.436 L326.792 -160.613 L326.613 -160.79 L326.435 -160.968 L326.256 -161.145 L326.077 -161.322 L325.898 -161.499 L325.72 -161.676 L325.541 -161.853 L325.362 -162.03 L325.183 -162.207 L325.005 -162.384 L324.826 -162.561 L324.647 -162.738 L324.468 -162.915 L324.29 -163.091 L324.111 -163.268 L323.932 -163.445 L323.754 -163.621 L323.575 -163.798 L323.396 -163.974 L323.217 -164.151 L323.039 -164.327 L322.86 -164.503 L322.681 -164.68 L322.502 -164.856 L322.324 -165.032 L322.145 -165.208 L321.966 -165.384 L321.787 -165.56 L321.609 -165.736 L321.43 -165.912 L321.251 -166.088 L321.072 -166.264 L320.894 -166.44 L320.715 -166.615 L320.536 -166.791 L320.357 -166.967 L320.179 -167.142 L320 -167.318 L319.821 -167.493 L319.643 -167.668 L319.464 -167.844 L319.285 -168.019 L319.106 -168.194 L318.928 -168.369 L318.749 -168.544 L318.57 -168.719 L318.391 -168.894 L318.213 -169.069 L318.034 -169.244 L317.855 -169.418 L317.676 -169.593 L317.498 -169.767 L317.319 -169.942 L317.14 -170.116 L316.961 -170.291 L316.783 -170.465 L316.604 -170.639 L316.425 -170.813 L316.246 -170.988 L316.068 -171.162 L315.889 -171.336 L315.71 -171.509 L315.532 -171.683 L315.353 -171.857 L315.174 -172.031 L314.995 -172.204 L314.817 -172.378 L314.638 -172.551 L314.459 -172.724 L314.28 -172.898 L314.102 -173.071 L313.923 -173.244 L313.744 -173.417 L313.565 -173.59 L313.387 -173.763 L313.208 -173.936 L313.029 -174.109 L312.85 -174.281 L312.672 -174.454 L312.493 -174.626 L312.314 -174.799 L312.135 -174.971 L311.957 -175.143 L311.778 -175.315 L311.599 -175.488 L311.421 -175.66 L311.242 -175.831 L311.063 -176.003 L310.884 -176.175 L310.706 -176.347 L310.527 -176.518 L310.348 -176.69 L310.169 -176.861 L309.991 -177.032 L309.812 -177.204 L309.633 -177.375 L309.454 -177.546 L309.276 -177.717 L309.097 -177.887 L308.918 -178.058 L308.739 -178.229 L308.561 -178.399 L308.382 -178.57 L308.203 -178.74 L308.025 -178.91 L307.846 -179.081 L307.667 -179.251 L307.488 -179.421 L307.31 -179.591 L307.131 -179.76 L306.952 -179.93 L306.773 -180.1 L306.595 -180.269 L306.416 -180.439 L306.237 -180.608 L306.058 -180.777 L305.88 -180.946 L305.701 -181.115 L305.522 -181.284 L305.343 -181.453 L305.165 -181.621 L304.986 -181.79 L304.807 -181.959 L304.628 -182.127 L304.45 -182.295 L304.271 -182.463 L304.092 -182.631 L303.914 -182.799 L303.735 -182.967 L303.556 -183.135 L303.377 -183.302 L303.199 -183.47 L303.02 -183.637 L302.841 -183.805 L302.662 -183.972 L302.484 -184.139 L302.305 -184.306 L302.126 -184.473 L301.947 -184.639 L301.769 -184.806 L301.59 -184.972 L301.411 -185.139 L301.232 -185.305 L301.054 -185.471 L300.875 -185.637 L300.696 -185.803 L300.517 -185.969 L300.339 -186.135 L300.16 -186.3 L299.981 -186.466 L299.803 -186.631 L299.624 -186.796 L299.445 -186.961 L299.266 -187.126 L299.088 -187.291 L298.909 -187.456 L298.73 -187.62 L298.551 -187.785 L298.373 -187.949 L298.194 -188.113 L298.015 -188.277 L297.836 -188.441 L297.658 -188.605 L297.479 -188.769 L297.3 -188.933 L297.121 -189.096 L296.943 -189.259 L296.764 -189.423 L296.585 -189.586 L296.406 -189.749 L296.228 -189.911 L296.049 -190.074 L295.87 -190.237 L295.692 -190.399 L295.513 -190.561 L295.334 -190.723 L295.155 -190.885 L294.977 -191.047 L294.798 -191.209 L294.619 -191.371 L294.44 -191.532 L294.262 -191.694 L294.083 -191.855 L293.904 -192.016 L293.725 -192.177 L293.547 -192.338 L293.368 -192.498 L293.189 -192.659 L293.01 -192.819 L292.832 -192.979 L292.653 -193.139 L292.474 -193.299 L292.295 -193.459 L292.117 -193.619 L291.938 -193.778 L291.759 -193.938 L291.581 -194.097 L291.402 -194.256 L291.223 -194.415 L291.044 -194.574 L290.866 -194.732 L290.687 -194.891 L290.508 -195.049 L290.329 -195.207 L290.151 -195.365 L289.972 -195.523 L289.793 -195.681 L289.614 -195.839 L289.436 -195.996 L289.257 -196.153 L289.078 -196.311 L288.899 -196.468 L288.721 -196.624 L288.542 -196.781 L288.363 -196.938 L288.185 -197.094 L288.006 -197.25 L287.827 -197.406 L287.648 -197.562 L287.47 -197.718 L287.291 -197.874 L287.112 -198.029 L286.933 -198.184 L286.755 -198.339 L286.576 -198.494 L286.397 -198.649 L286.218 -198.804 L286.04 -198.958 L285.861 -199.113 L285.682 -199.267 L285.503 -199.421 L285.325 -199.575 L285.146 -199.728 L284.967 -199.882 L284.788 -200.035 L284.61 -200.188 L284.431 -200.341 L284.252 -200.494 L284.074 -200.647 L283.895 -200.799 L283.716 -200.952 L283.537 -201.104 L283.359 -201.256 L283.18 -201.408 L283.001 -201.559 L282.822 -201.711 L282.644 -201.862 L282.465 -202.013 L282.286 -202.164 L282.107 -202.315 L281.929 -202.466 L281.75 -202.616 L281.571 -202.766 L281.392 -202.916 L281.214 -203.066 L281.035 -203.216 L280.856 -203.366 L280.677 -203.515 L280.499 -203.664 L280.32 -203.813 L280.141 -203.962 L279.963 -204.111 L279.784 -204.259 L279.605 -204.408 L279.426 -204.556 L279.248 -204.704 L279.069 -204.852 L278.89 -204.999 L278.711 -205.147 L278.533 -205.294 L278.354 -205.441 L278.175 -205.588 L277.996 -205.734 L277.818 -205.881 L277.639 -206.027 L277.46 -206.173 L277.281 -206.319 L277.103 -206.465 L276.924 -206.61 L276.745 -206.756 L276.566 -206.901 L276.388 -207.046 L276.209 -207.191 L276.03 -207.335 L275.852 -207.48 L275.673 -207.624 L275.494 -207.768 L275.315 -207.912 L275.137 -208.055 L274.958 -208.199 L274.779 -208.342 L274.6 -208.485 L274.422 -208.628 L274.243 -208.771 L274.064 -208.913 L273.885 -209.055 L273.707 -209.197 L273.528 -209.339 L273.349 -209.481 L273.17 -209.622 L272.992 -209.764 L272.813 -209.905 L272.634 -210.046 L272.455 -210.186 L272.277 -210.327 L272.098 -210.467 L271.919 -210.607 L271.741 -210.747 L271.562 -210.887 L271.383 -211.026 L271.204 -211.165 L271.026 -211.304 L270.847 -211.443 L270.668 -211.582 L270.489 -211.72 L270.311 -211.858 L270.132 -211.996 L269.953 -212.134 L269.774 -212.272 L269.596 -212.409 L269.417 -212.546 L269.238 -212.683 L269.059 -212.82 L268.881 -212.956 L268.702 -213.092 L268.523 -213.229 L268.345 -213.364 L268.166 -213.5 L267.987 -213.635 L267.808 -213.771 L267.63 -213.906 L267.451 -214.04 L267.272 -214.175 L267.093 -214.309 L266.915 -214.444 L266.736 -214.577 L266.557 -214.711 L266.378 -214.845 L266.2 -214.978 L266.021 -215.111 L265.842 -215.244 L265.663 -215.376 L265.485 -215.509 L265.306 -215.641 L265.127 -215.773 L264.948 -215.904 L264.77 -216.036 L264.591 -216.167 L264.412 -216.298 L264.234 -216.429 L264.055 -216.559 L263.876 -216.69 L263.697 -216.82 L263.519 -216.95 L263.34 -217.079 L263.161 -217.209 L262.982 -217.338 L262.804 -217.467 L262.625 -217.596 L262.446 -217.724 L262.267 -217.852 L262.089 -217.98 L261.91 -218.108 L261.731 -218.236 L261.552 -218.363 L261.374 -218.49 L261.195 -218.617 L261.016 -218.744 L260.837 -218.87 L260.659 -218.996 L260.48 -219.122 L260.301 -219.248 L260.123 -219.373 L259.944 -219.498 L259.765 -219.623 L259.586 -219.748 L259.408 -219.872 L259.229 -219.997 L259.05 -220.121 L258.871 -220.244 L258.693 -220.368 L258.514 -220.491 L258.335 -220.614 L258.156 -220.737 L257.978 -220.859 L257.799 -220.982 L257.62 -221.104 L257.441 -221.225 L257.263 -221.347 L257.084 -221.468 L256.905 -221.589 L256.726 -221.71 L256.548 -221.83 L256.369 -221.951 L256.19 -222.071 L256.012 -222.191 L255.833 -222.31 L255.654 -222.429 L255.475 -222.548 L255.297 -222.667 L255.118 -222.786 L254.939 -222.904 L254.76 -223.022 L254.582 -223.14 L254.403 -223.257 L254.224 -223.374 L254.045 -223.491 L253.867 -223.608 L253.688 -223.724 L253.509 -223.841 L253.33 -223.957 L253.152 -224.072 L252.973 -224.188 L252.794 -224.303 L252.615 -224.418 L252.437 -224.532 L252.258 -224.647 L252.079 -224.761 L251.901 -224.875 L251.722 -224.988 L251.543 -225.102 L251.364 -225.215 L251.186 -225.327 L251.007 -225.44 L250.828 -225.552 L250.649 -225.664 L250.471 -225.776 L250.292 -225.887 L250.113 -225.998 L249.934 -226.109 L249.756 -226.22 L249.577 -226.33 L249.398 -226.44 L249.219 -226.55 L249.041 -226.66 L248.862 -226.769 L248.683 -226.878 L248.505 -226.987 L248.326 -227.095 L248.147 -227.203 L247.968 -227.311 L247.79 -227.419 L247.611 -227.526 L247.432 -227.633 L247.253 -227.74 L247.075 -227.847 L246.896 -227.953 L246.717 -228.059 L246.538 -228.165 L246.36 -228.27 L246.181 -228.375 L246.002 -228.48 L245.823 -228.584 L245.645 -228.689 L245.466 -228.793 L245.287 -228.896 L245.108 -229 L244.93 -229.103 L244.751 -229.206 L244.572 -229.308 L244.394 -229.411 L244.215 -229.513 L244.036 -229.614 L243.857 -229.716 L243.679 -229.817 L243.5 -229.918 L243.321 -230.018 L243.142 -230.119 L242.964 -230.218 L242.785 -230.318 L242.606 -230.418 L242.427 -230.517 L242.249 -230.615 L242.07 -230.714 L241.891 -230.812 L241.712 -230.91 L241.534 -231.008 L241.355 -231.105 L241.176 -231.202 L240.997 -231.299 L240.819 -231.395 L240.64 -231.491 L240.461 -231.587 L240.283 -231.683 L240.104 -231.778 L239.925 -231.873 L239.746 -231.968 L239.568 -232.062 L239.389 -232.156 L239.21 -232.25 L239.031 -232.343 L238.853 -232.436 L238.674 -232.529 L238.495 -232.622 L238.316 -232.714 L238.138 -232.806 L237.959 -232.897 L237.78 -232.989 L237.601 -233.08 L237.423 -233.17 L237.244 -233.261 L237.065 -233.351 L236.886 -233.441 L236.708 -233.53 L236.529 -233.619 L236.35 -233.708 L236.172 -233.797 L235.993 -233.885 L235.814 -233.973 L235.635 -234.06 L235.457 -234.147 L235.278 -234.234 L235.099 -234.321 L234.92 -234.407 L234.742 -234.493 L234.563 -234.579 L234.384 -234.664 L234.205 -234.75 L234.027 -234.834 L233.848 -234.919 L233.669 -235.003 L233.49 -235.087 L233.312 -235.17 L233.133 -235.253 L232.954 -235.336 L232.775 -235.419 L232.597 -235.501 L232.418 -235.583 L232.239 -235.664 L232.061 -235.745 L231.882 -235.826 L231.703 -235.907 L231.524 -235.987 L231.346 -236.067 L231.167 -236.147 L230.988 -236.226 L230.809 -236.305 L230.631 -236.383 L230.452 -236.462 L230.273 -236.54 L230.094 -236.617 L229.916 -236.695 L229.737 -236.772 L229.558 -236.848 L229.379 -236.925 L229.201 -237 L229.022 -237.076 L228.843 -237.151 L228.665 -237.226 L228.486 -237.301 L228.307 -237.375 L228.128 -237.449 L227.95 -237.523 L227.771 -237.596 L227.592 -237.669 L227.413 -237.742 L227.235 -237.814 L227.056 -237.886 L226.877 -237.958 L226.698 -238.029 L226.52 -238.1 L226.341 -238.17 L226.162 -238.241 L225.983 -238.311 L225.805 -238.38 L225.626 -238.449 L225.447 -238.518 L225.268 -238.587 L225.09 -238.655 L224.911 -238.723 L224.732 -238.79 L224.554 -238.857 L224.375 -238.924 L224.196 -238.991 L224.017 -239.057 L223.839 -239.123 L223.66 -239.188 L223.481 -239.253 L223.302 -239.318 L223.124 -239.382 L222.945 -239.446 L222.766 -239.51 L222.587 -239.573 L222.409 -239.636 L222.23 -239.699 L222.051 -239.761 L221.872 -239.823 L221.694 -239.884 L221.515 -239.945 L221.336 -240.006 L221.157 -240.067 L220.979 -240.127 L220.8 -240.187 L220.621 -240.246 L220.443 -240.305 L220.264 -240.364 L220.085 -240.422 L219.906 -240.48 L219.728 -240.538 L219.549 -240.595 L219.37 -240.652 L219.191 -240.708 L219.013 -240.764 L218.834 -240.82 L218.655 -240.876 L218.476 -240.931 L218.298 -240.985 L218.119 -241.04 L217.94 -241.094 L217.761 -241.147 L217.583 -241.201 L217.404 -241.253 L217.225 -241.306 L217.046 -241.358 L216.868 -241.41 L216.689 -241.461 L216.51 -241.512 L216.332 -241.563 L216.153 -241.613 L215.974 -241.663 L215.795 -241.713 L215.617 -241.762 L215.438 -241.811 L215.259 -241.859 L215.08 -241.907 L214.902 -241.955 L214.723 -242.002 L214.544 -242.049 L214.365 -242.095 L214.187 -242.142 L214.008 -242.187 L213.829 -242.233 L213.65 -242.278 L213.472 -242.322 L213.293 -242.367 L213.114 -242.411 L212.935 -242.454 L212.757 -242.497 L212.578 -242.54 L212.399 -242.582 L212.221 -242.624 L212.042 -242.666 L211.863 -242.707 L211.684 -242.748 L211.506 -242.788 L211.327 -242.828 L211.148 -242.868 L210.969 -242.907 L210.791 -242.946 L210.612 -242.985 L210.433 -243.023 L210.254 -243.061 L210.076 -243.098 L209.897 -243.135 L209.718 -243.171 L209.539 -243.208 L209.361 -243.243 L209.182 -243.279 L209.003 -243.314 L208.825 -243.348 L208.646 -243.383 L208.467 -243.416 L208.288 -243.45 L208.11 -243.483 L207.931 -243.515 L207.752 -243.548 L207.573 -243.58 L207.395 -243.611 L207.216 -243.642 L207.037 -243.673 L206.858 -243.703 L206.68 -243.733 L206.501 -243.762 L206.322 -243.791 L206.143 -243.82 L205.965 -243.848 L205.786 -243.876 L205.607 -243.903 L205.428 -243.93 L205.25 -243.957 L205.071 -243.983 L204.892 -244.009 L204.714 -244.034 L204.535 -244.059 L204.356 -244.084 L204.177 -244.108 L203.999 -244.132 L203.82 -244.155 L203.641 -244.178 L203.462 -244.201 L203.284 -244.223 L203.105 -244.245 L202.926 -244.266 L202.747 -244.287 L202.569 -244.307 L202.39 -244.327 L202.211 -244.347 L202.032 -244.366 L201.854 -244.385 L201.675 -244.404 L201.496 -244.422 L201.317 -244.439 L201.139 -244.456 L200.96 -244.473 L200.781 -244.489 L200.603 -244.505 L200.424 -244.521 L200.245 -244.536 L200.066 -244.551 L199.888 -244.565 L199.709 -244.579 L199.53 -244.592 L199.351 -244.605 L199.173 -244.618 L198.994 -244.63 L198.815 -244.641 L198.636 -244.653 L198.458 -244.664 L198.279 -244.674 L198.1 -244.684 L197.921 -244.694 L197.743 -244.703 L197.564 -244.712 L197.385 -244.72 L197.206 -244.728 L197.028 -244.735 L196.849 -244.742 L196.67 -244.749 L196.492 -244.755 L196.313 -244.761 L196.134 -244.766 L195.955 -244.771 L195.777 -244.775 L195.598 -244.779 L195.419 -244.783 L195.24 -244.786 L195.062 -244.789 L194.883 -244.791 L194.704 -244.793 L194.525 -244.794 L194.347 -244.795 L194.168 -244.796 L193.989 -244.796 L193.81 -244.795 L193.632 -244.795 L193.453 -244.793 L193.274 -244.792 L193.095 -244.79 L192.917 -244.787 L192.738 -244.784 L192.559 -244.781 L192.381 -244.777 L192.202 -244.772 L192.023 -244.768 L191.844 -244.762 L191.666 -244.757 L191.487 -244.751 L191.308 -244.744 L191.129 -244.737 L190.951 -244.73 L190.772 -244.722 L190.593 -244.713 L190.414 -244.705 L190.236 -244.695 L190.057 -244.686 L189.878 -244.675 L189.699 -244.665 L189.521 -244.654 L189.342 -244.642 L189.163 -244.63 L188.985 -244.618 L188.806 -244.605 L188.627 -244.592 L188.448 -244.578 L188.27 -244.564 L188.091 -244.549 L187.912 -244.534 L187.733 -244.518 L187.555 -244.502 L187.376 -244.486 L187.197 -244.469 L187.018 -244.452 L186.84 -244.434 L186.661 -244.415 L186.482 -244.397 L186.303 -244.377 L186.125 -244.358 L185.946 -244.337 L185.767 -244.317 L185.588 -244.296 L185.41 -244.274 L185.231 -244.252 L185.052 -244.229 L184.874 -244.207 L184.695 -244.183 L184.516 -244.159 L184.337 -244.135 L184.159 -244.11 L183.98 -244.085 L183.801 -244.059 L183.622 -244.033 L183.444 -244.006 L183.265 -243.979 L183.086 -243.951 L182.907 -243.923 L182.729 -243.894 L182.55 -243.865 L182.371 -243.836 L182.192 -243.806 L182.014 -243.775 L181.835 -243.744 L181.656 -243.713 L181.477 -243.681 L181.299 -243.649 L181.12 -243.616 L180.941 -243.582 L180.763 -243.549 L180.584 -243.514 L180.405 -243.48 L180.226 -243.444 L180.048 -243.409 L179.869 -243.372 L179.69 -243.336 L179.511 -243.299 L179.333 -243.261 L179.154 -243.223 L178.975 -243.184 L178.796 -243.145 L178.618 -243.105 L178.439 -243.065 L178.26 -243.025 L178.081 -242.984 L177.903 -242.942 L177.724 -242.9 L177.545 -242.858 L177.366 -242.815 L177.188 -242.771 L177.009 -242.727 L176.83 -242.683 L176.652 -242.638 L176.473 -242.592 L176.294 -242.546 L176.115 -242.5 L175.937 -242.453 L175.758 -242.406 L175.579 -242.358 L175.4 -242.309 L175.222 -242.261 L175.043 -242.211 L174.864 -242.161 L174.685 -242.111 L174.507 -242.06 L174.328 -242.009 L174.149 -241.957 L173.97 -241.904 L173.792 -241.852 L173.613 -241.798 L173.434 -241.744 L173.255 -241.69 L173.077 -241.635 L172.898 -241.58 L172.719 -241.524 L172.541 -241.467 L172.362 -241.411 L172.183 -241.353 L172.004 -241.295 L171.826 -241.237 L171.647 -241.178 L171.468 -241.119 L171.289 -241.059 L171.111 -240.998 L170.932 -240.937 L170.753 -240.876 L170.574 -240.814 L170.396 -240.752 L170.217 -240.689 L170.038 -240.625 L169.859 -240.561 L169.681 -240.497 L169.502 -240.432 L169.323 -240.366 L169.145 -240.3 L168.966 -240.234 L168.787 -240.167 L168.608 -240.099 L168.43 -240.031 L168.251 -239.963 L168.072 -239.893 L167.893 -239.824 L167.715 -239.754 L167.536 -239.683 L167.357 -239.612 L167.178 -239.54 L167 -239.468 L166.821 -239.395 L166.642 -239.322 L166.463 -239.248 L166.285 -239.174 L166.106 -239.099 L165.927 -239.024 L165.748 -238.948 L165.57 -238.872 L165.391 -238.795 L165.212 -238.717 L165.034 -238.639 L164.855 -238.561 L164.676 -238.482 L164.497 -238.402 L164.319 -238.322 L164.14 -238.242 L163.961 -238.16 L163.782 -238.079 L163.604 -237.997 L163.425 -237.914 L163.246 -237.831 L163.067 -237.747 L162.889 -237.663 L162.71 -237.578 L162.531 -237.492 L162.352 -237.407 L162.174 -237.32 L161.995 -237.233 L161.816 -237.146 L161.637 -237.058 L161.459 -236.969 L161.28 -236.88 z " id="mf298810284"/>
    </defs>
    <g clip-path="url(#pd17d8af51d)">
     <use style="fill:#ffdc52;fill-opacity:0.4;" x="0.0" xlink:href="#mf298810284" y="288.0"/>
    </g>
   </g>
   <g id="PolyCollection_2">
    <defs>
     <path d=" M161.28 -236.88 L161.28 -36 L161.369 -36 L161.459 -36 L161.548 -36 L161.637 -36 L161.727 -36 L161.816 -36 L161.906 -36 L161.995 -36 L162.084 -36 L162.174 -36 L162.263 -36 L162.352 -36 L162.442 -36 L162.531 -36 L162.621 -36 L162.71 -36 L162.799 -36 L162.889 -36 L162.978 -36 L163.067 -36 L163.157 -36 L163.246 -36 L163.335 -36 L163.425 -36 L163.514 -36 L163.604 -36 L163.693 -36 L163.782 -36 L163.872 -36 L163.961 -36 L164.05 -36 L164.14 -36 L164.229 -36 L164.319 -36 L164.408 -36 L164.497 -36 L164.587 -36 L164.676 -36 L164.765 -36 L164.855 -36 L164.944 -36 L165.034 -36 L165.123 -36 L165.212 -36 L165.302 -36 L165.391 -36 L165.48 -36 L165.57 -36 L165.659 -36 L165.748 -36 L165.838 -36 L165.927 -36 L166.017 -36 L166.106 -36 L166.195 -36 L166.285 -36 L166.374 -36 L166.463 -36 L166.553 -36 L166.642 -36 L166.732 -36 L166.821 -36 L166.91 -36 L167 -36 L167.089 -36 L167.178 -36 L167.268 -36 L167.357 -36 L167.446 -36 L167.536 -36 L167.625 -36 L167.715 -36 L167.804 -36 L167.893 -36 L167.983 -36 L168.072 -36 L168.161 -36 L168.251 -36 L168.34 -36 L168.43 -36 L168.519 -36 L168.608 -36 L168.698 -36 L168.787 -36 L168.876 -36 L168.966 -36 L169.055 -36 L169.145 -36 L169.234 -36 L169.323 -36 L169.413 -36 L169.502 -36 L169.591 -36 L169.681 -36 L169.77 -36 L169.859 -36 L169.949 -36 L170.038 -36 L170.128 -36 L170.217 -36 L170.306 -36 L170.396 -36 L170.485 -36 L170.574 -36 L170.664 -36 L170.753 -36 L170.843 -36 L170.932 -36 L171.021 -36 L171.111 -36 L171.2 -36 L171.289 -36 L171.379 -36 L171.468 -36 L171.557 -36 L171.647 -36 L171.736 -36 L171.826 -36 L171.915 -36 L172.004 -36 L172.094 -36 L172.183 -36 L172.272 -36 L172.362 -36 L172.451 -36 L172.541 -36 L172.63 -36 L172.719 -36 L172.809 -36 L172.898 -36 L172.987 -36 L173.077 -36 L173.166 -36 L173.255 -36 L173.345 -36 L173.434 -36 L173.524 -36 L173.613 -36 L173.702 -36 L173.792 -36 L173.881 -36 L173.97 -36 L174.06 -36 L174.149 -36 L174.239 -36 L174.328 -36 L174.417 -36 L174.507 -36 L174.596 -36 L174.685 -36 L174.775 -36 L174.864 -36 L174.954 -36 L175.043 -36 L175.132 -36 L175.222 -36 L175.311 -36 L175.4 -36 L175.49 -36 L175.579 -36 L175.668 -36 L175.758 -36 L175.847 -36 L175.937 -36 L176.026 -36 L176.115 -36 L176.205 -36 L176.294 -36 L176.383 -36 L176.473 -36 L176.562 -36 L176.652 -36 L176.741 -36 L176.83 -36 L176.92 -36 L177.009 -36 L177.098 -36 L177.188 -36 L177.277 -36 L177.366 -36 L177.456 -36 L177.545 -36 L177.635 -36 L177.724 -36 L177.813 -36 L177.903 -36 L177.992 -36 L178.081 -36 L178.171 -36 L178.26 -36 L178.35 -36 L178.439 -36 L178.528 -36 L178.618 -36 L178.707 -36 L178.796 -36 L178.886 -36 L178.975 -36 L179.065 -36 L179.154 -36 L179.243 -36 L179.333 -36 L179.422 -36 L179.511 -36 L179.601 -36 L179.69 -36 L179.779 -36 L179.869 -36 L179.958 -36 L180.048 -36 L180.137 -36 L180.226 -36 L180.316 -36 L180.405 -36 L180.494 -36 L180.584 -36 L180.673 -36 L180.763 -36 L180.852 -36 L180.941 -36 L181.031 -36 L181.12 -36 L181.209 -36 L181.299 -36 L181.388 -36 L181.477 -36 L181.567 -36 L181.656 -36 L181.746 -36 L181.835 -36 L181.924 -36 L182.014 -36 L182.103 -36 L182.192 -36 L182.282 -36 L182.371 -36 L182.461 -36 L182.55 -36 L182.639 -36 L182.729 -36 L182.818 -36 L182.907 -36 L182.997 -36 L183.086 -36 L183.175 -36 L183.265 -36 L183.354 -36 L183.444 -36 L183.533 -36 L183.622 -36 L183.712 -36 L183.801 -36 L183.89 -36 L183.98 -36 L184.069 -36 L184.159 -36 L184.248 -36 L184.337 -36 L184.427 -36 L184.516 -36 L184.605 -36 L184.695 -36 L184.784 -36 L184.874 -36 L184.963 -36 L185.052 -36 L185.142 -36 L185.231 -36 L185.32 -36 L185.41 -36 L185.499 -36 L185.588 -36 L185.678 -36 L185.767 -36 L185.857 -36 L185.946 -36 L186.035 -36 L186.125 -36 L186.214 -36 L186.303 -36 L186.393 -36 L186.482 -36 L186.572 -36 L186.661 -36 L186.75 -36 L186.84 -36 L186.929 -36 L187.018 -36 L187.108 -36 L187.197 -36 L187.286 -36 L187.376 -36 L187.465 -36 L187.555 -36 L187.644 -36 L187.733 -36 L187.823 -36 L187.912 -36 L188.001 -36 L188.091 -36 L188.18 -36 L188.27 -36 L188.359 -36 L188.448 -36 L188.538 -36 L188.627 -36 L188.716 -36 L188.806 -36 L188.895 -36 L188.985 -36 L189.074 -36 L189.163 -36 L189.253 -36 L189.342 -36 L189.431 -36 L189.521 -36 L189.61 -36 L189.699 -36 L189.789 -36 L189.878 -36 L189.968 -36 L190.057 -36 L190.146 -36 L190.236 -36 L190.325 -36 L190.414 -36 L190.504 -36 L190.593 -36 L190.683 -36 L190.772 -36 L190.861 -36 L190.951 -36 L191.04 -36 L191.129 -36 L191.219 -36 L191.308 -36 L191.397 -36 L191.487 -36 L191.576 -36 L191.666 -36 L191.755 -36 L191.844 -36 L191.934 -36 L192.023 -36 L192.112 -36 L192.202 -36 L192.291 -36 L192.381 -36 L192.47 -36 L192.559 -36 L192.649 -36 L192.738 -36 L192.827 -36 L192.917 -36 L193.006 -36 L193.095 -36 L193.185 -36 L193.274 -36 L193.364 -36 L193.453 -36 L193.542 -36 L193.632 -36 L193.721 -36 L193.81 -36 L193.9 -36 L193.989 -36 L194.079 -36 L194.168 -36 L194.257 -36 L194.347 -36 L194.436 -36 L194.525 -36 L194.615 -36 L194.704 -36 L194.794 -36 L194.883 -36 L194.972 -36 L195.062 -36 L195.151 -36 L195.24 -36 L195.33 -36 L195.419 -36 L195.508 -36 L195.598 -36 L195.687 -36 L195.777 -36 L195.866 -36 L195.955 -36 L196.045 -36 L196.134 -36 L196.223 -36 L196.313 -36 L196.402 -36 L196.492 -36 L196.581 -36 L196.67 -36 L196.76 -36 L196.849 -36 L196.938 -36 L197.028 -36 L197.117 -36 L197.206 -36 L197.296 -36 L197.385 -36 L197.475 -36 L197.564 -36 L197.653 -36 L197.743 -36 L197.832 -36 L197.921 -36 L198.011 -36 L198.1 -36 L198.19 -36 L198.279 -36 L198.368 -36 L198.458 -36 L198.547 -36 L198.636 -36 L198.726 -36 L198.815 -36 L198.905 -36 L198.994 -36 L199.083 -36 L199.173 -36 L199.262 -36 L199.351 -36 L199.441 -36 L199.53 -36 L199.619 -36 L199.709 -36 L199.798 -36 L199.888 -36 L199.977 -36 L200.066 -36 L200.156 -36 L200.245 -36 L200.334 -36 L200.424 -36 L200.513 -36 L200.603 -36 L200.692 -36 L200.781 -36 L200.871 -36 L200.96 -36 L201.049 -36 L201.139 -36 L201.228 -36 L201.317 -36 L201.407 -36 L201.496 -36 L201.586 -36 L201.675 -36 L201.764 -36 L201.854 -36 L201.943 -36 L202.032 -36 L202.122 -36 L202.211 -36 L202.301 -36 L202.39 -36 L202.479 -36 L202.569 -36 L202.658 -36 L202.747 -36 L202.837 -36 L202.926 -36 L203.015 -36 L203.105 -36 L203.194 -36 L203.284 -36 L203.373 -36 L203.462 -36 L203.552 -36 L203.641 -36 L203.73 -36 L203.82 -36 L203.909 -36 L203.999 -36 L204.088 -36 L204.177 -36 L204.267 -36 L204.356 -36 L204.445 -36 L204.535 -36 L204.624 -36 L204.714 -36 L204.803 -36 L204.892 -36 L204.982 -36 L205.071 -36 L205.16 -36 L205.25 -36 L205.339 -36 L205.428 -36 L205.518 -36 L205.607 -36 L205.697 -36 L205.786 -36 L205.875 -36 L205.965 -36 L206.054 -36 L206.143 -36 L206.233 -36 L206.322 -36 L206.412 -36 L206.501 -36 L206.59 -36 L206.68 -36 L206.769 -36 L206.858 -36 L206.948 -36 L207.037 -36 L207.126 -36 L207.216 -36 L207.305 -36 L207.395 -36 L207.484 -36 L207.573 -36 L207.663 -36 L207.752 -36 L207.841 -36 L207.931 -36 L208.02 -36 L208.11 -36 L208.199 -36 L208.288 -36 L208.378 -36 L208.467 -36 L208.556 -36 L208.646 -36 L208.735 -36 L208.825 -36 L208.914 -36 L209.003 -36 L209.093 -36 L209.182 -36 L209.271 -36 L209.361 -36 L209.45 -36 L209.539 -36 L209.629 -36 L209.718 -36 L209.808 -36 L209.897 -36 L209.986 -36 L210.076 -36 L210.165 -36 L210.254 -36 L210.344 -36 L210.433 -36 L210.523 -36 L210.612 -36 L210.701 -36 L210.791 -36 L210.88 -36 L210.969 -36 L211.059 -36 L211.148 -36 L211.237 -36 L211.327 -36 L211.416 -36 L211.506 -36 L211.595 -36 L211.684 -36 L211.774 -36 L211.863 -36 L211.952 -36 L212.042 -36 L212.131 -36 L212.221 -36 L212.31 -36 L212.399 -36 L212.489 -36 L212.578 -36 L212.667 -36 L212.757 -36 L212.846 -36 L212.935 -36 L213.025 -36 L213.114 -36 L213.204 -36 L213.293 -36 L213.382 -36 L213.472 -36 L213.561 -36 L213.65 -36 L213.74 -36 L213.829 -36 L213.919 -36 L214.008 -36 L214.097 -36 L214.187 -36 L214.276 -36 L214.365 -36 L214.455 -36 L214.544 -36 L214.634 -36 L214.723 -36 L214.812 -36 L214.902 -36 L214.991 -36 L215.08 -36 L215.17 -36 L215.259 -36 L215.348 -36 L215.438 -36 L215.527 -36 L215.617 -36 L215.706 -36 L215.795 -36 L215.885 -36 L215.974 -36 L216.063 -36 L216.153 -36 L216.242 -36 L216.332 -36 L216.421 -36 L216.51 -36 L216.6 -36 L216.689 -36 L216.778 -36 L216.868 -36 L216.957 -36 L217.046 -36 L217.136 -36 L217.225 -36 L217.315 -36 L217.404 -36 L217.493 -36 L217.583 -36 L217.672 -36 L217.761 -36 L217.851 -36 L217.94 -36 L218.03 -36 L218.119 -36 L218.208 -36 L218.298 -36 L218.387 -36 L218.476 -36 L218.566 -36 L218.655 -36 L218.745 -36 L218.834 -36 L218.923 -36 L219.013 -36 L219.102 -36 L219.191 -36 L219.281 -36 L219.37 -36 L219.459 -36 L219.549 -36 L219.638 -36 L219.728 -36 L219.817 -36 L219.906 -36 L219.996 -36 L220.085 -36 L220.174 -36 L220.264 -36 L220.353 -36 L220.443 -36 L220.532 -36 L220.621 -36 L220.711 -36 L220.8 -36 L220.889 -36 L220.979 -36 L221.068 -36 L221.157 -36 L221.247 -36 L221.336 -36 L221.426 -36 L221.515 -36 L221.604 -36 L221.694 -36 L221.783 -36 L221.872 -36 L221.962 -36 L222.051 -36 L222.141 -36 L222.23 -36 L222.319 -36 L222.409 -36 L222.498 -36 L222.587 -36 L222.677 -36 L222.766 -36 L222.855 -36 L222.945 -36 L223.034 -36 L223.124 -36 L223.213 -36 L223.302 -36 L223.392 -36 L223.481 -36 L223.57 -36 L223.66 -36 L223.749 -36 L223.839 -36 L223.928 -36 L224.017 -36 L224.107 -36 L224.196 -36 L224.285 -36 L224.375 -36 L224.464 -36 L224.554 -36 L224.643 -36 L224.732 -36 L224.822 -36 L224.911 -36 L225 -36 L225.09 -36 L225.179 -36 L225.268 -36 L225.358 -36 L225.447 -36 L225.537 -36 L225.626 -36 L225.715 -36 L225.805 -36 L225.894 -36 L225.983 -36 L226.073 -36 L226.162 -36 L226.252 -36 L226.341 -36 L226.43 -36 L226.52 -36 L226.609 -36 L226.698 -36 L226.788 -36 L226.877 -36 L226.966 -36 L227.056 -36 L227.145 -36 L227.235 -36 L227.324 -36 L227.413 -36 L227.503 -36 L227.592 -36 L227.681 -36 L227.771 -36 L227.86 -36 L227.95 -36 L228.039 -36 L228.128 -36 L228.218 -36 L228.307 -36 L228.396 -36 L228.486 -36 L228.575 -36 L228.665 -36 L228.754 -36 L228.843 -36 L228.933 -36 L229.022 -36 L229.111 -36 L229.201 -36 L229.29 -36 L229.379 -36 L229.469 -36 L229.558 -36 L229.648 -36 L229.737 -36 L229.826 -36 L229.916 -36 L230.005 -36 L230.094 -36 L230.184 -36 L230.273 -36 L230.363 -36 L230.452 -36 L230.541 -36 L230.631 -36 L230.72 -36 L230.809 -36 L230.899 -36 L230.988 -36 L231.077 -36 L231.167 -36 L231.256 -36 L231.346 -36 L231.435 -36 L231.524 -36 L231.614 -36 L231.703 -36 L231.792 -36 L231.882 -36 L231.971 -36 L232.061 -36 L232.15 -36 L232.239 -36 L232.329 -36 L232.418 -36 L232.507 -36 L232.597 -36 L232.686 -36 L232.775 -36 L232.865 -36 L232.954 -36 L233.044 -36 L233.133 -36 L233.222 -36 L233.312 -36 L233.401 -36 L233.49 -36 L233.58 -36 L233.669 -36 L233.759 -36 L233.848 -36 L233.937 -36 L234.027 -36 L234.116 -36 L234.205 -36 L234.295 -36 L234.384 -36 L234.474 -36 L234.563 -36 L234.652 -36 L234.742 -36 L234.831 -36 L234.92 -36 L235.01 -36 L235.099 -36 L235.188 -36 L235.278 -36 L235.367 -36 L235.457 -36 L235.546 -36 L235.635 -36 L235.725 -36 L235.814 -36 L235.903 -36 L235.993 -36 L236.082 -36 L236.172 -36 L236.261 -36 L236.35 -36 L236.44 -36 L236.529 -36 L236.618 -36 L236.708 -36 L236.797 -36 L236.886 -36 L236.976 -36 L237.065 -36 L237.155 -36 L237.244 -36 L237.333 -36 L237.423 -36 L237.512 -36 L237.601 -36 L237.691 -36 L237.78 -36 L237.87 -36 L237.959 -36 L238.048 -36 L238.138 -36 L238.227 -36 L238.316 -36 L238.406 -36 L238.495 -36 L238.585 -36 L238.674 -36 L238.763 -36 L238.853 -36 L238.942 -36 L239.031 -36 L239.121 -36 L239.21 -36 L239.299 -36 L239.389 -36 L239.478 -36 L239.568 -36 L239.657 -36 L239.746 -36 L239.836 -36 L239.925 -36 L240.014 -36 L240.104 -36 L240.193 -36 L240.283 -36 L240.372 -36 L240.461 -36 L240.551 -36 L240.64 -36 L240.729 -36 L240.819 -36 L240.908 -36 L240.997 -36 L241.087 -36 L241.176 -36 L241.266 -36 L241.355 -36 L241.444 -36 L241.534 -36 L241.623 -36 L241.712 -36 L241.802 -36 L241.891 -36 L241.981 -36 L242.07 -36 L242.159 -36 L242.249 -36 L242.338 -36 L242.427 -36 L242.517 -36 L242.606 -36 L242.695 -36 L242.785 -36 L242.874 -36 L242.964 -36 L243.053 -36 L243.142 -36 L243.232 -36 L243.321 -36 L243.41 -36 L243.5 -36 L243.589 -36 L243.679 -36 L243.768 -36 L243.857 -36 L243.947 -36 L244.036 -36 L244.125 -36 L244.215 -36 L244.304 -36 L244.394 -36 L244.483 -36 L244.572 -36 L244.662 -36 L244.751 -36 L244.84 -36 L244.93 -36 L245.019 -36 L245.108 -36 L245.198 -36 L245.287 -36 L245.377 -36 L245.466 -36 L245.555 -36 L245.645 -36 L245.734 -36 L245.823 -36 L245.913 -36 L246.002 -36 L246.092 -36 L246.181 -36 L246.27 -36 L246.36 -36 L246.449 -36 L246.538 -36 L246.628 -36 L246.717 -36 L246.806 -36 L246.896 -36 L246.985 -36 L247.075 -36 L247.164 -36 L247.253 -36 L247.343 -36 L247.432 -36 L247.521 -36 L247.611 -36 L247.7 -36 L247.79 -36 L247.879 -36 L247.968 -36 L248.058 -36 L248.147 -36 L248.236 -36 L248.326 -36 L248.415 -36 L248.505 -36 L248.594 -36 L248.683 -36 L248.773 -36 L248.862 -36 L248.951 -36 L249.041 -36 L249.13 -36 L249.219 -36 L249.309 -36 L249.398 -36 L249.488 -36 L249.577 -36 L249.666 -36 L249.756 -36 L249.845 -36 L249.934 -36 L250.024 -36 L250.113 -36 L250.203 -36 L250.292 -36 L250.381 -36 L250.471 -36 L250.56 -36 L250.56 -225.72 L250.56 -225.72 L250.471 -225.776 L250.381 -225.832 L250.292 -225.887 L250.203 -225.943 L250.113 -225.998 L250.024 -226.054 L249.934 -226.109 L249.845 -226.165 L249.756 -226.22 L249.666 -226.275 L249.577 -226.33 L249.488 -226.385 L249.398 -226.44 L249.309 -226.495 L249.219 -226.55 L249.13 -226.605 L249.041 -226.66 L248.951 -226.714 L248.862 -226.769 L248.773 -226.824 L248.683 -226.878 L248.594 -226.932 L248.505 -226.987 L248.415 -227.041 L248.326 -227.095 L248.236 -227.149 L248.147 -227.203 L248.058 -227.257 L247.968 -227.311 L247.879 -227.365 L247.79 -227.419 L247.7 -227.473 L247.611 -227.526 L247.521 -227.58 L247.432 -227.633 L247.343 -227.687 L247.253 -227.74 L247.164 -227.793 L247.075 -227.847 L246.985 -227.9 L246.896 -227.953 L246.806 -228.006 L246.717 -228.059 L246.628 -228.112 L246.538 -228.165 L246.449 -228.217 L246.36 -228.27 L246.27 -228.323 L246.181 -228.375 L246.092 -228.428 L246.002 -228.48 L245.913 -228.532 L245.823 -228.584 L245.734 -228.637 L245.645 -228.689 L245.555 -228.741 L245.466 -228.793 L245.377 -228.845 L245.287 -228.896 L245.198 -228.948 L245.108 -229 L245.019 -229.051 L244.93 -229.103 L244.84 -229.154 L244.751 -229.206 L244.662 -229.257 L244.572 -229.308 L244.483 -229.36 L244.394 -229.411 L244.304 -229.462 L244.215 -229.513 L244.125 -229.564 L244.036 -229.614 L243.947 -229.665 L243.857 -229.716 L243.768 -229.766 L243.679 -229.817 L243.589 -229.867 L243.5 -229.918 L243.41 -229.968 L243.321 -230.018 L243.232 -230.068 L243.142 -230.119 L243.053 -230.169 L242.964 -230.218 L242.874 -230.268 L242.785 -230.318 L242.695 -230.368 L242.606 -230.418 L242.517 -230.467 L242.427 -230.517 L242.338 -230.566 L242.249 -230.615 L242.159 -230.665 L242.07 -230.714 L241.981 -230.763 L241.891 -230.812 L241.802 -230.861 L241.712 -230.91 L241.623 -230.959 L241.534 -231.008 L241.444 -231.056 L241.355 -231.105 L241.266 -231.154 L241.176 -231.202 L241.087 -231.25 L240.997 -231.299 L240.908 -231.347 L240.819 -231.395 L240.729 -231.443 L240.64 -231.491 L240.551 -231.539 L240.461 -231.587 L240.372 -231.635 L240.283 -231.683 L240.193 -231.73 L240.104 -231.778 L240.014 -231.825 L239.925 -231.873 L239.836 -231.92 L239.746 -231.968 L239.657 -232.015 L239.568 -232.062 L239.478 -232.109 L239.389 -232.156 L239.299 -232.203 L239.21 -232.25 L239.121 -232.296 L239.031 -232.343 L238.942 -232.39 L238.853 -232.436 L238.763 -232.483 L238.674 -232.529 L238.585 -232.575 L238.495 -232.622 L238.406 -232.668 L238.316 -232.714 L238.227 -232.76 L238.138 -232.806 L238.048 -232.852 L237.959 -232.897 L237.87 -232.943 L237.78 -232.989 L237.691 -233.034 L237.601 -233.08 L237.512 -233.125 L237.423 -233.17 L237.333 -233.216 L237.244 -233.261 L237.155 -233.306 L237.065 -233.351 L236.976 -233.396 L236.886 -233.441 L236.797 -233.485 L236.708 -233.53 L236.618 -233.575 L236.529 -233.619 L236.44 -233.664 L236.35 -233.708 L236.261 -233.752 L236.172 -233.797 L236.082 -233.841 L235.993 -233.885 L235.903 -233.929 L235.814 -233.973 L235.725 -234.016 L235.635 -234.06 L235.546 -234.104 L235.457 -234.147 L235.367 -234.191 L235.278 -234.234 L235.188 -234.278 L235.099 -234.321 L235.01 -234.364 L234.92 -234.407 L234.831 -234.45 L234.742 -234.493 L234.652 -234.536 L234.563 -234.579 L234.474 -234.622 L234.384 -234.664 L234.295 -234.707 L234.205 -234.75 L234.116 -234.792 L234.027 -234.834 L233.937 -234.877 L233.848 -234.919 L233.759 -234.961 L233.669 -235.003 L233.58 -235.045 L233.49 -235.087 L233.401 -235.128 L233.312 -235.17 L233.222 -235.212 L233.133 -235.253 L233.044 -235.295 L232.954 -235.336 L232.865 -235.377 L232.775 -235.419 L232.686 -235.46 L232.597 -235.501 L232.507 -235.542 L232.418 -235.583 L232.329 -235.623 L232.239 -235.664 L232.15 -235.705 L232.061 -235.745 L231.971 -235.786 L231.882 -235.826 L231.792 -235.867 L231.703 -235.907 L231.614 -235.947 L231.524 -235.987 L231.435 -236.027 L231.346 -236.067 L231.256 -236.107 L231.167 -236.147 L231.077 -236.186 L230.988 -236.226 L230.899 -236.265 L230.809 -236.305 L230.72 -236.344 L230.631 -236.383 L230.541 -236.423 L230.452 -236.462 L230.363 -236.501 L230.273 -236.54 L230.184 -236.579 L230.094 -236.617 L230.005 -236.656 L229.916 -236.695 L229.826 -236.733 L229.737 -236.772 L229.648 -236.81 L229.558 -236.848 L229.469 -236.886 L229.379 -236.925 L229.29 -236.963 L229.201 -237 L229.111 -237.038 L229.022 -237.076 L228.933 -237.114 L228.843 -237.151 L228.754 -237.189 L228.665 -237.226 L228.575 -237.264 L228.486 -237.301 L228.396 -237.338 L228.307 -237.375 L228.218 -237.412 L228.128 -237.449 L228.039 -237.486 L227.95 -237.523 L227.86 -237.56 L227.771 -237.596 L227.681 -237.633 L227.592 -237.669 L227.503 -237.706 L227.413 -237.742 L227.324 -237.778 L227.235 -237.814 L227.145 -237.85 L227.056 -237.886 L226.966 -237.922 L226.877 -237.958 L226.788 -237.993 L226.698 -238.029 L226.609 -238.064 L226.52 -238.1 L226.43 -238.135 L226.341 -238.17 L226.252 -238.206 L226.162 -238.241 L226.073 -238.276 L225.983 -238.311 L225.894 -238.345 L225.805 -238.38 L225.715 -238.415 L225.626 -238.449 L225.537 -238.484 L225.447 -238.518 L225.358 -238.553 L225.268 -238.587 L225.179 -238.621 L225.09 -238.655 L225 -238.689 L224.911 -238.723 L224.822 -238.757 L224.732 -238.79 L224.643 -238.824 L224.554 -238.857 L224.464 -238.891 L224.375 -238.924 L224.285 -238.957 L224.196 -238.991 L224.107 -239.024 L224.017 -239.057 L223.928 -239.09 L223.839 -239.123 L223.749 -239.155 L223.66 -239.188 L223.57 -239.221 L223.481 -239.253 L223.392 -239.285 L223.302 -239.318 L223.213 -239.35 L223.124 -239.382 L223.034 -239.414 L222.945 -239.446 L222.855 -239.478 L222.766 -239.51 L222.677 -239.541 L222.587 -239.573 L222.498 -239.605 L222.409 -239.636 L222.319 -239.667 L222.23 -239.699 L222.141 -239.73 L222.051 -239.761 L221.962 -239.792 L221.872 -239.823 L221.783 -239.854 L221.694 -239.884 L221.604 -239.915 L221.515 -239.945 L221.426 -239.976 L221.336 -240.006 L221.247 -240.037 L221.157 -240.067 L221.068 -240.097 L220.979 -240.127 L220.889 -240.157 L220.8 -240.187 L220.711 -240.216 L220.621 -240.246 L220.532 -240.276 L220.443 -240.305 L220.353 -240.334 L220.264 -240.364 L220.174 -240.393 L220.085 -240.422 L219.996 -240.451 L219.906 -240.48 L219.817 -240.509 L219.728 -240.538 L219.638 -240.566 L219.549 -240.595 L219.459 -240.623 L219.37 -240.652 L219.281 -240.68 L219.191 -240.708 L219.102 -240.736 L219.013 -240.764 L218.923 -240.792 L218.834 -240.82 L218.745 -240.848 L218.655 -240.876 L218.566 -240.903 L218.476 -240.931 L218.387 -240.958 L218.298 -240.985 L218.208 -241.013 L218.119 -241.04 L218.03 -241.067 L217.94 -241.094 L217.851 -241.121 L217.761 -241.147 L217.672 -241.174 L217.583 -241.201 L217.493 -241.227 L217.404 -241.253 L217.315 -241.28 L217.225 -241.306 L217.136 -241.332 L217.046 -241.358 L216.957 -241.384 L216.868 -241.41 L216.778 -241.436 L216.689 -241.461 L216.6 -241.487 L216.51 -241.512 L216.421 -241.538 L216.332 -241.563 L216.242 -241.588 L216.153 -241.613 L216.063 -241.638 L215.974 -241.663 L215.885 -241.688 L215.795 -241.713 L215.706 -241.737 L215.617 -241.762 L215.527 -241.786 L215.438 -241.811 L215.348 -241.835 L215.259 -241.859 L215.17 -241.883 L215.08 -241.907 L214.991 -241.931 L214.902 -241.955 L214.812 -241.978 L214.723 -242.002 L214.634 -242.026 L214.544 -242.049 L214.455 -242.072 L214.365 -242.095 L214.276 -242.119 L214.187 -242.142 L214.097 -242.165 L214.008 -242.187 L213.919 -242.21 L213.829 -242.233 L213.74 -242.255 L213.65 -242.278 L213.561 -242.3 L213.472 -242.322 L213.382 -242.345 L213.293 -242.367 L213.204 -242.389 L213.114 -242.411 L213.025 -242.432 L212.935 -242.454 L212.846 -242.476 L212.757 -242.497 L212.667 -242.519 L212.578 -242.54 L212.489 -242.561 L212.399 -242.582 L212.31 -242.603 L212.221 -242.624 L212.131 -242.645 L212.042 -242.666 L211.952 -242.687 L211.863 -242.707 L211.774 -242.728 L211.684 -242.748 L211.595 -242.768 L211.506 -242.788 L211.416 -242.808 L211.327 -242.828 L211.237 -242.848 L211.148 -242.868 L211.059 -242.888 L210.969 -242.907 L210.88 -242.927 L210.791 -242.946 L210.701 -242.966 L210.612 -242.985 L210.523 -243.004 L210.433 -243.023 L210.344 -243.042 L210.254 -243.061 L210.165 -243.079 L210.076 -243.098 L209.986 -243.117 L209.897 -243.135 L209.808 -243.153 L209.718 -243.171 L209.629 -243.19 L209.539 -243.208 L209.45 -243.226 L209.361 -243.243 L209.271 -243.261 L209.182 -243.279 L209.093 -243.296 L209.003 -243.314 L208.914 -243.331 L208.825 -243.348 L208.735 -243.366 L208.646 -243.383 L208.556 -243.4 L208.467 -243.416 L208.378 -243.433 L208.288 -243.45 L208.199 -243.466 L208.11 -243.483 L208.02 -243.499 L207.931 -243.515 L207.841 -243.532 L207.752 -243.548 L207.663 -243.564 L207.573 -243.58 L207.484 -243.595 L207.395 -243.611 L207.305 -243.627 L207.216 -243.642 L207.126 -243.657 L207.037 -243.673 L206.948 -243.688 L206.858 -243.703 L206.769 -243.718 L206.68 -243.733 L206.59 -243.747 L206.501 -243.762 L206.412 -243.777 L206.322 -243.791 L206.233 -243.806 L206.143 -243.82 L206.054 -243.834 L205.965 -243.848 L205.875 -243.862 L205.786 -243.876 L205.697 -243.89 L205.607 -243.903 L205.518 -243.917 L205.428 -243.93 L205.339 -243.944 L205.25 -243.957 L205.16 -243.97 L205.071 -243.983 L204.982 -243.996 L204.892 -244.009 L204.803 -244.022 L204.714 -244.034 L204.624 -244.047 L204.535 -244.059 L204.445 -244.072 L204.356 -244.084 L204.267 -244.096 L204.177 -244.108 L204.088 -244.12 L203.999 -244.132 L203.909 -244.144 L203.82 -244.155 L203.73 -244.167 L203.641 -244.178 L203.552 -244.189 L203.462 -244.201 L203.373 -244.212 L203.284 -244.223 L203.194 -244.234 L203.105 -244.245 L203.015 -244.255 L202.926 -244.266 L202.837 -244.276 L202.747 -244.287 L202.658 -244.297 L202.569 -244.307 L202.479 -244.317 L202.39 -244.327 L202.301 -244.337 L202.211 -244.347 L202.122 -244.357 L202.032 -244.366 L201.943 -244.376 L201.854 -244.385 L201.764 -244.394 L201.675 -244.404 L201.586 -244.413 L201.496 -244.422 L201.407 -244.43 L201.317 -244.439 L201.228 -244.448 L201.139 -244.456 L201.049 -244.465 L200.96 -244.473 L200.871 -244.481 L200.781 -244.489 L200.692 -244.497 L200.603 -244.505 L200.513 -244.513 L200.424 -244.521 L200.334 -244.528 L200.245 -244.536 L200.156 -244.543 L200.066 -244.551 L199.977 -244.558 L199.888 -244.565 L199.798 -244.572 L199.709 -244.579 L199.619 -244.585 L199.53 -244.592 L199.441 -244.599 L199.351 -244.605 L199.262 -244.611 L199.173 -244.618 L199.083 -244.624 L198.994 -244.63 L198.905 -244.636 L198.815 -244.641 L198.726 -244.647 L198.636 -244.653 L198.547 -244.658 L198.458 -244.664 L198.368 -244.669 L198.279 -244.674 L198.19 -244.679 L198.1 -244.684 L198.011 -244.689 L197.921 -244.694 L197.832 -244.698 L197.743 -244.703 L197.653 -244.707 L197.564 -244.712 L197.475 -244.716 L197.385 -244.72 L197.296 -244.724 L197.206 -244.728 L197.117 -244.732 L197.028 -244.735 L196.938 -244.739 L196.849 -244.742 L196.76 -244.746 L196.67 -244.749 L196.581 -244.752 L196.492 -244.755 L196.402 -244.758 L196.313 -244.761 L196.223 -244.763 L196.134 -244.766 L196.045 -244.768 L195.955 -244.771 L195.866 -244.773 L195.777 -244.775 L195.687 -244.777 L195.598 -244.779 L195.508 -244.781 L195.419 -244.783 L195.33 -244.784 L195.24 -244.786 L195.151 -244.787 L195.062 -244.789 L194.972 -244.79 L194.883 -244.791 L194.794 -244.792 L194.704 -244.793 L194.615 -244.794 L194.525 -244.794 L194.436 -244.795 L194.347 -244.795 L194.257 -244.795 L194.168 -244.796 L194.079 -244.796 L193.989 -244.796 L193.9 -244.796 L193.81 -244.795 L193.721 -244.795 L193.632 -244.795 L193.542 -244.794 L193.453 -244.793 L193.364 -244.793 L193.274 -244.792 L193.185 -244.791 L193.095 -244.79 L193.006 -244.788 L192.917 -244.787 L192.827 -244.786 L192.738 -244.784 L192.649 -244.782 L192.559 -244.781 L192.47 -244.779 L192.381 -244.777 L192.291 -244.775 L192.202 -244.772 L192.112 -244.77 L192.023 -244.768 L191.934 -244.765 L191.844 -244.762 L191.755 -244.76 L191.666 -244.757 L191.576 -244.754 L191.487 -244.751 L191.397 -244.747 L191.308 -244.744 L191.219 -244.741 L191.129 -244.737 L191.04 -244.733 L190.951 -244.73 L190.861 -244.726 L190.772 -244.722 L190.683 -244.718 L190.593 -244.713 L190.504 -244.709 L190.414 -244.705 L190.325 -244.7 L190.236 -244.695 L190.146 -244.69 L190.057 -244.686 L189.968 -244.681 L189.878 -244.675 L189.789 -244.67 L189.699 -244.665 L189.61 -244.659 L189.521 -244.654 L189.431 -244.648 L189.342 -244.642 L189.253 -244.636 L189.163 -244.63 L189.074 -244.624 L188.985 -244.618 L188.895 -244.612 L188.806 -244.605 L188.716 -244.599 L188.627 -244.592 L188.538 -244.585 L188.448 -244.578 L188.359 -244.571 L188.27 -244.564 L188.18 -244.557 L188.091 -244.549 L188.001 -244.542 L187.912 -244.534 L187.823 -244.526 L187.733 -244.518 L187.644 -244.51 L187.555 -244.502 L187.465 -244.494 L187.376 -244.486 L187.286 -244.477 L187.197 -244.469 L187.108 -244.46 L187.018 -244.452 L186.929 -244.443 L186.84 -244.434 L186.75 -244.425 L186.661 -244.415 L186.572 -244.406 L186.482 -244.397 L186.393 -244.387 L186.303 -244.377 L186.214 -244.367 L186.125 -244.358 L186.035 -244.347 L185.946 -244.337 L185.857 -244.327 L185.767 -244.317 L185.678 -244.306 L185.588 -244.296 L185.499 -244.285 L185.41 -244.274 L185.32 -244.263 L185.231 -244.252 L185.142 -244.241 L185.052 -244.229 L184.963 -244.218 L184.874 -244.207 L184.784 -244.195 L184.695 -244.183 L184.605 -244.171 L184.516 -244.159 L184.427 -244.147 L184.337 -244.135 L184.248 -244.122 L184.159 -244.11 L184.069 -244.097 L183.98 -244.085 L183.89 -244.072 L183.801 -244.059 L183.712 -244.046 L183.622 -244.033 L183.533 -244.019 L183.444 -244.006 L183.354 -243.992 L183.265 -243.979 L183.175 -243.965 L183.086 -243.951 L182.997 -243.937 L182.907 -243.923 L182.818 -243.909 L182.729 -243.894 L182.639 -243.88 L182.55 -243.865 L182.461 -243.851 L182.371 -243.836 L182.282 -243.821 L182.192 -243.806 L182.103 -243.791 L182.014 -243.775 L181.924 -243.76 L181.835 -243.744 L181.746 -243.729 L181.656 -243.713 L181.567 -243.697 L181.477 -243.681 L181.388 -243.665 L181.299 -243.649 L181.209 -243.632 L181.12 -243.616 L181.031 -243.599 L180.941 -243.582 L180.852 -243.566 L180.763 -243.549 L180.673 -243.532 L180.584 -243.514 L180.494 -243.497 L180.405 -243.48 L180.316 -243.462 L180.226 -243.444 L180.137 -243.427 L180.048 -243.409 L179.958 -243.391 L179.869 -243.372 L179.779 -243.354 L179.69 -243.336 L179.601 -243.317 L179.511 -243.299 L179.422 -243.28 L179.333 -243.261 L179.243 -243.242 L179.154 -243.223 L179.065 -243.203 L178.975 -243.184 L178.886 -243.165 L178.796 -243.145 L178.707 -243.125 L178.618 -243.105 L178.528 -243.085 L178.439 -243.065 L178.35 -243.045 L178.26 -243.025 L178.171 -243.004 L178.081 -242.984 L177.992 -242.963 L177.903 -242.942 L177.813 -242.921 L177.724 -242.9 L177.635 -242.879 L177.545 -242.858 L177.456 -242.836 L177.366 -242.815 L177.277 -242.793 L177.188 -242.771 L177.098 -242.749 L177.009 -242.727 L176.92 -242.705 L176.83 -242.683 L176.741 -242.66 L176.652 -242.638 L176.562 -242.615 L176.473 -242.592 L176.383 -242.569 L176.294 -242.546 L176.205 -242.523 L176.115 -242.5 L176.026 -242.477 L175.937 -242.453 L175.847 -242.429 L175.758 -242.406 L175.668 -242.382 L175.579 -242.358 L175.49 -242.334 L175.4 -242.309 L175.311 -242.285 L175.222 -242.261 L175.132 -242.236 L175.043 -242.211 L174.954 -242.186 L174.864 -242.161 L174.775 -242.136 L174.685 -242.111 L174.596 -242.085 L174.507 -242.06 L174.417 -242.034 L174.328 -242.009 L174.239 -241.983 L174.149 -241.957 L174.06 -241.931 L173.97 -241.904 L173.881 -241.878 L173.792 -241.852 L173.702 -241.825 L173.613 -241.798 L173.524 -241.771 L173.434 -241.744 L173.345 -241.717 L173.255 -241.69 L173.166 -241.663 L173.077 -241.635 L172.987 -241.607 L172.898 -241.58 L172.809 -241.552 L172.719 -241.524 L172.63 -241.496 L172.541 -241.467 L172.451 -241.439 L172.362 -241.411 L172.272 -241.382 L172.183 -241.353 L172.094 -241.324 L172.004 -241.295 L171.915 -241.266 L171.826 -241.237 L171.736 -241.208 L171.647 -241.178 L171.557 -241.148 L171.468 -241.119 L171.379 -241.089 L171.289 -241.059 L171.2 -241.029 L171.111 -240.998 L171.021 -240.968 L170.932 -240.937 L170.843 -240.907 L170.753 -240.876 L170.664 -240.845 L170.574 -240.814 L170.485 -240.783 L170.396 -240.752 L170.306 -240.72 L170.217 -240.689 L170.128 -240.657 L170.038 -240.625 L169.949 -240.593 L169.859 -240.561 L169.77 -240.529 L169.681 -240.497 L169.591 -240.464 L169.502 -240.432 L169.413 -240.399 L169.323 -240.366 L169.234 -240.333 L169.145 -240.3 L169.055 -240.267 L168.966 -240.234 L168.876 -240.2 L168.787 -240.167 L168.698 -240.133 L168.608 -240.099 L168.519 -240.065 L168.43 -240.031 L168.34 -239.997 L168.251 -239.963 L168.161 -239.928 L168.072 -239.893 L167.983 -239.859 L167.893 -239.824 L167.804 -239.789 L167.715 -239.754 L167.625 -239.718 L167.536 -239.683 L167.446 -239.647 L167.357 -239.612 L167.268 -239.576 L167.178 -239.54 L167.089 -239.504 L167 -239.468 L166.91 -239.432 L166.821 -239.395 L166.732 -239.359 L166.642 -239.322 L166.553 -239.285 L166.463 -239.248 L166.374 -239.211 L166.285 -239.174 L166.195 -239.137 L166.106 -239.099 L166.017 -239.061 L165.927 -239.024 L165.838 -238.986 L165.748 -238.948 L165.659 -238.91 L165.57 -238.872 L165.48 -238.833 L165.391 -238.795 L165.302 -238.756 L165.212 -238.717 L165.123 -238.678 L165.034 -238.639 L164.944 -238.6 L164.855 -238.561 L164.765 -238.521 L164.676 -238.482 L164.587 -238.442 L164.497 -238.402 L164.408 -238.362 L164.319 -238.322 L164.229 -238.282 L164.14 -238.242 L164.05 -238.201 L163.961 -238.16 L163.872 -238.12 L163.782 -238.079 L163.693 -238.038 L163.604 -237.997 L163.514 -237.955 L163.425 -237.914 L163.335 -237.872 L163.246 -237.831 L163.157 -237.789 L163.067 -237.747 L162.978 -237.705 L162.889 -237.663 L162.799 -237.62 L162.71 -237.578 L162.621 -237.535 L162.531 -237.492 L162.442 -237.45 L162.352 -237.407 L162.263 -237.363 L162.174 -237.32 L162.084 -237.277 L161.995 -237.233 L161.906 -237.19 L161.816 -237.146 L161.727 -237.102 L161.637 -237.058 L161.548 -237.013 L161.459 -236.969 L161.369 -236.925 L161.28 -236.88 z " id="m16688a0264"/>
    </defs>
    <g clip-path="url(#pd17d8af51d)">
     <use style="fill:#ffdc52;fill-opacity:0.4;" x="0.0" xlink:href="#m16688a0264" y="288.0"/>
    </g>
   </g>
   <g id="patch_3">
    <path d=" M72 252 L72 28.8" style="fill:none;"/>
   </g>
   <g id="patch_4">
    <path d=" M518.4 252 L518.4 28.8" style="fill:none;"/>
   </g>
   <g id="patch_5">
    <path d=" M72 252 L518.4 252" style="fill:none;"/>
   </g>
   <g id="patch_6">
    <path d=" M72 28.8 L518.4 28.8" style="fill:none;"/>
   </g>
   <g id="text_3">
    <!-- $F(a)$ -->
    <defs>
     <path d=" M67.9062 66.2031 L66.9062 58.7969 L30.7031 58.7969 L25.7031 38.5938 L55.2969 38.5938 L53.4062 31.0938 L23.7969 31.0938 L16.0938 0 L7.40625 0 L23.9062 66.2031 z " id="STIXGeneral-Italic-1d60d"/>
     <path d=" M16.9062 30.2031 L12.7969 33.2969 Q15.7969 40.0938 21.3438 43.1875 Q26.9062 46.2969 33.4062 46.2969 Q39.7031 46.2969 43.2031 43.6406 Q46.7031 41 46.7031 36.2031 Q46.7031 34.7969 46.2031 32.5938 L39.9062 7.59375 Q39.0938 4.70312 39.0938 0 L30.5938 0 L31.0938 4.40625 Q23.9062 -1 14.9062 -1 Q10.5 -1 8 0.953125 Q5.5 2.90625 5.5 6.59375 Q5.5 23.4062 37.5 29.4062 L38.2969 32.7031 Q38.5 33.7031 38.5 34.2031 Q38.5 36.5 36.5469 37.8438 Q34.5938 39.2031 31.4062 39.2031 Q23.7969 39.2031 18.4062 30.2031 z  M33.4062 13.2031 L35.7031 22.2031 Q13.9062 18.7031 13.9062 9.59375 Q13.9062 6.09375 18.7031 6.09375 Q25.5 6.09375 33.4062 13.2031" id="STIXGeneral-Italic-1d622"/>
     <path d=" M2.90625 66 L4.09375 67.5938 Q15.5 60.7969 22 49.1875 Q28.5 37.5938 28.5 24.7031 Q28.5 -2.59375 3.79688 -17.7031 L2.90625 -16.0938 Q13.2031 -7.59375 16.5469 0.84375 Q19.9062 9.29688 19.9062 24.4062 Q19.9062 39.5938 16.5469 48.75 Q13.2031 57.9062 2.90625 66" id="STIXGeneral-Regular-29"/>
     <path d=" M30.4062 -16.0938 L29.2031 -17.7031 Q17.5938 -11.0938 11.1875 0.5 Q4.79688 12.0938 4.79688 25.2031 Q4.79688 52.9062 29.5 67.5938 L30.4062 66 Q20.2031 57.2969 16.7969 48.8438 Q13.4062 40.4062 13.4062 25.5 Q13.4062 10.7031 16.9062 1.5 Q20.4062 -7.70312 30.4062 -16.0938" id="STIXGeneral-Regular-28"/>
    </defs>
    <g style="fill:#262626;" transform="translate(196.992 222.984)scale(0.12 -0.12)">
     <use transform="translate(0.0 0.40625)" xlink:href="#STIXGeneral-Italic-1d60d"/>
     <use transform="translate(53.49998474121094 0.40625)" xlink:href="#STIXGeneral-Regular-28"/>
     <use transform="translate(86.79997253417969 0.40625)" xlink:href="#STIXGeneral-Italic-1d622"/>
     <use transform="translate(131.59996032714844 0.40625)" xlink:href="#STIXGeneral-Regular-29"/>
    </g>
   </g>
   <g id="text_4">
    <!-- $F(b)$ -->
    <defs>
     <path d=" M31.0938 67.9062 L24.5 41.4062 Q31.2031 46.2969 38.5 46.2969 Q45.5 46.2969 49.5 42.25 Q53.5 38.2031 53.5 31.2969 Q53.5 18.2031 44 8.59375 Q34.5 -1 22.5 -1 Q12.2031 -1 7.40625 4.70312 L22.7031 66 L30.2969 68.4062 z  M21.7031 30.2031 L16.5 9.40625 Q19.5938 6.09375 24.7969 6.09375 Q32 6.09375 38.5938 12.3906 Q45.2031 18.7031 45.2031 28.7969 Q45.2031 33.5938 42.6406 36.3906 Q40.0938 39.2031 35.2031 39.2031 Q31.5938 39.2031 27.9375 36.8438 Q24.2969 34.5 21.7031 30.2031" id="STIXGeneral-Italic-1d623"/>
    </defs>
    <g style="fill:#262626;" transform="translate(241.632 187.272)scale(0.12 -0.12)">
     <use transform="translate(0.0 0.59375)" xlink:href="#STIXGeneral-Italic-1d60d"/>
     <use transform="translate(53.49998474121094 0.59375)" xlink:href="#STIXGeneral-Regular-28"/>
     <use transform="translate(86.79997253417969 0.59375)" xlink:href="#STIXGeneral-Italic-1d623"/>
     <use transform="translate(136.39996337890625 0.59375)" xlink:href="#STIXGeneral-Regular-29"/>
    </g>
   </g>
   <g id="text_5">
    <!-- $F(b) - F(a)$ -->
    <defs>
     <path d=" M62.0938 22 L6.40625 22 L6.40625 28.5938 L62.0938 28.5938 z " id="STIXGeneral-Regular-2212"/>
    </defs>
    <g style="fill:#262626;" transform="translate(272.88 289.944)scale(0.12 -0.12)">
     <use transform="translate(0.0 0.59375)" xlink:href="#STIXGeneral-Italic-1d60d"/>
     <use transform="translate(53.49998474121094 0.59375)" xlink:href="#STIXGeneral-Regular-28"/>
     <use transform="translate(86.79997253417969 0.59375)" xlink:href="#STIXGeneral-Italic-1d623"/>
     <use transform="translate(136.39996337890625 0.59375)" xlink:href="#STIXGeneral-Regular-29"/>
     <use transform="translate(169.699951171875 0.59375)" xlink:href="#STIXGeneral-Regular-2212"/>
     <use transform="translate(238.19993591308594 0.59375)" xlink:href="#STIXGeneral-Italic-1d60d"/>
     <use transform="translate(291.6999206542969 0.59375)" xlink:href="#STIXGeneral-Regular-28"/>
     <use transform="translate(324.9999084472656 0.59375)" xlink:href="#STIXGeneral-Italic-1d622"/>
     <use transform="translate(369.7998962402344 0.59375)" xlink:href="#STIXGeneral-Regular-29"/>
    </g>
   </g>
   <g id="text_6">
    <!-- $F(b)-F(a)$ -->
    <g style="fill:#262626;" transform="translate(260.5368 23.8)scale(0.17160000000000003 -0.17160000000000003)">
     <use transform="translate(0.0 0.59375)" xlink:href="#STIXGeneral-Italic-1d60d"/>
     <use transform="translate(53.49998474121094 0.59375)" xlink:href="#STIXGeneral-Regular-28"/>
     <use transform="translate(86.79997253417969 0.59375)" xlink:href="#STIXGeneral-Italic-1d623"/>
     <use transform="translate(136.39996337890625 0.59375)" xlink:href="#STIXGeneral-Regular-29"/>
     <use transform="translate(169.699951171875 0.59375)" xlink:href="#STIXGeneral-Regular-2212"/>
     <use transform="translate(238.19993591308594 0.59375)" xlink:href="#STIXGeneral-Italic-1d60d"/>
     <use transform="translate(291.6999206542969 0.59375)" xlink:href="#STIXGeneral-Regular-28"/>
     <use transform="translate(324.9999084472656 0.59375)" xlink:href="#STIXGeneral-Italic-1d622"/>
     <use transform="translate(369.7998962402344 0.59375)" xlink:href="#STIXGeneral-Regular-29"/>
    </g>
   </g>
   <g id="line2d_38">
    <path clip-path="url(#pd17d8af51d)" d=" M72 173.88 L76.9153 162.509 L81.8306 151.735 L86.2991 142.45 L90.7676 133.642 L95.236 125.301 L99.7045 117.42 L104.173 109.99 L108.641 103.003 L113.11 96.4501 L117.578 90.3233 L121.6 85.1664 L125.622 80.3417 L129.643 75.8429 L133.665 71.664 L137.686 67.7989 L141.708 64.2414 L145.73 60.9854 L149.751 58.0249 L153.773 55.3536 L157.795 52.9654 L161.816 50.8543 L165.838 49.0141 L169.859 47.4387 L173.881 46.122 L177.903 45.0578 L181.924 44.2401 L185.946 43.6626 L189.968 43.3194 L193.989 43.2043 L198.011 43.3111 L202.032 43.6337 L206.054 44.1661 L210.523 44.9961 L214.991 46.0691 L219.459 47.3766 L223.928 48.9103 L228.843 50.8486 L233.759 53.0392 L238.674 55.4709 L244.036 58.3856 L249.398 61.5596 L255.207 65.2736 L261.016 69.2564 L267.272 73.825 L273.975 79.0157 L280.677 84.4849 L288.274 90.9842 L296.317 98.17 L305.254 106.463 L315.532 116.317 L328.49 129.073 L368.259 168.46 L378.537 178.188 L387.474 186.339 L395.517 193.37 L402.667 199.338 L409.369 204.658 L415.625 209.359 L421.881 213.782 L427.69 217.618 L433.052 220.912 L438.414 223.954 L443.777 226.729 L448.692 229.026 L453.607 231.076 L458.076 232.715 L462.544 234.132 L467.013 235.319 L471.481 236.266 L475.95 236.967 L479.971 237.379 L483.993 237.577 L488.014 237.557 L492.036 237.31 L496.058 236.833 L500.079 236.117 L504.101 235.158 L508.123 233.948 L512.144 232.483 L516.166 230.755 L518.4 229.68 L518.4 229.68" style="fill:none;stroke:#386df9;stroke-linecap:round;stroke-width:2.275;"/>
   </g>
   <g id="legend_1">
    <g id="line2d_39">
     <path d=" M441.323 46.675 L469.923 46.675" style="fill:none;stroke:#386df9;stroke-linecap:round;stroke-width:2.275;"/>
    </g>
    <g id="line2d_40"/>
    <g id="text_7">
     <!-- $f(x)$ -->
     <defs>
      <path d=" M54.4062 45.2969 L34.4062 23.5938 L45.2031 0 L35.7969 0 L27.9062 17.5 L12.4062 0 L3 0 L25 23.9062 L15.4062 45.2969 L24.7969 45.2969 L31.5938 30.2031 L45 45.2969 z " id="STIXGeneral-Italic-1d639"/>
      <path d=" M52.5938 63.2969 L48.7969 57.4062 L47.0938 57.2969 Q44.7031 59.5 43.3438 60.3438 Q42 61.2031 40.0938 61.2031 Q37 61.2031 34.4531 58.7031 Q31.9062 56.2031 30.5938 50.9062 L29.2031 45.2969 L40.5938 45.2969 L38.9062 38.2031 L27.5 38.2031 L18 0 L10.0938 0 L19.5938 38.2031 L11.5 38.2031 L13.2031 45.2969 L21.2969 45.2969 L22.4062 49.4062 Q25.2031 59.5 30.7969 64.2969 Q35.7969 68.2969 41.2031 68.2969 Q48 68.2969 52.5938 63.2969" id="STIXGeneral-Italic-1d627"/>
     </defs>
     <g style="fill:#262626;" transform="translate(481.363 51.68)scale(0.14300000000000002 -0.14300000000000002)">
      <use transform="translate(0.0 0.703125)" xlink:href="#STIXGeneral-Italic-1d627"/>
      <use transform="translate(33.59999084472656 0.703125)" xlink:href="#STIXGeneral-Regular-28"/>
      <use transform="translate(66.89997863769531 0.703125)" xlink:href="#STIXGeneral-Italic-1d639"/>
      <use transform="translate(115.0999755859375 0.703125)" xlink:href="#STIXGeneral-Regular-29"/>
     </g>
    </g>
    <g id="patch_7">
     <path d=" M441.323 71.414 L469.923 71.414 L469.923 61.404 L441.323 61.404 z " style="fill:#ffdc52;stroke:#ffdc52;stroke-linejoin:miter;stroke-width:0.39;"/>
    </g>
    <g id="text_8">
     <!-- $F(x)$ -->
     <g style="fill:#262626;" transform="translate(481.363 71.414)scale(0.14300000000000002 -0.14300000000000002)">
      <use transform="translate(0.0 0.40625)" xlink:href="#STIXGeneral-Italic-1d60d"/>
      <use transform="translate(53.49998474121094 0.40625)" xlink:href="#STIXGeneral-Regular-28"/>
      <use transform="translate(86.79997253417969 0.40625)" xlink:href="#STIXGeneral-Italic-1d639"/>
      <use transform="translate(134.99996948242188 0.40625)" xlink:href="#STIXGeneral-Regular-29"/>
     </g>
    </g>
   </g>
   <g id="patch_8">
    <path d=" M250.56 250.002 L250.56 225.216 L161.28 225.216 L161.28 250.002" style="fill:none;stroke:#000000;stroke-linecap:round;stroke-width:0.39;"/>
   </g>
   <g id="patch_9">
    <path d=" M339.84 249.997 L339.84 189.504 L161.28 189.504 L161.28 249.997" style="fill:none;stroke:#000000;stroke-linecap:round;stroke-width:0.39;"/>
   </g>
   <g id="patch_10">
    <path d=" M250.56 253.998 L250.56 278.784 L339.84 278.784 L339.84 253.998" style="fill:none;stroke:#000000;stroke-linecap:round;stroke-width:0.39;"/>
   </g>
  </g>
 </g>
 </svg>
