<?xml version="1.0" encoding="utf-8"?>
<!-- Generator: Adobe Illustrator 16.0.0, SVG Export Plug-In . SVG Version: 6.00 Build 0)  -->
<!DOCTYPE svg PUBLIC "-//W3C//DTD SVG 1.1 Tiny//EN" "http://www.w3.org/Graphics/SVG/1.1/DTD/svg11-tiny.dtd">
<svg version="1.1" baseProfile="tiny" id="Layer_1" xmlns="http://www.w3.org/2000/svg" xmlns:xlink="http://www.w3.org/1999/xlink"
	 x="0px" y="0px" width="456.091px" height="212.609px" viewBox="0 0 456.091 212.609" overflow="auto" xml:space="preserve">
<g>
	<path fill="none" stroke="#FF4848" stroke-linejoin="round" d="M340.526,102.101c0,0-18.584,9.292-19.926,18.918"/>
	<g>
		<polygon fill="#FF4848" points="317.488,116.92 318.352,116.414 320.843,120.668 324.905,117.873 325.472,118.699 
			320.523,122.102 		"/>
	</g>
</g>
<g>
	<path fill="none" stroke="#FF4848" stroke-linejoin="round" d="M340.526,102.101c0,0,18.583,9.292,19.925,18.918"/>
	<g>
		<polygon fill="#FF4848" points="355.579,118.699 356.146,117.873 360.207,120.669 362.699,116.414 363.562,116.92 
			360.526,122.102 		"/>
	</g>
</g>
<rect x="70.505" y="192.107" fill="#FFFFFF" stroke="#222222" stroke-linejoin="round" stroke-miterlimit="10" width="80.006" height="20.002"/>
<rect x="40.503" y="42.096" fill="#FFFFFF" stroke="#222222" stroke-linejoin="round" stroke-miterlimit="10" width="20.001" height="60.004"/>
<rect x="40.503" y="152.104" fill="#FFFFFF" stroke="#222222" stroke-linejoin="round" stroke-miterlimit="10" width="20.001" height="60.005"/>
<rect x="30.502" y="22.095" fill="#FFFFFF" stroke="#222222" stroke-linejoin="round" stroke-miterlimit="10" width="80.006" height="20.001"/>
<rect x="0.5" y="152.104" fill="#FFFFFF" stroke="#222222" stroke-linejoin="round" stroke-miterlimit="10" width="20.002" height="60.005"/>
<rect x="80.506" y="42.096" fill="#FFFFFF" stroke="#222222" stroke-linejoin="round" stroke-miterlimit="10" width="20.001" height="60.004"/>
<circle fill="none" stroke="#222222" stroke-linejoin="round" stroke-miterlimit="10" cx="190.514" cy="32.095" r="10.001"/>
<circle fill="none" stroke="#222222" stroke-linejoin="round" stroke-miterlimit="10" cx="170.513" cy="72.098" r="10.001"/>
<circle fill="none" stroke="#222222" stroke-linejoin="round" stroke-miterlimit="10" cx="210.516" cy="72.098" r="10.001"/>
<g>
	<path fill="none" stroke="#222222" stroke-linejoin="round" d="M190.515,42.096c0,0-18.583,9.292-19.925,18.919"/>
	<g>
		<polygon fill="#222222" points="167.477,56.916 168.34,56.409 170.832,60.664 174.894,57.869 175.46,58.694 170.512,62.098 		"/>
	</g>
</g>
<g>
	<path fill="none" stroke="#222222" stroke-linejoin="round" d="M190.515,42.096c0,0,18.583,9.292,19.925,18.919"/>
	<g>
		<polygon fill="#222222" points="205.568,58.694 206.135,57.869 210.196,60.665 212.688,56.41 213.551,56.916 210.515,62.098 		"/>
	</g>
</g>
<g>
	<rect x="210.517" y="42.096" fill="none" width="50.004" height="10.001"/>
	<path fill="#222222" d="M210.917,49.23h0.667c0.24,0.72,0.791,1.081,1.653,1.081c0.427,0,0.773-0.094,1.04-0.28
		s0.4-0.458,0.4-0.813c0-0.498-0.364-0.849-1.093-1.053l-1.107-0.307c-0.933-0.249-1.4-0.747-1.4-1.494
		c0-0.498,0.191-0.896,0.573-1.193s0.858-0.447,1.427-0.447c0.604,0,1.096,0.143,1.474,0.427c0.377,0.285,0.62,0.68,0.727,1.187
		h-0.653c-0.231-0.694-0.747-1.041-1.547-1.041c-0.391,0-0.715,0.091-0.973,0.273c-0.258,0.183-0.387,0.438-0.387,0.767
		c0,0.267,0.082,0.466,0.247,0.6s0.438,0.253,0.82,0.36l1.054,0.293c0.987,0.258,1.48,0.795,1.48,1.613
		c0,0.524-0.196,0.936-0.586,1.233c-0.392,0.298-0.894,0.447-1.507,0.447c-0.605,0-1.118-0.147-1.54-0.44
		C211.261,50.15,211.005,49.746,210.917,49.23z"/>
	<path fill="#222222" d="M221.304,44.843v5.92h-0.654v-0.947c-0.195,0.302-0.458,0.556-0.787,0.76
		c-0.329,0.204-0.693,0.307-1.093,0.307c-0.658,0-1.165-0.193-1.52-0.58c-0.356-0.387-0.534-0.9-0.534-1.54v-3.92h0.654v3.827
		c0,0.48,0.126,0.867,0.38,1.16c0.253,0.293,0.633,0.44,1.14,0.44c0.391,0,0.744-0.12,1.06-0.36c0.315-0.24,0.549-0.546,0.7-0.92
		v-4.147H221.304z"/>
	<path fill="#222222" d="M223.864,49.884v3.146h-0.667v-8.187h0.667v0.88c0.178-0.275,0.434-0.511,0.767-0.707
		c0.333-0.195,0.691-0.293,1.073-0.293c0.826,0,1.465,0.296,1.914,0.887c0.448,0.591,0.673,1.322,0.673,2.193
		c0,0.872-0.225,1.603-0.673,2.194c-0.449,0.591-1.088,0.887-1.914,0.887c-0.382,0-0.74-0.098-1.073-0.293
		C224.297,50.395,224.042,50.159,223.864,49.884z M223.864,46.51v2.586c0.409,0.783,1,1.174,1.773,1.174
		c0.614,0,1.098-0.229,1.454-0.687c0.355-0.458,0.533-1.051,0.533-1.78c0-0.729-0.178-1.322-0.533-1.78s-0.84-0.687-1.454-0.687
		C224.864,45.336,224.273,45.728,223.864,46.51z"/>
	<path fill="#222222" d="M230.425,49.884v3.146h-0.667v-8.187h0.667v0.88c0.178-0.275,0.434-0.511,0.767-0.707
		c0.333-0.195,0.69-0.293,1.073-0.293c0.826,0,1.465,0.296,1.914,0.887c0.448,0.591,0.673,1.322,0.673,2.193
		c0,0.872-0.225,1.603-0.673,2.194c-0.449,0.591-1.088,0.887-1.914,0.887c-0.383,0-0.74-0.098-1.073-0.293
		S230.603,50.159,230.425,49.884z M230.425,46.51v2.586c0.408,0.783,1,1.174,1.773,1.174c0.613,0,1.098-0.229,1.453-0.687
		c0.355-0.458,0.533-1.051,0.533-1.78c0-0.729-0.178-1.322-0.533-1.78s-0.84-0.687-1.453-0.687
		C231.425,45.336,230.833,45.728,230.425,46.51z"/>
	<path fill="#222222" d="M240.419,45.577c0.484,0.569,0.727,1.312,0.727,2.227c0,0.916-0.242,1.658-0.727,2.227
		s-1.119,0.854-1.9,0.854c-0.783,0-1.414-0.285-1.894-0.854s-0.72-1.311-0.72-2.227c0-0.915,0.24-1.658,0.72-2.227
		s1.11-0.854,1.894-0.854C239.3,44.723,239.935,45.008,240.419,45.577z M239.945,49.61c0.355-0.458,0.533-1.06,0.533-1.807
		c0-0.747-0.178-1.349-0.533-1.807c-0.356-0.458-0.831-0.687-1.427-0.687c-0.587,0-1.059,0.229-1.414,0.687
		c-0.355,0.458-0.533,1.06-0.533,1.807c0,0.747,0.178,1.349,0.533,1.807s0.827,0.687,1.414,0.687
		C239.114,50.297,239.589,50.068,239.945,49.61z"/>
	<path fill="#222222" d="M245.398,44.803v0.653c-0.169-0.071-0.351-0.106-0.546-0.106c-0.356,0-0.672,0.115-0.947,0.347
		c-0.275,0.231-0.484,0.542-0.627,0.933v4.134h-0.666v-5.92h0.666v0.947c0.143-0.311,0.355-0.567,0.641-0.767
		c0.284-0.2,0.604-0.3,0.959-0.3C245.048,44.723,245.221,44.75,245.398,44.803z"/>
	<path fill="#222222" d="M246.892,49.39v-3.974h-1v-0.573h1v-1.52h0.654v1.52h1.533v0.573h-1.533v3.907
		c0,0.64,0.284,0.96,0.854,0.96c0.283,0,0.555-0.076,0.812-0.227v0.626c-0.248,0.133-0.542,0.2-0.88,0.2
		c-0.444,0-0.796-0.127-1.054-0.38C247.021,50.25,246.892,49.879,246.892,49.39z"/>
</g>
<circle fill="none" stroke="#222222" stroke-linejoin="round" stroke-miterlimit="10" cx="210.516" cy="162.105" r="10.001"/>
<circle fill="none" stroke="#222222" stroke-linejoin="round" stroke-miterlimit="10" cx="190.514" cy="202.108" r="10.001"/>
<circle fill="none" stroke="#222222" stroke-linejoin="round" stroke-miterlimit="10" cx="230.518" cy="202.108" r="10.001"/>
<g>
	<rect x="0.501" y="2.093" fill="none" width="60.004" height="20.002"/>
	<path d="M2.101,2.72c0.089,0.089,0.133,0.196,0.133,0.32c0,0.125-0.044,0.231-0.133,0.32s-0.196,0.133-0.32,0.133
		c-0.125,0-0.231-0.044-0.32-0.133S1.327,3.165,1.327,3.04c0-0.124,0.044-0.231,0.133-0.32s0.195-0.133,0.32-0.133
		C1.905,2.587,2.012,2.631,2.101,2.72z M2.114,4.84v5.92H1.447V4.84H2.114z"/>
	<path d="M3.46,9.227h0.667c0.24,0.72,0.791,1.081,1.653,1.081c0.427,0,0.773-0.094,1.04-0.28s0.4-0.458,0.4-0.813
		c0-0.498-0.364-0.849-1.093-1.053L5.021,7.854c-0.933-0.249-1.4-0.747-1.4-1.494c0-0.498,0.191-0.896,0.573-1.193
		S5.052,4.72,5.621,4.72c0.604,0,1.096,0.143,1.474,0.427c0.377,0.285,0.62,0.68,0.727,1.187H7.167
		C6.936,5.64,6.421,5.293,5.621,5.293c-0.391,0-0.715,0.091-0.973,0.273C4.389,5.75,4.261,6.005,4.261,6.334
		c0,0.267,0.082,0.466,0.247,0.6s0.438,0.253,0.82,0.36l1.054,0.293c0.987,0.258,1.48,0.795,1.48,1.613
		c0,0.524-0.196,0.936-0.586,1.233c-0.392,0.298-0.894,0.447-1.507,0.447c-0.605,0-1.118-0.147-1.54-0.44
		C3.805,10.147,3.549,9.743,3.46,9.227z"/>
	<path d="M16.301,10.761h-0.64v-0.56c-0.142,0.169-0.364,0.32-0.667,0.454c-0.302,0.133-0.627,0.2-0.974,0.2
		c-0.622,0-1.142-0.167-1.56-0.5s-0.626-0.775-0.626-1.327c0-0.533,0.213-0.969,0.64-1.307c0.426-0.338,0.951-0.507,1.573-0.507
		c0.32,0,0.631,0.064,0.934,0.193c0.302,0.129,0.529,0.273,0.68,0.433V6.787c0-0.444-0.131-0.802-0.393-1.073
		s-0.625-0.407-1.087-0.407c-0.738,0-1.218,0.338-1.44,1.013h-0.653c0.115-0.498,0.362-0.889,0.74-1.173
		c0.378-0.284,0.829-0.427,1.354-0.427c0.658,0,1.175,0.185,1.554,0.553c0.377,0.369,0.566,0.865,0.566,1.487V10.761z M15.661,9.414
		v-0.76c-0.098-0.258-0.295-0.469-0.593-0.633s-0.625-0.247-0.98-0.247c-0.454,0-0.838,0.109-1.153,0.327
		c-0.316,0.218-0.474,0.527-0.474,0.927s0.158,0.711,0.474,0.933c0.315,0.223,0.7,0.333,1.153,0.333c0.355,0,0.682-0.082,0.98-0.247
		S15.563,9.672,15.661,9.414z"/>
	<path d="M18.128,10.761V4.84h0.667v0.947c0.196-0.302,0.46-0.556,0.793-0.76c0.333-0.204,0.7-0.307,1.1-0.307
		c0.658,0,1.165,0.193,1.52,0.58s0.534,0.9,0.534,1.54v3.92h-0.653V6.934c0-0.48-0.127-0.867-0.38-1.16
		c-0.253-0.293-0.633-0.44-1.14-0.44c-0.391,0-0.747,0.12-1.066,0.36c-0.32,0.24-0.556,0.546-0.707,0.92v4.147H18.128z"/>
	<path d="M31.542,10.761h-0.64v-0.56c-0.142,0.169-0.364,0.32-0.667,0.454c-0.302,0.133-0.627,0.2-0.974,0.2
		c-0.622,0-1.142-0.167-1.56-0.5s-0.626-0.775-0.626-1.327c0-0.533,0.213-0.969,0.64-1.307c0.426-0.338,0.951-0.507,1.573-0.507
		c0.32,0,0.631,0.064,0.934,0.193c0.302,0.129,0.529,0.273,0.68,0.433V6.787c0-0.444-0.131-0.802-0.393-1.073
		s-0.625-0.407-1.087-0.407c-0.738,0-1.218,0.338-1.44,1.013h-0.653c0.115-0.498,0.362-0.889,0.74-1.173
		c0.378-0.284,0.829-0.427,1.354-0.427c0.658,0,1.175,0.185,1.554,0.553c0.377,0.369,0.566,0.865,0.566,1.487V10.761z M30.902,9.414
		v-0.76c-0.098-0.258-0.295-0.469-0.593-0.633s-0.625-0.247-0.98-0.247c-0.454,0-0.838,0.109-1.153,0.327
		c-0.316,0.218-0.474,0.527-0.474,0.927s0.158,0.711,0.474,0.933c0.315,0.223,0.7,0.333,1.153,0.333c0.355,0,0.682-0.082,0.98-0.247
		S30.804,9.672,30.902,9.414z"/>
	<path d="M36.155,4.8v0.653c-0.169-0.071-0.351-0.106-0.546-0.106c-0.356,0-0.671,0.115-0.947,0.347
		c-0.276,0.231-0.485,0.542-0.627,0.933v4.134h-0.667V4.84h0.667v0.947c0.142-0.311,0.355-0.567,0.64-0.767
		c0.285-0.2,0.604-0.3,0.96-0.3C35.804,4.72,35.978,4.747,36.155,4.8z"/>
	<path d="M37.529,10.027c-0.48-0.569-0.72-1.311-0.72-2.227c0-0.915,0.24-1.658,0.72-2.227S38.64,4.72,39.423,4.72
		c0.613,0,1.118,0.167,1.513,0.5c0.396,0.333,0.647,0.78,0.753,1.34h-0.68c-0.089-0.391-0.271-0.696-0.546-0.914
		c-0.276-0.218-0.623-0.327-1.04-0.327c-0.578,0-1.047,0.227-1.407,0.68c-0.36,0.453-0.54,1.053-0.54,1.8
		c0,0.747,0.18,1.347,0.54,1.8c0.36,0.454,0.829,0.68,1.407,0.68c0.417,0,0.764-0.109,1.04-0.327
		c0.275-0.218,0.458-0.522,0.546-0.914h0.68c-0.106,0.56-0.358,1.007-0.753,1.34c-0.396,0.333-0.9,0.5-1.513,0.5
		C38.64,10.881,38.009,10.596,37.529,10.027z"/>
	<path d="M43.129,10.761V2.093h0.667v3.694c0.196-0.302,0.46-0.556,0.793-0.76c0.333-0.204,0.7-0.307,1.1-0.307
		c0.658,0,1.165,0.193,1.52,0.58s0.534,0.9,0.534,1.54v3.92H47.09V6.934c0-0.48-0.127-0.867-0.38-1.16
		c-0.253-0.293-0.633-0.44-1.14-0.44c-0.391,0-0.747,0.12-1.066,0.36c-0.32,0.24-0.556,0.546-0.707,0.92v4.147H43.129z"/>
</g>
<g>
	<rect x="0.501" y="132.103" fill="none" width="80.006" height="20.002"/>
	<path d="M2.101,132.73c0.089,0.089,0.133,0.195,0.133,0.319c0,0.125-0.044,0.231-0.133,0.32s-0.196,0.134-0.32,0.134
		c-0.125,0-0.231-0.045-0.32-0.134s-0.133-0.195-0.133-0.32c0-0.124,0.044-0.23,0.133-0.319s0.195-0.134,0.32-0.134
		C1.905,132.596,2.012,132.641,2.101,132.73z M2.114,134.85v5.92H1.447v-5.92H2.114z"/>
	<path d="M3.46,139.237h0.667c0.24,0.72,0.791,1.08,1.653,1.08c0.427,0,0.773-0.094,1.04-0.28s0.4-0.457,0.4-0.813
		c0-0.497-0.364-0.849-1.093-1.053l-1.107-0.307c-0.933-0.249-1.4-0.747-1.4-1.494c0-0.497,0.191-0.896,0.573-1.193
		s0.858-0.446,1.427-0.446c0.604,0,1.096,0.143,1.474,0.427c0.377,0.284,0.62,0.68,0.727,1.187H7.167
		c-0.231-0.693-0.747-1.04-1.547-1.04c-0.391,0-0.715,0.091-0.973,0.273c-0.258,0.183-0.387,0.438-0.387,0.767
		c0,0.267,0.082,0.467,0.247,0.6c0.165,0.134,0.438,0.254,0.82,0.36l1.054,0.294c0.987,0.258,1.48,0.795,1.48,1.613
		c0,0.524-0.196,0.936-0.586,1.233c-0.392,0.298-0.894,0.446-1.507,0.446c-0.605,0-1.118-0.146-1.54-0.439
		C3.805,140.157,3.549,139.752,3.46,139.237z"/>
	<path d="M12.274,140.77v-5.92h0.667v0.946c0.196-0.302,0.46-0.556,0.793-0.76c0.333-0.204,0.7-0.307,1.1-0.307
		c0.658,0,1.165,0.193,1.52,0.58s0.534,0.899,0.534,1.54v3.92h-0.653v-3.827c0-0.479-0.127-0.866-0.38-1.159
		c-0.253-0.294-0.633-0.44-1.14-0.44c-0.391,0-0.747,0.12-1.066,0.36c-0.32,0.239-0.556,0.546-0.707,0.92v4.146H12.274z"/>
	<path d="M22.802,135.583c0.484,0.568,0.727,1.312,0.727,2.227c0,0.916-0.242,1.658-0.727,2.227c-0.484,0.569-1.118,0.854-1.9,0.854
		c-0.783,0-1.414-0.284-1.894-0.854c-0.48-0.568-0.72-1.311-0.72-2.227c0-0.915,0.24-1.658,0.72-2.227
		c0.48-0.569,1.111-0.854,1.894-0.854C21.684,134.73,22.317,135.014,22.802,135.583z M22.329,139.617
		c0.355-0.458,0.533-1.06,0.533-1.807s-0.178-1.349-0.533-1.807c-0.356-0.458-0.832-0.687-1.427-0.687
		c-0.587,0-1.058,0.229-1.414,0.687c-0.356,0.458-0.534,1.06-0.534,1.807s0.178,1.349,0.534,1.807
		c0.355,0.458,0.827,0.687,1.414,0.687C21.497,140.303,21.973,140.075,22.329,139.617z"/>
	<path d="M25.262,139.397v-3.974h-1v-0.573h1v-1.521h0.653v1.521h1.534v0.573h-1.534v3.907c0,0.64,0.285,0.96,0.854,0.96
		c0.284,0,0.556-0.076,0.813-0.227v0.626c-0.249,0.134-0.542,0.2-0.88,0.2c-0.444,0-0.795-0.127-1.053-0.38
		S25.262,139.886,25.262,139.397z"/>
	<path d="M35.929,140.77h-0.64v-0.56c-0.142,0.169-0.364,0.319-0.667,0.453s-0.627,0.2-0.974,0.2c-0.622,0-1.142-0.167-1.56-0.5
		c-0.418-0.334-0.626-0.775-0.626-1.327c0-0.533,0.213-0.969,0.64-1.307c0.426-0.338,0.951-0.507,1.573-0.507
		c0.32,0,0.631,0.064,0.934,0.193c0.302,0.129,0.529,0.273,0.68,0.434v-1.054c0-0.444-0.131-0.802-0.393-1.073
		c-0.262-0.271-0.625-0.406-1.087-0.406c-0.738,0-1.218,0.338-1.44,1.013h-0.653c0.115-0.497,0.362-0.889,0.74-1.173
		s0.829-0.427,1.354-0.427c0.658,0,1.175,0.185,1.554,0.553c0.377,0.369,0.566,0.865,0.566,1.487V140.77z M35.289,139.423v-0.76
		c-0.098-0.258-0.295-0.469-0.593-0.634c-0.298-0.164-0.625-0.246-0.98-0.246c-0.454,0-0.838,0.108-1.153,0.326
		c-0.316,0.218-0.474,0.527-0.474,0.927c0,0.4,0.158,0.712,0.474,0.934c0.315,0.223,0.7,0.333,1.153,0.333
		c0.355,0,0.682-0.082,0.98-0.246C34.994,139.892,35.191,139.681,35.289,139.423z"/>
	<path d="M37.756,140.77v-5.92h0.667v0.946c0.196-0.302,0.46-0.556,0.793-0.76c0.333-0.204,0.7-0.307,1.1-0.307
		c0.658,0,1.165,0.193,1.52,0.58s0.534,0.899,0.534,1.54v3.92h-0.653v-3.827c0-0.479-0.127-0.866-0.38-1.159
		c-0.253-0.294-0.633-0.44-1.14-0.44c-0.391,0-0.747,0.12-1.066,0.36c-0.32,0.239-0.556,0.546-0.707,0.92v4.146H37.756z"/>
	<path d="M51.17,140.77h-0.64v-0.56c-0.142,0.169-0.364,0.319-0.667,0.453s-0.627,0.2-0.974,0.2c-0.622,0-1.142-0.167-1.56-0.5
		c-0.418-0.334-0.626-0.775-0.626-1.327c0-0.533,0.213-0.969,0.64-1.307c0.426-0.338,0.951-0.507,1.573-0.507
		c0.32,0,0.631,0.064,0.934,0.193c0.302,0.129,0.529,0.273,0.68,0.434v-1.054c0-0.444-0.131-0.802-0.393-1.073
		c-0.262-0.271-0.625-0.406-1.087-0.406c-0.738,0-1.218,0.338-1.44,1.013h-0.653c0.115-0.497,0.362-0.889,0.74-1.173
		s0.829-0.427,1.354-0.427c0.658,0,1.175,0.185,1.554,0.553c0.377,0.369,0.566,0.865,0.566,1.487V140.77z M50.53,139.423v-0.76
		c-0.098-0.258-0.295-0.469-0.593-0.634c-0.298-0.164-0.625-0.246-0.98-0.246c-0.454,0-0.838,0.108-1.153,0.326
		c-0.316,0.218-0.474,0.527-0.474,0.927c0,0.4,0.158,0.712,0.474,0.934c0.315,0.223,0.7,0.333,1.153,0.333
		c0.355,0,0.682-0.082,0.98-0.246C50.234,139.892,50.432,139.681,50.53,139.423z"/>
	<path d="M55.783,134.81v0.653c-0.169-0.071-0.351-0.106-0.546-0.106c-0.356,0-0.671,0.115-0.947,0.347
		c-0.276,0.23-0.485,0.542-0.627,0.933v4.134h-0.667v-5.92h0.667v0.946c0.142-0.311,0.355-0.566,0.64-0.767s0.604-0.3,0.96-0.3
		C55.432,134.73,55.605,134.756,55.783,134.81z"/>
	<path d="M57.157,140.037c-0.48-0.568-0.72-1.311-0.72-2.227c0-0.915,0.24-1.658,0.72-2.227c0.48-0.569,1.111-0.854,1.894-0.854
		c0.613,0,1.118,0.167,1.513,0.5s0.647,0.78,0.753,1.34h-0.68c-0.089-0.391-0.271-0.695-0.546-0.913
		c-0.276-0.218-0.623-0.327-1.04-0.327c-0.578,0-1.047,0.227-1.407,0.681c-0.36,0.453-0.54,1.053-0.54,1.8s0.18,1.347,0.54,1.8
		c0.36,0.454,0.829,0.681,1.407,0.681c0.417,0,0.764-0.109,1.04-0.327c0.275-0.218,0.458-0.521,0.546-0.913h0.68
		c-0.106,0.56-0.358,1.007-0.753,1.34s-0.9,0.5-1.513,0.5C58.268,140.89,57.637,140.606,57.157,140.037z"/>
	<path d="M62.757,140.77v-8.667h0.667v3.693c0.196-0.302,0.46-0.556,0.793-0.76c0.333-0.204,0.7-0.307,1.1-0.307
		c0.658,0,1.165,0.193,1.52,0.58s0.534,0.899,0.534,1.54v3.92h-0.653v-3.827c0-0.479-0.127-0.866-0.38-1.159
		c-0.253-0.294-0.633-0.44-1.14-0.44c-0.391,0-0.747,0.12-1.066,0.36c-0.32,0.239-0.556,0.546-0.707,0.92v4.146H62.757z"/>
</g>
<path fill="none" stroke="#222222" stroke-linejoin="round" stroke-miterlimit="10" d="M260.52,12.094
	c20.001,0,10.001,90.007,30.003,100.007c-20.002,10.001-10.002,100.008-30.003,100.008"/>
<circle fill="none" stroke="#222222" stroke-linejoin="round" stroke-miterlimit="10" cx="340.525" cy="92.1" r="10.001"/>
<circle fill="none" stroke="#222222" stroke-linejoin="round" stroke-miterlimit="10" cx="320.524" cy="132.103" r="10"/>
<circle fill="none" stroke="#222222" stroke-linejoin="round" stroke-miterlimit="10" cx="360.527" cy="132.103" r="10.001"/>
<g>
	<rect x="360.527" y="102.101" fill="none" width="90.007" height="10.001"/>
	<path fill="#222222" d="M365.502,105.861c0.178-0.319,0.431-0.588,0.761-0.807c0.328-0.218,0.688-0.326,1.08-0.326
		c0.577,0,1.021,0.187,1.333,0.56c0.312,0.374,0.466,0.867,0.466,1.48v4h-0.652v-3.906c0-0.472-0.107-0.843-0.32-1.114
		c-0.213-0.271-0.529-0.406-0.947-0.406c-0.355,0-0.676,0.115-0.959,0.347c-0.285,0.231-0.49,0.529-0.613,0.894v4.187h-0.668v-3.906
		c0-0.472-0.105-0.843-0.319-1.114c-0.214-0.271-0.529-0.406-0.946-0.406c-0.356,0-0.676,0.115-0.961,0.347
		c-0.284,0.231-0.488,0.529-0.613,0.894v4.187h-0.666v-5.92h0.666v0.906c0.16-0.302,0.389-0.549,0.688-0.74
		c0.297-0.19,0.637-0.286,1.02-0.286C364.675,104.728,365.227,105.106,365.502,105.861z"/>
	<path fill="#222222" d="M375.503,104.848v5.92h-0.654v-0.946c-0.195,0.302-0.457,0.556-0.786,0.76s-0.693,0.307-1.093,0.307
		c-0.658,0-1.165-0.193-1.521-0.58c-0.356-0.387-0.534-0.899-0.534-1.54v-3.92h0.654v3.827c0,0.479,0.127,0.866,0.38,1.159
		c0.253,0.294,0.634,0.44,1.14,0.44c0.392,0,0.744-0.12,1.061-0.36c0.315-0.239,0.549-0.546,0.699-0.92v-4.146H375.503z"/>
	<path fill="#222222" d="M376.849,109.235h0.668c0.239,0.72,0.791,1.08,1.652,1.08c0.428,0,0.773-0.094,1.041-0.28
		c0.266-0.187,0.399-0.457,0.399-0.813c0-0.497-0.364-0.849-1.093-1.053l-1.107-0.307c-0.934-0.249-1.4-0.747-1.4-1.494
		c0-0.497,0.191-0.896,0.574-1.193c0.382-0.298,0.857-0.446,1.426-0.446c0.605,0,1.096,0.143,1.475,0.427
		c0.377,0.284,0.619,0.68,0.727,1.187h-0.654c-0.23-0.693-0.746-1.04-1.547-1.04c-0.391,0-0.715,0.091-0.973,0.273
		s-0.387,0.438-0.387,0.767c0,0.267,0.082,0.467,0.246,0.6c0.165,0.134,0.438,0.254,0.82,0.36l1.054,0.294
		c0.987,0.258,1.479,0.795,1.479,1.613c0,0.524-0.195,0.936-0.586,1.233c-0.392,0.298-0.894,0.446-1.507,0.446
		c-0.604,0-1.118-0.146-1.54-0.439C377.194,110.155,376.938,109.75,376.849,109.235z"/>
	<path fill="#222222" d="M382.983,109.395v-3.974h-1v-0.573h1v-1.521h0.652v1.521h1.534v0.573h-1.534v3.907
		c0,0.64,0.285,0.96,0.854,0.96c0.285,0,0.557-0.076,0.814-0.227v0.626c-0.25,0.134-0.543,0.2-0.881,0.2
		c-0.444,0-0.795-0.127-1.053-0.38S382.983,109.884,382.983,109.395z"/>
	<path fill="#222222" d="M389.077,109.235h0.666c0.24,0.72,0.791,1.08,1.654,1.08c0.426,0,0.773-0.094,1.039-0.28
		c0.268-0.187,0.4-0.457,0.4-0.813c0-0.497-0.364-0.849-1.094-1.053l-1.106-0.307c-0.933-0.249-1.399-0.747-1.399-1.494
		c0-0.497,0.19-0.896,0.572-1.193c0.383-0.298,0.858-0.446,1.428-0.446c0.604,0,1.096,0.143,1.473,0.427
		c0.378,0.284,0.621,0.68,0.727,1.187h-0.652c-0.232-0.693-0.747-1.04-1.547-1.04c-0.392,0-0.716,0.091-0.974,0.273
		c-0.259,0.183-0.387,0.438-0.387,0.767c0,0.267,0.082,0.467,0.247,0.6c0.164,0.134,0.438,0.254,0.819,0.36l1.054,0.294
		c0.986,0.258,1.48,0.795,1.48,1.613c0,0.524-0.196,0.936-0.587,1.233c-0.392,0.298-0.894,0.446-1.507,0.446
		c-0.605,0-1.118-0.146-1.54-0.439C389.421,110.155,389.165,109.75,389.077,109.235z"/>
	<path fill="#222222" d="M399.464,104.848v5.92h-0.653v-0.946c-0.195,0.302-0.458,0.556-0.786,0.76
		c-0.33,0.204-0.693,0.307-1.094,0.307c-0.658,0-1.164-0.193-1.52-0.58c-0.356-0.387-0.534-0.899-0.534-1.54v-3.92h0.653v3.827
		c0,0.479,0.127,0.866,0.381,1.159c0.253,0.294,0.633,0.44,1.14,0.44c0.392,0,0.744-0.12,1.06-0.36
		c0.316-0.239,0.549-0.546,0.7-0.92v-4.146H399.464z"/>
	<path fill="#222222" d="M402.024,109.888v3.146h-0.667v-8.187h0.667v0.88c0.178-0.275,0.434-0.511,0.767-0.707
		c0.333-0.195,0.69-0.293,1.073-0.293c0.826,0,1.465,0.296,1.914,0.887c0.448,0.591,0.673,1.322,0.673,2.193
		s-0.225,1.603-0.673,2.193c-0.449,0.592-1.088,0.887-1.914,0.887c-0.383,0-0.74-0.098-1.073-0.293S402.202,110.164,402.024,109.888
		z M402.024,106.515v2.586c0.408,0.783,1,1.174,1.773,1.174c0.613,0,1.098-0.229,1.453-0.687s0.533-1.052,0.533-1.78
		s-0.178-1.322-0.533-1.78s-0.84-0.687-1.453-0.687C403.024,105.341,402.433,105.733,402.024,106.515z"/>
	<path fill="#222222" d="M408.585,109.888v3.146h-0.667v-8.187h0.667v0.88c0.178-0.275,0.434-0.511,0.767-0.707
		c0.333-0.195,0.69-0.293,1.073-0.293c0.826,0,1.465,0.296,1.914,0.887c0.448,0.591,0.673,1.322,0.673,2.193
		s-0.225,1.603-0.673,2.193c-0.449,0.592-1.088,0.887-1.914,0.887c-0.383,0-0.74-0.098-1.073-0.293S408.763,110.164,408.585,109.888
		z M408.585,106.515v2.586c0.408,0.783,1,1.174,1.773,1.174c0.613,0,1.098-0.229,1.453-0.687s0.533-1.052,0.533-1.78
		s-0.178-1.322-0.533-1.78s-0.84-0.687-1.453-0.687C409.585,105.341,408.993,105.733,408.585,106.515z"/>
	<path fill="#222222" d="M418.579,105.582c0.484,0.568,0.727,1.312,0.727,2.227c0,0.916-0.242,1.658-0.727,2.227
		c-0.485,0.569-1.118,0.854-1.9,0.854s-1.414-0.284-1.894-0.854c-0.479-0.568-0.72-1.311-0.72-2.227c0-0.915,0.24-1.658,0.72-2.227
		c0.479-0.569,1.111-0.854,1.894-0.854S418.094,105.012,418.579,105.582z M418.105,109.615c0.355-0.458,0.533-1.06,0.533-1.807
		s-0.178-1.349-0.533-1.807s-0.831-0.687-1.427-0.687c-0.587,0-1.059,0.229-1.414,0.687s-0.533,1.06-0.533,1.807
		s0.178,1.349,0.533,1.807s0.827,0.687,1.414,0.687C417.274,110.301,417.75,110.073,418.105,109.615z"/>
	<path fill="#222222" d="M423.56,104.808v0.653c-0.169-0.071-0.351-0.106-0.547-0.106c-0.355,0-0.671,0.115-0.946,0.347
		c-0.275,0.23-0.484,0.542-0.627,0.933v4.134h-0.667v-5.92h0.667v0.946c0.143-0.311,0.355-0.566,0.641-0.767
		c0.284-0.2,0.604-0.3,0.96-0.3C423.209,104.728,423.382,104.754,423.56,104.808z"/>
	<path fill="#222222" d="M425.054,109.395v-3.974h-1.001v-0.573h1.001v-1.521h0.653v1.521h1.533v0.573h-1.533v3.907
		c0,0.64,0.284,0.96,0.853,0.96c0.285,0,0.556-0.076,0.813-0.227v0.626c-0.249,0.134-0.542,0.2-0.88,0.2
		c-0.444,0-0.796-0.127-1.053-0.38C425.182,110.255,425.054,109.884,425.054,109.395z"/>
</g>
<g>
	<rect x="310.524" y="25.707" fill="none" width="80.006" height="20.001"/>
	<path fill="#AFC6F9" d="M310.95,31.493c0-1.396,0.406-2.613,1.221-3.653c0.812-1.04,1.917-1.751,3.312-2.134l-0.186,1.08
		c-0.97,0.276-1.768,0.842-2.395,1.7s-0.939,1.86-0.939,3.007c0,0.765,0.178,1.4,0.533,1.907c0.355,0.507,0.844,0.849,1.467,1.027
		l-0.2,1.067c-0.88-0.276-1.569-0.758-2.067-1.447S310.95,32.507,310.95,31.493z"/>
	<path fill="#AFC6F9" d="M315.19,34.374l1.04-5.92h1l-0.134,0.76c0.508-0.587,1.139-0.88,1.895-0.88
		c0.551,0,0.979,0.156,1.286,0.467s0.46,0.725,0.46,1.24c0,0.142-0.014,0.293-0.04,0.453l-0.68,3.88h-1.014l0.653-3.72
		c0.027-0.142,0.04-0.271,0.04-0.387c0-0.675-0.355-1.014-1.066-1.014c-0.347,0-0.681,0.107-1.001,0.32
		c-0.319,0.213-0.564,0.48-0.732,0.8l-0.707,4H315.19z"/>
	<path fill="#AFC6F9" d="M325.831,32.6h1.014c-0.178,0.569-0.5,1.027-0.967,1.374s-1.02,0.52-1.66,0.52
		c-0.756,0-1.352-0.235-1.787-0.707c-0.436-0.471-0.653-1.102-0.653-1.893c0-0.934,0.284-1.76,0.854-2.48s1.325-1.08,2.267-1.08
		c0.711,0,1.256,0.211,1.634,0.633c0.378,0.422,0.567,0.998,0.567,1.727c0,0.231-0.036,0.533-0.107,0.907h-4.2
		c-0.009,0.071-0.013,0.169-0.013,0.293c0,0.551,0.128,0.98,0.387,1.287c0.257,0.307,0.626,0.46,1.105,0.46
		c0.355,0,0.674-0.091,0.954-0.273C325.505,33.185,325.706,32.929,325.831,32.6z M324.858,29.187c-0.48,0-0.885,0.153-1.214,0.46
		s-0.569,0.705-0.72,1.193h3.187c0.009-0.062,0.013-0.146,0.013-0.253c0-0.4-0.108-0.733-0.326-1S325.267,29.187,324.858,29.187z"/>
	<path fill="#AFC6F9" d="M332.951,30.44l-0.681,3.934h-0.973l0.066-0.44c-0.383,0.365-0.898,0.546-1.547,0.546
		c-0.568,0-1.042-0.155-1.42-0.466s-0.566-0.72-0.566-1.227c0-0.604,0.248-1.098,0.746-1.48s1.09-0.573,1.773-0.573
		c0.667,0,1.16,0.169,1.48,0.506l0.146-0.773c0.018-0.142,0.027-0.249,0.027-0.32c0-0.284-0.09-0.513-0.268-0.687
		s-0.439-0.26-0.786-0.26c-0.632,0-1.099,0.271-1.4,0.813h-0.987c0.188-0.507,0.505-0.914,0.954-1.22
		c0.448-0.307,0.962-0.46,1.54-0.46c0.604,0,1.078,0.156,1.42,0.467s0.514,0.729,0.514,1.253
		C332.991,30.16,332.978,30.289,332.951,30.44z M331.538,32.907l0.119-0.613c-0.053-0.213-0.201-0.389-0.446-0.527
		c-0.245-0.138-0.531-0.207-0.86-0.207c-0.408,0-0.771,0.102-1.086,0.307c-0.316,0.205-0.474,0.493-0.474,0.867
		c0,0.276,0.122,0.496,0.366,0.66s0.535,0.247,0.873,0.247c0.33,0,0.635-0.067,0.914-0.2
		C331.225,33.307,331.422,33.129,331.538,32.907z"/>
	<path fill="#AFC6F9" d="M338.071,28.426l-0.188,1.027c-0.142-0.106-0.355-0.16-0.639-0.16c-0.32,0-0.621,0.098-0.9,0.293
		c-0.28,0.196-0.5,0.467-0.66,0.813l-0.707,3.974h-1l1.04-5.92h1l-0.134,0.773c0.17-0.258,0.402-0.471,0.701-0.64
		c0.297-0.169,0.605-0.253,0.926-0.253C337.778,28.333,337.964,28.364,338.071,28.426z"/>
	<path fill="#AFC6F9" d="M346.271,29.28c0.534-0.631,1.16-0.947,1.88-0.947c0.533,0,0.94,0.153,1.221,0.46
		c0.279,0.307,0.42,0.705,0.42,1.193c0,0.169-0.014,0.333-0.04,0.494l-0.681,3.894h-1.013l0.64-3.667
		c0.035-0.187,0.054-0.351,0.054-0.493c0-0.64-0.298-0.96-0.894-0.96c-0.623,0-1.129,0.369-1.52,1.107l-0.693,4.014h-1.014
		l0.64-3.667c0.036-0.284,0.054-0.449,0.054-0.493c0-0.64-0.299-0.96-0.894-0.96c-0.32,0-0.611,0.105-0.874,0.313
		c-0.262,0.209-0.478,0.474-0.646,0.793l-0.707,4.014h-1l1.041-5.92h1l-0.134,0.76c0.472-0.587,1.044-0.88,1.72-0.88
		c0.365,0,0.674,0.089,0.928,0.267C346.012,28.778,346.183,29.004,346.271,29.28z"/>
	<path fill="#AFC6F9" d="M352.806,28.453l-1.041,5.92h-1l1.041-5.92H352.806z M353.079,26.213c0.129,0.125,0.193,0.276,0.193,0.454
		s-0.064,0.329-0.193,0.453s-0.283,0.187-0.461,0.187s-0.328-0.062-0.453-0.187s-0.187-0.275-0.187-0.453s0.062-0.329,0.187-0.454
		s0.275-0.187,0.453-0.187S352.95,26.088,353.079,26.213z"/>
	<path fill="#AFC6F9" d="M353.352,32.72h0.987c0.053,0.311,0.199,0.544,0.439,0.7c0.24,0.156,0.543,0.233,0.906,0.233
		c0.383,0,0.696-0.078,0.941-0.233c0.244-0.155,0.366-0.393,0.366-0.713c0-0.337-0.249-0.591-0.747-0.76l-1.026-0.307
		c-0.409-0.125-0.72-0.298-0.934-0.52s-0.319-0.534-0.319-0.934c0-0.542,0.213-0.987,0.639-1.333c0.428-0.347,0.951-0.52,1.574-0.52
		c0.666,0,1.185,0.153,1.553,0.46c0.369,0.307,0.576,0.723,0.621,1.247h-0.961c-0.115-0.578-0.52-0.867-1.213-0.867
		c-0.347,0-0.639,0.082-0.873,0.247c-0.236,0.165-0.354,0.389-0.354,0.673c0,0.169,0.053,0.305,0.16,0.407
		c0.106,0.102,0.279,0.193,0.52,0.273l1.027,0.32c0.871,0.276,1.307,0.769,1.307,1.48c0,0.587-0.219,1.054-0.654,1.4
		s-0.978,0.52-1.627,0.52c-0.684,0-1.232-0.162-1.646-0.487C353.625,33.683,353.396,33.253,353.352,32.72z"/>
	<path fill="#AFC6F9" d="M358.845,32.72h0.987c0.054,0.311,0.2,0.544,0.44,0.7c0.24,0.156,0.542,0.233,0.906,0.233
		c0.383,0,0.695-0.078,0.94-0.233c0.244-0.155,0.366-0.393,0.366-0.713c0-0.337-0.248-0.591-0.746-0.76l-1.027-0.307
		c-0.408-0.125-0.72-0.298-0.934-0.52c-0.213-0.222-0.319-0.534-0.319-0.934c0-0.542,0.213-0.987,0.64-1.333s0.951-0.52,1.574-0.52
		c0.666,0,1.184,0.153,1.553,0.46s0.576,0.723,0.62,1.247h-0.96c-0.115-0.578-0.52-0.867-1.213-0.867
		c-0.348,0-0.639,0.082-0.874,0.247s-0.354,0.389-0.354,0.673c0,0.169,0.054,0.305,0.16,0.407s0.28,0.193,0.521,0.273l1.026,0.32
		c0.871,0.276,1.307,0.769,1.307,1.48c0,0.587-0.218,1.054-0.653,1.4s-0.979,0.52-1.627,0.52c-0.685,0-1.233-0.162-1.646-0.487
		C359.118,33.683,358.89,33.253,358.845,32.72z"/>
	<path fill="#AFC6F9" d="M368.339,29.707c0,1.396-0.406,2.613-1.22,3.654c-0.813,1.04-1.919,1.751-3.313,2.133l0.187-1.08
		c0.969-0.275,1.767-0.842,2.394-1.7s0.939-1.86,0.939-3.007c0-0.765-0.178-1.4-0.533-1.907s-0.844-0.849-1.467-1.027l0.2-1.067
		c0.88,0.276,1.569,0.758,2.067,1.447C368.09,27.842,368.339,28.693,368.339,29.707z"/>
</g>
<g>
	<rect x="310.524" y="6.26" fill="none" width="145.566" height="29.446"/>
	<path fill="#386DF9" d="M315.448,12.998h-2.613v4.818h-0.906V6.9h3.857c1.078,0,1.92,0.264,2.525,0.792
		c0.604,0.527,0.906,1.283,0.906,2.267c0,0.877-0.243,1.571-0.729,2.08c-0.486,0.51-1.168,0.818-2.045,0.925l3.289,4.854h-1.049
		L315.448,12.998z M312.835,7.718v4.48h2.916c0.83,0,1.467-0.196,1.911-0.587s0.667-0.942,0.667-1.653
		c0-0.723-0.223-1.277-0.667-1.662s-1.081-0.578-1.911-0.578H312.835z"/>
	<path fill="#386DF9" d="M326.597,15.523h0.854c-0.154,0.747-0.502,1.342-1.041,1.787c-0.539,0.445-1.211,0.667-2.018,0.667
		c-1.043,0-1.888-0.379-2.533-1.138c-0.646-0.758-0.969-1.748-0.969-2.969c0-1.197,0.316-2.181,0.951-2.952
		c0.633-0.77,1.479-1.155,2.533-1.155c1.02,0,1.807,0.353,2.364,1.058c0.558,0.706,0.836,1.639,0.836,2.8v0.32h-5.813
		c0.012,0.996,0.26,1.787,0.746,2.374c0.486,0.587,1.114,0.88,1.885,0.88c0.557,0,1.034-0.148,1.432-0.445
		C326.22,16.454,326.478,16.044,326.597,15.523z M324.374,10.545c-0.711,0-1.295,0.243-1.752,0.729
		c-0.456,0.486-0.731,1.144-0.826,1.973h4.889c-0.023-0.758-0.23-1.398-0.621-1.92C325.672,10.806,325.108,10.545,324.374,10.545z"
		/>
	<path fill="#386DF9" d="M334.863,20.839v-4.196c-0.237,0.368-0.578,0.682-1.022,0.942c-0.444,0.26-0.922,0.391-1.432,0.391
		c-1.102,0-1.953-0.394-2.551-1.183c-0.599-0.788-0.898-1.763-0.898-2.924s0.3-2.136,0.898-2.925
		c0.598-0.788,1.449-1.182,2.551-1.182c0.51,0,0.987,0.13,1.432,0.391s0.785,0.575,1.022,0.942V9.922h0.889v10.917H334.863z
		 M334.863,15.594v-3.449c-0.546-1.043-1.333-1.565-2.364-1.565c-0.818,0-1.465,0.306-1.938,0.916s-0.711,1.401-0.711,2.374
		c0,0.972,0.237,1.763,0.711,2.374s1.12,0.916,1.938,0.916C333.53,17.159,334.317,16.637,334.863,15.594z"/>
	<path fill="#386DF9" d="M344.304,9.922v7.894h-0.871v-1.262c-0.262,0.403-0.611,0.741-1.049,1.013
		c-0.439,0.272-0.925,0.409-1.458,0.409c-0.878,0-1.554-0.258-2.026-0.773c-0.475-0.516-0.712-1.2-0.712-2.054V9.922h0.871v5.103
		c0,0.64,0.169,1.156,0.507,1.547s0.845,0.587,1.52,0.587c0.521,0,0.993-0.16,1.414-0.48c0.42-0.32,0.732-0.729,0.934-1.227V9.922
		H344.304z"/>
	<path fill="#386DF9" d="M347.699,7.096c0.118,0.119,0.179,0.261,0.179,0.427s-0.061,0.308-0.179,0.427
		c-0.118,0.118-0.261,0.178-0.427,0.178s-0.309-0.06-0.426-0.178c-0.119-0.119-0.178-0.261-0.178-0.427s0.059-0.308,0.178-0.427
		c0.117-0.119,0.26-0.178,0.426-0.178S347.581,6.977,347.699,7.096z M347.718,9.922v7.894h-0.89V9.922H347.718z"/>
	<path fill="#386DF9" d="M353.958,9.869v0.871c-0.226-0.095-0.469-0.142-0.729-0.142c-0.474,0-0.896,0.154-1.263,0.462
		s-0.646,0.723-0.835,1.244v5.512h-0.89V9.922h0.89v1.262c0.189-0.415,0.474-0.755,0.854-1.022c0.379-0.267,0.806-0.4,1.28-0.4
		C353.489,9.763,353.72,9.798,353.958,9.869z"/>
	<path fill="#386DF9" d="M360.536,15.523h0.854c-0.154,0.747-0.501,1.342-1.04,1.787c-0.54,0.445-1.212,0.667-2.019,0.667
		c-1.043,0-1.887-0.379-2.533-1.138c-0.646-0.758-0.969-1.748-0.969-2.969c0-1.197,0.316-2.181,0.951-2.952
		c0.634-0.77,1.479-1.155,2.533-1.155c1.02,0,1.808,0.353,2.365,1.058c0.557,0.706,0.836,1.639,0.836,2.8v0.32H355.7
		c0.012,0.996,0.261,1.787,0.747,2.374c0.485,0.587,1.114,0.88,1.884,0.88c0.558,0,1.035-0.148,1.432-0.445
		C360.159,16.454,360.417,16.044,360.536,15.523z M358.313,10.545c-0.711,0-1.295,0.243-1.751,0.729
		c-0.456,0.486-0.731,1.144-0.827,1.973h4.89c-0.024-0.758-0.231-1.398-0.622-1.92S359.049,10.545,358.313,10.545z"/>
	<path fill="#386DF9" d="M367.523,17.816V6.9h0.907v10.081h5.92v0.835H367.523z"/>
	<path fill="#386DF9" d="M377.194,7.096c0.119,0.119,0.179,0.261,0.179,0.427s-0.06,0.308-0.179,0.427
		c-0.118,0.118-0.26,0.178-0.426,0.178s-0.309-0.06-0.427-0.178c-0.118-0.119-0.178-0.261-0.178-0.427s0.06-0.308,0.178-0.427
		s0.261-0.178,0.427-0.178S377.076,6.977,377.194,7.096z M377.213,9.922v7.894h-0.89V9.922H377.213z"/>
	<path fill="#386DF9" d="M379.737,17.816V9.922h0.889v1.262c0.26-0.402,0.613-0.74,1.058-1.013c0.444-0.272,0.934-0.409,1.467-0.409
		c0.877,0,1.553,0.258,2.026,0.773c0.475,0.516,0.712,1.2,0.712,2.054v5.227h-0.872v-5.103c0-0.64-0.168-1.156-0.506-1.547
		s-0.845-0.587-1.52-0.587c-0.522,0-0.996,0.16-1.423,0.48c-0.427,0.32-0.741,0.729-0.942,1.227v5.529H379.737z"/>
	<path fill="#386DF9" d="M393.604,17.816l-3.432-3.947l-0.96,0.889v3.058h-0.89V6.26h0.89v7.467l4.179-3.805h1.173l-3.751,3.396
		l3.875,4.498H393.604z"/>
</g>
<g>
</g>
<g>
</g>
<g>
</g>
<g>
</g>
<g>
</g>
<g>
</g>
<g>
</g>
</svg>
