<?xml version="1.0" encoding="utf-8"?>
<!-- Generator: Adobe Illustrator 16.0.0, SVG Export Plug-In . SVG Version: 6.00 Build 0)  -->
<!DOCTYPE svg PUBLIC "-//W3C//DTD SVG 1.1 Tiny//EN" "http://www.w3.org/Graphics/SVG/1.1/DTD/svg11-tiny.dtd">
<svg version="1.1" baseProfile="tiny" id="Layer_1" xmlns="http://www.w3.org/2000/svg" xmlns:xlink="http://www.w3.org/1999/xlink"
	 x="0px" y="0px" width="477.813px" height="264.898px" viewBox="0 0 477.813 264.898" xml:space="preserve">
<g>
	<path fill="none" stroke="#FF4848" stroke-linejoin="round" d="M340.025,121.559c0,0-18.584,9.292-19.926,18.919"/>
	<g>
		<polygon fill="#FF4848" points="316.987,136.379 317.851,135.872 320.342,140.127 324.404,137.331 324.971,138.157 
			320.022,141.561 		"/>
	</g>
</g>
<g>
	<path fill="none" stroke="#FF4848" stroke-linejoin="round" d="M340.025,121.559c0,0,18.583,9.292,19.925,18.919"/>
	<g>
		<polygon fill="#FF4848" points="355.078,138.157 355.645,137.331 359.706,140.128 362.198,135.872 363.062,136.379 
			360.025,141.561 		"/>
	</g>
</g>
<rect x="40.003" y="61.554" fill="#FFFFFF" stroke="#222222" stroke-linejoin="round" stroke-miterlimit="10" width="20.001" height="60.004"/>
<rect x="30.002" y="41.553" fill="#FFFFFF" stroke="#222222" stroke-linejoin="round" stroke-miterlimit="10" width="80.006" height="20.001"/>
<rect x="80.006" y="61.554" fill="#FFFFFF" stroke="#222222" stroke-linejoin="round" stroke-miterlimit="10" width="20.001" height="60.004"/>
<circle fill="none" stroke="#222222" stroke-linejoin="round" stroke-miterlimit="10" cx="190.014" cy="51.554" r="10.001"/>
<circle fill="none" stroke="#222222" stroke-linejoin="round" stroke-miterlimit="10" cx="170.012" cy="91.557" r="10"/>
<circle fill="none" stroke="#222222" stroke-linejoin="round" stroke-miterlimit="10" cx="210.015" cy="91.557" r="10"/>
<g>
	<path fill="none" stroke="#FF4848" stroke-linejoin="round" d="M190.014,61.554c0,0-18.583,9.292-19.925,18.919"/>
	<g>
		<polygon fill="#FF4848" points="166.977,76.374 167.84,75.867 170.331,80.122 174.394,77.327 174.96,78.152 170.012,81.556 		"/>
	</g>
</g>
<g>
	<path fill="none" stroke="#FF4848" stroke-linejoin="round" d="M190.014,61.554c0,0,18.584,9.292,19.926,18.919"/>
	<g>
		<polygon fill="#FF4848" points="205.067,78.152 205.634,77.327 209.695,80.123 212.188,75.867 213.051,76.374 210.015,81.556 		
			"/>
	</g>
</g>
<g>
	<rect x="210.016" y="61.555" fill="none" width="50.004" height="10.001"/>
	<path fill="#222222" d="M210.417,68.688h0.666c0.24,0.72,0.791,1.081,1.653,1.081c0.427,0,0.773-0.094,1.041-0.28
		c0.267-0.187,0.399-0.458,0.399-0.813c0-0.498-0.364-0.849-1.093-1.053l-1.107-0.307c-0.934-0.249-1.4-0.747-1.4-1.494
		c0-0.498,0.191-0.896,0.574-1.193c0.382-0.298,0.857-0.447,1.427-0.447c0.604,0,1.095,0.143,1.473,0.427
		c0.378,0.285,0.62,0.68,0.728,1.187h-0.653c-0.231-0.694-0.747-1.041-1.547-1.041c-0.392,0-0.716,0.091-0.974,0.273
		c-0.258,0.183-0.387,0.438-0.387,0.767c0,0.267,0.082,0.466,0.246,0.6c0.165,0.133,0.438,0.253,0.82,0.36l1.054,0.293
		c0.986,0.258,1.48,0.795,1.48,1.613c0,0.524-0.196,0.936-0.587,1.233c-0.392,0.298-0.894,0.447-1.507,0.447
		c-0.604,0-1.118-0.147-1.54-0.44C210.761,69.608,210.506,69.204,210.417,68.688z"/>
	<path fill="#222222" d="M220.804,64.301v5.92h-0.653v-0.947c-0.195,0.302-0.458,0.556-0.786,0.76
		c-0.329,0.204-0.693,0.307-1.094,0.307c-0.658,0-1.165-0.193-1.521-0.58s-0.533-0.9-0.533-1.54v-3.92h0.653v3.827
		c0,0.48,0.127,0.867,0.38,1.16c0.254,0.293,0.634,0.44,1.141,0.44c0.391,0,0.744-0.12,1.06-0.36c0.315-0.24,0.549-0.546,0.7-0.92
		v-4.147H220.804z"/>
	<path fill="#222222" d="M223.364,69.342v3.146h-0.667v-8.187h0.667v0.88c0.178-0.275,0.434-0.511,0.767-0.707
		c0.334-0.195,0.691-0.293,1.073-0.293c0.827,0,1.465,0.296,1.914,0.887c0.448,0.591,0.673,1.322,0.673,2.193
		c0,0.872-0.225,1.603-0.673,2.194c-0.449,0.591-1.087,0.887-1.914,0.887c-0.382,0-0.739-0.098-1.073-0.293
		C223.798,69.853,223.542,69.617,223.364,69.342z M223.364,65.968v2.586c0.409,0.783,1,1.174,1.773,1.174
		c0.613,0,1.098-0.229,1.454-0.687c0.355-0.458,0.533-1.051,0.533-1.78c0-0.729-0.178-1.322-0.533-1.78
		c-0.356-0.458-0.841-0.687-1.454-0.687C224.364,64.794,223.773,65.186,223.364,65.968z"/>
	<path fill="#222222" d="M229.925,69.342v3.146h-0.667v-8.187h0.667v0.88c0.178-0.275,0.434-0.511,0.767-0.707
		c0.334-0.195,0.691-0.293,1.073-0.293c0.827,0,1.465,0.296,1.914,0.887c0.448,0.591,0.673,1.322,0.673,2.193
		c0,0.872-0.225,1.603-0.673,2.194c-0.449,0.591-1.087,0.887-1.914,0.887c-0.382,0-0.739-0.098-1.073-0.293
		C230.358,69.853,230.103,69.617,229.925,69.342z M229.925,65.968v2.586c0.409,0.783,1,1.174,1.773,1.174
		c0.613,0,1.098-0.229,1.454-0.687c0.355-0.458,0.533-1.051,0.533-1.78c0-0.729-0.178-1.322-0.533-1.78
		c-0.356-0.458-0.841-0.687-1.454-0.687C230.925,64.794,230.334,65.186,229.925,65.968z"/>
	<path fill="#222222" d="M239.92,65.035c0.484,0.569,0.727,1.312,0.727,2.227c0,0.916-0.242,1.658-0.727,2.227
		c-0.485,0.569-1.118,0.854-1.9,0.854s-1.414-0.285-1.894-0.854c-0.48-0.569-0.72-1.311-0.72-2.227c0-0.915,0.239-1.658,0.72-2.227
		c0.479-0.569,1.111-0.854,1.894-0.854S239.435,64.466,239.92,65.035z M239.446,69.068c0.355-0.458,0.533-1.06,0.533-1.807
		c0-0.747-0.178-1.349-0.533-1.807c-0.355-0.458-0.831-0.687-1.427-0.687c-0.587,0-1.059,0.229-1.414,0.687
		c-0.355,0.458-0.533,1.06-0.533,1.807c0,0.747,0.178,1.349,0.533,1.807s0.827,0.687,1.414,0.687
		C238.615,69.755,239.091,69.526,239.446,69.068z"/>
	<path fill="#222222" d="M244.899,64.261v0.653c-0.169-0.071-0.351-0.106-0.547-0.106c-0.355,0-0.671,0.115-0.946,0.347
		c-0.275,0.231-0.484,0.542-0.627,0.933v4.134h-0.667v-5.92h0.667v0.947c0.143-0.311,0.355-0.567,0.641-0.767
		c0.284-0.2,0.604-0.3,0.96-0.3C244.549,64.181,244.722,64.208,244.899,64.261z"/>
	<path fill="#222222" d="M246.394,68.848v-3.974h-1.001v-0.573h1.001v-1.52h0.653v1.52h1.533v0.573h-1.533v3.907
		c0,0.64,0.284,0.96,0.853,0.96c0.285,0,0.556-0.076,0.813-0.227v0.626c-0.249,0.133-0.542,0.2-0.88,0.2
		c-0.444,0-0.796-0.127-1.053-0.38C246.521,69.708,246.394,69.337,246.394,68.848z"/>
</g>
<g>
	<rect y="21.552" fill="none" width="60.005" height="20.001"/>
	<path d="M1.601,22.178c0.088,0.089,0.133,0.196,0.133,0.32c0,0.125-0.045,0.231-0.133,0.32c-0.09,0.089-0.196,0.133-0.32,0.133
		c-0.125,0-0.231-0.044-0.32-0.133s-0.133-0.196-0.133-0.32c0-0.124,0.044-0.231,0.133-0.32s0.195-0.133,0.32-0.133
		C1.404,22.045,1.511,22.089,1.601,22.178z M1.613,24.298v5.92H0.946v-5.92H1.613z"/>
	<path d="M2.96,28.685h0.666c0.24,0.72,0.791,1.081,1.653,1.081c0.427,0,0.773-0.094,1.041-0.28
		c0.267-0.187,0.399-0.458,0.399-0.813c0-0.498-0.364-0.849-1.093-1.053L4.52,27.312c-0.934-0.249-1.4-0.747-1.4-1.494
		c0-0.498,0.191-0.896,0.574-1.193c0.382-0.298,0.857-0.447,1.427-0.447c0.604,0,1.095,0.143,1.473,0.427
		c0.378,0.285,0.62,0.68,0.728,1.187H6.667c-0.231-0.694-0.747-1.041-1.547-1.041c-0.392,0-0.716,0.091-0.974,0.273
		c-0.258,0.183-0.387,0.438-0.387,0.767c0,0.267,0.082,0.466,0.246,0.6c0.165,0.133,0.438,0.253,0.82,0.36l1.054,0.293
		c0.986,0.258,1.48,0.795,1.48,1.613c0,0.524-0.196,0.936-0.587,1.233c-0.392,0.298-0.894,0.447-1.507,0.447
		c-0.604,0-1.118-0.147-1.54-0.44C3.304,29.605,3.049,29.201,2.96,28.685z"/>
	<path d="M15.801,30.219h-0.64v-0.56c-0.143,0.169-0.365,0.32-0.667,0.454c-0.303,0.133-0.627,0.2-0.974,0.2
		c-0.622,0-1.143-0.167-1.56-0.5c-0.418-0.333-0.627-0.775-0.627-1.327c0-0.533,0.213-0.969,0.64-1.307s0.951-0.507,1.573-0.507
		c0.32,0,0.632,0.064,0.934,0.193c0.303,0.129,0.529,0.273,0.681,0.433v-1.053c0-0.444-0.132-0.802-0.394-1.073
		c-0.263-0.271-0.625-0.407-1.087-0.407c-0.738,0-1.218,0.338-1.44,1.013h-0.653c0.115-0.498,0.362-0.889,0.74-1.173
		c0.378-0.284,0.829-0.427,1.354-0.427c0.658,0,1.176,0.185,1.554,0.553c0.378,0.369,0.566,0.865,0.566,1.487V30.219z
		 M15.161,28.872v-0.76c-0.099-0.258-0.296-0.469-0.594-0.633s-0.625-0.247-0.98-0.247c-0.453,0-0.838,0.109-1.153,0.327
		s-0.473,0.527-0.473,0.927s0.157,0.711,0.473,0.933c0.315,0.223,0.7,0.333,1.153,0.333c0.355,0,0.683-0.082,0.98-0.247
		S15.062,29.13,15.161,28.872z"/>
	<path d="M17.627,30.219v-5.92h0.667v0.947c0.195-0.302,0.46-0.556,0.794-0.76c0.333-0.204,0.699-0.307,1.1-0.307
		c0.658,0,1.165,0.193,1.521,0.58s0.533,0.9,0.533,1.54v3.92h-0.653v-3.827c0-0.48-0.127-0.867-0.38-1.16
		c-0.254-0.293-0.634-0.44-1.141-0.44c-0.391,0-0.746,0.12-1.066,0.36c-0.32,0.24-0.556,0.546-0.707,0.92v4.147H17.627z"/>
	<path d="M31.042,30.219h-0.64v-0.56c-0.143,0.169-0.365,0.32-0.667,0.454c-0.303,0.133-0.627,0.2-0.974,0.2
		c-0.622,0-1.143-0.167-1.56-0.5c-0.418-0.333-0.627-0.775-0.627-1.327c0-0.533,0.213-0.969,0.64-1.307s0.951-0.507,1.573-0.507
		c0.32,0,0.632,0.064,0.934,0.193c0.303,0.129,0.529,0.273,0.681,0.433v-1.053c0-0.444-0.132-0.802-0.394-1.073
		c-0.263-0.271-0.625-0.407-1.087-0.407c-0.738,0-1.218,0.338-1.44,1.013h-0.653c0.115-0.498,0.362-0.889,0.74-1.173
		c0.378-0.284,0.829-0.427,1.354-0.427c0.658,0,1.176,0.185,1.554,0.553c0.378,0.369,0.566,0.865,0.566,1.487V30.219z
		 M30.402,28.872v-0.76c-0.099-0.258-0.296-0.469-0.594-0.633s-0.625-0.247-0.98-0.247c-0.453,0-0.838,0.109-1.153,0.327
		s-0.473,0.527-0.473,0.927s0.157,0.711,0.473,0.933c0.315,0.223,0.7,0.333,1.153,0.333c0.355,0,0.683-0.082,0.98-0.247
		S30.304,29.13,30.402,28.872z"/>
	<path d="M35.655,24.258v0.653c-0.169-0.071-0.351-0.106-0.547-0.106c-0.355,0-0.671,0.115-0.946,0.347
		c-0.275,0.231-0.484,0.542-0.627,0.933v4.134h-0.667v-5.92h0.667v0.947c0.143-0.311,0.355-0.567,0.641-0.767
		c0.284-0.2,0.604-0.3,0.96-0.3C35.305,24.178,35.478,24.205,35.655,24.258z"/>
	<path d="M37.029,29.485c-0.48-0.569-0.72-1.311-0.72-2.227c0-0.915,0.239-1.658,0.72-2.227c0.479-0.569,1.111-0.854,1.894-0.854
		c0.613,0,1.117,0.167,1.514,0.5c0.395,0.333,0.646,0.78,0.753,1.34h-0.68c-0.089-0.391-0.271-0.696-0.547-0.914
		s-0.622-0.327-1.04-0.327c-0.578,0-1.047,0.227-1.407,0.68c-0.359,0.453-0.54,1.053-0.54,1.8c0,0.747,0.181,1.347,0.54,1.8
		c0.36,0.454,0.829,0.68,1.407,0.68c0.418,0,0.765-0.109,1.04-0.327s0.458-0.522,0.547-0.914h0.68
		c-0.106,0.56-0.358,1.007-0.753,1.34c-0.396,0.333-0.9,0.5-1.514,0.5C38.141,30.339,37.509,30.054,37.029,29.485z"/>
	<path d="M42.629,30.219v-8.667h0.667v3.694c0.195-0.302,0.46-0.556,0.794-0.76c0.333-0.204,0.699-0.307,1.1-0.307
		c0.658,0,1.165,0.193,1.521,0.58s0.533,0.9,0.533,1.54v3.92H46.59v-3.827c0-0.48-0.127-0.867-0.38-1.16
		c-0.254-0.293-0.634-0.44-1.141-0.44c-0.391,0-0.746,0.12-1.066,0.36c-0.32,0.24-0.556,0.546-0.707,0.92v4.147H42.629z"/>
</g>
<g>
	<rect y="151.562" fill="none" width="80.006" height="20.001"/>
	<path d="M1.601,152.188c0.088,0.088,0.133,0.195,0.133,0.319s-0.045,0.231-0.133,0.32c-0.09,0.089-0.196,0.134-0.32,0.134
		c-0.125,0-0.231-0.045-0.32-0.134s-0.133-0.196-0.133-0.32s0.044-0.231,0.133-0.319c0.089-0.09,0.195-0.134,0.32-0.134
		C1.404,152.055,1.511,152.099,1.601,152.188z M1.613,154.308v5.921H0.946v-5.921H1.613z"/>
	<path d="M2.96,158.694h0.666c0.24,0.721,0.791,1.081,1.653,1.081c0.427,0,0.773-0.094,1.041-0.28
		c0.267-0.187,0.399-0.457,0.399-0.813c0-0.497-0.364-0.849-1.093-1.054l-1.107-0.307c-0.934-0.248-1.4-0.746-1.4-1.493
		c0-0.497,0.191-0.896,0.574-1.193c0.382-0.298,0.857-0.446,1.427-0.446c0.604,0,1.095,0.143,1.473,0.426
		c0.378,0.285,0.62,0.681,0.728,1.188H6.667c-0.231-0.693-0.747-1.041-1.547-1.041c-0.392,0-0.716,0.092-0.974,0.273
		c-0.258,0.184-0.387,0.438-0.387,0.768c0,0.267,0.082,0.467,0.246,0.6c0.165,0.133,0.438,0.254,0.82,0.36l1.054,0.294
		c0.986,0.258,1.48,0.795,1.48,1.613c0,0.523-0.196,0.936-0.587,1.232c-0.392,0.299-0.894,0.447-1.507,0.447
		c-0.604,0-1.118-0.146-1.54-0.439C3.304,159.615,3.049,159.211,2.96,158.694z"/>
	<path d="M15.801,160.229h-0.64v-0.56c-0.143,0.168-0.365,0.319-0.667,0.453c-0.303,0.133-0.627,0.199-0.974,0.199
		c-0.622,0-1.143-0.166-1.56-0.5c-0.418-0.333-0.627-0.775-0.627-1.326c0-0.533,0.213-0.969,0.64-1.307s0.951-0.507,1.573-0.507
		c0.32,0,0.632,0.064,0.934,0.193c0.303,0.129,0.529,0.273,0.681,0.433v-1.053c0-0.444-0.132-0.803-0.394-1.073
		c-0.263-0.271-0.625-0.407-1.087-0.407c-0.738,0-1.218,0.338-1.44,1.014h-0.653c0.115-0.498,0.362-0.889,0.74-1.174
		c0.378-0.283,0.829-0.426,1.354-0.426c0.658,0,1.176,0.184,1.554,0.553s0.566,0.865,0.566,1.486V160.229z M15.161,158.882v-0.76
		c-0.099-0.258-0.296-0.469-0.594-0.634s-0.625-0.247-0.98-0.247c-0.453,0-0.838,0.109-1.153,0.327s-0.473,0.526-0.473,0.927
		s0.157,0.711,0.473,0.934s0.7,0.333,1.153,0.333c0.355,0,0.683-0.082,0.98-0.247C14.865,159.351,15.062,159.14,15.161,158.882z"/>
	<path d="M17.627,160.229v-5.921h0.667v0.947c0.195-0.303,0.46-0.556,0.794-0.76c0.333-0.205,0.699-0.307,1.1-0.307
		c0.658,0,1.165,0.193,1.521,0.58s0.533,0.899,0.533,1.539v3.921h-0.653v-3.827c0-0.48-0.127-0.867-0.38-1.16
		c-0.254-0.293-0.634-0.439-1.141-0.439c-0.391,0-0.746,0.119-1.066,0.359s-0.556,0.547-0.707,0.92v4.147H17.627z"/>
	<path d="M31.042,160.229h-0.64v-0.56c-0.143,0.168-0.365,0.319-0.667,0.453c-0.303,0.133-0.627,0.199-0.974,0.199
		c-0.622,0-1.143-0.166-1.56-0.5c-0.418-0.333-0.627-0.775-0.627-1.326c0-0.533,0.213-0.969,0.64-1.307s0.951-0.507,1.573-0.507
		c0.32,0,0.632,0.064,0.934,0.193c0.303,0.129,0.529,0.273,0.681,0.433v-1.053c0-0.444-0.132-0.803-0.394-1.073
		c-0.263-0.271-0.625-0.407-1.087-0.407c-0.738,0-1.218,0.338-1.44,1.014h-0.653c0.115-0.498,0.362-0.889,0.74-1.174
		c0.378-0.283,0.829-0.426,1.354-0.426c0.658,0,1.176,0.184,1.554,0.553s0.566,0.865,0.566,1.486V160.229z M30.402,158.882v-0.76
		c-0.099-0.258-0.296-0.469-0.594-0.634s-0.625-0.247-0.98-0.247c-0.453,0-0.838,0.109-1.153,0.327s-0.473,0.526-0.473,0.927
		s0.157,0.711,0.473,0.934s0.7,0.333,1.153,0.333c0.355,0,0.683-0.082,0.98-0.247C30.106,159.351,30.304,159.14,30.402,158.882z"/>
	<path d="M35.655,154.269v0.652c-0.169-0.07-0.351-0.105-0.547-0.105c-0.355,0-0.671,0.115-0.946,0.346
		c-0.275,0.231-0.484,0.543-0.627,0.934v4.134h-0.667v-5.921h0.667v0.947c0.143-0.311,0.355-0.566,0.641-0.767
		c0.284-0.2,0.604-0.3,0.96-0.3C35.305,154.188,35.478,154.215,35.655,154.269z"/>
	<path d="M37.029,159.495c-0.48-0.568-0.72-1.311-0.72-2.227s0.239-1.658,0.72-2.227c0.479-0.569,1.111-0.854,1.894-0.854
		c0.613,0,1.117,0.166,1.514,0.5c0.395,0.333,0.646,0.779,0.753,1.34h-0.68c-0.089-0.391-0.271-0.695-0.547-0.914
		c-0.275-0.217-0.622-0.326-1.04-0.326c-0.578,0-1.047,0.227-1.407,0.68c-0.359,0.453-0.54,1.054-0.54,1.801
		c0,0.746,0.181,1.347,0.54,1.8c0.36,0.454,0.829,0.681,1.407,0.681c0.418,0,0.765-0.109,1.04-0.327s0.458-0.522,0.547-0.913h0.68
		c-0.106,0.56-0.358,1.006-0.753,1.34c-0.396,0.333-0.9,0.5-1.514,0.5C38.141,160.349,37.509,160.063,37.029,159.495z"/>
	<path d="M42.629,160.229v-8.667h0.667v3.693c0.195-0.303,0.46-0.556,0.794-0.76c0.333-0.205,0.699-0.307,1.1-0.307
		c0.658,0,1.165,0.193,1.521,0.58s0.533,0.899,0.533,1.539v3.921H46.59v-3.827c0-0.48-0.127-0.867-0.38-1.16
		c-0.254-0.293-0.634-0.439-1.141-0.439c-0.391,0-0.746,0.119-1.066,0.359s-0.556,0.547-0.707,0.92v4.147H42.629z"/>
</g>
<path fill="none" stroke="#222222" stroke-linejoin="round" stroke-miterlimit="10" d="M260.02,31.552
	c20.001,0,10,90.006,30.002,100.007c-20.002,10.001-10.001,100.008-30.002,100.008"/>
<circle fill="none" stroke="#222222" stroke-linejoin="round" stroke-miterlimit="10" cx="340.025" cy="111.558" r="10"/>
<circle fill="none" stroke="#222222" stroke-linejoin="round" stroke-miterlimit="10" cx="320.023" cy="151.562" r="10.001"/>
<circle fill="none" stroke="#222222" stroke-linejoin="round" stroke-miterlimit="10" cx="360.026" cy="151.562" r="10.001"/>
<g>
	<rect x="360.027" y="121.56" fill="none" width="90.007" height="10"/>
	<path fill="#222222" d="M365.001,125.319c0.178-0.32,0.431-0.588,0.76-0.807c0.329-0.218,0.689-0.327,1.08-0.327
		c0.578,0,1.022,0.187,1.334,0.56c0.311,0.374,0.467,0.867,0.467,1.48v4h-0.653v-3.907c0-0.471-0.107-0.842-0.32-1.114
		c-0.214-0.271-0.529-0.407-0.947-0.407c-0.355,0-0.675,0.116-0.96,0.347c-0.284,0.231-0.488,0.529-0.613,0.894v4.187h-0.666v-3.907
		c0-0.471-0.107-0.842-0.32-1.114c-0.214-0.271-0.529-0.407-0.947-0.407c-0.355,0-0.676,0.116-0.96,0.347
		c-0.284,0.231-0.488,0.529-0.613,0.894v4.187h-0.667v-5.92h0.667v0.907c0.16-0.302,0.389-0.549,0.687-0.74
		c0.298-0.191,0.638-0.287,1.021-0.287C364.175,124.186,364.726,124.563,365.001,125.319z"/>
	<path fill="#222222" d="M375.002,124.306v5.92h-0.653v-0.947c-0.195,0.302-0.458,0.556-0.786,0.76
		c-0.329,0.204-0.693,0.307-1.094,0.307c-0.658,0-1.165-0.193-1.521-0.58s-0.533-0.9-0.533-1.54v-3.92h0.653v3.827
		c0,0.48,0.127,0.867,0.38,1.16c0.254,0.293,0.634,0.44,1.141,0.44c0.391,0,0.744-0.12,1.06-0.36c0.315-0.24,0.549-0.546,0.7-0.92
		v-4.147H375.002z"/>
	<path fill="#222222" d="M376.35,128.692h0.666c0.24,0.72,0.791,1.081,1.653,1.081c0.427,0,0.773-0.094,1.041-0.28
		c0.267-0.187,0.399-0.458,0.399-0.813c0-0.498-0.364-0.849-1.093-1.053l-1.107-0.307c-0.934-0.249-1.4-0.747-1.4-1.494
		c0-0.498,0.191-0.896,0.574-1.193c0.382-0.298,0.857-0.447,1.427-0.447c0.604,0,1.095,0.143,1.473,0.427
		c0.378,0.285,0.62,0.68,0.728,1.187h-0.653c-0.231-0.694-0.747-1.041-1.547-1.041c-0.392,0-0.716,0.091-0.974,0.273
		c-0.258,0.183-0.387,0.438-0.387,0.767c0,0.267,0.082,0.466,0.246,0.6c0.165,0.133,0.438,0.253,0.82,0.36l1.054,0.293
		c0.986,0.258,1.48,0.795,1.48,1.613c0,0.524-0.196,0.936-0.587,1.233c-0.392,0.298-0.894,0.447-1.507,0.447
		c-0.604,0-1.118-0.147-1.54-0.44C376.693,129.613,376.438,129.208,376.35,128.692z"/>
	<path fill="#222222" d="M382.483,128.853v-3.974h-1.001v-0.573h1.001v-1.52h0.653v1.52h1.533v0.573h-1.533v3.907
		c0,0.64,0.284,0.96,0.853,0.96c0.285,0,0.556-0.076,0.813-0.227v0.626c-0.249,0.133-0.542,0.2-0.88,0.2
		c-0.444,0-0.796-0.127-1.053-0.38C382.611,129.713,382.483,129.342,382.483,128.853z"/>
	<path fill="#222222" d="M388.577,128.692h0.666c0.24,0.72,0.791,1.081,1.653,1.081c0.427,0,0.773-0.094,1.041-0.28
		c0.267-0.187,0.399-0.458,0.399-0.813c0-0.498-0.364-0.849-1.093-1.053l-1.107-0.307c-0.934-0.249-1.4-0.747-1.4-1.494
		c0-0.498,0.191-0.896,0.574-1.193c0.382-0.298,0.857-0.447,1.427-0.447c0.604,0,1.095,0.143,1.473,0.427
		c0.378,0.285,0.62,0.68,0.728,1.187h-0.653c-0.231-0.694-0.747-1.041-1.547-1.041c-0.392,0-0.716,0.091-0.974,0.273
		c-0.258,0.183-0.387,0.438-0.387,0.767c0,0.267,0.082,0.466,0.246,0.6c0.165,0.133,0.438,0.253,0.82,0.36l1.054,0.293
		c0.986,0.258,1.48,0.795,1.48,1.613c0,0.524-0.196,0.936-0.587,1.233c-0.392,0.298-0.894,0.447-1.507,0.447
		c-0.604,0-1.118-0.147-1.54-0.44C388.921,129.613,388.666,129.208,388.577,128.692z"/>
	<path fill="#222222" d="M398.964,124.306v5.92h-0.653v-0.947c-0.195,0.302-0.458,0.556-0.786,0.76
		c-0.329,0.204-0.693,0.307-1.094,0.307c-0.658,0-1.165-0.193-1.521-0.58s-0.533-0.9-0.533-1.54v-3.92h0.653v3.827
		c0,0.48,0.127,0.867,0.38,1.16c0.254,0.293,0.634,0.44,1.141,0.44c0.391,0,0.744-0.12,1.06-0.36c0.315-0.24,0.549-0.546,0.7-0.92
		v-4.147H398.964z"/>
	<path fill="#222222" d="M401.524,129.346v3.146h-0.667v-8.187h0.667v0.88c0.178-0.275,0.434-0.511,0.767-0.707
		c0.334-0.195,0.691-0.293,1.073-0.293c0.827,0,1.465,0.296,1.914,0.887c0.448,0.591,0.673,1.322,0.673,2.193
		c0,0.872-0.225,1.603-0.673,2.194c-0.449,0.591-1.087,0.887-1.914,0.887c-0.382,0-0.739-0.098-1.073-0.293
		C401.958,129.857,401.702,129.622,401.524,129.346z M401.524,125.973v2.586c0.409,0.783,1,1.174,1.773,1.174
		c0.613,0,1.098-0.229,1.454-0.687c0.355-0.458,0.533-1.051,0.533-1.78c0-0.729-0.178-1.322-0.533-1.78
		c-0.356-0.458-0.841-0.687-1.454-0.687C402.524,124.799,401.934,125.19,401.524,125.973z"/>
	<path fill="#222222" d="M408.085,129.346v3.146h-0.667v-8.187h0.667v0.88c0.178-0.275,0.434-0.511,0.767-0.707
		c0.334-0.195,0.691-0.293,1.073-0.293c0.827,0,1.465,0.296,1.914,0.887c0.448,0.591,0.673,1.322,0.673,2.193
		c0,0.872-0.225,1.603-0.673,2.194c-0.449,0.591-1.087,0.887-1.914,0.887c-0.382,0-0.739-0.098-1.073-0.293
		C408.519,129.857,408.263,129.622,408.085,129.346z M408.085,125.973v2.586c0.409,0.783,1,1.174,1.773,1.174
		c0.613,0,1.098-0.229,1.454-0.687c0.355-0.458,0.533-1.051,0.533-1.78c0-0.729-0.178-1.322-0.533-1.78
		c-0.356-0.458-0.841-0.687-1.454-0.687C409.085,124.799,408.494,125.19,408.085,125.973z"/>
	<path fill="#222222" d="M418.08,125.039c0.484,0.569,0.727,1.312,0.727,2.227c0,0.916-0.242,1.658-0.727,2.227
		c-0.485,0.569-1.118,0.854-1.9,0.854s-1.414-0.285-1.894-0.854c-0.48-0.569-0.72-1.311-0.72-2.227c0-0.915,0.239-1.658,0.72-2.227
		c0.479-0.569,1.111-0.854,1.894-0.854S417.595,124.47,418.08,125.039z M417.606,129.073c0.355-0.458,0.533-1.06,0.533-1.807
		c0-0.747-0.178-1.349-0.533-1.807c-0.355-0.458-0.831-0.687-1.427-0.687c-0.587,0-1.059,0.229-1.414,0.687
		c-0.355,0.458-0.533,1.06-0.533,1.807c0,0.747,0.178,1.349,0.533,1.807s0.827,0.687,1.414,0.687
		C416.775,129.759,417.251,129.531,417.606,129.073z"/>
	<path fill="#222222" d="M423.06,124.266v0.653c-0.169-0.071-0.351-0.106-0.547-0.106c-0.355,0-0.671,0.115-0.946,0.347
		c-0.275,0.231-0.484,0.542-0.627,0.933v4.134h-0.667v-5.92h0.667v0.947c0.143-0.311,0.355-0.567,0.641-0.767
		c0.284-0.2,0.604-0.3,0.96-0.3C422.709,124.186,422.882,124.212,423.06,124.266z"/>
	<path fill="#222222" d="M424.554,128.853v-3.974h-1.001v-0.573h1.001v-1.52h0.653v1.52h1.533v0.573h-1.533v3.907
		c0,0.64,0.284,0.96,0.853,0.96c0.285,0,0.556-0.076,0.813-0.227v0.626c-0.249,0.133-0.542,0.2-0.88,0.2
		c-0.444,0-0.796-0.127-1.053-0.38C424.682,129.713,424.554,129.342,424.554,128.853z"/>
</g>
<circle fill="none" stroke="#222222" stroke-linejoin="round" stroke-miterlimit="10" cx="190.014" cy="201.565" r="10.001"/>
<circle fill="none" stroke="#222222" stroke-linejoin="round" stroke-miterlimit="10" cx="170.012" cy="241.567" r="10"/>
<circle fill="none" stroke="#222222" stroke-linejoin="round" stroke-miterlimit="10" cx="210.015" cy="241.567" r="10"/>
<g>
	<path fill="none" stroke="#222222" stroke-linejoin="round" d="M190.014,211.565c0,0-18.583,9.292-19.925,18.919"/>
	<g>
		<polygon fill="#222222" points="166.977,226.386 167.84,225.878 170.331,230.134 174.394,227.338 174.96,228.163 170.012,231.567 
					"/>
	</g>
</g>
<g>
	<path fill="none" stroke="#222222" stroke-linejoin="round" d="M190.014,211.565c0,0,18.584,9.292,19.926,18.919"/>
	<g>
		<polygon fill="#222222" points="205.067,228.163 205.634,227.339 209.695,230.134 212.188,225.878 213.051,226.386 
			210.015,231.567 		"/>
	</g>
</g>
<g>
	<rect x="210.016" y="211.566" fill="none" width="50.004" height="10"/>
	<path fill="#222222" d="M210.417,218.699h0.666c0.24,0.721,0.791,1.081,1.653,1.081c0.427,0,0.773-0.094,1.041-0.28
		c0.267-0.187,0.399-0.458,0.399-0.813c0-0.498-0.364-0.849-1.093-1.054l-1.107-0.307c-0.934-0.249-1.4-0.747-1.4-1.493
		c0-0.498,0.191-0.896,0.574-1.193c0.382-0.298,0.857-0.447,1.427-0.447c0.604,0,1.095,0.143,1.473,0.427
		c0.378,0.285,0.62,0.681,0.728,1.188h-0.653c-0.231-0.694-0.747-1.041-1.547-1.041c-0.392,0-0.716,0.092-0.974,0.273
		c-0.258,0.183-0.387,0.438-0.387,0.768c0,0.267,0.082,0.466,0.246,0.6c0.165,0.133,0.438,0.253,0.82,0.36l1.054,0.293
		c0.986,0.258,1.48,0.796,1.48,1.613c0,0.524-0.196,0.936-0.587,1.233c-0.392,0.298-0.894,0.447-1.507,0.447
		c-0.604,0-1.118-0.147-1.54-0.44C210.761,219.62,210.506,219.216,210.417,218.699z"/>
	<path fill="#222222" d="M220.804,214.312v5.921h-0.653v-0.947c-0.195,0.303-0.458,0.556-0.786,0.761
		c-0.329,0.204-0.693,0.307-1.094,0.307c-0.658,0-1.165-0.193-1.521-0.58s-0.533-0.9-0.533-1.54v-3.921h0.653v3.827
		c0,0.48,0.127,0.867,0.38,1.16c0.254,0.293,0.634,0.44,1.141,0.44c0.391,0,0.744-0.12,1.06-0.36s0.549-0.547,0.7-0.92v-4.147
		H220.804z"/>
	<path fill="#222222" d="M223.364,219.354v3.146h-0.667v-8.188h0.667v0.88c0.178-0.275,0.434-0.511,0.767-0.706
		c0.334-0.195,0.691-0.294,1.073-0.294c0.827,0,1.465,0.296,1.914,0.887c0.448,0.592,0.673,1.322,0.673,2.193
		c0,0.872-0.225,1.603-0.673,2.194c-0.449,0.591-1.087,0.887-1.914,0.887c-0.382,0-0.739-0.099-1.073-0.294
		C223.798,219.864,223.542,219.629,223.364,219.354z M223.364,215.979v2.587c0.409,0.782,1,1.174,1.773,1.174
		c0.613,0,1.098-0.229,1.454-0.688c0.355-0.457,0.533-1.051,0.533-1.78c0-0.729-0.178-1.321-0.533-1.779
		c-0.356-0.458-0.841-0.688-1.454-0.688C224.364,214.806,223.773,215.197,223.364,215.979z"/>
	<path fill="#222222" d="M229.925,219.354v3.146h-0.667v-8.188h0.667v0.88c0.178-0.275,0.434-0.511,0.767-0.706
		c0.334-0.195,0.691-0.294,1.073-0.294c0.827,0,1.465,0.296,1.914,0.887c0.448,0.592,0.673,1.322,0.673,2.193
		c0,0.872-0.225,1.603-0.673,2.194c-0.449,0.591-1.087,0.887-1.914,0.887c-0.382,0-0.739-0.099-1.073-0.294
		C230.358,219.864,230.103,219.629,229.925,219.354z M229.925,215.979v2.587c0.409,0.782,1,1.174,1.773,1.174
		c0.613,0,1.098-0.229,1.454-0.688c0.355-0.457,0.533-1.051,0.533-1.78c0-0.729-0.178-1.321-0.533-1.779
		c-0.356-0.458-0.841-0.688-1.454-0.688C230.925,214.806,230.334,215.197,229.925,215.979z"/>
	<path fill="#222222" d="M239.92,215.046c0.484,0.569,0.727,1.312,0.727,2.227c0,0.916-0.242,1.658-0.727,2.228
		c-0.485,0.568-1.118,0.854-1.9,0.854s-1.414-0.285-1.894-0.854c-0.48-0.569-0.72-1.312-0.72-2.228c0-0.915,0.239-1.657,0.72-2.227
		c0.479-0.568,1.111-0.854,1.894-0.854S239.435,214.478,239.92,215.046z M239.446,219.08c0.355-0.458,0.533-1.061,0.533-1.808
		c0-0.746-0.178-1.349-0.533-1.807c-0.355-0.457-0.831-0.687-1.427-0.687c-0.587,0-1.059,0.229-1.414,0.687
		c-0.355,0.458-0.533,1.061-0.533,1.807c0,0.747,0.178,1.35,0.533,1.808s0.827,0.687,1.414,0.687
		C238.615,219.767,239.091,219.538,239.446,219.08z"/>
	<path fill="#222222" d="M244.899,214.272v0.653c-0.169-0.07-0.351-0.106-0.547-0.106c-0.355,0-0.671,0.115-0.946,0.347
		s-0.484,0.542-0.627,0.934v4.134h-0.667v-5.921h0.667v0.947c0.143-0.312,0.355-0.567,0.641-0.767c0.284-0.2,0.604-0.301,0.96-0.301
		C244.549,214.192,244.722,214.22,244.899,214.272z"/>
	<path fill="#222222" d="M246.394,218.859v-3.974h-1.001v-0.573h1.001v-1.52h0.653v1.52h1.533v0.573h-1.533v3.907
		c0,0.64,0.284,0.96,0.853,0.96c0.285,0,0.556-0.075,0.813-0.227v0.627c-0.249,0.133-0.542,0.2-0.88,0.2
		c-0.444,0-0.796-0.127-1.053-0.381C246.521,219.72,246.394,219.349,246.394,218.859z"/>
</g>
<g>
	<path fill="none" stroke="#222222" stroke-linejoin="round" d="M180.013,241.567c9.679-5.197,9.99-5.852,19.066-0.549"/>
	<g>
		<polygon fill="#222222" points="194.163,242.919 193.937,241.943 198.742,240.837 197.286,236.124 198.243,235.83 
			200.014,241.569 		"/>
	</g>
</g>
<g>
	<path fill="none" stroke="#222222" stroke-linejoin="round" d="M200.015,244.067c-9.678,4.93-9.99,5.754-19.062,0.543"/>
	<g>
		<polygon fill="#222222" points="185.854,242.669 186.087,243.643 181.292,244.789 182.786,249.488 181.832,249.791 
			180.014,244.067 		"/>
	</g>
</g>
<g>
	<rect x="180.014" y="253.791" fill="none" width="50.004" height="10.001"/>
	<path fill="#222222" d="M180.96,262.458v-5.92h0.667v0.947c0.195-0.303,0.46-0.557,0.794-0.761c0.333-0.204,0.699-0.307,1.1-0.307
		c0.658,0,1.165,0.193,1.521,0.58s0.533,0.899,0.533,1.54v3.92h-0.653v-3.826c0-0.48-0.127-0.867-0.38-1.16
		c-0.254-0.293-0.634-0.44-1.141-0.44c-0.391,0-0.746,0.12-1.066,0.36s-0.556,0.547-0.707,0.92v4.146H180.96z"/>
	<path fill="#222222" d="M191.488,257.271c0.484,0.569,0.727,1.312,0.727,2.227c0,0.916-0.242,1.658-0.727,2.228
		c-0.485,0.568-1.118,0.854-1.9,0.854s-1.414-0.285-1.894-0.854c-0.48-0.569-0.72-1.312-0.72-2.228c0-0.915,0.239-1.657,0.72-2.227
		c0.479-0.569,1.111-0.854,1.894-0.854S191.003,256.702,191.488,257.271z M191.015,261.306c0.355-0.459,0.533-1.061,0.533-1.808
		s-0.178-1.349-0.533-1.807s-0.831-0.687-1.427-0.687c-0.587,0-1.059,0.229-1.414,0.687s-0.533,1.06-0.533,1.807
		s0.178,1.349,0.533,1.808c0.355,0.457,0.827,0.686,1.414,0.686C190.184,261.991,190.659,261.763,191.015,261.306z"/>
	<path fill="#222222" d="M193.948,261.085v-3.974h-1.001v-0.573h1.001v-1.52h0.653v1.52h1.533v0.573h-1.533v3.907
		c0,0.64,0.284,0.96,0.853,0.96c0.285,0,0.556-0.075,0.813-0.227v0.626c-0.249,0.134-0.542,0.201-0.88,0.201
		c-0.444,0-0.796-0.127-1.053-0.381C194.076,261.945,193.948,261.574,193.948,261.085z"/>
	<path fill="#222222" d="M200.855,261.085v-3.974h-1.001v-0.573h1.001v-1.52h0.653v1.52h1.533v0.573h-1.533v3.907
		c0,0.64,0.284,0.96,0.853,0.96c0.285,0,0.556-0.075,0.813-0.227v0.626c-0.249,0.134-0.542,0.201-0.88,0.201
		c-0.444,0-0.796-0.127-1.053-0.381C200.983,261.945,200.855,261.574,200.855,261.085z"/>
	<path fill="#222222" d="M208.569,257.271c0.484,0.569,0.727,1.312,0.727,2.227c0,0.916-0.242,1.658-0.727,2.228
		c-0.485,0.568-1.118,0.854-1.9,0.854s-1.414-0.285-1.894-0.854c-0.48-0.569-0.72-1.312-0.72-2.228c0-0.915,0.239-1.657,0.72-2.227
		c0.479-0.569,1.111-0.854,1.894-0.854S208.084,256.702,208.569,257.271z M208.096,261.306c0.355-0.459,0.533-1.061,0.533-1.808
		s-0.178-1.349-0.533-1.807s-0.831-0.687-1.427-0.687c-0.587,0-1.059,0.229-1.414,0.687s-0.533,1.06-0.533,1.807
		s0.178,1.349,0.533,1.808c0.355,0.457,0.827,0.686,1.414,0.686C207.265,261.991,207.74,261.763,208.096,261.306z"/>
	<path fill="#222222" d="M215.282,256.538v5.92h-0.653v-0.946c-0.195,0.302-0.458,0.556-0.786,0.761
		c-0.329,0.203-0.693,0.307-1.094,0.307c-0.658,0-1.165-0.193-1.521-0.58s-0.533-0.9-0.533-1.541v-3.92h0.653v3.827
		c0,0.479,0.127,0.866,0.38,1.159c0.254,0.294,0.634,0.441,1.141,0.441c0.391,0,0.744-0.121,1.06-0.361
		c0.315-0.239,0.549-0.546,0.7-0.92v-4.146H215.282z"/>
	<path fill="#222222" d="M217.47,261.726c-0.48-0.569-0.72-1.312-0.72-2.228c0-0.915,0.239-1.657,0.72-2.227
		c0.479-0.569,1.111-0.854,1.894-0.854c0.613,0,1.117,0.167,1.514,0.5c0.395,0.333,0.646,0.78,0.753,1.341h-0.68
		c-0.089-0.392-0.271-0.696-0.547-0.914s-0.622-0.326-1.04-0.326c-0.578,0-1.047,0.227-1.407,0.68c-0.359,0.453-0.54,1.053-0.54,1.8
		s0.181,1.347,0.54,1.8c0.36,0.454,0.829,0.681,1.407,0.681c0.418,0,0.765-0.108,1.04-0.327c0.275-0.217,0.458-0.521,0.547-0.913
		h0.68c-0.106,0.56-0.358,1.007-0.753,1.341c-0.396,0.332-0.9,0.5-1.514,0.5C218.581,262.579,217.949,262.294,217.47,261.726z"/>
	<path fill="#222222" d="M223.069,262.458v-8.667h0.667v3.694c0.195-0.303,0.46-0.557,0.794-0.761
		c0.333-0.204,0.699-0.307,1.1-0.307c0.658,0,1.165,0.193,1.521,0.58s0.533,0.899,0.533,1.54v3.92h-0.653v-3.826
		c0-0.48-0.127-0.867-0.38-1.16c-0.254-0.293-0.634-0.44-1.141-0.44c-0.391,0-0.746,0.12-1.066,0.36s-0.556,0.547-0.707,0.92v4.146
		H223.069z"/>
</g>
<g>
	<path fill="none" stroke="#FF4848" stroke-linejoin="round" d="M330.024,151.562c9.679-5.198,9.99-5.852,19.065-0.55"/>
	<g>
		<polygon fill="#FF4848" points="344.174,152.911 343.947,151.937 348.752,150.829 347.297,146.118 348.254,145.823 
			350.025,151.562 		"/>
	</g>
</g>
<g>
	<path fill="none" stroke="#FF4848" stroke-linejoin="round" d="M350.025,154.062c-9.677,4.929-9.989,5.753-19.062,0.543"/>
	<g>
		<polygon fill="#FF4848" points="335.865,152.663 336.099,153.636 331.304,154.782 332.798,159.481 331.844,159.784 
			330.025,154.06 		"/>
	</g>
</g>
<g>
	<rect x="330.024" y="161.562" fill="none" width="92.23" height="10"/>
	<path fill="#222222" d="M334.999,165.322c0.178-0.319,0.431-0.589,0.76-0.807s0.689-0.327,1.08-0.327
		c0.578,0,1.022,0.188,1.334,0.561c0.311,0.373,0.467,0.867,0.467,1.48v4h-0.653v-3.906c0-0.472-0.107-0.843-0.32-1.114
		c-0.214-0.271-0.529-0.407-0.947-0.407c-0.355,0-0.675,0.116-0.96,0.348c-0.284,0.23-0.488,0.529-0.613,0.893v4.188h-0.666v-3.906
		c0-0.472-0.107-0.843-0.32-1.114c-0.214-0.271-0.529-0.407-0.947-0.407c-0.355,0-0.676,0.116-0.96,0.348
		c-0.284,0.23-0.488,0.529-0.613,0.893v4.188h-0.667v-5.92h0.667v0.906c0.16-0.303,0.389-0.549,0.687-0.74s0.638-0.287,1.021-0.287
		C334.173,164.188,334.724,164.567,334.999,165.322z"/>
	<path fill="#222222" d="M345,164.31v5.92h-0.653v-0.947c-0.195,0.303-0.458,0.557-0.786,0.761
		c-0.329,0.204-0.693,0.307-1.094,0.307c-0.658,0-1.165-0.193-1.521-0.58s-0.533-0.899-0.533-1.54v-3.92h0.653v3.826
		c0,0.48,0.127,0.867,0.38,1.16c0.254,0.293,0.634,0.44,1.141,0.44c0.391,0,0.744-0.12,1.06-0.36s0.549-0.547,0.7-0.92v-4.146H345z"
		/>
	<path fill="#222222" d="M346.348,168.696h0.666c0.24,0.72,0.791,1.08,1.653,1.08c0.427,0,0.773-0.094,1.041-0.28
		c0.267-0.187,0.399-0.458,0.399-0.813c0-0.498-0.364-0.849-1.093-1.053l-1.107-0.307c-0.934-0.25-1.4-0.748-1.4-1.494
		c0-0.498,0.191-0.896,0.574-1.193c0.382-0.298,0.857-0.447,1.427-0.447c0.604,0,1.095,0.143,1.473,0.428
		c0.378,0.284,0.62,0.68,0.728,1.187h-0.653c-0.231-0.694-0.747-1.04-1.547-1.04c-0.392,0-0.716,0.091-0.974,0.273
		c-0.258,0.182-0.387,0.438-0.387,0.767c0,0.267,0.082,0.466,0.246,0.6c0.165,0.134,0.438,0.253,0.82,0.36l1.054,0.293
		c0.986,0.258,1.48,0.796,1.48,1.613c0,0.525-0.196,0.936-0.587,1.234c-0.392,0.297-0.894,0.446-1.507,0.446
		c-0.604,0-1.118-0.147-1.54-0.44C346.691,169.616,346.437,169.212,346.348,168.696z"/>
	<path fill="#222222" d="M352.481,168.856v-3.975h-1.001v-0.572h1.001v-1.521h0.653v1.521h1.533v0.572h-1.533v3.908
		c0,0.639,0.284,0.959,0.853,0.959c0.285,0,0.556-0.075,0.813-0.227v0.627c-0.249,0.133-0.542,0.2-0.88,0.2
		c-0.444,0-0.796-0.127-1.053-0.38C352.609,169.716,352.481,169.345,352.481,168.856z"/>
	<path fill="#222222" d="M359.121,170.229v-5.92h0.667v0.946c0.195-0.302,0.46-0.556,0.794-0.761c0.333-0.203,0.699-0.307,1.1-0.307
		c0.658,0,1.165,0.193,1.521,0.58s0.533,0.9,0.533,1.541v3.92h-0.653v-3.827c0-0.479-0.127-0.866-0.38-1.159
		c-0.254-0.294-0.634-0.441-1.141-0.441c-0.391,0-0.746,0.121-1.066,0.361c-0.32,0.239-0.556,0.546-0.707,0.92v4.146H359.121z"/>
	<path fill="#222222" d="M369.649,165.042c0.484,0.569,0.727,1.312,0.727,2.227c0,0.916-0.242,1.658-0.727,2.228
		c-0.485,0.569-1.118,0.854-1.9,0.854s-1.414-0.284-1.894-0.854c-0.48-0.569-0.72-1.312-0.72-2.228c0-0.914,0.239-1.657,0.72-2.227
		c0.479-0.568,1.111-0.854,1.894-0.854S369.164,164.474,369.649,165.042z M369.176,169.076c0.355-0.458,0.533-1.06,0.533-1.808
		c0-0.746-0.178-1.348-0.533-1.807c-0.355-0.457-0.831-0.686-1.427-0.686c-0.587,0-1.059,0.229-1.414,0.686
		c-0.355,0.459-0.533,1.061-0.533,1.807c0,0.748,0.178,1.35,0.533,1.808s0.827,0.687,1.414,0.687
		C368.345,169.763,368.82,169.534,369.176,169.076z"/>
	<path fill="#222222" d="M372.109,168.856v-3.975h-1.001v-0.572h1.001v-1.521h0.653v1.521h1.533v0.572h-1.533v3.908
		c0,0.639,0.284,0.959,0.853,0.959c0.285,0,0.556-0.075,0.813-0.227v0.627c-0.249,0.133-0.542,0.2-0.88,0.2
		c-0.444,0-0.796-0.127-1.053-0.38C372.237,169.716,372.109,169.345,372.109,168.856z"/>
	<path fill="#222222" d="M379.017,168.856v-3.975h-1.001v-0.572h1.001v-1.521h0.653v1.521h1.533v0.572h-1.533v3.908
		c0,0.639,0.284,0.959,0.853,0.959c0.285,0,0.556-0.075,0.813-0.227v0.627c-0.249,0.133-0.542,0.2-0.88,0.2
		c-0.444,0-0.796-0.127-1.053-0.38C379.145,169.716,379.017,169.345,379.017,168.856z"/>
	<path fill="#222222" d="M386.73,165.042c0.484,0.569,0.727,1.312,0.727,2.227c0,0.916-0.242,1.658-0.727,2.228
		c-0.485,0.569-1.118,0.854-1.9,0.854s-1.414-0.284-1.894-0.854c-0.48-0.569-0.72-1.312-0.72-2.228c0-0.914,0.239-1.657,0.72-2.227
		c0.479-0.568,1.111-0.854,1.894-0.854S386.245,164.474,386.73,165.042z M386.257,169.076c0.355-0.458,0.533-1.06,0.533-1.808
		c0-0.746-0.178-1.348-0.533-1.807c-0.355-0.457-0.831-0.686-1.427-0.686c-0.587,0-1.059,0.229-1.414,0.686
		c-0.355,0.459-0.533,1.061-0.533,1.807c0,0.748,0.178,1.35,0.533,1.808s0.827,0.687,1.414,0.687
		C385.426,169.763,385.901,169.534,386.257,169.076z"/>
	<path fill="#222222" d="M393.443,164.31v5.92h-0.653v-0.947c-0.195,0.303-0.458,0.557-0.786,0.761
		c-0.329,0.204-0.693,0.307-1.094,0.307c-0.658,0-1.165-0.193-1.521-0.58s-0.533-0.899-0.533-1.54v-3.92h0.653v3.826
		c0,0.48,0.127,0.867,0.38,1.16c0.254,0.293,0.634,0.44,1.141,0.44c0.391,0,0.744-0.12,1.06-0.36s0.549-0.547,0.7-0.92v-4.146
		H393.443z"/>
	<path fill="#222222" d="M395.631,169.496c-0.48-0.569-0.72-1.312-0.72-2.228c0-0.914,0.239-1.657,0.72-2.227
		c0.479-0.568,1.111-0.854,1.894-0.854c0.613,0,1.117,0.168,1.514,0.5c0.395,0.334,0.646,0.781,0.753,1.341h-0.68
		c-0.089-0.392-0.271-0.696-0.547-0.913c-0.275-0.219-0.622-0.327-1.04-0.327c-0.578,0-1.047,0.227-1.407,0.681
		c-0.359,0.453-0.54,1.053-0.54,1.799c0,0.748,0.181,1.348,0.54,1.801c0.36,0.453,0.829,0.68,1.407,0.68
		c0.418,0,0.765-0.108,1.04-0.326s0.458-0.521,0.547-0.914h0.68c-0.106,0.561-0.358,1.008-0.753,1.341
		c-0.396,0.333-0.9,0.5-1.514,0.5C396.742,170.35,396.11,170.065,395.631,169.496z"/>
	<path fill="#222222" d="M401.23,170.229v-8.668h0.667v3.694c0.195-0.302,0.46-0.556,0.794-0.761c0.333-0.203,0.699-0.307,1.1-0.307
		c0.658,0,1.165,0.193,1.521,0.58s0.533,0.9,0.533,1.541v3.92h-0.653v-3.827c0-0.479-0.127-0.866-0.38-1.159
		c-0.254-0.294-0.634-0.441-1.141-0.441c-0.391,0-0.746,0.121-1.066,0.361c-0.32,0.239-0.556,0.546-0.707,0.92v4.146H401.23z"/>
</g>
<line fill="none" stroke="#FF4848" stroke-linejoin="round" stroke-miterlimit="10" x1="346.321" y1="141.561" x2="337.803" y2="151.562"/>
<line fill="none" stroke="#FF4848" stroke-linejoin="round" stroke-miterlimit="10" x1="342.803" y1="154.062" x2="337.803" y2="160.821"/>
<rect x="40.003" y="191.563" fill="#FFFFFF" stroke="#222222" stroke-linejoin="round" stroke-miterlimit="10" width="20.001" height="60.005"/>
<rect x="80.006" y="191.563" fill="#FFFFFF" stroke="#222222" stroke-linejoin="round" stroke-miterlimit="10" width="20.001" height="60.005"/>
<g>
	<path fill="none" stroke="#FF4848" stroke-linejoin="round" d="M180.013,90.124c9.679-5.197,9.99-5.852,19.066-0.549"/>
	<g>
		<polygon fill="#FF4848" points="194.163,91.475 193.937,90.5 198.742,89.393 197.286,84.681 198.243,84.386 200.014,90.125 		"/>
	</g>
</g>
<g>
	<path fill="none" stroke="#FF4848" stroke-linejoin="round" d="M200.015,92.625c-9.678,4.929-9.99,5.753-19.062,0.542"/>
	<g>
		<polygon fill="#FF4848" points="185.854,91.226 186.087,92.199 181.292,93.346 182.786,98.045 181.832,98.348 180.014,92.624 		
			"/>
	</g>
</g>
<line fill="none" stroke="#FF4848" stroke-linejoin="round" stroke-miterlimit="10" x1="196.31" y1="80.124" x2="187.791" y2="90.124"/>
<line fill="none" stroke="#FF4848" stroke-linejoin="round" stroke-miterlimit="10" x1="192.792" y1="92.625" x2="187.791" y2="99.384"/>
<g>
	<path fill="none" stroke="#FF4848" stroke-linejoin="round" d="M196.31,43.788c0,0,9.815-10.528,22.625-12.124"/>
	<g>
		<polygon fill="#FF4848" points="216.312,36.28 215.524,35.664 218.565,31.783 214.473,29.033 215.031,28.203 220.016,31.553 		"/>
	</g>
</g>
<g>
	<rect x="177.235" y="26.552" fill="none" width="50.004" height="10.001"/>
	<path fill="#222222" d="M178.477,34.486c-0.48-0.569-0.72-1.311-0.72-2.227c0-0.915,0.239-1.658,0.72-2.227
		c0.479-0.569,1.111-0.854,1.894-0.854c0.613,0,1.117,0.167,1.514,0.5c0.395,0.333,0.646,0.78,0.753,1.34h-0.68
		c-0.089-0.391-0.271-0.696-0.547-0.914s-0.622-0.327-1.04-0.327c-0.578,0-1.047,0.227-1.407,0.68c-0.359,0.453-0.54,1.053-0.54,1.8
		c0,0.747,0.181,1.347,0.54,1.8c0.36,0.454,0.829,0.68,1.407,0.68c0.418,0,0.765-0.109,1.04-0.327s0.458-0.522,0.547-0.914h0.68
		c-0.106,0.56-0.358,1.007-0.753,1.34c-0.396,0.333-0.9,0.5-1.514,0.5C179.588,35.339,178.956,35.055,178.477,34.486z"/>
	<path fill="#222222" d="M188.11,30.032c0.484,0.569,0.727,1.312,0.727,2.227c0,0.916-0.242,1.658-0.727,2.227
		c-0.485,0.569-1.118,0.854-1.9,0.854s-1.414-0.285-1.894-0.854c-0.48-0.569-0.72-1.311-0.72-2.227c0-0.915,0.239-1.658,0.72-2.227
		c0.479-0.569,1.111-0.854,1.894-0.854S187.625,29.463,188.11,30.032z M187.637,34.066c0.355-0.458,0.533-1.06,0.533-1.807
		c0-0.747-0.178-1.349-0.533-1.807c-0.355-0.458-0.831-0.687-1.427-0.687c-0.587,0-1.059,0.229-1.414,0.687
		c-0.355,0.458-0.533,1.06-0.533,1.807c0,0.747,0.178,1.349,0.533,1.807s0.827,0.687,1.414,0.687
		C186.806,34.752,187.281,34.524,187.637,34.066z"/>
	<path fill="#222222" d="M190.97,26.552v8.667h-0.667v-8.667H190.97z"/>
	<path fill="#222222" d="M196.95,30.032c0.484,0.569,0.727,1.312,0.727,2.227c0,0.916-0.242,1.658-0.727,2.227
		c-0.485,0.569-1.118,0.854-1.9,0.854s-1.414-0.285-1.894-0.854c-0.48-0.569-0.72-1.311-0.72-2.227c0-0.915,0.239-1.658,0.72-2.227
		c0.479-0.569,1.111-0.854,1.894-0.854S196.465,29.463,196.95,30.032z M196.477,34.066c0.355-0.458,0.533-1.06,0.533-1.807
		c0-0.747-0.178-1.349-0.533-1.807c-0.355-0.458-0.831-0.687-1.427-0.687c-0.587,0-1.059,0.229-1.414,0.687
		c-0.355,0.458-0.533,1.06-0.533,1.807c0,0.747,0.178,1.349,0.533,1.807s0.827,0.687,1.414,0.687
		C195.646,34.752,196.121,34.524,196.477,34.066z"/>
	<path fill="#222222" d="M201.93,29.259v0.653c-0.169-0.071-0.351-0.106-0.547-0.106c-0.355,0-0.671,0.115-0.946,0.347
		c-0.275,0.231-0.484,0.542-0.627,0.933v4.134h-0.667v-5.92h0.667v0.947c0.143-0.311,0.355-0.567,0.641-0.767
		c0.284-0.2,0.604-0.3,0.96-0.3C201.579,29.179,201.752,29.206,201.93,29.259z"/>
</g>
<g>
	<rect x="171.309" y="106.558" fill="none" width="50.004" height="10.001"/>
	<path fill="#222222" d="M172.255,115.225v-5.92h0.667v0.947c0.195-0.302,0.46-0.556,0.794-0.76c0.333-0.204,0.699-0.307,1.1-0.307
		c0.658,0,1.165,0.193,1.521,0.58s0.533,0.9,0.533,1.54v3.92h-0.653v-3.827c0-0.48-0.127-0.867-0.38-1.16
		c-0.254-0.293-0.634-0.44-1.141-0.44c-0.391,0-0.746,0.12-1.066,0.36c-0.32,0.24-0.556,0.546-0.707,0.92v4.147H172.255z"/>
	<path fill="#222222" d="M182.783,110.038c0.484,0.569,0.727,1.312,0.727,2.227c0,0.916-0.242,1.658-0.727,2.227
		c-0.485,0.569-1.118,0.854-1.9,0.854s-1.414-0.285-1.894-0.854c-0.48-0.569-0.72-1.311-0.72-2.227c0-0.915,0.239-1.658,0.72-2.227
		c0.479-0.569,1.111-0.854,1.894-0.854S182.298,109.469,182.783,110.038z M182.31,114.072c0.355-0.458,0.533-1.06,0.533-1.807
		c0-0.747-0.178-1.349-0.533-1.807c-0.355-0.458-0.831-0.687-1.427-0.687c-0.587,0-1.059,0.229-1.414,0.687
		c-0.355,0.458-0.533,1.06-0.533,1.807c0,0.747,0.178,1.349,0.533,1.807s0.827,0.687,1.414,0.687
		C181.479,114.758,181.954,114.53,182.31,114.072z"/>
	<path fill="#222222" d="M185.243,113.852v-3.974h-1.001v-0.573h1.001v-1.52h0.653v1.52h1.533v0.573h-1.533v3.907
		c0,0.64,0.284,0.96,0.853,0.96c0.285,0,0.556-0.076,0.813-0.227v0.626c-0.249,0.133-0.542,0.2-0.88,0.2
		c-0.444,0-0.796-0.127-1.053-0.38C185.371,114.712,185.243,114.341,185.243,113.852z"/>
	<path fill="#222222" d="M192.15,113.852v-3.974h-1.001v-0.573h1.001v-1.52h0.653v1.52h1.533v0.573h-1.533v3.907
		c0,0.64,0.284,0.96,0.853,0.96c0.285,0,0.556-0.076,0.813-0.227v0.626c-0.249,0.133-0.542,0.2-0.88,0.2
		c-0.444,0-0.796-0.127-1.053-0.38C192.278,114.712,192.15,114.341,192.15,113.852z"/>
	<path fill="#222222" d="M199.864,110.038c0.484,0.569,0.727,1.312,0.727,2.227c0,0.916-0.242,1.658-0.727,2.227
		c-0.485,0.569-1.118,0.854-1.9,0.854s-1.414-0.285-1.894-0.854c-0.48-0.569-0.72-1.311-0.72-2.227c0-0.915,0.239-1.658,0.72-2.227
		c0.479-0.569,1.111-0.854,1.894-0.854S199.379,109.469,199.864,110.038z M199.391,114.072c0.355-0.458,0.533-1.06,0.533-1.807
		c0-0.747-0.178-1.349-0.533-1.807c-0.355-0.458-0.831-0.687-1.427-0.687c-0.587,0-1.059,0.229-1.414,0.687
		c-0.355,0.458-0.533,1.06-0.533,1.807c0,0.747,0.178,1.349,0.533,1.807s0.827,0.687,1.414,0.687
		C198.56,114.758,199.035,114.53,199.391,114.072z"/>
	<path fill="#222222" d="M206.577,109.305v5.92h-0.653v-0.947c-0.195,0.302-0.458,0.556-0.786,0.76
		c-0.329,0.204-0.693,0.307-1.094,0.307c-0.658,0-1.165-0.193-1.521-0.58s-0.533-0.9-0.533-1.54v-3.92h0.653v3.827
		c0,0.48,0.127,0.867,0.38,1.16c0.254,0.293,0.634,0.44,1.141,0.44c0.391,0,0.744-0.12,1.06-0.36c0.315-0.24,0.549-0.546,0.7-0.92
		v-4.147H206.577z"/>
	<path fill="#222222" d="M208.765,114.492c-0.48-0.569-0.72-1.311-0.72-2.227c0-0.915,0.239-1.658,0.72-2.227
		c0.479-0.569,1.111-0.854,1.894-0.854c0.613,0,1.117,0.167,1.514,0.5c0.395,0.333,0.646,0.78,0.753,1.34h-0.68
		c-0.089-0.391-0.271-0.696-0.547-0.914s-0.622-0.327-1.04-0.327c-0.578,0-1.047,0.227-1.407,0.68c-0.359,0.453-0.54,1.053-0.54,1.8
		c0,0.747,0.181,1.347,0.54,1.8c0.36,0.454,0.829,0.68,1.407,0.68c0.418,0,0.765-0.109,1.04-0.327s0.458-0.522,0.547-0.914h0.68
		c-0.106,0.56-0.358,1.007-0.753,1.34c-0.396,0.333-0.9,0.5-1.514,0.5C209.876,115.345,209.244,115.061,208.765,114.492z"/>
	<path fill="#222222" d="M214.364,115.225v-8.667h0.667v3.694c0.195-0.302,0.46-0.556,0.794-0.76c0.333-0.204,0.699-0.307,1.1-0.307
		c0.658,0,1.165,0.193,1.521,0.58s0.533,0.9,0.533,1.54v3.92h-0.653v-3.827c0-0.48-0.127-0.867-0.38-1.16
		c-0.254-0.293-0.634-0.44-1.141-0.44c-0.391,0-0.746,0.12-1.066,0.36c-0.32,0.24-0.556,0.546-0.707,0.92v4.147H214.364z"/>
</g>
<line fill="none" stroke="#222222" stroke-linejoin="round" stroke-miterlimit="10" x1="194.275" y1="233.976" x2="190.014" y2="241.567"/>
<line fill="none" stroke="#222222" stroke-linejoin="round" stroke-miterlimit="10" x1="190.014" y1="245.272" x2="185.941" y2="251.568"/>
<g>
	<path fill="none" stroke="#222222" stroke-linejoin="round" d="M196.31,192.96c0,0,9.815-10.529,22.625-12.124"/>
	<g>
		<polygon fill="#222222" points="216.312,185.452 215.524,184.835 218.565,180.954 214.473,178.204 215.031,177.374 
			220.016,180.725 		"/>
	</g>
</g>
<g>
	<rect x="177.235" y="175.724" fill="none" width="50.004" height="10.001"/>
	<path fill="#222222" d="M178.477,183.657c-0.48-0.568-0.72-1.311-0.72-2.227c0-0.915,0.239-1.658,0.72-2.227
		c0.479-0.569,1.111-0.854,1.894-0.854c0.613,0,1.117,0.167,1.514,0.5c0.395,0.333,0.646,0.78,0.753,1.34h-0.68
		c-0.089-0.391-0.271-0.695-0.547-0.913s-0.622-0.327-1.04-0.327c-0.578,0-1.047,0.227-1.407,0.681
		c-0.359,0.453-0.54,1.053-0.54,1.8s0.181,1.347,0.54,1.8c0.36,0.454,0.829,0.681,1.407,0.681c0.418,0,0.765-0.109,1.04-0.327
		s0.458-0.521,0.547-0.913h0.68c-0.106,0.56-0.358,1.007-0.753,1.34c-0.396,0.333-0.9,0.5-1.514,0.5
		C179.588,184.511,178.956,184.227,178.477,183.657z"/>
	<path fill="#222222" d="M188.11,179.204c0.484,0.568,0.727,1.312,0.727,2.227c0,0.916-0.242,1.658-0.727,2.227
		c-0.485,0.569-1.118,0.854-1.9,0.854s-1.414-0.284-1.894-0.854c-0.48-0.568-0.72-1.311-0.72-2.227c0-0.915,0.239-1.658,0.72-2.227
		c0.479-0.569,1.111-0.854,1.894-0.854S187.625,178.635,188.11,179.204z M187.637,183.237c0.355-0.458,0.533-1.06,0.533-1.807
		s-0.178-1.349-0.533-1.807s-0.831-0.687-1.427-0.687c-0.587,0-1.059,0.229-1.414,0.687s-0.533,1.06-0.533,1.807
		s0.178,1.349,0.533,1.807s0.827,0.687,1.414,0.687C186.806,183.924,187.281,183.695,187.637,183.237z"/>
	<path fill="#222222" d="M190.97,175.724v8.667h-0.667v-8.667H190.97z"/>
	<path fill="#222222" d="M196.95,179.204c0.484,0.568,0.727,1.312,0.727,2.227c0,0.916-0.242,1.658-0.727,2.227
		c-0.485,0.569-1.118,0.854-1.9,0.854s-1.414-0.284-1.894-0.854c-0.48-0.568-0.72-1.311-0.72-2.227c0-0.915,0.239-1.658,0.72-2.227
		c0.479-0.569,1.111-0.854,1.894-0.854S196.465,178.635,196.95,179.204z M196.477,183.237c0.355-0.458,0.533-1.06,0.533-1.807
		s-0.178-1.349-0.533-1.807s-0.831-0.687-1.427-0.687c-0.587,0-1.059,0.229-1.414,0.687s-0.533,1.06-0.533,1.807
		s0.178,1.349,0.533,1.807s0.827,0.687,1.414,0.687C195.646,183.924,196.121,183.695,196.477,183.237z"/>
	<path fill="#222222" d="M201.93,178.431v0.653c-0.169-0.071-0.351-0.106-0.547-0.106c-0.355,0-0.671,0.115-0.946,0.347
		c-0.275,0.23-0.484,0.542-0.627,0.933v4.134h-0.667v-5.92h0.667v0.946c0.143-0.311,0.355-0.566,0.641-0.767
		c0.284-0.2,0.604-0.3,0.96-0.3C201.579,178.351,201.752,178.377,201.93,178.431z"/>
</g>
<g>
	<rect x="223.906" y="174.612" fill="none" width="50.003" height="10.001"/>
	<path fill="#222222" d="M228.213,177.358l1.414,4.881l1.453-4.881h0.64l-1.786,5.921h-0.573l-1.427-4.894l-1.427,4.894h-0.574
		l-1.786-5.921h0.653l1.453,4.881l1.414-4.881H228.213z"/>
	<path fill="#222222" d="M232.906,183.279v-8.667h0.667v3.693c0.195-0.303,0.46-0.556,0.794-0.76c0.333-0.205,0.699-0.307,1.1-0.307
		c0.658,0,1.165,0.193,1.521,0.58s0.533,0.899,0.533,1.539v3.921h-0.653v-3.827c0-0.48-0.127-0.867-0.38-1.16
		c-0.254-0.293-0.634-0.439-1.141-0.439c-0.391,0-0.746,0.119-1.066,0.359s-0.556,0.547-0.707,0.92v4.147H232.906z"/>
	<path fill="#222222" d="M240.001,175.239c0.088,0.088,0.133,0.195,0.133,0.319s-0.045,0.231-0.133,0.32
		c-0.09,0.089-0.196,0.134-0.32,0.134c-0.125,0-0.231-0.045-0.32-0.134s-0.133-0.196-0.133-0.32s0.044-0.231,0.133-0.319
		c0.089-0.09,0.195-0.134,0.32-0.134C239.805,175.105,239.911,175.149,240.001,175.239z M240.014,177.358v5.921h-0.667v-5.921
		H240.014z"/>
	<path fill="#222222" d="M242.174,181.905v-3.973h-1.001v-0.574h1.001v-1.52h0.653v1.52h1.533v0.574h-1.533v3.906
		c0,0.641,0.284,0.961,0.853,0.961c0.285,0,0.556-0.076,0.813-0.227v0.626c-0.249,0.134-0.542,0.2-0.88,0.2
		c-0.444,0-0.796-0.127-1.053-0.381C242.302,182.767,242.174,182.396,242.174,181.905z"/>
	<path fill="#222222" d="M249.654,181.56h0.64c-0.115,0.56-0.376,1.006-0.78,1.34c-0.404,0.333-0.909,0.5-1.514,0.5
		c-0.782,0-1.415-0.285-1.899-0.854c-0.485-0.568-0.727-1.311-0.727-2.227c0-0.898,0.237-1.636,0.713-2.214
		c0.476-0.577,1.108-0.866,1.9-0.866c0.765,0,1.355,0.264,1.773,0.793s0.627,1.229,0.627,2.1v0.24h-4.36
		c0.009,0.747,0.195,1.34,0.56,1.78s0.836,0.66,1.413,0.66c0.418,0,0.776-0.11,1.074-0.333
		C249.371,182.257,249.564,181.95,249.654,181.56z M247.987,177.825c-0.533,0-0.972,0.183-1.313,0.547
		c-0.343,0.365-0.549,0.858-0.62,1.48h3.667c-0.019-0.568-0.174-1.049-0.467-1.44S248.538,177.825,247.987,177.825z"/>
</g>
<g>
	<path fill="none" stroke="#FF4848" stroke-linejoin="round" d="M346.877,103.844c0,0,9.815-10.528,22.625-12.124"/>
	<g>
		<polygon fill="#FF4848" points="366.88,96.335 366.092,95.719 369.133,91.838 365.04,89.088 365.599,88.258 370.583,91.608 		"/>
	</g>
</g>
<g>
	<rect x="327.803" y="86.607" fill="none" width="50.004" height="10.001"/>
	<path fill="#222222" d="M329.043,94.541c-0.48-0.569-0.72-1.311-0.72-2.227c0-0.915,0.239-1.658,0.72-2.227
		c0.479-0.569,1.111-0.854,1.894-0.854c0.613,0,1.117,0.167,1.514,0.5c0.395,0.333,0.646,0.78,0.753,1.34h-0.68
		c-0.089-0.391-0.271-0.696-0.547-0.914s-0.622-0.327-1.04-0.327c-0.578,0-1.047,0.227-1.407,0.68c-0.359,0.453-0.54,1.053-0.54,1.8
		c0,0.747,0.181,1.347,0.54,1.8c0.36,0.454,0.829,0.68,1.407,0.68c0.418,0,0.765-0.109,1.04-0.327s0.458-0.522,0.547-0.914h0.68
		c-0.106,0.56-0.358,1.007-0.753,1.34c-0.396,0.333-0.9,0.5-1.514,0.5C330.154,95.395,329.522,95.11,329.043,94.541z"/>
	<path fill="#222222" d="M338.677,90.087c0.484,0.569,0.727,1.312,0.727,2.227c0,0.916-0.242,1.658-0.727,2.227
		c-0.485,0.569-1.118,0.854-1.9,0.854s-1.414-0.285-1.894-0.854c-0.48-0.569-0.72-1.311-0.72-2.227c0-0.915,0.239-1.658,0.72-2.227
		c0.479-0.569,1.111-0.854,1.894-0.854S338.191,89.519,338.677,90.087z M338.203,94.121c0.355-0.458,0.533-1.06,0.533-1.807
		c0-0.747-0.178-1.349-0.533-1.807c-0.355-0.458-0.831-0.687-1.427-0.687c-0.587,0-1.059,0.229-1.414,0.687
		c-0.355,0.458-0.533,1.06-0.533,1.807c0,0.747,0.178,1.349,0.533,1.807s0.827,0.687,1.414,0.687
		C337.372,94.808,337.848,94.579,338.203,94.121z"/>
	<path fill="#222222" d="M341.536,86.607v8.667h-0.667v-8.667H341.536z"/>
	<path fill="#222222" d="M347.517,90.087c0.484,0.569,0.727,1.312,0.727,2.227c0,0.916-0.242,1.658-0.727,2.227
		c-0.485,0.569-1.118,0.854-1.9,0.854s-1.414-0.285-1.894-0.854c-0.48-0.569-0.72-1.311-0.72-2.227c0-0.915,0.239-1.658,0.72-2.227
		c0.479-0.569,1.111-0.854,1.894-0.854S347.031,89.519,347.517,90.087z M347.043,94.121c0.355-0.458,0.533-1.06,0.533-1.807
		c0-0.747-0.178-1.349-0.533-1.807c-0.355-0.458-0.831-0.687-1.427-0.687c-0.587,0-1.059,0.229-1.414,0.687
		c-0.355,0.458-0.533,1.06-0.533,1.807c0,0.747,0.178,1.349,0.533,1.807s0.827,0.687,1.414,0.687
		C346.212,94.808,346.688,94.579,347.043,94.121z"/>
	<path fill="#222222" d="M352.496,89.314v0.653c-0.169-0.071-0.351-0.106-0.547-0.106c-0.355,0-0.671,0.115-0.946,0.347
		c-0.275,0.231-0.484,0.542-0.627,0.933v4.134h-0.667v-5.92h0.667v0.947c0.143-0.311,0.355-0.567,0.641-0.767
		c0.284-0.2,0.604-0.3,0.96-0.3C352.146,89.234,352.318,89.261,352.496,89.314z"/>
</g>
<g>
	<rect x="374.473" y="85.496" fill="none" width="92.229" height="21.062"/>
	<path fill="#222222" d="M380.26,91.253l3.018-1.276l0.436,1.369l-3.235,0.716l2.178,2.582l-1.183,0.809l-1.711-2.8l-1.711,2.832
		l-1.151-0.872l2.146-2.551l-3.235-0.716l0.467-1.338l3.018,1.245l-0.249-3.298h1.432L380.26,91.253z"/>
</g>
<g>
	<rect x="333.358" y="30.726" fill="none" width="80.006" height="20.002"/>
	<path fill="#AFC6F9" d="M333.785,36.512c0-1.396,0.406-2.613,1.22-3.653s1.918-1.751,3.313-2.134l-0.187,1.08
		c-0.969,0.276-1.767,0.842-2.394,1.7c-0.626,0.858-0.939,1.86-0.939,3.007c0,0.765,0.178,1.4,0.533,1.907
		c0.355,0.507,0.845,0.849,1.467,1.027l-0.2,1.067c-0.88-0.276-1.569-0.758-2.066-1.447
		C334.034,38.376,333.785,37.525,333.785,36.512z"/>
	<path fill="#AFC6F9" d="M341.919,37.619h1.014c-0.178,0.569-0.5,1.027-0.967,1.374s-1.021,0.52-1.66,0.52
		c-0.756,0-1.352-0.235-1.787-0.707c-0.436-0.471-0.653-1.102-0.653-1.893c0-0.934,0.284-1.76,0.854-2.48s1.324-1.08,2.267-1.08
		c0.712,0,1.256,0.211,1.634,0.633c0.378,0.422,0.566,0.998,0.566,1.727c0,0.231-0.035,0.533-0.106,0.907h-4.2
		c-0.009,0.071-0.014,0.169-0.014,0.293c0,0.551,0.129,0.98,0.387,1.287s0.627,0.46,1.107,0.46c0.355,0,0.673-0.091,0.953-0.273
		C341.593,38.203,341.795,37.948,341.919,37.619z M340.945,34.205c-0.479,0-0.884,0.153-1.213,0.46s-0.569,0.705-0.72,1.193h3.187
		c0.009-0.062,0.014-0.146,0.014-0.253c0-0.4-0.109-0.733-0.327-1S341.354,34.205,340.945,34.205z"/>
	<path fill="#AFC6F9" d="M349.76,33.472l-2.681,2.907l1.601,3.014h-1.04l-1.228-2.32l-2.093,2.32h-1.147l2.827-3.067l-1.507-2.854
		h1.054l1.12,2.16l1.946-2.16H349.76z"/>
	<path fill="#AFC6F9" d="M354.827,35.458l-0.68,3.934h-0.974l0.066-0.44c-0.382,0.365-0.897,0.546-1.547,0.546
		c-0.568,0-1.042-0.155-1.42-0.466s-0.566-0.72-0.566-1.227c0-0.604,0.248-1.098,0.746-1.48s1.089-0.573,1.773-0.573
		c0.667,0,1.16,0.169,1.48,0.506l0.146-0.773c0.018-0.142,0.027-0.249,0.027-0.32c0-0.284-0.09-0.513-0.268-0.687
		s-0.439-0.26-0.786-0.26c-0.632,0-1.098,0.271-1.4,0.813h-0.986c0.187-0.507,0.504-0.914,0.953-1.22s0.962-0.46,1.54-0.46
		c0.604,0,1.078,0.156,1.42,0.467c0.343,0.311,0.514,0.729,0.514,1.253C354.867,35.178,354.854,35.308,354.827,35.458z
		 M353.414,37.925l0.12-0.613c-0.054-0.213-0.203-0.389-0.447-0.527c-0.244-0.138-0.531-0.207-0.86-0.207
		c-0.408,0-0.771,0.102-1.086,0.307c-0.316,0.205-0.474,0.493-0.474,0.867c0,0.276,0.122,0.496,0.366,0.66
		c0.245,0.165,0.536,0.247,0.874,0.247c0.328,0,0.633-0.067,0.913-0.2S353.298,38.147,353.414,37.925z"/>
	<path fill="#AFC6F9" d="M360.921,34.298c0.533-0.631,1.16-0.947,1.88-0.947c0.533,0,0.94,0.153,1.22,0.46
		c0.28,0.307,0.42,0.705,0.42,1.193c0,0.169-0.013,0.333-0.04,0.494l-0.68,3.894h-1.014l0.641-3.667
		c0.035-0.187,0.053-0.351,0.053-0.493c0-0.64-0.298-0.96-0.893-0.96c-0.623,0-1.13,0.369-1.521,1.107l-0.693,4.014h-1.014
		l0.641-3.667c0.035-0.284,0.053-0.449,0.053-0.493c0-0.64-0.298-0.96-0.894-0.96c-0.319,0-0.611,0.105-0.873,0.313
		c-0.263,0.209-0.478,0.474-0.646,0.793l-0.707,4.014h-1l1.04-5.92h1l-0.133,0.76c0.471-0.587,1.044-0.88,1.72-0.88
		c0.364,0,0.674,0.089,0.927,0.267C360.66,33.796,360.832,34.023,360.921,34.298z"/>
	<path fill="#AFC6F9" d="M366.548,38.686l-0.534,2.973h-1l1.44-8.187h1l-0.133,0.733c0.488-0.569,1.08-0.854,1.773-0.854
		c0.711,0,1.253,0.233,1.626,0.7c0.374,0.467,0.561,1.078,0.561,1.833c0,0.996-0.296,1.849-0.887,2.56
		c-0.592,0.711-1.34,1.067-2.247,1.067c-0.382,0-0.713-0.08-0.993-0.24C366.874,39.112,366.672,38.917,366.548,38.686z
		 M367.134,35.298l-0.413,2.333c0.223,0.649,0.688,0.974,1.4,0.974c0.667,0,1.191-0.265,1.573-0.793s0.573-1.171,0.573-1.927
		c0-0.489-0.12-0.882-0.36-1.18c-0.239-0.298-0.582-0.447-1.026-0.447C368.205,34.258,367.623,34.605,367.134,35.298z"/>
	<path fill="#AFC6F9" d="M374.655,30.725l-1.521,8.667h-1l1.521-8.667H374.655z"/>
	<path fill="#AFC6F9" d="M379.042,37.619h1.014c-0.178,0.569-0.5,1.027-0.967,1.374s-1.021,0.52-1.66,0.52
		c-0.756,0-1.352-0.235-1.787-0.707c-0.436-0.471-0.653-1.102-0.653-1.893c0-0.934,0.284-1.76,0.854-2.48s1.324-1.08,2.267-1.08
		c0.712,0,1.256,0.211,1.634,0.633c0.378,0.422,0.566,0.998,0.566,1.727c0,0.231-0.035,0.533-0.106,0.907h-4.2
		c-0.009,0.071-0.014,0.169-0.014,0.293c0,0.551,0.129,0.98,0.387,1.287s0.627,0.46,1.107,0.46c0.355,0,0.673-0.091,0.953-0.273
		C378.716,38.203,378.918,37.948,379.042,37.619z M378.068,34.205c-0.479,0-0.884,0.153-1.213,0.46s-0.569,0.705-0.72,1.193h3.187
		c0.009-0.062,0.014-0.146,0.014-0.253c0-0.4-0.109-0.733-0.327-1S378.478,34.205,378.068,34.205z"/>
	<path fill="#AFC6F9" d="M384.948,34.725c0,1.396-0.406,2.613-1.22,3.654c-0.813,1.04-1.918,1.751-3.313,2.133l0.187-1.08
		c0.969-0.275,1.767-0.842,2.394-1.7s0.939-1.86,0.939-3.007c0-0.765-0.178-1.4-0.533-1.907s-0.845-0.849-1.467-1.027l0.2-1.067
		c0.88,0.276,1.569,0.758,2.067,1.447C384.699,32.86,384.948,33.711,384.948,34.725z"/>
</g>
<polygon fill="#FFFFFF" stroke="#222222" stroke-linejoin="round" stroke-miterlimit="10" points="70.005,163.413 113.003,191.563 
	27.07,191.563 "/>
<g>
	<path fill="none" stroke="#222222" stroke-linejoin="round" d="M180.013,199.714c0,0-13.818,7.444-21.765,0.738"/>
	<g>
		<polygon fill="#222222" points="163.415,198.982 163.538,199.976 158.644,200.575 159.599,205.413 158.616,205.605 
			157.455,199.713 		"/>
	</g>
</g>
<g>
	<rect x="130.01" y="185.725" fill="none" width="50.004" height="10"/>
	<path fill="#222222" d="M134.316,188.471l1.414,4.88l1.453-4.88h0.64l-1.786,5.921h-0.573l-1.427-4.895l-1.427,4.895h-0.574
		l-1.786-5.921h0.653l1.453,4.88l1.414-4.88H134.316z"/>
	<path fill="#222222" d="M142.864,192.671h0.64c-0.115,0.561-0.376,1.007-0.78,1.34c-0.404,0.334-0.909,0.5-1.514,0.5
		c-0.782,0-1.415-0.284-1.899-0.854c-0.485-0.568-0.727-1.311-0.727-2.227c0-0.897,0.237-1.635,0.713-2.213s1.108-0.867,1.9-0.867
		c0.765,0,1.355,0.265,1.773,0.793c0.418,0.529,0.627,1.229,0.627,2.101v0.24h-4.36c0.009,0.747,0.195,1.34,0.56,1.78
		c0.364,0.439,0.836,0.66,1.413,0.66c0.418,0,0.776-0.111,1.074-0.334C142.581,193.369,142.774,193.062,142.864,192.671z
		 M141.197,188.938c-0.533,0-0.972,0.183-1.313,0.546c-0.343,0.365-0.549,0.859-0.62,1.48h3.667
		c-0.019-0.568-0.174-1.049-0.467-1.439C142.171,189.133,141.748,188.938,141.197,188.938z"/>
	<path fill="#222222" d="M149.064,194.392v-0.881c-0.178,0.275-0.434,0.512-0.767,0.707c-0.334,0.195-0.691,0.293-1.074,0.293
		c-0.835,0-1.476-0.295-1.92-0.887c-0.444-0.591-0.666-1.322-0.666-2.193s0.222-1.602,0.666-2.193
		c0.444-0.591,1.085-0.887,1.92-0.887c0.383,0,0.74,0.098,1.074,0.293c0.333,0.196,0.589,0.432,0.767,0.707v-3.627h0.653v8.668
		H149.064z M149.064,192.724v-2.586c-0.196-0.373-0.451-0.662-0.767-0.867c-0.316-0.204-0.656-0.307-1.021-0.307
		c-0.604,0-1.085,0.229-1.44,0.688c-0.355,0.457-0.533,1.051-0.533,1.779s0.178,1.322,0.533,1.78s0.836,0.687,1.44,0.687
		c0.364,0,0.704-0.102,1.021-0.307C148.613,193.387,148.868,193.098,149.064,192.724z"/>
	<path fill="#222222" d="M155.571,194.005v-0.627c-0.178,0.275-0.431,0.506-0.76,0.693c-0.329,0.187-0.685,0.279-1.066,0.279
		c-0.818,0-1.447-0.288-1.888-0.866c-0.439-0.577-0.659-1.289-0.659-2.134c0-0.844,0.22-1.555,0.659-2.133
		c0.44-0.578,1.069-0.867,1.888-0.867c0.382,0,0.737,0.096,1.066,0.287s0.582,0.424,0.76,0.699v-0.866h0.667v5.493
		c0,0.907-0.225,1.603-0.674,2.088c-0.448,0.484-1.056,0.727-1.819,0.727c-0.676,0-1.223-0.158-1.641-0.474s-0.68-0.759-0.787-1.327
		h0.667c0.195,0.818,0.782,1.227,1.761,1.227c0.586,0,1.037-0.186,1.353-0.56S155.571,194.725,155.571,194.005z M155.571,192.604
		v-2.494c-0.195-0.363-0.446-0.646-0.753-0.846c-0.307-0.201-0.643-0.301-1.007-0.301c-0.604,0-1.08,0.221-1.427,0.66
		s-0.521,1.016-0.521,1.727c0,0.721,0.174,1.301,0.521,1.74c0.347,0.44,0.822,0.66,1.427,0.66c0.364,0,0.7-0.1,1.007-0.3
		S155.376,192.969,155.571,192.604z"/>
	<path fill="#222222" d="M161.985,192.671h0.64c-0.115,0.561-0.376,1.007-0.78,1.34c-0.404,0.334-0.909,0.5-1.514,0.5
		c-0.782,0-1.415-0.284-1.899-0.854c-0.485-0.568-0.727-1.311-0.727-2.227c0-0.897,0.237-1.635,0.713-2.213s1.108-0.867,1.9-0.867
		c0.765,0,1.355,0.265,1.773,0.793c0.418,0.529,0.627,1.229,0.627,2.101v0.24h-4.36c0.009,0.747,0.195,1.34,0.56,1.78
		c0.364,0.439,0.836,0.66,1.413,0.66c0.418,0,0.776-0.111,1.074-0.334C161.702,193.369,161.896,193.062,161.985,192.671z
		 M160.318,188.938c-0.533,0-0.972,0.183-1.313,0.546c-0.343,0.365-0.549,0.859-0.62,1.48h3.667
		c-0.019-0.568-0.174-1.049-0.467-1.439C161.292,189.133,160.869,188.938,160.318,188.938z"/>
</g>
<g>
	<rect x="285.021" y="84.046" fill="none" width="50.004" height="27.36"/>
	<path fill="#222222" d="M286.635,91.833v0.88h-0.653v-8.667h0.653v3.627c0.178-0.275,0.434-0.511,0.767-0.707
		c0.334-0.195,0.691-0.293,1.073-0.293c0.836,0,1.476,0.296,1.921,0.887c0.444,0.591,0.666,1.322,0.666,2.193
		c0,0.872-0.222,1.603-0.666,2.194c-0.445,0.591-1.085,0.887-1.921,0.887c-0.382,0-0.739-0.098-1.073-0.293
		C287.068,92.344,286.812,92.108,286.635,91.833z M286.635,88.459v2.586c0.195,0.374,0.451,0.663,0.767,0.867
		c0.315,0.205,0.655,0.307,1.021,0.307c0.604,0,1.084-0.229,1.44-0.687c0.355-0.458,0.533-1.051,0.533-1.78
		c0-0.729-0.178-1.322-0.533-1.78c-0.356-0.458-0.836-0.687-1.44-0.687c-0.365,0-0.705,0.103-1.021,0.307
		C287.086,87.796,286.83,88.085,286.635,88.459z"/>
	<path fill="#222222" d="M295.315,86.752v0.653c-0.169-0.071-0.351-0.106-0.547-0.106c-0.355,0-0.671,0.115-0.946,0.347
		c-0.275,0.231-0.484,0.542-0.627,0.933v4.134h-0.667v-5.92h0.667v0.947c0.143-0.311,0.355-0.567,0.641-0.767
		c0.284-0.2,0.604-0.3,0.96-0.3C294.965,86.672,295.138,86.699,295.315,86.752z"/>
	<path fill="#222222" d="M297.196,84.672c0.088,0.089,0.133,0.196,0.133,0.32c0,0.125-0.045,0.231-0.133,0.32
		c-0.09,0.089-0.196,0.133-0.32,0.133c-0.125,0-0.231-0.044-0.32-0.133s-0.133-0.196-0.133-0.32c0-0.124,0.044-0.231,0.133-0.32
		s0.195-0.133,0.32-0.133C297,84.539,297.106,84.583,297.196,84.672z M297.209,86.792v5.92h-0.667v-5.92H297.209z"/>
	<path fill="#222222" d="M299.396,91.979c-0.48-0.569-0.72-1.311-0.72-2.227c0-0.915,0.239-1.658,0.72-2.227
		c0.479-0.569,1.111-0.854,1.894-0.854c0.613,0,1.117,0.167,1.514,0.5c0.395,0.333,0.646,0.78,0.753,1.34h-0.68
		c-0.089-0.391-0.271-0.696-0.547-0.914s-0.622-0.327-1.04-0.327c-0.578,0-1.047,0.227-1.407,0.68c-0.359,0.453-0.54,1.053-0.54,1.8
		c0,0.747,0.181,1.347,0.54,1.8c0.36,0.454,0.829,0.68,1.407,0.68c0.418,0,0.765-0.109,1.04-0.327s0.458-0.522,0.547-0.914h0.68
		c-0.106,0.56-0.358,1.007-0.753,1.34c-0.396,0.333-0.9,0.5-1.514,0.5C300.507,92.833,299.875,92.548,299.396,91.979z"/>
	<path fill="#222222" d="M308.956,92.712l-2.573-2.96l-0.721,0.667v2.293h-0.667v-8.667h0.667v5.601l3.134-2.854h0.88l-2.813,2.547
		l2.907,3.374H308.956z"/>
	<path fill="#222222" d="M310.396,94.059l0.72-1.333c-0.267-0.053-0.399-0.213-0.399-0.48c0-0.142,0.046-0.262,0.14-0.36
		s0.211-0.147,0.354-0.147c0.15,0,0.273,0.049,0.366,0.147c0.094,0.098,0.141,0.227,0.141,0.387s-0.067,0.355-0.2,0.586l-0.641,1.2
		H310.396z"/>
	<path fill="#222222" d="M289.328,97.904l1.414,4.88l1.453-4.88h0.64l-1.786,5.92h-0.573l-1.427-4.894l-1.427,4.894h-0.574
		l-1.786-5.92h0.653l1.453,4.88l1.414-4.88H289.328z"/>
	<path fill="#222222" d="M297.876,102.104h0.64c-0.115,0.56-0.376,1.007-0.78,1.34c-0.404,0.333-0.909,0.5-1.514,0.5
		c-0.782,0-1.415-0.285-1.899-0.854c-0.485-0.569-0.727-1.311-0.727-2.227c0-0.897,0.237-1.635,0.713-2.213
		c0.476-0.578,1.108-0.867,1.9-0.867c0.765,0,1.355,0.265,1.773,0.793s0.627,1.229,0.627,2.1v0.24h-4.36
		c0.009,0.747,0.195,1.34,0.56,1.78c0.364,0.44,0.836,0.66,1.413,0.66c0.418,0,0.776-0.111,1.074-0.333
		C297.593,102.803,297.786,102.496,297.876,102.104z M296.209,98.371c-0.533,0-0.972,0.182-1.313,0.546
		c-0.343,0.365-0.549,0.858-0.62,1.48h3.667c-0.019-0.569-0.174-1.049-0.467-1.44C297.183,98.566,296.76,98.371,296.209,98.371z"/>
	<path fill="#222222" d="M304.076,103.825v-0.88c-0.178,0.275-0.434,0.511-0.767,0.707c-0.334,0.195-0.691,0.293-1.074,0.293
		c-0.835,0-1.476-0.295-1.92-0.887s-0.666-1.322-0.666-2.194c0-0.871,0.222-1.602,0.666-2.193c0.444-0.591,1.085-0.887,1.92-0.887
		c0.383,0,0.74,0.098,1.074,0.293c0.333,0.196,0.589,0.431,0.767,0.707v-3.627h0.653v8.667H304.076z M304.076,102.158v-2.586
		c-0.196-0.374-0.451-0.663-0.767-0.867c-0.316-0.204-0.656-0.307-1.021-0.307c-0.604,0-1.085,0.229-1.44,0.687
		s-0.533,1.051-0.533,1.78c0,0.729,0.178,1.323,0.533,1.78c0.355,0.458,0.836,0.687,1.44,0.687c0.364,0,0.704-0.103,1.021-0.307
		C303.625,102.82,303.88,102.531,304.076,102.158z"/>
	<path fill="#222222" d="M310.583,103.438v-0.626c-0.178,0.275-0.431,0.506-0.76,0.693c-0.329,0.187-0.685,0.28-1.066,0.28
		c-0.818,0-1.447-0.289-1.888-0.867c-0.439-0.578-0.659-1.289-0.659-2.133c0-0.845,0.22-1.556,0.659-2.134
		c0.44-0.578,1.069-0.867,1.888-0.867c0.382,0,0.737,0.096,1.066,0.287c0.329,0.191,0.582,0.425,0.76,0.7v-0.867h0.667v5.494
		c0,0.907-0.225,1.602-0.674,2.087c-0.448,0.484-1.056,0.727-1.819,0.727c-0.676,0-1.223-0.158-1.641-0.473
		c-0.418-0.316-0.68-0.758-0.787-1.327h0.667c0.195,0.817,0.782,1.227,1.761,1.227c0.586,0,1.037-0.187,1.353-0.56
		S310.583,104.158,310.583,103.438z M310.583,102.038v-2.494c-0.195-0.364-0.446-0.647-0.753-0.847c-0.307-0.2-0.643-0.3-1.007-0.3
		c-0.604,0-1.08,0.22-1.427,0.66s-0.521,1.016-0.521,1.727c0,0.72,0.174,1.3,0.521,1.74c0.347,0.44,0.822,0.66,1.427,0.66
		c0.364,0,0.7-0.1,1.007-0.3C310.137,102.685,310.388,102.402,310.583,102.038z"/>
	<path fill="#222222" d="M316.997,102.104h0.64c-0.115,0.56-0.376,1.007-0.78,1.34c-0.404,0.333-0.909,0.5-1.514,0.5
		c-0.782,0-1.415-0.285-1.899-0.854c-0.485-0.569-0.727-1.311-0.727-2.227c0-0.897,0.237-1.635,0.713-2.213
		c0.476-0.578,1.108-0.867,1.9-0.867c0.765,0,1.355,0.265,1.773,0.793s0.627,1.229,0.627,2.1v0.24h-4.36
		c0.009,0.747,0.195,1.34,0.56,1.78c0.364,0.44,0.836,0.66,1.413,0.66c0.418,0,0.776-0.111,1.074-0.333
		C316.714,102.803,316.907,102.496,316.997,102.104z M315.33,98.371c-0.533,0-0.972,0.182-1.313,0.546
		c-0.343,0.365-0.549,0.858-0.62,1.48h3.667c-0.019-0.569-0.174-1.049-0.467-1.44C316.304,98.566,315.881,98.371,315.33,98.371z"/>
</g>
<g>
	<rect x="222.795" y="23.838" fill="none" width="92.229" height="21.062"/>
	<path fill="#222222" d="M228.582,29.595l3.018-1.276l0.436,1.369l-3.235,0.716l2.178,2.582l-1.183,0.809l-1.711-2.8l-1.711,2.832
		l-1.151-0.872l2.146-2.551l-3.235-0.716l0.467-1.338l3.018,1.245l-0.249-3.298h1.432L228.582,29.595z"/>
</g>
<g>
	<path fill="none" stroke="#222222" stroke-linejoin="round" d="M180.013,50.125c0,0-13.818,7.444-21.765,0.739"/>
	<g>
		<polygon fill="#222222" points="163.415,49.394 163.538,50.387 158.644,50.986 159.599,55.824 158.616,56.017 157.455,50.124 		
			"/>
	</g>
</g>
<g>
	<rect x="132.232" y="37.246" fill="none" width="50.004" height="10.001"/>
	<path fill="#222222" d="M133.846,45.033v0.88h-0.653v-8.667h0.653v3.627c0.178-0.275,0.434-0.511,0.767-0.707
		c0.334-0.195,0.691-0.293,1.073-0.293c0.836,0,1.476,0.296,1.921,0.887c0.444,0.591,0.666,1.322,0.666,2.193
		c0,0.872-0.222,1.603-0.666,2.194c-0.445,0.591-1.085,0.887-1.921,0.887c-0.382,0-0.739-0.098-1.073-0.293
		C134.279,45.544,134.023,45.309,133.846,45.033z M133.846,41.66v2.586c0.195,0.374,0.451,0.663,0.767,0.867
		c0.315,0.205,0.655,0.307,1.021,0.307c0.604,0,1.084-0.229,1.44-0.687c0.355-0.458,0.533-1.051,0.533-1.78
		c0-0.729-0.178-1.322-0.533-1.78c-0.356-0.458-0.836-0.687-1.44-0.687c-0.365,0-0.705,0.103-1.021,0.307
		C134.297,40.997,134.041,41.286,133.846,41.66z"/>
	<path fill="#222222" d="M142.526,39.953v0.653c-0.169-0.071-0.351-0.106-0.547-0.106c-0.355,0-0.671,0.115-0.946,0.347
		c-0.275,0.231-0.484,0.542-0.627,0.933v4.134h-0.667v-5.92h0.667v0.947c0.143-0.311,0.355-0.567,0.641-0.767
		c0.284-0.2,0.604-0.3,0.96-0.3C142.176,39.873,142.349,39.899,142.526,39.953z"/>
	<path fill="#222222" d="M144.407,37.873c0.088,0.089,0.133,0.196,0.133,0.32c0,0.125-0.045,0.231-0.133,0.32
		c-0.09,0.089-0.196,0.133-0.32,0.133c-0.125,0-0.231-0.044-0.32-0.133s-0.133-0.196-0.133-0.32c0-0.124,0.044-0.231,0.133-0.32
		s0.195-0.133,0.32-0.133C144.211,37.739,144.317,37.784,144.407,37.873z M144.42,39.993v5.92h-0.667v-5.92H144.42z"/>
	<path fill="#222222" d="M146.606,45.18c-0.48-0.569-0.72-1.311-0.72-2.227c0-0.915,0.239-1.658,0.72-2.227
		c0.479-0.569,1.111-0.854,1.894-0.854c0.613,0,1.117,0.167,1.514,0.5c0.395,0.333,0.646,0.78,0.753,1.34h-0.68
		c-0.089-0.391-0.271-0.696-0.547-0.914s-0.622-0.327-1.04-0.327c-0.578,0-1.047,0.227-1.407,0.68c-0.359,0.453-0.54,1.053-0.54,1.8
		c0,0.747,0.181,1.347,0.54,1.8c0.36,0.454,0.829,0.68,1.407,0.68c0.418,0,0.765-0.109,1.04-0.327s0.458-0.522,0.547-0.914h0.68
		c-0.106,0.56-0.358,1.007-0.753,1.34c-0.396,0.333-0.9,0.5-1.514,0.5C147.718,46.033,147.086,45.749,146.606,45.18z"/>
	<path fill="#222222" d="M156.167,45.913l-2.573-2.96l-0.721,0.667v2.293h-0.667v-8.667h0.667v5.601l3.134-2.854h0.88l-2.813,2.547
		l2.907,3.374H156.167z"/>
</g>
<g>
	<path fill="none" stroke="#222222" stroke-linejoin="round" d="M330.191,110.129c0,0-13.819,7.444-21.766,0.739"/>
	<g>
		<polygon fill="#222222" points="313.593,109.398 313.716,110.392 308.821,110.99 309.776,115.828 308.794,116.021 
			307.633,110.128 		"/>
	</g>
</g>
<g>
	<line fill="none" stroke="#222222" stroke-linejoin="round" x1="300.059" y1="80.124" x2="300.059" y2="45.984"/>
	<g>
		<polygon fill="#222222" points="304.148,49.297 303.416,49.979 300.06,46.368 296.702,49.979 295.97,49.297 300.06,44.899 		"/>
	</g>
</g>
<g>
	<rect x="285.021" y="31.801" fill="none" width="50.004" height="27.36"/>
	<path fill="#222222" d="M286.635,39.588v0.88h-0.653V31.8h0.653v3.627c0.178-0.275,0.434-0.511,0.767-0.707
		c0.334-0.195,0.691-0.293,1.073-0.293c0.836,0,1.476,0.296,1.921,0.887c0.444,0.591,0.666,1.322,0.666,2.193
		c0,0.872-0.222,1.603-0.666,2.194c-0.445,0.591-1.085,0.887-1.921,0.887c-0.382,0-0.739-0.098-1.073-0.293
		C287.068,40.099,286.812,39.863,286.635,39.588z M286.635,36.214v2.586c0.195,0.374,0.451,0.663,0.767,0.867
		c0.315,0.205,0.655,0.307,1.021,0.307c0.604,0,1.084-0.229,1.44-0.687c0.355-0.458,0.533-1.051,0.533-1.78
		c0-0.729-0.178-1.322-0.533-1.78c-0.356-0.458-0.836-0.687-1.44-0.687c-0.365,0-0.705,0.103-1.021,0.307
		C287.086,35.552,286.83,35.841,286.635,36.214z"/>
	<path fill="#222222" d="M293.195,31.8v8.667h-0.667V31.8H293.195z"/>
	<path fill="#222222" d="M299.176,35.281c0.484,0.569,0.727,1.312,0.727,2.227c0,0.916-0.242,1.658-0.727,2.227
		c-0.485,0.569-1.118,0.854-1.9,0.854s-1.414-0.285-1.894-0.854c-0.48-0.569-0.72-1.311-0.72-2.227c0-0.915,0.239-1.658,0.72-2.227
		c0.479-0.569,1.111-0.854,1.894-0.854S298.69,34.712,299.176,35.281z M298.702,39.314c0.355-0.458,0.533-1.06,0.533-1.807
		c0-0.747-0.178-1.349-0.533-1.807c-0.355-0.458-0.831-0.687-1.427-0.687c-0.587,0-1.059,0.229-1.414,0.687
		c-0.355,0.458-0.533,1.06-0.533,1.807c0,0.747,0.178,1.349,0.533,1.807s0.827,0.687,1.414,0.687
		C297.871,40.001,298.347,39.772,298.702,39.314z"/>
	<path fill="#222222" d="M301.676,39.734c-0.48-0.569-0.72-1.311-0.72-2.227c0-0.915,0.239-1.658,0.72-2.227
		c0.479-0.569,1.111-0.854,1.894-0.854c0.613,0,1.117,0.167,1.514,0.5c0.395,0.333,0.646,0.78,0.753,1.34h-0.68
		c-0.089-0.391-0.271-0.696-0.547-0.914s-0.622-0.327-1.04-0.327c-0.578,0-1.047,0.227-1.407,0.68c-0.359,0.453-0.54,1.053-0.54,1.8
		c0,0.747,0.181,1.347,0.54,1.8c0.36,0.454,0.829,0.68,1.407,0.68c0.418,0,0.765-0.109,1.04-0.327s0.458-0.522,0.547-0.914h0.68
		c-0.106,0.56-0.358,1.007-0.753,1.34c-0.396,0.333-0.9,0.5-1.514,0.5C302.787,40.588,302.155,40.303,301.676,39.734z"/>
	<path fill="#222222" d="M311.236,40.468l-2.573-2.96l-0.721,0.667v2.293h-0.667V31.8h0.667v5.601l3.134-2.854h0.88l-2.813,2.547
		l2.907,3.374H311.236z"/>
	<path fill="#222222" d="M312.637,38.934h0.666c0.24,0.72,0.791,1.081,1.653,1.081c0.427,0,0.773-0.094,1.041-0.28
		c0.267-0.187,0.399-0.458,0.399-0.813c0-0.498-0.364-0.849-1.093-1.053l-1.107-0.307c-0.934-0.249-1.4-0.747-1.4-1.494
		c0-0.498,0.191-0.896,0.574-1.193c0.382-0.298,0.857-0.447,1.427-0.447c0.604,0,1.095,0.143,1.473,0.427
		c0.378,0.285,0.62,0.68,0.728,1.187h-0.653c-0.231-0.694-0.747-1.041-1.547-1.041c-0.392,0-0.716,0.091-0.974,0.273
		c-0.258,0.183-0.387,0.438-0.387,0.767c0,0.267,0.082,0.466,0.246,0.6c0.165,0.133,0.438,0.253,0.82,0.36l1.054,0.293
		c0.986,0.258,1.48,0.795,1.48,1.613c0,0.524-0.196,0.936-0.587,1.233c-0.392,0.298-0.894,0.447-1.507,0.447
		c-0.604,0-1.118-0.147-1.54-0.44C312.98,39.854,312.726,39.45,312.637,38.934z"/>
</g>
<g>
	<line fill="none" stroke="#222222" stroke-linejoin="round" x1="300.059" y1="28.774" x2="300.059" y2="16.858"/>
	<g>
		<polygon fill="#222222" points="304.148,20.172 303.416,20.854 300.06,17.242 296.702,20.854 295.97,20.172 300.06,15.774 		"/>
	</g>
</g>
<g>
	<rect x="288.355" y="2.094" fill="none" width="50.003" height="27.361"/>
	<path fill="#222222" d="M289.569,9.387V5.414h-1.001V4.84h1.001V3.32h0.653v1.52h1.533v0.573h-1.533v3.907
		c0,0.64,0.284,0.96,0.853,0.96c0.285,0,0.556-0.076,0.813-0.227v0.626c-0.249,0.133-0.542,0.2-0.88,0.2
		c-0.444,0-0.796-0.127-1.053-0.38C289.697,10.248,289.569,9.876,289.569,9.387z"/>
	<path fill="#222222" d="M297.283,5.574c0.484,0.569,0.727,1.312,0.727,2.227c0,0.916-0.242,1.658-0.727,2.227
		c-0.485,0.569-1.118,0.854-1.9,0.854s-1.414-0.285-1.894-0.854c-0.48-0.569-0.72-1.311-0.72-2.227c0-0.915,0.239-1.658,0.72-2.227
		c0.479-0.569,1.111-0.854,1.894-0.854S296.798,5.005,297.283,5.574z M296.81,9.607c0.355-0.458,0.533-1.06,0.533-1.807
		c0-0.747-0.178-1.349-0.533-1.807c-0.355-0.458-0.831-0.687-1.427-0.687c-0.587,0-1.059,0.229-1.414,0.687
		c-0.355,0.458-0.533,1.06-0.533,1.807c0,0.747,0.178,1.349,0.533,1.807s0.827,0.687,1.414,0.687
		C295.979,10.294,296.454,10.065,296.81,9.607z"/>
	<path fill="#222222" d="M300.716,13.027h-0.666l0.96-2.347l-2.32-5.84h0.706l1.947,5.014l1.947-5.014h0.68L300.716,13.027z"/>
	<path fill="#222222" d="M304.57,9.227h0.666c0.24,0.72,0.791,1.081,1.653,1.081c0.427,0,0.773-0.094,1.041-0.28
		c0.267-0.187,0.399-0.458,0.399-0.813c0-0.498-0.364-0.849-1.093-1.053l-1.107-0.307c-0.934-0.249-1.4-0.747-1.4-1.494
		c0-0.498,0.191-0.896,0.574-1.193c0.382-0.298,0.857-0.447,1.427-0.447c0.604,0,1.095,0.143,1.473,0.427
		c0.378,0.285,0.62,0.68,0.728,1.187h-0.653c-0.231-0.694-0.747-1.041-1.547-1.041c-0.392,0-0.716,0.091-0.974,0.273
		c-0.258,0.183-0.387,0.438-0.387,0.767c0,0.267,0.082,0.466,0.246,0.6c0.165,0.133,0.438,0.253,0.82,0.36l1.054,0.293
		c0.986,0.258,1.48,0.795,1.48,1.613c0,0.524-0.196,0.936-0.587,1.233c-0.392,0.298-0.894,0.447-1.507,0.447
		c-0.604,0-1.118-0.147-1.54-0.44C304.914,10.147,304.659,9.743,304.57,9.227z"/>
</g>
<g>
	<rect x="332.247" y="11.829" fill="none" width="145.566" height="29.446"/>
	<path fill="#386DF9" d="M334.31,22.007c-0.913-1.025-1.369-2.385-1.369-4.08s0.456-3.055,1.369-4.081
		c0.912-1.025,2.056-1.538,3.432-1.538c1.042,0,1.92,0.281,2.631,0.844s1.18,1.325,1.404,2.285h-0.889
		c-0.237-0.711-0.625-1.268-1.164-1.671c-0.54-0.403-1.2-0.604-1.982-0.604c-1.15,0-2.084,0.433-2.801,1.298
		c-0.717,0.866-1.075,2.021-1.075,3.467c0,1.446,0.361,2.602,1.084,3.467s1.653,1.298,2.792,1.298c0.782,0,1.442-0.202,1.982-0.604
		c0.539-0.403,0.927-0.96,1.164-1.671h0.889c-0.225,0.96-0.696,1.722-1.413,2.285c-0.718,0.563-1.591,0.845-2.622,0.845
		C336.365,23.545,335.222,23.032,334.31,22.007z"/>
	<path fill="#386DF9" d="M344.621,11.828v11.557h-0.889V11.828H344.621z"/>
	<path fill="#386DF9" d="M348.017,12.664c0.118,0.119,0.178,0.261,0.178,0.427s-0.06,0.308-0.178,0.427
		c-0.119,0.118-0.261,0.178-0.427,0.178s-0.309-0.06-0.427-0.178c-0.119-0.119-0.178-0.261-0.178-0.427s0.059-0.308,0.178-0.427
		c0.118-0.119,0.261-0.178,0.427-0.178S347.897,12.545,348.017,12.664z M348.034,15.491v7.894h-0.889v-7.894H348.034z"/>
	<path fill="#386DF9" d="M355.928,16.842c0.236-0.427,0.574-0.785,1.013-1.076s0.919-0.436,1.44-0.436
		c0.771,0,1.363,0.249,1.778,0.747c0.414,0.498,0.622,1.156,0.622,1.974v5.333h-0.871v-5.209c0-0.628-0.143-1.123-0.427-1.484
		c-0.284-0.361-0.705-0.542-1.263-0.542c-0.474,0-0.9,0.154-1.28,0.462c-0.379,0.309-0.651,0.706-0.817,1.191v5.583h-0.889v-5.209
		c0-0.628-0.143-1.123-0.427-1.484c-0.284-0.361-0.705-0.542-1.263-0.542c-0.474,0-0.9,0.154-1.28,0.462
		c-0.379,0.309-0.651,0.706-0.817,1.191v5.583h-0.889v-7.894h0.889V16.7c0.213-0.403,0.519-0.731,0.916-0.987
		c0.396-0.254,0.85-0.382,1.359-0.382C354.825,15.331,355.56,15.835,355.928,16.842z"/>
	<path fill="#386DF9" d="M364.124,22.211v1.173h-0.871V11.828h0.871v4.836c0.237-0.367,0.578-0.681,1.022-0.942
		s0.921-0.391,1.431-0.391c1.114,0,1.968,0.394,2.561,1.182c0.593,0.789,0.889,1.763,0.889,2.925s-0.296,2.136-0.889,2.924
		c-0.593,0.789-1.446,1.183-2.561,1.183c-0.51,0-0.986-0.131-1.431-0.391C364.702,22.893,364.361,22.579,364.124,22.211z
		 M364.124,17.713v3.449c0.261,0.498,0.602,0.883,1.022,1.155c0.42,0.273,0.874,0.409,1.359,0.409c0.807,0,1.446-0.305,1.921-0.916
		c0.474-0.61,0.711-1.402,0.711-2.374c0-0.972-0.237-1.763-0.711-2.374c-0.475-0.61-1.114-0.916-1.921-0.916
		c-0.485,0-0.939,0.137-1.359,0.409C364.726,16.831,364.385,17.215,364.124,17.713z"/>
	<path fill="#386DF9" d="M375.199,13.304v-0.836h8.89v0.836h-4v10.081h-0.907V13.304H375.199z"/>
	<path fill="#386DF9" d="M388.553,15.438v0.871c-0.226-0.095-0.469-0.142-0.729-0.142c-0.474,0-0.895,0.154-1.262,0.462
		c-0.368,0.308-0.646,0.723-0.836,1.244v5.512h-0.889v-7.894h0.889v1.262c0.189-0.415,0.474-0.755,0.854-1.022
		c0.379-0.267,0.806-0.4,1.28-0.4C388.084,15.331,388.315,15.366,388.553,15.438z"/>
	<path fill="#386DF9" d="M395.131,21.091h0.854c-0.154,0.747-0.501,1.342-1.04,1.787c-0.54,0.445-1.212,0.667-2.018,0.667
		c-1.044,0-1.888-0.379-2.534-1.138c-0.646-0.758-0.969-1.748-0.969-2.969c0-1.197,0.317-2.181,0.951-2.952
		c0.634-0.77,1.479-1.155,2.533-1.155c1.02,0,1.808,0.353,2.365,1.058c0.557,0.706,0.835,1.639,0.835,2.8v0.32h-5.813
		c0.012,0.996,0.261,1.787,0.747,2.374c0.485,0.587,1.113,0.88,1.885,0.88c0.557,0,1.033-0.148,1.431-0.445
		C394.755,22.022,395.013,21.613,395.131,21.091z M392.908,16.113c-0.711,0-1.295,0.243-1.751,0.729
		c-0.456,0.486-0.731,1.144-0.826,1.973h4.889c-0.023-0.758-0.231-1.398-0.622-1.92C394.206,16.374,393.644,16.113,392.908,16.113z"
		/>
	<path fill="#386DF9" d="M403.202,21.091h0.854c-0.154,0.747-0.501,1.342-1.04,1.787c-0.54,0.445-1.212,0.667-2.018,0.667
		c-1.044,0-1.888-0.379-2.534-1.138c-0.646-0.758-0.969-1.748-0.969-2.969c0-1.197,0.317-2.181,0.951-2.952
		c0.634-0.77,1.479-1.155,2.533-1.155c1.02,0,1.808,0.353,2.365,1.058c0.557,0.706,0.835,1.639,0.835,2.8v0.32h-5.813
		c0.012,0.996,0.261,1.787,0.747,2.374c0.485,0.587,1.113,0.88,1.885,0.88c0.557,0,1.033-0.148,1.431-0.445
		C402.826,22.022,403.084,21.613,403.202,21.091z M400.979,16.113c-0.711,0-1.295,0.243-1.751,0.729
		c-0.456,0.486-0.731,1.144-0.826,1.973h4.889c-0.023-0.758-0.231-1.398-0.622-1.92C402.277,16.374,401.715,16.113,400.979,16.113z"
		/>
</g>
<g>
</g>
<g>
</g>
<g>
</g>
<g>
</g>
<g>
</g>
<g>
</g>
<g>
</g>
</svg>
