<?xml version="1.0" encoding="utf-8"?>
<!-- Generator: Adobe Illustrator 16.0.0, SVG Export Plug-In . SVG Version: 6.00 Build 0)  -->
<!DOCTYPE svg PUBLIC "-//W3C//DTD SVG 1.1 Tiny//EN" "http://www.w3.org/Graphics/SVG/1.1/DTD/svg11-tiny.dtd">
<svg version="1.1" baseProfile="tiny" id="Layer_1" xmlns="http://www.w3.org/2000/svg" xmlns:xlink="http://www.w3.org/1999/xlink"
	 x="0px" y="0px" width="450.034px" height="243.218px" viewBox="0 0 450.034 243.218" xml:space="preserve">
<g>
	<path fill="none" stroke="#FF4848" stroke-linejoin="round" d="M340.026,102.101c0,0-18.584,9.292-19.926,18.919"/>
	<g>
		<polygon fill="#FF4848" points="316.988,116.92 317.851,116.413 320.342,120.668 324.405,117.873 324.971,118.697 
			320.023,122.102 		"/>
	</g>
</g>
<g>
	<path fill="none" stroke="#FF4848" stroke-linejoin="round" d="M340.026,102.101c0,0,18.583,9.292,19.925,18.919"/>
	<g>
		<polygon fill="#FF4848" points="355.079,118.698 355.645,117.873 359.707,120.669 362.199,116.413 363.062,116.92 
			360.026,122.102 		"/>
	</g>
</g>
<rect x="40.003" y="42.096" fill="#FFFFFF" stroke="#222222" stroke-linejoin="round" stroke-miterlimit="10" width="20.001" height="60.005"/>
<rect x="30.002" y="22.095" fill="#FFFFFF" stroke="#222222" stroke-linejoin="round" stroke-miterlimit="10" width="80.006" height="20.001"/>
<rect x="80.006" y="42.096" fill="#FFFFFF" stroke="#222222" stroke-linejoin="round" stroke-miterlimit="10" width="20.001" height="60.005"/>
<circle fill="none" stroke="#222222" stroke-linejoin="round" stroke-miterlimit="10" cx="190.014" cy="32.096" r="10.001"/>
<circle fill="none" stroke="#222222" stroke-linejoin="round" stroke-miterlimit="10" cx="170.012" cy="72.099" r="10.001"/>
<circle fill="none" stroke="#222222" stroke-linejoin="round" stroke-miterlimit="10" cx="210.015" cy="72.099" r="10.001"/>
<g>
	<path fill="none" stroke="#FF4848" stroke-linejoin="round" d="M190.014,42.096c0,0-18.583,9.292-19.925,18.92"/>
	<g>
		<polygon fill="#FF4848" points="166.977,56.916 167.84,56.409 170.331,60.664 174.393,57.869 174.96,58.693 170.012,62.098 		"/>
	</g>
</g>
<g>
	<path fill="none" stroke="#FF4848" stroke-linejoin="round" d="M190.014,42.096c0,0,18.583,9.292,19.925,18.92"/>
	<g>
		<polygon fill="#FF4848" points="205.067,58.694 205.634,57.869 209.695,60.665 212.188,56.409 213.051,56.916 210.015,62.098 		
			"/>
	</g>
</g>
<g>
	<rect x="210.016" y="42.097" fill="none" width="50.004" height="10"/>
	<path fill="#222222" d="M210.416,49.23h0.667c0.24,0.72,0.791,1.08,1.653,1.08c0.427,0,0.773-0.094,1.04-0.28s0.4-0.458,0.4-0.813
		c0-0.498-0.364-0.849-1.093-1.054l-1.107-0.307c-0.933-0.248-1.4-0.746-1.4-1.493c0-0.498,0.191-0.896,0.573-1.193
		s0.858-0.446,1.427-0.446c0.604,0,1.096,0.142,1.474,0.427c0.377,0.284,0.62,0.68,0.727,1.187h-0.653
		c-0.231-0.693-0.747-1.04-1.547-1.04c-0.391,0-0.715,0.091-0.973,0.273c-0.258,0.182-0.387,0.438-0.387,0.767
		c0,0.267,0.082,0.467,0.247,0.6c0.165,0.134,0.438,0.254,0.82,0.36l1.054,0.293c0.987,0.258,1.48,0.796,1.48,1.613
		c0,0.525-0.196,0.937-0.586,1.233c-0.392,0.299-0.894,0.447-1.507,0.447c-0.605,0-1.118-0.146-1.54-0.44
		C210.761,50.15,210.505,49.746,210.416,49.23z"/>
	<path fill="#222222" d="M220.804,44.843v5.921h-0.654v-0.946c-0.195,0.302-0.458,0.556-0.787,0.76s-0.693,0.307-1.093,0.307
		c-0.658,0-1.165-0.193-1.52-0.58c-0.356-0.387-0.534-0.9-0.534-1.54v-3.921h0.654v3.827c0,0.48,0.126,0.867,0.38,1.16
		c0.253,0.294,0.633,0.44,1.14,0.44c0.391,0,0.744-0.12,1.06-0.36c0.315-0.24,0.549-0.547,0.7-0.92v-4.147H220.804z"/>
	<path fill="#222222" d="M223.364,49.884v3.146h-0.667v-8.188h0.667v0.881c0.178-0.275,0.434-0.512,0.767-0.707
		s0.69-0.293,1.073-0.293c0.826,0,1.465,0.295,1.914,0.887c0.448,0.591,0.673,1.322,0.673,2.193s-0.225,1.603-0.673,2.193
		c-0.449,0.591-1.088,0.887-1.914,0.887c-0.383,0-0.74-0.098-1.073-0.294C223.797,50.395,223.542,50.159,223.364,49.884z
		 M223.364,46.51v2.587c0.408,0.782,1,1.174,1.773,1.174c0.613,0,1.098-0.229,1.453-0.687s0.533-1.052,0.533-1.78
		c0-0.729-0.178-1.322-0.533-1.78s-0.84-0.687-1.453-0.687C224.364,45.337,223.772,45.728,223.364,46.51z"/>
	<path fill="#222222" d="M229.924,49.884v3.146h-0.667v-8.188h0.667v0.881c0.178-0.275,0.434-0.512,0.767-0.707
		s0.69-0.293,1.073-0.293c0.826,0,1.465,0.295,1.914,0.887c0.448,0.591,0.673,1.322,0.673,2.193s-0.225,1.603-0.673,2.193
		c-0.449,0.591-1.088,0.887-1.914,0.887c-0.383,0-0.74-0.098-1.073-0.294C230.358,50.395,230.102,50.159,229.924,49.884z
		 M229.924,46.51v2.587c0.408,0.782,1,1.174,1.773,1.174c0.613,0,1.098-0.229,1.453-0.687s0.533-1.052,0.533-1.78
		c0-0.729-0.178-1.322-0.533-1.78s-0.84-0.687-1.453-0.687C230.924,45.337,230.333,45.728,229.924,46.51z"/>
	<path fill="#222222" d="M239.918,45.576c0.484,0.569,0.727,1.312,0.727,2.228c0,0.915-0.242,1.658-0.727,2.227
		c-0.484,0.569-1.119,0.854-1.9,0.854c-0.783,0-1.414-0.284-1.894-0.854c-0.479-0.568-0.72-1.312-0.72-2.227
		c0-0.916,0.24-1.658,0.72-2.228c0.479-0.568,1.11-0.853,1.894-0.853C238.799,44.724,239.434,45.008,239.918,45.576z M239.445,49.61
		c0.355-0.458,0.533-1.061,0.533-1.807c0-0.747-0.178-1.349-0.533-1.807c-0.356-0.458-0.831-0.688-1.427-0.688
		c-0.587,0-1.059,0.229-1.414,0.688s-0.533,1.06-0.533,1.807c0,0.746,0.178,1.349,0.533,1.807s0.827,0.687,1.414,0.687
		C238.614,50.297,239.088,50.068,239.445,49.61z"/>
	<path fill="#222222" d="M244.898,44.804v0.653c-0.169-0.071-0.351-0.107-0.546-0.107c-0.356,0-0.672,0.116-0.947,0.347
		c-0.275,0.231-0.484,0.543-0.627,0.934v4.134h-0.666v-5.921h0.666v0.947c0.143-0.312,0.355-0.566,0.641-0.767
		c0.284-0.2,0.604-0.3,0.959-0.3C244.547,44.724,244.72,44.75,244.898,44.804z"/>
	<path fill="#222222" d="M246.391,49.391v-3.974h-1v-0.574h1v-1.52h0.654v1.52h1.533v0.574h-1.533v3.906
		c0,0.641,0.284,0.96,0.854,0.96c0.283,0,0.555-0.075,0.812-0.227v0.627c-0.248,0.134-0.542,0.2-0.88,0.2
		c-0.444,0-0.796-0.127-1.054-0.38C246.52,50.25,246.391,49.879,246.391,49.391z"/>
</g>
<g>
	<rect x="0" y="2.094" fill="none" width="60.004" height="20.001"/>
	<path d="M1.6,2.72c0.089,0.089,0.133,0.196,0.133,0.32c0,0.125-0.044,0.231-0.133,0.32S1.404,3.494,1.28,3.494
		c-0.125,0-0.231-0.044-0.32-0.133S0.827,3.165,0.827,3.04c0-0.124,0.044-0.231,0.133-0.32s0.195-0.133,0.32-0.133
		C1.404,2.587,1.511,2.631,1.6,2.72z M1.613,4.84v5.92H0.947V4.84H1.613z"/>
	<path d="M2.96,9.227h0.667c0.24,0.72,0.791,1.081,1.653,1.081c0.427,0,0.773-0.094,1.04-0.28s0.4-0.458,0.4-0.813
		c0-0.498-0.364-0.849-1.093-1.053L4.52,7.854c-0.933-0.249-1.4-0.747-1.4-1.494c0-0.498,0.191-0.896,0.573-1.193
		S4.551,4.72,5.12,4.72c0.604,0,1.096,0.143,1.474,0.427c0.377,0.285,0.62,0.68,0.727,1.187H6.667C6.436,5.64,5.92,5.293,5.12,5.293
		c-0.391,0-0.715,0.091-0.973,0.273C3.889,5.75,3.76,6.005,3.76,6.334c0,0.267,0.082,0.466,0.247,0.6s0.438,0.253,0.82,0.36
		L5.88,7.587c0.987,0.258,1.48,0.795,1.48,1.613c0,0.524-0.196,0.936-0.586,1.233c-0.392,0.298-0.894,0.447-1.507,0.447
		c-0.605,0-1.118-0.147-1.54-0.44C3.305,10.147,3.049,9.743,2.96,9.227z"/>
	<path d="M15.801,10.761h-0.64v-0.56c-0.142,0.169-0.364,0.32-0.667,0.454c-0.302,0.133-0.627,0.2-0.974,0.2
		c-0.622,0-1.142-0.167-1.56-0.5s-0.626-0.775-0.626-1.327c0-0.533,0.213-0.969,0.64-1.307c0.426-0.338,0.951-0.507,1.573-0.507
		c0.32,0,0.631,0.064,0.934,0.193c0.302,0.129,0.529,0.273,0.68,0.433V6.787c0-0.444-0.131-0.802-0.393-1.073
		s-0.625-0.407-1.087-0.407c-0.738,0-1.218,0.338-1.44,1.013h-0.653c0.115-0.498,0.362-0.889,0.74-1.173
		c0.378-0.284,0.829-0.427,1.354-0.427c0.658,0,1.175,0.185,1.554,0.553c0.377,0.369,0.566,0.865,0.566,1.487V10.761z M15.161,9.414
		v-0.76c-0.098-0.258-0.295-0.469-0.593-0.633s-0.625-0.247-0.98-0.247c-0.454,0-0.838,0.109-1.153,0.327
		c-0.316,0.218-0.474,0.527-0.474,0.927s0.158,0.711,0.474,0.933c0.315,0.223,0.7,0.333,1.153,0.333c0.355,0,0.682-0.082,0.98-0.247
		S15.063,9.672,15.161,9.414z"/>
	<path d="M17.627,10.761V4.84h0.667v0.947c0.196-0.302,0.46-0.556,0.793-0.76c0.333-0.204,0.7-0.307,1.1-0.307
		c0.658,0,1.165,0.193,1.52,0.58s0.534,0.9,0.534,1.54v3.92h-0.653V6.934c0-0.48-0.127-0.867-0.38-1.16
		c-0.253-0.293-0.633-0.44-1.14-0.44c-0.391,0-0.747,0.12-1.066,0.36c-0.32,0.24-0.556,0.546-0.707,0.92v4.147H17.627z"/>
	<path d="M31.042,10.761h-0.64v-0.56c-0.142,0.169-0.364,0.32-0.667,0.454c-0.302,0.133-0.627,0.2-0.974,0.2
		c-0.622,0-1.142-0.167-1.56-0.5s-0.626-0.775-0.626-1.327c0-0.533,0.213-0.969,0.64-1.307c0.426-0.338,0.951-0.507,1.573-0.507
		c0.32,0,0.631,0.064,0.934,0.193c0.302,0.129,0.529,0.273,0.68,0.433V6.787c0-0.444-0.131-0.802-0.393-1.073
		s-0.625-0.407-1.087-0.407c-0.738,0-1.218,0.338-1.44,1.013h-0.653c0.115-0.498,0.362-0.889,0.74-1.173
		c0.378-0.284,0.829-0.427,1.354-0.427c0.658,0,1.175,0.185,1.554,0.553c0.377,0.369,0.566,0.865,0.566,1.487V10.761z M30.401,9.414
		v-0.76c-0.098-0.258-0.295-0.469-0.593-0.633s-0.625-0.247-0.98-0.247c-0.454,0-0.838,0.109-1.153,0.327
		c-0.316,0.218-0.474,0.527-0.474,0.927s0.158,0.711,0.474,0.933c0.315,0.223,0.7,0.333,1.153,0.333c0.355,0,0.682-0.082,0.98-0.247
		S30.304,9.672,30.401,9.414z"/>
	<path d="M35.655,4.8v0.653c-0.169-0.071-0.351-0.106-0.546-0.106c-0.356,0-0.671,0.115-0.947,0.347
		c-0.276,0.231-0.485,0.542-0.627,0.933v4.134h-0.667V4.84h0.667v0.947c0.142-0.311,0.355-0.567,0.64-0.767
		c0.285-0.2,0.604-0.3,0.96-0.3C35.304,4.72,35.477,4.747,35.655,4.8z"/>
	<path d="M37.029,10.027c-0.48-0.569-0.72-1.311-0.72-2.227c0-0.915,0.24-1.658,0.72-2.227S38.14,4.72,38.922,4.72
		c0.613,0,1.118,0.167,1.513,0.5c0.396,0.333,0.647,0.78,0.753,1.34h-0.68c-0.089-0.391-0.271-0.696-0.546-0.914
		c-0.276-0.218-0.623-0.327-1.04-0.327c-0.578,0-1.047,0.227-1.407,0.68c-0.36,0.453-0.54,1.053-0.54,1.8
		c0,0.747,0.18,1.347,0.54,1.8c0.36,0.454,0.829,0.68,1.407,0.68c0.417,0,0.764-0.109,1.04-0.327
		c0.275-0.218,0.458-0.522,0.546-0.914h0.68c-0.106,0.56-0.358,1.007-0.753,1.34c-0.396,0.333-0.9,0.5-1.513,0.5
		C38.14,10.881,37.509,10.596,37.029,10.027z"/>
	<path d="M42.629,10.761V2.093h0.667v3.694c0.196-0.302,0.46-0.556,0.793-0.76c0.333-0.204,0.7-0.307,1.1-0.307
		c0.658,0,1.165,0.193,1.52,0.58s0.534,0.9,0.534,1.54v3.92h-0.653V6.934c0-0.48-0.127-0.867-0.38-1.16
		c-0.253-0.293-0.633-0.44-1.14-0.44c-0.391,0-0.747,0.12-1.066,0.36c-0.32,0.24-0.556,0.546-0.707,0.92v4.147H42.629z"/>
</g>
<g>
	<rect x="0" y="132.104" fill="none" width="80.006" height="20.001"/>
	<path d="M1.6,132.729c0.089,0.09,0.133,0.196,0.133,0.32c0,0.125-0.044,0.231-0.133,0.32s-0.196,0.133-0.32,0.133
		c-0.125,0-0.231-0.044-0.32-0.133s-0.133-0.195-0.133-0.32c0-0.124,0.044-0.23,0.133-0.32c0.089-0.088,0.195-0.133,0.32-0.133
		C1.404,132.597,1.511,132.642,1.6,132.729z M1.613,134.85v5.921H0.947v-5.921H1.613z"/>
	<path d="M2.96,139.237h0.667c0.24,0.72,0.791,1.08,1.653,1.08c0.427,0,0.773-0.094,1.04-0.28s0.4-0.458,0.4-0.813
		c0-0.498-0.364-0.849-1.093-1.054l-1.107-0.307c-0.933-0.248-1.4-0.746-1.4-1.493c0-0.498,0.191-0.896,0.573-1.193
		s0.858-0.446,1.427-0.446c0.604,0,1.096,0.142,1.474,0.427c0.377,0.284,0.62,0.68,0.727,1.187H6.667
		c-0.231-0.693-0.747-1.04-1.547-1.04c-0.391,0-0.715,0.091-0.973,0.273c-0.258,0.182-0.387,0.438-0.387,0.767
		c0,0.267,0.082,0.467,0.247,0.6c0.165,0.134,0.438,0.254,0.82,0.36l1.054,0.293c0.987,0.258,1.48,0.796,1.48,1.613
		c0,0.525-0.196,0.937-0.586,1.233c-0.392,0.299-0.894,0.447-1.507,0.447c-0.605,0-1.118-0.146-1.54-0.44
		C3.305,140.157,3.049,139.753,2.96,139.237z"/>
	<path d="M11.774,140.771v-5.921h0.667v0.947c0.196-0.302,0.46-0.556,0.793-0.76c0.333-0.205,0.7-0.307,1.1-0.307
		c0.658,0,1.165,0.193,1.52,0.58s0.534,0.899,0.534,1.54v3.92h-0.653v-3.827c0-0.479-0.127-0.866-0.38-1.16
		c-0.253-0.293-0.633-0.439-1.14-0.439c-0.391,0-0.747,0.12-1.066,0.359c-0.32,0.24-0.556,0.547-0.707,0.92v4.147H11.774z"/>
	<path d="M22.301,135.583c0.484,0.569,0.727,1.312,0.727,2.228c0,0.915-0.242,1.658-0.727,2.227c-0.484,0.569-1.118,0.854-1.9,0.854
		c-0.783,0-1.414-0.284-1.894-0.854c-0.48-0.568-0.72-1.312-0.72-2.227c0-0.916,0.24-1.658,0.72-2.228
		c0.48-0.568,1.111-0.853,1.894-0.853C21.183,134.73,21.817,135.015,22.301,135.583z M21.828,139.617
		c0.355-0.458,0.533-1.061,0.533-1.807c0-0.747-0.178-1.349-0.533-1.807c-0.356-0.458-0.832-0.688-1.427-0.688
		c-0.587,0-1.058,0.229-1.414,0.688c-0.356,0.458-0.534,1.06-0.534,1.807c0,0.746,0.178,1.349,0.534,1.807
		c0.355,0.458,0.827,0.687,1.414,0.687C20.997,140.304,21.472,140.075,21.828,139.617z"/>
	<path d="M24.761,139.397v-3.974h-1v-0.574h1v-1.52h0.653v1.52h1.534v0.574h-1.534v3.906c0,0.641,0.285,0.96,0.854,0.96
		c0.284,0,0.556-0.075,0.813-0.227v0.627c-0.249,0.134-0.542,0.2-0.88,0.2c-0.444,0-0.795-0.127-1.053-0.38
		C24.89,140.257,24.761,139.886,24.761,139.397z"/>
	<path d="M35.429,140.771h-0.64v-0.56c-0.142,0.169-0.364,0.319-0.667,0.453c-0.302,0.133-0.627,0.2-0.974,0.2
		c-0.622,0-1.142-0.167-1.56-0.5c-0.418-0.334-0.626-0.776-0.626-1.327c0-0.533,0.213-0.969,0.64-1.307
		c0.426-0.338,0.951-0.507,1.573-0.507c0.32,0,0.631,0.064,0.934,0.193c0.302,0.129,0.529,0.273,0.68,0.434v-1.054
		c0-0.444-0.131-0.802-0.393-1.073s-0.625-0.407-1.087-0.407c-0.738,0-1.218,0.338-1.44,1.014h-0.653
		c0.115-0.498,0.362-0.889,0.74-1.173c0.378-0.285,0.829-0.427,1.354-0.427c0.658,0,1.175,0.185,1.554,0.553
		c0.377,0.369,0.566,0.865,0.566,1.487V140.771z M34.789,139.424v-0.76c-0.098-0.258-0.295-0.469-0.593-0.634
		c-0.298-0.164-0.625-0.247-0.98-0.247c-0.454,0-0.838,0.109-1.153,0.327c-0.316,0.218-0.474,0.526-0.474,0.927
		s0.158,0.711,0.474,0.934c0.315,0.222,0.7,0.333,1.153,0.333c0.355,0,0.682-0.082,0.98-0.247
		C34.493,139.893,34.691,139.682,34.789,139.424z"/>
	<path d="M37.255,140.771v-5.921h0.667v0.947c0.196-0.302,0.46-0.556,0.793-0.76c0.333-0.205,0.7-0.307,1.1-0.307
		c0.658,0,1.165,0.193,1.52,0.58s0.534,0.899,0.534,1.54v3.92h-0.653v-3.827c0-0.479-0.127-0.866-0.38-1.16
		c-0.253-0.293-0.633-0.439-1.14-0.439c-0.391,0-0.747,0.12-1.066,0.359c-0.32,0.24-0.556,0.547-0.707,0.92v4.147H37.255z"/>
	<path d="M50.669,140.771h-0.64v-0.56c-0.142,0.169-0.364,0.319-0.667,0.453c-0.302,0.133-0.627,0.2-0.974,0.2
		c-0.622,0-1.142-0.167-1.56-0.5c-0.418-0.334-0.626-0.776-0.626-1.327c0-0.533,0.213-0.969,0.64-1.307
		c0.426-0.338,0.951-0.507,1.573-0.507c0.32,0,0.631,0.064,0.934,0.193c0.302,0.129,0.529,0.273,0.68,0.434v-1.054
		c0-0.444-0.131-0.802-0.393-1.073s-0.625-0.407-1.087-0.407c-0.738,0-1.218,0.338-1.44,1.014h-0.653
		c0.115-0.498,0.362-0.889,0.74-1.173c0.378-0.285,0.829-0.427,1.354-0.427c0.658,0,1.175,0.185,1.554,0.553
		c0.377,0.369,0.566,0.865,0.566,1.487V140.771z M50.029,139.424v-0.76c-0.098-0.258-0.295-0.469-0.593-0.634
		c-0.298-0.164-0.625-0.247-0.98-0.247c-0.454,0-0.838,0.109-1.153,0.327c-0.316,0.218-0.474,0.526-0.474,0.927
		s0.158,0.711,0.474,0.934c0.315,0.222,0.7,0.333,1.153,0.333c0.355,0,0.682-0.082,0.98-0.247
		C49.734,139.893,49.932,139.682,50.029,139.424z"/>
	<path d="M55.283,134.811v0.653c-0.169-0.071-0.351-0.107-0.546-0.107c-0.356,0-0.671,0.116-0.947,0.347
		c-0.276,0.231-0.485,0.543-0.627,0.934v4.134h-0.667v-5.921h0.667v0.947c0.142-0.312,0.355-0.566,0.64-0.767s0.604-0.3,0.96-0.3
		C54.932,134.73,55.105,134.757,55.283,134.811z"/>
	<path d="M56.657,140.037c-0.48-0.568-0.72-1.312-0.72-2.227c0-0.916,0.24-1.658,0.72-2.228c0.48-0.568,1.111-0.853,1.894-0.853
		c0.613,0,1.118,0.166,1.513,0.5c0.396,0.333,0.647,0.779,0.753,1.34h-0.68c-0.089-0.392-0.271-0.695-0.546-0.913
		c-0.276-0.218-0.623-0.327-1.04-0.327c-0.578,0-1.047,0.227-1.407,0.68c-0.36,0.454-0.54,1.054-0.54,1.801
		c0,0.746,0.18,1.347,0.54,1.8c0.36,0.453,0.829,0.68,1.407,0.68c0.417,0,0.764-0.108,1.04-0.326
		c0.275-0.218,0.458-0.522,0.546-0.913h0.68c-0.106,0.56-0.358,1.006-0.753,1.34c-0.396,0.333-0.9,0.5-1.513,0.5
		C57.768,140.891,57.137,140.606,56.657,140.037z"/>
	<path d="M62.257,140.771v-8.667h0.667v3.693c0.196-0.302,0.46-0.556,0.793-0.76c0.333-0.205,0.7-0.307,1.1-0.307
		c0.658,0,1.165,0.193,1.52,0.58s0.534,0.899,0.534,1.54v3.92h-0.653v-3.827c0-0.479-0.127-0.866-0.38-1.16
		c-0.253-0.293-0.633-0.439-1.14-0.439c-0.391,0-0.747,0.12-1.066,0.359c-0.32,0.24-0.556,0.547-0.707,0.92v4.147H62.257z"/>
</g>
<path fill="none" stroke="#222222" stroke-linejoin="round" stroke-miterlimit="10" d="M260.019,12.094
	c20.001,0,10.001,90.007,30.003,100.008c-20.002,10-10.002,100.007-30.003,100.007"/>
<circle fill="none" stroke="#222222" stroke-linejoin="round" stroke-miterlimit="10" cx="340.025" cy="92.1" r="10.001"/>
<circle fill="none" stroke="#222222" stroke-linejoin="round" stroke-miterlimit="10" cx="320.023" cy="132.103" r="10"/>
<circle fill="none" stroke="#222222" stroke-linejoin="round" stroke-miterlimit="10" cx="360.027" cy="132.103" r="10.001"/>
<g>
	<rect x="360.027" y="102.101" fill="none" width="90.007" height="10.001"/>
	<path fill="#222222" d="M365.001,105.86c0.178-0.32,0.431-0.589,0.761-0.807c0.328-0.218,0.688-0.326,1.08-0.326
		c0.577,0,1.021,0.187,1.333,0.56s0.466,0.867,0.466,1.48v4h-0.652v-3.907c0-0.471-0.107-0.842-0.32-1.113
		c-0.213-0.271-0.529-0.406-0.947-0.406c-0.355,0-0.676,0.115-0.959,0.347c-0.285,0.231-0.49,0.528-0.613,0.894v4.187h-0.668v-3.907
		c0-0.471-0.105-0.842-0.319-1.113c-0.214-0.271-0.529-0.406-0.946-0.406c-0.356,0-0.676,0.115-0.961,0.347
		c-0.284,0.231-0.488,0.528-0.613,0.894v4.187h-0.666v-5.921h0.666v0.907c0.16-0.302,0.389-0.549,0.688-0.74
		c0.297-0.19,0.637-0.286,1.02-0.286C364.174,104.728,364.726,105.105,365.001,105.86z"/>
	<path fill="#222222" d="M375.002,104.847v5.921h-0.654v-0.946c-0.195,0.302-0.457,0.556-0.786,0.76s-0.693,0.307-1.093,0.307
		c-0.658,0-1.165-0.193-1.521-0.58c-0.356-0.387-0.534-0.9-0.534-1.54v-3.921h0.654v3.827c0,0.48,0.127,0.867,0.38,1.16
		c0.253,0.294,0.634,0.44,1.14,0.44c0.392,0,0.744-0.12,1.061-0.36c0.315-0.24,0.549-0.547,0.699-0.92v-4.147H375.002z"/>
	<path fill="#222222" d="M376.348,109.234h0.668c0.239,0.72,0.791,1.08,1.652,1.08c0.428,0,0.773-0.094,1.041-0.28
		c0.266-0.187,0.399-0.458,0.399-0.813c0-0.498-0.364-0.849-1.093-1.054l-1.107-0.307c-0.934-0.248-1.4-0.746-1.4-1.493
		c0-0.498,0.191-0.896,0.574-1.193c0.382-0.298,0.857-0.446,1.426-0.446c0.605,0,1.096,0.142,1.475,0.427
		c0.377,0.284,0.619,0.68,0.727,1.187h-0.654c-0.23-0.693-0.746-1.04-1.547-1.04c-0.391,0-0.715,0.091-0.973,0.273
		c-0.258,0.182-0.387,0.438-0.387,0.767c0,0.267,0.082,0.467,0.246,0.6c0.165,0.134,0.438,0.254,0.82,0.36l1.054,0.293
		c0.987,0.258,1.479,0.796,1.479,1.613c0,0.525-0.195,0.937-0.586,1.233c-0.392,0.299-0.894,0.447-1.507,0.447
		c-0.604,0-1.118-0.146-1.54-0.44C376.694,110.154,376.438,109.75,376.348,109.234z"/>
	<path fill="#222222" d="M382.483,109.395v-3.974h-1v-0.574h1v-1.52h0.652v1.52h1.534v0.574h-1.534v3.906
		c0,0.641,0.285,0.96,0.854,0.96c0.285,0,0.557-0.075,0.814-0.227v0.627c-0.25,0.134-0.543,0.2-0.881,0.2
		c-0.444,0-0.795-0.127-1.053-0.38C382.612,110.254,382.483,109.883,382.483,109.395z"/>
	<path fill="#222222" d="M388.577,109.234h0.666c0.24,0.72,0.791,1.08,1.654,1.08c0.426,0,0.773-0.094,1.039-0.28
		c0.268-0.187,0.4-0.458,0.4-0.813c0-0.498-0.364-0.849-1.094-1.054l-1.106-0.307c-0.933-0.248-1.399-0.746-1.399-1.493
		c0-0.498,0.19-0.896,0.572-1.193c0.383-0.298,0.858-0.446,1.428-0.446c0.604,0,1.096,0.142,1.473,0.427
		c0.378,0.284,0.621,0.68,0.727,1.187h-0.652c-0.232-0.693-0.747-1.04-1.547-1.04c-0.392,0-0.716,0.091-0.974,0.273
		c-0.259,0.182-0.387,0.438-0.387,0.767c0,0.267,0.082,0.467,0.247,0.6c0.164,0.134,0.438,0.254,0.819,0.36l1.054,0.293
		c0.986,0.258,1.48,0.796,1.48,1.613c0,0.525-0.196,0.937-0.587,1.233c-0.392,0.299-0.894,0.447-1.507,0.447
		c-0.605,0-1.118-0.146-1.54-0.44C388.92,110.154,388.665,109.75,388.577,109.234z"/>
	<path fill="#222222" d="M398.963,104.847v5.921h-0.653v-0.946c-0.195,0.302-0.458,0.556-0.786,0.76
		c-0.33,0.204-0.693,0.307-1.094,0.307c-0.658,0-1.164-0.193-1.52-0.58c-0.356-0.387-0.534-0.9-0.534-1.54v-3.921h0.653v3.827
		c0,0.48,0.127,0.867,0.381,1.16c0.253,0.294,0.633,0.44,1.14,0.44c0.392,0,0.744-0.12,1.06-0.36c0.316-0.24,0.549-0.547,0.7-0.92
		v-4.147H398.963z"/>
	<path fill="#222222" d="M401.524,109.888v3.146h-0.667v-8.188h0.667v0.881c0.178-0.275,0.434-0.512,0.767-0.707
		s0.69-0.293,1.073-0.293c0.826,0,1.465,0.295,1.914,0.887c0.448,0.591,0.673,1.322,0.673,2.193s-0.225,1.603-0.673,2.193
		c-0.449,0.591-1.088,0.887-1.914,0.887c-0.383,0-0.74-0.098-1.073-0.294C401.958,110.398,401.702,110.163,401.524,109.888z
		 M401.524,106.514v2.587c0.408,0.782,1,1.174,1.773,1.174c0.613,0,1.098-0.229,1.453-0.687s0.533-1.052,0.533-1.78
		c0-0.729-0.178-1.322-0.533-1.78s-0.84-0.687-1.453-0.687C402.524,105.341,401.932,105.731,401.524,106.514z"/>
	<path fill="#222222" d="M408.084,109.888v3.146h-0.667v-8.188h0.667v0.881c0.178-0.275,0.434-0.512,0.767-0.707
		s0.69-0.293,1.073-0.293c0.826,0,1.465,0.295,1.914,0.887c0.448,0.591,0.673,1.322,0.673,2.193s-0.225,1.603-0.673,2.193
		c-0.449,0.591-1.088,0.887-1.914,0.887c-0.383,0-0.74-0.098-1.073-0.294C408.518,110.398,408.262,110.163,408.084,109.888z
		 M408.084,106.514v2.587c0.408,0.782,1,1.174,1.773,1.174c0.613,0,1.098-0.229,1.453-0.687s0.533-1.052,0.533-1.78
		c0-0.729-0.178-1.322-0.533-1.78s-0.84-0.687-1.453-0.687C409.084,105.341,408.493,105.731,408.084,106.514z"/>
	<path fill="#222222" d="M418.079,105.58c0.484,0.569,0.727,1.312,0.727,2.228c0,0.915-0.242,1.658-0.727,2.227
		c-0.485,0.569-1.118,0.854-1.9,0.854s-1.414-0.284-1.894-0.854c-0.479-0.568-0.72-1.312-0.72-2.227c0-0.916,0.24-1.658,0.72-2.228
		c0.479-0.568,1.111-0.853,1.894-0.853S417.593,105.012,418.079,105.58z M417.605,109.614c0.355-0.458,0.533-1.061,0.533-1.807
		c0-0.747-0.178-1.349-0.533-1.807s-0.831-0.688-1.427-0.688c-0.587,0-1.059,0.229-1.414,0.688s-0.533,1.06-0.533,1.807
		c0,0.746,0.178,1.349,0.533,1.807s0.827,0.687,1.414,0.687C416.774,110.301,417.25,110.072,417.605,109.614z"/>
	<path fill="#222222" d="M423.059,104.808v0.653c-0.169-0.071-0.351-0.107-0.547-0.107c-0.355,0-0.671,0.116-0.946,0.347
		c-0.275,0.231-0.484,0.543-0.627,0.934v4.134h-0.667v-5.921h0.667v0.947c0.143-0.312,0.355-0.566,0.641-0.767
		c0.284-0.2,0.604-0.3,0.96-0.3C422.708,104.728,422.881,104.754,423.059,104.808z"/>
	<path fill="#222222" d="M424.553,109.395v-3.974h-1.001v-0.574h1.001v-1.52h0.653v1.52h1.533v0.574h-1.533v3.906
		c0,0.641,0.284,0.96,0.853,0.96c0.285,0,0.556-0.075,0.813-0.227v0.627c-0.249,0.134-0.542,0.2-0.88,0.2
		c-0.444,0-0.796-0.127-1.053-0.38C424.681,110.254,424.553,109.883,424.553,109.395z"/>
</g>
<rect x="50.003" y="172.105" fill="#FFFFFF" stroke="#222222" stroke-linejoin="round" stroke-miterlimit="10" width="20.001" height="60.005"/>
<rect x="30.002" y="152.104" fill="#FFFFFF" stroke="#222222" stroke-linejoin="round" stroke-miterlimit="10" width="80.006" height="20.001"/>
<rect x="70.005" y="172.105" fill="#FFFFFF" stroke="#222222" stroke-linejoin="round" stroke-miterlimit="10" width="20.001" height="60.005"/>
<circle fill="none" stroke="#222222" stroke-linejoin="round" stroke-miterlimit="10" cx="190.014" cy="182.106" r="10.001"/>
<circle fill="none" stroke="#222222" stroke-linejoin="round" stroke-miterlimit="10" cx="170.012" cy="222.109" r="10.001"/>
<circle fill="none" stroke="#222222" stroke-linejoin="round" stroke-miterlimit="10" cx="210.015" cy="222.109" r="10.001"/>
<g>
	<path fill="none" stroke="#222222" stroke-linejoin="round" d="M190.014,192.107c0,0-18.583,9.292-19.925,18.918"/>
	<g>
		<polygon fill="#222222" points="166.977,206.927 167.84,206.42 170.331,210.675 174.393,207.88 174.96,208.705 170.012,212.108 		
			"/>
	</g>
</g>
<g>
	<path fill="none" stroke="#222222" stroke-linejoin="round" d="M190.014,192.107c0,0,18.583,9.292,19.925,18.918"/>
	<g>
		<polygon fill="#222222" points="205.067,208.705 205.634,207.88 209.695,210.676 212.188,206.42 213.051,206.927 210.015,212.108 
					"/>
	</g>
</g>
<g>
	<rect x="210.016" y="192.107" fill="none" width="50.004" height="10.001"/>
	<path fill="#222222" d="M210.416,199.241h0.667c0.24,0.72,0.791,1.08,1.653,1.08c0.427,0,0.773-0.094,1.04-0.28
		s0.4-0.458,0.4-0.813c0-0.498-0.364-0.849-1.093-1.054l-1.107-0.307c-0.933-0.248-1.4-0.746-1.4-1.493
		c0-0.498,0.191-0.896,0.573-1.193s0.858-0.446,1.427-0.446c0.604,0,1.096,0.142,1.474,0.427c0.377,0.284,0.62,0.68,0.727,1.187
		h-0.653c-0.231-0.693-0.747-1.04-1.547-1.04c-0.391,0-0.715,0.091-0.973,0.273c-0.258,0.182-0.387,0.438-0.387,0.767
		c0,0.267,0.082,0.467,0.247,0.6c0.165,0.134,0.438,0.254,0.82,0.36l1.054,0.293c0.987,0.258,1.48,0.796,1.48,1.613
		c0,0.525-0.196,0.937-0.586,1.233c-0.392,0.299-0.894,0.447-1.507,0.447c-0.605,0-1.118-0.146-1.54-0.44
		C210.761,200.161,210.505,199.757,210.416,199.241z"/>
	<path fill="#222222" d="M220.804,194.854v5.921h-0.654v-0.946c-0.195,0.302-0.458,0.556-0.787,0.76s-0.693,0.307-1.093,0.307
		c-0.658,0-1.165-0.193-1.52-0.58c-0.356-0.387-0.534-0.9-0.534-1.54v-3.921h0.654v3.827c0,0.48,0.126,0.867,0.38,1.16
		c0.253,0.294,0.633,0.44,1.14,0.44c0.391,0,0.744-0.12,1.06-0.36c0.315-0.24,0.549-0.547,0.7-0.92v-4.147H220.804z"/>
	<path fill="#222222" d="M223.364,199.895v3.146h-0.667v-8.188h0.667v0.881c0.178-0.275,0.434-0.512,0.767-0.707
		s0.69-0.293,1.073-0.293c0.826,0,1.465,0.295,1.914,0.887c0.448,0.591,0.673,1.322,0.673,2.193s-0.225,1.603-0.673,2.193
		c-0.449,0.591-1.088,0.887-1.914,0.887c-0.383,0-0.74-0.098-1.073-0.294C223.797,200.405,223.542,200.17,223.364,199.895z
		 M223.364,196.521v2.587c0.408,0.782,1,1.174,1.773,1.174c0.613,0,1.098-0.229,1.453-0.687s0.533-1.052,0.533-1.78
		c0-0.729-0.178-1.322-0.533-1.78s-0.84-0.687-1.453-0.687C224.364,195.348,223.772,195.738,223.364,196.521z"/>
	<path fill="#222222" d="M229.924,199.895v3.146h-0.667v-8.188h0.667v0.881c0.178-0.275,0.434-0.512,0.767-0.707
		s0.69-0.293,1.073-0.293c0.826,0,1.465,0.295,1.914,0.887c0.448,0.591,0.673,1.322,0.673,2.193s-0.225,1.603-0.673,2.193
		c-0.449,0.591-1.088,0.887-1.914,0.887c-0.383,0-0.74-0.098-1.073-0.294C230.358,200.405,230.102,200.17,229.924,199.895z
		 M229.924,196.521v2.587c0.408,0.782,1,1.174,1.773,1.174c0.613,0,1.098-0.229,1.453-0.687s0.533-1.052,0.533-1.78
		c0-0.729-0.178-1.322-0.533-1.78s-0.84-0.687-1.453-0.687C230.924,195.348,230.333,195.738,229.924,196.521z"/>
	<path fill="#222222" d="M239.918,195.587c0.484,0.569,0.727,1.312,0.727,2.228c0,0.915-0.242,1.658-0.727,2.227
		c-0.484,0.569-1.119,0.854-1.9,0.854c-0.783,0-1.414-0.284-1.894-0.854c-0.479-0.568-0.72-1.312-0.72-2.227
		c0-0.916,0.24-1.658,0.72-2.228c0.479-0.568,1.11-0.853,1.894-0.853C238.799,194.734,239.434,195.019,239.918,195.587z
		 M239.445,199.621c0.355-0.458,0.533-1.061,0.533-1.807c0-0.747-0.178-1.349-0.533-1.807c-0.356-0.458-0.831-0.688-1.427-0.688
		c-0.587,0-1.059,0.229-1.414,0.688s-0.533,1.06-0.533,1.807c0,0.746,0.178,1.349,0.533,1.807s0.827,0.687,1.414,0.687
		C238.614,200.308,239.088,200.079,239.445,199.621z"/>
	<path fill="#222222" d="M244.898,194.814v0.653c-0.169-0.071-0.351-0.107-0.546-0.107c-0.356,0-0.672,0.116-0.947,0.347
		c-0.275,0.231-0.484,0.543-0.627,0.934v4.134h-0.666v-5.921h0.666v0.947c0.143-0.312,0.355-0.566,0.641-0.767
		c0.284-0.2,0.604-0.3,0.959-0.3C244.547,194.734,244.72,194.761,244.898,194.814z"/>
	<path fill="#222222" d="M246.391,199.401v-3.974h-1v-0.574h1v-1.52h0.654v1.52h1.533v0.574h-1.533v3.906
		c0,0.641,0.284,0.96,0.854,0.96c0.283,0,0.555-0.075,0.812-0.227v0.627c-0.248,0.134-0.542,0.2-0.88,0.2
		c-0.444,0-0.796-0.127-1.054-0.38C246.52,200.261,246.391,199.89,246.391,199.401z"/>
</g>
<g>
	<path fill="none" stroke="#222222" stroke-linejoin="round" d="M180.013,222.109c9.679-5.197,9.991-5.852,19.065-0.549"/>
	<g>
		<polygon fill="#222222" points="194.163,223.46 193.937,222.485 198.742,221.378 197.286,216.666 198.243,216.372 200.014,222.11 
					"/>
	</g>
</g>
<g>
	<path fill="none" stroke="#222222" stroke-linejoin="round" d="M200.015,224.609c-9.677,4.929-9.99,5.753-19.062,0.543"/>
	<g>
		<polygon fill="#222222" points="185.854,223.211 186.087,224.184 181.292,225.33 182.786,230.03 181.832,230.332 180.014,224.608 
					"/>
	</g>
</g>
<g>
	<rect x="180.014" y="232.11" fill="none" width="50.003" height="10.001"/>
	<path fill="#222222" d="M181.228,239.404v-3.974h-1v-0.574h1v-1.52h0.653v1.52h1.534v0.574h-1.534v3.906
		c0,0.641,0.285,0.96,0.854,0.96c0.284,0,0.556-0.075,0.813-0.227v0.627c-0.249,0.134-0.542,0.2-0.88,0.2
		c-0.444,0-0.795-0.127-1.053-0.38C181.356,240.264,181.228,239.893,181.228,239.404z"/>
	<path fill="#222222" d="M188.942,235.59c0.484,0.569,0.727,1.312,0.727,2.228c0,0.915-0.242,1.658-0.727,2.227
		c-0.484,0.569-1.118,0.854-1.9,0.854c-0.783,0-1.414-0.284-1.894-0.854c-0.48-0.568-0.72-1.312-0.72-2.227
		c0-0.916,0.24-1.658,0.72-2.228c0.48-0.568,1.111-0.853,1.894-0.853C187.824,234.737,188.458,235.021,188.942,235.59z
		 M188.469,239.624c0.355-0.458,0.533-1.061,0.533-1.807c0-0.747-0.178-1.349-0.533-1.807c-0.356-0.458-0.832-0.688-1.427-0.688
		c-0.587,0-1.058,0.229-1.414,0.688c-0.356,0.458-0.534,1.06-0.534,1.807c0,0.746,0.178,1.349,0.534,1.807
		c0.355,0.458,0.827,0.687,1.414,0.687C187.637,240.311,188.113,240.082,188.469,239.624z"/>
	<path fill="#222222" d="M195.656,234.856v5.921h-0.654v-0.946c-0.195,0.302-0.458,0.556-0.787,0.76s-0.693,0.307-1.093,0.307
		c-0.658,0-1.165-0.193-1.52-0.58c-0.356-0.387-0.534-0.9-0.534-1.54v-3.921h0.654v3.827c0,0.48,0.126,0.867,0.38,1.16
		c0.253,0.294,0.633,0.44,1.14,0.44c0.391,0,0.744-0.12,1.06-0.36c0.315-0.24,0.549-0.547,0.7-0.92v-4.147H195.656z"/>
	<path fill="#222222" d="M197.842,240.044c-0.48-0.568-0.72-1.312-0.72-2.227c0-0.916,0.24-1.658,0.72-2.228
		c0.48-0.568,1.111-0.853,1.894-0.853c0.613,0,1.118,0.166,1.513,0.5c0.396,0.333,0.647,0.779,0.753,1.34h-0.68
		c-0.089-0.392-0.271-0.695-0.546-0.913c-0.276-0.218-0.623-0.327-1.04-0.327c-0.578,0-1.047,0.227-1.407,0.68
		c-0.36,0.454-0.54,1.054-0.54,1.801c0,0.746,0.18,1.347,0.54,1.8c0.36,0.453,0.829,0.68,1.407,0.68c0.417,0,0.764-0.108,1.04-0.326
		c0.275-0.218,0.458-0.522,0.546-0.913h0.68c-0.106,0.56-0.358,1.006-0.753,1.34c-0.396,0.333-0.9,0.5-1.513,0.5
		C198.953,240.897,198.322,240.613,197.842,240.044z"/>
	<path fill="#222222" d="M203.442,240.777v-8.667h0.667v3.693c0.196-0.302,0.46-0.556,0.793-0.76c0.333-0.205,0.7-0.307,1.1-0.307
		c0.658,0,1.165,0.193,1.52,0.58s0.534,0.899,0.534,1.54v3.92h-0.653v-3.827c0-0.479-0.127-0.866-0.38-1.16
		c-0.253-0.293-0.633-0.439-1.14-0.439c-0.391,0-0.747,0.12-1.066,0.359c-0.32,0.24-0.556,0.547-0.707,0.92v4.147H203.442z"/>
</g>
<g>
	<path fill="none" stroke="#FF4848" stroke-linejoin="round" d="M330.024,132.103c9.68-5.197,9.991-5.852,19.066-0.549"/>
	<g>
		<polygon fill="#FF4848" points="344.174,133.453 343.948,132.479 348.752,131.371 347.297,126.659 348.254,126.365 
			350.026,132.104 		"/>
	</g>
</g>
<g>
	<path fill="none" stroke="#FF4848" stroke-linejoin="round" d="M350.026,134.603c-9.678,4.929-9.99,5.753-19.062,0.543"/>
	<g>
		<polygon fill="#FF4848" points="335.866,133.204 336.098,134.177 331.303,135.323 332.797,140.023 331.843,140.325 
			330.025,134.602 		"/>
	</g>
</g>
<g>
	<rect x="330.025" y="142.104" fill="none" width="92.23" height="10.001"/>
	<path fill="#222222" d="M334.999,145.863c0.178-0.32,0.432-0.589,0.761-0.807s0.688-0.326,1.08-0.326
		c0.577,0,1.022,0.187,1.333,0.56c0.312,0.373,0.467,0.867,0.467,1.48v4h-0.653v-3.907c0-0.471-0.106-0.842-0.319-1.113
		c-0.214-0.271-0.529-0.406-0.947-0.406c-0.355,0-0.676,0.115-0.96,0.347s-0.489,0.528-0.613,0.894v4.187h-0.667v-3.907
		c0-0.471-0.106-0.842-0.32-1.113c-0.213-0.271-0.529-0.406-0.946-0.406c-0.356,0-0.676,0.115-0.96,0.347
		c-0.285,0.231-0.489,0.528-0.613,0.894v4.187h-0.667v-5.921h0.667v0.907c0.16-0.302,0.389-0.549,0.687-0.74
		c0.298-0.19,0.638-0.286,1.021-0.286C334.172,144.73,334.723,145.108,334.999,145.863z"/>
	<path fill="#222222" d="M345,144.85v5.921h-0.654v-0.946c-0.195,0.302-0.457,0.556-0.787,0.76
		c-0.328,0.204-0.693,0.307-1.093,0.307c-0.658,0-1.165-0.193-1.521-0.58s-0.533-0.9-0.533-1.54v-3.921h0.654v3.827
		c0,0.48,0.126,0.867,0.379,1.16c0.254,0.294,0.634,0.44,1.141,0.44c0.391,0,0.744-0.12,1.061-0.36
		c0.314-0.24,0.549-0.547,0.699-0.92v-4.147H345z"/>
	<path fill="#222222" d="M346.346,149.237h0.667c0.239,0.72,0.791,1.08,1.653,1.08c0.427,0,0.773-0.094,1.04-0.28
		s0.399-0.458,0.399-0.813c0-0.498-0.363-0.849-1.093-1.054l-1.106-0.307c-0.934-0.248-1.4-0.746-1.4-1.493
		c0-0.498,0.191-0.896,0.573-1.193s0.858-0.446,1.427-0.446c0.604,0,1.096,0.142,1.474,0.427c0.378,0.284,0.62,0.68,0.727,1.187
		h-0.653c-0.231-0.693-0.746-1.04-1.547-1.04c-0.391,0-0.715,0.091-0.973,0.273c-0.259,0.182-0.387,0.438-0.387,0.767
		c0,0.267,0.082,0.467,0.246,0.6c0.164,0.134,0.438,0.254,0.82,0.36l1.053,0.293c0.987,0.258,1.48,0.796,1.48,1.613
		c0,0.525-0.195,0.937-0.586,1.233c-0.393,0.299-0.895,0.447-1.508,0.447c-0.604,0-1.117-0.146-1.539-0.44
		C346.691,150.157,346.435,149.753,346.346,149.237z"/>
	<path fill="#222222" d="M352.48,149.397v-3.974h-1v-0.574h1v-1.52h0.653v1.52h1.533v0.574h-1.533v3.906
		c0,0.641,0.285,0.96,0.854,0.96c0.284,0,0.556-0.075,0.813-0.227v0.627c-0.249,0.134-0.542,0.2-0.88,0.2
		c-0.445,0-0.796-0.127-1.054-0.38C352.609,150.257,352.48,149.886,352.48,149.397z"/>
	<path fill="#222222" d="M359.121,150.771v-5.921h0.667v0.947c0.195-0.302,0.46-0.556,0.793-0.76c0.334-0.205,0.7-0.307,1.1-0.307
		c0.658,0,1.165,0.193,1.521,0.58s0.534,0.899,0.534,1.54v3.92h-0.654v-3.827c0-0.479-0.127-0.866-0.38-1.16
		c-0.253-0.293-0.634-0.439-1.14-0.439c-0.392,0-0.747,0.12-1.066,0.359c-0.32,0.24-0.557,0.547-0.707,0.92v4.147H359.121z"/>
	<path fill="#222222" d="M369.648,145.583c0.484,0.569,0.727,1.312,0.727,2.228c0,0.915-0.242,1.658-0.727,2.227
		c-0.484,0.569-1.118,0.854-1.899,0.854c-0.783,0-1.414-0.284-1.895-0.854c-0.479-0.568-0.72-1.312-0.72-2.227
		c0-0.916,0.24-1.658,0.72-2.228c0.48-0.568,1.111-0.853,1.895-0.853C368.53,144.73,369.164,145.015,369.648,145.583z
		 M369.174,149.617c0.355-0.458,0.533-1.061,0.533-1.807c0-0.747-0.178-1.349-0.533-1.807s-0.831-0.688-1.426-0.688
		c-0.588,0-1.059,0.229-1.414,0.688s-0.533,1.06-0.533,1.807c0,0.746,0.178,1.349,0.533,1.807s0.826,0.687,1.414,0.687
		C368.343,150.304,368.819,150.075,369.174,149.617z"/>
	<path fill="#222222" d="M372.108,149.397v-3.974h-1v-0.574h1v-1.52h0.653v1.52h1.534v0.574h-1.534v3.906
		c0,0.641,0.284,0.96,0.854,0.96c0.284,0,0.556-0.075,0.813-0.227v0.627c-0.249,0.134-0.543,0.2-0.881,0.2
		c-0.443,0-0.795-0.127-1.053-0.38C372.237,150.257,372.108,149.886,372.108,149.397z"/>
	<path fill="#222222" d="M379.015,149.397v-3.974h-1v-0.574h1v-1.52h0.653v1.52h1.533v0.574h-1.533v3.906
		c0,0.641,0.285,0.96,0.854,0.96c0.284,0,0.556-0.075,0.813-0.227v0.627c-0.249,0.134-0.542,0.2-0.88,0.2
		c-0.445,0-0.796-0.127-1.054-0.38C379.144,150.257,379.015,149.886,379.015,149.397z"/>
	<path fill="#222222" d="M386.729,145.583c0.484,0.569,0.727,1.312,0.727,2.228c0,0.915-0.242,1.658-0.727,2.227
		c-0.484,0.569-1.117,0.854-1.899,0.854s-1.413-0.284-1.894-0.854c-0.48-0.568-0.721-1.312-0.721-2.227
		c0-0.916,0.24-1.658,0.721-2.228c0.48-0.568,1.111-0.853,1.894-0.853S386.245,145.015,386.729,145.583z M386.256,149.617
		c0.355-0.458,0.533-1.061,0.533-1.807c0-0.747-0.178-1.349-0.533-1.807s-0.832-0.688-1.427-0.688c-0.587,0-1.058,0.229-1.413,0.688
		c-0.356,0.458-0.534,1.06-0.534,1.807c0,0.746,0.178,1.349,0.534,1.807c0.355,0.458,0.826,0.687,1.413,0.687
		C385.424,150.304,385.901,150.075,386.256,149.617z"/>
	<path fill="#222222" d="M393.444,144.85v5.921h-0.654v-0.946c-0.195,0.302-0.457,0.556-0.787,0.76
		c-0.328,0.204-0.693,0.307-1.093,0.307c-0.658,0-1.165-0.193-1.521-0.58s-0.533-0.9-0.533-1.54v-3.921h0.654v3.827
		c0,0.48,0.126,0.867,0.379,1.16c0.254,0.294,0.634,0.44,1.141,0.44c0.391,0,0.744-0.12,1.061-0.36
		c0.314-0.24,0.549-0.547,0.699-0.92v-4.147H393.444z"/>
	<path fill="#222222" d="M395.629,150.037c-0.479-0.568-0.72-1.312-0.72-2.227c0-0.916,0.24-1.658,0.72-2.228
		c0.48-0.568,1.111-0.853,1.895-0.853c0.613,0,1.117,0.166,1.513,0.5c0.396,0.333,0.647,0.779,0.753,1.34h-0.68
		c-0.089-0.392-0.271-0.695-0.547-0.913s-0.622-0.327-1.039-0.327c-0.578,0-1.047,0.227-1.408,0.68
		c-0.359,0.454-0.539,1.054-0.539,1.801c0,0.746,0.18,1.347,0.539,1.8c0.361,0.453,0.83,0.68,1.408,0.68
		c0.417,0,0.764-0.108,1.039-0.326s0.458-0.522,0.547-0.913h0.68c-0.105,0.56-0.357,1.006-0.753,1.34
		c-0.396,0.333-0.899,0.5-1.513,0.5C396.741,150.891,396.11,150.606,395.629,150.037z"/>
	<path fill="#222222" d="M401.23,150.771v-8.667h0.667v3.693c0.195-0.302,0.46-0.556,0.793-0.76c0.334-0.205,0.7-0.307,1.1-0.307
		c0.658,0,1.165,0.193,1.521,0.58s0.534,0.899,0.534,1.54v3.92h-0.654v-3.827c0-0.479-0.127-0.866-0.38-1.16
		c-0.253-0.293-0.634-0.439-1.14-0.439c-0.392,0-0.747,0.12-1.066,0.359c-0.32,0.24-0.557,0.547-0.707,0.92v4.147H401.23z"/>
</g>
<line fill="none" stroke="#FF4848" stroke-linejoin="round" stroke-miterlimit="10" x1="346.322" y1="122.102" x2="337.803" y2="132.103"/>
<line fill="none" stroke="#FF4848" stroke-linejoin="round" stroke-miterlimit="10" x1="342.803" y1="134.603" x2="337.803" y2="141.362"/>
<g>
	<rect x="302.059" y="25.706" fill="none" width="80.007" height="20.002"/>
	<path fill="#AFC6F9" d="M302.486,31.493c0-1.396,0.407-2.614,1.221-3.654c0.812-1.04,1.917-1.751,3.313-2.133l-0.187,1.08
		c-0.97,0.275-1.768,0.842-2.394,1.7c-0.627,0.857-0.94,1.859-0.94,3.007c0,0.765,0.178,1.399,0.533,1.906s0.845,0.85,1.467,1.027
		l-0.2,1.066c-0.88-0.275-1.568-0.758-2.066-1.447C302.735,33.357,302.486,32.506,302.486,31.493z"/>
	<path fill="#AFC6F9" d="M306.726,34.373l1.04-5.921h1l-0.133,0.761c0.507-0.587,1.138-0.88,1.894-0.88
		c0.551,0,0.979,0.155,1.286,0.466c0.307,0.312,0.46,0.726,0.46,1.24c0,0.143-0.013,0.294-0.04,0.454l-0.68,3.88h-1.014l0.653-3.721
		c0.027-0.142,0.04-0.271,0.04-0.387c0-0.675-0.355-1.013-1.066-1.013c-0.347,0-0.68,0.106-1,0.319
		c-0.32,0.214-0.564,0.48-0.733,0.801l-0.707,4H306.726z"/>
	<path fill="#AFC6F9" d="M317.367,32.6h1.014c-0.178,0.569-0.5,1.026-0.967,1.373s-1.02,0.521-1.66,0.521
		c-0.756,0-1.352-0.235-1.786-0.707c-0.437-0.471-0.654-1.102-0.654-1.894c0-0.934,0.285-1.76,0.854-2.479
		c0.569-0.721,1.325-1.08,2.268-1.08c0.711,0,1.255,0.211,1.633,0.633c0.378,0.423,0.567,0.998,0.567,1.727
		c0,0.231-0.036,0.534-0.107,0.907h-4.2c-0.009,0.071-0.013,0.169-0.013,0.293c0,0.552,0.128,0.98,0.387,1.287
		c0.257,0.307,0.626,0.46,1.106,0.46c0.355,0,0.673-0.091,0.953-0.273C317.041,33.185,317.243,32.929,317.367,32.6z M316.394,29.186
		c-0.48,0-0.885,0.153-1.214,0.461c-0.329,0.307-0.569,0.704-0.72,1.193h3.187c0.009-0.062,0.014-0.147,0.014-0.254
		c0-0.399-0.109-0.733-0.327-1S316.802,29.186,316.394,29.186z"/>
	<path fill="#AFC6F9" d="M324.487,30.439l-0.68,3.934h-0.974l0.066-0.44c-0.382,0.365-0.897,0.547-1.547,0.547
		c-0.568,0-1.042-0.155-1.42-0.467c-0.378-0.311-0.566-0.72-0.566-1.227c0-0.604,0.249-1.098,0.747-1.48
		c0.497-0.382,1.089-0.573,1.773-0.573c0.666,0,1.16,0.169,1.479,0.507l0.146-0.773c0.019-0.142,0.027-0.248,0.027-0.319
		c0-0.285-0.089-0.514-0.267-0.688c-0.178-0.173-0.44-0.26-0.787-0.26c-0.631,0-1.098,0.271-1.4,0.813H320.1
		c0.187-0.507,0.504-0.913,0.953-1.22s0.963-0.46,1.54-0.46c0.604,0,1.078,0.155,1.421,0.466c0.342,0.312,0.513,0.729,0.513,1.254
		C324.527,30.159,324.514,30.288,324.487,30.439z M323.074,32.906l0.12-0.613c-0.054-0.214-0.202-0.389-0.447-0.526
		c-0.244-0.138-0.531-0.207-0.859-0.207c-0.409,0-0.771,0.103-1.087,0.307s-0.474,0.493-0.474,0.867
		c0,0.275,0.122,0.495,0.367,0.659c0.244,0.165,0.535,0.247,0.873,0.247c0.329,0,0.634-0.066,0.913-0.2
		C322.76,33.307,322.958,33.129,323.074,32.906z"/>
	<path fill="#AFC6F9" d="M329.607,28.426l-0.187,1.027c-0.143-0.107-0.355-0.16-0.64-0.16c-0.32,0-0.62,0.098-0.9,0.293
		s-0.5,0.467-0.66,0.813l-0.707,3.974h-1l1.04-5.921h1l-0.133,0.773c0.169-0.257,0.402-0.471,0.7-0.64s0.606-0.253,0.927-0.253
		C329.314,28.333,329.5,28.364,329.607,28.426z"/>
	<path fill="#AFC6F9" d="M337.807,29.279c0.534-0.631,1.16-0.946,1.881-0.946c0.533,0,0.939,0.153,1.22,0.46s0.42,0.704,0.42,1.193
		c0,0.169-0.014,0.333-0.04,0.493l-0.68,3.894h-1.014l0.64-3.667c0.036-0.187,0.054-0.351,0.054-0.493
		c0-0.641-0.298-0.96-0.894-0.96c-0.622,0-1.129,0.369-1.52,1.106l-0.693,4.014h-1.014l0.64-3.667
		c0.036-0.284,0.054-0.449,0.054-0.493c0-0.641-0.298-0.96-0.894-0.96c-0.32,0-0.611,0.104-0.873,0.313
		c-0.263,0.209-0.479,0.473-0.647,0.793l-0.706,4.014h-1l1.04-5.921h1l-0.134,0.761c0.472-0.587,1.045-0.88,1.721-0.88
		c0.364,0,0.673,0.089,0.927,0.267C337.547,28.777,337.718,29.004,337.807,29.279z"/>
	<path fill="#AFC6F9" d="M344.341,28.452l-1.04,5.921h-1l1.04-5.921H344.341z M344.615,26.213c0.129,0.124,0.193,0.275,0.193,0.453
		s-0.064,0.329-0.193,0.453c-0.129,0.125-0.282,0.187-0.46,0.187c-0.179,0-0.329-0.062-0.454-0.187
		c-0.124-0.124-0.187-0.275-0.187-0.453s0.062-0.329,0.187-0.453c0.125-0.125,0.275-0.188,0.454-0.188
		C344.333,26.025,344.486,26.088,344.615,26.213z"/>
	<path fill="#AFC6F9" d="M344.887,32.72h0.987c0.053,0.312,0.2,0.545,0.439,0.7c0.24,0.155,0.543,0.233,0.907,0.233
		c0.382,0,0.695-0.078,0.94-0.233c0.244-0.155,0.366-0.394,0.366-0.714c0-0.338-0.249-0.591-0.747-0.76l-1.026-0.307
		c-0.409-0.125-0.72-0.298-0.934-0.521c-0.213-0.222-0.319-0.533-0.319-0.933c0-0.543,0.213-0.987,0.64-1.334s0.951-0.52,1.573-0.52
		c0.667,0,1.185,0.153,1.554,0.46c0.368,0.307,0.575,0.722,0.62,1.246h-0.96c-0.116-0.577-0.521-0.866-1.214-0.866
		c-0.347,0-0.638,0.082-0.873,0.246c-0.236,0.165-0.354,0.39-0.354,0.674c0,0.169,0.054,0.305,0.16,0.406
		c0.106,0.103,0.28,0.193,0.52,0.273l1.027,0.32c0.871,0.275,1.307,0.77,1.307,1.48c0,0.586-0.218,1.053-0.653,1.399
		s-0.979,0.521-1.627,0.521c-0.685,0-1.233-0.162-1.646-0.486C345.161,33.682,344.932,33.253,344.887,32.72z"/>
	<path fill="#AFC6F9" d="M350.381,32.72h0.986c0.054,0.312,0.2,0.545,0.44,0.7s0.542,0.233,0.906,0.233
		c0.383,0,0.696-0.078,0.94-0.233s0.367-0.394,0.367-0.714c0-0.338-0.249-0.591-0.747-0.76l-1.026-0.307
		c-0.409-0.125-0.721-0.298-0.934-0.521c-0.214-0.222-0.32-0.533-0.32-0.933c0-0.543,0.213-0.987,0.64-1.334s0.951-0.52,1.574-0.52
		c0.666,0,1.185,0.153,1.553,0.46c0.369,0.307,0.576,0.722,0.62,1.246h-0.96c-0.115-0.577-0.52-0.866-1.213-0.866
		c-0.347,0-0.639,0.082-0.874,0.246c-0.235,0.165-0.354,0.39-0.354,0.674c0,0.169,0.054,0.305,0.16,0.406
		c0.107,0.103,0.28,0.193,0.521,0.273l1.026,0.32c0.871,0.275,1.307,0.77,1.307,1.48c0,0.586-0.218,1.053-0.653,1.399
		s-0.978,0.521-1.627,0.521c-0.685,0-1.233-0.162-1.646-0.486C350.655,33.682,350.425,33.253,350.381,32.72z"/>
	<path fill="#AFC6F9" d="M359.875,29.706c0,1.396-0.406,2.613-1.22,3.653s-1.918,1.751-3.313,2.134l0.187-1.08
		c0.969-0.275,1.767-0.842,2.394-1.7c0.627-0.857,0.94-1.86,0.94-3.007c0-0.765-0.179-1.4-0.533-1.907
		c-0.356-0.506-0.845-0.849-1.467-1.026l0.199-1.066c0.881,0.275,1.569,0.758,2.067,1.446
		C359.625,27.842,359.875,28.692,359.875,29.706z"/>
</g>
<g>
	<rect x="300.394" y="6.261" fill="none" width="145.566" height="29.446"/>
	<path fill="#386DF9" d="M302.706,17.816h-0.907V6.9h6.329v0.836h-5.422v4.16h5.138v0.818h-5.138V17.816z"/>
	<path fill="#386DF9" d="M315.373,10.9c0.646,0.759,0.969,1.749,0.969,2.969s-0.323,2.21-0.969,2.969
		c-0.646,0.759-1.491,1.138-2.533,1.138c-1.044,0-1.885-0.379-2.525-1.138c-0.64-0.758-0.96-1.748-0.96-2.969s0.32-2.21,0.96-2.969
		c0.641-0.758,1.481-1.138,2.525-1.138C313.881,9.763,314.726,10.142,315.373,10.9z M314.742,16.278
		c0.474-0.61,0.711-1.413,0.711-2.409s-0.237-1.799-0.711-2.409c-0.475-0.61-1.108-0.916-1.902-0.916
		c-0.782,0-1.411,0.305-1.885,0.916c-0.475,0.61-0.711,1.414-0.711,2.409s0.236,1.798,0.711,2.409
		c0.474,0.611,1.103,0.916,1.885,0.916C313.633,17.194,314.267,16.889,314.742,16.278z"/>
	<path fill="#386DF9" d="M322.013,9.869v0.871c-0.226-0.095-0.469-0.142-0.729-0.142c-0.474,0-0.895,0.154-1.262,0.462
		c-0.368,0.308-0.646,0.723-0.836,1.244v5.512h-0.889V9.922h0.889v1.262c0.189-0.415,0.474-0.755,0.854-1.022
		c0.379-0.267,0.806-0.4,1.28-0.4C321.544,9.763,321.776,9.798,322.013,9.869z"/>
	<path fill="#386DF9" d="M324.538,16.643v1.173h-0.871V6.26h0.871v4.836c0.237-0.367,0.578-0.681,1.022-0.942
		s0.922-0.391,1.432-0.391c1.113,0,1.967,0.394,2.56,1.182c0.593,0.789,0.889,1.763,0.889,2.925s-0.296,2.136-0.889,2.924
		s-1.446,1.183-2.56,1.183c-0.51,0-0.987-0.131-1.432-0.391C325.116,17.324,324.775,17.011,324.538,16.643z M324.538,12.145v3.449
		c0.261,0.498,0.602,0.883,1.022,1.155c0.421,0.273,0.874,0.409,1.36,0.409c0.806,0,1.445-0.305,1.92-0.915
		c0.474-0.61,0.711-1.402,0.711-2.374c0-0.972-0.237-1.763-0.711-2.374c-0.475-0.61-1.114-0.916-1.92-0.916
		c-0.486,0-0.939,0.137-1.36,0.409C325.139,11.262,324.798,11.647,324.538,12.145z"/>
	<path fill="#386DF9" d="M333.267,7.096c0.118,0.119,0.178,0.261,0.178,0.427s-0.06,0.308-0.178,0.427
		c-0.119,0.118-0.261,0.178-0.427,0.178s-0.309-0.06-0.427-0.178c-0.118-0.119-0.178-0.261-0.178-0.427s0.06-0.308,0.178-0.427
		s0.261-0.178,0.427-0.178S333.148,6.977,333.267,7.096z M333.285,9.922v7.894h-0.889V9.922H333.285z"/>
	<path fill="#386DF9" d="M341.143,17.816v-1.173c-0.237,0.368-0.578,0.681-1.022,0.943c-0.444,0.26-0.922,0.391-1.431,0.391
		c-1.114,0-1.968-0.395-2.561-1.183s-0.889-1.763-0.889-2.924s0.296-2.136,0.889-2.925c0.593-0.788,1.446-1.182,2.561-1.182
		c0.509,0,0.986,0.13,1.431,0.391s0.785,0.575,1.022,0.942V6.26h0.871v11.557H341.143z M341.143,15.594v-3.449
		c-0.261-0.498-0.602-0.883-1.022-1.156c-0.421-0.272-0.874-0.409-1.359-0.409c-0.807,0-1.446,0.306-1.921,0.916
		c-0.474,0.61-0.711,1.401-0.711,2.374c0,0.972,0.237,1.763,0.711,2.374c0.475,0.61,1.114,0.915,1.921,0.915
		c0.485,0,0.938-0.136,1.359-0.409C340.542,16.477,340.882,16.092,341.143,15.594z"/>
	<path fill="#386DF9" d="M348.628,17.816V6.9h0.906v10.081h5.921v0.835H348.628z"/>
	<path fill="#386DF9" d="M358.299,7.096c0.119,0.119,0.179,0.261,0.179,0.427s-0.06,0.308-0.179,0.427
		c-0.118,0.118-0.261,0.178-0.426,0.178c-0.167,0-0.309-0.06-0.427-0.178c-0.119-0.119-0.178-0.261-0.178-0.427
		s0.059-0.308,0.178-0.427c0.118-0.119,0.26-0.178,0.427-0.178C358.039,6.918,358.181,6.977,358.299,7.096z M358.318,9.922v7.894
		h-0.89V9.922H358.318z"/>
	<path fill="#386DF9" d="M360.841,17.816V9.922h0.89v1.262c0.26-0.402,0.613-0.74,1.058-1.013c0.444-0.272,0.934-0.409,1.467-0.409
		c0.877,0,1.553,0.258,2.026,0.773c0.475,0.516,0.712,1.2,0.712,2.054v5.227h-0.872v-5.103c0-0.64-0.168-1.156-0.506-1.547
		s-0.845-0.587-1.521-0.587c-0.521,0-0.995,0.16-1.422,0.48c-0.427,0.32-0.741,0.729-0.942,1.227v5.529H360.841z"/>
	<path fill="#386DF9" d="M374.708,17.816l-3.431-3.947l-0.96,0.889v3.058h-0.89V6.26h0.89v7.467l4.178-3.805h1.174l-3.752,3.396
		l3.876,4.498H374.708z"/>
</g>
<g>
</g>
<g>
</g>
<g>
</g>
<g>
</g>
<g>
</g>
<g>
</g>
<g>
</g>
</svg>
