<?xml version="1.0" encoding="utf-8"?>
<!-- Generator: Adobe Illustrator 16.0.0, SVG Export Plug-In . SVG Version: 6.00 Build 0)  -->
<!DOCTYPE svg PUBLIC "-//W3C//DTD SVG 1.1 Tiny//EN" "http://www.w3.org/Graphics/SVG/1.1/DTD/svg11-tiny.dtd">
<svg version="1.1" baseProfile="tiny" id="Layer_1" xmlns="http://www.w3.org/2000/svg" xmlns:xlink="http://www.w3.org/1999/xlink"
	 x="0px" y="0px" width="450.034px" height="245.44px" viewBox="0 0 450.034 245.44" xml:space="preserve">
<g>
	<path fill="none" stroke="#FF4848" stroke-linejoin="round" d="M340.025,102.101c0,0-18.583,9.292-19.925,18.919"/>
	<g>
		<polygon fill="#FF4848" points="316.988,116.921 317.852,116.414 320.343,120.669 324.405,117.874 324.972,118.699 
			320.023,122.103 		"/>
	</g>
</g>
<g>
	<path fill="none" stroke="#FF4848" stroke-linejoin="round" d="M340.025,102.101c0,0,18.584,9.292,19.926,18.919"/>
	<g>
		<polygon fill="#FF4848" points="355.079,118.699 355.646,117.874 359.707,120.669 362.199,116.415 363.062,116.921 
			360.026,122.103 		"/>
	</g>
</g>
<rect x="40.003" y="42.096" fill="#FFFFFF" stroke="#222222" stroke-linejoin="round" stroke-miterlimit="10" width="20.002" height="60.005"/>
<rect x="30.003" y="22.095" fill="#FFFFFF" stroke="#222222" stroke-linejoin="round" stroke-miterlimit="10" width="80.006" height="20.001"/>
<rect x="80.006" y="42.096" fill="#FFFFFF" stroke="#222222" stroke-linejoin="round" stroke-miterlimit="10" width="20.002" height="60.005"/>
<circle fill="none" stroke="#222222" stroke-linejoin="round" stroke-miterlimit="10" cx="190.015" cy="32.096" r="10.001"/>
<circle fill="none" stroke="#222222" stroke-linejoin="round" stroke-miterlimit="10" cx="170.013" cy="72.099" r="10"/>
<circle fill="none" stroke="#222222" stroke-linejoin="round" stroke-miterlimit="10" cx="210.016" cy="72.099" r="10"/>
<g>
	<path fill="none" stroke="#FF4848" stroke-linejoin="round" d="M190.015,42.096c0,0-18.584,9.292-19.926,18.919"/>
	<g>
		<polygon fill="#FF4848" points="166.977,56.916 167.84,56.409 170.331,60.664 174.394,57.869 174.96,58.694 170.012,62.098 		"/>
	</g>
</g>
<g>
	<path fill="none" stroke="#FF4848" stroke-linejoin="round" d="M190.015,42.096c0,0,18.583,9.292,19.925,18.919"/>
	<g>
		<polygon fill="#FF4848" points="205.067,58.694 205.634,57.869 209.695,60.665 212.188,56.409 213.051,56.916 210.015,62.098 		
			"/>
	</g>
</g>
<g>
	<rect x="210.017" y="42.097" fill="none" width="50.004" height="10"/>
	<path fill="#222222" d="M210.417,49.23h0.666c0.24,0.72,0.791,1.081,1.653,1.081c0.427,0,0.773-0.094,1.041-0.28
		c0.267-0.187,0.399-0.458,0.399-0.813c0-0.498-0.364-0.849-1.093-1.053l-1.107-0.307c-0.934-0.249-1.4-0.747-1.4-1.494
		c0-0.498,0.191-0.896,0.574-1.193c0.382-0.298,0.857-0.447,1.427-0.447c0.604,0,1.095,0.143,1.473,0.427
		c0.378,0.285,0.62,0.68,0.728,1.187h-0.653c-0.231-0.694-0.747-1.041-1.547-1.041c-0.392,0-0.716,0.091-0.974,0.273
		c-0.258,0.183-0.387,0.438-0.387,0.767c0,0.267,0.082,0.466,0.246,0.6c0.165,0.133,0.438,0.253,0.82,0.36l1.054,0.293
		c0.986,0.258,1.48,0.795,1.48,1.613c0,0.524-0.196,0.936-0.587,1.233c-0.392,0.298-0.894,0.447-1.507,0.447
		c-0.604,0-1.118-0.147-1.54-0.44C210.761,50.15,210.506,49.746,210.417,49.23z"/>
	<path fill="#222222" d="M220.804,44.843v5.92h-0.653v-0.947c-0.195,0.302-0.458,0.556-0.786,0.76
		c-0.329,0.204-0.693,0.307-1.094,0.307c-0.658,0-1.165-0.193-1.521-0.58s-0.533-0.9-0.533-1.54v-3.92h0.653v3.827
		c0,0.48,0.127,0.867,0.38,1.16c0.254,0.293,0.634,0.44,1.141,0.44c0.391,0,0.744-0.12,1.06-0.36c0.315-0.24,0.549-0.546,0.7-0.92
		v-4.147H220.804z"/>
	<path fill="#222222" d="M223.364,49.884v3.146h-0.667v-8.187h0.667v0.88c0.178-0.275,0.434-0.511,0.767-0.707
		c0.334-0.195,0.691-0.293,1.073-0.293c0.827,0,1.465,0.296,1.914,0.887c0.448,0.591,0.673,1.322,0.673,2.193
		c0,0.872-0.225,1.603-0.673,2.194c-0.449,0.591-1.087,0.887-1.914,0.887c-0.382,0-0.739-0.098-1.073-0.293
		C223.798,50.395,223.542,50.159,223.364,49.884z M223.364,46.51v2.586c0.409,0.783,1,1.174,1.773,1.174
		c0.613,0,1.098-0.229,1.454-0.687c0.355-0.458,0.533-1.051,0.533-1.78c0-0.729-0.178-1.322-0.533-1.78
		c-0.356-0.458-0.841-0.687-1.454-0.687C224.364,45.336,223.773,45.728,223.364,46.51z"/>
	<path fill="#222222" d="M229.925,49.884v3.146h-0.667v-8.187h0.667v0.88c0.178-0.275,0.434-0.511,0.767-0.707
		c0.334-0.195,0.691-0.293,1.073-0.293c0.827,0,1.465,0.296,1.914,0.887c0.448,0.591,0.673,1.322,0.673,2.193
		c0,0.872-0.225,1.603-0.673,2.194c-0.449,0.591-1.087,0.887-1.914,0.887c-0.382,0-0.739-0.098-1.073-0.293
		C230.358,50.395,230.103,50.159,229.925,49.884z M229.925,46.51v2.586c0.409,0.783,1,1.174,1.773,1.174
		c0.613,0,1.098-0.229,1.454-0.687c0.355-0.458,0.533-1.051,0.533-1.78c0-0.729-0.178-1.322-0.533-1.78
		c-0.356-0.458-0.841-0.687-1.454-0.687C230.925,45.336,230.334,45.728,229.925,46.51z"/>
	<path fill="#222222" d="M239.92,45.577c0.484,0.569,0.727,1.312,0.727,2.227c0,0.916-0.242,1.658-0.727,2.227
		c-0.485,0.569-1.118,0.854-1.9,0.854s-1.414-0.285-1.894-0.854c-0.48-0.569-0.72-1.311-0.72-2.227c0-0.915,0.239-1.658,0.72-2.227
		c0.479-0.569,1.111-0.854,1.894-0.854S239.435,45.008,239.92,45.577z M239.446,49.61c0.355-0.458,0.533-1.06,0.533-1.807
		c0-0.747-0.178-1.349-0.533-1.807c-0.355-0.458-0.831-0.687-1.427-0.687c-0.587,0-1.059,0.229-1.414,0.687
		c-0.355,0.458-0.533,1.06-0.533,1.807c0,0.747,0.178,1.349,0.533,1.807s0.827,0.687,1.414,0.687
		C238.615,50.297,239.091,50.068,239.446,49.61z"/>
	<path fill="#222222" d="M244.899,44.803v0.653c-0.169-0.071-0.351-0.106-0.547-0.106c-0.355,0-0.671,0.115-0.946,0.347
		c-0.275,0.231-0.484,0.542-0.627,0.933v4.134h-0.667v-5.92h0.667v0.947c0.143-0.311,0.355-0.567,0.641-0.767
		c0.284-0.2,0.604-0.3,0.96-0.3C244.549,44.723,244.722,44.75,244.899,44.803z"/>
	<path fill="#222222" d="M246.394,49.39v-3.974h-1.001v-0.573h1.001v-1.52h0.653v1.52h1.533v0.573h-1.533v3.907
		c0,0.64,0.284,0.96,0.853,0.96c0.285,0,0.556-0.076,0.813-0.227v0.626c-0.249,0.133-0.542,0.2-0.88,0.2
		c-0.444,0-0.796-0.127-1.053-0.38C246.521,50.25,246.394,49.879,246.394,49.39z"/>
</g>
<g>
	<rect x="0.001" y="2.093" fill="none" width="60.004" height="20.002"/>
	<path d="M1.601,2.72c0.088,0.089,0.133,0.196,0.133,0.32c0,0.125-0.045,0.231-0.133,0.32c-0.09,0.089-0.196,0.133-0.32,0.133
		c-0.125,0-0.231-0.044-0.32-0.133S0.827,3.165,0.827,3.04c0-0.124,0.044-0.231,0.133-0.32s0.195-0.133,0.32-0.133
		C1.404,2.587,1.511,2.631,1.601,2.72z M1.613,4.84v5.92H0.946V4.84H1.613z"/>
	<path d="M2.96,9.227h0.666c0.24,0.72,0.791,1.081,1.653,1.081c0.427,0,0.773-0.094,1.041-0.28C6.587,9.841,6.72,9.57,6.72,9.214
		c0-0.498-0.364-0.849-1.093-1.053L4.52,7.854c-0.934-0.249-1.4-0.747-1.4-1.494c0-0.498,0.191-0.896,0.574-1.193
		C4.075,4.869,4.551,4.72,5.12,4.72c0.604,0,1.095,0.143,1.473,0.427c0.378,0.285,0.62,0.68,0.728,1.187H6.667
		C6.436,5.64,5.92,5.293,5.12,5.293c-0.392,0-0.716,0.091-0.974,0.273C3.889,5.75,3.76,6.005,3.76,6.334
		c0,0.267,0.082,0.466,0.246,0.6c0.165,0.133,0.438,0.253,0.82,0.36L5.88,7.587c0.986,0.258,1.48,0.795,1.48,1.613
		c0,0.524-0.196,0.936-0.587,1.233c-0.392,0.298-0.894,0.447-1.507,0.447c-0.604,0-1.118-0.147-1.54-0.44
		C3.304,10.147,3.049,9.743,2.96,9.227z"/>
	<path d="M15.801,10.761h-0.64v-0.56c-0.143,0.169-0.365,0.32-0.667,0.454c-0.303,0.133-0.627,0.2-0.974,0.2
		c-0.622,0-1.143-0.167-1.56-0.5c-0.418-0.333-0.627-0.775-0.627-1.327c0-0.533,0.213-0.969,0.64-1.307s0.951-0.507,1.573-0.507
		c0.32,0,0.632,0.064,0.934,0.193c0.303,0.129,0.529,0.273,0.681,0.433V6.787c0-0.444-0.132-0.802-0.394-1.073
		c-0.263-0.271-0.625-0.407-1.087-0.407c-0.738,0-1.218,0.338-1.44,1.013h-0.653c0.115-0.498,0.362-0.889,0.74-1.173
		c0.378-0.284,0.829-0.427,1.354-0.427c0.658,0,1.176,0.185,1.554,0.553c0.378,0.369,0.566,0.865,0.566,1.487V10.761z M15.161,9.414
		v-0.76c-0.099-0.258-0.296-0.469-0.594-0.633s-0.625-0.247-0.98-0.247c-0.453,0-0.838,0.109-1.153,0.327s-0.473,0.527-0.473,0.927
		s0.157,0.711,0.473,0.933c0.315,0.223,0.7,0.333,1.153,0.333c0.355,0,0.683-0.082,0.98-0.247S15.062,9.672,15.161,9.414z"/>
	<path d="M17.627,10.761V4.84h0.667v0.947c0.195-0.302,0.46-0.556,0.794-0.76c0.333-0.204,0.699-0.307,1.1-0.307
		c0.658,0,1.165,0.193,1.521,0.58s0.533,0.9,0.533,1.54v3.92h-0.653V6.934c0-0.48-0.127-0.867-0.38-1.16
		c-0.254-0.293-0.634-0.44-1.141-0.44c-0.391,0-0.746,0.12-1.066,0.36c-0.32,0.24-0.556,0.546-0.707,0.92v4.147H17.627z"/>
	<path d="M31.042,10.761h-0.64v-0.56c-0.143,0.169-0.365,0.32-0.667,0.454c-0.303,0.133-0.627,0.2-0.974,0.2
		c-0.622,0-1.143-0.167-1.56-0.5c-0.418-0.333-0.627-0.775-0.627-1.327c0-0.533,0.213-0.969,0.64-1.307s0.951-0.507,1.573-0.507
		c0.32,0,0.632,0.064,0.934,0.193c0.303,0.129,0.529,0.273,0.681,0.433V6.787c0-0.444-0.132-0.802-0.394-1.073
		c-0.263-0.271-0.625-0.407-1.087-0.407c-0.738,0-1.218,0.338-1.44,1.013h-0.653c0.115-0.498,0.362-0.889,0.74-1.173
		c0.378-0.284,0.829-0.427,1.354-0.427c0.658,0,1.176,0.185,1.554,0.553c0.378,0.369,0.566,0.865,0.566,1.487V10.761z M30.402,9.414
		v-0.76c-0.099-0.258-0.296-0.469-0.594-0.633s-0.625-0.247-0.98-0.247c-0.453,0-0.838,0.109-1.153,0.327s-0.473,0.527-0.473,0.927
		s0.157,0.711,0.473,0.933c0.315,0.223,0.7,0.333,1.153,0.333c0.355,0,0.683-0.082,0.98-0.247S30.304,9.672,30.402,9.414z"/>
	<path d="M35.655,4.8v0.653c-0.169-0.071-0.351-0.106-0.547-0.106c-0.355,0-0.671,0.115-0.946,0.347
		c-0.275,0.231-0.484,0.542-0.627,0.933v4.134h-0.667V4.84h0.667v0.947c0.143-0.311,0.355-0.567,0.641-0.767
		c0.284-0.2,0.604-0.3,0.96-0.3C35.305,4.72,35.478,4.747,35.655,4.8z"/>
	<path d="M37.029,10.027c-0.48-0.569-0.72-1.311-0.72-2.227c0-0.915,0.239-1.658,0.72-2.227c0.479-0.569,1.111-0.854,1.894-0.854
		c0.613,0,1.117,0.167,1.514,0.5c0.395,0.333,0.646,0.78,0.753,1.34h-0.68c-0.089-0.391-0.271-0.696-0.547-0.914
		s-0.622-0.327-1.04-0.327c-0.578,0-1.047,0.227-1.407,0.68c-0.359,0.453-0.54,1.053-0.54,1.8c0,0.747,0.181,1.347,0.54,1.8
		c0.36,0.454,0.829,0.68,1.407,0.68c0.418,0,0.765-0.109,1.04-0.327s0.458-0.522,0.547-0.914h0.68
		c-0.106,0.56-0.358,1.007-0.753,1.34c-0.396,0.333-0.9,0.5-1.514,0.5C38.141,10.881,37.509,10.596,37.029,10.027z"/>
	<path d="M42.629,10.761V2.093h0.667v3.694c0.195-0.302,0.46-0.556,0.794-0.76c0.333-0.204,0.699-0.307,1.1-0.307
		c0.658,0,1.165,0.193,1.521,0.58s0.533,0.9,0.533,1.54v3.92H46.59V6.934c0-0.48-0.127-0.867-0.38-1.16
		c-0.254-0.293-0.634-0.44-1.141-0.44c-0.391,0-0.746,0.12-1.066,0.36c-0.32,0.24-0.556,0.546-0.707,0.92v4.147H42.629z"/>
</g>
<g>
	<rect x="0.001" y="132.103" fill="none" width="80.006" height="20.002"/>
	<path d="M1.601,132.73c0.088,0.089,0.133,0.196,0.133,0.32s-0.045,0.231-0.133,0.32c-0.09,0.089-0.196,0.133-0.32,0.133
		c-0.125,0-0.231-0.044-0.32-0.133s-0.133-0.196-0.133-0.32s0.044-0.231,0.133-0.32s0.195-0.133,0.32-0.133
		C1.404,132.597,1.511,132.641,1.601,132.73z M1.613,134.85v5.921H0.946v-5.921H1.613z"/>
	<path d="M2.96,139.237h0.666c0.24,0.721,0.791,1.081,1.653,1.081c0.427,0,0.773-0.094,1.041-0.28
		c0.267-0.187,0.399-0.458,0.399-0.813c0-0.498-0.364-0.849-1.093-1.054l-1.107-0.307c-0.934-0.249-1.4-0.747-1.4-1.493
		c0-0.498,0.191-0.896,0.574-1.193c0.382-0.298,0.857-0.447,1.427-0.447c0.604,0,1.095,0.143,1.473,0.427
		c0.378,0.285,0.62,0.681,0.728,1.188H6.667c-0.231-0.694-0.747-1.041-1.547-1.041c-0.392,0-0.716,0.092-0.974,0.273
		c-0.258,0.183-0.387,0.438-0.387,0.768c0,0.267,0.082,0.466,0.246,0.6c0.165,0.133,0.438,0.253,0.82,0.36l1.054,0.293
		c0.986,0.258,1.48,0.796,1.48,1.613c0,0.524-0.196,0.936-0.587,1.233c-0.392,0.298-0.894,0.447-1.507,0.447
		c-0.604,0-1.118-0.147-1.54-0.44C3.304,140.158,3.049,139.753,2.96,139.237z"/>
	<path d="M15.801,140.771h-0.64v-0.561c-0.143,0.169-0.365,0.32-0.667,0.454c-0.303,0.133-0.627,0.199-0.974,0.199
		c-0.622,0-1.143-0.166-1.56-0.5c-0.418-0.333-0.627-0.775-0.627-1.326c0-0.533,0.213-0.969,0.64-1.307s0.951-0.507,1.573-0.507
		c0.32,0,0.632,0.064,0.934,0.193c0.303,0.129,0.529,0.273,0.681,0.433v-1.053c0-0.444-0.132-0.803-0.394-1.073
		c-0.263-0.271-0.625-0.407-1.087-0.407c-0.738,0-1.218,0.338-1.44,1.014h-0.653c0.115-0.498,0.362-0.889,0.74-1.174
		c0.378-0.284,0.829-0.427,1.354-0.427c0.658,0,1.176,0.185,1.554,0.554s0.566,0.864,0.566,1.486V140.771z M15.161,139.424v-0.761
		c-0.099-0.258-0.296-0.469-0.594-0.633c-0.298-0.165-0.625-0.247-0.98-0.247c-0.453,0-0.838,0.109-1.153,0.327
		s-0.473,0.526-0.473,0.927c0,0.399,0.157,0.711,0.473,0.933c0.315,0.223,0.7,0.334,1.153,0.334c0.355,0,0.683-0.082,0.98-0.247
		C14.865,139.893,15.062,139.682,15.161,139.424z"/>
	<path d="M17.627,140.771v-5.921h0.667v0.947c0.195-0.303,0.46-0.556,0.794-0.761c0.333-0.204,0.699-0.307,1.1-0.307
		c0.658,0,1.165,0.193,1.521,0.58s0.533,0.9,0.533,1.54v3.921h-0.653v-3.827c0-0.48-0.127-0.867-0.38-1.16
		c-0.254-0.293-0.634-0.44-1.141-0.44c-0.391,0-0.746,0.12-1.066,0.36s-0.556,0.547-0.707,0.92v4.147H17.627z"/>
	<path d="M31.042,140.771h-0.64v-0.561c-0.143,0.169-0.365,0.32-0.667,0.454c-0.303,0.133-0.627,0.199-0.974,0.199
		c-0.622,0-1.143-0.166-1.56-0.5c-0.418-0.333-0.627-0.775-0.627-1.326c0-0.533,0.213-0.969,0.64-1.307s0.951-0.507,1.573-0.507
		c0.32,0,0.632,0.064,0.934,0.193c0.303,0.129,0.529,0.273,0.681,0.433v-1.053c0-0.444-0.132-0.803-0.394-1.073
		c-0.263-0.271-0.625-0.407-1.087-0.407c-0.738,0-1.218,0.338-1.44,1.014h-0.653c0.115-0.498,0.362-0.889,0.74-1.174
		c0.378-0.284,0.829-0.427,1.354-0.427c0.658,0,1.176,0.185,1.554,0.554s0.566,0.864,0.566,1.486V140.771z M30.402,139.424v-0.761
		c-0.099-0.258-0.296-0.469-0.594-0.633c-0.298-0.165-0.625-0.247-0.98-0.247c-0.453,0-0.838,0.109-1.153,0.327
		s-0.473,0.526-0.473,0.927c0,0.399,0.157,0.711,0.473,0.933c0.315,0.223,0.7,0.334,1.153,0.334c0.355,0,0.683-0.082,0.98-0.247
		C30.106,139.893,30.304,139.682,30.402,139.424z"/>
	<path d="M35.655,134.81v0.653c-0.169-0.07-0.351-0.106-0.547-0.106c-0.355,0-0.671,0.115-0.946,0.347s-0.484,0.542-0.627,0.934
		v4.134h-0.667v-5.921h0.667v0.947c0.143-0.312,0.355-0.567,0.641-0.767c0.284-0.2,0.604-0.301,0.96-0.301
		C35.305,134.73,35.478,134.757,35.655,134.81z"/>
	<path d="M37.029,140.038c-0.48-0.569-0.72-1.312-0.72-2.228c0-0.915,0.239-1.657,0.72-2.227c0.479-0.568,1.111-0.854,1.894-0.854
		c0.613,0,1.117,0.167,1.514,0.5c0.395,0.334,0.646,0.78,0.753,1.341h-0.68c-0.089-0.392-0.271-0.696-0.547-0.914
		s-0.622-0.326-1.04-0.326c-0.578,0-1.047,0.227-1.407,0.68c-0.359,0.453-0.54,1.054-0.54,1.8c0,0.747,0.181,1.348,0.54,1.801
		c0.36,0.453,0.829,0.68,1.407,0.68c0.418,0,0.765-0.108,1.04-0.326s0.458-0.522,0.547-0.914h0.68
		c-0.106,0.561-0.358,1.007-0.753,1.341c-0.396,0.333-0.9,0.5-1.514,0.5C38.141,140.891,37.509,140.606,37.029,140.038z"/>
	<path d="M42.629,140.771v-8.668h0.667v3.694c0.195-0.303,0.46-0.556,0.794-0.761c0.333-0.204,0.699-0.307,1.1-0.307
		c0.658,0,1.165,0.193,1.521,0.58s0.533,0.9,0.533,1.54v3.921H46.59v-3.827c0-0.48-0.127-0.867-0.38-1.16
		c-0.254-0.293-0.634-0.44-1.141-0.44c-0.391,0-0.746,0.12-1.066,0.36s-0.556,0.547-0.707,0.92v4.147H42.629z"/>
</g>
<path fill="none" stroke="#222222" stroke-linejoin="round" stroke-miterlimit="10" d="M260.02,12.094
	c20.002,0,10.001,90.007,30.003,100.007c-20.002,10.001-10.001,100.007-30.003,100.007"/>
<circle fill="none" stroke="#222222" stroke-linejoin="round" stroke-miterlimit="10" cx="340.026" cy="92.1" r="10"/>
<circle fill="none" stroke="#222222" stroke-linejoin="round" stroke-miterlimit="10" cx="320.024" cy="132.103" r="10.001"/>
<circle fill="none" stroke="#222222" stroke-linejoin="round" stroke-miterlimit="10" cx="360.027" cy="132.103" r="10.001"/>
<g>
	<rect x="360.027" y="102.101" fill="none" width="90.007" height="10.001"/>
	<path fill="#222222" d="M365.002,105.861c0.178-0.32,0.431-0.588,0.76-0.807c0.329-0.218,0.689-0.327,1.08-0.327
		c0.578,0,1.022,0.187,1.334,0.56c0.311,0.374,0.467,0.867,0.467,1.48v4h-0.653v-3.907c0-0.471-0.107-0.842-0.32-1.114
		c-0.214-0.271-0.529-0.407-0.947-0.407c-0.355,0-0.675,0.116-0.96,0.347c-0.284,0.231-0.488,0.529-0.613,0.894v4.187h-0.666v-3.907
		c0-0.471-0.107-0.842-0.32-1.114c-0.214-0.271-0.529-0.407-0.947-0.407c-0.355,0-0.676,0.116-0.96,0.347
		c-0.284,0.231-0.488,0.529-0.613,0.894v4.187h-0.667v-5.92h0.667v0.907c0.16-0.302,0.389-0.549,0.687-0.74
		c0.298-0.191,0.638-0.287,1.021-0.287C364.176,104.728,364.727,105.105,365.002,105.861z"/>
	<path fill="#222222" d="M375.003,104.848v5.92h-0.653v-0.947c-0.195,0.302-0.458,0.556-0.786,0.76
		c-0.329,0.204-0.693,0.307-1.094,0.307c-0.658,0-1.165-0.193-1.521-0.58s-0.533-0.9-0.533-1.54v-3.92h0.653v3.827
		c0,0.48,0.127,0.867,0.38,1.16c0.254,0.293,0.634,0.44,1.141,0.44c0.391,0,0.744-0.12,1.06-0.36c0.315-0.24,0.549-0.546,0.7-0.92
		v-4.147H375.003z"/>
	<path fill="#222222" d="M376.351,109.234h0.666c0.24,0.72,0.791,1.081,1.653,1.081c0.427,0,0.773-0.094,1.041-0.28
		c0.267-0.187,0.399-0.458,0.399-0.813c0-0.498-0.364-0.849-1.093-1.053l-1.107-0.307c-0.934-0.249-1.4-0.747-1.4-1.494
		c0-0.498,0.191-0.896,0.574-1.193c0.382-0.298,0.857-0.447,1.427-0.447c0.604,0,1.095,0.143,1.473,0.427
		c0.378,0.285,0.62,0.68,0.728,1.187h-0.653c-0.231-0.694-0.747-1.041-1.547-1.041c-0.392,0-0.716,0.091-0.974,0.273
		c-0.258,0.183-0.387,0.438-0.387,0.767c0,0.267,0.082,0.466,0.246,0.6c0.165,0.133,0.438,0.253,0.82,0.36l1.054,0.293
		c0.986,0.258,1.48,0.795,1.48,1.613c0,0.524-0.196,0.936-0.587,1.233c-0.392,0.298-0.894,0.447-1.507,0.447
		c-0.604,0-1.118-0.147-1.54-0.44C376.694,110.155,376.439,109.75,376.351,109.234z"/>
	<path fill="#222222" d="M382.484,109.395v-3.974h-1.001v-0.573h1.001v-1.52h0.653v1.52h1.533v0.573h-1.533v3.907
		c0,0.64,0.284,0.96,0.853,0.96c0.285,0,0.556-0.076,0.813-0.227v0.626c-0.249,0.133-0.542,0.2-0.88,0.2
		c-0.444,0-0.796-0.127-1.053-0.38C382.612,110.255,382.484,109.884,382.484,109.395z"/>
	<path fill="#222222" d="M388.578,109.234h0.666c0.24,0.72,0.791,1.081,1.653,1.081c0.427,0,0.773-0.094,1.041-0.28
		c0.267-0.187,0.399-0.458,0.399-0.813c0-0.498-0.364-0.849-1.093-1.053l-1.107-0.307c-0.934-0.249-1.4-0.747-1.4-1.494
		c0-0.498,0.191-0.896,0.574-1.193c0.382-0.298,0.857-0.447,1.427-0.447c0.604,0,1.095,0.143,1.473,0.427
		c0.378,0.285,0.62,0.68,0.728,1.187h-0.653c-0.231-0.694-0.747-1.041-1.547-1.041c-0.392,0-0.716,0.091-0.974,0.273
		c-0.258,0.183-0.387,0.438-0.387,0.767c0,0.267,0.082,0.466,0.246,0.6c0.165,0.133,0.438,0.253,0.82,0.36l1.054,0.293
		c0.986,0.258,1.48,0.795,1.48,1.613c0,0.524-0.196,0.936-0.587,1.233c-0.392,0.298-0.894,0.447-1.507,0.447
		c-0.604,0-1.118-0.147-1.54-0.44C388.922,110.155,388.667,109.75,388.578,109.234z"/>
	<path fill="#222222" d="M398.965,104.848v5.92h-0.653v-0.947c-0.195,0.302-0.458,0.556-0.786,0.76
		c-0.329,0.204-0.693,0.307-1.094,0.307c-0.658,0-1.165-0.193-1.521-0.58s-0.533-0.9-0.533-1.54v-3.92h0.653v3.827
		c0,0.48,0.127,0.867,0.38,1.16c0.254,0.293,0.634,0.44,1.141,0.44c0.391,0,0.744-0.12,1.06-0.36c0.315-0.24,0.549-0.546,0.7-0.92
		v-4.147H398.965z"/>
	<path fill="#222222" d="M401.525,109.888v3.146h-0.667v-8.187h0.667v0.88c0.178-0.275,0.434-0.511,0.767-0.707
		c0.334-0.195,0.691-0.293,1.073-0.293c0.827,0,1.465,0.296,1.914,0.887c0.448,0.591,0.673,1.322,0.673,2.193
		c0,0.872-0.225,1.603-0.673,2.194c-0.449,0.591-1.087,0.887-1.914,0.887c-0.382,0-0.739-0.098-1.073-0.293
		C401.959,110.399,401.703,110.164,401.525,109.888z M401.525,106.515v2.586c0.409,0.783,1,1.174,1.773,1.174
		c0.613,0,1.098-0.229,1.454-0.687c0.355-0.458,0.533-1.051,0.533-1.78c0-0.729-0.178-1.322-0.533-1.78
		c-0.356-0.458-0.841-0.687-1.454-0.687C402.525,105.341,401.935,105.732,401.525,106.515z"/>
	<path fill="#222222" d="M408.086,109.888v3.146h-0.667v-8.187h0.667v0.88c0.178-0.275,0.434-0.511,0.767-0.707
		c0.334-0.195,0.691-0.293,1.073-0.293c0.827,0,1.465,0.296,1.914,0.887c0.448,0.591,0.673,1.322,0.673,2.193
		c0,0.872-0.225,1.603-0.673,2.194c-0.449,0.591-1.087,0.887-1.914,0.887c-0.382,0-0.739-0.098-1.073-0.293
		C408.52,110.399,408.264,110.164,408.086,109.888z M408.086,106.515v2.586c0.409,0.783,1,1.174,1.773,1.174
		c0.613,0,1.098-0.229,1.454-0.687c0.355-0.458,0.533-1.051,0.533-1.78c0-0.729-0.178-1.322-0.533-1.78
		c-0.356-0.458-0.841-0.687-1.454-0.687C409.086,105.341,408.495,105.732,408.086,106.515z"/>
	<path fill="#222222" d="M418.081,105.581c0.484,0.569,0.727,1.312,0.727,2.227c0,0.916-0.242,1.658-0.727,2.227
		c-0.485,0.569-1.118,0.854-1.9,0.854s-1.414-0.285-1.894-0.854c-0.48-0.569-0.72-1.311-0.72-2.227c0-0.915,0.239-1.658,0.72-2.227
		c0.479-0.569,1.111-0.854,1.894-0.854S417.596,105.012,418.081,105.581z M417.607,109.615c0.355-0.458,0.533-1.06,0.533-1.807
		c0-0.747-0.178-1.349-0.533-1.807c-0.355-0.458-0.831-0.687-1.427-0.687c-0.587,0-1.059,0.229-1.414,0.687
		c-0.355,0.458-0.533,1.06-0.533,1.807c0,0.747,0.178,1.349,0.533,1.807s0.827,0.687,1.414,0.687
		C416.776,110.301,417.252,110.073,417.607,109.615z"/>
	<path fill="#222222" d="M423.061,104.808v0.653c-0.169-0.071-0.351-0.106-0.547-0.106c-0.355,0-0.671,0.115-0.946,0.347
		c-0.275,0.231-0.484,0.542-0.627,0.933v4.134h-0.667v-5.92h0.667v0.947c0.143-0.311,0.355-0.567,0.641-0.767
		c0.284-0.2,0.604-0.3,0.96-0.3C422.71,104.728,422.883,104.754,423.061,104.808z"/>
	<path fill="#222222" d="M424.555,109.395v-3.974h-1.001v-0.573h1.001v-1.52h0.653v1.52h1.533v0.573h-1.533v3.907
		c0,0.64,0.284,0.96,0.853,0.96c0.285,0,0.556-0.076,0.813-0.227v0.626c-0.249,0.133-0.542,0.2-0.88,0.2
		c-0.444,0-0.796-0.127-1.053-0.38C424.683,110.255,424.555,109.884,424.555,109.395z"/>
</g>
<circle fill="none" stroke="#222222" stroke-linejoin="round" stroke-miterlimit="10" cx="190.015" cy="182.107" r="10.001"/>
<circle fill="none" stroke="#222222" stroke-linejoin="round" stroke-miterlimit="10" cx="170.013" cy="222.11" r="10"/>
<circle fill="none" stroke="#222222" stroke-linejoin="round" stroke-miterlimit="10" cx="210.016" cy="222.11" r="10"/>
<g>
	<path fill="none" stroke="#222222" stroke-linejoin="round" d="M190.015,192.108c0,0-18.584,9.291-19.926,18.918"/>
	<g>
		<polygon fill="#222222" points="166.977,206.927 167.84,206.42 170.331,210.675 174.394,207.879 174.96,208.706 170.012,212.109 
					"/>
	</g>
</g>
<g>
	<path fill="none" stroke="#222222" stroke-linejoin="round" d="M190.015,192.108c0,0,18.583,9.291,19.925,18.918"/>
	<g>
		<polygon fill="#222222" points="205.067,208.706 205.634,207.88 209.695,210.676 212.188,206.42 213.051,206.927 210.015,212.109 
					"/>
	</g>
</g>
<g>
	<rect x="210.017" y="192.108" fill="none" width="50.004" height="10.001"/>
	<path fill="#222222" d="M210.417,199.241h0.666c0.24,0.721,0.791,1.081,1.653,1.081c0.427,0,0.773-0.094,1.041-0.28
		c0.267-0.187,0.399-0.457,0.399-0.813c0-0.497-0.364-0.849-1.093-1.054l-1.107-0.307c-0.934-0.248-1.4-0.746-1.4-1.493
		c0-0.497,0.191-0.896,0.574-1.193c0.382-0.298,0.857-0.446,1.427-0.446c0.604,0,1.095,0.143,1.473,0.426
		c0.378,0.285,0.62,0.681,0.728,1.188h-0.653c-0.231-0.693-0.747-1.041-1.547-1.041c-0.392,0-0.716,0.092-0.974,0.273
		c-0.258,0.184-0.387,0.438-0.387,0.768c0,0.267,0.082,0.467,0.246,0.6c0.165,0.133,0.438,0.254,0.82,0.36l1.054,0.294
		c0.986,0.258,1.48,0.795,1.48,1.613c0,0.523-0.196,0.936-0.587,1.232c-0.392,0.299-0.894,0.447-1.507,0.447
		c-0.604,0-1.118-0.146-1.54-0.439C210.761,200.162,210.506,199.757,210.417,199.241z"/>
	<path fill="#222222" d="M220.804,194.854v5.921h-0.653v-0.946c-0.195,0.302-0.458,0.555-0.786,0.76
		c-0.329,0.204-0.693,0.307-1.094,0.307c-0.658,0-1.165-0.193-1.521-0.58s-0.533-0.9-0.533-1.54v-3.921h0.653v3.828
		c0,0.479,0.127,0.866,0.38,1.159c0.254,0.294,0.634,0.44,1.141,0.44c0.391,0,0.744-0.12,1.06-0.36
		c0.315-0.239,0.549-0.546,0.7-0.92v-4.147H220.804z"/>
	<path fill="#222222" d="M223.364,199.895v3.146h-0.667v-8.188h0.667v0.881c0.178-0.275,0.434-0.512,0.767-0.707
		c0.334-0.195,0.691-0.293,1.073-0.293c0.827,0,1.465,0.295,1.914,0.887c0.448,0.591,0.673,1.322,0.673,2.193
		s-0.225,1.602-0.673,2.193c-0.449,0.592-1.087,0.887-1.914,0.887c-0.382,0-0.739-0.098-1.073-0.293
		C223.798,200.407,223.542,200.17,223.364,199.895z M223.364,196.522v2.586c0.409,0.783,1,1.174,1.773,1.174
		c0.613,0,1.098-0.229,1.454-0.688c0.355-0.457,0.533-1.051,0.533-1.779s-0.178-1.322-0.533-1.78
		c-0.356-0.458-0.841-0.687-1.454-0.687C224.364,195.348,223.773,195.739,223.364,196.522z"/>
	<path fill="#222222" d="M229.925,199.895v3.146h-0.667v-8.188h0.667v0.881c0.178-0.275,0.434-0.512,0.767-0.707
		c0.334-0.195,0.691-0.293,1.073-0.293c0.827,0,1.465,0.295,1.914,0.887c0.448,0.591,0.673,1.322,0.673,2.193
		s-0.225,1.602-0.673,2.193c-0.449,0.592-1.087,0.887-1.914,0.887c-0.382,0-0.739-0.098-1.073-0.293
		C230.358,200.407,230.103,200.17,229.925,199.895z M229.925,196.522v2.586c0.409,0.783,1,1.174,1.773,1.174
		c0.613,0,1.098-0.229,1.454-0.688c0.355-0.457,0.533-1.051,0.533-1.779s-0.178-1.322-0.533-1.78
		c-0.356-0.458-0.841-0.687-1.454-0.687C230.925,195.348,230.334,195.739,229.925,196.522z"/>
	<path fill="#222222" d="M239.92,195.588c0.484,0.568,0.727,1.311,0.727,2.227s-0.242,1.658-0.727,2.227
		c-0.485,0.568-1.118,0.854-1.9,0.854s-1.414-0.285-1.894-0.854c-0.48-0.568-0.72-1.311-0.72-2.227s0.239-1.658,0.72-2.227
		c0.479-0.569,1.111-0.854,1.894-0.854S239.435,195.019,239.92,195.588z M239.446,199.622c0.355-0.458,0.533-1.061,0.533-1.807
		c0-0.747-0.178-1.35-0.533-1.807c-0.355-0.458-0.831-0.688-1.427-0.688c-0.587,0-1.059,0.229-1.414,0.688
		c-0.355,0.457-0.533,1.06-0.533,1.807c0,0.746,0.178,1.349,0.533,1.807s0.827,0.687,1.414,0.687
		C238.615,200.308,239.091,200.08,239.446,199.622z"/>
	<path fill="#222222" d="M244.899,194.815v0.652c-0.169-0.07-0.351-0.105-0.547-0.105c-0.355,0-0.671,0.115-0.946,0.346
		c-0.275,0.231-0.484,0.543-0.627,0.934v4.134h-0.667v-5.921h0.667v0.947c0.143-0.311,0.355-0.566,0.641-0.767
		c0.284-0.2,0.604-0.3,0.96-0.3C244.549,194.735,244.722,194.761,244.899,194.815z"/>
	<path fill="#222222" d="M246.394,199.401v-3.973h-1.001v-0.574h1.001v-1.52h0.653v1.52h1.533v0.574h-1.533v3.906
		c0,0.641,0.284,0.961,0.853,0.961c0.285,0,0.556-0.076,0.813-0.227v0.626c-0.249,0.134-0.542,0.2-0.88,0.2
		c-0.444,0-0.796-0.127-1.053-0.381C246.521,200.262,246.394,199.891,246.394,199.401z"/>
</g>
<g>
	<path fill="none" stroke="#222222" stroke-linejoin="round" d="M180.014,222.11c9.679-5.197,9.99-5.852,19.066-0.549"/>
	<g>
		<polygon fill="#222222" points="194.164,223.46 193.938,222.485 198.742,221.378 197.287,216.667 198.244,216.372 
			200.016,222.111 		"/>
	</g>
</g>
<g>
	<path fill="none" stroke="#222222" stroke-linejoin="round" d="M200.016,224.61c-9.678,4.93-9.99,5.754-19.062,0.543"/>
	<g>
		<polygon fill="#222222" points="185.854,223.211 186.088,224.184 181.293,225.331 182.787,230.03 181.833,230.333 
			180.014,224.609 		"/>
	</g>
</g>
<g>
	<rect x="180.015" y="234.333" fill="none" width="50.003" height="10.001"/>
	<path fill="#222222" d="M180.961,243v-5.92h0.667v0.946c0.195-0.302,0.46-0.556,0.794-0.761c0.333-0.203,0.699-0.307,1.1-0.307
		c0.658,0,1.165,0.193,1.521,0.58s0.533,0.9,0.533,1.541V243h-0.653v-3.827c0-0.479-0.127-0.866-0.38-1.159
		c-0.254-0.294-0.634-0.441-1.141-0.441c-0.391,0-0.746,0.121-1.066,0.361c-0.32,0.239-0.556,0.546-0.707,0.92V243H180.961z"/>
	<path fill="#222222" d="M191.489,237.813c0.484,0.569,0.727,1.312,0.727,2.227c0,0.916-0.242,1.658-0.727,2.228
		c-0.485,0.569-1.118,0.854-1.9,0.854s-1.414-0.284-1.894-0.854c-0.48-0.569-0.72-1.312-0.72-2.228c0-0.914,0.239-1.657,0.72-2.227
		c0.479-0.568,1.111-0.854,1.894-0.854S191.004,237.245,191.489,237.813z M191.016,241.847c0.355-0.458,0.533-1.06,0.533-1.808
		c0-0.746-0.178-1.348-0.533-1.807c-0.355-0.457-0.831-0.686-1.427-0.686c-0.587,0-1.059,0.229-1.414,0.686
		c-0.355,0.459-0.533,1.061-0.533,1.807c0,0.748,0.178,1.35,0.533,1.808s0.827,0.687,1.414,0.687
		C190.185,242.534,190.66,242.305,191.016,241.847z"/>
	<path fill="#222222" d="M193.949,241.627v-3.975h-1.001v-0.572h1.001v-1.521h0.653v1.521h1.533v0.572h-1.533v3.908
		c0,0.639,0.284,0.959,0.853,0.959c0.285,0,0.556-0.075,0.813-0.227v0.627c-0.249,0.133-0.542,0.2-0.88,0.2
		c-0.444,0-0.796-0.127-1.053-0.38C194.077,242.487,193.949,242.116,193.949,241.627z"/>
	<path fill="#222222" d="M200.856,241.627v-3.975h-1.001v-0.572h1.001v-1.521h0.653v1.521h1.533v0.572h-1.533v3.908
		c0,0.639,0.284,0.959,0.853,0.959c0.285,0,0.556-0.075,0.813-0.227v0.627c-0.249,0.133-0.542,0.2-0.88,0.2
		c-0.444,0-0.796-0.127-1.053-0.38C200.984,242.487,200.856,242.116,200.856,241.627z"/>
	<path fill="#222222" d="M208.57,237.813c0.484,0.569,0.727,1.312,0.727,2.227c0,0.916-0.242,1.658-0.727,2.228
		c-0.485,0.569-1.118,0.854-1.9,0.854s-1.414-0.284-1.894-0.854c-0.48-0.569-0.72-1.312-0.72-2.228c0-0.914,0.239-1.657,0.72-2.227
		c0.479-0.568,1.111-0.854,1.894-0.854S208.085,237.245,208.57,237.813z M208.097,241.847c0.355-0.458,0.533-1.06,0.533-1.808
		c0-0.746-0.178-1.348-0.533-1.807c-0.355-0.457-0.831-0.686-1.427-0.686c-0.587,0-1.059,0.229-1.414,0.686
		c-0.355,0.459-0.533,1.061-0.533,1.807c0,0.748,0.178,1.35,0.533,1.808s0.827,0.687,1.414,0.687
		C207.266,242.534,207.741,242.305,208.097,241.847z"/>
	<path fill="#222222" d="M215.283,237.081V243h-0.653v-0.947c-0.195,0.303-0.458,0.557-0.786,0.761
		c-0.329,0.204-0.693,0.307-1.094,0.307c-0.658,0-1.165-0.193-1.521-0.58s-0.533-0.899-0.533-1.54v-3.92h0.653v3.826
		c0,0.48,0.127,0.867,0.38,1.16c0.254,0.293,0.634,0.44,1.141,0.44c0.391,0,0.744-0.12,1.06-0.36s0.549-0.547,0.7-0.92v-4.146
		H215.283z"/>
	<path fill="#222222" d="M217.471,242.267c-0.48-0.569-0.72-1.312-0.72-2.228c0-0.914,0.239-1.657,0.72-2.227
		c0.479-0.568,1.111-0.854,1.894-0.854c0.613,0,1.117,0.168,1.514,0.5c0.395,0.334,0.646,0.781,0.753,1.341h-0.68
		c-0.089-0.392-0.271-0.696-0.547-0.913c-0.275-0.219-0.622-0.327-1.04-0.327c-0.578,0-1.047,0.227-1.407,0.681
		c-0.359,0.453-0.54,1.053-0.54,1.799c0,0.748,0.181,1.348,0.54,1.801c0.36,0.453,0.829,0.68,1.407,0.68
		c0.418,0,0.765-0.108,1.04-0.326s0.458-0.521,0.547-0.914h0.68c-0.106,0.561-0.358,1.008-0.753,1.341
		c-0.396,0.333-0.9,0.5-1.514,0.5C218.582,243.121,217.95,242.836,217.471,242.267z"/>
	<path fill="#222222" d="M223.07,243v-8.668h0.667v3.694c0.195-0.302,0.46-0.556,0.794-0.761c0.333-0.203,0.699-0.307,1.1-0.307
		c0.658,0,1.165,0.193,1.521,0.58s0.533,0.9,0.533,1.541V243h-0.653v-3.827c0-0.479-0.127-0.866-0.38-1.159
		c-0.254-0.294-0.634-0.441-1.141-0.441c-0.391,0-0.746,0.121-1.066,0.361c-0.32,0.239-0.556,0.546-0.707,0.92V243H223.07z"/>
</g>
<g>
	<path fill="none" stroke="#FF4848" stroke-linejoin="round" d="M330.025,132.103c9.678-5.197,9.989-5.852,19.065-0.55"/>
	<g>
		<polygon fill="#FF4848" points="344.175,133.454 343.948,132.479 348.753,131.372 347.298,126.66 348.255,126.366 
			350.025,132.104 		"/>
	</g>
</g>
<g>
	<path fill="none" stroke="#FF4848" stroke-linejoin="round" d="M350.026,134.604c-9.678,4.928-9.99,5.752-19.062,0.543"/>
	<g>
		<polygon fill="#FF4848" points="335.866,133.206 336.1,134.178 331.305,135.325 332.799,140.024 331.844,140.327 330.025,134.602 
					"/>
	</g>
</g>
<g>
	<rect x="330.025" y="142.104" fill="none" width="92.23" height="10.001"/>
	<path fill="#222222" d="M334.999,145.864c0.178-0.319,0.431-0.588,0.76-0.807c0.329-0.217,0.689-0.326,1.08-0.326
		c0.578,0,1.022,0.187,1.334,0.561c0.311,0.373,0.467,0.866,0.467,1.479v4.001h-0.653v-3.907c0-0.472-0.107-0.843-0.32-1.114
		c-0.214-0.271-0.529-0.406-0.947-0.406c-0.355,0-0.675,0.115-0.96,0.347c-0.284,0.231-0.488,0.529-0.613,0.894v4.188h-0.666v-3.907
		c0-0.472-0.107-0.843-0.32-1.114c-0.214-0.271-0.529-0.406-0.947-0.406c-0.355,0-0.676,0.115-0.96,0.347s-0.488,0.529-0.613,0.894
		v4.188h-0.667v-5.921h0.667v0.907c0.16-0.303,0.389-0.549,0.687-0.74s0.638-0.287,1.021-0.287
		C334.173,144.731,334.724,145.109,334.999,145.864z"/>
	<path fill="#222222" d="M345,144.851v5.921h-0.653v-0.947c-0.195,0.303-0.458,0.556-0.786,0.76
		c-0.329,0.205-0.693,0.307-1.094,0.307c-0.658,0-1.165-0.193-1.521-0.58s-0.533-0.899-0.533-1.539v-3.921h0.653v3.827
		c0,0.48,0.127,0.867,0.38,1.16c0.254,0.293,0.634,0.439,1.141,0.439c0.391,0,0.744-0.119,1.06-0.359s0.549-0.547,0.7-0.92v-4.147
		H345z"/>
	<path fill="#222222" d="M346.348,149.238h0.666c0.24,0.72,0.791,1.081,1.653,1.081c0.427,0,0.773-0.094,1.041-0.281
		c0.267-0.186,0.399-0.457,0.399-0.812c0-0.498-0.364-0.85-1.093-1.054l-1.107-0.307c-0.934-0.249-1.4-0.747-1.4-1.493
		c0-0.498,0.191-0.896,0.574-1.193c0.382-0.299,0.857-0.447,1.427-0.447c0.604,0,1.095,0.143,1.473,0.427s0.62,0.681,0.728,1.187
		h-0.653c-0.231-0.693-0.747-1.04-1.547-1.04c-0.392,0-0.716,0.091-0.974,0.273s-0.387,0.438-0.387,0.767
		c0,0.268,0.082,0.467,0.246,0.6c0.165,0.134,0.438,0.254,0.82,0.361l1.054,0.293c0.986,0.258,1.48,0.795,1.48,1.613
		c0,0.524-0.196,0.936-0.587,1.233c-0.392,0.298-0.894,0.446-1.507,0.446c-0.604,0-1.118-0.146-1.54-0.439
		C346.691,150.159,346.437,149.754,346.348,149.238z"/>
	<path fill="#222222" d="M352.481,149.398v-3.974h-1.001v-0.573h1.001v-1.521h0.653v1.521h1.533v0.573h-1.533v3.907
		c0,0.64,0.284,0.96,0.853,0.96c0.285,0,0.556-0.076,0.813-0.227v0.627c-0.249,0.133-0.542,0.199-0.88,0.199
		c-0.444,0-0.796-0.127-1.053-0.38C352.609,150.258,352.481,149.887,352.481,149.398z"/>
	<path fill="#222222" d="M359.121,150.772v-5.921h0.667v0.946c0.195-0.302,0.46-0.555,0.794-0.76c0.333-0.204,0.699-0.307,1.1-0.307
		c0.658,0,1.165,0.193,1.521,0.58s0.533,0.9,0.533,1.54v3.921h-0.653v-3.828c0-0.479-0.127-0.866-0.38-1.159
		c-0.254-0.294-0.634-0.44-1.141-0.44c-0.391,0-0.746,0.12-1.066,0.36c-0.32,0.239-0.556,0.546-0.707,0.92v4.147H359.121z"/>
	<path fill="#222222" d="M369.649,145.584c0.484,0.568,0.727,1.312,0.727,2.227c0,0.916-0.242,1.658-0.727,2.227
		c-0.485,0.569-1.118,0.854-1.9,0.854s-1.414-0.284-1.894-0.854c-0.48-0.568-0.72-1.311-0.72-2.227c0-0.915,0.239-1.658,0.72-2.227
		c0.479-0.568,1.111-0.854,1.894-0.854S369.164,145.016,369.649,145.584z M369.176,149.618c0.355-0.457,0.533-1.06,0.533-1.807
		c0-0.746-0.178-1.349-0.533-1.807c-0.355-0.457-0.831-0.687-1.427-0.687c-0.587,0-1.059,0.229-1.414,0.687
		c-0.355,0.458-0.533,1.061-0.533,1.807c0,0.747,0.178,1.35,0.533,1.807c0.355,0.459,0.827,0.688,1.414,0.688
		C368.345,150.305,368.82,150.077,369.176,149.618z"/>
	<path fill="#222222" d="M372.109,149.398v-3.974h-1.001v-0.573h1.001v-1.521h0.653v1.521h1.533v0.573h-1.533v3.907
		c0,0.64,0.284,0.96,0.853,0.96c0.285,0,0.556-0.076,0.813-0.227v0.627c-0.249,0.133-0.542,0.199-0.88,0.199
		c-0.444,0-0.796-0.127-1.053-0.38C372.237,150.258,372.109,149.887,372.109,149.398z"/>
	<path fill="#222222" d="M379.017,149.398v-3.974h-1.001v-0.573h1.001v-1.521h0.653v1.521h1.533v0.573h-1.533v3.907
		c0,0.64,0.284,0.96,0.853,0.96c0.285,0,0.556-0.076,0.813-0.227v0.627c-0.249,0.133-0.542,0.199-0.88,0.199
		c-0.444,0-0.796-0.127-1.053-0.38C379.145,150.258,379.017,149.887,379.017,149.398z"/>
	<path fill="#222222" d="M386.73,145.584c0.484,0.568,0.727,1.312,0.727,2.227c0,0.916-0.242,1.658-0.727,2.227
		c-0.485,0.569-1.118,0.854-1.9,0.854s-1.414-0.284-1.894-0.854c-0.48-0.568-0.72-1.311-0.72-2.227c0-0.915,0.239-1.658,0.72-2.227
		c0.479-0.568,1.111-0.854,1.894-0.854S386.245,145.016,386.73,145.584z M386.257,149.618c0.355-0.457,0.533-1.06,0.533-1.807
		c0-0.746-0.178-1.349-0.533-1.807c-0.355-0.457-0.831-0.687-1.427-0.687c-0.587,0-1.059,0.229-1.414,0.687
		c-0.355,0.458-0.533,1.061-0.533,1.807c0,0.747,0.178,1.35,0.533,1.807c0.355,0.459,0.827,0.688,1.414,0.688
		C385.426,150.305,385.901,150.077,386.257,149.618z"/>
	<path fill="#222222" d="M393.443,144.851v5.921h-0.653v-0.947c-0.195,0.303-0.458,0.556-0.786,0.76
		c-0.329,0.205-0.693,0.307-1.094,0.307c-0.658,0-1.165-0.193-1.521-0.58s-0.533-0.899-0.533-1.539v-3.921h0.653v3.827
		c0,0.48,0.127,0.867,0.38,1.16c0.254,0.293,0.634,0.439,1.141,0.439c0.391,0,0.744-0.119,1.06-0.359s0.549-0.547,0.7-0.92v-4.147
		H393.443z"/>
	<path fill="#222222" d="M395.631,150.038c-0.48-0.568-0.72-1.311-0.72-2.227c0-0.915,0.239-1.658,0.72-2.227
		c0.479-0.568,1.111-0.854,1.894-0.854c0.613,0,1.117,0.167,1.514,0.5c0.395,0.334,0.646,0.78,0.753,1.34h-0.68
		c-0.089-0.391-0.271-0.695-0.547-0.913s-0.622-0.327-1.04-0.327c-0.578,0-1.047,0.227-1.407,0.681
		c-0.359,0.453-0.54,1.054-0.54,1.8c0,0.747,0.181,1.348,0.54,1.801c0.36,0.453,0.829,0.68,1.407,0.68
		c0.418,0,0.765-0.109,1.04-0.326c0.275-0.219,0.458-0.522,0.547-0.914h0.68c-0.106,0.561-0.358,1.007-0.753,1.34
		c-0.396,0.334-0.9,0.5-1.514,0.5C396.742,150.891,396.11,150.607,395.631,150.038z"/>
	<path fill="#222222" d="M401.23,150.772v-8.668h0.667v3.693c0.195-0.302,0.46-0.555,0.794-0.76c0.333-0.204,0.699-0.307,1.1-0.307
		c0.658,0,1.165,0.193,1.521,0.58s0.533,0.9,0.533,1.54v3.921h-0.653v-3.828c0-0.479-0.127-0.866-0.38-1.159
		c-0.254-0.294-0.634-0.44-1.141-0.44c-0.391,0-0.746,0.12-1.066,0.36c-0.32,0.239-0.556,0.546-0.707,0.92v4.147H401.23z"/>
</g>
<line fill="none" stroke="#FF4848" stroke-linejoin="round" stroke-miterlimit="10" x1="346.322" y1="122.103" x2="337.804" y2="132.103"/>
<line fill="none" stroke="#FF4848" stroke-linejoin="round" stroke-miterlimit="10" x1="342.804" y1="134.604" x2="337.804" y2="141.363"/>
<rect x="40.003" y="172.106" fill="#FFFFFF" stroke="#222222" stroke-linejoin="round" stroke-miterlimit="10" width="20.002" height="60.005"/>
<rect x="30.003" y="152.104" fill="#FC4242" stroke="#222222" stroke-linejoin="round" stroke-miterlimit="10" width="80.006" height="20.002"/>
<rect x="80.006" y="172.106" fill="#FFFFFF" stroke="#222222" stroke-linejoin="round" stroke-miterlimit="10" width="20.002" height="60.005"/>
<g>
	<path fill="none" stroke="#FF4848" stroke-linejoin="round" d="M180.014,70.666c9.679-5.197,9.99-5.852,19.066-0.549"/>
	<g>
		<polygon fill="#FF4848" points="194.164,72.017 193.938,71.042 198.742,69.935 197.287,65.223 198.244,64.928 200.016,70.667 		
			"/>
	</g>
</g>
<g>
	<path fill="none" stroke="#FF4848" stroke-linejoin="round" d="M200.016,73.167c-9.678,4.929-9.99,5.753-19.062,0.542"/>
	<g>
		<polygon fill="#FF4848" points="185.854,71.768 186.088,72.741 181.293,73.888 182.787,78.587 181.833,78.89 180.014,73.166 		"/>
	</g>
</g>
<line fill="none" stroke="#FF4848" stroke-linejoin="round" stroke-miterlimit="10" x1="196.311" y1="60.666" x2="187.792" y2="70.666"/>
<line fill="none" stroke="#FF4848" stroke-linejoin="round" stroke-miterlimit="10" x1="192.793" y1="73.167" x2="187.792" y2="79.926"/>
<g>
	<path fill="none" stroke="#222222" stroke-linejoin="round" d="M196.311,24.33c0,0,9.815-10.528,22.625-12.124"/>
	<g>
		<polygon fill="#222222" points="216.313,16.822 215.525,16.206 218.566,12.325 214.474,9.575 215.032,8.745 220.017,12.095 		"/>
	</g>
</g>
<g>
	<rect x="177.236" y="7.094" fill="none" width="50.004" height="10.001"/>
	<path fill="#222222" d="M178.477,15.028c-0.48-0.569-0.72-1.311-0.72-2.227c0-0.915,0.239-1.658,0.72-2.227
		c0.479-0.569,1.111-0.854,1.894-0.854c0.613,0,1.117,0.167,1.514,0.5c0.395,0.333,0.646,0.78,0.753,1.34h-0.68
		c-0.089-0.391-0.271-0.696-0.547-0.914s-0.622-0.327-1.04-0.327c-0.578,0-1.047,0.227-1.407,0.68c-0.359,0.453-0.54,1.053-0.54,1.8
		c0,0.747,0.181,1.347,0.54,1.8c0.36,0.454,0.829,0.68,1.407,0.68c0.418,0,0.765-0.109,1.04-0.327s0.458-0.522,0.547-0.914h0.68
		c-0.106,0.56-0.358,1.007-0.753,1.34c-0.396,0.333-0.9,0.5-1.514,0.5C179.588,15.881,178.956,15.597,178.477,15.028z"/>
	<path fill="#222222" d="M188.11,10.574c0.484,0.569,0.727,1.312,0.727,2.227c0,0.916-0.242,1.658-0.727,2.227
		c-0.485,0.569-1.118,0.854-1.9,0.854s-1.414-0.285-1.894-0.854c-0.48-0.569-0.72-1.311-0.72-2.227c0-0.915,0.239-1.658,0.72-2.227
		c0.479-0.569,1.111-0.854,1.894-0.854S187.625,10.005,188.11,10.574z M187.637,14.608c0.355-0.458,0.533-1.06,0.533-1.807
		c0-0.747-0.178-1.349-0.533-1.807c-0.355-0.458-0.831-0.687-1.427-0.687c-0.587,0-1.059,0.229-1.414,0.687
		c-0.355,0.458-0.533,1.06-0.533,1.807c0,0.747,0.178,1.349,0.533,1.807s0.827,0.687,1.414,0.687
		C186.806,15.294,187.281,15.066,187.637,14.608z"/>
	<path fill="#222222" d="M190.97,7.094v8.667h-0.667V7.094H190.97z"/>
	<path fill="#222222" d="M196.95,10.574c0.484,0.569,0.727,1.312,0.727,2.227c0,0.916-0.242,1.658-0.727,2.227
		c-0.485,0.569-1.118,0.854-1.9,0.854s-1.414-0.285-1.894-0.854c-0.48-0.569-0.72-1.311-0.72-2.227c0-0.915,0.239-1.658,0.72-2.227
		c0.479-0.569,1.111-0.854,1.894-0.854S196.465,10.005,196.95,10.574z M196.477,14.608c0.355-0.458,0.533-1.06,0.533-1.807
		c0-0.747-0.178-1.349-0.533-1.807c-0.355-0.458-0.831-0.687-1.427-0.687c-0.587,0-1.059,0.229-1.414,0.687
		c-0.355,0.458-0.533,1.06-0.533,1.807c0,0.747,0.178,1.349,0.533,1.807s0.827,0.687,1.414,0.687
		C195.646,15.294,196.121,15.066,196.477,14.608z"/>
	<path fill="#222222" d="M201.93,9.801v0.653c-0.169-0.071-0.351-0.106-0.547-0.106c-0.355,0-0.671,0.115-0.946,0.347
		c-0.275,0.231-0.484,0.542-0.627,0.933v4.134h-0.667v-5.92h0.667v0.947c0.143-0.311,0.355-0.567,0.641-0.767
		c0.284-0.2,0.604-0.3,0.96-0.3C201.579,9.721,201.752,9.748,201.93,9.801z"/>
</g>
<g>
	<rect x="171.31" y="87.1" fill="none" width="50.003" height="10.001"/>
	<path fill="#222222" d="M172.256,95.767v-5.92h0.667v0.947c0.195-0.302,0.46-0.556,0.794-0.76c0.333-0.204,0.699-0.307,1.1-0.307
		c0.658,0,1.165,0.193,1.521,0.58s0.533,0.9,0.533,1.54v3.92h-0.653V91.94c0-0.48-0.127-0.867-0.38-1.16
		c-0.254-0.293-0.634-0.44-1.141-0.44c-0.391,0-0.746,0.12-1.066,0.36c-0.32,0.24-0.556,0.546-0.707,0.92v4.147H172.256z"/>
	<path fill="#222222" d="M182.784,90.58c0.484,0.569,0.727,1.312,0.727,2.227c0,0.916-0.242,1.658-0.727,2.227
		c-0.485,0.569-1.118,0.854-1.9,0.854s-1.414-0.285-1.894-0.854c-0.48-0.569-0.72-1.311-0.72-2.227c0-0.915,0.239-1.658,0.72-2.227
		c0.479-0.569,1.111-0.854,1.894-0.854S182.299,90.011,182.784,90.58z M182.311,94.614c0.355-0.458,0.533-1.06,0.533-1.807
		c0-0.747-0.178-1.349-0.533-1.807c-0.355-0.458-0.831-0.687-1.427-0.687c-0.587,0-1.059,0.229-1.414,0.687
		c-0.355,0.458-0.533,1.06-0.533,1.807c0,0.747,0.178,1.349,0.533,1.807s0.827,0.687,1.414,0.687
		C181.479,95.3,181.955,95.072,182.311,94.614z"/>
	<path fill="#222222" d="M185.244,94.394V90.42h-1.001v-0.573h1.001v-1.52h0.653v1.52h1.533v0.573h-1.533v3.907
		c0,0.64,0.284,0.96,0.853,0.96c0.285,0,0.556-0.076,0.813-0.227v0.626c-0.249,0.133-0.542,0.2-0.88,0.2
		c-0.444,0-0.796-0.127-1.053-0.38C185.372,95.254,185.244,94.883,185.244,94.394z"/>
	<path fill="#222222" d="M192.151,94.394V90.42h-1.001v-0.573h1.001v-1.52h0.653v1.52h1.533v0.573h-1.533v3.907
		c0,0.64,0.284,0.96,0.853,0.96c0.285,0,0.556-0.076,0.813-0.227v0.626c-0.249,0.133-0.542,0.2-0.88,0.2
		c-0.444,0-0.796-0.127-1.053-0.38C192.279,95.254,192.151,94.883,192.151,94.394z"/>
	<path fill="#222222" d="M199.865,90.58c0.484,0.569,0.727,1.312,0.727,2.227c0,0.916-0.242,1.658-0.727,2.227
		c-0.485,0.569-1.118,0.854-1.9,0.854s-1.414-0.285-1.894-0.854c-0.48-0.569-0.72-1.311-0.72-2.227c0-0.915,0.239-1.658,0.72-2.227
		c0.479-0.569,1.111-0.854,1.894-0.854S199.38,90.011,199.865,90.58z M199.392,94.614c0.355-0.458,0.533-1.06,0.533-1.807
		c0-0.747-0.178-1.349-0.533-1.807c-0.355-0.458-0.831-0.687-1.427-0.687c-0.587,0-1.059,0.229-1.414,0.687
		c-0.355,0.458-0.533,1.06-0.533,1.807c0,0.747,0.178,1.349,0.533,1.807s0.827,0.687,1.414,0.687
		C198.561,95.3,199.036,95.072,199.392,94.614z"/>
	<path fill="#222222" d="M206.578,89.847v5.92h-0.653V94.82c-0.195,0.302-0.458,0.556-0.786,0.76
		c-0.329,0.204-0.693,0.307-1.094,0.307c-0.658,0-1.165-0.193-1.521-0.58s-0.533-0.9-0.533-1.54v-3.92h0.653v3.827
		c0,0.48,0.127,0.867,0.38,1.16c0.254,0.293,0.634,0.44,1.141,0.44c0.391,0,0.744-0.12,1.06-0.36c0.315-0.24,0.549-0.546,0.7-0.92
		v-4.147H206.578z"/>
	<path fill="#222222" d="M208.766,95.034c-0.48-0.569-0.72-1.311-0.72-2.227c0-0.915,0.239-1.658,0.72-2.227
		c0.479-0.569,1.111-0.854,1.894-0.854c0.613,0,1.117,0.167,1.514,0.5c0.395,0.333,0.646,0.78,0.753,1.34h-0.68
		c-0.089-0.391-0.271-0.696-0.547-0.914s-0.622-0.327-1.04-0.327c-0.578,0-1.047,0.227-1.407,0.68c-0.359,0.453-0.54,1.053-0.54,1.8
		c0,0.747,0.181,1.347,0.54,1.8c0.36,0.454,0.829,0.68,1.407,0.68c0.418,0,0.765-0.109,1.04-0.327s0.458-0.522,0.547-0.914h0.68
		c-0.106,0.56-0.358,1.007-0.753,1.34c-0.396,0.333-0.9,0.5-1.514,0.5C209.877,95.887,209.245,95.603,208.766,95.034z"/>
	<path fill="#222222" d="M214.365,95.767V87.1h0.667v3.694c0.195-0.302,0.46-0.556,0.794-0.76c0.333-0.204,0.699-0.307,1.1-0.307
		c0.658,0,1.165,0.193,1.521,0.58s0.533,0.9,0.533,1.54v3.92h-0.653V91.94c0-0.48-0.127-0.867-0.38-1.16
		c-0.254-0.293-0.634-0.44-1.141-0.44c-0.391,0-0.746,0.12-1.066,0.36c-0.32,0.24-0.556,0.546-0.707,0.92v4.147H214.365z"/>
</g>
<g>
	<rect x="223.906" y="5.983" fill="none" width="50.004" height="10.001"/>
	<path fill="#222222" d="M228.214,8.729l1.414,4.88l1.453-4.88h0.64l-1.786,5.92h-0.573l-1.427-4.894l-1.427,4.894h-0.574
		l-1.786-5.92h0.653l1.453,4.88l1.414-4.88H228.214z"/>
	<path fill="#222222" d="M232.907,14.65V5.982h0.667v3.694c0.195-0.302,0.46-0.556,0.794-0.76c0.333-0.204,0.699-0.307,1.1-0.307
		c0.658,0,1.165,0.193,1.521,0.58s0.533,0.9,0.533,1.54v3.92h-0.653v-3.827c0-0.48-0.127-0.867-0.38-1.16
		c-0.254-0.293-0.634-0.44-1.141-0.44c-0.391,0-0.746,0.12-1.066,0.36c-0.32,0.24-0.556,0.546-0.707,0.92v4.147H232.907z"/>
	<path fill="#222222" d="M240.002,6.609c0.088,0.089,0.133,0.196,0.133,0.32c0,0.125-0.045,0.231-0.133,0.32
		c-0.09,0.089-0.196,0.133-0.32,0.133c-0.125,0-0.231-0.044-0.32-0.133s-0.133-0.196-0.133-0.32c0-0.124,0.044-0.231,0.133-0.32
		s0.195-0.133,0.32-0.133C239.806,6.476,239.912,6.521,240.002,6.609z M240.015,8.729v5.92h-0.667v-5.92H240.015z"/>
	<path fill="#222222" d="M242.175,13.276V9.303h-1.001V8.729h1.001v-1.52h0.653v1.52h1.533v0.573h-1.533v3.907
		c0,0.64,0.284,0.96,0.853,0.96c0.285,0,0.556-0.076,0.813-0.227v0.626c-0.249,0.133-0.542,0.2-0.88,0.2
		c-0.444,0-0.796-0.127-1.053-0.38C242.303,14.137,242.175,13.766,242.175,13.276z"/>
	<path fill="#222222" d="M249.655,12.93h0.64c-0.115,0.56-0.376,1.007-0.78,1.34c-0.404,0.333-0.909,0.5-1.514,0.5
		c-0.782,0-1.415-0.285-1.899-0.854c-0.485-0.569-0.727-1.311-0.727-2.227c0-0.897,0.237-1.635,0.713-2.213
		c0.476-0.578,1.108-0.867,1.9-0.867c0.765,0,1.355,0.265,1.773,0.793s0.627,1.229,0.627,2.1v0.24h-4.36
		c0.009,0.747,0.195,1.34,0.56,1.78c0.364,0.44,0.836,0.66,1.413,0.66c0.418,0,0.776-0.111,1.074-0.333
		C249.372,13.628,249.565,13.321,249.655,12.93z M247.988,9.196c-0.533,0-0.972,0.182-1.313,0.546
		c-0.343,0.365-0.549,0.858-0.62,1.48h3.667c-0.019-0.569-0.174-1.049-0.467-1.44C248.962,9.392,248.539,9.196,247.988,9.196z"/>
</g>
<line fill="none" stroke="#222222" stroke-linejoin="round" stroke-miterlimit="10" x1="194.276" y1="214.517" x2="190.015" y2="222.11"/>
<line fill="none" stroke="#222222" stroke-linejoin="round" stroke-miterlimit="10" x1="190.015" y1="225.815" x2="185.942" y2="232.111"/>
<g>
	<path fill="none" stroke="#222222" stroke-linejoin="round" d="M196.311,173.501c0,0,9.815-10.528,22.625-12.124"/>
	<g>
		<polygon fill="#222222" points="216.313,165.994 215.525,165.377 218.566,161.497 214.474,158.747 215.032,157.917 
			220.017,161.266 		"/>
	</g>
</g>
<g>
	<rect x="177.236" y="156.265" fill="none" width="50.004" height="10.001"/>
	<path fill="#222222" d="M178.477,164.2c-0.48-0.569-0.72-1.312-0.72-2.228c0-0.915,0.239-1.657,0.72-2.227
		c0.479-0.569,1.111-0.854,1.894-0.854c0.613,0,1.117,0.167,1.514,0.5c0.395,0.333,0.646,0.78,0.753,1.341h-0.68
		c-0.089-0.392-0.271-0.696-0.547-0.914s-0.622-0.326-1.04-0.326c-0.578,0-1.047,0.227-1.407,0.68c-0.359,0.453-0.54,1.053-0.54,1.8
		s0.181,1.347,0.54,1.8c0.36,0.454,0.829,0.681,1.407,0.681c0.418,0,0.765-0.108,1.04-0.327c0.275-0.217,0.458-0.521,0.547-0.913
		h0.68c-0.106,0.56-0.358,1.007-0.753,1.341c-0.396,0.332-0.9,0.5-1.514,0.5C179.588,165.053,178.956,164.768,178.477,164.2z"/>
	<path fill="#222222" d="M188.11,159.746c0.484,0.569,0.727,1.312,0.727,2.227c0,0.916-0.242,1.658-0.727,2.228
		c-0.485,0.568-1.118,0.854-1.9,0.854s-1.414-0.285-1.894-0.854c-0.48-0.569-0.72-1.312-0.72-2.228c0-0.915,0.239-1.657,0.72-2.227
		c0.479-0.569,1.111-0.854,1.894-0.854S187.625,159.176,188.11,159.746z M187.637,163.78c0.355-0.459,0.533-1.061,0.533-1.808
		s-0.178-1.349-0.533-1.807s-0.831-0.687-1.427-0.687c-0.587,0-1.059,0.229-1.414,0.687s-0.533,1.06-0.533,1.807
		s0.178,1.349,0.533,1.808c0.355,0.457,0.827,0.686,1.414,0.686C186.806,164.465,187.281,164.237,187.637,163.78z"/>
	<path fill="#222222" d="M190.97,156.265v8.667h-0.667v-8.667H190.97z"/>
	<path fill="#222222" d="M196.95,159.746c0.484,0.569,0.727,1.312,0.727,2.227c0,0.916-0.242,1.658-0.727,2.228
		c-0.485,0.568-1.118,0.854-1.9,0.854s-1.414-0.285-1.894-0.854c-0.48-0.569-0.72-1.312-0.72-2.228c0-0.915,0.239-1.657,0.72-2.227
		c0.479-0.569,1.111-0.854,1.894-0.854S196.465,159.176,196.95,159.746z M196.477,163.78c0.355-0.459,0.533-1.061,0.533-1.808
		s-0.178-1.349-0.533-1.807s-0.831-0.687-1.427-0.687c-0.587,0-1.059,0.229-1.414,0.687s-0.533,1.06-0.533,1.807
		s0.178,1.349,0.533,1.808c0.355,0.457,0.827,0.686,1.414,0.686C195.646,164.465,196.121,164.237,196.477,163.78z"/>
	<path fill="#222222" d="M201.93,158.972v0.653c-0.169-0.07-0.351-0.106-0.547-0.106c-0.355,0-0.671,0.115-0.946,0.347
		c-0.275,0.23-0.484,0.542-0.627,0.934v4.133h-0.667v-5.92h0.667v0.947c0.143-0.312,0.355-0.567,0.641-0.768
		c0.284-0.199,0.604-0.3,0.96-0.3C201.579,158.892,201.752,158.918,201.93,158.972z"/>
</g>
<g>
	<rect x="223.906" y="155.154" fill="none" width="50.004" height="10.001"/>
	<path fill="#222222" d="M227.641,157.861v0.653c-0.169-0.07-0.351-0.106-0.547-0.106c-0.355,0-0.671,0.115-0.946,0.347
		s-0.484,0.542-0.627,0.934v4.134h-0.667v-5.921h0.667v0.947c0.143-0.312,0.355-0.567,0.641-0.767c0.284-0.2,0.604-0.301,0.96-0.301
		C227.29,157.781,227.463,157.808,227.641,157.861z"/>
	<path fill="#222222" d="M232.575,162.101h0.64c-0.115,0.561-0.376,1.007-0.78,1.341c-0.404,0.333-0.909,0.5-1.514,0.5
		c-0.782,0-1.415-0.285-1.899-0.854c-0.485-0.569-0.727-1.312-0.727-2.228c0-0.897,0.237-1.635,0.713-2.213s1.108-0.867,1.9-0.867
		c0.765,0,1.355,0.265,1.773,0.794c0.418,0.528,0.627,1.229,0.627,2.1v0.24h-4.36c0.009,0.747,0.195,1.34,0.56,1.78
		s0.836,0.66,1.413,0.66c0.418,0,0.776-0.111,1.074-0.334C232.292,162.799,232.485,162.493,232.575,162.101z M230.908,158.368
		c-0.533,0-0.972,0.183-1.313,0.547c-0.343,0.364-0.549,0.858-0.62,1.48h3.667c-0.019-0.569-0.174-1.049-0.467-1.44
		S231.459,158.368,230.908,158.368z"/>
	<path fill="#222222" d="M238.775,163.822v-0.88c-0.178,0.275-0.434,0.511-0.767,0.706c-0.334,0.195-0.691,0.294-1.074,0.294
		c-0.835,0-1.476-0.296-1.92-0.887c-0.444-0.592-0.666-1.322-0.666-2.194c0-0.871,0.222-1.602,0.666-2.193
		c0.444-0.591,1.085-0.887,1.92-0.887c0.383,0,0.74,0.099,1.074,0.294c0.333,0.195,0.589,0.431,0.767,0.706v-3.627h0.653v8.668
		H238.775z M238.775,162.155v-2.587c-0.196-0.373-0.451-0.662-0.767-0.867c-0.316-0.204-0.656-0.307-1.021-0.307
		c-0.604,0-1.085,0.229-1.44,0.688s-0.533,1.051-0.533,1.779c0,0.729,0.178,1.323,0.533,1.78c0.355,0.458,0.836,0.688,1.44,0.688
		c0.364,0,0.704-0.103,1.021-0.308C238.324,162.817,238.579,162.528,238.775,162.155z"/>
</g>
<g>
	<path fill="none" stroke="#FF4848" stroke-linejoin="round" d="M346.877,84.386c0,0,9.815-10.528,22.626-12.124"/>
	<g>
		<polygon fill="#FF4848" points="366.881,76.877 366.093,76.261 369.134,72.38 365.041,69.63 365.6,68.8 370.584,72.15 		"/>
	</g>
</g>
<g>
	<rect x="327.803" y="67.15" fill="none" width="50.004" height="10"/>
	<path fill="#222222" d="M329.044,75.083c-0.48-0.569-0.72-1.311-0.72-2.227c0-0.915,0.239-1.658,0.72-2.227
		c0.479-0.569,1.111-0.854,1.894-0.854c0.613,0,1.117,0.167,1.514,0.5c0.395,0.333,0.646,0.78,0.753,1.34h-0.68
		c-0.089-0.391-0.271-0.696-0.547-0.914s-0.622-0.327-1.04-0.327c-0.578,0-1.047,0.227-1.407,0.68c-0.359,0.453-0.54,1.053-0.54,1.8
		c0,0.747,0.181,1.347,0.54,1.8c0.36,0.454,0.829,0.68,1.407,0.68c0.418,0,0.765-0.109,1.04-0.327s0.458-0.522,0.547-0.914h0.68
		c-0.106,0.56-0.358,1.007-0.753,1.34c-0.396,0.333-0.9,0.5-1.514,0.5C330.155,75.937,329.523,75.652,329.044,75.083z"/>
	<path fill="#222222" d="M338.678,70.63c0.484,0.569,0.727,1.312,0.727,2.227c0,0.916-0.242,1.658-0.727,2.227
		c-0.485,0.569-1.118,0.854-1.9,0.854s-1.414-0.285-1.894-0.854c-0.48-0.569-0.72-1.311-0.72-2.227c0-0.915,0.239-1.658,0.72-2.227
		c0.479-0.569,1.111-0.854,1.894-0.854S338.192,70.061,338.678,70.63z M338.204,74.664c0.355-0.458,0.533-1.06,0.533-1.807
		c0-0.747-0.178-1.349-0.533-1.807c-0.355-0.458-0.831-0.687-1.427-0.687c-0.587,0-1.059,0.229-1.414,0.687
		c-0.355,0.458-0.533,1.06-0.533,1.807c0,0.747,0.178,1.349,0.533,1.807s0.827,0.687,1.414,0.687
		C337.373,75.35,337.849,75.122,338.204,74.664z"/>
	<path fill="#222222" d="M341.537,67.149v8.667h-0.667v-8.667H341.537z"/>
	<path fill="#222222" d="M347.518,70.63c0.484,0.569,0.727,1.312,0.727,2.227c0,0.916-0.242,1.658-0.727,2.227
		c-0.485,0.569-1.118,0.854-1.9,0.854s-1.414-0.285-1.894-0.854c-0.48-0.569-0.72-1.311-0.72-2.227c0-0.915,0.239-1.658,0.72-2.227
		c0.479-0.569,1.111-0.854,1.894-0.854S347.032,70.061,347.518,70.63z M347.044,74.664c0.355-0.458,0.533-1.06,0.533-1.807
		c0-0.747-0.178-1.349-0.533-1.807c-0.355-0.458-0.831-0.687-1.427-0.687c-0.587,0-1.059,0.229-1.414,0.687
		c-0.355,0.458-0.533,1.06-0.533,1.807c0,0.747,0.178,1.349,0.533,1.807s0.827,0.687,1.414,0.687
		C346.213,75.35,346.688,75.122,347.044,74.664z"/>
	<path fill="#222222" d="M352.497,69.856v0.653c-0.169-0.071-0.351-0.106-0.547-0.106c-0.355,0-0.671,0.115-0.946,0.347
		c-0.275,0.231-0.484,0.542-0.627,0.933v4.134h-0.667v-5.92h0.667v0.947c0.143-0.311,0.355-0.567,0.641-0.767
		c0.284-0.2,0.604-0.3,0.96-0.3C352.146,69.776,352.319,69.803,352.497,69.856z"/>
</g>
<g>
	<rect x="374.474" y="66.039" fill="none" width="62.227" height="10.001"/>
	<path fill="#222222" d="M378.78,68.785l1.414,4.88l1.453-4.88h0.64l-1.786,5.92h-0.573l-1.427-4.894l-1.427,4.894H376.5
		l-1.786-5.92h0.653l1.453,4.88l1.414-4.88H378.78z"/>
	<path fill="#222222" d="M383.474,74.706v-8.667h0.667v3.694c0.195-0.302,0.46-0.556,0.794-0.76c0.333-0.204,0.699-0.307,1.1-0.307
		c0.658,0,1.165,0.193,1.521,0.58s0.533,0.9,0.533,1.54v3.92h-0.653v-3.827c0-0.48-0.127-0.867-0.38-1.16
		c-0.254-0.293-0.634-0.44-1.141-0.44c-0.391,0-0.746,0.12-1.066,0.36c-0.32,0.24-0.556,0.546-0.707,0.92v4.147H383.474z"/>
	<path fill="#222222" d="M390.568,66.665c0.088,0.089,0.133,0.196,0.133,0.32c0,0.125-0.045,0.231-0.133,0.32
		c-0.09,0.089-0.196,0.133-0.32,0.133c-0.125,0-0.231-0.044-0.32-0.133s-0.133-0.196-0.133-0.32c0-0.124,0.044-0.231,0.133-0.32
		s0.195-0.133,0.32-0.133C390.372,66.532,390.479,66.576,390.568,66.665z M390.581,68.785v5.92h-0.667v-5.92H390.581z"/>
	<path fill="#222222" d="M392.741,73.332v-3.974h-1.001v-0.573h1.001v-1.52h0.653v1.52h1.533v0.573h-1.533v3.907
		c0,0.64,0.284,0.96,0.853,0.96c0.285,0,0.556-0.076,0.813-0.227v0.626c-0.249,0.133-0.542,0.2-0.88,0.2
		c-0.444,0-0.796-0.127-1.053-0.38C392.869,74.192,392.741,73.821,392.741,73.332z"/>
	<path fill="#222222" d="M400.222,72.985h0.64c-0.115,0.56-0.376,1.007-0.78,1.34c-0.404,0.333-0.909,0.5-1.514,0.5
		c-0.782,0-1.415-0.285-1.899-0.854c-0.485-0.569-0.727-1.311-0.727-2.227c0-0.897,0.237-1.635,0.713-2.213
		c0.476-0.578,1.108-0.867,1.9-0.867c0.765,0,1.355,0.265,1.773,0.793s0.627,1.229,0.627,2.1v0.24h-4.36
		c0.009,0.747,0.195,1.34,0.56,1.78c0.364,0.44,0.836,0.66,1.413,0.66c0.418,0,0.776-0.111,1.074-0.333
		C399.938,73.684,400.132,73.377,400.222,72.985z M398.555,69.252c-0.533,0-0.972,0.182-1.313,0.546
		c-0.343,0.365-0.549,0.858-0.62,1.48h3.667c-0.019-0.569-0.174-1.049-0.467-1.44C399.528,69.447,399.105,69.252,398.555,69.252z"/>
	<path fill="#222222" d="M401.581,76.052l0.72-1.333c-0.267-0.053-0.399-0.213-0.399-0.48c0-0.142,0.046-0.262,0.14-0.36
		s0.211-0.147,0.354-0.147c0.15,0,0.273,0.049,0.366,0.147c0.094,0.098,0.141,0.227,0.141,0.387s-0.067,0.355-0.2,0.586l-0.641,1.2
		H401.581z"/>
	<path fill="#222222" d="M410.021,68.745v0.653c-0.169-0.071-0.351-0.106-0.547-0.106c-0.355,0-0.671,0.115-0.946,0.347
		c-0.275,0.231-0.484,0.542-0.627,0.933v4.134h-0.667v-5.92h0.667v0.947c0.143-0.311,0.355-0.567,0.641-0.767
		c0.284-0.2,0.604-0.3,0.96-0.3C409.671,68.665,409.844,68.692,410.021,68.745z"/>
	<path fill="#222222" d="M414.956,72.985h0.64c-0.115,0.56-0.376,1.007-0.78,1.34c-0.404,0.333-0.909,0.5-1.514,0.5
		c-0.782,0-1.415-0.285-1.899-0.854c-0.485-0.569-0.727-1.311-0.727-2.227c0-0.897,0.237-1.635,0.713-2.213
		c0.476-0.578,1.108-0.867,1.9-0.867c0.765,0,1.355,0.265,1.773,0.793s0.627,1.229,0.627,2.1v0.24h-4.36
		c0.009,0.747,0.195,1.34,0.56,1.78c0.364,0.44,0.836,0.66,1.413,0.66c0.418,0,0.776-0.111,1.074-0.333
		C414.673,73.684,414.866,73.377,414.956,72.985z M413.289,69.252c-0.533,0-0.972,0.182-1.313,0.546
		c-0.343,0.365-0.549,0.858-0.62,1.48h3.667c-0.019-0.569-0.174-1.049-0.467-1.44C414.263,69.447,413.84,69.252,413.289,69.252z"/>
	<path fill="#222222" d="M421.155,74.706v-0.88c-0.178,0.275-0.434,0.511-0.767,0.707c-0.334,0.195-0.691,0.293-1.074,0.293
		c-0.835,0-1.476-0.295-1.92-0.887s-0.666-1.322-0.666-2.194c0-0.871,0.222-1.602,0.666-2.193c0.444-0.591,1.085-0.887,1.92-0.887
		c0.383,0,0.74,0.098,1.074,0.293c0.333,0.196,0.589,0.431,0.767,0.707v-3.627h0.653v8.667H421.155z M421.155,73.039v-2.586
		c-0.196-0.374-0.451-0.663-0.767-0.867c-0.316-0.204-0.656-0.307-1.021-0.307c-0.604,0-1.085,0.229-1.44,0.687
		s-0.533,1.051-0.533,1.78c0,0.729,0.178,1.323,0.533,1.78c0.355,0.458,0.836,0.687,1.44,0.687c0.364,0,0.704-0.103,1.021-0.307
		C420.704,73.701,420.959,73.412,421.155,73.039z"/>
</g>
<g>
	<rect x="302.801" y="22.095" fill="none" width="80.007" height="20.002"/>
	<path fill="#AFC6F9" d="M303.228,27.882c0-1.396,0.406-2.613,1.22-3.653s1.918-1.751,3.313-2.134l-0.187,1.08
		c-0.969,0.276-1.767,0.842-2.394,1.7c-0.626,0.858-0.939,1.86-0.939,3.007c0,0.765,0.178,1.4,0.533,1.907
		c0.355,0.507,0.845,0.849,1.467,1.027l-0.2,1.067c-0.88-0.276-1.569-0.758-2.066-1.447
		C303.477,29.747,303.228,28.896,303.228,27.882z"/>
	<path fill="#AFC6F9" d="M311.361,28.989h1.014c-0.178,0.569-0.5,1.027-0.967,1.374s-1.021,0.52-1.66,0.52
		c-0.756,0-1.352-0.235-1.787-0.707c-0.436-0.471-0.653-1.102-0.653-1.893c0-0.934,0.284-1.76,0.854-2.48s1.324-1.08,2.267-1.08
		c0.712,0,1.256,0.211,1.634,0.633c0.378,0.422,0.566,0.998,0.566,1.727c0,0.231-0.035,0.533-0.106,0.907h-4.2
		c-0.009,0.071-0.014,0.169-0.014,0.293c0,0.551,0.129,0.98,0.387,1.287s0.627,0.46,1.107,0.46c0.355,0,0.673-0.091,0.953-0.273
		C311.035,29.573,311.237,29.318,311.361,28.989z M310.388,25.575c-0.479,0-0.884,0.153-1.213,0.46s-0.569,0.705-0.72,1.193h3.187
		c0.009-0.062,0.014-0.146,0.014-0.253c0-0.4-0.109-0.733-0.327-1S310.797,25.575,310.388,25.575z"/>
	<path fill="#AFC6F9" d="M319.202,24.842l-2.681,2.907l1.601,3.014h-1.04l-1.228-2.32l-2.093,2.32h-1.147l2.827-3.067l-1.507-2.854
		h1.054l1.12,2.16l1.946-2.16H319.202z"/>
	<path fill="#AFC6F9" d="M324.27,26.829l-0.68,3.934h-0.974l0.066-0.44c-0.382,0.365-0.897,0.546-1.547,0.546
		c-0.568,0-1.042-0.155-1.42-0.466s-0.566-0.72-0.566-1.227c0-0.604,0.248-1.098,0.746-1.48s1.089-0.573,1.773-0.573
		c0.667,0,1.16,0.169,1.48,0.506l0.146-0.773c0.018-0.142,0.027-0.249,0.027-0.32c0-0.284-0.09-0.513-0.268-0.687
		s-0.439-0.26-0.786-0.26c-0.632,0-1.098,0.271-1.4,0.813h-0.986c0.187-0.507,0.504-0.914,0.953-1.22s0.962-0.46,1.54-0.46
		c0.604,0,1.078,0.156,1.42,0.467c0.343,0.311,0.514,0.729,0.514,1.253C324.31,26.548,324.296,26.678,324.27,26.829z
		 M322.856,29.295l0.12-0.613c-0.054-0.213-0.203-0.389-0.447-0.527c-0.244-0.138-0.531-0.207-0.86-0.207
		c-0.408,0-0.771,0.102-1.086,0.307c-0.316,0.205-0.474,0.493-0.474,0.867c0,0.276,0.122,0.496,0.366,0.66
		c0.245,0.165,0.536,0.247,0.874,0.247c0.328,0,0.633-0.067,0.913-0.2S322.74,29.518,322.856,29.295z"/>
	<path fill="#AFC6F9" d="M330.363,25.668c0.533-0.631,1.16-0.947,1.88-0.947c0.533,0,0.94,0.153,1.22,0.46
		c0.28,0.307,0.42,0.705,0.42,1.193c0,0.169-0.013,0.333-0.04,0.494l-0.68,3.894h-1.014l0.641-3.667
		c0.035-0.187,0.053-0.351,0.053-0.493c0-0.64-0.298-0.96-0.893-0.96c-0.623,0-1.13,0.369-1.521,1.107l-0.693,4.014h-1.014
		l0.641-3.667c0.035-0.284,0.053-0.449,0.053-0.493c0-0.64-0.298-0.96-0.894-0.96c-0.319,0-0.611,0.105-0.873,0.313
		c-0.263,0.209-0.478,0.474-0.646,0.793l-0.707,4.014h-1l1.04-5.92h1l-0.133,0.76c0.471-0.587,1.044-0.88,1.72-0.88
		c0.364,0,0.674,0.089,0.927,0.267C330.103,25.167,330.274,25.393,330.363,25.668z"/>
	<path fill="#AFC6F9" d="M335.99,30.056l-0.534,2.973h-1l1.44-8.187h1l-0.133,0.733c0.488-0.569,1.08-0.854,1.773-0.854
		c0.711,0,1.253,0.233,1.626,0.7c0.374,0.467,0.561,1.078,0.561,1.833c0,0.996-0.296,1.849-0.887,2.56
		c-0.592,0.711-1.34,1.067-2.247,1.067c-0.382,0-0.713-0.08-0.993-0.24C336.316,30.482,336.114,30.287,335.99,30.056z
		 M336.576,26.668l-0.413,2.333c0.223,0.649,0.688,0.974,1.4,0.974c0.667,0,1.191-0.265,1.573-0.793s0.573-1.171,0.573-1.927
		c0-0.489-0.12-0.882-0.36-1.18c-0.239-0.298-0.582-0.447-1.026-0.447C337.647,25.628,337.065,25.975,336.576,26.668z"/>
	<path fill="#AFC6F9" d="M344.098,22.095l-1.521,8.667h-1l1.521-8.667H344.098z"/>
	<path fill="#AFC6F9" d="M348.484,28.989h1.014c-0.178,0.569-0.5,1.027-0.967,1.374s-1.021,0.52-1.66,0.52
		c-0.756,0-1.352-0.235-1.787-0.707c-0.436-0.471-0.653-1.102-0.653-1.893c0-0.934,0.284-1.76,0.854-2.48s1.324-1.08,2.267-1.08
		c0.712,0,1.256,0.211,1.634,0.633c0.378,0.422,0.566,0.998,0.566,1.727c0,0.231-0.035,0.533-0.106,0.907h-4.2
		c-0.009,0.071-0.014,0.169-0.014,0.293c0,0.551,0.129,0.98,0.387,1.287s0.627,0.46,1.107,0.46c0.355,0,0.673-0.091,0.953-0.273
		C348.158,29.573,348.36,29.318,348.484,28.989z M347.511,25.575c-0.479,0-0.884,0.153-1.213,0.46s-0.569,0.705-0.72,1.193h3.187
		c0.009-0.062,0.014-0.146,0.014-0.253c0-0.4-0.109-0.733-0.327-1S347.92,25.575,347.511,25.575z"/>
	<path fill="#AFC6F9" d="M354.391,26.095c0,1.396-0.406,2.613-1.22,3.654c-0.813,1.04-1.918,1.751-3.313,2.133l0.187-1.08
		c0.969-0.275,1.767-0.842,2.394-1.7s0.939-1.86,0.939-3.007c0-0.765-0.178-1.4-0.533-1.907s-0.845-0.849-1.467-1.027l0.2-1.067
		c0.88,0.276,1.569,0.758,2.067,1.447C354.142,24.23,354.391,25.082,354.391,26.095z"/>
</g>
<g>
	<rect x="301.69" y="3.489" fill="none" width="145.566" height="29.447"/>
	<path fill="#386DF9" d="M303.095,4.129h6.774v0.836h-5.885V9h5.333v0.835h-5.333v4.374h5.885v0.835h-6.774V4.129z"/>
	<path fill="#386DF9" d="M317.958,7.151l-2.791,3.84l2.916,4.054h-0.979l-2.436-3.378l-2.453,3.378h-0.942l2.916-4.018l-2.792-3.876
		h0.979l2.311,3.218l2.329-3.218H317.958z"/>
	<path fill="#386DF9" d="M320.128,13.214V7.916h-1.334V7.151h1.334V5.125h0.871v2.027h2.044v0.765h-2.044v5.209
		c0,0.853,0.379,1.28,1.138,1.28c0.379,0,0.74-0.101,1.085-0.302v0.836c-0.332,0.178-0.724,0.267-1.174,0.267
		c-0.593,0-1.061-0.169-1.404-0.507S320.128,13.866,320.128,13.214z"/>
	<path fill="#386DF9" d="M330.102,12.752h0.854c-0.154,0.747-0.501,1.342-1.04,1.787c-0.54,0.445-1.212,0.667-2.018,0.667
		c-1.044,0-1.888-0.379-2.534-1.138c-0.646-0.758-0.969-1.748-0.969-2.969c0-1.197,0.317-2.181,0.951-2.952
		c0.634-0.77,1.479-1.155,2.533-1.155c1.02,0,1.808,0.353,2.365,1.058c0.557,0.706,0.835,1.639,0.835,2.8v0.32h-5.813
		c0.012,0.996,0.261,1.787,0.747,2.374c0.485,0.587,1.113,0.88,1.885,0.88c0.557,0,1.033-0.148,1.431-0.445
		C329.726,13.683,329.983,13.273,330.102,12.752z M327.879,7.774c-0.711,0-1.295,0.243-1.751,0.729
		c-0.456,0.486-0.731,1.144-0.826,1.973h4.889c-0.023-0.758-0.231-1.398-0.622-1.92C329.177,8.035,328.614,7.774,327.879,7.774z"/>
	<path fill="#386DF9" d="M333.018,15.045V7.151h0.889v1.262c0.261-0.402,0.613-0.74,1.058-1.013
		c0.444-0.272,0.934-0.409,1.467-0.409c0.877,0,1.553,0.258,2.027,0.773c0.474,0.516,0.711,1.2,0.711,2.054v5.227h-0.871V9.943
		c0-0.64-0.169-1.156-0.507-1.547s-0.845-0.587-1.521-0.587c-0.521,0-0.995,0.16-1.422,0.48c-0.427,0.32-0.741,0.729-0.942,1.227
		v5.529H333.018z"/>
	<path fill="#386DF9" d="M346.938,15.045v-1.173c-0.237,0.368-0.577,0.682-1.021,0.942c-0.445,0.26-0.922,0.391-1.432,0.391
		c-1.114,0-1.968-0.394-2.561-1.183c-0.593-0.788-0.889-1.763-0.889-2.924s0.296-2.136,0.889-2.925
		c0.593-0.788,1.446-1.182,2.561-1.182c0.51,0,0.986,0.13,1.432,0.391c0.444,0.261,0.784,0.575,1.021,0.942V3.489h0.871v11.557
		H346.938z M346.938,12.823V9.374c-0.261-0.498-0.602-0.883-1.021-1.156c-0.421-0.272-0.875-0.409-1.36-0.409
		c-0.807,0-1.446,0.306-1.92,0.916c-0.475,0.61-0.712,1.401-0.712,2.374c0,0.972,0.237,1.763,0.712,2.374
		c0.474,0.61,1.113,0.916,1.92,0.916c0.485,0,0.939-0.136,1.36-0.409C346.336,13.706,346.677,13.321,346.938,12.823z"/>
	<path fill="#386DF9" d="M353.479,12.378h0.942c0.214,0.652,0.593,1.15,1.138,1.494c0.546,0.344,1.197,0.516,1.956,0.516
		c0.806,0,1.461-0.196,1.965-0.587s0.756-0.924,0.756-1.6c0-0.996-0.629-1.671-1.885-2.027l-2.08-0.586
		c-0.83-0.225-1.455-0.542-1.876-0.951c-0.421-0.409-0.631-0.981-0.631-1.716c0-0.901,0.331-1.618,0.995-2.151s1.481-0.8,2.454-0.8
		c1.031,0,1.872,0.246,2.524,0.738c0.651,0.492,1.09,1.159,1.315,2h-0.906c-0.451-1.28-1.429-1.92-2.934-1.92
		c-0.735,0-1.349,0.187-1.841,0.56c-0.492,0.374-0.737,0.88-0.737,1.521c0,0.545,0.162,0.954,0.488,1.227
		c0.326,0.273,0.856,0.51,1.592,0.711l1.831,0.533c0.889,0.249,1.541,0.602,1.956,1.058c0.414,0.457,0.622,1.046,0.622,1.769
		c0,0.937-0.338,1.678-1.014,2.223c-0.676,0.545-1.541,0.818-2.596,0.818c-1.02,0-1.894-0.249-2.622-0.747
		C354.164,13.961,353.693,13.268,353.479,12.378z"/>
	<path fill="#386DF9" d="M368.343,12.752h0.854c-0.154,0.747-0.501,1.342-1.04,1.787c-0.54,0.445-1.212,0.667-2.018,0.667
		c-1.044,0-1.888-0.379-2.534-1.138c-0.646-0.758-0.969-1.748-0.969-2.969c0-1.197,0.317-2.181,0.951-2.952
		c0.634-0.77,1.479-1.155,2.533-1.155c1.02,0,1.808,0.353,2.365,1.058c0.557,0.706,0.835,1.639,0.835,2.8v0.32h-5.813
		c0.012,0.996,0.261,1.787,0.747,2.374c0.485,0.587,1.113,0.88,1.885,0.88c0.557,0,1.033-0.148,1.431-0.445
		C367.967,13.683,368.225,13.273,368.343,12.752z M366.12,7.774c-0.711,0-1.295,0.243-1.751,0.729
		c-0.456,0.486-0.731,1.144-0.826,1.973h4.889c-0.023-0.758-0.231-1.398-0.622-1.92C367.418,8.035,366.855,7.774,366.12,7.774z"/>
	<path fill="#386DF9" d="M371.614,13.214V7.916h-1.334V7.151h1.334V5.125h0.871v2.027h2.044v0.765h-2.044v5.209
		c0,0.853,0.379,1.28,1.138,1.28c0.379,0,0.74-0.101,1.085-0.302v0.836c-0.332,0.178-0.724,0.267-1.174,0.267
		c-0.593,0-1.061-0.169-1.404-0.507S371.614,13.866,371.614,13.214z"/>
</g>
<g>
</g>
<g>
</g>
<g>
</g>
<g>
</g>
<g>
</g>
<g>
</g>
<g>
</g>
</svg>
