<?xml version="1.0" encoding="utf-8"?>
<!-- Generator: Adobe Illustrator 16.0.0, SVG Export Plug-In . SVG Version: 6.00 Build 0)  -->
<!DOCTYPE svg PUBLIC "-//W3C//DTD SVG 1.1 Tiny//EN" "http://www.w3.org/Graphics/SVG/1.1/DTD/svg11-tiny.dtd">
<svg version="1.1" baseProfile="tiny" id="Layer_1" xmlns="http://www.w3.org/2000/svg" xmlns:xlink="http://www.w3.org/1999/xlink"
	 x="0px" y="0px" width="466.702px" height="245.44px" viewBox="0 0 466.702 245.44" xml:space="preserve">
<g>
	<path fill="none" stroke="#FF4848" stroke-linejoin="round" d="M340.025,102.101c0,0-18.583,9.292-19.925,18.918"/>
	<g>
		<polygon fill="#FF4848" points="316.988,116.92 317.852,116.413 320.343,120.668 324.405,117.873 324.972,118.697 
			320.023,122.102 		"/>
	</g>
</g>
<g>
	<path fill="none" stroke="#FF4848" stroke-linejoin="round" d="M340.025,102.101c0,0,18.584,9.292,19.926,18.918"/>
	<g>
		<polygon fill="#FF4848" points="355.079,118.698 355.646,117.873 359.707,120.669 362.199,116.413 363.062,116.92 
			360.026,122.102 		"/>
	</g>
</g>
<rect x="40.003" y="42.096" fill="#FFFFFF" stroke="#222222" stroke-linejoin="round" stroke-miterlimit="10" width="20.002" height="60.005"/>
<rect x="30.003" y="22.095" fill="#FFFFFF" stroke="#222222" stroke-linejoin="round" stroke-miterlimit="10" width="80.006" height="20.001"/>
<rect x="80.006" y="42.096" fill="#FFFFFF" stroke="#222222" stroke-linejoin="round" stroke-miterlimit="10" width="20.002" height="60.005"/>
<circle fill="none" stroke="#222222" stroke-linejoin="round" stroke-miterlimit="10" cx="190.015" cy="32.095" r="10.001"/>
<circle fill="none" stroke="#222222" stroke-linejoin="round" stroke-miterlimit="10" cx="170.013" cy="72.099" r="10"/>
<circle fill="none" stroke="#222222" stroke-linejoin="round" stroke-miterlimit="10" cx="210.016" cy="72.099" r="10"/>
<g>
	<path fill="none" stroke="#FF4848" stroke-linejoin="round" d="M190.015,42.096c0,0-18.584,9.292-19.926,18.919"/>
	<g>
		<polygon fill="#FF4848" points="166.977,56.916 167.84,56.409 170.331,60.664 174.394,57.869 174.96,58.693 170.012,62.098 		"/>
	</g>
</g>
<g>
	<path fill="none" stroke="#FF4848" stroke-linejoin="round" d="M190.015,42.096c0,0,18.583,9.292,19.925,18.919"/>
	<g>
		<polygon fill="#FF4848" points="205.067,58.694 205.634,57.869 209.695,60.665 212.188,56.409 213.051,56.916 210.015,62.098 		
			"/>
	</g>
</g>
<g>
	<rect x="210.017" y="42.097" fill="none" width="50.004" height="10"/>
	<path fill="#222222" d="M210.417,49.23h0.666c0.24,0.72,0.791,1.08,1.653,1.08c0.427,0,0.773-0.094,1.041-0.28
		c0.267-0.187,0.399-0.458,0.399-0.813c0-0.498-0.364-0.849-1.093-1.054l-1.107-0.307c-0.934-0.248-1.4-0.746-1.4-1.493
		c0-0.498,0.191-0.896,0.574-1.193c0.382-0.298,0.857-0.446,1.427-0.446c0.604,0,1.095,0.142,1.473,0.427
		c0.378,0.284,0.62,0.68,0.728,1.187h-0.653c-0.231-0.693-0.747-1.04-1.547-1.04c-0.392,0-0.716,0.091-0.974,0.273
		c-0.258,0.182-0.387,0.438-0.387,0.767c0,0.267,0.082,0.467,0.246,0.6c0.165,0.134,0.438,0.254,0.82,0.36l1.054,0.293
		c0.986,0.258,1.48,0.796,1.48,1.613c0,0.525-0.196,0.937-0.587,1.233c-0.392,0.299-0.894,0.447-1.507,0.447
		c-0.604,0-1.118-0.146-1.54-0.44C210.761,50.15,210.506,49.746,210.417,49.23z"/>
	<path fill="#222222" d="M220.804,44.843v5.921h-0.653v-0.946c-0.195,0.302-0.458,0.556-0.786,0.76
		c-0.329,0.204-0.693,0.307-1.094,0.307c-0.658,0-1.165-0.193-1.521-0.58s-0.533-0.9-0.533-1.54v-3.921h0.653v3.827
		c0,0.48,0.127,0.867,0.38,1.16c0.254,0.294,0.634,0.44,1.141,0.44c0.391,0,0.744-0.12,1.06-0.36s0.549-0.547,0.7-0.92v-4.147
		H220.804z"/>
	<path fill="#222222" d="M223.364,49.884v3.146h-0.667v-8.188h0.667v0.881c0.178-0.275,0.434-0.512,0.767-0.707
		c0.334-0.195,0.691-0.293,1.073-0.293c0.827,0,1.465,0.295,1.914,0.887c0.448,0.591,0.673,1.322,0.673,2.193
		s-0.225,1.603-0.673,2.193c-0.449,0.591-1.087,0.887-1.914,0.887c-0.382,0-0.739-0.098-1.073-0.294
		C223.798,50.395,223.542,50.159,223.364,49.884z M223.364,46.51v2.587c0.409,0.782,1,1.174,1.773,1.174
		c0.613,0,1.098-0.229,1.454-0.687c0.355-0.458,0.533-1.052,0.533-1.78c0-0.729-0.178-1.322-0.533-1.78
		c-0.356-0.458-0.841-0.687-1.454-0.687C224.364,45.337,223.773,45.728,223.364,46.51z"/>
	<path fill="#222222" d="M229.925,49.884v3.146h-0.667v-8.188h0.667v0.881c0.178-0.275,0.434-0.512,0.767-0.707
		c0.334-0.195,0.691-0.293,1.073-0.293c0.827,0,1.465,0.295,1.914,0.887c0.448,0.591,0.673,1.322,0.673,2.193
		s-0.225,1.603-0.673,2.193c-0.449,0.591-1.087,0.887-1.914,0.887c-0.382,0-0.739-0.098-1.073-0.294
		C230.358,50.395,230.103,50.159,229.925,49.884z M229.925,46.51v2.587c0.409,0.782,1,1.174,1.773,1.174
		c0.613,0,1.098-0.229,1.454-0.687c0.355-0.458,0.533-1.052,0.533-1.78c0-0.729-0.178-1.322-0.533-1.78
		c-0.356-0.458-0.841-0.687-1.454-0.687C230.925,45.337,230.334,45.728,229.925,46.51z"/>
	<path fill="#222222" d="M239.92,45.576c0.484,0.569,0.727,1.312,0.727,2.228c0,0.915-0.242,1.658-0.727,2.227
		c-0.485,0.569-1.118,0.854-1.9,0.854s-1.414-0.284-1.894-0.854c-0.48-0.568-0.72-1.312-0.72-2.227c0-0.916,0.239-1.658,0.72-2.228
		c0.479-0.568,1.111-0.853,1.894-0.853S239.435,45.008,239.92,45.576z M239.446,49.61c0.355-0.458,0.533-1.061,0.533-1.807
		c0-0.747-0.178-1.349-0.533-1.807s-0.831-0.688-1.427-0.688c-0.587,0-1.059,0.229-1.414,0.688s-0.533,1.06-0.533,1.807
		c0,0.746,0.178,1.349,0.533,1.807s0.827,0.687,1.414,0.687C238.615,50.297,239.091,50.068,239.446,49.61z"/>
	<path fill="#222222" d="M244.899,44.804v0.653c-0.169-0.071-0.351-0.107-0.547-0.107c-0.355,0-0.671,0.116-0.946,0.347
		c-0.275,0.231-0.484,0.543-0.627,0.934v4.134h-0.667v-5.921h0.667v0.947c0.143-0.312,0.355-0.566,0.641-0.767
		c0.284-0.2,0.604-0.3,0.96-0.3C244.549,44.724,244.722,44.75,244.899,44.804z"/>
	<path fill="#222222" d="M246.394,49.391v-3.974h-1.001v-0.574h1.001v-1.52h0.653v1.52h1.533v0.574h-1.533v3.906
		c0,0.641,0.284,0.96,0.853,0.96c0.285,0,0.556-0.075,0.813-0.227v0.627c-0.249,0.134-0.542,0.2-0.88,0.2
		c-0.444,0-0.796-0.127-1.053-0.38C246.521,50.25,246.394,49.879,246.394,49.391z"/>
</g>
<g>
	<rect x="0.001" y="2.094" fill="none" width="60.004" height="20.001"/>
	<path d="M1.601,2.72c0.088,0.089,0.133,0.196,0.133,0.32c0,0.125-0.045,0.231-0.133,0.32c-0.09,0.089-0.196,0.133-0.32,0.133
		c-0.125,0-0.231-0.044-0.32-0.133S0.827,3.165,0.827,3.04c0-0.124,0.044-0.231,0.133-0.32s0.195-0.133,0.32-0.133
		C1.404,2.587,1.511,2.631,1.601,2.72z M1.613,4.84v5.92H0.946V4.84H1.613z"/>
	<path d="M2.96,9.228h0.666c0.24,0.72,0.791,1.08,1.653,1.08c0.427,0,0.773-0.094,1.041-0.28C6.587,9.841,6.72,9.569,6.72,9.214
		c0-0.498-0.364-0.849-1.093-1.053L4.52,7.854c-0.934-0.249-1.4-0.747-1.4-1.494c0-0.498,0.191-0.896,0.574-1.193
		C4.075,4.869,4.551,4.72,5.12,4.72c0.604,0,1.095,0.143,1.473,0.427c0.378,0.285,0.62,0.68,0.728,1.187H6.667
		C6.436,5.64,5.92,5.293,5.12,5.293c-0.392,0-0.716,0.091-0.974,0.273C3.889,5.75,3.76,6.005,3.76,6.334
		c0,0.267,0.082,0.466,0.246,0.6c0.165,0.133,0.438,0.253,0.82,0.36L5.88,7.587C6.866,7.845,7.36,8.383,7.36,9.2
		c0,0.525-0.196,0.937-0.587,1.233c-0.392,0.299-0.894,0.447-1.507,0.447c-0.604,0-1.118-0.146-1.54-0.44
		C3.304,10.147,3.049,9.743,2.96,9.228z"/>
	<path d="M15.801,10.761h-0.64v-0.56c-0.143,0.169-0.365,0.319-0.667,0.453c-0.303,0.133-0.627,0.2-0.974,0.2
		c-0.622,0-1.143-0.167-1.56-0.5c-0.418-0.334-0.627-0.776-0.627-1.327c0-0.533,0.213-0.969,0.64-1.307s0.951-0.507,1.573-0.507
		c0.32,0,0.632,0.064,0.934,0.193c0.303,0.129,0.529,0.273,0.681,0.433V6.787c0-0.444-0.132-0.802-0.394-1.073
		c-0.263-0.271-0.625-0.407-1.087-0.407c-0.738,0-1.218,0.338-1.44,1.013h-0.653c0.115-0.498,0.362-0.889,0.74-1.173
		c0.378-0.284,0.829-0.427,1.354-0.427c0.658,0,1.176,0.185,1.554,0.553c0.378,0.369,0.566,0.865,0.566,1.487V10.761z M15.161,9.414
		V8.653c-0.099-0.258-0.296-0.468-0.594-0.633s-0.625-0.247-0.98-0.247c-0.453,0-0.838,0.109-1.153,0.327s-0.473,0.527-0.473,0.927
		c0,0.4,0.157,0.711,0.473,0.934c0.315,0.222,0.7,0.333,1.153,0.333c0.355,0,0.683-0.082,0.98-0.247
		C14.865,9.883,15.062,9.672,15.161,9.414z"/>
	<path d="M17.627,10.761V4.84h0.667v0.947c0.195-0.302,0.46-0.556,0.794-0.76c0.333-0.204,0.699-0.307,1.1-0.307
		c0.658,0,1.165,0.193,1.521,0.58s0.533,0.9,0.533,1.54v3.92h-0.653V6.934c0-0.48-0.127-0.867-0.38-1.16
		c-0.254-0.293-0.634-0.44-1.141-0.44c-0.391,0-0.746,0.12-1.066,0.36c-0.32,0.24-0.556,0.546-0.707,0.92v4.147H17.627z"/>
	<path d="M31.042,10.761h-0.64v-0.56c-0.143,0.169-0.365,0.319-0.667,0.453c-0.303,0.133-0.627,0.2-0.974,0.2
		c-0.622,0-1.143-0.167-1.56-0.5c-0.418-0.334-0.627-0.776-0.627-1.327c0-0.533,0.213-0.969,0.64-1.307s0.951-0.507,1.573-0.507
		c0.32,0,0.632,0.064,0.934,0.193c0.303,0.129,0.529,0.273,0.681,0.433V6.787c0-0.444-0.132-0.802-0.394-1.073
		c-0.263-0.271-0.625-0.407-1.087-0.407c-0.738,0-1.218,0.338-1.44,1.013h-0.653c0.115-0.498,0.362-0.889,0.74-1.173
		c0.378-0.284,0.829-0.427,1.354-0.427c0.658,0,1.176,0.185,1.554,0.553c0.378,0.369,0.566,0.865,0.566,1.487V10.761z M30.402,9.414
		V8.653c-0.099-0.258-0.296-0.468-0.594-0.633s-0.625-0.247-0.98-0.247c-0.453,0-0.838,0.109-1.153,0.327s-0.473,0.527-0.473,0.927
		c0,0.4,0.157,0.711,0.473,0.934c0.315,0.222,0.7,0.333,1.153,0.333c0.355,0,0.683-0.082,0.98-0.247
		C30.106,9.883,30.304,9.672,30.402,9.414z"/>
	<path d="M35.655,4.8v0.653c-0.169-0.071-0.351-0.106-0.547-0.106c-0.355,0-0.671,0.115-0.946,0.347
		c-0.275,0.231-0.484,0.542-0.627,0.933v4.134h-0.667V4.84h0.667v0.947c0.143-0.311,0.355-0.567,0.641-0.767
		c0.284-0.2,0.604-0.3,0.96-0.3C35.305,4.72,35.478,4.747,35.655,4.8z"/>
	<path d="M37.029,10.027c-0.48-0.568-0.72-1.312-0.72-2.227c0-0.915,0.239-1.658,0.72-2.227c0.479-0.569,1.111-0.854,1.894-0.854
		c0.613,0,1.117,0.167,1.514,0.5c0.395,0.333,0.646,0.78,0.753,1.34h-0.68c-0.089-0.391-0.271-0.696-0.547-0.914
		s-0.622-0.327-1.04-0.327c-0.578,0-1.047,0.227-1.407,0.68c-0.359,0.453-0.54,1.053-0.54,1.8c0,0.748,0.181,1.347,0.54,1.8
		c0.36,0.453,0.829,0.68,1.407,0.68c0.418,0,0.765-0.108,1.04-0.326s0.458-0.522,0.547-0.913h0.68
		c-0.106,0.56-0.358,1.006-0.753,1.34c-0.396,0.333-0.9,0.5-1.514,0.5C38.141,10.881,37.509,10.597,37.029,10.027z"/>
	<path d="M42.629,10.761V2.093h0.667v3.694c0.195-0.302,0.46-0.556,0.794-0.76c0.333-0.204,0.699-0.307,1.1-0.307
		c0.658,0,1.165,0.193,1.521,0.58s0.533,0.9,0.533,1.54v3.92H46.59V6.934c0-0.48-0.127-0.867-0.38-1.16
		c-0.254-0.293-0.634-0.44-1.141-0.44c-0.391,0-0.746,0.12-1.066,0.36c-0.32,0.24-0.556,0.546-0.707,0.92v4.147H42.629z"/>
</g>
<g>
	<rect x="0.001" y="132.103" fill="none" width="80.006" height="20.002"/>
	<path d="M1.601,132.729c0.088,0.09,0.133,0.196,0.133,0.32c0,0.125-0.045,0.231-0.133,0.32c-0.09,0.089-0.196,0.133-0.32,0.133
		c-0.125,0-0.231-0.044-0.32-0.133s-0.133-0.195-0.133-0.32c0-0.124,0.044-0.23,0.133-0.32c0.089-0.088,0.195-0.133,0.32-0.133
		C1.404,132.597,1.511,132.642,1.601,132.729z M1.613,134.85v5.921H0.946v-5.921H1.613z"/>
	<path d="M2.96,139.237h0.666c0.24,0.72,0.791,1.08,1.653,1.08c0.427,0,0.773-0.094,1.041-0.28c0.267-0.187,0.399-0.458,0.399-0.813
		c0-0.498-0.364-0.849-1.093-1.054l-1.107-0.307c-0.934-0.248-1.4-0.746-1.4-1.493c0-0.498,0.191-0.896,0.574-1.193
		c0.382-0.298,0.857-0.446,1.427-0.446c0.604,0,1.095,0.142,1.473,0.427c0.378,0.284,0.62,0.68,0.728,1.187H6.667
		c-0.231-0.693-0.747-1.04-1.547-1.04c-0.392,0-0.716,0.091-0.974,0.273c-0.258,0.182-0.387,0.438-0.387,0.767
		c0,0.267,0.082,0.467,0.246,0.6c0.165,0.134,0.438,0.254,0.82,0.36l1.054,0.293c0.986,0.258,1.48,0.796,1.48,1.613
		c0,0.525-0.196,0.937-0.587,1.233c-0.392,0.299-0.894,0.447-1.507,0.447c-0.604,0-1.118-0.146-1.54-0.44
		C3.304,140.157,3.049,139.753,2.96,139.237z"/>
	<path d="M15.801,140.771h-0.64v-0.56c-0.143,0.169-0.365,0.319-0.667,0.453c-0.303,0.133-0.627,0.2-0.974,0.2
		c-0.622,0-1.143-0.167-1.56-0.5c-0.418-0.334-0.627-0.776-0.627-1.327c0-0.533,0.213-0.969,0.64-1.307s0.951-0.507,1.573-0.507
		c0.32,0,0.632,0.064,0.934,0.193c0.303,0.129,0.529,0.273,0.681,0.434v-1.054c0-0.444-0.132-0.802-0.394-1.073
		c-0.263-0.271-0.625-0.407-1.087-0.407c-0.738,0-1.218,0.338-1.44,1.014h-0.653c0.115-0.498,0.362-0.889,0.74-1.173
		c0.378-0.285,0.829-0.427,1.354-0.427c0.658,0,1.176,0.185,1.554,0.553c0.378,0.369,0.566,0.865,0.566,1.487V140.771z
		 M15.161,139.424v-0.76c-0.099-0.258-0.296-0.469-0.594-0.634c-0.298-0.164-0.625-0.247-0.98-0.247
		c-0.453,0-0.838,0.109-1.153,0.327s-0.473,0.526-0.473,0.927s0.157,0.711,0.473,0.934c0.315,0.222,0.7,0.333,1.153,0.333
		c0.355,0,0.683-0.082,0.98-0.247C14.865,139.893,15.062,139.682,15.161,139.424z"/>
	<path d="M17.627,140.771v-5.921h0.667v0.947c0.195-0.302,0.46-0.556,0.794-0.76c0.333-0.205,0.699-0.307,1.1-0.307
		c0.658,0,1.165,0.193,1.521,0.58s0.533,0.899,0.533,1.54v3.92h-0.653v-3.827c0-0.479-0.127-0.866-0.38-1.16
		c-0.254-0.293-0.634-0.439-1.141-0.439c-0.391,0-0.746,0.12-1.066,0.359c-0.32,0.24-0.556,0.547-0.707,0.92v4.147H17.627z"/>
	<path d="M31.042,140.771h-0.64v-0.56c-0.143,0.169-0.365,0.319-0.667,0.453c-0.303,0.133-0.627,0.2-0.974,0.2
		c-0.622,0-1.143-0.167-1.56-0.5c-0.418-0.334-0.627-0.776-0.627-1.327c0-0.533,0.213-0.969,0.64-1.307s0.951-0.507,1.573-0.507
		c0.32,0,0.632,0.064,0.934,0.193c0.303,0.129,0.529,0.273,0.681,0.434v-1.054c0-0.444-0.132-0.802-0.394-1.073
		c-0.263-0.271-0.625-0.407-1.087-0.407c-0.738,0-1.218,0.338-1.44,1.014h-0.653c0.115-0.498,0.362-0.889,0.74-1.173
		c0.378-0.285,0.829-0.427,1.354-0.427c0.658,0,1.176,0.185,1.554,0.553c0.378,0.369,0.566,0.865,0.566,1.487V140.771z
		 M30.402,139.424v-0.76c-0.099-0.258-0.296-0.469-0.594-0.634c-0.298-0.164-0.625-0.247-0.98-0.247
		c-0.453,0-0.838,0.109-1.153,0.327s-0.473,0.526-0.473,0.927s0.157,0.711,0.473,0.934c0.315,0.222,0.7,0.333,1.153,0.333
		c0.355,0,0.683-0.082,0.98-0.247C30.106,139.893,30.304,139.682,30.402,139.424z"/>
	<path d="M35.655,134.811v0.653c-0.169-0.071-0.351-0.107-0.547-0.107c-0.355,0-0.671,0.116-0.946,0.347
		c-0.275,0.231-0.484,0.543-0.627,0.934v4.134h-0.667v-5.921h0.667v0.947c0.143-0.312,0.355-0.566,0.641-0.767
		c0.284-0.2,0.604-0.3,0.96-0.3C35.305,134.73,35.478,134.757,35.655,134.811z"/>
	<path d="M37.029,140.037c-0.48-0.568-0.72-1.312-0.72-2.227c0-0.916,0.239-1.658,0.72-2.228c0.479-0.568,1.111-0.853,1.894-0.853
		c0.613,0,1.117,0.166,1.514,0.5c0.395,0.333,0.646,0.779,0.753,1.34h-0.68c-0.089-0.392-0.271-0.695-0.547-0.913
		s-0.622-0.327-1.04-0.327c-0.578,0-1.047,0.227-1.407,0.68c-0.359,0.454-0.54,1.054-0.54,1.801c0,0.746,0.181,1.347,0.54,1.8
		c0.36,0.453,0.829,0.68,1.407,0.68c0.418,0,0.765-0.108,1.04-0.326s0.458-0.522,0.547-0.913h0.68
		c-0.106,0.56-0.358,1.006-0.753,1.34c-0.396,0.333-0.9,0.5-1.514,0.5C38.141,140.891,37.509,140.606,37.029,140.037z"/>
	<path d="M42.629,140.771v-8.667h0.667v3.693c0.195-0.302,0.46-0.556,0.794-0.76c0.333-0.205,0.699-0.307,1.1-0.307
		c0.658,0,1.165,0.193,1.521,0.58s0.533,0.899,0.533,1.54v3.92H46.59v-3.827c0-0.479-0.127-0.866-0.38-1.16
		c-0.254-0.293-0.634-0.439-1.141-0.439c-0.391,0-0.746,0.12-1.066,0.359c-0.32,0.24-0.556,0.547-0.707,0.92v4.147H42.629z"/>
</g>
<path fill="none" stroke="#222222" stroke-linejoin="round" stroke-miterlimit="10" d="M260.02,12.094
	c20.002,0,10.001,90.007,30.003,100.008c-20.002,10-10.001,100.007-30.003,100.007"/>
<circle fill="none" stroke="#222222" stroke-linejoin="round" stroke-miterlimit="10" cx="340.026" cy="92.1" r="10"/>
<circle fill="none" stroke="#222222" stroke-linejoin="round" stroke-miterlimit="10" cx="320.024" cy="132.103" r="10.001"/>
<circle fill="none" stroke="#222222" stroke-linejoin="round" stroke-miterlimit="10" cx="360.027" cy="132.103" r="10.001"/>
<g>
	<rect x="360.027" y="102.101" fill="none" width="90.007" height="10.001"/>
	<path fill="#222222" d="M365.002,105.86c0.178-0.32,0.431-0.589,0.76-0.807s0.689-0.326,1.08-0.326c0.578,0,1.022,0.187,1.334,0.56
		c0.311,0.373,0.467,0.867,0.467,1.48v4h-0.653v-3.907c0-0.471-0.107-0.842-0.32-1.113c-0.214-0.271-0.529-0.406-0.947-0.406
		c-0.355,0-0.675,0.115-0.96,0.347c-0.284,0.231-0.488,0.528-0.613,0.894v4.187h-0.666v-3.907c0-0.471-0.107-0.842-0.32-1.113
		c-0.214-0.271-0.529-0.406-0.947-0.406c-0.355,0-0.676,0.115-0.96,0.347s-0.488,0.528-0.613,0.894v4.187h-0.667v-5.921h0.667v0.907
		c0.16-0.302,0.389-0.549,0.687-0.74c0.298-0.19,0.638-0.286,1.021-0.286C364.176,104.728,364.727,105.105,365.002,105.86z"/>
	<path fill="#222222" d="M375.003,104.847v5.921h-0.653v-0.946c-0.195,0.302-0.458,0.556-0.786,0.76
		c-0.329,0.204-0.693,0.307-1.094,0.307c-0.658,0-1.165-0.193-1.521-0.58s-0.533-0.9-0.533-1.54v-3.921h0.653v3.827
		c0,0.48,0.127,0.867,0.38,1.16c0.254,0.294,0.634,0.44,1.141,0.44c0.391,0,0.744-0.12,1.06-0.36s0.549-0.547,0.7-0.92v-4.147
		H375.003z"/>
	<path fill="#222222" d="M376.351,109.234h0.666c0.24,0.72,0.791,1.08,1.653,1.08c0.427,0,0.773-0.094,1.041-0.28
		c0.267-0.187,0.399-0.458,0.399-0.813c0-0.498-0.364-0.849-1.093-1.054l-1.107-0.307c-0.934-0.248-1.4-0.746-1.4-1.493
		c0-0.498,0.191-0.896,0.574-1.193c0.382-0.298,0.857-0.446,1.427-0.446c0.604,0,1.095,0.142,1.473,0.427
		c0.378,0.284,0.62,0.68,0.728,1.187h-0.653c-0.231-0.693-0.747-1.04-1.547-1.04c-0.392,0-0.716,0.091-0.974,0.273
		c-0.258,0.182-0.387,0.438-0.387,0.767c0,0.267,0.082,0.467,0.246,0.6c0.165,0.134,0.438,0.254,0.82,0.36l1.054,0.293
		c0.986,0.258,1.48,0.796,1.48,1.613c0,0.525-0.196,0.937-0.587,1.233c-0.392,0.299-0.894,0.447-1.507,0.447
		c-0.604,0-1.118-0.146-1.54-0.44C376.694,110.154,376.439,109.75,376.351,109.234z"/>
	<path fill="#222222" d="M382.484,109.395v-3.974h-1.001v-0.574h1.001v-1.52h0.653v1.52h1.533v0.574h-1.533v3.906
		c0,0.641,0.284,0.96,0.853,0.96c0.285,0,0.556-0.075,0.813-0.227v0.627c-0.249,0.134-0.542,0.2-0.88,0.2
		c-0.444,0-0.796-0.127-1.053-0.38C382.612,110.254,382.484,109.883,382.484,109.395z"/>
	<path fill="#222222" d="M388.578,109.234h0.666c0.24,0.72,0.791,1.08,1.653,1.08c0.427,0,0.773-0.094,1.041-0.28
		c0.267-0.187,0.399-0.458,0.399-0.813c0-0.498-0.364-0.849-1.093-1.054l-1.107-0.307c-0.934-0.248-1.4-0.746-1.4-1.493
		c0-0.498,0.191-0.896,0.574-1.193c0.382-0.298,0.857-0.446,1.427-0.446c0.604,0,1.095,0.142,1.473,0.427
		c0.378,0.284,0.62,0.68,0.728,1.187h-0.653c-0.231-0.693-0.747-1.04-1.547-1.04c-0.392,0-0.716,0.091-0.974,0.273
		c-0.258,0.182-0.387,0.438-0.387,0.767c0,0.267,0.082,0.467,0.246,0.6c0.165,0.134,0.438,0.254,0.82,0.36l1.054,0.293
		c0.986,0.258,1.48,0.796,1.48,1.613c0,0.525-0.196,0.937-0.587,1.233c-0.392,0.299-0.894,0.447-1.507,0.447
		c-0.604,0-1.118-0.146-1.54-0.44C388.922,110.154,388.667,109.75,388.578,109.234z"/>
	<path fill="#222222" d="M398.965,104.847v5.921h-0.653v-0.946c-0.195,0.302-0.458,0.556-0.786,0.76
		c-0.329,0.204-0.693,0.307-1.094,0.307c-0.658,0-1.165-0.193-1.521-0.58s-0.533-0.9-0.533-1.54v-3.921h0.653v3.827
		c0,0.48,0.127,0.867,0.38,1.16c0.254,0.294,0.634,0.44,1.141,0.44c0.391,0,0.744-0.12,1.06-0.36s0.549-0.547,0.7-0.92v-4.147
		H398.965z"/>
	<path fill="#222222" d="M401.525,109.888v3.146h-0.667v-8.188h0.667v0.881c0.178-0.275,0.434-0.512,0.767-0.707
		c0.334-0.195,0.691-0.293,1.073-0.293c0.827,0,1.465,0.295,1.914,0.887c0.448,0.591,0.673,1.322,0.673,2.193
		s-0.225,1.603-0.673,2.193c-0.449,0.591-1.087,0.887-1.914,0.887c-0.382,0-0.739-0.098-1.073-0.294
		C401.959,110.398,401.703,110.163,401.525,109.888z M401.525,106.514v2.587c0.409,0.782,1,1.174,1.773,1.174
		c0.613,0,1.098-0.229,1.454-0.687c0.355-0.458,0.533-1.052,0.533-1.78c0-0.729-0.178-1.322-0.533-1.78
		c-0.356-0.458-0.841-0.687-1.454-0.687C402.525,105.341,401.935,105.731,401.525,106.514z"/>
	<path fill="#222222" d="M408.086,109.888v3.146h-0.667v-8.188h0.667v0.881c0.178-0.275,0.434-0.512,0.767-0.707
		c0.334-0.195,0.691-0.293,1.073-0.293c0.827,0,1.465,0.295,1.914,0.887c0.448,0.591,0.673,1.322,0.673,2.193
		s-0.225,1.603-0.673,2.193c-0.449,0.591-1.087,0.887-1.914,0.887c-0.382,0-0.739-0.098-1.073-0.294
		C408.52,110.398,408.264,110.163,408.086,109.888z M408.086,106.514v2.587c0.409,0.782,1,1.174,1.773,1.174
		c0.613,0,1.098-0.229,1.454-0.687c0.355-0.458,0.533-1.052,0.533-1.78c0-0.729-0.178-1.322-0.533-1.78
		c-0.356-0.458-0.841-0.687-1.454-0.687C409.086,105.341,408.495,105.731,408.086,106.514z"/>
	<path fill="#222222" d="M418.081,105.58c0.484,0.569,0.727,1.312,0.727,2.228c0,0.915-0.242,1.658-0.727,2.227
		c-0.485,0.569-1.118,0.854-1.9,0.854s-1.414-0.284-1.894-0.854c-0.48-0.568-0.72-1.312-0.72-2.227c0-0.916,0.239-1.658,0.72-2.228
		c0.479-0.568,1.111-0.853,1.894-0.853S417.596,105.012,418.081,105.58z M417.607,109.614c0.355-0.458,0.533-1.061,0.533-1.807
		c0-0.747-0.178-1.349-0.533-1.807s-0.831-0.688-1.427-0.688c-0.587,0-1.059,0.229-1.414,0.688s-0.533,1.06-0.533,1.807
		c0,0.746,0.178,1.349,0.533,1.807s0.827,0.687,1.414,0.687C416.776,110.301,417.252,110.072,417.607,109.614z"/>
	<path fill="#222222" d="M423.061,104.808v0.653c-0.169-0.071-0.351-0.107-0.547-0.107c-0.355,0-0.671,0.116-0.946,0.347
		c-0.275,0.231-0.484,0.543-0.627,0.934v4.134h-0.667v-5.921h0.667v0.947c0.143-0.312,0.355-0.566,0.641-0.767
		c0.284-0.2,0.604-0.3,0.96-0.3C422.71,104.728,422.883,104.754,423.061,104.808z"/>
	<path fill="#222222" d="M424.555,109.395v-3.974h-1.001v-0.574h1.001v-1.52h0.653v1.52h1.533v0.574h-1.533v3.906
		c0,0.641,0.284,0.96,0.853,0.96c0.285,0,0.556-0.075,0.813-0.227v0.627c-0.249,0.134-0.542,0.2-0.88,0.2
		c-0.444,0-0.796-0.127-1.053-0.38C424.683,110.254,424.555,109.883,424.555,109.395z"/>
</g>
<circle fill="none" stroke="#222222" stroke-linejoin="round" stroke-miterlimit="10" cx="190.015" cy="182.106" r="10.001"/>
<circle fill="none" stroke="#222222" stroke-linejoin="round" stroke-miterlimit="10" cx="170.013" cy="222.109" r="10"/>
<circle fill="none" stroke="#222222" stroke-linejoin="round" stroke-miterlimit="10" cx="210.016" cy="222.109" r="10"/>
<g>
	<path fill="none" stroke="#222222" stroke-linejoin="round" d="M190.015,192.107c0,0-18.584,9.291-19.926,18.919"/>
	<g>
		<polygon fill="#222222" points="166.977,206.927 167.84,206.42 170.331,210.675 174.394,207.88 174.96,208.704 170.012,212.108 		
			"/>
	</g>
</g>
<g>
	<path fill="none" stroke="#222222" stroke-linejoin="round" d="M190.015,192.107c0,0,18.583,9.291,19.925,18.919"/>
	<g>
		<polygon fill="#222222" points="205.067,208.705 205.634,207.88 209.695,210.676 212.188,206.42 213.051,206.927 210.015,212.108 
					"/>
	</g>
</g>
<g>
	<rect x="210.017" y="192.107" fill="none" width="50.004" height="10.001"/>
	<path fill="#222222" d="M210.417,199.241h0.666c0.24,0.72,0.791,1.08,1.653,1.08c0.427,0,0.773-0.094,1.041-0.28
		c0.267-0.187,0.399-0.458,0.399-0.813c0-0.498-0.364-0.849-1.093-1.054l-1.107-0.307c-0.934-0.248-1.4-0.746-1.4-1.493
		c0-0.498,0.191-0.896,0.574-1.193c0.382-0.298,0.857-0.446,1.427-0.446c0.604,0,1.095,0.142,1.473,0.427
		c0.378,0.284,0.62,0.68,0.728,1.187h-0.653c-0.231-0.693-0.747-1.04-1.547-1.04c-0.392,0-0.716,0.091-0.974,0.273
		c-0.258,0.182-0.387,0.438-0.387,0.767c0,0.267,0.082,0.467,0.246,0.6c0.165,0.134,0.438,0.254,0.82,0.36l1.054,0.293
		c0.986,0.258,1.48,0.796,1.48,1.613c0,0.525-0.196,0.937-0.587,1.233c-0.392,0.299-0.894,0.447-1.507,0.447
		c-0.604,0-1.118-0.146-1.54-0.44C210.761,200.161,210.506,199.757,210.417,199.241z"/>
	<path fill="#222222" d="M220.804,194.854v5.921h-0.653v-0.946c-0.195,0.302-0.458,0.556-0.786,0.76
		c-0.329,0.204-0.693,0.307-1.094,0.307c-0.658,0-1.165-0.193-1.521-0.58s-0.533-0.9-0.533-1.54v-3.921h0.653v3.827
		c0,0.48,0.127,0.867,0.38,1.16c0.254,0.294,0.634,0.44,1.141,0.44c0.391,0,0.744-0.12,1.06-0.36s0.549-0.547,0.7-0.92v-4.147
		H220.804z"/>
	<path fill="#222222" d="M223.364,199.895v3.146h-0.667v-8.188h0.667v0.881c0.178-0.275,0.434-0.512,0.767-0.707
		c0.334-0.195,0.691-0.293,1.073-0.293c0.827,0,1.465,0.295,1.914,0.887c0.448,0.591,0.673,1.322,0.673,2.193
		s-0.225,1.603-0.673,2.193c-0.449,0.591-1.087,0.887-1.914,0.887c-0.382,0-0.739-0.098-1.073-0.294
		C223.798,200.405,223.542,200.17,223.364,199.895z M223.364,196.521v2.587c0.409,0.782,1,1.174,1.773,1.174
		c0.613,0,1.098-0.229,1.454-0.687c0.355-0.458,0.533-1.052,0.533-1.78c0-0.729-0.178-1.322-0.533-1.78
		c-0.356-0.458-0.841-0.687-1.454-0.687C224.364,195.348,223.773,195.738,223.364,196.521z"/>
	<path fill="#222222" d="M229.925,199.895v3.146h-0.667v-8.188h0.667v0.881c0.178-0.275,0.434-0.512,0.767-0.707
		c0.334-0.195,0.691-0.293,1.073-0.293c0.827,0,1.465,0.295,1.914,0.887c0.448,0.591,0.673,1.322,0.673,2.193
		s-0.225,1.603-0.673,2.193c-0.449,0.591-1.087,0.887-1.914,0.887c-0.382,0-0.739-0.098-1.073-0.294
		C230.358,200.405,230.103,200.17,229.925,199.895z M229.925,196.521v2.587c0.409,0.782,1,1.174,1.773,1.174
		c0.613,0,1.098-0.229,1.454-0.687c0.355-0.458,0.533-1.052,0.533-1.78c0-0.729-0.178-1.322-0.533-1.78
		c-0.356-0.458-0.841-0.687-1.454-0.687C230.925,195.348,230.334,195.738,229.925,196.521z"/>
	<path fill="#222222" d="M239.92,195.587c0.484,0.569,0.727,1.312,0.727,2.228c0,0.915-0.242,1.658-0.727,2.227
		c-0.485,0.569-1.118,0.854-1.9,0.854s-1.414-0.284-1.894-0.854c-0.48-0.568-0.72-1.312-0.72-2.227c0-0.916,0.239-1.658,0.72-2.228
		c0.479-0.568,1.111-0.853,1.894-0.853S239.435,195.019,239.92,195.587z M239.446,199.621c0.355-0.458,0.533-1.061,0.533-1.807
		c0-0.747-0.178-1.349-0.533-1.807s-0.831-0.688-1.427-0.688c-0.587,0-1.059,0.229-1.414,0.688s-0.533,1.06-0.533,1.807
		c0,0.746,0.178,1.349,0.533,1.807s0.827,0.687,1.414,0.687C238.615,200.308,239.091,200.079,239.446,199.621z"/>
	<path fill="#222222" d="M244.899,194.814v0.653c-0.169-0.071-0.351-0.107-0.547-0.107c-0.355,0-0.671,0.116-0.946,0.347
		c-0.275,0.231-0.484,0.543-0.627,0.934v4.134h-0.667v-5.921h0.667v0.947c0.143-0.312,0.355-0.566,0.641-0.767
		c0.284-0.2,0.604-0.3,0.96-0.3C244.549,194.734,244.722,194.761,244.899,194.814z"/>
	<path fill="#222222" d="M246.394,199.401v-3.974h-1.001v-0.574h1.001v-1.52h0.653v1.52h1.533v0.574h-1.533v3.906
		c0,0.641,0.284,0.96,0.853,0.96c0.285,0,0.556-0.075,0.813-0.227v0.627c-0.249,0.134-0.542,0.2-0.88,0.2
		c-0.444,0-0.796-0.127-1.053-0.38C246.521,200.261,246.394,199.89,246.394,199.401z"/>
</g>
<g>
	<path fill="none" stroke="#222222" stroke-linejoin="round" d="M180.014,222.109c9.679-5.197,9.99-5.853,19.066-0.549"/>
	<g>
		<polygon fill="#222222" points="194.164,223.46 193.938,222.484 198.742,221.378 197.287,216.666 198.244,216.372 200.016,222.11 
					"/>
	</g>
</g>
<g>
	<path fill="none" stroke="#222222" stroke-linejoin="round" d="M200.016,224.609c-9.678,4.929-9.99,5.753-19.062,0.543"/>
	<g>
		<polygon fill="#222222" points="185.854,223.211 186.088,224.184 181.293,225.33 182.787,230.03 181.833,230.332 180.014,224.608 
					"/>
	</g>
</g>
<g>
	<rect x="180.015" y="234.333" fill="none" width="50.003" height="10.001"/>
	<path fill="#222222" d="M180.961,243v-5.921h0.667v0.947c0.195-0.302,0.46-0.556,0.794-0.76c0.333-0.205,0.699-0.307,1.1-0.307
		c0.658,0,1.165,0.193,1.521,0.58s0.533,0.899,0.533,1.54V243h-0.653v-3.827c0-0.479-0.127-0.866-0.38-1.16
		c-0.254-0.293-0.634-0.439-1.141-0.439c-0.391,0-0.746,0.12-1.066,0.359c-0.32,0.24-0.556,0.547-0.707,0.92V243H180.961z"/>
	<path fill="#222222" d="M191.489,237.812c0.484,0.569,0.727,1.312,0.727,2.228c0,0.915-0.242,1.658-0.727,2.227
		c-0.485,0.569-1.118,0.854-1.9,0.854s-1.414-0.284-1.894-0.854c-0.48-0.568-0.72-1.312-0.72-2.227c0-0.916,0.239-1.658,0.72-2.228
		c0.479-0.568,1.111-0.853,1.894-0.853S191.004,237.244,191.489,237.812z M191.016,241.847c0.355-0.458,0.533-1.061,0.533-1.807
		c0-0.747-0.178-1.349-0.533-1.807s-0.831-0.688-1.427-0.688c-0.587,0-1.059,0.229-1.414,0.688s-0.533,1.06-0.533,1.807
		c0,0.746,0.178,1.349,0.533,1.807s0.827,0.687,1.414,0.687C190.185,242.533,190.66,242.305,191.016,241.847z"/>
	<path fill="#222222" d="M193.949,241.627v-3.974h-1.001v-0.574h1.001v-1.52h0.653v1.52h1.533v0.574h-1.533v3.906
		c0,0.641,0.284,0.96,0.853,0.96c0.285,0,0.556-0.075,0.813-0.227v0.627c-0.249,0.134-0.542,0.2-0.88,0.2
		c-0.444,0-0.796-0.127-1.053-0.38C194.077,242.486,193.949,242.115,193.949,241.627z"/>
	<path fill="#222222" d="M200.856,241.627v-3.974h-1.001v-0.574h1.001v-1.52h0.653v1.52h1.533v0.574h-1.533v3.906
		c0,0.641,0.284,0.96,0.853,0.96c0.285,0,0.556-0.075,0.813-0.227v0.627c-0.249,0.134-0.542,0.2-0.88,0.2
		c-0.444,0-0.796-0.127-1.053-0.38C200.984,242.486,200.856,242.115,200.856,241.627z"/>
	<path fill="#222222" d="M208.57,237.812c0.484,0.569,0.727,1.312,0.727,2.228c0,0.915-0.242,1.658-0.727,2.227
		c-0.485,0.569-1.118,0.854-1.9,0.854s-1.414-0.284-1.894-0.854c-0.48-0.568-0.72-1.312-0.72-2.227c0-0.916,0.239-1.658,0.72-2.228
		c0.479-0.568,1.111-0.853,1.894-0.853S208.085,237.244,208.57,237.812z M208.097,241.847c0.355-0.458,0.533-1.061,0.533-1.807
		c0-0.747-0.178-1.349-0.533-1.807s-0.831-0.688-1.427-0.688c-0.587,0-1.059,0.229-1.414,0.688s-0.533,1.06-0.533,1.807
		c0,0.746,0.178,1.349,0.533,1.807s0.827,0.687,1.414,0.687C207.266,242.533,207.741,242.305,208.097,241.847z"/>
	<path fill="#222222" d="M215.283,237.079V243h-0.653v-0.946c-0.195,0.302-0.458,0.556-0.786,0.76
		c-0.329,0.204-0.693,0.307-1.094,0.307c-0.658,0-1.165-0.193-1.521-0.58s-0.533-0.9-0.533-1.54v-3.921h0.653v3.827
		c0,0.48,0.127,0.867,0.38,1.16c0.254,0.294,0.634,0.44,1.141,0.44c0.391,0,0.744-0.12,1.06-0.36s0.549-0.547,0.7-0.92v-4.147
		H215.283z"/>
	<path fill="#222222" d="M217.471,242.267c-0.48-0.568-0.72-1.312-0.72-2.227c0-0.916,0.239-1.658,0.72-2.228
		c0.479-0.568,1.111-0.853,1.894-0.853c0.613,0,1.117,0.166,1.514,0.5c0.395,0.333,0.646,0.779,0.753,1.34h-0.68
		c-0.089-0.392-0.271-0.695-0.547-0.913s-0.622-0.327-1.04-0.327c-0.578,0-1.047,0.227-1.407,0.68
		c-0.359,0.454-0.54,1.054-0.54,1.801c0,0.746,0.181,1.347,0.54,1.8c0.36,0.453,0.829,0.68,1.407,0.68
		c0.418,0,0.765-0.108,1.04-0.326s0.458-0.522,0.547-0.913h0.68c-0.106,0.56-0.358,1.006-0.753,1.34c-0.396,0.333-0.9,0.5-1.514,0.5
		C218.582,243.12,217.95,242.836,217.471,242.267z"/>
	<path fill="#222222" d="M223.07,243v-8.667h0.667v3.693c0.195-0.302,0.46-0.556,0.794-0.76c0.333-0.205,0.699-0.307,1.1-0.307
		c0.658,0,1.165,0.193,1.521,0.58s0.533,0.899,0.533,1.54V243h-0.653v-3.827c0-0.479-0.127-0.866-0.38-1.16
		c-0.254-0.293-0.634-0.439-1.141-0.439c-0.391,0-0.746,0.12-1.066,0.359c-0.32,0.24-0.556,0.547-0.707,0.92V243H223.07z"/>
</g>
<g>
	<path fill="none" stroke="#FF4848" stroke-linejoin="round" d="M330.025,132.103c9.678-5.197,9.989-5.852,19.065-0.549"/>
	<g>
		<polygon fill="#FF4848" points="344.175,133.453 343.948,132.479 348.753,131.371 347.298,126.659 348.254,126.365 
			350.025,132.104 		"/>
	</g>
</g>
<g>
	<path fill="none" stroke="#FF4848" stroke-linejoin="round" d="M350.026,134.603c-9.678,4.929-9.99,5.753-19.062,0.543"/>
	<g>
		<polygon fill="#FF4848" points="335.866,133.204 336.1,134.178 331.305,135.323 332.798,140.023 331.844,140.325 330.025,134.602 
					"/>
	</g>
</g>
<g>
	<rect x="330.025" y="142.104" fill="none" width="92.23" height="10.001"/>
	<path fill="#222222" d="M334.999,145.863c0.178-0.32,0.431-0.589,0.76-0.807s0.689-0.326,1.08-0.326
		c0.578,0,1.022,0.187,1.334,0.56c0.311,0.373,0.467,0.867,0.467,1.48v4h-0.653v-3.907c0-0.471-0.107-0.842-0.32-1.113
		c-0.214-0.271-0.529-0.406-0.947-0.406c-0.355,0-0.675,0.115-0.96,0.347c-0.284,0.231-0.488,0.528-0.613,0.894v4.187h-0.666v-3.907
		c0-0.471-0.107-0.842-0.32-1.113c-0.214-0.271-0.529-0.406-0.947-0.406c-0.355,0-0.676,0.115-0.96,0.347s-0.488,0.528-0.613,0.894
		v4.187h-0.667v-5.921h0.667v0.907c0.16-0.302,0.389-0.549,0.687-0.74c0.298-0.19,0.638-0.286,1.021-0.286
		C334.173,144.73,334.724,145.108,334.999,145.863z"/>
	<path fill="#222222" d="M345,144.85v5.921h-0.653v-0.946c-0.195,0.302-0.458,0.556-0.786,0.76
		c-0.329,0.204-0.693,0.307-1.094,0.307c-0.658,0-1.165-0.193-1.521-0.58s-0.533-0.9-0.533-1.54v-3.921h0.653v3.827
		c0,0.48,0.127,0.867,0.38,1.16c0.254,0.294,0.634,0.44,1.141,0.44c0.391,0,0.744-0.12,1.06-0.36s0.549-0.547,0.7-0.92v-4.147H345z"
		/>
	<path fill="#222222" d="M346.348,149.237h0.666c0.24,0.72,0.791,1.08,1.653,1.08c0.427,0,0.773-0.094,1.041-0.28
		c0.267-0.187,0.399-0.458,0.399-0.813c0-0.498-0.364-0.849-1.093-1.054l-1.107-0.307c-0.934-0.248-1.4-0.746-1.4-1.493
		c0-0.498,0.191-0.896,0.574-1.193c0.382-0.298,0.857-0.446,1.427-0.446c0.604,0,1.095,0.142,1.473,0.427
		c0.378,0.284,0.62,0.68,0.728,1.187h-0.653c-0.231-0.693-0.747-1.04-1.547-1.04c-0.392,0-0.716,0.091-0.974,0.273
		c-0.258,0.182-0.387,0.438-0.387,0.767c0,0.267,0.082,0.467,0.246,0.6c0.165,0.134,0.438,0.254,0.82,0.36l1.054,0.293
		c0.986,0.258,1.48,0.796,1.48,1.613c0,0.525-0.196,0.937-0.587,1.233c-0.392,0.299-0.894,0.447-1.507,0.447
		c-0.604,0-1.118-0.146-1.54-0.44C346.691,150.157,346.437,149.753,346.348,149.237z"/>
	<path fill="#222222" d="M352.481,149.397v-3.974h-1.001v-0.574h1.001v-1.52h0.653v1.52h1.533v0.574h-1.533v3.906
		c0,0.641,0.284,0.96,0.853,0.96c0.285,0,0.556-0.075,0.813-0.227v0.627c-0.249,0.134-0.542,0.2-0.88,0.2
		c-0.444,0-0.796-0.127-1.053-0.38C352.609,150.257,352.481,149.886,352.481,149.397z"/>
	<path fill="#222222" d="M359.121,150.771v-5.921h0.667v0.947c0.195-0.302,0.46-0.556,0.794-0.76c0.333-0.205,0.699-0.307,1.1-0.307
		c0.658,0,1.165,0.193,1.521,0.58s0.533,0.899,0.533,1.54v3.92h-0.653v-3.827c0-0.479-0.127-0.866-0.38-1.16
		c-0.254-0.293-0.634-0.439-1.141-0.439c-0.391,0-0.746,0.12-1.066,0.359c-0.32,0.24-0.556,0.547-0.707,0.92v4.147H359.121z"/>
	<path fill="#222222" d="M369.649,145.583c0.484,0.569,0.727,1.312,0.727,2.228c0,0.915-0.242,1.658-0.727,2.227
		c-0.485,0.569-1.118,0.854-1.9,0.854s-1.414-0.284-1.894-0.854c-0.48-0.568-0.72-1.312-0.72-2.227c0-0.916,0.239-1.658,0.72-2.228
		c0.479-0.568,1.111-0.853,1.894-0.853S369.164,145.015,369.649,145.583z M369.176,149.617c0.355-0.458,0.533-1.061,0.533-1.807
		c0-0.747-0.178-1.349-0.533-1.807s-0.831-0.688-1.427-0.688c-0.587,0-1.059,0.229-1.414,0.688s-0.533,1.06-0.533,1.807
		c0,0.746,0.178,1.349,0.533,1.807s0.827,0.687,1.414,0.687C368.345,150.304,368.82,150.075,369.176,149.617z"/>
	<path fill="#222222" d="M372.109,149.397v-3.974h-1.001v-0.574h1.001v-1.52h0.653v1.52h1.533v0.574h-1.533v3.906
		c0,0.641,0.284,0.96,0.853,0.96c0.285,0,0.556-0.075,0.813-0.227v0.627c-0.249,0.134-0.542,0.2-0.88,0.2
		c-0.444,0-0.796-0.127-1.053-0.38C372.237,150.257,372.109,149.886,372.109,149.397z"/>
	<path fill="#222222" d="M379.017,149.397v-3.974h-1.001v-0.574h1.001v-1.52h0.653v1.52h1.533v0.574h-1.533v3.906
		c0,0.641,0.284,0.96,0.853,0.96c0.285,0,0.556-0.075,0.813-0.227v0.627c-0.249,0.134-0.542,0.2-0.88,0.2
		c-0.444,0-0.796-0.127-1.053-0.38C379.145,150.257,379.017,149.886,379.017,149.397z"/>
	<path fill="#222222" d="M386.73,145.583c0.484,0.569,0.727,1.312,0.727,2.228c0,0.915-0.242,1.658-0.727,2.227
		c-0.485,0.569-1.118,0.854-1.9,0.854s-1.414-0.284-1.894-0.854c-0.48-0.568-0.72-1.312-0.72-2.227c0-0.916,0.239-1.658,0.72-2.228
		c0.479-0.568,1.111-0.853,1.894-0.853S386.245,145.015,386.73,145.583z M386.257,149.617c0.355-0.458,0.533-1.061,0.533-1.807
		c0-0.747-0.178-1.349-0.533-1.807s-0.831-0.688-1.427-0.688c-0.587,0-1.059,0.229-1.414,0.688s-0.533,1.06-0.533,1.807
		c0,0.746,0.178,1.349,0.533,1.807s0.827,0.687,1.414,0.687C385.426,150.304,385.901,150.075,386.257,149.617z"/>
	<path fill="#222222" d="M393.443,144.85v5.921h-0.653v-0.946c-0.195,0.302-0.458,0.556-0.786,0.76
		c-0.329,0.204-0.693,0.307-1.094,0.307c-0.658,0-1.165-0.193-1.521-0.58s-0.533-0.9-0.533-1.54v-3.921h0.653v3.827
		c0,0.48,0.127,0.867,0.38,1.16c0.254,0.294,0.634,0.44,1.141,0.44c0.391,0,0.744-0.12,1.06-0.36s0.549-0.547,0.7-0.92v-4.147
		H393.443z"/>
	<path fill="#222222" d="M395.631,150.037c-0.48-0.568-0.72-1.312-0.72-2.227c0-0.916,0.239-1.658,0.72-2.228
		c0.479-0.568,1.111-0.853,1.894-0.853c0.613,0,1.117,0.166,1.514,0.5c0.395,0.333,0.646,0.779,0.753,1.34h-0.68
		c-0.089-0.392-0.271-0.695-0.547-0.913s-0.622-0.327-1.04-0.327c-0.578,0-1.047,0.227-1.407,0.68
		c-0.359,0.454-0.54,1.054-0.54,1.801c0,0.746,0.181,1.347,0.54,1.8c0.36,0.453,0.829,0.68,1.407,0.68
		c0.418,0,0.765-0.108,1.04-0.326s0.458-0.522,0.547-0.913h0.68c-0.106,0.56-0.358,1.006-0.753,1.34c-0.396,0.333-0.9,0.5-1.514,0.5
		C396.742,150.891,396.11,150.606,395.631,150.037z"/>
	<path fill="#222222" d="M401.23,150.771v-8.667h0.667v3.693c0.195-0.302,0.46-0.556,0.794-0.76c0.333-0.205,0.699-0.307,1.1-0.307
		c0.658,0,1.165,0.193,1.521,0.58s0.533,0.899,0.533,1.54v3.92h-0.653v-3.827c0-0.479-0.127-0.866-0.38-1.16
		c-0.254-0.293-0.634-0.439-1.141-0.439c-0.391,0-0.746,0.12-1.066,0.359c-0.32,0.24-0.556,0.547-0.707,0.92v4.147H401.23z"/>
</g>
<line fill="none" stroke="#FF4848" stroke-linejoin="round" stroke-miterlimit="10" x1="346.322" y1="122.102" x2="337.804" y2="132.103"/>
<line fill="none" stroke="#FF4848" stroke-linejoin="round" stroke-miterlimit="10" x1="342.804" y1="134.603" x2="337.804" y2="141.362"/>
<rect x="40.003" y="172.105" fill="#FFFFFF" stroke="#222222" stroke-linejoin="round" stroke-miterlimit="10" width="20.002" height="60.005"/>
<rect x="30.003" y="152.104" fill="#43ABF9" stroke="#222222" stroke-linejoin="round" stroke-miterlimit="10" width="80.006" height="20.001"/>
<rect x="80.006" y="172.105" fill="#FFFFFF" stroke="#222222" stroke-linejoin="round" stroke-miterlimit="10" width="20.002" height="60.005"/>
<g>
	<path fill="none" stroke="#FF4848" stroke-linejoin="round" d="M180.014,70.666c9.679-5.198,9.99-5.853,19.066-0.549"/>
	<g>
		<polygon fill="#FF4848" points="194.164,72.017 193.938,71.041 198.742,69.935 197.287,65.223 198.244,64.929 200.016,70.667 		
			"/>
	</g>
</g>
<g>
	<path fill="none" stroke="#FF4848" stroke-linejoin="round" d="M200.016,73.166c-9.678,4.929-9.99,5.753-19.062,0.543"/>
	<g>
		<polygon fill="#FF4848" points="185.854,71.768 186.088,72.74 181.293,73.887 182.787,78.587 181.833,78.889 180.014,73.165 		"/>
	</g>
</g>
<line fill="none" stroke="#FF4848" stroke-linejoin="round" stroke-miterlimit="10" x1="196.311" y1="60.665" x2="187.792" y2="70.666"/>
<line fill="none" stroke="#FF4848" stroke-linejoin="round" stroke-miterlimit="10" x1="192.793" y1="73.166" x2="187.792" y2="79.926"/>
<g>
	<path fill="none" stroke="#FF4848" stroke-linejoin="round" d="M196.311,24.33c0,0,9.815-10.528,22.625-12.124"/>
	<g>
		<polygon fill="#FF4848" points="216.313,16.822 215.525,16.205 218.566,12.325 214.474,9.574 215.032,8.744 220.017,12.095 		"/>
	</g>
</g>
<g>
	<rect x="177.236" y="7.094" fill="none" width="50.004" height="10.001"/>
	<path fill="#222222" d="M178.477,15.027c-0.48-0.568-0.72-1.312-0.72-2.227c0-0.916,0.239-1.658,0.72-2.228
		c0.479-0.568,1.111-0.853,1.894-0.853c0.613,0,1.117,0.166,1.514,0.5c0.395,0.333,0.646,0.779,0.753,1.34h-0.68
		c-0.089-0.392-0.271-0.695-0.547-0.913s-0.622-0.327-1.04-0.327c-0.578,0-1.047,0.227-1.407,0.68
		c-0.359,0.454-0.54,1.054-0.54,1.801c0,0.746,0.181,1.347,0.54,1.8c0.36,0.453,0.829,0.68,1.407,0.68
		c0.418,0,0.765-0.108,1.04-0.326s0.458-0.522,0.547-0.913h0.68c-0.106,0.56-0.358,1.006-0.753,1.34c-0.396,0.333-0.9,0.5-1.514,0.5
		C179.588,15.881,178.956,15.597,178.477,15.027z"/>
	<path fill="#222222" d="M188.11,10.573c0.484,0.569,0.727,1.312,0.727,2.228c0,0.915-0.242,1.658-0.727,2.227
		c-0.485,0.569-1.118,0.854-1.9,0.854s-1.414-0.284-1.894-0.854c-0.48-0.568-0.72-1.312-0.72-2.227c0-0.916,0.239-1.658,0.72-2.228
		c0.479-0.568,1.111-0.853,1.894-0.853S187.625,10.005,188.11,10.573z M187.637,14.607c0.355-0.458,0.533-1.061,0.533-1.807
		c0-0.747-0.178-1.349-0.533-1.807s-0.831-0.688-1.427-0.688c-0.587,0-1.059,0.229-1.414,0.688s-0.533,1.06-0.533,1.807
		c0,0.746,0.178,1.349,0.533,1.807s0.827,0.687,1.414,0.687C186.806,15.294,187.281,15.065,187.637,14.607z"/>
	<path fill="#222222" d="M190.97,7.093v8.667h-0.667V7.093H190.97z"/>
	<path fill="#222222" d="M196.95,10.573c0.484,0.569,0.727,1.312,0.727,2.228c0,0.915-0.242,1.658-0.727,2.227
		c-0.485,0.569-1.118,0.854-1.9,0.854s-1.414-0.284-1.894-0.854c-0.48-0.568-0.72-1.312-0.72-2.227c0-0.916,0.239-1.658,0.72-2.228
		c0.479-0.568,1.111-0.853,1.894-0.853S196.465,10.005,196.95,10.573z M196.477,14.607c0.355-0.458,0.533-1.061,0.533-1.807
		c0-0.747-0.178-1.349-0.533-1.807s-0.831-0.688-1.427-0.688c-0.587,0-1.059,0.229-1.414,0.688s-0.533,1.06-0.533,1.807
		c0,0.746,0.178,1.349,0.533,1.807s0.827,0.687,1.414,0.687C195.646,15.294,196.121,15.065,196.477,14.607z"/>
	<path fill="#222222" d="M201.93,9.801v0.653c-0.169-0.071-0.351-0.107-0.547-0.107c-0.355,0-0.671,0.116-0.946,0.347
		c-0.275,0.231-0.484,0.543-0.627,0.934v4.134h-0.667V9.84h0.667v0.947c0.143-0.312,0.355-0.566,0.641-0.767
		c0.284-0.2,0.604-0.3,0.96-0.3C201.579,9.721,201.752,9.747,201.93,9.801z"/>
</g>
<g>
	<rect x="171.31" y="87.1" fill="none" width="50.003" height="10.001"/>
	<path fill="#222222" d="M172.256,95.767v-5.921h0.667v0.947c0.195-0.302,0.46-0.556,0.794-0.76c0.333-0.205,0.699-0.307,1.1-0.307
		c0.658,0,1.165,0.193,1.521,0.58s0.533,0.899,0.533,1.54v3.92h-0.653v-3.827c0-0.479-0.127-0.866-0.38-1.16
		c-0.254-0.293-0.634-0.439-1.141-0.439c-0.391,0-0.746,0.12-1.066,0.359c-0.32,0.24-0.556,0.547-0.707,0.92v4.147H172.256z"/>
	<path fill="#222222" d="M182.784,90.579c0.484,0.569,0.727,1.312,0.727,2.228c0,0.915-0.242,1.658-0.727,2.227
		c-0.485,0.569-1.118,0.854-1.9,0.854s-1.414-0.284-1.894-0.854c-0.48-0.568-0.72-1.312-0.72-2.227c0-0.916,0.239-1.658,0.72-2.228
		c0.479-0.568,1.111-0.853,1.894-0.853S182.299,90.011,182.784,90.579z M182.311,94.613c0.355-0.458,0.533-1.061,0.533-1.807
		c0-0.747-0.178-1.349-0.533-1.807s-0.831-0.688-1.427-0.688c-0.587,0-1.059,0.229-1.414,0.688s-0.533,1.06-0.533,1.807
		c0,0.746,0.178,1.349,0.533,1.807s0.827,0.687,1.414,0.687C181.479,95.3,181.955,95.071,182.311,94.613z"/>
	<path fill="#222222" d="M185.244,94.394V90.42h-1.001v-0.574h1.001v-1.52h0.653v1.52h1.533v0.574h-1.533v3.906
		c0,0.641,0.284,0.96,0.853,0.96c0.285,0,0.556-0.075,0.813-0.227v0.627c-0.249,0.134-0.542,0.2-0.88,0.2
		c-0.444,0-0.796-0.127-1.053-0.38C185.372,95.253,185.244,94.882,185.244,94.394z"/>
	<path fill="#222222" d="M192.151,94.394V90.42h-1.001v-0.574h1.001v-1.52h0.653v1.52h1.533v0.574h-1.533v3.906
		c0,0.641,0.284,0.96,0.853,0.96c0.285,0,0.556-0.075,0.813-0.227v0.627c-0.249,0.134-0.542,0.2-0.88,0.2
		c-0.444,0-0.796-0.127-1.053-0.38C192.279,95.253,192.151,94.882,192.151,94.394z"/>
	<path fill="#222222" d="M199.865,90.579c0.484,0.569,0.727,1.312,0.727,2.228c0,0.915-0.242,1.658-0.727,2.227
		c-0.485,0.569-1.118,0.854-1.9,0.854s-1.414-0.284-1.894-0.854c-0.48-0.568-0.72-1.312-0.72-2.227c0-0.916,0.239-1.658,0.72-2.228
		c0.479-0.568,1.111-0.853,1.894-0.853S199.38,90.011,199.865,90.579z M199.392,94.613c0.355-0.458,0.533-1.061,0.533-1.807
		c0-0.747-0.178-1.349-0.533-1.807s-0.831-0.688-1.427-0.688c-0.587,0-1.059,0.229-1.414,0.688s-0.533,1.06-0.533,1.807
		c0,0.746,0.178,1.349,0.533,1.807s0.827,0.687,1.414,0.687C198.561,95.3,199.036,95.071,199.392,94.613z"/>
	<path fill="#222222" d="M206.578,89.846v5.921h-0.653V94.82c-0.195,0.302-0.458,0.556-0.786,0.76
		c-0.329,0.204-0.693,0.307-1.094,0.307c-0.658,0-1.165-0.193-1.521-0.58s-0.533-0.9-0.533-1.54v-3.921h0.653v3.827
		c0,0.48,0.127,0.867,0.38,1.16c0.254,0.294,0.634,0.44,1.141,0.44c0.391,0,0.744-0.12,1.06-0.36s0.549-0.547,0.7-0.92v-4.147
		H206.578z"/>
	<path fill="#222222" d="M208.766,95.033c-0.48-0.568-0.72-1.312-0.72-2.227c0-0.916,0.239-1.658,0.72-2.228
		c0.479-0.568,1.111-0.853,1.894-0.853c0.613,0,1.117,0.166,1.514,0.5c0.395,0.333,0.646,0.779,0.753,1.34h-0.68
		c-0.089-0.392-0.271-0.695-0.547-0.913s-0.622-0.327-1.04-0.327c-0.578,0-1.047,0.227-1.407,0.68
		c-0.359,0.454-0.54,1.054-0.54,1.801c0,0.746,0.181,1.347,0.54,1.8c0.36,0.453,0.829,0.68,1.407,0.68
		c0.418,0,0.765-0.108,1.04-0.326s0.458-0.522,0.547-0.913h0.68c-0.106,0.56-0.358,1.006-0.753,1.34c-0.396,0.333-0.9,0.5-1.514,0.5
		C209.877,95.887,209.245,95.603,208.766,95.033z"/>
	<path fill="#222222" d="M214.365,95.767V87.1h0.667v3.693c0.195-0.302,0.46-0.556,0.794-0.76c0.333-0.205,0.699-0.307,1.1-0.307
		c0.658,0,1.165,0.193,1.521,0.58s0.533,0.899,0.533,1.54v3.92h-0.653v-3.827c0-0.479-0.127-0.866-0.38-1.16
		c-0.254-0.293-0.634-0.439-1.141-0.439c-0.391,0-0.746,0.12-1.066,0.359c-0.32,0.24-0.556,0.547-0.707,0.92v4.147H214.365z"/>
</g>
<g>
	<rect x="223.906" y="5.982" fill="none" width="50.004" height="29.446"/>
	<path fill="#222222" d="M228.214,8.729l1.414,4.881l1.453-4.881h0.64l-1.786,5.921h-0.573l-1.427-4.894l-1.427,4.894h-0.574
		l-1.786-5.921h0.653l1.453,4.881l1.414-4.881H228.214z"/>
	<path fill="#222222" d="M232.907,14.649V5.982h0.667v3.694c0.195-0.302,0.46-0.556,0.794-0.76c0.333-0.205,0.699-0.308,1.1-0.308
		c0.658,0,1.165,0.194,1.521,0.581s0.533,0.899,0.533,1.54v3.92h-0.653v-3.827c0-0.479-0.127-0.866-0.38-1.16
		c-0.254-0.293-0.634-0.439-1.141-0.439c-0.391,0-0.746,0.12-1.066,0.359c-0.32,0.24-0.556,0.547-0.707,0.92v4.147H232.907z"/>
	<path fill="#222222" d="M240.002,6.609c0.088,0.089,0.133,0.196,0.133,0.32c0,0.125-0.045,0.231-0.133,0.32
		c-0.09,0.089-0.196,0.133-0.32,0.133c-0.125,0-0.231-0.044-0.32-0.133s-0.133-0.196-0.133-0.32c0-0.124,0.044-0.231,0.133-0.32
		s0.195-0.133,0.32-0.133C239.806,6.476,239.912,6.52,240.002,6.609z M240.015,8.729v5.921h-0.667V8.729H240.015z"/>
	<path fill="#222222" d="M242.175,13.276V9.303h-1.001V8.729h1.001v-1.52h0.653v1.52h1.533v0.574h-1.533v3.906
		c0,0.641,0.284,0.96,0.853,0.96c0.285,0,0.556-0.075,0.813-0.227v0.627c-0.249,0.134-0.542,0.2-0.88,0.2
		c-0.444,0-0.796-0.127-1.053-0.38C242.303,14.136,242.175,13.765,242.175,13.276z"/>
	<path fill="#222222" d="M249.655,12.93h0.64c-0.115,0.56-0.376,1.006-0.78,1.34c-0.404,0.333-0.909,0.5-1.514,0.5
		c-0.782,0-1.415-0.284-1.899-0.854c-0.485-0.568-0.727-1.312-0.727-2.227c0-0.898,0.237-1.636,0.713-2.214s1.108-0.867,1.9-0.867
		c0.765,0,1.355,0.266,1.773,0.794c0.418,0.529,0.627,1.229,0.627,2.101v0.239h-4.36c0.009,0.747,0.195,1.341,0.56,1.78
		c0.364,0.44,0.836,0.66,1.413,0.66c0.418,0,0.776-0.111,1.074-0.333C249.372,13.627,249.565,13.32,249.655,12.93z M247.988,9.195
		c-0.533,0-0.972,0.183-1.313,0.547c-0.343,0.365-0.549,0.858-0.62,1.48h3.667c-0.019-0.569-0.174-1.049-0.467-1.44
		C248.962,9.392,248.539,9.195,247.988,9.195z"/>
	<path fill="#222222" d="M251.015,15.996l0.72-1.333c-0.267-0.054-0.399-0.214-0.399-0.48c0-0.142,0.046-0.262,0.14-0.36
		c0.094-0.098,0.211-0.146,0.354-0.146c0.15,0,0.273,0.049,0.366,0.146c0.094,0.099,0.141,0.228,0.141,0.387
		c0,0.16-0.067,0.356-0.2,0.587l-0.641,1.2H251.015z"/>
	<path fill="#222222" d="M227.641,19.802v0.653c-0.169-0.071-0.351-0.107-0.547-0.107c-0.355,0-0.671,0.116-0.946,0.347
		c-0.275,0.231-0.484,0.543-0.627,0.934v4.134h-0.667v-5.921h0.667v0.947c0.143-0.312,0.355-0.566,0.641-0.767
		c0.284-0.2,0.604-0.3,0.96-0.3C227.29,19.722,227.463,19.748,227.641,19.802z"/>
	<path fill="#222222" d="M232.575,24.042h0.64c-0.115,0.56-0.376,1.006-0.78,1.34c-0.404,0.333-0.909,0.5-1.514,0.5
		c-0.782,0-1.415-0.284-1.899-0.854c-0.485-0.568-0.727-1.312-0.727-2.227c0-0.898,0.237-1.636,0.713-2.214s1.108-0.866,1.9-0.866
		c0.765,0,1.355,0.265,1.773,0.793c0.418,0.529,0.627,1.229,0.627,2.101v0.239h-4.36c0.009,0.747,0.195,1.341,0.56,1.78
		c0.364,0.44,0.836,0.66,1.413,0.66c0.418,0,0.776-0.111,1.074-0.333C232.292,24.739,232.485,24.433,232.575,24.042z
		 M230.908,20.308c-0.533,0-0.972,0.183-1.313,0.547c-0.343,0.365-0.549,0.858-0.62,1.48h3.667c-0.019-0.569-0.174-1.049-0.467-1.44
		C231.882,20.504,231.459,20.308,230.908,20.308z"/>
	<path fill="#222222" d="M238.775,25.762v-0.88c-0.178,0.275-0.434,0.511-0.767,0.706c-0.334,0.196-0.691,0.294-1.074,0.294
		c-0.835,0-1.476-0.296-1.92-0.887s-0.666-1.322-0.666-2.193s0.222-1.603,0.666-2.193c0.444-0.592,1.085-0.887,1.92-0.887
		c0.383,0,0.74,0.098,1.074,0.293c0.333,0.195,0.589,0.432,0.767,0.707v-3.627h0.653v8.667H238.775z M238.775,24.095v-2.587
		c-0.196-0.373-0.451-0.662-0.767-0.866c-0.316-0.205-0.656-0.307-1.021-0.307c-0.604,0-1.085,0.229-1.44,0.687
		s-0.533,1.051-0.533,1.78c0,0.729,0.178,1.322,0.533,1.78s0.836,0.687,1.44,0.687c0.364,0,0.704-0.103,1.021-0.307
		C238.324,24.757,238.579,24.469,238.775,24.095z"/>
</g>
<line fill="none" stroke="#222222" stroke-linejoin="round" stroke-miterlimit="10" x1="194.276" y1="214.517" x2="190.015" y2="222.109"/>
<line fill="none" stroke="#222222" stroke-linejoin="round" stroke-miterlimit="10" x1="190.015" y1="225.814" x2="185.942" y2="232.11"/>
<g>
	<path fill="none" stroke="#222222" stroke-linejoin="round" d="M196.311,173.501c0,0,9.815-10.528,22.625-12.124"/>
	<g>
		<polygon fill="#222222" points="216.313,165.993 215.525,165.376 218.566,161.495 214.474,158.745 215.032,157.915 
			220.017,161.266 		"/>
	</g>
</g>
<g>
	<rect x="177.236" y="156.265" fill="none" width="50.004" height="10.001"/>
	<path fill="#222222" d="M178.477,164.198c-0.48-0.568-0.72-1.312-0.72-2.227c0-0.916,0.239-1.658,0.72-2.228
		c0.479-0.568,1.111-0.853,1.894-0.853c0.613,0,1.117,0.166,1.514,0.5c0.395,0.333,0.646,0.779,0.753,1.34h-0.68
		c-0.089-0.392-0.271-0.695-0.547-0.913s-0.622-0.327-1.04-0.327c-0.578,0-1.047,0.227-1.407,0.68
		c-0.359,0.454-0.54,1.054-0.54,1.801c0,0.746,0.181,1.347,0.54,1.8c0.36,0.453,0.829,0.68,1.407,0.68
		c0.418,0,0.765-0.108,1.04-0.326s0.458-0.522,0.547-0.913h0.68c-0.106,0.56-0.358,1.006-0.753,1.34c-0.396,0.333-0.9,0.5-1.514,0.5
		C179.588,165.052,178.956,164.768,178.477,164.198z"/>
	<path fill="#222222" d="M188.11,159.744c0.484,0.569,0.727,1.312,0.727,2.228c0,0.915-0.242,1.658-0.727,2.227
		c-0.485,0.569-1.118,0.854-1.9,0.854s-1.414-0.284-1.894-0.854c-0.48-0.568-0.72-1.312-0.72-2.227c0-0.916,0.239-1.658,0.72-2.228
		c0.479-0.568,1.111-0.853,1.894-0.853S187.625,159.176,188.11,159.744z M187.637,163.778c0.355-0.458,0.533-1.061,0.533-1.807
		c0-0.747-0.178-1.349-0.533-1.807s-0.831-0.688-1.427-0.688c-0.587,0-1.059,0.229-1.414,0.688s-0.533,1.06-0.533,1.807
		c0,0.746,0.178,1.349,0.533,1.807s0.827,0.687,1.414,0.687C186.806,164.465,187.281,164.236,187.637,163.778z"/>
	<path fill="#222222" d="M190.97,156.265v8.667h-0.667v-8.667H190.97z"/>
	<path fill="#222222" d="M196.95,159.744c0.484,0.569,0.727,1.312,0.727,2.228c0,0.915-0.242,1.658-0.727,2.227
		c-0.485,0.569-1.118,0.854-1.9,0.854s-1.414-0.284-1.894-0.854c-0.48-0.568-0.72-1.312-0.72-2.227c0-0.916,0.239-1.658,0.72-2.228
		c0.479-0.568,1.111-0.853,1.894-0.853S196.465,159.176,196.95,159.744z M196.477,163.778c0.355-0.458,0.533-1.061,0.533-1.807
		c0-0.747-0.178-1.349-0.533-1.807s-0.831-0.688-1.427-0.688c-0.587,0-1.059,0.229-1.414,0.688s-0.533,1.06-0.533,1.807
		c0,0.746,0.178,1.349,0.533,1.807s0.827,0.687,1.414,0.687C195.646,164.465,196.121,164.236,196.477,163.778z"/>
	<path fill="#222222" d="M201.93,158.972v0.653c-0.169-0.071-0.351-0.107-0.547-0.107c-0.355,0-0.671,0.116-0.946,0.347
		c-0.275,0.231-0.484,0.543-0.627,0.934v4.134h-0.667v-5.921h0.667v0.947c0.143-0.312,0.355-0.566,0.641-0.767
		c0.284-0.2,0.604-0.3,0.96-0.3C201.579,158.892,201.752,158.918,201.93,158.972z"/>
</g>
<g>
	<rect x="223.906" y="155.153" fill="none" width="50.004" height="10.001"/>
	<path fill="#222222" d="M225.521,162.941v0.88h-0.653v-8.667h0.653v3.627c0.178-0.275,0.434-0.512,0.767-0.707
		c0.334-0.195,0.691-0.293,1.073-0.293c0.836,0,1.476,0.295,1.921,0.887c0.444,0.591,0.666,1.322,0.666,2.193
		s-0.222,1.603-0.666,2.193c-0.445,0.591-1.085,0.887-1.921,0.887c-0.382,0-0.739-0.098-1.073-0.294
		C225.954,163.452,225.698,163.217,225.521,162.941z M225.521,159.567v2.587c0.195,0.374,0.451,0.662,0.767,0.867
		c0.315,0.204,0.655,0.307,1.021,0.307c0.604,0,1.084-0.229,1.44-0.687c0.355-0.458,0.533-1.052,0.533-1.78
		c0-0.729-0.178-1.322-0.533-1.78c-0.356-0.458-0.836-0.687-1.44-0.687c-0.365,0-0.705,0.102-1.021,0.307
		C225.972,158.905,225.716,159.194,225.521,159.567z"/>
	<path fill="#222222" d="M232.081,155.154v8.667h-0.667v-8.667H232.081z"/>
	<path fill="#222222" d="M238.494,157.9v5.921h-0.653v-0.946c-0.195,0.302-0.458,0.556-0.786,0.76
		c-0.329,0.204-0.693,0.307-1.094,0.307c-0.658,0-1.165-0.193-1.521-0.58s-0.533-0.9-0.533-1.54V157.9h0.653v3.827
		c0,0.48,0.127,0.867,0.38,1.16c0.254,0.294,0.634,0.44,1.141,0.44c0.391,0,0.744-0.12,1.06-0.36s0.549-0.547,0.7-0.92V157.9
		H238.494z"/>
	<path fill="#222222" d="M244.242,162.102h0.64c-0.115,0.56-0.376,1.006-0.78,1.34c-0.404,0.333-0.909,0.5-1.514,0.5
		c-0.782,0-1.415-0.284-1.899-0.854c-0.485-0.568-0.727-1.312-0.727-2.227c0-0.898,0.237-1.636,0.713-2.214s1.108-0.866,1.9-0.866
		c0.765,0,1.355,0.265,1.773,0.793c0.418,0.529,0.627,1.229,0.627,2.101v0.239h-4.36c0.009,0.747,0.195,1.341,0.56,1.78
		c0.364,0.44,0.836,0.66,1.413,0.66c0.418,0,0.776-0.111,1.074-0.333C243.959,162.799,244.152,162.492,244.242,162.102z
		 M242.575,158.367c-0.533,0-0.972,0.183-1.313,0.547c-0.343,0.365-0.549,0.858-0.62,1.48h3.667
		c-0.019-0.569-0.174-1.049-0.467-1.44C243.549,158.563,243.126,158.367,242.575,158.367z"/>
</g>
<g>
	<path fill="none" stroke="#FF4848" stroke-linejoin="round" d="M346.877,84.386c0,0,9.815-10.528,22.626-12.124"/>
	<g>
		<polygon fill="#FF4848" points="366.881,76.878 366.093,76.261 369.134,72.38 365.041,69.63 365.6,68.8 370.584,72.15 		"/>
	</g>
</g>
<g>
	<rect x="327.803" y="67.149" fill="none" width="50.004" height="10"/>
	<path fill="#222222" d="M329.044,75.083c-0.48-0.568-0.72-1.312-0.72-2.227c0-0.916,0.239-1.658,0.72-2.228
		c0.479-0.568,1.111-0.853,1.894-0.853c0.613,0,1.117,0.166,1.514,0.5c0.395,0.333,0.646,0.779,0.753,1.34h-0.68
		c-0.089-0.392-0.271-0.695-0.547-0.913s-0.622-0.327-1.04-0.327c-0.578,0-1.047,0.227-1.407,0.68
		c-0.359,0.454-0.54,1.054-0.54,1.801c0,0.746,0.181,1.347,0.54,1.8c0.36,0.453,0.829,0.68,1.407,0.68
		c0.418,0,0.765-0.108,1.04-0.326s0.458-0.522,0.547-0.913h0.68c-0.106,0.56-0.358,1.006-0.753,1.34c-0.396,0.333-0.9,0.5-1.514,0.5
		C330.155,75.937,329.523,75.652,329.044,75.083z"/>
	<path fill="#222222" d="M338.678,70.629c0.484,0.569,0.727,1.312,0.727,2.228c0,0.915-0.242,1.658-0.727,2.227
		c-0.485,0.569-1.118,0.854-1.9,0.854s-1.414-0.284-1.894-0.854c-0.48-0.568-0.72-1.312-0.72-2.227c0-0.916,0.239-1.658,0.72-2.228
		c0.479-0.568,1.111-0.853,1.894-0.853S338.192,70.061,338.678,70.629z M338.204,74.663c0.355-0.458,0.533-1.061,0.533-1.807
		c0-0.747-0.178-1.349-0.533-1.807s-0.831-0.688-1.427-0.688c-0.587,0-1.059,0.229-1.414,0.688s-0.533,1.06-0.533,1.807
		c0,0.746,0.178,1.349,0.533,1.807s0.827,0.687,1.414,0.687C337.373,75.35,337.849,75.121,338.204,74.663z"/>
	<path fill="#222222" d="M341.537,67.149v8.667h-0.667v-8.667H341.537z"/>
	<path fill="#222222" d="M347.518,70.629c0.484,0.569,0.727,1.312,0.727,2.228c0,0.915-0.242,1.658-0.727,2.227
		c-0.485,0.569-1.118,0.854-1.9,0.854s-1.414-0.284-1.894-0.854c-0.48-0.568-0.72-1.312-0.72-2.227c0-0.916,0.239-1.658,0.72-2.228
		c0.479-0.568,1.111-0.853,1.894-0.853S347.032,70.061,347.518,70.629z M347.044,74.663c0.355-0.458,0.533-1.061,0.533-1.807
		c0-0.747-0.178-1.349-0.533-1.807s-0.831-0.688-1.427-0.688c-0.587,0-1.059,0.229-1.414,0.688s-0.533,1.06-0.533,1.807
		c0,0.746,0.178,1.349,0.533,1.807s0.827,0.687,1.414,0.687C346.213,75.35,346.688,75.121,347.044,74.663z"/>
	<path fill="#222222" d="M352.497,69.856v0.653c-0.169-0.071-0.351-0.107-0.547-0.107c-0.355,0-0.671,0.116-0.946,0.347
		c-0.275,0.231-0.484,0.543-0.627,0.934v4.134h-0.667v-5.921h0.667v0.947c0.143-0.312,0.355-0.566,0.641-0.767
		c0.284-0.2,0.604-0.3,0.96-0.3C352.146,69.776,352.319,69.803,352.497,69.856z"/>
</g>
<g>
	<rect x="374.474" y="66.038" fill="none" width="92.229" height="21.062"/>
	<path fill="#222222" d="M380.261,71.795l3.018-1.275l0.436,1.368l-3.235,0.716l2.178,2.583l-1.183,0.809l-1.711-2.8l-1.711,2.831
		l-1.151-0.871l2.146-2.552l-3.235-0.716l0.467-1.337l3.018,1.244l-0.249-3.298h1.432L380.261,71.795z"/>
</g>
<g>
	<rect x="306.875" y="25.429" fill="none" width="80.006" height="20.001"/>
	<path fill="#AFC6F9" d="M307.302,31.215c0-1.396,0.406-2.614,1.22-3.654s1.918-1.751,3.313-2.133l-0.187,1.08
		c-0.969,0.275-1.767,0.842-2.394,1.7c-0.626,0.857-0.939,1.859-0.939,3.007c0,0.765,0.178,1.399,0.533,1.906
		s0.845,0.85,1.467,1.027l-0.2,1.066c-0.88-0.275-1.569-0.758-2.066-1.447C307.551,33.079,307.302,32.228,307.302,31.215z"/>
	<path fill="#AFC6F9" d="M315.436,32.321h1.014c-0.178,0.569-0.5,1.026-0.967,1.373s-1.021,0.521-1.66,0.521
		c-0.756,0-1.352-0.235-1.787-0.707c-0.436-0.471-0.653-1.102-0.653-1.894c0-0.934,0.284-1.76,0.854-2.479
		c0.569-0.721,1.324-1.08,2.267-1.08c0.712,0,1.256,0.211,1.634,0.633c0.378,0.423,0.566,0.998,0.566,1.727
		c0,0.231-0.035,0.534-0.106,0.907h-4.2c-0.009,0.071-0.014,0.169-0.014,0.293c0,0.552,0.129,0.98,0.387,1.287
		s0.627,0.46,1.107,0.46c0.355,0,0.673-0.091,0.953-0.273C315.109,32.906,315.312,32.65,315.436,32.321z M314.462,28.907
		c-0.479,0-0.884,0.153-1.213,0.461c-0.329,0.307-0.569,0.704-0.72,1.193h3.187c0.009-0.062,0.014-0.147,0.014-0.254
		c0-0.399-0.109-0.733-0.327-1S314.871,28.907,314.462,28.907z"/>
	<path fill="#AFC6F9" d="M323.276,28.174l-2.681,2.907l1.601,3.014h-1.04l-1.228-2.32l-2.093,2.32h-1.147l2.827-3.067l-1.507-2.854
		h1.054l1.12,2.16l1.946-2.16H323.276z"/>
	<path fill="#AFC6F9" d="M328.344,30.161l-0.68,3.934h-0.974l0.066-0.44c-0.382,0.365-0.897,0.547-1.547,0.547
		c-0.568,0-1.042-0.155-1.42-0.467c-0.378-0.311-0.566-0.72-0.566-1.227c0-0.604,0.248-1.098,0.746-1.48
		c0.498-0.382,1.089-0.573,1.773-0.573c0.667,0,1.16,0.169,1.48,0.507l0.146-0.773c0.018-0.142,0.027-0.248,0.027-0.319
		c0-0.285-0.09-0.514-0.268-0.688c-0.178-0.173-0.439-0.26-0.786-0.26c-0.632,0-1.098,0.271-1.4,0.813h-0.986
		c0.187-0.507,0.504-0.913,0.953-1.22s0.962-0.46,1.54-0.46c0.604,0,1.078,0.155,1.42,0.466c0.343,0.312,0.514,0.729,0.514,1.254
		C328.384,29.881,328.37,30.01,328.344,30.161z M326.931,32.628l0.12-0.613c-0.054-0.214-0.203-0.389-0.447-0.526
		s-0.531-0.207-0.86-0.207c-0.408,0-0.771,0.103-1.086,0.307c-0.316,0.204-0.474,0.493-0.474,0.867c0,0.275,0.122,0.495,0.366,0.659
		c0.245,0.165,0.536,0.247,0.874,0.247c0.328,0,0.633-0.066,0.913-0.2C326.617,33.028,326.814,32.851,326.931,32.628z"/>
	<path fill="#AFC6F9" d="M334.438,29.001c0.533-0.631,1.16-0.946,1.88-0.946c0.533,0,0.94,0.153,1.22,0.46
		c0.28,0.307,0.42,0.704,0.42,1.193c0,0.169-0.013,0.333-0.04,0.493l-0.68,3.894h-1.014l0.641-3.667
		c0.035-0.187,0.053-0.351,0.053-0.493c0-0.641-0.298-0.96-0.893-0.96c-0.623,0-1.13,0.369-1.521,1.106l-0.693,4.014h-1.014
		l0.641-3.667c0.035-0.284,0.053-0.449,0.053-0.493c0-0.641-0.298-0.96-0.894-0.96c-0.319,0-0.611,0.104-0.873,0.313
		c-0.263,0.209-0.478,0.473-0.646,0.793l-0.707,4.014h-1l1.04-5.921h1l-0.133,0.761c0.471-0.587,1.044-0.88,1.72-0.88
		c0.364,0,0.674,0.089,0.927,0.267S334.349,28.726,334.438,29.001z"/>
	<path fill="#AFC6F9" d="M340.064,33.388l-0.534,2.974h-1l1.44-8.188h1l-0.133,0.733c0.488-0.568,1.08-0.853,1.773-0.853
		c0.711,0,1.253,0.233,1.626,0.699c0.374,0.467,0.561,1.078,0.561,1.834c0,0.996-0.296,1.849-0.887,2.561
		c-0.592,0.711-1.34,1.066-2.247,1.066c-0.382,0-0.713-0.08-0.993-0.24S340.188,33.619,340.064,33.388z M340.65,30.001l-0.413,2.334
		c0.223,0.648,0.688,0.973,1.4,0.973c0.667,0,1.191-0.264,1.573-0.793s0.573-1.171,0.573-1.927c0-0.489-0.12-0.882-0.36-1.181
		c-0.239-0.297-0.582-0.446-1.026-0.446C341.722,28.961,341.14,29.308,340.65,30.001z"/>
	<path fill="#AFC6F9" d="M348.172,25.428l-1.521,8.667h-1l1.521-8.667H348.172z"/>
	<path fill="#AFC6F9" d="M352.559,32.321h1.014c-0.178,0.569-0.5,1.026-0.967,1.373s-1.021,0.521-1.66,0.521
		c-0.756,0-1.352-0.235-1.787-0.707c-0.436-0.471-0.653-1.102-0.653-1.894c0-0.934,0.284-1.76,0.854-2.479
		c0.569-0.721,1.324-1.08,2.267-1.08c0.712,0,1.256,0.211,1.634,0.633c0.378,0.423,0.566,0.998,0.566,1.727
		c0,0.231-0.035,0.534-0.106,0.907h-4.2c-0.009,0.071-0.014,0.169-0.014,0.293c0,0.552,0.129,0.98,0.387,1.287
		s0.627,0.46,1.107,0.46c0.355,0,0.673-0.091,0.953-0.273C352.232,32.906,352.435,32.65,352.559,32.321z M351.585,28.907
		c-0.479,0-0.884,0.153-1.213,0.461c-0.329,0.307-0.569,0.704-0.72,1.193h3.187c0.009-0.062,0.014-0.147,0.014-0.254
		c0-0.399-0.109-0.733-0.327-1S351.994,28.907,351.585,28.907z"/>
	<path fill="#AFC6F9" d="M358.465,29.428c0,1.396-0.406,2.613-1.22,3.653s-1.918,1.751-3.313,2.134l0.187-1.08
		c0.969-0.275,1.767-0.842,2.394-1.7c0.627-0.857,0.939-1.86,0.939-3.007c0-0.765-0.178-1.4-0.533-1.907
		c-0.355-0.506-0.845-0.849-1.467-1.026l0.2-1.066c0.88,0.275,1.569,0.758,2.067,1.446
		C358.216,27.563,358.465,28.414,358.465,29.428z"/>
</g>
<g>
	<rect x="305.023" y="5.983" fill="none" width="145.566" height="29.445"/>
	<path fill="#386DF9" d="M306.428,17.539V6.623h3.325c1.588,0,2.868,0.495,3.84,1.485c0.972,0.989,1.458,2.314,1.458,3.974
		s-0.486,2.984-1.458,3.974s-2.252,1.484-3.84,1.484H306.428z M307.335,16.703h2.418c1.339,0,2.402-0.42,3.191-1.262
		c0.788-0.842,1.182-1.962,1.182-3.36s-0.394-2.519-1.182-3.36c-0.789-0.841-1.853-1.262-3.191-1.262h-2.418V16.703z"/>
	<path fill="#386DF9" d="M320.705,9.592v0.871c-0.226-0.095-0.469-0.143-0.729-0.143c-0.474,0-0.895,0.154-1.262,0.463
		c-0.368,0.309-0.646,0.723-0.836,1.244v5.512h-0.889V9.646h0.889v1.262c0.189-0.414,0.474-0.756,0.854-1.022
		c0.379-0.267,0.806-0.399,1.28-0.399C320.236,9.485,320.468,9.521,320.705,9.592z"/>
	<path fill="#386DF9" d="M327.595,10.623c0.646,0.759,0.969,1.748,0.969,2.969c0,1.222-0.323,2.211-0.969,2.97
		c-0.646,0.759-1.491,1.138-2.534,1.138s-1.884-0.379-2.524-1.138c-0.64-0.759-0.96-1.748-0.96-2.97c0-1.221,0.32-2.21,0.96-2.969
		c0.641-0.759,1.481-1.138,2.524-1.138S326.948,9.864,327.595,10.623z M326.963,16.001c0.475-0.61,0.712-1.413,0.712-2.409
		c0-0.995-0.237-1.798-0.712-2.409c-0.474-0.61-1.108-0.915-1.902-0.915c-0.782,0-1.41,0.305-1.884,0.915
		c-0.475,0.611-0.712,1.414-0.712,2.409c0,0.996,0.237,1.799,0.712,2.409c0.474,0.61,1.102,0.916,1.884,0.916
		C325.854,16.917,326.489,16.611,326.963,16.001z"/>
	<path fill="#386DF9" d="M331.408,16.365v4.196h-0.889V9.646h0.889v1.173c0.237-0.367,0.578-0.682,1.022-0.942
		s0.921-0.391,1.431-0.391c1.103,0,1.953,0.394,2.552,1.182c0.599,0.789,0.897,1.764,0.897,2.925c0,1.162-0.299,2.137-0.897,2.925
		s-1.449,1.183-2.552,1.183c-0.51,0-0.986-0.131-1.431-0.392S331.646,16.733,331.408,16.365z M331.408,11.867v3.449
		c0.545,1.043,1.333,1.564,2.364,1.564c0.818,0,1.464-0.305,1.938-0.915c0.474-0.61,0.711-1.401,0.711-2.374
		c0-0.972-0.237-1.763-0.711-2.373c-0.475-0.61-1.12-0.916-1.938-0.916C332.741,10.303,331.953,10.824,331.408,11.867z"/>
	<path fill="#386DF9" d="M343.337,17.539V6.623h0.907v10.081h5.92v0.836H343.337z"/>
	<path fill="#386DF9" d="M353.009,6.818c0.118,0.119,0.178,0.261,0.178,0.427s-0.06,0.308-0.178,0.427
		c-0.119,0.118-0.261,0.178-0.427,0.178s-0.309-0.06-0.427-0.178c-0.119-0.119-0.178-0.261-0.178-0.427s0.059-0.308,0.178-0.427
		c0.118-0.119,0.261-0.178,0.427-0.178S352.89,6.7,353.009,6.818z M353.026,9.646v7.894h-0.889V9.646H353.026z"/>
	<path fill="#386DF9" d="M355.551,17.539V9.646h0.889v1.262c0.261-0.402,0.613-0.74,1.058-1.013
		c0.444-0.273,0.934-0.409,1.467-0.409c0.877,0,1.553,0.258,2.027,0.773c0.474,0.516,0.711,1.2,0.711,2.053v5.228h-0.871v-5.103
		c0-0.64-0.169-1.155-0.507-1.547s-0.845-0.587-1.521-0.587c-0.521,0-0.995,0.16-1.422,0.48c-0.427,0.319-0.741,0.729-0.942,1.227
		v5.529H355.551z"/>
	<path fill="#386DF9" d="M369.418,17.539l-3.432-3.947l-0.96,0.89v3.058h-0.889V5.982h0.889v7.468l4.178-3.805h1.174l-3.752,3.396
		l3.876,4.498H369.418z"/>
</g>
<g>
</g>
<g>
</g>
<g>
</g>
<g>
</g>
<g>
</g>
<g>
</g>
<g>
</g>
</svg>
