<?xml version="1.0" encoding="iso-8859-1"?>
<!-- Generator: Adobe Illustrator 16.0.0, SVG Export Plug-In . SVG Version: 6.00 Build 0)  -->
<!DOCTYPE svg PUBLIC "-//W3C//DTD SVG 1.1//EN" "http://www.w3.org/Graphics/SVG/1.1/DTD/svg11.dtd">
<svg version="1.1" id="Layer_1" xmlns="http://www.w3.org/2000/svg" xmlns:xlink="http://www.w3.org/1999/xlink" x="0px" y="0px"
	 width="132.688px" height="221.145px" viewBox="0 0 132.688 221.145" style="enable-background:new 0 0 132.688 221.145;"
	 xml:space="preserve">
<g>
	<g>
		<rect style="fill:#2C82FF;" width="22.114" height="22.115"/>
		<circle style="fill:#226FBC;" cx="11.058" cy="11.058" r="5.938"/>
	</g>
	<g>
		<rect x="22.114" style="fill:#2C82FF;" width="22.115" height="22.115"/>
		<circle style="fill:#226FBC;" cx="33.172" cy="11.058" r="5.938"/>
	</g>
	<g>
		<rect x="44.229" style="fill:#2C82FF;" width="22.115" height="22.115"/>
		<circle style="fill:#226FBC;" cx="55.287" cy="11.058" r="5.938"/>
	</g>
	<g>
		<rect x="66.344" style="fill:#2C82FF;" width="22.114" height="22.115"/>
		<circle style="fill:#226FBC;" cx="77.4" cy="11.058" r="5.938"/>
	</g>
	<g>
		<rect y="22.115" style="fill:#2C82FF;" width="22.114" height="22.114"/>
		<circle style="fill:#226FBC;" cx="11.058" cy="33.172" r="5.938"/>
	</g>
	<g>
		<rect x="22.114" y="22.115" style="fill:#2C82FF;" width="22.115" height="22.114"/>
		<circle style="fill:#226FBC;" cx="33.172" cy="33.172" r="5.938"/>
	</g>
	<g>
		<rect x="44.229" y="22.115" style="fill:#2C82FF;" width="22.115" height="22.114"/>
		<circle style="fill:#226FBC;" cx="55.287" cy="33.172" r="5.938"/>
	</g>
	<g>
		<rect x="66.344" y="22.115" style="fill:#2C82FF;" width="22.114" height="22.114"/>
		<circle style="fill:#226FBC;" cx="77.4" cy="33.172" r="5.938"/>
	</g>
	<g>
		<rect y="44.229" style="fill:#2C82FF;" width="22.114" height="22.114"/>
		<circle style="fill:#226FBC;" cx="11.058" cy="55.287" r="5.938"/>
	</g>
	<g>
		<rect x="22.114" y="44.229" style="fill:#2C82FF;" width="22.115" height="22.114"/>
		<circle style="fill:#226FBC;" cx="33.172" cy="55.287" r="5.938"/>
	</g>
	<g>
		<rect x="44.229" y="44.229" style="fill:#2C82FF;" width="22.115" height="22.114"/>
		<circle style="fill:#226FBC;" cx="55.287" cy="55.287" r="5.938"/>
	</g>
	<g>
		<rect x="66.344" y="44.229" style="fill:#2C82FF;" width="22.114" height="22.114"/>
		<circle style="fill:#226FBC;" cx="77.4" cy="55.287" r="5.938"/>
	</g>
	<g>
		<rect y="66.343" style="fill:#2C82FF;" width="22.114" height="22.114"/>
		<circle style="fill:#226FBC;" cx="11.058" cy="77.401" r="5.938"/>
	</g>
	<g>
		<rect x="22.114" y="66.343" style="fill:#2C82FF;" width="22.115" height="22.114"/>
		<circle style="fill:#226FBC;" cx="33.172" cy="77.401" r="5.938"/>
	</g>
	<g>
		<rect x="44.229" y="66.343" style="fill:#2C82FF;" width="22.115" height="22.114"/>
		<circle style="fill:#226FBC;" cx="55.287" cy="77.401" r="5.938"/>
	</g>
	<g>
		<rect x="66.344" y="66.343" style="fill:#2C82FF;" width="22.114" height="22.114"/>
		<circle style="fill:#226FBC;" cx="77.4" cy="77.401" r="5.938"/>
	</g>
	<g>
		<rect y="88.458" style="fill:#2C82FF;" width="22.114" height="22.115"/>
		<circle style="fill:#226FBC;" cx="11.058" cy="99.515" r="5.938"/>
	</g>
	<g>
		<rect x="22.114" y="88.458" style="fill:#2C82FF;" width="22.115" height="22.115"/>
		<circle style="fill:#226FBC;" cx="33.172" cy="99.515" r="5.938"/>
	</g>
	<g>
		<rect x="44.229" y="88.458" style="fill:#2C82FF;" width="22.115" height="22.115"/>
		<circle style="fill:#226FBC;" cx="55.287" cy="99.515" r="5.938"/>
	</g>
	<g>
		<rect x="66.344" y="88.458" style="fill:#2C82FF;" width="22.114" height="22.115"/>
		<circle style="fill:#226FBC;" cx="77.4" cy="99.515" r="5.938"/>
	</g>
	<g>
		<rect y="110.573" style="fill:#2C82FF;" width="22.114" height="22.115"/>
		<circle style="fill:#226FBC;" cx="11.058" cy="121.63" r="5.938"/>
	</g>
	<g>
		<rect x="22.114" y="110.573" style="fill:#2C82FF;" width="22.115" height="22.115"/>
		<circle style="fill:#226FBC;" cx="33.172" cy="121.63" r="5.938"/>
	</g>
	<g>
		<rect x="44.229" y="110.573" style="fill:#2C82FF;" width="22.115" height="22.115"/>
		<circle style="fill:#226FBC;" cx="55.287" cy="121.63" r="5.938"/>
	</g>
	<g>
		<rect x="66.344" y="110.573" style="fill:#2C82FF;" width="22.114" height="22.115"/>
		<circle style="fill:#226FBC;" cx="77.4" cy="121.63" r="5.938"/>
	</g>
	<g>
		<rect y="132.688" style="fill:#2C82FF;" width="22.114" height="22.115"/>
		<circle style="fill:#226FBC;" cx="11.058" cy="143.744" r="5.938"/>
	</g>
	<g>
		<rect x="22.114" y="132.688" style="fill:#2C82FF;" width="22.115" height="22.115"/>
		<circle style="fill:#226FBC;" cx="33.172" cy="143.744" r="5.938"/>
	</g>
	<g>
		<rect x="44.229" y="132.688" style="fill:#2C82FF;" width="22.115" height="22.115"/>
		<circle style="fill:#226FBC;" cx="55.287" cy="143.744" r="5.938"/>
	</g>
	<g>
		<rect x="66.344" y="132.688" style="fill:#2C82FF;" width="22.114" height="22.115"/>
		<circle style="fill:#226FBC;" cx="77.4" cy="143.744" r="5.938"/>
	</g>
	<g>
		<rect y="154.803" style="fill:#2C82FF;" width="22.114" height="22.113"/>
		<circle style="fill:#226FBC;" cx="11.058" cy="165.859" r="5.938"/>
	</g>
	<g>
		<rect x="22.114" y="154.803" style="fill:#2C82FF;" width="22.115" height="22.113"/>
		<circle style="fill:#226FBC;" cx="33.172" cy="165.859" r="5.938"/>
	</g>
	<g>
		<rect x="44.229" y="154.803" style="fill:#2C82FF;" width="22.115" height="22.113"/>
		<circle style="fill:#226FBC;" cx="55.287" cy="165.859" r="5.938"/>
	</g>
	<g>
		<rect x="66.344" y="154.803" style="fill:#2C82FF;" width="22.114" height="22.113"/>
		<circle style="fill:#226FBC;" cx="77.4" cy="165.859" r="5.938"/>
	</g>
	<g>
		<rect y="176.916" style="fill:#2C82FF;" width="22.114" height="22.115"/>
		<circle style="fill:#226FBC;" cx="11.058" cy="187.975" r="5.938"/>
	</g>
	<g>
		<rect x="22.114" y="176.916" style="fill:#2C82FF;" width="22.115" height="22.115"/>
		<circle style="fill:#226FBC;" cx="33.172" cy="187.975" r="5.938"/>
	</g>
	<g>
		<rect x="44.229" y="176.916" style="fill:#2C82FF;" width="22.115" height="22.115"/>
		<circle style="fill:#226FBC;" cx="55.287" cy="187.975" r="5.938"/>
	</g>
	<g>
		<rect x="66.344" y="176.916" style="fill:#2C82FF;" width="22.114" height="22.115"/>
		<circle style="fill:#226FBC;" cx="77.4" cy="187.975" r="5.938"/>
	</g>
	<g>
		<rect y="199.031" style="fill:#2C82FF;" width="22.114" height="22.113"/>
		<circle style="fill:#226FBC;" cx="11.058" cy="210.089" r="5.938"/>
	</g>
	<g>
		<rect x="22.114" y="199.031" style="fill:#2C82FF;" width="22.115" height="22.113"/>
		<circle style="fill:#226FBC;" cx="33.172" cy="210.089" r="5.938"/>
	</g>
	<g>
		<rect x="44.229" y="199.031" style="fill:#2C82FF;" width="22.115" height="22.113"/>
		<circle style="fill:#226FBC;" cx="55.287" cy="210.089" r="5.938"/>
	</g>
	<g>
		<rect x="66.344" y="199.031" style="fill:#2C82FF;" width="22.114" height="22.113"/>
		<circle style="fill:#226FBC;" cx="77.4" cy="210.089" r="5.938"/>
	</g>
</g>
<g>
	<g>
		<rect x="88.458" style="fill:#FF2E2E;" width="22.115" height="22.115"/>
		<circle style="fill:#D31818;" cx="99.517" cy="11.058" r="5.937"/>
	</g>
	<g>
		<rect x="110.573" style="fill:#FF2E2E;" width="22.115" height="22.115"/>
		<circle style="fill:#D31818;" cx="121.631" cy="11.058" r="5.936"/>
	</g>
	<g>
		<rect x="88.458" y="22.115" style="fill:#FF2E2E;" width="22.115" height="22.114"/>
		<circle style="fill:#D31818;" cx="99.517" cy="33.172" r="5.937"/>
	</g>
	<g>
		<rect x="110.573" y="22.115" style="fill:#FF2E2E;" width="22.115" height="22.114"/>
		<circle style="fill:#D31818;" cx="121.631" cy="33.172" r="5.936"/>
	</g>
	<g>
		<rect x="88.458" y="44.229" style="fill:#FF2E2E;" width="22.115" height="22.114"/>
		<circle style="fill:#D31818;" cx="99.517" cy="55.287" r="5.937"/>
	</g>
	<g>
		<rect x="110.573" y="44.229" style="fill:#FF2E2E;" width="22.115" height="22.114"/>
		<circle style="fill:#D31818;" cx="121.631" cy="55.287" r="5.936"/>
	</g>
	<g>
		<rect x="88.458" y="66.343" style="fill:#FF2E2E;" width="22.115" height="22.114"/>
		<circle style="fill:#D31818;" cx="99.517" cy="77.401" r="5.937"/>
	</g>
	<g>
		<rect x="110.573" y="66.343" style="fill:#FF2E2E;" width="22.115" height="22.114"/>
		<circle style="fill:#D31818;" cx="121.631" cy="77.401" r="5.936"/>
	</g>
	<g>
		<rect x="88.458" y="88.458" style="fill:#FF2E2E;" width="22.115" height="22.115"/>
		<circle style="fill:#D31818;" cx="99.517" cy="99.515" r="5.937"/>
	</g>
	<g>
		<rect x="110.573" y="88.458" style="fill:#FF2E2E;" width="22.115" height="22.115"/>
		<circle style="fill:#D31818;" cx="121.631" cy="99.515" r="5.936"/>
	</g>
	<g>
		<rect x="88.458" y="110.573" style="fill:#FF2E2E;" width="22.115" height="22.115"/>
		<circle style="fill:#D31818;" cx="99.517" cy="121.63" r="5.937"/>
	</g>
	<g>
		<rect x="110.573" y="110.573" style="fill:#FF2E2E;" width="22.115" height="22.115"/>
		<circle style="fill:#D31818;" cx="121.631" cy="121.63" r="5.936"/>
	</g>
	<g>
		<rect x="88.458" y="132.688" style="fill:#FF2E2E;" width="22.115" height="22.115"/>
		<circle style="fill:#D31818;" cx="99.517" cy="143.744" r="5.937"/>
	</g>
	<g>
		<rect x="110.573" y="132.688" style="fill:#FF2E2E;" width="22.115" height="22.115"/>
		<circle style="fill:#D31818;" cx="121.631" cy="143.744" r="5.936"/>
	</g>
	<g>
		<rect x="88.458" y="154.803" style="fill:#FF2E2E;" width="22.115" height="22.113"/>
		<circle style="fill:#D31818;" cx="99.517" cy="165.859" r="5.937"/>
	</g>
	<g>
		<rect x="110.573" y="154.803" style="fill:#FF2E2E;" width="22.115" height="22.113"/>
		<circle style="fill:#D31818;" cx="121.631" cy="165.859" r="5.936"/>
	</g>
	<g>
		<rect x="88.458" y="176.916" style="fill:#FF2E2E;" width="22.115" height="22.115"/>
		<circle style="fill:#D31818;" cx="99.517" cy="187.975" r="5.937"/>
	</g>
	<g>
		<rect x="110.573" y="176.916" style="fill:#FF2E2E;" width="22.115" height="22.115"/>
		<circle style="fill:#D31818;" cx="121.631" cy="187.975" r="5.936"/>
	</g>
	<g>
		<rect x="88.458" y="199.031" style="fill:#FF2E2E;" width="22.115" height="22.113"/>
		<circle style="fill:#D31818;" cx="99.517" cy="210.089" r="5.937"/>
	</g>
	<g>
		<rect x="110.573" y="199.031" style="fill:#FF2E2E;" width="22.115" height="22.113"/>
		<circle style="fill:#D31818;" cx="121.631" cy="210.089" r="5.936"/>
	</g>
</g>
<g>
	<g>
		<rect x="66.344" y="176.916" style="fill:#FFF931;" width="22.114" height="22.115"/>
		<circle style="fill:#E2CF17;" cx="77.401" cy="187.975" r="5.937"/>
	</g>
	<g>
		<rect x="66.344" y="154.803" style="fill:#FFF931;" width="22.114" height="22.113"/>
		<circle style="fill:#E2CF17;" cx="77.401" cy="165.859" r="5.937"/>
	</g>
	<g>
		<rect x="88.458" y="154.803" style="fill:#FFF931;" width="22.115" height="22.113"/>
		<circle style="fill:#E2CF17;" cx="99.517" cy="165.859" r="5.937"/>
	</g>
	<g>
		<rect x="88.458" y="176.916" style="fill:#FFF931;" width="22.115" height="22.115"/>
		<circle style="fill:#E2CF17;" cx="99.517" cy="187.975" r="5.937"/>
	</g>
	<g>
		<rect x="110.573" y="176.916" style="fill:#FFF931;" width="22.115" height="22.115"/>
		<circle style="fill:#E2CF17;" cx="121.631" cy="187.975" r="5.936"/>
	</g>
	<g>
		<rect x="110.573" y="154.803" style="fill:#FFF931;" width="22.115" height="22.113"/>
		<circle style="fill:#E2CF17;" cx="121.631" cy="165.859" r="5.936"/>
	</g>
</g>
<g>
</g>
<g>
</g>
<g>
</g>
<g>
</g>
<g>
</g>
<g>
</g>
</svg>
