<?xml version="1.0" encoding="utf-8"?>
<!-- Generator: Adobe Illustrator 16.0.0, SVG Export Plug-In . SVG Version: 6.00 Build 0)  -->
<!DOCTYPE svg PUBLIC "-//W3C//DTD SVG 1.1//EN" "http://www.w3.org/Graphics/SVG/1.1/DTD/svg11.dtd">
<svg version="1.1" id="Layer_1" xmlns="http://www.w3.org/2000/svg" xmlns:xlink="http://www.w3.org/1999/xlink" x="0px" y="0px"
	 width="69.48px" height="115.801px" viewBox="0 0 69.48 115.801" enable-background="new 0 0 69.48 115.801" xml:space="preserve">
<g>
	<g>
		<rect fill="#2C82FF" width="11.58" height="11.58"/>
		<circle fill="#226FBC" cx="5.79" cy="5.79" r="3.109"/>
	</g>
	<g>
		<rect x="11.58" fill="#2C82FF" width="11.58" height="11.58"/>
		<circle fill="#226FBC" cx="17.37" cy="5.79" r="3.109"/>
	</g>
	<g>
		<rect x="23.16" fill="#2C82FF" width="11.58" height="11.58"/>
		<circle fill="#226FBC" cx="28.95" cy="5.79" r="3.109"/>
	</g>
	<g>
		<rect x="34.74" fill="#2C82FF" width="11.58" height="11.58"/>
		<circle fill="#226FBC" cx="40.531" cy="5.79" r="3.109"/>
	</g>
	<g>
		<rect y="11.58" fill="#2C82FF" width="11.58" height="11.58"/>
		<circle fill="#226FBC" cx="5.79" cy="17.37" r="3.109"/>
	</g>
	<g>
		<rect x="11.58" y="11.58" fill="#2C82FF" width="11.58" height="11.58"/>
		<circle fill="#226FBC" cx="17.37" cy="17.37" r="3.109"/>
	</g>
	<g>
		<rect x="23.16" y="11.58" fill="#2C82FF" width="11.58" height="11.58"/>
		<circle fill="#226FBC" cx="28.95" cy="17.37" r="3.109"/>
	</g>
	<g>
		<rect x="34.74" y="11.58" fill="#2C82FF" width="11.58" height="11.58"/>
		<circle fill="#226FBC" cx="40.531" cy="17.37" r="3.109"/>
	</g>
	<g>
		<rect y="23.16" fill="#2C82FF" width="11.58" height="11.58"/>
		<circle fill="#226FBC" cx="5.79" cy="28.95" r="3.109"/>
	</g>
	<g>
		<rect x="11.58" y="23.16" fill="#2C82FF" width="11.58" height="11.58"/>
		<circle fill="#226FBC" cx="17.37" cy="28.95" r="3.109"/>
	</g>
	<g>
		<rect x="23.16" y="23.16" fill="#2C82FF" width="11.58" height="11.58"/>
		<circle fill="#226FBC" cx="28.95" cy="28.95" r="3.109"/>
	</g>
	<g>
		<rect x="34.74" y="23.16" fill="#2C82FF" width="11.58" height="11.58"/>
		<circle fill="#226FBC" cx="40.531" cy="28.95" r="3.109"/>
	</g>
	<g>
		<rect y="34.74" fill="#2C82FF" width="11.58" height="11.58"/>
		<circle fill="#226FBC" cx="5.79" cy="40.53" r="3.109"/>
	</g>
	<g>
		<rect x="11.58" y="34.74" fill="#2C82FF" width="11.58" height="11.58"/>
		<circle fill="#226FBC" cx="17.37" cy="40.53" r="3.109"/>
	</g>
	<g>
		<rect x="23.16" y="34.74" fill="#2C82FF" width="11.58" height="11.58"/>
		<circle fill="#226FBC" cx="28.95" cy="40.53" r="3.109"/>
	</g>
	<g>
		<rect x="34.74" y="34.74" fill="#2C82FF" width="11.58" height="11.58"/>
		<circle fill="#226FBC" cx="40.531" cy="40.53" r="3.109"/>
	</g>
	<g>
		<rect y="46.32" fill="#2C82FF" width="11.58" height="11.58"/>
		<circle fill="#226FBC" cx="5.79" cy="52.11" r="3.109"/>
	</g>
	<g>
		<rect x="11.58" y="46.32" fill="#2C82FF" width="11.58" height="11.58"/>
		<circle fill="#226FBC" cx="17.37" cy="52.11" r="3.109"/>
	</g>
	<g>
		<rect x="23.16" y="46.32" fill="#2C82FF" width="11.58" height="11.58"/>
		<circle fill="#226FBC" cx="28.95" cy="52.11" r="3.109"/>
	</g>
	<g>
		<rect x="34.74" y="46.32" fill="#2C82FF" width="11.58" height="11.58"/>
		<circle fill="#226FBC" cx="40.531" cy="52.11" r="3.109"/>
	</g>
	<g>
		<rect y="57.9" fill="#2C82FF" width="11.58" height="11.581"/>
		<circle fill="#226FBC" cx="5.79" cy="63.691" r="3.109"/>
	</g>
	<g>
		<rect x="11.58" y="57.9" fill="#2C82FF" width="11.58" height="11.581"/>
		<circle fill="#226FBC" cx="17.37" cy="63.691" r="3.109"/>
	</g>
	<g>
		<rect x="23.16" y="57.9" fill="#2C82FF" width="11.58" height="11.581"/>
		<circle fill="#226FBC" cx="28.95" cy="63.691" r="3.109"/>
	</g>
	<g>
		<rect x="34.74" y="57.9" fill="#2C82FF" width="11.58" height="11.581"/>
		<circle fill="#226FBC" cx="40.531" cy="63.691" r="3.109"/>
	</g>
	<g>
		<rect y="69.481" fill="#2C82FF" width="11.58" height="11.58"/>
		<circle fill="#226FBC" cx="5.79" cy="75.271" r="3.109"/>
	</g>
	<g>
		<rect x="11.58" y="69.481" fill="#2C82FF" width="11.58" height="11.58"/>
		<circle fill="#226FBC" cx="17.37" cy="75.271" r="3.109"/>
	</g>
	<g>
		<rect x="23.16" y="69.481" fill="#2C82FF" width="11.58" height="11.58"/>
		<circle fill="#226FBC" cx="28.95" cy="75.271" r="3.109"/>
	</g>
	<g>
		<rect x="34.74" y="69.481" fill="#2C82FF" width="11.58" height="11.58"/>
		<circle fill="#226FBC" cx="40.531" cy="75.271" r="3.109"/>
	</g>
	<g>
		<rect y="81.061" fill="#2C82FF" width="11.58" height="11.58"/>
		<circle fill="#226FBC" cx="5.79" cy="86.851" r="3.109"/>
	</g>
	<g>
		<rect x="11.58" y="81.061" fill="#2C82FF" width="11.58" height="11.58"/>
		<circle fill="#226FBC" cx="17.37" cy="86.851" r="3.109"/>
	</g>
	<g>
		<rect x="23.16" y="81.061" fill="#2C82FF" width="11.58" height="11.58"/>
		<circle fill="#226FBC" cx="28.95" cy="86.851" r="3.109"/>
	</g>
	<g>
		<rect x="34.74" y="81.061" fill="#2C82FF" width="11.58" height="11.58"/>
		<circle fill="#226FBC" cx="40.531" cy="86.851" r="3.109"/>
	</g>
	<g>
		<rect y="92.641" fill="#2C82FF" width="11.58" height="11.58"/>
		<circle fill="#226FBC" cx="5.79" cy="98.431" r="3.109"/>
	</g>
	<g>
		<rect x="11.58" y="92.641" fill="#2C82FF" width="11.58" height="11.58"/>
		<circle fill="#226FBC" cx="17.37" cy="98.431" r="3.109"/>
	</g>
	<g>
		<rect x="23.16" y="92.641" fill="#2C82FF" width="11.58" height="11.58"/>
		<circle fill="#226FBC" cx="28.95" cy="98.431" r="3.109"/>
	</g>
	<g>
		<rect x="34.74" y="92.641" fill="#2C82FF" width="11.58" height="11.58"/>
		<circle fill="#226FBC" cx="40.531" cy="98.431" r="3.109"/>
	</g>
	<g>
		<rect y="104.221" fill="#2C82FF" width="11.58" height="11.58"/>
		<circle fill="#226FBC" cx="5.79" cy="110.011" r="3.109"/>
	</g>
	<g>
		<rect x="11.58" y="104.221" fill="#2C82FF" width="11.58" height="11.58"/>
		<circle fill="#226FBC" cx="17.37" cy="110.011" r="3.109"/>
	</g>
	<g>
		<rect x="23.16" y="104.221" fill="#2C82FF" width="11.58" height="11.58"/>
		<circle fill="#226FBC" cx="28.95" cy="110.011" r="3.109"/>
	</g>
	<g>
		<rect x="34.74" y="104.221" fill="#2C82FF" width="11.58" height="11.58"/>
		<circle fill="#226FBC" cx="40.531" cy="110.011" r="3.109"/>
	</g>
</g>
<g>
	<g>
		<rect x="46.32" fill="#FF2E2E" width="11.58" height="11.58"/>
		<circle fill="#D31818" cx="52.11" cy="5.79" r="3.109"/>
	</g>
	<g>
		<rect x="57.9" fill="#FF2E2E" width="11.58" height="11.58"/>
		<circle fill="#D31818" cx="63.69" cy="5.79" r="3.109"/>
	</g>
	<g>
		<rect x="46.32" y="11.58" fill="#FF2E2E" width="11.58" height="11.58"/>
		<circle fill="#D31818" cx="52.11" cy="17.37" r="3.109"/>
	</g>
	<g>
		<rect x="57.9" y="11.58" fill="#FF2E2E" width="11.58" height="11.58"/>
		<circle fill="#D31818" cx="63.69" cy="17.37" r="3.109"/>
	</g>
	<g>
		<rect x="46.32" y="23.16" fill="#FF2E2E" width="11.58" height="11.58"/>
		<circle fill="#D31818" cx="52.11" cy="28.95" r="3.109"/>
	</g>
	<g>
		<rect x="57.9" y="23.16" fill="#FF2E2E" width="11.58" height="11.58"/>
		<circle fill="#D31818" cx="63.69" cy="28.95" r="3.109"/>
	</g>
	<g>
		<rect x="46.32" y="34.74" fill="#FF2E2E" width="11.58" height="11.58"/>
		<circle fill="#D31818" cx="52.11" cy="40.53" r="3.109"/>
	</g>
	<g>
		<rect x="57.9" y="34.74" fill="#FF2E2E" width="11.58" height="11.58"/>
		<circle fill="#D31818" cx="63.69" cy="40.53" r="3.109"/>
	</g>
	<g>
		<rect x="46.32" y="46.32" fill="#FF2E2E" width="11.58" height="11.58"/>
		<circle fill="#D31818" cx="52.11" cy="52.11" r="3.109"/>
	</g>
	<g>
		<rect x="57.9" y="46.32" fill="#FF2E2E" width="11.58" height="11.58"/>
		<circle fill="#D31818" cx="63.69" cy="52.11" r="3.109"/>
	</g>
	<g>
		<rect x="46.32" y="57.9" fill="#FF2E2E" width="11.58" height="11.581"/>
		<circle fill="#D31818" cx="52.11" cy="63.691" r="3.109"/>
	</g>
	<g>
		<rect x="57.9" y="57.9" fill="#FF2E2E" width="11.58" height="11.581"/>
		<circle fill="#D31818" cx="63.69" cy="63.691" r="3.109"/>
	</g>
	<g>
		<rect x="46.32" y="69.481" fill="#FF2E2E" width="11.58" height="11.58"/>
		<circle fill="#D31818" cx="52.11" cy="75.271" r="3.109"/>
	</g>
	<g>
		<rect x="57.9" y="69.481" fill="#FF2E2E" width="11.58" height="11.58"/>
		<circle fill="#D31818" cx="63.69" cy="75.271" r="3.109"/>
	</g>
	<g>
		<rect x="46.32" y="81.061" fill="#FF2E2E" width="11.58" height="11.58"/>
		<circle fill="#D31818" cx="52.11" cy="86.851" r="3.109"/>
	</g>
	<g>
		<rect x="57.9" y="81.061" fill="#FF2E2E" width="11.58" height="11.58"/>
		<circle fill="#D31818" cx="63.69" cy="86.851" r="3.109"/>
	</g>
	<g>
		<rect x="46.32" y="92.641" fill="#FF2E2E" width="11.58" height="11.58"/>
		<circle fill="#D31818" cx="52.11" cy="98.431" r="3.109"/>
	</g>
	<g>
		<rect x="57.9" y="92.641" fill="#FF2E2E" width="11.58" height="11.58"/>
		<circle fill="#D31818" cx="63.69" cy="98.431" r="3.109"/>
	</g>
	<g>
		<rect x="46.32" y="104.221" fill="#FF2E2E" width="11.58" height="11.58"/>
		<circle fill="#D31818" cx="52.11" cy="110.011" r="3.109"/>
	</g>
	<g>
		<rect x="57.9" y="104.221" fill="#FF2E2E" width="11.58" height="11.58"/>
		<circle fill="#D31818" cx="63.69" cy="110.011" r="3.109"/>
	</g>
</g>
<g>
	<g>
		<rect x="34.74" y="92.641" fill="#FFF931" width="11.58" height="11.58"/>
		<circle fill="#E2CF17" cx="40.53" cy="98.431" r="3.109"/>
	</g>
	<g>
		<rect x="34.74" y="81.061" fill="#FFF931" width="11.58" height="11.58"/>
		<circle fill="#E2CF17" cx="40.53" cy="86.851" r="3.109"/>
	</g>
	<g>
		<rect x="46.32" y="81.061" fill="#FFF931" width="11.58" height="11.58"/>
		<circle fill="#E2CF17" cx="52.11" cy="86.851" r="3.109"/>
	</g>
	<g>
		<rect x="46.32" y="92.641" fill="#FFF931" width="11.58" height="11.58"/>
		<circle fill="#E2CF17" cx="52.11" cy="98.431" r="3.109"/>
	</g>
	<g>
		<rect x="57.9" y="92.641" fill="#FFF931" width="11.58" height="11.58"/>
		<circle fill="#E2CF17" cx="63.69" cy="98.431" r="3.109"/>
	</g>
	<g>
		<rect x="57.9" y="81.061" fill="#FFF931" width="11.58" height="11.58"/>
		<circle fill="#E2CF17" cx="63.69" cy="86.851" r="3.109"/>
	</g>
</g>
<g>
</g>
<g>
</g>
<g>
</g>
<g>
</g>
<g>
</g>
<g>
</g>
</svg>
