<svg xmlns="http://www.w3.org/2000/svg" xmlns:xlink="http://www.w3.org/1999/xlink" height="113pt" version="1.1" viewBox="0 0 283 113" width="283pt">
 <defs>
  <clipPath id="p64ef1b2705">
   <rect height="113.385826772" width="283.464566929" x="0.0" y="0.0"/>
  </clipPath>
 </defs>
<defs>
  <style type="text/css">
*{stroke-linecap:butt;stroke-linejoin:round;stroke-miterlimit:100000;}
  </style>
 </defs>
 <g id="figure_1">
  <g id="patch_1">
   <path d="M 0 113.385827  L 283.464567 113.385827  L 283.464567 0  L 0 0  z " style="fill:#ffffff;"/>
  </g>
  <g id="axes_1">
   <g id="patch_2">
    <path clip-path="url(#p64ef1b2705)" d="M 69.247955 44.707056  L 65.826482 45.628222  L 66.616053 43.654295  L 44.137871 34.663023  L 44.137871 34.663023  L 66.616053 43.654295  L 67.405624 41.680368  L 69.247955 44.707056  z " style="fill:none;stroke:#000000;stroke-linejoin:miter;"/>
   </g>
   <g id="patch_3">
    <path clip-path="url(#p64ef1b2705)" d="M 69.247955 57.340188  L 67.405624 60.366876  L 66.616053 58.392949  L 44.137871 67.384222  L 44.137871 67.384222  L 66.616053 58.392949  L 65.826482 56.419022  L 69.247955 57.340188  z " style="fill:none;stroke:#000000;stroke-linejoin:miter;"/>
   </g>
   <g id="patch_4">
    <path clip-path="url(#p64ef1b2705)" d="M 124.724409 51.023622  L 121.889764 53.149606  L 121.889764 51.023622  L 102.047244 51.023622  L 102.047244 51.023622  L 121.889764 51.023622  L 121.889764 48.897638  L 124.724409 51.023622  z " style="fill:none;stroke:#000000;stroke-linejoin:miter;"/>
   </g>
   <g id="patch_5">
    <path clip-path="url(#p64ef1b2705)" d="M 181.417323 51.023622  L 178.582677 53.149606  L 178.582677 51.023622  L 158.740157 51.023622  L 158.740157 51.023622  L 178.582677 51.023622  L 178.582677 48.897638  L 181.417323 51.023622  z " style="fill:none;stroke:#000000;stroke-linejoin:miter;"/>
   </g>
   <g id="patch_6">
    <path clip-path="url(#p64ef1b2705)" d="M 238.110236 51.023622  L 235.275591 53.149606  L 235.275591 51.023622  L 215.433071 51.023622  L 215.433071 51.023622  L 235.275591 51.023622  L 235.275591 48.897638  L 238.110236 51.023622  z " style="fill:none;stroke:#000000;stroke-linejoin:miter;"/>
   </g>
   <g id="patch_7">
    <path clip-path="url(#p64ef1b2705)" d="M 85.03937 68.031496  C 89.549911 68.031496 93.876319 66.239439 97.065753 63.050005  C 100.255187 59.860571 102.047244 55.534163 102.047244 51.023622  C 102.047244 46.513081 100.255187 42.186673 97.065753 38.997239  C 93.876319 35.807805 89.549911 34.015748 85.03937 34.015748  C 80.528829 34.015748 76.202421 35.807805 73.012987 38.997239  C 69.823553 42.186673 68.031496 46.513081 68.031496 51.023622  C 68.031496 55.534163 69.823553 59.860571 73.012987 63.050005  C 76.202421 66.239439 80.528829 68.031496 85.03937 68.031496  L 85.03937 68.031496  z " style="fill:none;stroke:#000000;stroke-linejoin:miter;"/>
   </g>
   <g id="patch_8">
    <path clip-path="url(#p64ef1b2705)" d="M 141.732283 68.031496  C 146.242824 68.031496 150.569232 66.239439 153.758667 63.050005  C 156.948101 59.860571 158.740157 55.534163 158.740157 51.023622  C 158.740157 46.513081 156.948101 42.186673 153.758667 38.997239  C 150.569232 35.807805 146.242824 34.015748 141.732283 34.015748  C 137.221743 34.015748 132.895334 35.807805 129.7059 38.997239  C 126.516466 42.186673 124.724409 46.513081 124.724409 51.023622  C 124.724409 55.534163 126.516466 59.860571 129.7059 63.050005  C 132.895334 66.239439 137.221743 68.031496 141.732283 68.031496  L 141.732283 68.031496  z " style="fill:none;stroke:#000000;stroke-linejoin:miter;"/>
   </g>
   <g id="patch_9">
    <path clip-path="url(#p64ef1b2705)" d="M 28.346457 45.354331  C 32.856998 45.354331 37.183406 43.562274 40.37284 40.37284  C 43.562274 37.183406 45.354331 32.856998 45.354331 28.346457  C 45.354331 23.835916 43.562274 19.509508 40.37284 16.320074  C 37.183406 13.13064 32.856998 11.338583 28.346457 11.338583  C 23.835916 11.338583 19.509508 13.13064 16.320074 16.320074  C 13.13064 19.509508 11.338583 23.835916 11.338583 28.346457  C 11.338583 32.856998 13.13064 37.183406 16.320074 40.37284  C 19.509508 43.562274 23.835916 45.354331 28.346457 45.354331  L 28.346457 45.354331  z " style="fill:none;stroke:#000000;stroke-linejoin:miter;"/>
   </g>
   <g id="patch_10">
    <path clip-path="url(#p64ef1b2705)" d="M 28.346457 90.708661  C 32.856998 90.708661 37.183406 88.916605 40.37284 85.72717  C 43.562274 82.537736 45.354331 78.211328 45.354331 73.700787  C 45.354331 69.190246 43.562274 64.863838 40.37284 61.674404  C 37.183406 58.48497 32.856998 56.692913 28.346457 56.692913  C 23.835916 56.692913 19.509508 58.48497 16.320074 61.674404  C 13.13064 64.863838 11.338583 69.190246 11.338583 73.700787  C 11.338583 78.211328 13.13064 82.537736 16.320074 85.72717  C 19.509508 88.916605 23.835916 90.708661 28.346457 90.708661  L 28.346457 90.708661  z " style="fill:none;stroke:#000000;stroke-linejoin:miter;"/>
   </g>
   <g id="patch_11">
    <path clip-path="url(#p64ef1b2705)" d="M 255.11811 68.031496  C 259.628651 68.031496 263.955059 66.239439 267.144493 63.050005  C 270.333927 59.860571 272.125984 55.534163 272.125984 51.023622  C 272.125984 46.513081 270.333927 42.186673 267.144493 38.997239  C 263.955059 35.807805 259.628651 34.015748 255.11811 34.015748  C 250.607569 34.015748 246.281161 35.807805 243.091727 38.997239  C 239.902293 42.186673 238.110236 46.513081 238.110236 51.023622  C 238.110236 55.534163 239.902293 59.860571 243.091727 63.050005  C 246.281161 66.239439 250.607569 68.031496 255.11811 68.031496  L 255.11811 68.031496  z " style="fill:none;stroke:#000000;stroke-linejoin:miter;"/>
   </g>
   <g id="patch_12">
    <path clip-path="url(#p64ef1b2705)" d="M 198.425197 68.031496  C 202.935738 68.031496 207.262146 66.239439 210.45158 63.050005  C 213.641014 59.860571 215.433071 55.534163 215.433071 51.023622  C 215.433071 46.513081 213.641014 42.186673 210.45158 38.997239  C 207.262146 35.807805 202.935738 34.015748 198.425197 34.015748  C 193.914656 34.015748 189.588248 35.807805 186.398814 38.997239  C 183.20938 42.186673 181.417323 46.513081 181.417323 51.023622  C 181.417323 55.534163 183.20938 59.860571 186.398814 63.050005  C 189.588248 66.239439 193.914656 68.031496 198.425197 68.031496  L 198.425197 68.031496  z " style="fill:none;stroke:#000000;stroke-linejoin:miter;"/>
   </g>
   <g id="matplotlib.axis_1"/>
   <g id="matplotlib.axis_2"/>
   <g id="text_1">
    <!-- Z -->
    <defs>
     <path d="M 5.609375 72.90625  L 62.890625 72.90625  L 62.890625 65.375  L 16.796875 8.296875  L 64.015625 8.296875  L 64.015625 0  L 4.5 0  L 4.5 7.515625  L 50.59375 64.59375  L 5.609375 64.59375  z " id="BitstreamVeraSans-Roman-5a"/>
    </defs>
    <g transform="translate(78.8743700787 55.9904970472)scale(0.18 -0.18)">
     <use xlink:href="#BitstreamVeraSans-Roman-5a"/>
    </g>
   </g>
   <g id="text_2">
    <!-- A -->
    <defs>
     <path d="M 34.1875 63.1875  L 20.796875 26.90625  L 47.609375 26.90625  z M 28.609375 72.90625  L 39.796875 72.90625  L 67.578125 0  L 57.328125 0  L 50.6875 18.703125  L 17.828125 18.703125  L 11.1875 0  L 0.78125 0  z " id="BitstreamVeraSans-Roman-41"/>
    </defs>
    <g transform="translate(135.575720965 55.9904970472)scale(0.18 -0.18)">
     <use xlink:href="#BitstreamVeraSans-Roman-41"/>
    </g>
   </g>
   <g id="text_3">
    <!-- X -->
    <defs>
     <path d="M 6.296875 72.90625  L 16.890625 72.90625  L 35.015625 45.796875  L 53.21875 72.90625  L 63.8125 72.90625  L 40.375 37.890625  L 65.375 0  L 54.78125 0  L 34.28125 31  L 13.625 0  L 2.984375 0  L 29 38.921875  z " id="BitstreamVeraSans-Roman-58"/>
    </defs>
    <g transform="translate(22.1814566929 33.3133316929)scale(0.18 -0.18)">
     <use xlink:href="#BitstreamVeraSans-Roman-58"/>
    </g>
   </g>
   <g id="text_4">
    <!-- Y -->
    <defs>
     <path d="M -0.203125 72.90625  L 10.40625 72.90625  L 30.609375 42.921875  L 50.6875 72.90625  L 61.28125 72.90625  L 35.5 34.71875  L 35.5 0  L 25.59375 0  L 25.59375 34.71875  z " id="BitstreamVeraSans-Roman-59"/>
    </defs>
    <g transform="translate(22.8494254429 78.6676624016)scale(0.18 -0.18)">
     <use xlink:href="#BitstreamVeraSans-Roman-59"/>
    </g>
   </g>
   <g id="text_5">
    <!-- C -->
    <defs>
     <path d="M 64.40625 67.28125  L 64.40625 56.890625  Q 59.421875 61.53125 53.78125 63.8125  Q 48.140625 66.109375 41.796875 66.109375  Q 29.296875 66.109375 22.65625 58.46875  Q 16.015625 50.828125 16.015625 36.375  Q 16.015625 21.96875 22.65625 14.328125  Q 29.296875 6.6875 41.796875 6.6875  Q 48.140625 6.6875 53.78125 8.984375  Q 59.421875 11.28125 64.40625 15.921875  L 64.40625 5.609375  Q 59.234375 2.09375 53.4375 0.328125  Q 47.65625 -1.421875 41.21875 -1.421875  Q 24.65625 -1.421875 15.125 8.703125  Q 5.609375 18.84375 5.609375 36.375  Q 5.609375 53.953125 15.125 64.078125  Q 24.65625 74.21875 41.21875 74.21875  Q 47.75 74.21875 53.53125 72.484375  Q 59.328125 70.75 64.40625 67.28125  " id="BitstreamVeraSans-Roman-43"/>
    </defs>
    <g transform="translate(248.833578986 55.9904970472)scale(0.18 -0.18)">
     <use xlink:href="#BitstreamVeraSans-Roman-43"/>
    </g>
   </g>
   <g id="text_6">
    <!-- B -->
    <defs>
     <path d="M 19.671875 34.8125  L 19.671875 8.109375  L 35.5 8.109375  Q 43.453125 8.109375 47.28125 11.40625  Q 51.125 14.703125 51.125 21.484375  Q 51.125 28.328125 47.28125 31.5625  Q 43.453125 34.8125 35.5 34.8125  z M 19.671875 64.796875  L 19.671875 42.828125  L 34.28125 42.828125  Q 41.5 42.828125 45.03125 45.53125  Q 48.578125 48.25 48.578125 53.8125  Q 48.578125 59.328125 45.03125 62.0625  Q 41.5 64.796875 34.28125 64.796875  z M 9.8125 72.90625  L 35.015625 72.90625  Q 46.296875 72.90625 52.390625 68.21875  Q 58.5 63.53125 58.5 54.890625  Q 58.5 48.1875 55.375 44.234375  Q 52.25 40.28125 46.1875 39.3125  Q 53.46875 37.75 57.5 32.78125  Q 61.53125 27.828125 61.53125 20.40625  Q 61.53125 10.640625 54.890625 5.3125  Q 48.25 0 35.984375 0  L 9.8125 0  z " id="BitstreamVeraSans-Roman-42"/>
    </defs>
    <g transform="translate(192.2503531 55.9904970472)scale(0.18 -0.18)">
     <use xlink:href="#BitstreamVeraSans-Roman-42"/>
    </g>
   </g>
  </g>
 </g>
 </svg>
