<?xml version="1.0" encoding="utf-8"?>
<!-- Generator: Adobe Illustrator 16.0.0, SVG Export Plug-In . SVG Version: 6.00 Build 0)  -->
<!DOCTYPE svg PUBLIC "-//W3C//DTD SVG 1.1 Tiny//EN" "http://www.w3.org/Graphics/SVG/1.1/DTD/svg11-tiny.dtd">
<svg version="1.1" baseProfile="tiny" id="Layer_1" xmlns="http://www.w3.org/2000/svg" xmlns:xlink="http://www.w3.org/1999/xlink"
	 x="0px" y="0px" width="189.846px" height="166.035px" viewBox="0 0 189.846 166.035" xml:space="preserve">
<g>
	<circle fill="#386DF9" stroke="#231F20" stroke-width="0.75" stroke-miterlimit="10" cx="111.369" cy="11.787" r="11.412"/>
	<circle fill="#FFFFFF" stroke="#231F20" stroke-width="0.75" stroke-miterlimit="10" cx="65.722" cy="52.361" r="11.412"/>
	<circle fill="#FFFFFF" stroke="#231F20" stroke-width="0.75" stroke-miterlimit="10" cx="157.015" cy="52.361" r="11.411"/>
	<circle fill="#FFFFFF" stroke="#231F20" stroke-width="0.75" stroke-miterlimit="10" cx="45.436" cy="92.935" r="11.411"/>
	<circle fill="#FFFFFF" stroke="#231F20" stroke-width="0.75" stroke-miterlimit="10" cx="86.01" cy="92.935" r="11.412"/>
	<circle fill="#FFFFFF" stroke="#231F20" stroke-width="0.75" stroke-miterlimit="10" cx="136.728" cy="92.935" r="11.412"/>
	<circle fill="#FFFFFF" stroke="#231F20" stroke-width="0.75" stroke-miterlimit="10" cx="177.302" cy="92.935" r="11.411"/>
	<circle fill="#FFFFFF" stroke="#231F20" stroke-width="0.75" stroke-miterlimit="10" cx="45.436" cy="128.42" r="11.411"/>
	<circle fill="#FF1614" stroke="#231F20" stroke-width="0.75" stroke-miterlimit="10" cx="86.01" cy="128.42" r="11.412"/>
</g>
<g>
	<rect x="105.029" y="6.715" fill="none" width="12.681" height="15.216"/>
	<path fill="#FFFFFF" d="M107.848,14.17h1.217c0.355,1.035,1.146,1.552,2.374,1.552c0.618,0,1.118-0.145,1.499-0.434
		c0.38-0.289,0.57-0.687,0.57-1.194c0-0.375-0.117-0.682-0.35-0.92c-0.234-0.238-0.614-0.424-1.142-0.556l-1.674-0.441
		c-1.491-0.386-2.237-1.187-2.237-2.404c0-0.78,0.289-1.417,0.868-1.909c0.578-0.492,1.313-0.738,2.206-0.738
		c0.943,0,1.704,0.221,2.282,0.662s0.958,1.042,1.142,1.803H113.4c-0.334-0.963-1.074-1.445-2.221-1.445
		c-0.568,0-1.032,0.14-1.393,0.419c-0.359,0.279-0.539,0.651-0.539,1.118c0,0.386,0.121,0.688,0.364,0.905s0.618,0.394,1.126,0.524
		l1.598,0.411c1.553,0.396,2.328,1.232,2.328,2.511c0,0.832-0.303,1.491-0.905,1.978c-0.604,0.487-1.377,0.73-2.32,0.73
		s-1.735-0.226-2.374-0.677S108.02,14.981,107.848,14.17z"/>
</g>
<g>
	<rect x="59.384" y="47.29" fill="none" width="12.678" height="11.408"/>
	<path fill="#231F20" d="M65.161,47.838h1.126l3.652,9.342h-1.217l-1.081-2.814h-3.849l-1.065,2.814h-1.217L65.161,47.838z
		 M65.708,49.328l-1.521,3.987h3.043L65.708,49.328z"/>
</g>
<g>
	<rect x="150.676" y="47.29" fill="none" width="12.68" height="11.408"/>
	<path fill="#231F20" d="M158.826,52.341c0.497,0.133,0.902,0.401,1.217,0.807c0.314,0.406,0.473,0.873,0.473,1.4
		c0,0.842-0.274,1.49-0.822,1.947c-0.547,0.456-1.309,0.685-2.282,0.685h-3.378v-9.342h3.074c0.974,0,1.731,0.213,2.274,0.639
		c0.542,0.426,0.813,1.04,0.813,1.841c0,0.527-0.129,0.967-0.388,1.316S159.223,52.22,158.826,52.341z M155.205,51.9h1.902
		c1.287,0,1.932-0.508,1.932-1.521c0-0.994-0.645-1.491-1.932-1.491h-1.902V51.9z M155.205,52.904v3.226h2.206
		c0.618,0,1.096-0.145,1.431-0.434c0.334-0.289,0.502-0.683,0.502-1.18c0-0.507-0.168-0.902-0.502-1.187
		c-0.335-0.284-0.812-0.426-1.431-0.426H155.205z"/>
</g>
<g>
	<rect x="39.518" y="87.439" fill="none" width="12.681" height="16.061"/>
	<path fill="#231F20" d="M47.669,92.491c0.497,0.133,0.903,0.401,1.217,0.807c0.314,0.406,0.472,0.873,0.472,1.4
		c0,0.842-0.274,1.49-0.821,1.947c-0.548,0.456-1.309,0.685-2.283,0.685h-3.377v-9.342h3.073c0.974,0,1.732,0.213,2.275,0.639
		c0.542,0.426,0.814,1.04,0.814,1.841c0,0.527-0.129,0.967-0.388,1.316C48.392,92.134,48.065,92.37,47.669,92.491z M44.048,92.051
		h1.902c1.288,0,1.933-0.508,1.933-1.521c0-0.994-0.645-1.491-1.933-1.491h-1.902V92.051z M44.048,93.055v3.226h2.206
		c0.619,0,1.096-0.145,1.431-0.434c0.334-0.289,0.502-0.683,0.502-1.18c0-0.507-0.167-0.902-0.502-1.187
		c-0.335-0.284-0.812-0.426-1.431-0.426H44.048z"/>
</g>
<g>
	<rect x="80.093" y="87.439" fill="none" width="12.679" height="16.061"/>
	<path fill="#231F20" d="M82.941,97.33v-9.342h2.997c1.37,0,2.467,0.423,3.294,1.271c0.827,0.847,1.24,1.98,1.24,3.4
		s-0.413,2.554-1.24,3.4c-0.827,0.847-1.925,1.271-3.294,1.271H82.941z M84.143,96.25h1.78c1.055,0,1.879-0.322,2.473-0.967
		c0.593-0.644,0.89-1.519,0.89-2.624s-0.299-1.983-0.898-2.633c-0.599-0.648-1.42-0.974-2.465-0.974h-1.78V96.25z"/>
</g>
<g>
	<rect x="130.812" y="87.439" fill="none" width="12.678" height="16.061"/>
	<path fill="#231F20" d="M136.588,87.988h1.127l3.651,9.342h-1.218l-1.08-2.814h-3.85l-1.064,2.814h-1.218L136.588,87.988z
		 M137.137,89.479l-1.521,3.987h3.043L137.137,89.479z"/>
</g>
<g>
	<rect x="170.962" y="87.439" fill="none" width="12.681" height="16.061"/>
	<path fill="#231F20" d="M174.602,96.136c-0.797-0.888-1.194-2.047-1.194-3.477c0-1.431,0.397-2.589,1.194-3.477
		s1.793-1.332,2.99-1.332c0.963,0,1.762,0.259,2.396,0.776c0.633,0.518,1.047,1.217,1.24,2.1h-1.188
		c-0.426-1.196-1.242-1.795-2.449-1.795c-0.893,0-1.613,0.342-2.161,1.026s-0.821,1.585-0.821,2.701
		c0,1.105,0.273,2.003,0.821,2.693c0.548,0.689,1.269,1.034,2.161,1.034c1.217,0,2.033-0.604,2.449-1.811h1.188
		c-0.193,0.893-0.607,1.598-1.24,2.115c-0.635,0.517-1.434,0.775-2.396,0.775C176.395,97.467,175.398,97.023,174.602,96.136z"/>
</g>
<g>
	<rect x="39.096" y="122.925" fill="none" width="12.679" height="13.103"/>
	<path fill="#231F20" d="M42.735,131.621c-0.796-0.888-1.194-2.047-1.194-3.477c0-1.431,0.398-2.589,1.194-3.477
		s1.793-1.332,2.99-1.332c0.964,0,1.763,0.259,2.396,0.776s1.047,1.217,1.24,2.1h-1.187c-0.426-1.196-1.243-1.795-2.45-1.795
		c-0.893,0-1.613,0.342-2.161,1.026c-0.547,0.685-0.821,1.585-0.821,2.701c0,1.105,0.274,2.003,0.821,2.693
		c0.548,0.689,1.268,1.034,2.161,1.034c1.217,0,2.034-0.604,2.45-1.811h1.187c-0.193,0.893-0.606,1.598-1.24,2.115
		c-0.634,0.517-1.433,0.775-2.396,0.775C44.528,132.952,43.531,132.509,42.735,131.621z"/>
</g>
<g>
	<line fill="none" stroke="#231F20" stroke-width="0.75" stroke-miterlimit="10" x1="111.369" y1="23.198" x2="65.722" y2="40.95"/>
	
		<line fill="none" stroke="#231F20" stroke-width="0.75" stroke-miterlimit="10" x1="111.369" y1="23.198" x2="157.015" y2="40.95"/>
	<line fill="none" stroke="#231F20" stroke-width="0.75" stroke-miterlimit="10" x1="65.722" y1="63.772" x2="45.436" y2="81.522"/>
	<line fill="none" stroke="#231F20" stroke-width="0.75" stroke-miterlimit="10" x1="65.722" y1="63.772" x2="86.01" y2="81.522"/>
	
		<line fill="none" stroke="#231F20" stroke-width="0.75" stroke-miterlimit="10" x1="157.016" y1="63.772" x2="136.729" y2="81.522"/>
	
		<line fill="none" stroke="#231F20" stroke-width="0.75" stroke-miterlimit="10" x1="157.016" y1="63.772" x2="177.302" y2="81.522"/>
	
		<line fill="none" stroke="#231F20" stroke-width="0.75" stroke-miterlimit="10" x1="45.436" y1="104.346" x2="45.436" y2="117.008"/>
	<line fill="none" stroke="#231F20" stroke-width="0.75" stroke-miterlimit="10" x1="86.01" y1="104.346" x2="86.01" y2="117.008"/>
</g>
<g>
	<rect x="79.671" y="122.925" fill="none" width="12.68" height="13.103"/>
	<path fill="#FFFFFF" d="M88.947,129.24h-2.236v-1.035h3.377v0.639c0,1.238-0.357,2.232-1.073,2.982
		c-0.715,0.751-1.646,1.126-2.792,1.126c-1.237,0-2.262-0.441-3.073-1.323c-0.812-0.883-1.217-2.044-1.217-3.484
		c0-1.431,0.406-2.589,1.217-3.477s1.826-1.332,3.043-1.332c0.974,0,1.783,0.259,2.427,0.776s1.062,1.217,1.255,2.1h-1.202
		c-0.436-1.196-1.263-1.795-2.48-1.795c-0.913,0-1.651,0.342-2.214,1.026s-0.844,1.585-0.844,2.701s0.284,2.019,0.852,2.708
		c0.568,0.69,1.313,1.035,2.236,1.035c0.801,0,1.438-0.236,1.91-0.708S88.876,130.062,88.947,129.24z"/>
</g>
<g>
	<rect y="136.027" fill="none" width="27.896" height="30.008"/>
	<path d="M3.253,142.144c-0.49-0.67-0.735-1.468-0.735-2.395c0-0.926,0.245-1.724,0.735-2.394c0.49-0.669,1.151-1.112,1.983-1.329
		v0.508c-0.629,0.155-1.157,0.522-1.583,1.101c-0.426,0.578-0.639,1.283-0.639,2.114c0,0.832,0.213,1.537,0.639,2.115
		c0.426,0.578,0.954,0.945,1.583,1.101v0.508C4.404,143.256,3.743,142.812,3.253,142.144z"/>
	<path d="M9.171,142.62v-0.67c-0.135,0.21-0.33,0.39-0.583,0.538c-0.254,0.148-0.526,0.223-0.817,0.223
		c-0.636,0-1.123-0.225-1.46-0.674c-0.338-0.45-0.507-1.006-0.507-1.669c0-0.662,0.169-1.219,0.507-1.669
		c0.338-0.449,0.825-0.674,1.46-0.674c0.291,0,0.563,0.074,0.817,0.223c0.253,0.149,0.448,0.328,0.583,0.538v-2.76h0.497v6.594
		H9.171z M9.171,141.353v-1.968c-0.149-0.284-0.343-0.504-0.583-0.66c-0.24-0.155-0.499-0.233-0.776-0.233
		c-0.46,0-0.825,0.175-1.095,0.522c-0.271,0.349-0.406,0.8-0.406,1.354s0.135,1.006,0.406,1.354
		c0.271,0.348,0.635,0.522,1.095,0.522c0.277,0,0.536-0.078,0.776-0.233C8.828,141.856,9.022,141.636,9.171,141.353z"/>
	<path d="M14.228,138.674c0.369,0.434,0.553,0.998,0.553,1.694s-0.184,1.262-0.553,1.694s-0.851,0.648-1.445,0.648
		c-0.595,0-1.075-0.216-1.44-0.648s-0.548-0.998-0.548-1.694s0.183-1.261,0.548-1.694c0.365-0.433,0.845-0.648,1.44-0.648
		C13.377,138.025,13.859,138.241,14.228,138.674z M13.868,141.743c0.27-0.349,0.406-0.807,0.406-1.375s-0.136-1.026-0.406-1.374
		c-0.271-0.349-0.632-0.522-1.085-0.522c-0.446,0-0.805,0.174-1.075,0.522c-0.271,0.348-0.406,0.806-0.406,1.374
		s0.135,1.026,0.406,1.375c0.271,0.348,0.629,0.521,1.075,0.521C13.236,142.265,13.598,142.091,13.868,141.743z"/>
	<path d="M15.896,142.62v-4.504h0.507v0.721c0.148-0.23,0.35-0.423,0.604-0.578c0.253-0.156,0.532-0.233,0.837-0.233
		c0.5,0,0.886,0.146,1.156,0.441c0.271,0.294,0.406,0.685,0.406,1.171v2.982h-0.497v-2.911c0-0.365-0.097-0.659-0.289-0.883
		c-0.193-0.223-0.482-0.335-0.867-0.335c-0.298,0-0.568,0.092-0.812,0.274c-0.244,0.183-0.423,0.416-0.538,0.7v3.154H15.896z"/>
	<path d="M23.728,141.312h0.487c-0.088,0.426-0.286,0.766-0.593,1.02c-0.308,0.254-0.692,0.38-1.151,0.38
		c-0.595,0-1.077-0.216-1.446-0.648s-0.553-0.998-0.553-1.694c0-0.683,0.181-1.244,0.543-1.684c0.361-0.439,0.843-0.659,1.445-0.659
		c0.582,0,1.031,0.201,1.349,0.604s0.477,0.935,0.477,1.598v0.183h-3.317c0.007,0.567,0.149,1.02,0.426,1.354
		c0.277,0.335,0.635,0.502,1.075,0.502c0.317,0,0.59-0.084,0.816-0.253S23.66,141.609,23.728,141.312z M22.459,138.472
		c-0.406,0-0.739,0.139-0.999,0.416c-0.261,0.277-0.418,0.652-0.472,1.126h2.79c-0.014-0.434-0.132-0.798-0.355-1.096
		S22.878,138.472,22.459,138.472z"/>
	<path d="M26.856,137.355c0.49,0.67,0.735,1.468,0.735,2.394c0,0.927-0.245,1.725-0.735,2.395c-0.49,0.669-1.151,1.112-1.983,1.329
		v-0.508c0.629-0.155,1.156-0.522,1.583-1.101c0.426-0.578,0.639-1.283,0.639-2.115c0-0.831-0.213-1.536-0.639-2.114
		c-0.426-0.578-0.954-0.945-1.583-1.101v-0.508C25.705,136.243,26.366,136.687,26.856,137.355z"/>
</g>
<g>
	<rect x="9.301" y="46.66" fill="none" width="24.09" height="17.33"/>
	<path fill="#7D25EF" d="M21.416,53.906c-0.537,0.739-1.236,1.109-2.099,1.109s-1.562-0.37-2.098-1.109
		c-0.537-0.74-0.805-1.706-0.805-2.897s0.268-2.157,0.805-2.897c0.537-0.739,1.236-1.109,2.098-1.109s1.562,0.37,2.099,1.109
		c0.537,0.74,0.805,1.706,0.805,2.897S21.952,53.166,21.416,53.906z M19.317,47.902c-0.617,0-1.092,0.283-1.426,0.85
		s-0.501,1.318-0.501,2.257s0.167,1.69,0.501,2.257s0.809,0.85,1.426,0.85c0.609,0,1.082-0.285,1.42-0.855
		c0.338-0.571,0.507-1.321,0.507-2.251s-0.169-1.68-0.507-2.251C20.399,48.188,19.926,47.902,19.317,47.902z"/>
	<path fill="#7D25EF" d="M25.834,47.104v7.798h-0.977v-6.594l-1.927,0.989v-1.015l2.308-1.179H25.834z"/>
</g>
<g>
	<rect x="9.301" y="87.236" fill="none" width="24.09" height="17.328"/>
	<path fill="#7D25EF" d="M20.592,94.482c-0.537,0.739-1.236,1.109-2.099,1.109s-1.562-0.37-2.098-1.109
		c-0.537-0.74-0.805-1.706-0.805-2.897s0.268-2.157,0.805-2.897c0.537-0.739,1.236-1.109,2.098-1.109s1.562,0.37,2.099,1.109
		c0.537,0.74,0.805,1.706,0.805,2.897S21.128,93.742,20.592,94.482z M18.493,88.479c-0.617,0-1.092,0.283-1.426,0.85
		s-0.501,1.318-0.501,2.257s0.167,1.69,0.501,2.257s0.809,0.85,1.426,0.85c0.609,0,1.082-0.285,1.42-0.855
		c0.338-0.571,0.507-1.321,0.507-2.251s-0.169-1.68-0.507-2.251C19.575,88.764,19.102,88.479,18.493,88.479z"/>
	<path fill="#7D25EF" d="M26.139,89.784c0-0.396-0.127-0.716-0.38-0.957s-0.596-0.361-1.027-0.361c-0.457,0-0.814,0.142-1.072,0.425
		s-0.408,0.661-0.45,1.135h-1.027c0.076-0.735,0.342-1.327,0.799-1.775c0.457-0.447,1.04-0.672,1.75-0.672
		c0.735,0,1.314,0.199,1.737,0.596c0.423,0.397,0.634,0.931,0.634,1.598c0,0.119-0.015,0.241-0.044,0.368
		c-0.03,0.127-0.06,0.236-0.089,0.329c-0.03,0.094-0.084,0.21-0.165,0.349c-0.081,0.14-0.142,0.243-0.184,0.312
		c-0.042,0.067-0.127,0.177-0.254,0.329c-0.126,0.152-0.211,0.254-0.253,0.305c-0.042,0.051-0.142,0.163-0.298,0.336
		c-0.157,0.173-0.252,0.281-0.286,0.323l-1.978,2.168h3.715v0.888h-5.084v-0.659l2.511-2.765c0.38-0.422,0.638-0.71,0.773-0.862
		c0.135-0.151,0.281-0.367,0.438-0.646C26.061,90.267,26.139,90.013,26.139,89.784z"/>
</g>
<g>
	<rect x="9.301" y="124.414" fill="none" width="24.09" height="17.33"/>
	<path fill="#7D25EF" d="M20.509,131.66c-0.537,0.739-1.236,1.109-2.099,1.109s-1.562-0.37-2.098-1.109
		c-0.537-0.74-0.805-1.706-0.805-2.897s0.268-2.157,0.805-2.897c0.537-0.739,1.236-1.109,2.098-1.109s1.562,0.37,2.099,1.109
		c0.537,0.74,0.805,1.706,0.805,2.897S21.046,130.92,20.509,131.66z M18.411,125.656c-0.617,0-1.092,0.283-1.426,0.85
		s-0.501,1.318-0.501,2.257s0.167,1.69,0.501,2.257s0.809,0.85,1.426,0.85c0.609,0,1.082-0.285,1.42-0.855
		c0.338-0.571,0.507-1.321,0.507-2.251s-0.169-1.68-0.507-2.251C19.493,125.941,19.02,125.656,18.411,125.656z"/>
	<path fill="#7D25EF" d="M24.192,129.093v-0.85h0.52c0.422,0,0.771-0.116,1.046-0.349c0.274-0.232,0.412-0.552,0.412-0.958
		c0-0.38-0.129-0.695-0.387-0.944s-0.603-0.374-1.033-0.374c-0.431,0-0.782,0.127-1.053,0.381c-0.271,0.253-0.436,0.587-0.494,1.001
		h-0.977c0.093-0.667,0.368-1.208,0.824-1.623c0.457-0.414,1.022-0.621,1.699-0.621c0.727,0,1.304,0.196,1.73,0.59
		c0.427,0.393,0.641,0.906,0.641,1.54c0,0.423-0.112,0.797-0.336,1.122c-0.224,0.326-0.518,0.544-0.881,0.653
		c0.422,0.118,0.756,0.341,1.001,0.666s0.368,0.708,0.368,1.147c0,0.659-0.226,1.206-0.678,1.642s-1.059,0.653-1.819,0.653
		c-0.761,0-1.384-0.211-1.871-0.634c-0.486-0.423-0.763-0.989-0.831-1.699h0.977c0.067,0.456,0.249,0.815,0.545,1.077
		c0.295,0.263,0.685,0.394,1.167,0.394c0.464,0,0.841-0.129,1.128-0.387c0.287-0.258,0.431-0.603,0.431-1.033
		c0-0.423-0.15-0.761-0.45-1.015c-0.3-0.254-0.679-0.38-1.135-0.38H24.192z"/>
</g>
<line fill="none" stroke="#FF2222" stroke-width="2" stroke-miterlimit="10" x1="125.316" y1="81.522" x2="148.988" y2="105.194"/>
<line fill="none" stroke="#FF2222" stroke-width="2" stroke-miterlimit="10" x1="165.467" y1="81.522" x2="189.139" y2="105.194"/>
<g>
</g>
<g>
</g>
<g>
</g>
<g>
</g>
<g>
</g>
<g>
</g>
</svg>
