<?xml version="1.0" encoding="utf-8"?>
<!-- Generator: Adobe Illustrator 16.0.0, SVG Export Plug-In . SVG Version: 6.00 Build 0)  -->
<!DOCTYPE svg PUBLIC "-//W3C//DTD SVG 1.1 Tiny//EN" "http://www.w3.org/Graphics/SVG/1.1/DTD/svg11-tiny.dtd">
<svg version="1.1" baseProfile="tiny" id="Layer_1" xmlns="http://www.w3.org/2000/svg" xmlns:xlink="http://www.w3.org/1999/xlink"
	 x="0px" y="0px" width="334.439px" height="258.938px" viewBox="0 0 334.439 258.938" xml:space="preserve">
<g>
</g>
<g>
	<rect x="196.221" y="2.369" fill="none" width="23.082" height="16.917"/>
	<path fill="#808285" d="M200.164,7.626h-1.966v3.201h-1.027v-7.99h2.993c0.823,0,1.468,0.206,1.932,0.618s0.696,1.005,0.696,1.776
		c0,0.772-0.234,1.364-0.702,1.776C201.621,7.42,200.979,7.626,200.164,7.626z M201.777,5.231c0-0.469-0.142-0.835-0.423-1.1
		c-0.282-0.265-0.688-0.396-1.217-0.396h-1.939v2.979h1.939c0.529,0,0.935-0.132,1.217-0.396
		C201.636,6.054,201.777,5.691,201.777,5.231z"/>
	<path fill="#808285" d="M204.542,10.216c-0.629-0.859-0.943-1.883-0.943-3.071s0.314-2.212,0.943-3.071
		c0.629-0.858,1.477-1.427,2.544-1.704V3.41c-0.729,0.182-1.33,0.607-1.803,1.274c-0.473,0.669-0.709,1.488-0.709,2.46
		s0.236,1.791,0.709,2.459c0.473,0.669,1.074,1.094,1.803,1.275v1.041C206.019,11.643,205.171,11.074,204.542,10.216z"/>
	<path fill="#808285" d="M210.781,7.443h-1.419v3.384h-1.027v-7.99h2.967c0.815,0,1.455,0.2,1.919,0.599
		c0.465,0.399,0.696,0.972,0.696,1.718c0,0.65-0.178,1.167-0.533,1.549s-0.854,0.616-1.496,0.702l2.354,3.423h-1.171L210.781,7.443z
		 M209.362,3.735v2.837h1.913c0.521,0,0.922-0.126,1.204-0.378c0.281-0.251,0.423-0.599,0.423-1.041s-0.142-0.789-0.423-1.041
		c-0.282-0.251-0.684-0.377-1.204-0.377H209.362z"/>
	<path fill="#808285" d="M217.411,4.073c0.629,0.859,0.943,1.883,0.943,3.071s-0.314,2.212-0.943,3.071
		c-0.63,0.858-1.478,1.427-2.545,1.704v-1.041c0.729-0.182,1.33-0.606,1.803-1.275c0.473-0.668,0.709-1.487,0.709-2.459
		s-0.236-1.791-0.709-2.46c-0.473-0.667-1.073-1.093-1.803-1.274V2.369C215.934,2.646,216.781,3.215,217.411,4.073z"/>
</g>
<rect x="192.118" y="16.685" fill="none" stroke="#808285" stroke-miterlimit="10" width="30.265" height="30.58"/>
<g>
	<rect x="192.351" y="25.793" fill="none" width="29.155" height="24.074"/>
	<path fill="#808285" d="M204.805,34.718c-0.661,0.911-1.522,1.366-2.585,1.366c-1.062,0-1.923-0.455-2.584-1.366
		s-0.991-2.101-0.991-3.568s0.33-2.657,0.991-3.568c0.661-0.91,1.522-1.366,2.584-1.366c1.062,0,1.924,0.456,2.585,1.366
		c0.661,0.911,0.991,2.101,0.991,3.568S205.466,33.807,204.805,34.718z M202.22,27.323c-0.76,0-1.346,0.35-1.757,1.047
		s-0.616,1.624-0.616,2.779s0.205,2.082,0.616,2.779c0.411,0.698,0.997,1.047,1.757,1.047c0.75,0,1.333-0.352,1.749-1.055
		c0.417-0.702,0.625-1.626,0.625-2.771s-0.208-2.069-0.625-2.771C203.553,27.675,202.97,27.323,202.22,27.323z"/>
	<path fill="#808285" d="M206.694,35.779c-0.162-0.161-0.242-0.361-0.242-0.602c0-0.239,0.08-0.441,0.242-0.608
		c0.161-0.167,0.361-0.25,0.601-0.25c0.229,0,0.424,0.083,0.586,0.25c0.161,0.167,0.242,0.369,0.242,0.608
		c0,0.24-0.081,0.44-0.242,0.602c-0.162,0.162-0.356,0.242-0.586,0.242C207.056,36.021,206.855,35.941,206.694,35.779z"/>
	<path fill="#808285" d="M212.215,30.79c-0.677,0-1.244,0.276-1.702,0.828h-0.969v-5.263h5.247v1.093h-4.216v2.889
		c0.447-0.405,1.03-0.608,1.749-0.608c0.885,0,1.608,0.299,2.17,0.897c0.562,0.599,0.844,1.361,0.844,2.288
		c0,0.905-0.292,1.66-0.875,2.264c-0.583,0.604-1.327,0.906-2.232,0.906c-0.916,0-1.666-0.255-2.249-0.766
		c-0.583-0.51-0.932-1.212-1.046-2.107h1.202c0.219,1.207,0.916,1.812,2.093,1.812c0.572,0,1.041-0.201,1.405-0.602
		s0.546-0.903,0.546-1.507s-0.182-1.108-0.546-1.515S212.798,30.79,212.215,30.79z"/>
</g>
<g>
	<rect x="26.244" y="2.044" fill="none" width="23.082" height="16.917"/>
	<path fill="#808285" d="M30.187,7.301h-1.965v3.201h-1.028v-7.99h2.993c0.824,0,1.469,0.206,1.933,0.618s0.696,1.005,0.696,1.776
		c0,0.772-0.234,1.364-0.703,1.776C31.645,7.095,31.002,7.301,30.187,7.301z M31.801,4.906c0-0.469-0.142-0.835-0.423-1.1
		c-0.282-0.265-0.688-0.396-1.217-0.396h-1.939V6.39h1.939c0.528,0,0.935-0.132,1.217-0.396C31.659,5.729,31.801,5.366,31.801,4.906
		z"/>
	<path fill="#808285" d="M34.565,9.891c-0.629-0.859-0.943-1.883-0.943-3.071s0.314-2.212,0.943-3.071
		c0.629-0.858,1.478-1.427,2.544-1.704v1.041c-0.729,0.182-1.329,0.607-1.802,1.274c-0.474,0.669-0.71,1.488-0.71,2.46
		s0.236,1.791,0.71,2.459c0.473,0.669,1.073,1.094,1.802,1.275v1.041C36.043,11.317,35.194,10.749,34.565,9.891z"/>
	<path fill="#808285" d="M42.458,6.364c0.425,0.112,0.772,0.343,1.041,0.689s0.403,0.746,0.403,1.197
		c0,0.72-0.234,1.275-0.703,1.665c-0.468,0.391-1.118,0.586-1.951,0.586h-2.89v-7.99h2.629c0.833,0,1.481,0.183,1.945,0.547
		s0.696,0.89,0.696,1.574c0,0.451-0.11,0.826-0.332,1.126C43.076,6.058,42.796,6.26,42.458,6.364z M39.361,5.986h1.626
		c1.102,0,1.653-0.434,1.653-1.301c0-0.851-0.552-1.275-1.653-1.275h-1.626V5.986z M39.361,6.846v2.759h1.887
		c0.528,0,0.937-0.124,1.223-0.371s0.43-0.584,0.43-1.009c0-0.434-0.144-0.771-0.43-1.015s-0.694-0.364-1.223-0.364H39.361z"/>
	<path fill="#808285" d="M47.253,3.748c0.629,0.859,0.943,1.883,0.943,3.071s-0.314,2.212-0.943,3.071
		c-0.629,0.858-1.477,1.427-2.544,1.704v-1.041c0.729-0.182,1.329-0.606,1.803-1.275c0.473-0.668,0.709-1.487,0.709-2.459
		s-0.236-1.791-0.709-2.46c-0.474-0.667-1.074-1.093-1.803-1.274V2.044C45.776,2.321,46.624,2.89,47.253,3.748z"/>
</g>
<rect x="22.141" y="16.359" fill="none" stroke="#808285" stroke-miterlimit="10" width="30.266" height="30.58"/>
<g>
	<rect x="20.839" y="25.468" fill="none" width="31.438" height="24.073"/>
	<path fill="#808285" d="M35.878,34.393c-0.661,0.911-1.522,1.366-2.584,1.366c-1.062,0-1.924-0.455-2.585-1.366
		s-0.991-2.101-0.991-3.568s0.33-2.657,0.991-3.568c0.661-0.91,1.522-1.366,2.585-1.366c1.062,0,1.923,0.456,2.584,1.366
		c0.661,0.911,0.991,2.101,0.991,3.568S36.539,33.481,35.878,34.393z M33.294,26.998c-0.761,0-1.346,0.35-1.757,1.047
		c-0.412,0.697-0.617,1.624-0.617,2.779s0.205,2.082,0.617,2.779c0.411,0.698,0.996,1.047,1.757,1.047
		c0.749,0,1.332-0.352,1.749-1.055c0.416-0.702,0.624-1.626,0.624-2.771s-0.208-2.069-0.624-2.771
		C34.626,27.35,34.043,26.998,33.294,26.998z"/>
	<path fill="#808285" d="M37.768,35.454c-0.162-0.161-0.242-0.361-0.242-0.602c0-0.239,0.08-0.441,0.242-0.608
		c0.161-0.167,0.361-0.25,0.601-0.25c0.229,0,0.425,0.083,0.586,0.25s0.242,0.369,0.242,0.608c0,0.24-0.081,0.44-0.242,0.602
		c-0.161,0.162-0.356,0.242-0.586,0.242C38.129,35.696,37.929,35.616,37.768,35.454z"/>
	<path fill="#808285" d="M42.85,26.015v9.604h-1.202v-8.12l-2.373,1.218v-1.249l2.842-1.452H42.85z"/>
</g>
<g>
	<rect x="9.808" y="98.65" fill="none" width="23.083" height="16.917"/>
	<path fill="#808285" d="M14.856,102.971c0.425,0.112,0.772,0.343,1.041,0.689s0.403,0.746,0.403,1.197
		c0,0.72-0.234,1.275-0.703,1.665c-0.468,0.391-1.118,0.586-1.951,0.586h-2.89v-7.99h2.629c0.833,0,1.481,0.183,1.945,0.547
		s0.696,0.89,0.696,1.574c0,0.451-0.11,0.826-0.332,1.126C15.475,102.664,15.194,102.866,14.856,102.971z M11.76,102.593h1.626
		c1.102,0,1.653-0.434,1.653-1.301c0-0.851-0.552-1.275-1.653-1.275H11.76V102.593z M11.76,103.452v2.759h1.887
		c0.528,0,0.937-0.124,1.223-0.371s0.43-0.584,0.43-1.009c0-0.434-0.144-0.771-0.43-1.015s-0.694-0.364-1.223-0.364H11.76z"/>
</g>
<rect x="0.5" y="112.965" fill="none" stroke="#808285" stroke-miterlimit="10" width="96.624" height="30.581"/>
<line fill="none" stroke="#808285" stroke-miterlimit="10" x1="61.825" y1="112.742" x2="61.825" y2="143.546"/>
<line fill="none" stroke="#808285" stroke-miterlimit="10" x1="27.686" y1="112.742" x2="27.686" y2="143.546"/>
<g>
	<rect x="40.839" y="98.65" fill="none" width="23.083" height="16.917"/>
	<path fill="#808285" d="M44.235,103.725h-1.418v3.384h-1.028v-7.99h2.967c0.815,0,1.455,0.2,1.92,0.599
		c0.464,0.399,0.696,0.972,0.696,1.718c0,0.65-0.179,1.167-0.534,1.549s-0.854,0.616-1.496,0.702l2.355,3.423h-1.172L44.235,103.725
		z M42.817,100.017v2.837h1.912c0.521,0,0.922-0.126,1.204-0.378c0.282-0.251,0.423-0.599,0.423-1.041s-0.141-0.789-0.423-1.041
		c-0.282-0.251-0.683-0.377-1.204-0.377H42.817z"/>
</g>
<g>
	<rect x="68.321" y="98.65" fill="none" width="47.36" height="16.917"/>
	<path fill="#808285" d="M72.264,103.907h-1.965v3.201h-1.028v-7.99h2.993c0.824,0,1.468,0.206,1.933,0.618
		c0.464,0.412,0.696,1.005,0.696,1.776c0,0.772-0.234,1.364-0.703,1.776C73.722,103.701,73.08,103.907,72.264,103.907z
		 M73.878,101.513c0-0.469-0.141-0.835-0.423-1.1c-0.282-0.265-0.688-0.396-1.217-0.396h-1.939v2.979h1.939
		c0.529,0,0.935-0.132,1.217-0.396C73.737,102.335,73.878,101.973,73.878,101.513z"/>
	<path fill="#808285" d="M76.643,106.497c-0.629-0.859-0.943-1.883-0.943-3.071s0.314-2.212,0.943-3.071
		c0.629-0.858,1.477-1.427,2.544-1.704v1.041c-0.729,0.182-1.33,0.607-1.802,1.274c-0.473,0.669-0.709,1.488-0.709,2.46
		s0.236,1.791,0.709,2.459c0.473,0.669,1.073,1.094,1.802,1.275v1.041C78.12,107.924,77.272,107.355,76.643,106.497z"/>
	<path fill="#808285" d="M80.436,107.108v-7.99H83c1.171,0,2.11,0.362,2.817,1.087s1.061,1.694,1.061,2.908
		c0,1.215-0.354,2.185-1.061,2.908c-0.707,0.725-1.646,1.087-2.817,1.087H80.436z M81.464,106.185h1.522
		c0.902,0,1.607-0.275,2.115-0.826c0.507-0.551,0.761-1.299,0.761-2.245c0-0.945-0.256-1.696-0.768-2.251
		c-0.512-0.556-1.214-0.833-2.108-0.833h-1.522V106.185z"/>
	<path fill="#808285" d="M90.111,100.354c0.629,0.859,0.943,1.883,0.943,3.071s-0.314,2.212-0.943,3.071
		c-0.629,0.858-1.477,1.427-2.544,1.704v-1.041c0.729-0.182,1.329-0.606,1.802-1.275c0.473-0.668,0.709-1.487,0.709-2.459
		s-0.237-1.791-0.709-2.46c-0.473-0.667-1.074-1.093-1.802-1.274V98.65C88.634,98.928,89.482,99.496,90.111,100.354z"/>
</g>
<g>
	<rect x="9.808" y="123.459" fill="none" width="23.083" height="16.917"/>
	<path fill="#808285" d="M11.785,131.917h-1.028v-7.99h4.88v0.911h-3.852v2.693h3.618v0.911h-3.618V131.917z"/>
</g>
<g>
	<rect x="42.141" y="123.459" fill="none" width="23.083" height="16.917"/>
	<path fill="#808285" d="M44.119,131.917H43.09v-7.99h4.88v0.911h-3.852v2.693h3.618v0.911h-3.618V131.917z"/>
</g>
<rect x="0.5" y="142.895" fill="none" stroke="#808285" stroke-miterlimit="10" width="96.624" height="30.581"/>
<line fill="none" stroke="#808285" stroke-miterlimit="10" x1="61.825" y1="142.673" x2="61.825" y2="173.476"/>
<line fill="none" stroke="#808285" stroke-miterlimit="10" x1="27.686" y1="142.673" x2="27.686" y2="173.476"/>
<g>
	<rect x="9.808" y="153.389" fill="none" width="23.083" height="16.917"/>
	<path fill="#808285" d="M10.198,154.768v-0.911h6.597v0.911h-2.784v7.079h-1.028v-7.079H10.198z"/>
</g>
<g>
	<rect x="42.141" y="153.389" fill="none" width="23.083" height="16.917"/>
	<path fill="#808285" d="M44.119,161.847H43.09v-7.99h4.88v0.911h-3.852v2.693h3.618v0.911h-3.618V161.847z"/>
</g>
<rect x="0.5" y="174.032" fill="none" stroke="#808285" stroke-miterlimit="10" width="96.624" height="30.58"/>
<line fill="none" stroke="#808285" stroke-miterlimit="10" x1="61.825" y1="173.81" x2="61.825" y2="204.612"/>
<line fill="none" stroke="#808285" stroke-miterlimit="10" x1="27.686" y1="173.81" x2="27.686" y2="204.612"/>
<g>
	<rect x="9.808" y="184.525" fill="none" width="23.083" height="16.917"/>
	<path fill="#808285" d="M11.785,192.983h-1.028v-7.99h4.88v0.911h-3.852v2.693h3.618v0.911h-3.618V192.983z"/>
</g>
<g>
	<rect x="42.141" y="184.525" fill="none" width="23.083" height="16.917"/>
	<path fill="#808285" d="M42.531,185.904v-0.911h6.597v0.911h-2.785v7.079h-1.028v-7.079H42.531z"/>
</g>
<rect x="0.5" y="203.962" fill="none" stroke="#808285" stroke-miterlimit="10" width="96.624" height="30.58"/>
<line fill="none" stroke="#808285" stroke-miterlimit="10" x1="61.825" y1="203.739" x2="61.825" y2="234.542"/>
<line fill="none" stroke="#808285" stroke-miterlimit="10" x1="27.686" y1="203.739" x2="27.686" y2="234.542"/>
<g>
	<rect x="9.808" y="214.455" fill="none" width="23.083" height="16.917"/>
	<path fill="#808285" d="M10.198,215.834v-0.911h6.597v0.911h-2.784v7.079h-1.028v-7.079H10.198z"/>
</g>
<g>
	<rect x="42.141" y="214.455" fill="none" width="23.083" height="16.917"/>
	<path fill="#808285" d="M42.531,215.834v-0.911h6.597v0.911h-2.785v7.079h-1.028v-7.079H42.531z"/>
</g>
<g>
	<rect x="61.522" y="121.867" fill="none" width="35.344" height="24.074"/>
	<path fill="#808285" d="M78.515,130.792c-0.661,0.911-1.522,1.366-2.584,1.366c-1.062,0-1.924-0.455-2.585-1.366
		s-0.991-2.101-0.991-3.568s0.33-2.657,0.991-3.568c0.661-0.91,1.522-1.366,2.585-1.366c1.062,0,1.923,0.456,2.584,1.366
		c0.661,0.911,0.991,2.101,0.991,3.568S79.176,129.881,78.515,130.792z M75.931,123.397c-0.761,0-1.346,0.35-1.757,1.047
		c-0.412,0.697-0.617,1.624-0.617,2.779s0.205,2.082,0.617,2.779c0.411,0.698,0.996,1.047,1.757,1.047
		c0.749,0,1.332-0.352,1.749-1.055c0.416-0.702,0.624-1.626,0.624-2.771s-0.208-2.069-0.624-2.771
		C77.263,123.749,76.68,123.397,75.931,123.397z"/>
	<path fill="#808285" d="M80.404,131.854c-0.162-0.161-0.242-0.361-0.242-0.602c0-0.239,0.08-0.441,0.242-0.608
		c0.161-0.167,0.361-0.25,0.601-0.25c0.229,0,0.425,0.083,0.586,0.25s0.242,0.369,0.242,0.608c0,0.24-0.081,0.44-0.242,0.602
		c-0.161,0.162-0.356,0.242-0.586,0.242C80.766,132.096,80.565,132.016,80.404,131.854z"/>
	<path fill="#808285" d="M85.486,122.414v9.604h-1.202v-8.12l-2.373,1.218v-1.249l2.842-1.452H85.486z"/>
</g>
<g>
	<rect x="61.825" y="153.389" fill="none" width="35.042" height="24.073"/>
	<path fill="#808285" d="M75.441,153.936v9.604h-1.202v-8.12l-2.373,1.218v-1.249l2.842-1.452H75.441z"/>
	<path fill="#808285" d="M77.354,163.375c-0.162-0.161-0.242-0.361-0.242-0.602c0-0.239,0.08-0.441,0.242-0.608
		c0.161-0.167,0.361-0.25,0.601-0.25c0.229,0,0.425,0.083,0.586,0.25s0.242,0.369,0.242,0.608c0,0.24-0.081,0.44-0.242,0.602
		c-0.161,0.162-0.356,0.242-0.586,0.242C77.716,163.617,77.516,163.537,77.354,163.375z"/>
	<path fill="#808285" d="M85.6,162.313c-0.662,0.911-1.523,1.366-2.585,1.366s-1.923-0.455-2.584-1.366s-0.992-2.101-0.992-3.568
		s0.331-2.657,0.992-3.568c0.661-0.91,1.522-1.366,2.584-1.366s1.923,0.456,2.585,1.366c0.66,0.911,0.991,2.101,0.991,3.568
		S86.26,161.402,85.6,162.313z M83.015,154.919c-0.76,0-1.346,0.35-1.757,1.047s-0.616,1.624-0.616,2.779s0.205,2.082,0.616,2.779
		c0.411,0.698,0.997,1.047,1.757,1.047c0.75,0,1.333-0.352,1.749-1.055c0.416-0.702,0.625-1.626,0.625-2.771
		s-0.209-2.069-0.625-2.771C84.348,155.271,83.765,154.919,83.015,154.919z"/>
</g>
<g>
	<rect x="61.522" y="214.455" fill="none" width="35.344" height="24.074"/>
	<path fill="#808285" d="M75.29,215.002v9.604h-1.202v-8.12l-2.373,1.218v-1.249l2.842-1.452H75.29z"/>
	<path fill="#808285" d="M77.203,224.441c-0.162-0.161-0.242-0.361-0.242-0.602c0-0.239,0.08-0.441,0.242-0.608
		c0.161-0.167,0.361-0.25,0.601-0.25c0.229,0,0.425,0.083,0.586,0.25s0.242,0.369,0.242,0.608c0,0.24-0.081,0.44-0.242,0.602
		c-0.161,0.162-0.356,0.242-0.586,0.242C77.564,224.684,77.364,224.604,77.203,224.441z"/>
	<path fill="#808285" d="M85.448,223.38c-0.662,0.911-1.523,1.366-2.585,1.366s-1.923-0.455-2.584-1.366s-0.992-2.101-0.992-3.568
		s0.331-2.657,0.992-3.568c0.661-0.91,1.522-1.366,2.584-1.366s1.923,0.456,2.585,1.366c0.66,0.911,0.991,2.101,0.991,3.568
		S86.108,222.469,85.448,223.38z M82.863,215.985c-0.76,0-1.346,0.35-1.757,1.047s-0.616,1.624-0.616,2.779s0.205,2.082,0.616,2.779
		c0.411,0.698,0.997,1.047,1.757,1.047c0.75,0,1.333-0.352,1.749-1.055c0.416-0.702,0.625-1.626,0.625-2.771
		s-0.209-2.069-0.625-2.771C84.196,216.337,83.613,215.985,82.863,215.985z"/>
</g>
<g>
	<rect x="61.825" y="184.525" fill="none" width="35.042" height="15.601"/>
	<path fill="#808285" d="M77.222,193.45c-0.661,0.911-1.522,1.366-2.584,1.366c-1.062,0-1.924-0.455-2.585-1.366
		s-0.991-2.101-0.991-3.568s0.33-2.657,0.991-3.568c0.661-0.91,1.522-1.366,2.585-1.366c1.062,0,1.923,0.456,2.584,1.366
		c0.661,0.911,0.991,2.101,0.991,3.568S77.883,192.539,77.222,193.45z M74.638,186.056c-0.761,0-1.346,0.35-1.757,1.047
		c-0.412,0.697-0.617,1.624-0.617,2.779s0.205,2.082,0.617,2.779c0.411,0.698,0.996,1.047,1.757,1.047
		c0.749,0,1.332-0.352,1.749-1.055c0.416-0.702,0.624-1.626,0.624-2.771s-0.208-2.069-0.624-2.771
		C75.97,186.407,75.387,186.056,74.638,186.056z"/>
	<path fill="#808285" d="M79.111,194.512c-0.162-0.161-0.242-0.361-0.242-0.602c0-0.239,0.08-0.441,0.242-0.608
		c0.161-0.167,0.361-0.25,0.601-0.25c0.229,0,0.425,0.083,0.586,0.25s0.242,0.369,0.242,0.608c0,0.24-0.081,0.44-0.242,0.602
		c-0.161,0.162-0.356,0.242-0.586,0.242C79.473,194.754,79.272,194.674,79.111,194.512z"/>
	<path fill="#808285" d="M84.631,189.522c-0.677,0-1.244,0.276-1.702,0.828h-0.968v-5.263h5.246v1.093h-4.216v2.889
		c0.447-0.405,1.03-0.608,1.749-0.608c0.885,0,1.608,0.299,2.171,0.897c0.562,0.599,0.843,1.361,0.843,2.288
		c0,0.905-0.292,1.66-0.874,2.264c-0.584,0.604-1.328,0.906-2.233,0.906c-0.916,0-1.666-0.255-2.249-0.766
		c-0.583-0.51-0.932-1.212-1.046-2.107h1.202c0.219,1.207,0.916,1.812,2.093,1.812c0.572,0,1.041-0.201,1.405-0.602
		s0.547-0.903,0.547-1.507s-0.183-1.108-0.547-1.515S85.214,189.522,84.631,189.522z"/>
</g>
<line fill="none" stroke="#808285" stroke-miterlimit="10" x1="178.214" y1="194.218" x2="178.214" y2="225.021"/>
<g>
	<rect x="157.229" y="180.126" fill="none" width="23.083" height="16.917"/>
	<path fill="#808285" d="M158.178,188.583v-7.99h2.564c1.171,0,2.11,0.362,2.817,1.087s1.061,1.694,1.061,2.908
		c0,1.215-0.354,2.185-1.061,2.908c-0.707,0.725-1.646,1.087-2.817,1.087H158.178z M159.206,187.659h1.522
		c0.902,0,1.607-0.275,2.115-0.826s0.761-1.299,0.761-2.245c0-0.945-0.256-1.696-0.768-2.251c-0.512-0.556-1.215-0.833-2.108-0.833
		h-1.522V187.659z"/>
</g>
<g>
	<rect x="184.711" y="180.126" fill="none" width="47.359" height="16.917"/>
	<path fill="#808285" d="M188.654,185.382h-1.966v3.201h-1.027v-7.99h2.993c0.823,0,1.468,0.206,1.932,0.618
		s0.696,1.005,0.696,1.776c0,0.772-0.234,1.364-0.702,1.776C190.111,185.176,189.469,185.382,188.654,185.382z M190.268,182.987
		c0-0.469-0.142-0.835-0.423-1.1c-0.282-0.265-0.688-0.396-1.217-0.396h-1.939v2.979h1.939c0.529,0,0.935-0.132,1.217-0.396
		C190.126,183.81,190.268,183.447,190.268,182.987z"/>
	<path fill="#808285" d="M193.032,187.972c-0.629-0.859-0.943-1.883-0.943-3.071s0.314-2.212,0.943-3.071
		c0.629-0.858,1.477-1.427,2.544-1.704v1.041c-0.729,0.182-1.33,0.607-1.803,1.274c-0.473,0.669-0.709,1.488-0.709,2.46
		s0.236,1.791,0.709,2.459c0.473,0.669,1.074,1.094,1.803,1.275v1.041C194.509,189.398,193.661,188.83,193.032,187.972z"/>
	<path fill="#808285" d="M199.818,185.382h-1.966v3.201h-1.027v-7.99h2.993c0.823,0,1.468,0.206,1.932,0.618
		s0.696,1.005,0.696,1.776c0,0.772-0.234,1.364-0.702,1.776C201.275,185.176,200.633,185.382,199.818,185.382z M201.432,182.987
		c0-0.469-0.142-0.835-0.423-1.1c-0.282-0.265-0.688-0.396-1.217-0.396h-1.939v2.979h1.939c0.529,0,0.935-0.132,1.217-0.396
		C201.29,183.81,201.432,183.447,201.432,182.987z"/>
	<path fill="#808285" d="M205.706,181.829c0.629,0.859,0.943,1.883,0.943,3.071s-0.314,2.212-0.943,3.071
		c-0.63,0.858-1.478,1.427-2.545,1.704v-1.041c0.729-0.182,1.33-0.606,1.803-1.275c0.473-0.668,0.709-1.487,0.709-2.459
		s-0.236-1.791-0.709-2.46c-0.473-0.667-1.073-1.093-1.803-1.274v-1.041C204.229,180.402,205.076,180.971,205.706,181.829z"/>
</g>
<g>
	<rect x="158.53" y="204.935" fill="none" width="23.082" height="16.916"/>
	<path fill="#808285" d="M160.508,213.392h-1.027v-7.99h4.88v0.911h-3.853v2.693h3.618v0.911h-3.618V213.392z"/>
</g>
<line fill="none" stroke="#808285" stroke-miterlimit="10" x1="178.214" y1="224.148" x2="178.214" y2="254.951"/>
<g>
	<rect x="158.53" y="234.864" fill="none" width="23.082" height="16.917"/>
	<path fill="#808285" d="M158.921,236.242v-0.911h6.598v0.911h-2.785v7.079h-1.028v-7.079H158.921z"/>
</g>
<g>
	<rect x="177.015" y="203.343" fill="none" width="36.241" height="24.074"/>
	<path fill="#808285" d="M188.077,213.329c-0.162-0.161-0.242-0.361-0.242-0.602c0-0.239,0.08-0.441,0.242-0.608
		c0.161-0.167,0.361-0.25,0.601-0.25c0.229,0,0.424,0.083,0.586,0.25c0.161,0.167,0.242,0.369,0.242,0.608
		c0,0.24-0.081,0.44-0.242,0.602c-0.162,0.162-0.356,0.242-0.586,0.242C188.438,213.571,188.238,213.491,188.077,213.329z"/>
	<path fill="#808285" d="M196.321,212.268c-0.661,0.911-1.522,1.366-2.585,1.366c-1.062,0-1.923-0.455-2.584-1.366
		s-0.991-2.101-0.991-3.568s0.33-2.657,0.991-3.568c0.661-0.91,1.522-1.366,2.584-1.366c1.062,0,1.924,0.456,2.585,1.366
		c0.661,0.911,0.991,2.101,0.991,3.568S196.982,211.356,196.321,212.268z M193.736,204.873c-0.76,0-1.346,0.35-1.757,1.047
		s-0.616,1.624-0.616,2.779s0.205,2.082,0.616,2.779c0.411,0.698,0.997,1.047,1.757,1.047c0.75,0,1.333-0.352,1.749-1.055
		c0.417-0.702,0.625-1.626,0.625-2.771s-0.208-2.069-0.625-2.771C195.069,205.225,194.486,204.873,193.736,204.873z"/>
	<path fill="#808285" d="M201.765,203.89v9.604h-1.203v-8.12l-2.373,1.218v-1.249l2.842-1.452H201.765z"/>
</g>
<g>
	<rect x="178.794" y="234.864" fill="none" width="34.462" height="24.073"/>
	<path fill="#808285" d="M195.346,243.789c-0.661,0.911-1.522,1.366-2.585,1.366c-1.062,0-1.923-0.455-2.584-1.366
		s-0.991-2.101-0.991-3.568s0.33-2.657,0.991-3.568c0.661-0.91,1.522-1.366,2.584-1.366c1.062,0,1.924,0.456,2.585,1.366
		c0.661,0.911,0.991,2.101,0.991,3.568S196.007,242.878,195.346,243.789z M192.761,236.395c-0.76,0-1.346,0.35-1.757,1.047
		s-0.616,1.624-0.616,2.779s0.205,2.082,0.616,2.779c0.411,0.698,0.997,1.047,1.757,1.047c0.75,0,1.333-0.352,1.749-1.055
		c0.417-0.702,0.625-1.626,0.625-2.771s-0.208-2.069-0.625-2.771C194.094,236.746,193.511,236.395,192.761,236.395z"/>
	<path fill="#808285" d="M197.235,244.851c-0.162-0.161-0.242-0.361-0.242-0.602c0-0.239,0.08-0.441,0.242-0.608
		c0.161-0.167,0.361-0.25,0.601-0.25c0.229,0,0.424,0.083,0.586,0.25c0.161,0.167,0.242,0.369,0.242,0.608
		c0,0.24-0.081,0.44-0.242,0.602c-0.162,0.162-0.356,0.242-0.586,0.242C197.597,245.093,197.396,245.013,197.235,244.851z"/>
	<path fill="#808285" d="M202.318,235.411v9.604h-1.203v-8.12l-2.373,1.218v-1.249l2.842-1.452H202.318z"/>
</g>
<rect x="144.075" y="194.44" fill="none" stroke="#808285" stroke-miterlimit="10" width="69.438" height="30.581"/>
<rect x="144.075" y="224.37" fill="none" stroke="#808285" stroke-miterlimit="10" width="69.438" height="30.581"/>
<g>
	<rect x="259.598" y="91.022" fill="none" width="23.083" height="16.917"/>
	<path fill="#808285" d="M262.994,96.097h-1.419v3.384h-1.027v-7.99h2.967c0.815,0,1.455,0.2,1.919,0.599
		c0.465,0.399,0.696,0.972,0.696,1.718c0,0.65-0.178,1.167-0.533,1.549s-0.854,0.616-1.496,0.702l2.354,3.423h-1.171L262.994,96.097
		z M261.575,92.389v2.837h1.913c0.521,0,0.922-0.126,1.204-0.378c0.281-0.251,0.423-0.599,0.423-1.041s-0.142-0.789-0.423-1.041
		c-0.282-0.251-0.684-0.377-1.204-0.377H261.575z"/>
</g>
<g>
	<rect x="287.08" y="91.022" fill="none" width="47.359" height="16.917"/>
	<path fill="#808285" d="M291.023,96.279h-1.966v3.201h-1.027v-7.99h2.993c0.823,0,1.468,0.206,1.932,0.618s0.696,1.005,0.696,1.776
		c0,0.772-0.234,1.364-0.702,1.776C292.48,96.073,291.838,96.279,291.023,96.279z M292.637,93.885c0-0.469-0.142-0.835-0.423-1.1
		c-0.282-0.265-0.688-0.396-1.217-0.396h-1.939v2.979h1.939c0.529,0,0.935-0.132,1.217-0.396
		C292.495,94.707,292.637,94.345,292.637,93.885z"/>
	<path fill="#808285" d="M295.401,98.869c-0.629-0.859-0.943-1.883-0.943-3.071s0.314-2.212,0.943-3.071
		c0.629-0.858,1.477-1.427,2.544-1.704v1.041c-0.729,0.182-1.33,0.607-1.803,1.274c-0.473,0.669-0.709,1.488-0.709,2.46
		s0.236,1.791,0.709,2.459c0.473,0.669,1.074,1.094,1.803,1.275v1.041C296.878,100.296,296.03,99.728,295.401,98.869z"/>
	<path fill="#808285" d="M298.726,92.401V91.49h6.598v0.911h-2.785v7.079h-1.028v-7.079H298.726z"/>
	<path fill="#808285" d="M308.647,92.727c0.629,0.859,0.943,1.883,0.943,3.071s-0.314,2.212-0.943,3.071
		c-0.63,0.858-1.478,1.427-2.545,1.704v-1.041c0.729-0.182,1.33-0.606,1.803-1.275c0.473-0.668,0.709-1.487,0.709-2.459
		s-0.236-1.791-0.709-2.46c-0.473-0.667-1.073-1.093-1.803-1.274v-1.041C307.17,91.3,308.018,91.868,308.647,92.727z"/>
</g>
<g>
	<rect x="260.898" y="115.831" fill="none" width="23.083" height="16.917"/>
	<path fill="#808285" d="M262.876,124.289h-1.027v-7.99h4.88v0.911h-3.853v2.693h3.618v0.911h-3.618V124.289z"/>
</g>
<g>
	<rect x="260.898" y="145.761" fill="none" width="23.083" height="16.917"/>
	<path fill="#808285" d="M261.289,147.14v-0.911h6.598v0.911h-2.785v7.079h-1.028v-7.079H261.289z"/>
</g>
<g>
	<rect x="280.999" y="115.24" fill="none" width="34.625" height="24.074"/>
	<path fill="#808285" d="M287.054,125.227c-0.162-0.161-0.242-0.361-0.242-0.602c0-0.239,0.08-0.441,0.242-0.608
		c0.161-0.167,0.361-0.25,0.601-0.25c0.229,0,0.424,0.083,0.586,0.25c0.161,0.167,0.242,0.369,0.242,0.608
		c0,0.24-0.081,0.44-0.242,0.602c-0.162,0.162-0.356,0.242-0.586,0.242C287.415,125.469,287.215,125.389,287.054,125.227z"/>
	<path fill="#808285" d="M295.298,124.165c-0.661,0.911-1.522,1.366-2.585,1.366c-1.062,0-1.923-0.455-2.584-1.366
		s-0.991-2.101-0.991-3.568s0.33-2.657,0.991-3.568c0.661-0.91,1.522-1.366,2.584-1.366c1.062,0,1.924,0.456,2.585,1.366
		c0.661,0.911,0.991,2.101,0.991,3.568S295.959,123.254,295.298,124.165z M292.713,116.771c-0.76,0-1.346,0.35-1.757,1.047
		s-0.616,1.624-0.616,2.779s0.205,2.082,0.616,2.779c0.411,0.698,0.997,1.047,1.757,1.047c0.75,0,1.333-0.352,1.749-1.055
		c0.417-0.702,0.625-1.626,0.625-2.771s-0.208-2.069-0.625-2.771C294.046,117.122,293.463,116.771,292.713,116.771z"/>
	<path fill="#808285" d="M303.699,124.165c-0.661,0.911-1.522,1.366-2.585,1.366c-1.062,0-1.923-0.455-2.584-1.366
		s-0.991-2.101-0.991-3.568s0.33-2.657,0.991-3.568c0.661-0.91,1.522-1.366,2.584-1.366c1.062,0,1.924,0.456,2.585,1.366
		c0.661,0.911,0.991,2.101,0.991,3.568S304.36,123.254,303.699,124.165z M301.114,116.771c-0.76,0-1.346,0.35-1.757,1.047
		s-0.616,1.624-0.616,2.779s0.205,2.082,0.616,2.779c0.411,0.698,0.997,1.047,1.757,1.047c0.75,0,1.333-0.352,1.749-1.055
		c0.417-0.702,0.625-1.626,0.625-2.771s-0.208-2.069-0.625-2.771C302.447,117.122,301.864,116.771,301.114,116.771z"/>
	<path fill="#808285" d="M309.143,115.787v9.604h-1.203v-8.12l-2.373,1.218v-1.249l2.842-1.452H309.143z"/>
</g>
<g>
	<rect x="280.271" y="145.761" fill="none" width="35.353" height="24.074"/>
	<path fill="#808285" d="M295.684,154.686c-0.661,0.911-1.522,1.366-2.585,1.366c-1.062,0-1.923-0.455-2.584-1.366
		s-0.991-2.101-0.991-3.568s0.33-2.657,0.991-3.568c0.661-0.91,1.522-1.366,2.584-1.366c1.062,0,1.924,0.456,2.585,1.366
		c0.661,0.911,0.991,2.101,0.991,3.568S296.345,153.774,295.684,154.686z M293.099,147.291c-0.76,0-1.346,0.35-1.757,1.047
		s-0.616,1.624-0.616,2.779s0.205,2.082,0.616,2.779c0.411,0.698,0.997,1.047,1.757,1.047c0.75,0,1.333-0.352,1.749-1.055
		c0.417-0.702,0.625-1.626,0.625-2.771s-0.208-2.069-0.625-2.771C294.432,147.643,293.849,147.291,293.099,147.291z"/>
	<path fill="#808285" d="M297.573,155.747c-0.162-0.161-0.242-0.361-0.242-0.602c0-0.239,0.08-0.441,0.242-0.608
		c0.161-0.167,0.361-0.25,0.601-0.25c0.229,0,0.424,0.083,0.586,0.25c0.161,0.167,0.242,0.369,0.242,0.608
		c0,0.24-0.081,0.44-0.242,0.602c-0.162,0.162-0.356,0.242-0.586,0.242C297.935,155.989,297.734,155.909,297.573,155.747z"/>
	<path fill="#808285" d="M303.188,156.052c-0.938,0-1.716-0.255-2.335-0.766c-0.619-0.51-0.929-1.171-0.929-1.982
		c0-0.604,0.174-1.125,0.522-1.562c0.349-0.438,0.799-0.729,1.352-0.875c-0.459-0.156-0.828-0.427-1.109-0.812
		c-0.281-0.386-0.422-0.833-0.422-1.344c0-0.76,0.279-1.371,0.836-1.834c0.557-0.464,1.252-0.695,2.085-0.695
		c0.843,0,1.543,0.231,2.1,0.695c0.557,0.463,0.836,1.074,0.836,1.834c0,0.511-0.144,0.956-0.43,1.336s-0.653,0.653-1.101,0.819
		c0.541,0.146,0.988,0.438,1.343,0.875c0.354,0.437,0.531,0.957,0.531,1.562c0,0.812-0.311,1.473-0.93,1.982
		C304.918,155.797,304.135,156.052,303.188,156.052z M303.188,155.053c0.614,0,1.116-0.172,1.507-0.516
		c0.39-0.344,0.585-0.786,0.585-1.327s-0.195-0.981-0.585-1.32c-0.391-0.338-0.893-0.507-1.507-0.507
		c-0.604,0-1.102,0.169-1.491,0.507c-0.391,0.339-0.586,0.779-0.586,1.32s0.195,0.983,0.586,1.327
		C302.086,154.881,302.583,155.053,303.188,155.053z M303.188,150.352c0.51,0,0.932-0.146,1.265-0.437
		c0.333-0.292,0.5-0.672,0.5-1.141c0-0.468-0.167-0.851-0.5-1.147s-0.755-0.445-1.265-0.445c-0.5,0-0.917,0.148-1.25,0.445
		s-0.499,0.68-0.499,1.147c0,0.459,0.166,0.836,0.499,1.133S302.688,150.352,303.188,150.352z"/>
</g>
<g>
	<line fill="none" stroke="#808285" stroke-miterlimit="10" x1="280.583" y1="105.115" x2="280.583" y2="135.918"/>
	<line fill="none" stroke="#808285" stroke-miterlimit="10" x1="280.583" y1="135.045" x2="280.583" y2="165.848"/>
	<rect x="246.444" y="105.338" fill="none" stroke="#808285" stroke-miterlimit="10" width="69.438" height="30.58"/>
	<rect x="246.444" y="135.268" fill="none" stroke="#808285" stroke-miterlimit="10" width="69.438" height="30.58"/>
</g>
<g>
</g>
<g>
	<circle fill="#FFFFFF" stroke="#231F20" stroke-width="0.75" stroke-miterlimit="10" cx="77.122" cy="56.732" r="17.259"/>
	<circle fill="#FFFFFF" stroke="#231F20" stroke-width="0.75" stroke-miterlimit="10" cx="123.351" cy="118.342" r="17.259"/>
	<circle fill="#FFFFFF" stroke="#231F20" stroke-width="0.75" stroke-miterlimit="10" cx="170.815" cy="56.732" r="17.259"/>
	<circle fill="#FFFFFF" stroke="#231F20" stroke-width="0.75" stroke-miterlimit="10" cx="123.351" cy="188.611" r="17.259"/>
	<circle fill="#FFFFFF" stroke="#231F20" stroke-width="0.75" stroke-miterlimit="10" cx="220.265" cy="117.656" r="17.259"/>
</g>
<g>
	<g>
		<rect x="67.534" y="48.446" fill="none" width="19.176" height="23.01"/>
		<path fill="#231F20" d="M79.86,56.086c0.751,0.199,1.365,0.606,1.841,1.22s0.713,1.319,0.713,2.117
			c0,1.273-0.414,2.255-1.242,2.945s-1.979,1.035-3.452,1.035h-5.108V49.274h4.648c1.473,0,2.619,0.322,3.44,0.967
			c0.82,0.645,1.23,1.572,1.23,2.784c0,0.798-0.195,1.461-0.586,1.99C80.953,55.545,80.458,55.901,79.86,56.086z M74.384,55.419
			h2.876c1.948,0,2.923-0.768,2.923-2.302c0-1.503-0.975-2.255-2.923-2.255h-2.876V55.419z M74.384,56.938v4.878h3.336
			c0.936,0,1.657-0.219,2.163-0.655c0.507-0.438,0.76-1.032,0.76-1.784c0-0.767-0.253-1.365-0.76-1.794
			c-0.506-0.43-1.228-0.645-2.163-0.645H74.384z"/>
	</g>
	<g>
		<rect x="113.764" y="110.054" fill="none" width="19.175" height="23.012"/>
		<path fill="#231F20" d="M118.07,125.012v-14.129h4.533c2.071,0,3.731,0.641,4.981,1.922s1.876,2.995,1.876,5.143
			c0,2.148-0.626,3.862-1.876,5.143c-1.25,1.281-2.91,1.922-4.981,1.922H118.07z M119.888,123.378h2.692
			c1.596,0,2.842-0.486,3.739-1.461s1.347-2.298,1.347-3.97s-0.453-2.999-1.358-3.98s-2.147-1.473-3.728-1.473h-2.692V123.378z"/>
	</g>
	<g>
		<rect x="161.228" y="48.446" fill="none" width="19.175" height="23.01"/>
		<path fill="#231F20" d="M170.471,57.421h-2.508v5.982h-1.818V49.274h5.247c1.441,0,2.573,0.354,3.394,1.059
			c0.82,0.706,1.231,1.719,1.231,3.037c0,1.151-0.314,2.063-0.943,2.738c-0.63,0.676-1.512,1.09-2.646,1.243l4.165,6.052h-2.071
			L170.471,57.421z M167.963,50.862v5.017h3.382c0.921,0,1.63-0.223,2.129-0.667c0.498-0.445,0.748-1.059,0.748-1.842
			c0-0.782-0.25-1.396-0.748-1.841c-0.499-0.444-1.208-0.667-2.129-0.667H167.963z"/>
	</g>
	<g>
		<rect x="113.764" y="180.324" fill="none" width="19.175" height="23.012"/>
		<path fill="#231F20" d="M124.146,189.62h-3.475v5.661h-1.818v-14.129h5.293c1.457,0,2.596,0.365,3.417,1.093
			c0.82,0.729,1.231,1.776,1.231,3.142s-0.414,2.412-1.243,3.141C126.723,189.256,125.587,189.62,124.146,189.62z M126.999,185.387
			c0-0.828-0.25-1.477-0.748-1.944c-0.499-0.468-1.216-0.702-2.151-0.702h-3.429v5.27h3.429c0.936,0,1.652-0.233,2.151-0.702
			C126.749,186.84,126.999,186.2,126.999,185.387z"/>
	</g>
	<g>
		<rect x="210.677" y="109.369" fill="none" width="19.175" height="23.011"/>
		<path fill="#231F20" d="M214.432,111.809v-1.611h11.666v1.611h-4.924v12.518h-1.818v-12.518H214.432z"/>
	</g>
</g>
<g>
</g>
<g>
	<g>
		
			<line fill="none" stroke="#231F20" stroke-width="0.75" stroke-miterlimit="10" x1="86.71" y1="70.155" x2="111.008" y2="105.161"/>
		<g>
			<polygon fill="#231F20" points="107.071,104.868 107.23,104.135 110.843,104.925 111.367,101.264 112.11,101.371 
				111.471,105.829 			"/>
		</g>
	</g>
	<g>
		
			<line fill="none" stroke="#231F20" stroke-width="0.75" stroke-miterlimit="10" x1="161.229" y1="70.155" x2="135.709" y2="105.172"/>
		<g>
			<polygon fill="#231F20" points="134.694,101.356 135.439,101.267 135.878,104.938 139.509,104.232 139.651,104.97 
				135.23,105.829 			"/>
		</g>
	</g>
	<g>
		
			<line fill="none" stroke="#231F20" stroke-width="0.75" stroke-miterlimit="10" x1="123.351" y1="170.539" x2="123.351" y2="135.601"/>
		<g>
			<polygon fill="#231F20" points="126.418,168.054 125.869,167.543 123.352,170.251 120.834,167.543 120.284,168.054 
				123.352,171.353 			"/>
		</g>
	</g>
	<g>
		
			<line fill="none" stroke="#231F20" stroke-width="0.75" stroke-miterlimit="10" x1="184.436" y1="67.327" x2="210.318" y2="102.571"/>
		<g>
			<polygon fill="#231F20" points="206.375,102.384 206.515,101.646 210.147,102.34 210.573,98.666 211.319,98.753 210.799,103.227 
							"/>
		</g>
	</g>
</g>
<g>
</g>
<g>
</g>
<g>
</g>
<g>
</g>
<g>
</g>
<g>
</g>
<g>
</g>
</svg>
