<?xml version="1.0" encoding="utf-8"?>
<!-- Generator: Adobe Illustrator 16.0.0, SVG Export Plug-In . SVG Version: 6.00 Build 0)  -->
<!DOCTYPE svg PUBLIC "-//W3C//DTD SVG 1.1 Tiny//EN" "http://www.w3.org/Graphics/SVG/1.1/DTD/svg11-tiny.dtd">
<svg version="1.1" baseProfile="tiny" id="Layer_1" xmlns="http://www.w3.org/2000/svg" xmlns:xlink="http://www.w3.org/1999/xlink"
	 x="0px" y="0px" width="188px" height="177.388px" viewBox="0 0 188 177.388" xml:space="preserve">
<g>
</g>
<g>
	<circle fill="#FFFFFF" stroke="#231F20" stroke-width="0.75" stroke-miterlimit="10" cx="22.134" cy="23.792" r="17.259"/>
	<circle fill="#FFFFFF" stroke="#231F20" stroke-width="0.75" stroke-miterlimit="10" cx="68.363" cy="85.401" r="17.259"/>
	<circle fill="#FFFFFF" stroke="#231F20" stroke-width="0.75" stroke-miterlimit="10" cx="115.827" cy="23.792" r="17.259"/>
	<circle fill="#FFFFFF" stroke="#231F20" stroke-width="0.75" stroke-miterlimit="10" cx="68.363" cy="155.671" r="17.259"/>
	<circle fill="#FFFFFF" stroke="#231F20" stroke-width="0.75" stroke-miterlimit="10" cx="165.276" cy="84.715" r="17.259"/>
</g>
<g>
	<g>
		<rect x="12.546" y="15.506" fill="none" width="19.176" height="23.01"/>
		<path fill="#231F20" d="M24.872,23.146c0.751,0.199,1.365,0.605,1.841,1.22c0.476,0.613,0.713,1.319,0.713,2.116
			c0,1.273-0.414,2.256-1.242,2.945c-0.828,0.69-1.979,1.036-3.452,1.036h-5.108V16.334h4.648c1.473,0,2.619,0.322,3.44,0.967
			c0.82,0.644,1.23,1.572,1.23,2.784c0,0.798-0.195,1.461-0.586,1.99C25.965,22.604,25.47,22.961,24.872,23.146z M19.396,22.478
			h2.876c1.948,0,2.923-0.767,2.923-2.301c0-1.503-0.975-2.255-2.923-2.255h-2.876V22.478z M19.396,23.996v4.879h3.336
			c0.936,0,1.657-0.219,2.163-0.656c0.507-0.437,0.76-1.031,0.76-1.783c0-0.767-0.253-1.365-0.76-1.795
			c-0.506-0.429-1.228-0.645-2.163-0.645H19.396z"/>
	</g>
	<g>
		<rect x="58.775" y="77.114" fill="none" width="19.175" height="23.01"/>
		<path fill="#231F20" d="M63.082,92.071V77.942h4.533c2.071,0,3.731,0.641,4.981,1.921c1.25,1.281,1.876,2.996,1.876,5.143
			c0,2.148-0.626,3.862-1.876,5.143c-1.25,1.281-2.91,1.922-4.981,1.922H63.082z M64.899,90.438h2.692
			c1.596,0,2.842-0.487,3.739-1.462c0.897-0.973,1.347-2.297,1.347-3.969s-0.453-2.999-1.358-3.981
			c-0.905-0.981-2.147-1.473-3.728-1.473h-2.692V90.438z"/>
	</g>
	<g>
		<rect x="106.239" y="15.506" fill="none" width="19.175" height="23.01"/>
		<path fill="#231F20" d="M115.482,24.479h-2.508v5.983h-1.818V16.334h5.247c1.441,0,2.573,0.353,3.394,1.059
			s1.231,1.718,1.231,3.037c0,1.15-0.314,2.063-0.943,2.738c-0.63,0.676-1.512,1.09-2.646,1.243l4.165,6.052h-2.071L115.482,24.479z
			 M112.975,17.922v5.017h3.382c0.921,0,1.63-0.223,2.129-0.668c0.498-0.444,0.748-1.059,0.748-1.841s-0.25-1.396-0.748-1.841
			c-0.499-0.444-1.208-0.667-2.129-0.667H112.975z"/>
	</g>
	<g>
		<rect x="58.775" y="147.384" fill="none" width="19.175" height="23.011"/>
		<path fill="#231F20" d="M69.157,156.681h-3.475v5.66h-1.818v-14.129h5.293c1.457,0,2.596,0.365,3.417,1.094
			c0.82,0.729,1.231,1.775,1.231,3.141s-0.414,2.412-1.243,3.141C71.734,156.315,70.599,156.681,69.157,156.681z M72.011,152.446
			c0-0.828-0.25-1.477-0.748-1.945c-0.499-0.467-1.216-0.701-2.151-0.701h-3.429v5.27h3.429c0.936,0,1.652-0.234,2.151-0.701
			C71.761,153.899,72.011,153.259,72.011,152.446z"/>
	</g>
	<g>
		<rect x="155.688" y="76.429" fill="none" width="19.175" height="23.01"/>
		<path fill="#231F20" d="M159.443,78.867v-1.61h11.666v1.61h-4.924v12.519h-1.818V78.867H159.443z"/>
	</g>
</g>
<g>
</g>
<g>
	<g>
		<line fill="none" stroke="#231F20" stroke-width="0.75" stroke-miterlimit="10" x1="31.722" y1="37.215" x2="56.02" y2="72.221"/>
		<g>
			<polygon fill="#231F20" points="52.083,71.928 52.242,71.194 55.855,71.984 56.379,68.323 57.122,68.43 56.483,72.889 			"/>
		</g>
	</g>
	<g>
		
			<line fill="none" stroke="#231F20" stroke-width="0.75" stroke-miterlimit="10" x1="106.24" y1="37.215" x2="80.721" y2="72.231"/>
		<g>
			<polygon fill="#231F20" points="79.706,68.417 80.451,68.327 80.89,71.998 84.521,71.292 84.663,72.029 80.242,72.888 			"/>
		</g>
	</g>
	<g>
		
			<line fill="none" stroke="#231F20" stroke-width="0.75" stroke-miterlimit="10" x1="68.363" y1="137.6" x2="68.363" y2="102.659"/>
		<g>
			<polygon fill="#231F20" points="71.43,135.114 70.881,134.603 68.363,137.312 65.846,134.603 65.296,135.114 68.363,138.413 			
				"/>
		</g>
	</g>
	<g>
		
			<line fill="none" stroke="#231F20" stroke-width="0.75" stroke-miterlimit="10" x1="129.447" y1="34.386" x2="155.33" y2="69.63"/>
		<g>
			<polygon fill="#231F20" points="151.387,69.443 151.526,68.706 155.159,69.399 155.585,65.725 156.331,65.812 155.811,70.287 			
				"/>
		</g>
	</g>
</g>
<g>
</g>
<g>
</g>
<g>
</g>
<g>
</g>
<g>
</g>
<g>
</g>
<g>
</g>
</svg>
