<?xml version="1.0" encoding="iso-8859-1"?>
<!-- Generator: Adobe Illustrator 16.0.0, SVG Export Plug-In . SVG Version: 6.00 Build 0)  -->
<!DOCTYPE svg PUBLIC "-//W3C//DTD SVG 1.1//EN" "http://www.w3.org/Graphics/SVG/1.1/DTD/svg11.dtd">
<svg version="1.1" id="Layer_1" xmlns="http://www.w3.org/2000/svg" xmlns:xlink="http://www.w3.org/1999/xlink" x="0px" y="0px"
	 width="352.439px" height="272.894px" viewBox="0 0 352.439 272.894" style="enable-background:new 0 0 352.439 272.894;"
	 xml:space="preserve">
<g>
</g>
<g>
	<rect x="215.771" y="2.496" style="fill:none;" width="24.326" height="17.829"/>
	<path style="fill:#808285;" d="M219.926,8.037h-2.07v3.374h-1.084V2.99h3.154c0.869,0,1.548,0.217,2.037,0.651
		c0.488,0.434,0.733,1.058,0.733,1.872c0,0.813-0.247,1.438-0.74,1.872C221.462,7.819,220.785,8.037,219.926,8.037z M221.627,5.513
		c0-0.494-0.149-0.88-0.446-1.159c-0.297-0.279-0.725-0.418-1.282-0.418h-2.043v3.141h2.043c0.558,0,0.985-0.14,1.282-0.418
		S221.627,5.998,221.627,5.513z"/>
	<path style="fill:#808285;" d="M224.54,10.766c-0.662-0.905-0.994-1.984-0.994-3.237c0-1.252,0.332-2.331,0.994-3.236
		c0.663-0.905,1.557-1.504,2.682-1.797v1.097c-0.768,0.192-1.401,0.64-1.899,1.344s-0.747,1.568-0.747,2.592
		c0,1.024,0.249,1.888,0.747,2.592s1.132,1.152,1.899,1.344v1.097C226.097,12.27,225.203,11.671,224.54,10.766z"/>
	<path style="fill:#808285;" d="M231.116,7.844h-1.494v3.566h-1.084V2.99h3.127c0.859,0,1.534,0.21,2.023,0.631
		c0.488,0.42,0.733,1.024,0.733,1.81c0,0.686-0.188,1.23-0.562,1.632c-0.375,0.403-0.9,0.649-1.577,0.741l2.482,3.607h-1.234
		L231.116,7.844z M229.622,3.936v2.99h2.016c0.549,0,0.972-0.133,1.269-0.398s0.445-0.631,0.445-1.097s-0.148-0.832-0.445-1.097
		s-0.72-0.397-1.269-0.397H229.622z"/>
	<path style="fill:#808285;" d="M238.104,4.292c0.662,0.905,0.994,1.984,0.994,3.236c0,1.253-0.332,2.332-0.994,3.237
		c-0.663,0.905-1.557,1.504-2.682,1.796v-1.097c0.768-0.192,1.401-0.64,1.899-1.344s0.747-1.568,0.747-2.592
		c0-1.023-0.249-1.888-0.747-2.592s-1.132-1.152-1.899-1.344V2.496C236.548,2.789,237.441,3.387,238.104,4.292z"/>
</g>
<rect x="211.447" y="17.583" style="fill:none;stroke:#808285;stroke-miterlimit:10;" width="31.896" height="32.229"/>
<g>
	<rect x="211.692" y="27.183" style="fill:none;" width="30.727" height="25.371"/>
	<path style="fill:#808285;" d="M224.817,36.588c-0.696,0.96-1.604,1.44-2.724,1.44s-2.026-0.479-2.724-1.44
		c-0.696-0.96-1.045-2.213-1.045-3.76s0.349-2.8,1.045-3.761c0.697-0.96,1.604-1.44,2.724-1.44s2.027,0.48,2.724,1.44
		c0.697,0.96,1.045,2.214,1.045,3.761S225.515,35.628,224.817,36.588z M222.094,28.795c-0.801,0-1.418,0.368-1.852,1.103
		c-0.434,0.735-0.649,1.712-0.649,2.93s0.216,2.194,0.649,2.929c0.434,0.735,1.051,1.103,1.852,1.103c0.79,0,1.404-0.37,1.844-1.111
		c0.438-0.74,0.658-1.714,0.658-2.921s-0.22-2.181-0.658-2.921C223.498,29.166,222.884,28.795,222.094,28.795z"/>
	<path style="fill:#808285;" d="M226.808,37.707c-0.17-0.17-0.255-0.381-0.255-0.634c0-0.252,0.085-0.466,0.255-0.642
		c0.171-0.175,0.382-0.263,0.634-0.263c0.241,0,0.447,0.088,0.617,0.263c0.17,0.176,0.255,0.39,0.255,0.642
		c0,0.253-0.085,0.464-0.255,0.634c-0.17,0.17-0.376,0.255-0.617,0.255C227.189,37.962,226.979,37.877,226.808,37.707z"/>
	<path style="fill:#808285;" d="M232.627,32.449c-0.713,0-1.312,0.291-1.794,0.872h-1.021v-5.546h5.53v1.152h-4.444v3.044
		c0.472-0.428,1.087-0.642,1.844-0.642c0.933,0,1.695,0.315,2.287,0.946c0.593,0.631,0.889,1.435,0.889,2.411
		c0,0.955-0.307,1.75-0.921,2.386c-0.615,0.637-1.399,0.955-2.354,0.955c-0.966,0-1.756-0.269-2.37-0.806s-0.981-1.278-1.103-2.222
		h1.268c0.23,1.273,0.965,1.909,2.205,1.909c0.604,0,1.097-0.211,1.481-0.633c0.384-0.422,0.575-0.952,0.575-1.588
		c0-0.636-0.191-1.168-0.575-1.596C233.74,32.663,233.241,32.449,232.627,32.449z"/>
</g>
<g>
	<rect x="36.632" y="2.153" style="fill:none;" width="24.326" height="17.829"/>
	<path style="fill:#808285;" d="M40.787,7.694h-2.071v3.374h-1.083v-8.42h3.154c0.869,0,1.547,0.217,2.037,0.651
		s0.734,1.058,0.734,1.872c0,0.813-0.247,1.438-0.741,1.872C42.323,7.477,41.646,7.694,40.787,7.694z M42.488,5.17
		c0-0.494-0.148-0.88-0.446-1.159c-0.297-0.279-0.725-0.418-1.282-0.418h-2.043v3.141h2.043c0.558,0,0.985-0.14,1.282-0.418
		C42.339,6.037,42.488,5.655,42.488,5.17z"/>
	<path style="fill:#808285;" d="M45.402,10.423c-0.663-0.905-0.994-1.984-0.994-3.237c0-1.252,0.331-2.331,0.994-3.236
		c0.663-0.905,1.557-1.504,2.681-1.797V3.25c-0.768,0.192-1.401,0.64-1.899,1.344c-0.499,0.704-0.748,1.568-0.748,2.592
		c0,1.024,0.249,1.888,0.748,2.592c0.498,0.704,1.131,1.152,1.899,1.344v1.097C46.958,11.927,46.064,11.328,45.402,10.423z"/>
	<path style="fill:#808285;" d="M53.72,6.706c0.448,0.119,0.813,0.361,1.097,0.727c0.283,0.366,0.425,0.787,0.425,1.262
		c0,0.759-0.247,1.344-0.74,1.755s-1.18,0.617-2.057,0.617h-3.045v-8.42h2.771c0.877,0,1.561,0.192,2.05,0.576
		c0.489,0.384,0.734,0.938,0.734,1.66c0,0.476-0.117,0.871-0.35,1.186C54.371,6.384,54.076,6.597,53.72,6.706z M50.456,6.309h1.714
		c1.161,0,1.742-0.457,1.742-1.372c0-0.896-0.581-1.344-1.742-1.344h-1.714V6.309z M50.456,7.214v2.907h1.989
		c0.558,0,0.987-0.13,1.289-0.391c0.302-0.261,0.453-0.615,0.453-1.063c0-0.457-0.151-0.814-0.453-1.07s-0.731-0.384-1.289-0.384
		H50.456z"/>
	<path style="fill:#808285;" d="M58.773,3.95c0.663,0.905,0.994,1.984,0.994,3.236c0,1.253-0.332,2.332-0.994,3.237
		c-0.663,0.905-1.557,1.504-2.681,1.796v-1.097c0.768-0.192,1.401-0.64,1.899-1.344c0.498-0.704,0.748-1.568,0.748-2.592
		c0-1.023-0.25-1.888-0.748-2.592C57.493,3.89,56.86,3.442,56.092,3.25V2.153C57.217,2.446,58.11,3.044,58.773,3.95z"/>
</g>
<rect x="32.308" y="17.241" style="fill:none;stroke:#808285;stroke-miterlimit:10;" width="31.897" height="32.229"/>
<g>
	<rect x="30.936" y="26.84" style="fill:none;" width="33.132" height="25.37"/>
	<path style="fill:#808285;" d="M46.786,36.245c-0.697,0.96-1.605,1.44-2.724,1.44c-1.119,0-2.027-0.479-2.724-1.44
		c-0.697-0.96-1.045-2.213-1.045-3.76s0.348-2.8,1.045-3.761c0.697-0.96,1.605-1.44,2.724-1.44c1.119,0,2.027,0.48,2.724,1.44
		c0.696,0.96,1.045,2.214,1.045,3.761S47.482,35.285,46.786,36.245z M44.062,28.453c-0.801,0-1.418,0.368-1.851,1.103
		c-0.434,0.735-0.65,1.712-0.65,2.93s0.217,2.194,0.65,2.929c0.433,0.735,1.05,1.103,1.851,1.103c0.79,0,1.404-0.37,1.843-1.111
		c0.439-0.74,0.659-1.714,0.659-2.921s-0.22-2.181-0.659-2.921C45.466,28.823,44.852,28.453,44.062,28.453z"/>
	<path style="fill:#808285;" d="M48.777,37.364c-0.17-0.17-0.255-0.381-0.255-0.634c0-0.252,0.084-0.466,0.255-0.642
		c0.17-0.175,0.381-0.263,0.634-0.263c0.241,0,0.447,0.088,0.617,0.263c0.17,0.176,0.255,0.39,0.255,0.642
		c0,0.253-0.085,0.464-0.255,0.634c-0.17,0.17-0.375,0.255-0.617,0.255C49.158,37.62,48.947,37.535,48.777,37.364z"/>
	<path style="fill:#808285;" d="M54.134,27.416v10.121h-1.267v-8.558l-2.501,1.284v-1.317l2.995-1.53H54.134z"/>
</g>
<g>
	<rect x="19.31" y="103.967" style="fill:none;" width="24.327" height="17.829"/>
	<path style="fill:#808285;" d="M24.631,108.52c0.448,0.119,0.813,0.361,1.097,0.727c0.283,0.366,0.425,0.787,0.425,1.262
		c0,0.759-0.247,1.344-0.74,1.755s-1.18,0.617-2.057,0.617h-3.045v-8.42h2.771c0.877,0,1.561,0.192,2.05,0.576
		c0.489,0.384,0.734,0.938,0.734,1.66c0,0.476-0.117,0.871-0.35,1.186C25.282,108.197,24.987,108.41,24.631,108.52z M21.367,108.122
		h1.714c1.161,0,1.742-0.457,1.742-1.372c0-0.896-0.581-1.344-1.742-1.344h-1.714V108.122z M21.367,109.027v2.907h1.989
		c0.558,0,0.987-0.13,1.289-0.391c0.302-0.261,0.453-0.615,0.453-1.063c0-0.457-0.151-0.814-0.453-1.07s-0.731-0.384-1.289-0.384
		H21.367z"/>
</g>
<rect x="9.5" y="119.053" style="fill:none;stroke:#808285;stroke-miterlimit:10;" width="101.832" height="31.543"/>
<line style="fill:none;stroke:#808285;stroke-miterlimit:10;" x1="74.13" y1="118.819" x2="74.13" y2="151.283"/>
<line style="fill:none;stroke:#808285;stroke-miterlimit:10;" x1="38.151" y1="118.819" x2="38.151" y2="151.283"/>
<g>
	<rect x="52.014" y="103.967" style="fill:none;" width="24.327" height="17.829"/>
	<path style="fill:#808285;" d="M55.593,109.315h-1.495v3.566h-1.083v-8.42h3.127c0.859,0,1.534,0.21,2.023,0.631
		s0.734,1.024,0.734,1.81c0,0.686-0.188,1.23-0.562,1.632c-0.375,0.403-0.9,0.649-1.577,0.741l2.482,3.607h-1.234L55.593,109.315z
		 M54.098,105.407v2.99h2.016c0.548,0,0.971-0.133,1.269-0.398c0.297-0.265,0.446-0.631,0.446-1.097s-0.149-0.832-0.446-1.097
		c-0.297-0.265-0.72-0.397-1.269-0.397H54.098z"/>
</g>
<g>
	<rect x="80.978" y="103.967" style="fill:none;" width="49.913" height="17.829"/>
	<path style="fill:#808285;" d="M85.133,109.507h-2.071v3.374h-1.083v-8.42h3.154c0.869,0,1.547,0.217,2.037,0.651
		s0.734,1.058,0.734,1.872c0,0.813-0.247,1.438-0.741,1.872C86.669,109.29,85.992,109.507,85.133,109.507z M86.833,106.984
		c0-0.494-0.148-0.88-0.446-1.159c-0.297-0.279-0.725-0.418-1.282-0.418h-2.043v3.141h2.043c0.558,0,0.985-0.14,1.282-0.418
		C86.685,107.85,86.833,107.468,86.833,106.984z"/>
	<path style="fill:#808285;" d="M89.748,112.236c-0.663-0.905-0.994-1.984-0.994-3.237c0-1.252,0.331-2.331,0.994-3.236
		c0.663-0.905,1.557-1.504,2.681-1.797v1.097c-0.768,0.192-1.401,0.64-1.899,1.344c-0.499,0.704-0.748,1.568-0.748,2.592
		c0,1.024,0.249,1.888,0.748,2.592c0.498,0.704,1.131,1.152,1.899,1.344v1.097C91.304,113.74,90.41,113.142,89.748,112.236z"/>
	<path style="fill:#808285;" d="M93.745,112.881v-8.42h2.702c1.234,0,2.224,0.382,2.969,1.145s1.118,1.785,1.118,3.065
		c0,1.28-0.373,2.302-1.118,3.065s-1.735,1.145-2.969,1.145H93.745z M94.829,111.907h1.604c0.951,0,1.694-0.29,2.229-0.871
		c0.535-0.581,0.802-1.369,0.802-2.366c0-0.996-0.27-1.787-0.809-2.373c-0.54-0.585-1.28-0.877-2.222-0.877h-1.604V111.907z"/>
	<path style="fill:#808285;" d="M103.942,105.763c0.663,0.905,0.994,1.984,0.994,3.236c0,1.253-0.332,2.332-0.994,3.237
		c-0.663,0.905-1.557,1.504-2.681,1.796v-1.097c0.768-0.192,1.401-0.64,1.899-1.344c0.498-0.704,0.748-1.568,0.748-2.592
		c0-1.023-0.25-1.888-0.748-2.592c-0.499-0.704-1.131-1.152-1.899-1.344v-1.097C102.386,104.259,103.279,104.858,103.942,105.763z"
		/>
</g>
<g>
	<rect x="19.31" y="130.112" style="fill:none;" width="24.327" height="17.829"/>
	<path style="fill:#808285;" d="M21.394,139.026h-1.083v-8.42h5.143v0.96h-4.06v2.838h3.812v0.96h-3.812V139.026z"/>
</g>
<g>
	<rect x="53.386" y="130.112" style="fill:none;" width="24.327" height="17.829"/>
	<path style="fill:#808285;" d="M55.47,139.026h-1.083v-8.42h5.143v0.96h-4.06v2.838h3.812v0.96H55.47V139.026z"/>
</g>
<rect x="9.5" y="150.597" style="fill:none;stroke:#808285;stroke-miterlimit:10;" width="101.832" height="32.229"/>
<line style="fill:none;stroke:#808285;stroke-miterlimit:10;" x1="74.13" y1="150.362" x2="74.13" y2="182.826"/>
<line style="fill:none;stroke:#808285;stroke-miterlimit:10;" x1="38.151" y1="150.362" x2="38.151" y2="182.826"/>
<g>
	<rect x="19.31" y="161.655" style="fill:none;" width="24.327" height="17.829"/>
	<path style="fill:#808285;" d="M19.721,163.108v-0.96h6.953v0.96h-2.935v7.461h-1.083v-7.461H19.721z"/>
</g>
<g>
	<rect x="53.386" y="161.655" style="fill:none;" width="24.327" height="17.829"/>
	<path style="fill:#808285;" d="M55.47,170.569h-1.083v-8.421h5.143v0.96h-4.06v2.839h3.812v0.96H55.47V170.569z"/>
</g>
<rect x="9.5" y="182.826" style="fill:none;stroke:#808285;stroke-miterlimit:10;" width="101.832" height="32.814"/>
<line style="fill:none;stroke:#808285;stroke-miterlimit:10;" x1="74.13" y1="183.178" x2="74.13" y2="215.641"/>
<line style="fill:none;stroke:#808285;stroke-miterlimit:10;" x1="38.151" y1="183.178" x2="38.151" y2="215.641"/>
<g>
	<rect x="19.31" y="194.471" style="fill:none;" width="24.327" height="17.829"/>
	<path style="fill:#808285;" d="M21.394,203.385h-1.083v-8.421h5.143v0.96h-4.06v2.839h3.812v0.96h-3.812V203.385z"/>
</g>
<g>
	<rect x="53.386" y="194.471" style="fill:none;" width="24.327" height="17.829"/>
	<path style="fill:#808285;" d="M53.797,195.924v-0.96h6.953v0.96h-2.935v7.461h-1.083v-7.461H53.797z"/>
</g>
<rect x="9.5" y="215.641" style="fill:none;stroke:#808285;stroke-miterlimit:10;" width="101.832" height="31.543"/>
<line style="fill:none;stroke:#808285;stroke-miterlimit:10;" x1="74.13" y1="214.721" x2="74.13" y2="247.184"/>
<line style="fill:none;stroke:#808285;stroke-miterlimit:10;" x1="38.151" y1="214.721" x2="38.151" y2="247.184"/>
<g>
	<rect x="19.31" y="226.014" style="fill:none;" width="24.327" height="17.829"/>
	<path style="fill:#808285;" d="M19.721,227.467v-0.96h6.953v0.96h-2.935v7.461h-1.083v-7.461H19.721z"/>
</g>
<g>
	<rect x="53.386" y="226.014" style="fill:none;" width="24.327" height="17.829"/>
	<path style="fill:#808285;" d="M53.797,227.467v-0.96h6.953v0.96h-2.935v7.461h-1.083v-7.461H53.797z"/>
</g>
<g>
	<rect x="73.812" y="128.436" style="fill:none;" width="37.249" height="25.371"/>
	<path style="fill:#808285;" d="M91.72,137.841c-0.697,0.96-1.605,1.44-2.724,1.44c-1.119,0-2.027-0.48-2.724-1.44
		s-1.045-2.214-1.045-3.76c0-1.547,0.348-2.8,1.045-3.761c0.697-0.96,1.605-1.44,2.724-1.44c1.119,0,2.027,0.48,2.724,1.44
		c0.696,0.96,1.045,2.214,1.045,3.761C92.765,135.627,92.417,136.881,91.72,137.841z M88.996,130.048
		c-0.801,0-1.418,0.368-1.851,1.103c-0.434,0.735-0.65,1.712-0.65,2.93c0,1.217,0.217,2.195,0.65,2.929
		c0.433,0.735,1.05,1.103,1.851,1.103c0.79,0,1.404-0.37,1.843-1.11c0.439-0.741,0.659-1.715,0.659-2.921
		c0-1.207-0.22-2.181-0.659-2.921C90.4,130.419,89.786,130.048,88.996,130.048z"/>
	<path style="fill:#808285;" d="M93.711,138.96c-0.17-0.17-0.255-0.381-0.255-0.634c0-0.252,0.084-0.466,0.255-0.642
		c0.17-0.176,0.381-0.264,0.634-0.264c0.241,0,0.447,0.088,0.617,0.264c0.17,0.176,0.255,0.39,0.255,0.642
		c0,0.253-0.085,0.464-0.255,0.634c-0.17,0.17-0.375,0.255-0.617,0.255C94.092,139.215,93.881,139.13,93.711,138.96z"/>
	<path style="fill:#808285;" d="M99.068,129.012v10.121h-1.267v-8.558l-2.501,1.284v-1.317l2.995-1.53H99.068z"/>
</g>
<g>
	<rect x="74.131" y="161.655" style="fill:none;" width="36.93" height="25.371"/>
	<path style="fill:#808285;" d="M88.481,162.231v10.121h-1.267v-8.558l-2.501,1.283v-1.316l2.995-1.53H88.481z"/>
	<path style="fill:#808285;" d="M90.498,172.18c-0.17-0.17-0.255-0.381-0.255-0.634c0-0.252,0.084-0.466,0.255-0.642
		c0.17-0.176,0.381-0.264,0.634-0.264c0.241,0,0.447,0.088,0.617,0.264c0.17,0.176,0.255,0.39,0.255,0.642
		c0,0.253-0.085,0.464-0.255,0.634c-0.17,0.17-0.375,0.255-0.617,0.255C90.878,172.435,90.667,172.35,90.498,172.18z"/>
	<path style="fill:#808285;" d="M99.187,171.061c-0.697,0.96-1.605,1.44-2.724,1.44c-1.119,0-2.027-0.48-2.724-1.44
		s-1.045-2.214-1.045-3.761s0.348-2.8,1.045-3.76s1.605-1.44,2.724-1.44c1.119,0,2.027,0.48,2.724,1.44
		c0.696,0.96,1.045,2.213,1.045,3.76S99.883,170.101,99.187,171.061z M96.463,163.269c-0.801,0-1.418,0.367-1.851,1.103
		c-0.434,0.734-0.65,1.711-0.65,2.929s0.217,2.195,0.65,2.93c0.433,0.735,1.05,1.103,1.851,1.103c0.79,0,1.404-0.37,1.843-1.11
		c0.439-0.741,0.659-1.715,0.659-2.922c0-1.206-0.22-2.181-0.659-2.921S97.253,163.269,96.463,163.269z"/>
</g>
<g>
	<rect x="73.812" y="226.014" style="fill:none;" width="37.249" height="25.372"/>
	<path style="fill:#808285;" d="M88.322,226.59v10.121h-1.267v-8.558l-2.501,1.283v-1.316l2.995-1.53H88.322z"/>
	<path style="fill:#808285;" d="M90.338,236.538c-0.17-0.17-0.255-0.381-0.255-0.634c0-0.252,0.084-0.466,0.255-0.642
		c0.17-0.176,0.381-0.264,0.634-0.264c0.241,0,0.447,0.088,0.617,0.264c0.17,0.176,0.255,0.39,0.255,0.642
		c0,0.253-0.085,0.464-0.255,0.634c-0.17,0.17-0.375,0.255-0.617,0.255C90.719,236.793,90.508,236.708,90.338,236.538z"/>
	<path style="fill:#808285;" d="M99.027,235.419c-0.697,0.96-1.605,1.44-2.724,1.44c-1.119,0-2.027-0.48-2.724-1.44
		s-1.045-2.214-1.045-3.761s0.348-2.8,1.045-3.76s1.605-1.44,2.724-1.44c1.119,0,2.027,0.48,2.724,1.44
		c0.696,0.96,1.045,2.213,1.045,3.76S99.724,234.459,99.027,235.419z M96.303,227.627c-0.801,0-1.418,0.367-1.851,1.103
		c-0.434,0.734-0.65,1.711-0.65,2.929s0.217,2.195,0.65,2.93c0.433,0.735,1.05,1.103,1.851,1.103c0.79,0,1.404-0.37,1.843-1.11
		c0.439-0.741,0.659-1.715,0.659-2.922c0-1.206-0.22-2.181-0.659-2.921S97.093,227.627,96.303,227.627z"/>
</g>
<g>
	<rect x="74.131" y="194.471" style="fill:none;" width="36.93" height="16.441"/>
	<path style="fill:#808285;" d="M90.358,203.876c-0.697,0.96-1.605,1.44-2.724,1.44c-1.119,0-2.027-0.48-2.724-1.44
		s-1.045-2.214-1.045-3.761s0.348-2.8,1.045-3.76s1.605-1.44,2.724-1.44c1.119,0,2.027,0.48,2.724,1.44
		c0.696,0.96,1.045,2.213,1.045,3.76S91.054,202.916,90.358,203.876z M87.634,196.084c-0.801,0-1.418,0.367-1.851,1.103
		c-0.434,0.734-0.65,1.711-0.65,2.929s0.217,2.195,0.65,2.93c0.433,0.735,1.05,1.103,1.851,1.103c0.79,0,1.404-0.37,1.843-1.11
		c0.439-0.741,0.659-1.715,0.659-2.922c0-1.206-0.22-2.181-0.659-2.921S88.424,196.084,87.634,196.084z"/>
	<path style="fill:#808285;" d="M92.349,204.995c-0.17-0.17-0.255-0.381-0.255-0.634c0-0.252,0.084-0.466,0.255-0.642
		c0.17-0.176,0.381-0.264,0.634-0.264c0.241,0,0.447,0.088,0.617,0.264c0.17,0.176,0.255,0.39,0.255,0.642
		c0,0.253-0.085,0.464-0.255,0.634c-0.17,0.17-0.375,0.255-0.617,0.255C92.73,205.25,92.519,205.165,92.349,204.995z"/>
	<path style="fill:#808285;" d="M98.167,199.737c-0.713,0-1.311,0.291-1.794,0.872h-1.021v-5.546h5.53v1.151h-4.443v3.045
		c0.472-0.428,1.086-0.642,1.843-0.642c0.932,0,1.695,0.315,2.288,0.946c0.592,0.631,0.889,1.435,0.889,2.411
		c0,0.954-0.307,1.75-0.922,2.386c-0.614,0.637-1.398,0.955-2.353,0.955c-0.966,0-1.756-0.269-2.37-0.807
		c-0.614-0.537-0.982-1.278-1.103-2.222h1.267c0.23,1.272,0.965,1.909,2.206,1.909c0.603,0,1.097-0.211,1.481-0.634
		c0.384-0.422,0.576-0.952,0.576-1.588c0-0.637-0.192-1.169-0.576-1.597C99.28,199.951,98.781,199.737,98.167,199.737z"/>
</g>
<line style="fill:none;stroke:#808285;stroke-miterlimit:10;" x1="196.793" y1="204.686" x2="196.793" y2="237.15"/>
<g>
	<rect x="174.677" y="189.834" style="fill:none;" width="24.327" height="17.829"/>
	<path style="fill:#808285;" d="M175.678,198.748v-8.421h2.701c1.234,0,2.225,0.382,2.97,1.146s1.117,1.785,1.117,3.065
		s-0.372,2.302-1.117,3.064c-0.745,0.764-1.735,1.146-2.97,1.146H175.678z M176.761,197.774h1.604c0.951,0,1.694-0.29,2.229-0.871
		c0.534-0.58,0.802-1.369,0.802-2.365c0-0.997-0.27-1.788-0.809-2.373c-0.54-0.585-1.28-0.878-2.223-0.878h-1.604V197.774z"/>
</g>
<g>
	<rect x="203.641" y="189.834" style="fill:none;" width="49.912" height="17.829"/>
	<path style="fill:#808285;" d="M207.796,195.374h-2.07v3.374h-1.084v-8.421h3.154c0.869,0,1.548,0.218,2.037,0.651
		c0.488,0.435,0.733,1.059,0.733,1.872c0,0.814-0.247,1.438-0.74,1.872C209.332,195.157,208.655,195.374,207.796,195.374z
		 M209.497,192.851c0-0.493-0.149-0.88-0.446-1.158c-0.297-0.279-0.725-0.419-1.282-0.419h-2.043v3.141h2.043
		c0.558,0,0.985-0.139,1.282-0.418S209.497,193.336,209.497,192.851z"/>
	<path style="fill:#808285;" d="M212.41,198.104c-0.662-0.905-0.994-1.984-0.994-3.236c0-1.253,0.332-2.332,0.994-3.237
		c0.663-0.904,1.557-1.504,2.682-1.796v1.097c-0.768,0.192-1.401,0.641-1.899,1.344c-0.498,0.705-0.747,1.568-0.747,2.593
		c0,1.023,0.249,1.888,0.747,2.592s1.132,1.152,1.899,1.344v1.098C213.967,199.607,213.073,199.009,212.41,198.104z"/>
	<path style="fill:#808285;" d="M219.562,195.374h-2.07v3.374h-1.084v-8.421h3.154c0.869,0,1.548,0.218,2.037,0.651
		c0.488,0.435,0.733,1.059,0.733,1.872c0,0.814-0.247,1.438-0.74,1.872C221.099,195.157,220.422,195.374,219.562,195.374z
		 M221.264,192.851c0-0.493-0.149-0.88-0.446-1.158c-0.297-0.279-0.725-0.419-1.282-0.419h-2.043v3.141h2.043
		c0.558,0,0.985-0.139,1.282-0.418S221.264,193.336,221.264,192.851z"/>
	<path style="fill:#808285;" d="M225.769,191.63c0.662,0.905,0.994,1.984,0.994,3.237c0,1.252-0.332,2.331-0.994,3.236
		c-0.663,0.905-1.557,1.504-2.682,1.797v-1.098c0.768-0.191,1.401-0.64,1.899-1.344s0.747-1.568,0.747-2.592
		c0-1.024-0.249-1.888-0.747-2.593c-0.498-0.703-1.132-1.151-1.899-1.344v-1.097C224.212,190.126,225.105,190.726,225.769,191.63z"
		/>
</g>
<g>
	<rect x="176.049" y="215.98" style="fill:none;" width="24.326" height="17.827"/>
	<path style="fill:#808285;" d="M178.133,224.895h-1.083v-8.421h5.143v0.96h-4.06v2.839h3.812v0.96h-3.812V224.895z"/>
</g>
<line style="fill:none;stroke:#808285;stroke-miterlimit:10;" x1="196.793" y1="236.23" x2="196.793" y2="268.693"/>
<g>
	<rect x="176.049" y="247.522" style="fill:none;" width="24.326" height="17.829"/>
	<path style="fill:#808285;" d="M176.46,248.976v-0.96h6.953v0.96h-2.935v7.461h-1.084v-7.461H176.46z"/>
</g>
<g>
	<rect x="195.529" y="214.303" style="fill:none;" width="38.195" height="25.371"/>
	<path style="fill:#808285;" d="M207.188,224.827c-0.17-0.17-0.255-0.381-0.255-0.634c0-0.252,0.085-0.466,0.255-0.642
		c0.171-0.176,0.382-0.264,0.634-0.264c0.241,0,0.447,0.088,0.617,0.264s0.255,0.39,0.255,0.642c0,0.253-0.085,0.464-0.255,0.634
		s-0.376,0.255-0.617,0.255C207.569,225.082,207.358,224.997,207.188,224.827z"/>
	<path style="fill:#808285;" d="M215.877,223.708c-0.696,0.96-1.604,1.44-2.724,1.44s-2.026-0.48-2.724-1.44
		c-0.696-0.96-1.045-2.214-1.045-3.761s0.349-2.8,1.045-3.76c0.697-0.96,1.604-1.44,2.724-1.44s2.027,0.48,2.724,1.44
		c0.697,0.96,1.045,2.213,1.045,3.76S216.574,222.748,215.877,223.708z M213.153,215.916c-0.801,0-1.418,0.367-1.852,1.103
		c-0.434,0.734-0.649,1.711-0.649,2.929s0.216,2.195,0.649,2.93c0.434,0.735,1.051,1.103,1.852,1.103c0.79,0,1.404-0.37,1.844-1.11
		c0.438-0.741,0.658-1.715,0.658-2.922c0-1.206-0.22-2.181-0.658-2.921C214.558,216.286,213.943,215.916,213.153,215.916z"/>
	<path style="fill:#808285;" d="M221.612,214.879V225h-1.267v-8.558l-2.502,1.283v-1.316l2.995-1.53H221.612z"/>
</g>
<g>
	<rect x="197.404" y="247.522" style="fill:none;" width="36.32" height="25.371"/>
	<path style="fill:#808285;" d="M214.849,256.928c-0.696,0.96-1.604,1.44-2.724,1.44s-2.026-0.48-2.724-1.44
		c-0.696-0.96-1.045-2.214-1.045-3.761s0.349-2.8,1.045-3.76c0.697-0.96,1.604-1.44,2.724-1.44s2.027,0.48,2.724,1.44
		c0.697,0.96,1.045,2.213,1.045,3.76S215.546,255.968,214.849,256.928z M212.125,249.136c-0.801,0-1.418,0.367-1.852,1.103
		c-0.434,0.734-0.649,1.711-0.649,2.929s0.216,2.195,0.649,2.93c0.434,0.735,1.051,1.103,1.852,1.103c0.79,0,1.404-0.37,1.844-1.11
		c0.438-0.741,0.658-1.715,0.658-2.922c0-1.206-0.22-2.181-0.658-2.921C213.529,249.506,212.915,249.136,212.125,249.136z"/>
	<path style="fill:#808285;" d="M216.839,258.047c-0.17-0.17-0.255-0.381-0.255-0.634c0-0.252,0.085-0.466,0.255-0.642
		c0.171-0.176,0.382-0.264,0.634-0.264c0.241,0,0.447,0.088,0.617,0.264s0.255,0.39,0.255,0.642c0,0.253-0.085,0.464-0.255,0.634
		s-0.376,0.255-0.617,0.255C217.221,258.302,217.01,258.217,216.839,258.047z"/>
	<path style="fill:#808285;" d="M222.196,248.099v10.121h-1.267v-8.558l-2.502,1.283v-1.316l2.995-1.53H222.196z"/>
</g>
<rect x="160.814" y="204.921" style="fill:none;stroke:#808285;stroke-miterlimit:10;" width="73.18" height="31.543"/>
<rect x="160.814" y="236.464" style="fill:none;stroke:#808285;stroke-miterlimit:10;" width="73.18" height="32.229"/>
<g>
	<rect x="282.563" y="95.928" style="fill:none;" width="24.328" height="17.829"/>
	<path style="fill:#808285;" d="M286.143,101.276h-1.494v3.566h-1.084v-8.42h3.127c0.859,0,1.534,0.21,2.023,0.631
		c0.488,0.42,0.733,1.024,0.733,1.81c0,0.686-0.188,1.23-0.562,1.632c-0.375,0.403-0.9,0.649-1.577,0.741l2.482,3.607h-1.234
		L286.143,101.276z M284.648,97.368v2.99h2.016c0.549,0,0.972-0.133,1.269-0.398s0.445-0.631,0.445-1.097s-0.148-0.832-0.445-1.097
		s-0.72-0.397-1.269-0.397H284.648z"/>
</g>
<g>
	<rect x="311.527" y="95.928" style="fill:none;" width="49.912" height="17.829"/>
	<path style="fill:#808285;" d="M315.683,101.468h-2.07v3.374h-1.084v-8.42h3.154c0.869,0,1.548,0.217,2.037,0.651
		c0.488,0.434,0.733,1.058,0.733,1.872c0,0.813-0.247,1.438-0.74,1.872C317.219,101.251,316.542,101.468,315.683,101.468z
		 M317.384,98.945c0-0.494-0.149-0.88-0.446-1.159c-0.297-0.279-0.725-0.418-1.282-0.418h-2.043v3.141h2.043
		c0.558,0,0.985-0.14,1.282-0.418S317.384,99.429,317.384,98.945z"/>
	<path style="fill:#808285;" d="M320.297,104.197c-0.662-0.905-0.994-1.984-0.994-3.237c0-1.252,0.332-2.331,0.994-3.236
		c0.663-0.905,1.557-1.504,2.682-1.797v1.097c-0.768,0.192-1.401,0.64-1.899,1.344s-0.747,1.568-0.747,2.592
		c0,1.024,0.249,1.888,0.747,2.592s1.132,1.152,1.899,1.344v1.097C321.854,105.701,320.96,105.103,320.297,104.197z"/>
	<path style="fill:#808285;" d="M323.801,97.381v-0.96h6.953v0.96h-2.935v7.46h-1.083v-7.46H323.801z"/>
	<path style="fill:#808285;" d="M334.258,97.724c0.662,0.905,0.994,1.984,0.994,3.236c0,1.253-0.332,2.332-0.994,3.237
		c-0.663,0.905-1.557,1.504-2.682,1.796v-1.097c0.768-0.192,1.401-0.64,1.899-1.344s0.747-1.568,0.747-2.592
		c0-1.023-0.249-1.888-0.747-2.592s-1.132-1.152-1.899-1.344v-1.097C332.701,96.22,333.595,96.819,334.258,97.724z"/>
</g>
<g>
	<rect x="283.935" y="122.073" style="fill:none;" width="24.327" height="17.829"/>
	<path style="fill:#808285;" d="M286.02,130.987h-1.084v-8.42h5.143v0.96h-4.059v2.839h3.812v0.96h-3.812V130.987z"/>
</g>
<g>
	<rect x="283.935" y="153.616" style="fill:none;" width="24.327" height="17.829"/>
	<path style="fill:#808285;" d="M284.346,155.069v-0.96h6.953v0.96h-2.935v7.461h-1.083v-7.461H284.346z"/>
</g>
<g>
	<rect x="305.119" y="121.451" style="fill:none;" width="36.491" height="25.372"/>
	<path style="fill:#808285;" d="M311.499,131.976c-0.17-0.17-0.255-0.381-0.255-0.634c0-0.252,0.085-0.466,0.255-0.642
		c0.171-0.175,0.382-0.263,0.634-0.263c0.241,0,0.447,0.088,0.617,0.263c0.17,0.176,0.255,0.39,0.255,0.642
		c0,0.253-0.085,0.464-0.255,0.634c-0.17,0.17-0.376,0.255-0.617,0.255C311.881,132.231,311.67,132.146,311.499,131.976z"/>
	<path style="fill:#808285;" d="M320.188,130.856c-0.696,0.96-1.604,1.44-2.724,1.44s-2.026-0.479-2.724-1.44
		c-0.696-0.96-1.045-2.213-1.045-3.76s0.349-2.8,1.045-3.761c0.697-0.96,1.604-1.44,2.724-1.44s2.027,0.48,2.724,1.44
		c0.697,0.96,1.045,2.214,1.045,3.761S320.886,129.896,320.188,130.856z M317.465,123.064c-0.801,0-1.418,0.368-1.852,1.103
		c-0.434,0.735-0.649,1.712-0.649,2.93s0.216,2.194,0.649,2.929c0.434,0.735,1.051,1.103,1.852,1.103c0.79,0,1.404-0.37,1.844-1.111
		c0.438-0.74,0.658-1.714,0.658-2.921s-0.22-2.181-0.658-2.921C318.869,123.435,318.255,123.064,317.465,123.064z"/>
	<path style="fill:#808285;" d="M329.042,130.856c-0.696,0.96-1.604,1.44-2.724,1.44s-2.026-0.479-2.724-1.44
		c-0.696-0.96-1.045-2.213-1.045-3.76s0.349-2.8,1.045-3.761c0.697-0.96,1.604-1.44,2.724-1.44s2.027,0.48,2.724,1.44
		c0.697,0.96,1.045,2.214,1.045,3.761S329.739,129.896,329.042,130.856z M326.318,123.064c-0.801,0-1.418,0.368-1.852,1.103
		c-0.434,0.735-0.649,1.712-0.649,2.93s0.216,2.194,0.649,2.929c0.434,0.735,1.051,1.103,1.852,1.103c0.79,0,1.404-0.37,1.844-1.111
		c0.438-0.74,0.658-1.714,0.658-2.921s-0.22-2.181-0.658-2.921C327.723,123.435,327.108,123.064,326.318,123.064z"/>
	<path style="fill:#808285;" d="M334.777,122.027v10.121h-1.267v-8.558l-2.502,1.284v-1.317l2.995-1.53H334.777z"/>
</g>
<g>
	<rect x="304.353" y="153.616" style="fill:none;" width="37.258" height="25.372"/>
	<path style="fill:#808285;" d="M320.595,163.021c-0.696,0.96-1.604,1.44-2.724,1.44s-2.026-0.48-2.724-1.44
		c-0.696-0.96-1.045-2.214-1.045-3.761s0.349-2.8,1.045-3.76c0.697-0.96,1.604-1.44,2.724-1.44s2.027,0.48,2.724,1.44
		c0.697,0.96,1.045,2.213,1.045,3.76S321.292,162.062,320.595,163.021z M317.871,155.229c-0.801,0-1.418,0.367-1.852,1.103
		c-0.434,0.734-0.649,1.711-0.649,2.929s0.216,2.195,0.649,2.93c0.434,0.735,1.051,1.103,1.852,1.103c0.79,0,1.404-0.37,1.844-1.11
		c0.438-0.741,0.658-1.715,0.658-2.922c0-1.206-0.22-2.181-0.658-2.921C319.275,155.6,318.661,155.229,317.871,155.229z"/>
	<path style="fill:#808285;" d="M322.585,164.141c-0.17-0.17-0.255-0.381-0.255-0.634c0-0.252,0.085-0.466,0.255-0.642
		c0.171-0.176,0.382-0.264,0.634-0.264c0.241,0,0.447,0.088,0.617,0.264s0.255,0.39,0.255,0.642c0,0.253-0.085,0.464-0.255,0.634
		s-0.376,0.255-0.617,0.255C322.967,164.396,322.756,164.311,322.585,164.141z"/>
	<path style="fill:#808285;" d="M328.503,164.462c-0.987,0-1.808-0.269-2.46-0.807c-0.653-0.537-0.979-1.234-0.979-2.09
		c0-0.637,0.184-1.186,0.552-1.646c0.367-0.46,0.842-0.768,1.423-0.921c-0.482-0.165-0.872-0.45-1.168-0.856
		c-0.297-0.405-0.444-0.877-0.444-1.415c0-0.801,0.293-1.445,0.88-1.934s1.319-0.732,2.197-0.732c0.889,0,1.627,0.244,2.214,0.732
		s0.88,1.133,0.88,1.934c0,0.538-0.15,1.007-0.452,1.407s-0.688,0.688-1.16,0.864c0.57,0.153,1.042,0.461,1.415,0.921
		c0.373,0.461,0.56,1.01,0.56,1.646c0,0.855-0.326,1.553-0.979,2.09C330.327,164.193,329.501,164.462,328.503,164.462z
		 M328.503,163.408c0.647,0,1.177-0.181,1.588-0.543c0.412-0.362,0.617-0.828,0.617-1.398s-0.205-1.034-0.617-1.391
		c-0.411-0.356-0.94-0.535-1.588-0.535c-0.637,0-1.16,0.179-1.571,0.535c-0.412,0.356-0.617,0.82-0.617,1.391
		s0.205,1.036,0.617,1.398C327.343,163.228,327.866,163.408,328.503,163.408z M328.503,158.455c0.537,0,0.981-0.154,1.333-0.461
		c0.352-0.308,0.526-0.708,0.526-1.201c0-0.494-0.175-0.897-0.526-1.21s-0.796-0.469-1.333-0.469c-0.526,0-0.966,0.156-1.316,0.469
		c-0.352,0.312-0.526,0.716-0.526,1.21c0,0.482,0.175,0.88,0.526,1.192C327.537,158.299,327.977,158.455,328.503,158.455z"/>
</g>
<g>
	<line style="fill:none;stroke:#808285;stroke-miterlimit:10;" x1="304.68" y1="110.781" x2="304.68" y2="143.244"/>
	<line style="fill:none;stroke:#808285;stroke-miterlimit:10;" x1="304.68" y1="142.323" x2="304.68" y2="174.787"/>
	<rect x="268.701" y="111.015" style="fill:none;stroke:#808285;stroke-miterlimit:10;" width="73.181" height="31.543"/>
	<rect x="268.701" y="142.559" style="fill:none;stroke:#808285;stroke-miterlimit:10;" width="73.181" height="32.229"/>
</g>
<g>
</g>
<g>
	<circle style="fill:#FFFFFF;stroke:#231F20;stroke-width:0.75;stroke-miterlimit:10;" cx="90.252" cy="59.79" r="18.189"/>
	<circle style="fill:#FFFFFF;stroke:#231F20;stroke-width:0.75;stroke-miterlimit:10;" cx="138.973" cy="124.72" r="18.189"/>
	<circle style="fill:#FFFFFF;stroke:#231F20;stroke-width:0.75;stroke-miterlimit:10;" cx="188.996" cy="59.79" r="18.189"/>
	<circle style="fill:#FFFFFF;stroke:#231F20;stroke-width:0.75;stroke-miterlimit:10;" cx="138.973" cy="198.777" r="18.189"/>
	<circle style="fill:#FFFFFF;stroke:#231F20;stroke-width:0.75;stroke-miterlimit:10;" cx="241.11" cy="123.998" r="18.189"/>
</g>
<g>
	<g>
		<rect x="80.147" y="51.057" style="fill:none;" width="20.21" height="24.25"/>
		<path style="fill:#231F20;" d="M93.139,59.108c0.792,0.21,1.438,0.639,1.94,1.285c0.501,0.647,0.752,1.391,0.752,2.231
			c0,1.342-0.437,2.376-1.31,3.104s-2.086,1.091-3.638,1.091H85.5V51.93h4.898c1.552,0,2.761,0.339,3.625,1.019
			c0.865,0.679,1.298,1.657,1.298,2.934c0,0.841-0.207,1.54-0.619,2.098C94.291,58.538,93.769,58.914,93.139,59.108z M87.367,58.405
			h3.031c2.053,0,3.08-0.809,3.08-2.425c0-1.584-1.027-2.376-3.08-2.376h-3.031V58.405z M87.367,60.005v5.141h3.517
			c0.986,0,1.746-0.23,2.279-0.691c0.534-0.461,0.8-1.087,0.8-1.88c0-0.808-0.267-1.438-0.8-1.892
			c-0.533-0.452-1.293-0.679-2.279-0.679H87.367z"/>
	</g>
	<g>
		<rect x="128.869" y="115.984" style="fill:none;" width="20.208" height="24.253"/>
		<path style="fill:#231F20;" d="M133.408,131.748v-14.89h4.777c2.183,0,3.933,0.675,5.25,2.025c1.317,1.35,1.977,3.157,1.977,5.42
			c0,2.264-0.659,4.071-1.977,5.42c-1.318,1.35-3.068,2.025-5.25,2.025H133.408z M135.323,130.026h2.837
			c1.682,0,2.995-0.513,3.941-1.54c0.946-1.026,1.419-2.421,1.419-4.184c0-1.762-0.477-3.161-1.431-4.195s-2.264-1.552-3.929-1.552
			h-2.837V130.026z"/>
	</g>
	<g>
		<rect x="178.892" y="51.057" style="fill:none;" width="20.208" height="24.25"/>
		<path style="fill:#231F20;" d="M188.631,60.515h-2.643v6.305h-1.916V51.93h5.529c1.52,0,2.713,0.372,3.578,1.115
			c0.863,0.744,1.297,1.811,1.297,3.201c0,1.213-0.332,2.175-0.994,2.886c-0.664,0.711-1.594,1.148-2.789,1.31l4.389,6.378H192.9
			L188.631,60.515z M185.988,53.603v5.287h3.564c0.971,0,1.719-0.234,2.244-0.703s0.787-1.116,0.787-1.94
			c0-0.824-0.262-1.471-0.787-1.94c-0.525-0.469-1.273-0.703-2.244-0.703H185.988z"/>
	</g>
	<g>
		<rect x="128.869" y="190.043" style="fill:none;" width="20.208" height="24.252"/>
		<path style="fill:#231F20;" d="M139.81,199.84h-3.662v5.966h-1.916v-14.891h5.578c1.536,0,2.736,0.385,3.601,1.152
			s1.298,1.871,1.298,3.311c0,1.438-0.437,2.542-1.31,3.31C142.526,199.456,141.33,199.84,139.81,199.84z M142.817,195.378
			c0-0.873-0.263-1.557-0.789-2.05s-1.281-0.739-2.267-0.739h-3.614v5.554h3.614c0.986,0,1.742-0.247,2.267-0.74
			S142.817,196.234,142.817,195.378z"/>
	</g>
	<g>
		<rect x="231.006" y="115.264" style="fill:none;" width="20.209" height="24.251"/>
		<path style="fill:#231F20;" d="M234.963,117.834v-1.697h12.295v1.697h-5.189v13.193h-1.916v-13.193H234.963z"/>
	</g>
</g>
<g>
</g>
<g>
	<g>
		<g>
			
				<line style="fill:none;stroke:#231F20;stroke-width:0.75;stroke-miterlimit:10;" x1="100.357" y1="73.937" x2="125.989" y2="110.865"/>
			<g>
				<polygon style="fill:#231F20;" points="122.052,110.573 122.212,109.839 125.825,110.629 126.349,106.968 127.092,107.075 
					126.453,111.534 				"/>
			</g>
		</g>
	</g>
	<g>
		<g>
			
				<line style="fill:none;stroke:#231F20;stroke-width:0.75;stroke-miterlimit:10;" x1="178.893" y1="73.937" x2="151.972" y2="110.876"/>
			<g>
				<polygon style="fill:#231F20;" points="150.957,107.061 151.702,106.971 152.141,110.643 155.771,109.937 155.914,110.674 
					151.492,111.533 				"/>
			</g>
		</g>
	</g>
	<g>
		<g>
			
				<line style="fill:none;stroke:#231F20;stroke-width:0.75;stroke-miterlimit:10;" x1="138.973" y1="179.774" x2="138.973" y2="142.909"/>
			<g>
				<polygon style="fill:#231F20;" points="142.041,177.289 141.491,176.777 138.974,179.486 136.456,176.777 135.906,177.289 
					138.974,180.588 				"/>
			</g>
		</g>
	</g>
	<g>
		<g>
			
				<line style="fill:none;stroke:#231F20;stroke-width:0.75;stroke-miterlimit:10;" x1="203.35" y1="70.956" x2="230.654" y2="108.134"/>
			<g>
				<polygon style="fill:#231F20;" points="226.711,107.947 226.851,107.209 230.483,107.903 230.909,104.229 231.655,104.316 
					231.135,108.791 				"/>
			</g>
		</g>
	</g>
</g>
<g>
</g>
<g>
</g>
<g>
</g>
<g>
</g>
<g>
</g>
<g>
</g>
<g>
</g>
</svg>
