<?xml version="1.0" encoding="utf-8" standalone="no"?>
<!DOCTYPE svg PUBLIC "-//W3C//DTD SVG 1.1//EN"
  "http://www.w3.org/Graphics/SVG/1.1/DTD/svg11.dtd">
<!-- Created with matplotlib (http://matplotlib.org/) -->
<svg height="514pt" version="1.1" viewBox="0 0 748 514" width="748pt" xmlns="http://www.w3.org/2000/svg" xmlns:xlink="http://www.w3.org/1999/xlink">
 <defs>
  <style type="text/css">
*{stroke-linecap:butt;stroke-linejoin:round;}
  </style>
 </defs>
 <g id="figure_1">
  <g id="patch_1">
   <path d="
M0 514.8
L748.8 514.8
L748.8 0
L0 0
z
" style="fill:#ffffff;"/>
  </g>
  <g id="axes_1">
   <g id="patch_2">
    <path d="
M93.6 450.45
L673.92 450.45
L673.92 51.48
L93.6 51.48
z
" style="fill:#eaeaf2;"/>
   </g>
   <g id="matplotlib.axis_1">
    <g id="xtick_1">
     <g id="line2d_1">
      <path clip-path="url(#pd831f6c710)" d="
M93.6 450.45
L93.6 51.48" style="fill:none;stroke:#ffffff;stroke-linecap:round;stroke-width:1.3;"/>
     </g>
     <g id="line2d_2">
      <defs>
       <path d="
M0 0
L0 0" id="m56cc5124a0" style="stroke:#262626;stroke-width:1.3;"/>
      </defs>
      <g>
       <use style="fill:#262626;stroke:#262626;stroke-width:1.3;" x="93.6" xlink:href="#m56cc5124a0" y="450.45"/>
      </g>
     </g>
     <g id="line2d_3">
      <g>
       <use style="fill:#262626;stroke:#262626;stroke-width:1.3;" x="93.6" xlink:href="#m56cc5124a0" y="51.48"/>
      </g>
     </g>
     <g id="text_1">
      <!-- −2 -->
      <defs>
       <path d="
M34.0938 44.9062
Q34.0938 49.5938 31.0938 52.4375
Q28.0938 55.2969 23 55.2969
Q17.5938 55.2969 14.5469 51.9375
Q11.5 48.5938 11 43
L2.90625 43
Q3.79688 51.7031 9.1875 57
Q14.5938 62.2969 23 62.2969
Q31.7031 62.2969 36.7031 57.5938
Q41.7031 52.9062 41.7031 45
Q41.7031 43.5938 41.3438 42.0938
Q41 40.5938 40.6406 39.5
Q40.2969 38.4062 39.3438 36.75
Q38.4062 35.0938 37.9062 34.2969
Q37.4062 33.5 35.9062 31.7031
Q34.4062 29.9062 33.9062 29.2969
Q33.4062 28.7031 31.5469 26.6406
Q29.7031 24.5938 29.2969 24.0938
L13.7031 7
L43 7
L43 0
L2.90625 0
L2.90625 5.20312
L22.7031 27
Q27.2031 32 28.7969 33.7969
Q30.4062 35.5938 32.25 38.8906
Q34.0938 42.2031 34.0938 44.9062" id="CalibreRegular-32"/>
       <path d="
M7.29688 26.5938
L7.29688 32.7969
L46.7031 32.7969
L46.7031 26.5938
z
" id="CalibreRegular-2212"/>
      </defs>
      <g style="fill:#262626;" transform="translate(87.1862265625 468.845)scale(0.14300000000000002 -0.14300000000000002)">
       <use xlink:href="#CalibreRegular-2212"/>
       <use x="53.99998474121094" xlink:href="#CalibreRegular-32"/>
      </g>
     </g>
    </g>
    <g id="xtick_2">
     <g id="line2d_4">
      <path clip-path="url(#pd831f6c710)" d="
M176.503 450.45
L176.503 51.48" style="fill:none;stroke:#ffffff;stroke-linecap:round;stroke-width:1.3;"/>
     </g>
     <g id="line2d_5">
      <g>
       <use style="fill:#262626;stroke:#262626;stroke-width:1.3;" x="176.502857143" xlink:href="#m56cc5124a0" y="450.45"/>
      </g>
     </g>
     <g id="line2d_6">
      <g>
       <use style="fill:#262626;stroke:#262626;stroke-width:1.3;" x="176.502857143" xlink:href="#m56cc5124a0" y="51.48"/>
      </g>
     </g>
     <g id="text_2">
      <!-- 0 -->
      <defs>
       <path d="
M49.7969 16.5938
Q37.0938 -0.90625 26.8906 -0.90625
Q16.7031 -0.90625 10.3438 7.84375
Q4 16.5938 4 30.6875
Q4 44.7969 10.3438 53.5469
Q16.7031 62.2969 26.8906 62.2969
Q37.0938 62.2969 43.4375 53.5469
Q49.7969 44.7969 49.7969 30.6875
Q49.7969 16.5938 37.0938 -0.90625
M26.9062 55.2031
Q19.5938 55.2031 15.6406 48.5
Q11.7031 41.7969 11.7031 30.6875
Q11.7031 19.5938 15.6406 12.8906
Q19.5938 6.20312 26.9062 6.20312
Q34.0938 6.20312 38.0938 12.9531
Q42.0938 19.7031 42.0938 30.7031
Q42.0938 41.7031 38.0938 48.4531
Q34.0938 55.2031 26.9062 55.2031" id="CalibreRegular-30"/>
      </defs>
      <g style="fill:#262626;" transform="translate(173.22838058 468.845)scale(0.14300000000000002 -0.14300000000000002)">
       <use xlink:href="#CalibreRegular-30"/>
      </g>
     </g>
    </g>
    <g id="xtick_3">
     <g id="line2d_7">
      <path clip-path="url(#pd831f6c710)" d="
M259.406 450.45
L259.406 51.48" style="fill:none;stroke:#ffffff;stroke-linecap:round;stroke-width:1.3;"/>
     </g>
     <g id="line2d_8">
      <g>
       <use style="fill:#262626;stroke:#262626;stroke-width:1.3;" x="259.405714286" xlink:href="#m56cc5124a0" y="450.45"/>
      </g>
     </g>
     <g id="line2d_9">
      <g>
       <use style="fill:#262626;stroke:#262626;stroke-width:1.3;" x="259.405714286" xlink:href="#m56cc5124a0" y="51.48"/>
      </g>
     </g>
     <g id="text_3">
      <!-- 2 -->
      <g style="fill:#262626;" transform="translate(256.539011161 468.845)scale(0.14300000000000002 -0.14300000000000002)">
       <use xlink:href="#CalibreRegular-32"/>
      </g>
     </g>
    </g>
    <g id="xtick_4">
     <g id="line2d_10">
      <path clip-path="url(#pd831f6c710)" d="
M342.309 450.45
L342.309 51.48" style="fill:none;stroke:#ffffff;stroke-linecap:round;stroke-width:1.3;"/>
     </g>
     <g id="line2d_11">
      <g>
       <use style="fill:#262626;stroke:#262626;stroke-width:1.3;" x="342.308571429" xlink:href="#m56cc5124a0" y="450.45"/>
      </g>
     </g>
     <g id="line2d_12">
      <g>
       <use style="fill:#262626;stroke:#262626;stroke-width:1.3;" x="342.308571429" xlink:href="#m56cc5124a0" y="51.48"/>
      </g>
     </g>
     <g id="text_4">
      <!-- 4 -->
      <defs>
       <path d="
M33.7969 61.4062
L10.9062 20.5
L30.5 20.5
L30.5 35.2969
L37.7969 35.2969
L37.7969 20.5
L48.5938 20.5
L48.5938 13.9062
L37.7969 13.9062
L37.7969 0
L30.5 0
L30.5 13.9062
L2.20312 13.9062
L2.20312 19.5
L25.7969 61.4062
z
" id="CalibreRegular-34"/>
      </defs>
      <g style="fill:#262626;" transform="translate(338.991641741 468.845)scale(0.14300000000000002 -0.14300000000000002)">
       <use xlink:href="#CalibreRegular-34"/>
      </g>
     </g>
    </g>
    <g id="xtick_5">
     <g id="line2d_13">
      <path clip-path="url(#pd831f6c710)" d="
M425.211 450.45
L425.211 51.48" style="fill:none;stroke:#ffffff;stroke-linecap:round;stroke-width:1.3;"/>
     </g>
     <g id="line2d_14">
      <g>
       <use style="fill:#262626;stroke:#262626;stroke-width:1.3;" x="425.211428571" xlink:href="#m56cc5124a0" y="450.45"/>
      </g>
     </g>
     <g id="line2d_15">
      <g>
       <use style="fill:#262626;stroke:#262626;stroke-width:1.3;" x="425.211428571" xlink:href="#m56cc5124a0" y="51.48"/>
      </g>
     </g>
     <g id="text_5">
      <!-- 6 -->
      <defs>
       <path d="
M12.7031 19.5938
Q12.7031 13.5938 16.3906 9.6875
Q20.0938 5.79688 26 5.79688
Q31.7969 5.79688 35.5 9.64062
Q39.2031 13.5 39.2031 19.5938
Q39.2031 25.7031 35.5 29.6406
Q31.7969 33.5938 26 33.5938
Q20.0938 33.5938 16.3906 29.6875
Q12.7031 25.7969 12.7031 19.5938
M45.5938 47.0938
L37.7969 47.0938
Q35 55.7969 26.5 55.7969
Q19.7969 55.7969 15.3906 49.0469
Q11 42.2969 11 32.2969
Q11 32 11.0469 30.9531
Q11.0938 29.9062 11.0938 29.5938
Q12.5938 34.2969 16.8906 37.1875
Q21.2031 40.0938 26.5938 40.0938
Q35.2969 40.0938 40.8906 34.1406
Q46.5 28.2031 46.5 19.7031
Q46.5 11 40.7969 5.04688
Q35.0938 -0.90625 25.9062 -0.90625
Q13.4062 -0.90625 7.59375 10.7969
Q4 18.4062 4 29.5938
Q4 44.4062 10.25 53.3438
Q16.5 62.2969 26.5 62.2969
Q41.7031 62.2969 45.5938 47.0938" id="CalibreRegular-36"/>
      </defs>
      <g style="fill:#262626;" transform="translate(422.172678571 468.845)scale(0.14300000000000002 -0.14300000000000002)">
       <use xlink:href="#CalibreRegular-36"/>
      </g>
     </g>
    </g>
    <g id="xtick_6">
     <g id="line2d_16">
      <path clip-path="url(#pd831f6c710)" d="
M508.114 450.45
L508.114 51.48" style="fill:none;stroke:#ffffff;stroke-linecap:round;stroke-width:1.3;"/>
     </g>
     <g id="line2d_17">
      <g>
       <use style="fill:#262626;stroke:#262626;stroke-width:1.3;" x="508.114285714" xlink:href="#m56cc5124a0" y="450.45"/>
      </g>
     </g>
     <g id="line2d_18">
      <g>
       <use style="fill:#262626;stroke:#262626;stroke-width:1.3;" x="508.114285714" xlink:href="#m56cc5124a0" y="51.48"/>
      </g>
     </g>
     <g id="text_6">
      <!-- 8 -->
      <defs>
       <path d="
M24.2969 5.5
Q30.2031 5.5 33.9531 8.79688
Q37.7031 12.0938 37.7031 17.2969
Q37.7031 22.5 33.9531 25.75
Q30.2031 29 24.2969 29
Q18.5 29 14.75 25.75
Q11 22.5 11 17.2969
Q11 12.0938 14.75 8.79688
Q18.5 5.5 24.2969 5.5
M24.2969 35.5938
Q29.2031 35.5938 32.3906 38.3906
Q35.5938 41.2031 35.5938 45.7031
Q35.5938 50.2031 32.3906 53.0469
Q29.2031 55.9062 24.2969 55.9062
Q19.5 55.9062 16.2969 53.0469
Q13.0938 50.2031 13.0938 45.7031
Q13.0938 41.2969 16.2969 38.4375
Q19.5 35.5938 24.2969 35.5938
M24.2969 -0.90625
Q15.2969 -0.90625 9.34375 4
Q3.40625 8.90625 3.40625 16.7031
Q3.40625 22.5 6.75 26.7031
Q10.0938 30.9062 15.4062 32.2969
Q11 33.7969 8.29688 37.5
Q5.59375 41.2031 5.59375 46.0938
Q5.59375 53.4062 10.9375 57.8438
Q16.2969 62.2969 24.2969 62.2969
Q32.4062 62.2969 37.75 57.8438
Q43.0938 53.4062 43.0938 46.0938
Q43.0938 41.2031 40.3438 37.5469
Q37.5938 33.9062 33.2969 32.2969
Q38.5 30.9062 41.8906 26.7031
Q45.2969 22.5 45.2969 16.7031
Q45.2969 8.90625 39.3438 4
Q33.4062 -0.90625 24.2969 -0.90625" id="CalibreRegular-38"/>
      </defs>
      <g style="fill:#262626;" transform="translate(505.119106027 468.845)scale(0.14300000000000002 -0.14300000000000002)">
       <use xlink:href="#CalibreRegular-38"/>
      </g>
     </g>
    </g>
    <g id="xtick_7">
     <g id="line2d_19">
      <path clip-path="url(#pd831f6c710)" d="
M591.017 450.45
L591.017 51.48" style="fill:none;stroke:#ffffff;stroke-linecap:round;stroke-width:1.3;"/>
     </g>
     <g id="line2d_20">
      <g>
       <use style="fill:#262626;stroke:#262626;stroke-width:1.3;" x="591.017142857" xlink:href="#m56cc5124a0" y="450.45"/>
      </g>
     </g>
     <g id="line2d_21">
      <g>
       <use style="fill:#262626;stroke:#262626;stroke-width:1.3;" x="591.017142857" xlink:href="#m56cc5124a0" y="51.48"/>
      </g>
     </g>
     <g id="text_7">
      <!-- 10 -->
      <defs>
       <path d="
M25.4062 61.5
L25.4062 0
L17.7031 0
L17.7031 52
L2.5 44.2031
L2.5 52.2031
L20.7031 61.5
z
" id="CalibreRegular-31"/>
      </defs>
      <g style="fill:#262626;" transform="translate(585.28261942 468.845)scale(0.14300000000000002 -0.14300000000000002)">
       <use xlink:href="#CalibreRegular-31"/>
       <use x="32.899993896484375" xlink:href="#CalibreRegular-30"/>
      </g>
     </g>
    </g>
    <g id="xtick_8">
     <g id="line2d_22">
      <path clip-path="url(#pd831f6c710)" d="
M673.92 450.45
L673.92 51.48" style="fill:none;stroke:#ffffff;stroke-linecap:round;stroke-width:1.3;"/>
     </g>
     <g id="line2d_23">
      <g>
       <use style="fill:#262626;stroke:#262626;stroke-width:1.3;" x="673.92" xlink:href="#m56cc5124a0" y="450.45"/>
      </g>
     </g>
     <g id="line2d_24">
      <g>
       <use style="fill:#262626;stroke:#262626;stroke-width:1.3;" x="673.92" xlink:href="#m56cc5124a0" y="51.48"/>
      </g>
     </g>
     <g id="text_8">
      <!-- 12 -->
      <g style="fill:#262626;" transform="translate(668.671453125 468.845)scale(0.14300000000000002 -0.14300000000000002)">
       <use xlink:href="#CalibreRegular-31"/>
       <use x="32.899993896484375" xlink:href="#CalibreRegular-32"/>
      </g>
     </g>
    </g>
   </g>
   <g id="matplotlib.axis_2"/>
   <g id="line2d_25">
    <path clip-path="url(#pd831f6c710)" d="
M101.89 449.281
L106.329 448.66
L110.768 447.64
L115.207 446.084
L119.646 443.821
L124.085 440.661
L128.524 436.403
L132.963 430.865
L137.401 423.905
L141.84 415.442
L146.279 405.474
L150.718 394.081
L155.157 381.405
L159.596 367.622
L164.035 352.904
L168.474 337.382
L172.913 321.121
L177.351 304.133
L181.79 286.402
L186.229 267.947
L195.107 229.46
L199.546 210.083
L203.985 191.267
L208.424 173.564
L212.863 157.464
L217.302 143.302
L221.74 131.214
L226.179 121.136
L230.618 112.874
L235.057 106.198
L239.496 100.943
L243.935 97.0827
L248.374 94.7316
L252.813 94.1009
L257.252 95.4058
L261.69 98.7675
L266.129 104.144
L270.568 111.316
L275.007 119.926
L279.446 129.563
L283.885 139.856
L292.763 161.487
L301.64 184.095
L319.396 230.89
L323.835 241.808
L328.274 251.872
L332.713 260.869
L337.152 268.669
L341.591 275.21
L346.029 280.479
L350.468 284.486
L354.907 287.248
L359.346 288.782
L363.785 289.11
L368.224 288.264
L372.663 286.284
L377.102 283.211
L381.541 279.08
L385.979 273.913
L390.418 267.728
L394.857 260.56
L399.296 252.485
L403.735 243.648
L408.174 234.262
L421.491 205.469
L425.929 196.39
L430.368 187.73
L434.807 179.46
L439.246 171.529
L443.685 163.927
L448.124 156.741
L452.563 150.171
L457.002 144.502
L461.441 140.043
L465.88 137.043
L470.318 135.626
L474.757 135.766
L479.196 137.314
L483.635 140.058
L488.074 143.814
L492.513 148.491
L496.952 154.12
L501.391 160.833
L505.83 168.8
L510.268 178.149
L514.707 188.893
L519.146 200.902
L523.585 213.915
L532.463 241.603
L541.341 269.612
L550.218 296.958
L559.096 323.658
L563.535 336.704
L567.974 349.394
L572.413 361.555
L576.852 373
L581.291 383.573
L585.73 393.171
L590.169 401.759
L594.607 409.363
L599.046 416.049
L603.485 421.906
L607.924 427.023
L612.363 431.476
L616.802 435.324
L621.241 438.61
L625.68 441.373
L630.119 443.647
L634.557 445.474
L638.996 446.898
L643.435 447.973
L647.874 448.749
L652.313 449.273
L656.752 449.581
L661.191 449.693
L665.63 449.603
L665.63 449.603" style="fill:none;stroke:#386df9;stroke-linecap:round;stroke-width:2.275;"/>
   </g>
   <g id="patch_3">
    <path d="
M93.6 450.45
L93.6 51.48" style="fill:none;"/>
   </g>
   <g id="patch_4">
    <path d="
M93.6 51.48
L673.92 51.48" style="fill:none;"/>
   </g>
   <g id="patch_5">
    <path d="
M673.92 450.45
L673.92 51.48" style="fill:none;"/>
   </g>
   <g id="patch_6">
    <path d="
M93.6 450.45
L673.92 450.45" style="fill:none;"/>
   </g>
   <g id="text_9">
    <!-- Bimodal -->
    <defs>
     <path d="
M33 45.2969
Q44.2969 32.4062 44.2969 22.2031
Q44.2969 12 38.6406 5.54688
Q33 -0.90625 23.8906 -0.90625
Q14.7969 -0.90625 9.14062 5.54688
Q3.5 12 3.5 22.2031
Q3.5 32.4062 9.14062 38.8438
Q14.7969 45.2969 23.8906 45.2969
Q33 45.2969 44.2969 32.4062
M29.7969 5.70312
Q36.7031 14.7969 36.7031 22.1875
Q36.7031 29.5938 33.25 34.1406
Q29.7969 38.7031 23.8906 38.7031
Q18 38.7031 14.5469 34.1406
Q11.0938 29.5938 11.0938 22.1875
Q11.0938 14.7969 14.5469 10.25
Q18 5.70312 23.8906 5.70312
Q29.7969 5.70312 36.7031 14.7969" id="CalibreRegular-6f"/>
     <path d="
M38.7969 31.7969
Q43.7031 30.5 46.7969 26.5
Q49.9062 22.5 49.9062 17.2969
Q49.9062 9 44.5 4.5
Q39.0938 0 29.5 0
L7.29688 0
L7.29688 61.4062
L27.5 61.4062
Q37.0938 61.4062 42.4375 57.2031
Q47.7969 53 47.7969 45.0938
Q47.7969 39.9062 45.25 36.4531
Q42.7031 33 38.7969 31.7969
M15 34.7031
L27.5 34.7031
Q40.2031 34.7031 40.2031 44.7031
Q40.2031 54.5 27.5 54.5
L15 54.5
z

M15 28.0938
L15 6.90625
L29.5 6.90625
Q35.5938 6.90625 38.8906 9.75
Q42.2031 12.5938 42.2031 17.5
Q42.2031 22.5 38.8906 25.2969
Q35.5938 28.0938 29.5 28.0938
z
" id="CalibreRegular-42"/>
     <path d="
M38.9062 0
L31.7031 0
L31.7031 3.29688
Q30.2969 1.79688 27 0.5
Q23.7031 -0.796875 20 -0.796875
Q13 -0.796875 8.25 3.09375
Q3.5 7 3.5 13.4062
Q3.5 19.5 8.39062 23.3906
Q13.2969 27.2969 20.5 27.2969
Q23.7969 27.2969 27 26.1875
Q30.2031 25.0938 31.7031 23.7031
L31.7031 29.2969
Q31.7031 33.5938 29.1406 36.1875
Q26.5938 38.7969 21.9062 38.7969
Q14.9062 38.7969 12.7969 32.7031
L5.40625 32.7031
Q6.5 38.2969 11.0469 41.7969
Q15.5938 45.2969 22 45.2969
Q29.9062 45.2969 34.4062 41.0938
Q38.9062 36.9062 38.9062 29.5938
z

M31.7031 11
L31.7031 15.5938
Q30.7031 18 27.75 19.5469
Q24.7969 21.0938 21.2969 21.0938
Q16.9062 21.0938 13.7969 19.0938
Q10.7031 17.0938 10.7031 13.4062
Q10.7031 9.59375 13.7969 7.54688
Q16.9062 5.5 21.2969 5.5
Q24.7969 5.5 27.75 7.04688
Q30.7031 8.59375 31.7031 11" id="CalibreRegular-61"/>
     <path d="
M36 0
L36 5.20312
Q34.2031 2.59375 30.7969 0.84375
Q27.4062 -0.90625 23.5 -0.90625
Q14.0938 -0.90625 8.79688 5.6875
Q3.5 12.2969 3.5 22.2031
Q3.5 32 8.79688 38.6406
Q14.0938 45.2969 23.5 45.2969
Q27.4062 45.2969 30.7969 43.5469
Q34.2031 41.7969 36 39.2031
L36 65
L43.5938 65
L43.5938 0
z

M36 13.2031
L36 31.2031
Q34.2969 34.5938 31.25 36.5469
Q28.2031 38.5 24.5938 38.5
Q18.4062 38.5 14.75 33.9531
Q11.0938 29.4062 11.0938 22.2031
Q11.0938 15 14.75 10.4531
Q18.4062 5.90625 24.5938 5.90625
Q28.2031 5.90625 31.25 7.84375
Q34.2969 9.79688 36 13.2031" id="CalibreRegular-64"/>
     <path d="
M38.2031 38.2031
Q43.2031 45.2969 51.7031 45.2969
Q58.4062 45.2969 62.0469 41
Q65.7031 36.7031 65.7031 29.4062
L65.7031 0
L58.0938 0
L58.0938 28.2031
Q58.0938 33 56 35.75
Q53.9062 38.5 49.7031 38.5
Q46.2969 38.5 43.5938 36.3438
Q40.9062 34.2031 39.9062 30.5938
L39.9062 0
L32.4062 0
L32.4062 28.2031
Q32.4062 33 30.2969 35.75
Q28.2031 38.5 24 38.5
Q20.5938 38.5 17.8906 36.3438
Q15.2031 34.2031 14.2031 30.5938
L14.2031 0
L6.70312 0
L6.70312 44.4062
L14.2031 44.4062
L14.2031 39.2031
Q18 45.2969 26.2031 45.2969
Q34.5938 45.2969 38.2031 38.2031" id="CalibreRegular-6d"/>
     <path d="
M14.2031 44.4062
L14.2031 0
L6.70312 0
L6.70312 44.4062
z

M12.4062 62.5938
Q15.2969 59.7969 15.2969 57.7969
Q15.2969 55.7969 13.8438 54.3906
Q12.4062 53 10.4062 53
Q8.40625 53 7 54.3906
Q5.59375 55.7969 5.59375 57.7969
Q5.59375 59.7969 7 61.1875
Q8.40625 62.5938 10.4062 62.5938
Q12.4062 62.5938 15.2969 59.7969" id="CalibreRegular-69"/>
     <path d="
M14.2031 65
L14.2031 0
L6.70312 0
L6.70312 65
z
" id="CalibreRegular-6c"/>
    </defs>
    <g style="fill:#262626;" transform="translate(358.3363875 46.48)scale(0.17160000000000003 -0.17160000000000003)">
     <use xlink:href="#CalibreRegular-42"/>
     <use x="53.79998779296875" xlink:href="#CalibreRegular-69"/>
     <use x="74.69998168945312" xlink:href="#CalibreRegular-6d"/>
     <use x="146.39996337890625" xlink:href="#CalibreRegular-6f"/>
     <use x="194.199951171875" xlink:href="#CalibreRegular-64"/>
     <use x="244.3999481201172" xlink:href="#CalibreRegular-61"/>
     <use x="289.3999328613281" xlink:href="#CalibreRegular-6c"/>
    </g>
   </g>
  </g>
 </g>
 <defs>
  <clipPath id="pd831f6c710">
   <rect height="398.97" width="580.32" x="93.6" y="51.48"/>
  </clipPath>
 </defs>
</svg>
