<svg xmlns="http://www.w3.org/2000/svg" xmlns:xlink="http://www.w3.org/1999/xlink" height="170pt" version="1.1" viewBox="0 0 113 170" width="113pt">
 <defs>
  <clipPath id="p0f992ff093">
   <rect height="170.078740157" width="113.385826772" x="0.0" y="0.0"/>
  </clipPath>
 </defs>
<defs>
  <style type="text/css">
*{stroke-linecap:butt;stroke-linejoin:round;stroke-miterlimit:100000;}
  </style>
 </defs>
 <g id="figure_1">
  <g id="patch_1">
   <path d="M 0 170.07874  L 113.385827 170.07874  L 113.385827 0  L 0 0  z " style="fill:#ffffff;"/>
  </g>
  <g id="axes_1">
   <g id="patch_2">
    <path clip-path="url(#p0f992ff093)" d="M 68.031496 28.346457  L 65.19685 30.472441  L 65.19685 28.346457  L 45.354331 28.346457  L 45.354331 28.346457  L 65.19685 28.346457  L 65.19685 26.220472  L 68.031496 28.346457  z " style="fill:none;stroke:#000000;stroke-linejoin:miter;"/>
   </g>
   <g id="patch_3">
    <path clip-path="url(#p0f992ff093)" d="M 73.012987 73.012987  L 69.505292 72.511888  L 71.00859 71.00859  L 40.37284 40.37284  L 40.37284 40.37284  L 71.00859 71.00859  L 72.511888 69.505292  L 73.012987 73.012987  z " style="fill:none;stroke:#000000;stroke-linejoin:miter;"/>
   </g>
   <g id="patch_4">
    <path clip-path="url(#p0f992ff093)" d="M 68.031496 85.03937  L 65.19685 87.165354  L 65.19685 85.03937  L 45.354331 85.03937  L 45.354331 85.03937  L 65.19685 85.03937  L 65.19685 82.913386  L 68.031496 85.03937  z " style="fill:none;stroke:#000000;stroke-linejoin:miter;"/>
   </g>
   <g id="patch_5">
    <path clip-path="url(#p0f992ff093)" d="M 73.012987 97.065753  L 72.511888 100.573448  L 71.00859 99.07015  L 40.37284 129.7059  L 40.37284 129.7059  L 71.00859 99.07015  L 69.505292 97.566852  L 73.012987 97.065753  z " style="fill:none;stroke:#000000;stroke-linejoin:miter;"/>
   </g>
   <g id="patch_6">
    <path clip-path="url(#p0f992ff093)" d="M 85.03937 102.047244  C 89.549911 102.047244 93.876319 100.255187 97.065753 97.065753  C 100.255187 93.876319 102.047244 89.549911 102.047244 85.03937  C 102.047244 80.528829 100.255187 76.202421 97.065753 73.012987  C 93.876319 69.823553 89.549911 68.031496 85.03937 68.031496  C 80.528829 68.031496 76.202421 69.823553 73.012987 73.012987  C 69.823553 76.202421 68.031496 80.528829 68.031496 85.03937  C 68.031496 89.549911 69.823553 93.876319 73.012987 97.065753  C 76.202421 100.255187 80.528829 102.047244 85.03937 102.047244  L 85.03937 102.047244  z " style="fill:none;stroke:#000000;stroke-linejoin:miter;"/>
   </g>
   <g id="patch_7">
    <path clip-path="url(#p0f992ff093)" d="M 28.346457 45.354331  C 32.856998 45.354331 37.183406 43.562274 40.37284 40.37284  C 43.562274 37.183406 45.354331 32.856998 45.354331 28.346457  C 45.354331 23.835916 43.562274 19.509508 40.37284 16.320074  C 37.183406 13.13064 32.856998 11.338583 28.346457 11.338583  C 23.835916 11.338583 19.509508 13.13064 16.320074 16.320074  C 13.13064 19.509508 11.338583 23.835916 11.338583 28.346457  C 11.338583 32.856998 13.13064 37.183406 16.320074 40.37284  C 19.509508 43.562274 23.835916 45.354331 28.346457 45.354331  L 28.346457 45.354331  z " style="fill:none;stroke:#000000;stroke-linejoin:miter;"/>
   </g>
   <g id="patch_8">
    <path clip-path="url(#p0f992ff093)" d="M 28.346457 102.047244  C 32.856998 102.047244 37.183406 100.255187 40.37284 97.065753  C 43.562274 93.876319 45.354331 89.549911 45.354331 85.03937  C 45.354331 80.528829 43.562274 76.202421 40.37284 73.012987  C 37.183406 69.823553 32.856998 68.031496 28.346457 68.031496  C 23.835916 68.031496 19.509508 69.823553 16.320074 73.012987  C 13.13064 76.202421 11.338583 80.528829 11.338583 85.03937  C 11.338583 89.549911 13.13064 93.876319 16.320074 97.065753  C 19.509508 100.255187 23.835916 102.047244 28.346457 102.047244  L 28.346457 102.047244  z " style="fill:none;stroke:#000000;stroke-linejoin:miter;"/>
   </g>
   <g id="patch_9">
    <path clip-path="url(#p0f992ff093)" d="M 28.346457 158.740157  C 32.856998 158.740157 37.183406 156.948101 40.37284 153.758667  C 43.562274 150.569232 45.354331 146.242824 45.354331 141.732283  C 45.354331 137.221743 43.562274 132.895334 40.37284 129.7059  C 37.183406 126.516466 32.856998 124.724409 28.346457 124.724409  C 23.835916 124.724409 19.509508 126.516466 16.320074 129.7059  C 13.13064 132.895334 11.338583 137.221743 11.338583 141.732283  C 11.338583 146.242824 13.13064 150.569232 16.320074 153.758667  C 19.509508 156.948101 23.835916 158.740157 28.346457 158.740157  L 28.346457 158.740157  z " style="fill:none;stroke:#000000;stroke-linejoin:miter;"/>
   </g>
   <g id="patch_10">
    <path clip-path="url(#p0f992ff093)" d="M 85.03937 45.354331  C 89.549911 45.354331 93.876319 43.562274 97.065753 40.37284  C 100.255187 37.183406 102.047244 32.856998 102.047244 28.346457  C 102.047244 23.835916 100.255187 19.509508 97.065753 16.320074  C 93.876319 13.13064 89.549911 11.338583 85.03937 11.338583  C 80.528829 11.338583 76.202421 13.13064 73.012987 16.320074  C 69.823553 19.509508 68.031496 23.835916 68.031496 28.346457  C 68.031496 32.856998 69.823553 37.183406 73.012987 40.37284  C 76.202421 43.562274 80.528829 45.354331 85.03937 45.354331  L 85.03937 45.354331  z " style="fill:none;stroke:#000000;stroke-linejoin:miter;"/>
   </g>
   <g id="matplotlib.axis_1"/>
   <g id="matplotlib.axis_2"/>
   <g id="text_1">
    <!-- T' -->
    <defs>
     <path d="M 17.921875 72.90625  L 17.921875 45.796875  L 9.625 45.796875  L 9.625 72.90625  z " id="BitstreamVeraSans-Roman-27"/>
     <path d="M -0.296875 72.90625  L 61.375 72.90625  L 61.375 64.59375  L 35.5 64.59375  L 35.5 0  L 25.59375 0  L 25.59375 64.59375  L -0.296875 64.59375  z " id="BitstreamVeraSans-Roman-54"/>
    </defs>
    <g transform="translate(77.0687450787 90.0062450787)scale(0.18 -0.18)">
     <use xlink:href="#BitstreamVeraSans-Roman-54"/>
     <use x="61.083984375" xlink:href="#BitstreamVeraSans-Roman-27"/>
    </g>
   </g>
   <g id="text_2">
    <!-- T -->
    <g transform="translate(22.8494254429 33.3133316929)scale(0.18 -0.18)">
     <use xlink:href="#BitstreamVeraSans-Roman-54"/>
    </g>
   </g>
   <g id="text_3">
    <!-- O -->
    <defs>
     <path d="M 39.40625 66.21875  Q 28.65625 66.21875 22.328125 58.203125  Q 16.015625 50.203125 16.015625 36.375  Q 16.015625 22.609375 22.328125 14.59375  Q 28.65625 6.59375 39.40625 6.59375  Q 50.140625 6.59375 56.421875 14.59375  Q 62.703125 22.609375 62.703125 36.375  Q 62.703125 50.203125 56.421875 58.203125  Q 50.140625 66.21875 39.40625 66.21875  M 39.40625 74.21875  Q 54.734375 74.21875 63.90625 63.9375  Q 73.09375 53.65625 73.09375 36.375  Q 73.09375 19.140625 63.90625 8.859375  Q 54.734375 -1.421875 39.40625 -1.421875  Q 24.03125 -1.421875 14.8125 8.828125  Q 5.609375 19.09375 5.609375 36.375  Q 5.609375 53.65625 14.8125 63.9375  Q 24.03125 74.21875 39.40625 74.21875  " id="BitstreamVeraSans-Roman-4f"/>
    </defs>
    <g transform="translate(21.2617691929 90.0062450787)scale(0.18 -0.18)">
     <use xlink:href="#BitstreamVeraSans-Roman-4f"/>
    </g>
   </g>
   <g id="text_4">
    <!-- D -->
    <defs>
     <path d="M 19.671875 64.796875  L 19.671875 8.109375  L 31.59375 8.109375  Q 46.6875 8.109375 53.6875 14.9375  Q 60.6875 21.78125 60.6875 36.53125  Q 60.6875 51.171875 53.6875 57.984375  Q 46.6875 64.796875 31.59375 64.796875  z M 9.8125 72.90625  L 30.078125 72.90625  Q 51.265625 72.90625 61.171875 64.09375  Q 71.09375 55.28125 71.09375 36.53125  Q 71.09375 17.671875 61.125 8.828125  Q 51.171875 0 30.078125 0  L 9.8125 0  z " id="BitstreamVeraSans-Roman-44"/>
    </defs>
    <g transform="translate(21.4164566929 146.699158465)scale(0.18 -0.18)">
     <use xlink:href="#BitstreamVeraSans-Roman-44"/>
    </g>
   </g>
   <g id="text_5">
    <!-- S -->
    <defs>
     <path d="M 53.515625 70.515625  L 53.515625 60.890625  Q 47.90625 63.578125 42.921875 64.890625  Q 37.9375 66.21875 33.296875 66.21875  Q 25.25 66.21875 20.875 63.09375  Q 16.5 59.96875 16.5 54.203125  Q 16.5 49.359375 19.40625 46.890625  Q 22.3125 44.4375 30.421875 42.921875  L 36.375 41.703125  Q 47.40625 39.59375 52.65625 34.296875  Q 57.90625 29 57.90625 20.125  Q 57.90625 9.515625 50.796875 4.046875  Q 43.703125 -1.421875 29.984375 -1.421875  Q 24.8125 -1.421875 18.96875 -0.25  Q 13.140625 0.921875 6.890625 3.21875  L 6.890625 13.375  Q 12.890625 10.015625 18.65625 8.296875  Q 24.421875 6.59375 29.984375 6.59375  Q 38.421875 6.59375 43.015625 9.90625  Q 47.609375 13.234375 47.609375 19.390625  Q 47.609375 24.75 44.3125 27.78125  Q 41.015625 30.8125 33.5 32.328125  L 27.484375 33.5  Q 16.453125 35.6875 11.515625 40.375  Q 6.59375 45.0625 6.59375 53.421875  Q 6.59375 63.09375 13.40625 68.65625  Q 20.21875 74.21875 32.171875 74.21875  Q 37.3125 74.21875 42.625 73.28125  Q 47.953125 72.359375 53.515625 70.515625  " id="BitstreamVeraSans-Roman-53"/>
    </defs>
    <g transform="translate(79.3257763287 33.3133316929)scale(0.18 -0.18)">
     <use xlink:href="#BitstreamVeraSans-Roman-53"/>
    </g>
   </g>
  </g>
 </g>
 </svg>
