<svg xmlns="http://www.w3.org/2000/svg" xmlns:xlink="http://www.w3.org/1999/xlink" height="56pt" version="1.1" viewBox="0 0 113 56" width="113pt">
 <defs>
  <clipPath id="pd47a7df47f">
   <rect height="56.6929133858" width="113.385826772" x="0.0" y="0.0"/>
  </clipPath>
 </defs>
<defs>
  <style type="text/css">
*{stroke-linecap:butt;stroke-linejoin:round;stroke-miterlimit:100000;}
  </style>
 </defs>
 <g id="figure_1">
  <g id="patch_1">
   <path d="M 0 56.692913  L 113.385827 56.692913  L 113.385827 0  L 0 0  z " style="fill:#ffffff;"/>
  </g>
  <g id="axes_1">
   <g id="patch_2">
    <path clip-path="url(#pd47a7df47f)" d="M 68.031496 28.346457  L 65.19685 30.472441  L 65.19685 28.346457  L 45.354331 28.346457  L 45.354331 28.346457  L 65.19685 28.346457  L 65.19685 26.220472  L 68.031496 28.346457  z " style="fill:none;stroke:#000000;stroke-linejoin:miter;"/>
   </g>
   <g id="patch_3">
    <path clip-path="url(#pd47a7df47f)" d="M 85.03937 45.354331  C 89.549911 45.354331 93.876319 43.562274 97.065753 40.37284  C 100.255187 37.183406 102.047244 32.856998 102.047244 28.346457  C 102.047244 23.835916 100.255187 19.509508 97.065753 16.320074  C 93.876319 13.13064 89.549911 11.338583 85.03937 11.338583  C 80.528829 11.338583 76.202421 13.13064 73.012987 16.320074  C 69.823553 19.509508 68.031496 23.835916 68.031496 28.346457  C 68.031496 32.856998 69.823553 37.183406 73.012987 40.37284  C 76.202421 43.562274 80.528829 45.354331 85.03937 45.354331  L 85.03937 45.354331  z " style="fill:none;stroke:#000000;stroke-linejoin:miter;"/>
   </g>
   <g id="patch_4">
    <path clip-path="url(#pd47a7df47f)" d="M 28.346457 45.354331  C 32.856998 45.354331 37.183406 43.562274 40.37284 40.37284  C 43.562274 37.183406 45.354331 32.856998 45.354331 28.346457  C 45.354331 23.835916 43.562274 19.509508 40.37284 16.320074  C 37.183406 13.13064 32.856998 11.338583 28.346457 11.338583  C 23.835916 11.338583 19.509508 13.13064 16.320074 16.320074  C 13.13064 19.509508 11.338583 23.835916 11.338583 28.346457  C 11.338583 32.856998 13.13064 37.183406 16.320074 40.37284  C 19.509508 43.562274 23.835916 45.354331 28.346457 45.354331  L 28.346457 45.354331  z " style="fill:none;stroke:#000000;stroke-linejoin:miter;"/>
   </g>
   <g id="matplotlib.axis_1"/>
   <g id="matplotlib.axis_2"/>
   <g id="text_1">
    <!-- S -->
    <defs>
     <path d="M 53.515625 70.515625  L 53.515625 60.890625  Q 47.90625 63.578125 42.921875 64.890625  Q 37.9375 66.21875 33.296875 66.21875  Q 25.25 66.21875 20.875 63.09375  Q 16.5 59.96875 16.5 54.203125  Q 16.5 49.359375 19.40625 46.890625  Q 22.3125 44.4375 30.421875 42.921875  L 36.375 41.703125  Q 47.40625 39.59375 52.65625 34.296875  Q 57.90625 29 57.90625 20.125  Q 57.90625 9.515625 50.796875 4.046875  Q 43.703125 -1.421875 29.984375 -1.421875  Q 24.8125 -1.421875 18.96875 -0.25  Q 13.140625 0.921875 6.890625 3.21875  L 6.890625 13.375  Q 12.890625 10.015625 18.65625 8.296875  Q 24.421875 6.59375 29.984375 6.59375  Q 38.421875 6.59375 43.015625 9.90625  Q 47.609375 13.234375 47.609375 19.390625  Q 47.609375 24.75 44.3125 27.78125  Q 41.015625 30.8125 33.5 32.328125  L 27.484375 33.5  Q 16.453125 35.6875 11.515625 40.375  Q 6.59375 45.0625 6.59375 53.421875  Q 6.59375 63.09375 13.40625 68.65625  Q 20.21875 74.21875 32.171875 74.21875  Q 37.3125 74.21875 42.625 73.28125  Q 47.953125 72.359375 53.515625 70.515625  " id="BitstreamVeraSans-Roman-53"/>
    </defs>
    <g transform="translate(79.3257763287 33.3133316929)scale(0.18 -0.18)">
     <use xlink:href="#BitstreamVeraSans-Roman-53"/>
    </g>
   </g>
   <g id="text_2">
    <!-- T -->
    <defs>
     <path d="M -0.296875 72.90625  L 61.375 72.90625  L 61.375 64.59375  L 35.5 64.59375  L 35.5 0  L 25.59375 0  L 25.59375 64.59375  L -0.296875 64.59375  z " id="BitstreamVeraSans-Roman-54"/>
    </defs>
    <g transform="translate(22.8494254429 33.3133316929)scale(0.18 -0.18)">
     <use xlink:href="#BitstreamVeraSans-Roman-54"/>
    </g>
   </g>
  </g>
 </g>
 </svg>
