<svg xmlns="http://www.w3.org/2000/svg" xmlns:xlink="http://www.w3.org/1999/xlink" height="113pt" version="1.1" viewBox="0 0 141 113" width="141pt">
 <defs>
  <clipPath id="p5869135c19">
   <rect height="113.385826772" width="141.732283465" x="0.0" y="0.0"/>
  </clipPath>
 </defs>
<defs>
  <style type="text/css">
*{stroke-linecap:butt;stroke-linejoin:round;stroke-miterlimit:100000;}
  </style>
 </defs>
 <g id="figure_1">
  <g id="patch_1">
   <path d="M 0 113.385827  L 141.732283 113.385827  L 141.732283 0  L 0 0  z " style="fill:#ffffff;"/>
  </g>
  <g id="axes_1">
   <g id="patch_2">
    <path clip-path="url(#p5869135c19)" d="M 61.228346 60.094488  L 61.228346 56.551181  L 62.929134 57.826772  L 74.834646 41.952756  L 74.834646 41.952756  L 62.929134 57.826772  L 64.629921 59.102362  L 61.228346 60.094488  z " style="fill:none;stroke:#000000;stroke-linejoin:miter;"/>
   </g>
   <g id="patch_3">
    <path clip-path="url(#p5869135c19)" d="M 108.850394 60.094488  L 105.448819 59.102362  L 107.149606 57.826772  L 95.244094 41.952756  L 95.244094 41.952756  L 107.149606 57.826772  L 108.850394 56.551181  L 108.850394 60.094488  z " style="fill:none;stroke:#000000;stroke-linejoin:miter;"/>
   </g>
   <g id="patch_4">
    <path clip-path="url(#p5869135c19)" d="M 85.03937 45.354331  C 89.549911 45.354331 93.876319 43.562274 97.065753 40.37284  C 100.255187 37.183406 102.047244 32.856998 102.047244 28.346457  C 102.047244 23.835916 100.255187 19.509508 97.065753 16.320074  C 93.876319 13.13064 89.549911 11.338583 85.03937 11.338583  C 80.528829 11.338583 76.202421 13.13064 73.012987 16.320074  C 69.823553 19.509508 68.031496 23.835916 68.031496 28.346457  C 68.031496 32.856998 69.823553 37.183406 73.012987 40.37284  C 76.202421 43.562274 80.528829 45.354331 85.03937 45.354331  L 85.03937 45.354331  z " style="fill:none;stroke:#000000;stroke-linejoin:miter;"/>
   </g>
   <g id="patch_5">
    <path clip-path="url(#p5869135c19)" d="M 119.055118 90.708661  C 123.565659 90.708661 127.892067 88.916605 131.081501 85.72717  C 134.270935 82.537736 136.062992 78.211328 136.062992 73.700787  C 136.062992 69.190246 134.270935 64.863838 131.081501 61.674404  C 127.892067 58.48497 123.565659 56.692913 119.055118 56.692913  C 114.544577 56.692913 110.218169 58.48497 107.028735 61.674404  C 103.839301 64.863838 102.047244 69.190246 102.047244 73.700787  C 102.047244 78.211328 103.839301 82.537736 107.028735 85.72717  C 110.218169 88.916605 114.544577 90.708661 119.055118 90.708661  L 119.055118 90.708661  z " style="fill:none;stroke:#000000;stroke-linejoin:miter;"/>
   </g>
   <g id="patch_6">
    <path clip-path="url(#p5869135c19)" d="M 51.023622 90.708661  C 55.534163 90.708661 59.860571 88.916605 63.050005 85.72717  C 66.239439 82.537736 68.031496 78.211328 68.031496 73.700787  C 68.031496 69.190246 66.239439 64.863838 63.050005 61.674404  C 59.860571 58.48497 55.534163 56.692913 51.023622 56.692913  C 46.513081 56.692913 42.186673 58.48497 38.997239 61.674404  C 35.807805 64.863838 34.015748 69.190246 34.015748 73.700787  C 34.015748 78.211328 35.807805 82.537736 38.997239 85.72717  C 42.186673 88.916605 46.513081 90.708661 51.023622 90.708661  L 51.023622 90.708661  z " style="fill:none;stroke:#000000;stroke-linejoin:miter;"/>
   </g>
   <g id="matplotlib.axis_1"/>
   <g id="matplotlib.axis_2"/>
   <g id="text_1">
    <!-- coin -->
    <defs>
     <path d="M 9.421875 54.6875  L 18.40625 54.6875  L 18.40625 0  L 9.421875 0  z M 9.421875 75.984375  L 18.40625 75.984375  L 18.40625 64.59375  L 9.421875 64.59375  z " id="BitstreamVeraSans-Roman-69"/>
     <path d="M 54.890625 33.015625  L 54.890625 0  L 45.90625 0  L 45.90625 32.71875  Q 45.90625 40.484375 42.875 44.328125  Q 39.84375 48.1875 33.796875 48.1875  Q 26.515625 48.1875 22.3125 43.546875  Q 18.109375 38.921875 18.109375 30.90625  L 18.109375 0  L 9.078125 0  L 9.078125 54.6875  L 18.109375 54.6875  L 18.109375 46.1875  Q 21.34375 51.125 25.703125 53.5625  Q 30.078125 56 35.796875 56  Q 45.21875 56 50.046875 50.171875  Q 54.890625 44.34375 54.890625 33.015625  " id="BitstreamVeraSans-Roman-6e"/>
     <path d="M 30.609375 48.390625  Q 23.390625 48.390625 19.1875 42.75  Q 14.984375 37.109375 14.984375 27.296875  Q 14.984375 17.484375 19.15625 11.84375  Q 23.34375 6.203125 30.609375 6.203125  Q 37.796875 6.203125 41.984375 11.859375  Q 46.1875 17.53125 46.1875 27.296875  Q 46.1875 37.015625 41.984375 42.703125  Q 37.796875 48.390625 30.609375 48.390625  M 30.609375 56  Q 42.328125 56 49.015625 48.375  Q 55.71875 40.765625 55.71875 27.296875  Q 55.71875 13.875 49.015625 6.21875  Q 42.328125 -1.421875 30.609375 -1.421875  Q 18.84375 -1.421875 12.171875 6.21875  Q 5.515625 13.875 5.515625 27.296875  Q 5.515625 40.765625 12.171875 48.375  Q 18.84375 56 30.609375 56  " id="BitstreamVeraSans-Roman-6f"/>
     <path d="M 48.78125 52.59375  L 48.78125 44.1875  Q 44.96875 46.296875 41.140625 47.34375  Q 37.3125 48.390625 33.40625 48.390625  Q 24.65625 48.390625 19.8125 42.84375  Q 14.984375 37.3125 14.984375 27.296875  Q 14.984375 17.28125 19.8125 11.734375  Q 24.65625 6.203125 33.40625 6.203125  Q 37.3125 6.203125 41.140625 7.25  Q 44.96875 8.296875 48.78125 10.40625  L 48.78125 2.09375  Q 45.015625 0.34375 40.984375 -0.53125  Q 36.96875 -1.421875 32.421875 -1.421875  Q 20.0625 -1.421875 12.78125 6.34375  Q 5.515625 14.109375 5.515625 27.296875  Q 5.515625 40.671875 12.859375 48.328125  Q 20.21875 56 33.015625 56  Q 37.15625 56 41.109375 55.140625  Q 45.0625 54.296875 48.78125 52.59375  " id="BitstreamVeraSans-Roman-63"/>
    </defs>
    <g transform="translate(75.7096044537 30.8298941929)scale(0.09 -0.09)">
     <use xlink:href="#BitstreamVeraSans-Roman-63"/>
     <use x="54.98046875" xlink:href="#BitstreamVeraSans-Roman-6f"/>
     <use x="116.162109375" xlink:href="#BitstreamVeraSans-Roman-69"/>
     <use x="143.9453125" xlink:href="#BitstreamVeraSans-Roman-6e"/>
    </g>
   </g>
   <g id="text_2">
    <!-- toss 2 -->
    <defs>
     <path d="M 19.1875 8.296875  L 53.609375 8.296875  L 53.609375 0  L 7.328125 0  L 7.328125 8.296875  Q 12.9375 14.109375 22.625 23.890625  Q 32.328125 33.6875 34.8125 36.53125  Q 39.546875 41.84375 41.421875 45.53125  Q 43.3125 49.21875 43.3125 52.78125  Q 43.3125 58.59375 39.234375 62.25  Q 35.15625 65.921875 28.609375 65.921875  Q 23.96875 65.921875 18.8125 64.3125  Q 13.671875 62.703125 7.8125 59.421875  L 7.8125 69.390625  Q 13.765625 71.78125 18.9375 73  Q 24.125 74.21875 28.421875 74.21875  Q 39.75 74.21875 46.484375 68.546875  Q 53.21875 62.890625 53.21875 53.421875  Q 53.21875 48.921875 51.53125 44.890625  Q 49.859375 40.875 45.40625 35.40625  Q 44.1875 33.984375 37.640625 27.21875  Q 31.109375 20.453125 19.1875 8.296875  " id="BitstreamVeraSans-Roman-32"/>
     <path d="M 18.3125 70.21875  L 18.3125 54.6875  L 36.8125 54.6875  L 36.8125 47.703125  L 18.3125 47.703125  L 18.3125 18.015625  Q 18.3125 11.328125 20.140625 9.421875  Q 21.96875 7.515625 27.59375 7.515625  L 36.8125 7.515625  L 36.8125 0  L 27.59375 0  Q 17.1875 0 13.234375 3.875  Q 9.28125 7.765625 9.28125 18.015625  L 9.28125 47.703125  L 2.6875 47.703125  L 2.6875 54.6875  L 9.28125 54.6875  L 9.28125 70.21875  z " id="BitstreamVeraSans-Roman-74"/>
     <path id="BitstreamVeraSans-Roman-20"/>
     <path d="M 44.28125 53.078125  L 44.28125 44.578125  Q 40.484375 46.53125 36.375 47.5  Q 32.28125 48.484375 27.875 48.484375  Q 21.1875 48.484375 17.84375 46.4375  Q 14.5 44.390625 14.5 40.28125  Q 14.5 37.15625 16.890625 35.375  Q 19.28125 33.59375 26.515625 31.984375  L 29.59375 31.296875  Q 39.15625 29.25 43.1875 25.515625  Q 47.21875 21.78125 47.21875 15.09375  Q 47.21875 7.46875 41.1875 3.015625  Q 35.15625 -1.421875 24.609375 -1.421875  Q 20.21875 -1.421875 15.453125 -0.5625  Q 10.6875 0.296875 5.421875 2  L 5.421875 11.28125  Q 10.40625 8.6875 15.234375 7.390625  Q 20.0625 6.109375 24.8125 6.109375  Q 31.15625 6.109375 34.5625 8.28125  Q 37.984375 10.453125 37.984375 14.40625  Q 37.984375 18.0625 35.515625 20.015625  Q 33.0625 21.96875 24.703125 23.78125  L 21.578125 24.515625  Q 13.234375 26.265625 9.515625 29.90625  Q 5.8125 33.546875 5.8125 39.890625  Q 5.8125 47.609375 11.28125 51.796875  Q 16.75 56 26.8125 56  Q 31.78125 56 36.171875 55.265625  Q 40.578125 54.546875 44.28125 53.078125  " id="BitstreamVeraSans-Roman-73"/>
    </defs>
    <g transform="translate(105.555821235 76.1842249016)scale(0.09 -0.09)">
     <use xlink:href="#BitstreamVeraSans-Roman-74"/>
     <use x="39.208984375" xlink:href="#BitstreamVeraSans-Roman-6f"/>
     <use x="100.390625" xlink:href="#BitstreamVeraSans-Roman-73"/>
     <use x="152.490234375" xlink:href="#BitstreamVeraSans-Roman-73"/>
     <use x="204.58984375" xlink:href="#BitstreamVeraSans-Roman-20"/>
     <use x="236.376953125" xlink:href="#BitstreamVeraSans-Roman-32"/>
    </g>
   </g>
   <g id="text_3">
    <!-- toss 1 -->
    <defs>
     <path d="M 12.40625 8.296875  L 28.515625 8.296875  L 28.515625 63.921875  L 10.984375 60.40625  L 10.984375 69.390625  L 28.421875 72.90625  L 38.28125 72.90625  L 38.28125 8.296875  L 54.390625 8.296875  L 54.390625 0  L 12.40625 0  z " id="BitstreamVeraSans-Roman-31"/>
    </defs>
    <g transform="translate(37.5243251722 76.1842249016)scale(0.09 -0.09)">
     <use xlink:href="#BitstreamVeraSans-Roman-74"/>
     <use x="39.208984375" xlink:href="#BitstreamVeraSans-Roman-6f"/>
     <use x="100.390625" xlink:href="#BitstreamVeraSans-Roman-73"/>
     <use x="152.490234375" xlink:href="#BitstreamVeraSans-Roman-73"/>
     <use x="204.58984375" xlink:href="#BitstreamVeraSans-Roman-20"/>
     <use x="236.376953125" xlink:href="#BitstreamVeraSans-Roman-31"/>
    </g>
   </g>
  </g>
 </g>
 </svg>
