<svg xmlns="http://www.w3.org/2000/svg" xmlns:xlink="http://www.w3.org/1999/xlink" height="170pt" version="1.1" viewBox="0 0 226 170" width="226pt">
 <defs>
  <clipPath id="p21269d8548">
   <rect height="170.078740157" width="226.771653543" x="0.0" y="0.0"/>
  </clipPath>
 </defs>
<defs>
  <style type="text/css">
*{stroke-linecap:butt;stroke-linejoin:round;stroke-miterlimit:100000;}
  </style>
 </defs>
 <g id="figure_1">
  <g id="patch_1">
   <path d="M 0 170.07874  L 226.771654 170.07874  L 226.771654 0  L 0 0  z " style="fill:#ffffff;"/>
  </g>
  <g id="axes_1">
   <g id="patch_2">
    <path clip-path="url(#p21269d8548)" d="M 74.834646 60.094488  L 71.433071 59.102362  L 73.133858 57.826772  L 61.228346 41.952756  L 61.228346 41.952756  L 73.133858 57.826772  L 74.834646 56.551181  L 74.834646 60.094488  z " style="fill:none;stroke:#000000;stroke-linejoin:miter;"/>
   </g>
   <g id="patch_3">
    <path clip-path="url(#p21269d8548)" d="M 95.244094 60.094488  L 95.244094 56.551181  L 96.944882 57.826772  L 108.850394 41.952756  L 108.850394 41.952756  L 96.944882 57.826772  L 98.645669 59.102362  L 95.244094 60.094488  z " style="fill:none;stroke:#000000;stroke-linejoin:miter;"/>
   </g>
   <g id="patch_4">
    <path clip-path="url(#p21269d8548)" d="M 142.866142 60.094488  L 139.464567 59.102362  L 141.165354 57.826772  L 129.259843 41.952756  L 129.259843 41.952756  L 141.165354 57.826772  L 142.866142 56.551181  L 142.866142 60.094488  z " style="fill:none;stroke:#000000;stroke-linejoin:miter;"/>
   </g>
   <g id="patch_5">
    <path clip-path="url(#p21269d8548)" d="M 85.03937 113.385827  L 82.913386 110.551181  L 85.03937 110.551181  L 85.03937 90.708661  L 85.03937 90.708661  L 85.03937 110.551181  L 87.165354 110.551181  L 85.03937 113.385827  z " style="fill:none;stroke:#000000;stroke-linejoin:miter;"/>
   </g>
   <g id="patch_6">
    <path clip-path="url(#p21269d8548)" d="M 85.03937 90.708661  C 89.549911 90.708661 93.876319 88.916605 97.065753 85.72717  C 100.255187 82.537736 102.047244 78.211328 102.047244 73.700787  C 102.047244 69.190246 100.255187 64.863838 97.065753 61.674404  C 93.876319 58.48497 89.549911 56.692913 85.03937 56.692913  C 80.528829 56.692913 76.202421 58.48497 73.012987 61.674404  C 69.823553 64.863838 68.031496 69.190246 68.031496 73.700787  C 68.031496 78.211328 69.823553 82.537736 73.012987 85.72717  C 76.202421 88.916605 80.528829 90.708661 85.03937 90.708661  L 85.03937 90.708661  z " style="fill:none;stroke:#000000;stroke-linejoin:miter;"/>
   </g>
   <g id="patch_7">
    <path clip-path="url(#p21269d8548)" d="M 119.055118 45.354331  C 123.565659 45.354331 127.892067 43.562274 131.081501 40.37284  C 134.270935 37.183406 136.062992 32.856998 136.062992 28.346457  C 136.062992 23.835916 134.270935 19.509508 131.081501 16.320074  C 127.892067 13.13064 123.565659 11.338583 119.055118 11.338583  C 114.544577 11.338583 110.218169 13.13064 107.028735 16.320074  C 103.839301 19.509508 102.047244 23.835916 102.047244 28.346457  C 102.047244 32.856998 103.839301 37.183406 107.028735 40.37284  C 110.218169 43.562274 114.544577 45.354331 119.055118 45.354331  L 119.055118 45.354331  z " style="fill:none;stroke:#000000;stroke-linejoin:miter;"/>
   </g>
   <g id="patch_8">
    <path clip-path="url(#p21269d8548)" d="M 153.070866 90.708661  C 157.581407 90.708661 161.907815 88.916605 165.097249 85.72717  C 168.286683 82.537736 170.07874 78.211328 170.07874 73.700787  C 170.07874 69.190246 168.286683 64.863838 165.097249 61.674404  C 161.907815 58.48497 157.581407 56.692913 153.070866 56.692913  C 148.560325 56.692913 144.233917 58.48497 141.044483 61.674404  C 137.855049 64.863838 136.062992 69.190246 136.062992 73.700787  C 136.062992 78.211328 137.855049 82.537736 141.044483 85.72717  C 144.233917 88.916605 148.560325 90.708661 153.070866 90.708661  L 153.070866 90.708661  z " style="fill:none;stroke:#000000;stroke-linejoin:miter;"/>
   </g>
   <g id="patch_9">
    <path clip-path="url(#p21269d8548)" d="M 51.023622 45.354331  C 55.534163 45.354331 59.860571 43.562274 63.050005 40.37284  C 66.239439 37.183406 68.031496 32.856998 68.031496 28.346457  C 68.031496 23.835916 66.239439 19.509508 63.050005 16.320074  C 59.860571 13.13064 55.534163 11.338583 51.023622 11.338583  C 46.513081 11.338583 42.186673 13.13064 38.997239 16.320074  C 35.807805 19.509508 34.015748 23.835916 34.015748 28.346457  C 34.015748 32.856998 35.807805 37.183406 38.997239 40.37284  C 42.186673 43.562274 46.513081 45.354331 51.023622 45.354331  L 51.023622 45.354331  z " style="fill:none;stroke:#000000;stroke-linejoin:miter;"/>
   </g>
   <g id="patch_10">
    <path clip-path="url(#p21269d8548)" d="M 85.03937 147.401575  C 89.549911 147.401575 93.876319 145.609518 97.065753 142.420084  C 100.255187 139.23065 102.047244 134.904242 102.047244 130.393701  C 102.047244 125.88316 100.255187 121.556752 97.065753 118.367318  C 93.876319 115.177884 89.549911 113.385827 85.03937 113.385827  C 80.528829 113.385827 76.202421 115.177884 73.012987 118.367318  C 69.823553 121.556752 68.031496 125.88316 68.031496 130.393701  C 68.031496 134.904242 69.823553 139.23065 73.012987 142.420084  C 76.202421 145.609518 80.528829 147.401575 85.03937 147.401575  L 85.03937 147.401575  z " style="fill:none;stroke:#000000;stroke-linejoin:miter;"/>
   </g>
   <g id="matplotlib.axis_1"/>
   <g id="matplotlib.axis_2"/>
   <g id="text_1">
    <!-- $P(G\,|D,I)$ -->
    <defs>
     <path d="M 51.203125 66.203125  L 50.203125 58.796875  L 39.09375 58.796875  L 26.296875 7.40625  L 37.40625 7.40625  L 34.703125 0  L 5.90625 0  L 6.296875 7.40625  L 17.40625 7.40625  L 30.203125 58.796875  L 19.09375 58.796875  L 22.40625 66.203125  z " id="STIXGeneral-Italic-1d610"/>
     <path d="M 2.90625 66  L 4.09375 67.59375  Q 15.5 60.796875 22 49.1875  Q 28.5 37.59375 28.5 24.703125  Q 28.5 -2.59375 3.796875 -17.703125  L 2.90625 -16.09375  Q 13.203125 -7.59375 16.546875 0.84375  Q 19.90625 9.296875 19.90625 24.40625  Q 19.90625 39.59375 16.546875 48.75  Q 13.203125 57.90625 2.90625 66  " id="STIXGeneral-Regular-29"/>
     <path d="M 23.90625 66.203125  L 42.296875 66.203125  Q 63.796875 66.203125 63.796875 52.90625  Q 63.796875 42.703125 55.6875 35.59375  Q 47.59375 28.5 35.203125 28.5  L 23.203125 28.5  L 16.09375 0  L 7.40625 0  z M 25 35.90625  L 33.796875 35.90625  Q 44.296875 35.90625 49.5 39.953125  Q 54.703125 44 54.703125 50.796875  Q 54.703125 58.796875 39 58.796875  L 30.703125 58.796875  z " id="STIXGeneral-Italic-1d617"/>
     <path d="M 75.5 56.5  L 73 46.203125  L 71.09375 46.203125  Q 67.90625 60 52.203125 60  Q 42.796875 60 35.046875 54.953125  Q 27.296875 49.90625 23.140625 42.203125  Q 19 34.5 19 26.203125  Q 19 17.5 24.203125 11.84375  Q 29.40625 6.203125 39.40625 6.203125  Q 47.703125 6.203125 52.046875 8  Q 56.40625 9.796875 57 12.296875  L 61 28.09375  L 52.09375 28.09375  L 52.09375 35.703125  L 71.59375 35.703125  L 64.09375 5.90625  Q 59.59375 3.296875 57.1875 2.1875  Q 54.796875 1.09375 49.34375 -0.15625  Q 43.90625 -1.40625 37.09375 -1.40625  Q 24.203125 -1.40625 16.953125 5.34375  Q 9.703125 12.09375 9.703125 23.40625  Q 9.703125 32.09375 13.34375 40.25  Q 17 48.40625 23.046875 54.40625  Q 29.09375 60.40625 37.296875 64  Q 45.5 67.59375 54.09375 67.59375  Q 70.59375 67.59375 75.5 56.5  " id="STIXGeneral-Italic-1d60e"/>
     <path d="M 30.40625 -16.09375  L 29.203125 -17.703125  Q 17.59375 -11.09375 11.1875 0.5  Q 4.796875 12.09375 4.796875 25.203125  Q 4.796875 52.90625 29.5 67.59375  L 30.40625 66  Q 20.203125 57.296875 16.796875 48.84375  Q 13.40625 40.40625 13.40625 25.5  Q 13.40625 10.703125 16.90625 1.5  Q 20.40625 -7.703125 30.40625 -16.09375  " id="STIXGeneral-Regular-28"/>
     <path d="M 8.296875 -14.09375  L 7.296875 -12.203125  Q 15.59375 -6.59375 15.59375 -1.5  Q 15.59375 -0.203125 14.203125 -0.203125  Q 13.796875 -0.203125 12.84375 -0.390625  Q 11.90625 -0.59375 11.296875 -0.59375  Q 5.5 -0.59375 5.5 4.5  Q 5.5 7.09375 7.140625 8.640625  Q 8.796875 10.203125 11.5 10.203125  Q 14.90625 10.203125 17.203125 7.75  Q 19.5 5.296875 19.5 1.5  Q 19.5 -3.09375 16.453125 -7.390625  Q 13.40625 -11.703125 8.296875 -14.09375  " id="STIXGeneral-Regular-2c"/>
     <path d="M 23.90625 66.203125  L 40.5 66.203125  Q 75.09375 66.203125 75.09375 42.90625  Q 75.09375 35.203125 72 27.640625  Q 68.90625 20.09375 63.25 13.890625  Q 57.59375 7.703125 48.640625 3.84375  Q 39.703125 0 28.90625 0  L 7.40625 0  z M 17.90625 7.40625  L 22.796875 7.40625  Q 32.203125 7.40625 37.5 8.15625  Q 42.796875 8.90625 48.203125 11.40625  Q 56.203125 15.09375 61.046875 23.140625  Q 65.90625 31.203125 65.90625 40.90625  Q 65.90625 58.796875 36.703125 58.796875  L 30.703125 58.796875  z " id="STIXGeneral-Italic-1d60b"/>
     <path d="M 13.296875 -1.40625  L 6.703125 -1.40625  L 6.703125 67.59375  L 13.296875 67.59375  z " id="STIXGeneral-Regular-7c"/>
    </defs>
    <g transform="translate(68.3443700787 76.1842249016)scale(0.09 -0.09)">
     <use transform="translate(0.0 0.40625)" xlink:href="#STIXGeneral-Italic-1d617"/>
     <use transform="translate(52.49998474121094 0.40625)" xlink:href="#STIXGeneral-Regular-28"/>
     <use transform="translate(85.79997253417969 0.40625)" xlink:href="#STIXGeneral-Italic-1d60e"/>
     <use transform="translate(167.9002077494812 0.40625)" xlink:href="#STIXGeneral-Regular-7c"/>
     <use transform="translate(187.90019249069215 0.40625)" xlink:href="#STIXGeneral-Italic-1d60b"/>
     <use transform="translate(257.10017418014525 0.40625)" xlink:href="#STIXGeneral-Regular-2c"/>
     <use transform="translate(297.2201570903015 0.40625)" xlink:href="#STIXGeneral-Italic-1d610"/>
     <use transform="translate(337.32014793502805 0.40625)" xlink:href="#STIXGeneral-Regular-29"/>
    </g>
   </g>
   <g id="text_2">
    <!-- $P(I)$ -->
    <g transform="translate(110.25511811 31.3817691929)scale(0.11 -0.11)">
     <use transform="translate(0.0 0.40625)" xlink:href="#STIXGeneral-Italic-1d617"/>
     <use transform="translate(52.49998474121094 0.40625)" xlink:href="#STIXGeneral-Regular-28"/>
     <use transform="translate(85.79997253417969 0.40625)" xlink:href="#STIXGeneral-Italic-1d610"/>
     <use transform="translate(125.89996337890625 0.40625)" xlink:href="#STIXGeneral-Regular-29"/>
    </g>
   </g>
   <g id="text_3">
    <!-- $P(S|I)$ -->
    <defs>
     <path d="M 59.703125 59.59375  L 56.703125 47.703125  L 54.796875 47.703125  Q 53.90625 53.703125 49.90625 56.84375  Q 45.90625 60 40.09375 60  Q 35 60 30.953125 56.5  Q 26.90625 53 26.90625 48.796875  Q 26.90625 42.90625 38.09375 37.796875  Q 46 34.296875 49.453125 30.59375  Q 52.90625 26.90625 52.90625 21.90625  Q 52.90625 11.5 44.65625 5.046875  Q 36.40625 -1.40625 25.40625 -1.40625  Q 10.90625 -1.40625 6.203125 7  L 8.296875 20.5  L 10.09375 20.5  Q 11.5 13.203125 16.34375 9.703125  Q 21.203125 6.203125 26.90625 6.203125  Q 34.296875 6.203125 38.890625 9.75  Q 43.5 13.296875 43.5 18.59375  Q 43.5 21.90625 41.140625 24.34375  Q 38.796875 26.796875 33.59375 29.09375  Q 25.40625 32.796875 21.65625 36.640625  Q 17.90625 40.5 17.90625 45.59375  Q 17.90625 55 25.34375 61.296875  Q 32.796875 67.59375 42.5 67.59375  Q 54.90625 67.59375 59.703125 59.59375  " id="STIXGeneral-Italic-1d61a"/>
    </defs>
    <g transform="translate(140.200866142 76.7360999016)scale(0.11 -0.11)">
     <use transform="translate(0.0 0.40625)" xlink:href="#STIXGeneral-Italic-1d617"/>
     <use transform="translate(52.49998474121094 0.40625)" xlink:href="#STIXGeneral-Regular-28"/>
     <use transform="translate(85.79997253417969 0.40625)" xlink:href="#STIXGeneral-Italic-1d61a"/>
     <use transform="translate(139.89996337890625 0.40625)" xlink:href="#STIXGeneral-Regular-7c"/>
     <use transform="translate(159.8999481201172 0.40625)" xlink:href="#STIXGeneral-Italic-1d610"/>
     <use transform="translate(199.99993896484375 0.40625)" xlink:href="#STIXGeneral-Regular-29"/>
    </g>
   </g>
   <g id="text_4">
    <!-- $P(D)$ -->
    <g transform="translate(40.6286220472 31.3817691929)scale(0.11 -0.11)">
     <use transform="translate(0.0 0.40625)" xlink:href="#STIXGeneral-Italic-1d617"/>
     <use transform="translate(52.49998474121094 0.40625)" xlink:href="#STIXGeneral-Regular-28"/>
     <use transform="translate(85.79997253417969 0.40625)" xlink:href="#STIXGeneral-Italic-1d60b"/>
     <use transform="translate(154.9999542236328 0.40625)" xlink:href="#STIXGeneral-Regular-29"/>
    </g>
   </g>
   <g id="text_5">
    <!-- $P(L|G)$ -->
    <defs>
     <path d="M 56.40625 7.40625  L 52.796875 0  L 7.40625 0  L 23.90625 66.203125  L 32.59375 66.203125  L 17.90625 7.40625  z " id="STIXGeneral-Italic-1d613"/>
    </defs>
    <g transform="translate(71.7893700787 133.153075787)scale(0.1 -0.1)">
     <use transform="translate(0.0 0.40625)" xlink:href="#STIXGeneral-Italic-1d617"/>
     <use transform="translate(52.49998474121094 0.40625)" xlink:href="#STIXGeneral-Regular-28"/>
     <use transform="translate(85.79997253417969 0.40625)" xlink:href="#STIXGeneral-Italic-1d613"/>
     <use transform="translate(141.69996643066406 0.40625)" xlink:href="#STIXGeneral-Regular-7c"/>
     <use transform="translate(161.699951171875 0.40625)" xlink:href="#STIXGeneral-Italic-1d60e"/>
     <use transform="translate(231.19993591308594 0.40625)" xlink:href="#STIXGeneral-Regular-29"/>
    </g>
   </g>
  </g>
 </g>
 </svg>
