<svg xmlns="http://www.w3.org/2000/svg" xmlns:xlink="http://www.w3.org/1999/xlink" height="113pt" version="1.1" viewBox="0 0 141 113" width="141pt">
 <defs>
  <clipPath id="pb9b3216114">
   <rect height="113.385826772" width="141.732283465" x="0.0" y="0.0"/>
  </clipPath>
 </defs>
<defs>
  <style type="text/css">
*{stroke-linecap:butt;stroke-linejoin:round;stroke-miterlimit:100000;}
  </style>
 </defs>
 <g id="figure_1">
  <g id="patch_1">
   <path d="M 0 113.385827  L 141.732283 113.385827  L 141.732283 0  L 0 0  z " style="fill:#ffffff;"/>
  </g>
  <g id="axes_1">
   <g id="patch_2">
    <path clip-path="url(#pb9b3216114)" d="M 61.674404 61.674404  L 58.166709 61.173305  L 59.670007 59.670007  L 40.37284 40.37284  L 40.37284 40.37284  L 59.670007 59.670007  L 61.173305 58.166709  L 61.674404 61.674404  z " style="fill:none;stroke:#000000;stroke-linejoin:miter;"/>
   </g>
   <g id="patch_3">
    <path clip-path="url(#pb9b3216114)" d="M 73.700787 56.692913  L 71.574803 53.858268  L 73.700787 53.858268  L 73.700787 45.354331  L 73.700787 45.354331  L 73.700787 53.858268  L 75.826772 53.858268  L 73.700787 56.692913  z " style="fill:none;stroke:#000000;stroke-linejoin:miter;"/>
   </g>
   <g id="patch_4">
    <path clip-path="url(#pb9b3216114)" d="M 85.72717 61.674404  L 86.22827 58.166709  L 87.731568 59.670007  L 107.028735 40.37284  L 107.028735 40.37284  L 87.731568 59.670007  L 89.234866 61.173305  L 85.72717 61.674404  z " style="fill:none;stroke:#000000;stroke-linejoin:miter;"/>
   </g>
   <g id="patch_5">
    <path clip-path="url(#pb9b3216114)" d="M 119.055118 45.354331  C 123.565659 45.354331 127.892067 43.562274 131.081501 40.37284  C 134.270935 37.183406 136.062992 32.856998 136.062992 28.346457  C 136.062992 23.835916 134.270935 19.509508 131.081501 16.320074  C 127.892067 13.13064 123.565659 11.338583 119.055118 11.338583  C 114.544577 11.338583 110.218169 13.13064 107.028735 16.320074  C 103.839301 19.509508 102.047244 23.835916 102.047244 28.346457  C 102.047244 32.856998 103.839301 37.183406 107.028735 40.37284  C 110.218169 43.562274 114.544577 45.354331 119.055118 45.354331  L 119.055118 45.354331  z " style="fill:none;stroke:#000000;stroke-linejoin:miter;"/>
   </g>
   <g id="patch_6">
    <path clip-path="url(#pb9b3216114)" d="M 73.700787 90.708661  C 78.211328 90.708661 82.537736 88.916605 85.72717 85.72717  C 88.916605 82.537736 90.708661 78.211328 90.708661 73.700787  C 90.708661 69.190246 88.916605 64.863838 85.72717 61.674404  C 82.537736 58.48497 78.211328 56.692913 73.700787 56.692913  C 69.190246 56.692913 64.863838 58.48497 61.674404 61.674404  C 58.48497 64.863838 56.692913 69.190246 56.692913 73.700787  C 56.692913 78.211328 58.48497 82.537736 61.674404 85.72717  C 64.863838 88.916605 69.190246 90.708661 73.700787 90.708661  L 73.700787 90.708661  z " style="fill:none;stroke:#000000;stroke-linejoin:miter;"/>
   </g>
   <g id="patch_7">
    <path clip-path="url(#pb9b3216114)" d="M 73.700787 45.354331  C 78.211328 45.354331 82.537736 43.562274 85.72717 40.37284  C 88.916605 37.183406 90.708661 32.856998 90.708661 28.346457  C 90.708661 23.835916 88.916605 19.509508 85.72717 16.320074  C 82.537736 13.13064 78.211328 11.338583 73.700787 11.338583  C 69.190246 11.338583 64.863838 13.13064 61.674404 16.320074  C 58.48497 19.509508 56.692913 23.835916 56.692913 28.346457  C 56.692913 32.856998 58.48497 37.183406 61.674404 40.37284  C 64.863838 43.562274 69.190246 45.354331 73.700787 45.354331  L 73.700787 45.354331  z " style="fill:none;stroke:#000000;stroke-linejoin:miter;"/>
   </g>
   <g id="patch_8">
    <path clip-path="url(#pb9b3216114)" d="M 28.346457 45.354331  C 32.856998 45.354331 37.183406 43.562274 40.37284 40.37284  C 43.562274 37.183406 45.354331 32.856998 45.354331 28.346457  C 45.354331 23.835916 43.562274 19.509508 40.37284 16.320074  C 37.183406 13.13064 32.856998 11.338583 28.346457 11.338583  C 23.835916 11.338583 19.509508 13.13064 16.320074 16.320074  C 13.13064 19.509508 11.338583 23.835916 11.338583 28.346457  C 11.338583 32.856998 13.13064 37.183406 16.320074 40.37284  C 19.509508 43.562274 23.835916 45.354331 28.346457 45.354331  L 28.346457 45.354331  z " style="fill:none;stroke:#000000;stroke-linejoin:miter;"/>
   </g>
   <g id="matplotlib.axis_1"/>
   <g id="matplotlib.axis_2"/>
   <g id="text_1">
    <!-- $x_n$ -->
    <defs>
     <path d="M 54.40625 45.296875  L 34.40625 23.59375  L 45.203125 0  L 35.796875 0  L 27.90625 17.5  L 12.40625 0  L 3 0  L 25 23.90625  L 15.40625 45.296875  L 24.796875 45.296875  L 31.59375 30.203125  L 45 45.296875  z " id="STIXGeneral-Italic-1d639"/>
     <path d="M 25.09375 45.90625  L 23.90625 40.203125  Q 28.40625 43.796875 32.203125 45.046875  Q 36 46.296875 40.5 46.296875  Q 45.203125 46.296875 48.09375 43.75  Q 51 41.203125 51 37.203125  Q 51 34.796875 50.40625 32.09375  L 42.40625 0  L 34.5 0  L 42 30.40625  Q 42.5 32.59375 42.5 33.90625  Q 42.5 39.203125 36 39.203125  Q 33.09375 39.203125 28.640625 36.703125  Q 24.203125 34.203125 21.703125 30.203125  L 14.203125 0  L 6.296875 0  L 17.203125 44  L 24.296875 46.40625  z " id="STIXGeneral-Italic-1d62f"/>
    </defs>
    <g transform="translate(111.40511811 33.3133316929)scale(0.18 -0.18)">
     <use transform="translate(0.0 0.703125)" xlink:href="#STIXGeneral-Italic-1d639"/>
     <use transform="translate(48.19999694824219 -12.885937499999997)scale(0.7)" xlink:href="#STIXGeneral-Italic-1d62f"/>
    </g>
   </g>
   <g id="text_2">
    <!-- $Y$ -->
    <defs>
     <path d="M 77.40625 66.203125  L 43 28.796875  L 35.796875 0  L 27.09375 0  L 34.203125 28.796875  L 18.59375 66.203125  L 28.09375 66.203125  L 40.5 36.203125  L 67.90625 66.203125  z " id="STIXGeneral-Italic-1d620"/>
    </defs>
    <g transform="translate(68.0307874016 78.6676624016)scale(0.18 -0.18)">
     <use transform="translate(0.0 0.796875)" xlink:href="#STIXGeneral-Italic-1d620"/>
    </g>
   </g>
   <g id="text_3">
    <!-- $\dots$ -->
    <defs>
     <path d="M 88.796875 4.296875  Q 88.796875 2.09375 87.140625 0.5  Q 85.5 -1.09375 83.203125 -1.09375  Q 80.90625 -1.09375 79.296875 0.5  Q 77.703125 2.09375 77.703125 4.390625  Q 77.703125 6.703125 79.34375 8.34375  Q 81 10 83.296875 10  Q 85.5 10 87.140625 8.296875  Q 88.796875 6.59375 88.796875 4.296875  M 55.5 4.296875  Q 55.5 2.09375 53.84375 0.5  Q 52.203125 -1.09375 49.890625 -1.09375  Q 47.59375 -1.09375 46 0.5  Q 44.40625 2.09375 44.40625 4.390625  Q 44.40625 6.703125 46.046875 8.34375  Q 47.703125 10 50 10  Q 52.203125 10 53.84375 8.296875  Q 55.5 6.59375 55.5 4.296875  M 22.203125 4.296875  Q 22.203125 2.09375 20.546875 0.5  Q 18.90625 -1.09375 16.59375 -1.09375  Q 14.296875 -1.09375 12.6875 0.5  Q 11.09375 2.09375 11.09375 4.390625  Q 11.09375 6.703125 12.75 8.34375  Q 14.40625 10 16.703125 10  Q 18.90625 10 20.546875 8.296875  Q 22.203125 6.59375 22.203125 4.296875  " id="STIXGeneral-Regular-2026"/>
    </defs>
    <g transform="translate(64.7007874016 33.3133316929)scale(0.18 -0.18)">
     <use xlink:href="#STIXGeneral-Regular-2026"/>
    </g>
   </g>
   <g id="text_4">
    <!-- $x_1$ -->
    <defs>
     <path d="M 30.203125 0  L 22.296875 0  L 22.296875 57  Q 20.09375 56 15.75 53.75  Q 11.40625 51.5 10.796875 51.203125  L 10.796875 58.5  L 28.796875 67.703125  L 30.203125 67.203125  z " id="STIXGeneral-Regular-1d7e3"/>
    </defs>
    <g transform="translate(20.6064566929 33.3133316929)scale(0.18 -0.18)">
     <use transform="translate(0.0 0.703125)" xlink:href="#STIXGeneral-Italic-1d639"/>
     <use transform="translate(48.19999694824219 -12.885937499999997)scale(0.7)" xlink:href="#STIXGeneral-Regular-1d7e3"/>
    </g>
   </g>
  </g>
 </g>
 </svg>
