<svg xmlns="http://www.w3.org/2000/svg" xmlns:xlink="http://www.w3.org/1999/xlink" height="113pt" version="1.1" viewBox="0 0 141 113" width="141pt">
 <defs>
  <clipPath id="p4cb2660cbb">
   <rect height="113.385826772" width="141.732283465" x="0.0" y="0.0"/>
  </clipPath>
 </defs>
<defs>
  <style type="text/css">
*{stroke-linecap:butt;stroke-linejoin:round;stroke-miterlimit:100000;}
  </style>
 </defs>
 <g id="figure_1">
  <g id="patch_1">
   <path d="M 0 113.385827  L 141.732283 113.385827  L 141.732283 0  L 0 0  z " style="fill:#ffffff;"/>
  </g>
  <g id="axes_1">
   <g id="patch_2">
    <path clip-path="url(#p4cb2660cbb)" d="M 40.37284 61.674404  L 40.873939 58.166709  L 42.377237 59.670007  L 61.674404 40.37284  L 61.674404 40.37284  L 42.377237 59.670007  L 43.880535 61.173305  L 40.37284 61.674404  z " style="fill:none;stroke:#000000;stroke-linejoin:miter;"/>
   </g>
   <g id="patch_3">
    <path clip-path="url(#p4cb2660cbb)" d="M 107.028735 61.674404  L 103.52104 61.173305  L 105.024338 59.670007  L 85.72717 40.37284  L 85.72717 40.37284  L 105.024338 59.670007  L 106.527636 58.166709  L 107.028735 61.674404  z " style="fill:none;stroke:#000000;stroke-linejoin:miter;"/>
   </g>
   <g id="patch_4">
    <path clip-path="url(#p4cb2660cbb)" d="M 73.700787 56.692913  L 71.574803 53.858268  L 73.700787 53.858268  L 73.700787 45.354331  L 73.700787 45.354331  L 73.700787 53.858268  L 75.826772 53.858268  L 73.700787 56.692913  z " style="fill:none;stroke:#000000;stroke-linejoin:miter;"/>
   </g>
   <g id="patch_5">
    <path clip-path="url(#p4cb2660cbb)" d="M 119.055118 90.708661  C 123.565659 90.708661 127.892067 88.916605 131.081501 85.72717  C 134.270935 82.537736 136.062992 78.211328 136.062992 73.700787  C 136.062992 69.190246 134.270935 64.863838 131.081501 61.674404  C 127.892067 58.48497 123.565659 56.692913 119.055118 56.692913  C 114.544577 56.692913 110.218169 58.48497 107.028735 61.674404  C 103.839301 64.863838 102.047244 69.190246 102.047244 73.700787  C 102.047244 78.211328 103.839301 82.537736 107.028735 85.72717  C 110.218169 88.916605 114.544577 90.708661 119.055118 90.708661  L 119.055118 90.708661  z " style="fill:none;stroke:#000000;stroke-linejoin:miter;"/>
   </g>
   <g id="patch_6">
    <path clip-path="url(#p4cb2660cbb)" d="M 73.700787 90.708661  C 78.211328 90.708661 82.537736 88.916605 85.72717 85.72717  C 88.916605 82.537736 90.708661 78.211328 90.708661 73.700787  C 90.708661 69.190246 88.916605 64.863838 85.72717 61.674404  C 82.537736 58.48497 78.211328 56.692913 73.700787 56.692913  C 69.190246 56.692913 64.863838 58.48497 61.674404 61.674404  C 58.48497 64.863838 56.692913 69.190246 56.692913 73.700787  C 56.692913 78.211328 58.48497 82.537736 61.674404 85.72717  C 64.863838 88.916605 69.190246 90.708661 73.700787 90.708661  L 73.700787 90.708661  z " style="fill:none;stroke:#000000;stroke-linejoin:miter;"/>
   </g>
   <g id="patch_7">
    <path clip-path="url(#p4cb2660cbb)" d="M 73.700787 45.354331  C 78.211328 45.354331 82.537736 43.562274 85.72717 40.37284  C 88.916605 37.183406 90.708661 32.856998 90.708661 28.346457  C 90.708661 23.835916 88.916605 19.509508 85.72717 16.320074  C 82.537736 13.13064 78.211328 11.338583 73.700787 11.338583  C 69.190246 11.338583 64.863838 13.13064 61.674404 16.320074  C 58.48497 19.509508 56.692913 23.835916 56.692913 28.346457  C 56.692913 32.856998 58.48497 37.183406 61.674404 40.37284  C 64.863838 43.562274 69.190246 45.354331 73.700787 45.354331  L 73.700787 45.354331  z " style="fill:none;stroke:#000000;stroke-linejoin:miter;"/>
   </g>
   <g id="patch_8">
    <path clip-path="url(#p4cb2660cbb)" d="M 28.346457 90.708661  C 32.856998 90.708661 37.183406 88.916605 40.37284 85.72717  C 43.562274 82.537736 45.354331 78.211328 45.354331 73.700787  C 45.354331 69.190246 43.562274 64.863838 40.37284 61.674404  C 37.183406 58.48497 32.856998 56.692913 28.346457 56.692913  C 23.835916 56.692913 19.509508 58.48497 16.320074 61.674404  C 13.13064 64.863838 11.338583 69.190246 11.338583 73.700787  C 11.338583 78.211328 13.13064 82.537736 16.320074 85.72717  C 19.509508 88.916605 23.835916 90.708661 28.346457 90.708661  L 28.346457 90.708661  z " style="fill:none;stroke:#000000;stroke-linejoin:miter;"/>
   </g>
   <g id="matplotlib.axis_1"/>
   <g id="matplotlib.axis_2"/>
   <g id="text_1">
    <!-- $X_n$ -->
    <defs>
     <path d="M 25.09375 45.90625  L 23.90625 40.203125  Q 28.40625 43.796875 32.203125 45.046875  Q 36 46.296875 40.5 46.296875  Q 45.203125 46.296875 48.09375 43.75  Q 51 41.203125 51 37.203125  Q 51 34.796875 50.40625 32.09375  L 42.40625 0  L 34.5 0  L 42 30.40625  Q 42.5 32.59375 42.5 33.90625  Q 42.5 39.203125 36 39.203125  Q 33.09375 39.203125 28.640625 36.703125  Q 24.203125 34.203125 21.703125 30.203125  L 14.203125 0  L 6.296875 0  L 17.203125 44  L 24.296875 46.40625  z " id="STIXGeneral-Italic-1d62f"/>
     <path d="M 80.59375 66.203125  L 48.90625 34.90625  L 66.90625 0  L 56.40625 0  L 41.90625 28.296875  L 13.59375 0  L 3.09375 0  L 38.296875 34.90625  L 22.09375 66.203125  L 32.703125 66.203125  L 45.203125 41.40625  L 69.90625 66.203125  z " id="STIXGeneral-Italic-1d61f"/>
    </defs>
    <g transform="translate(109.42511811 78.6676624016)scale(0.18 -0.18)">
     <use transform="translate(0.0 0.796875)" xlink:href="#STIXGeneral-Italic-1d61f"/>
     <use transform="translate(69.99998474121094 -12.792187499999997)scale(0.7)" xlink:href="#STIXGeneral-Italic-1d62f"/>
    </g>
   </g>
   <g id="text_2">
    <!-- $\dots$ -->
    <defs>
     <path d="M 88.796875 4.296875  Q 88.796875 2.09375 87.140625 0.5  Q 85.5 -1.09375 83.203125 -1.09375  Q 80.90625 -1.09375 79.296875 0.5  Q 77.703125 2.09375 77.703125 4.390625  Q 77.703125 6.703125 79.34375 8.34375  Q 81 10 83.296875 10  Q 85.5 10 87.140625 8.296875  Q 88.796875 6.59375 88.796875 4.296875  M 55.5 4.296875  Q 55.5 2.09375 53.84375 0.5  Q 52.203125 -1.09375 49.890625 -1.09375  Q 47.59375 -1.09375 46 0.5  Q 44.40625 2.09375 44.40625 4.390625  Q 44.40625 6.703125 46.046875 8.34375  Q 47.703125 10 50 10  Q 52.203125 10 53.84375 8.296875  Q 55.5 6.59375 55.5 4.296875  M 22.203125 4.296875  Q 22.203125 2.09375 20.546875 0.5  Q 18.90625 -1.09375 16.59375 -1.09375  Q 14.296875 -1.09375 12.6875 0.5  Q 11.09375 2.09375 11.09375 4.390625  Q 11.09375 6.703125 12.75 8.34375  Q 14.40625 10 16.703125 10  Q 18.90625 10 20.546875 8.296875  Q 22.203125 6.59375 22.203125 4.296875  " id="STIXGeneral-Regular-2026"/>
    </defs>
    <g transform="translate(64.7007874016 78.6676624016)scale(0.18 -0.18)">
     <use xlink:href="#STIXGeneral-Regular-2026"/>
    </g>
   </g>
   <g id="text_3">
    <!-- class -->
    <defs>
     <path d="M 34.28125 27.484375  Q 23.390625 27.484375 19.1875 25  Q 14.984375 22.515625 14.984375 16.5  Q 14.984375 11.71875 18.140625 8.90625  Q 21.296875 6.109375 26.703125 6.109375  Q 34.1875 6.109375 38.703125 11.40625  Q 43.21875 16.703125 43.21875 25.484375  L 43.21875 27.484375  z M 52.203125 31.203125  L 52.203125 0  L 43.21875 0  L 43.21875 8.296875  Q 40.140625 3.328125 35.546875 0.953125  Q 30.953125 -1.421875 24.3125 -1.421875  Q 15.921875 -1.421875 10.953125 3.296875  Q 6 8.015625 6 15.921875  Q 6 25.140625 12.171875 29.828125  Q 18.359375 34.515625 30.609375 34.515625  L 43.21875 34.515625  L 43.21875 35.40625  Q 43.21875 41.609375 39.140625 45  Q 35.0625 48.390625 27.6875 48.390625  Q 23 48.390625 18.546875 47.265625  Q 14.109375 46.140625 10.015625 43.890625  L 10.015625 52.203125  Q 14.9375 54.109375 19.578125 55.046875  Q 24.21875 56 28.609375 56  Q 40.484375 56 46.34375 49.84375  Q 52.203125 43.703125 52.203125 31.203125  " id="BitstreamVeraSans-Roman-61"/>
     <path d="M 9.421875 75.984375  L 18.40625 75.984375  L 18.40625 0  L 9.421875 0  z " id="BitstreamVeraSans-Roman-6c"/>
     <path d="M 48.78125 52.59375  L 48.78125 44.1875  Q 44.96875 46.296875 41.140625 47.34375  Q 37.3125 48.390625 33.40625 48.390625  Q 24.65625 48.390625 19.8125 42.84375  Q 14.984375 37.3125 14.984375 27.296875  Q 14.984375 17.28125 19.8125 11.734375  Q 24.65625 6.203125 33.40625 6.203125  Q 37.3125 6.203125 41.140625 7.25  Q 44.96875 8.296875 48.78125 10.40625  L 48.78125 2.09375  Q 45.015625 0.34375 40.984375 -0.53125  Q 36.96875 -1.421875 32.421875 -1.421875  Q 20.0625 -1.421875 12.78125 6.34375  Q 5.515625 14.109375 5.515625 27.296875  Q 5.515625 40.671875 12.859375 48.328125  Q 20.21875 56 33.015625 56  Q 37.15625 56 41.109375 55.140625  Q 45.0625 54.296875 48.78125 52.59375  " id="BitstreamVeraSans-Roman-63"/>
     <path d="M 44.28125 53.078125  L 44.28125 44.578125  Q 40.484375 46.53125 36.375 47.5  Q 32.28125 48.484375 27.875 48.484375  Q 21.1875 48.484375 17.84375 46.4375  Q 14.5 44.390625 14.5 40.28125  Q 14.5 37.15625 16.890625 35.375  Q 19.28125 33.59375 26.515625 31.984375  L 29.59375 31.296875  Q 39.15625 29.25 43.1875 25.515625  Q 47.21875 21.78125 47.21875 15.09375  Q 47.21875 7.46875 41.1875 3.015625  Q 35.15625 -1.421875 24.609375 -1.421875  Q 20.21875 -1.421875 15.453125 -0.5625  Q 10.6875 0.296875 5.421875 2  L 5.421875 11.28125  Q 10.40625 8.6875 15.234375 7.390625  Q 20.0625 6.109375 24.8125 6.109375  Q 31.15625 6.109375 34.5625 8.28125  Q 37.984375 10.453125 37.984375 14.40625  Q 37.984375 18.0625 35.515625 20.015625  Q 33.0625 21.96875 24.703125 23.78125  L 21.578125 24.515625  Q 13.234375 26.265625 9.515625 29.90625  Q 5.8125 33.546875 5.8125 39.890625  Q 5.8125 47.609375 11.28125 51.796875  Q 16.75 56 26.8125 56  Q 31.78125 56 36.171875 55.265625  Q 40.578125 54.546875 44.28125 53.078125  " id="BitstreamVeraSans-Roman-73"/>
    </defs>
    <g transform="translate(62.5302405266 30.8298941929)scale(0.09 -0.09)">
     <use xlink:href="#BitstreamVeraSans-Roman-63"/>
     <use x="54.98046875" xlink:href="#BitstreamVeraSans-Roman-6c"/>
     <use x="82.763671875" xlink:href="#BitstreamVeraSans-Roman-61"/>
     <use x="144.04296875" xlink:href="#BitstreamVeraSans-Roman-73"/>
     <use x="196.142578125" xlink:href="#BitstreamVeraSans-Roman-73"/>
    </g>
   </g>
   <g id="text_4">
    <!-- $X_1$ -->
    <defs>
     <path d="M 30.203125 0  L 22.296875 0  L 22.296875 57  Q 20.09375 56 15.75 53.75  Q 11.40625 51.5 10.796875 51.203125  L 10.796875 58.5  L 28.796875 67.703125  L 30.203125 67.203125  z " id="STIXGeneral-Regular-1d7e3"/>
    </defs>
    <g transform="translate(18.6264566929 78.6676624016)scale(0.18 -0.18)">
     <use transform="translate(0.0 0.796875)" xlink:href="#STIXGeneral-Italic-1d61f"/>
     <use transform="translate(69.99998474121094 -12.792187499999997)scale(0.7)" xlink:href="#STIXGeneral-Regular-1d7e3"/>
    </g>
   </g>
  </g>
 </g>
 </svg>
