<svg xmlns="http://www.w3.org/2000/svg" xmlns:xlink="http://www.w3.org/1999/xlink" height="170pt" version="1.1" viewBox="0 0 226 170" width="226pt">
 <defs>
  <clipPath id="p2967d3df42">
   <rect height="170.078740157" width="226.771653543" x="0.0" y="0.0"/>
  </clipPath>
 </defs>
<defs>
  <style type="text/css">
*{stroke-linecap:butt;stroke-linejoin:round;stroke-miterlimit:100000;}
  </style>
 </defs>
 <g id="figure_1">
  <g id="patch_1">
   <path d="M 0 170.07874  L 226.771654 170.07874  L 226.771654 0  L 0 0  z " style="fill:#ffffff;"/>
  </g>
  <g id="axes_1">
   <g id="patch_2">
    <path clip-path="url(#p2967d3df42)" d="M 88.7718 115.181396  L 85.60257 113.596781  L 87.504108 112.646012  L 81.30694 100.251675  L 81.30694 100.251675  L 87.504108 112.646012  L 89.405646 111.695243  L 88.7718 115.181396  z " style="fill:none;stroke:#000000;stroke-linejoin:miter;"/>
   </g>
   <g id="patch_3">
    <path clip-path="url(#p2967d3df42)" d="M 103.984105 115.181396  L 103.350259 111.695243  L 105.251797 112.646012  L 111.448966 100.251675  L 111.448966 100.251675  L 105.251797 112.646012  L 107.153335 113.596781  L 103.984105 115.181396  z " style="fill:none;stroke:#000000;stroke-linejoin:miter;"/>
   </g>
   <g id="patch_4">
    <path clip-path="url(#p2967d3df42)" d="M 110.529359 120.95943  L 111.708643 117.618125  L 112.887927 119.387051  L 150.258042 94.473641  L 150.258042 94.473641  L 112.887927 119.387051  L 114.067211 121.155977  L 110.529359 120.95943  z " style="fill:none;stroke:#000000;stroke-linejoin:miter;"/>
   </g>
   <g id="patch_5">
    <path clip-path="url(#p2967d3df42)" d="M 82.226546 120.95943  L 78.688695 121.155977  L 79.867978 119.387051  L 42.497863 94.473641  L 42.497863 94.473641  L 79.867978 119.387051  L 81.047262 117.618125  L 82.226546 120.95943  z " style="fill:none;stroke:#000000;stroke-linejoin:miter;"/>
   </g>
   <g id="patch_6">
    <path clip-path="url(#p2967d3df42)" d="M 73.700787 68.031496  L 71.574803 65.19685  L 73.700787 65.19685  L 73.700787 45.354331  L 73.700787 45.354331  L 73.700787 65.19685  L 75.826772 65.19685  L 73.700787 68.031496  z " style="fill:none;stroke:#000000;stroke-linejoin:miter;"/>
   </g>
   <g id="patch_7">
    <path clip-path="url(#p2967d3df42)" d="M 119.055118 68.031496  L 116.929134 65.19685  L 119.055118 65.19685  L 119.055118 45.354331  L 119.055118 45.354331  L 119.055118 65.19685  L 121.181102 65.19685  L 119.055118 68.031496  z " style="fill:none;stroke:#000000;stroke-linejoin:miter;"/>
   </g>
   <g id="patch_8">
    <path clip-path="url(#p2967d3df42)" d="M 164.409449 68.031496  L 162.283465 65.19685  L 164.409449 65.19685  L 164.409449 45.354331  L 164.409449 45.354331  L 164.409449 65.19685  L 166.535433 65.19685  L 164.409449 68.031496  z " style="fill:none;stroke:#000000;stroke-linejoin:miter;"/>
   </g>
   <g id="patch_9">
    <path clip-path="url(#p2967d3df42)" d="M 96.377953 145.700787  C 100.43744 145.700787 104.331207 144.087936 107.201698 141.217446  C 110.072188 138.346955 111.685039 134.453188 111.685039 130.393701  C 111.685039 126.334214 110.072188 122.440447 107.201698 119.569956  C 104.331207 116.699465 100.43744 115.086614 96.377953 115.086614  C 92.318466 115.086614 88.424699 116.699465 85.554208 119.569956  C 82.683717 122.440447 81.070866 126.334214 81.070866 130.393701  C 81.070866 134.453188 82.683717 138.346955 85.554208 141.217446  C 88.424699 144.087936 92.318466 145.700787 96.377953 145.700787  L 96.377953 145.700787  z " style="fill:none;stroke:#000000;stroke-linejoin:miter;"/>
   </g>
   <g id="patch_10">
    <path clip-path="url(#p2967d3df42)" d="M 96.377953 147.401575  C 100.888494 147.401575 105.214902 145.609518 108.404336 142.420084  C 111.59377 139.23065 113.385827 134.904242 113.385827 130.393701  C 113.385827 125.88316 111.59377 121.556752 108.404336 118.367318  C 105.214902 115.177884 100.888494 113.385827 96.377953 113.385827  C 91.867412 113.385827 87.541004 115.177884 84.35157 118.367318  C 81.162136 121.556752 79.370079 125.88316 79.370079 130.393701  C 79.370079 134.904242 81.162136 139.23065 84.35157 142.420084  C 87.541004 145.609518 91.867412 147.401575 96.377953 147.401575  L 96.377953 147.401575  z " style="fill:none;stroke:#000000;stroke-linejoin:miter;"/>
   </g>
   <g id="patch_11">
    <path clip-path="url(#p2967d3df42)" d="M 119.055118 102.047244  C 123.565659 102.047244 127.892067 100.255187 131.081501 97.065753  C 134.270935 93.876319 136.062992 89.549911 136.062992 85.03937  C 136.062992 80.528829 134.270935 76.202421 131.081501 73.012987  C 127.892067 69.823553 123.565659 68.031496 119.055118 68.031496  C 114.544577 68.031496 110.218169 69.823553 107.028735 73.012987  C 103.839301 76.202421 102.047244 80.528829 102.047244 85.03937  C 102.047244 89.549911 103.839301 93.876319 107.028735 97.065753  C 110.218169 100.255187 114.544577 102.047244 119.055118 102.047244  L 119.055118 102.047244  z " style="fill:none;stroke:#000000;stroke-linejoin:miter;"/>
   </g>
   <g id="patch_12">
    <path clip-path="url(#p2967d3df42)" d="M 73.700787 45.354331  C 78.211328 45.354331 82.537736 43.562274 85.72717 40.37284  C 88.916605 37.183406 90.708661 32.856998 90.708661 28.346457  C 90.708661 23.835916 88.916605 19.509508 85.72717 16.320074  C 82.537736 13.13064 78.211328 11.338583 73.700787 11.338583  C 69.190246 11.338583 64.863838 13.13064 61.674404 16.320074  C 58.48497 19.509508 56.692913 23.835916 56.692913 28.346457  C 56.692913 32.856998 58.48497 37.183406 61.674404 40.37284  C 64.863838 43.562274 69.190246 45.354331 73.700787 45.354331  L 73.700787 45.354331  z " style="fill:none;stroke:#000000;stroke-linejoin:miter;"/>
   </g>
   <g id="patch_13">
    <path clip-path="url(#p2967d3df42)" d="M 28.346457 102.047244  C 32.856998 102.047244 37.183406 100.255187 40.37284 97.065753  C 43.562274 93.876319 45.354331 89.549911 45.354331 85.03937  C 45.354331 80.528829 43.562274 76.202421 40.37284 73.012987  C 37.183406 69.823553 32.856998 68.031496 28.346457 68.031496  C 23.835916 68.031496 19.509508 69.823553 16.320074 73.012987  C 13.13064 76.202421 11.338583 80.528829 11.338583 85.03937  C 11.338583 89.549911 13.13064 93.876319 16.320074 97.065753  C 19.509508 100.255187 23.835916 102.047244 28.346457 102.047244  L 28.346457 102.047244  z " style="fill:none;stroke:#000000;stroke-linejoin:miter;"/>
   </g>
   <g id="patch_14">
    <path clip-path="url(#p2967d3df42)" d="M 73.700787 102.047244  C 78.211328 102.047244 82.537736 100.255187 85.72717 97.065753  C 88.916605 93.876319 90.708661 89.549911 90.708661 85.03937  C 90.708661 80.528829 88.916605 76.202421 85.72717 73.012987  C 82.537736 69.823553 78.211328 68.031496 73.700787 68.031496  C 69.190246 68.031496 64.863838 69.823553 61.674404 73.012987  C 58.48497 76.202421 56.692913 80.528829 56.692913 85.03937  C 56.692913 89.549911 58.48497 93.876319 61.674404 97.065753  C 64.863838 100.255187 69.190246 102.047244 73.700787 102.047244  L 73.700787 102.047244  z " style="fill:none;stroke:#000000;stroke-linejoin:miter;"/>
   </g>
   <g id="patch_15">
    <path clip-path="url(#p2967d3df42)" d="M 164.409449 45.354331  C 168.91999 45.354331 173.246398 43.562274 176.435832 40.37284  C 179.625266 37.183406 181.417323 32.856998 181.417323 28.346457  C 181.417323 23.835916 179.625266 19.509508 176.435832 16.320074  C 173.246398 13.13064 168.91999 11.338583 164.409449 11.338583  C 159.898908 11.338583 155.5725 13.13064 152.383066 16.320074  C 149.193632 19.509508 147.401575 23.835916 147.401575 28.346457  C 147.401575 32.856998 149.193632 37.183406 152.383066 40.37284  C 155.5725 43.562274 159.898908 45.354331 164.409449 45.354331  L 164.409449 45.354331  z " style="fill:none;stroke:#000000;stroke-linejoin:miter;"/>
   </g>
   <g id="patch_16">
    <path clip-path="url(#p2967d3df42)" d="M 119.055118 45.354331  C 123.565659 45.354331 127.892067 43.562274 131.081501 40.37284  C 134.270935 37.183406 136.062992 32.856998 136.062992 28.346457  C 136.062992 23.835916 134.270935 19.509508 131.081501 16.320074  C 127.892067 13.13064 123.565659 11.338583 119.055118 11.338583  C 114.544577 11.338583 110.218169 13.13064 107.028735 16.320074  C 103.839301 19.509508 102.047244 23.835916 102.047244 28.346457  C 102.047244 32.856998 103.839301 37.183406 107.028735 40.37284  C 110.218169 43.562274 114.544577 45.354331 119.055118 45.354331  L 119.055118 45.354331  z " style="fill:none;stroke:#000000;stroke-linejoin:miter;"/>
   </g>
   <g id="patch_17">
    <path clip-path="url(#p2967d3df42)" d="M 164.409449 102.047244  C 168.91999 102.047244 173.246398 100.255187 176.435832 97.065753  C 179.625266 93.876319 181.417323 89.549911 181.417323 85.03937  C 181.417323 80.528829 179.625266 76.202421 176.435832 73.012987  C 173.246398 69.823553 168.91999 68.031496 164.409449 68.031496  C 159.898908 68.031496 155.5725 69.823553 152.383066 73.012987  C 149.193632 76.202421 147.401575 80.528829 147.401575 85.03937  C 147.401575 89.549911 149.193632 93.876319 152.383066 97.065753  C 155.5725 100.255187 159.898908 102.047244 164.409449 102.047244  L 164.409449 102.047244  z " style="fill:none;stroke:#000000;stroke-linejoin:miter;"/>
   </g>
   <g id="matplotlib.axis_1"/>
   <g id="matplotlib.axis_2"/>
   <g id="text_1">
    <!-- $Y$ -->
    <defs>
     <path d="M 77.40625 66.203125  L 43 28.796875  L 35.796875 0  L 27.09375 0  L 34.203125 28.796875  L 18.59375 66.203125  L 28.09375 66.203125  L 40.5 36.203125  L 67.90625 66.203125  z " id="STIXGeneral-Italic-1d620"/>
    </defs>
    <g transform="translate(90.7079527559 135.360575787)scale(0.18 -0.18)">
     <use transform="translate(0.0 0.796875)" xlink:href="#STIXGeneral-Italic-1d620"/>
    </g>
   </g>
   <g id="text_2">
    <!-- $\dots$ -->
    <defs>
     <path d="M 88.796875 4.296875  Q 88.796875 2.09375 87.140625 0.5  Q 85.5 -1.09375 83.203125 -1.09375  Q 80.90625 -1.09375 79.296875 0.5  Q 77.703125 2.09375 77.703125 4.390625  Q 77.703125 6.703125 79.34375 8.34375  Q 81 10 83.296875 10  Q 85.5 10 87.140625 8.296875  Q 88.796875 6.59375 88.796875 4.296875  M 55.5 4.296875  Q 55.5 2.09375 53.84375 0.5  Q 52.203125 -1.09375 49.890625 -1.09375  Q 47.59375 -1.09375 46 0.5  Q 44.40625 2.09375 44.40625 4.390625  Q 44.40625 6.703125 46.046875 8.34375  Q 47.703125 10 50 10  Q 52.203125 10 53.84375 8.296875  Q 55.5 6.59375 55.5 4.296875  M 22.203125 4.296875  Q 22.203125 2.09375 20.546875 0.5  Q 18.90625 -1.09375 16.59375 -1.09375  Q 14.296875 -1.09375 12.6875 0.5  Q 11.09375 2.09375 11.09375 4.390625  Q 11.09375 6.703125 12.75 8.34375  Q 14.40625 10 16.703125 10  Q 18.90625 10 20.546875 8.296875  Q 22.203125 6.59375 22.203125 4.296875  " id="STIXGeneral-Regular-2026"/>
    </defs>
    <g transform="translate(110.05511811 90.0062450787)scale(0.18 -0.18)">
     <use xlink:href="#STIXGeneral-Regular-2026"/>
    </g>
   </g>
   <g id="text_3">
    <!-- $x_1$ -->
    <defs>
     <path d="M 54.40625 45.296875  L 34.40625 23.59375  L 45.203125 0  L 35.796875 0  L 27.90625 17.5  L 12.40625 0  L 3 0  L 25 23.90625  L 15.40625 45.296875  L 24.796875 45.296875  L 31.59375 30.203125  L 45 45.296875  z " id="STIXGeneral-Italic-1d639"/>
     <path d="M 30.203125 0  L 22.296875 0  L 22.296875 57  Q 20.09375 56 15.75 53.75  Q 11.40625 51.5 10.796875 51.203125  L 10.796875 58.5  L 28.796875 67.703125  L 30.203125 67.203125  z " id="STIXGeneral-Regular-1d7e3"/>
    </defs>
    <g transform="translate(65.9607874016 33.3133316929)scale(0.18 -0.18)">
     <use transform="translate(0.0 0.703125)" xlink:href="#STIXGeneral-Italic-1d639"/>
     <use transform="translate(48.19999694824219 -12.885937499999997)scale(0.7)" xlink:href="#STIXGeneral-Regular-1d7e3"/>
    </g>
   </g>
   <g id="text_4">
    <!-- $z_0$ -->
    <defs>
     <path d="M 51.703125 45.296875  L 51.203125 43.296875  L 17 7.09375  L 43.40625 7.09375  L 40.703125 0  L 2.5 0  L 2.90625 2  L 37.09375 38.203125  L 14.40625 38.203125  L 17.296875 45.296875  z " id="STIXGeneral-Italic-1d63b"/>
     <path d="M 47.703125 33  Q 47.703125 23.796875 45.546875 16.34375  Q 43.40625 8.90625 38.09375 3.75  Q 32.796875 -1.40625 25 -1.40625  Q 18.796875 -1.40625 14.25 1.6875  Q 9.703125 4.796875 7.203125 10.046875  Q 4.703125 15.296875 3.5 21.140625  Q 2.296875 27 2.296875 33.59375  Q 2.296875 42.90625 4.59375 50.34375  Q 6.90625 57.796875 12.296875 62.6875  Q 17.703125 67.59375 25.40625 67.59375  Q 35.203125 67.59375 41.453125 57.9375  Q 47.703125 48.296875 47.703125 33  M 39.796875 33  Q 39.796875 45.203125 35.75 52.84375  Q 31.703125 60.5 25.203125 60.5  Q 17.796875 60.5 14 52.75  Q 10.203125 45 10.203125 33.40625  Q 10.203125 28.203125 10.953125 23.546875  Q 11.703125 18.90625 13.34375 14.75  Q 15 10.59375 18 8.140625  Q 21 5.703125 25 5.703125  Q 30.09375 5.703125 33.546875 9.796875  Q 37 13.90625 38.390625 19.84375  Q 39.796875 25.796875 39.796875 33  " id="STIXGeneral-Regular-1d7e2"/>
    </defs>
    <g transform="translate(20.9664566929 90.0062450787)scale(0.18 -0.18)">
     <use transform="translate(0.0 0.703125)" xlink:href="#STIXGeneral-Italic-1d63b"/>
     <use transform="translate(44.69999694824219 -12.885937499999997)scale(0.7)" xlink:href="#STIXGeneral-Regular-1d7e2"/>
    </g>
   </g>
   <g id="text_5">
    <!-- $z_1$ -->
    <g transform="translate(66.3207874016 90.0062450787)scale(0.18 -0.18)">
     <use transform="translate(0.0 0.703125)" xlink:href="#STIXGeneral-Italic-1d63b"/>
     <use transform="translate(44.69999694824219 -12.885937499999997)scale(0.7)" xlink:href="#STIXGeneral-Regular-1d7e3"/>
    </g>
   </g>
   <g id="text_6">
    <!-- $x_n$ -->
    <defs>
     <path d="M 25.09375 45.90625  L 23.90625 40.203125  Q 28.40625 43.796875 32.203125 45.046875  Q 36 46.296875 40.5 46.296875  Q 45.203125 46.296875 48.09375 43.75  Q 51 41.203125 51 37.203125  Q 51 34.796875 50.40625 32.09375  L 42.40625 0  L 34.5 0  L 42 30.40625  Q 42.5 32.59375 42.5 33.90625  Q 42.5 39.203125 36 39.203125  Q 33.09375 39.203125 28.640625 36.703125  Q 24.203125 34.203125 21.703125 30.203125  L 14.203125 0  L 6.296875 0  L 17.203125 44  L 24.296875 46.40625  z " id="STIXGeneral-Italic-1d62f"/>
    </defs>
    <g transform="translate(156.759448819 33.3133316929)scale(0.18 -0.18)">
     <use transform="translate(0.0 0.703125)" xlink:href="#STIXGeneral-Italic-1d639"/>
     <use transform="translate(48.19999694824219 -12.885937499999997)scale(0.7)" xlink:href="#STIXGeneral-Italic-1d62f"/>
    </g>
   </g>
   <g id="text_7">
    <!-- $\dots$ -->
    <g transform="translate(110.05511811 33.3133316929)scale(0.18 -0.18)">
     <use xlink:href="#STIXGeneral-Regular-2026"/>
    </g>
   </g>
   <g id="text_8">
    <!-- $z_n$ -->
    <g transform="translate(157.029448819 90.0062450787)scale(0.18 -0.18)">
     <use transform="translate(0.0 0.703125)" xlink:href="#STIXGeneral-Italic-1d63b"/>
     <use transform="translate(44.69999694824219 -12.885937499999997)scale(0.7)" xlink:href="#STIXGeneral-Italic-1d62f"/>
    </g>
   </g>
  </g>
 </g>
 </svg>
