<svg xmlns="http://www.w3.org/2000/svg" xmlns:xlink="http://www.w3.org/1999/xlink" height="170pt" version="1.1" viewBox="0 0 340 170" width="340pt">
 <defs>
  <clipPath id="p713a5524e0">
   <rect height="170.078740157" width="340.157480315" x="0.0" y="0.0"/>
  </clipPath>
 </defs>
<defs>
  <style type="text/css">
*{stroke-linecap:butt;stroke-linejoin:round;stroke-miterlimit:100000;}
  </style>
 </defs>
 <g id="figure_1">
  <g id="patch_1">
   <path d="M 0 170.07874  L 340.15748 170.07874  L 340.15748 0  L 0 0  z " style="fill:#ffffff;"/>
  </g>
  <g id="axes_1">
   <g id="patch_2">
    <path clip-path="url(#p713a5524e0)" d="M 67.249381 125.441695  L 66.027587 122.115699  L 68.063911 122.726597  L 91.490776 44.637045  L 91.490776 44.637045  L 68.063911 122.726597  L 70.100234 123.337494  L 67.249381 125.441695  z " style="fill:none;stroke:#000000;stroke-linejoin:miter;"/>
   </g>
   <g id="patch_3">
    <path clip-path="url(#p713a5524e0)" d="M 56.045639 125.940869  L 53.018951 124.098537  L 54.992878 123.308966  L 46.001605 100.830785  L 46.001605 100.830785  L 54.992878 123.308966  L 56.966805 122.519396  L 56.045639 125.940869  z " style="fill:none;stroke:#000000;stroke-linejoin:miter;"/>
   </g>
   <g id="patch_4">
    <path clip-path="url(#p713a5524e0)" d="M 125.506524 125.441695  L 122.655671 123.337494  L 124.691995 122.726597  L 101.265129 44.637045  L 101.265129 44.637045  L 124.691995 122.726597  L 126.728318 122.115699  L 125.506524 125.441695  z " style="fill:none;stroke:#000000;stroke-linejoin:miter;"/>
   </g>
   <g id="patch_5">
    <path clip-path="url(#p713a5524e0)" d="M 136.710267 125.940869  L 135.789101 122.519396  L 137.763028 123.308966  L 146.7543 100.830785  L 146.7543 100.830785  L 137.763028 123.308966  L 139.736954 124.098537  L 136.710267 125.940869  z " style="fill:none;stroke:#000000;stroke-linejoin:miter;"/>
   </g>
   <g id="patch_6">
    <path clip-path="url(#p713a5524e0)" d="M 237.328122 125.441695  L 236.106327 122.115699  L 238.142651 122.726597  L 261.569516 44.637045  L 261.569516 44.637045  L 238.142651 122.726597  L 240.178975 123.337494  L 237.328122 125.441695  z " style="fill:none;stroke:#000000;stroke-linejoin:miter;"/>
   </g>
   <g id="patch_7">
    <path clip-path="url(#p713a5524e0)" d="M 226.124379 125.940869  L 223.097691 124.098537  L 225.071618 123.308966  L 216.080345 100.830785  L 216.080345 100.830785  L 225.071618 123.308966  L 227.045545 122.519396  L 226.124379 125.940869  z " style="fill:none;stroke:#000000;stroke-linejoin:miter;"/>
   </g>
   <g id="patch_8">
    <path clip-path="url(#p713a5524e0)" d="M 295.585264 125.441695  L 292.734411 123.337494  L 294.770735 122.726597  L 271.34387 44.637045  L 271.34387 44.637045  L 294.770735 122.726597  L 296.807058 122.115699  L 295.585264 125.441695  z " style="fill:none;stroke:#000000;stroke-linejoin:miter;"/>
   </g>
   <g id="patch_9">
    <path clip-path="url(#p713a5524e0)" d="M 306.789007 125.940869  L 305.867841 122.519396  L 307.841768 123.308966  L 316.83304 100.830785  L 316.83304 100.830785  L 307.841768 123.308966  L 309.815695 124.098537  L 306.789007 125.940869  z " style="fill:none;stroke:#000000;stroke-linejoin:miter;"/>
   </g>
   <g id="patch_10">
    <path clip-path="url(#p713a5524e0)" d="M 62.362205 158.740157  C 66.872746 158.740157 71.199154 156.948101 74.388588 153.758667  C 77.578022 150.569232 79.370079 146.242824 79.370079 141.732283  C 79.370079 137.221743 77.578022 132.895334 74.388588 129.7059  C 71.199154 126.516466 66.872746 124.724409 62.362205 124.724409  C 57.851664 124.724409 53.525256 126.516466 50.335822 129.7059  C 47.146388 132.895334 45.354331 137.221743 45.354331 141.732283  C 45.354331 146.242824 47.146388 150.569232 50.335822 153.758667  C 53.525256 156.948101 57.851664 158.740157 62.362205 158.740157  L 62.362205 158.740157  z " style="fill:none;stroke:#000000;stroke-linejoin:miter;"/>
   </g>
   <g id="patch_11">
    <path clip-path="url(#p713a5524e0)" d="M 39.685039 102.047244  C 44.19558 102.047244 48.521988 100.255187 51.711422 97.065753  C 54.900856 93.876319 56.692913 89.549911 56.692913 85.03937  C 56.692913 80.528829 54.900856 76.202421 51.711422 73.012987  C 48.521988 69.823553 44.19558 68.031496 39.685039 68.031496  C 35.174498 68.031496 30.84809 69.823553 27.658656 73.012987  C 24.469222 76.202421 22.677165 80.528829 22.677165 85.03937  C 22.677165 89.549911 24.469222 93.876319 27.658656 97.065753  C 30.84809 100.255187 35.174498 102.047244 39.685039 102.047244  L 39.685039 102.047244  z " style="fill:none;stroke:#000000;stroke-linejoin:miter;"/>
   </g>
   <g id="patch_12">
    <path clip-path="url(#p713a5524e0)" d="M 153.070866 102.047244  C 157.581407 102.047244 161.907815 100.255187 165.097249 97.065753  C 168.286683 93.876319 170.07874 89.549911 170.07874 85.03937  C 170.07874 80.528829 168.286683 76.202421 165.097249 73.012987  C 161.907815 69.823553 157.581407 68.031496 153.070866 68.031496  C 148.560325 68.031496 144.233917 69.823553 141.044483 73.012987  C 137.855049 76.202421 136.062992 80.528829 136.062992 85.03937  C 136.062992 89.549911 137.855049 93.876319 141.044483 97.065753  C 144.233917 100.255187 148.560325 102.047244 153.070866 102.047244  L 153.070866 102.047244  z " style="fill:none;stroke:#000000;stroke-linejoin:miter;"/>
   </g>
   <g id="patch_13">
    <path clip-path="url(#p713a5524e0)" d="M 209.76378 102.047244  C 214.27432 102.047244 218.600729 100.255187 221.790163 97.065753  C 224.979597 93.876319 226.771654 89.549911 226.771654 85.03937  C 226.771654 80.528829 224.979597 76.202421 221.790163 73.012987  C 218.600729 69.823553 214.27432 68.031496 209.76378 68.031496  C 205.253239 68.031496 200.926831 69.823553 197.737396 73.012987  C 194.547962 76.202421 192.755906 80.528829 192.755906 85.03937  C 192.755906 89.549911 194.547962 93.876319 197.737396 97.065753  C 200.926831 100.255187 205.253239 102.047244 209.76378 102.047244  L 209.76378 102.047244  z " style="fill:none;stroke:#000000;stroke-linejoin:miter;"/>
   </g>
   <g id="patch_14">
    <path clip-path="url(#p713a5524e0)" d="M 232.440945 158.740157  C 236.951486 158.740157 241.277894 156.948101 244.467328 153.758667  C 247.656762 150.569232 249.448819 146.242824 249.448819 141.732283  C 249.448819 137.221743 247.656762 132.895334 244.467328 129.7059  C 241.277894 126.516466 236.951486 124.724409 232.440945 124.724409  C 227.930404 124.724409 223.603996 126.516466 220.414562 129.7059  C 217.225128 132.895334 215.433071 137.221743 215.433071 141.732283  C 215.433071 146.242824 217.225128 150.569232 220.414562 153.758667  C 223.603996 156.948101 227.930404 158.740157 232.440945 158.740157  L 232.440945 158.740157  z " style="fill:none;stroke:#000000;stroke-linejoin:miter;"/>
   </g>
   <g id="patch_15">
    <path clip-path="url(#p713a5524e0)" d="M 96.377953 45.354331  C 100.888494 45.354331 105.214902 43.562274 108.404336 40.37284  C 111.59377 37.183406 113.385827 32.856998 113.385827 28.346457  C 113.385827 23.835916 111.59377 19.509508 108.404336 16.320074  C 105.214902 13.13064 100.888494 11.338583 96.377953 11.338583  C 91.867412 11.338583 87.541004 13.13064 84.35157 16.320074  C 81.162136 19.509508 79.370079 23.835916 79.370079 28.346457  C 79.370079 32.856998 81.162136 37.183406 84.35157 40.37284  C 87.541004 43.562274 91.867412 45.354331 96.377953 45.354331  L 96.377953 45.354331  z " style="fill:none;stroke:#000000;stroke-linejoin:miter;"/>
   </g>
   <g id="patch_16">
    <path clip-path="url(#p713a5524e0)" d="M 266.456693 45.354331  C 270.967234 45.354331 275.293642 43.562274 278.483076 40.37284  C 281.67251 37.183406 283.464567 32.856998 283.464567 28.346457  C 283.464567 23.835916 281.67251 19.509508 278.483076 16.320074  C 275.293642 13.13064 270.967234 11.338583 266.456693 11.338583  C 261.946152 11.338583 257.619744 13.13064 254.43031 16.320074  C 251.240876 19.509508 249.448819 23.835916 249.448819 28.346457  C 249.448819 32.856998 251.240876 37.183406 254.43031 40.37284  C 257.619744 43.562274 261.946152 45.354331 266.456693 45.354331  L 266.456693 45.354331  z " style="fill:none;stroke:#000000;stroke-linejoin:miter;"/>
   </g>
   <g id="patch_17">
    <path clip-path="url(#p713a5524e0)" d="M 130.393701 158.740157  C 134.904242 158.740157 139.23065 156.948101 142.420084 153.758667  C 145.609518 150.569232 147.401575 146.242824 147.401575 141.732283  C 147.401575 137.221743 145.609518 132.895334 142.420084 129.7059  C 139.23065 126.516466 134.904242 124.724409 130.393701 124.724409  C 125.88316 124.724409 121.556752 126.516466 118.367318 129.7059  C 115.177884 132.895334 113.385827 137.221743 113.385827 141.732283  C 113.385827 146.242824 115.177884 150.569232 118.367318 153.758667  C 121.556752 156.948101 125.88316 158.740157 130.393701 158.740157  L 130.393701 158.740157  z " style="fill:none;stroke:#000000;stroke-linejoin:miter;"/>
   </g>
   <g id="patch_18">
    <path clip-path="url(#p713a5524e0)" d="M 323.149606 102.047244  C 327.660147 102.047244 331.986555 100.255187 335.175989 97.065753  C 338.365423 93.876319 340.15748 89.549911 340.15748 85.03937  C 340.15748 80.528829 338.365423 76.202421 335.175989 73.012987  C 331.986555 69.823553 327.660147 68.031496 323.149606 68.031496  C 318.639065 68.031496 314.312657 69.823553 311.123223 73.012987  C 307.933789 76.202421 306.141732 80.528829 306.141732 85.03937  C 306.141732 89.549911 307.933789 93.876319 311.123223 97.065753  C 314.312657 100.255187 318.639065 102.047244 323.149606 102.047244  L 323.149606 102.047244  z " style="fill:none;stroke:#000000;stroke-linejoin:miter;"/>
   </g>
   <g id="patch_19">
    <path clip-path="url(#p713a5524e0)" d="M 300.472441 158.740157  C 304.982982 158.740157 309.30939 156.948101 312.498824 153.758667  C 315.688258 150.569232 317.480315 146.242824 317.480315 141.732283  C 317.480315 137.221743 315.688258 132.895334 312.498824 129.7059  C 309.30939 126.516466 304.982982 124.724409 300.472441 124.724409  C 295.9619 124.724409 291.635492 126.516466 288.446058 129.7059  C 285.256624 132.895334 283.464567 137.221743 283.464567 141.732283  C 283.464567 146.242824 285.256624 150.569232 288.446058 153.758667  C 291.635492 156.948101 295.9619 158.740157 300.472441 158.740157  L 300.472441 158.740157  z " style="fill:none;stroke:#000000;stroke-linejoin:miter;"/>
   </g>
   <g id="matplotlib.axis_1"/>
   <g id="matplotlib.axis_2"/>
   <g id="text_1">
    <!-- $G(s_1, c_1)$ -->
    <defs>
     <path d="M 30.203125 0  L 22.296875 0  L 22.296875 57  Q 20.09375 56 15.75 53.75  Q 11.40625 51.5 10.796875 51.203125  L 10.796875 58.5  L 28.796875 67.703125  L 30.203125 67.203125  z " id="STIXGeneral-Regular-1d7e3"/>
     <path d="M 43.203125 41  L 41 32.09375  L 39.5 32.09375  Q 37.796875 36.5 35.296875 37.890625  Q 32.796875 39.296875 28.890625 39.296875  Q 25 39.296875 23.046875 37.140625  Q 21.09375 35 21.09375 33  Q 21.09375 31 22.796875 29.546875  Q 24.5 28.09375 27.796875 26.5  Q 33.796875 23.59375 36.140625 21.34375  Q 38.5 19.09375 38.5 15.796875  Q 38.5 9 32.890625 4  Q 27.296875 -1 18.59375 -1  Q 14.09375 -1 11.390625 0.296875  Q 8.703125 1.59375 6.09375 4.5  L 8.59375 14.796875  L 10.09375 14.796875  Q 11.90625 6.09375 21 6.09375  Q 24.40625 6.09375 27.296875 7.84375  Q 30.203125 9.59375 30.203125 12.796875  Q 30.203125 14.296875 28.59375 15.640625  Q 27 17 23.203125 18.90625  Q 17.703125 21.59375 15.25 24.25  Q 12.796875 26.90625 12.796875 30.296875  Q 12.796875 36.5 18 41.390625  Q 23.203125 46.296875 30.90625 46.296875  Q 39.59375 46.296875 43.203125 41  " id="STIXGeneral-Italic-1d634"/>
     <path d="M 75.5 56.5  L 73 46.203125  L 71.09375 46.203125  Q 67.90625 60 52.203125 60  Q 42.796875 60 35.046875 54.953125  Q 27.296875 49.90625 23.140625 42.203125  Q 19 34.5 19 26.203125  Q 19 17.5 24.203125 11.84375  Q 29.40625 6.203125 39.40625 6.203125  Q 47.703125 6.203125 52.046875 8  Q 56.40625 9.796875 57 12.296875  L 61 28.09375  L 52.09375 28.09375  L 52.09375 35.703125  L 71.59375 35.703125  L 64.09375 5.90625  Q 59.59375 3.296875 57.1875 2.1875  Q 54.796875 1.09375 49.34375 -0.15625  Q 43.90625 -1.40625 37.09375 -1.40625  Q 24.203125 -1.40625 16.953125 5.34375  Q 9.703125 12.09375 9.703125 23.40625  Q 9.703125 32.09375 13.34375 40.25  Q 17 48.40625 23.046875 54.40625  Q 29.09375 60.40625 37.296875 64  Q 45.5 67.59375 54.09375 67.59375  Q 70.59375 67.59375 75.5 56.5  " id="STIXGeneral-Italic-1d60e"/>
     <path d="M 50.296875 37.09375  L 44.59375 31.703125  L 43 31.703125  Q 41.59375 39.203125 33.5 39.203125  Q 27.09375 39.203125 21.046875 33.09375  Q 15 27 15 16.90625  Q 15 11.796875 17.84375 8.9375  Q 20.703125 6.09375 25.296875 6.09375  Q 33.40625 6.09375 40.796875 16.59375  L 46.40625 13.203125  Q 36.796875 -1 22.90625 -1  Q 15.5 -1 11.09375 3.203125  Q 6.703125 7.40625 6.703125 15  Q 6.703125 28 15.890625 37.140625  Q 25.09375 46.296875 35.703125 46.296875  Q 41.203125 46.296875 45.140625 44  Q 49.09375 41.703125 50.296875 37.09375  " id="STIXGeneral-Italic-1d624"/>
     <path d="M 30.40625 -16.09375  L 29.203125 -17.703125  Q 17.59375 -11.09375 11.1875 0.5  Q 4.796875 12.09375 4.796875 25.203125  Q 4.796875 52.90625 29.5 67.59375  L 30.40625 66  Q 20.203125 57.296875 16.796875 48.84375  Q 13.40625 40.40625 13.40625 25.5  Q 13.40625 10.703125 16.90625 1.5  Q 20.40625 -7.703125 30.40625 -16.09375  " id="STIXGeneral-Regular-28"/>
     <path d="M 8.296875 -14.09375  L 7.296875 -12.203125  Q 15.59375 -6.59375 15.59375 -1.5  Q 15.59375 -0.203125 14.203125 -0.203125  Q 13.796875 -0.203125 12.84375 -0.390625  Q 11.90625 -0.59375 11.296875 -0.59375  Q 5.5 -0.59375 5.5 4.5  Q 5.5 7.09375 7.140625 8.640625  Q 8.796875 10.203125 11.5 10.203125  Q 14.90625 10.203125 17.203125 7.75  Q 19.5 5.296875 19.5 1.5  Q 19.5 -3.09375 16.453125 -7.390625  Q 13.40625 -11.703125 8.296875 -14.09375  " id="STIXGeneral-Regular-2c"/>
     <path d="M 2.90625 66  L 4.09375 67.59375  Q 15.5 60.796875 22 49.1875  Q 28.5 37.59375 28.5 24.703125  Q 28.5 -2.59375 3.796875 -17.703125  L 2.90625 -16.09375  Q 13.203125 -7.59375 16.546875 0.84375  Q 19.90625 9.296875 19.90625 24.40625  Q 19.90625 39.59375 16.546875 48.75  Q 13.203125 57.90625 2.90625 66  " id="STIXGeneral-Regular-29"/>
    </defs>
    <g transform="translate(43.8822047244 144.767595965)scale(0.11 -0.11)">
     <use transform="translate(0.0 0.40625)" xlink:href="#STIXGeneral-Italic-1d60e"/>
     <use transform="translate(69.49998474121094 0.40625)" xlink:href="#STIXGeneral-Regular-28"/>
     <use transform="translate(102.79997253417969 0.40625)" xlink:href="#STIXGeneral-Italic-1d634"/>
     <use transform="translate(141.69996643066406 -13.182812499999997)scale(0.7)" xlink:href="#STIXGeneral-Regular-1d7e3"/>
     <use transform="translate(178.9647994995117 0.40625)" xlink:href="#STIXGeneral-Regular-2c"/>
     <use transform="translate(219.08478240966798 0.40625)" xlink:href="#STIXGeneral-Italic-1d624"/>
     <use transform="translate(264.68477325439454 -13.182812499999997)scale(0.7)" xlink:href="#STIXGeneral-Regular-1d7e3"/>
     <use transform="translate(301.94960632324216 0.40625)" xlink:href="#STIXGeneral-Regular-29"/>
    </g>
   </g>
   <g id="text_2">
    <!-- $I(s_1, c_1)$ -->
    <defs>
     <path d="M 51.203125 66.203125  L 50.203125 58.796875  L 39.09375 58.796875  L 26.296875 7.40625  L 37.40625 7.40625  L 34.703125 0  L 5.90625 0  L 6.296875 7.40625  L 17.40625 7.40625  L 30.203125 58.796875  L 19.09375 58.796875  L 22.40625 66.203125  z " id="STIXGeneral-Italic-1d610"/>
    </defs>
    <g transform="translate(22.8550393701 88.0746825787)scale(0.11 -0.11)">
     <use transform="translate(0.0 0.40625)" xlink:href="#STIXGeneral-Italic-1d610"/>
     <use transform="translate(40.09999084472656 0.40625)" xlink:href="#STIXGeneral-Regular-28"/>
     <use transform="translate(73.39997863769531 0.40625)" xlink:href="#STIXGeneral-Italic-1d634"/>
     <use transform="translate(112.29997253417969 -13.182812499999997)scale(0.7)" xlink:href="#STIXGeneral-Regular-1d7e3"/>
     <use transform="translate(149.56480560302734 0.40625)" xlink:href="#STIXGeneral-Regular-2c"/>
     <use transform="translate(189.6847885131836 0.40625)" xlink:href="#STIXGeneral-Italic-1d624"/>
     <use transform="translate(235.28477935791017 -13.182812499999997)scale(0.7)" xlink:href="#STIXGeneral-Regular-1d7e3"/>
     <use transform="translate(272.5496124267578 0.40625)" xlink:href="#STIXGeneral-Regular-29"/>
    </g>
   </g>
   <g id="text_3">
    <!-- $I(s_2, c_1)$ -->
    <defs>
     <path d="M 46.90625 7.09375  L 44 0  L 3.5 0  L 3.5 2.09375  L 21 23.5  L 21 23.40625  L 26.59375 30.203125  Q 30.5 34.90625 32.09375 36.953125  Q 33.703125 39 35.203125 41.953125  Q 36.703125 44.90625 36.703125 47.5  Q 36.703125 53.703125 33.34375 57.09375  Q 30 60.5 24.203125 60.5  Q 19.59375 60.5 15.75 56.703125  Q 11.90625 52.90625 10.90625 45.90625  L 3.703125 47.59375  Q 5.296875 56.5 11.1875 62.046875  Q 17.09375 67.59375 24.90625 67.59375  Q 33.59375 67.59375 39.09375 62.1875  Q 44.59375 56.796875 44.59375 49.09375  Q 44.59375 43.5 42.5 39.453125  Q 40.40625 35.40625 33.703125 27  L 17.703125 7.09375  z " id="STIXGeneral-Regular-1d7e4"/>
    </defs>
    <g transform="translate(136.240866142 88.0746825787)scale(0.11 -0.11)">
     <use transform="translate(0.0 0.40625)" xlink:href="#STIXGeneral-Italic-1d610"/>
     <use transform="translate(40.09999084472656 0.40625)" xlink:href="#STIXGeneral-Regular-28"/>
     <use transform="translate(73.39997863769531 0.40625)" xlink:href="#STIXGeneral-Italic-1d634"/>
     <use transform="translate(112.29997253417969 -13.182812499999997)scale(0.7)" xlink:href="#STIXGeneral-Regular-1d7e4"/>
     <use transform="translate(149.56480560302734 0.40625)" xlink:href="#STIXGeneral-Regular-2c"/>
     <use transform="translate(189.6847885131836 0.40625)" xlink:href="#STIXGeneral-Italic-1d624"/>
     <use transform="translate(235.28477935791017 -13.182812499999997)scale(0.7)" xlink:href="#STIXGeneral-Regular-1d7e3"/>
     <use transform="translate(272.5496124267578 0.40625)" xlink:href="#STIXGeneral-Regular-29"/>
    </g>
   </g>
   <g id="text_4">
    <!-- $I(s_1, c_2)$ -->
    <g transform="translate(192.933779528 88.0746825787)scale(0.11 -0.11)">
     <use transform="translate(0.0 0.40625)" xlink:href="#STIXGeneral-Italic-1d610"/>
     <use transform="translate(40.09999084472656 0.40625)" xlink:href="#STIXGeneral-Regular-28"/>
     <use transform="translate(73.39997863769531 0.40625)" xlink:href="#STIXGeneral-Italic-1d634"/>
     <use transform="translate(112.29997253417969 -13.182812499999997)scale(0.7)" xlink:href="#STIXGeneral-Regular-1d7e3"/>
     <use transform="translate(149.56480560302734 0.40625)" xlink:href="#STIXGeneral-Regular-2c"/>
     <use transform="translate(189.6847885131836 0.40625)" xlink:href="#STIXGeneral-Italic-1d624"/>
     <use transform="translate(235.28477935791017 -13.182812499999997)scale(0.7)" xlink:href="#STIXGeneral-Regular-1d7e4"/>
     <use transform="translate(272.5496124267578 0.40625)" xlink:href="#STIXGeneral-Regular-29"/>
    </g>
   </g>
   <g id="text_5">
    <!-- $G(s_1, c_2)$ -->
    <g transform="translate(213.960944882 144.767595965)scale(0.11 -0.11)">
     <use transform="translate(0.0 0.40625)" xlink:href="#STIXGeneral-Italic-1d60e"/>
     <use transform="translate(69.49998474121094 0.40625)" xlink:href="#STIXGeneral-Regular-28"/>
     <use transform="translate(102.79997253417969 0.40625)" xlink:href="#STIXGeneral-Italic-1d634"/>
     <use transform="translate(141.69996643066406 -13.182812499999997)scale(0.7)" xlink:href="#STIXGeneral-Regular-1d7e3"/>
     <use transform="translate(178.9647994995117 0.40625)" xlink:href="#STIXGeneral-Regular-2c"/>
     <use transform="translate(219.08478240966798 0.40625)" xlink:href="#STIXGeneral-Italic-1d624"/>
     <use transform="translate(264.68477325439454 -13.182812499999997)scale(0.7)" xlink:href="#STIXGeneral-Regular-1d7e4"/>
     <use transform="translate(301.94960632324216 0.40625)" xlink:href="#STIXGeneral-Regular-29"/>
    </g>
   </g>
   <g id="text_6">
    <!-- $D(c_1)$ -->
    <defs>
     <path d="M 23.90625 66.203125  L 40.5 66.203125  Q 75.09375 66.203125 75.09375 42.90625  Q 75.09375 35.203125 72 27.640625  Q 68.90625 20.09375 63.25 13.890625  Q 57.59375 7.703125 48.640625 3.84375  Q 39.703125 0 28.90625 0  L 7.40625 0  z M 17.90625 7.40625  L 22.796875 7.40625  Q 32.203125 7.40625 37.5 8.15625  Q 42.796875 8.90625 48.203125 11.40625  Q 56.203125 15.09375 61.046875 23.140625  Q 65.90625 31.203125 65.90625 40.90625  Q 65.90625 58.796875 36.703125 58.796875  L 30.703125 58.796875  z " id="STIXGeneral-Italic-1d60b"/>
    </defs>
    <g transform="translate(83.2379527559 31.6577066929)scale(0.12 -0.12)">
     <use transform="translate(0.0 0.40625)" xlink:href="#STIXGeneral-Italic-1d60b"/>
     <use transform="translate(69.19998168945312 0.40625)" xlink:href="#STIXGeneral-Regular-28"/>
     <use transform="translate(102.49996948242188 0.40625)" xlink:href="#STIXGeneral-Italic-1d624"/>
     <use transform="translate(148.09996032714844 -13.182812499999997)scale(0.7)" xlink:href="#STIXGeneral-Regular-1d7e3"/>
     <use transform="translate(185.3647933959961 0.40625)" xlink:href="#STIXGeneral-Regular-29"/>
    </g>
   </g>
   <g id="text_7">
    <!-- $D(c_2)$ -->
    <g transform="translate(253.316692913 31.6577066929)scale(0.12 -0.12)">
     <use transform="translate(0.0 0.40625)" xlink:href="#STIXGeneral-Italic-1d60b"/>
     <use transform="translate(69.19998168945312 0.40625)" xlink:href="#STIXGeneral-Regular-28"/>
     <use transform="translate(102.49996948242188 0.40625)" xlink:href="#STIXGeneral-Italic-1d624"/>
     <use transform="translate(148.09996032714844 -13.182812499999997)scale(0.7)" xlink:href="#STIXGeneral-Regular-1d7e4"/>
     <use transform="translate(185.3647933959961 0.40625)" xlink:href="#STIXGeneral-Regular-29"/>
    </g>
   </g>
   <g id="text_8">
    <!-- $G(s_2, c_1)$ -->
    <g transform="translate(111.913700787 144.767595965)scale(0.11 -0.11)">
     <use transform="translate(0.0 0.40625)" xlink:href="#STIXGeneral-Italic-1d60e"/>
     <use transform="translate(69.49998474121094 0.40625)" xlink:href="#STIXGeneral-Regular-28"/>
     <use transform="translate(102.79997253417969 0.40625)" xlink:href="#STIXGeneral-Italic-1d634"/>
     <use transform="translate(141.69996643066406 -13.182812499999997)scale(0.7)" xlink:href="#STIXGeneral-Regular-1d7e4"/>
     <use transform="translate(178.9647994995117 0.40625)" xlink:href="#STIXGeneral-Regular-2c"/>
     <use transform="translate(219.08478240966798 0.40625)" xlink:href="#STIXGeneral-Italic-1d624"/>
     <use transform="translate(264.68477325439454 -13.182812499999997)scale(0.7)" xlink:href="#STIXGeneral-Regular-1d7e3"/>
     <use transform="translate(301.94960632324216 0.40625)" xlink:href="#STIXGeneral-Regular-29"/>
    </g>
   </g>
   <g id="text_9">
    <!-- $I(s_2, c_2)$ -->
    <g transform="translate(306.319606299 88.0746825787)scale(0.11 -0.11)">
     <use transform="translate(0.0 0.40625)" xlink:href="#STIXGeneral-Italic-1d610"/>
     <use transform="translate(40.09999084472656 0.40625)" xlink:href="#STIXGeneral-Regular-28"/>
     <use transform="translate(73.39997863769531 0.40625)" xlink:href="#STIXGeneral-Italic-1d634"/>
     <use transform="translate(112.29997253417969 -13.182812499999997)scale(0.7)" xlink:href="#STIXGeneral-Regular-1d7e4"/>
     <use transform="translate(149.56480560302734 0.40625)" xlink:href="#STIXGeneral-Regular-2c"/>
     <use transform="translate(189.6847885131836 0.40625)" xlink:href="#STIXGeneral-Italic-1d624"/>
     <use transform="translate(235.28477935791017 -13.182812499999997)scale(0.7)" xlink:href="#STIXGeneral-Regular-1d7e4"/>
     <use transform="translate(272.5496124267578 0.40625)" xlink:href="#STIXGeneral-Regular-29"/>
    </g>
   </g>
   <g id="text_10">
    <!-- $G(s_2, c_2)$ -->
    <g transform="translate(281.992440945 144.767595965)scale(0.11 -0.11)">
     <use transform="translate(0.0 0.40625)" xlink:href="#STIXGeneral-Italic-1d60e"/>
     <use transform="translate(69.49998474121094 0.40625)" xlink:href="#STIXGeneral-Regular-28"/>
     <use transform="translate(102.79997253417969 0.40625)" xlink:href="#STIXGeneral-Italic-1d634"/>
     <use transform="translate(141.69996643066406 -13.182812499999997)scale(0.7)" xlink:href="#STIXGeneral-Regular-1d7e4"/>
     <use transform="translate(178.9647994995117 0.40625)" xlink:href="#STIXGeneral-Regular-2c"/>
     <use transform="translate(219.08478240966798 0.40625)" xlink:href="#STIXGeneral-Italic-1d624"/>
     <use transform="translate(264.68477325439454 -13.182812499999997)scale(0.7)" xlink:href="#STIXGeneral-Regular-1d7e4"/>
     <use transform="translate(301.94960632324216 0.40625)" xlink:href="#STIXGeneral-Regular-29"/>
    </g>
   </g>
  </g>
 </g>
 </svg>
