<svg xmlns="http://www.w3.org/2000/svg" xmlns:xlink="http://www.w3.org/1999/xlink" height="170pt" version="1.1" viewBox="0 0 141 170" width="141pt">
 <defs>
  <clipPath id="p82e41fe861">
   <rect height="170.078740157" width="141.732283465" x="0.0" y="0.0"/>
  </clipPath>
 </defs>
<defs>
  <style type="text/css">
*{stroke-linecap:butt;stroke-linejoin:round;stroke-miterlimit:100000;}
  </style>
 </defs>
 <g id="figure_1">
  <g id="patch_1">
   <path d="M 0 170.07874  L 141.732283 170.07874  L 141.732283 0  L 0 0  z " style="fill:#ffffff;"/>
  </g>
  <g id="axes_1">
   <g id="patch_2">
    <path clip-path="url(#p82e41fe861)" d="M 74.834646 60.094488  L 71.433071 59.102362  L 73.133858 57.826772  L 61.228346 41.952756  L 61.228346 41.952756  L 73.133858 57.826772  L 74.834646 56.551181  L 74.834646 60.094488  z " style="fill:none;stroke:#000000;stroke-linejoin:miter;"/>
   </g>
   <g id="patch_3">
    <path clip-path="url(#p82e41fe861)" d="M 108.850394 41.952756  L 108.850394 45.496063  L 107.149606 44.220472  L 95.244094 60.094488  L 95.244094 60.094488  L 107.149606 44.220472  L 105.448819 42.944882  L 108.850394 41.952756  z " style="fill:none;stroke:#000000;stroke-linejoin:miter;"/>
   </g>
   <g id="patch_4">
    <path clip-path="url(#p82e41fe861)" d="M 51.023622 45.354331  C 55.534163 45.354331 59.860571 43.562274 63.050005 40.37284  C 66.239439 37.183406 68.031496 32.856998 68.031496 28.346457  C 68.031496 23.835916 66.239439 19.509508 63.050005 16.320074  C 59.860571 13.13064 55.534163 11.338583 51.023622 11.338583  C 46.513081 11.338583 42.186673 13.13064 38.997239 16.320074  C 35.807805 19.509508 34.015748 23.835916 34.015748 28.346457  C 34.015748 32.856998 35.807805 37.183406 38.997239 40.37284  C 42.186673 43.562274 46.513081 45.354331 51.023622 45.354331  L 51.023622 45.354331  z " style="fill:none;stroke:#000000;stroke-linejoin:miter;"/>
   </g>
   <g id="patch_5">
    <path clip-path="url(#p82e41fe861)" d="M 85.03937 90.708661  C 89.549911 90.708661 93.876319 88.916605 97.065753 85.72717  C 100.255187 82.537736 102.047244 78.211328 102.047244 73.700787  C 102.047244 69.190246 100.255187 64.863838 97.065753 61.674404  C 93.876319 58.48497 89.549911 56.692913 85.03937 56.692913  C 80.528829 56.692913 76.202421 58.48497 73.012987 61.674404  C 69.823553 64.863838 68.031496 69.190246 68.031496 73.700787  C 68.031496 78.211328 69.823553 82.537736 73.012987 85.72717  C 76.202421 88.916605 80.528829 90.708661 85.03937 90.708661  z " style="fill:#386df9;stroke:#000000;stroke-linejoin:miter;"/>
   </g>
   <g id="patch_6">
    <path clip-path="url(#p82e41fe861)" d="M 119.055118 45.354331  C 123.565659 45.354331 127.892067 43.562274 131.081501 40.37284  C 134.270935 37.183406 136.062992 32.856998 136.062992 28.346457  C 136.062992 23.835916 134.270935 19.509508 131.081501 16.320074  C 127.892067 13.13064 123.565659 11.338583 119.055118 11.338583  C 114.544577 11.338583 110.218169 13.13064 107.028735 16.320074  C 103.839301 19.509508 102.047244 23.835916 102.047244 28.346457  C 102.047244 32.856998 103.839301 37.183406 107.028735 40.37284  C 110.218169 43.562274 114.544577 45.354331 119.055118 45.354331  L 119.055118 45.354331  z " style="fill:none;stroke:#000000;stroke-linejoin:miter;"/>
   </g>
   <g id="patch_7">
    <path clip-path="url(#p82e41fe861)" d="M 119.055118 158.740157  C 123.565659 158.740157 127.892067 156.948101 131.081501 153.758667  C 134.270935 150.569232 136.062992 146.242824 136.062992 141.732283  C 136.062992 137.221743 134.270935 132.895334 131.081501 129.7059  C 127.892067 126.516466 123.565659 124.724409 119.055118 124.724409  C 114.544577 124.724409 110.218169 126.516466 107.028735 129.7059  C 103.839301 132.895334 102.047244 137.221743 102.047244 141.732283  C 102.047244 146.242824 103.839301 150.569232 107.028735 153.758667  C 110.218169 156.948101 114.544577 158.740157 119.055118 158.740157  L 119.055118 158.740157  z " style="fill:none;stroke:#000000;stroke-linejoin:miter;"/>
   </g>
   <g id="patch_8">
    <path clip-path="url(#p82e41fe861)" d="M 51.023622 158.740157  C 55.534163 158.740157 59.860571 156.948101 63.050005 153.758667  C 66.239439 150.569232 68.031496 146.242824 68.031496 141.732283  C 68.031496 137.221743 66.239439 132.895334 63.050005 129.7059  C 59.860571 126.516466 55.534163 124.724409 51.023622 124.724409  C 46.513081 124.724409 42.186673 126.516466 38.997239 129.7059  C 35.807805 132.895334 34.015748 137.221743 34.015748 141.732283  C 34.015748 146.242824 35.807805 150.569232 38.997239 153.758667  C 42.186673 156.948101 46.513081 158.740157 51.023622 158.740157  L 51.023622 158.740157  z " style="fill:none;stroke:#000000;stroke-linejoin:miter;"/>
   </g>
   <g id="matplotlib.axis_1"/>
   <g id="matplotlib.axis_2"/>
   <g id="text_1">
    <!-- A -->
    <defs>
     <path d="M 34.1875 63.1875  L 20.796875 26.90625  L 47.609375 26.90625  z M 28.609375 72.90625  L 39.796875 72.90625  L 67.578125 0  L 57.328125 0  L 50.6875 18.703125  L 17.828125 18.703125  L 11.1875 0  L 0.78125 0  z " id="BitstreamVeraSans-Roman-41"/>
    </defs>
    <g transform="translate(44.8670595472 33.3133316929)scale(0.18 -0.18)">
     <use xlink:href="#BitstreamVeraSans-Roman-41"/>
    </g>
   </g>
   <g id="text_2">
    <!-- C -->
    <defs>
     <path d="M 64.40625 67.28125  L 64.40625 56.890625  Q 59.421875 61.53125 53.78125 63.8125  Q 48.140625 66.109375 41.796875 66.109375  Q 29.296875 66.109375 22.65625 58.46875  Q 16.015625 50.828125 16.015625 36.375  Q 16.015625 21.96875 22.65625 14.328125  Q 29.296875 6.6875 41.796875 6.6875  Q 48.140625 6.6875 53.78125 8.984375  Q 59.421875 11.28125 64.40625 15.921875  L 64.40625 5.609375  Q 59.234375 2.09375 53.4375 0.328125  Q 47.65625 -1.421875 41.21875 -1.421875  Q 24.65625 -1.421875 15.125 8.703125  Q 5.609375 18.84375 5.609375 36.375  Q 5.609375 53.953125 15.125 64.078125  Q 24.65625 74.21875 41.21875 74.21875  Q 47.75 74.21875 53.53125 72.484375  Q 59.328125 70.75 64.40625 67.28125  " id="BitstreamVeraSans-Roman-43"/>
    </defs>
    <g style="fill:#ffffff;" transform="translate(78.7548388287 78.6676624016)scale(0.18 -0.18)">
     <use xlink:href="#BitstreamVeraSans-Roman-43"/>
    </g>
   </g>
   <g id="text_3">
    <!-- B -->
    <defs>
     <path d="M 19.671875 34.8125  L 19.671875 8.109375  L 35.5 8.109375  Q 43.453125 8.109375 47.28125 11.40625  Q 51.125 14.703125 51.125 21.484375  Q 51.125 28.328125 47.28125 31.5625  Q 43.453125 34.8125 35.5 34.8125  z M 19.671875 64.796875  L 19.671875 42.828125  L 34.28125 42.828125  Q 41.5 42.828125 45.03125 45.53125  Q 48.578125 48.25 48.578125 53.8125  Q 48.578125 59.328125 45.03125 62.0625  Q 41.5 64.796875 34.28125 64.796875  z M 9.8125 72.90625  L 35.015625 72.90625  Q 46.296875 72.90625 52.390625 68.21875  Q 58.5 63.53125 58.5 54.890625  Q 58.5 48.1875 55.375 44.234375  Q 52.25 40.28125 46.1875 39.3125  Q 53.46875 37.75 57.5 32.78125  Q 61.53125 27.828125 61.53125 20.40625  Q 61.53125 10.640625 54.890625 5.3125  Q 48.25 0 35.984375 0  L 9.8125 0  z " id="BitstreamVeraSans-Roman-42"/>
    </defs>
    <g transform="translate(112.88027436 33.3133316929)scale(0.18 -0.18)">
     <use xlink:href="#BitstreamVeraSans-Roman-42"/>
    </g>
   </g>
   <g id="text_4">
    <!-- B -->
    <g transform="translate(112.88027436 146.699158465)scale(0.18 -0.18)">
     <use xlink:href="#BitstreamVeraSans-Roman-42"/>
    </g>
   </g>
   <g id="text_5">
    <!-- A -->
    <g transform="translate(44.8670595472 146.699158465)scale(0.18 -0.18)">
     <use xlink:href="#BitstreamVeraSans-Roman-41"/>
    </g>
   </g>
  </g>
 </g>
 </svg>
