<svg xmlns="http://www.w3.org/2000/svg" xmlns:xlink="http://www.w3.org/1999/xlink" height="170pt" version="1.1" viewBox="0 0 340 170" width="340pt">
 <defs>
  <clipPath id="p8ab1940b7a">
   <rect height="170.078740157" width="340.157480315" x="0.0" y="0.0"/>
  </clipPath>
 </defs>
<defs>
  <style type="text/css">
*{stroke-linecap:butt;stroke-linejoin:round;stroke-miterlimit:100000;}
  </style>
 </defs>
 <g id="figure_1">
  <g id="patch_1">
   <path d="M 0 170.07874  L 340.15748 170.07874  L 340.15748 0  L 0 0  z " style="fill:#ffffff;"/>
  </g>
  <g id="axes_1">
   <g id="patch_2">
    <path clip-path="url(#p8ab1940b7a)" d="M 56.692913 170.07874  L 226.771654 170.07874  L 226.771654 28.346457  L 56.692913 28.346457  L 56.692913 170.07874  z " style="fill:none;stroke:#000000;stroke-linejoin:miter;"/>
   </g>
   <g id="patch_3">
    <path clip-path="url(#p8ab1940b7a)" d="M 170.07874 164.409449  L 340.15748 164.409449  L 340.15748 34.015748  L 170.07874 34.015748  L 170.07874 164.409449  z " style="fill:none;stroke:#000000;stroke-linejoin:miter;"/>
   </g>
   <g id="patch_4">
    <path clip-path="url(#p8ab1940b7a)" d="M 181.417323 85.03937  L 178.582677 87.165354  L 178.582677 85.03937  L 136.062992 85.03937  L 136.062992 85.03937  L 178.582677 85.03937  L 178.582677 82.913386  L 181.417323 85.03937  z " style="fill:none;stroke:#000000;stroke-linejoin:miter;"/>
   </g>
   <g id="patch_5">
    <path clip-path="url(#p8ab1940b7a)" d="M 215.433071 85.03937  L 218.267717 82.913386  L 218.267717 85.03937  L 260.787402 85.03937  L 260.787402 85.03937  L 218.267717 85.03937  L 218.267717 87.165354  L 215.433071 85.03937  z " style="fill:none;stroke:#000000;stroke-linejoin:miter;"/>
   </g>
   <g id="patch_6">
    <path clip-path="url(#p8ab1940b7a)" d="M 198.425197 102.047244  C 202.935738 102.047244 207.262146 100.255187 210.45158 97.065753  C 213.641014 93.876319 215.433071 89.549911 215.433071 85.03937  C 215.433071 80.528829 213.641014 76.202421 210.45158 73.012987  C 207.262146 69.823553 202.935738 68.031496 198.425197 68.031496  C 193.914656 68.031496 189.588248 69.823553 186.398814 73.012987  C 183.20938 76.202421 181.417323 80.528829 181.417323 85.03937  C 181.417323 89.549911 183.20938 93.876319 186.398814 97.065753  C 189.588248 100.255187 193.914656 102.047244 198.425197 102.047244  L 198.425197 102.047244  z " style="fill:none;stroke:#000000;stroke-linejoin:miter;"/>
   </g>
   <g id="patch_7">
    <path clip-path="url(#p8ab1940b7a)" d="M 119.055118 102.047244  C 123.565659 102.047244 127.892067 100.255187 131.081501 97.065753  C 134.270935 93.876319 136.062992 89.549911 136.062992 85.03937  C 136.062992 80.528829 134.270935 76.202421 131.081501 73.012987  C 127.892067 69.823553 123.565659 68.031496 119.055118 68.031496  C 114.544577 68.031496 110.218169 69.823553 107.028735 73.012987  C 103.839301 76.202421 102.047244 80.528829 102.047244 85.03937  C 102.047244 89.549911 103.839301 93.876319 107.028735 97.065753  C 110.218169 100.255187 114.544577 102.047244 119.055118 102.047244  L 119.055118 102.047244  z " style="fill:none;stroke:#000000;stroke-linejoin:miter;"/>
   </g>
   <g id="patch_8">
    <path clip-path="url(#p8ab1940b7a)" d="M 277.795276 102.047244  C 282.305817 102.047244 286.632225 100.255187 289.821659 97.065753  C 293.011093 93.876319 294.80315 89.549911 294.80315 85.03937  C 294.80315 80.528829 293.011093 76.202421 289.821659 73.012987  C 286.632225 69.823553 282.305817 68.031496 277.795276 68.031496  C 273.284735 68.031496 268.958327 69.823553 265.768893 73.012987  C 262.579458 76.202421 260.787402 80.528829 260.787402 85.03937  C 260.787402 89.549911 262.579458 93.876319 265.768893 97.065753  C 268.958327 100.255187 273.284735 102.047244 277.795276 102.047244  L 277.795276 102.047244  z " style="fill:none;stroke:#000000;stroke-linejoin:miter;"/>
   </g>
   <g id="matplotlib.axis_1"/>
   <g id="matplotlib.axis_2"/>
   <g id="text_1">
    <!-- students $s$ -->
    <defs>
     <path d="M 18.3125 70.21875  L 18.3125 54.6875  L 36.8125 54.6875  L 36.8125 47.703125  L 18.3125 47.703125  L 18.3125 18.015625  Q 18.3125 11.328125 20.140625 9.421875  Q 21.96875 7.515625 27.59375 7.515625  L 36.8125 7.515625  L 36.8125 0  L 27.59375 0  Q 17.1875 0 13.234375 3.875  Q 9.28125 7.765625 9.28125 18.015625  L 9.28125 47.703125  L 2.6875 47.703125  L 2.6875 54.6875  L 9.28125 54.6875  L 9.28125 70.21875  z " id="BitstreamVeraSans-Roman-74"/>
     <path d="M 54.890625 33.015625  L 54.890625 0  L 45.90625 0  L 45.90625 32.71875  Q 45.90625 40.484375 42.875 44.328125  Q 39.84375 48.1875 33.796875 48.1875  Q 26.515625 48.1875 22.3125 43.546875  Q 18.109375 38.921875 18.109375 30.90625  L 18.109375 0  L 9.078125 0  L 9.078125 54.6875  L 18.109375 54.6875  L 18.109375 46.1875  Q 21.34375 51.125 25.703125 53.5625  Q 30.078125 56 35.796875 56  Q 45.21875 56 50.046875 50.171875  Q 54.890625 44.34375 54.890625 33.015625  " id="BitstreamVeraSans-Roman-6e"/>
     <path id="BitstreamVeraSans-Roman-20"/>
     <path d="M 8.5 21.578125  L 8.5 54.6875  L 17.484375 54.6875  L 17.484375 21.921875  Q 17.484375 14.15625 20.5 10.265625  Q 23.53125 6.390625 29.59375 6.390625  Q 36.859375 6.390625 41.078125 11.03125  Q 45.3125 15.671875 45.3125 23.6875  L 45.3125 54.6875  L 54.296875 54.6875  L 54.296875 0  L 45.3125 0  L 45.3125 8.40625  Q 42.046875 3.421875 37.71875 1  Q 33.40625 -1.421875 27.6875 -1.421875  Q 18.265625 -1.421875 13.375 4.4375  Q 8.5 10.296875 8.5 21.578125  " id="BitstreamVeraSans-Roman-75"/>
     <path d="M 45.40625 46.390625  L 45.40625 75.984375  L 54.390625 75.984375  L 54.390625 0  L 45.40625 0  L 45.40625 8.203125  Q 42.578125 3.328125 38.25 0.953125  Q 33.9375 -1.421875 27.875 -1.421875  Q 17.96875 -1.421875 11.734375 6.484375  Q 5.515625 14.40625 5.515625 27.296875  Q 5.515625 40.1875 11.734375 48.09375  Q 17.96875 56 27.875 56  Q 33.9375 56 38.25 53.625  Q 42.578125 51.265625 45.40625 46.390625  M 14.796875 27.296875  Q 14.796875 17.390625 18.875 11.75  Q 22.953125 6.109375 30.078125 6.109375  Q 37.203125 6.109375 41.296875 11.75  Q 45.40625 17.390625 45.40625 27.296875  Q 45.40625 37.203125 41.296875 42.84375  Q 37.203125 48.484375 30.078125 48.484375  Q 22.953125 48.484375 18.875 42.84375  Q 14.796875 37.203125 14.796875 27.296875  " id="BitstreamVeraSans-Roman-64"/>
     <path d="M 43.203125 41  L 41 32.09375  L 39.5 32.09375  Q 37.796875 36.5 35.296875 37.890625  Q 32.796875 39.296875 28.890625 39.296875  Q 25 39.296875 23.046875 37.140625  Q 21.09375 35 21.09375 33  Q 21.09375 31 22.796875 29.546875  Q 24.5 28.09375 27.796875 26.5  Q 33.796875 23.59375 36.140625 21.34375  Q 38.5 19.09375 38.5 15.796875  Q 38.5 9 32.890625 4  Q 27.296875 -1 18.59375 -1  Q 14.09375 -1 11.390625 0.296875  Q 8.703125 1.59375 6.09375 4.5  L 8.59375 14.796875  L 10.09375 14.796875  Q 11.90625 6.09375 21 6.09375  Q 24.40625 6.09375 27.296875 7.84375  Q 30.203125 9.59375 30.203125 12.796875  Q 30.203125 14.296875 28.59375 15.640625  Q 27 17 23.203125 18.90625  Q 17.703125 21.59375 15.25 24.25  Q 12.796875 26.90625 12.796875 30.296875  Q 12.796875 36.5 18 41.390625  Q 23.203125 46.296875 30.90625 46.296875  Q 39.59375 46.296875 43.203125 41  " id="STIXGeneral-Italic-1d634"/>
     <path d="M 56.203125 29.59375  L 56.203125 25.203125  L 14.890625 25.203125  Q 15.484375 15.921875 20.484375 11.0625  Q 25.484375 6.203125 34.421875 6.203125  Q 39.59375 6.203125 44.453125 7.46875  Q 49.3125 8.734375 54.109375 11.28125  L 54.109375 2.78125  Q 49.265625 0.734375 44.1875 -0.34375  Q 39.109375 -1.421875 33.890625 -1.421875  Q 20.796875 -1.421875 13.15625 6.1875  Q 5.515625 13.8125 5.515625 26.8125  Q 5.515625 40.234375 12.765625 48.109375  Q 20.015625 56 32.328125 56  Q 43.359375 56 49.78125 48.890625  Q 56.203125 41.796875 56.203125 29.59375  M 47.21875 32.234375  Q 47.125 39.59375 43.09375 43.984375  Q 39.0625 48.390625 32.421875 48.390625  Q 24.90625 48.390625 20.390625 44.140625  Q 15.875 39.890625 15.1875 32.171875  z " id="BitstreamVeraSans-Roman-65"/>
     <path d="M 44.28125 53.078125  L 44.28125 44.578125  Q 40.484375 46.53125 36.375 47.5  Q 32.28125 48.484375 27.875 48.484375  Q 21.1875 48.484375 17.84375 46.4375  Q 14.5 44.390625 14.5 40.28125  Q 14.5 37.15625 16.890625 35.375  Q 19.28125 33.59375 26.515625 31.984375  L 29.59375 31.296875  Q 39.15625 29.25 43.1875 25.515625  Q 47.21875 21.78125 47.21875 15.09375  Q 47.21875 7.46875 41.1875 3.015625  Q 35.15625 -1.421875 24.609375 -1.421875  Q 20.21875 -1.421875 15.453125 -0.5625  Q 10.6875 0.296875 5.421875 2  L 5.421875 11.28125  Q 10.40625 8.6875 15.234375 7.390625  Q 20.0625 6.109375 24.8125 6.109375  Q 31.15625 6.109375 34.5625 8.28125  Q 37.984375 10.453125 37.984375 14.40625  Q 37.984375 18.0625 35.515625 20.015625  Q 33.0625 21.96875 24.703125 23.78125  L 21.578125 24.515625  Q 13.234375 26.265625 9.515625 29.90625  Q 5.8125 33.546875 5.8125 39.890625  Q 5.8125 47.609375 11.28125 51.796875  Q 16.75 56 26.8125 56  Q 31.78125 56 36.171875 55.265625  Q 40.578125 54.546875 44.28125 53.078125  " id="BitstreamVeraSans-Roman-73"/>
    </defs>
    <g transform="translate(61.6929133858 165.078740157)scale(0.18 -0.18)">
     <use transform="translate(0.0 0.015625)" xlink:href="#BitstreamVeraSans-Roman-73"/>
     <use transform="translate(52.099609375 0.015625)" xlink:href="#BitstreamVeraSans-Roman-74"/>
     <use transform="translate(91.30859375 0.015625)" xlink:href="#BitstreamVeraSans-Roman-75"/>
     <use transform="translate(154.6875 0.015625)" xlink:href="#BitstreamVeraSans-Roman-64"/>
     <use transform="translate(218.1640625 0.015625)" xlink:href="#BitstreamVeraSans-Roman-65"/>
     <use transform="translate(279.6875 0.015625)" xlink:href="#BitstreamVeraSans-Roman-6e"/>
     <use transform="translate(343.06640625 0.015625)" xlink:href="#BitstreamVeraSans-Roman-74"/>
     <use transform="translate(382.275390625 0.015625)" xlink:href="#BitstreamVeraSans-Roman-73"/>
     <use transform="translate(434.375 0.015625)" xlink:href="#BitstreamVeraSans-Roman-20"/>
     <use transform="translate(466.162109375 0.015625)" xlink:href="#STIXGeneral-Italic-1d634"/>
    </g>
   </g>
   <g id="text_2">
    <!-- courses $c$ -->
    <defs>
     <path d="M 41.109375 46.296875  Q 39.59375 47.171875 37.8125 47.578125  Q 36.03125 48 33.890625 48  Q 26.265625 48 22.1875 43.046875  Q 18.109375 38.09375 18.109375 28.8125  L 18.109375 0  L 9.078125 0  L 9.078125 54.6875  L 18.109375 54.6875  L 18.109375 46.1875  Q 20.953125 51.171875 25.484375 53.578125  Q 30.03125 56 36.53125 56  Q 37.453125 56 38.578125 55.875  Q 39.703125 55.765625 41.0625 55.515625  z " id="BitstreamVeraSans-Roman-72"/>
     <path d="M 50.296875 37.09375  L 44.59375 31.703125  L 43 31.703125  Q 41.59375 39.203125 33.5 39.203125  Q 27.09375 39.203125 21.046875 33.09375  Q 15 27 15 16.90625  Q 15 11.796875 17.84375 8.9375  Q 20.703125 6.09375 25.296875 6.09375  Q 33.40625 6.09375 40.796875 16.59375  L 46.40625 13.203125  Q 36.796875 -1 22.90625 -1  Q 15.5 -1 11.09375 3.203125  Q 6.703125 7.40625 6.703125 15  Q 6.703125 28 15.890625 37.140625  Q 25.09375 46.296875 35.703125 46.296875  Q 41.203125 46.296875 45.140625 44  Q 49.09375 41.703125 50.296875 37.09375  " id="STIXGeneral-Italic-1d624"/>
     <path d="M 30.609375 48.390625  Q 23.390625 48.390625 19.1875 42.75  Q 14.984375 37.109375 14.984375 27.296875  Q 14.984375 17.484375 19.15625 11.84375  Q 23.34375 6.203125 30.609375 6.203125  Q 37.796875 6.203125 41.984375 11.859375  Q 46.1875 17.53125 46.1875 27.296875  Q 46.1875 37.015625 41.984375 42.703125  Q 37.796875 48.390625 30.609375 48.390625  M 30.609375 56  Q 42.328125 56 49.015625 48.375  Q 55.71875 40.765625 55.71875 27.296875  Q 55.71875 13.875 49.015625 6.21875  Q 42.328125 -1.421875 30.609375 -1.421875  Q 18.84375 -1.421875 12.171875 6.21875  Q 5.515625 13.875 5.515625 27.296875  Q 5.515625 40.765625 12.171875 48.375  Q 18.84375 56 30.609375 56  " id="BitstreamVeraSans-Roman-6f"/>
     <path d="M 48.78125 52.59375  L 48.78125 44.1875  Q 44.96875 46.296875 41.140625 47.34375  Q 37.3125 48.390625 33.40625 48.390625  Q 24.65625 48.390625 19.8125 42.84375  Q 14.984375 37.3125 14.984375 27.296875  Q 14.984375 17.28125 19.8125 11.734375  Q 24.65625 6.203125 33.40625 6.203125  Q 37.3125 6.203125 41.140625 7.25  Q 44.96875 8.296875 48.78125 10.40625  L 48.78125 2.09375  Q 45.015625 0.34375 40.984375 -0.53125  Q 36.96875 -1.421875 32.421875 -1.421875  Q 20.0625 -1.421875 12.78125 6.34375  Q 5.515625 14.109375 5.515625 27.296875  Q 5.515625 40.671875 12.859375 48.328125  Q 20.21875 56 33.015625 56  Q 37.15625 56 41.109375 55.140625  Q 45.0625 54.296875 48.78125 52.59375  " id="BitstreamVeraSans-Roman-63"/>
    </defs>
    <g transform="translate(250.078740157 159.409448819)scale(0.18 -0.18)">
     <use xlink:href="#BitstreamVeraSans-Roman-63"/>
     <use transform="translate(54.98046875 0.0)" xlink:href="#BitstreamVeraSans-Roman-6f"/>
     <use transform="translate(116.162109375 0.0)" xlink:href="#BitstreamVeraSans-Roman-75"/>
     <use transform="translate(179.541015625 0.0)" xlink:href="#BitstreamVeraSans-Roman-72"/>
     <use transform="translate(220.654296875 0.0)" xlink:href="#BitstreamVeraSans-Roman-73"/>
     <use transform="translate(272.75390625 0.0)" xlink:href="#BitstreamVeraSans-Roman-65"/>
     <use transform="translate(334.27734375 0.0)" xlink:href="#BitstreamVeraSans-Roman-73"/>
     <use transform="translate(386.376953125 0.0)" xlink:href="#BitstreamVeraSans-Roman-20"/>
     <use transform="translate(418.1640625 0.0)" xlink:href="#STIXGeneral-Italic-1d624"/>
    </g>
   </g>
   <g id="text_3">
    <!-- grade -->
    <defs>
     <path d="M 45.40625 27.984375  Q 45.40625 37.75 41.375 43.109375  Q 37.359375 48.484375 30.078125 48.484375  Q 22.859375 48.484375 18.828125 43.109375  Q 14.796875 37.75 14.796875 27.984375  Q 14.796875 18.265625 18.828125 12.890625  Q 22.859375 7.515625 30.078125 7.515625  Q 37.359375 7.515625 41.375 12.890625  Q 45.40625 18.265625 45.40625 27.984375  M 54.390625 6.78125  Q 54.390625 -7.171875 48.1875 -13.984375  Q 42 -20.796875 29.203125 -20.796875  Q 24.46875 -20.796875 20.265625 -20.09375  Q 16.0625 -19.390625 12.109375 -17.921875  L 12.109375 -9.1875  Q 16.0625 -11.328125 19.921875 -12.34375  Q 23.78125 -13.375 27.78125 -13.375  Q 36.625 -13.375 41.015625 -8.765625  Q 45.40625 -4.15625 45.40625 5.171875  L 45.40625 9.625  Q 42.625 4.78125 38.28125 2.390625  Q 33.9375 0 27.875 0  Q 17.828125 0 11.671875 7.65625  Q 5.515625 15.328125 5.515625 27.984375  Q 5.515625 40.671875 11.671875 48.328125  Q 17.828125 56 27.875 56  Q 33.9375 56 38.28125 53.609375  Q 42.625 51.21875 45.40625 46.390625  L 45.40625 54.6875  L 54.390625 54.6875  z " id="BitstreamVeraSans-Roman-67"/>
     <path d="M 34.28125 27.484375  Q 23.390625 27.484375 19.1875 25  Q 14.984375 22.515625 14.984375 16.5  Q 14.984375 11.71875 18.140625 8.90625  Q 21.296875 6.109375 26.703125 6.109375  Q 34.1875 6.109375 38.703125 11.40625  Q 43.21875 16.703125 43.21875 25.484375  L 43.21875 27.484375  z M 52.203125 31.203125  L 52.203125 0  L 43.21875 0  L 43.21875 8.296875  Q 40.140625 3.328125 35.546875 0.953125  Q 30.953125 -1.421875 24.3125 -1.421875  Q 15.921875 -1.421875 10.953125 3.296875  Q 6 8.015625 6 15.921875  Q 6 25.140625 12.171875 29.828125  Q 18.359375 34.515625 30.609375 34.515625  L 43.21875 34.515625  L 43.21875 35.40625  Q 43.21875 41.609375 39.140625 45  Q 35.0625 48.390625 27.6875 48.390625  Q 23 48.390625 18.546875 47.265625  Q 14.109375 46.140625 10.015625 43.890625  L 10.015625 52.203125  Q 14.9375 54.109375 19.578125 55.046875  Q 24.21875 56 28.609375 56  Q 40.484375 56 46.34375 49.84375  Q 52.203125 43.703125 52.203125 31.203125  " id="BitstreamVeraSans-Roman-61"/>
    </defs>
    <g transform="translate(186.78957185 87.2468700787)scale(0.08 -0.08)">
     <use xlink:href="#BitstreamVeraSans-Roman-67"/>
     <use x="63.4765625" xlink:href="#BitstreamVeraSans-Roman-72"/>
     <use x="104.58984375" xlink:href="#BitstreamVeraSans-Roman-61"/>
     <use x="165.869140625" xlink:href="#BitstreamVeraSans-Roman-64"/>
     <use x="229.345703125" xlink:href="#BitstreamVeraSans-Roman-65"/>
    </g>
   </g>
   <g id="text_4">
    <!-- intell. -->
    <defs>
     <path d="M 9.421875 75.984375  L 18.40625 75.984375  L 18.40625 0  L 9.421875 0  z " id="BitstreamVeraSans-Roman-6c"/>
     <path d="M 9.421875 54.6875  L 18.40625 54.6875  L 18.40625 0  L 9.421875 0  z M 9.421875 75.984375  L 18.40625 75.984375  L 18.40625 64.59375  L 9.421875 64.59375  z " id="BitstreamVeraSans-Roman-69"/>
     <path d="M 10.6875 12.40625  L 21 12.40625  L 21 0  L 10.6875 0  z " id="BitstreamVeraSans-Roman-2e"/>
    </defs>
    <g transform="translate(107.88574311 87.2468700787)scale(0.08 -0.08)">
     <use xlink:href="#BitstreamVeraSans-Roman-69"/>
     <use x="27.783203125" xlink:href="#BitstreamVeraSans-Roman-6e"/>
     <use x="91.162109375" xlink:href="#BitstreamVeraSans-Roman-74"/>
     <use x="130.37109375" xlink:href="#BitstreamVeraSans-Roman-65"/>
     <use x="191.89453125" xlink:href="#BitstreamVeraSans-Roman-6c"/>
     <use x="219.677734375" xlink:href="#BitstreamVeraSans-Roman-6c"/>
     <use x="247.4609375" xlink:href="#BitstreamVeraSans-Roman-2e"/>
    </g>
   </g>
   <g id="text_5">
    <!-- diffic. -->
    <defs>
     <path d="M 37.109375 75.984375  L 37.109375 68.5  L 28.515625 68.5  Q 23.6875 68.5 21.796875 66.546875  Q 19.921875 64.59375 19.921875 59.515625  L 19.921875 54.6875  L 34.71875 54.6875  L 34.71875 47.703125  L 19.921875 47.703125  L 19.921875 0  L 10.890625 0  L 10.890625 47.703125  L 2.296875 47.703125  L 2.296875 54.6875  L 10.890625 54.6875  L 10.890625 58.5  Q 10.890625 67.625 15.140625 71.796875  Q 19.390625 75.984375 28.609375 75.984375  z " id="BitstreamVeraSans-Roman-66"/>
    </defs>
    <g transform="translate(266.746525591 87.2468700787)scale(0.08 -0.08)">
     <use xlink:href="#BitstreamVeraSans-Roman-64"/>
     <use x="63.4765625" xlink:href="#BitstreamVeraSans-Roman-69"/>
     <use x="91.259765625" xlink:href="#BitstreamVeraSans-Roman-66"/>
     <use x="126.46484375" xlink:href="#BitstreamVeraSans-Roman-66"/>
     <use x="161.669921875" xlink:href="#BitstreamVeraSans-Roman-69"/>
     <use x="189.453125" xlink:href="#BitstreamVeraSans-Roman-63"/>
     <use x="244.43359375" xlink:href="#BitstreamVeraSans-Roman-2e"/>
    </g>
   </g>
  </g>
 </g>
 </svg>
