<svg xmlns="http://www.w3.org/2000/svg" xmlns:xlink="http://www.w3.org/1999/xlink" height="170pt" version="1.1" viewBox="0 0 141 170" width="141pt">
 <defs>
  <clipPath id="p10b5839c92">
   <rect height="170.078740157" width="141.732283465" x="0.0" y="0.0"/>
  </clipPath>
 </defs>
<defs>
  <style type="text/css">
*{stroke-linecap:butt;stroke-linejoin:round;stroke-miterlimit:100000;}
  </style>
 </defs>
 <g id="figure_1">
  <g id="patch_1">
   <path d="M 0 170.07874  L 141.732283 170.07874  L 141.732283 0  L 0 0  z " style="fill:#ffffff;"/>
  </g>
  <g id="axes_1">
   <g id="matplotlib.axis_1"/>
   <g id="matplotlib.axis_2"/>
   <g id="patch_2">
    <path clip-path="url(#p10b5839c92)" d="M 74.834646 60.094488  L 71.433071 59.102362  L 73.133858 57.826772  L 61.228346 41.952756  L 61.228346 41.952756  L 73.133858 57.826772  L 74.834646 56.551181  L 74.834646 60.094488  z " style="fill:none;stroke:#000000;stroke-linejoin:miter;"/>
   </g>
   <g id="patch_3">
    <path clip-path="url(#p10b5839c92)" d="M 108.850394 41.952756  L 108.850394 45.496063  L 107.149606 44.220472  L 95.244094 60.094488  L 95.244094 60.094488  L 107.149606 44.220472  L 105.448819 42.944882  L 108.850394 41.952756  z " style="fill:none;stroke:#000000;stroke-linejoin:miter;"/>
   </g>
   <g id="patch_4">
    <path clip-path="url(#p10b5839c92)" d="M 51.023622 45.354331  C 55.534163 45.354331 59.860571 43.562274 63.050005 40.37284  C 66.239439 37.183406 68.031496 32.856998 68.031496 28.346457  C 68.031496 23.835916 66.239439 19.509508 63.050005 16.320074  C 59.860571 13.13064 55.534163 11.338583 51.023622 11.338583  C 46.513081 11.338583 42.186673 13.13064 38.997239 16.320074  C 35.807805 19.509508 34.015748 23.835916 34.015748 28.346457  C 34.015748 32.856998 35.807805 37.183406 38.997239 40.37284  C 42.186673 43.562274 46.513081 45.354331 51.023622 45.354331  L 51.023622 45.354331  z " style="fill:none;stroke:#000000;stroke-linejoin:miter;"/>
   </g>
   <g id="patch_5">
    <path clip-path="url(#p10b5839c92)" d="M 85.03937 90.708661  C 89.549911 90.708661 93.876319 88.916605 97.065753 85.72717  C 100.255187 82.537736 102.047244 78.211328 102.047244 73.700787  C 102.047244 69.190246 100.255187 64.863838 97.065753 61.674404  C 93.876319 58.48497 89.549911 56.692913 85.03937 56.692913  C 80.528829 56.692913 76.202421 58.48497 73.012987 61.674404  C 69.823553 64.863838 68.031496 69.190246 68.031496 73.700787  C 68.031496 78.211328 69.823553 82.537736 73.012987 85.72717  C 76.202421 88.916605 80.528829 90.708661 85.03937 90.708661  z " style="fill:#386df9;stroke:#000000;stroke-linejoin:miter;"/>
   </g>
   <g id="patch_6">
    <path clip-path="url(#p10b5839c92)" d="M 119.055118 45.354331  C 123.565659 45.354331 127.892067 43.562274 131.081501 40.37284  C 134.270935 37.183406 136.062992 32.856998 136.062992 28.346457  C 136.062992 23.835916 134.270935 19.509508 131.081501 16.320074  C 127.892067 13.13064 123.565659 11.338583 119.055118 11.338583  C 114.544577 11.338583 110.218169 13.13064 107.028735 16.320074  C 103.839301 19.509508 102.047244 23.835916 102.047244 28.346457  C 102.047244 32.856998 103.839301 37.183406 107.028735 40.37284  C 110.218169 43.562274 114.544577 45.354331 119.055118 45.354331  L 119.055118 45.354331  z " style="fill:none;stroke:#000000;stroke-linejoin:miter;"/>
   </g>
   <g id="patch_7">
    <path clip-path="url(#p10b5839c92)" d="M 51.023622 158.740157  C 55.534163 158.740157 59.860571 156.948101 63.050005 153.758667  C 66.239439 150.569232 68.031496 146.242824 68.031496 141.732283  C 68.031496 137.221743 66.239439 132.895334 63.050005 129.7059  C 59.860571 126.516466 55.534163 124.724409 51.023622 124.724409  C 46.513081 124.724409 42.186673 126.516466 38.997239 129.7059  C 35.807805 132.895334 34.015748 137.221743 34.015748 141.732283  C 34.015748 146.242824 35.807805 150.569232 38.997239 153.758667  C 42.186673 156.948101 46.513081 158.740157 51.023622 158.740157  L 51.023622 158.740157  z " style="fill:none;stroke:#000000;stroke-linejoin:miter;"/>
   </g>
   <g id="patch_8">
    <path clip-path="url(#p10b5839c92)" d="M 119.055118 158.740157  C 123.565659 158.740157 127.892067 156.948101 131.081501 153.758667  C 134.270935 150.569232 136.062992 146.242824 136.062992 141.732283  C 136.062992 137.221743 134.270935 132.895334 131.081501 129.7059  C 127.892067 126.516466 123.565659 124.724409 119.055118 124.724409  C 114.544577 124.724409 110.218169 126.516466 107.028735 129.7059  C 103.839301 132.895334 102.047244 137.221743 102.047244 141.732283  C 102.047244 146.242824 103.839301 150.569232 107.028735 153.758667  C 110.218169 156.948101 114.544577 158.740157 119.055118 158.740157  L 119.055118 158.740157  z " style="fill:none;stroke:#000000;stroke-linejoin:miter;"/>
   </g>
   <g id="text_1">
    <!-- A -->
    <defs>
     <path d="M 26.09375 61.40625  L 33.5 61.40625  L 57.5 0  L 49.5 0  L 42.40625 18.5  L 17.09375 18.5  L 10.09375 0  L 2.09375 0  z M 29.703125 51.59375  L 19.703125 25.40625  L 39.703125 25.40625  z " id="CalibreRegular-41"/>
    </defs>
    <g style="fill:#262626;" transform="translate(45.6601845472 32.6664566929)scale(0.18 -0.18)">
     <use xlink:href="#CalibreRegular-41"/>
    </g>
   </g>
   <g id="text_2">
    <!-- C -->
    <defs>
     <path d="M 19.40625 -0.90625  Q 3.703125 16.59375 3.703125 30.6875  Q 3.703125 44.796875 11.546875 53.546875  Q 19.40625 62.296875 31.203125 62.296875  Q 40.703125 62.296875 46.953125 57.1875  Q 53.203125 52.09375 55.09375 43.40625  L 47.296875 43.40625  Q 43.09375 55.203125 31.203125 55.203125  Q 22.40625 55.203125 17 48.453125  Q 11.59375 41.703125 11.59375 30.703125  Q 11.59375 19.796875 17 13  Q 22.40625 6.203125 31.203125 6.203125  Q 43.203125 6.203125 47.296875 18.09375  L 55.09375 18.09375  Q 53.203125 9.296875 46.953125 4.1875  Q 40.703125 -0.90625 31.203125 -0.90625  Q 19.40625 -0.90625 3.703125 16.59375  " id="CalibreRegular-43"/>
    </defs>
    <g style="fill:#ffffff;" transform="translate(79.7659325787 78.0207874016)scale(0.18 -0.18)">
     <use xlink:href="#CalibreRegular-43"/>
    </g>
   </g>
   <g id="text_3">
    <!-- B -->
    <defs>
     <path d="M 38.796875 31.796875  Q 43.703125 30.5 46.796875 26.5  Q 49.90625 22.5 49.90625 17.296875  Q 49.90625 9 44.5 4.5  Q 39.09375 0 29.5 0  L 7.296875 0  L 7.296875 61.40625  L 27.5 61.40625  Q 37.09375 61.40625 42.4375 57.203125  Q 47.796875 53 47.796875 45.09375  Q 47.796875 39.90625 45.25 36.453125  Q 42.703125 33 38.796875 31.796875  M 15 34.703125  L 27.5 34.703125  Q 40.203125 34.703125 40.203125 44.703125  Q 40.203125 54.5 27.5 54.5  L 15 54.5  z M 15 28.09375  L 15 6.90625  L 29.5 6.90625  Q 35.59375 6.90625 38.890625 9.75  Q 42.203125 12.59375 42.203125 17.5  Q 42.203125 22.5 38.890625 25.296875  Q 35.59375 28.09375 29.5 28.09375  z " id="CalibreRegular-42"/>
    </defs>
    <g style="fill:#262626;" transform="translate(114.21339936 32.6664566929)scale(0.18 -0.18)">
     <use xlink:href="#CalibreRegular-42"/>
    </g>
   </g>
   <g id="text_4">
    <!-- A -->
    <g style="fill:#262626;" transform="translate(45.6601845472 146.052283465)scale(0.18 -0.18)">
     <use xlink:href="#CalibreRegular-41"/>
    </g>
   </g>
   <g id="text_5">
    <!-- B -->
    <g style="fill:#262626;" transform="translate(114.21339936 146.052283465)scale(0.18 -0.18)">
     <use xlink:href="#CalibreRegular-42"/>
    </g>
   </g>
  </g>
 </g>
 </svg>
