<svg xmlns="http://www.w3.org/2000/svg" xmlns:xlink="http://www.w3.org/1999/xlink" height="113pt" version="1.1" viewBox="0 0 425 113" width="425pt">
 <defs>
  <clipPath id="p0c85355b50">
   <rect height="113.385826772" width="425.196850394" x="0.0" y="0.0"/>
  </clipPath>
 </defs>
<defs>
  <style type="text/css">
*{stroke-linecap:butt;stroke-linejoin:round;stroke-miterlimit:100000;}
  </style>
 </defs>
 <g id="figure_1">
  <g id="patch_1">
   <path d="M 0 113.385827  L 425.19685 113.385827  L 425.19685 0  L 0 0  z " style="fill:#ffffff;"/>
  </g>
  <g id="axes_1">
   <g id="matplotlib.axis_1"/>
   <g id="matplotlib.axis_2"/>
   <g id="patch_2">
    <path clip-path="url(#p0c85355b50)" d="M 61.228346 41.952756  L 64.629921 42.944882  L 62.929134 44.220472  L 74.834646 60.094488  L 74.834646 60.094488  L 62.929134 44.220472  L 61.228346 45.496063  L 61.228346 41.952756  z " style="fill:none;stroke:#000000;stroke-linejoin:miter;"/>
   </g>
   <g id="patch_3">
    <path clip-path="url(#p0c85355b50)" d="M 108.850394 41.952756  L 108.850394 45.496063  L 107.149606 44.220472  L 95.244094 60.094488  L 95.244094 60.094488  L 107.149606 44.220472  L 105.448819 42.944882  L 108.850394 41.952756  z " style="fill:none;stroke:#000000;stroke-linejoin:miter;"/>
   </g>
   <g id="patch_4">
    <path clip-path="url(#p0c85355b50)" d="M 202.96063 41.952756  L 206.362205 42.944882  L 204.661417 44.220472  L 216.566929 60.094488  L 216.566929 60.094488  L 204.661417 44.220472  L 202.96063 45.496063  L 202.96063 41.952756  z " style="fill:none;stroke:#000000;stroke-linejoin:miter;"/>
   </g>
   <g id="patch_5">
    <path clip-path="url(#p0c85355b50)" d="M 236.976378 60.094488  L 236.976378 56.551181  L 238.677165 57.826772  L 250.582677 41.952756  L 250.582677 41.952756  L 238.677165 57.826772  L 240.377953 59.102362  L 236.976378 60.094488  z " style="fill:none;stroke:#000000;stroke-linejoin:miter;"/>
   </g>
   <g id="patch_6">
    <path clip-path="url(#p0c85355b50)" d="M 358.299213 60.094488  L 354.897638 59.102362  L 356.598425 57.826772  L 344.692913 41.952756  L 344.692913 41.952756  L 356.598425 57.826772  L 358.299213 56.551181  L 358.299213 60.094488  z " style="fill:none;stroke:#000000;stroke-linejoin:miter;"/>
   </g>
   <g id="patch_7">
    <path clip-path="url(#p0c85355b50)" d="M 392.314961 41.952756  L 392.314961 45.496063  L 390.614173 44.220472  L 378.708661 60.094488  L 378.708661 60.094488  L 390.614173 44.220472  L 388.913386 42.944882  L 392.314961 41.952756  z " style="fill:none;stroke:#000000;stroke-linejoin:miter;"/>
   </g>
   <g id="patch_8">
    <path clip-path="url(#p0c85355b50)" d="M 51.023622 45.354331  C 55.534163 45.354331 59.860571 43.562274 63.050005 40.37284  C 66.239439 37.183406 68.031496 32.856998 68.031496 28.346457  C 68.031496 23.835916 66.239439 19.509508 63.050005 16.320074  C 59.860571 13.13064 55.534163 11.338583 51.023622 11.338583  C 46.513081 11.338583 42.186673 13.13064 38.997239 16.320074  C 35.807805 19.509508 34.015748 23.835916 34.015748 28.346457  C 34.015748 32.856998 35.807805 37.183406 38.997239 40.37284  C 42.186673 43.562274 46.513081 45.354331 51.023622 45.354331  L 51.023622 45.354331  z " style="fill:none;stroke:#000000;stroke-linejoin:miter;"/>
   </g>
   <g id="patch_9">
    <path clip-path="url(#p0c85355b50)" d="M 260.787402 45.354331  C 265.297942 45.354331 269.624351 43.562274 272.813785 40.37284  C 276.003219 37.183406 277.795276 32.856998 277.795276 28.346457  C 277.795276 23.835916 276.003219 19.509508 272.813785 16.320074  C 269.624351 13.13064 265.297942 11.338583 260.787402 11.338583  C 256.276861 11.338583 251.950453 13.13064 248.761019 16.320074  C 245.571584 19.509508 243.779528 23.835916 243.779528 28.346457  C 243.779528 32.856998 245.571584 37.183406 248.761019 40.37284  C 251.950453 43.562274 256.276861 45.354331 260.787402 45.354331  L 260.787402 45.354331  z " style="fill:none;stroke:#000000;stroke-linejoin:miter;"/>
   </g>
   <g id="patch_10">
    <path clip-path="url(#p0c85355b50)" d="M 192.755906 45.354331  C 197.266446 45.354331 201.592854 43.562274 204.782289 40.37284  C 207.971723 37.183406 209.76378 32.856998 209.76378 28.346457  C 209.76378 23.835916 207.971723 19.509508 204.782289 16.320074  C 201.592854 13.13064 197.266446 11.338583 192.755906 11.338583  C 188.245365 11.338583 183.918957 13.13064 180.729522 16.320074  C 177.540088 19.509508 175.748031 23.835916 175.748031 28.346457  C 175.748031 32.856998 177.540088 37.183406 180.729522 40.37284  C 183.918957 43.562274 188.245365 45.354331 192.755906 45.354331  L 192.755906 45.354331  z " style="fill:none;stroke:#000000;stroke-linejoin:miter;"/>
   </g>
   <g id="patch_11">
    <path clip-path="url(#p0c85355b50)" d="M 334.488189 45.354331  C 338.99873 45.354331 343.325138 43.562274 346.514572 40.37284  C 349.704006 37.183406 351.496063 32.856998 351.496063 28.346457  C 351.496063 23.835916 349.704006 19.509508 346.514572 16.320074  C 343.325138 13.13064 338.99873 11.338583 334.488189 11.338583  C 329.977648 11.338583 325.65124 13.13064 322.461806 16.320074  C 319.272372 19.509508 317.480315 23.835916 317.480315 28.346457  C 317.480315 32.856998 319.272372 37.183406 322.461806 40.37284  C 325.65124 43.562274 329.977648 45.354331 334.488189 45.354331  L 334.488189 45.354331  z " style="fill:none;stroke:#000000;stroke-linejoin:miter;"/>
   </g>
   <g id="patch_12">
    <path clip-path="url(#p0c85355b50)" d="M 402.519685 45.354331  C 407.030226 45.354331 411.356634 43.562274 414.546068 40.37284  C 417.735502 37.183406 419.527559 32.856998 419.527559 28.346457  C 419.527559 23.835916 417.735502 19.509508 414.546068 16.320074  C 411.356634 13.13064 407.030226 11.338583 402.519685 11.338583  C 398.009144 11.338583 393.682736 13.13064 390.493302 16.320074  C 387.303868 19.509508 385.511811 23.835916 385.511811 28.346457  C 385.511811 32.856998 387.303868 37.183406 390.493302 40.37284  C 393.682736 43.562274 398.009144 45.354331 402.519685 45.354331  L 402.519685 45.354331  z " style="fill:none;stroke:#000000;stroke-linejoin:miter;"/>
   </g>
   <g id="patch_13">
    <path clip-path="url(#p0c85355b50)" d="M 119.055118 45.354331  C 123.565659 45.354331 127.892067 43.562274 131.081501 40.37284  C 134.270935 37.183406 136.062992 32.856998 136.062992 28.346457  C 136.062992 23.835916 134.270935 19.509508 131.081501 16.320074  C 127.892067 13.13064 123.565659 11.338583 119.055118 11.338583  C 114.544577 11.338583 110.218169 13.13064 107.028735 16.320074  C 103.839301 19.509508 102.047244 23.835916 102.047244 28.346457  C 102.047244 32.856998 103.839301 37.183406 107.028735 40.37284  C 110.218169 43.562274 114.544577 45.354331 119.055118 45.354331  L 119.055118 45.354331  z " style="fill:none;stroke:#000000;stroke-linejoin:miter;"/>
   </g>
   <g id="patch_14">
    <path clip-path="url(#p0c85355b50)" d="M 85.03937 90.708661  C 89.549911 90.708661 93.876319 88.916605 97.065753 85.72717  C 100.255187 82.537736 102.047244 78.211328 102.047244 73.700787  C 102.047244 69.190246 100.255187 64.863838 97.065753 61.674404  C 93.876319 58.48497 89.549911 56.692913 85.03937 56.692913  C 80.528829 56.692913 76.202421 58.48497 73.012987 61.674404  C 69.823553 64.863838 68.031496 69.190246 68.031496 73.700787  C 68.031496 78.211328 69.823553 82.537736 73.012987 85.72717  C 76.202421 88.916605 80.528829 90.708661 85.03937 90.708661  L 85.03937 90.708661  z " style="fill:none;stroke:#000000;stroke-linejoin:miter;"/>
   </g>
   <g id="patch_15">
    <path clip-path="url(#p0c85355b50)" d="M 226.771654 90.708661  C 231.282194 90.708661 235.608603 88.916605 238.798037 85.72717  C 241.987471 82.537736 243.779528 78.211328 243.779528 73.700787  C 243.779528 69.190246 241.987471 64.863838 238.798037 61.674404  C 235.608603 58.48497 231.282194 56.692913 226.771654 56.692913  C 222.261113 56.692913 217.934705 58.48497 214.74527 61.674404  C 211.555836 64.863838 209.76378 69.190246 209.76378 73.700787  C 209.76378 78.211328 211.555836 82.537736 214.74527 85.72717  C 217.934705 88.916605 222.261113 90.708661 226.771654 90.708661  L 226.771654 90.708661  z " style="fill:none;stroke:#000000;stroke-linejoin:miter;"/>
   </g>
   <g id="patch_16">
    <path clip-path="url(#p0c85355b50)" d="M 368.503937 90.708661  C 373.014478 90.708661 377.340886 88.916605 380.53032 85.72717  C 383.719754 82.537736 385.511811 78.211328 385.511811 73.700787  C 385.511811 69.190246 383.719754 64.863838 380.53032 61.674404  C 377.340886 58.48497 373.014478 56.692913 368.503937 56.692913  C 363.993396 56.692913 359.666988 58.48497 356.477554 61.674404  C 353.28812 64.863838 351.496063 69.190246 351.496063 73.700787  C 351.496063 78.211328 353.28812 82.537736 356.477554 85.72717  C 359.666988 88.916605 363.993396 90.708661 368.503937 90.708661  L 368.503937 90.708661  z " style="fill:none;stroke:#000000;stroke-linejoin:miter;"/>
   </g>
   <g id="text_1">
    <!-- A -->
    <defs>
     <path d="M 26.09375 61.40625  L 33.5 61.40625  L 57.5 0  L 49.5 0  L 42.40625 18.5  L 17.09375 18.5  L 10.09375 0  L 2.09375 0  z M 29.703125 51.59375  L 19.703125 25.40625  L 39.703125 25.40625  z " id="CalibreRegular-41"/>
    </defs>
    <g style="fill:#262626;" transform="translate(45.6601845472 32.6664566929)scale(0.18 -0.18)">
     <use xlink:href="#CalibreRegular-41"/>
    </g>
   </g>
   <g id="text_2">
    <!-- B -->
    <defs>
     <path d="M 38.796875 31.796875  Q 43.703125 30.5 46.796875 26.5  Q 49.90625 22.5 49.90625 17.296875  Q 49.90625 9 44.5 4.5  Q 39.09375 0 29.5 0  L 7.296875 0  L 7.296875 61.40625  L 27.5 61.40625  Q 37.09375 61.40625 42.4375 57.203125  Q 47.796875 53 47.796875 45.09375  Q 47.796875 39.90625 45.25 36.453125  Q 42.703125 33 38.796875 31.796875  M 15 34.703125  L 27.5 34.703125  Q 40.203125 34.703125 40.203125 44.703125  Q 40.203125 54.5 27.5 54.5  L 15 54.5  z M 15 28.09375  L 15 6.90625  L 29.5 6.90625  Q 35.59375 6.90625 38.890625 9.75  Q 42.203125 12.59375 42.203125 17.5  Q 42.203125 22.5 38.890625 25.296875  Q 35.59375 28.09375 29.5 28.09375  z " id="CalibreRegular-42"/>
    </defs>
    <g style="fill:#262626;" transform="translate(255.945682825 32.6664566929)scale(0.18 -0.18)">
     <use xlink:href="#CalibreRegular-42"/>
    </g>
   </g>
   <g id="text_3">
    <!-- A -->
    <g style="fill:#262626;" transform="translate(187.392468012 32.6664566929)scale(0.18 -0.18)">
     <use xlink:href="#CalibreRegular-41"/>
    </g>
   </g>
   <g id="text_4">
    <!-- A -->
    <g style="fill:#262626;" transform="translate(329.124751476 32.6664566929)scale(0.18 -0.18)">
     <use xlink:href="#CalibreRegular-41"/>
    </g>
   </g>
   <g id="text_5">
    <!-- B -->
    <g style="fill:#262626;" transform="translate(397.677966289 32.6664566929)scale(0.18 -0.18)">
     <use xlink:href="#CalibreRegular-42"/>
    </g>
   </g>
   <g id="text_6">
    <!-- B -->
    <g style="fill:#262626;" transform="translate(114.21339936 32.6664566929)scale(0.18 -0.18)">
     <use xlink:href="#CalibreRegular-42"/>
    </g>
   </g>
   <g id="text_7">
    <!-- C -->
    <defs>
     <path d="M 19.40625 -0.90625  Q 3.703125 16.59375 3.703125 30.6875  Q 3.703125 44.796875 11.546875 53.546875  Q 19.40625 62.296875 31.203125 62.296875  Q 40.703125 62.296875 46.953125 57.1875  Q 53.203125 52.09375 55.09375 43.40625  L 47.296875 43.40625  Q 43.09375 55.203125 31.203125 55.203125  Q 22.40625 55.203125 17 48.453125  Q 11.59375 41.703125 11.59375 30.703125  Q 11.59375 19.796875 17 13  Q 22.40625 6.203125 31.203125 6.203125  Q 43.203125 6.203125 47.296875 18.09375  L 55.09375 18.09375  Q 53.203125 9.296875 46.953125 4.1875  Q 40.703125 -0.90625 31.203125 -0.90625  Q 19.40625 -0.90625 3.703125 16.59375  " id="CalibreRegular-43"/>
    </defs>
    <g style="fill:#262626;" transform="translate(79.7659325787 78.0207874016)scale(0.18 -0.18)">
     <use xlink:href="#CalibreRegular-43"/>
    </g>
   </g>
   <g id="text_8">
    <!-- C -->
    <g style="fill:#262626;" transform="translate(221.498216043 78.0207874016)scale(0.18 -0.18)">
     <use xlink:href="#CalibreRegular-43"/>
    </g>
   </g>
   <g id="text_9">
    <!-- C -->
    <g style="fill:#262626;" transform="translate(363.230499508 78.0207874016)scale(0.18 -0.18)">
     <use xlink:href="#CalibreRegular-43"/>
    </g>
   </g>
  </g>
 </g>
 </svg>
