<svg xmlns="http://www.w3.org/2000/svg" xmlns:xlink="http://www.w3.org/1999/xlink" height="226pt" version="1.1" viewBox="0 0 226 226" width="226pt">
 <defs>
  <clipPath id="p23f05e62b5">
   <rect height="226.771653543" width="226.771653543" x="0.0" y="0.0"/>
  </clipPath>
 </defs>
<defs>
  <style type="text/css">
*{stroke-linecap:butt;stroke-linejoin:round;stroke-miterlimit:100000;}
  </style>
 </defs>
 <g id="figure_1">
  <g id="patch_1">
   <path d="M 0 226.771654  L 226.771654 226.771654  L 226.771654 0  L 0 0  z " style="fill:#ffffff;"/>
  </g>
  <g id="axes_1">
   <g id="patch_2">
    <path clip-path="url(#p23f05e62b5)" d="M 85.03937 198.425197  L 198.425197 198.425197  L 198.425197 56.692913  L 85.03937 56.692913  L 85.03937 198.425197  z " style="fill:none;stroke:#000000;stroke-linejoin:miter;"/>
   </g>
   <g id="patch_3">
    <path clip-path="url(#p23f05e62b5)" d="M 102.047244 85.03937  L 99.212598 87.165354  L 99.212598 85.03937  L 68.031496 85.03937  L 68.031496 85.03937  L 99.212598 85.03937  L 99.212598 82.913386  L 102.047244 85.03937  z " style="fill:none;stroke:#000000;stroke-linejoin:miter;"/>
   </g>
   <g id="patch_4">
    <path clip-path="url(#p23f05e62b5)" d="M 102.047244 141.732283  L 99.212598 143.858268  L 99.212598 141.732283  L 68.031496 141.732283  L 68.031496 141.732283  L 99.212598 141.732283  L 99.212598 139.606299  L 102.047244 141.732283  z " style="fill:none;stroke:#000000;stroke-linejoin:miter;"/>
   </g>
   <g id="patch_5">
    <path clip-path="url(#p23f05e62b5)" d="M 119.055118 124.724409  L 116.929134 121.889764  L 119.055118 121.889764  L 119.055118 102.047244  L 119.055118 102.047244  L 119.055118 121.889764  L 121.181102 121.889764  L 119.055118 124.724409  z " style="fill:none;stroke:#000000;stroke-linejoin:miter;"/>
   </g>
   <g id="patch_6">
    <path clip-path="url(#p23f05e62b5)" d="M 119.055118 102.047244  C 123.565659 102.047244 127.892067 100.255187 131.081501 97.065753  C 134.270935 93.876319 136.062992 89.549911 136.062992 85.03937  C 136.062992 80.528829 134.270935 76.202421 131.081501 73.012987  C 127.892067 69.823553 123.565659 68.031496 119.055118 68.031496  C 114.544577 68.031496 110.218169 69.823553 107.028735 73.012987  C 103.839301 76.202421 102.047244 80.528829 102.047244 85.03937  C 102.047244 89.549911 103.839301 93.876319 107.028735 97.065753  C 110.218169 100.255187 114.544577 102.047244 119.055118 102.047244  L 119.055118 102.047244  z " style="fill:none;stroke:#000000;stroke-linejoin:miter;"/>
   </g>
   <g id="patch_7">
    <path clip-path="url(#p23f05e62b5)" d="M 51.023622 102.047244  C 55.534163 102.047244 59.860571 100.255187 63.050005 97.065753  C 66.239439 93.876319 68.031496 89.549911 68.031496 85.03937  C 68.031496 80.528829 66.239439 76.202421 63.050005 73.012987  C 59.860571 69.823553 55.534163 68.031496 51.023622 68.031496  C 46.513081 68.031496 42.186673 69.823553 38.997239 73.012987  C 35.807805 76.202421 34.015748 80.528829 34.015748 85.03937  C 34.015748 89.549911 35.807805 93.876319 38.997239 97.065753  C 42.186673 100.255187 46.513081 102.047244 51.023622 102.047244  L 51.023622 102.047244  z " style="fill:none;stroke:#000000;stroke-linejoin:miter;"/>
   </g>
   <g id="patch_8">
    <path clip-path="url(#p23f05e62b5)" d="M 51.023622 158.740157  C 55.534163 158.740157 59.860571 156.948101 63.050005 153.758667  C 66.239439 150.569232 68.031496 146.242824 68.031496 141.732283  C 68.031496 137.221743 66.239439 132.895334 63.050005 129.7059  C 59.860571 126.516466 55.534163 124.724409 51.023622 124.724409  C 46.513081 124.724409 42.186673 126.516466 38.997239 129.7059  C 35.807805 132.895334 34.015748 137.221743 34.015748 141.732283  C 34.015748 146.242824 35.807805 150.569232 38.997239 153.758667  C 42.186673 156.948101 46.513081 158.740157 51.023622 158.740157  L 51.023622 158.740157  z " style="fill:none;stroke:#000000;stroke-linejoin:miter;"/>
   </g>
   <g id="patch_9">
    <path clip-path="url(#p23f05e62b5)" d="M 119.055118 158.740157  C 123.565659 158.740157 127.892067 156.948101 131.081501 153.758667  C 134.270935 150.569232 136.062992 146.242824 136.062992 141.732283  C 136.062992 137.221743 134.270935 132.895334 131.081501 129.7059  C 127.892067 126.516466 123.565659 124.724409 119.055118 124.724409  C 114.544577 124.724409 110.218169 126.516466 107.028735 129.7059  C 103.839301 132.895334 102.047244 137.221743 102.047244 141.732283  C 102.047244 146.242824 103.839301 150.569232 107.028735 153.758667  C 110.218169 156.948101 114.544577 158.740157 119.055118 158.740157  L 119.055118 158.740157  z " style="fill:none;stroke:#000000;stroke-linejoin:miter;"/>
   </g>
   <g id="matplotlib.axis_1"/>
   <g id="matplotlib.axis_2"/>
   <g id="text_1">
    <!-- students $s$ -->
    <defs>
     <path d="M 18.3125 70.21875  L 18.3125 54.6875  L 36.8125 54.6875  L 36.8125 47.703125  L 18.3125 47.703125  L 18.3125 18.015625  Q 18.3125 11.328125 20.140625 9.421875  Q 21.96875 7.515625 27.59375 7.515625  L 36.8125 7.515625  L 36.8125 0  L 27.59375 0  Q 17.1875 0 13.234375 3.875  Q 9.28125 7.765625 9.28125 18.015625  L 9.28125 47.703125  L 2.6875 47.703125  L 2.6875 54.6875  L 9.28125 54.6875  L 9.28125 70.21875  z " id="BitstreamVeraSans-Roman-74"/>
     <path d="M 43.203125 41  L 41 32.09375  L 39.5 32.09375  Q 37.796875 36.5 35.296875 37.890625  Q 32.796875 39.296875 28.890625 39.296875  Q 25 39.296875 23.046875 37.140625  Q 21.09375 35 21.09375 33  Q 21.09375 31 22.796875 29.546875  Q 24.5 28.09375 27.796875 26.5  Q 33.796875 23.59375 36.140625 21.34375  Q 38.5 19.09375 38.5 15.796875  Q 38.5 9 32.890625 4  Q 27.296875 -1 18.59375 -1  Q 14.09375 -1 11.390625 0.296875  Q 8.703125 1.59375 6.09375 4.5  L 8.59375 14.796875  L 10.09375 14.796875  Q 11.90625 6.09375 21 6.09375  Q 24.40625 6.09375 27.296875 7.84375  Q 30.203125 9.59375 30.203125 12.796875  Q 30.203125 14.296875 28.59375 15.640625  Q 27 17 23.203125 18.90625  Q 17.703125 21.59375 15.25 24.25  Q 12.796875 26.90625 12.796875 30.296875  Q 12.796875 36.5 18 41.390625  Q 23.203125 46.296875 30.90625 46.296875  Q 39.59375 46.296875 43.203125 41  " id="STIXGeneral-Italic-1d634"/>
     <path d="M 44.28125 53.078125  L 44.28125 44.578125  Q 40.484375 46.53125 36.375 47.5  Q 32.28125 48.484375 27.875 48.484375  Q 21.1875 48.484375 17.84375 46.4375  Q 14.5 44.390625 14.5 40.28125  Q 14.5 37.15625 16.890625 35.375  Q 19.28125 33.59375 26.515625 31.984375  L 29.59375 31.296875  Q 39.15625 29.25 43.1875 25.515625  Q 47.21875 21.78125 47.21875 15.09375  Q 47.21875 7.46875 41.1875 3.015625  Q 35.15625 -1.421875 24.609375 -1.421875  Q 20.21875 -1.421875 15.453125 -0.5625  Q 10.6875 0.296875 5.421875 2  L 5.421875 11.28125  Q 10.40625 8.6875 15.234375 7.390625  Q 20.0625 6.109375 24.8125 6.109375  Q 31.15625 6.109375 34.5625 8.28125  Q 37.984375 10.453125 37.984375 14.40625  Q 37.984375 18.0625 35.515625 20.015625  Q 33.0625 21.96875 24.703125 23.78125  L 21.578125 24.515625  Q 13.234375 26.265625 9.515625 29.90625  Q 5.8125 33.546875 5.8125 39.890625  Q 5.8125 47.609375 11.28125 51.796875  Q 16.75 56 26.8125 56  Q 31.78125 56 36.171875 55.265625  Q 40.578125 54.546875 44.28125 53.078125  " id="BitstreamVeraSans-Roman-73"/>
     <path id="BitstreamVeraSans-Roman-20"/>
     <path d="M 54.890625 33.015625  L 54.890625 0  L 45.90625 0  L 45.90625 32.71875  Q 45.90625 40.484375 42.875 44.328125  Q 39.84375 48.1875 33.796875 48.1875  Q 26.515625 48.1875 22.3125 43.546875  Q 18.109375 38.921875 18.109375 30.90625  L 18.109375 0  L 9.078125 0  L 9.078125 54.6875  L 18.109375 54.6875  L 18.109375 46.1875  Q 21.34375 51.125 25.703125 53.5625  Q 30.078125 56 35.796875 56  Q 45.21875 56 50.046875 50.171875  Q 54.890625 44.34375 54.890625 33.015625  " id="BitstreamVeraSans-Roman-6e"/>
     <path d="M 45.40625 46.390625  L 45.40625 75.984375  L 54.390625 75.984375  L 54.390625 0  L 45.40625 0  L 45.40625 8.203125  Q 42.578125 3.328125 38.25 0.953125  Q 33.9375 -1.421875 27.875 -1.421875  Q 17.96875 -1.421875 11.734375 6.484375  Q 5.515625 14.40625 5.515625 27.296875  Q 5.515625 40.1875 11.734375 48.09375  Q 17.96875 56 27.875 56  Q 33.9375 56 38.25 53.625  Q 42.578125 51.265625 45.40625 46.390625  M 14.796875 27.296875  Q 14.796875 17.390625 18.875 11.75  Q 22.953125 6.109375 30.078125 6.109375  Q 37.203125 6.109375 41.296875 11.75  Q 45.40625 17.390625 45.40625 27.296875  Q 45.40625 37.203125 41.296875 42.84375  Q 37.203125 48.484375 30.078125 48.484375  Q 22.953125 48.484375 18.875 42.84375  Q 14.796875 37.203125 14.796875 27.296875  " id="BitstreamVeraSans-Roman-64"/>
     <path d="M 56.203125 29.59375  L 56.203125 25.203125  L 14.890625 25.203125  Q 15.484375 15.921875 20.484375 11.0625  Q 25.484375 6.203125 34.421875 6.203125  Q 39.59375 6.203125 44.453125 7.46875  Q 49.3125 8.734375 54.109375 11.28125  L 54.109375 2.78125  Q 49.265625 0.734375 44.1875 -0.34375  Q 39.109375 -1.421875 33.890625 -1.421875  Q 20.796875 -1.421875 13.15625 6.1875  Q 5.515625 13.8125 5.515625 26.8125  Q 5.515625 40.234375 12.765625 48.109375  Q 20.015625 56 32.328125 56  Q 43.359375 56 49.78125 48.890625  Q 56.203125 41.796875 56.203125 29.59375  M 47.21875 32.234375  Q 47.125 39.59375 43.09375 43.984375  Q 39.0625 48.390625 32.421875 48.390625  Q 24.90625 48.390625 20.390625 44.140625  Q 15.875 39.890625 15.1875 32.171875  z " id="BitstreamVeraSans-Roman-65"/>
     <path d="M 8.5 21.578125  L 8.5 54.6875  L 17.484375 54.6875  L 17.484375 21.921875  Q 17.484375 14.15625 20.5 10.265625  Q 23.53125 6.390625 29.59375 6.390625  Q 36.859375 6.390625 41.078125 11.03125  Q 45.3125 15.671875 45.3125 23.6875  L 45.3125 54.6875  L 54.296875 54.6875  L 54.296875 0  L 45.3125 0  L 45.3125 8.40625  Q 42.046875 3.421875 37.71875 1  Q 33.40625 -1.421875 27.6875 -1.421875  Q 18.265625 -1.421875 13.375 4.4375  Q 8.5 10.296875 8.5 21.578125  " id="BitstreamVeraSans-Roman-75"/>
    </defs>
    <g transform="translate(90.0393700787 193.42519685)scale(0.18 -0.18)">
     <use transform="translate(0.0 0.015625)" xlink:href="#BitstreamVeraSans-Roman-73"/>
     <use transform="translate(52.099609375 0.015625)" xlink:href="#BitstreamVeraSans-Roman-74"/>
     <use transform="translate(91.30859375 0.015625)" xlink:href="#BitstreamVeraSans-Roman-75"/>
     <use transform="translate(154.6875 0.015625)" xlink:href="#BitstreamVeraSans-Roman-64"/>
     <use transform="translate(218.1640625 0.015625)" xlink:href="#BitstreamVeraSans-Roman-65"/>
     <use transform="translate(279.6875 0.015625)" xlink:href="#BitstreamVeraSans-Roman-6e"/>
     <use transform="translate(343.06640625 0.015625)" xlink:href="#BitstreamVeraSans-Roman-74"/>
     <use transform="translate(382.275390625 0.015625)" xlink:href="#BitstreamVeraSans-Roman-73"/>
     <use transform="translate(434.375 0.015625)" xlink:href="#BitstreamVeraSans-Roman-20"/>
     <use transform="translate(466.162109375 0.015625)" xlink:href="#STIXGeneral-Italic-1d634"/>
    </g>
   </g>
   <g id="text_2">
    <!-- intell. -->
    <defs>
     <path d="M 9.421875 54.6875  L 18.40625 54.6875  L 18.40625 0  L 9.421875 0  z M 9.421875 75.984375  L 18.40625 75.984375  L 18.40625 64.59375  L 9.421875 64.59375  z " id="BitstreamVeraSans-Roman-69"/>
     <path d="M 9.421875 75.984375  L 18.40625 75.984375  L 18.40625 0  L 9.421875 0  z " id="BitstreamVeraSans-Roman-6c"/>
     <path d="M 10.6875 12.40625  L 21 12.40625  L 21 0  L 10.6875 0  z " id="BitstreamVeraSans-Roman-2e"/>
    </defs>
    <g transform="translate(107.88574311 87.2468700787)scale(0.08 -0.08)">
     <use xlink:href="#BitstreamVeraSans-Roman-69"/>
     <use x="27.783203125" xlink:href="#BitstreamVeraSans-Roman-6e"/>
     <use x="91.162109375" xlink:href="#BitstreamVeraSans-Roman-74"/>
     <use x="130.37109375" xlink:href="#BitstreamVeraSans-Roman-65"/>
     <use x="191.89453125" xlink:href="#BitstreamVeraSans-Roman-6c"/>
     <use x="219.677734375" xlink:href="#BitstreamVeraSans-Roman-6c"/>
     <use x="247.4609375" xlink:href="#BitstreamVeraSans-Roman-2e"/>
    </g>
   </g>
   <g id="text_3">
    <!-- $\theta_I$ -->
    <defs>
     <path d="M 51.09375 49  Q 51.09375 38 47.140625 26.5  Q 43.203125 15 36 7  Q 28.796875 -1 20.59375 -1  Q 13.40625 -1 9.953125 4.25  Q 6.5 9.5 6.5 18.40625  Q 6.5 24.59375 8.640625 32.84375  Q 10.796875 41.09375 14.546875 49.140625  Q 18.296875 57.203125 24.546875 62.75  Q 30.796875 68.296875 37.90625 68.296875  Q 44.703125 68.296875 47.890625 62.9375  Q 51.09375 57.59375 51.09375 49  M 17.296875 37.296875  L 41.90625 37.296875  Q 43.203125 43.5 43.203125 48.5  Q 43.203125 61.203125 36 61.203125  Q 30.5 61.203125 25.390625 54.09375  Q 20.296875 47 17.296875 37.296875  M 40.203125 30.203125  L 15.59375 30.203125  Q 14.40625 24.296875 14.40625 19.296875  Q 14.40625 6.09375 22.296875 6.09375  Q 27.796875 6.09375 32.4375 12.84375  Q 37.09375 19.59375 40.203125 30.203125  " id="STIXNonUnicode-Italic-e1df"/>
     <path d="M 51.203125 66.203125  L 50.203125 58.796875  L 39.09375 58.796875  L 26.296875 7.40625  L 37.40625 7.40625  L 34.703125 0  L 5.90625 0  L 6.296875 7.40625  L 17.40625 7.40625  L 30.203125 58.796875  L 19.09375 58.796875  L 22.40625 66.203125  z " id="STIXGeneral-Italic-1d610"/>
    </defs>
    <g transform="translate(43.5536220472 90.0062450787)scale(0.18 -0.18)">
     <use transform="translate(0.0 0.703125)" xlink:href="#STIXNonUnicode-Italic-e1df"/>
     <use transform="translate(52.59268310546875 -12.885937499999997)scale(0.7)" xlink:href="#STIXGeneral-Italic-1d610"/>
    </g>
   </g>
   <g id="text_4">
    <!-- $\theta_G$ -->
    <defs>
     <path d="M 75.5 56.5  L 73 46.203125  L 71.09375 46.203125  Q 67.90625 60 52.203125 60  Q 42.796875 60 35.046875 54.953125  Q 27.296875 49.90625 23.140625 42.203125  Q 19 34.5 19 26.203125  Q 19 17.5 24.203125 11.84375  Q 29.40625 6.203125 39.40625 6.203125  Q 47.703125 6.203125 52.046875 8  Q 56.40625 9.796875 57 12.296875  L 61 28.09375  L 52.09375 28.09375  L 52.09375 35.703125  L 71.59375 35.703125  L 64.09375 5.90625  Q 59.59375 3.296875 57.1875 2.1875  Q 54.796875 1.09375 49.34375 -0.15625  Q 43.90625 -1.40625 37.09375 -1.40625  Q 24.203125 -1.40625 16.953125 5.34375  Q 9.703125 12.09375 9.703125 23.40625  Q 9.703125 32.09375 13.34375 40.25  Q 17 48.40625 23.046875 54.40625  Q 29.09375 60.40625 37.296875 64  Q 45.5 67.59375 54.09375 67.59375  Q 70.59375 67.59375 75.5 56.5  " id="STIXGeneral-Italic-1d60e"/>
    </defs>
    <g transform="translate(41.6636220472 146.699158465)scale(0.18 -0.18)">
     <use transform="translate(0.0 0.703125)" xlink:href="#STIXNonUnicode-Italic-e1df"/>
     <use transform="translate(52.59268310546875 -12.885937499999997)scale(0.7)" xlink:href="#STIXGeneral-Italic-1d60e"/>
    </g>
   </g>
   <g id="text_5">
    <!-- grade -->
    <defs>
     <path d="M 45.40625 27.984375  Q 45.40625 37.75 41.375 43.109375  Q 37.359375 48.484375 30.078125 48.484375  Q 22.859375 48.484375 18.828125 43.109375  Q 14.796875 37.75 14.796875 27.984375  Q 14.796875 18.265625 18.828125 12.890625  Q 22.859375 7.515625 30.078125 7.515625  Q 37.359375 7.515625 41.375 12.890625  Q 45.40625 18.265625 45.40625 27.984375  M 54.390625 6.78125  Q 54.390625 -7.171875 48.1875 -13.984375  Q 42 -20.796875 29.203125 -20.796875  Q 24.46875 -20.796875 20.265625 -20.09375  Q 16.0625 -19.390625 12.109375 -17.921875  L 12.109375 -9.1875  Q 16.0625 -11.328125 19.921875 -12.34375  Q 23.78125 -13.375 27.78125 -13.375  Q 36.625 -13.375 41.015625 -8.765625  Q 45.40625 -4.15625 45.40625 5.171875  L 45.40625 9.625  Q 42.625 4.78125 38.28125 2.390625  Q 33.9375 0 27.875 0  Q 17.828125 0 11.671875 7.65625  Q 5.515625 15.328125 5.515625 27.984375  Q 5.515625 40.671875 11.671875 48.328125  Q 17.828125 56 27.875 56  Q 33.9375 56 38.28125 53.609375  Q 42.625 51.21875 45.40625 46.390625  L 45.40625 54.6875  L 54.390625 54.6875  z " id="BitstreamVeraSans-Roman-67"/>
     <path d="M 34.28125 27.484375  Q 23.390625 27.484375 19.1875 25  Q 14.984375 22.515625 14.984375 16.5  Q 14.984375 11.71875 18.140625 8.90625  Q 21.296875 6.109375 26.703125 6.109375  Q 34.1875 6.109375 38.703125 11.40625  Q 43.21875 16.703125 43.21875 25.484375  L 43.21875 27.484375  z M 52.203125 31.203125  L 52.203125 0  L 43.21875 0  L 43.21875 8.296875  Q 40.140625 3.328125 35.546875 0.953125  Q 30.953125 -1.421875 24.3125 -1.421875  Q 15.921875 -1.421875 10.953125 3.296875  Q 6 8.015625 6 15.921875  Q 6 25.140625 12.171875 29.828125  Q 18.359375 34.515625 30.609375 34.515625  L 43.21875 34.515625  L 43.21875 35.40625  Q 43.21875 41.609375 39.140625 45  Q 35.0625 48.390625 27.6875 48.390625  Q 23 48.390625 18.546875 47.265625  Q 14.109375 46.140625 10.015625 43.890625  L 10.015625 52.203125  Q 14.9375 54.109375 19.578125 55.046875  Q 24.21875 56 28.609375 56  Q 40.484375 56 46.34375 49.84375  Q 52.203125 43.703125 52.203125 31.203125  " id="BitstreamVeraSans-Roman-61"/>
     <path d="M 41.109375 46.296875  Q 39.59375 47.171875 37.8125 47.578125  Q 36.03125 48 33.890625 48  Q 26.265625 48 22.1875 43.046875  Q 18.109375 38.09375 18.109375 28.8125  L 18.109375 0  L 9.078125 0  L 9.078125 54.6875  L 18.109375 54.6875  L 18.109375 46.1875  Q 20.953125 51.171875 25.484375 53.578125  Q 30.03125 56 36.53125 56  Q 37.453125 56 38.578125 55.875  Q 39.703125 55.765625 41.0625 55.515625  z " id="BitstreamVeraSans-Roman-72"/>
    </defs>
    <g transform="translate(107.41949311 143.939783465)scale(0.08 -0.08)">
     <use xlink:href="#BitstreamVeraSans-Roman-67"/>
     <use x="63.4765625" xlink:href="#BitstreamVeraSans-Roman-72"/>
     <use x="104.58984375" xlink:href="#BitstreamVeraSans-Roman-61"/>
     <use x="165.869140625" xlink:href="#BitstreamVeraSans-Roman-64"/>
     <use x="229.345703125" xlink:href="#BitstreamVeraSans-Roman-65"/>
    </g>
   </g>
  </g>
 </g>
 </svg>
