<svg xmlns="http://www.w3.org/2000/svg" xmlns:xlink="http://www.w3.org/1999/xlink" height="113pt" version="1.1" viewBox="0 0 425 113" width="425pt">
 <defs>
  <clipPath id="pb929e9e9bf">
   <rect height="113.385826772" width="425.196850394" x="0.0" y="0.0"/>
  </clipPath>
 </defs>
<defs>
  <style type="text/css">
*{stroke-linecap:butt;stroke-linejoin:round;stroke-miterlimit:100000;}
  </style>
 </defs>
 <g id="figure_1">
  <g id="patch_1">
   <path d="M 0 113.385827  L 425.19685 113.385827  L 425.19685 0  L 0 0  z " style="fill:#ffffff;"/>
  </g>
  <g id="axes_1">
   <g id="patch_2">
    <path clip-path="url(#pb929e9e9bf)" d="M 61.228346 41.952756  L 64.629921 42.944882  L 62.929134 44.220472  L 74.834646 60.094488  L 74.834646 60.094488  L 62.929134 44.220472  L 61.228346 45.496063  L 61.228346 41.952756  z " style="fill:none;stroke:#000000;stroke-linejoin:miter;"/>
   </g>
   <g id="patch_3">
    <path clip-path="url(#pb929e9e9bf)" d="M 108.850394 41.952756  L 108.850394 45.496063  L 107.149606 44.220472  L 95.244094 60.094488  L 95.244094 60.094488  L 107.149606 44.220472  L 105.448819 42.944882  L 108.850394 41.952756  z " style="fill:none;stroke:#000000;stroke-linejoin:miter;"/>
   </g>
   <g id="patch_4">
    <path clip-path="url(#pb929e9e9bf)" d="M 202.96063 41.952756  L 206.362205 42.944882  L 204.661417 44.220472  L 216.566929 60.094488  L 216.566929 60.094488  L 204.661417 44.220472  L 202.96063 45.496063  L 202.96063 41.952756  z " style="fill:none;stroke:#000000;stroke-linejoin:miter;"/>
   </g>
   <g id="patch_5">
    <path clip-path="url(#pb929e9e9bf)" d="M 236.976378 60.094488  L 236.976378 56.551181  L 238.677165 57.826772  L 250.582677 41.952756  L 250.582677 41.952756  L 238.677165 57.826772  L 240.377953 59.102362  L 236.976378 60.094488  z " style="fill:none;stroke:#000000;stroke-linejoin:miter;"/>
   </g>
   <g id="patch_6">
    <path clip-path="url(#pb929e9e9bf)" d="M 358.299213 60.094488  L 354.897638 59.102362  L 356.598425 57.826772  L 344.692913 41.952756  L 344.692913 41.952756  L 356.598425 57.826772  L 358.299213 56.551181  L 358.299213 60.094488  z " style="fill:none;stroke:#000000;stroke-linejoin:miter;"/>
   </g>
   <g id="patch_7">
    <path clip-path="url(#pb929e9e9bf)" d="M 392.314961 41.952756  L 392.314961 45.496063  L 390.614173 44.220472  L 378.708661 60.094488  L 378.708661 60.094488  L 390.614173 44.220472  L 388.913386 42.944882  L 392.314961 41.952756  z " style="fill:none;stroke:#000000;stroke-linejoin:miter;"/>
   </g>
   <g id="patch_8">
    <path clip-path="url(#pb929e9e9bf)" d="M 85.03937 90.708661  C 89.549911 90.708661 93.876319 88.916605 97.065753 85.72717  C 100.255187 82.537736 102.047244 78.211328 102.047244 73.700787  C 102.047244 69.190246 100.255187 64.863838 97.065753 61.674404  C 93.876319 58.48497 89.549911 56.692913 85.03937 56.692913  C 80.528829 56.692913 76.202421 58.48497 73.012987 61.674404  C 69.823553 64.863838 68.031496 69.190246 68.031496 73.700787  C 68.031496 78.211328 69.823553 82.537736 73.012987 85.72717  C 76.202421 88.916605 80.528829 90.708661 85.03937 90.708661  L 85.03937 90.708661  z " style="fill:none;stroke:#000000;stroke-linejoin:miter;"/>
   </g>
   <g id="patch_9">
    <path clip-path="url(#pb929e9e9bf)" d="M 260.787402 45.354331  C 265.297942 45.354331 269.624351 43.562274 272.813785 40.37284  C 276.003219 37.183406 277.795276 32.856998 277.795276 28.346457  C 277.795276 23.835916 276.003219 19.509508 272.813785 16.320074  C 269.624351 13.13064 265.297942 11.338583 260.787402 11.338583  C 256.276861 11.338583 251.950453 13.13064 248.761019 16.320074  C 245.571584 19.509508 243.779528 23.835916 243.779528 28.346457  C 243.779528 32.856998 245.571584 37.183406 248.761019 40.37284  C 251.950453 43.562274 256.276861 45.354331 260.787402 45.354331  L 260.787402 45.354331  z " style="fill:none;stroke:#000000;stroke-linejoin:miter;"/>
   </g>
   <g id="patch_10">
    <path clip-path="url(#pb929e9e9bf)" d="M 119.055118 45.354331  C 123.565659 45.354331 127.892067 43.562274 131.081501 40.37284  C 134.270935 37.183406 136.062992 32.856998 136.062992 28.346457  C 136.062992 23.835916 134.270935 19.509508 131.081501 16.320074  C 127.892067 13.13064 123.565659 11.338583 119.055118 11.338583  C 114.544577 11.338583 110.218169 13.13064 107.028735 16.320074  C 103.839301 19.509508 102.047244 23.835916 102.047244 28.346457  C 102.047244 32.856998 103.839301 37.183406 107.028735 40.37284  C 110.218169 43.562274 114.544577 45.354331 119.055118 45.354331  L 119.055118 45.354331  z " style="fill:none;stroke:#000000;stroke-linejoin:miter;"/>
   </g>
   <g id="patch_11">
    <path clip-path="url(#pb929e9e9bf)" d="M 334.488189 45.354331  C 338.99873 45.354331 343.325138 43.562274 346.514572 40.37284  C 349.704006 37.183406 351.496063 32.856998 351.496063 28.346457  C 351.496063 23.835916 349.704006 19.509508 346.514572 16.320074  C 343.325138 13.13064 338.99873 11.338583 334.488189 11.338583  C 329.977648 11.338583 325.65124 13.13064 322.461806 16.320074  C 319.272372 19.509508 317.480315 23.835916 317.480315 28.346457  C 317.480315 32.856998 319.272372 37.183406 322.461806 40.37284  C 325.65124 43.562274 329.977648 45.354331 334.488189 45.354331  L 334.488189 45.354331  z " style="fill:none;stroke:#000000;stroke-linejoin:miter;"/>
   </g>
   <g id="patch_12">
    <path clip-path="url(#pb929e9e9bf)" d="M 368.503937 90.708661  C 373.014478 90.708661 377.340886 88.916605 380.53032 85.72717  C 383.719754 82.537736 385.511811 78.211328 385.511811 73.700787  C 385.511811 69.190246 383.719754 64.863838 380.53032 61.674404  C 377.340886 58.48497 373.014478 56.692913 368.503937 56.692913  C 363.993396 56.692913 359.666988 58.48497 356.477554 61.674404  C 353.28812 64.863838 351.496063 69.190246 351.496063 73.700787  C 351.496063 78.211328 353.28812 82.537736 356.477554 85.72717  C 359.666988 88.916605 363.993396 90.708661 368.503937 90.708661  L 368.503937 90.708661  z " style="fill:none;stroke:#000000;stroke-linejoin:miter;"/>
   </g>
   <g id="patch_13">
    <path clip-path="url(#pb929e9e9bf)" d="M 192.755906 45.354331  C 197.266446 45.354331 201.592854 43.562274 204.782289 40.37284  C 207.971723 37.183406 209.76378 32.856998 209.76378 28.346457  C 209.76378 23.835916 207.971723 19.509508 204.782289 16.320074  C 201.592854 13.13064 197.266446 11.338583 192.755906 11.338583  C 188.245365 11.338583 183.918957 13.13064 180.729522 16.320074  C 177.540088 19.509508 175.748031 23.835916 175.748031 28.346457  C 175.748031 32.856998 177.540088 37.183406 180.729522 40.37284  C 183.918957 43.562274 188.245365 45.354331 192.755906 45.354331  L 192.755906 45.354331  z " style="fill:none;stroke:#000000;stroke-linejoin:miter;"/>
   </g>
   <g id="patch_14">
    <path clip-path="url(#pb929e9e9bf)" d="M 402.519685 45.354331  C 407.030226 45.354331 411.356634 43.562274 414.546068 40.37284  C 417.735502 37.183406 419.527559 32.856998 419.527559 28.346457  C 419.527559 23.835916 417.735502 19.509508 414.546068 16.320074  C 411.356634 13.13064 407.030226 11.338583 402.519685 11.338583  C 398.009144 11.338583 393.682736 13.13064 390.493302 16.320074  C 387.303868 19.509508 385.511811 23.835916 385.511811 28.346457  C 385.511811 32.856998 387.303868 37.183406 390.493302 40.37284  C 393.682736 43.562274 398.009144 45.354331 402.519685 45.354331  L 402.519685 45.354331  z " style="fill:none;stroke:#000000;stroke-linejoin:miter;"/>
   </g>
   <g id="patch_15">
    <path clip-path="url(#pb929e9e9bf)" d="M 51.023622 45.354331  C 55.534163 45.354331 59.860571 43.562274 63.050005 40.37284  C 66.239439 37.183406 68.031496 32.856998 68.031496 28.346457  C 68.031496 23.835916 66.239439 19.509508 63.050005 16.320074  C 59.860571 13.13064 55.534163 11.338583 51.023622 11.338583  C 46.513081 11.338583 42.186673 13.13064 38.997239 16.320074  C 35.807805 19.509508 34.015748 23.835916 34.015748 28.346457  C 34.015748 32.856998 35.807805 37.183406 38.997239 40.37284  C 42.186673 43.562274 46.513081 45.354331 51.023622 45.354331  L 51.023622 45.354331  z " style="fill:none;stroke:#000000;stroke-linejoin:miter;"/>
   </g>
   <g id="patch_16">
    <path clip-path="url(#pb929e9e9bf)" d="M 226.771654 90.708661  C 231.282194 90.708661 235.608603 88.916605 238.798037 85.72717  C 241.987471 82.537736 243.779528 78.211328 243.779528 73.700787  C 243.779528 69.190246 241.987471 64.863838 238.798037 61.674404  C 235.608603 58.48497 231.282194 56.692913 226.771654 56.692913  C 222.261113 56.692913 217.934705 58.48497 214.74527 61.674404  C 211.555836 64.863838 209.76378 69.190246 209.76378 73.700787  C 209.76378 78.211328 211.555836 82.537736 214.74527 85.72717  C 217.934705 88.916605 222.261113 90.708661 226.771654 90.708661  L 226.771654 90.708661  z " style="fill:none;stroke:#000000;stroke-linejoin:miter;"/>
   </g>
   <g id="matplotlib.axis_1"/>
   <g id="matplotlib.axis_2"/>
   <g id="text_1">
    <!-- C -->
    <defs>
     <path d="M 64.40625 67.28125  L 64.40625 56.890625  Q 59.421875 61.53125 53.78125 63.8125  Q 48.140625 66.109375 41.796875 66.109375  Q 29.296875 66.109375 22.65625 58.46875  Q 16.015625 50.828125 16.015625 36.375  Q 16.015625 21.96875 22.65625 14.328125  Q 29.296875 6.6875 41.796875 6.6875  Q 48.140625 6.6875 53.78125 8.984375  Q 59.421875 11.28125 64.40625 15.921875  L 64.40625 5.609375  Q 59.234375 2.09375 53.4375 0.328125  Q 47.65625 -1.421875 41.21875 -1.421875  Q 24.65625 -1.421875 15.125 8.703125  Q 5.609375 18.84375 5.609375 36.375  Q 5.609375 53.953125 15.125 64.078125  Q 24.65625 74.21875 41.21875 74.21875  Q 47.75 74.21875 53.53125 72.484375  Q 59.328125 70.75 64.40625 67.28125  " id="BitstreamVeraSans-Roman-43"/>
    </defs>
    <g transform="translate(78.7548388287 78.6676624016)scale(0.18 -0.18)">
     <use xlink:href="#BitstreamVeraSans-Roman-43"/>
    </g>
   </g>
   <g id="text_2">
    <!-- B -->
    <defs>
     <path d="M 19.671875 34.8125  L 19.671875 8.109375  L 35.5 8.109375  Q 43.453125 8.109375 47.28125 11.40625  Q 51.125 14.703125 51.125 21.484375  Q 51.125 28.328125 47.28125 31.5625  Q 43.453125 34.8125 35.5 34.8125  z M 19.671875 64.796875  L 19.671875 42.828125  L 34.28125 42.828125  Q 41.5 42.828125 45.03125 45.53125  Q 48.578125 48.25 48.578125 53.8125  Q 48.578125 59.328125 45.03125 62.0625  Q 41.5 64.796875 34.28125 64.796875  z M 9.8125 72.90625  L 35.015625 72.90625  Q 46.296875 72.90625 52.390625 68.21875  Q 58.5 63.53125 58.5 54.890625  Q 58.5 48.1875 55.375 44.234375  Q 52.25 40.28125 46.1875 39.3125  Q 53.46875 37.75 57.5 32.78125  Q 61.53125 27.828125 61.53125 20.40625  Q 61.53125 10.640625 54.890625 5.3125  Q 48.25 0 35.984375 0  L 9.8125 0  z " id="BitstreamVeraSans-Roman-42"/>
    </defs>
    <g transform="translate(254.612557825 33.3133316929)scale(0.18 -0.18)">
     <use xlink:href="#BitstreamVeraSans-Roman-42"/>
    </g>
   </g>
   <g id="text_3">
    <!-- B -->
    <g transform="translate(112.88027436 33.3133316929)scale(0.18 -0.18)">
     <use xlink:href="#BitstreamVeraSans-Roman-42"/>
    </g>
   </g>
   <g id="text_4">
    <!-- A -->
    <defs>
     <path d="M 34.1875 63.1875  L 20.796875 26.90625  L 47.609375 26.90625  z M 28.609375 72.90625  L 39.796875 72.90625  L 67.578125 0  L 57.328125 0  L 50.6875 18.703125  L 17.828125 18.703125  L 11.1875 0  L 0.78125 0  z " id="BitstreamVeraSans-Roman-41"/>
    </defs>
    <g transform="translate(328.331626476 33.3133316929)scale(0.18 -0.18)">
     <use xlink:href="#BitstreamVeraSans-Roman-41"/>
    </g>
   </g>
   <g id="text_5">
    <!-- C -->
    <g transform="translate(362.219405758 78.6676624016)scale(0.18 -0.18)">
     <use xlink:href="#BitstreamVeraSans-Roman-43"/>
    </g>
   </g>
   <g id="text_6">
    <!-- A -->
    <g transform="translate(186.599343012 33.3133316929)scale(0.18 -0.18)">
     <use xlink:href="#BitstreamVeraSans-Roman-41"/>
    </g>
   </g>
   <g id="text_7">
    <!-- B -->
    <g transform="translate(396.344841289 33.3133316929)scale(0.18 -0.18)">
     <use xlink:href="#BitstreamVeraSans-Roman-42"/>
    </g>
   </g>
   <g id="text_8">
    <!-- A -->
    <g transform="translate(44.8670595472 33.3133316929)scale(0.18 -0.18)">
     <use xlink:href="#BitstreamVeraSans-Roman-41"/>
    </g>
   </g>
   <g id="text_9">
    <!-- C -->
    <g transform="translate(220.487122293 78.6676624016)scale(0.18 -0.18)">
     <use xlink:href="#BitstreamVeraSans-Roman-43"/>
    </g>
   </g>
  </g>
 </g>
 </svg>
