<svg xmlns="http://www.w3.org/2000/svg" xmlns:xlink="http://www.w3.org/1999/xlink" height="170pt" version="1.1" viewBox="0 0 283 170" width="283pt">
 <defs>
  <clipPath id="pa850216cce">
   <rect height="170.078740157" width="283.464566929" x="0.0" y="0.0"/>
  </clipPath>
 </defs>
<defs>
  <style type="text/css">
*{stroke-linecap:butt;stroke-linejoin:round;stroke-miterlimit:100000;}
  </style>
 </defs>
 <g id="figure_1">
  <g id="patch_1">
   <path d="M 0 170.07874  L 283.464567 170.07874  L 283.464567 0  L 0 0  z " style="fill:#ffffff;"/>
  </g>
  <g id="axes_1">
   <g id="patch_2">
    <path clip-path="url(#pa850216cce)" d="M 85.03937 141.732283  L 198.425197 141.732283  L 198.425197 28.346457  L 85.03937 28.346457  L 85.03937 141.732283  z " style="fill:none;stroke:#000000;stroke-linejoin:miter;"/>
   </g>
   <g id="patch_3">
    <path clip-path="url(#pa850216cce)" d="M 102.047244 85.03937  L 99.212598 87.165354  L 99.212598 85.03937  L 68.031496 85.03937  L 68.031496 85.03937  L 99.212598 85.03937  L 99.212598 82.913386  L 102.047244 85.03937  z " style="fill:none;stroke:#000000;stroke-linejoin:miter;"/>
   </g>
   <g id="patch_4">
    <path clip-path="url(#pa850216cce)" d="M 51.023622 102.047244  C 55.534163 102.047244 59.860571 100.255187 63.050005 97.065753  C 66.239439 93.876319 68.031496 89.549911 68.031496 85.03937  C 68.031496 80.528829 66.239439 76.202421 63.050005 73.012987  C 59.860571 69.823553 55.534163 68.031496 51.023622 68.031496  C 46.513081 68.031496 42.186673 69.823553 38.997239 73.012987  C 35.807805 76.202421 34.015748 80.528829 34.015748 85.03937  C 34.015748 89.549911 35.807805 93.876319 38.997239 97.065753  C 42.186673 100.255187 46.513081 102.047244 51.023622 102.047244  L 51.023622 102.047244  z " style="fill:none;stroke:#000000;stroke-linejoin:miter;"/>
   </g>
   <g id="patch_5">
    <path clip-path="url(#pa850216cce)" d="M 119.055118 102.047244  C 123.565659 102.047244 127.892067 100.255187 131.081501 97.065753  C 134.270935 93.876319 136.062992 89.549911 136.062992 85.03937  C 136.062992 80.528829 134.270935 76.202421 131.081501 73.012987  C 127.892067 69.823553 123.565659 68.031496 119.055118 68.031496  C 114.544577 68.031496 110.218169 69.823553 107.028735 73.012987  C 103.839301 76.202421 102.047244 80.528829 102.047244 85.03937  C 102.047244 89.549911 103.839301 93.876319 107.028735 97.065753  C 110.218169 100.255187 114.544577 102.047244 119.055118 102.047244  L 119.055118 102.047244  z " style="fill:none;stroke:#000000;stroke-linejoin:miter;"/>
   </g>
   <g id="matplotlib.axis_1"/>
   <g id="matplotlib.axis_2"/>
   <g id="text_1">
    <!-- tosses $t$ -->
    <defs>
     <path d="M 18.3125 70.21875  L 18.3125 54.6875  L 36.8125 54.6875  L 36.8125 47.703125  L 18.3125 47.703125  L 18.3125 18.015625  Q 18.3125 11.328125 20.140625 9.421875  Q 21.96875 7.515625 27.59375 7.515625  L 36.8125 7.515625  L 36.8125 0  L 27.59375 0  Q 17.1875 0 13.234375 3.875  Q 9.28125 7.765625 9.28125 18.015625  L 9.28125 47.703125  L 2.6875 47.703125  L 2.6875 54.6875  L 9.28125 54.6875  L 9.28125 70.21875  z " id="BitstreamVeraSans-Roman-74"/>
     <path id="BitstreamVeraSans-Roman-20"/>
     <path d="M 37.59375 45.296875  L 35.90625 38.203125  L 25.5 38.203125  L 19.40625 13.703125  Q 18.796875 11.296875 18.796875 9.796875  Q 18.796875 6.09375 22.59375 6.09375  Q 26.203125 6.09375 29.59375 8.703125  L 30.796875 8.703125  L 27.796875 1.203125  Q 24.40625 -1 18.5 -1  Q 14.40625 -1 12.25 1.046875  Q 10.09375 3.09375 10.09375 6.703125  Q 10.09375 8.203125 10.59375 10.40625  L 17.59375 38.203125  L 9.59375 38.203125  L 10 39.90625  L 15.796875 45.296875  L 19.296875 45.296875  L 20.90625 51.703125  L 28.59375 58  L 30.40625 58  L 27.203125 45.296875  z " id="STIXGeneral-Italic-1d635"/>
     <path d="M 44.28125 53.078125  L 44.28125 44.578125  Q 40.484375 46.53125 36.375 47.5  Q 32.28125 48.484375 27.875 48.484375  Q 21.1875 48.484375 17.84375 46.4375  Q 14.5 44.390625 14.5 40.28125  Q 14.5 37.15625 16.890625 35.375  Q 19.28125 33.59375 26.515625 31.984375  L 29.59375 31.296875  Q 39.15625 29.25 43.1875 25.515625  Q 47.21875 21.78125 47.21875 15.09375  Q 47.21875 7.46875 41.1875 3.015625  Q 35.15625 -1.421875 24.609375 -1.421875  Q 20.21875 -1.421875 15.453125 -0.5625  Q 10.6875 0.296875 5.421875 2  L 5.421875 11.28125  Q 10.40625 8.6875 15.234375 7.390625  Q 20.0625 6.109375 24.8125 6.109375  Q 31.15625 6.109375 34.5625 8.28125  Q 37.984375 10.453125 37.984375 14.40625  Q 37.984375 18.0625 35.515625 20.015625  Q 33.0625 21.96875 24.703125 23.78125  L 21.578125 24.515625  Q 13.234375 26.265625 9.515625 29.90625  Q 5.8125 33.546875 5.8125 39.890625  Q 5.8125 47.609375 11.28125 51.796875  Q 16.75 56 26.8125 56  Q 31.78125 56 36.171875 55.265625  Q 40.578125 54.546875 44.28125 53.078125  " id="BitstreamVeraSans-Roman-73"/>
     <path d="M 56.203125 29.59375  L 56.203125 25.203125  L 14.890625 25.203125  Q 15.484375 15.921875 20.484375 11.0625  Q 25.484375 6.203125 34.421875 6.203125  Q 39.59375 6.203125 44.453125 7.46875  Q 49.3125 8.734375 54.109375 11.28125  L 54.109375 2.78125  Q 49.265625 0.734375 44.1875 -0.34375  Q 39.109375 -1.421875 33.890625 -1.421875  Q 20.796875 -1.421875 13.15625 6.1875  Q 5.515625 13.8125 5.515625 26.8125  Q 5.515625 40.234375 12.765625 48.109375  Q 20.015625 56 32.328125 56  Q 43.359375 56 49.78125 48.890625  Q 56.203125 41.796875 56.203125 29.59375  M 47.21875 32.234375  Q 47.125 39.59375 43.09375 43.984375  Q 39.0625 48.390625 32.421875 48.390625  Q 24.90625 48.390625 20.390625 44.140625  Q 15.875 39.890625 15.1875 32.171875  z " id="BitstreamVeraSans-Roman-65"/>
     <path d="M 30.609375 48.390625  Q 23.390625 48.390625 19.1875 42.75  Q 14.984375 37.109375 14.984375 27.296875  Q 14.984375 17.484375 19.15625 11.84375  Q 23.34375 6.203125 30.609375 6.203125  Q 37.796875 6.203125 41.984375 11.859375  Q 46.1875 17.53125 46.1875 27.296875  Q 46.1875 37.015625 41.984375 42.703125  Q 37.796875 48.390625 30.609375 48.390625  M 30.609375 56  Q 42.328125 56 49.015625 48.375  Q 55.71875 40.765625 55.71875 27.296875  Q 55.71875 13.875 49.015625 6.21875  Q 42.328125 -1.421875 30.609375 -1.421875  Q 18.84375 -1.421875 12.171875 6.21875  Q 5.515625 13.875 5.515625 27.296875  Q 5.515625 40.765625 12.171875 48.375  Q 18.84375 56 30.609375 56  " id="BitstreamVeraSans-Roman-6f"/>
    </defs>
    <g transform="translate(90.0393700787 136.732283465)scale(0.18 -0.18)">
     <use transform="translate(0.0 0.78125)" xlink:href="#BitstreamVeraSans-Roman-74"/>
     <use transform="translate(39.208984375 0.78125)" xlink:href="#BitstreamVeraSans-Roman-6f"/>
     <use transform="translate(100.390625 0.78125)" xlink:href="#BitstreamVeraSans-Roman-73"/>
     <use transform="translate(152.490234375 0.78125)" xlink:href="#BitstreamVeraSans-Roman-73"/>
     <use transform="translate(204.58984375 0.78125)" xlink:href="#BitstreamVeraSans-Roman-65"/>
     <use transform="translate(266.11328125 0.78125)" xlink:href="#BitstreamVeraSans-Roman-73"/>
     <use transform="translate(318.212890625 0.78125)" xlink:href="#BitstreamVeraSans-Roman-20"/>
     <use transform="translate(350.0 0.78125)" xlink:href="#STIXGeneral-Italic-1d635"/>
    </g>
   </g>
   <g id="text_2">
    <!-- $\theta$ -->
    <defs>
     <path d="M 51.09375 49  Q 51.09375 38 47.140625 26.5  Q 43.203125 15 36 7  Q 28.796875 -1 20.59375 -1  Q 13.40625 -1 9.953125 4.25  Q 6.5 9.5 6.5 18.40625  Q 6.5 24.59375 8.640625 32.84375  Q 10.796875 41.09375 14.546875 49.140625  Q 18.296875 57.203125 24.546875 62.75  Q 30.796875 68.296875 37.90625 68.296875  Q 44.703125 68.296875 47.890625 62.9375  Q 51.09375 57.59375 51.09375 49  M 17.296875 37.296875  L 41.90625 37.296875  Q 43.203125 43.5 43.203125 48.5  Q 43.203125 61.203125 36 61.203125  Q 30.5 61.203125 25.390625 54.09375  Q 20.296875 47 17.296875 37.296875  M 40.203125 30.203125  L 15.59375 30.203125  Q 14.40625 24.296875 14.40625 19.296875  Q 14.40625 6.09375 22.296875 6.09375  Q 27.796875 6.09375 32.4375 12.84375  Q 37.09375 19.59375 40.203125 30.203125  " id="STIXNonUnicode-Italic-e1df"/>
    </defs>
    <g transform="translate(46.3436220472 90.0062450787)scale(0.18 -0.18)">
     <use transform="translate(0.0 0.703125)" xlink:href="#STIXNonUnicode-Italic-e1df"/>
    </g>
   </g>
   <g id="text_3">
    <!-- outcome -->
    <defs>
     <path d="M 52 44.1875  Q 55.375 50.25 60.0625 53.125  Q 64.75 56 71.09375 56  Q 79.640625 56 84.28125 50.015625  Q 88.921875 44.046875 88.921875 33.015625  L 88.921875 0  L 79.890625 0  L 79.890625 32.71875  Q 79.890625 40.578125 77.09375 44.375  Q 74.3125 48.1875 68.609375 48.1875  Q 61.625 48.1875 57.5625 43.546875  Q 53.515625 38.921875 53.515625 30.90625  L 53.515625 0  L 44.484375 0  L 44.484375 32.71875  Q 44.484375 40.625 41.703125 44.40625  Q 38.921875 48.1875 33.109375 48.1875  Q 26.21875 48.1875 22.15625 43.53125  Q 18.109375 38.875 18.109375 30.90625  L 18.109375 0  L 9.078125 0  L 9.078125 54.6875  L 18.109375 54.6875  L 18.109375 46.1875  Q 21.1875 51.21875 25.484375 53.609375  Q 29.78125 56 35.6875 56  Q 41.65625 56 45.828125 52.96875  Q 50 49.953125 52 44.1875  " id="BitstreamVeraSans-Roman-6d"/>
     <path d="M 48.78125 52.59375  L 48.78125 44.1875  Q 44.96875 46.296875 41.140625 47.34375  Q 37.3125 48.390625 33.40625 48.390625  Q 24.65625 48.390625 19.8125 42.84375  Q 14.984375 37.3125 14.984375 27.296875  Q 14.984375 17.28125 19.8125 11.734375  Q 24.65625 6.203125 33.40625 6.203125  Q 37.3125 6.203125 41.140625 7.25  Q 44.96875 8.296875 48.78125 10.40625  L 48.78125 2.09375  Q 45.015625 0.34375 40.984375 -0.53125  Q 36.96875 -1.421875 32.421875 -1.421875  Q 20.0625 -1.421875 12.78125 6.34375  Q 5.515625 14.109375 5.515625 27.296875  Q 5.515625 40.671875 12.859375 48.328125  Q 20.21875 56 33.015625 56  Q 37.15625 56 41.109375 55.140625  Q 45.0625 54.296875 48.78125 52.59375  " id="BitstreamVeraSans-Roman-63"/>
     <path d="M 8.5 21.578125  L 8.5 54.6875  L 17.484375 54.6875  L 17.484375 21.921875  Q 17.484375 14.15625 20.5 10.265625  Q 23.53125 6.390625 29.59375 6.390625  Q 36.859375 6.390625 41.078125 11.03125  Q 45.3125 15.671875 45.3125 23.6875  L 45.3125 54.6875  L 54.296875 54.6875  L 54.296875 0  L 45.3125 0  L 45.3125 8.40625  Q 42.046875 3.421875 37.71875 1  Q 33.40625 -1.421875 27.6875 -1.421875  Q 18.265625 -1.421875 13.375 4.4375  Q 8.5 10.296875 8.5 21.578125  " id="BitstreamVeraSans-Roman-75"/>
    </defs>
    <g transform="translate(103.69449311 86.9709325787)scale(0.07 -0.07)">
     <use xlink:href="#BitstreamVeraSans-Roman-6f"/>
     <use x="61.181640625" xlink:href="#BitstreamVeraSans-Roman-75"/>
     <use x="124.560546875" xlink:href="#BitstreamVeraSans-Roman-74"/>
     <use x="163.76953125" xlink:href="#BitstreamVeraSans-Roman-63"/>
     <use x="218.75" xlink:href="#BitstreamVeraSans-Roman-6f"/>
     <use x="279.931640625" xlink:href="#BitstreamVeraSans-Roman-6d"/>
     <use x="377.34375" xlink:href="#BitstreamVeraSans-Roman-65"/>
    </g>
   </g>
  </g>
 </g>
 </svg>
