<svg xmlns="http://www.w3.org/2000/svg" xmlns:xlink="http://www.w3.org/1999/xlink" height="113pt" version="1.1" viewBox="0 0 141 113" width="141pt">
 <defs>
  <clipPath id="p9af7ad9689">
   <rect height="113.385826772" width="141.732283465" x="0.0" y="0.0"/>
  </clipPath>
 </defs>
<defs>
  <style type="text/css">
*{stroke-linecap:butt;stroke-linejoin:round;stroke-miterlimit:100000;}
  </style>
 </defs>
 <g id="figure_1">
  <g id="patch_1">
   <path d="M 0 113.385827  L 141.732283 113.385827  L 141.732283 0  L 0 0  z " style="fill:#ffffff;"/>
  </g>
  <g id="axes_1">
   <g id="patch_2">
    <path clip-path="url(#p9af7ad9689)" d="M 40.37284 61.674404  L 40.873939 58.166709  L 42.377237 59.670007  L 61.674404 40.37284  L 61.674404 40.37284  L 42.377237 59.670007  L 43.880535 61.173305  L 40.37284 61.674404  z " style="fill:none;stroke:#000000;stroke-linejoin:miter;"/>
   </g>
   <g id="patch_3">
    <path clip-path="url(#p9af7ad9689)" d="M 107.028735 61.674404  L 103.52104 61.173305  L 105.024338 59.670007  L 85.72717 40.37284  L 85.72717 40.37284  L 105.024338 59.670007  L 106.527636 58.166709  L 107.028735 61.674404  z " style="fill:none;stroke:#000000;stroke-linejoin:miter;"/>
   </g>
   <g id="patch_4">
    <path clip-path="url(#p9af7ad9689)" d="M 73.700787 56.692913  L 71.574803 53.858268  L 73.700787 53.858268  L 73.700787 45.354331  L 73.700787 45.354331  L 73.700787 53.858268  L 75.826772 53.858268  L 73.700787 56.692913  z " style="fill:none;stroke:#000000;stroke-linejoin:miter;"/>
   </g>
   <g id="patch_5">
    <path clip-path="url(#p9af7ad9689)" d="M 119.055118 90.708661  C 123.565659 90.708661 127.892067 88.916605 131.081501 85.72717  C 134.270935 82.537736 136.062992 78.211328 136.062992 73.700787  C 136.062992 69.190246 134.270935 64.863838 131.081501 61.674404  C 127.892067 58.48497 123.565659 56.692913 119.055118 56.692913  C 114.544577 56.692913 110.218169 58.48497 107.028735 61.674404  C 103.839301 64.863838 102.047244 69.190246 102.047244 73.700787  C 102.047244 78.211328 103.839301 82.537736 107.028735 85.72717  C 110.218169 88.916605 114.544577 90.708661 119.055118 90.708661  L 119.055118 90.708661  z " style="fill:none;stroke:#000000;stroke-linejoin:miter;"/>
   </g>
   <g id="patch_6">
    <path clip-path="url(#p9af7ad9689)" d="M 73.700787 45.354331  C 78.211328 45.354331 82.537736 43.562274 85.72717 40.37284  C 88.916605 37.183406 90.708661 32.856998 90.708661 28.346457  C 90.708661 23.835916 88.916605 19.509508 85.72717 16.320074  C 82.537736 13.13064 78.211328 11.338583 73.700787 11.338583  C 69.190246 11.338583 64.863838 13.13064 61.674404 16.320074  C 58.48497 19.509508 56.692913 23.835916 56.692913 28.346457  C 56.692913 32.856998 58.48497 37.183406 61.674404 40.37284  C 64.863838 43.562274 69.190246 45.354331 73.700787 45.354331  L 73.700787 45.354331  z " style="fill:none;stroke:#000000;stroke-linejoin:miter;"/>
   </g>
   <g id="patch_7">
    <path clip-path="url(#p9af7ad9689)" d="M 28.346457 90.708661  C 32.856998 90.708661 37.183406 88.916605 40.37284 85.72717  C 43.562274 82.537736 45.354331 78.211328 45.354331 73.700787  C 45.354331 69.190246 43.562274 64.863838 40.37284 61.674404  C 37.183406 58.48497 32.856998 56.692913 28.346457 56.692913  C 23.835916 56.692913 19.509508 58.48497 16.320074 61.674404  C 13.13064 64.863838 11.338583 69.190246 11.338583 73.700787  C 11.338583 78.211328 13.13064 82.537736 16.320074 85.72717  C 19.509508 88.916605 23.835916 90.708661 28.346457 90.708661  L 28.346457 90.708661  z " style="fill:none;stroke:#000000;stroke-linejoin:miter;"/>
   </g>
   <g id="patch_8">
    <path clip-path="url(#p9af7ad9689)" d="M 73.700787 90.708661  C 78.211328 90.708661 82.537736 88.916605 85.72717 85.72717  C 88.916605 82.537736 90.708661 78.211328 90.708661 73.700787  C 90.708661 69.190246 88.916605 64.863838 85.72717 61.674404  C 82.537736 58.48497 78.211328 56.692913 73.700787 56.692913  C 69.190246 56.692913 64.863838 58.48497 61.674404 61.674404  C 58.48497 64.863838 56.692913 69.190246 56.692913 73.700787  C 56.692913 78.211328 58.48497 82.537736 61.674404 85.72717  C 64.863838 88.916605 69.190246 90.708661 73.700787 90.708661  L 73.700787 90.708661  z " style="fill:none;stroke:#000000;stroke-linejoin:miter;"/>
   </g>
   <g id="matplotlib.axis_1"/>
   <g id="matplotlib.axis_2"/>
   <g id="text_1">
    <!-- $o(t_n)$ -->
    <defs>
     <path d="M 37.59375 45.296875  L 35.90625 38.203125  L 25.5 38.203125  L 19.40625 13.703125  Q 18.796875 11.296875 18.796875 9.796875  Q 18.796875 6.09375 22.59375 6.09375  Q 26.203125 6.09375 29.59375 8.703125  L 30.796875 8.703125  L 27.796875 1.203125  Q 24.40625 -1 18.5 -1  Q 14.40625 -1 12.25 1.046875  Q 10.09375 3.09375 10.09375 6.703125  Q 10.09375 8.203125 10.59375 10.40625  L 17.59375 38.203125  L 9.59375 38.203125  L 10 39.90625  L 15.796875 45.296875  L 19.296875 45.296875  L 20.90625 51.703125  L 28.59375 58  L 30.40625 58  L 27.203125 45.296875  z " id="STIXGeneral-Italic-1d635"/>
     <path d="M 30.40625 -16.09375  L 29.203125 -17.703125  Q 17.59375 -11.09375 11.1875 0.5  Q 4.796875 12.09375 4.796875 25.203125  Q 4.796875 52.90625 29.5 67.59375  L 30.40625 66  Q 20.203125 57.296875 16.796875 48.84375  Q 13.40625 40.40625 13.40625 25.5  Q 13.40625 10.703125 16.90625 1.5  Q 20.40625 -7.703125 30.40625 -16.09375  " id="STIXGeneral-Regular-28"/>
     <path d="M 53.59375 30  Q 53.59375 25.09375 51.546875 19.6875  Q 49.5 14.296875 45.890625 9.640625  Q 42.296875 5 36.640625 2  Q 31 -1 24.5 -1  Q 16.59375 -1 12.09375 3.703125  Q 7.59375 8.40625 7.59375 16  Q 7.59375 27.5 16.046875 36.890625  Q 24.5 46.296875 36 46.296875  Q 44.203125 46.296875 48.890625 42  Q 53.59375 37.703125 53.59375 30  M 45.5 28.203125  Q 45.5 33.40625 42.546875 36.296875  Q 39.59375 39.203125 34.296875 39.203125  Q 26.796875 39.203125 21.25 32.5  Q 15.703125 25.796875 15.703125 17.703125  Q 15.703125 12.40625 18.546875 9.25  Q 21.40625 6.09375 26.40625 6.09375  Q 31.203125 6.09375 35.09375 8.6875  Q 39 11.296875 41.140625 15  Q 43.296875 18.703125 44.390625 22.203125  Q 45.5 25.703125 45.5 28.203125  " id="STIXGeneral-Italic-1d630"/>
     <path d="M 2.90625 66  L 4.09375 67.59375  Q 15.5 60.796875 22 49.1875  Q 28.5 37.59375 28.5 24.703125  Q 28.5 -2.59375 3.796875 -17.703125  L 2.90625 -16.09375  Q 13.203125 -7.59375 16.546875 0.84375  Q 19.90625 9.296875 19.90625 24.40625  Q 19.90625 39.59375 16.546875 48.75  Q 13.203125 57.90625 2.90625 66  " id="STIXGeneral-Regular-29"/>
     <path d="M 25.09375 45.90625  L 23.90625 40.203125  Q 28.40625 43.796875 32.203125 45.046875  Q 36 46.296875 40.5 46.296875  Q 45.203125 46.296875 48.09375 43.75  Q 51 41.203125 51 37.203125  Q 51 34.796875 50.40625 32.09375  L 42.40625 0  L 34.5 0  L 42 30.40625  Q 42.5 32.59375 42.5 33.90625  Q 42.5 39.203125 36 39.203125  Q 33.09375 39.203125 28.640625 36.703125  Q 24.203125 34.203125 21.703125 30.203125  L 14.203125 0  L 6.296875 0  L 17.203125 44  L 24.296875 46.40625  z " id="STIXGeneral-Italic-1d62f"/>
    </defs>
    <g transform="translate(106.31511811 77.5639124016)scale(0.14 -0.14)">
     <use transform="translate(0.0 0.40625)" xlink:href="#STIXGeneral-Italic-1d630"/>
     <use transform="translate(49.899993896484375 0.40625)" xlink:href="#STIXGeneral-Regular-28"/>
     <use transform="translate(83.19998168945312 0.40625)" xlink:href="#STIXGeneral-Italic-1d635"/>
     <use transform="translate(112.29997253417969 -13.182812499999997)scale(0.7)" xlink:href="#STIXGeneral-Italic-1d62f"/>
     <use transform="translate(148.6548141479492 0.40625)" xlink:href="#STIXGeneral-Regular-29"/>
    </g>
   </g>
   <g id="text_2">
    <!-- $\theta$ -->
    <defs>
     <path d="M 51.09375 49  Q 51.09375 38 47.140625 26.5  Q 43.203125 15 36 7  Q 28.796875 -1 20.59375 -1  Q 13.40625 -1 9.953125 4.25  Q 6.5 9.5 6.5 18.40625  Q 6.5 24.59375 8.640625 32.84375  Q 10.796875 41.09375 14.546875 49.140625  Q 18.296875 57.203125 24.546875 62.75  Q 30.796875 68.296875 37.90625 68.296875  Q 44.703125 68.296875 47.890625 62.9375  Q 51.09375 57.59375 51.09375 49  M 17.296875 37.296875  L 41.90625 37.296875  Q 43.203125 43.5 43.203125 48.5  Q 43.203125 61.203125 36 61.203125  Q 30.5 61.203125 25.390625 54.09375  Q 20.296875 47 17.296875 37.296875  M 40.203125 30.203125  L 15.59375 30.203125  Q 14.40625 24.296875 14.40625 19.296875  Q 14.40625 6.09375 22.296875 6.09375  Q 27.796875 6.09375 32.4375 12.84375  Q 37.09375 19.59375 40.203125 30.203125  " id="STIXNonUnicode-Italic-e1df"/>
    </defs>
    <g transform="translate(69.0207874016 33.3133316929)scale(0.18 -0.18)">
     <use transform="translate(0.0 0.703125)" xlink:href="#STIXNonUnicode-Italic-e1df"/>
    </g>
   </g>
   <g id="text_3">
    <!-- $o(t_1)$ -->
    <defs>
     <path d="M 30.203125 0  L 22.296875 0  L 22.296875 57  Q 20.09375 56 15.75 53.75  Q 11.40625 51.5 10.796875 51.203125  L 10.796875 58.5  L 28.796875 67.703125  L 30.203125 67.203125  z " id="STIXGeneral-Regular-1d7e3"/>
    </defs>
    <g transform="translate(15.5364566929 77.5639124016)scale(0.14 -0.14)">
     <use transform="translate(0.0 0.40625)" xlink:href="#STIXGeneral-Italic-1d630"/>
     <use transform="translate(49.899993896484375 0.40625)" xlink:href="#STIXGeneral-Regular-28"/>
     <use transform="translate(83.19998168945312 0.40625)" xlink:href="#STIXGeneral-Italic-1d635"/>
     <use transform="translate(112.29997253417969 -13.182812499999997)scale(0.7)" xlink:href="#STIXGeneral-Regular-1d7e3"/>
     <use transform="translate(149.56480560302734 0.40625)" xlink:href="#STIXGeneral-Regular-29"/>
    </g>
   </g>
   <g id="text_4">
    <!-- $\dots$ -->
    <defs>
     <path d="M 88.796875 4.296875  Q 88.796875 2.09375 87.140625 0.5  Q 85.5 -1.09375 83.203125 -1.09375  Q 80.90625 -1.09375 79.296875 0.5  Q 77.703125 2.09375 77.703125 4.390625  Q 77.703125 6.703125 79.34375 8.34375  Q 81 10 83.296875 10  Q 85.5 10 87.140625 8.296875  Q 88.796875 6.59375 88.796875 4.296875  M 55.5 4.296875  Q 55.5 2.09375 53.84375 0.5  Q 52.203125 -1.09375 49.890625 -1.09375  Q 47.59375 -1.09375 46 0.5  Q 44.40625 2.09375 44.40625 4.390625  Q 44.40625 6.703125 46.046875 8.34375  Q 47.703125 10 50 10  Q 52.203125 10 53.84375 8.296875  Q 55.5 6.59375 55.5 4.296875  M 22.203125 4.296875  Q 22.203125 2.09375 20.546875 0.5  Q 18.90625 -1.09375 16.59375 -1.09375  Q 14.296875 -1.09375 12.6875 0.5  Q 11.09375 2.09375 11.09375 4.390625  Q 11.09375 6.703125 12.75 8.34375  Q 14.40625 10 16.703125 10  Q 18.90625 10 20.546875 8.296875  Q 22.203125 6.59375 22.203125 4.296875  " id="STIXGeneral-Regular-2026"/>
    </defs>
    <g transform="translate(64.7007874016 78.6676624016)scale(0.18 -0.18)">
     <use xlink:href="#STIXGeneral-Regular-2026"/>
    </g>
   </g>
  </g>
 </g>
 </svg>
