<svg xmlns="http://www.w3.org/2000/svg" xmlns:xlink="http://www.w3.org/1999/xlink" height="113pt" version="1.1" viewBox="0 0 141 113" width="141pt">
 <defs>
  <clipPath id="paea715efbe">
   <rect height="113.385826772" width="141.732283465" x="0.0" y="0.0"/>
  </clipPath>
 </defs>
<defs>
  <style type="text/css">
*{stroke-linecap:butt;stroke-linejoin:round;stroke-miterlimit:100000;}
  </style>
 </defs>
 <g id="figure_1">
  <g id="patch_1">
   <path d="M 0 113.385827  L 141.732283 113.385827  L 141.732283 0  L 0 0  z " style="fill:#ffffff;"/>
  </g>
  <g id="axes_1">
   <g id="patch_2">
    <path clip-path="url(#paea715efbe)" d="M 74.834646 60.094488  L 71.433071 59.102362  L 73.133858 57.826772  L 61.228346 41.952756  L 61.228346 41.952756  L 73.133858 57.826772  L 74.834646 56.551181  L 74.834646 60.094488  z " style="fill:none;stroke:#000000;stroke-linejoin:miter;"/>
   </g>
   <g id="patch_3">
    <path clip-path="url(#paea715efbe)" d="M 95.244094 60.094488  L 95.244094 56.551181  L 96.944882 57.826772  L 108.850394 41.952756  L 108.850394 41.952756  L 96.944882 57.826772  L 98.645669 59.102362  L 95.244094 60.094488  z " style="fill:none;stroke:#000000;stroke-linejoin:miter;"/>
   </g>
   <g id="patch_4">
    <path clip-path="url(#paea715efbe)" d="M 51.023622 45.354331  C 55.534163 45.354331 59.860571 43.562274 63.050005 40.37284  C 66.239439 37.183406 68.031496 32.856998 68.031496 28.346457  C 68.031496 23.835916 66.239439 19.509508 63.050005 16.320074  C 59.860571 13.13064 55.534163 11.338583 51.023622 11.338583  C 46.513081 11.338583 42.186673 13.13064 38.997239 16.320074  C 35.807805 19.509508 34.015748 23.835916 34.015748 28.346457  C 34.015748 32.856998 35.807805 37.183406 38.997239 40.37284  C 42.186673 43.562274 46.513081 45.354331 51.023622 45.354331  L 51.023622 45.354331  z " style="fill:none;stroke:#000000;stroke-linejoin:miter;"/>
   </g>
   <g id="patch_5">
    <path clip-path="url(#paea715efbe)" d="M 119.055118 45.354331  C 123.565659 45.354331 127.892067 43.562274 131.081501 40.37284  C 134.270935 37.183406 136.062992 32.856998 136.062992 28.346457  C 136.062992 23.835916 134.270935 19.509508 131.081501 16.320074  C 127.892067 13.13064 123.565659 11.338583 119.055118 11.338583  C 114.544577 11.338583 110.218169 13.13064 107.028735 16.320074  C 103.839301 19.509508 102.047244 23.835916 102.047244 28.346457  C 102.047244 32.856998 103.839301 37.183406 107.028735 40.37284  C 110.218169 43.562274 114.544577 45.354331 119.055118 45.354331  L 119.055118 45.354331  z " style="fill:none;stroke:#000000;stroke-linejoin:miter;"/>
   </g>
   <g id="patch_6">
    <path clip-path="url(#paea715efbe)" d="M 85.03937 90.708661  C 89.549911 90.708661 93.876319 88.916605 97.065753 85.72717  C 100.255187 82.537736 102.047244 78.211328 102.047244 73.700787  C 102.047244 69.190246 100.255187 64.863838 97.065753 61.674404  C 93.876319 58.48497 89.549911 56.692913 85.03937 56.692913  C 80.528829 56.692913 76.202421 58.48497 73.012987 61.674404  C 69.823553 64.863838 68.031496 69.190246 68.031496 73.700787  C 68.031496 78.211328 69.823553 82.537736 73.012987 85.72717  C 76.202421 88.916605 80.528829 90.708661 85.03937 90.708661  L 85.03937 90.708661  z " style="fill:none;stroke:#000000;stroke-linejoin:miter;"/>
   </g>
   <g id="matplotlib.axis_1"/>
   <g id="matplotlib.axis_2"/>
   <g id="text_1">
    <!-- I -->
    <defs>
     <path d="M 9.8125 72.90625  L 19.671875 72.90625  L 19.671875 0  L 9.8125 0  z " id="BitstreamVeraSans-Roman-49"/>
    </defs>
    <g transform="translate(48.3686220472 33.3133316929)scale(0.18 -0.18)">
     <use xlink:href="#BitstreamVeraSans-Roman-49"/>
    </g>
   </g>
   <g id="text_2">
    <!-- D -->
    <defs>
     <path d="M 19.671875 64.796875  L 19.671875 8.109375  L 31.59375 8.109375  Q 46.6875 8.109375 53.6875 14.9375  Q 60.6875 21.78125 60.6875 36.53125  Q 60.6875 51.171875 53.6875 57.984375  Q 46.6875 64.796875 31.59375 64.796875  z M 9.8125 72.90625  L 30.078125 72.90625  Q 51.265625 72.90625 61.171875 64.09375  Q 71.09375 55.28125 71.09375 36.53125  Q 71.09375 17.671875 61.125 8.828125  Q 51.171875 0 30.078125 0  L 9.8125 0  z " id="BitstreamVeraSans-Roman-44"/>
    </defs>
    <g transform="translate(112.12511811 33.3133316929)scale(0.18 -0.18)">
     <use xlink:href="#BitstreamVeraSans-Roman-44"/>
    </g>
   </g>
   <g id="text_3">
    <!-- G -->
    <defs>
     <path d="M 59.515625 10.40625  L 59.515625 29.984375  L 43.40625 29.984375  L 43.40625 38.09375  L 69.28125 38.09375  L 69.28125 6.78125  Q 63.578125 2.734375 56.6875 0.65625  Q 49.8125 -1.421875 42 -1.421875  Q 24.90625 -1.421875 15.25 8.5625  Q 5.609375 18.5625 5.609375 36.375  Q 5.609375 54.25 15.25 64.234375  Q 24.90625 74.21875 42 74.21875  Q 49.125 74.21875 55.546875 72.453125  Q 61.96875 70.703125 67.390625 67.28125  L 67.390625 56.78125  Q 61.921875 61.421875 55.765625 63.765625  Q 49.609375 66.109375 42.828125 66.109375  Q 29.4375 66.109375 22.71875 58.640625  Q 16.015625 51.171875 16.015625 36.375  Q 16.015625 21.625 22.71875 14.15625  Q 29.4375 6.6875 42.828125 6.6875  Q 48.046875 6.6875 52.140625 7.59375  Q 56.25 8.5 59.515625 10.40625  " id="BitstreamVeraSans-Roman-47"/>
    </defs>
    <g transform="translate(78.0657763287 78.6676624016)scale(0.18 -0.18)">
     <use xlink:href="#BitstreamVeraSans-Roman-47"/>
    </g>
   </g>
  </g>
 </g>
 </svg>
