<svg xmlns="http://www.w3.org/2000/svg" xmlns:xlink="http://www.w3.org/1999/xlink" height="113pt" version="1.1" viewBox="0 0 283 113" width="283pt">
 <defs>
  <clipPath id="p11e21a94f7">
   <rect height="113.385826772" width="283.464566929" x="0.0" y="0.0"/>
  </clipPath>
 </defs>
<defs>
  <style type="text/css">
*{stroke-linecap:butt;stroke-linejoin:round;stroke-miterlimit:100000;}
  </style>
 </defs>
 <g id="figure_1">
  <g id="patch_1">
   <path d="M 0 113.385827  L 283.464567 113.385827  L 283.464567 0  L 0 0  z " style="fill:#ffffff;"/>
  </g>
  <g id="axes_1">
   <g id="patch_2">
    <path clip-path="url(#p11e21a94f7)" d="M 102.047244 28.346457  L 99.212598 30.472441  L 99.212598 28.346457  L 68.031496 28.346457  L 68.031496 28.346457  L 99.212598 28.346457  L 99.212598 26.220472  L 102.047244 28.346457  z " style="fill:none;stroke:#000000;stroke-linejoin:miter;"/>
   </g>
   <g id="patch_3">
    <path clip-path="url(#p11e21a94f7)" d="M 119.055118 68.031496  L 116.929134 65.19685  L 119.055118 65.19685  L 119.055118 45.354331  L 119.055118 45.354331  L 119.055118 65.19685  L 121.181102 65.19685  L 119.055118 68.031496  z " style="fill:none;stroke:#000000;stroke-linejoin:miter;"/>
   </g>
   <g id="patch_4">
    <path clip-path="url(#p11e21a94f7)" d="M 170.07874 28.346457  L 167.244094 30.472441  L 167.244094 28.346457  L 136.062992 28.346457  L 136.062992 28.346457  L 167.244094 28.346457  L 167.244094 26.220472  L 170.07874 28.346457  z " style="fill:none;stroke:#000000;stroke-linejoin:miter;"/>
   </g>
   <g id="patch_5">
    <path clip-path="url(#p11e21a94f7)" d="M 187.086614 68.031496  L 184.96063 65.19685  L 187.086614 65.19685  L 187.086614 45.354331  L 187.086614 45.354331  L 187.086614 65.19685  L 189.212598 65.19685  L 187.086614 68.031496  z " style="fill:none;stroke:#000000;stroke-linejoin:miter;"/>
   </g>
   <g id="patch_6">
    <path clip-path="url(#p11e21a94f7)" d="M 238.110236 28.346457  L 235.275591 30.472441  L 235.275591 28.346457  L 204.094488 28.346457  L 204.094488 28.346457  L 235.275591 28.346457  L 235.275591 26.220472  L 238.110236 28.346457  z " style="fill:none;stroke:#000000;stroke-linejoin:miter;"/>
   </g>
   <g id="patch_7">
    <path clip-path="url(#p11e21a94f7)" d="M 187.086614 102.047244  C 191.597155 102.047244 195.923563 100.255187 199.112997 97.065753  C 202.302431 93.876319 204.094488 89.549911 204.094488 85.03937  C 204.094488 80.528829 202.302431 76.202421 199.112997 73.012987  C 195.923563 69.823553 191.597155 68.031496 187.086614 68.031496  C 182.576073 68.031496 178.249665 69.823553 175.060231 73.012987  C 171.870797 76.202421 170.07874 80.528829 170.07874 85.03937  C 170.07874 89.549911 171.870797 93.876319 175.060231 97.065753  C 178.249665 100.255187 182.576073 102.047244 187.086614 102.047244  L 187.086614 102.047244  z " style="fill:none;stroke:#000000;stroke-linejoin:miter;"/>
   </g>
   <g id="patch_8">
    <path clip-path="url(#p11e21a94f7)" d="M 119.055118 102.047244  C 123.565659 102.047244 127.892067 100.255187 131.081501 97.065753  C 134.270935 93.876319 136.062992 89.549911 136.062992 85.03937  C 136.062992 80.528829 134.270935 76.202421 131.081501 73.012987  C 127.892067 69.823553 123.565659 68.031496 119.055118 68.031496  C 114.544577 68.031496 110.218169 69.823553 107.028735 73.012987  C 103.839301 76.202421 102.047244 80.528829 102.047244 85.03937  C 102.047244 89.549911 103.839301 93.876319 107.028735 97.065753  C 110.218169 100.255187 114.544577 102.047244 119.055118 102.047244  L 119.055118 102.047244  z " style="fill:none;stroke:#000000;stroke-linejoin:miter;"/>
   </g>
   <g id="patch_9">
    <path clip-path="url(#p11e21a94f7)" d="M 119.055118 45.354331  C 123.565659 45.354331 127.892067 43.562274 131.081501 40.37284  C 134.270935 37.183406 136.062992 32.856998 136.062992 28.346457  C 136.062992 23.835916 134.270935 19.509508 131.081501 16.320074  C 127.892067 13.13064 123.565659 11.338583 119.055118 11.338583  C 114.544577 11.338583 110.218169 13.13064 107.028735 16.320074  C 103.839301 19.509508 102.047244 23.835916 102.047244 28.346457  C 102.047244 32.856998 103.839301 37.183406 107.028735 40.37284  C 110.218169 43.562274 114.544577 45.354331 119.055118 45.354331  L 119.055118 45.354331  z " style="fill:none;stroke:#000000;stroke-linejoin:miter;"/>
   </g>
   <g id="patch_10">
    <path clip-path="url(#p11e21a94f7)" d="M 187.086614 45.354331  C 191.597155 45.354331 195.923563 43.562274 199.112997 40.37284  C 202.302431 37.183406 204.094488 32.856998 204.094488 28.346457  C 204.094488 23.835916 202.302431 19.509508 199.112997 16.320074  C 195.923563 13.13064 191.597155 11.338583 187.086614 11.338583  C 182.576073 11.338583 178.249665 13.13064 175.060231 16.320074  C 171.870797 19.509508 170.07874 23.835916 170.07874 28.346457  C 170.07874 32.856998 171.870797 37.183406 175.060231 40.37284  C 178.249665 43.562274 182.576073 45.354331 187.086614 45.354331  L 187.086614 45.354331  z " style="fill:none;stroke:#000000;stroke-linejoin:miter;"/>
   </g>
   <g id="patch_11">
    <path clip-path="url(#p11e21a94f7)" d="M 255.11811 45.354331  C 259.628651 45.354331 263.955059 43.562274 267.144493 40.37284  C 270.333927 37.183406 272.125984 32.856998 272.125984 28.346457  C 272.125984 23.835916 270.333927 19.509508 267.144493 16.320074  C 263.955059 13.13064 259.628651 11.338583 255.11811 11.338583  C 250.607569 11.338583 246.281161 13.13064 243.091727 16.320074  C 239.902293 19.509508 238.110236 23.835916 238.110236 28.346457  C 238.110236 32.856998 239.902293 37.183406 243.091727 40.37284  C 246.281161 43.562274 250.607569 45.354331 255.11811 45.354331  L 255.11811 45.354331  z " style="fill:none;stroke:#000000;stroke-linejoin:miter;"/>
   </g>
   <g id="patch_12">
    <path clip-path="url(#p11e21a94f7)" d="M 51.023622 45.354331  C 55.534163 45.354331 59.860571 43.562274 63.050005 40.37284  C 66.239439 37.183406 68.031496 32.856998 68.031496 28.346457  C 68.031496 23.835916 66.239439 19.509508 63.050005 16.320074  C 59.860571 13.13064 55.534163 11.338583 51.023622 11.338583  C 46.513081 11.338583 42.186673 13.13064 38.997239 16.320074  C 35.807805 19.509508 34.015748 23.835916 34.015748 28.346457  C 34.015748 32.856998 35.807805 37.183406 38.997239 40.37284  C 42.186673 43.562274 46.513081 45.354331 51.023622 45.354331  L 51.023622 45.354331  z " style="fill:none;stroke:#000000;stroke-linejoin:miter;"/>
   </g>
   <g id="matplotlib.axis_1"/>
   <g id="matplotlib.axis_2"/>
   <g id="text_1">
    <!-- $O^2$ -->
    <defs>
     <path d="M 77.90625 43  Q 77.90625 30.703125 71.546875 20.296875  Q 65.203125 9.90625 55.453125 4.25  Q 45.703125 -1.40625 35.296875 -1.40625  Q 23.703125 -1.40625 16.796875 5.25  Q 9.90625 11.90625 9.90625 23.203125  Q 9.90625 35.59375 16.25 46  Q 22.59375 56.40625 32.296875 62  Q 42 67.59375 52.5 67.59375  Q 64.09375 67.59375 71 60.9375  Q 77.90625 54.296875 77.90625 43  M 68.90625 42.09375  Q 68.90625 50.59375 64.15625 55.296875  Q 59.40625 60 50.59375 60  Q 39.59375 60 31.390625 52.75  Q 23.203125 45.5 20.09375 33.09375  Q 18.90625 28.203125 18.90625 24.09375  Q 18.90625 15.59375 23.65625 10.890625  Q 28.40625 6.203125 37.203125 6.203125  Q 48.203125 6.203125 56.390625 13.453125  Q 64.59375 20.703125 67.703125 33.09375  Q 68.90625 38.09375 68.90625 42.09375  " id="STIXGeneral-Italic-1d616"/>
     <path d="M 46.90625 7.09375  L 44 0  L 3.5 0  L 3.5 2.09375  L 21 23.5  L 21 23.40625  L 26.59375 30.203125  Q 30.5 34.90625 32.09375 36.953125  Q 33.703125 39 35.203125 41.953125  Q 36.703125 44.90625 36.703125 47.5  Q 36.703125 53.703125 33.34375 57.09375  Q 30 60.5 24.203125 60.5  Q 19.59375 60.5 15.75 56.703125  Q 11.90625 52.90625 10.90625 45.90625  L 3.703125 47.59375  Q 5.296875 56.5 11.1875 62.046875  Q 17.09375 67.59375 24.90625 67.59375  Q 33.59375 67.59375 39.09375 62.1875  Q 44.59375 56.796875 44.59375 49.09375  Q 44.59375 43.5 42.5 39.453125  Q 40.40625 35.40625 33.703125 27  L 17.703125 7.09375  z " id="STIXGeneral-Regular-1d7e4"/>
    </defs>
    <g transform="translate(175.746614173 90.0062450787)scale(0.18 -0.18)">
     <use transform="translate(0.0 0.4468750000000057)" xlink:href="#STIXGeneral-Italic-1d616"/>
     <use transform="translate(88.69163452148437 36.68437500000001)scale(0.7)" xlink:href="#STIXGeneral-Regular-1d7e4"/>
    </g>
   </g>
   <g id="text_2">
    <!-- $O^1$ -->
    <defs>
     <path d="M 30.203125 0  L 22.296875 0  L 22.296875 57  Q 20.09375 56 15.75 53.75  Q 11.40625 51.5 10.796875 51.203125  L 10.796875 58.5  L 28.796875 67.703125  L 30.203125 67.203125  z " id="STIXGeneral-Regular-1d7e3"/>
    </defs>
    <g transform="translate(107.71511811 90.0062450787)scale(0.18 -0.18)">
     <use transform="translate(0.0 0.37031249999999716)" xlink:href="#STIXGeneral-Italic-1d616"/>
     <use transform="translate(88.69163452148437 36.6078125)scale(0.7)" xlink:href="#STIXGeneral-Regular-1d7e3"/>
    </g>
   </g>
   <g id="text_3">
    <!-- $S^1$ -->
    <defs>
     <path d="M 59.703125 59.59375  L 56.703125 47.703125  L 54.796875 47.703125  Q 53.90625 53.703125 49.90625 56.84375  Q 45.90625 60 40.09375 60  Q 35 60 30.953125 56.5  Q 26.90625 53 26.90625 48.796875  Q 26.90625 42.90625 38.09375 37.796875  Q 46 34.296875 49.453125 30.59375  Q 52.90625 26.90625 52.90625 21.90625  Q 52.90625 11.5 44.65625 5.046875  Q 36.40625 -1.40625 25.40625 -1.40625  Q 10.90625 -1.40625 6.203125 7  L 8.296875 20.5  L 10.09375 20.5  Q 11.5 13.203125 16.34375 9.703125  Q 21.203125 6.203125 26.90625 6.203125  Q 34.296875 6.203125 38.890625 9.75  Q 43.5 13.296875 43.5 18.59375  Q 43.5 21.90625 41.140625 24.34375  Q 38.796875 26.796875 33.59375 29.09375  Q 25.40625 32.796875 21.65625 36.640625  Q 17.90625 40.5 17.90625 45.59375  Q 17.90625 55 25.34375 61.296875  Q 32.796875 67.59375 42.5 67.59375  Q 54.90625 67.59375 59.703125 59.59375  " id="STIXGeneral-Italic-1d61a"/>
    </defs>
    <g transform="translate(109.24511811 33.3133316929)scale(0.18 -0.18)">
     <use transform="translate(0.0 0.37031249999999716)" xlink:href="#STIXGeneral-Italic-1d61a"/>
     <use transform="translate(71.39163146972656 36.6078125)scale(0.7)" xlink:href="#STIXGeneral-Regular-1d7e3"/>
    </g>
   </g>
   <g id="text_4">
    <!-- $S^2$ -->
    <g transform="translate(177.276614173 33.3133316929)scale(0.18 -0.18)">
     <use transform="translate(0.0 0.4468750000000057)" xlink:href="#STIXGeneral-Italic-1d61a"/>
     <use transform="translate(71.39163146972656 36.68437500000001)scale(0.7)" xlink:href="#STIXGeneral-Regular-1d7e4"/>
    </g>
   </g>
   <g id="text_5">
    <!-- $\dots$ -->
    <defs>
     <path d="M 88.796875 4.296875  Q 88.796875 2.09375 87.140625 0.5  Q 85.5 -1.09375 83.203125 -1.09375  Q 80.90625 -1.09375 79.296875 0.5  Q 77.703125 2.09375 77.703125 4.390625  Q 77.703125 6.703125 79.34375 8.34375  Q 81 10 83.296875 10  Q 85.5 10 87.140625 8.296875  Q 88.796875 6.59375 88.796875 4.296875  M 55.5 4.296875  Q 55.5 2.09375 53.84375 0.5  Q 52.203125 -1.09375 49.890625 -1.09375  Q 47.59375 -1.09375 46 0.5  Q 44.40625 2.09375 44.40625 4.390625  Q 44.40625 6.703125 46.046875 8.34375  Q 47.703125 10 50 10  Q 52.203125 10 53.84375 8.296875  Q 55.5 6.59375 55.5 4.296875  M 22.203125 4.296875  Q 22.203125 2.09375 20.546875 0.5  Q 18.90625 -1.09375 16.59375 -1.09375  Q 14.296875 -1.09375 12.6875 0.5  Q 11.09375 2.09375 11.09375 4.390625  Q 11.09375 6.703125 12.75 8.34375  Q 14.40625 10 16.703125 10  Q 18.90625 10 20.546875 8.296875  Q 22.203125 6.59375 22.203125 4.296875  " id="STIXGeneral-Regular-2026"/>
    </defs>
    <g transform="translate(246.118110236 33.3133316929)scale(0.18 -0.18)">
     <use xlink:href="#STIXGeneral-Regular-2026"/>
    </g>
   </g>
   <g id="text_6">
    <!-- $S^0$ -->
    <defs>
     <path d="M 47.703125 33  Q 47.703125 23.796875 45.546875 16.34375  Q 43.40625 8.90625 38.09375 3.75  Q 32.796875 -1.40625 25 -1.40625  Q 18.796875 -1.40625 14.25 1.6875  Q 9.703125 4.796875 7.203125 10.046875  Q 4.703125 15.296875 3.5 21.140625  Q 2.296875 27 2.296875 33.59375  Q 2.296875 42.90625 4.59375 50.34375  Q 6.90625 57.796875 12.296875 62.6875  Q 17.703125 67.59375 25.40625 67.59375  Q 35.203125 67.59375 41.453125 57.9375  Q 47.703125 48.296875 47.703125 33  M 39.796875 33  Q 39.796875 45.203125 35.75 52.84375  Q 31.703125 60.5 25.203125 60.5  Q 17.796875 60.5 14 52.75  Q 10.203125 45 10.203125 33.40625  Q 10.203125 28.203125 10.953125 23.546875  Q 11.703125 18.90625 13.34375 14.75  Q 15 10.59375 18 8.140625  Q 21 5.703125 25 5.703125  Q 30.09375 5.703125 33.546875 9.796875  Q 37 13.90625 38.390625 19.84375  Q 39.796875 25.796875 39.796875 33  " id="STIXGeneral-Regular-1d7e2"/>
    </defs>
    <g transform="translate(41.2136220472 33.3133316929)scale(0.18 -0.18)">
     <use transform="translate(0.0 0.4468750000000057)" xlink:href="#STIXGeneral-Italic-1d61a"/>
     <use transform="translate(71.39163146972656 36.68437500000001)scale(0.7)" xlink:href="#STIXGeneral-Regular-1d7e2"/>
    </g>
   </g>
  </g>
 </g>
 </svg>
