<svg xmlns="http://www.w3.org/2000/svg" xmlns:xlink="http://www.w3.org/1999/xlink" height="226pt" version="1.1" viewBox="0 0 181 226" width="181pt">
 <defs>
  <clipPath id="pb0ced9a46f">
   <rect height="226.771653543" width="181.417322835" x="0.0" y="0.0"/>
  </clipPath>
 </defs>
<defs>
  <style type="text/css">
*{stroke-linecap:butt;stroke-linejoin:round;stroke-miterlimit:100000;}
  </style>
 </defs>
 <g id="figure_1">
  <g id="patch_1">
   <path d="M 0 226.771654  L 181.417323 226.771654  L 181.417323 0  L 0 0  z " style="fill:#ffffff;"/>
  </g>
  <g id="axes_1">
   <g id="patch_2">
    <path clip-path="url(#pb0ced9a46f)" d="M 79.370079 28.346457  L 76.535433 30.472441  L 76.535433 28.346457  L 45.354331 28.346457  L 45.354331 28.346457  L 76.535433 28.346457  L 76.535433 26.220472  L 79.370079 28.346457  z " style="fill:none;stroke:#000000;stroke-linejoin:miter;"/>
   </g>
   <g id="patch_3">
    <path clip-path="url(#pb0ced9a46f)" d="M 83.312142 74.151194  L 79.773485 73.969725  L 81.134507 72.336499  L 41.412267 39.234632  L 41.412267 39.234632  L 81.134507 72.336499  L 82.495529 70.703272  L 83.312142 74.151194  z " style="fill:none;stroke:#000000;stroke-linejoin:miter;"/>
   </g>
   <g id="patch_4">
    <path clip-path="url(#pb0ced9a46f)" d="M 90.061387 182.633782  L 87.034699 180.791451  L 89.008626 180.00188  L 34.663023 44.137871  L 34.663023 44.137871  L 89.008626 180.00188  L 90.982553 179.212309  L 90.061387 182.633782  z " style="fill:none;stroke:#000000;stroke-linejoin:miter;"/>
   </g>
   <g id="patch_5">
    <path clip-path="url(#pb0ced9a46f)" d="M 79.370079 85.03937  L 76.535433 87.165354  L 76.535433 85.03937  L 45.354331 85.03937  L 45.354331 85.03937  L 76.535433 85.03937  L 76.535433 82.913386  L 79.370079 85.03937  z " style="fill:none;stroke:#000000;stroke-linejoin:miter;"/>
   </g>
   <g id="patch_6">
    <path clip-path="url(#pb0ced9a46f)" d="M 83.312142 130.844108  L 79.773485 130.662638  L 81.134507 129.029412  L 41.412267 95.927546  L 41.412267 95.927546  L 81.134507 129.029412  L 82.495529 127.396186  L 83.312142 130.844108  z " style="fill:none;stroke:#000000;stroke-linejoin:miter;"/>
   </g>
   <g id="patch_7">
    <path clip-path="url(#pb0ced9a46f)" d="M 79.370079 141.732283  L 76.535433 143.858268  L 76.535433 141.732283  L 45.354331 141.732283  L 45.354331 141.732283  L 76.535433 141.732283  L 76.535433 139.606299  L 79.370079 141.732283  z " style="fill:none;stroke:#000000;stroke-linejoin:miter;"/>
   </g>
   <g id="patch_8">
    <path clip-path="url(#pb0ced9a46f)" d="M 79.370079 198.425197  L 76.535433 200.551181  L 76.535433 198.425197  L 45.354331 198.425197  L 45.354331 198.425197  L 76.535433 198.425197  L 76.535433 196.299213  L 79.370079 198.425197  z " style="fill:none;stroke:#000000;stroke-linejoin:miter;"/>
   </g>
   <g id="patch_9">
    <path clip-path="url(#pb0ced9a46f)" d="M 137.858561 162.472588  L 134.372408 163.106434  L 135.323177 161.204896  L 111.590258 149.338436  L 111.590258 149.338436  L 135.323177 161.204896  L 136.273946 159.303357  L 137.858561 162.472588  z " style="fill:none;stroke:#000000;stroke-linejoin:miter;"/>
   </g>
   <g id="patch_10">
    <path clip-path="url(#pb0ced9a46f)" d="M 137.858561 177.684893  L 136.273946 180.854123  L 135.323177 178.952585  L 111.590258 190.819044  L 111.590258 190.819044  L 135.323177 178.952585  L 134.372408 177.051047  L 137.858561 177.684893  z " style="fill:none;stroke:#000000;stroke-linejoin:miter;"/>
   </g>
   <g id="patch_11">
    <path clip-path="url(#pb0ced9a46f)" d="M 28.346457 102.047244  L 30.472441 104.88189  L 28.346457 104.88189  L 28.346457 124.724409  L 28.346457 124.724409  L 28.346457 104.88189  L 26.220472 104.88189  L 28.346457 102.047244  z " style="fill:none;stroke:#000000;stroke-linejoin:miter;"/>
   </g>
   <g id="patch_12">
    <path clip-path="url(#pb0ced9a46f)" d="M 49.296394 159.190565  L 45.757737 159.009095  L 47.118759 157.375869  L 41.412267 152.620459  L 41.412267 152.620459  L 47.118759 157.375869  L 48.479781 155.742642  L 49.296394 159.190565  z " style="fill:none;stroke:#000000;stroke-linejoin:miter;"/>
   </g>
   <g id="patch_13">
    <path clip-path="url(#pb0ced9a46f)" d="M 49.296394 180.966916  L 48.479781 184.414838  L 47.118759 182.781612  L 41.412267 187.537021  L 41.412267 187.537021  L 47.118759 182.781612  L 45.757737 181.148385  L 49.296394 180.966916  z " style="fill:none;stroke:#000000;stroke-linejoin:miter;"/>
   </g>
   <g id="patch_14">
    <path clip-path="url(#pb0ced9a46f)" d="M 62.362205 187.086614  C 66.872746 187.086614 71.199154 185.294557 74.388588 182.105123  C 77.578022 178.915689 79.370079 174.589281 79.370079 170.07874  C 79.370079 165.568199 77.578022 161.241791 74.388588 158.052357  C 71.199154 154.862923 66.872746 153.070866 62.362205 153.070866  C 57.851664 153.070866 53.525256 154.862923 50.335822 158.052357  C 47.146388 161.241791 45.354331 165.568199 45.354331 170.07874  C 45.354331 174.589281 47.146388 178.915689 50.335822 182.105123  C 53.525256 185.294557 57.851664 187.086614 62.362205 187.086614  L 62.362205 187.086614  z " style="fill:none;stroke:#000000;stroke-linejoin:miter;"/>
   </g>
   <g id="patch_15">
    <path clip-path="url(#pb0ced9a46f)" d="M 96.377953 215.433071  C 100.888494 215.433071 105.214902 213.641014 108.404336 210.45158  C 111.59377 207.262146 113.385827 202.935738 113.385827 198.425197  C 113.385827 193.914656 111.59377 189.588248 108.404336 186.398814  C 105.214902 183.20938 100.888494 181.417323 96.377953 181.417323  C 91.867412 181.417323 87.541004 183.20938 84.35157 186.398814  C 81.162136 189.588248 79.370079 193.914656 79.370079 198.425197  C 79.370079 202.935738 81.162136 207.262146 84.35157 210.45158  C 87.541004 213.641014 91.867412 215.433071 96.377953 215.433071  L 96.377953 215.433071  z " style="fill:none;stroke:#000000;stroke-linejoin:miter;"/>
   </g>
   <g id="patch_16">
    <path clip-path="url(#pb0ced9a46f)" d="M 28.346457 215.433071  C 32.856998 215.433071 37.183406 213.641014 40.37284 210.45158  C 43.562274 207.262146 45.354331 202.935738 45.354331 198.425197  C 45.354331 193.914656 43.562274 189.588248 40.37284 186.398814  C 37.183406 183.20938 32.856998 181.417323 28.346457 181.417323  C 23.835916 181.417323 19.509508 183.20938 16.320074 186.398814  C 13.13064 189.588248 11.338583 193.914656 11.338583 198.425197  C 11.338583 202.935738 13.13064 207.262146 16.320074 210.45158  C 19.509508 213.641014 23.835916 215.433071 28.346457 215.433071  L 28.346457 215.433071  z " style="fill:none;stroke:#000000;stroke-linejoin:miter;"/>
   </g>
   <g id="patch_17">
    <path clip-path="url(#pb0ced9a46f)" d="M 28.346457 102.047244  C 32.856998 102.047244 37.183406 100.255187 40.37284 97.065753  C 43.562274 93.876319 45.354331 89.549911 45.354331 85.03937  C 45.354331 80.528829 43.562274 76.202421 40.37284 73.012987  C 37.183406 69.823553 32.856998 68.031496 28.346457 68.031496  C 23.835916 68.031496 19.509508 69.823553 16.320074 73.012987  C 13.13064 76.202421 11.338583 80.528829 11.338583 85.03937  C 11.338583 89.549911 13.13064 93.876319 16.320074 97.065753  C 19.509508 100.255187 23.835916 102.047244 28.346457 102.047244  L 28.346457 102.047244  z " style="fill:none;stroke:#000000;stroke-linejoin:miter;"/>
   </g>
   <g id="patch_18">
    <path clip-path="url(#pb0ced9a46f)" d="M 153.070866 187.086614  C 157.581407 187.086614 161.907815 185.294557 165.097249 182.105123  C 168.286683 178.915689 170.07874 174.589281 170.07874 170.07874  C 170.07874 165.568199 168.286683 161.241791 165.097249 158.052357  C 161.907815 154.862923 157.581407 153.070866 153.070866 153.070866  C 148.560325 153.070866 144.233917 154.862923 141.044483 158.052357  C 137.855049 161.241791 136.062992 165.568199 136.062992 170.07874  C 136.062992 174.589281 137.855049 178.915689 141.044483 182.105123  C 144.233917 185.294557 148.560325 187.086614 153.070866 187.086614  L 153.070866 187.086614  z " style="fill:none;stroke:#000000;stroke-linejoin:miter;"/>
   </g>
   <g id="patch_19">
    <path clip-path="url(#pb0ced9a46f)" d="M 96.377953 158.740157  C 100.888494 158.740157 105.214902 156.948101 108.404336 153.758667  C 111.59377 150.569232 113.385827 146.242824 113.385827 141.732283  C 113.385827 137.221743 111.59377 132.895334 108.404336 129.7059  C 105.214902 126.516466 100.888494 124.724409 96.377953 124.724409  C 91.867412 124.724409 87.541004 126.516466 84.35157 129.7059  C 81.162136 132.895334 79.370079 137.221743 79.370079 141.732283  C 79.370079 146.242824 81.162136 150.569232 84.35157 153.758667  C 87.541004 156.948101 91.867412 158.740157 96.377953 158.740157  L 96.377953 158.740157  z " style="fill:none;stroke:#000000;stroke-linejoin:miter;"/>
   </g>
   <g id="patch_20">
    <path clip-path="url(#pb0ced9a46f)" d="M 28.346457 45.354331  C 32.856998 45.354331 37.183406 43.562274 40.37284 40.37284  C 43.562274 37.183406 45.354331 32.856998 45.354331 28.346457  C 45.354331 23.835916 43.562274 19.509508 40.37284 16.320074  C 37.183406 13.13064 32.856998 11.338583 28.346457 11.338583  C 23.835916 11.338583 19.509508 13.13064 16.320074 16.320074  C 13.13064 19.509508 11.338583 23.835916 11.338583 28.346457  C 11.338583 32.856998 13.13064 37.183406 16.320074 40.37284  C 19.509508 43.562274 23.835916 45.354331 28.346457 45.354331  L 28.346457 45.354331  z " style="fill:none;stroke:#000000;stroke-linejoin:miter;"/>
   </g>
   <g id="patch_21">
    <path clip-path="url(#pb0ced9a46f)" d="M 96.377953 102.047244  C 100.888494 102.047244 105.214902 100.255187 108.404336 97.065753  C 111.59377 93.876319 113.385827 89.549911 113.385827 85.03937  C 113.385827 80.528829 111.59377 76.202421 108.404336 73.012987  C 105.214902 69.823553 100.888494 68.031496 96.377953 68.031496  C 91.867412 68.031496 87.541004 69.823553 84.35157 73.012987  C 81.162136 76.202421 79.370079 80.528829 79.370079 85.03937  C 79.370079 89.549911 81.162136 93.876319 84.35157 97.065753  C 87.541004 100.255187 91.867412 102.047244 96.377953 102.047244  L 96.377953 102.047244  z " style="fill:none;stroke:#000000;stroke-linejoin:miter;"/>
   </g>
   <g id="patch_22">
    <path clip-path="url(#pb0ced9a46f)" d="M 96.377953 45.354331  C 100.888494 45.354331 105.214902 43.562274 108.404336 40.37284  C 111.59377 37.183406 113.385827 32.856998 113.385827 28.346457  C 113.385827 23.835916 111.59377 19.509508 108.404336 16.320074  C 105.214902 13.13064 100.888494 11.338583 96.377953 11.338583  C 91.867412 11.338583 87.541004 13.13064 84.35157 16.320074  C 81.162136 19.509508 79.370079 23.835916 79.370079 28.346457  C 79.370079 32.856998 81.162136 37.183406 84.35157 40.37284  C 87.541004 43.562274 91.867412 45.354331 96.377953 45.354331  L 96.377953 45.354331  z " style="fill:none;stroke:#000000;stroke-linejoin:miter;"/>
   </g>
   <g id="patch_23">
    <path clip-path="url(#pb0ced9a46f)" d="M 28.346457 158.740157  C 32.856998 158.740157 37.183406 156.948101 40.37284 153.758667  C 43.562274 150.569232 45.354331 146.242824 45.354331 141.732283  C 45.354331 137.221743 43.562274 132.895334 40.37284 129.7059  C 37.183406 126.516466 32.856998 124.724409 28.346457 124.724409  C 23.835916 124.724409 19.509508 126.516466 16.320074 129.7059  C 13.13064 132.895334 11.338583 137.221743 11.338583 141.732283  C 11.338583 146.242824 13.13064 150.569232 16.320074 153.758667  C 19.509508 156.948101 23.835916 158.740157 28.346457 158.740157  L 28.346457 158.740157  z " style="fill:none;stroke:#000000;stroke-linejoin:miter;"/>
   </g>
   <g id="matplotlib.axis_1"/>
   <g id="matplotlib.axis_2"/>
   <g id="text_1">
    <!-- $O_0$ -->
    <defs>
     <path d="M 77.90625 43  Q 77.90625 30.703125 71.546875 20.296875  Q 65.203125 9.90625 55.453125 4.25  Q 45.703125 -1.40625 35.296875 -1.40625  Q 23.703125 -1.40625 16.796875 5.25  Q 9.90625 11.90625 9.90625 23.203125  Q 9.90625 35.59375 16.25 46  Q 22.59375 56.40625 32.296875 62  Q 42 67.59375 52.5 67.59375  Q 64.09375 67.59375 71 60.9375  Q 77.90625 54.296875 77.90625 43  M 68.90625 42.09375  Q 68.90625 50.59375 64.15625 55.296875  Q 59.40625 60 50.59375 60  Q 39.59375 60 31.390625 52.75  Q 23.203125 45.5 20.09375 33.09375  Q 18.90625 28.203125 18.90625 24.09375  Q 18.90625 15.59375 23.65625 10.890625  Q 28.40625 6.203125 37.203125 6.203125  Q 48.203125 6.203125 56.390625 13.453125  Q 64.59375 20.703125 67.703125 33.09375  Q 68.90625 38.09375 68.90625 42.09375  " id="STIXGeneral-Italic-1d616"/>
     <path d="M 47.703125 33  Q 47.703125 23.796875 45.546875 16.34375  Q 43.40625 8.90625 38.09375 3.75  Q 32.796875 -1.40625 25 -1.40625  Q 18.796875 -1.40625 14.25 1.6875  Q 9.703125 4.796875 7.203125 10.046875  Q 4.703125 15.296875 3.5 21.140625  Q 2.296875 27 2.296875 33.59375  Q 2.296875 42.90625 4.59375 50.34375  Q 6.90625 57.796875 12.296875 62.6875  Q 17.703125 67.59375 25.40625 67.59375  Q 35.203125 67.59375 41.453125 57.9375  Q 47.703125 48.296875 47.703125 33  M 39.796875 33  Q 39.796875 45.203125 35.75 52.84375  Q 31.703125 60.5 25.203125 60.5  Q 17.796875 60.5 14 52.75  Q 10.203125 45 10.203125 33.40625  Q 10.203125 28.203125 10.953125 23.546875  Q 11.703125 18.90625 13.34375 14.75  Q 15 10.59375 18 8.140625  Q 21 5.703125 25 5.703125  Q 30.09375 5.703125 33.546875 9.796875  Q 37 13.90625 38.390625 19.84375  Q 39.796875 25.796875 39.796875 33  " id="STIXGeneral-Regular-1d7e2"/>
    </defs>
    <g transform="translate(52.5522047244 175.045615157)scale(0.18 -0.18)">
     <use transform="translate(0.0 0.40625)" xlink:href="#STIXGeneral-Italic-1d616"/>
     <use transform="translate(71.39999389648438 -13.182812499999997)scale(0.7)" xlink:href="#STIXGeneral-Regular-1d7e2"/>
    </g>
   </g>
   <g id="text_2">
    <!-- $F_1$ -->
    <defs>
     <path d="M 30.203125 0  L 22.296875 0  L 22.296875 57  Q 20.09375 56 15.75 53.75  Q 11.40625 51.5 10.796875 51.203125  L 10.796875 58.5  L 28.796875 67.703125  L 30.203125 67.203125  z " id="STIXGeneral-Regular-1d7e3"/>
     <path d="M 67.90625 66.203125  L 66.90625 58.796875  L 30.703125 58.796875  L 25.703125 38.59375  L 55.296875 38.59375  L 53.40625 31.09375  L 23.796875 31.09375  L 16.09375 0  L 7.40625 0  L 23.90625 66.203125  z " id="STIXGeneral-Italic-1d60d"/>
    </defs>
    <g transform="translate(88.1879527559 203.39207185)scale(0.18 -0.18)">
     <use transform="translate(0.0 0.796875)" xlink:href="#STIXGeneral-Italic-1d60d"/>
     <use transform="translate(53.49998474121094 -12.792187499999997)scale(0.7)" xlink:href="#STIXGeneral-Regular-1d7e3"/>
    </g>
   </g>
   <g id="text_3">
    <!-- $F_0$ -->
    <g transform="translate(20.1564566929 203.39207185)scale(0.18 -0.18)">
     <use transform="translate(0.0 0.796875)" xlink:href="#STIXGeneral-Italic-1d60d"/>
     <use transform="translate(53.49998474121094 -12.792187499999997)scale(0.7)" xlink:href="#STIXGeneral-Regular-1d7e2"/>
    </g>
   </g>
   <g id="text_4">
    <!-- $V_0$ -->
    <defs>
     <path d="M 78.796875 66.203125  L 33.703125 -1.09375  L 31.09375 -1.09375  L 19.59375 66.203125  L 29.09375 66.203125  L 36.796875 16.40625  L 69.203125 66.203125  z " id="STIXGeneral-Italic-1d61d"/>
    </defs>
    <g transform="translate(19.0764566929 90.0062450787)scale(0.18 -0.18)">
     <use transform="translate(0.0 0.796875)" xlink:href="#STIXGeneral-Italic-1d61d"/>
     <use transform="translate(65.39999389648438 -12.792187499999997)scale(0.7)" xlink:href="#STIXGeneral-Regular-1d7e2"/>
    </g>
   </g>
   <g id="text_5">
    <!-- $O_1$ -->
    <g transform="translate(143.260866142 175.045615157)scale(0.18 -0.18)">
     <use transform="translate(0.0 0.40625)" xlink:href="#STIXGeneral-Italic-1d616"/>
     <use transform="translate(71.39999389648438 -13.182812499999997)scale(0.7)" xlink:href="#STIXGeneral-Regular-1d7e3"/>
    </g>
   </g>
   <g id="text_6">
    <!-- $L_1$ -->
    <defs>
     <path d="M 56.40625 7.40625  L 52.796875 0  L 7.40625 0  L 23.90625 66.203125  L 32.59375 66.203125  L 17.90625 7.40625  z " id="STIXGeneral-Italic-1d613"/>
    </defs>
    <g transform="translate(87.9179527559 146.699158465)scale(0.18 -0.18)">
     <use transform="translate(0.0 0.796875)" xlink:href="#STIXGeneral-Italic-1d613"/>
     <use transform="translate(55.899993896484375 -12.792187499999997)scale(0.7)" xlink:href="#STIXGeneral-Regular-1d7e3"/>
    </g>
   </g>
   <g id="text_7">
    <!-- $W_0$ -->
    <defs>
     <path d="M 105.703125 66.203125  L 66.09375 -1.09375  L 63.296875 -1.09375  L 56.59375 43.5  L 28.203125 -1.09375  L 25.40625 -1.09375  L 19.40625 66.203125  L 28.90625 66.203125  L 32.296875 18.59375  L 32.296875 18.796875  L 62.40625 66.203125  L 68.90625 18.59375  L 68.90625 18.796875  L 96.203125 66.203125  z " id="STIXGeneral-Italic-1d61e"/>
    </defs>
    <g transform="translate(16.6464566929 33.3133316929)scale(0.18 -0.18)">
     <use transform="translate(0.0 0.796875)" xlink:href="#STIXGeneral-Italic-1d61e"/>
     <use transform="translate(92.09999084472656 -12.792187499999997)scale(0.7)" xlink:href="#STIXGeneral-Regular-1d7e2"/>
    </g>
   </g>
   <g id="text_8">
    <!-- $V_1$ -->
    <g transform="translate(87.1079527559 90.0062450787)scale(0.18 -0.18)">
     <use transform="translate(0.0 0.796875)" xlink:href="#STIXGeneral-Italic-1d61d"/>
     <use transform="translate(65.39999389648438 -12.792187499999997)scale(0.7)" xlink:href="#STIXGeneral-Regular-1d7e3"/>
    </g>
   </g>
   <g id="text_9">
    <!-- $W_1$ -->
    <g transform="translate(84.6779527559 33.3133316929)scale(0.18 -0.18)">
     <use transform="translate(0.0 0.796875)" xlink:href="#STIXGeneral-Italic-1d61e"/>
     <use transform="translate(92.09999084472656 -12.792187499999997)scale(0.7)" xlink:href="#STIXGeneral-Regular-1d7e3"/>
    </g>
   </g>
   <g id="text_10">
    <!-- $L_0$ -->
    <g transform="translate(19.8864566929 146.699158465)scale(0.18 -0.18)">
     <use transform="translate(0.0 0.796875)" xlink:href="#STIXGeneral-Italic-1d613"/>
     <use transform="translate(55.899993896484375 -12.792187499999997)scale(0.7)" xlink:href="#STIXGeneral-Regular-1d7e2"/>
    </g>
   </g>
  </g>
 </g>
 </svg>
