<svg xmlns="http://www.w3.org/2000/svg" xmlns:xlink="http://www.w3.org/1999/xlink" height="226pt" version="1.1" viewBox="0 0 181 226" width="181pt">
 <defs>
  <clipPath id="pf8bf9adf25">
   <rect height="226.771653543" width="181.417322835" x="0.0" y="0.0"/>
  </clipPath>
 </defs>
<defs>
  <style type="text/css">
*{stroke-linecap:butt;stroke-linejoin:round;stroke-miterlimit:100000;}
  </style>
 </defs>
 <g id="figure_1">
  <g id="patch_1">
   <path d="M 0 226.771654  L 181.417323 226.771654  L 181.417323 0  L 0 0  z " style="fill:#ffffff;"/>
  </g>
  <g id="axes_1">
   <g id="patch_2">
    <path clip-path="url(#pf8bf9adf25)" d="M 79.370079 28.346457  L 76.535433 30.472441  L 76.535433 28.346457  L 45.354331 28.346457  L 45.354331 28.346457  L 76.535433 28.346457  L 76.535433 26.220472  L 79.370079 28.346457  z " style="fill:none;stroke:#000000;stroke-linejoin:miter;"/>
   </g>
   <g id="patch_3">
    <path clip-path="url(#pf8bf9adf25)" d="M 83.312142 74.151194  L 79.773485 73.969725  L 81.134507 72.336499  L 41.412267 39.234632  L 41.412267 39.234632  L 81.134507 72.336499  L 82.495529 70.703272  L 83.312142 74.151194  z " style="fill:none;stroke:#000000;stroke-linejoin:miter;"/>
   </g>
   <g id="patch_4">
    <path clip-path="url(#pf8bf9adf25)" d="M 90.061387 182.633782  L 87.034699 180.791451  L 89.008626 180.00188  L 34.663023 44.137871  L 34.663023 44.137871  L 89.008626 180.00188  L 90.982553 179.212309  L 90.061387 182.633782  z " style="fill:none;stroke:#000000;stroke-linejoin:miter;"/>
   </g>
   <g id="patch_5">
    <path clip-path="url(#pf8bf9adf25)" d="M 79.370079 85.03937  L 76.535433 87.165354  L 76.535433 85.03937  L 45.354331 85.03937  L 45.354331 85.03937  L 76.535433 85.03937  L 76.535433 82.913386  L 79.370079 85.03937  z " style="fill:none;stroke:#000000;stroke-linejoin:miter;"/>
   </g>
   <g id="patch_6">
    <path clip-path="url(#pf8bf9adf25)" d="M 83.312142 130.844108  L 79.773485 130.662638  L 81.134507 129.029412  L 41.412267 95.927546  L 41.412267 95.927546  L 81.134507 129.029412  L 82.495529 127.396186  L 83.312142 130.844108  z " style="fill:none;stroke:#000000;stroke-linejoin:miter;"/>
   </g>
   <g id="patch_7">
    <path clip-path="url(#pf8bf9adf25)" d="M 79.370079 141.732283  L 76.535433 143.858268  L 76.535433 141.732283  L 45.354331 141.732283  L 45.354331 141.732283  L 76.535433 141.732283  L 76.535433 139.606299  L 79.370079 141.732283  z " style="fill:none;stroke:#000000;stroke-linejoin:miter;"/>
   </g>
   <g id="patch_8">
    <path clip-path="url(#pf8bf9adf25)" d="M 79.370079 198.425197  L 76.535433 200.551181  L 76.535433 198.425197  L 45.354331 198.425197  L 45.354331 198.425197  L 76.535433 198.425197  L 76.535433 196.299213  L 79.370079 198.425197  z " style="fill:none;stroke:#000000;stroke-linejoin:miter;"/>
   </g>
   <g id="patch_9">
    <path clip-path="url(#pf8bf9adf25)" d="M 137.858561 162.472588  L 134.372408 163.106434  L 135.323177 161.204896  L 111.590258 149.338436  L 111.590258 149.338436  L 135.323177 161.204896  L 136.273946 159.303357  L 137.858561 162.472588  z " style="fill:none;stroke:#000000;stroke-linejoin:miter;"/>
   </g>
   <g id="patch_10">
    <path clip-path="url(#pf8bf9adf25)" d="M 137.858561 177.684893  L 136.273946 180.854123  L 135.323177 178.952585  L 111.590258 190.819044  L 111.590258 190.819044  L 135.323177 178.952585  L 134.372408 177.051047  L 137.858561 177.684893  z " style="fill:none;stroke:#000000;stroke-linejoin:miter;"/>
   </g>
   <g id="patch_11">
    <path clip-path="url(#pf8bf9adf25)" d="M 96.377953 215.433071  C 100.888494 215.433071 105.214902 213.641014 108.404336 210.45158  C 111.59377 207.262146 113.385827 202.935738 113.385827 198.425197  C 113.385827 193.914656 111.59377 189.588248 108.404336 186.398814  C 105.214902 183.20938 100.888494 181.417323 96.377953 181.417323  C 91.867412 181.417323 87.541004 183.20938 84.35157 186.398814  C 81.162136 189.588248 79.370079 193.914656 79.370079 198.425197  C 79.370079 202.935738 81.162136 207.262146 84.35157 210.45158  C 87.541004 213.641014 91.867412 215.433071 96.377953 215.433071  L 96.377953 215.433071  z " style="fill:none;stroke:#000000;stroke-linejoin:miter;"/>
   </g>
   <g id="patch_12">
    <path clip-path="url(#pf8bf9adf25)" d="M 28.346457 215.433071  C 32.856998 215.433071 37.183406 213.641014 40.37284 210.45158  C 43.562274 207.262146 45.354331 202.935738 45.354331 198.425197  C 45.354331 193.914656 43.562274 189.588248 40.37284 186.398814  C 37.183406 183.20938 32.856998 181.417323 28.346457 181.417323  C 23.835916 181.417323 19.509508 183.20938 16.320074 186.398814  C 13.13064 189.588248 11.338583 193.914656 11.338583 198.425197  C 11.338583 202.935738 13.13064 207.262146 16.320074 210.45158  C 19.509508 213.641014 23.835916 215.433071 28.346457 215.433071  L 28.346457 215.433071  z " style="fill:none;stroke:#000000;stroke-linejoin:miter;"/>
   </g>
   <g id="patch_13">
    <path clip-path="url(#pf8bf9adf25)" d="M 28.346457 102.047244  C 32.856998 102.047244 37.183406 100.255187 40.37284 97.065753  C 43.562274 93.876319 45.354331 89.549911 45.354331 85.03937  C 45.354331 80.528829 43.562274 76.202421 40.37284 73.012987  C 37.183406 69.823553 32.856998 68.031496 28.346457 68.031496  C 23.835916 68.031496 19.509508 69.823553 16.320074 73.012987  C 13.13064 76.202421 11.338583 80.528829 11.338583 85.03937  C 11.338583 89.549911 13.13064 93.876319 16.320074 97.065753  C 19.509508 100.255187 23.835916 102.047244 28.346457 102.047244  L 28.346457 102.047244  z " style="fill:none;stroke:#000000;stroke-linejoin:miter;"/>
   </g>
   <g id="patch_14">
    <path clip-path="url(#pf8bf9adf25)" d="M 153.070866 187.086614  C 157.581407 187.086614 161.907815 185.294557 165.097249 182.105123  C 168.286683 178.915689 170.07874 174.589281 170.07874 170.07874  C 170.07874 165.568199 168.286683 161.241791 165.097249 158.052357  C 161.907815 154.862923 157.581407 153.070866 153.070866 153.070866  C 148.560325 153.070866 144.233917 154.862923 141.044483 158.052357  C 137.855049 161.241791 136.062992 165.568199 136.062992 170.07874  C 136.062992 174.589281 137.855049 178.915689 141.044483 182.105123  C 144.233917 185.294557 148.560325 187.086614 153.070866 187.086614  L 153.070866 187.086614  z " style="fill:none;stroke:#000000;stroke-linejoin:miter;"/>
   </g>
   <g id="patch_15">
    <path clip-path="url(#pf8bf9adf25)" d="M 96.377953 158.740157  C 100.888494 158.740157 105.214902 156.948101 108.404336 153.758667  C 111.59377 150.569232 113.385827 146.242824 113.385827 141.732283  C 113.385827 137.221743 111.59377 132.895334 108.404336 129.7059  C 105.214902 126.516466 100.888494 124.724409 96.377953 124.724409  C 91.867412 124.724409 87.541004 126.516466 84.35157 129.7059  C 81.162136 132.895334 79.370079 137.221743 79.370079 141.732283  C 79.370079 146.242824 81.162136 150.569232 84.35157 153.758667  C 87.541004 156.948101 91.867412 158.740157 96.377953 158.740157  L 96.377953 158.740157  z " style="fill:none;stroke:#000000;stroke-linejoin:miter;"/>
   </g>
   <g id="patch_16">
    <path clip-path="url(#pf8bf9adf25)" d="M 28.346457 45.354331  C 32.856998 45.354331 37.183406 43.562274 40.37284 40.37284  C 43.562274 37.183406 45.354331 32.856998 45.354331 28.346457  C 45.354331 23.835916 43.562274 19.509508 40.37284 16.320074  C 37.183406 13.13064 32.856998 11.338583 28.346457 11.338583  C 23.835916 11.338583 19.509508 13.13064 16.320074 16.320074  C 13.13064 19.509508 11.338583 23.835916 11.338583 28.346457  C 11.338583 32.856998 13.13064 37.183406 16.320074 40.37284  C 19.509508 43.562274 23.835916 45.354331 28.346457 45.354331  L 28.346457 45.354331  z " style="fill:none;stroke:#000000;stroke-linejoin:miter;"/>
   </g>
   <g id="patch_17">
    <path clip-path="url(#pf8bf9adf25)" d="M 96.377953 102.047244  C 100.888494 102.047244 105.214902 100.255187 108.404336 97.065753  C 111.59377 93.876319 113.385827 89.549911 113.385827 85.03937  C 113.385827 80.528829 111.59377 76.202421 108.404336 73.012987  C 105.214902 69.823553 100.888494 68.031496 96.377953 68.031496  C 91.867412 68.031496 87.541004 69.823553 84.35157 73.012987  C 81.162136 76.202421 79.370079 80.528829 79.370079 85.03937  C 79.370079 89.549911 81.162136 93.876319 84.35157 97.065753  C 87.541004 100.255187 91.867412 102.047244 96.377953 102.047244  L 96.377953 102.047244  z " style="fill:none;stroke:#000000;stroke-linejoin:miter;"/>
   </g>
   <g id="patch_18">
    <path clip-path="url(#pf8bf9adf25)" d="M 96.377953 45.354331  C 100.888494 45.354331 105.214902 43.562274 108.404336 40.37284  C 111.59377 37.183406 113.385827 32.856998 113.385827 28.346457  C 113.385827 23.835916 111.59377 19.509508 108.404336 16.320074  C 105.214902 13.13064 100.888494 11.338583 96.377953 11.338583  C 91.867412 11.338583 87.541004 13.13064 84.35157 16.320074  C 81.162136 19.509508 79.370079 23.835916 79.370079 28.346457  C 79.370079 32.856998 81.162136 37.183406 84.35157 40.37284  C 87.541004 43.562274 91.867412 45.354331 96.377953 45.354331  L 96.377953 45.354331  z " style="fill:none;stroke:#000000;stroke-linejoin:miter;"/>
   </g>
   <g id="patch_19">
    <path clip-path="url(#pf8bf9adf25)" d="M 28.346457 158.740157  C 32.856998 158.740157 37.183406 156.948101 40.37284 153.758667  C 43.562274 150.569232 45.354331 146.242824 45.354331 141.732283  C 45.354331 137.221743 43.562274 132.895334 40.37284 129.7059  C 37.183406 126.516466 32.856998 124.724409 28.346457 124.724409  C 23.835916 124.724409 19.509508 126.516466 16.320074 129.7059  C 13.13064 132.895334 11.338583 137.221743 11.338583 141.732283  C 11.338583 146.242824 13.13064 150.569232 16.320074 153.758667  C 19.509508 156.948101 23.835916 158.740157 28.346457 158.740157  L 28.346457 158.740157  z " style="fill:none;stroke:#000000;stroke-linejoin:miter;"/>
   </g>
   <g id="matplotlib.axis_1"/>
   <g id="matplotlib.axis_2"/>
   <g id="text_1">
    <!-- F' -->
    <defs>
     <path d="M 17.921875 72.90625  L 17.921875 45.796875  L 9.625 45.796875  L 9.625 72.90625  z " id="BitstreamVeraSans-Roman-27"/>
     <path d="M 9.8125 72.90625  L 51.703125 72.90625  L 51.703125 64.59375  L 19.671875 64.59375  L 19.671875 43.109375  L 48.578125 43.109375  L 48.578125 34.8125  L 19.671875 34.8125  L 19.671875 0  L 9.8125 0  z " id="BitstreamVeraSans-Roman-46"/>
    </defs>
    <g transform="translate(88.7279527559 203.39207185)scale(0.18 -0.18)">
     <use xlink:href="#BitstreamVeraSans-Roman-46"/>
     <use x="57.51953125" xlink:href="#BitstreamVeraSans-Roman-27"/>
    </g>
   </g>
   <g id="text_2">
    <!-- F -->
    <g transform="translate(23.1700504429 203.39207185)scale(0.18 -0.18)">
     <use xlink:href="#BitstreamVeraSans-Roman-46"/>
    </g>
   </g>
   <g id="text_3">
    <!-- V -->
    <defs>
     <path d="M 28.609375 0  L 0.78125 72.90625  L 11.078125 72.90625  L 34.1875 11.53125  L 57.328125 72.90625  L 67.578125 72.90625  L 39.796875 0  z " id="BitstreamVeraSans-Roman-56"/>
    </defs>
    <g transform="translate(22.1898941929 90.0062450787)scale(0.18 -0.18)">
     <use xlink:href="#BitstreamVeraSans-Roman-56"/>
    </g>
   </g>
   <g id="text_4">
    <!-- O' -->
    <defs>
     <path d="M 39.40625 66.21875  Q 28.65625 66.21875 22.328125 58.203125  Q 16.015625 50.203125 16.015625 36.375  Q 16.015625 22.609375 22.328125 14.59375  Q 28.65625 6.59375 39.40625 6.59375  Q 50.140625 6.59375 56.421875 14.59375  Q 62.703125 22.609375 62.703125 36.375  Q 62.703125 50.203125 56.421875 58.203125  Q 50.140625 66.21875 39.40625 66.21875  M 39.40625 74.21875  Q 54.734375 74.21875 63.90625 63.9375  Q 73.09375 53.65625 73.09375 36.375  Q 73.09375 19.140625 63.90625 8.859375  Q 54.734375 -1.421875 39.40625 -1.421875  Q 24.03125 -1.421875 14.8125 8.828125  Q 5.609375 19.09375 5.609375 36.375  Q 5.609375 53.65625 14.8125 63.9375  Q 24.03125 74.21875 39.40625 74.21875  " id="BitstreamVeraSans-Roman-4f"/>
    </defs>
    <g transform="translate(143.512584892 175.045615157)scale(0.18 -0.18)">
     <use xlink:href="#BitstreamVeraSans-Roman-4f"/>
     <use x="78.7109375" xlink:href="#BitstreamVeraSans-Roman-27"/>
    </g>
   </g>
   <g id="text_5">
    <!-- L' -->
    <defs>
     <path d="M 9.8125 72.90625  L 19.671875 72.90625  L 19.671875 8.296875  L 55.171875 8.296875  L 55.171875 0  L 9.8125 0  z " id="BitstreamVeraSans-Roman-4c"/>
    </defs>
    <g transform="translate(88.8896715059 146.699158465)scale(0.18 -0.18)">
     <use xlink:href="#BitstreamVeraSans-Roman-4c"/>
     <use x="55.712890625" xlink:href="#BitstreamVeraSans-Roman-27"/>
    </g>
   </g>
   <g id="text_6">
    <!-- W -->
    <defs>
     <path d="M 3.328125 72.90625  L 13.28125 72.90625  L 28.609375 11.28125  L 43.890625 72.90625  L 54.984375 72.90625  L 70.3125 11.28125  L 85.59375 72.90625  L 95.609375 72.90625  L 77.296875 0  L 64.890625 0  L 49.515625 63.28125  L 33.984375 0  L 21.578125 0  z " id="BitstreamVeraSans-Roman-57"/>
    </defs>
    <g transform="translate(19.4477066929 33.3133316929)scale(0.18 -0.18)">
     <use xlink:href="#BitstreamVeraSans-Roman-57"/>
    </g>
   </g>
   <g id="text_7">
    <!-- V' -->
    <g transform="translate(87.7477965059 90.0062450787)scale(0.18 -0.18)">
     <use xlink:href="#BitstreamVeraSans-Roman-56"/>
     <use x="68.408203125" xlink:href="#BitstreamVeraSans-Roman-27"/>
    </g>
   </g>
   <g id="text_8">
    <!-- W' -->
    <g transform="translate(85.0056090059 33.3133316929)scale(0.18 -0.18)">
     <use xlink:href="#BitstreamVeraSans-Roman-57"/>
     <use x="98.876953125" xlink:href="#BitstreamVeraSans-Roman-27"/>
    </g>
   </g>
   <g id="text_9">
    <!-- L -->
    <g transform="translate(23.3317691929 146.699158465)scale(0.18 -0.18)">
     <use xlink:href="#BitstreamVeraSans-Roman-4c"/>
    </g>
   </g>
  </g>
 </g>
 </svg>
