<svg xmlns="http://www.w3.org/2000/svg" xmlns:xlink="http://www.w3.org/1999/xlink" height="113pt" version="1.1" viewBox="0 0 141 113" width="141pt">
 <defs>
  <clipPath id="pb07fd8a063">
   <rect height="113.385826772" width="141.732283465" x="0.0" y="0.0"/>
  </clipPath>
 </defs>
<defs>
  <style type="text/css">
*{stroke-linecap:butt;stroke-linejoin:round;stroke-miterlimit:100000;}
  </style>
 </defs>
 <g id="figure_1">
  <g id="patch_1">
   <path d="M 0 113.385827  L 141.732283 113.385827  L 141.732283 0  L 0 0  z " style="fill:#ffffff;"/>
  </g>
  <g id="axes_1">
   <g id="matplotlib.axis_1"/>
   <g id="matplotlib.axis_2"/>
   <g id="patch_2">
    <path clip-path="url(#pb07fd8a063)" d="M 74.834646 60.094488  L 71.433071 59.102362  L 73.133858 57.826772  L 61.228346 41.952756  L 61.228346 41.952756  L 73.133858 57.826772  L 74.834646 56.551181  L 74.834646 60.094488  z " style="fill:none;stroke:#000000;stroke-linejoin:miter;"/>
   </g>
   <g id="patch_3">
    <path clip-path="url(#pb07fd8a063)" d="M 108.850394 41.952756  L 108.850394 45.496063  L 107.149606 44.220472  L 95.244094 60.094488  L 95.244094 60.094488  L 107.149606 44.220472  L 105.448819 42.944882  L 108.850394 41.952756  z " style="fill:none;stroke:#000000;stroke-linejoin:miter;"/>
   </g>
   <g id="patch_4">
    <path clip-path="url(#pb07fd8a063)" d="M 85.03937 90.708661  C 89.549911 90.708661 93.876319 88.916605 97.065753 85.72717  C 100.255187 82.537736 102.047244 78.211328 102.047244 73.700787  C 102.047244 69.190246 100.255187 64.863838 97.065753 61.674404  C 93.876319 58.48497 89.549911 56.692913 85.03937 56.692913  C 80.528829 56.692913 76.202421 58.48497 73.012987 61.674404  C 69.823553 64.863838 68.031496 69.190246 68.031496 73.700787  C 68.031496 78.211328 69.823553 82.537736 73.012987 85.72717  C 76.202421 88.916605 80.528829 90.708661 85.03937 90.708661  L 85.03937 90.708661  z " style="fill:none;stroke:#000000;stroke-linejoin:miter;"/>
   </g>
   <g id="patch_5">
    <path clip-path="url(#pb07fd8a063)" d="M 119.055118 45.354331  C 123.565659 45.354331 127.892067 43.562274 131.081501 40.37284  C 134.270935 37.183406 136.062992 32.856998 136.062992 28.346457  C 136.062992 23.835916 134.270935 19.509508 131.081501 16.320074  C 127.892067 13.13064 123.565659 11.338583 119.055118 11.338583  C 114.544577 11.338583 110.218169 13.13064 107.028735 16.320074  C 103.839301 19.509508 102.047244 23.835916 102.047244 28.346457  C 102.047244 32.856998 103.839301 37.183406 107.028735 40.37284  C 110.218169 43.562274 114.544577 45.354331 119.055118 45.354331  L 119.055118 45.354331  z " style="fill:none;stroke:#000000;stroke-linejoin:miter;"/>
   </g>
   <g id="patch_6">
    <path clip-path="url(#pb07fd8a063)" d="M 51.023622 45.354331  C 55.534163 45.354331 59.860571 43.562274 63.050005 40.37284  C 66.239439 37.183406 68.031496 32.856998 68.031496 28.346457  C 68.031496 23.835916 66.239439 19.509508 63.050005 16.320074  C 59.860571 13.13064 55.534163 11.338583 51.023622 11.338583  C 46.513081 11.338583 42.186673 13.13064 38.997239 16.320074  C 35.807805 19.509508 34.015748 23.835916 34.015748 28.346457  C 34.015748 32.856998 35.807805 37.183406 38.997239 40.37284  C 42.186673 43.562274 46.513081 45.354331 51.023622 45.354331  L 51.023622 45.354331  z " style="fill:none;stroke:#000000;stroke-linejoin:miter;"/>
   </g>
   <g id="text_1">
    <!-- Z -->
    <defs>
     <path d="M 49.203125 7.09375  L 49.203125 0  L 4.09375 0  L 4.09375 5.703125  L 39 54.40625  L 4.59375 54.40625  L 4.59375 61.40625  L 48.796875 61.40625  L 48.796875 55.796875  L 14 7.09375  z " id="CalibreRegular-5a"/>
    </defs>
    <g style="fill:#262626;" transform="translate(80.2328075787 78.0207874016)scale(0.18 -0.18)">
     <use xlink:href="#CalibreRegular-5a"/>
    </g>
   </g>
   <g id="text_2">
    <!-- Y -->
    <defs>
     <path d="M 28 32.40625  L 45.703125 61.40625  L 54.09375 61.40625  L 31.703125 25.296875  L 31.703125 0  L 23.90625 0  L 23.90625 25.296875  L 1.703125 61.40625  L 10.296875 61.40625  z " id="CalibreRegular-59"/>
    </defs>
    <g style="fill:#262626;" transform="translate(114.04183686 32.6664566929)scale(0.18 -0.18)">
     <use xlink:href="#CalibreRegular-59"/>
    </g>
   </g>
   <g id="text_3">
    <!-- X -->
    <defs>
     <path d="M 53.203125 61.40625  L 32.296875 31.40625  L 54.09375 0  L 45.09375 0  L 27.703125 25  L 10.40625 0  L 1.703125 0  L 23.40625 31.203125  L 2.5 61.40625  L 11.5 61.40625  L 27.90625 37.5  L 44.5 61.40625  z " id="CalibreRegular-58"/>
    </defs>
    <g style="fill:#262626;" transform="translate(46.0103407972 32.6664566929)scale(0.18 -0.18)">
     <use xlink:href="#CalibreRegular-58"/>
    </g>
   </g>
  </g>
 </g>
 </svg>
