<svg xmlns="http://www.w3.org/2000/svg" xmlns:xlink="http://www.w3.org/1999/xlink" height="226pt" version="1.1" viewBox="0 0 124 226" width="124pt">
 <defs>
  <clipPath id="p572987dce3">
   <rect height="226.771653543" width="124.724409449" x="0.0" y="0.0"/>
  </clipPath>
 </defs>
<defs>
  <style type="text/css">
*{stroke-linecap:butt;stroke-linejoin:round;stroke-miterlimit:100000;}
  </style>
 </defs>
 <g id="figure_1">
  <g id="patch_1">
   <path d="M 0 226.771654  L 124.724409 226.771654  L 124.724409 0  L 0 0  z " style="fill:#ffffff;"/>
  </g>
  <g id="axes_1">
   <g id="patch_2">
    <path clip-path="url(#p572987dce3)" d="M 28.346457 102.047244  L 30.472441 104.88189  L 28.346457 104.88189  L 28.346457 124.724409  L 28.346457 124.724409  L 28.346457 104.88189  L 26.220472 104.88189  L 28.346457 102.047244  z " style="fill:none;stroke:#000000;stroke-linejoin:miter;"/>
   </g>
   <g id="patch_3">
    <path clip-path="url(#p572987dce3)" d="M 80.678377 163.53725  L 77.244094 164.409449  L 78.061781 162.447002  L 44.046033 148.273773  L 44.046033 148.273773  L 78.061781 162.447002  L 78.879467 160.484555  L 80.678377 163.53725  z " style="fill:none;stroke:#000000;stroke-linejoin:miter;"/>
   </g>
   <g id="patch_4">
    <path clip-path="url(#p572987dce3)" d="M 80.678377 176.62023  L 78.879467 179.672925  L 78.061781 177.710478  L 44.046033 191.883707  L 44.046033 191.883707  L 78.061781 177.710478  L 77.244094 175.748031  L 80.678377 176.62023  z " style="fill:none;stroke:#000000;stroke-linejoin:miter;"/>
   </g>
   <g id="patch_5">
    <path clip-path="url(#p572987dce3)" d="M 96.377953 187.086614  C 100.888494 187.086614 105.214902 185.294557 108.404336 182.105123  C 111.59377 178.915689 113.385827 174.589281 113.385827 170.07874  C 113.385827 165.568199 111.59377 161.241791 108.404336 158.052357  C 105.214902 154.862923 100.888494 153.070866 96.377953 153.070866  C 91.867412 153.070866 87.541004 154.862923 84.35157 158.052357  C 81.162136 161.241791 79.370079 165.568199 79.370079 170.07874  C 79.370079 174.589281 81.162136 178.915689 84.35157 182.105123  C 87.541004 185.294557 91.867412 187.086614 96.377953 187.086614  L 96.377953 187.086614  z " style="fill:none;stroke:#000000;stroke-linejoin:miter;"/>
   </g>
   <g id="patch_6">
    <path clip-path="url(#p572987dce3)" d="M 28.346457 215.433071  C 32.856998 215.433071 37.183406 213.641014 40.37284 210.45158  C 43.562274 207.262146 45.354331 202.935738 45.354331 198.425197  C 45.354331 193.914656 43.562274 189.588248 40.37284 186.398814  C 37.183406 183.20938 32.856998 181.417323 28.346457 181.417323  C 23.835916 181.417323 19.509508 183.20938 16.320074 186.398814  C 13.13064 189.588248 11.338583 193.914656 11.338583 198.425197  C 11.338583 202.935738 13.13064 207.262146 16.320074 210.45158  C 19.509508 213.641014 23.835916 215.433071 28.346457 215.433071  L 28.346457 215.433071  z " style="fill:none;stroke:#000000;stroke-linejoin:miter;"/>
   </g>
   <g id="patch_7">
    <path clip-path="url(#p572987dce3)" d="M 28.346457 45.354331  C 32.856998 45.354331 37.183406 43.562274 40.37284 40.37284  C 43.562274 37.183406 45.354331 32.856998 45.354331 28.346457  C 45.354331 23.835916 43.562274 19.509508 40.37284 16.320074  C 37.183406 13.13064 32.856998 11.338583 28.346457 11.338583  C 23.835916 11.338583 19.509508 13.13064 16.320074 16.320074  C 13.13064 19.509508 11.338583 23.835916 11.338583 28.346457  C 11.338583 32.856998 13.13064 37.183406 16.320074 40.37284  C 19.509508 43.562274 23.835916 45.354331 28.346457 45.354331  L 28.346457 45.354331  z " style="fill:none;stroke:#000000;stroke-linejoin:miter;"/>
   </g>
   <g id="patch_8">
    <path clip-path="url(#p572987dce3)" d="M 28.346457 102.047244  C 32.856998 102.047244 37.183406 100.255187 40.37284 97.065753  C 43.562274 93.876319 45.354331 89.549911 45.354331 85.03937  C 45.354331 80.528829 43.562274 76.202421 40.37284 73.012987  C 37.183406 69.823553 32.856998 68.031496 28.346457 68.031496  C 23.835916 68.031496 19.509508 69.823553 16.320074 73.012987  C 13.13064 76.202421 11.338583 80.528829 11.338583 85.03937  C 11.338583 89.549911 13.13064 93.876319 16.320074 97.065753  C 19.509508 100.255187 23.835916 102.047244 28.346457 102.047244  L 28.346457 102.047244  z " style="fill:none;stroke:#000000;stroke-linejoin:miter;"/>
   </g>
   <g id="patch_9">
    <path clip-path="url(#p572987dce3)" d="M 28.346457 158.740157  C 32.856998 158.740157 37.183406 156.948101 40.37284 153.758667  C 43.562274 150.569232 45.354331 146.242824 45.354331 141.732283  C 45.354331 137.221743 43.562274 132.895334 40.37284 129.7059  C 37.183406 126.516466 32.856998 124.724409 28.346457 124.724409  C 23.835916 124.724409 19.509508 126.516466 16.320074 129.7059  C 13.13064 132.895334 11.338583 137.221743 11.338583 141.732283  C 11.338583 146.242824 13.13064 150.569232 16.320074 153.758667  C 19.509508 156.948101 23.835916 158.740157 28.346457 158.740157  L 28.346457 158.740157  z " style="fill:none;stroke:#000000;stroke-linejoin:miter;"/>
   </g>
   <g id="matplotlib.axis_1"/>
   <g id="matplotlib.axis_2"/>
   <g id="text_1">
    <!-- $O_0$ -->
    <defs>
     <path d="M 77.90625 43  Q 77.90625 30.703125 71.546875 20.296875  Q 65.203125 9.90625 55.453125 4.25  Q 45.703125 -1.40625 35.296875 -1.40625  Q 23.703125 -1.40625 16.796875 5.25  Q 9.90625 11.90625 9.90625 23.203125  Q 9.90625 35.59375 16.25 46  Q 22.59375 56.40625 32.296875 62  Q 42 67.59375 52.5 67.59375  Q 64.09375 67.59375 71 60.9375  Q 77.90625 54.296875 77.90625 43  M 68.90625 42.09375  Q 68.90625 50.59375 64.15625 55.296875  Q 59.40625 60 50.59375 60  Q 39.59375 60 31.390625 52.75  Q 23.203125 45.5 20.09375 33.09375  Q 18.90625 28.203125 18.90625 24.09375  Q 18.90625 15.59375 23.65625 10.890625  Q 28.40625 6.203125 37.203125 6.203125  Q 48.203125 6.203125 56.390625 13.453125  Q 64.59375 20.703125 67.703125 33.09375  Q 68.90625 38.09375 68.90625 42.09375  " id="STIXGeneral-Italic-1d616"/>
     <path d="M 47.703125 33  Q 47.703125 23.796875 45.546875 16.34375  Q 43.40625 8.90625 38.09375 3.75  Q 32.796875 -1.40625 25 -1.40625  Q 18.796875 -1.40625 14.25 1.6875  Q 9.703125 4.796875 7.203125 10.046875  Q 4.703125 15.296875 3.5 21.140625  Q 2.296875 27 2.296875 33.59375  Q 2.296875 42.90625 4.59375 50.34375  Q 6.90625 57.796875 12.296875 62.6875  Q 17.703125 67.59375 25.40625 67.59375  Q 35.203125 67.59375 41.453125 57.9375  Q 47.703125 48.296875 47.703125 33  M 39.796875 33  Q 39.796875 45.203125 35.75 52.84375  Q 31.703125 60.5 25.203125 60.5  Q 17.796875 60.5 14 52.75  Q 10.203125 45 10.203125 33.40625  Q 10.203125 28.203125 10.953125 23.546875  Q 11.703125 18.90625 13.34375 14.75  Q 15 10.59375 18 8.140625  Q 21 5.703125 25 5.703125  Q 30.09375 5.703125 33.546875 9.796875  Q 37 13.90625 38.390625 19.84375  Q 39.796875 25.796875 39.796875 33  " id="STIXGeneral-Regular-1d7e2"/>
    </defs>
    <g transform="translate(86.5679527559 175.045615157)scale(0.18 -0.18)">
     <use transform="translate(0.0 0.40625)" xlink:href="#STIXGeneral-Italic-1d616"/>
     <use transform="translate(71.39999389648438 -13.182812499999997)scale(0.7)" xlink:href="#STIXGeneral-Regular-1d7e2"/>
    </g>
   </g>
   <g id="text_2">
    <!-- $F_0$ -->
    <defs>
     <path d="M 67.90625 66.203125  L 66.90625 58.796875  L 30.703125 58.796875  L 25.703125 38.59375  L 55.296875 38.59375  L 53.40625 31.09375  L 23.796875 31.09375  L 16.09375 0  L 7.40625 0  L 23.90625 66.203125  z " id="STIXGeneral-Italic-1d60d"/>
    </defs>
    <g transform="translate(20.1564566929 203.39207185)scale(0.18 -0.18)">
     <use transform="translate(0.0 0.796875)" xlink:href="#STIXGeneral-Italic-1d60d"/>
     <use transform="translate(53.49998474121094 -12.792187499999997)scale(0.7)" xlink:href="#STIXGeneral-Regular-1d7e2"/>
    </g>
   </g>
   <g id="text_3">
    <!-- $W_0$ -->
    <defs>
     <path d="M 105.703125 66.203125  L 66.09375 -1.09375  L 63.296875 -1.09375  L 56.59375 43.5  L 28.203125 -1.09375  L 25.40625 -1.09375  L 19.40625 66.203125  L 28.90625 66.203125  L 32.296875 18.59375  L 32.296875 18.796875  L 62.40625 66.203125  L 68.90625 18.59375  L 68.90625 18.796875  L 96.203125 66.203125  z " id="STIXGeneral-Italic-1d61e"/>
    </defs>
    <g transform="translate(16.6464566929 33.3133316929)scale(0.18 -0.18)">
     <use transform="translate(0.0 0.796875)" xlink:href="#STIXGeneral-Italic-1d61e"/>
     <use transform="translate(92.09999084472656 -12.792187499999997)scale(0.7)" xlink:href="#STIXGeneral-Regular-1d7e2"/>
    </g>
   </g>
   <g id="text_4">
    <!-- $V_0$ -->
    <defs>
     <path d="M 78.796875 66.203125  L 33.703125 -1.09375  L 31.09375 -1.09375  L 19.59375 66.203125  L 29.09375 66.203125  L 36.796875 16.40625  L 69.203125 66.203125  z " id="STIXGeneral-Italic-1d61d"/>
    </defs>
    <g transform="translate(19.0764566929 90.0062450787)scale(0.18 -0.18)">
     <use transform="translate(0.0 0.796875)" xlink:href="#STIXGeneral-Italic-1d61d"/>
     <use transform="translate(65.39999389648438 -12.792187499999997)scale(0.7)" xlink:href="#STIXGeneral-Regular-1d7e2"/>
    </g>
   </g>
   <g id="text_5">
    <!-- $L_0$ -->
    <defs>
     <path d="M 56.40625 7.40625  L 52.796875 0  L 7.40625 0  L 23.90625 66.203125  L 32.59375 66.203125  L 17.90625 7.40625  z " id="STIXGeneral-Italic-1d613"/>
    </defs>
    <g transform="translate(19.8864566929 146.699158465)scale(0.18 -0.18)">
     <use transform="translate(0.0 0.796875)" xlink:href="#STIXGeneral-Italic-1d613"/>
     <use transform="translate(55.899993896484375 -12.792187499999997)scale(0.7)" xlink:href="#STIXGeneral-Regular-1d7e2"/>
    </g>
   </g>
  </g>
 </g>
 </svg>
