<svg xmlns="http://www.w3.org/2000/svg" xmlns:xlink="http://www.w3.org/1999/xlink" height="113pt" version="1.1" viewBox="0 0 141 113" width="141pt">
 <defs>
  <clipPath id="pfdcba1a8d9">
   <rect height="113.385826772" width="141.732283465" x="0.0" y="0.0"/>
  </clipPath>
 </defs>
<defs>
  <style type="text/css">
*{stroke-linecap:butt;stroke-linejoin:round;stroke-miterlimit:100000;}
  </style>
 </defs>
 <g id="figure_1">
  <g id="patch_1">
   <path d="M 0 113.385827  L 141.732283 113.385827  L 141.732283 0  L 0 0  z " style="fill:#ffffff;"/>
  </g>
  <g id="axes_1">
   <g id="patch_2">
    <path clip-path="url(#pfdcba1a8d9)" d="M 85.72717 61.674404  L 86.22827 58.166709  L 87.731568 59.670007  L 107.028735 40.37284  L 107.028735 40.37284  L 87.731568 59.670007  L 89.234866 61.173305  L 85.72717 61.674404  z " style="fill:none;stroke:#000000;stroke-linejoin:miter;"/>
   </g>
   <g id="patch_3">
    <path clip-path="url(#pfdcba1a8d9)" d="M 73.700787 56.692913  L 71.574803 53.858268  L 73.700787 53.858268  L 73.700787 45.354331  L 73.700787 45.354331  L 73.700787 53.858268  L 75.826772 53.858268  L 73.700787 56.692913  z " style="fill:none;stroke:#000000;stroke-linejoin:miter;"/>
   </g>
   <g id="patch_4">
    <path clip-path="url(#pfdcba1a8d9)" d="M 61.674404 61.674404  L 58.166709 61.173305  L 59.670007 59.670007  L 40.37284 40.37284  L 40.37284 40.37284  L 59.670007 59.670007  L 61.173305 58.166709  L 61.674404 61.674404  z " style="fill:none;stroke:#000000;stroke-linejoin:miter;"/>
   </g>
   <g id="patch_5">
    <path clip-path="url(#pfdcba1a8d9)" d="M 73.700787 90.708661  C 78.211328 90.708661 82.537736 88.916605 85.72717 85.72717  C 88.916605 82.537736 90.708661 78.211328 90.708661 73.700787  C 90.708661 69.190246 88.916605 64.863838 85.72717 61.674404  C 82.537736 58.48497 78.211328 56.692913 73.700787 56.692913  C 69.190246 56.692913 64.863838 58.48497 61.674404 61.674404  C 58.48497 64.863838 56.692913 69.190246 56.692913 73.700787  C 56.692913 78.211328 58.48497 82.537736 61.674404 85.72717  C 64.863838 88.916605 69.190246 90.708661 73.700787 90.708661  L 73.700787 90.708661  z " style="fill:none;stroke:#000000;stroke-linejoin:miter;"/>
   </g>
   <g id="patch_6">
    <path clip-path="url(#pfdcba1a8d9)" d="M 73.700787 45.354331  C 78.211328 45.354331 82.537736 43.562274 85.72717 40.37284  C 88.916605 37.183406 90.708661 32.856998 90.708661 28.346457  C 90.708661 23.835916 88.916605 19.509508 85.72717 16.320074  C 82.537736 13.13064 78.211328 11.338583 73.700787 11.338583  C 69.190246 11.338583 64.863838 13.13064 61.674404 16.320074  C 58.48497 19.509508 56.692913 23.835916 56.692913 28.346457  C 56.692913 32.856998 58.48497 37.183406 61.674404 40.37284  C 64.863838 43.562274 69.190246 45.354331 73.700787 45.354331  L 73.700787 45.354331  z " style="fill:none;stroke:#000000;stroke-linejoin:miter;"/>
   </g>
   <g id="patch_7">
    <path clip-path="url(#pfdcba1a8d9)" d="M 119.055118 45.354331  C 123.565659 45.354331 127.892067 43.562274 131.081501 40.37284  C 134.270935 37.183406 136.062992 32.856998 136.062992 28.346457  C 136.062992 23.835916 134.270935 19.509508 131.081501 16.320074  C 127.892067 13.13064 123.565659 11.338583 119.055118 11.338583  C 114.544577 11.338583 110.218169 13.13064 107.028735 16.320074  C 103.839301 19.509508 102.047244 23.835916 102.047244 28.346457  C 102.047244 32.856998 103.839301 37.183406 107.028735 40.37284  C 110.218169 43.562274 114.544577 45.354331 119.055118 45.354331  L 119.055118 45.354331  z " style="fill:none;stroke:#000000;stroke-linejoin:miter;"/>
   </g>
   <g id="patch_8">
    <path clip-path="url(#pfdcba1a8d9)" d="M 28.346457 45.354331  C 32.856998 45.354331 37.183406 43.562274 40.37284 40.37284  C 43.562274 37.183406 45.354331 32.856998 45.354331 28.346457  C 45.354331 23.835916 43.562274 19.509508 40.37284 16.320074  C 37.183406 13.13064 32.856998 11.338583 28.346457 11.338583  C 23.835916 11.338583 19.509508 13.13064 16.320074 16.320074  C 13.13064 19.509508 11.338583 23.835916 11.338583 28.346457  C 11.338583 32.856998 13.13064 37.183406 16.320074 40.37284  C 19.509508 43.562274 23.835916 45.354331 28.346457 45.354331  L 28.346457 45.354331  z " style="fill:none;stroke:#000000;stroke-linejoin:miter;"/>
   </g>
   <g id="matplotlib.axis_1"/>
   <g id="matplotlib.axis_2"/>
   <g id="text_1">
    <!-- job -->
    <defs>
     <path d="M 48.6875 27.296875  Q 48.6875 37.203125 44.609375 42.84375  Q 40.53125 48.484375 33.40625 48.484375  Q 26.265625 48.484375 22.1875 42.84375  Q 18.109375 37.203125 18.109375 27.296875  Q 18.109375 17.390625 22.1875 11.75  Q 26.265625 6.109375 33.40625 6.109375  Q 40.53125 6.109375 44.609375 11.75  Q 48.6875 17.390625 48.6875 27.296875  M 18.109375 46.390625  Q 20.953125 51.265625 25.265625 53.625  Q 29.59375 56 35.59375 56  Q 45.5625 56 51.78125 48.09375  Q 58.015625 40.1875 58.015625 27.296875  Q 58.015625 14.40625 51.78125 6.484375  Q 45.5625 -1.421875 35.59375 -1.421875  Q 29.59375 -1.421875 25.265625 0.953125  Q 20.953125 3.328125 18.109375 8.203125  L 18.109375 0  L 9.078125 0  L 9.078125 75.984375  L 18.109375 75.984375  z " id="BitstreamVeraSans-Roman-62"/>
     <path d="M 30.609375 48.390625  Q 23.390625 48.390625 19.1875 42.75  Q 14.984375 37.109375 14.984375 27.296875  Q 14.984375 17.484375 19.15625 11.84375  Q 23.34375 6.203125 30.609375 6.203125  Q 37.796875 6.203125 41.984375 11.859375  Q 46.1875 17.53125 46.1875 27.296875  Q 46.1875 37.015625 41.984375 42.703125  Q 37.796875 48.390625 30.609375 48.390625  M 30.609375 56  Q 42.328125 56 49.015625 48.375  Q 55.71875 40.765625 55.71875 27.296875  Q 55.71875 13.875 49.015625 6.21875  Q 42.328125 -1.421875 30.609375 -1.421875  Q 18.84375 -1.421875 12.171875 6.21875  Q 5.515625 13.875 5.515625 27.296875  Q 5.515625 40.765625 12.171875 48.375  Q 18.84375 56 30.609375 56  " id="BitstreamVeraSans-Roman-6f"/>
     <path d="M 9.421875 54.6875  L 18.40625 54.6875  L 18.40625 -0.984375  Q 18.40625 -11.421875 14.421875 -16.109375  Q 10.453125 -20.796875 1.609375 -20.796875  L -1.8125 -20.796875  L -1.8125 -13.1875  L 0.59375 -13.1875  Q 5.71875 -13.1875 7.5625 -10.8125  Q 9.421875 -8.453125 9.421875 -0.984375  z M 9.421875 75.984375  L 18.40625 75.984375  L 18.40625 64.59375  L 9.421875 64.59375  z " id="BitstreamVeraSans-Roman-6a"/>
    </defs>
    <g transform="translate(65.3158655266 76.7360999016)scale(0.11 -0.11)">
     <use xlink:href="#BitstreamVeraSans-Roman-6a"/>
     <use x="27.783203125" xlink:href="#BitstreamVeraSans-Roman-6f"/>
     <use x="88.96484375" xlink:href="#BitstreamVeraSans-Roman-62"/>
    </g>
   </g>
   <g id="text_2">
    <!-- choice -->
    <defs>
     <path d="M 56.203125 29.59375  L 56.203125 25.203125  L 14.890625 25.203125  Q 15.484375 15.921875 20.484375 11.0625  Q 25.484375 6.203125 34.421875 6.203125  Q 39.59375 6.203125 44.453125 7.46875  Q 49.3125 8.734375 54.109375 11.28125  L 54.109375 2.78125  Q 49.265625 0.734375 44.1875 -0.34375  Q 39.109375 -1.421875 33.890625 -1.421875  Q 20.796875 -1.421875 13.15625 6.1875  Q 5.515625 13.8125 5.515625 26.8125  Q 5.515625 40.234375 12.765625 48.109375  Q 20.015625 56 32.328125 56  Q 43.359375 56 49.78125 48.890625  Q 56.203125 41.796875 56.203125 29.59375  M 47.21875 32.234375  Q 47.125 39.59375 43.09375 43.984375  Q 39.0625 48.390625 32.421875 48.390625  Q 24.90625 48.390625 20.390625 44.140625  Q 15.875 39.890625 15.1875 32.171875  z " id="BitstreamVeraSans-Roman-65"/>
     <path d="M 9.421875 54.6875  L 18.40625 54.6875  L 18.40625 0  L 9.421875 0  z M 9.421875 75.984375  L 18.40625 75.984375  L 18.40625 64.59375  L 9.421875 64.59375  z " id="BitstreamVeraSans-Roman-69"/>
     <path d="M 48.78125 52.59375  L 48.78125 44.1875  Q 44.96875 46.296875 41.140625 47.34375  Q 37.3125 48.390625 33.40625 48.390625  Q 24.65625 48.390625 19.8125 42.84375  Q 14.984375 37.3125 14.984375 27.296875  Q 14.984375 17.28125 19.8125 11.734375  Q 24.65625 6.203125 33.40625 6.203125  Q 37.3125 6.203125 41.140625 7.25  Q 44.96875 8.296875 48.78125 10.40625  L 48.78125 2.09375  Q 45.015625 0.34375 40.984375 -0.53125  Q 36.96875 -1.421875 32.421875 -1.421875  Q 20.0625 -1.421875 12.78125 6.34375  Q 5.515625 14.109375 5.515625 27.296875  Q 5.515625 40.671875 12.859375 48.328125  Q 20.21875 56 33.015625 56  Q 37.15625 56 41.109375 55.140625  Q 45.0625 54.296875 48.78125 52.59375  " id="BitstreamVeraSans-Roman-63"/>
     <path d="M 54.890625 33.015625  L 54.890625 0  L 45.90625 0  L 45.90625 32.71875  Q 45.90625 40.484375 42.875 44.328125  Q 39.84375 48.1875 33.796875 48.1875  Q 26.515625 48.1875 22.3125 43.546875  Q 18.109375 38.921875 18.109375 30.90625  L 18.109375 0  L 9.078125 0  L 9.078125 75.984375  L 18.109375 75.984375  L 18.109375 46.1875  Q 21.34375 51.125 25.703125 53.5625  Q 30.078125 56 35.796875 56  Q 45.21875 56 50.046875 50.171875  Q 54.890625 44.34375 54.890625 33.015625  " id="BitstreamVeraSans-Roman-68"/>
    </defs>
    <g transform="translate(59.1278186516 30.8298941929)scale(0.09 -0.09)">
     <use xlink:href="#BitstreamVeraSans-Roman-63"/>
     <use x="54.98046875" xlink:href="#BitstreamVeraSans-Roman-68"/>
     <use x="118.359375" xlink:href="#BitstreamVeraSans-Roman-6f"/>
     <use x="179.541015625" xlink:href="#BitstreamVeraSans-Roman-69"/>
     <use x="207.32421875" xlink:href="#BitstreamVeraSans-Roman-63"/>
     <use x="262.3046875" xlink:href="#BitstreamVeraSans-Roman-65"/>
    </g>
   </g>
   <g id="text_3">
    <!-- letter 2 -->
    <defs>
     <path d="M 41.109375 46.296875  Q 39.59375 47.171875 37.8125 47.578125  Q 36.03125 48 33.890625 48  Q 26.265625 48 22.1875 43.046875  Q 18.109375 38.09375 18.109375 28.8125  L 18.109375 0  L 9.078125 0  L 9.078125 54.6875  L 18.109375 54.6875  L 18.109375 46.1875  Q 20.953125 51.171875 25.484375 53.578125  Q 30.03125 56 36.53125 56  Q 37.453125 56 38.578125 55.875  Q 39.703125 55.765625 41.0625 55.515625  z " id="BitstreamVeraSans-Roman-72"/>
     <path d="M 18.3125 70.21875  L 18.3125 54.6875  L 36.8125 54.6875  L 36.8125 47.703125  L 18.3125 47.703125  L 18.3125 18.015625  Q 18.3125 11.328125 20.140625 9.421875  Q 21.96875 7.515625 27.59375 7.515625  L 36.8125 7.515625  L 36.8125 0  L 27.59375 0  Q 17.1875 0 13.234375 3.875  Q 9.28125 7.765625 9.28125 18.015625  L 9.28125 47.703125  L 2.6875 47.703125  L 2.6875 54.6875  L 9.28125 54.6875  L 9.28125 70.21875  z " id="BitstreamVeraSans-Roman-74"/>
     <path id="BitstreamVeraSans-Roman-20"/>
     <path d="M 9.421875 75.984375  L 18.40625 75.984375  L 18.40625 0  L 9.421875 0  z " id="BitstreamVeraSans-Roman-6c"/>
     <path d="M 19.1875 8.296875  L 53.609375 8.296875  L 53.609375 0  L 7.328125 0  L 7.328125 8.296875  Q 12.9375 14.109375 22.625 23.890625  Q 32.328125 33.6875 34.8125 36.53125  Q 39.546875 41.84375 41.421875 45.53125  Q 43.3125 49.21875 43.3125 52.78125  Q 43.3125 58.59375 39.234375 62.25  Q 35.15625 65.921875 28.609375 65.921875  Q 23.96875 65.921875 18.8125 64.3125  Q 13.671875 62.703125 7.8125 59.421875  L 7.8125 69.390625  Q 13.765625 71.78125 18.9375 73  Q 24.125 74.21875 28.421875 74.21875  Q 39.75 74.21875 46.484375 68.546875  Q 53.21875 62.890625 53.21875 53.421875  Q 53.21875 48.921875 51.53125 44.890625  Q 49.859375 40.875 45.40625 35.40625  Q 44.1875 33.984375 37.640625 27.21875  Q 31.109375 20.453125 19.1875 8.296875  " id="BitstreamVeraSans-Roman-32"/>
    </defs>
    <g transform="translate(104.42449311 30.5539566929)scale(0.08 -0.08)">
     <use xlink:href="#BitstreamVeraSans-Roman-6c"/>
     <use x="27.783203125" xlink:href="#BitstreamVeraSans-Roman-65"/>
     <use x="89.306640625" xlink:href="#BitstreamVeraSans-Roman-74"/>
     <use x="128.515625" xlink:href="#BitstreamVeraSans-Roman-74"/>
     <use x="167.724609375" xlink:href="#BitstreamVeraSans-Roman-65"/>
     <use x="229.248046875" xlink:href="#BitstreamVeraSans-Roman-72"/>
     <use x="270.361328125" xlink:href="#BitstreamVeraSans-Roman-20"/>
     <use x="302.1484375" xlink:href="#BitstreamVeraSans-Roman-32"/>
    </g>
   </g>
   <g id="text_4">
    <!-- letter 1 -->
    <defs>
     <path d="M 12.40625 8.296875  L 28.515625 8.296875  L 28.515625 63.921875  L 10.984375 60.40625  L 10.984375 69.390625  L 28.421875 72.90625  L 38.28125 72.90625  L 38.28125 8.296875  L 54.390625 8.296875  L 54.390625 0  L 12.40625 0  z " id="BitstreamVeraSans-Roman-31"/>
    </defs>
    <g transform="translate(13.7158316929 30.5539566929)scale(0.08 -0.08)">
     <use xlink:href="#BitstreamVeraSans-Roman-6c"/>
     <use x="27.783203125" xlink:href="#BitstreamVeraSans-Roman-65"/>
     <use x="89.306640625" xlink:href="#BitstreamVeraSans-Roman-74"/>
     <use x="128.515625" xlink:href="#BitstreamVeraSans-Roman-74"/>
     <use x="167.724609375" xlink:href="#BitstreamVeraSans-Roman-65"/>
     <use x="229.248046875" xlink:href="#BitstreamVeraSans-Roman-72"/>
     <use x="270.361328125" xlink:href="#BitstreamVeraSans-Roman-20"/>
     <use x="302.1484375" xlink:href="#BitstreamVeraSans-Roman-31"/>
    </g>
   </g>
  </g>
 </g>
 </svg>
