<svg xmlns="http://www.w3.org/2000/svg" xmlns:xlink="http://www.w3.org/1999/xlink" height="170pt" version="1.1" viewBox="0 0 340 170" width="340pt">
 <defs>
  <clipPath id="pd46091338c">
   <rect height="170.078740157" width="340.157480315" x="0.0" y="0.0"/>
  </clipPath>
 </defs>
<defs>
  <style type="text/css">
*{stroke-linecap:butt;stroke-linejoin:round;stroke-miterlimit:100000;}
  </style>
 </defs>
 <g id="figure_1">
  <g id="patch_1">
   <path d="M 0 170.07874  L 340.15748 170.07874  L 340.15748 0  L 0 0  z " style="fill:#ffffff;"/>
  </g>
  <g id="axes_1">
   <g id="patch_2">
    <path clip-path="url(#pd46091338c)" d="M 88.123436 76.025215  L 89.400441 72.720025  L 90.52721 74.522856  L 149.9868 37.360612  L 149.9868 37.360612  L 90.52721 74.522856  L 91.65398 76.325687  L 88.123436 76.025215  z " style="fill:none;stroke:#000000;stroke-linejoin:miter;"/>
   </g>
   <g id="patch_3">
    <path clip-path="url(#pd46091338c)" d="M 229.939651 75.153744  L 226.397302 75.236124  L 227.633005 73.50614  L 178.249325 38.232083  L 178.249325 38.232083  L 227.633005 73.50614  L 228.868708 71.776155  L 229.939651 75.153744  z " style="fill:none;stroke:#000000;stroke-linejoin:miter;"/>
   </g>
   <g id="patch_4">
    <path clip-path="url(#pd46091338c)" d="M 38.971191 128.451365  L 39.081866 124.909787  L 40.74198 126.237879  L 63.076053 98.320288  L 63.076053 98.320288  L 40.74198 126.237879  L 42.402095 127.565971  L 38.971191 128.451365  z " style="fill:none;stroke:#000000;stroke-linejoin:miter;"/>
   </g>
   <g id="patch_5">
    <path clip-path="url(#pd46091338c)" d="M 108.430383 128.451365  L 104.99948 127.565971  L 106.659594 126.237879  L 84.325522 98.320288  L 84.325522 98.320288  L 106.659594 126.237879  L 108.319709 124.909787  L 108.430383 128.451365  z " style="fill:none;stroke:#000000;stroke-linejoin:miter;"/>
   </g>
   <g id="patch_6">
    <path clip-path="url(#pd46091338c)" d="M 209.049932 128.451365  L 209.160606 124.909787  L 210.820721 126.237879  L 233.154793 98.320288  L 233.154793 98.320288  L 210.820721 126.237879  L 212.480835 127.565971  L 209.049932 128.451365  z " style="fill:none;stroke:#000000;stroke-linejoin:miter;"/>
   </g>
   <g id="patch_7">
    <path clip-path="url(#pd46091338c)" d="M 278.509124 128.451365  L 275.07822 127.565971  L 276.738334 126.237879  L 254.404262 98.320288  L 254.404262 98.320288  L 276.738334 126.237879  L 278.398449 124.909787  L 278.509124 128.451365  z " style="fill:none;stroke:#000000;stroke-linejoin:miter;"/>
   </g>
   <g id="patch_8">
    <path clip-path="url(#pd46091338c)" d="M 198.425197 158.740157  C 202.935738 158.740157 207.262146 156.948101 210.45158 153.758667  C 213.641014 150.569232 215.433071 146.242824 215.433071 141.732283  C 215.433071 137.221743 213.641014 132.895334 210.45158 129.7059  C 207.262146 126.516466 202.935738 124.724409 198.425197 124.724409  C 193.914656 124.724409 189.588248 126.516466 186.398814 129.7059  C 183.20938 132.895334 181.417323 137.221743 181.417323 141.732283  C 181.417323 146.242824 183.20938 150.569232 186.398814 153.758667  C 189.588248 156.948101 193.914656 158.740157 198.425197 158.740157  L 198.425197 158.740157  z " style="fill:none;"/>
   </g>
   <g id="patch_9">
    <path clip-path="url(#pd46091338c)" d="M 73.700787 102.047244  C 78.211328 102.047244 82.537736 100.255187 85.72717 97.065753  C 88.916605 93.876319 90.708661 89.549911 90.708661 85.03937  C 90.708661 80.528829 88.916605 76.202421 85.72717 73.012987  C 82.537736 69.823553 78.211328 68.031496 73.700787 68.031496  C 69.190246 68.031496 64.863838 69.823553 61.674404 73.012987  C 58.48497 76.202421 56.692913 80.528829 56.692913 85.03937  C 56.692913 89.549911 58.48497 93.876319 61.674404 97.065753  C 64.863838 100.255187 69.190246 102.047244 73.700787 102.047244  L 73.700787 102.047244  z " style="fill:none;stroke:#000000;stroke-linejoin:miter;"/>
   </g>
   <g id="patch_10">
    <path clip-path="url(#pd46091338c)" d="M 243.779528 102.047244  C 248.290068 102.047244 252.616477 100.255187 255.805911 97.065753  C 258.995345 93.876319 260.787402 89.549911 260.787402 85.03937  C 260.787402 80.528829 258.995345 76.202421 255.805911 73.012987  C 252.616477 69.823553 248.290068 68.031496 243.779528 68.031496  C 239.268987 68.031496 234.942579 69.823553 231.753145 73.012987  C 228.56371 76.202421 226.771654 80.528829 226.771654 85.03937  C 226.771654 89.549911 228.56371 93.876319 231.753145 97.065753  C 234.942579 100.255187 239.268987 102.047244 243.779528 102.047244  L 243.779528 102.047244  z " style="fill:none;stroke:#000000;stroke-linejoin:miter;"/>
   </g>
   <g id="patch_11">
    <path clip-path="url(#pd46091338c)" d="M 164.409449 45.354331  C 168.91999 45.354331 173.246398 43.562274 176.435832 40.37284  C 179.625266 37.183406 181.417323 32.856998 181.417323 28.346457  C 181.417323 23.835916 179.625266 19.509508 176.435832 16.320074  C 173.246398 13.13064 168.91999 11.338583 164.409449 11.338583  C 159.898908 11.338583 155.5725 13.13064 152.383066 16.320074  C 149.193632 19.509508 147.401575 23.835916 147.401575 28.346457  C 147.401575 32.856998 149.193632 37.183406 152.383066 40.37284  C 155.5725 43.562274 159.898908 45.354331 164.409449 45.354331  L 164.409449 45.354331  z " style="fill:none;stroke:#000000;stroke-linejoin:miter;"/>
   </g>
   <g id="patch_12">
    <path clip-path="url(#pd46091338c)" d="M 28.346457 158.740157  C 32.856998 158.740157 37.183406 156.948101 40.37284 153.758667  C 43.562274 150.569232 45.354331 146.242824 45.354331 141.732283  C 45.354331 137.221743 43.562274 132.895334 40.37284 129.7059  C 37.183406 126.516466 32.856998 124.724409 28.346457 124.724409  C 23.835916 124.724409 19.509508 126.516466 16.320074 129.7059  C 13.13064 132.895334 11.338583 137.221743 11.338583 141.732283  C 11.338583 146.242824 13.13064 150.569232 16.320074 153.758667  C 19.509508 156.948101 23.835916 158.740157 28.346457 158.740157  L 28.346457 158.740157  z " style="fill:none;"/>
   </g>
   <g id="patch_13">
    <path clip-path="url(#pd46091338c)" d="M 119.055118 158.740157  C 123.565659 158.740157 127.892067 156.948101 131.081501 153.758667  C 134.270935 150.569232 136.062992 146.242824 136.062992 141.732283  C 136.062992 137.221743 134.270935 132.895334 131.081501 129.7059  C 127.892067 126.516466 123.565659 124.724409 119.055118 124.724409  C 114.544577 124.724409 110.218169 126.516466 107.028735 129.7059  C 103.839301 132.895334 102.047244 137.221743 102.047244 141.732283  C 102.047244 146.242824 103.839301 150.569232 107.028735 153.758667  C 110.218169 156.948101 114.544577 158.740157 119.055118 158.740157  L 119.055118 158.740157  z " style="fill:none;"/>
   </g>
   <g id="patch_14">
    <path clip-path="url(#pd46091338c)" d="M 289.133858 158.740157  C 293.644399 158.740157 297.970807 156.948101 301.160241 153.758667  C 304.349675 150.569232 306.141732 146.242824 306.141732 141.732283  C 306.141732 137.221743 304.349675 132.895334 301.160241 129.7059  C 297.970807 126.516466 293.644399 124.724409 289.133858 124.724409  C 284.623317 124.724409 280.296909 126.516466 277.107475 129.7059  C 273.918041 132.895334 272.125984 137.221743 272.125984 141.732283  C 272.125984 146.242824 273.918041 150.569232 277.107475 153.758667  C 280.296909 156.948101 284.623317 158.740157 289.133858 158.740157  L 289.133858 158.740157  z " style="fill:none;"/>
   </g>
   <g id="matplotlib.axis_1"/>
   <g id="matplotlib.axis_2"/>
   <g id="text_1">
    <!-- $c_1$ -->
    <defs>
     <path d="M 50.296875 37.09375  L 44.59375 31.703125  L 43 31.703125  Q 41.59375 39.203125 33.5 39.203125  Q 27.09375 39.203125 21.046875 33.09375  Q 15 27 15 16.90625  Q 15 11.796875 17.84375 8.9375  Q 20.703125 6.09375 25.296875 6.09375  Q 33.40625 6.09375 40.796875 16.59375  L 46.40625 13.203125  Q 36.796875 -1 22.90625 -1  Q 15.5 -1 11.09375 3.203125  Q 6.703125 7.40625 6.703125 15  Q 6.703125 28 15.890625 37.140625  Q 25.09375 46.296875 35.703125 46.296875  Q 41.203125 46.296875 45.140625 44  Q 49.09375 41.703125 50.296875 37.09375  " id="STIXGeneral-Italic-1d624"/>
     <path d="M 30.203125 0  L 22.296875 0  L 22.296875 57  Q 20.09375 56 15.75 53.75  Q 11.40625 51.5 10.796875 51.203125  L 10.796875 58.5  L 28.796875 67.703125  L 30.203125 67.203125  z " id="STIXGeneral-Regular-1d7e3"/>
    </defs>
    <g transform="translate(111.58511811 58.6597883858)scale(0.18 -0.18)">
     <use transform="translate(0.0 0.703125)" xlink:href="#STIXGeneral-Italic-1d624"/>
     <use transform="translate(45.59999084472656 -12.885937499999997)scale(0.7)" xlink:href="#STIXGeneral-Regular-1d7e3"/>
    </g>
   </g>
   <g id="text_2">
    <!-- $c_2$ -->
    <defs>
     <path d="M 46.90625 7.09375  L 44 0  L 3.5 0  L 3.5 2.09375  L 21 23.5  L 21 23.40625  L 26.59375 30.203125  Q 30.5 34.90625 32.09375 36.953125  Q 33.703125 39 35.203125 41.953125  Q 36.703125 44.90625 36.703125 47.5  Q 36.703125 53.703125 33.34375 57.09375  Q 30 60.5 24.203125 60.5  Q 19.59375 60.5 15.75 56.703125  Q 11.90625 52.90625 10.90625 45.90625  L 3.703125 47.59375  Q 5.296875 56.5 11.1875 62.046875  Q 17.09375 67.59375 24.90625 67.59375  Q 33.59375 67.59375 39.09375 62.1875  Q 44.59375 56.796875 44.59375 49.09375  Q 44.59375 43.5 42.5 39.453125  Q 40.40625 35.40625 33.703125 27  L 17.703125 7.09375  z " id="STIXGeneral-Regular-1d7e4"/>
    </defs>
    <g transform="translate(196.624488189 58.6597883858)scale(0.18 -0.18)">
     <use transform="translate(0.0 0.703125)" xlink:href="#STIXGeneral-Italic-1d624"/>
     <use transform="translate(45.59999084472656 -12.885937499999997)scale(0.7)" xlink:href="#STIXGeneral-Regular-1d7e4"/>
    </g>
   </g>
   <g id="text_3">
    <!-- $-l$ -->
    <defs>
     <path d="M 62.09375 22  L 6.40625 22  L 6.40625 28.59375  L 62.09375 28.59375  z " id="STIXGeneral-Regular-2212"/>
     <path d="M 31.296875 67.90625  L 14.40625 0  L 6.09375 0  L 22.5 66  L 30.5 68.40625  z " id="STIXGeneral-Italic-1d62d"/>
    </defs>
    <g transform="translate(43.0136220472 115.352701772)scale(0.18 -0.18)">
     <use transform="translate(0.0 0.59375)" xlink:href="#STIXGeneral-Regular-2212"/>
     <use transform="translate(68.49998474121094 0.59375)" xlink:href="#STIXGeneral-Italic-1d62d"/>
    </g>
   </g>
   <g id="text_4">
    <!-- $+l$ -->
    <defs>
     <path d="M 63.59375 22  L 37.5 22  L 37.5 -4.09375  L 30.90625 -4.09375  L 30.90625 22  L 4.796875 22  L 4.796875 28.59375  L 30.90625 28.59375  L 30.90625 54.703125  L 37.5 54.703125  L 37.5 28.59375  L 63.59375 28.59375  z " id="STIXGeneral-Regular-2b"/>
    </defs>
    <g transform="translate(88.3679527559 115.352701772)scale(0.18 -0.18)">
     <use transform="translate(0.0 0.59375)" xlink:href="#STIXGeneral-Regular-2b"/>
     <use transform="translate(68.49998474121094 0.59375)" xlink:href="#STIXGeneral-Italic-1d62d"/>
    </g>
   </g>
   <g id="text_5">
    <!-- $-l$ -->
    <g transform="translate(213.092362205 115.352701772)scale(0.18 -0.18)">
     <use transform="translate(0.0 0.59375)" xlink:href="#STIXGeneral-Regular-2212"/>
     <use transform="translate(68.49998474121094 0.59375)" xlink:href="#STIXGeneral-Italic-1d62d"/>
    </g>
   </g>
   <g id="text_6">
    <!-- $+l$ -->
    <g transform="translate(258.446692913 115.352701772)scale(0.18 -0.18)">
     <use transform="translate(0.0 0.59375)" xlink:href="#STIXGeneral-Regular-2b"/>
     <use transform="translate(68.49998474121094 0.59375)" xlink:href="#STIXGeneral-Italic-1d62d"/>
    </g>
   </g>
   <g id="text_7">
    <!-- $(0.8,0.2)$ -->
    <defs>
     <path d="M 47.703125 33  Q 47.703125 23.796875 45.546875 16.34375  Q 43.40625 8.90625 38.09375 3.75  Q 32.796875 -1.40625 25 -1.40625  Q 18.796875 -1.40625 14.25 1.6875  Q 9.703125 4.796875 7.203125 10.046875  Q 4.703125 15.296875 3.5 21.140625  Q 2.296875 27 2.296875 33.59375  Q 2.296875 42.90625 4.59375 50.34375  Q 6.90625 57.796875 12.296875 62.6875  Q 17.703125 67.59375 25.40625 67.59375  Q 35.203125 67.59375 41.453125 57.9375  Q 47.703125 48.296875 47.703125 33  M 39.796875 33  Q 39.796875 45.203125 35.75 52.84375  Q 31.703125 60.5 25.203125 60.5  Q 17.796875 60.5 14 52.75  Q 10.203125 45 10.203125 33.40625  Q 10.203125 28.203125 10.953125 23.546875  Q 11.703125 18.90625 13.34375 14.75  Q 15 10.59375 18 8.140625  Q 21 5.703125 25 5.703125  Q 30.09375 5.703125 33.546875 9.796875  Q 37 13.90625 38.390625 19.84375  Q 39.796875 25.796875 39.796875 33  " id="STIXGeneral-Regular-1d7e2"/>
     <path d="M 8.296875 -14.09375  L 7.296875 -12.203125  Q 15.59375 -6.59375 15.59375 -1.5  Q 15.59375 -0.203125 14.203125 -0.203125  Q 13.796875 -0.203125 12.84375 -0.390625  Q 11.90625 -0.59375 11.296875 -0.59375  Q 5.5 -0.59375 5.5 4.5  Q 5.5 7.09375 7.140625 8.640625  Q 8.796875 10.203125 11.5 10.203125  Q 14.90625 10.203125 17.203125 7.75  Q 19.5 5.296875 19.5 1.5  Q 19.5 -3.09375 16.453125 -7.390625  Q 13.40625 -11.703125 8.296875 -14.09375  " id="STIXGeneral-Regular-2c"/>
     <path d="M 44.703125 16.09375  Q 44.703125 8.796875 39.390625 3.6875  Q 34.09375 -1.40625 24.796875 -1.40625  Q 16.296875 -1.40625 10.59375 3.4375  Q 4.90625 8.296875 4.90625 15.40625  Q 4.90625 20.796875 7.75 25.25  Q 10.59375 29.703125 17.703125 34.5  Q 6 41.40625 6 51.40625  Q 6 58.59375 11.546875 63.09375  Q 17.09375 67.59375 25.59375 67.59375  Q 32.90625 67.59375 37.796875 62.84375  Q 42.703125 58.09375 42.703125 52  Q 42.703125 46.40625 40.09375 42.703125  Q 37.5 39 31.09375 35.296875  Q 44.703125 27 44.703125 16.09375  M 35.5 51.5  Q 35.5 55.5 32.390625 58  Q 29.296875 60.5 24.40625 60.5  Q 19.796875 60.5 16.84375 57.84375  Q 13.90625 55.203125 13.90625 51.796875  Q 13.90625 47.5 16.34375 44.84375  Q 18.796875 42.203125 24.90625 39.40625  Q 35.5 45.203125 35.5 51.5  M 27.59375 28.59375  L 24.09375 30.5  Q 18.90625 28.703125 15.84375 24.640625  Q 12.796875 20.59375 12.796875 16.296875  Q 12.796875 11.796875 16 8.75  Q 19.203125 5.703125 25.203125 5.703125  Q 29.796875 5.703125 33.296875 8.453125  Q 36.796875 11.203125 36.796875 15.796875  Q 36.796875 20 34.6875 22.953125  Q 32.59375 25.90625 27.59375 28.59375  " id="STIXGeneral-Regular-1d7ea"/>
     <path d="M 18.09375 4.296875  Q 18.09375 2.09375 16.4375 0.5  Q 14.796875 -1.09375 12.5 -1.09375  Q 10.203125 -1.09375 8.59375 0.5  Q 7 2.09375 7 4.390625  Q 7 6.703125 8.640625 8.34375  Q 10.296875 10 12.59375 10  Q 14.796875 10 16.4375 8.296875  Q 18.09375 6.59375 18.09375 4.296875  " id="STIXGeneral-Regular-2e"/>
     <path d="M 30.40625 -16.09375  L 29.203125 -17.703125  Q 17.59375 -11.09375 11.1875 0.5  Q 4.796875 12.09375 4.796875 25.203125  Q 4.796875 52.90625 29.5 67.59375  L 30.40625 66  Q 20.203125 57.296875 16.796875 48.84375  Q 13.40625 40.40625 13.40625 25.5  Q 13.40625 10.703125 16.90625 1.5  Q 20.40625 -7.703125 30.40625 -16.09375  " id="STIXGeneral-Regular-28"/>
     <path d="M 2.90625 66  L 4.09375 67.59375  Q 15.5 60.796875 22 49.1875  Q 28.5 37.59375 28.5 24.703125  Q 28.5 -2.59375 3.796875 -17.703125  L 2.90625 -16.09375  Q 13.203125 -7.59375 16.546875 0.84375  Q 19.90625 9.296875 19.90625 24.40625  Q 19.90625 39.59375 16.546875 48.75  Q 13.203125 57.90625 2.90625 66  " id="STIXGeneral-Regular-29"/>
    </defs>
    <g transform="translate(163.59519685 146.699158465)scale(0.18 -0.18)">
     <use transform="translate(0.0 0.40625)" xlink:href="#STIXGeneral-Regular-28"/>
     <use transform="translate(33.29998779296875 0.40625)" xlink:href="#STIXGeneral-Regular-1d7e2"/>
     <use transform="translate(83.29997253417969 0.40625)" xlink:href="#STIXGeneral-Regular-2e"/>
     <use transform="translate(123.41995544433594 0.40625)" xlink:href="#STIXGeneral-Regular-1d7ea"/>
     <use transform="translate(173.41994018554686 0.40625)" xlink:href="#STIXGeneral-Regular-2c"/>
     <use transform="translate(213.5399230957031 0.40625)" xlink:href="#STIXGeneral-Regular-1d7e2"/>
     <use transform="translate(263.53990783691404 0.40625)" xlink:href="#STIXGeneral-Regular-2e"/>
     <use transform="translate(303.6598907470703 0.40625)" xlink:href="#STIXGeneral-Regular-1d7e4"/>
     <use transform="translate(353.6598754882812 0.40625)" xlink:href="#STIXGeneral-Regular-29"/>
    </g>
   </g>
   <g id="text_8">
    <!-- $L_1$ -->
    <defs>
     <path d="M 56.40625 7.40625  L 52.796875 0  L 7.40625 0  L 23.90625 66.203125  L 32.59375 66.203125  L 17.90625 7.40625  z " id="STIXGeneral-Italic-1d613"/>
    </defs>
    <g transform="translate(65.2407874016 90.0062450787)scale(0.18 -0.18)">
     <use transform="translate(0.0 0.796875)" xlink:href="#STIXGeneral-Italic-1d613"/>
     <use transform="translate(55.899993896484375 -12.792187499999997)scale(0.7)" xlink:href="#STIXGeneral-Regular-1d7e3"/>
    </g>
   </g>
   <g id="text_9">
    <!-- $L_2$ -->
    <g transform="translate(235.319527559 90.0062450787)scale(0.18 -0.18)">
     <use transform="translate(0.0 0.796875)" xlink:href="#STIXGeneral-Italic-1d613"/>
     <use transform="translate(55.899993896484375 -12.792187499999997)scale(0.7)" xlink:href="#STIXGeneral-Regular-1d7e4"/>
    </g>
   </g>
   <g id="text_10">
    <!-- $C$ -->
    <defs>
     <path d="M 75.5 55.40625  L 72.90625 45.296875  L 71 45.296875  Q 70.203125 50.796875 66.890625 54.25  Q 63.59375 57.703125 59.75 58.84375  Q 55.90625 60 51.296875 60  Q 38 60 28.34375 49.390625  Q 18.703125 38.796875 18.703125 24.703125  Q 18.703125 16 23.75 11.09375  Q 28.796875 6.203125 38.203125 6.203125  Q 50.5 6.203125 62.796875 17  L 66.59375 11.90625  Q 53 -1.40625 36 -1.40625  Q 23.203125 -1.40625 16.390625 5.140625  Q 9.59375 11.703125 9.59375 22.796875  Q 9.59375 34.703125 15.546875 45.046875  Q 21.5 55.40625 31.546875 61.5  Q 41.59375 67.59375 53.09375 67.59375  Q 60.59375 67.59375 66.75 64.640625  Q 72.90625 61.703125 75.5 55.40625  " id="STIXGeneral-Italic-1d60a"/>
    </defs>
    <g transform="translate(158.289448819 33.3133316929)scale(0.18 -0.18)">
     <use transform="translate(0.0 0.40625)" xlink:href="#STIXGeneral-Italic-1d60a"/>
    </g>
   </g>
   <g id="text_11">
    <!-- $(0.9,0.1)$ -->
    <defs>
     <path d="M 5.5 -0.203125  L 6.796875 4.703125  Q 18.203125 5.5 26.140625 11.25  Q 34.09375 17 37.59375 27.5  Q 31.796875 23.09375 23.90625 23.09375  Q 15.296875 23.09375 9.046875 28.890625  Q 2.796875 34.703125 2.796875 44.203125  Q 2.796875 53.90625 8.84375 60.75  Q 14.90625 67.59375 24.203125 67.59375  Q 30.09375 67.59375 34.5 65.34375  Q 38.90625 63.09375 41.5 59.09375  Q 44.09375 55.09375 45.34375 50.25  Q 46.59375 45.40625 46.59375 39.796875  Q 46.59375 31.40625 43.546875 23.203125  Q 40.5 15 35.5 10.09375  Q 28.796875 3.59375 22.84375 1.296875  Q 16.90625 -1 5.703125 -2.09375  z M 38.59375 42.203125  Q 38.5 50.296875 34.546875 55.390625  Q 30.59375 60.5 23.90625 60.5  Q 18.40625 60.5 14.59375 56.296875  Q 10.796875 52.09375 10.796875 45.59375  Q 10.796875 38.40625 14.890625 34.34375  Q 19 30.296875 24.703125 30.296875  Q 29.90625 30.296875 33.796875 33.34375  Q 37.703125 36.40625 38.59375 42.203125  " id="STIXGeneral-Regular-1d7eb"/>
    </defs>
    <g transform="translate(-6.48354330709 146.699158465)scale(0.18 -0.18)">
     <use transform="translate(0.0 0.296875)" xlink:href="#STIXGeneral-Regular-28"/>
     <use transform="translate(33.29998779296875 0.296875)" xlink:href="#STIXGeneral-Regular-1d7e2"/>
     <use transform="translate(83.29997253417969 0.296875)" xlink:href="#STIXGeneral-Regular-2e"/>
     <use transform="translate(123.41995544433594 0.296875)" xlink:href="#STIXGeneral-Regular-1d7eb"/>
     <use transform="translate(173.41994018554686 0.296875)" xlink:href="#STIXGeneral-Regular-2c"/>
     <use transform="translate(213.5399230957031 0.296875)" xlink:href="#STIXGeneral-Regular-1d7e2"/>
     <use transform="translate(263.53990783691404 0.296875)" xlink:href="#STIXGeneral-Regular-2e"/>
     <use transform="translate(303.6598907470703 0.296875)" xlink:href="#STIXGeneral-Regular-1d7e3"/>
     <use transform="translate(353.6598754882812 0.296875)" xlink:href="#STIXGeneral-Regular-29"/>
    </g>
   </g>
   <g id="text_12">
    <!-- $(0.3,0.7)$ -->
    <defs>
     <path d="M 45.09375 64.203125  L 23 -0.796875  L 14.796875 -0.796875  L 35.40625 59.09375  L 3.796875 59.09375  L 6.90625 66.203125  L 45.09375 66.203125  z " id="STIXGeneral-Regular-1d7e9"/>
     <path d="M 11.296875 49.203125  L 4.203125 50.90625  Q 6.40625 58.703125 11.5 63.140625  Q 16.59375 67.59375 24.296875 67.59375  Q 31.40625 67.59375 36.203125 63.09375  Q 41 58.59375 41 51.90625  Q 41 43 32.40625 37  Q 38 35 41.046875 30.34375  Q 44.09375 25.703125 44.09375 21  Q 44.09375 11.296875 37.796875 5  Q 31.40625 -1.40625 20.5 -1.40625  Q 9.5 -1.40625 3.09375 5.59375  L 7.796875 11.203125  Q 12.90625 5.703125 20 5.703125  Q 27.40625 5.703125 31.59375 9.296875  Q 36.203125 13.203125 36.203125 19.09375  Q 36.203125 24.296875 32.453125 27.796875  Q 28.703125 31.296875 22.203125 32.203125  L 15.796875 32.203125  L 15.796875 34.296875  L 20.59375 39.40625  Q 25.09375 39.40625 29.09375 42.84375  Q 33.09375 46.296875 33.09375 51.203125  Q 33.09375 55.40625 30.4375 57.953125  Q 27.796875 60.5 24 60.5  Q 20 60.5 16.546875 57.640625  Q 13.09375 54.796875 11.296875 49.203125  " id="STIXGeneral-Regular-1d7e5"/>
    </defs>
    <g transform="translate(84.2251181102 146.699158465)scale(0.18 -0.18)">
     <use transform="translate(0.0 0.40625)" xlink:href="#STIXGeneral-Regular-28"/>
     <use transform="translate(33.29998779296875 0.40625)" xlink:href="#STIXGeneral-Regular-1d7e2"/>
     <use transform="translate(83.29997253417969 0.40625)" xlink:href="#STIXGeneral-Regular-2e"/>
     <use transform="translate(123.41995544433594 0.40625)" xlink:href="#STIXGeneral-Regular-1d7e5"/>
     <use transform="translate(173.41994018554686 0.40625)" xlink:href="#STIXGeneral-Regular-2c"/>
     <use transform="translate(213.5399230957031 0.40625)" xlink:href="#STIXGeneral-Regular-1d7e2"/>
     <use transform="translate(263.53990783691404 0.40625)" xlink:href="#STIXGeneral-Regular-2e"/>
     <use transform="translate(303.6598907470703 0.40625)" xlink:href="#STIXGeneral-Regular-1d7e9"/>
     <use transform="translate(353.6598754882812 0.40625)" xlink:href="#STIXGeneral-Regular-29"/>
    </g>
   </g>
   <g id="text_13">
    <!-- $(0.1,0.9)$ -->
    <g transform="translate(254.303858268 146.699158465)scale(0.18 -0.18)">
     <use transform="translate(0.0 0.296875)" xlink:href="#STIXGeneral-Regular-28"/>
     <use transform="translate(33.29998779296875 0.296875)" xlink:href="#STIXGeneral-Regular-1d7e2"/>
     <use transform="translate(83.29997253417969 0.296875)" xlink:href="#STIXGeneral-Regular-2e"/>
     <use transform="translate(123.41995544433594 0.296875)" xlink:href="#STIXGeneral-Regular-1d7e3"/>
     <use transform="translate(173.41994018554686 0.296875)" xlink:href="#STIXGeneral-Regular-2c"/>
     <use transform="translate(213.5399230957031 0.296875)" xlink:href="#STIXGeneral-Regular-1d7e2"/>
     <use transform="translate(263.53990783691404 0.296875)" xlink:href="#STIXGeneral-Regular-2e"/>
     <use transform="translate(303.6598907470703 0.296875)" xlink:href="#STIXGeneral-Regular-1d7eb"/>
     <use transform="translate(353.6598754882812 0.296875)" xlink:href="#STIXGeneral-Regular-29"/>
    </g>
   </g>
  </g>
 </g>
 </svg>
