<svg xmlns="http://www.w3.org/2000/svg" xmlns:xlink="http://www.w3.org/1999/xlink" height="226pt" version="1.1" viewBox="0 0 226 226" width="226pt">
 <defs>
  <clipPath id="p73b516368c">
   <rect height="226.771653543" width="226.771653543" x="0.0" y="0.0"/>
  </clipPath>
 </defs>
<defs>
  <style type="text/css">
*{stroke-linecap:butt;stroke-linejoin:round;stroke-miterlimit:100000;}
  </style>
 </defs>
 <g id="figure_1">
  <g id="patch_1">
   <path d="M 0 226.771654  L 226.771654 226.771654  L 226.771654 0  L 0 0  z " style="fill:#ffffff;"/>
  </g>
  <g id="axes_1">
   <g id="patch_2">
    <path clip-path="url(#p73b516368c)" d="M 108.430383 71.758452  L 104.99948 70.873057  L 106.659594 69.544965  L 84.325522 41.627375  L 84.325522 41.627375  L 106.659594 69.544965  L 108.319709 68.216874  L 108.430383 71.758452  z " style="fill:none;stroke:#000000;stroke-linejoin:miter;"/>
   </g>
   <g id="patch_3">
    <path clip-path="url(#p73b516368c)" d="M 84.325522 128.451365  L 84.436196 124.909787  L 86.096311 126.237879  L 108.430383 98.320288  L 108.430383 98.320288  L 86.096311 126.237879  L 87.756426 127.565971  L 84.325522 128.451365  z " style="fill:none;stroke:#000000;stroke-linejoin:miter;"/>
   </g>
   <g id="patch_4">
    <path clip-path="url(#p73b516368c)" d="M 38.971191 71.758452  L 39.081866 68.216874  L 40.74198 69.544965  L 63.076053 41.627375  L 63.076053 41.627375  L 40.74198 69.544965  L 42.402095 70.873057  L 38.971191 71.758452  z " style="fill:none;stroke:#000000;stroke-linejoin:miter;"/>
   </g>
   <g id="patch_5">
    <path clip-path="url(#p73b516368c)" d="M 153.784714 128.451365  L 150.35381 127.565971  L 152.013925 126.237879  L 129.679853 98.320288  L 129.679853 98.320288  L 152.013925 126.237879  L 153.67404 124.909787  L 153.784714 128.451365  z " style="fill:none;stroke:#000000;stroke-linejoin:miter;"/>
   </g>
   <g id="patch_6">
    <path clip-path="url(#p73b516368c)" d="M 38.971191 185.144279  L 39.081866 181.6027  L 40.74198 182.930792  L 63.076053 155.013202  L 63.076053 155.013202  L 40.74198 182.930792  L 42.402095 184.258884  L 38.971191 185.144279  z " style="fill:none;stroke:#000000;stroke-linejoin:miter;"/>
   </g>
   <g id="patch_7">
    <path clip-path="url(#p73b516368c)" d="M 108.430383 185.144279  L 104.99948 184.258884  L 106.659594 182.930792  L 84.325522 155.013202  L 84.325522 155.013202  L 106.659594 182.930792  L 108.319709 181.6027  L 108.430383 185.144279  z " style="fill:none;stroke:#000000;stroke-linejoin:miter;"/>
   </g>
   <g id="patch_8">
    <path clip-path="url(#p73b516368c)" d="M 73.700787 45.354331  C 78.211328 45.354331 82.537736 43.562274 85.72717 40.37284  C 88.916605 37.183406 90.708661 32.856998 90.708661 28.346457  C 90.708661 23.835916 88.916605 19.509508 85.72717 16.320074  C 82.537736 13.13064 78.211328 11.338583 73.700787 11.338583  C 69.190246 11.338583 64.863838 13.13064 61.674404 16.320074  C 58.48497 19.509508 56.692913 23.835916 56.692913 28.346457  C 56.692913 32.856998 58.48497 37.183406 61.674404 40.37284  C 64.863838 43.562274 69.190246 45.354331 73.700787 45.354331  L 73.700787 45.354331  z " style="fill:none;stroke:#000000;stroke-linejoin:miter;"/>
   </g>
   <g id="patch_9">
    <path clip-path="url(#p73b516368c)" d="M 73.700787 158.740157  C 78.211328 158.740157 82.537736 156.948101 85.72717 153.758667  C 88.916605 150.569232 90.708661 146.242824 90.708661 141.732283  C 90.708661 137.221743 88.916605 132.895334 85.72717 129.7059  C 82.537736 126.516466 78.211328 124.724409 73.700787 124.724409  C 69.190246 124.724409 64.863838 126.516466 61.674404 129.7059  C 58.48497 132.895334 56.692913 137.221743 56.692913 141.732283  C 56.692913 146.242824 58.48497 150.569232 61.674404 153.758667  C 64.863838 156.948101 69.190246 158.740157 73.700787 158.740157  L 73.700787 158.740157  z " style="fill:none;stroke:#000000;stroke-linejoin:miter;"/>
   </g>
   <g id="patch_10">
    <path clip-path="url(#p73b516368c)" d="M 28.346457 102.047244  C 32.856998 102.047244 37.183406 100.255187 40.37284 97.065753  C 43.562274 93.876319 45.354331 89.549911 45.354331 85.03937  C 45.354331 80.528829 43.562274 76.202421 40.37284 73.012987  C 37.183406 69.823553 32.856998 68.031496 28.346457 68.031496  C 23.835916 68.031496 19.509508 69.823553 16.320074 73.012987  C 13.13064 76.202421 11.338583 80.528829 11.338583 85.03937  C 11.338583 89.549911 13.13064 93.876319 16.320074 97.065753  C 19.509508 100.255187 23.835916 102.047244 28.346457 102.047244  L 28.346457 102.047244  z " style="fill:none;"/>
   </g>
   <g id="patch_11">
    <path clip-path="url(#p73b516368c)" d="M 119.055118 102.047244  C 123.565659 102.047244 127.892067 100.255187 131.081501 97.065753  C 134.270935 93.876319 136.062992 89.549911 136.062992 85.03937  C 136.062992 80.528829 134.270935 76.202421 131.081501 73.012987  C 127.892067 69.823553 123.565659 68.031496 119.055118 68.031496  C 114.544577 68.031496 110.218169 69.823553 107.028735 73.012987  C 103.839301 76.202421 102.047244 80.528829 102.047244 85.03937  C 102.047244 89.549911 103.839301 93.876319 107.028735 97.065753  C 110.218169 100.255187 114.544577 102.047244 119.055118 102.047244  L 119.055118 102.047244  z " style="fill:none;stroke:#000000;stroke-linejoin:miter;"/>
   </g>
   <g id="patch_12">
    <path clip-path="url(#p73b516368c)" d="M 28.346457 215.433071  C 32.856998 215.433071 37.183406 213.641014 40.37284 210.45158  C 43.562274 207.262146 45.354331 202.935738 45.354331 198.425197  C 45.354331 193.914656 43.562274 189.588248 40.37284 186.398814  C 37.183406 183.20938 32.856998 181.417323 28.346457 181.417323  C 23.835916 181.417323 19.509508 183.20938 16.320074 186.398814  C 13.13064 189.588248 11.338583 193.914656 11.338583 198.425197  C 11.338583 202.935738 13.13064 207.262146 16.320074 210.45158  C 19.509508 213.641014 23.835916 215.433071 28.346457 215.433071  L 28.346457 215.433071  z " style="fill:none;"/>
   </g>
   <g id="patch_13">
    <path clip-path="url(#p73b516368c)" d="M 164.409449 158.740157  C 168.91999 158.740157 173.246398 156.948101 176.435832 153.758667  C 179.625266 150.569232 181.417323 146.242824 181.417323 141.732283  C 181.417323 137.221743 179.625266 132.895334 176.435832 129.7059  C 173.246398 126.516466 168.91999 124.724409 164.409449 124.724409  C 159.898908 124.724409 155.5725 126.516466 152.383066 129.7059  C 149.193632 132.895334 147.401575 137.221743 147.401575 141.732283  C 147.401575 146.242824 149.193632 150.569232 152.383066 153.758667  C 155.5725 156.948101 159.898908 158.740157 164.409449 158.740157  L 164.409449 158.740157  z " style="fill:none;"/>
   </g>
   <g id="patch_14">
    <path clip-path="url(#p73b516368c)" d="M 119.055118 215.433071  C 123.565659 215.433071 127.892067 213.641014 131.081501 210.45158  C 134.270935 207.262146 136.062992 202.935738 136.062992 198.425197  C 136.062992 193.914656 134.270935 189.588248 131.081501 186.398814  C 127.892067 183.20938 123.565659 181.417323 119.055118 181.417323  C 114.544577 181.417323 110.218169 183.20938 107.028735 186.398814  C 103.839301 189.588248 102.047244 193.914656 102.047244 198.425197  C 102.047244 202.935738 103.839301 207.262146 107.028735 210.45158  C 110.218169 213.641014 114.544577 215.433071 119.055118 215.433071  L 119.055118 215.433071  z " style="fill:none;"/>
   </g>
   <g id="matplotlib.axis_1"/>
   <g id="matplotlib.axis_2"/>
   <g id="text_1">
    <!-- $+a$ -->
    <defs>
     <path d="M 63.59375 22  L 37.5 22  L 37.5 -4.09375  L 30.90625 -4.09375  L 30.90625 22  L 4.796875 22  L 4.796875 28.59375  L 30.90625 28.59375  L 30.90625 54.703125  L 37.5 54.703125  L 37.5 28.59375  L 63.59375 28.59375  z " id="STIXGeneral-Regular-2b"/>
     <path d="M 16.90625 30.203125  L 12.796875 33.296875  Q 15.796875 40.09375 21.34375 43.1875  Q 26.90625 46.296875 33.40625 46.296875  Q 39.703125 46.296875 43.203125 43.640625  Q 46.703125 41 46.703125 36.203125  Q 46.703125 34.796875 46.203125 32.59375  L 39.90625 7.59375  Q 39.09375 4.703125 39.09375 0  L 30.59375 0  L 31.09375 4.40625  Q 23.90625 -1 14.90625 -1  Q 10.5 -1 8 0.953125  Q 5.5 2.90625 5.5 6.59375  Q 5.5 23.40625 37.5 29.40625  L 38.296875 32.703125  Q 38.5 33.703125 38.5 34.203125  Q 38.5 36.5 36.546875 37.84375  Q 34.59375 39.203125 31.40625 39.203125  Q 23.796875 39.203125 18.40625 30.203125  z M 33.40625 13.203125  L 35.703125 22.203125  Q 13.90625 18.703125 13.90625 9.59375  Q 13.90625 6.09375 18.703125 6.09375  Q 25.5 6.09375 33.40625 13.203125  " id="STIXGeneral-Italic-1d622"/>
    </defs>
    <g transform="translate(86.1179527559 58.6597883858)scale(0.18 -0.18)">
     <use transform="translate(0.0 0.296875)" xlink:href="#STIXGeneral-Regular-2b"/>
     <use transform="translate(68.49998474121094 0.296875)" xlink:href="#STIXGeneral-Italic-1d622"/>
    </g>
   </g>
   <g id="text_2">
    <!-- $-s$ -->
    <defs>
     <path d="M 62.09375 22  L 6.40625 22  L 6.40625 28.59375  L 62.09375 28.59375  z " id="STIXGeneral-Regular-2212"/>
     <path d="M 43.203125 41  L 41 32.09375  L 39.5 32.09375  Q 37.796875 36.5 35.296875 37.890625  Q 32.796875 39.296875 28.890625 39.296875  Q 25 39.296875 23.046875 37.140625  Q 21.09375 35 21.09375 33  Q 21.09375 31 22.796875 29.546875  Q 24.5 28.09375 27.796875 26.5  Q 33.796875 23.59375 36.140625 21.34375  Q 38.5 19.09375 38.5 15.796875  Q 38.5 9 32.890625 4  Q 27.296875 -1 18.59375 -1  Q 14.09375 -1 11.390625 0.296875  Q 8.703125 1.59375 6.09375 4.5  L 8.59375 14.796875  L 10.09375 14.796875  Q 11.90625 6.09375 21 6.09375  Q 24.40625 6.09375 27.296875 7.84375  Q 30.203125 9.59375 30.203125 12.796875  Q 30.203125 14.296875 28.59375 15.640625  Q 27 17 23.203125 18.90625  Q 17.703125 21.59375 15.25 24.25  Q 12.796875 26.90625 12.796875 30.296875  Q 12.796875 36.5 18 41.390625  Q 23.203125 46.296875 30.90625 46.296875  Q 39.59375 46.296875 43.203125 41  " id="STIXGeneral-Italic-1d634"/>
    </defs>
    <g transform="translate(86.6579527559 115.352701772)scale(0.18 -0.18)">
     <use transform="translate(0.0 0.703125)" xlink:href="#STIXGeneral-Regular-2212"/>
     <use transform="translate(68.49998474121094 0.703125)" xlink:href="#STIXGeneral-Italic-1d634"/>
    </g>
   </g>
   <g id="text_3">
    <!-- $-a$ -->
    <g transform="translate(40.7636220472 58.6597883858)scale(0.18 -0.18)">
     <use transform="translate(0.0 0.703125)" xlink:href="#STIXGeneral-Regular-2212"/>
     <use transform="translate(68.49998474121094 0.703125)" xlink:href="#STIXGeneral-Italic-1d622"/>
    </g>
   </g>
   <g id="text_4">
    <!-- $+s$ -->
    <g transform="translate(132.012283465 115.352701772)scale(0.18 -0.18)">
     <use transform="translate(0.0 0.296875)" xlink:href="#STIXGeneral-Regular-2b"/>
     <use transform="translate(68.49998474121094 0.296875)" xlink:href="#STIXGeneral-Italic-1d634"/>
    </g>
   </g>
   <g id="text_5">
    <!-- $-l$ -->
    <defs>
     <path d="M 31.296875 67.90625  L 14.40625 0  L 6.09375 0  L 22.5 66  L 30.5 68.40625  z " id="STIXGeneral-Italic-1d62d"/>
    </defs>
    <g transform="translate(43.0136220472 172.045615157)scale(0.18 -0.18)">
     <use transform="translate(0.0 0.59375)" xlink:href="#STIXGeneral-Regular-2212"/>
     <use transform="translate(68.49998474121094 0.59375)" xlink:href="#STIXGeneral-Italic-1d62d"/>
    </g>
   </g>
   <g id="text_6">
    <!-- $+l$ -->
    <g transform="translate(88.3679527559 172.045615157)scale(0.18 -0.18)">
     <use transform="translate(0.0 0.59375)" xlink:href="#STIXGeneral-Regular-2b"/>
     <use transform="translate(68.49998474121094 0.59375)" xlink:href="#STIXGeneral-Italic-1d62d"/>
    </g>
   </g>
   <g id="text_7">
    <!-- A -->
    <defs>
     <path d="M 34.1875 63.1875  L 20.796875 26.90625  L 47.609375 26.90625  z M 28.609375 72.90625  L 39.796875 72.90625  L 67.578125 0  L 57.328125 0  L 50.6875 18.703125  L 17.828125 18.703125  L 11.1875 0  L 0.78125 0  z " id="BitstreamVeraSans-Roman-41"/>
    </defs>
    <g transform="translate(67.5442249016 33.3133316929)scale(0.18 -0.18)">
     <use xlink:href="#BitstreamVeraSans-Roman-41"/>
    </g>
   </g>
   <g id="text_8">
    <!-- L -->
    <defs>
     <path d="M 9.8125 72.90625  L 19.671875 72.90625  L 19.671875 8.296875  L 55.171875 8.296875  L 55.171875 0  L 9.8125 0  z " id="BitstreamVeraSans-Roman-4c"/>
    </defs>
    <g transform="translate(68.6860999016 146.699158465)scale(0.18 -0.18)">
     <use xlink:href="#BitstreamVeraSans-Roman-4c"/>
    </g>
   </g>
   <g id="text_9">
    <!-- $(0.8, 0.2)$ -->
    <defs>
     <path d="M 47.703125 33  Q 47.703125 23.796875 45.546875 16.34375  Q 43.40625 8.90625 38.09375 3.75  Q 32.796875 -1.40625 25 -1.40625  Q 18.796875 -1.40625 14.25 1.6875  Q 9.703125 4.796875 7.203125 10.046875  Q 4.703125 15.296875 3.5 21.140625  Q 2.296875 27 2.296875 33.59375  Q 2.296875 42.90625 4.59375 50.34375  Q 6.90625 57.796875 12.296875 62.6875  Q 17.703125 67.59375 25.40625 67.59375  Q 35.203125 67.59375 41.453125 57.9375  Q 47.703125 48.296875 47.703125 33  M 39.796875 33  Q 39.796875 45.203125 35.75 52.84375  Q 31.703125 60.5 25.203125 60.5  Q 17.796875 60.5 14 52.75  Q 10.203125 45 10.203125 33.40625  Q 10.203125 28.203125 10.953125 23.546875  Q 11.703125 18.90625 13.34375 14.75  Q 15 10.59375 18 8.140625  Q 21 5.703125 25 5.703125  Q 30.09375 5.703125 33.546875 9.796875  Q 37 13.90625 38.390625 19.84375  Q 39.796875 25.796875 39.796875 33  " id="STIXGeneral-Regular-1d7e2"/>
     <path d="M 46.90625 7.09375  L 44 0  L 3.5 0  L 3.5 2.09375  L 21 23.5  L 21 23.40625  L 26.59375 30.203125  Q 30.5 34.90625 32.09375 36.953125  Q 33.703125 39 35.203125 41.953125  Q 36.703125 44.90625 36.703125 47.5  Q 36.703125 53.703125 33.34375 57.09375  Q 30 60.5 24.203125 60.5  Q 19.59375 60.5 15.75 56.703125  Q 11.90625 52.90625 10.90625 45.90625  L 3.703125 47.59375  Q 5.296875 56.5 11.1875 62.046875  Q 17.09375 67.59375 24.90625 67.59375  Q 33.59375 67.59375 39.09375 62.1875  Q 44.59375 56.796875 44.59375 49.09375  Q 44.59375 43.5 42.5 39.453125  Q 40.40625 35.40625 33.703125 27  L 17.703125 7.09375  z " id="STIXGeneral-Regular-1d7e4"/>
     <path d="M 8.296875 -14.09375  L 7.296875 -12.203125  Q 15.59375 -6.59375 15.59375 -1.5  Q 15.59375 -0.203125 14.203125 -0.203125  Q 13.796875 -0.203125 12.84375 -0.390625  Q 11.90625 -0.59375 11.296875 -0.59375  Q 5.5 -0.59375 5.5 4.5  Q 5.5 7.09375 7.140625 8.640625  Q 8.796875 10.203125 11.5 10.203125  Q 14.90625 10.203125 17.203125 7.75  Q 19.5 5.296875 19.5 1.5  Q 19.5 -3.09375 16.453125 -7.390625  Q 13.40625 -11.703125 8.296875 -14.09375  " id="STIXGeneral-Regular-2c"/>
     <path d="M 44.703125 16.09375  Q 44.703125 8.796875 39.390625 3.6875  Q 34.09375 -1.40625 24.796875 -1.40625  Q 16.296875 -1.40625 10.59375 3.4375  Q 4.90625 8.296875 4.90625 15.40625  Q 4.90625 20.796875 7.75 25.25  Q 10.59375 29.703125 17.703125 34.5  Q 6 41.40625 6 51.40625  Q 6 58.59375 11.546875 63.09375  Q 17.09375 67.59375 25.59375 67.59375  Q 32.90625 67.59375 37.796875 62.84375  Q 42.703125 58.09375 42.703125 52  Q 42.703125 46.40625 40.09375 42.703125  Q 37.5 39 31.09375 35.296875  Q 44.703125 27 44.703125 16.09375  M 35.5 51.5  Q 35.5 55.5 32.390625 58  Q 29.296875 60.5 24.40625 60.5  Q 19.796875 60.5 16.84375 57.84375  Q 13.90625 55.203125 13.90625 51.796875  Q 13.90625 47.5 16.34375 44.84375  Q 18.796875 42.203125 24.90625 39.40625  Q 35.5 45.203125 35.5 51.5  M 27.59375 28.59375  L 24.09375 30.5  Q 18.90625 28.703125 15.84375 24.640625  Q 12.796875 20.59375 12.796875 16.296875  Q 12.796875 11.796875 16 8.75  Q 19.203125 5.703125 25.203125 5.703125  Q 29.796875 5.703125 33.296875 8.453125  Q 36.796875 11.203125 36.796875 15.796875  Q 36.796875 20 34.6875 22.953125  Q 32.59375 25.90625 27.59375 28.59375  " id="STIXGeneral-Regular-1d7ea"/>
     <path d="M 18.09375 4.296875  Q 18.09375 2.09375 16.4375 0.5  Q 14.796875 -1.09375 12.5 -1.09375  Q 10.203125 -1.09375 8.59375 0.5  Q 7 2.09375 7 4.390625  Q 7 6.703125 8.640625 8.34375  Q 10.296875 10 12.59375 10  Q 14.796875 10 16.4375 8.296875  Q 18.09375 6.59375 18.09375 4.296875  " id="STIXGeneral-Regular-2e"/>
     <path d="M 30.40625 -16.09375  L 29.203125 -17.703125  Q 17.59375 -11.09375 11.1875 0.5  Q 4.796875 12.09375 4.796875 25.203125  Q 4.796875 52.90625 29.5 67.59375  L 30.40625 66  Q 20.203125 57.296875 16.796875 48.84375  Q 13.40625 40.40625 13.40625 25.5  Q 13.40625 10.703125 16.90625 1.5  Q 20.40625 -7.703125 30.40625 -16.09375  " id="STIXGeneral-Regular-28"/>
     <path d="M 2.90625 66  L 4.09375 67.59375  Q 15.5 60.796875 22 49.1875  Q 28.5 37.59375 28.5 24.703125  Q 28.5 -2.59375 3.796875 -17.703125  L 2.90625 -16.09375  Q 13.203125 -7.59375 16.546875 0.84375  Q 19.90625 9.296875 19.90625 24.40625  Q 19.90625 39.59375 16.546875 48.75  Q 13.203125 57.90625 2.90625 66  " id="STIXGeneral-Regular-29"/>
    </defs>
    <g transform="translate(-6.48354330709 90.0062450787)scale(0.18 -0.18)">
     <use transform="translate(0.0 0.40625)" xlink:href="#STIXGeneral-Regular-28"/>
     <use transform="translate(33.29998779296875 0.40625)" xlink:href="#STIXGeneral-Regular-1d7e2"/>
     <use transform="translate(83.29997253417969 0.40625)" xlink:href="#STIXGeneral-Regular-2e"/>
     <use transform="translate(123.41995544433594 0.40625)" xlink:href="#STIXGeneral-Regular-1d7ea"/>
     <use transform="translate(173.41994018554686 0.40625)" xlink:href="#STIXGeneral-Regular-2c"/>
     <use transform="translate(213.5399230957031 0.40625)" xlink:href="#STIXGeneral-Regular-1d7e2"/>
     <use transform="translate(263.53990783691404 0.40625)" xlink:href="#STIXGeneral-Regular-2e"/>
     <use transform="translate(303.6598907470703 0.40625)" xlink:href="#STIXGeneral-Regular-1d7e4"/>
     <use transform="translate(353.6598754882812 0.40625)" xlink:href="#STIXGeneral-Regular-29"/>
    </g>
   </g>
   <g id="text_10">
    <!-- S -->
    <defs>
     <path d="M 53.515625 70.515625  L 53.515625 60.890625  Q 47.90625 63.578125 42.921875 64.890625  Q 37.9375 66.21875 33.296875 66.21875  Q 25.25 66.21875 20.875 63.09375  Q 16.5 59.96875 16.5 54.203125  Q 16.5 49.359375 19.40625 46.890625  Q 22.3125 44.4375 30.421875 42.921875  L 36.375 41.703125  Q 47.40625 39.59375 52.65625 34.296875  Q 57.90625 29 57.90625 20.125  Q 57.90625 9.515625 50.796875 4.046875  Q 43.703125 -1.421875 29.984375 -1.421875  Q 24.8125 -1.421875 18.96875 -0.25  Q 13.140625 0.921875 6.890625 3.21875  L 6.890625 13.375  Q 12.890625 10.015625 18.65625 8.296875  Q 24.421875 6.59375 29.984375 6.59375  Q 38.421875 6.59375 43.015625 9.90625  Q 47.609375 13.234375 47.609375 19.390625  Q 47.609375 24.75 44.3125 27.78125  Q 41.015625 30.8125 33.5 32.328125  L 27.484375 33.5  Q 16.453125 35.6875 11.515625 40.375  Q 6.59375 45.0625 6.59375 53.421875  Q 6.59375 63.09375 13.40625 68.65625  Q 20.21875 74.21875 32.171875 74.21875  Q 37.3125 74.21875 42.625 73.28125  Q 47.953125 72.359375 53.515625 70.515625  " id="BitstreamVeraSans-Roman-53"/>
    </defs>
    <g transform="translate(113.34152436 90.0062450787)scale(0.18 -0.18)">
     <use xlink:href="#BitstreamVeraSans-Roman-53"/>
    </g>
   </g>
   <g id="text_11">
    <!-- $(0.9, 0.1)$ -->
    <defs>
     <path d="M 5.5 -0.203125  L 6.796875 4.703125  Q 18.203125 5.5 26.140625 11.25  Q 34.09375 17 37.59375 27.5  Q 31.796875 23.09375 23.90625 23.09375  Q 15.296875 23.09375 9.046875 28.890625  Q 2.796875 34.703125 2.796875 44.203125  Q 2.796875 53.90625 8.84375 60.75  Q 14.90625 67.59375 24.203125 67.59375  Q 30.09375 67.59375 34.5 65.34375  Q 38.90625 63.09375 41.5 59.09375  Q 44.09375 55.09375 45.34375 50.25  Q 46.59375 45.40625 46.59375 39.796875  Q 46.59375 31.40625 43.546875 23.203125  Q 40.5 15 35.5 10.09375  Q 28.796875 3.59375 22.84375 1.296875  Q 16.90625 -1 5.703125 -2.09375  z M 38.59375 42.203125  Q 38.5 50.296875 34.546875 55.390625  Q 30.59375 60.5 23.90625 60.5  Q 18.40625 60.5 14.59375 56.296875  Q 10.796875 52.09375 10.796875 45.59375  Q 10.796875 38.40625 14.890625 34.34375  Q 19 30.296875 24.703125 30.296875  Q 29.90625 30.296875 33.796875 33.34375  Q 37.703125 36.40625 38.59375 42.203125  " id="STIXGeneral-Regular-1d7eb"/>
     <path d="M 30.203125 0  L 22.296875 0  L 22.296875 57  Q 20.09375 56 15.75 53.75  Q 11.40625 51.5 10.796875 51.203125  L 10.796875 58.5  L 28.796875 67.703125  L 30.203125 67.203125  z " id="STIXGeneral-Regular-1d7e3"/>
    </defs>
    <g transform="translate(-6.48354330709 203.39207185)scale(0.18 -0.18)">
     <use transform="translate(0.0 0.296875)" xlink:href="#STIXGeneral-Regular-28"/>
     <use transform="translate(33.29998779296875 0.296875)" xlink:href="#STIXGeneral-Regular-1d7e2"/>
     <use transform="translate(83.29997253417969 0.296875)" xlink:href="#STIXGeneral-Regular-2e"/>
     <use transform="translate(123.41995544433594 0.296875)" xlink:href="#STIXGeneral-Regular-1d7eb"/>
     <use transform="translate(173.41994018554686 0.296875)" xlink:href="#STIXGeneral-Regular-2c"/>
     <use transform="translate(213.5399230957031 0.296875)" xlink:href="#STIXGeneral-Regular-1d7e2"/>
     <use transform="translate(263.53990783691404 0.296875)" xlink:href="#STIXGeneral-Regular-2e"/>
     <use transform="translate(303.6598907470703 0.296875)" xlink:href="#STIXGeneral-Regular-1d7e3"/>
     <use transform="translate(353.6598754882812 0.296875)" xlink:href="#STIXGeneral-Regular-29"/>
    </g>
   </g>
   <g id="text_12">
    <!-- $(0.1, 0.9)$ -->
    <g transform="translate(129.579448819 146.699158465)scale(0.18 -0.18)">
     <use transform="translate(0.0 0.296875)" xlink:href="#STIXGeneral-Regular-28"/>
     <use transform="translate(33.29998779296875 0.296875)" xlink:href="#STIXGeneral-Regular-1d7e2"/>
     <use transform="translate(83.29997253417969 0.296875)" xlink:href="#STIXGeneral-Regular-2e"/>
     <use transform="translate(123.41995544433594 0.296875)" xlink:href="#STIXGeneral-Regular-1d7e3"/>
     <use transform="translate(173.41994018554686 0.296875)" xlink:href="#STIXGeneral-Regular-2c"/>
     <use transform="translate(213.5399230957031 0.296875)" xlink:href="#STIXGeneral-Regular-1d7e2"/>
     <use transform="translate(263.53990783691404 0.296875)" xlink:href="#STIXGeneral-Regular-2e"/>
     <use transform="translate(303.6598907470703 0.296875)" xlink:href="#STIXGeneral-Regular-1d7eb"/>
     <use transform="translate(353.6598754882812 0.296875)" xlink:href="#STIXGeneral-Regular-29"/>
    </g>
   </g>
   <g id="text_13">
    <!-- $(0.4, 0.6)$ -->
    <defs>
     <path d="M 48.90625 23.59375  L 45.59375 16.5  L 37.296875 16.5  L 37.296875 0  L 29.40625 0  L 29.40625 16.5  L 1.09375 16.5  L 1.09375 23.296875  L 32.296875 67.59375  L 37.296875 67.59375  L 37.296875 23.59375  z M 29.40625 23.59375  L 29.40625 51  L 10 23.59375  z " id="STIXGeneral-Regular-1d7e6"/>
     <path d="M 44.796875 66.796875  L 43 61.5  Q 31.59375 60.703125 23.640625 54.953125  Q 15.703125 49.203125 12.203125 38.796875  Q 18.09375 43.09375 25.90625 43.09375  Q 34.5 43.09375 40.75 37.296875  Q 47 31.5 47 22  Q 47 12.296875 40.953125 5.4375  Q 34.90625 -1.40625 25.703125 -1.40625  Q 18 -1.40625 12.75 2.640625  Q 7.5 6.703125 5.34375 12.75  Q 3.203125 18.796875 3.203125 26.40625  Q 3.203125 34.90625 6.203125 43.046875  Q 9.203125 51.203125 14.296875 56.203125  Q 21 62.796875 27.09375 65.046875  Q 33.203125 67.296875 44.703125 68.40625  z M 39 20.703125  Q 39 27.90625 34.890625 31.953125  Q 30.796875 36 25.09375 36  Q 19.90625 36 16 32.953125  Q 12.09375 29.90625 11.203125 24  Q 11.203125 15.90625 15.203125 10.796875  Q 19.203125 5.703125 26 5.703125  Q 31.5 5.703125 35.25 9.953125  Q 39 14.203125 39 20.703125  " id="STIXGeneral-Regular-1d7e8"/>
    </defs>
    <g transform="translate(84.2251181102 203.39207185)scale(0.18 -0.18)">
     <use transform="translate(0.0 0.59375)" xlink:href="#STIXGeneral-Regular-28"/>
     <use transform="translate(33.29998779296875 0.59375)" xlink:href="#STIXGeneral-Regular-1d7e2"/>
     <use transform="translate(83.29997253417969 0.59375)" xlink:href="#STIXGeneral-Regular-2e"/>
     <use transform="translate(123.41995544433594 0.59375)" xlink:href="#STIXGeneral-Regular-1d7e6"/>
     <use transform="translate(173.41994018554686 0.59375)" xlink:href="#STIXGeneral-Regular-2c"/>
     <use transform="translate(213.5399230957031 0.59375)" xlink:href="#STIXGeneral-Regular-1d7e2"/>
     <use transform="translate(263.53990783691404 0.59375)" xlink:href="#STIXGeneral-Regular-2e"/>
     <use transform="translate(303.6598907470703 0.59375)" xlink:href="#STIXGeneral-Regular-1d7e8"/>
     <use transform="translate(353.6598754882812 0.59375)" xlink:href="#STIXGeneral-Regular-29"/>
    </g>
   </g>
  </g>
 </g>
 </svg>
