<?xml version="1.0" encoding="utf-8"?>
<!-- Generator: Adobe Illustrator 16.0.0, SVG Export Plug-In . SVG Version: 6.00 Build 0)  -->
<!DOCTYPE svg PUBLIC "-//W3C//DTD SVG 1.1 Tiny//EN" "http://www.w3.org/Graphics/SVG/1.1/DTD/svg11-tiny.dtd">
<svg version="1.1" baseProfile="tiny" id="Layer_1" xmlns="http://www.w3.org/2000/svg" xmlns:xlink="http://www.w3.org/1999/xlink"
	 x="0px" y="0px" width="169.438px" height="130.226px" viewBox="0 0 169.438 130.226" xml:space="preserve">
<g>
	<circle fill="#386DF9" stroke="#231F20" stroke-width="0.75" stroke-miterlimit="10" cx="81.793" cy="10.907" r="10.531"/>
	<circle fill="#FFFFFF" stroke="#231F20" stroke-width="0.75" stroke-miterlimit="10" cx="39.667" cy="48.352" r="10.532"/>
	<circle fill="#FFFFFF" stroke="#231F20" stroke-width="0.75" stroke-miterlimit="10" cx="123.919" cy="48.352" r="10.532"/>
	<circle fill="#FFFFFF" stroke="#231F20" stroke-width="0.75" stroke-miterlimit="10" cx="20.944" cy="85.798" r="10.531"/>
	<circle fill="#FFFFFF" stroke="#231F20" stroke-width="0.75" stroke-miterlimit="10" cx="58.39" cy="85.798" r="10.531"/>
	<circle fill="#FF1614" stroke="#231F20" stroke-width="0.75" stroke-miterlimit="10" cx="58.39" cy="118.546" r="10.531"/>
	<circle fill="#FFFFFF" stroke="#231F20" stroke-width="0.75" stroke-miterlimit="10" cx="105.197" cy="85.408" r="10.531"/>
	<circle fill="#FFFFFF" stroke="#231F20" stroke-width="0.75" stroke-miterlimit="10" cx="142.643" cy="85.408" r="10.531"/>
	<circle fill="#FFFFFF" stroke="#AAAAAA" stroke-width="0.75" stroke-miterlimit="10" cx="143.5" cy="119.319" r="10.532"/>
</g>
<g>
	<rect x="19.773" y="44.062" fill="none" width="9.124" height="15.602"/>
	<path fill="#929497" d="M22.143,48.812v-0.862h0.527c0.429,0,0.783-0.118,1.062-0.354c0.279-0.236,0.418-0.56,0.418-0.972
		c0-0.386-0.131-0.706-0.393-0.959c-0.262-0.253-0.611-0.38-1.049-0.38c-0.438,0-0.793,0.129-1.068,0.386
		c-0.274,0.257-0.442,0.597-0.502,1.017h-0.991c0.095-0.678,0.374-1.227,0.837-1.648c0.463-0.42,1.038-0.63,1.725-0.63
		c0.738,0,1.324,0.199,1.757,0.599c0.433,0.399,0.65,0.92,0.65,1.563c0,0.429-0.114,0.809-0.341,1.139
		c-0.228,0.331-0.526,0.552-0.895,0.663c0.429,0.12,0.768,0.346,1.017,0.676c0.249,0.331,0.373,0.719,0.373,1.165
		c0,0.669-0.229,1.225-0.688,1.667s-1.075,0.663-1.847,0.663s-1.405-0.214-1.898-0.644c-0.494-0.429-0.774-1.004-0.843-1.725h0.991
		c0.068,0.463,0.253,0.828,0.554,1.094c0.3,0.266,0.695,0.399,1.184,0.399c0.472,0,0.854-0.131,1.146-0.393
		c0.292-0.262,0.438-0.612,0.438-1.049c0-0.429-0.152-0.772-0.457-1.03s-0.688-0.386-1.152-0.386H22.143z"/>
</g>
<g>
	<rect x="138.199" y="42.892" fill="none" width="9.123" height="15.603"/>
	<path fill="#929497" d="M141.25,47.012c-0.558,0-1.025,0.228-1.403,0.682h-0.798v-4.338h4.325v0.901h-3.476v2.381
		c0.369-0.334,0.85-0.502,1.441-0.502c0.729,0,1.326,0.247,1.79,0.74c0.463,0.494,0.694,1.122,0.694,1.886
		c0,0.747-0.24,1.369-0.721,1.866c-0.48,0.498-1.094,0.747-1.841,0.747c-0.755,0-1.373-0.21-1.854-0.63s-0.768-1-0.862-1.738h0.991
		c0.181,0.996,0.755,1.493,1.725,1.493c0.472,0,0.858-0.166,1.159-0.496c0.3-0.331,0.45-0.745,0.45-1.242s-0.15-0.914-0.45-1.249
		C142.121,47.179,141.73,47.012,141.25,47.012z"/>
</g>
<g>
	<rect y="79.557" fill="none" width="9.123" height="15.603"/>
	<path fill="#929497" d="M5.342,80.806l-2.819,7.118H1.506l2.793-7.002H0.232v-0.901h5.11V80.806z"/>
</g>
<g>
	<rect x="72.669" y="79.557" fill="none" width="9.124" height="15.603"/>
	<path fill="#929497" d="M78.539,81.862h-1.004c-0.241-0.746-0.726-1.12-1.455-1.12c-0.575,0-1.051,0.29-1.429,0.869
		c-0.378,0.579-0.566,1.298-0.566,2.156c0,0.025,0.002,0.084,0.006,0.174s0.006,0.147,0.006,0.174
		c0.129-0.403,0.377-0.729,0.747-0.979s0.785-0.373,1.249-0.373c0.747,0,1.36,0.255,1.841,0.766c0.48,0.511,0.721,1.131,0.721,1.86
		c0,0.746-0.245,1.375-0.733,1.886c-0.489,0.511-1.129,0.766-1.918,0.766c-1.073,0-1.858-0.502-2.356-1.506
		c-0.309-0.652-0.463-1.459-0.463-2.42c0-1.271,0.269-2.289,0.805-3.058c0.536-0.768,1.233-1.151,2.092-1.151
		C77.385,79.906,78.205,80.557,78.539,81.862z M74.304,85.402c0,0.515,0.159,0.939,0.476,1.274c0.317,0.334,0.729,0.502,1.236,0.502
		c0.498,0,0.905-0.165,1.223-0.496c0.317-0.33,0.477-0.757,0.477-1.28s-0.159-0.955-0.477-1.294s-0.725-0.509-1.223-0.509
		c-0.506,0-0.918,0.168-1.236,0.503C74.463,84.436,74.304,84.87,74.304,85.402z"/>
</g>
<g>
	<rect x="72.669" y="113.476" fill="none" width="9.124" height="15.603"/>
	<path fill="#929497" d="M75.939,113.927v7.916h-0.991v-6.693l-1.957,1.004v-1.029l2.343-1.197H75.939z"/>
	<path fill="#929497" d="M80.174,113.927v7.916h-0.991v-6.693l-1.957,1.004v-1.029l2.343-1.197H80.174z"/>
</g>
<g>
	<rect x="160.313" y="79.557" fill="none" width="9.124" height="15.603"/>
	<path fill="#929497" d="M160.881,86.083h1.004c0.24,0.747,0.725,1.12,1.454,1.12c0.575,0,1.052-0.289,1.429-0.869
		c0.377-0.579,0.566-1.298,0.566-2.155c0-0.026-0.002-0.084-0.006-0.174c-0.005-0.091-0.007-0.148-0.007-0.174
		c-0.129,0.403-0.378,0.729-0.747,0.978c-0.369,0.249-0.785,0.374-1.248,0.374c-0.746,0-1.36-0.256-1.841-0.767
		c-0.481-0.51-0.721-1.13-0.721-1.859c0-0.747,0.245-1.375,0.733-1.886c0.489-0.511,1.129-0.766,1.918-0.766
		c1.072,0,1.857,0.502,2.355,1.506c0.309,0.652,0.463,1.459,0.463,2.42c0,1.27-0.268,2.289-0.804,3.057
		c-0.536,0.769-1.233,1.152-2.092,1.152C162.034,88.041,161.215,87.388,160.881,86.083z M165.115,82.544
		c0-0.516-0.159-0.94-0.477-1.274c-0.317-0.335-0.729-0.502-1.235-0.502c-0.498,0-0.905,0.165-1.224,0.495
		c-0.316,0.331-0.476,0.758-0.476,1.281s0.159,0.954,0.476,1.293c0.318,0.34,0.726,0.509,1.224,0.509
		c0.507,0,0.918-0.167,1.235-0.502S165.115,83.077,165.115,82.544z"/>
</g>
<g>
	<rect x="119.357" y="79.167" fill="none" width="9.124" height="15.602"/>
	<path fill="#929497" d="M119.924,85.693h1.004c0.24,0.747,0.726,1.121,1.455,1.121c0.574,0,1.051-0.29,1.429-0.869
		c0.378-0.58,0.566-1.299,0.566-2.156c0-0.025-0.002-0.084-0.007-0.174c-0.004-0.09-0.006-0.148-0.006-0.174
		c-0.129,0.403-0.378,0.729-0.746,0.979c-0.369,0.248-0.785,0.373-1.249,0.373c-0.747,0-1.36-0.256-1.841-0.766
		c-0.48-0.511-0.721-1.131-0.721-1.86c0-0.747,0.244-1.375,0.733-1.886c0.489-0.51,1.128-0.766,1.918-0.766
		c1.073,0,1.858,0.502,2.355,1.506c0.31,0.652,0.464,1.459,0.464,2.42c0,1.27-0.269,2.289-0.805,3.057
		c-0.537,0.769-1.234,1.152-2.092,1.152C121.078,87.65,120.259,86.998,119.924,85.693z M124.159,82.154
		c0-0.516-0.159-0.939-0.476-1.274c-0.318-0.335-0.73-0.502-1.236-0.502c-0.498,0-0.906,0.165-1.223,0.495
		c-0.318,0.331-0.477,0.758-0.477,1.281s0.158,0.955,0.477,1.293c0.316,0.34,0.725,0.509,1.223,0.509
		c0.506,0,0.918-0.167,1.236-0.502C124,83.119,124.159,82.686,124.159,82.154z"/>
</g>
<g>
	<line fill="none" stroke="#231F20" stroke-width="0.75" stroke-miterlimit="10" x1="81.793" y1="21.438" x2="39.667" y2="37.82"/>
	<line fill="none" stroke="#231F20" stroke-width="0.75" stroke-miterlimit="10" x1="81.793" y1="21.438" x2="123.92" y2="37.82"/>
	<line fill="none" stroke="#231F20" stroke-width="0.75" stroke-miterlimit="10" x1="39.667" y1="58.884" x2="20.944" y2="75.266"/>
	<line fill="none" stroke="#231F20" stroke-width="0.75" stroke-miterlimit="10" x1="39.667" y1="58.884" x2="58.39" y2="75.266"/>
	<line fill="none" stroke="#231F20" stroke-width="0.75" stroke-miterlimit="10" x1="58.39" y1="96.33" x2="58.39" y2="108.015"/>
	
		<line fill="none" stroke="#231F20" stroke-width="0.75" stroke-miterlimit="10" x1="123.92" y1="58.494" x2="105.197" y2="74.876"/>
	
		<line fill="none" stroke="#231F20" stroke-width="0.75" stroke-miterlimit="10" x1="123.92" y1="58.494" x2="142.643" y2="74.876"/>
	<line fill="none" stroke="#AAAAAA" stroke-width="0.75" stroke-miterlimit="10" x1="143.5" y1="97.101" x2="143.5" y2="108.788"/>
</g>
<g>
	<g>
		<rect x="75.942" y="6.227" fill="none" width="11.701" height="14.041"/>
		<path fill="#FFFFFF" d="M78.542,13.107h1.124c0.328,0.955,1.058,1.432,2.19,1.432c0.571,0,1.032-0.133,1.383-0.4
			c0.351-0.267,0.526-0.634,0.526-1.102c0-0.346-0.107-0.629-0.323-0.85c-0.215-0.22-0.566-0.391-1.053-0.513l-1.544-0.407
			c-1.376-0.355-2.064-1.095-2.064-2.218c0-0.721,0.267-1.308,0.801-1.763c0.533-0.454,1.212-0.681,2.036-0.681
			c0.871,0,1.573,0.204,2.106,0.611s0.885,0.962,1.053,1.664h-1.109c-0.309-0.889-0.992-1.334-2.05-1.334
			c-0.524,0-0.953,0.129-1.285,0.386C80,8.19,79.834,8.534,79.834,8.965c0,0.356,0.112,0.634,0.337,0.835
			c0.225,0.202,0.571,0.363,1.039,0.484l1.475,0.379c1.432,0.365,2.148,1.137,2.148,2.317c0,0.768-0.279,1.376-0.835,1.825
			c-0.557,0.45-1.271,0.674-2.142,0.674s-1.601-0.208-2.19-0.625S78.701,13.856,78.542,13.107z"/>
	</g>
	<g>
		<rect x="33.815" y="43.671" fill="none" width="11.702" height="10.529"/>
		<path fill="#231F20" d="M39.147,44.177h1.039l3.37,8.622h-1.124l-0.997-2.598h-3.552l-0.983,2.598h-1.124L39.147,44.177z
			 M39.653,45.553l-1.404,3.679h2.809L39.653,45.553z"/>
	</g>
	<g>
		<rect x="118.068" y="43.671" fill="none" width="11.702" height="10.529"/>
		<path fill="#231F20" d="M125.59,48.333c0.459,0.122,0.834,0.37,1.124,0.744s0.435,0.805,0.435,1.292
			c0,0.777-0.252,1.376-0.758,1.797s-1.207,0.632-2.105,0.632h-3.118v-8.622h2.837c0.898,0,1.598,0.197,2.1,0.59
			c0.5,0.394,0.75,0.96,0.75,1.699c0,0.487-0.119,0.892-0.357,1.215C126.258,48.003,125.955,48.221,125.59,48.333z M122.248,47.926
			h1.756c1.188,0,1.783-0.468,1.783-1.404c0-0.917-0.595-1.376-1.783-1.376h-1.756V47.926z M122.248,48.853v2.977h2.037
			c0.57,0,1.01-0.134,1.319-0.4s0.464-0.629,0.464-1.088c0-0.468-0.154-0.833-0.464-1.095c-0.31-0.262-0.749-0.393-1.319-0.393
			H122.248z"/>
	</g>
	<g>
		<rect x="15.482" y="80.728" fill="none" width="11.702" height="14.82"/>
		<path fill="#231F20" d="M23.005,85.389c0.458,0.122,0.833,0.37,1.124,0.744c0.29,0.375,0.435,0.806,0.435,1.292
			c0,0.777-0.252,1.376-0.758,1.798c-0.505,0.421-1.208,0.632-2.106,0.632h-3.118v-8.622h2.836c0.899,0,1.599,0.196,2.1,0.59
			c0.5,0.394,0.751,0.96,0.751,1.699c0,0.486-0.119,0.892-0.358,1.215C23.672,85.059,23.37,85.277,23.005,85.389z M19.663,84.982
			h1.755c1.189,0,1.784-0.468,1.784-1.404c0-0.917-0.595-1.376-1.784-1.376h-1.755V84.982z M19.663,85.909v2.978h2.036
			c0.571,0,1.011-0.134,1.32-0.4s0.463-0.63,0.463-1.089c0-0.468-0.154-0.833-0.463-1.095s-0.749-0.394-1.32-0.394H19.663z"/>
	</g>
	<g>
		<rect x="52.929" y="80.728" fill="none" width="11.701" height="14.82"/>
		<path fill="#231F20" d="M55.557,89.855v-8.622h2.767c1.264,0,2.277,0.391,3.04,1.173c0.763,0.781,1.145,1.827,1.145,3.138
			c0,1.312-0.382,2.357-1.145,3.139c-0.763,0.782-1.776,1.173-3.04,1.173H55.557z M56.666,88.858h1.643
			c0.974,0,1.734-0.297,2.282-0.892c0.548-0.595,0.822-1.402,0.822-2.423c0-1.02-0.276-1.83-0.829-2.429
			c-0.553-0.6-1.311-0.898-2.275-0.898h-1.643V88.858z"/>
	</g>
	<g>
		<rect x="52.539" y="113.476" fill="none" width="11.701" height="12.092"/>
		<path fill="#FFFFFF" d="M61.1,119.304h-2.064v-0.955h3.117v0.59c0,1.142-0.33,2.059-0.99,2.752s-1.519,1.039-2.577,1.039
			c-1.142,0-2.088-0.407-2.836-1.222c-0.749-0.814-1.124-1.886-1.124-3.216c0-1.32,0.375-2.389,1.124-3.209
			c0.749-0.818,1.685-1.229,2.808-1.229c0.899,0,1.646,0.239,2.24,0.717c0.595,0.477,0.98,1.123,1.159,1.938h-1.109
			c-0.403-1.104-1.166-1.657-2.289-1.657c-0.842,0-1.523,0.316-2.043,0.948s-0.779,1.463-0.779,2.492s0.262,1.863,0.786,2.5
			s1.212,0.955,2.064,0.955c0.739,0,1.327-0.219,1.762-0.654C60.784,120.659,61.034,120.062,61.1,119.304z"/>
	</g>
	<g>
		<rect x="99.735" y="80.338" fill="none" width="11.702" height="14.819"/>
		<path fill="#231F20" d="M105.067,80.843h1.039l3.37,8.622h-1.123l-0.998-2.598h-3.552l-0.983,2.598h-1.123L105.067,80.843z
			 M105.572,82.219l-1.404,3.679h2.809L105.572,82.219z"/>
	</g>
	<g>
		<rect x="136.791" y="80.338" fill="none" width="11.702" height="14.819"/>
		<path fill="#231F20" d="M140.15,88.363c-0.735-0.819-1.103-1.889-1.103-3.209c0-1.319,0.367-2.389,1.103-3.208
			c0.734-0.819,1.654-1.229,2.759-1.229c0.89,0,1.627,0.238,2.212,0.716s0.966,1.123,1.145,1.938h-1.096
			c-0.394-1.104-1.146-1.657-2.261-1.657c-0.824,0-1.488,0.316-1.994,0.948c-0.505,0.632-0.758,1.463-0.758,2.492
			c0,1.021,0.253,1.85,0.758,2.485c0.506,0.637,1.17,0.955,1.994,0.955c1.123,0,1.877-0.557,2.261-1.671h1.096
			c-0.179,0.824-0.56,1.475-1.145,1.952s-1.322,0.716-2.212,0.716C141.805,89.591,140.885,89.182,140.15,88.363z"/>
	</g>
	<g>
		<rect x="137.648" y="114.249" fill="none" width="11.701" height="12.092"/>
		<path fill="#707070" d="M140.908,114.754h5.49v0.983h-4.395v2.724h3.988v0.983h-3.988v2.935h4.395v0.997h-5.49V114.754z"/>
	</g>
</g>
<g>
	<rect x="156.878" y="113.476" fill="none" width="12.56" height="15.603"/>
	<path fill="#929497" d="M160.147,113.927v7.916h-0.991v-6.693l-1.957,1.004v-1.029l2.344-1.197H160.147z"/>
	<path fill="#929497" d="M164.164,117.596c-0.559,0-1.026,0.228-1.404,0.682h-0.797v-4.338h4.324v0.901h-3.475v2.381
		c0.368-0.334,0.85-0.502,1.441-0.502c0.729,0,1.325,0.247,1.789,0.74c0.463,0.494,0.695,1.122,0.695,1.886
		c0,0.747-0.24,1.369-0.721,1.866c-0.481,0.498-1.095,0.747-1.842,0.747c-0.755,0-1.373-0.21-1.854-0.631
		c-0.48-0.42-0.768-1-0.861-1.737h0.99c0.181,0.995,0.756,1.493,1.725,1.493c0.473,0,0.858-0.166,1.159-0.496
		c0.3-0.33,0.45-0.744,0.45-1.242c0-0.497-0.15-0.914-0.45-1.248C165.034,117.763,164.645,117.596,164.164,117.596z"/>
</g>
<g>
</g>
<g>
</g>
<g>
</g>
<g>
</g>
<g>
</g>
<g>
</g>
</svg>
