<?xml version="1.0" encoding="utf-8"?>
<!-- Generator: Adobe Illustrator 16.0.0, SVG Export Plug-In . SVG Version: 6.00 Build 0)  -->
<!DOCTYPE svg PUBLIC "-//W3C//DTD SVG 1.1 Tiny//EN" "http://www.w3.org/Graphics/SVG/1.1/DTD/svg11-tiny.dtd">
<svg version="1.1" baseProfile="tiny" id="Layer_1" xmlns="http://www.w3.org/2000/svg" xmlns:xlink="http://www.w3.org/1999/xlink"
	 x="0px" y="0px" width="190.503px" height="168.157px" viewBox="0 0 190.503 168.157" xml:space="preserve">
<g>
	<rect x="105.335" y="5.514" fill="none" width="12.848" height="15.417"/>
	<path fill="#00A551" d="M110.04,12.931c0.17,0.894,0.832,1.464,1.695,1.464c0.693,0,1.202-0.277,1.202-0.894
		c0-0.586-0.323-0.863-1.51-1.233c-2.081-0.662-2.944-1.448-2.944-3.005c0-2.05,1.604-2.728,3.19-2.728
		c1.865,0,3.252,0.632,3.437,2.357l-2.08,0.524c-0.077-0.802-0.679-1.156-1.311-1.156c-0.585,0-1.048,0.262-1.048,0.848
		c0,0.632,0.493,0.879,1.557,1.202c1.911,0.602,2.882,1.248,2.882,2.99c0,1.973-1.603,2.696-3.529,2.696
		c-1.787,0-2.989-0.585-3.452-2.219L110.04,12.931z"/>
</g>
<g>
	<rect x="59.085" y="46.626" fill="none" width="12.848" height="11.56"/>
	<path fill="#231F20" d="M67.534,54.043h-4.068l-1.079,2.882h-0.848l3.452-9.077h1.063l3.421,9.077h-0.863L67.534,54.043z
		 M63.712,53.35h3.56l-1.002-2.697c-0.524-1.387-0.74-2.266-0.74-2.266h-0.062c0,0-0.216,0.863-0.74,2.25L63.712,53.35z"/>
</g>
<g>
	<rect x="151.587" y="46.626" fill="none" width="12.846" height="11.56"/>
	<path fill="#231F20" d="M159.142,52.255c1.078,0.062,2.064,0.771,2.064,2.143c0,1.587-0.971,2.527-3.189,2.527h-2.527v-9.077h2.496
		c1.941,0,2.82,0.771,2.82,2.296c0,1.218-0.693,1.911-1.664,2.065V52.255z M158.017,51.962c1.171,0,1.973-0.493,1.973-1.71
		c0-1.233-0.74-1.711-2.096-1.711h-1.588v3.421H158.017z M156.306,56.231h1.787c1.465,0,2.312-0.555,2.312-1.865
		c0-1.063-0.725-1.726-2.281-1.726h-1.818V56.231z"/>
</g>
<g>
	<rect x="38.957" y="87.309" fill="none" width="12.848" height="16.272"/>
	<path fill="#231F20" d="M46.512,92.938c1.079,0.062,2.065,0.771,2.065,2.143c0,1.587-0.971,2.527-3.19,2.527H42.86V88.53h2.497
		c1.942,0,2.82,0.771,2.82,2.296c0,1.218-0.693,1.911-1.665,2.065V92.938z M45.387,92.645c1.171,0,1.973-0.493,1.973-1.71
		c0-1.233-0.74-1.711-2.096-1.711h-1.587v3.421H45.387z M43.677,96.914h1.788c1.464,0,2.312-0.555,2.312-1.865
		c0-1.063-0.724-1.726-2.281-1.726h-1.818V96.914z"/>
</g>
<g>
	<rect x="80.069" y="87.309" fill="none" width="12.847" height="16.272"/>
	<path fill="#231F20" d="M83.355,97.607V88.53h2.512c2.558,0,4.361,1.248,4.361,4.438c0,3.359-2.019,4.639-4.377,4.639H83.355z
		 M85.774,96.914c2.204,0,3.606-1.295,3.606-3.915c0-2.65-1.372-3.775-3.529-3.775h-1.68v7.69H85.774z"/>
</g>
<g>
	<rect x="131.458" y="87.309" fill="none" width="12.848" height="16.272"/>
	<path fill="#231F20" d="M139.908,94.726h-4.068l-1.079,2.882h-0.848l3.452-9.077h1.062l3.422,9.077h-0.863L139.908,94.726z
		 M136.085,94.032h3.561l-1.002-2.697c-0.524-1.387-0.74-2.266-0.74-2.266h-0.062c0,0-0.216,0.863-0.739,2.25L136.085,94.032z"/>
</g>
<g>
	<rect x="172.142" y="87.309" fill="none" width="12.848" height="16.272"/>
	<path fill="#231F20" d="M182.357,95.819c-0.693,1.295-1.742,1.927-3.375,1.927c-2.359,0-3.932-1.618-3.932-4.654
		s1.666-4.7,4.07-4.7c1.57,0,2.65,0.693,3.236,2.157l-0.725,0.354c-0.432-1.202-1.326-1.818-2.559-1.818
		c-2.02,0-3.176,1.525-3.176,4.007c0,2.45,1.08,3.93,3.113,3.93c1.326,0,2.158-0.523,2.76-1.664L182.357,95.819z"/>
</g>
<g>
	<rect x="38.529" y="123.264" fill="none" width="12.848" height="13.276"/>
	<path fill="#231F20" d="M48.743,131.774c-0.694,1.295-1.742,1.927-3.375,1.927c-2.358,0-3.93-1.618-3.93-4.654s1.665-4.7,4.069-4.7
		c1.572,0,2.65,0.693,3.236,2.157l-0.725,0.354c-0.432-1.202-1.325-1.818-2.558-1.818c-2.019,0-3.175,1.525-3.175,4.007
		c0,2.45,1.079,3.93,3.113,3.93c1.325,0,2.157-0.523,2.758-1.664L48.743,131.774z"/>
</g>
<g>
	<rect x="79.641" y="124.548" fill="none" width="12.848" height="13.276"/>
	<path fill="#F6921E" d="M90.032,130.009v4.839h-1.294l-0.339-1.018c-0.462,0.817-1.387,1.202-2.497,1.202
		c-2.358,0-4.053-1.494-4.053-4.685c0-3.036,1.665-4.763,4.438-4.763c1.818,0,3.098,0.848,3.699,2.297l-2.019,0.986
		c-0.292-0.956-0.909-1.434-1.757-1.434c-0.971,0-2.204,0.663-2.204,2.943c0,1.634,0.601,2.944,2.234,2.944
		c1.218,0,1.788-0.57,1.788-1.341v-0.309h-1.911v-1.664H90.032z"/>
</g>
<g>
	<rect x="131.031" y="123.264" fill="none" width="12.848" height="11.136"/>
	<path fill="#231F20" d="M134.317,133.562v-9.077h2.513c2.558,0,4.361,1.248,4.361,4.438c0,3.359-2.02,4.639-4.377,4.639H134.317z
		 M136.736,132.869c2.205,0,3.607-1.295,3.607-3.915c0-2.65-1.372-3.775-3.529-3.775h-1.68v7.69H136.736z"/>
</g>
<g>
	<circle fill="#386DF9" stroke="#231F20" stroke-width="0.75" stroke-miterlimit="10" cx="111.759" cy="11.938" r="11.562"/>
	<circle fill="#FFFFFF" stroke="#231F20" stroke-width="0.75" stroke-miterlimit="10" cx="65.509" cy="53.049" r="11.562"/>
	<circle fill="#FFFFFF" stroke="#231F20" stroke-width="0.75" stroke-miterlimit="10" cx="158.01" cy="53.049" r="11.563"/>
	<circle fill="#FFFFFF" stroke="#231F20" stroke-width="0.75" stroke-miterlimit="10" cx="44.953" cy="94.161" r="11.563"/>
	<circle fill="#FFFFFF" stroke="#231F20" stroke-width="0.75" stroke-miterlimit="10" cx="86.065" cy="94.161" r="11.563"/>
	<circle fill="#FFFFFF" stroke="#231F20" stroke-width="0.75" stroke-miterlimit="10" cx="137.455" cy="94.161" r="11.562"/>
	<circle fill="#FFFFFF" stroke="#231F20" stroke-width="0.75" stroke-miterlimit="10" cx="178.566" cy="94.161" r="11.562"/>
	<circle fill="#FFFFFF" stroke="#231F20" stroke-width="0.75" stroke-miterlimit="10" cx="44.953" cy="130.116" r="11.563"/>
	<circle fill="#FF1614" stroke="#231F20" stroke-width="0.75" stroke-miterlimit="10" cx="86.065" cy="130.116" r="11.563"/>
	<circle fill="#FFFFFF" stroke="#231F20" stroke-width="0.75" stroke-miterlimit="10" cx="137.455" cy="130.116" r="11.562"/>
	<circle fill="#FFFFFF" stroke="#231F20" stroke-width="0.75" stroke-miterlimit="10" cx="178.566" cy="130.116" r="11.562"/>
</g>
<g>
	<line fill="none" stroke="#231F20" stroke-width="0.75" stroke-miterlimit="10" x1="111.759" y1="23.5" x2="65.509" y2="41.486"/>
	<line fill="none" stroke="#231F20" stroke-width="0.75" stroke-miterlimit="10" x1="111.759" y1="23.5" x2="158.009" y2="41.486"/>
	<line fill="none" stroke="#231F20" stroke-width="0.75" stroke-miterlimit="10" x1="65.509" y1="64.612" x2="44.954" y2="82.599"/>
	<line fill="none" stroke="#231F20" stroke-width="0.75" stroke-miterlimit="10" x1="65.509" y1="64.612" x2="86.065" y2="82.599"/>
	
		<line fill="none" stroke="#231F20" stroke-width="0.75" stroke-miterlimit="10" x1="158.011" y1="64.612" x2="137.455" y2="82.599"/>
	
		<line fill="none" stroke="#231F20" stroke-width="0.75" stroke-miterlimit="10" x1="158.011" y1="64.612" x2="178.566" y2="82.599"/>
	
		<line fill="none" stroke="#231F20" stroke-width="0.75" stroke-miterlimit="10" x1="44.954" y1="105.724" x2="44.954" y2="118.554"/>
	
		<line fill="none" stroke="#231F20" stroke-width="0.75" stroke-miterlimit="10" x1="86.065" y1="105.724" x2="86.065" y2="118.554"/>
	
		<line fill="none" stroke="#231F20" stroke-width="0.75" stroke-miterlimit="10" x1="137.455" y1="105.724" x2="137.455" y2="118.554"/>
	
		<line fill="none" stroke="#231F20" stroke-width="0.75" stroke-miterlimit="10" x1="178.566" y1="105.724" x2="178.566" y2="118.554"/>
</g>
<g>
	<rect x="105.335" y="6.799" fill="none" width="12.848" height="15.417"/>
	<path fill="#FFFFFF" d="M108.191,14.353h1.233c0.359,1.049,1.161,1.572,2.405,1.572c0.626,0,1.133-0.146,1.519-0.439
		c0.385-0.293,0.578-0.695,0.578-1.21c0-0.38-0.119-0.691-0.355-0.933s-0.621-0.429-1.156-0.562l-1.695-0.447
		c-1.511-0.391-2.267-1.202-2.267-2.436c0-0.792,0.293-1.437,0.879-1.936c0.586-0.498,1.331-0.747,2.235-0.747
		c0.956,0,1.727,0.224,2.312,0.671c0.586,0.446,0.972,1.056,1.156,1.826h-1.218c-0.339-0.977-1.09-1.465-2.251-1.465
		c-0.575,0-1.046,0.142-1.41,0.425c-0.365,0.282-0.548,0.66-0.548,1.133c0,0.391,0.124,0.696,0.37,0.917
		c0.247,0.222,0.627,0.398,1.141,0.532l1.619,0.416c1.572,0.401,2.358,1.249,2.358,2.544c0,0.843-0.306,1.511-0.917,2.004
		s-1.396,0.74-2.351,0.74c-0.956,0-1.758-0.229-2.405-0.686C108.777,15.814,108.366,15.175,108.191,14.353z"/>
</g>
<g>
	<rect x="59.085" y="47.91" fill="none" width="12.848" height="11.561"/>
	<path fill="#231F20" d="M64.938,48.465h1.141l3.7,9.466h-1.233l-1.095-2.853h-3.9l-1.079,2.853h-1.233L64.938,48.465z
		 M65.493,49.976l-1.542,4.039h3.083L65.493,49.976z"/>
</g>
<g>
	<rect x="151.587" y="47.91" fill="none" width="12.846" height="11.561"/>
	<path fill="#231F20" d="M159.845,53.028c0.504,0.134,0.914,0.406,1.233,0.816c0.318,0.412,0.478,0.885,0.478,1.419
		c0,0.854-0.277,1.511-0.832,1.974c-0.555,0.462-1.326,0.693-2.312,0.693h-3.423v-9.466h3.114c0.986,0,1.755,0.216,2.305,0.647
		s0.824,1.054,0.824,1.865c0,0.534-0.131,0.979-0.393,1.334S160.246,52.904,159.845,53.028z M156.175,52.581h1.928
		c1.305,0,1.958-0.514,1.958-1.542c0-1.007-0.653-1.511-1.958-1.511h-1.928V52.581z M156.175,53.599v3.269h2.236
		c0.627,0,1.109-0.146,1.449-0.439c0.339-0.293,0.508-0.691,0.508-1.195c0-0.514-0.169-0.914-0.508-1.202
		c-0.34-0.288-0.822-0.432-1.449-0.432H156.175z"/>
</g>
<g>
	<rect x="38.957" y="88.593" fill="none" width="12.848" height="16.272"/>
	<path fill="#231F20" d="M47.216,93.712c0.503,0.134,0.915,0.406,1.233,0.816c0.318,0.412,0.478,0.885,0.478,1.419
		c0,0.854-0.277,1.511-0.833,1.974c-0.555,0.462-1.326,0.693-2.312,0.693h-3.422v-9.466h3.114c0.986,0,1.755,0.216,2.305,0.647
		s0.825,1.054,0.825,1.865c0,0.534-0.131,0.979-0.393,1.334S47.617,93.588,47.216,93.712z M43.546,93.265h1.927
		c1.305,0,1.958-0.514,1.958-1.542c0-1.007-0.653-1.511-1.958-1.511h-1.927V93.265z M43.546,94.282v3.269h2.235
		c0.627,0,1.11-0.146,1.449-0.439c0.339-0.293,0.509-0.691,0.509-1.195c0-0.514-0.169-0.914-0.509-1.202
		c-0.339-0.288-0.822-0.432-1.449-0.432H43.546z"/>
</g>
<g>
	<rect x="80.069" y="88.593" fill="none" width="12.847" height="16.272"/>
	<path fill="#231F20" d="M82.955,98.614v-9.466h3.037c1.388,0,2.5,0.429,3.338,1.287c0.837,0.858,1.256,2.007,1.256,3.445
		c0,1.439-0.419,2.588-1.256,3.446c-0.838,0.858-1.95,1.287-3.338,1.287H82.955z M84.172,97.52h1.804
		c1.069,0,1.904-0.326,2.505-0.979c0.601-0.653,0.902-1.539,0.902-2.66c0-1.12-0.303-2.009-0.91-2.667
		c-0.606-0.657-1.439-0.986-2.498-0.986h-1.804V97.52z"/>
</g>
<g>
	<rect x="131.458" y="88.593" fill="none" width="12.848" height="16.272"/>
	<path fill="#231F20" d="M137.312,89.148h1.141l3.7,9.466h-1.233l-1.095-2.853h-3.9l-1.079,2.853h-1.233L137.312,89.148z
		 M137.867,90.659l-1.541,4.039h3.083L137.867,90.659z"/>
</g>
<g>
	<rect x="172.142" y="88.593" fill="none" width="12.848" height="16.272"/>
	<path fill="#231F20" d="M175.83,97.404c-0.807-0.899-1.211-2.074-1.211-3.523s0.404-2.623,1.211-3.522s1.816-1.349,3.029-1.349
		c0.977,0,1.785,0.262,2.428,0.786s1.062,1.233,1.258,2.127h-1.203c-0.432-1.212-1.26-1.818-2.482-1.818
		c-0.904,0-1.635,0.347-2.189,1.04c-0.555,0.694-0.832,1.606-0.832,2.736c0,1.121,0.277,2.03,0.832,2.729s1.285,1.048,2.189,1.048
		c1.232,0,2.061-0.611,2.482-1.834h1.203c-0.195,0.904-0.615,1.618-1.258,2.143s-1.451,0.786-2.428,0.786
		C177.646,98.753,176.636,98.304,175.83,97.404z"/>
</g>
<g>
	<rect x="38.529" y="124.548" fill="none" width="12.848" height="13.276"/>
	<path fill="#231F20" d="M42.217,133.359c-0.807-0.899-1.21-2.074-1.21-3.523s0.403-2.623,1.21-3.522
		c0.807-0.899,1.816-1.349,3.029-1.349c0.977,0,1.786,0.262,2.428,0.786c0.642,0.524,1.061,1.233,1.256,2.127h-1.203
		c-0.432-1.212-1.259-1.818-2.482-1.818c-0.904,0-1.634,0.347-2.189,1.04c-0.555,0.694-0.833,1.606-0.833,2.736
		c0,1.121,0.277,2.03,0.833,2.729c0.555,0.699,1.285,1.048,2.189,1.048c1.233,0,2.061-0.611,2.482-1.834h1.203
		c-0.195,0.904-0.614,1.618-1.256,2.143c-0.643,0.524-1.452,0.786-2.428,0.786C44.033,134.708,43.023,134.259,42.217,133.359z"/>
</g>
<g>
	<rect x="79.641" y="124.548" fill="none" width="12.848" height="13.276"/>
	<path fill="#FFFFFF" d="M89.041,130.946h-2.267v-1.048h3.423v0.647c0,1.254-0.362,2.261-1.087,3.021s-1.668,1.141-2.829,1.141
		c-1.254,0-2.292-0.447-3.114-1.341c-0.822-0.895-1.233-2.071-1.233-3.531c0-1.449,0.411-2.623,1.233-3.522s1.85-1.349,3.083-1.349
		c0.987,0,1.806,0.262,2.459,0.786c0.652,0.524,1.077,1.233,1.272,2.127h-1.218c-0.442-1.212-1.279-1.818-2.513-1.818
		c-0.925,0-1.673,0.347-2.243,1.04c-0.57,0.694-0.855,1.606-0.855,2.736c0,1.131,0.288,2.046,0.863,2.744
		c0.575,0.699,1.331,1.049,2.266,1.049c0.812,0,1.457-0.239,1.935-0.717C88.693,132.435,88.968,131.779,89.041,130.946z"/>
</g>
<g>
	<rect x="131.031" y="124.548" fill="none" width="12.848" height="11.137"/>
	<path fill="#231F20" d="M133.917,134.569v-9.466h3.037c1.388,0,2.5,0.429,3.338,1.287c0.837,0.858,1.257,2.007,1.257,3.445
		c0,1.439-0.42,2.588-1.257,3.446c-0.838,0.858-1.95,1.287-3.338,1.287H133.917z M135.134,133.475h1.804
		c1.069,0,1.904-0.326,2.505-0.979c0.602-0.653,0.902-1.539,0.902-2.66c0-1.12-0.303-2.009-0.91-2.667
		c-0.605-0.657-1.438-0.986-2.497-0.986h-1.804V133.475z"/>
</g>
<g>
	<rect y="138.149" fill="none" width="27.896" height="30.008"/>
	<path d="M3.253,144.266c-0.49-0.67-0.735-1.468-0.735-2.395c0-0.926,0.245-1.724,0.735-2.394c0.49-0.669,1.151-1.112,1.983-1.329
		v0.508c-0.629,0.155-1.157,0.522-1.583,1.101c-0.426,0.578-0.639,1.283-0.639,2.114c0,0.832,0.213,1.537,0.639,2.115
		c0.426,0.578,0.954,0.945,1.583,1.101v0.508C4.404,145.378,3.743,144.935,3.253,144.266z"/>
	<path d="M9.171,144.742v-0.67c-0.135,0.21-0.33,0.39-0.583,0.538c-0.254,0.148-0.526,0.223-0.817,0.223
		c-0.636,0-1.123-0.225-1.46-0.674c-0.338-0.45-0.507-1.006-0.507-1.669c0-0.662,0.169-1.219,0.507-1.669
		c0.338-0.449,0.825-0.674,1.46-0.674c0.291,0,0.563,0.074,0.817,0.223c0.253,0.149,0.448,0.328,0.583,0.538v-2.76h0.497v6.594
		H9.171z M9.171,143.475v-1.968c-0.149-0.284-0.343-0.504-0.583-0.66c-0.24-0.155-0.499-0.233-0.776-0.233
		c-0.46,0-0.825,0.175-1.095,0.522c-0.271,0.349-0.406,0.8-0.406,1.354s0.135,1.006,0.406,1.354
		c0.271,0.348,0.635,0.522,1.095,0.522c0.277,0,0.536-0.078,0.776-0.233C8.828,143.979,9.022,143.758,9.171,143.475z"/>
	<path d="M14.228,140.796c0.369,0.434,0.553,0.998,0.553,1.694s-0.184,1.262-0.553,1.694s-0.851,0.648-1.445,0.648
		c-0.595,0-1.075-0.216-1.44-0.648s-0.548-0.998-0.548-1.694s0.183-1.261,0.548-1.694c0.365-0.433,0.845-0.648,1.44-0.648
		C13.377,140.147,13.859,140.363,14.228,140.796z M13.868,143.865c0.27-0.349,0.406-0.807,0.406-1.375s-0.136-1.026-0.406-1.374
		c-0.271-0.349-0.632-0.522-1.085-0.522c-0.446,0-0.805,0.174-1.075,0.522c-0.271,0.348-0.406,0.806-0.406,1.374
		s0.135,1.026,0.406,1.375c0.271,0.348,0.629,0.521,1.075,0.521C13.236,144.387,13.598,144.213,13.868,143.865z"/>
	<path d="M15.896,144.742v-4.504h0.507v0.721c0.148-0.23,0.35-0.423,0.604-0.578c0.253-0.156,0.532-0.233,0.837-0.233
		c0.5,0,0.886,0.146,1.156,0.441c0.271,0.294,0.406,0.685,0.406,1.171v2.982h-0.497v-2.911c0-0.365-0.097-0.659-0.289-0.883
		c-0.193-0.223-0.482-0.335-0.867-0.335c-0.298,0-0.568,0.092-0.812,0.274c-0.244,0.183-0.423,0.416-0.538,0.7v3.154H15.896z"/>
	<path d="M23.728,143.434h0.487c-0.088,0.426-0.286,0.766-0.593,1.02c-0.308,0.254-0.692,0.38-1.151,0.38
		c-0.595,0-1.077-0.216-1.446-0.648s-0.553-0.998-0.553-1.694c0-0.683,0.181-1.244,0.543-1.684c0.361-0.439,0.843-0.659,1.445-0.659
		c0.582,0,1.031,0.201,1.349,0.604s0.477,0.935,0.477,1.598v0.183h-3.317c0.007,0.567,0.149,1.02,0.426,1.354
		c0.277,0.335,0.635,0.502,1.075,0.502c0.317,0,0.59-0.084,0.816-0.253S23.66,143.731,23.728,143.434z M22.459,140.594
		c-0.406,0-0.739,0.139-0.999,0.416c-0.261,0.277-0.418,0.652-0.472,1.126h2.79c-0.014-0.434-0.132-0.798-0.355-1.096
		S22.878,140.594,22.459,140.594z"/>
	<path d="M26.856,139.478c0.49,0.67,0.735,1.468,0.735,2.394c0,0.927-0.245,1.725-0.735,2.395c-0.49,0.669-1.151,1.112-1.983,1.329
		v-0.508c0.629-0.155,1.156-0.522,1.583-1.101c0.426-0.578,0.639-1.283,0.639-2.115c0-0.831-0.213-1.536-0.639-2.114
		c-0.426-0.578-0.954-0.945-1.583-1.101v-0.508C25.705,138.365,26.366,138.809,26.856,139.478z"/>
</g>
<g>
	<rect x="9.301" y="48.782" fill="none" width="24.09" height="17.33"/>
	<path fill="#7D25EF" d="M21.416,56.028c-0.537,0.739-1.236,1.109-2.099,1.109s-1.562-0.37-2.098-1.109
		c-0.537-0.74-0.805-1.706-0.805-2.897s0.268-2.157,0.805-2.897c0.537-0.739,1.236-1.109,2.098-1.109s1.562,0.37,2.099,1.109
		c0.537,0.74,0.805,1.706,0.805,2.897S21.952,55.288,21.416,56.028z M19.317,50.024c-0.617,0-1.092,0.283-1.426,0.85
		s-0.501,1.318-0.501,2.257s0.167,1.69,0.501,2.257s0.809,0.85,1.426,0.85c0.609,0,1.082-0.285,1.42-0.855
		c0.338-0.571,0.507-1.321,0.507-2.251s-0.169-1.68-0.507-2.251C20.399,50.31,19.926,50.024,19.317,50.024z"/>
	<path fill="#7D25EF" d="M25.834,49.226v7.798h-0.977V50.43l-1.927,0.989v-1.015l2.308-1.179H25.834z"/>
</g>
<g>
	<rect x="9.301" y="89.358" fill="none" width="24.09" height="17.328"/>
	<path fill="#7D25EF" d="M20.592,96.604c-0.537,0.739-1.236,1.109-2.099,1.109s-1.562-0.37-2.098-1.109
		c-0.537-0.74-0.805-1.706-0.805-2.897s0.268-2.157,0.805-2.897c0.537-0.739,1.236-1.109,2.098-1.109s1.562,0.37,2.099,1.109
		c0.537,0.74,0.805,1.706,0.805,2.897S21.128,95.864,20.592,96.604z M18.493,90.601c-0.617,0-1.092,0.283-1.426,0.85
		s-0.501,1.318-0.501,2.257s0.167,1.69,0.501,2.257s0.809,0.85,1.426,0.85c0.609,0,1.082-0.285,1.42-0.855
		c0.338-0.571,0.507-1.321,0.507-2.251s-0.169-1.68-0.507-2.251C19.575,90.886,19.102,90.601,18.493,90.601z"/>
	<path fill="#7D25EF" d="M26.139,91.906c0-0.396-0.127-0.716-0.38-0.957s-0.596-0.361-1.027-0.361c-0.457,0-0.814,0.142-1.072,0.425
		s-0.408,0.661-0.45,1.135h-1.027c0.076-0.735,0.342-1.327,0.799-1.775c0.457-0.447,1.04-0.672,1.75-0.672
		c0.735,0,1.314,0.199,1.737,0.596c0.423,0.397,0.634,0.931,0.634,1.598c0,0.119-0.015,0.241-0.044,0.368
		c-0.03,0.127-0.06,0.236-0.089,0.329c-0.03,0.094-0.084,0.21-0.165,0.349c-0.081,0.14-0.142,0.243-0.184,0.312
		c-0.042,0.067-0.127,0.177-0.254,0.329c-0.126,0.152-0.211,0.254-0.253,0.305c-0.042,0.051-0.142,0.163-0.298,0.336
		c-0.157,0.173-0.252,0.281-0.286,0.323l-1.978,2.168h3.715V97.6h-5.084V96.94l2.511-2.765c0.38-0.422,0.638-0.71,0.773-0.862
		c0.135-0.151,0.281-0.367,0.438-0.646C26.061,92.389,26.139,92.135,26.139,91.906z"/>
</g>
<g>
	<rect x="9.301" y="126.536" fill="none" width="24.09" height="17.33"/>
	<path fill="#7D25EF" d="M20.509,133.782c-0.537,0.739-1.236,1.109-2.099,1.109s-1.562-0.37-2.098-1.109
		c-0.537-0.74-0.805-1.706-0.805-2.897s0.268-2.157,0.805-2.897c0.537-0.739,1.236-1.109,2.098-1.109s1.562,0.37,2.099,1.109
		c0.537,0.74,0.805,1.706,0.805,2.897S21.046,133.042,20.509,133.782z M18.411,127.778c-0.617,0-1.092,0.283-1.426,0.85
		s-0.501,1.318-0.501,2.257s0.167,1.69,0.501,2.257s0.809,0.85,1.426,0.85c0.609,0,1.082-0.285,1.42-0.855
		c0.338-0.571,0.507-1.321,0.507-2.251s-0.169-1.68-0.507-2.251C19.493,128.063,19.02,127.778,18.411,127.778z"/>
	<path fill="#7D25EF" d="M24.192,131.215v-0.85h0.52c0.422,0,0.771-0.116,1.046-0.349c0.274-0.232,0.412-0.552,0.412-0.958
		c0-0.38-0.129-0.695-0.387-0.944s-0.603-0.374-1.033-0.374c-0.431,0-0.782,0.127-1.053,0.381c-0.271,0.253-0.436,0.587-0.494,1.001
		h-0.977c0.093-0.667,0.368-1.208,0.824-1.623c0.457-0.414,1.022-0.621,1.699-0.621c0.727,0,1.304,0.196,1.73,0.59
		c0.427,0.393,0.641,0.906,0.641,1.54c0,0.423-0.112,0.797-0.336,1.122c-0.224,0.326-0.518,0.544-0.881,0.653
		c0.422,0.118,0.756,0.341,1.001,0.666s0.368,0.708,0.368,1.147c0,0.659-0.226,1.206-0.678,1.642s-1.059,0.653-1.819,0.653
		c-0.761,0-1.384-0.211-1.871-0.634c-0.486-0.423-0.763-0.989-0.831-1.699h0.977c0.067,0.456,0.249,0.815,0.545,1.077
		c0.295,0.263,0.685,0.394,1.167,0.394c0.464,0,0.841-0.129,1.128-0.387c0.287-0.258,0.431-0.603,0.431-1.033
		c0-0.423-0.15-0.761-0.45-1.015c-0.3-0.254-0.679-0.38-1.135-0.38H24.192z"/>
</g>
<g>
	<rect x="172.142" y="124.548" fill="none" width="12.848" height="11.137"/>
	<path fill="#231F20" d="M175.72,125.104h6.029v1.079h-4.826v2.991h4.379v1.079h-4.379v3.222h4.826v1.095h-6.029V125.104z"/>
</g>
<g>
</g>
<g>
</g>
<g>
</g>
<g>
</g>
<g>
</g>
<g>
</g>
</svg>
