<?xml version="1.0" encoding="utf-8"?>
<!-- Generator: Adobe Illustrator 16.0.0, SVG Export Plug-In . SVG Version: 6.00 Build 0)  -->
<!DOCTYPE svg PUBLIC "-//W3C//DTD SVG 1.1 Tiny//EN" "http://www.w3.org/Graphics/SVG/1.1/DTD/svg11-tiny.dtd">
<svg version="1.1" baseProfile="tiny" id="Layer_1" xmlns="http://www.w3.org/2000/svg" xmlns:xlink="http://www.w3.org/1999/xlink"
	 x="0px" y="0px" width="792px" height="612px" viewBox="0 0 792 612" xml:space="preserve">
<g>
	<circle fill="#386DF9" stroke="#231F20" stroke-width="0.75" stroke-miterlimit="10" cx="394.526" cy="232.15" r="11.206"/>
	<circle fill="#FFFFFF" stroke="#231F20" stroke-width="0.75" stroke-miterlimit="10" cx="349.705" cy="271.992" r="11.206"/>
	<circle fill="#FFFFFF" stroke="#231F20" stroke-width="0.75" stroke-miterlimit="10" cx="439.349" cy="271.992" r="11.206"/>
	<circle fill="#FFFFFF" stroke="#231F20" stroke-width="0.75" stroke-miterlimit="10" cx="329.784" cy="311.834" r="11.205"/>
	<circle fill="#FFFFFF" stroke="#231F20" stroke-width="0.75" stroke-miterlimit="10" cx="369.625" cy="311.834" r="11.206"/>
	<circle fill="#FFFFFF" stroke="#231F20" stroke-width="0.75" stroke-miterlimit="10" cx="419.429" cy="311.834" r="11.206"/>
	<circle fill="#FFFFFF" stroke="#231F20" stroke-width="0.75" stroke-miterlimit="10" cx="459.27" cy="311.834" r="11.205"/>
	<circle fill="#FFFFFF" stroke="#231F20" stroke-width="0.75" stroke-miterlimit="10" cx="329.784" cy="346.679" r="11.205"/>
	<circle fill="#FF1614" stroke="#231F20" stroke-width="0.75" stroke-miterlimit="10" cx="369.625" cy="346.679" r="11.206"/>
	<circle fill="#FFFFFF" stroke="#231F20" stroke-width="0.75" stroke-miterlimit="10" cx="419.429" cy="346.679" r="11.206"/>
	<circle fill="#FFFFFF" stroke="#231F20" stroke-width="0.75" stroke-miterlimit="10" cx="459.27" cy="346.679" r="11.205"/>
	<circle fill="#FFFFFF" stroke="#231F20" stroke-width="0.75" stroke-miterlimit="10" cx="329.784" cy="381.522" r="11.205"/>
	<circle fill="#FF1614" stroke="#231F20" stroke-width="0.75" stroke-miterlimit="10" cx="419.844" cy="381.522" r="11.206"/>
</g>
<g>
	
		<line fill="none" stroke="#231F20" stroke-width="0.75" stroke-miterlimit="10" x1="394.526" y1="243.355" x2="349.705" y2="260.787"/>
	
		<line fill="none" stroke="#231F20" stroke-width="0.75" stroke-miterlimit="10" x1="394.526" y1="243.355" x2="439.349" y2="260.787"/>
	
		<line fill="none" stroke="#231F20" stroke-width="0.75" stroke-miterlimit="10" x1="349.705" y1="283.198" x2="329.783" y2="300.628"/>
	
		<line fill="none" stroke="#231F20" stroke-width="0.75" stroke-miterlimit="10" x1="349.705" y1="283.198" x2="369.625" y2="300.628"/>
	
		<line fill="none" stroke="#231F20" stroke-width="0.75" stroke-miterlimit="10" x1="439.351" y1="283.198" x2="419.429" y2="300.628"/>
	
		<line fill="none" stroke="#231F20" stroke-width="0.75" stroke-miterlimit="10" x1="439.351" y1="283.198" x2="459.271" y2="300.628"/>
	
		<line fill="none" stroke="#231F20" stroke-width="0.75" stroke-miterlimit="10" x1="329.783" y1="323.039" x2="329.783" y2="335.473"/>
	
		<line fill="none" stroke="#231F20" stroke-width="0.75" stroke-miterlimit="10" x1="369.625" y1="323.039" x2="369.625" y2="335.473"/>
	
		<line fill="none" stroke="#231F20" stroke-width="0.75" stroke-miterlimit="10" x1="419.429" y1="323.039" x2="419.429" y2="335.473"/>
	
		<line fill="none" stroke="#231F20" stroke-width="0.75" stroke-miterlimit="10" x1="459.271" y1="323.039" x2="459.271" y2="335.473"/>
	
		<line fill="none" stroke="#231F20" stroke-width="0.75" stroke-miterlimit="10" x1="329.783" y1="357.885" x2="329.783" y2="370.318"/>
	
		<line fill="none" stroke="#231F20" stroke-width="0.75" stroke-miterlimit="10" x1="419.844" y1="357.885" x2="419.844" y2="370.318"/>
</g>
<g>
	<g>
		<rect x="388.303" y="226.925" fill="none" width="12.451" height="14.94"/>
		<path fill="#FFFFFF" d="M391.069,234.246h1.195c0.349,1.016,1.125,1.524,2.331,1.524c0.607,0,1.098-0.142,1.471-0.426
			c0.374-0.284,0.561-0.674,0.561-1.173c0-0.368-0.114-0.669-0.344-0.904c-0.229-0.234-0.603-0.416-1.12-0.545l-1.644-0.433
			c-1.464-0.378-2.196-1.166-2.196-2.361c0-0.767,0.284-1.392,0.852-1.875c0.567-0.483,1.29-0.725,2.166-0.725
			c0.927,0,1.674,0.217,2.241,0.65c0.568,0.433,0.941,1.023,1.121,1.771h-1.181c-0.328-0.946-1.056-1.419-2.182-1.419
			c-0.558,0-1.014,0.137-1.366,0.411c-0.354,0.274-0.531,0.64-0.531,1.098c0,0.378,0.12,0.675,0.359,0.889
			c0.238,0.214,0.607,0.386,1.105,0.516l1.568,0.403c1.524,0.389,2.286,1.21,2.286,2.465c0,0.817-0.297,1.464-0.889,1.942
			c-0.593,0.478-1.353,0.717-2.278,0.717c-0.927,0-1.704-0.221-2.331-0.665C391.637,235.663,391.238,235.042,391.069,234.246z"/>
	</g>
	<g>
		<rect x="343.48" y="266.766" fill="none" width="12.451" height="11.204"/>
		<path fill="#231F20" d="M349.153,267.303h1.105l3.586,9.174h-1.195l-1.061-2.764h-3.78l-1.046,2.764h-1.195L349.153,267.303z
			 M349.691,268.768l-1.494,3.915h2.988L349.691,268.768z"/>
	</g>
	<g>
		<rect x="433.124" y="266.766" fill="none" width="12.451" height="11.204"/>
		<path fill="#231F20" d="M441.128,271.726c0.488,0.129,0.887,0.394,1.195,0.792c0.309,0.398,0.463,0.857,0.463,1.375
			c0,0.827-0.269,1.464-0.807,1.913s-1.285,0.672-2.241,0.672h-3.316v-9.174h3.018c0.956,0,1.701,0.209,2.234,0.628
			c0.532,0.418,0.799,1.021,0.799,1.808c0,0.518-0.127,0.949-0.381,1.292S441.517,271.606,441.128,271.726z M437.572,271.292h1.867
			c1.265,0,1.897-0.498,1.897-1.494c0-0.976-0.633-1.464-1.897-1.464h-1.867V271.292z M437.572,272.279v3.167h2.166
			c0.607,0,1.076-0.142,1.404-0.426c0.329-0.284,0.493-0.67,0.493-1.158c0-0.498-0.164-0.886-0.493-1.165
			c-0.328-0.279-0.797-0.418-1.404-0.418H437.572z"/>
	</g>
	<g>
		<rect x="323.974" y="306.193" fill="none" width="12.451" height="15.77"/>
		<path fill="#231F20" d="M331.978,311.154c0.488,0.129,0.887,0.393,1.195,0.791s0.463,0.857,0.463,1.375
			c0,0.826-0.269,1.464-0.807,1.912s-1.285,0.672-2.241,0.672h-3.316v-9.173h3.018c0.956,0,1.701,0.209,2.234,0.628
			c0.532,0.418,0.799,1.021,0.799,1.807c0,0.519-0.127,0.949-0.381,1.293S332.366,311.034,331.978,311.154z M328.422,310.721h1.867
			c1.265,0,1.897-0.498,1.897-1.494c0-0.977-0.633-1.465-1.897-1.465h-1.867V310.721z M328.422,311.707v3.167h2.166
			c0.607,0,1.076-0.142,1.404-0.426c0.329-0.284,0.493-0.67,0.493-1.158c0-0.498-0.164-0.886-0.493-1.165
			c-0.328-0.279-0.797-0.418-1.404-0.418H328.422z"/>
	</g>
	<g>
		<rect x="363.815" y="306.193" fill="none" width="12.451" height="15.77"/>
		<path fill="#231F20" d="M366.612,315.904v-9.173h2.943c1.345,0,2.423,0.416,3.234,1.248s1.218,1.945,1.218,3.34
			s-0.406,2.508-1.218,3.339s-1.89,1.247-3.234,1.247H366.612z M367.792,314.844h1.749c1.035,0,1.845-0.316,2.428-0.949
			c0.582-0.632,0.874-1.49,0.874-2.576s-0.294-1.947-0.882-2.585s-1.395-0.956-2.42-0.956h-1.749V314.844z"/>
	</g>
	<g>
		<rect x="413.619" y="306.193" fill="none" width="12.451" height="15.77"/>
		<path fill="#231F20" d="M419.292,306.731h1.105l3.586,9.173h-1.195l-1.061-2.764h-3.78l-1.046,2.764h-1.195L419.292,306.731z
			 M419.83,308.195l-1.494,3.914h2.988L419.83,308.195z"/>
	</g>
	<g>
		<rect x="453.047" y="306.193" fill="none" width="12.451" height="15.77"/>
		<path fill="#231F20" d="M456.62,314.732c-0.782-0.872-1.173-2.01-1.173-3.414s0.391-2.543,1.173-3.414s1.761-1.308,2.936-1.308
			c0.946,0,1.73,0.254,2.354,0.763c0.622,0.508,1.028,1.194,1.218,2.061h-1.165c-0.419-1.175-1.221-1.762-2.406-1.762
			c-0.876,0-1.583,0.336-2.121,1.008s-0.807,1.557-0.807,2.652c0,1.086,0.269,1.967,0.807,2.645s1.245,1.016,2.121,1.016
			c1.195,0,1.997-0.593,2.406-1.777h1.165c-0.189,0.876-0.596,1.568-1.218,2.076c-0.623,0.508-1.407,0.762-2.354,0.762
			C458.381,316.039,457.402,315.604,456.62,314.732z"/>
	</g>
	<g>
		<rect x="323.561" y="341.039" fill="none" width="12.449" height="12.863"/>
		<path fill="#231F20" d="M327.133,349.578c-0.782-0.872-1.173-2.01-1.173-3.414s0.391-2.543,1.173-3.414s1.761-1.308,2.936-1.308
			c0.946,0,1.73,0.254,2.354,0.763c0.622,0.508,1.028,1.194,1.218,2.061h-1.165c-0.419-1.175-1.221-1.762-2.406-1.762
			c-0.876,0-1.583,0.336-2.121,1.008s-0.807,1.557-0.807,2.652c0,1.086,0.269,1.967,0.807,2.645s1.245,1.016,2.121,1.016
			c1.195,0,1.997-0.593,2.406-1.777h1.165c-0.189,0.876-0.596,1.568-1.218,2.076c-0.623,0.508-1.407,0.762-2.354,0.762
			C328.894,350.885,327.915,350.449,327.133,349.578z"/>
	</g>
	<g>
		<rect x="363.401" y="341.284" fill="none" width="12.45" height="12.863"/>
		<path fill="#FFFFFF" d="M372.51,347.484h-2.196v-1.016h3.316v0.627c0,1.216-0.351,2.191-1.053,2.929s-1.616,1.105-2.742,1.105
			c-1.215,0-2.221-0.433-3.018-1.3c-0.797-0.866-1.195-2.007-1.195-3.422c0-1.404,0.398-2.541,1.195-3.414
			c0.797-0.871,1.793-1.307,2.988-1.307c0.956,0,1.75,0.254,2.383,0.762s1.043,1.195,1.232,2.062h-1.18
			c-0.429-1.176-1.24-1.764-2.436-1.764c-0.896,0-1.621,0.336-2.174,1.009s-0.829,1.556-0.829,2.651s0.278,1.982,0.836,2.66
			c0.559,0.678,1.29,1.016,2.196,1.016c0.787,0,1.412-0.231,1.876-0.694C372.174,348.926,372.44,348.291,372.51,347.484z"/>
	</g>
	<g>
		<rect x="413.204" y="341.039" fill="none" width="12.451" height="10.791"/>
		<path fill="#231F20" d="M416.001,350.75v-9.174h2.943c1.345,0,2.423,0.416,3.234,1.248s1.218,1.945,1.218,3.34
			s-0.406,2.508-1.218,3.339s-1.89,1.247-3.234,1.247H416.001z M417.181,349.689h1.749c1.035,0,1.845-0.316,2.428-0.949
			c0.582-0.632,0.874-1.49,0.874-2.576s-0.294-1.947-0.882-2.585s-1.395-0.956-2.42-0.956h-1.749V349.689z"/>
	</g>
	<g>
		<rect x="453.047" y="341.039" fill="none" width="12.451" height="10.791"/>
		<path fill="#231F20" d="M456.516,341.576h5.842v1.047h-4.677v2.898h4.243v1.045h-4.243v3.123h4.677v1.061h-5.842V341.576z"/>
	</g>
	<g>
		<rect x="323.561" y="375.883" fill="none" width="12.449" height="12.486"/>
		<path fill="#231F20" d="M327.028,376.42h5.842v1.046h-4.677v2.898h4.243v1.046h-4.243v3.123h4.677v1.061h-5.842V376.42z"/>
	</g>
	<g>
		<rect x="413.619" y="376.128" fill="none" width="12.451" height="12.485"/>
		<path fill="#FFFFFF" d="M422.729,382.328h-2.196v-1.017h3.316v0.628c0,1.215-0.351,2.191-1.053,2.929
			c-0.702,0.736-1.616,1.105-2.742,1.105c-1.215,0-2.221-0.434-3.018-1.3c-0.797-0.867-1.195-2.007-1.195-3.422
			c0-1.404,0.398-2.542,1.195-3.414c0.797-0.871,1.793-1.307,2.988-1.307c0.956,0,1.75,0.254,2.383,0.762s1.043,1.195,1.232,2.062
			h-1.18c-0.429-1.175-1.24-1.763-2.436-1.763c-0.896,0-1.621,0.336-2.174,1.008c-0.553,0.673-0.829,1.557-0.829,2.652
			s0.278,1.982,0.836,2.659c0.559,0.678,1.29,1.017,2.196,1.017c0.787,0,1.412-0.231,1.876-0.695
			C422.393,383.77,422.659,383.135,422.729,382.328z"/>
	</g>
</g>
<g>
</g>
<g>
</g>
<g>
</g>
<g>
</g>
<g>
</g>
<g>
</g>
</svg>
