<svg xmlns="http://www.w3.org/2000/svg" xmlns:xlink="http://www.w3.org/1999/xlink" height="288pt" version="1.1" viewBox="0 0 576 288" width="576pt">
 <defs>
  <clipPath id="pd17d8af51d">
   <rect height="223.2" width="446.4" x="72.0" y="28.8"/>
  </clipPath>
 </defs>
<defs>
  <style type="text/css">
*{stroke-linecap:butt;stroke-linejoin:round;}
  </style>
 </defs>
 <g id="figure_1">
  <g id="patch_1">
   <path d=" M0 288 L576 288 L576 0 L0 0 z " style="fill:#ffffff;"/>
  </g>
  <g id="axes_1">
   <g id="patch_2">
    <path d=" M72 252 L518.4 252 L518.4 28.8 L72 28.8 z " style="fill:#eaeaf2;"/>
   </g>
   <g id="matplotlib.axis_1">
    <g id="xtick_1">
     <g id="line2d_1">
      <path clip-path="url(#pd17d8af51d)" d=" M72 252 L72 28.8" style="fill:none;stroke:#ffffff;stroke-linecap:round;stroke-width:1.3;"/>
     </g>
     <g id="line2d_2">
      <defs>
       <path d=" M0 0 L0 0" id="m56cc5124a0" style="stroke:#262626;stroke-width:1.3;"/>
      </defs>
      <g>
       <use style="fill:#262626;stroke:#262626;stroke-width:1.3;" x="72.0" xlink:href="#m56cc5124a0" y="252.0"/>
      </g>
     </g>
     <g id="line2d_3">
      <g>
       <use style="fill:#262626;stroke:#262626;stroke-width:1.3;" x="72.0" xlink:href="#m56cc5124a0" y="28.8"/>
      </g>
     </g>
     <g id="text_1">
      <!-- &#8722;6 -->
      <defs>
       <path d=" M12.7031 19.5938 Q12.7031 13.5938 16.3906 9.6875 Q20.0938 5.79688 26 5.79688 Q31.7969 5.79688 35.5 9.64062 Q39.2031 13.5 39.2031 19.5938 Q39.2031 25.7031 35.5 29.6406 Q31.7969 33.5938 26 33.5938 Q20.0938 33.5938 16.3906 29.6875 Q12.7031 25.7969 12.7031 19.5938 M45.5938 47.0938 L37.7969 47.0938 Q35 55.7969 26.5 55.7969 Q19.7969 55.7969 15.3906 49.0469 Q11 42.2969 11 32.2969 Q11 32 11.0469 30.9531 Q11.0938 29.9062 11.0938 29.5938 Q12.5938 34.2969 16.8906 37.1875 Q21.2031 40.0938 26.5938 40.0938 Q35.2969 40.0938 40.8906 34.1406 Q46.5 28.2031 46.5 19.7031 Q46.5 11 40.7969 5.04688 Q35.0938 -0.90625 25.9062 -0.90625 Q13.4062 -0.90625 7.59375 10.7969 Q4 18.4062 4 29.5938 Q4 44.4062 10.25 53.3438 Q16.5 62.2969 26.5 62.2969 Q41.7031 62.2969 45.5938 47.0938" id="CalibreRegular-36"/>
       <path d=" M7.29688 26.5938 L7.29688 32.7969 L46.7031 32.7969 L46.7031 26.5938 z " id="CalibreRegular-2212"/>
      </defs>
      <g style="fill:#262626;" transform="translate(65.3359765625 270.395)scale(0.14300000000000002 -0.14300000000000002)">
       <use xlink:href="#CalibreRegular-2212"/>
       <use x="53.99998474121094" xlink:href="#CalibreRegular-36"/>
      </g>
     </g>
    </g>
    <g id="xtick_2">
     <g id="line2d_4">
      <path clip-path="url(#pd17d8af51d)" d=" M146.4 252 L146.4 28.8" style="fill:none;stroke:#ffffff;stroke-linecap:round;stroke-width:1.3;"/>
     </g>
     <g id="line2d_5">
      <g>
       <use style="fill:#262626;stroke:#262626;stroke-width:1.3;" x="146.4" xlink:href="#m56cc5124a0" y="252.0"/>
      </g>
     </g>
     <g id="line2d_6">
      <g>
       <use style="fill:#262626;stroke:#262626;stroke-width:1.3;" x="146.4" xlink:href="#m56cc5124a0" y="28.8"/>
      </g>
     </g>
     <g id="text_2">
      <!-- &#8722;4 -->
      <defs>
       <path d=" M33.7969 61.4062 L10.9062 20.5 L30.5 20.5 L30.5 35.2969 L37.7969 35.2969 L37.7969 20.5 L48.5938 20.5 L48.5938 13.9062 L37.7969 13.9062 L37.7969 0 L30.5 0 L30.5 13.9062 L2.20312 13.9062 L2.20312 19.5 L25.7969 61.4062 z " id="CalibreRegular-34"/>
      </defs>
      <g style="fill:#262626;" transform="translate(139.586273438 270.395)scale(0.14300000000000002 -0.14300000000000002)">
       <use xlink:href="#CalibreRegular-2212"/>
       <use x="53.99998474121094" xlink:href="#CalibreRegular-34"/>
      </g>
     </g>
    </g>
    <g id="xtick_3">
     <g id="line2d_7">
      <path clip-path="url(#pd17d8af51d)" d=" M220.8 252 L220.8 28.8" style="fill:none;stroke:#ffffff;stroke-linecap:round;stroke-width:1.3;"/>
     </g>
     <g id="line2d_8">
      <g>
       <use style="fill:#262626;stroke:#262626;stroke-width:1.3;" x="220.8" xlink:href="#m56cc5124a0" y="252.0"/>
      </g>
     </g>
     <g id="line2d_9">
      <g>
       <use style="fill:#262626;stroke:#262626;stroke-width:1.3;" x="220.8" xlink:href="#m56cc5124a0" y="28.8"/>
      </g>
     </g>
     <g id="text_3">
      <!-- &#8722;2 -->
      <defs>
       <path d=" M34.0938 44.9062 Q34.0938 49.5938 31.0938 52.4375 Q28.0938 55.2969 23 55.2969 Q17.5938 55.2969 14.5469 51.9375 Q11.5 48.5938 11 43 L2.90625 43 Q3.79688 51.7031 9.1875 57 Q14.5938 62.2969 23 62.2969 Q31.7031 62.2969 36.7031 57.5938 Q41.7031 52.9062 41.7031 45 Q41.7031 43.5938 41.3438 42.0938 Q41 40.5938 40.6406 39.5 Q40.2969 38.4062 39.3438 36.75 Q38.4062 35.0938 37.9062 34.2969 Q37.4062 33.5 35.9062 31.7031 Q34.4062 29.9062 33.9062 29.2969 Q33.4062 28.7031 31.5469 26.6406 Q29.7031 24.5938 29.2969 24.0938 L13.7031 7 L43 7 L43 0 L2.90625 0 L2.90625 5.20312 L22.7031 27 Q27.2031 32 28.7969 33.7969 Q30.4062 35.5938 32.25 38.8906 Q34.0938 42.2031 34.0938 44.9062" id="CalibreRegular-32"/>
      </defs>
      <g style="fill:#262626;" transform="translate(214.386226563 270.395)scale(0.14300000000000002 -0.14300000000000002)">
       <use xlink:href="#CalibreRegular-2212"/>
       <use x="53.99998474121094" xlink:href="#CalibreRegular-32"/>
      </g>
     </g>
    </g>
    <g id="xtick_4">
     <g id="line2d_10">
      <path clip-path="url(#pd17d8af51d)" d=" M295.2 252 L295.2 28.8" style="fill:none;stroke:#ffffff;stroke-linecap:round;stroke-width:1.3;"/>
     </g>
     <g id="line2d_11">
      <g>
       <use style="fill:#262626;stroke:#262626;stroke-width:1.3;" x="295.2" xlink:href="#m56cc5124a0" y="252.0"/>
      </g>
     </g>
     <g id="line2d_12">
      <g>
       <use style="fill:#262626;stroke:#262626;stroke-width:1.3;" x="295.2" xlink:href="#m56cc5124a0" y="28.8"/>
      </g>
     </g>
     <g id="text_4">
      <!-- 0 -->
      <defs>
       <path d=" M49.7969 16.5938 Q37.0938 -0.90625 26.8906 -0.90625 Q16.7031 -0.90625 10.3438 7.84375 Q4 16.5938 4 30.6875 Q4 44.7969 10.3438 53.5469 Q16.7031 62.2969 26.8906 62.2969 Q37.0938 62.2969 43.4375 53.5469 Q49.7969 44.7969 49.7969 30.6875 Q49.7969 16.5938 37.0938 -0.90625 M26.9062 55.2031 Q19.5938 55.2031 15.6406 48.5 Q11.7031 41.7969 11.7031 30.6875 Q11.7031 19.5938 15.6406 12.8906 Q19.5938 6.20312 26.9062 6.20312 Q34.0938 6.20312 38.0938 12.9531 Q42.0938 19.7031 42.0938 30.7031 Q42.0938 41.7031 38.0938 48.4531 Q34.0938 55.2031 26.9062 55.2031" id="CalibreRegular-30"/>
      </defs>
      <g style="fill:#262626;" transform="translate(291.925523437 270.395)scale(0.14300000000000002 -0.14300000000000002)">
       <use xlink:href="#CalibreRegular-30"/>
      </g>
     </g>
    </g>
    <g id="xtick_5">
     <g id="line2d_13">
      <path clip-path="url(#pd17d8af51d)" d=" M369.6 252 L369.6 28.8" style="fill:none;stroke:#ffffff;stroke-linecap:round;stroke-width:1.3;"/>
     </g>
     <g id="line2d_14">
      <g>
       <use style="fill:#262626;stroke:#262626;stroke-width:1.3;" x="369.6" xlink:href="#m56cc5124a0" y="252.0"/>
      </g>
     </g>
     <g id="line2d_15">
      <g>
       <use style="fill:#262626;stroke:#262626;stroke-width:1.3;" x="369.6" xlink:href="#m56cc5124a0" y="28.8"/>
      </g>
     </g>
     <g id="text_5">
      <!-- 2 -->
      <g style="fill:#262626;" transform="translate(366.733296875 270.395)scale(0.14300000000000002 -0.14300000000000002)">
       <use xlink:href="#CalibreRegular-32"/>
      </g>
     </g>
    </g>
    <g id="xtick_6">
     <g id="line2d_16">
      <path clip-path="url(#pd17d8af51d)" d=" M444 252 L444 28.8" style="fill:none;stroke:#ffffff;stroke-linecap:round;stroke-width:1.3;"/>
     </g>
     <g id="line2d_17">
      <g>
       <use style="fill:#262626;stroke:#262626;stroke-width:1.3;" x="444.0" xlink:href="#m56cc5124a0" y="252.0"/>
      </g>
     </g>
     <g id="line2d_18">
      <g>
       <use style="fill:#262626;stroke:#262626;stroke-width:1.3;" x="444.0" xlink:href="#m56cc5124a0" y="28.8"/>
      </g>
     </g>
     <g id="text_6">
      <!-- 4 -->
      <g style="fill:#262626;" transform="translate(440.683070312 270.395)scale(0.14300000000000002 -0.14300000000000002)">
       <use xlink:href="#CalibreRegular-34"/>
      </g>
     </g>
    </g>
    <g id="xtick_7">
     <g id="line2d_19">
      <path clip-path="url(#pd17d8af51d)" d=" M518.4 252 L518.4 28.8" style="fill:none;stroke:#ffffff;stroke-linecap:round;stroke-width:1.3;"/>
     </g>
     <g id="line2d_20">
      <g>
       <use style="fill:#262626;stroke:#262626;stroke-width:1.3;" x="518.4" xlink:href="#m56cc5124a0" y="252.0"/>
      </g>
     </g>
     <g id="line2d_21">
      <g>
       <use style="fill:#262626;stroke:#262626;stroke-width:1.3;" x="518.4" xlink:href="#m56cc5124a0" y="28.8"/>
      </g>
     </g>
     <g id="text_7">
      <!-- 6 -->
      <g style="fill:#262626;" transform="translate(515.36125 270.395)scale(0.14300000000000002 -0.14300000000000002)">
       <use xlink:href="#CalibreRegular-36"/>
      </g>
     </g>
    </g>
   </g>
   <g id="matplotlib.axis_2">
    <g id="ytick_1">
     <g id="line2d_22">
      <path clip-path="url(#pd17d8af51d)" d=" M72 249.812 L518.4 249.812" style="fill:none;stroke:#ffffff;stroke-linecap:round;stroke-width:1.3;"/>
     </g>
     <g id="line2d_23">
      <g>
       <use style="fill:#262626;stroke:#262626;stroke-width:1.3;" x="72.0" xlink:href="#m56cc5124a0" y="249.811764706"/>
      </g>
     </g>
     <g id="line2d_24">
      <g>
       <use style="fill:#262626;stroke:#262626;stroke-width:1.3;" x="518.4" xlink:href="#m56cc5124a0" y="249.811764706"/>
      </g>
     </g>
     <g id="text_8">
      <!-- 0.0 -->
      <defs>
       <path d=" M6.29688 -0.5 Q3.20312 2.59375 3.20312 4.89062 Q3.20312 7.20312 4.75 8.79688 Q6.29688 10.4062 8.59375 10.4062 Q10.7969 10.4062 12.3438 8.79688 Q13.9062 7.20312 13.9062 4.89062 Q13.9062 2.59375 12.3438 1.04688 Q10.7969 -0.5 8.59375 -0.5 Q6.29688 -0.5 3.20312 2.59375" id="CalibreRegular-2e"/>
      </defs>
      <g style="fill:#262626;" transform="translate(46.2136875 253.243764706)scale(0.14300000000000002 -0.14300000000000002)">
       <use xlink:href="#CalibreRegular-30"/>
       <use x="53.79998779296875" xlink:href="#CalibreRegular-2e"/>
       <use x="70.89997863769531" xlink:href="#CalibreRegular-30"/>
      </g>
     </g>
    </g>
    <g id="ytick_2">
     <g id="line2d_25">
      <path clip-path="url(#pd17d8af51d)" d=" M72 206.047 L518.4 206.047" style="fill:none;stroke:#ffffff;stroke-linecap:round;stroke-width:1.3;"/>
     </g>
     <g id="line2d_26">
      <g>
       <use style="fill:#262626;stroke:#262626;stroke-width:1.3;" x="72.0" xlink:href="#m56cc5124a0" y="206.047058824"/>
      </g>
     </g>
     <g id="line2d_27">
      <g>
       <use style="fill:#262626;stroke:#262626;stroke-width:1.3;" x="518.4" xlink:href="#m56cc5124a0" y="206.047058824"/>
      </g>
     </g>
     <g id="text_9">
      <!-- 0.2 -->
      <g style="fill:#262626;" transform="translate(47.185640625 209.479058824)scale(0.14300000000000002 -0.14300000000000002)">
       <use xlink:href="#CalibreRegular-30"/>
       <use x="53.79998779296875" xlink:href="#CalibreRegular-2e"/>
       <use x="70.89997863769531" xlink:href="#CalibreRegular-32"/>
      </g>
     </g>
    </g>
    <g id="ytick_3">
     <g id="line2d_28">
      <path clip-path="url(#pd17d8af51d)" d=" M72 162.282 L518.4 162.282" style="fill:none;stroke:#ffffff;stroke-linecap:round;stroke-width:1.3;"/>
     </g>
     <g id="line2d_29">
      <g>
       <use style="fill:#262626;stroke:#262626;stroke-width:1.3;" x="72.0" xlink:href="#m56cc5124a0" y="162.282352941"/>
      </g>
     </g>
     <g id="line2d_30">
      <g>
       <use style="fill:#262626;stroke:#262626;stroke-width:1.3;" x="518.4" xlink:href="#m56cc5124a0" y="162.282352941"/>
      </g>
     </g>
     <g id="text_10">
      <!-- 0.4 -->
      <g style="fill:#262626;" transform="translate(46.385734375 165.714352941)scale(0.14300000000000002 -0.14300000000000002)">
       <use xlink:href="#CalibreRegular-30"/>
       <use x="53.79998779296875" xlink:href="#CalibreRegular-2e"/>
       <use x="70.89997863769531" xlink:href="#CalibreRegular-34"/>
      </g>
     </g>
    </g>
    <g id="ytick_4">
     <g id="line2d_31">
      <path clip-path="url(#pd17d8af51d)" d=" M72 118.518 L518.4 118.518" style="fill:none;stroke:#ffffff;stroke-linecap:round;stroke-width:1.3;"/>
     </g>
     <g id="line2d_32">
      <g>
       <use style="fill:#262626;stroke:#262626;stroke-width:1.3;" x="72.0" xlink:href="#m56cc5124a0" y="118.517647059"/>
      </g>
     </g>
     <g id="line2d_33">
      <g>
       <use style="fill:#262626;stroke:#262626;stroke-width:1.3;" x="518.4" xlink:href="#m56cc5124a0" y="118.517647059"/>
      </g>
     </g>
     <g id="text_11">
      <!-- 0.6 -->
      <g style="fill:#262626;" transform="translate(46.685140625 121.949647059)scale(0.14300000000000002 -0.14300000000000002)">
       <use xlink:href="#CalibreRegular-30"/>
       <use x="53.79998779296875" xlink:href="#CalibreRegular-2e"/>
       <use x="70.89997863769531" xlink:href="#CalibreRegular-36"/>
      </g>
     </g>
    </g>
    <g id="ytick_5">
     <g id="line2d_34">
      <path clip-path="url(#pd17d8af51d)" d=" M72 74.7529 L518.4 74.7529" style="fill:none;stroke:#ffffff;stroke-linecap:round;stroke-width:1.3;"/>
     </g>
     <g id="line2d_35">
      <g>
       <use style="fill:#262626;stroke:#262626;stroke-width:1.3;" x="72.0" xlink:href="#m56cc5124a0" y="74.7529411765"/>
      </g>
     </g>
     <g id="line2d_36">
      <g>
       <use style="fill:#262626;stroke:#262626;stroke-width:1.3;" x="518.4" xlink:href="#m56cc5124a0" y="74.7529411765"/>
      </g>
     </g>
     <g id="text_12">
      <!-- 0.8 -->
      <defs>
       <path d=" M24.2969 5.5 Q30.2031 5.5 33.9531 8.79688 Q37.7031 12.0938 37.7031 17.2969 Q37.7031 22.5 33.9531 25.75 Q30.2031 29 24.2969 29 Q18.5 29 14.75 25.75 Q11 22.5 11 17.2969 Q11 12.0938 14.75 8.79688 Q18.5 5.5 24.2969 5.5 M24.2969 35.5938 Q29.2031 35.5938 32.3906 38.3906 Q35.5938 41.2031 35.5938 45.7031 Q35.5938 50.2031 32.3906 53.0469 Q29.2031 55.9062 24.2969 55.9062 Q19.5 55.9062 16.2969 53.0469 Q13.0938 50.2031 13.0938 45.7031 Q13.0938 41.2969 16.2969 38.4375 Q19.5 35.5938 24.2969 35.5938 M24.2969 -0.90625 Q15.2969 -0.90625 9.34375 4 Q3.40625 8.90625 3.40625 16.7031 Q3.40625 22.5 6.75 26.7031 Q10.0938 30.9062 15.4062 32.2969 Q11 33.7969 8.29688 37.5 Q5.59375 41.2031 5.59375 46.0938 Q5.59375 53.4062 10.9375 57.8438 Q16.2969 62.2969 24.2969 62.2969 Q32.4062 62.2969 37.75 57.8438 Q43.0938 53.4062 43.0938 46.0938 Q43.0938 41.2031 40.3438 37.5469 Q37.5938 33.9062 33.2969 32.2969 Q38.5 30.9062 41.8906 26.7031 Q45.2969 22.5 45.2969 16.7031 Q45.2969 8.90625 39.3438 4 Q33.4062 -0.90625 24.2969 -0.90625" id="CalibreRegular-38"/>
      </defs>
      <g style="fill:#262626;" transform="translate(46.8571875 78.1849411765)scale(0.14300000000000002 -0.14300000000000002)">
       <use xlink:href="#CalibreRegular-30"/>
       <use x="53.79998779296875" xlink:href="#CalibreRegular-2e"/>
       <use x="70.89997863769531" xlink:href="#CalibreRegular-38"/>
      </g>
     </g>
    </g>
    <g id="ytick_6">
     <g id="line2d_37">
      <path clip-path="url(#pd17d8af51d)" d=" M72 30.9882 L518.4 30.9882" style="fill:none;stroke:#ffffff;stroke-linecap:round;stroke-width:1.3;"/>
     </g>
     <g id="line2d_38">
      <g>
       <use style="fill:#262626;stroke:#262626;stroke-width:1.3;" x="72.0" xlink:href="#m56cc5124a0" y="30.9882352941"/>
      </g>
     </g>
     <g id="line2d_39">
      <g>
       <use style="fill:#262626;stroke:#262626;stroke-width:1.3;" x="518.4" xlink:href="#m56cc5124a0" y="30.9882352941"/>
      </g>
     </g>
     <g id="text_13">
      <!-- 1.0 -->
      <defs>
       <path d=" M25.4062 61.5 L25.4062 0 L17.7031 0 L17.7031 52 L2.5 44.2031 L2.5 52.2031 L20.7031 61.5 z " id="CalibreRegular-31"/>
      </defs>
      <g style="fill:#262626;" transform="translate(48.986546875 34.4202352941)scale(0.14300000000000002 -0.14300000000000002)">
       <use xlink:href="#CalibreRegular-31"/>
       <use x="32.899993896484375" xlink:href="#CalibreRegular-2e"/>
       <use x="49.99998474121094" xlink:href="#CalibreRegular-30"/>
      </g>
     </g>
    </g>
    <g id="text_14">
     <!-- Cumulative probability -->
     <defs>
      <path d=" M38.9062 0 L31.7031 0 L31.7031 3.29688 Q30.2969 1.79688 27 0.5 Q23.7031 -0.796875 20 -0.796875 Q13 -0.796875 8.25 3.09375 Q3.5 7 3.5 13.4062 Q3.5 19.5 8.39062 23.3906 Q13.2969 27.2969 20.5 27.2969 Q23.7969 27.2969 27 26.1875 Q30.2031 25.0938 31.7031 23.7031 L31.7031 29.2969 Q31.7031 33.5938 29.1406 36.1875 Q26.5938 38.7969 21.9062 38.7969 Q14.9062 38.7969 12.7969 32.7031 L5.40625 32.7031 Q6.5 38.2969 11.0469 41.7969 Q15.5938 45.2969 22 45.2969 Q29.9062 45.2969 34.4062 41.0938 Q38.9062 36.9062 38.9062 29.5938 z  M31.7031 11 L31.7031 15.5938 Q30.7031 18 27.75 19.5469 Q24.7969 21.0938 21.2969 21.0938 Q16.9062 21.0938 13.7969 19.0938 Q10.7031 17.0938 10.7031 13.4062 Q10.7031 9.59375 13.7969 7.54688 Q16.9062 5.5 21.2969 5.5 Q24.7969 5.5 27.75 7.04688 Q30.7031 8.59375 31.7031 11" id="CalibreRegular-61"/>
      <path d=" M34.7031 13.2969 L41.7969 13.2969 Q40.5938 6.79688 35.8906 2.9375 Q31.2031 -0.90625 23.9062 -0.90625 Q14.7969 -0.90625 9.14062 5.4375 Q3.5 11.7969 3.5 22.0938 Q3.5 32.2031 9.09375 38.75 Q14.7031 45.2969 23.7031 45.2969 Q32.5938 45.2969 37.5 39.3438 Q42.4062 33.4062 42.4062 23.5 L42.4062 20.7969 L11 20.7969 Q11.0938 13.7969 14.6406 9.64062 Q18.2031 5.5 23.9062 5.5 Q28.0938 5.5 30.9375 7.54688 Q33.7969 9.59375 34.7031 13.2969 M23.7969 38.9062 Q18.7969 38.9062 15.3906 35.5938 Q12 32.2969 11.2031 26.5 L34.7969 26.5 Q34.7031 31.7969 31.8906 35.3438 Q29.0938 38.9062 23.7969 38.9062" id="CalibreRegular-65"/>
      <path d=" M19.4062 -0.90625 Q3.70312 16.5938 3.70312 30.6875 Q3.70312 44.7969 11.5469 53.5469 Q19.4062 62.2969 31.2031 62.2969 Q40.7031 62.2969 46.9531 57.1875 Q53.2031 52.0938 55.0938 43.4062 L47.2969 43.4062 Q43.0938 55.2031 31.2031 55.2031 Q22.4062 55.2031 17 48.4531 Q11.5938 41.7031 11.5938 30.7031 Q11.5938 19.7969 17 13 Q22.4062 6.20312 31.2031 6.20312 Q43.2031 6.20312 47.2969 18.0938 L55.0938 18.0938 Q53.2031 9.29688 46.9531 4.1875 Q40.7031 -0.90625 31.2031 -0.90625 Q19.4062 -0.90625 3.70312 16.5938" id="CalibreRegular-43"/>
      <path d=" M33 45.2969 Q44.2969 32.4062 44.2969 22.2031 Q44.2969 12 38.6406 5.54688 Q33 -0.90625 23.8906 -0.90625 Q14.7969 -0.90625 9.14062 5.54688 Q3.5 12 3.5 22.2031 Q3.5 32.4062 9.14062 38.8438 Q14.7969 45.2969 23.8906 45.2969 Q33 45.2969 44.2969 32.4062 M29.7969 5.70312 Q36.7031 14.7969 36.7031 22.1875 Q36.7031 29.5938 33.25 34.1406 Q29.7969 38.7031 23.8906 38.7031 Q18 38.7031 14.5469 34.1406 Q11.0938 29.5938 11.0938 22.1875 Q11.0938 14.7969 14.5469 10.25 Q18 5.70312 23.8906 5.70312 Q29.7969 5.70312 36.7031 14.7969" id="CalibreRegular-6f"/>
      <path d=" M19.7969 -17 L12.4062 -17 L19.0938 -0.296875 L1.79688 44.4062 L9.90625 44.4062 L23 9.40625 L35.9062 44.4062 L43.7031 44.4062 z " id="CalibreRegular-79"/>
      <path d=" M14.2031 5.20312 L14.2031 0 L6.59375 0 L6.59375 65 L14.2031 65 L14.2031 39.2031 Q16 41.7969 19.3906 43.5469 Q22.7969 45.2969 26.7031 45.2969 Q36.0938 45.2969 41.3906 38.6406 Q46.7031 32 46.7031 22.2031 Q46.7031 12.2969 41.3906 5.6875 Q36.0938 -0.90625 26.7031 -0.90625 Q22.7969 -0.90625 19.3906 0.84375 Q16 2.59375 14.2031 5.20312 M14.2031 31.2031 L14.2031 13.2031 Q15.9062 9.79688 18.9531 7.84375 Q22 5.90625 25.5938 5.90625 Q31.7969 5.90625 35.4375 10.4531 Q39.0938 15 39.0938 22.2031 Q39.0938 29.4062 35.4375 33.9531 Q31.7969 38.5 25.5938 38.5 Q22 38.5 18.9531 36.5469 Q15.9062 34.5938 14.2031 31.2031" id="CalibreRegular-62"/>
      <path d=" M38.2031 38.2031 Q43.2031 45.2969 51.7031 45.2969 Q58.4062 45.2969 62.0469 41 Q65.7031 36.7031 65.7031 29.4062 L65.7031 0 L58.0938 0 L58.0938 28.2031 Q58.0938 33 56 35.75 Q53.9062 38.5 49.7031 38.5 Q46.2969 38.5 43.5938 36.3438 Q40.9062 34.2031 39.9062 30.5938 L39.9062 0 L32.4062 0 L32.4062 28.2031 Q32.4062 33 30.2969 35.75 Q28.2031 38.5 24 38.5 Q20.5938 38.5 17.8906 36.3438 Q15.2031 34.2031 14.2031 30.5938 L14.2031 0 L6.70312 0 L6.70312 44.4062 L14.2031 44.4062 L14.2031 39.2031 Q18 45.2969 26.2031 45.2969 Q34.5938 45.2969 38.2031 38.2031" id="CalibreRegular-6d"/>
      <path d=" M29.5 44.5938 L29.5 36.9062 Q27.7031 38.0938 24.5 38.0938 Q20.9062 38.0938 18.0938 35.8906 Q15.2969 33.7031 14.2031 29.7969 L14.2031 0 L6.70312 0 L6.70312 44.4062 L14.2031 44.4062 L14.2031 38.5938 Q15.7031 41.5 18.6406 43.3906 Q21.5938 45.2969 25.2031 45.2969 Q28.0938 45.2969 29.5 44.5938" id="CalibreRegular-72"/>
      <path d=" M14.2031 5.20312 L14.2031 -17 L6.70312 -17 L6.70312 44.4062 L14.2031 44.4062 L14.2031 39.2031 Q16.0938 41.7969 19.4375 43.5469 Q22.7969 45.2969 26.7031 45.2969 Q36.0938 45.2969 41.3906 38.6406 Q46.7031 32 46.7031 22.2031 Q46.7031 12.4062 41.3906 5.75 Q36.0938 -0.90625 26.7031 -0.90625 Q22.7969 -0.90625 19.4375 0.84375 Q16.0938 2.59375 14.2031 5.20312 M14.2031 31.2031 L14.2031 13.2031 Q15.9062 9.79688 18.9531 7.84375 Q22 5.90625 25.5938 5.90625 Q31.7969 5.90625 35.4375 10.4531 Q39.0938 15 39.0938 22.2031 Q39.0938 29.4062 35.4375 33.9531 Q31.7969 38.5 25.5938 38.5 Q22 38.5 18.9531 36.5469 Q15.9062 34.5938 14.2031 31.2031" id="CalibreRegular-70"/>
      <path d=" M14.2031 65 L14.2031 0 L6.70312 0 L6.70312 65 z " id="CalibreRegular-6c"/>
      <path id="CalibreRegular-20"/>
      <path d=" M42.0938 44.4062 L42.0938 0 L34.5 0 L34.5 5.59375 Q32.5 2.79688 29.0938 0.9375 Q25.7031 -0.90625 21.5938 -0.90625 Q14.2031 -0.90625 10.1406 3.5 Q6.09375 7.90625 6.09375 15.2969 L6.09375 44.4062 L13.7031 44.4062 L13.7031 16.5 Q13.7031 11.5938 16.0938 8.79688 Q18.5 6 23.4062 6 Q27.2031 6 30.25 8.29688 Q33.2969 10.5938 34.5 14.2969 L34.5 44.4062 z " id="CalibreRegular-75"/>
      <path d=" M14.2031 44.4062 L14.2031 0 L6.70312 0 L6.70312 44.4062 z  M12.4062 62.5938 Q15.2969 59.7969 15.2969 57.7969 Q15.2969 55.7969 13.8438 54.3906 Q12.4062 53 10.4062 53 Q8.40625 53 7 54.3906 Q5.59375 55.7969 5.59375 57.7969 Q5.59375 59.7969 7 61.1875 Q8.40625 62.5938 10.4062 62.5938 Q12.4062 62.5938 15.2969 59.7969" id="CalibreRegular-69"/>
      <path d=" M26.4062 0 L19 0 L1.79688 44.4062 L9.90625 44.4062 L22.9062 9.5 L35.7969 44.4062 L43.7031 44.4062 z " id="CalibreRegular-76"/>
      <path d=" M8.79688 11.2031 L8.79688 38 L1.59375 38 L1.59375 44.4062 L8.79688 44.4062 L8.79688 56.0938 L16.2969 56.0938 L16.2969 44.4062 L27 44.4062 L27 38 L16.2969 38 L16.2969 12 Q16.2969 5.79688 22.2031 5.79688 Q25.2969 5.79688 28 7.59375 L28 0.59375 Q25.2031 -0.90625 21 -0.90625 Q15.4062 -0.90625 12.0938 2.14062 Q8.79688 5.20312 8.79688 11.2031" id="CalibreRegular-74"/>
     </defs>
     <g style="fill:#262626;" transform="translate(38.5395875 209.072510156)rotate(-90.0)scale(0.15730000000000002 -0.15730000000000002)">
      <use xlink:href="#CalibreRegular-43"/>
      <use x="58.59999084472656" xlink:href="#CalibreRegular-75"/>
      <use x="107.29998779296875" xlink:href="#CalibreRegular-6d"/>
      <use x="178.99996948242188" xlink:href="#CalibreRegular-75"/>
      <use x="227.69996643066406" xlink:href="#CalibreRegular-6c"/>
      <use x="248.59996032714844" xlink:href="#CalibreRegular-61"/>
      <use x="293.5999450683594" xlink:href="#CalibreRegular-74"/>
      <use x="325.29994201660156" xlink:href="#CalibreRegular-69"/>
      <use x="346.19993591308594" xlink:href="#CalibreRegular-76"/>
      <use x="391.6999206542969" xlink:href="#CalibreRegular-65"/>
      <use x="437.39991760253906" xlink:href="#CalibreRegular-20"/>
      <use x="459.4999084472656" xlink:href="#CalibreRegular-70"/>
      <use x="509.6999053955078" xlink:href="#CalibreRegular-72"/>
      <use x="541.7998962402344" xlink:href="#CalibreRegular-6f"/>
      <use x="589.5998840332031" xlink:href="#CalibreRegular-62"/>
      <use x="639.7998809814453" xlink:href="#CalibreRegular-61"/>
      <use x="684.7998657226562" xlink:href="#CalibreRegular-62"/>
      <use x="734.9998626708984" xlink:href="#CalibreRegular-69"/>
      <use x="755.8998565673828" xlink:href="#CalibreRegular-6c"/>
      <use x="776.7998504638672" xlink:href="#CalibreRegular-69"/>
      <use x="797.6998443603516" xlink:href="#CalibreRegular-74"/>
      <use x="829.3998413085938" xlink:href="#CalibreRegular-79"/>
     </g>
    </g>
   </g>
   <g id="line2d_40">
    <path clip-path="url(#pd17d8af51d)" d=" M72 249.812 L518.4 249.812" style="fill:none;stroke:#dcdce6;stroke-linecap:round;stroke-width:2;"/>
   </g>
   <g id="line2d_41">
    <path clip-path="url(#pd17d8af51d)" d=" M295.2 252 L295.2 28.8" style="fill:none;stroke:#dcdce6;stroke-linecap:round;stroke-width:2;"/>
   </g>
   <g id="patch_3">
    <path d=" M518.4 252 L518.4 28.8" style="fill:none;"/>
   </g>
   <g id="patch_4">
    <path d=" M72 28.8 L518.4 28.8" style="fill:none;"/>
   </g>
   <g id="patch_5">
    <path d=" M72 252 L72 28.8" style="fill:none;"/>
   </g>
   <g id="patch_6">
    <path d=" M72 252 L518.4 252" style="fill:none;"/>
   </g>
   <g id="Quiver_1">
    <path clip-path="url(#pd17d8af51d)" d=" M72 41.0366 L347.429 41.0366 L347.429 38.3582 L351 41.9294 L347.429 45.5006 L347.429 42.8222 L72 42.8222 L72 41.0366" style="fill:#ff1614;"/>
    <path clip-path="url(#pd17d8af51d)" d=" M351.893 50.6824 L351.893 246.241 L354.571 246.241 L351 249.812 L347.429 246.241 L350.107 246.241 L350.107 50.6824 L351.893 50.6824" style="fill:#ff1614;"/>
    <path clip-path="url(#pd17d8af51d)" d=" M72 237.978 L224.669 237.978 L224.669 235.299 L228.24 238.871 L224.669 242.442 L224.669 239.763 L72 239.763 L72 237.978" style="fill:#ff1614;"/>
    <path clip-path="url(#pd17d8af51d)" d=" M229.133 243.247 L229.133 246.241 L231.811 246.241 L228.24 249.812 L224.669 246.241 L227.347 246.241 L227.347 243.247 L229.133 243.247" style="fill:#ff1614;"/>
   </g>
   <g id="text_15">
    <!-- 90% confidence interval with the CDF -->
    <defs>
     <path d=" M15.2031 7.09375 L26.9062 7.09375 Q37.2969 7.09375 43.1406 13.4375 Q49 19.7969 49 30.6875 Q49 41.5938 43.0938 48 Q37.2031 54.4062 26.9062 54.4062 L15.2031 54.4062 z  M7.29688 0 L7.29688 61.4062 L27 61.4062 Q40.5 61.4062 48.6406 53.0469 Q56.7969 44.7031 56.7969 30.7031 Q56.7969 16.7031 48.6406 8.34375 Q40.5 0 27 0 z " id="CalibreRegular-44"/>
     <path d=" M9.90625 0 L48.2031 61.4062 L54.4062 61.4062 L16.0938 0 z  M13.5 56.5 Q9.20312 52.0938 9.20312 49 Q9.20312 45.9062 11.3438 43.75 Q13.5 41.5938 16.5938 41.5938 Q19.7031 41.5938 21.8906 43.75 Q24.0938 45.9062 24.0938 49 Q24.0938 52.0938 21.8906 54.2969 Q19.7031 56.5 16.5938 56.5 Q13.5 56.5 9.20312 52.0938 M53.2031 25.7031 Q60.9062 18 60.9062 12.3906 Q60.9062 6.79688 57.0469 2.9375 Q53.2031 -0.90625 47.5938 -0.90625 Q42 -0.90625 38.1406 2.9375 Q34.2969 6.79688 34.2969 12.3906 Q34.2969 18 38.1406 21.8438 Q42 25.7031 47.5938 25.7031 Q53.2031 25.7031 60.9062 18 M22.2031 62.2969 Q29.9062 54.5938 29.9062 49 Q29.9062 43.4062 26.0469 39.5469 Q22.2031 35.7031 16.5938 35.7031 Q11 35.7031 7.14062 39.5469 Q3.29688 43.4062 3.29688 49 Q3.29688 54.5938 7.14062 58.4375 Q11 62.2969 16.5938 62.2969 Q22.2031 62.2969 29.9062 54.5938 M50.7031 4.90625 Q55 9.29688 55 12.3906 Q55 15.5 52.8438 17.6406 Q50.7031 19.7969 47.5938 19.7969 Q44.5 19.7969 42.2969 17.6406 Q40.0938 15.5 40.0938 12.3906 Q40.0938 9.29688 42.2969 7.09375 Q44.5 4.90625 47.5938 4.90625 Q50.7031 4.90625 55 9.29688" id="CalibreRegular-25"/>
     <path d=" M14.7031 -0.90625 Q3.5 11.9062 3.5 22.2031 Q3.5 32.5 9.09375 38.8906 Q14.7031 45.2969 23.7031 45.2969 Q31 45.2969 35.6406 41.3906 Q40.2969 37.5 41.5 31 L33.7969 31 Q33 34.5938 30.3438 36.6406 Q27.7031 38.7031 23.7031 38.7031 Q18 38.7031 14.5469 34.0938 Q11.0938 29.5 11.0938 22.2031 Q11.0938 14.9062 14.5469 10.2969 Q18 5.70312 23.7031 5.70312 Q27.7031 5.70312 30.3438 7.75 Q33 9.79688 33.7969 13.4062 L41.5 13.4062 Q40.2969 6.90625 35.6406 3 Q31 -0.90625 23.7031 -0.90625 Q14.7031 -0.90625 3.5 11.9062" id="CalibreRegular-63"/>
     <path d=" M37.2969 41.7969 Q37.2969 47.7969 33.5938 51.6875 Q29.9062 55.5938 24 55.5938 Q18.2031 55.5938 14.5 51.75 Q10.7969 47.9062 10.7969 41.7969 Q10.7969 35.7031 14.5 31.75 Q18.2031 27.7969 24 27.7969 Q29.9062 27.7969 33.5938 31.6875 Q37.2969 35.5938 37.2969 41.7969 M4.40625 14.2969 L12.2031 14.2969 Q15 5.59375 23.5 5.59375 Q30.2031 5.59375 34.5938 12.3438 Q39 19.0938 39 29.0938 Q39 29.4062 38.9531 30.4531 Q38.9062 31.5 38.9062 31.7969 Q37.4062 27.0938 33.0938 24.1875 Q28.7969 21.2969 23.4062 21.2969 Q14.7031 21.2969 9.09375 27.25 Q3.5 33.2031 3.5 41.7031 Q3.5 50.4062 9.20312 56.3438 Q14.9062 62.2969 24.0938 62.2969 Q36.5938 62.2969 42.4062 50.5938 Q46 43 46 31.7969 Q46 17 39.75 8.04688 Q33.5 -0.90625 23.5 -0.90625 Q8.29688 -0.90625 4.40625 14.2969" id="CalibreRegular-39"/>
     <path d=" M15.2031 0 L7.29688 0 L7.29688 61.4062 L44.7969 61.4062 L44.7969 54.4062 L15.2031 54.4062 L15.2031 33.7031 L43 33.7031 L43 26.7031 L15.2031 26.7031 z " id="CalibreRegular-46"/>
     <path d=" M34.9062 44.4062 L44 10.5 L53.7969 44.4062 L61.0938 44.4062 L48 0 L40.7031 0 L31.5 33.7031 L22.2031 0 L14.9062 0 L1.79688 44.4062 L9.29688 44.4062 L19.0938 10.5 L28.2031 44.4062 z " id="CalibreRegular-77"/>
     <path d=" M36 0 L36 5.20312 Q34.2031 2.59375 30.7969 0.84375 Q27.4062 -0.90625 23.5 -0.90625 Q14.0938 -0.90625 8.79688 5.6875 Q3.5 12.2969 3.5 22.2031 Q3.5 32 8.79688 38.6406 Q14.0938 45.2969 23.5 45.2969 Q27.4062 45.2969 30.7969 43.5469 Q34.2031 41.7969 36 39.2031 L36 65 L43.5938 65 L43.5938 0 z  M36 13.2031 L36 31.2031 Q34.2969 34.5938 31.25 36.5469 Q28.2031 38.5 24.5938 38.5 Q18.4062 38.5 14.75 33.9531 Q11.0938 29.4062 11.0938 22.2031 Q11.0938 15 14.75 10.4531 Q18.4062 5.90625 24.5938 5.90625 Q28.2031 5.90625 31.25 7.84375 Q34.2969 9.79688 36 13.2031" id="CalibreRegular-64"/>
     <path d=" M6.70312 0 L6.70312 44.4062 L14.2031 44.4062 L14.2031 38.7969 Q16.2969 41.5938 19.75 43.4375 Q23.2031 45.2969 27.2969 45.2969 Q34.7031 45.2969 38.7969 40.8906 Q42.9062 36.5 42.9062 29.0938 L42.9062 0 L35.2969 0 L35.2969 27.9062 Q35.2969 32.7031 32.8438 35.5469 Q30.4062 38.4062 25.5 38.4062 Q21.5938 38.4062 18.5 36.0469 Q15.4062 33.7031 14.2031 30.0938 L14.2031 0 z " id="CalibreRegular-6e"/>
     <path d=" M28.9062 64.9062 L28.9062 58.0938 Q27 59.2969 24.2031 59.2969 Q20.7969 59.2969 18.8438 57.1875 Q16.9062 55.0938 16.9062 51.2031 L16.9062 44.4062 L26.9062 44.4062 L26.9062 38 L16.9062 38 L16.9062 0 L9.5 0 L9.5 38 L2 38 L2 44.4062 L9.5 44.4062 L9.5 51.7969 Q9.5 58.2969 13.2969 62.0938 Q17.0938 65.9062 23.0938 65.9062 Q26.5 65.9062 28.9062 64.9062" id="CalibreRegular-66"/>
     <path d=" M6.70312 0 L6.70312 65 L14.2031 65 L14.2031 38.7969 Q16.2969 41.5938 19.75 43.4375 Q23.2031 45.2969 27.2969 45.2969 Q34.7031 45.2969 38.7969 40.8906 Q42.9062 36.5 42.9062 29.0938 L42.9062 0 L35.2969 0 L35.2969 27.9062 Q35.2969 32.7031 32.8438 35.5469 Q30.4062 38.4062 25.5 38.4062 Q21.5938 38.4062 18.5 36.0469 Q15.4062 33.7031 14.2031 30.0938 L14.2031 0 z " id="CalibreRegular-68"/>
    </defs>
    <g style="fill:#262626;" transform="translate(170.78731875 23.8)scale(0.17160000000000003 -0.17160000000000003)">
     <use xlink:href="#CalibreRegular-39"/>
     <use x="49.99998474121094" xlink:href="#CalibreRegular-30"/>
     <use x="103.79997253417969" xlink:href="#CalibreRegular-25"/>
     <use x="167.99996948242188" xlink:href="#CalibreRegular-20"/>
     <use x="190.09996032714844" xlink:href="#CalibreRegular-63"/>
     <use x="234.699951171875" xlink:href="#CalibreRegular-6f"/>
     <use x="282.49993896484375" xlink:href="#CalibreRegular-6e"/>
     <use x="331.3999328613281" xlink:href="#CalibreRegular-66"/>
     <use x="360.2999267578125" xlink:href="#CalibreRegular-69"/>
     <use x="381.1999206542969" xlink:href="#CalibreRegular-64"/>
     <use x="431.39991760253906" xlink:href="#CalibreRegular-65"/>
     <use x="477.09991455078125" xlink:href="#CalibreRegular-6e"/>
     <use x="525.9999084472656" xlink:href="#CalibreRegular-63"/>
     <use x="570.5998992919922" xlink:href="#CalibreRegular-65"/>
     <use x="616.2998962402344" xlink:href="#CalibreRegular-20"/>
     <use x="638.3998870849609" xlink:href="#CalibreRegular-69"/>
     <use x="659.2998809814453" xlink:href="#CalibreRegular-6e"/>
     <use x="708.1998748779297" xlink:href="#CalibreRegular-74"/>
     <use x="739.8998718261719" xlink:href="#CalibreRegular-65"/>
     <use x="785.5998687744141" xlink:href="#CalibreRegular-72"/>
     <use x="817.6998596191406" xlink:href="#CalibreRegular-76"/>
     <use x="863.1998443603516" xlink:href="#CalibreRegular-61"/>
     <use x="908.1998291015625" xlink:href="#CalibreRegular-6c"/>
     <use x="929.0998229980469" xlink:href="#CalibreRegular-20"/>
     <use x="951.1998138427734" xlink:href="#CalibreRegular-77"/>
     <use x="1014.0998077392578" xlink:href="#CalibreRegular-69"/>
     <use x="1034.9998016357422" xlink:href="#CalibreRegular-74"/>
     <use x="1066.6997985839844" xlink:href="#CalibreRegular-68"/>
     <use x="1115.5997924804688" xlink:href="#CalibreRegular-20"/>
     <use x="1137.6997833251953" xlink:href="#CalibreRegular-74"/>
     <use x="1169.3997802734375" xlink:href="#CalibreRegular-68"/>
     <use x="1218.2997741699219" xlink:href="#CalibreRegular-65"/>
     <use x="1263.999771118164" xlink:href="#CalibreRegular-20"/>
     <use x="1286.0997619628906" xlink:href="#CalibreRegular-43"/>
     <use x="1344.6997528076172" xlink:href="#CalibreRegular-44"/>
     <use x="1405.1997375488281" xlink:href="#CalibreRegular-46"/>
    </g>
   </g>
   <g id="line2d_42">
    <path clip-path="url(#pd17d8af51d)" d=" M72 249.812 L172.541 249.705 L185.499 249.463 L193.989 249.099 L200.692 248.601 L206.054 248 L210.969 247.234 L215.438 246.308 L219.459 245.244 L223.034 244.08 L226.609 242.677 L229.737 241.229 L232.865 239.549 L235.993 237.615 L239.121 235.404 L242.249 232.895 L245.377 230.067 L248.505 226.902 L251.632 223.386 L254.76 219.505 L257.888 215.253 L261.016 210.627 L264.144 205.63 L267.719 199.475 L271.294 192.868 L275.315 184.934 L279.784 175.568 L284.699 164.719 L290.955 150.34 L307.041 113.074 L311.957 102.367 L316.425 93.1659 L320.447 85.4032 L324.022 78.9623 L327.596 72.9832 L330.724 68.1445 L333.852 63.679 L336.98 59.5869 L340.108 55.8633 L343.236 52.4989 L346.364 49.4805 L349.492 46.7915 L352.62 44.4129 L355.748 42.3237 L358.876 40.5016 L362.004 38.9235 L365.578 37.3894 L369.153 36.1101 L372.728 35.0532 L376.75 34.0918 L381.218 33.2597 L386.133 32.5755 L391.942 32.0064 L398.645 31.5816 L407.135 31.275 L419.2 31.0821 L441.095 30.9978 L518.4 30.9882 L518.4 30.9882" style="fill:none;stroke:#386df9;stroke-linecap:round;stroke-width:2.275;"/>
   </g>
  </g>
 </g>
 </svg>
