<svg xmlns="http://www.w3.org/2000/svg" xmlns:xlink="http://www.w3.org/1999/xlink" height="514pt" version="1.1" viewBox="0 0 748 514" width="748pt">
 <defs>
  <clipPath id="pd831f6c710">
   <rect height="398.97" width="580.32" x="93.6" y="51.48"/>
  </clipPath>
 </defs>
<defs>
  <style type="text/css">
*{stroke-linecap:butt;stroke-linejoin:round;}
  </style>
 </defs>
 <g id="figure_1">
  <g id="patch_1">
   <path d=" M0 514.8 L748.8 514.8 L748.8 0 L0 0 z " style="fill:#ffffff;"/>
  </g>
  <g id="axes_1">
   <g id="patch_2">
    <path d=" M93.6 450.45 L673.92 450.45 L673.92 51.48 L93.6 51.48 z " style="fill:#eaeaf2;"/>
   </g>
   <g id="matplotlib.axis_1">
    <g id="xtick_1">
     <g id="line2d_1">
      <path clip-path="url(#pd831f6c710)" d=" M93.6 450.45 L93.6 51.48" style="fill:none;stroke:#ffffff;stroke-linecap:round;stroke-width:1.3;"/>
     </g>
     <g id="line2d_2">
      <defs>
       <path d=" M0 0 L0 0" id="m56cc5124a0" style="stroke:#262626;stroke-width:1.3;"/>
      </defs>
      <g>
       <use style="fill:#262626;stroke:#262626;stroke-width:1.3;" x="93.6" xlink:href="#m56cc5124a0" y="450.45"/>
      </g>
     </g>
     <g id="line2d_3">
      <g>
       <use style="fill:#262626;stroke:#262626;stroke-width:1.3;" x="93.6" xlink:href="#m56cc5124a0" y="51.48"/>
      </g>
     </g>
     <g id="text_1">
      <!-- 0 -->
      <defs>
       <path d=" M49.7969 16.5938 Q37.0938 -0.90625 26.8906 -0.90625 Q16.7031 -0.90625 10.3438 7.84375 Q4 16.5938 4 30.6875 Q4 44.7969 10.3438 53.5469 Q16.7031 62.2969 26.8906 62.2969 Q37.0938 62.2969 43.4375 53.5469 Q49.7969 44.7969 49.7969 30.6875 Q49.7969 16.5938 37.0938 -0.90625 M26.9062 55.2031 Q19.5938 55.2031 15.6406 48.5 Q11.7031 41.7969 11.7031 30.6875 Q11.7031 19.5938 15.6406 12.8906 Q19.5938 6.20312 26.9062 6.20312 Q34.0938 6.20312 38.0938 12.9531 Q42.0938 19.7031 42.0938 30.7031 Q42.0938 41.7031 38.0938 48.4531 Q34.0938 55.2031 26.9062 55.2031" id="CalibreRegular-30"/>
      </defs>
      <g style="fill:#262626;" transform="translate(90.3255234375 468.845)scale(0.14300000000000002 -0.14300000000000002)">
       <use xlink:href="#CalibreRegular-30"/>
      </g>
     </g>
    </g>
    <g id="xtick_2">
     <g id="line2d_4">
      <path clip-path="url(#pd831f6c710)" d=" M166.14 450.45 L166.14 51.48" style="fill:none;stroke:#ffffff;stroke-linecap:round;stroke-width:1.3;"/>
     </g>
     <g id="line2d_5">
      <g>
       <use style="fill:#262626;stroke:#262626;stroke-width:1.3;" x="166.14" xlink:href="#m56cc5124a0" y="450.45"/>
      </g>
     </g>
     <g id="line2d_6">
      <g>
       <use style="fill:#262626;stroke:#262626;stroke-width:1.3;" x="166.14" xlink:href="#m56cc5124a0" y="51.48"/>
      </g>
     </g>
     <g id="text_2">
      <!-- 2 -->
      <defs>
       <path d=" M34.0938 44.9062 Q34.0938 49.5938 31.0938 52.4375 Q28.0938 55.2969 23 55.2969 Q17.5938 55.2969 14.5469 51.9375 Q11.5 48.5938 11 43 L2.90625 43 Q3.79688 51.7031 9.1875 57 Q14.5938 62.2969 23 62.2969 Q31.7031 62.2969 36.7031 57.5938 Q41.7031 52.9062 41.7031 45 Q41.7031 43.5938 41.3438 42.0938 Q41 40.5938 40.6406 39.5 Q40.2969 38.4062 39.3438 36.75 Q38.4062 35.0938 37.9062 34.2969 Q37.4062 33.5 35.9062 31.7031 Q34.4062 29.9062 33.9062 29.2969 Q33.4062 28.7031 31.5469 26.6406 Q29.7031 24.5938 29.2969 24.0938 L13.7031 7 L43 7 L43 0 L2.90625 0 L2.90625 5.20312 L22.7031 27 Q27.2031 32 28.7969 33.7969 Q30.4062 35.5938 32.25 38.8906 Q34.0938 42.2031 34.0938 44.9062" id="CalibreRegular-32"/>
      </defs>
      <g style="fill:#262626;" transform="translate(163.273296875 468.845)scale(0.14300000000000002 -0.14300000000000002)">
       <use xlink:href="#CalibreRegular-32"/>
      </g>
     </g>
    </g>
    <g id="xtick_3">
     <g id="line2d_7">
      <path clip-path="url(#pd831f6c710)" d=" M238.68 450.45 L238.68 51.48" style="fill:none;stroke:#ffffff;stroke-linecap:round;stroke-width:1.3;"/>
     </g>
     <g id="line2d_8">
      <g>
       <use style="fill:#262626;stroke:#262626;stroke-width:1.3;" x="238.68" xlink:href="#m56cc5124a0" y="450.45"/>
      </g>
     </g>
     <g id="line2d_9">
      <g>
       <use style="fill:#262626;stroke:#262626;stroke-width:1.3;" x="238.68" xlink:href="#m56cc5124a0" y="51.48"/>
      </g>
     </g>
     <g id="text_3">
      <!-- 4 -->
      <defs>
       <path d=" M33.7969 61.4062 L10.9062 20.5 L30.5 20.5 L30.5 35.2969 L37.7969 35.2969 L37.7969 20.5 L48.5938 20.5 L48.5938 13.9062 L37.7969 13.9062 L37.7969 0 L30.5 0 L30.5 13.9062 L2.20312 13.9062 L2.20312 19.5 L25.7969 61.4062 z " id="CalibreRegular-34"/>
      </defs>
      <g style="fill:#262626;" transform="translate(235.363070313 468.845)scale(0.14300000000000002 -0.14300000000000002)">
       <use xlink:href="#CalibreRegular-34"/>
      </g>
     </g>
    </g>
    <g id="xtick_4">
     <g id="line2d_10">
      <path clip-path="url(#pd831f6c710)" d=" M311.22 450.45 L311.22 51.48" style="fill:none;stroke:#ffffff;stroke-linecap:round;stroke-width:1.3;"/>
     </g>
     <g id="line2d_11">
      <g>
       <use style="fill:#262626;stroke:#262626;stroke-width:1.3;" x="311.22" xlink:href="#m56cc5124a0" y="450.45"/>
      </g>
     </g>
     <g id="line2d_12">
      <g>
       <use style="fill:#262626;stroke:#262626;stroke-width:1.3;" x="311.22" xlink:href="#m56cc5124a0" y="51.48"/>
      </g>
     </g>
     <g id="text_4">
      <!-- 6 -->
      <defs>
       <path d=" M12.7031 19.5938 Q12.7031 13.5938 16.3906 9.6875 Q20.0938 5.79688 26 5.79688 Q31.7969 5.79688 35.5 9.64062 Q39.2031 13.5 39.2031 19.5938 Q39.2031 25.7031 35.5 29.6406 Q31.7969 33.5938 26 33.5938 Q20.0938 33.5938 16.3906 29.6875 Q12.7031 25.7969 12.7031 19.5938 M45.5938 47.0938 L37.7969 47.0938 Q35 55.7969 26.5 55.7969 Q19.7969 55.7969 15.3906 49.0469 Q11 42.2969 11 32.2969 Q11 32 11.0469 30.9531 Q11.0938 29.9062 11.0938 29.5938 Q12.5938 34.2969 16.8906 37.1875 Q21.2031 40.0938 26.5938 40.0938 Q35.2969 40.0938 40.8906 34.1406 Q46.5 28.2031 46.5 19.7031 Q46.5 11 40.7969 5.04688 Q35.0938 -0.90625 25.9062 -0.90625 Q13.4062 -0.90625 7.59375 10.7969 Q4 18.4062 4 29.5938 Q4 44.4062 10.25 53.3438 Q16.5 62.2969 26.5 62.2969 Q41.7031 62.2969 45.5938 47.0938" id="CalibreRegular-36"/>
      </defs>
      <g style="fill:#262626;" transform="translate(308.18125 468.845)scale(0.14300000000000002 -0.14300000000000002)">
       <use xlink:href="#CalibreRegular-36"/>
      </g>
     </g>
    </g>
    <g id="xtick_5">
     <g id="line2d_13">
      <path clip-path="url(#pd831f6c710)" d=" M383.76 450.45 L383.76 51.48" style="fill:none;stroke:#ffffff;stroke-linecap:round;stroke-width:1.3;"/>
     </g>
     <g id="line2d_14">
      <g>
       <use style="fill:#262626;stroke:#262626;stroke-width:1.3;" x="383.76" xlink:href="#m56cc5124a0" y="450.45"/>
      </g>
     </g>
     <g id="line2d_15">
      <g>
       <use style="fill:#262626;stroke:#262626;stroke-width:1.3;" x="383.76" xlink:href="#m56cc5124a0" y="51.48"/>
      </g>
     </g>
     <g id="text_5">
      <!-- 8 -->
      <defs>
       <path d=" M24.2969 5.5 Q30.2031 5.5 33.9531 8.79688 Q37.7031 12.0938 37.7031 17.2969 Q37.7031 22.5 33.9531 25.75 Q30.2031 29 24.2969 29 Q18.5 29 14.75 25.75 Q11 22.5 11 17.2969 Q11 12.0938 14.75 8.79688 Q18.5 5.5 24.2969 5.5 M24.2969 35.5938 Q29.2031 35.5938 32.3906 38.3906 Q35.5938 41.2031 35.5938 45.7031 Q35.5938 50.2031 32.3906 53.0469 Q29.2031 55.9062 24.2969 55.9062 Q19.5 55.9062 16.2969 53.0469 Q13.0938 50.2031 13.0938 45.7031 Q13.0938 41.2969 16.2969 38.4375 Q19.5 35.5938 24.2969 35.5938 M24.2969 -0.90625 Q15.2969 -0.90625 9.34375 4 Q3.40625 8.90625 3.40625 16.7031 Q3.40625 22.5 6.75 26.7031 Q10.0938 30.9062 15.4062 32.2969 Q11 33.7969 8.29688 37.5 Q5.59375 41.2031 5.59375 46.0938 Q5.59375 53.4062 10.9375 57.8438 Q16.2969 62.2969 24.2969 62.2969 Q32.4062 62.2969 37.75 57.8438 Q43.0938 53.4062 43.0938 46.0938 Q43.0938 41.2031 40.3438 37.5469 Q37.5938 33.9062 33.2969 32.2969 Q38.5 30.9062 41.8906 26.7031 Q45.2969 22.5 45.2969 16.7031 Q45.2969 8.90625 39.3438 4 Q33.4062 -0.90625 24.2969 -0.90625" id="CalibreRegular-38"/>
      </defs>
      <g style="fill:#262626;" transform="translate(380.764820313 468.845)scale(0.14300000000000002 -0.14300000000000002)">
       <use xlink:href="#CalibreRegular-38"/>
      </g>
     </g>
    </g>
    <g id="xtick_6">
     <g id="line2d_16">
      <path clip-path="url(#pd831f6c710)" d=" M456.3 450.45 L456.3 51.48" style="fill:none;stroke:#ffffff;stroke-linecap:round;stroke-width:1.3;"/>
     </g>
     <g id="line2d_17">
      <g>
       <use style="fill:#262626;stroke:#262626;stroke-width:1.3;" x="456.3" xlink:href="#m56cc5124a0" y="450.45"/>
      </g>
     </g>
     <g id="line2d_18">
      <g>
       <use style="fill:#262626;stroke:#262626;stroke-width:1.3;" x="456.3" xlink:href="#m56cc5124a0" y="51.48"/>
      </g>
     </g>
     <g id="text_6">
      <!-- 10 -->
      <defs>
       <path d=" M25.4062 61.5 L25.4062 0 L17.7031 0 L17.7031 52 L2.5 44.2031 L2.5 52.2031 L20.7031 61.5 z " id="CalibreRegular-31"/>
      </defs>
      <g style="fill:#262626;" transform="translate(450.565476563 468.845)scale(0.14300000000000002 -0.14300000000000002)">
       <use xlink:href="#CalibreRegular-31"/>
       <use x="32.899993896484375" xlink:href="#CalibreRegular-30"/>
      </g>
     </g>
    </g>
    <g id="xtick_7">
     <g id="line2d_19">
      <path clip-path="url(#pd831f6c710)" d=" M528.84 450.45 L528.84 51.48" style="fill:none;stroke:#ffffff;stroke-linecap:round;stroke-width:1.3;"/>
     </g>
     <g id="line2d_20">
      <g>
       <use style="fill:#262626;stroke:#262626;stroke-width:1.3;" x="528.84" xlink:href="#m56cc5124a0" y="450.45"/>
      </g>
     </g>
     <g id="line2d_21">
      <g>
       <use style="fill:#262626;stroke:#262626;stroke-width:1.3;" x="528.84" xlink:href="#m56cc5124a0" y="51.48"/>
      </g>
     </g>
     <g id="text_7">
      <!-- 12 -->
      <g style="fill:#262626;" transform="translate(523.591453125 468.845)scale(0.14300000000000002 -0.14300000000000002)">
       <use xlink:href="#CalibreRegular-31"/>
       <use x="32.899993896484375" xlink:href="#CalibreRegular-32"/>
      </g>
     </g>
    </g>
    <g id="xtick_8">
     <g id="line2d_22">
      <path clip-path="url(#pd831f6c710)" d=" M601.38 450.45 L601.38 51.48" style="fill:none;stroke:#ffffff;stroke-linecap:round;stroke-width:1.3;"/>
     </g>
     <g id="line2d_23">
      <g>
       <use style="fill:#262626;stroke:#262626;stroke-width:1.3;" x="601.38" xlink:href="#m56cc5124a0" y="450.45"/>
      </g>
     </g>
     <g id="line2d_24">
      <g>
       <use style="fill:#262626;stroke:#262626;stroke-width:1.3;" x="601.38" xlink:href="#m56cc5124a0" y="51.48"/>
      </g>
     </g>
     <g id="text_8">
      <!-- 14 -->
      <g style="fill:#262626;" transform="translate(595.7315 468.845)scale(0.14300000000000002 -0.14300000000000002)">
       <use xlink:href="#CalibreRegular-31"/>
       <use x="32.899993896484375" xlink:href="#CalibreRegular-34"/>
      </g>
     </g>
    </g>
    <g id="xtick_9">
     <g id="line2d_25">
      <path clip-path="url(#pd831f6c710)" d=" M673.92 450.45 L673.92 51.48" style="fill:none;stroke:#ffffff;stroke-linecap:round;stroke-width:1.3;"/>
     </g>
     <g id="line2d_26">
      <g>
       <use style="fill:#262626;stroke:#262626;stroke-width:1.3;" x="673.92" xlink:href="#m56cc5124a0" y="450.45"/>
      </g>
     </g>
     <g id="line2d_27">
      <g>
       <use style="fill:#262626;stroke:#262626;stroke-width:1.3;" x="673.92" xlink:href="#m56cc5124a0" y="51.48"/>
      </g>
     </g>
     <g id="text_9">
      <!-- 16 -->
      <g style="fill:#262626;" transform="translate(668.421203125 468.845)scale(0.14300000000000002 -0.14300000000000002)">
       <use xlink:href="#CalibreRegular-31"/>
       <use x="32.899993896484375" xlink:href="#CalibreRegular-36"/>
      </g>
     </g>
    </g>
   </g>
   <g id="matplotlib.axis_2">
    <g id="ytick_1">
     <g id="line2d_28">
      <path clip-path="url(#pd831f6c710)" d=" M93.6 446.5 L673.92 446.5" style="fill:none;stroke:#ffffff;stroke-linecap:round;stroke-width:1.3;"/>
     </g>
     <g id="line2d_29">
      <g>
       <use style="fill:#262626;stroke:#262626;stroke-width:1.3;" x="93.6" xlink:href="#m56cc5124a0" y="446.49980198"/>
      </g>
     </g>
     <g id="line2d_30">
      <g>
       <use style="fill:#262626;stroke:#262626;stroke-width:1.3;" x="673.92" xlink:href="#m56cc5124a0" y="446.49980198"/>
      </g>
     </g>
     <g id="text_10">
      <!-- 0.0 -->
      <defs>
       <path d=" M6.29688 -0.5 Q3.20312 2.59375 3.20312 4.89062 Q3.20312 7.20312 4.75 8.79688 Q6.29688 10.4062 8.59375 10.4062 Q10.7969 10.4062 12.3438 8.79688 Q13.9062 7.20312 13.9062 4.89062 Q13.9062 2.59375 12.3438 1.04688 Q10.7969 -0.5 8.59375 -0.5 Q6.29688 -0.5 3.20312 2.59375" id="CalibreRegular-2e"/>
      </defs>
      <g style="fill:#262626;" transform="translate(67.8136875 449.93180198)scale(0.14300000000000002 -0.14300000000000002)">
       <use xlink:href="#CalibreRegular-30"/>
       <use x="53.79998779296875" xlink:href="#CalibreRegular-2e"/>
       <use x="70.89997863769531" xlink:href="#CalibreRegular-30"/>
      </g>
     </g>
    </g>
    <g id="ytick_2">
     <g id="line2d_31">
      <path clip-path="url(#pd831f6c710)" d=" M93.6 367.496 L673.92 367.496" style="fill:none;stroke:#ffffff;stroke-linecap:round;stroke-width:1.3;"/>
     </g>
     <g id="line2d_32">
      <g>
       <use style="fill:#262626;stroke:#262626;stroke-width:1.3;" x="93.6" xlink:href="#m56cc5124a0" y="367.495841584"/>
      </g>
     </g>
     <g id="line2d_33">
      <g>
       <use style="fill:#262626;stroke:#262626;stroke-width:1.3;" x="673.92" xlink:href="#m56cc5124a0" y="367.495841584"/>
      </g>
     </g>
     <g id="text_11">
      <!-- 0.2 -->
      <g style="fill:#262626;" transform="translate(68.785640625 370.927841584)scale(0.14300000000000002 -0.14300000000000002)">
       <use xlink:href="#CalibreRegular-30"/>
       <use x="53.79998779296875" xlink:href="#CalibreRegular-2e"/>
       <use x="70.89997863769531" xlink:href="#CalibreRegular-32"/>
      </g>
     </g>
    </g>
    <g id="ytick_3">
     <g id="line2d_34">
      <path clip-path="url(#pd831f6c710)" d=" M93.6 288.492 L673.92 288.492" style="fill:none;stroke:#ffffff;stroke-linecap:round;stroke-width:1.3;"/>
     </g>
     <g id="line2d_35">
      <g>
       <use style="fill:#262626;stroke:#262626;stroke-width:1.3;" x="93.6" xlink:href="#m56cc5124a0" y="288.491881188"/>
      </g>
     </g>
     <g id="line2d_36">
      <g>
       <use style="fill:#262626;stroke:#262626;stroke-width:1.3;" x="673.92" xlink:href="#m56cc5124a0" y="288.491881188"/>
      </g>
     </g>
     <g id="text_12">
      <!-- 0.4 -->
      <g style="fill:#262626;" transform="translate(67.985734375 291.923881188)scale(0.14300000000000002 -0.14300000000000002)">
       <use xlink:href="#CalibreRegular-30"/>
       <use x="53.79998779296875" xlink:href="#CalibreRegular-2e"/>
       <use x="70.89997863769531" xlink:href="#CalibreRegular-34"/>
      </g>
     </g>
    </g>
    <g id="ytick_4">
     <g id="line2d_37">
      <path clip-path="url(#pd831f6c710)" d=" M93.6 209.488 L673.92 209.488" style="fill:none;stroke:#ffffff;stroke-linecap:round;stroke-width:1.3;"/>
     </g>
     <g id="line2d_38">
      <g>
       <use style="fill:#262626;stroke:#262626;stroke-width:1.3;" x="93.6" xlink:href="#m56cc5124a0" y="209.487920792"/>
      </g>
     </g>
     <g id="line2d_39">
      <g>
       <use style="fill:#262626;stroke:#262626;stroke-width:1.3;" x="673.92" xlink:href="#m56cc5124a0" y="209.487920792"/>
      </g>
     </g>
     <g id="text_13">
      <!-- 0.6 -->
      <g style="fill:#262626;" transform="translate(68.285140625 212.919920792)scale(0.14300000000000002 -0.14300000000000002)">
       <use xlink:href="#CalibreRegular-30"/>
       <use x="53.79998779296875" xlink:href="#CalibreRegular-2e"/>
       <use x="70.89997863769531" xlink:href="#CalibreRegular-36"/>
      </g>
     </g>
    </g>
    <g id="ytick_5">
     <g id="line2d_40">
      <path clip-path="url(#pd831f6c710)" d=" M93.6 130.484 L673.92 130.484" style="fill:none;stroke:#ffffff;stroke-linecap:round;stroke-width:1.3;"/>
     </g>
     <g id="line2d_41">
      <g>
       <use style="fill:#262626;stroke:#262626;stroke-width:1.3;" x="93.6" xlink:href="#m56cc5124a0" y="130.483960396"/>
      </g>
     </g>
     <g id="line2d_42">
      <g>
       <use style="fill:#262626;stroke:#262626;stroke-width:1.3;" x="673.92" xlink:href="#m56cc5124a0" y="130.483960396"/>
      </g>
     </g>
     <g id="text_14">
      <!-- 0.8 -->
      <g style="fill:#262626;" transform="translate(68.4571875 133.915960396)scale(0.14300000000000002 -0.14300000000000002)">
       <use xlink:href="#CalibreRegular-30"/>
       <use x="53.79998779296875" xlink:href="#CalibreRegular-2e"/>
       <use x="70.89997863769531" xlink:href="#CalibreRegular-38"/>
      </g>
     </g>
    </g>
    <g id="ytick_6">
     <g id="text_15">
      <!-- 1.0 -->
      <g style="fill:#262626;" transform="translate(70.586546875 54.912)scale(0.14300000000000002 -0.14300000000000002)">
       <use xlink:href="#CalibreRegular-31"/>
       <use x="32.899993896484375" xlink:href="#CalibreRegular-2e"/>
       <use x="49.99998474121094" xlink:href="#CalibreRegular-30"/>
      </g>
     </g>
    </g>
    <g id="text_16">
     <!-- Density -->
     <defs>
      <path d=" M14.2031 44.4062 L14.2031 0 L6.70312 0 L6.70312 44.4062 z  M12.4062 62.5938 Q15.2969 59.7969 15.2969 57.7969 Q15.2969 55.7969 13.8438 54.3906 Q12.4062 53 10.4062 53 Q8.40625 53 7 54.3906 Q5.59375 55.7969 5.59375 57.7969 Q5.59375 59.7969 7 61.1875 Q8.40625 62.5938 10.4062 62.5938 Q12.4062 62.5938 15.2969 59.7969" id="CalibreRegular-69"/>
      <path d=" M3 12.2031 L10.7969 12.2031 Q12.9062 5.40625 21.2969 5.40625 Q25.4062 5.40625 27.9062 7.04688 Q30.4062 8.70312 30.4062 12 Q30.4062 16.5 23.7969 18.2031 L15 20.5 Q4.29688 23.2031 4.29688 32.2031 Q4.29688 38 8.79688 41.6406 Q13.2969 45.2969 20.2031 45.2969 Q27.4062 45.2969 31.7969 42 Q36.2031 38.7031 37.4062 32.7031 L29.9062 32.7031 Q27.9062 39 20.0938 39 Q16.5938 39 14.0938 37.3438 Q11.5938 35.7031 11.5938 32.5938 Q11.5938 30.4062 13.0469 29.1562 Q14.5 27.9062 17.7969 27 L26.4062 24.9062 Q37.7031 21.9062 37.7031 12.5 Q37.7031 6.29688 33.0938 2.6875 Q28.5 -0.90625 21.2031 -0.90625 Q13.9062 -0.90625 8.95312 2.59375 Q4 6.09375 3 12.2031" id="CalibreRegular-73"/>
      <path d=" M19.7969 -17 L12.4062 -17 L19.0938 -0.296875 L1.79688 44.4062 L9.90625 44.4062 L23 9.40625 L35.9062 44.4062 L43.7031 44.4062 z " id="CalibreRegular-79"/>
      <path d=" M6.70312 0 L6.70312 44.4062 L14.2031 44.4062 L14.2031 38.7969 Q16.2969 41.5938 19.75 43.4375 Q23.2031 45.2969 27.2969 45.2969 Q34.7031 45.2969 38.7969 40.8906 Q42.9062 36.5 42.9062 29.0938 L42.9062 0 L35.2969 0 L35.2969 27.9062 Q35.2969 32.7031 32.8438 35.5469 Q30.4062 38.4062 25.5 38.4062 Q21.5938 38.4062 18.5 36.0469 Q15.4062 33.7031 14.2031 30.0938 L14.2031 0 z " id="CalibreRegular-6e"/>
      <path d=" M15.2031 7.09375 L26.9062 7.09375 Q37.2969 7.09375 43.1406 13.4375 Q49 19.7969 49 30.6875 Q49 41.5938 43.0938 48 Q37.2031 54.4062 26.9062 54.4062 L15.2031 54.4062 z  M7.29688 0 L7.29688 61.4062 L27 61.4062 Q40.5 61.4062 48.6406 53.0469 Q56.7969 44.7031 56.7969 30.7031 Q56.7969 16.7031 48.6406 8.34375 Q40.5 0 27 0 z " id="CalibreRegular-44"/>
      <path d=" M34.7031 13.2969 L41.7969 13.2969 Q40.5938 6.79688 35.8906 2.9375 Q31.2031 -0.90625 23.9062 -0.90625 Q14.7969 -0.90625 9.14062 5.4375 Q3.5 11.7969 3.5 22.0938 Q3.5 32.2031 9.09375 38.75 Q14.7031 45.2969 23.7031 45.2969 Q32.5938 45.2969 37.5 39.3438 Q42.4062 33.4062 42.4062 23.5 L42.4062 20.7969 L11 20.7969 Q11.0938 13.7969 14.6406 9.64062 Q18.2031 5.5 23.9062 5.5 Q28.0938 5.5 30.9375 7.54688 Q33.7969 9.59375 34.7031 13.2969 M23.7969 38.9062 Q18.7969 38.9062 15.3906 35.5938 Q12 32.2969 11.2031 26.5 L34.7969 26.5 Q34.7031 31.7969 31.8906 35.3438 Q29.0938 38.9062 23.7969 38.9062" id="CalibreRegular-65"/>
      <path d=" M8.79688 11.2031 L8.79688 38 L1.59375 38 L1.59375 44.4062 L8.79688 44.4062 L8.79688 56.0938 L16.2969 56.0938 L16.2969 44.4062 L27 44.4062 L27 38 L16.2969 38 L16.2969 12 Q16.2969 5.79688 22.2031 5.79688 Q25.2969 5.79688 28 7.59375 L28 0.59375 Q25.2031 -0.90625 21 -0.90625 Q15.4062 -0.90625 12.0938 2.14062 Q8.79688 5.20312 8.79688 11.2031" id="CalibreRegular-74"/>
     </defs>
     <g style="fill:#262626;" transform="translate(60.1395875 273.422032813)rotate(-90.0)scale(0.15730000000000002 -0.15730000000000002)">
      <use xlink:href="#CalibreRegular-44"/>
      <use x="60.49998474121094" xlink:href="#CalibreRegular-65"/>
      <use x="106.19998168945312" xlink:href="#CalibreRegular-6e"/>
      <use x="155.0999755859375" xlink:href="#CalibreRegular-73"/>
      <use x="196.49996948242188" xlink:href="#CalibreRegular-69"/>
      <use x="217.39996337890625" xlink:href="#CalibreRegular-74"/>
      <use x="249.09996032714844" xlink:href="#CalibreRegular-79"/>
     </g>
    </g>
   </g>
   <g id="line2d_43">
    <path clip-path="url(#pd831f6c710)" d=" M93.6 446.5 L673.92 446.5" style="fill:none;stroke:#dcdce6;stroke-linecap:round;stroke-width:2;"/>
   </g>
   <g id="line2d_44">
    <path clip-path="url(#pd831f6c710)" d=" M93.6 450.45 L93.6 51.48" style="fill:none;stroke:#dcdce6;stroke-linecap:round;stroke-width:2;"/>
   </g>
   <g id="line2d_45">
    <path clip-path="url(#pd831f6c710)" d=" M93.6 446.5 L673.92 446.5" style="fill:none;stroke:#dcdce6;stroke-linecap:round;stroke-width:2;"/>
   </g>
   <g id="line2d_46">
    <path clip-path="url(#pd831f6c710)" d=" M93.6 450.45 L93.6 51.48" style="fill:none;stroke:#dcdce6;stroke-linecap:round;stroke-width:2;"/>
   </g>
   <g id="line2d_47">
    <path clip-path="url(#pd831f6c710)" d=" M93.6 446.5 L673.92 446.5" style="fill:none;stroke:#dcdce6;stroke-linecap:round;stroke-width:2;"/>
   </g>
   <g id="line2d_48">
    <path clip-path="url(#pd831f6c710)" d=" M93.6 450.45 L93.6 51.48" style="fill:none;stroke:#dcdce6;stroke-linecap:round;stroke-width:2;"/>
   </g>
   <g id="patch_3">
    <path d=" M93.6 450.45 L93.6 51.48" style="fill:none;"/>
   </g>
   <g id="patch_4">
    <path d=" M93.6 450.45 L673.92 450.45" style="fill:none;"/>
   </g>
   <g id="patch_5">
    <path d=" M673.92 450.45 L673.92 51.48" style="fill:none;"/>
   </g>
   <g id="patch_6">
    <path d=" M93.6 51.48 L673.92 51.48" style="fill:none;"/>
   </g>
   <g id="text_17">
    <!-- Chi-squared Distribution PDF -->
    <defs>
     <path id="CalibreRegular-20"/>
     <path d=" M15.2031 0 L7.29688 0 L7.29688 61.4062 L44.7969 61.4062 L44.7969 54.4062 L15.2031 54.4062 L15.2031 33.7031 L43 33.7031 L43 26.7031 L15.2031 26.7031 z " id="CalibreRegular-46"/>
     <path d=" M36 -17 L36 5.20312 Q34.0938 2.59375 30.75 0.84375 Q27.4062 -0.90625 23.5 -0.90625 Q14.0938 -0.90625 8.79688 5.75 Q3.5 12.4062 3.5 22.2031 Q3.5 32 8.79688 38.6406 Q14.0938 45.2969 23.5 45.2969 Q27.4062 45.2969 30.75 43.5469 Q34.0938 41.7969 36 39.2031 L36 44.4062 L43.5 44.4062 L43.5 -17 z  M36 13.2031 L36 31.2031 Q34.2969 34.5938 31.25 36.5469 Q28.2031 38.5 24.5938 38.5 Q18.4062 38.5 14.75 33.9531 Q11.0938 29.4062 11.0938 22.2031 Q11.0938 15 14.75 10.4531 Q18.4062 5.90625 24.5938 5.90625 Q28.2031 5.90625 31.25 7.84375 Q34.2969 9.79688 36 13.2031" id="CalibreRegular-71"/>
     <path d=" M36 0 L36 5.20312 Q34.2031 2.59375 30.7969 0.84375 Q27.4062 -0.90625 23.5 -0.90625 Q14.0938 -0.90625 8.79688 5.6875 Q3.5 12.2969 3.5 22.2031 Q3.5 32 8.79688 38.6406 Q14.0938 45.2969 23.5 45.2969 Q27.4062 45.2969 30.7969 43.5469 Q34.2031 41.7969 36 39.2031 L36 65 L43.5938 65 L43.5938 0 z  M36 13.2031 L36 31.2031 Q34.2969 34.5938 31.25 36.5469 Q28.2031 38.5 24.5938 38.5 Q18.4062 38.5 14.75 33.9531 Q11.0938 29.4062 11.0938 22.2031 Q11.0938 15 14.75 10.4531 Q18.4062 5.90625 24.5938 5.90625 Q28.2031 5.90625 31.25 7.84375 Q34.2969 9.79688 36 13.2031" id="CalibreRegular-64"/>
     <path d=" M6.70312 0 L6.70312 65 L14.2031 65 L14.2031 38.7969 Q16.2969 41.5938 19.75 43.4375 Q23.2031 45.2969 27.2969 45.2969 Q34.7031 45.2969 38.7969 40.8906 Q42.9062 36.5 42.9062 29.0938 L42.9062 0 L35.2969 0 L35.2969 27.9062 Q35.2969 32.7031 32.8438 35.5469 Q30.4062 38.4062 25.5 38.4062 Q21.5938 38.4062 18.5 36.0469 Q15.4062 33.7031 14.2031 30.0938 L14.2031 0 z " id="CalibreRegular-68"/>
     <path d=" M38.9062 0 L31.7031 0 L31.7031 3.29688 Q30.2969 1.79688 27 0.5 Q23.7031 -0.796875 20 -0.796875 Q13 -0.796875 8.25 3.09375 Q3.5 7 3.5 13.4062 Q3.5 19.5 8.39062 23.3906 Q13.2969 27.2969 20.5 27.2969 Q23.7969 27.2969 27 26.1875 Q30.2031 25.0938 31.7031 23.7031 L31.7031 29.2969 Q31.7031 33.5938 29.1406 36.1875 Q26.5938 38.7969 21.9062 38.7969 Q14.9062 38.7969 12.7969 32.7031 L5.40625 32.7031 Q6.5 38.2969 11.0469 41.7969 Q15.5938 45.2969 22 45.2969 Q29.9062 45.2969 34.4062 41.0938 Q38.9062 36.9062 38.9062 29.5938 z  M31.7031 11 L31.7031 15.5938 Q30.7031 18 27.75 19.5469 Q24.7969 21.0938 21.2969 21.0938 Q16.9062 21.0938 13.7969 19.0938 Q10.7031 17.0938 10.7031 13.4062 Q10.7031 9.59375 13.7969 7.54688 Q16.9062 5.5 21.2969 5.5 Q24.7969 5.5 27.75 7.04688 Q30.7031 8.59375 31.7031 11" id="CalibreRegular-61"/>
     <path d=" M29.5 44.5938 L29.5 36.9062 Q27.7031 38.0938 24.5 38.0938 Q20.9062 38.0938 18.0938 35.8906 Q15.2969 33.7031 14.2031 29.7969 L14.2031 0 L6.70312 0 L6.70312 44.4062 L14.2031 44.4062 L14.2031 38.5938 Q15.7031 41.5 18.6406 43.3906 Q21.5938 45.2969 25.2031 45.2969 Q28.0938 45.2969 29.5 44.5938" id="CalibreRegular-72"/>
     <path d=" M33 45.2969 Q44.2969 32.4062 44.2969 22.2031 Q44.2969 12 38.6406 5.54688 Q33 -0.90625 23.8906 -0.90625 Q14.7969 -0.90625 9.14062 5.54688 Q3.5 12 3.5 22.2031 Q3.5 32.4062 9.14062 38.8438 Q14.7969 45.2969 23.8906 45.2969 Q33 45.2969 44.2969 32.4062 M29.7969 5.70312 Q36.7031 14.7969 36.7031 22.1875 Q36.7031 29.5938 33.25 34.1406 Q29.7969 38.7031 23.8906 38.7031 Q18 38.7031 14.5469 34.1406 Q11.0938 29.5938 11.0938 22.1875 Q11.0938 14.7969 14.5469 10.25 Q18 5.70312 23.8906 5.70312 Q29.7969 5.70312 36.7031 14.7969" id="CalibreRegular-6f"/>
     <path d=" M14.2031 5.20312 L14.2031 0 L6.59375 0 L6.59375 65 L14.2031 65 L14.2031 39.2031 Q16 41.7969 19.3906 43.5469 Q22.7969 45.2969 26.7031 45.2969 Q36.0938 45.2969 41.3906 38.6406 Q46.7031 32 46.7031 22.2031 Q46.7031 12.2969 41.3906 5.6875 Q36.0938 -0.90625 26.7031 -0.90625 Q22.7969 -0.90625 19.3906 0.84375 Q16 2.59375 14.2031 5.20312 M14.2031 31.2031 L14.2031 13.2031 Q15.9062 9.79688 18.9531 7.84375 Q22 5.90625 25.5938 5.90625 Q31.7969 5.90625 35.4375 10.4531 Q39.0938 15 39.0938 22.2031 Q39.0938 29.4062 35.4375 33.9531 Q31.7969 38.5 25.5938 38.5 Q22 38.5 18.9531 36.5469 Q15.9062 34.5938 14.2031 31.2031" id="CalibreRegular-62"/>
     <path d=" M42.0938 44.4062 L42.0938 0 L34.5 0 L34.5 5.59375 Q32.5 2.79688 29.0938 0.9375 Q25.7031 -0.90625 21.5938 -0.90625 Q14.2031 -0.90625 10.1406 3.5 Q6.09375 7.90625 6.09375 15.2969 L6.09375 44.4062 L13.7031 44.4062 L13.7031 16.5 Q13.7031 11.5938 16.0938 8.79688 Q18.5 6 23.4062 6 Q27.2031 6 30.25 8.29688 Q33.2969 10.5938 34.5 14.2969 L34.5 44.4062 z " id="CalibreRegular-75"/>
     <path d=" M19.4062 -0.90625 Q3.70312 16.5938 3.70312 30.6875 Q3.70312 44.7969 11.5469 53.5469 Q19.4062 62.2969 31.2031 62.2969 Q40.7031 62.2969 46.9531 57.1875 Q53.2031 52.0938 55.0938 43.4062 L47.2969 43.4062 Q43.0938 55.2031 31.2031 55.2031 Q22.4062 55.2031 17 48.4531 Q11.5938 41.7031 11.5938 30.7031 Q11.5938 19.7969 17 13 Q22.4062 6.20312 31.2031 6.20312 Q43.2031 6.20312 47.2969 18.0938 L55.0938 18.0938 Q53.2031 9.29688 46.9531 4.1875 Q40.7031 -0.90625 31.2031 -0.90625 Q19.4062 -0.90625 3.70312 16.5938" id="CalibreRegular-43"/>
     <path d=" M4 22.5938 L4 29.5938 L28.0938 29.5938 L28.0938 22.5938 z " id="CalibreRegular-2d"/>
     <path d=" M30.2969 24.5938 L15.2031 24.5938 L15.2031 0 L7.29688 0 L7.29688 61.4062 L30.2969 61.4062 Q39.7969 61.4062 45.1406 56.6562 Q50.5 51.9062 50.5 43 Q50.5 34.0938 45.0938 29.3438 Q39.7031 24.5938 30.2969 24.5938 M42.7031 43 Q42.7031 48.4062 39.4531 51.4531 Q36.2031 54.5 30.0938 54.5 L15.2031 54.5 L15.2031 31.5938 L30.0938 31.5938 Q36.2031 31.5938 39.4531 34.6406 Q42.7031 37.7031 42.7031 43" id="CalibreRegular-50"/>
    </defs>
    <g style="fill:#262626;" transform="translate(286.571390625 46.48)scale(0.17160000000000003 -0.17160000000000003)">
     <use xlink:href="#CalibreRegular-43"/>
     <use x="58.59999084472656" xlink:href="#CalibreRegular-68"/>
     <use x="107.49998474121094" xlink:href="#CalibreRegular-69"/>
     <use x="128.3999786376953" xlink:href="#CalibreRegular-2d"/>
     <use x="160.49996948242188" xlink:href="#CalibreRegular-73"/>
     <use x="201.89996337890625" xlink:href="#CalibreRegular-71"/>
     <use x="252.09996032714844" xlink:href="#CalibreRegular-75"/>
     <use x="300.7999572753906" xlink:href="#CalibreRegular-61"/>
     <use x="345.79994201660156" xlink:href="#CalibreRegular-72"/>
     <use x="377.8999328613281" xlink:href="#CalibreRegular-65"/>
     <use x="423.5999298095703" xlink:href="#CalibreRegular-64"/>
     <use x="473.7999267578125" xlink:href="#CalibreRegular-20"/>
     <use x="495.89991760253906" xlink:href="#CalibreRegular-44"/>
     <use x="556.39990234375" xlink:href="#CalibreRegular-69"/>
     <use x="577.2998962402344" xlink:href="#CalibreRegular-73"/>
     <use x="618.6998901367188" xlink:href="#CalibreRegular-74"/>
     <use x="650.3998870849609" xlink:href="#CalibreRegular-72"/>
     <use x="682.4998779296875" xlink:href="#CalibreRegular-69"/>
     <use x="703.3998718261719" xlink:href="#CalibreRegular-62"/>
     <use x="753.5998687744141" xlink:href="#CalibreRegular-75"/>
     <use x="802.2998657226562" xlink:href="#CalibreRegular-74"/>
     <use x="833.9998626708984" xlink:href="#CalibreRegular-69"/>
     <use x="854.8998565673828" xlink:href="#CalibreRegular-6f"/>
     <use x="902.6998443603516" xlink:href="#CalibreRegular-6e"/>
     <use x="951.5998382568359" xlink:href="#CalibreRegular-20"/>
     <use x="973.6998291015625" xlink:href="#CalibreRegular-50"/>
     <use x="1027.3998260498047" xlink:href="#CalibreRegular-44"/>
     <use x="1087.8998107910156" xlink:href="#CalibreRegular-46"/>
    </g>
   </g>
   <g id="line2d_49">
    <path clip-path="url(#pd831f6c710)" d=" M97.6295 -1 L98.2472 33.5626 L99.409 83.0258 L100.571 119.967 L101.733 148.992 L102.894 172.629 L104.056 192.394 L105.218 209.264 L106.961 230.528 L108.703 248.191 L110.446 263.186 L112.189 276.133 L113.932 287.465 L115.674 297.494 L117.417 306.454 L119.741 317.038 L122.064 326.345 L124.388 334.61 L126.711 342.009 L129.035 348.677 L131.359 354.722 L133.682 360.23 L136.006 365.271 L138.91 371.002 L141.815 376.184 L144.719 380.891 L147.624 385.184 L150.528 389.113 L153.433 392.72 L156.918 396.674 L160.404 400.267 L163.889 403.542 L167.374 406.536 L171.441 409.715 L175.507 412.595 L179.573 415.21 L184.221 417.914 L188.868 420.35 L193.515 422.55 L198.743 424.777 L203.971 426.772 L209.78 428.751 L216.17 430.677 L222.56 432.375 L229.531 434.002 L237.083 435.538 L245.215 436.967 L253.929 438.279 L263.804 439.537 L274.841 440.704 L287.04 441.758 L300.401 442.685 L315.504 443.51 L332.931 444.235 L353.263 444.857 L378.241 445.388 L409.029 445.809 L449.692 446.129 L507.782 446.345 L607.697 446.465 L673.92 446.487 L673.92 446.487" style="fill:none;stroke:#386df9;stroke-linecap:round;stroke-width:2.275;"/>
   </g>
   <g id="line2d_50">
    <path clip-path="url(#pd831f6c710)" d=" M93.6 446.5 L96.5045 438.902 L99.409 431.9 L102.314 425.46 L105.218 419.548 L108.123 414.132 L111.027 409.183 L113.932 404.673 L116.836 400.574 L119.741 396.861 L122.645 393.51 L125.55 390.499 L128.454 387.806 L131.359 385.41 L134.263 383.293 L137.168 381.436 L140.072 379.823 L142.977 378.436 L145.881 377.261 L149.366 376.11 L152.852 375.219 L156.337 374.566 L159.823 374.132 L163.889 373.876 L167.955 373.862 L172.022 374.066 L176.669 374.535 L181.316 375.225 L186.544 376.228 L192.353 377.582 L198.743 379.31 L206.295 381.604 L215.008 384.5 L226.626 388.62 L271.356 404.754 L283.555 408.794 L295.173 412.409 L306.21 415.618 L317.247 418.6 L328.284 421.355 L339.321 423.888 L350.939 426.324 L362.557 428.534 L374.756 430.626 L387.536 432.585 L400.897 434.4 L414.838 436.062 L429.361 437.57 L445.045 438.97 L461.891 440.244 L479.899 441.381 L499.65 442.402 L521.724 443.313 L546.122 444.093 L574.005 444.76 L607.116 445.322 L647.199 445.769 L673.92 445.97 L673.92 445.97" style="fill:none;stroke:#ffdc52;stroke-linecap:round;stroke-width:2.275;"/>
   </g>
   <g id="line2d_51">
    <path clip-path="url(#pd831f6c710)" d=" M93.6 446.5 L104.637 446.4 L111.608 446.107 L117.998 445.605 L123.807 444.932 L129.616 444.048 L136.006 442.835 L142.396 441.386 L149.366 439.566 L156.918 437.354 L165.632 434.559 L176.669 430.771 L209.78 419.239 L219.655 416.112 L228.95 413.406 L237.663 411.111 L245.796 409.199 L253.929 407.519 L262.061 406.076 L270.194 404.873 L278.326 403.906 L286.459 403.17 L294.592 402.656 L303.305 402.339 L312.019 402.25 L321.313 402.388 L330.608 402.744 L340.483 403.338 L351.52 404.233 L363.138 405.399 L376.499 406.973 L391.602 408.982 L410.772 411.771 L443.302 416.773 L477.575 421.966 L500.812 425.257 L521.724 427.996 L542.055 430.431 L561.806 432.572 L581.557 434.492 L601.888 436.245 L622.801 437.825 L644.875 439.266 L668.111 440.557 L673.92 440.846 L673.92 440.846" style="fill:none;stroke:#ff1614;stroke-linecap:round;stroke-width:2.275;"/>
   </g>
   <g id="legend_1">
    <g id="line2d_52">
     <path d=" M594.555 69.355 L623.155 69.355" style="fill:none;stroke:#386df9;stroke-linecap:round;stroke-width:2.275;"/>
    </g>
    <g id="line2d_53"/>
    <g id="text_18">
     <!-- $k=1$ -->
     <defs>
      <path d=" M63.7031 32 L4.79688 32 L4.79688 38.5938 L63.7031 38.5938 z  M63.7031 12 L4.79688 12 L4.79688 18.5938 L63.7031 18.5938 z " id="STIXGeneral-Regular-3d"/>
      <path d=" M55.5938 45.2969 L55.2969 43.9062 L26.0938 25.5 L45.2031 0 L34.9062 0 L19.2969 20.7031 L14.2031 0 L6.29688 0 L22.7031 66 L30.2969 68.4062 L31.0938 67.9062 L21.7031 30.2969 L45.2031 45.2969 z " id="STIXGeneral-Italic-1d62c"/>
      <path d=" M30.2031 0 L22.2969 0 L22.2969 57 Q20.0938 56 15.75 53.75 Q11.4062 51.5 10.7969 51.2031 L10.7969 58.5 L28.7969 67.7031 L30.2031 67.2031 z " id="STIXGeneral-Regular-1d7e3"/>
     </defs>
     <g style="fill:#262626;" transform="translate(634.595 74.36)scale(0.14300000000000002 -0.14300000000000002)">
      <use transform="translate(0.0 0.59375)" xlink:href="#STIXGeneral-Italic-1d62c"/>
      <use transform="translate(60.419985961914065 0.59375)" xlink:href="#STIXGeneral-Regular-3d"/>
      <use transform="translate(134.43060913085938 0.59375)" xlink:href="#STIXGeneral-Regular-1d7e3"/>
     </g>
    </g>
    <g id="line2d_54">
     <path d=" M594.555 88.946 L623.155 88.946" style="fill:none;stroke:#ffdc52;stroke-linecap:round;stroke-width:2.275;"/>
    </g>
    <g id="line2d_55"/>
    <g id="text_19">
     <!-- $k=4$ -->
     <defs>
      <path d=" M48.9062 23.5938 L45.5938 16.5 L37.2969 16.5 L37.2969 0 L29.4062 0 L29.4062 16.5 L1.09375 16.5 L1.09375 23.2969 L32.2969 67.5938 L37.2969 67.5938 L37.2969 23.5938 z  M29.4062 23.5938 L29.4062 51 L10 23.5938 z " id="STIXGeneral-Regular-1d7e6"/>
     </defs>
     <g style="fill:#262626;" transform="translate(634.595 93.951)scale(0.14300000000000002 -0.14300000000000002)">
      <use transform="translate(0.0 0.59375)" xlink:href="#STIXGeneral-Italic-1d62c"/>
      <use transform="translate(60.419985961914065 0.59375)" xlink:href="#STIXGeneral-Regular-3d"/>
      <use transform="translate(134.43060913085938 0.59375)" xlink:href="#STIXGeneral-Regular-1d7e6"/>
     </g>
    </g>
    <g id="line2d_56">
     <path d=" M594.555 108.537 L623.155 108.537" style="fill:none;stroke:#ff1614;stroke-linecap:round;stroke-width:2.275;"/>
    </g>
    <g id="line2d_57"/>
    <g id="text_20">
     <!-- $k=8$ -->
     <defs>
      <path d=" M44.7031 16.0938 Q44.7031 8.79688 39.3906 3.6875 Q34.0938 -1.40625 24.7969 -1.40625 Q16.2969 -1.40625 10.5938 3.4375 Q4.90625 8.29688 4.90625 15.4062 Q4.90625 20.7969 7.75 25.25 Q10.5938 29.7031 17.7031 34.5 Q6 41.4062 6 51.4062 Q6 58.5938 11.5469 63.0938 Q17.0938 67.5938 25.5938 67.5938 Q32.9062 67.5938 37.7969 62.8438 Q42.7031 58.0938 42.7031 52 Q42.7031 46.4062 40.0938 42.7031 Q37.5 39 31.0938 35.2969 Q44.7031 27 44.7031 16.0938 M35.5 51.5 Q35.5 55.5 32.3906 58 Q29.2969 60.5 24.4062 60.5 Q19.7969 60.5 16.8438 57.8438 Q13.9062 55.2031 13.9062 51.7969 Q13.9062 47.5 16.3438 44.8438 Q18.7969 42.2031 24.9062 39.4062 Q35.5 45.2031 35.5 51.5 M27.5938 28.5938 L24.0938 30.5 Q18.9062 28.7031 15.8438 24.6406 Q12.7969 20.5938 12.7969 16.2969 Q12.7969 11.7969 16 8.75 Q19.2031 5.70312 25.2031 5.70312 Q29.7969 5.70312 33.2969 8.45312 Q36.7969 11.2031 36.7969 15.7969 Q36.7969 20 34.6875 22.9531 Q32.5938 25.9062 27.5938 28.5938" id="STIXGeneral-Regular-1d7ea"/>
     </defs>
     <g style="fill:#262626;" transform="translate(634.595 113.542)scale(0.14300000000000002 -0.14300000000000002)">
      <use transform="translate(0.0 0.59375)" xlink:href="#STIXGeneral-Italic-1d62c"/>
      <use transform="translate(60.419985961914065 0.59375)" xlink:href="#STIXGeneral-Regular-3d"/>
      <use transform="translate(134.43060913085938 0.59375)" xlink:href="#STIXGeneral-Regular-1d7ea"/>
     </g>
    </g>
   </g>
  </g>
 </g>
 </svg>
