<svg xmlns="http://www.w3.org/2000/svg" xmlns:xlink="http://www.w3.org/1999/xlink" height="226pt" version="1.1" viewBox="0 0 170 226" width="170pt">
 <defs>
  <clipPath id="pf698667f04">
   <rect height="226.771653543" width="170.078740157" x="0.0" y="0.0"/>
  </clipPath>
 </defs>
<defs>
  <style type="text/css">
*{stroke-linecap:butt;stroke-linejoin:round;stroke-miterlimit:100000;}
  </style>
 </defs>
 <g id="figure_1">
  <g id="patch_1">
   <path d="M 0 226.771654  L 170.07874 226.771654  L 170.07874 0  L 0 0  z " style="fill:#ffffff;"/>
  </g>
  <g id="axes_1">
   <g id="matplotlib.axis_1"/>
   <g id="matplotlib.axis_2"/>
   <g id="patch_2">
    <path clip-path="url(#pf698667f04)" d="M 51.023622 68.031496  L 48.897638 65.19685  L 51.023622 65.19685  L 51.023622 45.354331  L 51.023622 45.354331  L 51.023622 65.19685  L 53.149606 65.19685  L 51.023622 68.031496  z " style="fill:none;stroke:#000000;stroke-linejoin:miter;"/>
   </g>
   <g id="patch_3">
    <path clip-path="url(#pf698667f04)" d="M 76.288891 127.148152  L 73.007461 125.811273  L 74.830478 124.717463  L 59.774101 99.623502  L 59.774101 99.623502  L 74.830478 124.717463  L 76.653494 123.623653  L 76.288891 127.148152  z " style="fill:none;stroke:#000000;stroke-linejoin:miter;"/>
   </g>
   <g id="patch_4">
    <path clip-path="url(#pf698667f04)" d="M 93.789849 127.148152  L 93.425246 123.623653  L 95.248262 124.717463  L 110.304639 99.623502  L 110.304639 99.623502  L 95.248262 124.717463  L 97.071279 125.811273  L 93.789849 127.148152  z " style="fill:none;stroke:#000000;stroke-linejoin:miter;"/>
   </g>
   <g id="patch_5">
    <path clip-path="url(#pf698667f04)" d="M 85.03937 181.417323  L 82.913386 178.582677  L 85.03937 178.582677  L 85.03937 158.740157  L 85.03937 158.740157  L 85.03937 178.582677  L 87.165354 178.582677  L 85.03937 181.417323  z " style="fill:none;stroke:#000000;stroke-linejoin:miter;"/>
   </g>
   <g id="patch_6">
    <path clip-path="url(#pf698667f04)" d="M 51.023622 45.354331  C 55.534163 45.354331 59.860571 43.562274 63.050005 40.37284  C 66.239439 37.183406 68.031496 32.856998 68.031496 28.346457  C 68.031496 23.835916 66.239439 19.509508 63.050005 16.320074  C 59.860571 13.13064 55.534163 11.338583 51.023622 11.338583  C 46.513081 11.338583 42.186673 13.13064 38.997239 16.320074  C 35.807805 19.509508 34.015748 23.835916 34.015748 28.346457  C 34.015748 32.856998 35.807805 37.183406 38.997239 40.37284  C 42.186673 43.562274 46.513081 45.354331 51.023622 45.354331  L 51.023622 45.354331  z " style="fill:none;stroke:#000000;stroke-linejoin:miter;"/>
   </g>
   <g id="patch_7">
    <path clip-path="url(#pf698667f04)" d="M 51.023622 102.047244  C 55.534163 102.047244 59.860571 100.255187 63.050005 97.065753  C 66.239439 93.876319 68.031496 89.549911 68.031496 85.03937  C 68.031496 80.528829 66.239439 76.202421 63.050005 73.012987  C 59.860571 69.823553 55.534163 68.031496 51.023622 68.031496  C 46.513081 68.031496 42.186673 69.823553 38.997239 73.012987  C 35.807805 76.202421 34.015748 80.528829 34.015748 85.03937  C 34.015748 89.549911 35.807805 93.876319 38.997239 97.065753  C 42.186673 100.255187 46.513081 102.047244 51.023622 102.047244  L 51.023622 102.047244  z " style="fill:none;stroke:#000000;stroke-linejoin:miter;"/>
   </g>
   <g id="patch_8">
    <path clip-path="url(#pf698667f04)" d="M 85.03937 215.433071  C 89.549911 215.433071 93.876319 213.641014 97.065753 210.45158  C 100.255187 207.262146 102.047244 202.935738 102.047244 198.425197  C 102.047244 193.914656 100.255187 189.588248 97.065753 186.398814  C 93.876319 183.20938 89.549911 181.417323 85.03937 181.417323  C 80.528829 181.417323 76.202421 183.20938 73.012987 186.398814  C 69.823553 189.588248 68.031496 193.914656 68.031496 198.425197  C 68.031496 202.935738 69.823553 207.262146 73.012987 210.45158  C 76.202421 213.641014 80.528829 215.433071 85.03937 215.433071  L 85.03937 215.433071  z " style="fill:none;stroke:#000000;stroke-linejoin:miter;"/>
   </g>
   <g id="patch_9">
    <path clip-path="url(#pf698667f04)" d="M 119.055118 102.047244  C 123.565659 102.047244 127.892067 100.255187 131.081501 97.065753  C 134.270935 93.876319 136.062992 89.549911 136.062992 85.03937  C 136.062992 80.528829 134.270935 76.202421 131.081501 73.012987  C 127.892067 69.823553 123.565659 68.031496 119.055118 68.031496  C 114.544577 68.031496 110.218169 69.823553 107.028735 73.012987  C 103.839301 76.202421 102.047244 80.528829 102.047244 85.03937  C 102.047244 89.549911 103.839301 93.876319 107.028735 97.065753  C 110.218169 100.255187 114.544577 102.047244 119.055118 102.047244  L 119.055118 102.047244  z " style="fill:none;stroke:#000000;stroke-linejoin:miter;"/>
   </g>
   <g id="patch_10">
    <path clip-path="url(#pf698667f04)" d="M 85.03937 158.740157  C 89.549911 158.740157 93.876319 156.948101 97.065753 153.758667  C 100.255187 150.569232 102.047244 146.242824 102.047244 141.732283  C 102.047244 137.221743 100.255187 132.895334 97.065753 129.7059  C 93.876319 126.516466 89.549911 124.724409 85.03937 124.724409  C 80.528829 124.724409 76.202421 126.516466 73.012987 129.7059  C 69.823553 132.895334 68.031496 137.221743 68.031496 141.732283  C 68.031496 146.242824 69.823553 150.569232 73.012987 153.758667  C 76.202421 156.948101 80.528829 158.740157 85.03937 158.740157  L 85.03937 158.740157  z " style="fill:none;stroke:#000000;stroke-linejoin:miter;"/>
   </g>
   <g id="text_1">
    <!-- A -->
    <defs>
     <path d="M 26.09375 61.40625  L 33.5 61.40625  L 57.5 0  L 49.5 0  L 42.40625 18.5  L 17.09375 18.5  L 10.09375 0  L 2.09375 0  z M 29.703125 51.59375  L 19.703125 25.40625  L 39.703125 25.40625  z " id="CalibreRegular-41"/>
    </defs>
    <g style="fill:#262626;" transform="translate(45.6601845472 32.6664566929)scale(0.18 -0.18)">
     <use xlink:href="#CalibreRegular-41"/>
    </g>
   </g>
   <g id="text_2">
    <!-- B -->
    <defs>
     <path d="M 38.796875 31.796875  Q 43.703125 30.5 46.796875 26.5  Q 49.90625 22.5 49.90625 17.296875  Q 49.90625 9 44.5 4.5  Q 39.09375 0 29.5 0  L 7.296875 0  L 7.296875 61.40625  L 27.5 61.40625  Q 37.09375 61.40625 42.4375 57.203125  Q 47.796875 53 47.796875 45.09375  Q 47.796875 39.90625 45.25 36.453125  Q 42.703125 33 38.796875 31.796875  M 15 34.703125  L 27.5 34.703125  Q 40.203125 34.703125 40.203125 44.703125  Q 40.203125 54.5 27.5 54.5  L 15 54.5  z M 15 28.09375  L 15 6.90625  L 29.5 6.90625  Q 35.59375 6.90625 38.890625 9.75  Q 42.203125 12.59375 42.203125 17.5  Q 42.203125 22.5 38.890625 25.296875  Q 35.59375 28.09375 29.5 28.09375  z " id="CalibreRegular-42"/>
    </defs>
    <g style="fill:#262626;" transform="translate(46.1819032972 89.3593700787)scale(0.18 -0.18)">
     <use xlink:href="#CalibreRegular-42"/>
    </g>
   </g>
   <g id="text_3">
    <!-- E -->
    <defs>
     <path d="M 7.296875 61.40625  L 46.40625 61.40625  L 46.40625 54.40625  L 15.09375 54.40625  L 15.09375 35  L 43.5 35  L 43.5 28  L 15.09375 28  L 15.09375 7.09375  L 46.40625 7.09375  L 46.40625 0  L 7.296875 0  z " id="CalibreRegular-45"/>
    </defs>
    <g style="fill:#262626;" transform="translate(80.4043700787 202.74519685)scale(0.18 -0.18)">
     <use xlink:href="#CalibreRegular-45"/>
    </g>
   </g>
   <g id="text_4">
    <!-- D -->
    <defs>
     <path d="M 15.203125 7.09375  L 26.90625 7.09375  Q 37.296875 7.09375 43.140625 13.4375  Q 49 19.796875 49 30.6875  Q 49 41.59375 43.09375 48  Q 37.203125 54.40625 26.90625 54.40625  L 15.203125 54.40625  z M 7.296875 0  L 7.296875 61.40625  L 27 61.40625  Q 40.5 61.40625 48.640625 53.046875  Q 56.796875 44.703125 56.796875 30.703125  Q 56.796875 16.703125 48.640625 8.34375  Q 40.5 0 27 0  z " id="CalibreRegular-44"/>
    </defs>
    <g style="fill:#262626;" transform="translate(113.61011811 89.3593700787)scale(0.18 -0.18)">
     <use xlink:href="#CalibreRegular-44"/>
    </g>
   </g>
   <g id="text_5">
    <!-- C -->
    <defs>
     <path d="M 19.40625 -0.90625  Q 3.703125 16.59375 3.703125 30.6875  Q 3.703125 44.796875 11.546875 53.546875  Q 19.40625 62.296875 31.203125 62.296875  Q 40.703125 62.296875 46.953125 57.1875  Q 53.203125 52.09375 55.09375 43.40625  L 47.296875 43.40625  Q 43.09375 55.203125 31.203125 55.203125  Q 22.40625 55.203125 17 48.453125  Q 11.59375 41.703125 11.59375 30.703125  Q 11.59375 19.796875 17 13  Q 22.40625 6.203125 31.203125 6.203125  Q 43.203125 6.203125 47.296875 18.09375  L 55.09375 18.09375  Q 53.203125 9.296875 46.953125 4.1875  Q 40.703125 -0.90625 31.203125 -0.90625  Q 19.40625 -0.90625 3.703125 16.59375  " id="CalibreRegular-43"/>
    </defs>
    <g style="fill:#262626;" transform="translate(79.7659325787 146.052283465)scale(0.18 -0.18)">
     <use xlink:href="#CalibreRegular-43"/>
    </g>
   </g>
  </g>
 </g>
 </svg>
