<svg xmlns="http://www.w3.org/2000/svg" xmlns:xlink="http://www.w3.org/1999/xlink" height="514pt" version="1.1" viewBox="0 0 748 514" width="748pt">
 <defs>
  <clipPath id="pd831f6c710">
   <rect height="398.97" width="580.32" x="93.6" y="51.48"/>
  </clipPath>
 </defs>
<defs>
  <style type="text/css">
*{stroke-linecap:butt;stroke-linejoin:round;}
  </style>
 </defs>
 <g id="figure_1">
  <g id="patch_1">
   <path d=" M0 514.8 L748.8 514.8 L748.8 0 L0 0 z " style="fill:#ffffff;"/>
  </g>
  <g id="axes_1">
   <g id="patch_2">
    <path d=" M93.6 450.45 L673.92 450.45 L673.92 51.48 L93.6 51.48 z " style="fill:#eaeaf2;"/>
   </g>
   <g id="matplotlib.axis_1">
    <g id="xtick_1">
     <g id="line2d_1">
      <path clip-path="url(#pd831f6c710)" d=" M93.6 450.45 L93.6 51.48" style="fill:none;stroke:#ffffff;stroke-linecap:round;stroke-width:1.3;"/>
     </g>
     <g id="line2d_2">
      <defs>
       <path d=" M0 0 L0 0" id="m56cc5124a0" style="stroke:#262626;stroke-width:1.3;"/>
      </defs>
      <g>
       <use style="fill:#262626;stroke:#262626;stroke-width:1.3;" x="93.6" xlink:href="#m56cc5124a0" y="450.45"/>
      </g>
     </g>
     <g id="line2d_3">
      <g>
       <use style="fill:#262626;stroke:#262626;stroke-width:1.3;" x="93.6" xlink:href="#m56cc5124a0" y="51.48"/>
      </g>
     </g>
     <g id="text_1">
      <!-- &#8722;10 -->
      <defs>
       <path d=" M25.4062 61.5 L25.4062 0 L17.7031 0 L17.7031 52 L2.5 44.2031 L2.5 52.2031 L20.7031 61.5 z " id="CalibreRegular-31"/>
       <path d=" M7.29688 26.5938 L7.29688 32.7969 L46.7031 32.7969 L46.7031 26.5938 z " id="CalibreRegular-2212"/>
       <path d=" M49.7969 16.5938 Q37.0938 -0.90625 26.8906 -0.90625 Q16.7031 -0.90625 10.3438 7.84375 Q4 16.5938 4 30.6875 Q4 44.7969 10.3438 53.5469 Q16.7031 62.2969 26.8906 62.2969 Q37.0938 62.2969 43.4375 53.5469 Q49.7969 44.7969 49.7969 30.6875 Q49.7969 16.5938 37.0938 -0.90625 M26.9062 55.2031 Q19.5938 55.2031 15.6406 48.5 Q11.7031 41.7969 11.7031 30.6875 Q11.7031 19.5938 15.6406 12.8906 Q19.5938 6.20312 26.9062 6.20312 Q34.0938 6.20312 38.0938 12.9531 Q42.0938 19.7031 42.0938 30.7031 Q42.0938 41.7031 38.0938 48.4531 Q34.0938 55.2031 26.9062 55.2031" id="CalibreRegular-30"/>
      </defs>
      <g style="fill:#262626;" transform="translate(84.347453125 468.845)scale(0.14300000000000002 -0.14300000000000002)">
       <use xlink:href="#CalibreRegular-2212"/>
       <use x="53.99998474121094" xlink:href="#CalibreRegular-31"/>
       <use x="86.89997863769531" xlink:href="#CalibreRegular-30"/>
      </g>
     </g>
    </g>
    <g id="xtick_2">
     <g id="line2d_4">
      <path clip-path="url(#pd831f6c710)" d=" M238.68 450.45 L238.68 51.48" style="fill:none;stroke:#ffffff;stroke-linecap:round;stroke-width:1.3;"/>
     </g>
     <g id="line2d_5">
      <g>
       <use style="fill:#262626;stroke:#262626;stroke-width:1.3;" x="238.68" xlink:href="#m56cc5124a0" y="450.45"/>
      </g>
     </g>
     <g id="line2d_6">
      <g>
       <use style="fill:#262626;stroke:#262626;stroke-width:1.3;" x="238.68" xlink:href="#m56cc5124a0" y="51.48"/>
      </g>
     </g>
     <g id="text_2">
      <!-- &#8722;5 -->
      <defs>
       <path d=" M23.7031 33 Q17.2031 33 12.7969 27.7031 L6.59375 27.7031 L6.59375 61.4062 L40.2031 61.4062 L40.2031 54.4062 L13.2031 54.4062 L13.2031 35.9062 Q17.5 39.7969 24.4062 39.7969 Q32.9062 39.7969 38.2969 34.0469 Q43.7031 28.2969 43.7031 19.4062 Q43.7031 10.7031 38.0938 4.89062 Q32.5 -0.90625 23.7969 -0.90625 Q15 -0.90625 9.39062 4 Q3.79688 8.90625 2.70312 17.5 L10.4062 17.5 Q12.5 5.90625 23.7969 5.90625 Q29.2969 5.90625 32.7969 9.75 Q36.2969 13.5938 36.2969 19.3906 Q36.2969 25.2031 32.7969 29.0938 Q29.2969 33 23.7031 33" id="CalibreRegular-35"/>
      </defs>
      <g style="fill:#262626;" transform="translate(232.215953125 468.845)scale(0.14300000000000002 -0.14300000000000002)">
       <use xlink:href="#CalibreRegular-2212"/>
       <use x="53.99998474121094" xlink:href="#CalibreRegular-35"/>
      </g>
     </g>
    </g>
    <g id="xtick_3">
     <g id="line2d_7">
      <path clip-path="url(#pd831f6c710)" d=" M383.76 450.45 L383.76 51.48" style="fill:none;stroke:#ffffff;stroke-linecap:round;stroke-width:1.3;"/>
     </g>
     <g id="line2d_8">
      <g>
       <use style="fill:#262626;stroke:#262626;stroke-width:1.3;" x="383.76" xlink:href="#m56cc5124a0" y="450.45"/>
      </g>
     </g>
     <g id="line2d_9">
      <g>
       <use style="fill:#262626;stroke:#262626;stroke-width:1.3;" x="383.76" xlink:href="#m56cc5124a0" y="51.48"/>
      </g>
     </g>
     <g id="text_3">
      <!-- 0 -->
      <g style="fill:#262626;" transform="translate(380.485523438 468.845)scale(0.14300000000000002 -0.14300000000000002)">
       <use xlink:href="#CalibreRegular-30"/>
      </g>
     </g>
    </g>
    <g id="xtick_4">
     <g id="line2d_10">
      <path clip-path="url(#pd831f6c710)" d=" M528.84 450.45 L528.84 51.48" style="fill:none;stroke:#ffffff;stroke-linecap:round;stroke-width:1.3;"/>
     </g>
     <g id="line2d_11">
      <g>
       <use style="fill:#262626;stroke:#262626;stroke-width:1.3;" x="528.84" xlink:href="#m56cc5124a0" y="450.45"/>
      </g>
     </g>
     <g id="line2d_12">
      <g>
       <use style="fill:#262626;stroke:#262626;stroke-width:1.3;" x="528.84" xlink:href="#m56cc5124a0" y="51.48"/>
      </g>
     </g>
     <g id="text_4">
      <!-- 5 -->
      <g style="fill:#262626;" transform="translate(525.9085 468.845)scale(0.14300000000000002 -0.14300000000000002)">
       <use xlink:href="#CalibreRegular-35"/>
      </g>
     </g>
    </g>
    <g id="xtick_5">
     <g id="line2d_13">
      <path clip-path="url(#pd831f6c710)" d=" M673.92 450.45 L673.92 51.48" style="fill:none;stroke:#ffffff;stroke-linecap:round;stroke-width:1.3;"/>
     </g>
     <g id="line2d_14">
      <g>
       <use style="fill:#262626;stroke:#262626;stroke-width:1.3;" x="673.92" xlink:href="#m56cc5124a0" y="450.45"/>
      </g>
     </g>
     <g id="line2d_15">
      <g>
       <use style="fill:#262626;stroke:#262626;stroke-width:1.3;" x="673.92" xlink:href="#m56cc5124a0" y="51.48"/>
      </g>
     </g>
     <g id="text_5">
      <!-- 10 -->
      <g style="fill:#262626;" transform="translate(668.185476563 468.845)scale(0.14300000000000002 -0.14300000000000002)">
       <use xlink:href="#CalibreRegular-31"/>
       <use x="32.899993896484375" xlink:href="#CalibreRegular-30"/>
      </g>
     </g>
    </g>
   </g>
   <g id="matplotlib.axis_2">
    <g id="ytick_1">
     <g id="line2d_16">
      <path clip-path="url(#pd831f6c710)" d=" M93.6 450.45 L673.92 450.45" style="fill:none;stroke:#ffffff;stroke-linecap:round;stroke-width:1.3;"/>
     </g>
     <g id="line2d_17">
      <g>
       <use style="fill:#262626;stroke:#262626;stroke-width:1.3;" x="93.6" xlink:href="#m56cc5124a0" y="450.45"/>
      </g>
     </g>
     <g id="line2d_18">
      <g>
       <use style="fill:#262626;stroke:#262626;stroke-width:1.3;" x="673.92" xlink:href="#m56cc5124a0" y="450.45"/>
      </g>
     </g>
     <g id="text_6">
      <!-- &#8722;1000 -->
      <g style="fill:#262626;" transform="translate(50.609 453.882)scale(0.14300000000000002 -0.14300000000000002)">
       <use xlink:href="#CalibreRegular-2212"/>
       <use x="53.99998474121094" xlink:href="#CalibreRegular-31"/>
       <use x="86.89997863769531" xlink:href="#CalibreRegular-30"/>
       <use x="140.69996643066406" xlink:href="#CalibreRegular-30"/>
       <use x="194.4999542236328" xlink:href="#CalibreRegular-30"/>
      </g>
     </g>
    </g>
    <g id="ytick_2">
     <g id="line2d_19">
      <path clip-path="url(#pd831f6c710)" d=" M93.6 350.708 L673.92 350.708" style="fill:none;stroke:#ffffff;stroke-linecap:round;stroke-width:1.3;"/>
     </g>
     <g id="line2d_20">
      <g>
       <use style="fill:#262626;stroke:#262626;stroke-width:1.3;" x="93.6" xlink:href="#m56cc5124a0" y="350.7075"/>
      </g>
     </g>
     <g id="line2d_21">
      <g>
       <use style="fill:#262626;stroke:#262626;stroke-width:1.3;" x="673.92" xlink:href="#m56cc5124a0" y="350.7075"/>
      </g>
     </g>
     <g id="text_7">
      <!-- &#8722;500 -->
      <g style="fill:#262626;" transform="translate(56.299953125 354.1395)scale(0.14300000000000002 -0.14300000000000002)">
       <use xlink:href="#CalibreRegular-2212"/>
       <use x="53.99998474121094" xlink:href="#CalibreRegular-35"/>
       <use x="100.89997863769531" xlink:href="#CalibreRegular-30"/>
       <use x="154.69996643066406" xlink:href="#CalibreRegular-30"/>
      </g>
     </g>
    </g>
    <g id="ytick_3">
     <g id="line2d_22">
      <path clip-path="url(#pd831f6c710)" d=" M93.6 250.965 L673.92 250.965" style="fill:none;stroke:#ffffff;stroke-linecap:round;stroke-width:1.3;"/>
     </g>
     <g id="line2d_23">
      <g>
       <use style="fill:#262626;stroke:#262626;stroke-width:1.3;" x="93.6" xlink:href="#m56cc5124a0" y="250.965"/>
      </g>
     </g>
     <g id="line2d_24">
      <g>
       <use style="fill:#262626;stroke:#262626;stroke-width:1.3;" x="673.92" xlink:href="#m56cc5124a0" y="250.965"/>
      </g>
     </g>
     <g id="text_8">
      <!-- 0 -->
      <g style="fill:#262626;" transform="translate(77.951046875 254.397)scale(0.14300000000000002 -0.14300000000000002)">
       <use xlink:href="#CalibreRegular-30"/>
      </g>
     </g>
    </g>
    <g id="ytick_4">
     <g id="line2d_25">
      <path clip-path="url(#pd831f6c710)" d=" M93.6 151.223 L673.92 151.223" style="fill:none;stroke:#ffffff;stroke-linecap:round;stroke-width:1.3;"/>
     </g>
     <g id="line2d_26">
      <g>
       <use style="fill:#262626;stroke:#262626;stroke-width:1.3;" x="93.6" xlink:href="#m56cc5124a0" y="151.2225"/>
      </g>
     </g>
     <g id="line2d_27">
      <g>
       <use style="fill:#262626;stroke:#262626;stroke-width:1.3;" x="673.92" xlink:href="#m56cc5124a0" y="151.2225"/>
      </g>
     </g>
     <g id="text_9">
      <!-- 500 -->
      <g style="fill:#262626;" transform="translate(63.365046875 154.6545)scale(0.14300000000000002 -0.14300000000000002)">
       <use xlink:href="#CalibreRegular-35"/>
       <use x="46.899993896484375" xlink:href="#CalibreRegular-30"/>
       <use x="100.69998168945312" xlink:href="#CalibreRegular-30"/>
      </g>
     </g>
    </g>
    <g id="ytick_5">
     <g id="line2d_28">
      <path clip-path="url(#pd831f6c710)" d=" M93.6 51.48 L673.92 51.48" style="fill:none;stroke:#ffffff;stroke-linecap:round;stroke-width:1.3;"/>
     </g>
     <g id="line2d_29">
      <g>
       <use style="fill:#262626;stroke:#262626;stroke-width:1.3;" x="93.6" xlink:href="#m56cc5124a0" y="51.48"/>
      </g>
     </g>
     <g id="line2d_30">
      <g>
       <use style="fill:#262626;stroke:#262626;stroke-width:1.3;" x="673.92" xlink:href="#m56cc5124a0" y="51.48"/>
      </g>
     </g>
     <g id="text_10">
      <!-- 1000 -->
      <g style="fill:#262626;" transform="translate(57.645046875 54.912)scale(0.14300000000000002 -0.14300000000000002)">
       <use xlink:href="#CalibreRegular-31"/>
       <use x="32.899993896484375" xlink:href="#CalibreRegular-30"/>
       <use x="86.69998168945312" xlink:href="#CalibreRegular-30"/>
       <use x="140.49996948242188" xlink:href="#CalibreRegular-30"/>
      </g>
     </g>
    </g>
   </g>
   <g id="line2d_31">
    <path clip-path="url(#pd831f6c710)" d=" M93.6 250.965 L673.92 250.965" style="fill:none;stroke:#dcdce6;stroke-linecap:round;stroke-width:2;"/>
   </g>
   <g id="line2d_32">
    <path clip-path="url(#pd831f6c710)" d=" M383.76 450.45 L383.76 51.48" style="fill:none;stroke:#dcdce6;stroke-linecap:round;stroke-width:2;"/>
   </g>
   <g id="line2d_33">
    <path clip-path="url(#pd831f6c710)" d=" M93.6 250.965 L673.92 250.965" style="fill:none;stroke:#dcdce6;stroke-linecap:round;stroke-width:2;"/>
   </g>
   <g id="line2d_34">
    <path clip-path="url(#pd831f6c710)" d=" M383.76 450.45 L383.76 51.48" style="fill:none;stroke:#dcdce6;stroke-linecap:round;stroke-width:2;"/>
   </g>
   <g id="patch_3">
    <path d=" M93.6 450.45 L93.6 51.48" style="fill:none;"/>
   </g>
   <g id="patch_4">
    <path d=" M93.6 51.48 L673.92 51.48" style="fill:none;"/>
   </g>
   <g id="patch_5">
    <path d=" M673.92 450.45 L673.92 51.48" style="fill:none;"/>
   </g>
   <g id="patch_6">
    <path d=" M93.6 450.45 L673.92 450.45" style="fill:none;"/>
   </g>
   <g id="text_11">
    <!-- Convex vs Non-Convex -->
    <defs>
     <path d=" M4 22.5938 L4 29.5938 L28.0938 29.5938 L28.0938 22.5938 z " id="CalibreRegular-2d"/>
     <path d=" M3 12.2031 L10.7969 12.2031 Q12.9062 5.40625 21.2969 5.40625 Q25.4062 5.40625 27.9062 7.04688 Q30.4062 8.70312 30.4062 12 Q30.4062 16.5 23.7969 18.2031 L15 20.5 Q4.29688 23.2031 4.29688 32.2031 Q4.29688 38 8.79688 41.6406 Q13.2969 45.2969 20.2031 45.2969 Q27.4062 45.2969 31.7969 42 Q36.2031 38.7031 37.4062 32.7031 L29.9062 32.7031 Q27.9062 39 20.0938 39 Q16.5938 39 14.0938 37.3438 Q11.5938 35.7031 11.5938 32.5938 Q11.5938 30.4062 13.0469 29.1562 Q14.5 27.9062 17.7969 27 L26.4062 24.9062 Q37.7031 21.9062 37.7031 12.5 Q37.7031 6.29688 33.0938 2.6875 Q28.5 -0.90625 21.2031 -0.90625 Q13.9062 -0.90625 8.95312 2.59375 Q4 6.09375 3 12.2031" id="CalibreRegular-73"/>
     <path d=" M55 61.4062 L55 0 L49.2031 0 L14.9062 48.7969 L14.9062 0 L7.29688 0 L7.29688 61.4062 L14.7969 61.4062 L47.5 14.7031 L47.5 61.4062 z " id="CalibreRegular-4e"/>
     <path id="CalibreRegular-20"/>
     <path d=" M6.70312 0 L6.70312 44.4062 L14.2031 44.4062 L14.2031 38.7969 Q16.2969 41.5938 19.75 43.4375 Q23.2031 45.2969 27.2969 45.2969 Q34.7031 45.2969 38.7969 40.8906 Q42.9062 36.5 42.9062 29.0938 L42.9062 0 L35.2969 0 L35.2969 27.9062 Q35.2969 32.7031 32.8438 35.5469 Q30.4062 38.4062 25.5 38.4062 Q21.5938 38.4062 18.5 36.0469 Q15.4062 33.7031 14.2031 30.0938 L14.2031 0 z " id="CalibreRegular-6e"/>
     <path d=" M19.4062 -0.90625 Q3.70312 16.5938 3.70312 30.6875 Q3.70312 44.7969 11.5469 53.5469 Q19.4062 62.2969 31.2031 62.2969 Q40.7031 62.2969 46.9531 57.1875 Q53.2031 52.0938 55.0938 43.4062 L47.2969 43.4062 Q43.0938 55.2031 31.2031 55.2031 Q22.4062 55.2031 17 48.4531 Q11.5938 41.7031 11.5938 30.7031 Q11.5938 19.7969 17 13 Q22.4062 6.20312 31.2031 6.20312 Q43.2031 6.20312 47.2969 18.0938 L55.0938 18.0938 Q53.2031 9.29688 46.9531 4.1875 Q40.7031 -0.90625 31.2031 -0.90625 Q19.4062 -0.90625 3.70312 16.5938" id="CalibreRegular-43"/>
     <path d=" M33 45.2969 Q44.2969 32.4062 44.2969 22.2031 Q44.2969 12 38.6406 5.54688 Q33 -0.90625 23.8906 -0.90625 Q14.7969 -0.90625 9.14062 5.54688 Q3.5 12 3.5 22.2031 Q3.5 32.4062 9.14062 38.8438 Q14.7969 45.2969 23.8906 45.2969 Q33 45.2969 44.2969 32.4062 M29.7969 5.70312 Q36.7031 14.7969 36.7031 22.1875 Q36.7031 29.5938 33.25 34.1406 Q29.7969 38.7031 23.8906 38.7031 Q18 38.7031 14.5469 34.1406 Q11.0938 29.5938 11.0938 22.1875 Q11.0938 14.7969 14.5469 10.25 Q18 5.70312 23.8906 5.70312 Q29.7969 5.70312 36.7031 14.7969" id="CalibreRegular-6f"/>
     <path d=" M34.7031 13.2969 L41.7969 13.2969 Q40.5938 6.79688 35.8906 2.9375 Q31.2031 -0.90625 23.9062 -0.90625 Q14.7969 -0.90625 9.14062 5.4375 Q3.5 11.7969 3.5 22.0938 Q3.5 32.2031 9.09375 38.75 Q14.7031 45.2969 23.7031 45.2969 Q32.5938 45.2969 37.5 39.3438 Q42.4062 33.4062 42.4062 23.5 L42.4062 20.7969 L11 20.7969 Q11.0938 13.7969 14.6406 9.64062 Q18.2031 5.5 23.9062 5.5 Q28.0938 5.5 30.9375 7.54688 Q33.7969 9.59375 34.7031 13.2969 M23.7969 38.9062 Q18.7969 38.9062 15.3906 35.5938 Q12 32.2969 11.2031 26.5 L34.7969 26.5 Q34.7031 31.7969 31.8906 35.3438 Q29.0938 38.9062 23.7969 38.9062" id="CalibreRegular-65"/>
     <path d=" M26.4062 0 L19 0 L1.79688 44.4062 L9.90625 44.4062 L22.9062 9.5 L35.7969 44.4062 L43.7031 44.4062 z " id="CalibreRegular-76"/>
     <path d=" M42.2031 44.4062 L26.5938 23 L43.0938 0 L34.5938 0 L22.2969 17.2969 L9.90625 0 L1.79688 0 L18.2031 22.7031 L2.70312 44.4062 L11.2969 44.4062 L22.5 28.5 L34 44.4062 z " id="CalibreRegular-78"/>
    </defs>
    <g style="fill:#262626;" transform="translate(306.2665125 46.48)scale(0.17160000000000003 -0.17160000000000003)">
     <use xlink:href="#CalibreRegular-43"/>
     <use x="58.59999084472656" xlink:href="#CalibreRegular-6f"/>
     <use x="106.39997863769531" xlink:href="#CalibreRegular-6e"/>
     <use x="155.2999725341797" xlink:href="#CalibreRegular-76"/>
     <use x="200.79995727539062" xlink:href="#CalibreRegular-65"/>
     <use x="246.4999542236328" xlink:href="#CalibreRegular-78"/>
     <use x="291.3999481201172" xlink:href="#CalibreRegular-20"/>
     <use x="313.49993896484375" xlink:href="#CalibreRegular-76"/>
     <use x="358.9999237060547" xlink:href="#CalibreRegular-73"/>
     <use x="400.39991760253906" xlink:href="#CalibreRegular-20"/>
     <use x="422.4999084472656" xlink:href="#CalibreRegular-4e"/>
     <use x="484.7998962402344" xlink:href="#CalibreRegular-6f"/>
     <use x="532.5998840332031" xlink:href="#CalibreRegular-6e"/>
     <use x="581.4998779296875" xlink:href="#CalibreRegular-2d"/>
     <use x="613.5998687744141" xlink:href="#CalibreRegular-43"/>
     <use x="672.1998596191406" xlink:href="#CalibreRegular-6f"/>
     <use x="719.9998474121094" xlink:href="#CalibreRegular-6e"/>
     <use x="768.8998413085938" xlink:href="#CalibreRegular-76"/>
     <use x="814.3998260498047" xlink:href="#CalibreRegular-65"/>
     <use x="860.0998229980469" xlink:href="#CalibreRegular-78"/>
    </g>
   </g>
   <g id="line2d_35">
    <path clip-path="url(#pd831f6c710)" d=" M210.781 -1 L213.846 16.3954 L217.332 35.058 L220.817 52.5842 L224.303 69.021 L227.788 84.4147 L231.274 98.8103 L234.759 112.252 L238.244 124.782 L241.73 136.444 L245.215 147.279 L248.701 157.325 L252.186 166.624 L255.671 175.212 L259.157 183.126 L262.642 190.404 L266.128 197.08 L269.032 202.208 L271.937 206.961 L274.841 211.358 L277.746 215.417 L280.65 219.155 L283.555 222.591 L287.04 226.337 L290.525 229.7 L294.011 232.706 L297.496 235.381 L300.982 237.751 L304.467 239.84 L307.952 241.671 L311.438 243.266 L315.504 244.857 L319.57 246.187 L323.637 247.288 L328.284 248.299 L332.931 249.087 L338.159 249.748 L343.968 250.259 L350.939 250.638 L359.653 250.87 L372.432 250.96 L405.544 250.902 L415.419 250.682 L422.971 250.3 L429.361 249.748 L434.589 249.087 L439.236 248.299 L443.883 247.288 L447.95 246.187 L452.016 244.857 L456.082 243.266 L459.568 241.671 L463.053 239.84 L466.538 237.751 L470.024 235.381 L473.509 232.706 L476.995 229.7 L479.899 226.924 L482.804 223.884 L485.708 220.565 L488.613 216.949 L491.517 213.021 L494.422 208.762 L497.326 204.153 L500.231 199.177 L503.135 193.815 L506.04 188.047 L508.944 181.852 L511.849 175.212 L515.334 166.624 L518.819 157.325 L522.305 147.279 L525.79 136.444 L529.276 124.782 L532.761 112.252 L536.246 98.8103 L539.732 84.4147 L543.217 69.021 L546.703 52.5842 L550.188 35.058 L553.674 16.3954 L556.739 -1 L556.739 -1" style="fill:none;stroke:#386df9;stroke-linecap:round;stroke-width:2.275;"/>
   </g>
   <g id="line2d_36">
    <path clip-path="url(#pd831f6c710)" d=" M93.6 450.45 L99.409 438.707 L105.218 427.434 L111.027 416.622 L116.836 406.261 L122.645 396.341 L128.454 386.853 L134.263 377.787 L140.072 369.133 L145.881 360.882 L151.69 353.025 L157.499 345.551 L163.308 338.451 L169.117 331.716 L174.926 325.335 L180.735 319.3 L186.544 313.601 L192.353 308.227 L198.162 303.171 L203.971 298.42 L209.78 293.968 L215.589 289.802 L221.398 285.915 L227.207 282.296 L233.016 278.937 L238.825 275.826 L244.634 272.955 L250.443 270.314 L256.833 267.663 L263.223 265.266 L269.613 263.11 L276.003 261.182 L282.974 259.325 L289.945 257.708 L296.915 256.313 L304.467 255.036 L312.019 253.98 L320.151 253.067 L328.865 252.316 L338.159 251.739 L348.615 251.319 L360.814 251.064 L377.08 250.967 L409.61 250.824 L421.809 250.515 L432.265 250.033 L441.56 249.388 L450.273 248.562 L458.406 247.569 L465.957 246.43 L473.509 245.062 L480.48 243.577 L487.451 241.861 L493.841 240.072 L500.231 238.063 L506.621 235.821 L513.01 233.333 L519.4 230.587 L525.209 227.855 L531.018 224.889 L536.827 221.68 L542.636 218.218 L548.445 214.493 L554.254 210.495 L560.063 206.216 L565.872 201.646 L571.681 196.774 L577.49 191.592 L583.299 186.089 L589.108 180.256 L594.917 174.084 L600.726 167.563 L606.535 160.683 L612.345 153.435 L618.154 145.809 L623.963 137.795 L629.772 129.384 L635.581 120.567 L641.39 111.333 L647.199 101.673 L653.008 91.578 L658.817 81.0375 L664.626 70.0422 L670.435 58.5826 L673.92 51.48 L673.92 51.48" style="fill:none;stroke:#ffdc52;stroke-linecap:round;stroke-width:2.275;"/>
   </g>
   <g id="legend_1">
    <g id="line2d_37">
     <path d=" M553.315 69.355 L581.915 69.355" style="fill:none;stroke:#386df9;stroke-linecap:round;stroke-width:2.275;"/>
    </g>
    <g id="line2d_38"/>
    <g id="text_12">
     <!-- Convex -->
     <g style="fill:#262626;" transform="translate(593.355140625 74.36)scale(0.14300000000000002 -0.14300000000000002)">
      <use xlink:href="#CalibreRegular-43"/>
      <use x="58.59999084472656" xlink:href="#CalibreRegular-6f"/>
      <use x="106.39997863769531" xlink:href="#CalibreRegular-6e"/>
      <use x="155.2999725341797" xlink:href="#CalibreRegular-76"/>
      <use x="200.79995727539062" xlink:href="#CalibreRegular-65"/>
      <use x="246.4999542236328" xlink:href="#CalibreRegular-78"/>
     </g>
    </g>
    <g id="line2d_39">
     <path d=" M553.315 88.946 L581.915 88.946" style="fill:none;stroke:#ffdc52;stroke-linecap:round;stroke-width:2.275;"/>
    </g>
    <g id="line2d_40"/>
    <g id="text_13">
     <!-- Non-Convex -->
     <g style="fill:#262626;" transform="translate(593.355140625 93.951)scale(0.14300000000000002 -0.14300000000000002)">
      <use xlink:href="#CalibreRegular-4e"/>
      <use x="62.29998779296875" xlink:href="#CalibreRegular-6f"/>
      <use x="110.0999755859375" xlink:href="#CalibreRegular-6e"/>
      <use x="158.99996948242188" xlink:href="#CalibreRegular-2d"/>
      <use x="191.09996032714844" xlink:href="#CalibreRegular-43"/>
      <use x="249.699951171875" xlink:href="#CalibreRegular-6f"/>
      <use x="297.49993896484375" xlink:href="#CalibreRegular-6e"/>
      <use x="346.3999328613281" xlink:href="#CalibreRegular-76"/>
      <use x="391.89991760253906" xlink:href="#CalibreRegular-65"/>
      <use x="437.59991455078125" xlink:href="#CalibreRegular-78"/>
     </g>
    </g>
   </g>
  </g>
 </g>
 </svg>
