<svg xmlns="http://www.w3.org/2000/svg" xmlns:xlink="http://www.w3.org/1999/xlink" height="576pt" version="1.1" viewBox="0 0 1008 576" width="1008pt">
 <defs>
  <clipPath id="p708c181e55">
   <rect height="446.4" width="781.2" x="126.0" y="57.6"/>
  </clipPath>
 </defs>
<defs>
  <style type="text/css">
*{stroke-linecap:butt;stroke-linejoin:round;}
  </style>
 </defs>
 <g id="figure_1">
  <g id="patch_1">
   <path d=" M0 576 L1008 576 L1008 0 L0 0 z " style="fill:#ffffff;"/>
  </g>
  <g id="axes_1">
   <g id="patch_2">
    <path d=" M126 504 L907.2 504 L907.2 57.6 L126 57.6 z " style="fill:#eaeaf2;"/>
   </g>
   <g id="matplotlib.axis_1">
    <g id="xtick_1">
     <g id="line2d_1">
      <path clip-path="url(#p708c181e55)" d=" M197.018 504 L197.018 57.6" style="fill:none;stroke:#ffffff;stroke-linecap:round;stroke-width:1.3;"/>
     </g>
     <g id="line2d_2">
      <defs>
       <path d=" M0 0 L0 0" id="m56cc5124a0" style="stroke:#262626;stroke-width:1.3;"/>
      </defs>
      <g>
       <use style="fill:#262626;stroke:#262626;stroke-width:1.3;" x="197.018181818" xlink:href="#m56cc5124a0" y="504.0"/>
      </g>
     </g>
     <g id="line2d_3">
      <g>
       <use style="fill:#262626;stroke:#262626;stroke-width:1.3;" x="197.018181818" xlink:href="#m56cc5124a0" y="57.6"/>
      </g>
     </g>
     <g id="text_1">
      <!-- 0 -->
      <defs>
       <path d=" M49.7969 16.5938 Q37.0938 -0.90625 26.8906 -0.90625 Q16.7031 -0.90625 10.3438 7.84375 Q4 16.5938 4 30.6875 Q4 44.7969 10.3438 53.5469 Q16.7031 62.2969 26.8906 62.2969 Q37.0938 62.2969 43.4375 53.5469 Q49.7969 44.7969 49.7969 30.6875 Q49.7969 16.5938 37.0938 -0.90625 M26.9062 55.2031 Q19.5938 55.2031 15.6406 48.5 Q11.7031 41.7969 11.7031 30.6875 Q11.7031 19.5938 15.6406 12.8906 Q19.5938 6.20312 26.9062 6.20312 Q34.0938 6.20312 38.0938 12.9531 Q42.0938 19.7031 42.0938 30.7031 Q42.0938 41.7031 38.0938 48.4531 Q34.0938 55.2031 26.9062 55.2031" id="CalibreRegular-30"/>
      </defs>
      <g style="fill:#262626;" transform="translate(193.743705256 522.395)scale(0.14300000000000002 -0.14300000000000002)">
       <use xlink:href="#CalibreRegular-30"/>
      </g>
     </g>
    </g>
    <g id="xtick_2">
     <g id="line2d_4">
      <path clip-path="url(#p708c181e55)" d=" M339.055 504 L339.055 57.6" style="fill:none;stroke:#ffffff;stroke-linecap:round;stroke-width:1.3;"/>
     </g>
     <g id="line2d_5">
      <g>
       <use style="fill:#262626;stroke:#262626;stroke-width:1.3;" x="339.054545455" xlink:href="#m56cc5124a0" y="504.0"/>
      </g>
     </g>
     <g id="line2d_6">
      <g>
       <use style="fill:#262626;stroke:#262626;stroke-width:1.3;" x="339.054545455" xlink:href="#m56cc5124a0" y="57.6"/>
      </g>
     </g>
     <g id="text_2">
      <!-- 2 -->
      <defs>
       <path d=" M34.0938 44.9062 Q34.0938 49.5938 31.0938 52.4375 Q28.0938 55.2969 23 55.2969 Q17.5938 55.2969 14.5469 51.9375 Q11.5 48.5938 11 43 L2.90625 43 Q3.79688 51.7031 9.1875 57 Q14.5938 62.2969 23 62.2969 Q31.7031 62.2969 36.7031 57.5938 Q41.7031 52.9062 41.7031 45 Q41.7031 43.5938 41.3438 42.0938 Q41 40.5938 40.6406 39.5 Q40.2969 38.4062 39.3438 36.75 Q38.4062 35.0938 37.9062 34.2969 Q37.4062 33.5 35.9062 31.7031 Q34.4062 29.9062 33.9062 29.2969 Q33.4062 28.7031 31.5469 26.6406 Q29.7031 24.5938 29.2969 24.0938 L13.7031 7 L43 7 L43 0 L2.90625 0 L2.90625 5.20312 L22.7031 27 Q27.2031 32 28.7969 33.7969 Q30.4062 35.5938 32.25 38.8906 Q34.0938 42.2031 34.0938 44.9062" id="CalibreRegular-32"/>
      </defs>
      <g style="fill:#262626;" transform="translate(336.18784233 522.395)scale(0.14300000000000002 -0.14300000000000002)">
       <use xlink:href="#CalibreRegular-32"/>
      </g>
     </g>
    </g>
    <g id="xtick_3">
     <g id="line2d_7">
      <path clip-path="url(#p708c181e55)" d=" M481.091 504 L481.091 57.6" style="fill:none;stroke:#ffffff;stroke-linecap:round;stroke-width:1.3;"/>
     </g>
     <g id="line2d_8">
      <g>
       <use style="fill:#262626;stroke:#262626;stroke-width:1.3;" x="481.090909091" xlink:href="#m56cc5124a0" y="504.0"/>
      </g>
     </g>
     <g id="line2d_9">
      <g>
       <use style="fill:#262626;stroke:#262626;stroke-width:1.3;" x="481.090909091" xlink:href="#m56cc5124a0" y="57.6"/>
      </g>
     </g>
     <g id="text_3">
      <!-- 4 -->
      <defs>
       <path d=" M33.7969 61.4062 L10.9062 20.5 L30.5 20.5 L30.5 35.2969 L37.7969 35.2969 L37.7969 20.5 L48.5938 20.5 L48.5938 13.9062 L37.7969 13.9062 L37.7969 0 L30.5 0 L30.5 13.9062 L2.20312 13.9062 L2.20312 19.5 L25.7969 61.4062 z " id="CalibreRegular-34"/>
      </defs>
      <g style="fill:#262626;" transform="translate(477.773979403 522.395)scale(0.14300000000000002 -0.14300000000000002)">
       <use xlink:href="#CalibreRegular-34"/>
      </g>
     </g>
    </g>
    <g id="xtick_4">
     <g id="line2d_10">
      <path clip-path="url(#p708c181e55)" d=" M623.127 504 L623.127 57.6" style="fill:none;stroke:#ffffff;stroke-linecap:round;stroke-width:1.3;"/>
     </g>
     <g id="line2d_11">
      <g>
       <use style="fill:#262626;stroke:#262626;stroke-width:1.3;" x="623.127272727" xlink:href="#m56cc5124a0" y="504.0"/>
      </g>
     </g>
     <g id="line2d_12">
      <g>
       <use style="fill:#262626;stroke:#262626;stroke-width:1.3;" x="623.127272727" xlink:href="#m56cc5124a0" y="57.6"/>
      </g>
     </g>
     <g id="text_4">
      <!-- 6 -->
      <defs>
       <path d=" M12.7031 19.5938 Q12.7031 13.5938 16.3906 9.6875 Q20.0938 5.79688 26 5.79688 Q31.7969 5.79688 35.5 9.64062 Q39.2031 13.5 39.2031 19.5938 Q39.2031 25.7031 35.5 29.6406 Q31.7969 33.5938 26 33.5938 Q20.0938 33.5938 16.3906 29.6875 Q12.7031 25.7969 12.7031 19.5938 M45.5938 47.0938 L37.7969 47.0938 Q35 55.7969 26.5 55.7969 Q19.7969 55.7969 15.3906 49.0469 Q11 42.2969 11 32.2969 Q11 32 11.0469 30.9531 Q11.0938 29.9062 11.0938 29.5938 Q12.5938 34.2969 16.8906 37.1875 Q21.2031 40.0938 26.5938 40.0938 Q35.2969 40.0938 40.8906 34.1406 Q46.5 28.2031 46.5 19.7031 Q46.5 11 40.7969 5.04688 Q35.0938 -0.90625 25.9062 -0.90625 Q13.4062 -0.90625 7.59375 10.7969 Q4 18.4062 4 29.5938 Q4 44.4062 10.25 53.3438 Q16.5 62.2969 26.5 62.2969 Q41.7031 62.2969 45.5938 47.0938" id="CalibreRegular-36"/>
      </defs>
      <g style="fill:#262626;" transform="translate(620.088522727 522.395)scale(0.14300000000000002 -0.14300000000000002)">
       <use xlink:href="#CalibreRegular-36"/>
      </g>
     </g>
    </g>
    <g id="xtick_5">
     <g id="line2d_13">
      <path clip-path="url(#p708c181e55)" d=" M765.164 504 L765.164 57.6" style="fill:none;stroke:#ffffff;stroke-linecap:round;stroke-width:1.3;"/>
     </g>
     <g id="line2d_14">
      <g>
       <use style="fill:#262626;stroke:#262626;stroke-width:1.3;" x="765.163636364" xlink:href="#m56cc5124a0" y="504.0"/>
      </g>
     </g>
     <g id="line2d_15">
      <g>
       <use style="fill:#262626;stroke:#262626;stroke-width:1.3;" x="765.163636364" xlink:href="#m56cc5124a0" y="57.6"/>
      </g>
     </g>
     <g id="text_5">
      <!-- 8 -->
      <defs>
       <path d=" M24.2969 5.5 Q30.2031 5.5 33.9531 8.79688 Q37.7031 12.0938 37.7031 17.2969 Q37.7031 22.5 33.9531 25.75 Q30.2031 29 24.2969 29 Q18.5 29 14.75 25.75 Q11 22.5 11 17.2969 Q11 12.0938 14.75 8.79688 Q18.5 5.5 24.2969 5.5 M24.2969 35.5938 Q29.2031 35.5938 32.3906 38.3906 Q35.5938 41.2031 35.5938 45.7031 Q35.5938 50.2031 32.3906 53.0469 Q29.2031 55.9062 24.2969 55.9062 Q19.5 55.9062 16.2969 53.0469 Q13.0938 50.2031 13.0938 45.7031 Q13.0938 41.2969 16.2969 38.4375 Q19.5 35.5938 24.2969 35.5938 M24.2969 -0.90625 Q15.2969 -0.90625 9.34375 4 Q3.40625 8.90625 3.40625 16.7031 Q3.40625 22.5 6.75 26.7031 Q10.0938 30.9062 15.4062 32.2969 Q11 33.7969 8.29688 37.5 Q5.59375 41.2031 5.59375 46.0938 Q5.59375 53.4062 10.9375 57.8438 Q16.2969 62.2969 24.2969 62.2969 Q32.4062 62.2969 37.75 57.8438 Q43.0938 53.4062 43.0938 46.0938 Q43.0938 41.2031 40.3438 37.5469 Q37.5938 33.9062 33.2969 32.2969 Q38.5 30.9062 41.8906 26.7031 Q45.2969 22.5 45.2969 16.7031 Q45.2969 8.90625 39.3438 4 Q33.4062 -0.90625 24.2969 -0.90625" id="CalibreRegular-38"/>
      </defs>
      <g style="fill:#262626;" transform="translate(762.168456676 522.395)scale(0.14300000000000002 -0.14300000000000002)">
       <use xlink:href="#CalibreRegular-38"/>
      </g>
     </g>
    </g>
    <g id="xtick_6">
     <g id="line2d_16">
      <path clip-path="url(#p708c181e55)" d=" M907.2 504 L907.2 57.6" style="fill:none;stroke:#ffffff;stroke-linecap:round;stroke-width:1.3;"/>
     </g>
     <g id="line2d_17">
      <g>
       <use style="fill:#262626;stroke:#262626;stroke-width:1.3;" x="907.2" xlink:href="#m56cc5124a0" y="504.0"/>
      </g>
     </g>
     <g id="line2d_18">
      <g>
       <use style="fill:#262626;stroke:#262626;stroke-width:1.3;" x="907.2" xlink:href="#m56cc5124a0" y="57.6"/>
      </g>
     </g>
     <g id="text_6">
      <!-- 10 -->
      <defs>
       <path d=" M25.4062 61.5 L25.4062 0 L17.7031 0 L17.7031 52 L2.5 44.2031 L2.5 52.2031 L20.7031 61.5 z " id="CalibreRegular-31"/>
      </defs>
      <g style="fill:#262626;" transform="translate(901.465476563 522.395)scale(0.14300000000000002 -0.14300000000000002)">
       <use xlink:href="#CalibreRegular-31"/>
       <use x="32.899993896484375" xlink:href="#CalibreRegular-30"/>
      </g>
     </g>
    </g>
   </g>
   <g id="matplotlib.axis_2">
    <g id="ytick_1">
     <g id="line2d_19">
      <path clip-path="url(#p708c181e55)" d=" M126 463.418 L907.2 463.418" style="fill:none;stroke:#ffffff;stroke-linecap:round;stroke-width:1.3;"/>
     </g>
     <g id="line2d_20">
      <g>
       <use style="fill:#262626;stroke:#262626;stroke-width:1.3;" x="126.0" xlink:href="#m56cc5124a0" y="463.418181818"/>
      </g>
     </g>
     <g id="line2d_21">
      <g>
       <use style="fill:#262626;stroke:#262626;stroke-width:1.3;" x="907.2" xlink:href="#m56cc5124a0" y="463.418181818"/>
      </g>
     </g>
     <g id="text_7">
      <!-- 0 -->
      <g style="fill:#262626;" transform="translate(110.351046875 466.850181818)scale(0.14300000000000002 -0.14300000000000002)">
       <use xlink:href="#CalibreRegular-30"/>
      </g>
     </g>
    </g>
    <g id="ytick_2">
     <g id="line2d_22">
      <path clip-path="url(#p708c181e55)" d=" M126 382.255 L907.2 382.255" style="fill:none;stroke:#ffffff;stroke-linecap:round;stroke-width:1.3;"/>
     </g>
     <g id="line2d_23">
      <g>
       <use style="fill:#262626;stroke:#262626;stroke-width:1.3;" x="126.0" xlink:href="#m56cc5124a0" y="382.254545455"/>
      </g>
     </g>
     <g id="line2d_24">
      <g>
       <use style="fill:#262626;stroke:#262626;stroke-width:1.3;" x="907.2" xlink:href="#m56cc5124a0" y="382.254545455"/>
      </g>
     </g>
     <g id="text_8">
      <!-- 2 -->
      <g style="fill:#262626;" transform="translate(111.16659375 385.686545455)scale(0.14300000000000002 -0.14300000000000002)">
       <use xlink:href="#CalibreRegular-32"/>
      </g>
     </g>
    </g>
    <g id="ytick_3">
     <g id="line2d_25">
      <path clip-path="url(#p708c181e55)" d=" M126 301.091 L907.2 301.091" style="fill:none;stroke:#ffffff;stroke-linecap:round;stroke-width:1.3;"/>
     </g>
     <g id="line2d_26">
      <g>
       <use style="fill:#262626;stroke:#262626;stroke-width:1.3;" x="126.0" xlink:href="#m56cc5124a0" y="301.090909091"/>
      </g>
     </g>
     <g id="line2d_27">
      <g>
       <use style="fill:#262626;stroke:#262626;stroke-width:1.3;" x="907.2" xlink:href="#m56cc5124a0" y="301.090909091"/>
      </g>
     </g>
     <g id="text_9">
      <!-- 4 -->
      <g style="fill:#262626;" transform="translate(110.266140625 304.522909091)scale(0.14300000000000002 -0.14300000000000002)">
       <use xlink:href="#CalibreRegular-34"/>
      </g>
     </g>
    </g>
    <g id="ytick_4">
     <g id="line2d_28">
      <path clip-path="url(#p708c181e55)" d=" M126 219.927 L907.2 219.927" style="fill:none;stroke:#ffffff;stroke-linecap:round;stroke-width:1.3;"/>
     </g>
     <g id="line2d_29">
      <g>
       <use style="fill:#262626;stroke:#262626;stroke-width:1.3;" x="126.0" xlink:href="#m56cc5124a0" y="219.927272727"/>
      </g>
     </g>
     <g id="line2d_30">
      <g>
       <use style="fill:#262626;stroke:#262626;stroke-width:1.3;" x="907.2" xlink:href="#m56cc5124a0" y="219.927272727"/>
      </g>
     </g>
     <g id="text_10">
      <!-- 6 -->
      <g style="fill:#262626;" transform="translate(110.8225 223.359272727)scale(0.14300000000000002 -0.14300000000000002)">
       <use xlink:href="#CalibreRegular-36"/>
      </g>
     </g>
    </g>
    <g id="ytick_5">
     <g id="line2d_31">
      <path clip-path="url(#p708c181e55)" d=" M126 138.764 L907.2 138.764" style="fill:none;stroke:#ffffff;stroke-linecap:round;stroke-width:1.3;"/>
     </g>
     <g id="line2d_32">
      <g>
       <use style="fill:#262626;stroke:#262626;stroke-width:1.3;" x="126.0" xlink:href="#m56cc5124a0" y="138.763636364"/>
      </g>
     </g>
     <g id="line2d_33">
      <g>
       <use style="fill:#262626;stroke:#262626;stroke-width:1.3;" x="907.2" xlink:href="#m56cc5124a0" y="138.763636364"/>
      </g>
     </g>
     <g id="text_11">
      <!-- 8 -->
      <g style="fill:#262626;" transform="translate(110.909640625 142.195636364)scale(0.14300000000000002 -0.14300000000000002)">
       <use xlink:href="#CalibreRegular-38"/>
      </g>
     </g>
    </g>
    <g id="ytick_6">
     <g id="line2d_34">
      <path clip-path="url(#p708c181e55)" d=" M126 57.6 L907.2 57.6" style="fill:none;stroke:#ffffff;stroke-linecap:round;stroke-width:1.3;"/>
     </g>
     <g id="line2d_35">
      <g>
       <use style="fill:#262626;stroke:#262626;stroke-width:1.3;" x="126.0" xlink:href="#m56cc5124a0" y="57.6"/>
      </g>
     </g>
     <g id="line2d_36">
      <g>
       <use style="fill:#262626;stroke:#262626;stroke-width:1.3;" x="907.2" xlink:href="#m56cc5124a0" y="57.6"/>
      </g>
     </g>
     <g id="text_12">
      <!-- 10 -->
      <g style="fill:#262626;" transform="translate(105.430953125 61.032)scale(0.14300000000000002 -0.14300000000000002)">
       <use xlink:href="#CalibreRegular-31"/>
       <use x="32.899993896484375" xlink:href="#CalibreRegular-30"/>
      </g>
     </g>
    </g>
   </g>
   <g id="line2d_37">
    <path clip-path="url(#p708c181e55)" d=" M126 463.418 L907.2 463.418" style="fill:none;stroke:#dcdce6;stroke-linecap:round;stroke-width:2;"/>
   </g>
   <g id="line2d_38">
    <path clip-path="url(#p708c181e55)" d=" M197.018 504 L197.018 57.6" style="fill:none;stroke:#dcdce6;stroke-linecap:round;stroke-width:2;"/>
   </g>
   <g id="line2d_39">
    <path clip-path="url(#p708c181e55)" d=" M126 483.709 L907.2 260.509 L907.2 260.509" style="fill:none;stroke:#dcdce6;stroke-linecap:round;stroke-width:2.275;"/>
   </g>
   <g id="line2d_40">
    <path clip-path="url(#p708c181e55)" d=" M126 463.418 L907.2 463.418" style="fill:none;stroke:#dcdce6;stroke-linecap:round;stroke-width:2;"/>
   </g>
   <g id="line2d_41">
    <path clip-path="url(#p708c181e55)" d=" M197.018 504 L197.018 57.6" style="fill:none;stroke:#dcdce6;stroke-linecap:round;stroke-width:2;"/>
   </g>
   <g id="line2d_42">
    <path clip-path="url(#p708c181e55)" d=" M126 544.582 L603.384 -1 L603.384 -1" style="fill:none;stroke:#dcdce6;stroke-linecap:round;stroke-width:2.275;"/>
   </g>
   <g id="line2d_43">
    <path clip-path="url(#p708c181e55)" d=" M126 463.418 L907.2 463.418" style="fill:none;stroke:#dcdce6;stroke-linecap:round;stroke-width:2;"/>
   </g>
   <g id="line2d_44">
    <path clip-path="url(#p708c181e55)" d=" M197.018 504 L197.018 57.6" style="fill:none;stroke:#dcdce6;stroke-linecap:round;stroke-width:2;"/>
   </g>
   <g id="line2d_45">
    <path clip-path="url(#p708c181e55)" d=" M126 422.836 L907.2 199.636 L907.2 199.636" style="fill:none;stroke:#dcdce6;stroke-linecap:round;stroke-width:2.275;"/>
   </g>
   <g id="line2d_46">
    <path clip-path="url(#p708c181e55)" d=" M126 463.418 L907.2 463.418" style="fill:none;stroke:#dcdce6;stroke-linecap:round;stroke-width:2;"/>
   </g>
   <g id="line2d_47">
    <path clip-path="url(#p708c181e55)" d=" M197.018 504 L197.018 57.6" style="fill:none;stroke:#dcdce6;stroke-linecap:round;stroke-width:2;"/>
   </g>
   <g id="line2d_48">
    <path clip-path="url(#p708c181e55)" d=" M204.161 577 L709.911 -1 L709.911 -1" style="fill:none;stroke:#dcdce6;stroke-linecap:round;stroke-width:2.275;"/>
   </g>
   <g id="line2d_49">
    <path clip-path="url(#p708c181e55)" d=" M126 463.418 L907.2 463.418" style="fill:none;stroke:#dcdce6;stroke-linecap:round;stroke-width:2;"/>
   </g>
   <g id="line2d_50">
    <path clip-path="url(#p708c181e55)" d=" M197.018 504 L197.018 57.6" style="fill:none;stroke:#dcdce6;stroke-linecap:round;stroke-width:2;"/>
   </g>
   <g id="line2d_51">
    <path clip-path="url(#p708c181e55)" d=" M126 361.964 L907.2 138.764 L907.2 138.764" style="fill:none;stroke:#dcdce6;stroke-linecap:round;stroke-width:2.275;"/>
   </g>
   <g id="line2d_52">
    <path clip-path="url(#p708c181e55)" d=" M126 463.418 L907.2 463.418" style="fill:none;stroke:#dcdce6;stroke-linecap:round;stroke-width:2;"/>
   </g>
   <g id="line2d_53">
    <path clip-path="url(#p708c181e55)" d=" M197.018 504 L197.018 57.6" style="fill:none;stroke:#dcdce6;stroke-linecap:round;stroke-width:2;"/>
   </g>
   <g id="line2d_54">
    <path clip-path="url(#p708c181e55)" d=" M310.689 577 L816.439 -1 L816.439 -1" style="fill:none;stroke:#dcdce6;stroke-linecap:round;stroke-width:2.275;"/>
   </g>
   <g id="line2d_55">
    <path clip-path="url(#p708c181e55)" d=" M126 463.418 L907.2 463.418" style="fill:none;stroke:#dcdce6;stroke-linecap:round;stroke-width:2;"/>
   </g>
   <g id="line2d_56">
    <path clip-path="url(#p708c181e55)" d=" M197.018 504 L197.018 57.6" style="fill:none;stroke:#dcdce6;stroke-linecap:round;stroke-width:2;"/>
   </g>
   <g id="line2d_57">
    <path clip-path="url(#p708c181e55)" d=" M126 301.091 L907.2 77.8909 L907.2 77.8909" style="fill:none;stroke:#dcdce6;stroke-linecap:round;stroke-width:2.275;"/>
   </g>
   <g id="line2d_58">
    <path clip-path="url(#p708c181e55)" d=" M126 463.418 L907.2 463.418" style="fill:none;stroke:#dcdce6;stroke-linecap:round;stroke-width:2;"/>
   </g>
   <g id="line2d_59">
    <path clip-path="url(#p708c181e55)" d=" M197.018 504 L197.018 57.6" style="fill:none;stroke:#dcdce6;stroke-linecap:round;stroke-width:2;"/>
   </g>
   <g id="line2d_60">
    <path clip-path="url(#p708c181e55)" d=" M417.216 577 L907.2 17.0182 L907.2 17.0182" style="fill:none;stroke:#dcdce6;stroke-linecap:round;stroke-width:2.275;"/>
   </g>
   <g id="patch_3">
    <path d=" M126 504 L126 57.6" style="fill:none;"/>
   </g>
   <g id="patch_4">
    <path d=" M126 57.6 L907.2 57.6" style="fill:none;"/>
   </g>
   <g id="patch_5">
    <path d=" M907.2 504 L907.2 57.6" style="fill:none;"/>
   </g>
   <g id="patch_6">
    <path d=" M126 504 L907.2 504" style="fill:none;"/>
   </g>
   <g id="Quiver_1">
    <path clip-path="url(#p708c181e55)" d=" M195.548 462.132 L261.422 386.848 L257.013 382.989 L268.036 382.255 L268.771 393.278 L264.362 389.42 L198.488 464.704 L195.548 462.132" style="fill:#386df9;"/>
    <path clip-path="url(#p708c181e55)" d=" M196.482 461.54 L331.007 423.105 L329.397 417.471 L339.055 422.836 L333.689 432.494 L332.08 426.86 L197.555 465.296 L196.482 461.54" style="fill:#ff1614;"/>
   </g>
   <g id="PathCollection_1">
    <defs>
     <path d=" M0 3.87298 C1.02713 3.87298 2.01232 3.4649 2.73861 2.73861 C3.4649 2.01232 3.87298 1.02713 3.87298 0 C3.87298 -1.02713 3.4649 -2.01232 2.73861 -2.73861 C2.01232 -3.4649 1.02713 -3.87298 0 -3.87298 C-1.02713 -3.87298 -2.01232 -3.4649 -2.73861 -2.73861 C-3.4649 -2.01232 -3.87298 -1.02713 -3.87298 0 C-3.87298 1.02713 -3.4649 2.01232 -2.73861 2.73861 C-2.01232 3.4649 -1.02713 3.87298 0 3.87298 z " id="mf841d97adc" style="stroke:#34495e;stroke-width:0.39;"/>
    </defs>
    <g clip-path="url(#p708c181e55)">
     <use style="fill:#34495e;stroke:#34495e;stroke-width:0.39;" x="268.036363636" xlink:href="#mf841d97adc" y="382.254545455"/>
    </g>
   </g>
   <g id="PathCollection_2">
    <g clip-path="url(#p708c181e55)">
     <use style="fill:#34495e;stroke:#34495e;stroke-width:0.39;" x="339.054545455" xlink:href="#mf841d97adc" y="422.836363636"/>
    </g>
   </g>
   <g id="PathCollection_3">
    <g clip-path="url(#p708c181e55)">
     <use style="fill:#34495e;stroke:#34495e;stroke-width:0.39;" x="339.054545455" xlink:href="#mf841d97adc" y="301.090909091"/>
    </g>
   </g>
   <g id="PathCollection_4">
    <g clip-path="url(#p708c181e55)">
     <use style="fill:#34495e;stroke:#34495e;stroke-width:0.39;" x="481.090909091" xlink:href="#mf841d97adc" y="382.254545455"/>
    </g>
   </g>
   <g id="PathCollection_5">
    <g clip-path="url(#p708c181e55)">
     <use style="fill:#34495e;stroke:#34495e;stroke-width:0.39;" x="410.072727273" xlink:href="#mf841d97adc" y="219.927272727"/>
    </g>
   </g>
   <g id="PathCollection_6">
    <g clip-path="url(#p708c181e55)">
     <use style="fill:#34495e;stroke:#34495e;stroke-width:0.39;" x="623.127272727" xlink:href="#mf841d97adc" y="341.672727273"/>
    </g>
   </g>
   <g id="text_13">
    <!-- $1\vec v_1$ -->
    <defs>
     <path d=" M55.5 45.2969 L24.4062 -1.40625 L22.2031 -1.40625 L14.2969 45.2969 L22.7969 45.2969 L27.5938 15.4062 L47 45.2969 z " id="STIXGeneral-Italic-1d637"/>
     <path d=" M30.2031 0 L22.2969 0 L22.2969 57 Q20.0938 56 15.75 53.75 Q11.4062 51.5 10.7969 51.2031 L10.7969 58.5 L28.7969 67.7031 L30.2031 67.2031 z " id="STIXGeneral-Regular-1d7e3"/>
     <path d=" M-1.70312 65.4062 L-14.9062 54.7969 L-16.7031 55.5938 Q-11.7969 59.7031 -11.7969 61.2031 Q-11.7969 62.7031 -16.7031 62.7031 L-45.2969 62.7031 L-45.2969 68.0938 L-16.7031 68.0938 Q-11.7969 68.0938 -11.7969 69.5938 Q-11.7969 69.9062 -12 70.25 Q-12.2031 70.5938 -12.75 71.1406 Q-13.2969 71.7031 -13.75 72.2031 Q-14.2031 72.7031 -15.2031 73.6406 Q-16.2031 74.5938 -16.7969 75.2031 L-15 76 z " id="STIXGeneral-Regular-20d7"/>
    </defs>
    <g style="fill:#262626;" transform="translate(275.138181818 382.254545455)scale(0.22 -0.22)">
     <use xlink:href="#STIXGeneral-Regular-1d7e3"/>
     <use transform="translate(94.29685974121094 3.0)" xlink:href="#STIXGeneral-Regular-20d7"/>
     <use transform="translate(49.99998474121094 0.0)" xlink:href="#STIXGeneral-Italic-1d637"/>
     <use transform="translate(97.39997863769531 -13.589062499999997)scale(0.7)" xlink:href="#STIXGeneral-Regular-1d7e3"/>
    </g>
   </g>
   <g id="text_14">
    <!-- $1\vec v_2$ -->
    <defs>
     <path d=" M46.9062 7.09375 L44 0 L3.5 0 L3.5 2.09375 L21 23.5 L21 23.4062 L26.5938 30.2031 Q30.5 34.9062 32.0938 36.9531 Q33.7031 39 35.2031 41.9531 Q36.7031 44.9062 36.7031 47.5 Q36.7031 53.7031 33.3438 57.0938 Q30 60.5 24.2031 60.5 Q19.5938 60.5 15.75 56.7031 Q11.9062 52.9062 10.9062 45.9062 L3.70312 47.5938 Q5.29688 56.5 11.1875 62.0469 Q17.0938 67.5938 24.9062 67.5938 Q33.5938 67.5938 39.0938 62.1875 Q44.5938 56.7969 44.5938 49.0938 Q44.5938 43.5 42.5 39.4531 Q40.4062 35.4062 33.7031 27 L17.7031 7.09375 z " id="STIXGeneral-Regular-1d7e4"/>
    </defs>
    <g style="fill:#262626;" transform="translate(346.156363636 422.836363636)scale(0.22 -0.22)">
     <use xlink:href="#STIXGeneral-Regular-1d7e3"/>
     <use transform="translate(94.29685974121094 3.0)" xlink:href="#STIXGeneral-Regular-20d7"/>
     <use transform="translate(49.99998474121094 0.0)" xlink:href="#STIXGeneral-Italic-1d637"/>
     <use transform="translate(97.39997863769531 -13.589062499999997)scale(0.7)" xlink:href="#STIXGeneral-Regular-1d7e4"/>
    </g>
   </g>
   <g id="text_15">
    <!-- $2\vec v_1$ -->
    <g style="fill:#262626;" transform="translate(346.156363636 301.090909091)scale(0.22 -0.22)">
     <use xlink:href="#STIXGeneral-Regular-1d7e4"/>
     <use transform="translate(94.29685974121094 3.0)" xlink:href="#STIXGeneral-Regular-20d7"/>
     <use transform="translate(49.99998474121094 0.0)" xlink:href="#STIXGeneral-Italic-1d637"/>
     <use transform="translate(97.39997863769531 -13.589062499999997)scale(0.7)" xlink:href="#STIXGeneral-Regular-1d7e3"/>
    </g>
   </g>
   <g id="text_16">
    <!-- $2\vec v_2$ -->
    <g style="fill:#262626;" transform="translate(488.192727273 382.254545455)scale(0.22 -0.22)">
     <use xlink:href="#STIXGeneral-Regular-1d7e4"/>
     <use transform="translate(94.29685974121094 3.0)" xlink:href="#STIXGeneral-Regular-20d7"/>
     <use transform="translate(49.99998474121094 0.0)" xlink:href="#STIXGeneral-Italic-1d637"/>
     <use transform="translate(97.39997863769531 -13.589062499999997)scale(0.7)" xlink:href="#STIXGeneral-Regular-1d7e4"/>
    </g>
   </g>
   <g id="text_17">
    <!-- $3\vec v_1$ -->
    <defs>
     <path d=" M11.2969 49.2031 L4.20312 50.9062 Q6.40625 58.7031 11.5 63.1406 Q16.5938 67.5938 24.2969 67.5938 Q31.4062 67.5938 36.2031 63.0938 Q41 58.5938 41 51.9062 Q41 43 32.4062 37 Q38 35 41.0469 30.3438 Q44.0938 25.7031 44.0938 21 Q44.0938 11.2969 37.7969 5 Q31.4062 -1.40625 20.5 -1.40625 Q9.5 -1.40625 3.09375 5.59375 L7.79688 11.2031 Q12.9062 5.70312 20 5.70312 Q27.4062 5.70312 31.5938 9.29688 Q36.2031 13.2031 36.2031 19.0938 Q36.2031 24.2969 32.4531 27.7969 Q28.7031 31.2969 22.2031 32.2031 L15.7969 32.2031 L15.7969 34.2969 L20.5938 39.4062 Q25.0938 39.4062 29.0938 42.8438 Q33.0938 46.2969 33.0938 51.2031 Q33.0938 55.4062 30.4375 57.9531 Q27.7969 60.5 24 60.5 Q20 60.5 16.5469 57.6406 Q13.0938 54.7969 11.2969 49.2031" id="STIXGeneral-Regular-1d7e5"/>
    </defs>
    <g style="fill:#262626;" transform="translate(417.174545455 219.927272727)scale(0.22 -0.22)">
     <use xlink:href="#STIXGeneral-Regular-1d7e5"/>
     <use transform="translate(94.29685974121094 3.0)" xlink:href="#STIXGeneral-Regular-20d7"/>
     <use transform="translate(49.99998474121094 0.0)" xlink:href="#STIXGeneral-Italic-1d637"/>
     <use transform="translate(97.39997863769531 -13.589062499999997)scale(0.7)" xlink:href="#STIXGeneral-Regular-1d7e3"/>
    </g>
   </g>
   <g id="text_18">
    <!-- $3\vec v_2$ -->
    <g style="fill:#262626;" transform="translate(630.229090909 341.672727273)scale(0.22 -0.22)">
     <use xlink:href="#STIXGeneral-Regular-1d7e5"/>
     <use transform="translate(94.29685974121094 3.0)" xlink:href="#STIXGeneral-Regular-20d7"/>
     <use transform="translate(49.99998474121094 0.0)" xlink:href="#STIXGeneral-Italic-1d637"/>
     <use transform="translate(97.39997863769531 -13.589062499999997)scale(0.7)" xlink:href="#STIXGeneral-Regular-1d7e4"/>
    </g>
   </g>
   <g id="text_19">
    <!-- $(8,7)$ or $3\vec v_1 + 2 \vec v_2$ -->
    <defs>
     <path d=" M33 45.2969 Q44.2969 32.4062 44.2969 22.2031 Q44.2969 12 38.6406 5.54688 Q33 -0.90625 23.8906 -0.90625 Q14.7969 -0.90625 9.14062 5.54688 Q3.5 12 3.5 22.2031 Q3.5 32.4062 9.14062 38.8438 Q14.7969 45.2969 23.8906 45.2969 Q33 45.2969 44.2969 32.4062 M29.7969 5.70312 Q36.7031 14.7969 36.7031 22.1875 Q36.7031 29.5938 33.25 34.1406 Q29.7969 38.7031 23.8906 38.7031 Q18 38.7031 14.5469 34.1406 Q11.0938 29.5938 11.0938 22.1875 Q11.0938 14.7969 14.5469 10.25 Q18 5.70312 23.8906 5.70312 Q29.7969 5.70312 36.7031 14.7969" id="CalibreRegular-6f"/>
     <path d=" M63.5938 22 L37.5 22 L37.5 -4.09375 L30.9062 -4.09375 L30.9062 22 L4.79688 22 L4.79688 28.5938 L30.9062 28.5938 L30.9062 54.7031 L37.5 54.7031 L37.5 28.5938 L63.5938 28.5938 z " id="STIXGeneral-Regular-2b"/>
     <path d=" M30.4062 -16.0938 L29.2031 -17.7031 Q17.5938 -11.0938 11.1875 0.5 Q4.79688 12.0938 4.79688 25.2031 Q4.79688 52.9062 29.5 67.5938 L30.4062 66 Q20.2031 57.2969 16.7969 48.8438 Q13.4062 40.4062 13.4062 25.5 Q13.4062 10.7031 16.9062 1.5 Q20.4062 -7.70312 30.4062 -16.0938" id="STIXGeneral-Regular-28"/>
     <path id="CalibreRegular-20"/>
     <path d=" M29.5 44.5938 L29.5 36.9062 Q27.7031 38.0938 24.5 38.0938 Q20.9062 38.0938 18.0938 35.8906 Q15.2969 33.7031 14.2031 29.7969 L14.2031 0 L6.70312 0 L6.70312 44.4062 L14.2031 44.4062 L14.2031 38.5938 Q15.7031 41.5 18.6406 43.3906 Q21.5938 45.2969 25.2031 45.2969 Q28.0938 45.2969 29.5 44.5938" id="CalibreRegular-72"/>
     <path d=" M8.29688 -14.0938 L7.29688 -12.2031 Q15.5938 -6.59375 15.5938 -1.5 Q15.5938 -0.203125 14.2031 -0.203125 Q13.7969 -0.203125 12.8438 -0.390625 Q11.9062 -0.59375 11.2969 -0.59375 Q5.5 -0.59375 5.5 4.5 Q5.5 7.09375 7.14062 8.64062 Q8.79688 10.2031 11.5 10.2031 Q14.9062 10.2031 17.2031 7.75 Q19.5 5.29688 19.5 1.5 Q19.5 -3.09375 16.4531 -7.39062 Q13.4062 -11.7031 8.29688 -14.0938" id="STIXGeneral-Regular-2c"/>
     <path d=" M44.7031 16.0938 Q44.7031 8.79688 39.3906 3.6875 Q34.0938 -1.40625 24.7969 -1.40625 Q16.2969 -1.40625 10.5938 3.4375 Q4.90625 8.29688 4.90625 15.4062 Q4.90625 20.7969 7.75 25.25 Q10.5938 29.7031 17.7031 34.5 Q6 41.4062 6 51.4062 Q6 58.5938 11.5469 63.0938 Q17.0938 67.5938 25.5938 67.5938 Q32.9062 67.5938 37.7969 62.8438 Q42.7031 58.0938 42.7031 52 Q42.7031 46.4062 40.0938 42.7031 Q37.5 39 31.0938 35.2969 Q44.7031 27 44.7031 16.0938 M35.5 51.5 Q35.5 55.5 32.3906 58 Q29.2969 60.5 24.4062 60.5 Q19.7969 60.5 16.8438 57.8438 Q13.9062 55.2031 13.9062 51.7969 Q13.9062 47.5 16.3438 44.8438 Q18.7969 42.2031 24.9062 39.4062 Q35.5 45.2031 35.5 51.5 M27.5938 28.5938 L24.0938 30.5 Q18.9062 28.7031 15.8438 24.6406 Q12.7969 20.5938 12.7969 16.2969 Q12.7969 11.7969 16 8.75 Q19.2031 5.70312 25.2031 5.70312 Q29.7969 5.70312 33.2969 8.45312 Q36.7969 11.2031 36.7969 15.7969 Q36.7969 20 34.6875 22.9531 Q32.5938 25.9062 27.5938 28.5938" id="STIXGeneral-Regular-1d7ea"/>
     <path d=" M2.90625 66 L4.09375 67.5938 Q15.5 60.7969 22 49.1875 Q28.5 37.5938 28.5 24.7031 Q28.5 -2.59375 3.79688 -17.7031 L2.90625 -16.0938 Q13.2031 -7.59375 16.5469 0.84375 Q19.9062 9.29688 19.9062 24.4062 Q19.9062 39.5938 16.5469 48.75 Q13.2031 57.9062 2.90625 66" id="STIXGeneral-Regular-29"/>
     <path d=" M45.0938 64.2031 L23 -0.796875 L14.7969 -0.796875 L35.4062 59.0938 L3.79688 59.0938 L6.90625 66.2031 L45.0938 66.2031 z " id="STIXGeneral-Regular-1d7e9"/>
    </defs>
    <g style="fill:#262626;" transform="translate(736.756363636 203.694545455)scale(0.22 -0.22)">
     <use xlink:href="#STIXGeneral-Regular-28"/>
     <use transform="translate(33.29998779296875 0.0)" xlink:href="#STIXGeneral-Regular-1d7ea"/>
     <use transform="translate(83.29997253417969 0.0)" xlink:href="#STIXGeneral-Regular-2c"/>
     <use transform="translate(112.419970703125 0.0)" xlink:href="#STIXGeneral-Regular-1d7e9"/>
     <use transform="translate(162.41995544433593 0.0)" xlink:href="#STIXGeneral-Regular-29"/>
     <use transform="translate(195.71994323730468 0.0)" xlink:href="#CalibreRegular-20"/>
     <use transform="translate(217.81993408203124 0.0)" xlink:href="#CalibreRegular-6f"/>
     <use transform="translate(265.619921875 0.0)" xlink:href="#CalibreRegular-72"/>
     <use transform="translate(297.71991271972655 0.0)" xlink:href="#CalibreRegular-20"/>
     <use transform="translate(319.8199035644531 0.0)" xlink:href="#STIXGeneral-Regular-1d7e5"/>
     <use transform="translate(414.11676330566405 3.0)" xlink:href="#STIXGeneral-Regular-20d7"/>
     <use transform="translate(369.81988830566405 0.0)" xlink:href="#STIXGeneral-Italic-1d637"/>
     <use transform="translate(417.2198822021484 -13.589062499999997)scale(0.7)" xlink:href="#STIXGeneral-Regular-1d7e3"/>
     <use transform="translate(482.33986511230466 0.0)" xlink:href="#STIXGeneral-Regular-2b"/>
     <use transform="translate(556.25673828125 0.0)" xlink:href="#STIXGeneral-Regular-1d7e4"/>
     <use transform="translate(650.553598022461 3.0)" xlink:href="#STIXGeneral-Regular-20d7"/>
     <use transform="translate(606.256723022461 0.0)" xlink:href="#STIXGeneral-Italic-1d637"/>
     <use transform="translate(653.6567169189453 -13.589062499999997)scale(0.7)" xlink:href="#STIXGeneral-Regular-1d7e4"/>
    </g>
   </g>
   <g id="PathCollection_7">
    <defs>
     <path d=" M0 3.87298 C1.02713 3.87298 2.01232 3.4649 2.73861 2.73861 C3.4649 2.01232 3.87298 1.02713 3.87298 0 C3.87298 -1.02713 3.4649 -2.01232 2.73861 -2.73861 C2.01232 -3.4649 1.02713 -3.87298 0 -3.87298 C-1.02713 -3.87298 -2.01232 -3.4649 -2.73861 -2.73861 C-3.4649 -2.01232 -3.87298 -1.02713 -3.87298 0 C-3.87298 1.02713 -3.4649 2.01232 -2.73861 2.73861 C-2.01232 3.4649 -1.02713 3.87298 0 3.87298 z " id="m798e09ee9e" style="stroke:#aa22ff;stroke-width:0.39;"/>
    </defs>
    <g clip-path="url(#p708c181e55)">
     <use style="fill:#aa22ff;stroke:#aa22ff;stroke-width:0.39;" x="765.163636364" xlink:href="#m798e09ee9e" y="179.345454545"/>
    </g>
   </g>
   <g id="legend_1">
    <g id="patch_7">
     <path d=" M145.8 94.12 L189.8 94.12 L189.8 78.72 L145.8 78.72 z " style="fill:#386df9;stroke:#386df9;stroke-linejoin:miter;stroke-width:0.39;"/>
    </g>
    <g id="text_20">
     <!-- $\vec v_1$ -->
     <g style="fill:#262626;" transform="translate(207.4 94.12)scale(0.22 -0.22)">
      <use transform="translate(44.296875 3.0)" xlink:href="#STIXGeneral-Regular-20d7"/>
      <use xlink:href="#STIXGeneral-Italic-1d637"/>
      <use transform="translate(47.399993896484375 -13.589062499999997)scale(0.7)" xlink:href="#STIXGeneral-Regular-1d7e3"/>
     </g>
    </g>
    <g id="patch_8">
     <path d=" M145.8 125.58 L189.8 125.58 L189.8 110.18 L145.8 110.18 z " style="fill:#ff1614;stroke:#ff1614;stroke-linejoin:miter;stroke-width:0.39;"/>
    </g>
    <g id="text_21">
     <!-- $\vec v_2$ -->
     <g style="fill:#262626;" transform="translate(207.4 125.58)scale(0.22 -0.22)">
      <use transform="translate(44.296875 3.0)" xlink:href="#STIXGeneral-Regular-20d7"/>
      <use xlink:href="#STIXGeneral-Italic-1d637"/>
      <use transform="translate(47.399993896484375 -13.589062499999997)scale(0.7)" xlink:href="#STIXGeneral-Regular-1d7e4"/>
     </g>
    </g>
   </g>
  </g>
 </g>
 </svg>
