<?xml version="1.0" encoding="utf-8"?>
<!-- Generator: Adobe Illustrator 16.0.0, SVG Export Plug-In . SVG Version: 6.00 Build 0)  -->
<!DOCTYPE svg PUBLIC "-//W3C//DTD SVG 1.1 Tiny//EN" "http://www.w3.org/Graphics/SVG/1.1/DTD/svg11-tiny.dtd">
<svg version="1.1" baseProfile="tiny" id="Layer_1" xmlns="http://www.w3.org/2000/svg" xmlns:xlink="http://www.w3.org/1999/xlink"
	 x="0px" y="0px" width="113.441px" height="201.787px" viewBox="0 0 113.441 201.787" xml:space="preserve">
<g>
	<circle fill="#386DF9" stroke="#231F20" stroke-width="0.75" stroke-miterlimit="10" cx="99.14" cy="10.955" r="10.58"/>
	<circle fill="#FFFFFF" stroke="#231F20" stroke-width="0.75" stroke-miterlimit="10" cx="56.82" cy="48.572" r="10.58"/>
	<circle fill="#FFFFFF" stroke="#231F20" stroke-width="0.75" stroke-miterlimit="10" cx="38.011" cy="86.189" r="10.58"/>
	<circle fill="#FFFFFF" stroke="#231F20" stroke-width="0.75" stroke-miterlimit="10" cx="75.628" cy="86.189" r="10.58"/>
	<circle fill="#FFFFFF" stroke="#231F20" stroke-width="0.75" stroke-miterlimit="10" cx="38.011" cy="119.089" r="10.58"/>
	<circle fill="#FF1614" stroke="#231F20" stroke-width="0.75" stroke-miterlimit="10" cx="75.628" cy="119.089" r="10.58"/>
	<circle fill="#FFFFFF" stroke="#231F20" stroke-width="0.75" stroke-miterlimit="10" cx="38.011" cy="151.987" r="10.58"/>
</g>
<g>
	<line fill="none" stroke="#231F20" stroke-width="0.75" stroke-miterlimit="10" x1="99.14" y1="21.535" x2="56.819" y2="37.992"/>
	<line fill="none" stroke="#231F20" stroke-width="0.75" stroke-miterlimit="10" x1="56.819" y1="59.152" x2="38.011" y2="75.609"/>
	<line fill="none" stroke="#231F20" stroke-width="0.75" stroke-miterlimit="10" x1="56.819" y1="59.152" x2="75.628" y2="75.609"/>
	<line fill="none" stroke="#231F20" stroke-width="0.75" stroke-miterlimit="10" x1="38.011" y1="96.77" x2="38.011" y2="108.509"/>
	<line fill="none" stroke="#231F20" stroke-width="0.75" stroke-miterlimit="10" x1="75.628" y1="96.77" x2="75.628" y2="108.509"/>
	
		<line fill="none" stroke="#231F20" stroke-width="0.75" stroke-miterlimit="10" x1="38.011" y1="129.669" x2="38.011" y2="141.407"/>
</g>
<g>
	<g>
		<rect x="93.261" y="5.079" fill="none" width="11.756" height="14.106"/>
		<path fill="#FFFFFF" d="M95.873,11.991h1.129c0.329,0.959,1.062,1.438,2.2,1.438c0.573,0,1.037-0.134,1.39-0.402
			s0.529-0.637,0.529-1.107c0-0.348-0.108-0.632-0.325-0.854c-0.216-0.221-0.568-0.393-1.058-0.515l-1.552-0.409
			c-1.383-0.357-2.073-1.1-2.073-2.229c0-0.724,0.268-1.314,0.804-1.77s1.218-0.685,2.045-0.685c0.875,0,1.58,0.205,2.116,0.614
			s0.889,0.966,1.059,1.672h-1.115c-0.31-0.894-0.996-1.34-2.06-1.34c-0.526,0-0.957,0.129-1.29,0.388
			c-0.334,0.258-0.501,0.604-0.501,1.037c0,0.357,0.112,0.637,0.339,0.839c0.226,0.202,0.573,0.365,1.044,0.487l1.48,0.381
			c1.439,0.367,2.158,1.143,2.158,2.328c0,0.771-0.279,1.382-0.839,1.833c-0.56,0.452-1.276,0.677-2.151,0.677
			s-1.608-0.209-2.2-0.628C96.409,13.329,96.033,12.744,95.873,11.991z"/>
	</g>
	<g>
		<rect x="50.94" y="42.694" fill="none" width="11.756" height="10.578"/>
		<path fill="#231F20" d="M56.296,43.202h1.044l3.385,8.661h-1.128l-1.002-2.609h-3.569l-0.987,2.609h-1.128L56.296,43.202z
			 M56.804,44.584l-1.411,3.696h2.821L56.804,44.584z"/>
	</g>
	<g>
		<rect x="32.523" y="81.098" fill="none" width="11.756" height="14.887"/>
		<path fill="#231F20" d="M40.08,85.78c0.461,0.123,0.837,0.372,1.129,0.748c0.291,0.376,0.437,0.809,0.437,1.298
			c0,0.78-0.254,1.383-0.762,1.806s-1.213,0.635-2.116,0.635h-3.132v-8.661h2.85c0.903,0,1.605,0.197,2.109,0.592
			c0.503,0.396,0.755,0.965,0.755,1.707c0,0.489-0.12,0.896-0.36,1.221S40.447,85.668,40.08,85.78z M36.723,85.372h1.763
			c1.194,0,1.792-0.471,1.792-1.411c0-0.922-0.597-1.383-1.792-1.383h-1.763V85.372z M36.723,86.303v2.99h2.045
			c0.573,0,1.016-0.134,1.326-0.401c0.311-0.269,0.466-0.633,0.466-1.094c0-0.47-0.155-0.837-0.466-1.101
			c-0.31-0.263-0.752-0.395-1.326-0.395H36.723z"/>
	</g>
	<g>
		<rect x="70.142" y="81.098" fill="none" width="11.755" height="14.887"/>
		<path fill="#231F20" d="M72.781,90.267v-8.661h2.779c1.27,0,2.287,0.393,3.054,1.178s1.15,1.836,1.15,3.152
			c0,1.317-0.384,2.368-1.15,3.153s-1.784,1.178-3.054,1.178H72.781z M73.896,89.265h1.65c0.979,0,1.742-0.298,2.293-0.896
			c0.55-0.597,0.825-1.408,0.825-2.434c0-1.024-0.277-1.838-0.832-2.44c-0.556-0.602-1.317-0.902-2.286-0.902h-1.65V89.265z"/>
	</g>
	<g>
		<rect x="32.133" y="113.997" fill="none" width="11.755" height="12.146"/>
		<path fill="#231F20" d="M35.506,122.059c-0.738-0.822-1.107-1.897-1.107-3.224c0-1.325,0.369-2.4,1.107-3.223
			c0.738-0.823,1.662-1.234,2.772-1.234c0.893,0,1.634,0.239,2.222,0.719c0.587,0.48,0.971,1.129,1.15,1.947h-1.101
			c-0.395-1.109-1.152-1.665-2.271-1.665c-0.828,0-1.496,0.317-2.003,0.952s-0.762,1.47-0.762,2.504
			c0,1.025,0.254,1.857,0.762,2.497s1.176,0.959,2.003,0.959c1.128,0,1.885-0.559,2.271-1.679h1.101
			c-0.179,0.828-0.562,1.481-1.15,1.961c-0.588,0.479-1.329,0.72-2.222,0.72C37.168,123.293,36.245,122.882,35.506,122.059z"/>
	</g>
	<g>
		<rect x="69.75" y="113.997" fill="none" width="11.756" height="12.146"/>
		<path fill="#FFFFFF" d="M78.351,119.851h-2.074v-0.959h3.132v0.593c0,1.147-0.331,2.069-0.994,2.765
			c-0.663,0.696-1.526,1.044-2.589,1.044c-1.147,0-2.097-0.409-2.85-1.228c-0.752-0.818-1.128-1.895-1.128-3.23
			c0-1.325,0.376-2.4,1.128-3.223c0.753-0.823,1.693-1.234,2.821-1.234c0.903,0,1.653,0.239,2.25,0.719
			c0.598,0.48,0.985,1.129,1.164,1.947h-1.114c-0.404-1.109-1.171-1.665-2.3-1.665c-0.846,0-1.53,0.317-2.052,0.952
			c-0.522,0.635-0.783,1.47-0.783,2.504c0,1.035,0.263,1.872,0.79,2.512c0.526,0.64,1.218,0.959,2.073,0.959
			c0.743,0,1.333-0.219,1.771-0.656S78.284,120.612,78.351,119.851z"/>
	</g>
	<g>
		<rect x="32.133" y="146.896" fill="none" width="11.755" height="11.788"/>
		<path fill="#231F20" d="M35.408,147.403h5.516v0.987h-4.416v2.736h4.006v0.987h-4.006v2.948h4.416v1.002h-5.516V147.403z"/>
	</g>
</g>
<g>
	<path fill="none" stroke="#2277F2" stroke-miterlimit="10" d="M81.506,12.13c-34.09,12.147-43.934,20.398-49.373,32.522
		C26.337,57.574,21.84,83.473,21.159,96.77c-0.868,16.978,1.667,62.264,3.298,70.657"/>
	<g>
		<polygon fill="#2277F2" points="19.912,164.877 20.51,164.075 24.458,167.03 27.116,162.877 27.959,163.417 24.72,168.475 		"/>
	</g>
</g>
<g>
	<path fill="none" stroke="#2277F2" stroke-miterlimit="10" d="M50.942,166.52c10.579-12.932-7.053-96.053,4.165-97.179
		c13.172-1.323,0.969,48.249,7.125,62.894"/>
	<g>
		<polygon fill="#2277F2" points="57.354,130.471 57.81,129.58 62.196,131.831 64.121,127.291 65.042,127.683 62.696,133.211 		"/>
	</g>
</g>
<g>
	<g>
		<rect y="173.966" fill="none" width="75.628" height="27.821"/>
		<path d="M24.065,180.078v-0.621c-0.125,0.194-0.306,0.361-0.541,0.499c-0.235,0.138-0.487,0.207-0.757,0.207
			c-0.589,0-1.041-0.209-1.354-0.626s-0.47-0.933-0.47-1.547s0.157-1.13,0.47-1.547s0.765-0.625,1.354-0.625
			c0.27,0,0.522,0.068,0.757,0.206c0.235,0.139,0.416,0.305,0.541,0.499v-2.559h0.46v6.113H24.065z M24.065,178.902v-1.824
			c-0.138-0.264-0.318-0.467-0.541-0.611s-0.462-0.216-0.719-0.216c-0.427,0-0.765,0.161-1.016,0.484
			c-0.251,0.322-0.376,0.741-0.376,1.255c0,0.515,0.125,0.933,0.376,1.256c0.25,0.322,0.589,0.484,1.016,0.484
			c0.257,0,0.497-0.072,0.719-0.217C23.747,179.37,23.927,179.166,24.065,178.902z"/>
		<path d="M28.589,178.865h0.451c-0.082,0.395-0.265,0.71-0.55,0.945c-0.285,0.234-0.641,0.353-1.067,0.353
			c-0.552,0-0.998-0.201-1.34-0.603c-0.342-0.4-0.513-0.925-0.513-1.57c0-0.633,0.168-1.153,0.503-1.561
			c0.335-0.408,0.782-0.611,1.34-0.611c0.539,0,0.956,0.187,1.251,0.56c0.294,0.373,0.442,0.866,0.442,1.48v0.17h-3.075
			c0.006,0.526,0.138,0.944,0.395,1.255c0.257,0.311,0.589,0.466,0.997,0.466c0.295,0,0.547-0.078,0.757-0.235
			C28.39,179.357,28.526,179.141,28.589,178.865z M27.413,176.231c-0.376,0-0.685,0.129-0.926,0.386s-0.387,0.605-0.438,1.044h2.586
			c-0.013-0.401-0.122-0.739-0.329-1.016C28.1,176.37,27.802,176.231,27.413,176.231z"/>
		<path d="M32.971,180.078H32.52v-0.395c-0.101,0.119-0.257,0.226-0.47,0.319c-0.213,0.094-0.442,0.141-0.687,0.141
			c-0.439,0-0.806-0.117-1.101-0.353c-0.295-0.234-0.442-0.547-0.442-0.936c0-0.376,0.15-0.684,0.451-0.922
			c0.301-0.238,0.671-0.357,1.11-0.357c0.226,0,0.445,0.046,0.658,0.137c0.213,0.091,0.373,0.192,0.48,0.306v-0.743
			c0-0.313-0.093-0.565-0.278-0.757s-0.44-0.287-0.766-0.287c-0.521,0-0.859,0.238-1.016,0.715H30
			c0.082-0.351,0.255-0.627,0.522-0.827c0.266-0.201,0.584-0.301,0.955-0.301c0.464,0,0.829,0.13,1.095,0.39
			c0.267,0.261,0.4,0.61,0.4,1.049V180.078z M32.52,179.128v-0.536c-0.069-0.182-0.208-0.33-0.419-0.446
			c-0.21-0.116-0.44-0.174-0.691-0.174c-0.32,0-0.591,0.077-0.813,0.23c-0.223,0.153-0.334,0.371-0.334,0.653
			s0.111,0.502,0.334,0.658c0.222,0.157,0.494,0.235,0.813,0.235c0.25,0,0.481-0.058,0.691-0.174
			C32.312,179.459,32.451,179.311,32.52,179.128z"/>
		<path d="M37.081,180.078v-0.621c-0.125,0.194-0.306,0.361-0.541,0.499c-0.235,0.138-0.487,0.207-0.757,0.207
			c-0.589,0-1.041-0.209-1.354-0.626s-0.47-0.933-0.47-1.547s0.157-1.13,0.47-1.547s0.765-0.625,1.354-0.625
			c0.27,0,0.522,0.068,0.757,0.206c0.235,0.139,0.416,0.305,0.541,0.499v-2.559h0.46v6.113H37.081z M37.081,178.902v-1.824
			c-0.138-0.264-0.318-0.467-0.541-0.611s-0.462-0.216-0.719-0.216c-0.427,0-0.765,0.161-1.016,0.484
			c-0.251,0.322-0.376,0.741-0.376,1.255c0,0.515,0.125,0.933,0.376,1.256c0.25,0.322,0.589,0.484,1.016,0.484
			c0.257,0,0.497-0.072,0.719-0.217C36.763,179.37,36.943,179.166,37.081,178.902z"/>
		<path d="M43.683,178.865h0.451c-0.082,0.395-0.265,0.71-0.55,0.945c-0.285,0.234-0.641,0.353-1.067,0.353
			c-0.552,0-0.998-0.201-1.34-0.603c-0.342-0.4-0.513-0.925-0.513-1.57c0-0.633,0.168-1.153,0.503-1.561
			c0.335-0.408,0.782-0.611,1.34-0.611c0.539,0,0.956,0.187,1.251,0.56c0.294,0.373,0.442,0.866,0.442,1.48v0.17h-3.075
			c0.006,0.526,0.138,0.944,0.395,1.255c0.257,0.311,0.589,0.466,0.997,0.466c0.295,0,0.547-0.078,0.757-0.235
			C43.483,179.357,43.62,179.141,43.683,178.865z M42.507,176.231c-0.376,0-0.685,0.129-0.926,0.386s-0.387,0.605-0.438,1.044h2.586
			c-0.013-0.401-0.122-0.739-0.329-1.016C43.193,176.37,42.896,176.231,42.507,176.231z"/>
		<path d="M45.225,180.078v-4.176h0.47v0.668c0.138-0.213,0.325-0.392,0.56-0.536c0.235-0.145,0.494-0.216,0.776-0.216
			c0.464,0,0.821,0.136,1.072,0.408c0.25,0.273,0.376,0.636,0.376,1.087v2.765h-0.46v-2.699c0-0.339-0.089-0.611-0.268-0.818
			s-0.447-0.31-0.804-0.31c-0.276,0-0.526,0.084-0.752,0.254c-0.226,0.169-0.392,0.385-0.499,0.648v2.925H45.225z"/>
		<path d="M52.588,180.078v-0.621c-0.125,0.194-0.306,0.361-0.541,0.499c-0.235,0.138-0.487,0.207-0.757,0.207
			c-0.589,0-1.041-0.209-1.354-0.626s-0.47-0.933-0.47-1.547s0.157-1.13,0.47-1.547s0.765-0.625,1.354-0.625
			c0.27,0,0.522,0.068,0.757,0.206c0.235,0.139,0.416,0.305,0.541,0.499v-2.559h0.46v6.113H52.588z M52.588,178.902v-1.824
			c-0.138-0.264-0.318-0.467-0.541-0.611s-0.462-0.216-0.719-0.216c-0.427,0-0.765,0.161-1.016,0.484
			c-0.251,0.322-0.376,0.741-0.376,1.255c0,0.515,0.125,0.933,0.376,1.256c0.25,0.322,0.589,0.484,1.016,0.484
			c0.257,0,0.497-0.072,0.719-0.217C52.27,179.37,52.45,179.166,52.588,178.902z"/>
		<path d="M54.14,180.003c-0.069-0.069-0.103-0.153-0.103-0.254s0.034-0.187,0.103-0.259c0.069-0.072,0.151-0.108,0.245-0.108
			c0.1,0,0.185,0.036,0.254,0.108s0.104,0.158,0.104,0.259s-0.035,0.185-0.104,0.254s-0.154,0.104-0.254,0.104
			C54.291,180.106,54.209,180.072,54.14,180.003z"/>
		<path d="M21.385,187.687v0.621h-0.46v-6.113h0.46v2.559c0.125-0.194,0.306-0.36,0.541-0.499c0.235-0.138,0.487-0.206,0.757-0.206
			c0.589,0,1.041,0.208,1.354,0.625s0.47,0.933,0.47,1.547s-0.157,1.13-0.47,1.547s-0.765,0.626-1.354,0.626
			c-0.27,0-0.522-0.069-0.757-0.207C21.69,188.048,21.51,187.881,21.385,187.687z M21.385,185.308v1.824
			c0.138,0.264,0.318,0.468,0.541,0.611c0.223,0.145,0.462,0.217,0.719,0.217c0.426,0,0.765-0.162,1.016-0.484
			c0.251-0.323,0.376-0.741,0.376-1.256c0-0.514-0.125-0.933-0.376-1.255c-0.25-0.323-0.589-0.484-1.016-0.484
			c-0.257,0-0.497,0.071-0.719,0.216S21.523,185.044,21.385,185.308z"/>
		<path d="M28.382,188.308h-0.451v-0.395c-0.101,0.119-0.257,0.226-0.47,0.319c-0.213,0.094-0.442,0.141-0.687,0.141
			c-0.439,0-0.806-0.117-1.101-0.353c-0.295-0.234-0.442-0.547-0.442-0.936c0-0.376,0.15-0.684,0.451-0.922
			c0.301-0.238,0.671-0.357,1.11-0.357c0.226,0,0.445,0.046,0.658,0.137c0.213,0.091,0.373,0.192,0.48,0.306v-0.743
			c0-0.313-0.093-0.565-0.278-0.757s-0.44-0.287-0.766-0.287c-0.521,0-0.859,0.238-1.016,0.715H25.41
			c0.082-0.351,0.255-0.627,0.522-0.827c0.266-0.201,0.584-0.301,0.955-0.301c0.464,0,0.829,0.13,1.095,0.39
			c0.267,0.261,0.4,0.61,0.4,1.049V188.308z M27.931,187.357v-0.536c-0.069-0.182-0.208-0.33-0.419-0.446
			c-0.21-0.116-0.44-0.174-0.691-0.174c-0.32,0-0.591,0.077-0.813,0.23c-0.223,0.153-0.334,0.371-0.334,0.653
			s0.111,0.502,0.334,0.658c0.222,0.157,0.494,0.235,0.813,0.235c0.25,0,0.481-0.058,0.691-0.174
			C27.722,187.688,27.861,187.54,27.931,187.357z"/>
		<path d="M29.877,187.79c-0.338-0.4-0.508-0.925-0.508-1.57s0.169-1.169,0.508-1.57c0.339-0.401,0.784-0.602,1.335-0.602
			c0.433,0,0.789,0.117,1.067,0.353c0.279,0.234,0.456,0.55,0.531,0.945h-0.479c-0.062-0.276-0.191-0.491-0.386-0.645
			s-0.438-0.23-0.733-0.23c-0.408,0-0.738,0.16-0.992,0.479s-0.381,0.743-0.381,1.27s0.127,0.95,0.381,1.27
			c0.254,0.32,0.584,0.479,0.992,0.479c0.295,0,0.539-0.076,0.733-0.23c0.194-0.153,0.323-0.368,0.386-0.644h0.479
			c-0.075,0.395-0.252,0.71-0.531,0.945c-0.279,0.234-0.635,0.353-1.067,0.353C30.661,188.393,30.216,188.191,29.877,187.79z"/>
		<path d="M36.62,188.308l-1.815-2.088l-0.508,0.471v1.617h-0.47v-6.113h0.47v3.95l2.21-2.013h0.621l-1.984,1.797l2.05,2.379H36.62z
			"/>
		<path d="M38.209,187.339v-2.803h-0.706v-0.404h0.706v-1.072h0.46v1.072h1.082v0.404H38.67v2.756c0,0.451,0.201,0.677,0.602,0.677
			c0.201,0,0.392-0.053,0.574-0.159v0.441c-0.176,0.095-0.382,0.142-0.621,0.142c-0.313,0-0.562-0.09-0.743-0.269
			S38.209,187.684,38.209,187.339z"/>
		<path d="M42.78,184.104v0.461c-0.119-0.05-0.248-0.075-0.386-0.075c-0.251,0-0.473,0.082-0.667,0.245s-0.342,0.382-0.442,0.658
			v2.915h-0.47v-4.176h0.47v0.668c0.101-0.22,0.251-0.399,0.452-0.541c0.201-0.141,0.426-0.211,0.677-0.211
			C42.532,184.048,42.654,184.066,42.78,184.104z"/>
		<path d="M46.41,188.308h-0.451v-0.395c-0.101,0.119-0.257,0.226-0.47,0.319c-0.213,0.094-0.442,0.141-0.687,0.141
			c-0.439,0-0.806-0.117-1.101-0.353c-0.295-0.234-0.442-0.547-0.442-0.936c0-0.376,0.15-0.684,0.451-0.922
			c0.301-0.238,0.671-0.357,1.11-0.357c0.226,0,0.445,0.046,0.658,0.137c0.213,0.091,0.373,0.192,0.48,0.306v-0.743
			c0-0.313-0.093-0.565-0.278-0.757s-0.44-0.287-0.766-0.287c-0.521,0-0.859,0.238-1.016,0.715h-0.461
			c0.082-0.351,0.255-0.627,0.522-0.827c0.266-0.201,0.584-0.301,0.955-0.301c0.464,0,0.829,0.13,1.095,0.39
			c0.267,0.261,0.4,0.61,0.4,1.049V188.308z M45.958,187.357v-0.536c-0.069-0.182-0.208-0.33-0.419-0.446
			c-0.21-0.116-0.44-0.174-0.691-0.174c-0.32,0-0.591,0.077-0.813,0.23c-0.223,0.153-0.334,0.371-0.334,0.653
			s0.111,0.502,0.334,0.658c0.222,0.157,0.494,0.235,0.813,0.235c0.25,0,0.481-0.058,0.691-0.174
			C45.75,187.688,45.889,187.54,45.958,187.357z"/>
		<path d="M47.905,187.79c-0.338-0.4-0.508-0.925-0.508-1.57s0.169-1.169,0.508-1.57c0.339-0.401,0.784-0.602,1.335-0.602
			c0.433,0,0.789,0.117,1.067,0.353c0.279,0.234,0.456,0.55,0.531,0.945h-0.479c-0.062-0.276-0.191-0.491-0.386-0.645
			s-0.438-0.23-0.733-0.23c-0.408,0-0.738,0.16-0.992,0.479s-0.381,0.743-0.381,1.27s0.127,0.95,0.381,1.27
			c0.254,0.32,0.584,0.479,0.992,0.479c0.295,0,0.539-0.076,0.733-0.23c0.194-0.153,0.323-0.368,0.386-0.644h0.479
			c-0.075,0.395-0.252,0.71-0.531,0.945c-0.279,0.234-0.635,0.353-1.067,0.353C48.688,188.393,48.244,188.191,47.905,187.79z"/>
		<path d="M54.648,188.308l-1.815-2.088l-0.508,0.471v1.617h-0.47v-6.113h0.47v3.95l2.21-2.013h0.621l-1.984,1.797l2.05,2.379
			H54.648z"/>
	</g>
	<g>
		<rect x="37.813" y="132.985" fill="none" width="75.628" height="27.82"/>
		<path d="M70.188,139.098v-0.621c-0.126,0.194-0.306,0.361-0.541,0.499s-0.487,0.207-0.757,0.207c-0.59,0-1.041-0.209-1.354-0.626
			s-0.47-0.933-0.47-1.547s0.156-1.13,0.47-1.547s0.765-0.625,1.354-0.625c0.27,0,0.521,0.068,0.757,0.206
			c0.235,0.139,0.415,0.305,0.541,0.499v-2.559h0.46v6.113H70.188z M70.188,137.922v-1.824c-0.138-0.264-0.318-0.467-0.541-0.611
			s-0.462-0.216-0.72-0.216c-0.426,0-0.765,0.161-1.016,0.484c-0.25,0.322-0.376,0.741-0.376,1.255c0,0.515,0.126,0.933,0.376,1.256
			c0.251,0.322,0.59,0.484,1.016,0.484c0.258,0,0.497-0.072,0.72-0.217C69.869,138.39,70.05,138.186,70.188,137.922z"/>
		<path d="M74.876,135.439c0.341,0.401,0.512,0.925,0.512,1.57s-0.171,1.17-0.512,1.57c-0.342,0.401-0.789,0.603-1.341,0.603
			s-0.997-0.201-1.335-0.603c-0.339-0.4-0.508-0.925-0.508-1.57s0.169-1.169,0.508-1.57c0.338-0.401,0.783-0.602,1.335-0.602
			S74.534,135.038,74.876,135.439z M74.542,138.284c0.25-0.323,0.375-0.748,0.375-1.274s-0.125-0.951-0.375-1.274
			c-0.252-0.322-0.587-0.484-1.007-0.484c-0.413,0-0.746,0.162-0.997,0.484c-0.25,0.323-0.376,0.748-0.376,1.274
			s0.126,0.951,0.376,1.274c0.251,0.323,0.584,0.484,0.997,0.484C73.955,138.769,74.29,138.607,74.542,138.284z"/>
		<path d="M76.422,139.098v-4.176h0.47v0.668c0.139-0.213,0.325-0.392,0.561-0.536c0.234-0.145,0.494-0.216,0.775-0.216
			c0.464,0,0.821,0.136,1.072,0.408c0.25,0.273,0.376,0.636,0.376,1.087v2.765h-0.46v-2.699c0-0.339-0.09-0.611-0.269-0.818
			s-0.446-0.31-0.804-0.31c-0.276,0-0.527,0.084-0.753,0.254c-0.226,0.169-0.392,0.385-0.499,0.648v2.925H76.422z"/>
		<path d="M83.683,137.885h0.451c-0.082,0.395-0.266,0.71-0.551,0.945c-0.285,0.234-0.641,0.353-1.067,0.353
			c-0.552,0-0.998-0.201-1.34-0.603c-0.342-0.4-0.513-0.925-0.513-1.57c0-0.633,0.168-1.153,0.504-1.561
			c0.334-0.408,0.781-0.611,1.34-0.611c0.539,0,0.955,0.187,1.25,0.56s0.442,0.866,0.442,1.48v0.17h-3.075
			c0.006,0.526,0.138,0.944,0.395,1.255c0.258,0.311,0.59,0.466,0.997,0.466c0.295,0,0.547-0.078,0.757-0.235
			C83.483,138.377,83.619,138.16,83.683,137.885z M82.507,135.251c-0.377,0-0.686,0.129-0.927,0.386s-0.388,0.605-0.438,1.044h2.587
			c-0.014-0.401-0.123-0.739-0.33-1.016C83.192,135.39,82.896,135.251,82.507,135.251z"/>
	</g>
</g>
<g>
</g>
<g>
</g>
<g>
</g>
<g>
</g>
<g>
</g>
<g>
</g>
<g>
</g>
</svg>
