<?xml version="1.0" encoding="iso-8859-1"?>
<!-- Generator: Adobe Illustrator 16.0.0, SVG Export Plug-In . SVG Version: 6.00 Build 0)  -->
<!DOCTYPE svg PUBLIC "-//W3C//DTD SVG 1.1//EN" "http://www.w3.org/Graphics/SVG/1.1/DTD/svg11.dtd">
<svg version="1.1" xmlns="http://www.w3.org/2000/svg" xmlns:xlink="http://www.w3.org/1999/xlink" x="0px" y="0px"
	 width="321.306px" height="251.918px" viewBox="0 0 321.306 251.918" style="enable-background:new 0 0 321.306 251.918;"
	 xml:space="preserve">
<g id="double_x5F_integral_x5F_02">
	<g>
		
			<line style="fill:#5D22FF;stroke:#231F20;stroke-width:0.5;stroke-linecap:round;stroke-linejoin:round;stroke-miterlimit:10;" x1="157.681" y1="156.742" x2="145.143" y2="156.742"/>
		
			<polyline style="fill:none;stroke:#231F20;stroke-width:0.5;stroke-linecap:round;stroke-linejoin:round;stroke-miterlimit:10;" points="
			140.36,107.039 145.143,107.039 145.143,203.626 140.36,203.626 		"/>
	</g>
	
		<line style="fill:none;stroke:#BBBDBF;stroke-width:0.75;stroke-miterlimit:10;" x1="160.653" y1="-0.001" x2="160.653" y2="160.483"/>
	
		<line style="fill:none;stroke:#BBBDBF;stroke-width:0.75;stroke-miterlimit:10;" x1="160.653" y1="160.483" x2="0.167" y2="240.726"/>
	
		<line style="fill:none;stroke:#BBBDBF;stroke-width:0.75;stroke-miterlimit:10;" x1="160.653" y1="160.483" x2="321.137" y2="240.726"/>
	<g>
		<g>
			
				<line style="fill:none;stroke:#A6A8AB;stroke-width:0.75;stroke-linecap:round;stroke-linejoin:round;" x1="50.319" y1="215.711" x2="51.206" y2="216.174"/>
			
				<line style="fill:none;stroke:#A6A8AB;stroke-width:0.75;stroke-linecap:round;stroke-linejoin:round;stroke-dasharray:2.0345,2.0345;" x1="53.009" y1="217.114" x2="109.827" y2="246.758"/>
			
				<line style="fill:none;stroke:#A6A8AB;stroke-width:0.75;stroke-linecap:round;stroke-linejoin:round;" x1="110.729" y1="247.229" x2="111.616" y2="247.691"/>
		</g>
	</g>
	<polygon style="fill:#E80000;" points="129.569,109.226 129.819,205.991 135.577,203.626 135.577,107.492 	"/>
	<g>
		<line style="fill:#5D22FF;" x1="126.102" y1="206.827" x2="119.137" y2="216.857"/>
		<g>
			
				<line style="fill:none;stroke:#231F20;stroke-width:0.5;stroke-linecap:round;stroke-linejoin:round;" x1="125.792" y1="207.272" x2="119.137" y2="216.857"/>
			<g>
				<polygon style="fill:#231F20;" points="123.168,207.467 123.274,207.956 125.683,207.43 126.032,209.871 126.527,209.8 
					126.102,206.827 				"/>
			</g>
		</g>
	</g>
	<g>
		<g>
			
				<line style="fill:none;stroke:#231F20;stroke-width:0.5;stroke-miterlimit:10;" x1="135.987" y1="206.346" x2="145.143" y2="214.257"/>
			<g>
				<polygon style="fill:#231F20;" points="135.904,208.977 136.401,208.923 136.132,206.472 138.596,206.383 138.577,205.882 
					135.576,205.991 				"/>
			</g>
		</g>
	</g>
	<g>
		<g>
			
				<line style="fill:none;stroke:#A6A8AB;stroke-width:0.75;stroke-linecap:round;stroke-linejoin:round;" x1="220.834" y1="190.574" x2="220.834" y2="189.574"/>
			
				<line style="fill:none;stroke:#A6A8AB;stroke-width:0.75;stroke-linecap:round;stroke-linejoin:round;stroke-dasharray:1.9616,1.9616;" x1="220.834" y1="187.612" x2="220.834" y2="102.283"/>
			
				<line style="fill:none;stroke:#A6A8AB;stroke-width:0.75;stroke-linecap:round;stroke-linejoin:round;" x1="220.834" y1="101.302" x2="220.834" y2="100.302"/>
		</g>
	</g>
	<g>
		<g>
			
				<line style="fill:none;stroke:#A6A8AB;stroke-width:0.75;stroke-linecap:round;stroke-linejoin:round;" x1="220.834" y1="190.574" x2="219.948" y2="191.038"/>
			
				<line style="fill:none;stroke:#A6A8AB;stroke-width:0.75;stroke-linecap:round;stroke-linejoin:round;stroke-dasharray:1.9877,1.9877;" x1="218.187" y1="191.959" x2="113.383" y2="246.768"/>
			
				<line style="fill:none;stroke:#A6A8AB;stroke-width:0.75;stroke-linecap:round;stroke-linejoin:round;" x1="112.502" y1="247.228" x2="111.616" y2="247.691"/>
		</g>
	</g>
	<polygon style="fill:#FF1614;" points="129.819,205.991 124.804,202.926 124.804,107.081 129.569,109.226 	"/>
	<polygon style="fill:#FF4040;" points="135.577,107.492 129.569,109.226 124.804,107.081 130.19,104.852 	"/>
	<path style="opacity:0.7;fill:#386DF9;" d="M50.319,130.393c32.508-14.674,60.182,20.061,60.182,20.061l110.333-50.151
		c0,0-30.09-30.091-50.152-20.061C150.622,90.271,50.319,130.393,50.319,130.393z"/>
	<g>
		<g>
			
				<line style="fill:none;stroke:#231F20;stroke-width:0.5;stroke-linecap:round;stroke-linejoin:round;" x1="215.262" y1="83.956" x2="198.617" y2="95.534"/>
			<g>
				<polygon style="fill:#231F20;" points="198.81,92.909 199.299,93.015 198.774,95.424 201.216,95.771 201.145,96.266 
					198.172,95.843 				"/>
			</g>
		</g>
	</g>
	<g>
		<path d="M218.033,75.432l-0.127,0.65h3.902l-3.824,3.805c-0.453,0.463-0.945,0.887-1.369,1.38
			c-0.051,0.128-0.08,0.296-0.109,0.434c1.734-0.01,3.549,0.03,5.205-0.01c0.078-0.187,0.117-0.424,0.168-0.65h-4.15l3.912-3.883
			c0.424-0.424,0.869-0.848,1.273-1.292c0.039-0.128,0.078-0.286,0.107-0.434H218.033"/>
		<path d="M227.9,79.355c-0.088,0.147,0,0.345,0.158,0.384c0.078,0.03,0.168,0.01,0.246,0.01h8.043c0.1,0,0.197,0,0.275-0.079
			c0.168-0.158,0.051-0.424-0.176-0.453c-0.178-0.01-0.365,0-0.553,0h-7.59C228.127,79.217,228,79.208,227.9,79.355 M228.059,76.654
			c-0.266,0.08-0.246,0.454,0.029,0.503c0.078,0.029,0.178,0.02,0.256,0.02h7.984c0.109,0,0.217,0,0.295-0.089
			c0.158-0.138,0.051-0.424-0.156-0.444c-0.188-0.02-0.375,0-0.562,0h-7.619C228.227,76.644,228.127,76.625,228.059,76.654z"/>
		<path d="M242.854,75.432l-0.139,0.66h1.145c-0.414,1.854-0.799,3.755-1.193,5.608c0.275,0,0.582,0.02,0.818-0.02l0.039-0.099
			c0.295-1.419,0.611-2.799,0.906-4.229c0.109-0.395,0.148-0.857,0.277-1.232l0.137-0.03h1.498l0.139-0.66h-1.666
			c0.119-0.385,0.178-0.798,0.256-1.183c0.041-0.187,0.07-0.384,0.148-0.552c0.316-0.552,1.203-0.749,2.021-0.621
			c0.188,0.04,0.363,0.108,0.551,0.148l0.148-0.749c-0.473-0.089-0.996-0.148-1.488-0.079c-0.887,0.118-1.793,0.729-2.109,1.567
			c-0.119,0.325-0.305,1.261-0.305,1.261c0,0.06-0.021,0.148-0.07,0.178c-0.068,0.049-0.227,0.03-0.305,0.03H242.854"/>
		<path d="M252.967,84.658c-0.109-0.118-0.236-0.227-0.355-0.335c-0.107-0.089-0.197-0.197-0.295-0.306
			c-1.332-1.458-2.021-3.805-1.912-6.289c0.049-1.35,0.314-2.74,0.955-3.962c0.297-0.542,0.799-1.311,1.252-1.695
			c0.119-0.108,0.246-0.217,0.355-0.335h-0.434c-0.07,0-0.168-0.02-0.227,0.01c-0.158,0.079-0.562,0.483-0.611,0.532
			c-1.281,1.281-2.041,3.204-2.139,5.451c-0.07,1.607,0.197,3.243,0.916,4.682c0.316,0.641,0.74,1.222,1.242,1.725
			c0.137,0.138,0.434,0.424,0.592,0.502c0.059,0.029,0.156,0.02,0.227,0.02H252.967"/>
		<path d="M255.145,75.432c0.621,1.005,1.271,1.991,1.873,3.026l-0.049,0.079l-2.514,2.464l-0.711,0.7c0.307,0,0.631,0,0.918-0.01
			l0.256-0.236l2.404-2.504c0.523,0.907,0.996,1.854,1.539,2.73c0.285,0.04,0.631,0.02,0.945,0.02
			c-0.168-0.306-1.744-2.799-1.863-2.986c-0.039-0.069-0.127-0.158-0.117-0.236c0.029-0.099,0.146-0.178,0.217-0.247l0.582-0.572
			l1.625-1.577c0.207-0.217,0.465-0.414,0.65-0.65c-0.305,0-0.631,0-0.916,0.01c-0.65,0.582-1.242,1.242-1.863,1.853l-0.582,0.572
			l-0.363-0.611c-0.375-0.602-0.689-1.251-1.104-1.813C255.785,75.432,255.461,75.432,255.145,75.432"/>
		<path d="M262.518,80.666v1.035h0.326l-0.336,1.479h0.531c0.178-0.493,0.346-0.966,0.504-1.458c0.02-0.335,0.02-0.69,0.02-1.055
			H262.518"/>
		<path d="M268.736,75.432c0.07,0.463,0.168,0.917,0.268,1.37l0.828,4.238c0.02,0.108,0.127,0.542,0.117,0.641
			c0,0.079-0.059,0.148-0.098,0.207c-0.09,0.138-0.168,0.286-0.246,0.414c-0.227,0.384-0.533,0.848-0.986,1.015
			c-0.385,0.138-1.133-0.059-1.4-0.128l-0.088,0.749c0.344,0.049,1.006,0.128,1.35,0.069c0.918-0.197,1.488-1.104,1.873-1.774
			l3.688-6.151l0.227-0.384c0.049-0.099,0.107-0.178,0.146-0.266c-0.285,0-0.59-0.02-0.828,0.02
			c-0.334,0.454-0.58,0.986-0.887,1.469l-1.508,2.592c-0.236,0.434-0.492,0.857-0.689,1.34c-0.02-0.641-0.129-1.271-0.246-1.902
			c-0.068-0.345-0.602-3.4-0.67-3.499c-0.051-0.049-0.158-0.02-0.229-0.02H268.736"/>
		<path d="M275.568,71.736c0.107,0.118,0.236,0.227,0.355,0.335c0.107,0.089,0.205,0.197,0.295,0.306
			c1.152,1.321,1.822,3.134,1.912,5.352c0.068,1.646-0.188,3.361-0.947,4.85c-0.246,0.522-0.58,1.015-0.965,1.439
			c-0.09,0.109-0.188,0.217-0.295,0.306c-0.119,0.108-0.248,0.217-0.355,0.335h0.434c0.068,0,0.168,0.01,0.227-0.02
			c0.168-0.079,0.562-0.473,0.611-0.532c1.281-1.271,2.041-3.204,2.148-5.451c0.059-1.607-0.207-3.243-0.926-4.672
			c-0.316-0.641-0.74-1.222-1.242-1.735c-0.139-0.128-0.424-0.424-0.592-0.502c-0.059-0.03-0.158-0.01-0.227-0.01H275.568"/>
	</g>
	<g>
		<path d="M164.523,154.219l-0.107,0.546h3.273l-3.209,3.191c-0.379,0.39-0.793,0.745-1.148,1.158
			c-0.041,0.107-0.066,0.248-0.092,0.363c1.457-0.008,2.979,0.024,4.367-0.008c0.066-0.157,0.1-0.355,0.141-0.546h-3.48l3.281-3.257
			c0.355-0.355,0.729-0.712,1.068-1.084c0.033-0.107,0.064-0.24,0.09-0.364H164.523"/>
		<path d="M172.801,157.51c-0.074,0.124,0,0.29,0.133,0.323c0.064,0.024,0.141,0.008,0.205,0.008h6.748c0.084,0,0.166,0,0.232-0.066
			c0.139-0.132,0.041-0.355-0.148-0.38c-0.15-0.008-0.307,0-0.465,0h-6.367C172.99,157.395,172.883,157.387,172.801,157.51
			 M172.934,155.244c-0.225,0.067-0.207,0.38,0.023,0.423c0.066,0.024,0.148,0.017,0.215,0.017h6.697c0.092,0,0.184,0,0.25-0.076
			c0.131-0.115,0.041-0.355-0.133-0.372c-0.158-0.016-0.314,0-0.473,0h-6.391C173.074,155.235,172.99,155.22,172.934,155.244z"/>
		<path d="M185.344,154.219l-0.115,0.555h0.959c-0.348,1.555-0.67,3.149-1,4.704c0.23,0,0.488,0.017,0.686-0.016l0.033-0.083
			c0.248-1.19,0.514-2.349,0.762-3.548c0.09-0.331,0.123-0.719,0.23-1.032l0.115-0.025h1.258l0.115-0.555h-1.398
			c0.102-0.322,0.15-0.669,0.217-0.992c0.033-0.157,0.059-0.322,0.123-0.463c0.266-0.463,1.01-0.628,1.695-0.521
			c0.158,0.034,0.307,0.092,0.463,0.125l0.125-0.629c-0.396-0.074-0.836-0.123-1.25-0.066c-0.742,0.1-1.504,0.612-1.77,1.315
			c-0.098,0.272-0.254,1.058-0.254,1.058c0,0.051-0.018,0.124-0.061,0.148c-0.057,0.042-0.189,0.025-0.254,0.025H185.344"/>
		<path d="M193.828,161.959c-0.09-0.1-0.197-0.19-0.299-0.281c-0.09-0.075-0.164-0.165-0.246-0.257
			c-1.117-1.224-1.697-3.191-1.605-5.275c0.041-1.133,0.264-2.299,0.803-3.324c0.248-0.454,0.67-1.1,1.049-1.422
			c0.102-0.091,0.209-0.182,0.299-0.281h-0.363c-0.059,0-0.141-0.017-0.189,0.009c-0.133,0.065-0.473,0.404-0.514,0.446
			c-1.074,1.074-1.713,2.688-1.795,4.572c-0.057,1.348,0.166,2.721,0.77,3.928c0.266,0.538,0.621,1.025,1.041,1.448
			c0.115,0.114,0.365,0.355,0.498,0.421c0.049,0.024,0.131,0.017,0.189,0.017H193.828"/>
		<path d="M195.654,154.219c0.521,0.844,1.068,1.671,1.572,2.539l-0.041,0.065l-2.109,2.068l-0.596,0.586
			c0.258,0,0.529,0,0.77-0.008l0.215-0.198l2.018-2.101c0.439,0.761,0.836,1.555,1.291,2.291c0.238,0.032,0.529,0.016,0.793,0.016
			c-0.141-0.256-1.463-2.348-1.562-2.505c-0.033-0.058-0.107-0.133-0.1-0.198c0.025-0.084,0.125-0.149,0.182-0.206l0.488-0.48
			l1.365-1.323c0.174-0.182,0.389-0.348,0.545-0.546c-0.256,0-0.529,0-0.77,0.009c-0.545,0.487-1.041,1.042-1.562,1.554l-0.488,0.48
			l-0.305-0.513c-0.314-0.505-0.578-1.051-0.926-1.521C196.193,154.219,195.92,154.219,195.654,154.219"/>
		<path d="M201.84,158.609v0.868h0.273l-0.281,1.24h0.447c0.148-0.412,0.289-0.81,0.422-1.224c0.016-0.281,0.016-0.578,0.016-0.885
			H201.84"/>
		<path d="M207.059,154.219c0.059,0.39,0.141,0.77,0.223,1.149l0.695,3.556c0.016,0.091,0.107,0.455,0.098,0.538
			c0,0.065-0.049,0.124-0.082,0.173c-0.074,0.116-0.141,0.239-0.205,0.348c-0.191,0.323-0.447,0.711-0.828,0.853
			c-0.322,0.115-0.951-0.051-1.174-0.108l-0.074,0.629c0.289,0.041,0.844,0.106,1.133,0.058c0.77-0.166,1.248-0.926,1.57-1.488
			l3.094-5.16l0.189-0.322c0.041-0.083,0.09-0.148,0.123-0.224c-0.238,0-0.494-0.016-0.693,0.017
			c-0.281,0.381-0.488,0.827-0.744,1.232l-1.266,2.175c-0.199,0.364-0.414,0.72-0.578,1.124c-0.018-0.537-0.107-1.066-0.207-1.596
			c-0.057-0.289-0.504-2.853-0.562-2.936c-0.041-0.042-0.133-0.017-0.189-0.017H207.059"/>
		<path d="M212.789,151.118c0.09,0.1,0.197,0.19,0.299,0.281c0.09,0.074,0.172,0.165,0.246,0.256c0.969,1.108,1.529,2.63,1.604,4.49
			c0.059,1.381-0.156,2.819-0.793,4.068c-0.207,0.438-0.488,0.852-0.811,1.207c-0.074,0.092-0.156,0.182-0.246,0.257
			c-0.102,0.091-0.209,0.182-0.299,0.281h0.363c0.057,0,0.141,0.008,0.189-0.017c0.143-0.065,0.473-0.396,0.514-0.446
			c1.074-1.067,1.713-2.688,1.803-4.572c0.049-1.349-0.174-2.721-0.777-3.921c-0.264-0.537-0.621-1.024-1.041-1.455
			c-0.117-0.106-0.355-0.355-0.498-0.421c-0.049-0.025-0.133-0.009-0.189-0.009H212.789"/>
	</g>
	<path d="M308.498,241.698c0.082,0.551,0.211,1.09,0.316,1.628l0.984,5.035c0.035,0.128,0.152,0.644,0.141,0.761
		c0,0.094-0.059,0.176-0.105,0.258c-0.117,0.152-0.211,0.328-0.305,0.48c-0.27,0.456-0.633,1.018-1.17,1.205
		c-0.457,0.176-1.348-0.07-1.664-0.141l-0.105,0.879c0.41,0.07,1.207,0.164,1.615,0.082c1.09-0.234,1.77-1.312,2.227-2.096
		l4.367-7.318l0.27-0.457c0.068-0.105,0.127-0.211,0.174-0.316c-0.326,0-0.689-0.012-0.982,0.035
		c-0.387,0.539-0.691,1.172-1.055,1.733l-1.779,3.079c-0.293,0.527-0.586,1.031-0.818,1.593c-0.035-0.749-0.164-1.511-0.305-2.261
		c-0.082-0.409-0.715-4.039-0.797-4.145c-0.059-0.07-0.188-0.035-0.258-0.035H308.498"/>
	<path d="M4.421,241.906c0.725,1.152,1.47,2.283,2.159,3.469l-0.068,0.102l-2.882,2.814l-0.801,0.813c0.35,0,0.711,0,1.051-0.022
		l0.281-0.271l2.769-2.87c0.588,1.04,1.142,2.124,1.763,3.13c0.316,0.045,0.712,0.034,1.085,0.034c-0.203-0.362-2-3.22-2.136-3.435
		c-0.045-0.08-0.158-0.182-0.135-0.271c0.033-0.113,0.169-0.203,0.236-0.271l0.678-0.655l1.854-1.819
		c0.249-0.248,0.543-0.475,0.746-0.746c-0.351,0-0.712,0-1.051,0.012c-0.746,0.678-1.412,1.424-2.125,2.124l-0.678,0.655l-0.406-0.7
		c-0.43-0.689-0.791-1.435-1.266-2.079C5.156,241.906,4.794,241.906,4.421,241.906"/>
	<path d="M166.607,2.58l-0.125,0.642h3.848l-3.771,3.751c-0.445,0.457-0.932,0.875-1.35,1.36c-0.059,0.126-0.078,0.292-0.107,0.428
		c1.701-0.009,3.498,0.029,5.123-0.009c0.086-0.185,0.125-0.418,0.174-0.642h-4.092l3.859-3.83c0.418-0.418,0.846-0.835,1.254-1.273
		c0.037-0.126,0.076-0.282,0.105-0.428H166.607"/>
	<g>
		<path d="M203.707,204.349c0.072,0.481,0.176,0.954,0.277,1.425l0.852,4.407c0.029,0.112,0.143,0.574,0.133,0.666
			c0,0.082-0.062,0.154-0.104,0.226c-0.092,0.134-0.174,0.287-0.266,0.421c-0.225,0.409-0.543,0.892-1.016,1.055
			c-0.398,0.154-1.178-0.051-1.455-0.122l-0.092,0.769c0.359,0.061,1.045,0.144,1.404,0.071c0.953-0.205,1.547-1.147,1.947-1.835
			l3.832-6.405l0.236-0.399c0.053-0.093,0.113-0.174,0.154-0.277c-0.297,0-0.615-0.01-0.861,0.031
			c-0.348,0.472-0.604,1.025-0.922,1.517l-1.568,2.695c-0.246,0.462-0.512,0.902-0.717,1.395c-0.031-0.656-0.135-1.322-0.258-1.968
			c-0.07-0.369-0.625-3.547-0.695-3.639c-0.051-0.062-0.164-0.031-0.236-0.031H203.707"/>
		<path d="M214.705,208.428c-0.092,0.154,0,0.359,0.174,0.4c0.082,0.03,0.164,0.021,0.246,0.021h8.363c0.113,0,0.205,0,0.287-0.093
			c0.184-0.164,0.061-0.44-0.174-0.461c-0.195-0.021-0.389,0-0.584,0h-7.893C214.941,208.295,214.807,208.274,214.705,208.428
			 M214.879,205.62c-0.277,0.082-0.266,0.471,0.021,0.522c0.082,0.03,0.184,0.021,0.266,0.021h8.312c0.102,0,0.215,0,0.297-0.082
			c0.164-0.153,0.061-0.44-0.164-0.472c-0.195-0.01-0.389,0-0.584,0h-7.912C215.043,205.609,214.941,205.6,214.879,205.62z"/>
		<path d="M233.922,207.629l-0.215,0.953c-0.062,0.349-0.123,0.677-0.359,0.963c-0.451,0.574-1.301,0.82-1.998,0.738
			c-0.348-0.041-0.738-0.185-0.902-0.513c-0.246-0.481,0.123-1.035,0.502-1.343C231.637,207.885,232.814,207.629,233.922,207.629
			 M230.775,205.538c0.227-0.092,0.42-0.235,0.637-0.328c0.49-0.235,1.023-0.38,1.566-0.38c0.164,0,0.328-0.01,0.482,0.031
			c0.502,0.134,0.779,0.666,0.758,1.189c0,0.286-0.133,0.728-0.174,0.953c0,0.112-0.041,0.205-0.164,0.205h-0.225
			c-0.318,0.03-0.646,0.041-0.965,0.081c-1.188,0.185-2.52,0.626-3.012,1.609c-0.318,0.636-0.236,1.66,0.48,1.988
			c0.391,0.144,0.615,0.123,1.148,0.041c0.789-0.112,1.588-0.43,2.143-1.024l-0.205,0.974h0.635c0.133,0,0.256,0.021,0.256-0.154
			c0.072-0.266,0.277-1.312,0.299-1.373c0.061-0.328,0.645-2.993,0.676-3.208c0.041-0.533-0.113-1.097-0.514-1.486
			c-0.307-0.276-0.707-0.431-1.127-0.472c-0.809-0.071-1.906,0.246-2.346,0.472c-0.072,0.031-0.176,0.052-0.236,0.123
			c-0.041,0.051-0.041,0.154-0.041,0.216C230.816,205.179,230.797,205.363,230.775,205.538z"/>
	</g>
	<g>
		<path d="M54.445,238.594c0.621,1.014,1.271,1.989,1.871,3.032l-0.06,0.079l-2.501,2.452l-0.709,0.709c0.305,0,0.62,0,0.916-0.02
			l0.256-0.236l2.402-2.501c0.512,0.905,0.995,1.851,1.537,2.728c0.285,0.039,0.63,0.029,0.945,0.029
			c-0.168-0.305-1.744-2.807-1.861-2.994c-0.039-0.068-0.128-0.157-0.118-0.236c0.029-0.088,0.147-0.177,0.216-0.236l0.582-0.57
			l1.624-1.586c0.208-0.207,0.463-0.414,0.649-0.649c-0.305,0-0.629,0-0.914,0.01c-0.65,0.591-1.242,1.241-1.862,1.851l-0.591,0.571
			l-0.354-0.61c-0.375-0.601-0.689-1.25-1.104-1.812C55.076,238.594,54.759,238.594,54.445,238.594"/>
		<path d="M64.834,242.513c-0.089,0.147,0,0.345,0.167,0.385c0.079,0.029,0.158,0.01,0.236,0.01h8.035c0.109,0,0.197,0,0.276-0.079
			c0.178-0.157,0.06-0.424-0.167-0.444c-0.188-0.019-0.375,0-0.562,0h-7.583C65.06,242.384,64.933,242.365,64.834,242.513
			 M65.001,239.814c-0.266,0.079-0.256,0.453,0.02,0.503c0.079,0.029,0.178,0.02,0.256,0.02h7.987c0.099,0,0.206,0,0.285-0.079
			c0.157-0.147,0.06-0.424-0.157-0.453c-0.188-0.01-0.375,0-0.562,0h-7.603C65.16,239.805,65.06,239.795,65.001,239.814z"/>
		<path d="M83.466,239.342c0.117,0.06,0.227,0.128,0.314,0.227c0.463,0.442,0.492,1.162,0.414,1.763
			c-0.148,1.024-0.581,2.088-1.517,2.629c-0.413,0.236-1.161,0.502-1.753,0.256c-0.236-0.117-0.414-0.344-0.512-0.59
			c-0.029-0.09-0.089-0.197-0.089-0.286c0-0.147,0.069-0.325,0.099-0.473c0.068-0.325,0.128-0.649,0.207-0.975l0.246-1.183
			c0.02-0.137,0.068-0.256,0.088-0.393c0.02-0.08,0.029-0.168,0.06-0.247c0.059-0.138,0.207-0.266,0.315-0.364
			C81.88,239.233,82.658,238.938,83.466,239.342 M81.103,235.649l-1.96,9.217c0.296,0,0.591,0.01,0.837-0.029
			c0.099-0.266,0.139-0.571,0.207-0.867h0.01c0.118,0.326,0.354,0.611,0.64,0.778c0.847,0.513,1.94,0.079,2.64-0.492
			c0.827-0.689,1.359-1.694,1.526-2.737c0.187-1.113-0.05-2.059-0.62-2.629c-0.809-0.729-2.059-0.346-2.826,0.235
			c-0.148,0.108-0.296,0.236-0.434,0.374c0.266-1.29,0.561-2.551,0.816-3.85H81.103z"/>
	</g>
	<g>
		<path d="M114.018,223.458h0.009C114.027,223.469,114.018,223.486,114.018,223.458 M114.675,219.52
			c0.038,0.074,0.102,0.176,0.111,0.278c0.01,0.12-0.045,0.286-0.073,0.407c-0.065,0.278-0.528,2.457-0.528,2.457
			c-0.046,0.296-0.148,0.398-0.344,0.593c-0.314,0.333-0.713,0.565-1.166,0.603c-0.474,0.037-0.873-0.148-1.123-0.361
			c-0.463-0.436-0.5-1.104-0.416-1.688c0.129-0.936,0.5-1.9,1.344-2.428C113.064,218.982,114.222,218.75,114.675,219.52z
			 M115.677,215.711l-0.751,3.559h-0.009c-0.102-0.27-0.426-0.557-0.677-0.686c-0.815-0.436-1.78-0.102-2.438,0.463
			c-0.777,0.648-1.278,1.604-1.436,2.586c-0.213,1.242,0.194,2.299,0.982,2.697c0.713,0.352,1.594,0.055,2.178-0.398
			c0.176-0.131,0.334-0.297,0.482-0.463l-0.186,0.916c0.277,0,0.556,0.01,0.787-0.027l0.057-0.139
			c0.119-0.621,0.259-1.232,0.398-1.863l1.399-6.645H115.677z"/>
		<path d="M118.281,218.482c0.065,0.435,0.168,0.861,0.251,1.287l0.778,3.985c0.028,0.103,0.121,0.52,0.111,0.603
			c0,0.074-0.047,0.139-0.083,0.204c-0.093,0.12-0.167,0.259-0.241,0.38c-0.214,0.371-0.501,0.807-0.928,0.955
			c-0.36,0.139-1.064-0.047-1.315-0.112l-0.083,0.696c0.324,0.055,0.955,0.129,1.279,0.064c0.861-0.186,1.398-1.039,1.76-1.658
			l3.457-5.793l0.213-0.361c0.057-0.084,0.103-0.158,0.14-0.25c-0.259,0-0.546-0.01-0.778,0.027
			c-0.307,0.427-0.547,0.927-0.834,1.371l-1.408,2.438c-0.232,0.417-0.465,0.815-0.649,1.26c-0.027-0.592-0.13-1.195-0.241-1.778
			c-0.064-0.325-0.564-3.207-0.631-3.29c-0.046-0.057-0.147-0.027-0.203-0.027H118.281"/>
	</g>
	<g>
		<path d="M146.372,220.849h0.009C146.38,220.857,146.372,220.877,146.372,220.849 M147.032,216.893
			c0.037,0.074,0.103,0.177,0.111,0.279c0.02,0.121-0.046,0.288-0.074,0.41c-0.056,0.279-0.521,2.466-0.521,2.466
			c-0.057,0.298-0.158,0.4-0.354,0.604c-0.316,0.327-0.716,0.559-1.173,0.597c-0.475,0.037-0.875-0.149-1.126-0.363
			c-0.466-0.438-0.503-1.107-0.41-1.694c0.122-0.939,0.504-1.908,1.341-2.438C145.413,216.353,146.585,216.12,147.032,216.893z
			 M148.038,213.066l-0.754,3.574h-0.01c-0.103-0.27-0.428-0.558-0.68-0.688c-0.819-0.438-1.777-0.103-2.448,0.465
			c-0.781,0.651-1.284,1.61-1.442,2.597c-0.214,1.248,0.195,2.309,0.987,2.719c0.716,0.344,1.601,0.046,2.187-0.41
			c0.177-0.131,0.345-0.298,0.494-0.466l-0.187,0.922c0.27,0,0.549,0.01,0.791-0.028l0.047-0.139
			c0.12-0.624,0.261-1.238,0.399-1.872l1.406-6.674H148.038z"/>
		<path d="M150.513,215.851c0.586,0.958,1.201,1.889,1.769,2.866l-0.056,0.075l-2.374,2.316l-0.66,0.671
			c0.288,0,0.586,0,0.865-0.009l0.242-0.232l2.271-2.355c0.484,0.847,0.94,1.74,1.452,2.568c0.271,0.038,0.597,0.028,0.894,0.028
			c-0.158-0.289-1.646-2.652-1.759-2.829c-0.037-0.057-0.121-0.149-0.112-0.225c0.029-0.083,0.141-0.158,0.206-0.223l0.549-0.54
			l1.535-1.499c0.196-0.195,0.438-0.381,0.614-0.613c-0.288,0-0.595,0-0.865,0.019c-0.614,0.549-1.173,1.163-1.76,1.74l-0.558,0.54
			l-0.335-0.577c-0.354-0.568-0.652-1.182-1.043-1.703C151.109,215.851,150.811,215.851,150.513,215.851"/>
	</g>
</g>
<g id="Layer_1">
</g>
</svg>
