<?xml version="1.0" encoding="iso-8859-1"?>
<!-- Generator: Adobe Illustrator 16.0.0, SVG Export Plug-In . SVG Version: 6.00 Build 0)  -->
<!DOCTYPE svg PUBLIC "-//W3C//DTD SVG 1.1//EN" "http://www.w3.org/Graphics/SVG/1.1/DTD/svg11.dtd">
<svg version="1.1" xmlns="http://www.w3.org/2000/svg" xmlns:xlink="http://www.w3.org/1999/xlink" x="0px" y="0px"
	 width="321.305px" height="253.904px" viewBox="0 0 321.305 253.904" style="enable-background:new 0 0 321.305 253.904;"
	 xml:space="preserve">
<g id="double_x5F_integral">
	<line style="fill:none;stroke:#BBBDBF;stroke-width:0.75;stroke-miterlimit:10;" x1="160.652" y1="0" x2="160.652" y2="160.484"/>
	
		<line style="fill:none;stroke:#BBBDBF;stroke-width:0.75;stroke-miterlimit:10;" x1="160.652" y1="160.484" x2="0.167" y2="240.727"/>
	
		<line style="fill:none;stroke:#BBBDBF;stroke-width:0.75;stroke-miterlimit:10;" x1="160.652" y1="160.484" x2="321.137" y2="240.727"/>
	<g>
		<g>
			
				<line style="fill:none;stroke:#A6A8AB;stroke-width:0.75;stroke-linecap:round;stroke-linejoin:round;" x1="50.319" y1="215.65" x2="51.205" y2="216.113"/>
			
				<line style="fill:none;stroke:#A6A8AB;stroke-width:0.75;stroke-linecap:round;stroke-linejoin:round;stroke-dasharray:2.0353,2.0353;" x1="53.009" y1="217.057" x2="109.827" y2="246.758"/>
			
				<line style="fill:none;stroke:#A6A8AB;stroke-width:0.75;stroke-linecap:round;stroke-linejoin:round;" x1="110.729" y1="247.229" x2="111.615" y2="247.692"/>
		</g>
	</g>
	<path style="fill:#FF1614;" d="M73.352,227.725l7.058,2.972V127.071c0,0-3.508-1.482-7.058-1.866
		C73.352,145.997,73.352,227.725,73.352,227.725z"/>
	<path style="fill:#FF4040;" d="M73.352,125.205c0,0,45.045-21.21,60.365-27.581c12.482-5.191,50.614-19.03,50.614-19.03
		l6.264,1.648L80.41,127.071C80.41,127.071,75.408,125.472,73.352,125.205z"/>
	<path style="fill:#E80000;" d="M80.41,127.071v103.625l110.333-55.167V80.242c0,0-41.415,15.351-55.091,21.153
		C121.738,107.298,80.41,127.071,80.41,127.071z"/>
	<g>
		<line style="fill:#5D22FF;" x1="74.837" y1="230.696" x2="67.872" y2="240.727"/>
		<g>
			
				<line style="fill:none;stroke:#231F20;stroke-width:0.5;stroke-linecap:round;stroke-linejoin:round;" x1="74.528" y1="231.142" x2="67.872" y2="240.727"/>
			<g>
				<polygon style="fill:#231F20;" points="71.903,231.336 72.009,231.825 74.418,231.299 74.767,233.74 75.262,233.669 
					74.837,230.696 				"/>
			</g>
		</g>
	</g>
	<g>
		<g>
			
				<line style="fill:none;stroke:#A6A8AB;stroke-width:0.75;stroke-linecap:round;stroke-linejoin:round;" x1="220.834" y1="190.575" x2="220.834" y2="189.575"/>
			
				<line style="fill:none;stroke:#A6A8AB;stroke-width:0.75;stroke-linecap:round;stroke-linejoin:round;stroke-dasharray:1.9616,1.9616;" x1="220.834" y1="187.613" x2="220.834" y2="102.284"/>
			
				<line style="fill:none;stroke:#A6A8AB;stroke-width:0.75;stroke-linecap:round;stroke-linejoin:round;" x1="220.834" y1="101.303" x2="220.834" y2="100.303"/>
		</g>
	</g>
	<g>
		<g>
			
				<line style="fill:none;stroke:#A6A8AB;stroke-width:0.75;stroke-linecap:round;stroke-linejoin:round;" x1="220.834" y1="190.575" x2="219.948" y2="191.039"/>
			
				<line style="fill:none;stroke:#A6A8AB;stroke-width:0.75;stroke-linecap:round;stroke-linejoin:round;stroke-dasharray:1.9877,1.9877;" x1="218.187" y1="191.96" x2="113.382" y2="246.769"/>
			
				<line style="fill:none;stroke:#A6A8AB;stroke-width:0.75;stroke-linecap:round;stroke-linejoin:round;" x1="112.501" y1="247.229" x2="111.615" y2="247.692"/>
		</g>
	</g>
	<path style="opacity:0.7;fill:#386DF9;" d="M50.319,130.394c32.507-14.674,60.182,20.061,60.182,20.061l110.333-50.151
		c0,0-30.092-30.091-50.152-20.061C150.622,90.272,50.319,130.394,50.319,130.394z"/>
	<g>
		<line style="fill:#5D22FF;" x1="215.262" y1="83.958" x2="198.173" y2="95.845"/>
		<g>
			
				<line style="fill:none;stroke:#231F20;stroke-width:0.5;stroke-linecap:round;stroke-linejoin:round;" x1="215.262" y1="83.958" x2="198.618" y2="95.535"/>
			<g>
				<polygon style="fill:#231F20;" points="198.811,92.91 199.3,93.016 198.775,95.425 201.217,95.771 201.146,96.267 
					198.173,95.844 				"/>
			</g>
		</g>
	</g>
	<g>
		<path d="M219.864,78.764l-0.128,0.65h3.903l-3.825,3.805c-0.453,0.463-0.945,0.887-1.369,1.38
			c-0.05,0.128-0.079,0.296-0.109,0.434c1.735-0.01,3.549,0.03,5.205-0.01c0.078-0.187,0.118-0.424,0.168-0.65h-4.15l3.913-3.883
			c0.424-0.424,0.868-0.848,1.272-1.292c0.039-0.128,0.078-0.286,0.107-0.434H219.864"/>
		<path d="M229.73,82.687c-0.088,0.147,0,0.345,0.158,0.384c0.078,0.03,0.168,0.01,0.246,0.01h8.043c0.1,0,0.197,0,0.276-0.079
			c0.167-0.158,0.05-0.424-0.177-0.453c-0.178-0.01-0.365,0-0.553,0h-7.59C229.957,82.549,229.83,82.54,229.73,82.687
			 M229.889,79.986c-0.266,0.08-0.246,0.454,0.029,0.503c0.079,0.029,0.178,0.02,0.256,0.02h7.984c0.109,0,0.217,0,0.296-0.089
			c0.157-0.138,0.05-0.424-0.157-0.444c-0.188-0.02-0.375,0-0.562,0h-7.619C230.057,79.976,229.957,79.957,229.889,79.986z"/>
		<path d="M244.684,78.764l-0.139,0.66h1.145c-0.414,1.854-0.799,3.755-1.193,5.608c0.276,0,0.582,0.02,0.818-0.02l0.039-0.099
			c0.296-1.419,0.611-2.799,0.907-4.229c0.108-0.395,0.147-0.857,0.276-1.232l0.138-0.03h1.498l0.138-0.66h-1.666
			c0.119-0.385,0.178-0.798,0.257-1.183c0.04-0.187,0.069-0.384,0.147-0.552c0.316-0.552,1.203-0.749,2.021-0.621
			c0.188,0.04,0.364,0.108,0.552,0.148l0.147-0.749c-0.473-0.089-0.995-0.148-1.488-0.079c-0.887,0.118-1.793,0.729-2.109,1.567
			c-0.118,0.325-0.305,1.261-0.305,1.261c0,0.06-0.021,0.148-0.07,0.178c-0.068,0.049-0.227,0.03-0.305,0.03H244.684"/>
		<path d="M254.797,87.99c-0.108-0.118-0.236-0.227-0.355-0.335c-0.107-0.089-0.197-0.197-0.295-0.306
			c-1.331-1.458-2.021-3.805-1.912-6.289c0.049-1.35,0.314-2.74,0.955-3.962c0.297-0.542,0.799-1.311,1.252-1.695
			c0.119-0.108,0.247-0.217,0.355-0.335h-0.434c-0.069,0-0.168-0.02-0.227,0.01c-0.158,0.079-0.562,0.483-0.611,0.532
			c-1.281,1.281-2.041,3.204-2.139,5.451c-0.069,1.607,0.197,3.243,0.916,4.682c0.316,0.641,0.74,1.222,1.242,1.725
			c0.138,0.138,0.434,0.424,0.592,0.502c0.059,0.029,0.157,0.02,0.227,0.02H254.797"/>
		<path d="M256.975,78.764c0.621,1.005,1.271,1.991,1.873,3.026l-0.049,0.079l-2.514,2.464l-0.71,0.7c0.306,0,0.631,0,0.917-0.01
			l0.256-0.236l2.405-2.504c0.522,0.907,0.995,1.854,1.538,2.73c0.285,0.04,0.631,0.02,0.946,0.02
			c-0.168-0.306-1.745-2.799-1.863-2.986c-0.04-0.069-0.128-0.158-0.118-0.236c0.029-0.099,0.147-0.178,0.217-0.247l0.582-0.572
			l1.626-1.577c0.207-0.217,0.464-0.414,0.65-0.65c-0.306,0-0.631,0-0.917,0.01c-0.65,0.582-1.242,1.242-1.862,1.853l-0.582,0.572
			l-0.364-0.611c-0.375-0.602-0.689-1.251-1.104-1.813C257.615,78.764,257.291,78.764,256.975,78.764"/>
		<path d="M264.348,83.998v1.035h0.326l-0.336,1.479h0.532c0.178-0.493,0.346-0.966,0.503-1.458c0.02-0.335,0.02-0.69,0.02-1.055
			H264.348"/>
		<path d="M270.567,78.764c0.069,0.463,0.167,0.917,0.267,1.37l0.828,4.238c0.02,0.108,0.128,0.542,0.117,0.641
			c0,0.079-0.059,0.148-0.098,0.207c-0.089,0.138-0.168,0.286-0.246,0.414c-0.227,0.384-0.533,0.848-0.986,1.015
			c-0.385,0.138-1.133-0.059-1.399-0.128l-0.089,0.749c0.345,0.049,1.006,0.128,1.351,0.069c0.917-0.197,1.488-1.104,1.873-1.774
			l3.687-6.151l0.227-0.384c0.049-0.099,0.107-0.178,0.147-0.266c-0.286,0-0.591-0.02-0.828,0.02
			c-0.335,0.454-0.581,0.986-0.887,1.469l-1.509,2.592c-0.236,0.434-0.492,0.857-0.689,1.34c-0.02-0.641-0.128-1.271-0.246-1.902
			c-0.068-0.345-0.602-3.4-0.67-3.499c-0.05-0.049-0.158-0.02-0.228-0.02H270.567"/>
		<path d="M277.398,75.068c0.108,0.118,0.236,0.227,0.355,0.335c0.107,0.089,0.206,0.197,0.295,0.306
			c1.153,1.321,1.823,3.134,1.912,5.352c0.068,1.646-0.188,3.361-0.946,4.85c-0.246,0.522-0.581,1.015-0.966,1.439
			c-0.089,0.109-0.188,0.217-0.295,0.306c-0.119,0.108-0.247,0.217-0.355,0.335h0.434c0.068,0,0.168,0.01,0.227-0.02
			c0.168-0.079,0.562-0.473,0.611-0.532c1.281-1.271,2.041-3.204,2.148-5.451c0.06-1.607-0.207-3.243-0.926-4.672
			c-0.315-0.641-0.74-1.222-1.242-1.735c-0.139-0.128-0.424-0.424-0.592-0.502c-0.059-0.03-0.158-0.01-0.227-0.01H277.398"/>
	</g>
	<g>
		<path d="M163.957,243.717c0.318-0.023,0.488-0.236,0.488-0.488c0-0.332-0.252-0.488-0.48-0.488c-0.236,0-0.488,0.148-0.488,0.496
			c0,0.51,0.496,0.932,1.109,0.932c1.516,0,2.084-2.336,2.787-5.228c0.769-3.149,1.42-6.335,1.959-9.53
			c0.37-2.129,0.732-4.125,1.072-5.412c0.125-0.486,0.459-1.773,0.85-1.773c0.311,0,0.562,0.191,0.6,0.229
			c-0.333,0.023-0.503,0.244-0.503,0.496c0,0.324,0.251,0.487,0.48,0.487c0.244,0,0.488-0.155,0.488-0.503
			c0-0.539-0.532-0.924-1.087-0.924c-0.754,0-1.316,1.087-1.863,3.12c-0.029,0.111-1.383,5.116-2.484,11.638
			c-0.258,1.521-0.547,3.186-0.872,4.576c-0.185,0.725-0.644,2.602-1.449,2.602C164.201,243.945,163.965,243.717,163.957,243.717"/>
		<path d="M175.883,221.914c0.066,0.037,0.118,0.081,0.17,0.126c0.259,0.265,0.244,0.68,0.17,1.013
			c-0.052,0.266-0.133,0.518-0.281,0.746c-0.251,0.377-0.672,0.6-1.123,0.621c-0.192,0.008-0.377-0.037-0.518-0.191
			c-0.045-0.06-0.141-0.2-0.141-0.289c-0.008-0.066,0.029-0.154,0.045-0.229c0.044-0.244,0.287-1.428,0.317-1.465
			c0.036-0.073,0.11-0.125,0.163-0.178C174.988,221.825,175.477,221.692,175.883,221.914 M174.492,219.926l-1.02,4.827
			c0.162,0,0.348,0.007,0.495-0.008c0.052-0.14,0.073-0.303,0.11-0.458h0.008c0.059,0.155,0.215,0.311,0.348,0.393
			c0.369,0.221,0.843,0.141,1.205-0.061c0.695-0.383,1.123-1.175,1.139-1.951c0.008-0.488-0.199-1.087-0.717-1.228
			c-0.6-0.147-1.213,0.244-1.494,0.495l0.422-2.01H174.492z"/>
		<path d="M170.863,240.383c0.073,0.045,0.14,0.104,0.206,0.154c0.251,0.26,0.341,0.762,0.354,1.221
			c0,0.096,0.008,0.185,0.008,0.281v0.354c0,0.599-0.059,1.175-0.325,1.53c-0.348,0.458-1.087,0.473-1.448,0.015
			c-0.09-0.097-0.141-0.207-0.186-0.325c-0.126-0.355-0.155-0.799-0.155-1.242v-0.355c0-0.096,0.007-0.178,0.007-0.266
			c0-0.555,0.141-1.094,0.511-1.33C170.108,240.249,170.529,240.205,170.863,240.383 M170.271,239.88
			c-0.163,0.015-0.326,0.044-0.48,0.118c-0.725,0.273-0.977,1.219-0.977,2.15c0,0.148,0,0.289,0.008,0.437
			c0.015,0.644,0.162,1.28,0.532,1.671c0.304,0.311,0.762,0.444,1.183,0.4c0.259-0.023,0.48-0.127,0.666-0.244
			c0.591-0.414,0.731-1.279,0.731-2.211c0-0.762-0.134-1.457-0.503-1.871C171.144,240.013,170.7,239.835,170.271,239.88z"/>
		<path d="M180.297,230.992l-0.097,0.496h0.857c-0.311,1.383-0.599,2.81-0.901,4.207c0.214,0,0.443,0.008,0.621-0.023l0.029-0.065
			c0.222-1.065,0.459-2.107,0.68-3.172c0.082-0.296,0.111-0.651,0.207-0.925l0.104-0.021h1.124l0.097-0.502h-1.242
			c0.088-0.289,0.125-0.592,0.191-0.888c0.03-0.134,0.045-0.288,0.104-0.407c0.244-0.414,0.91-0.569,1.516-0.465
			c0.141,0.029,0.281,0.08,0.422,0.11l0.111-0.562c-0.363-0.066-0.747-0.111-1.117-0.061c-0.673,0.09-1.346,0.548-1.589,1.176
			c-0.089,0.236-0.229,0.947-0.229,0.947c0,0.045-0.008,0.111-0.044,0.133c-0.052,0.037-0.171,0.016-0.237,0.016h-0.605"/>
		<path d="M187.919,237.912c-0.081-0.096-0.185-0.169-0.273-0.25c-0.081-0.074-0.147-0.148-0.214-0.23
			c-0.998-1.101-1.517-2.854-1.442-4.717c0.044-1.02,0.244-2.055,0.718-2.972c0.221-0.406,0.598-0.99,0.938-1.278
			c0.089-0.082,0.192-0.155,0.273-0.244h-0.333c-0.052,0-0.118-0.015-0.17,0.008c-0.118,0.059-0.414,0.354-0.458,0.398
			c-0.954,0.954-1.523,2.402-1.604,4.088c-0.052,1.205,0.148,2.433,0.688,3.513c0.236,0.473,0.562,0.917,0.939,1.294
			c0.096,0.096,0.317,0.317,0.436,0.377c0.052,0.021,0.118,0.014,0.17,0.014H187.919"/>
		<path d="M189.545,230.992c0.474,0.755,0.962,1.494,1.405,2.271l-0.037,0.06l-1.886,1.848l-0.524,0.525
			c0.229,0,0.466,0,0.688-0.008l0.185-0.178l1.805-1.877c0.392,0.68,0.754,1.382,1.16,2.039c0.207,0.031,0.466,0.023,0.71,0.023
			c-0.134-0.229-1.309-2.1-1.397-2.24c-0.029-0.052-0.104-0.125-0.089-0.186c0.015-0.066,0.11-0.125,0.155-0.178l0.443-0.428
			l1.213-1.184c0.162-0.162,0.348-0.311,0.488-0.488c-0.229,0-0.466,0-0.688,0.008c-0.488,0.436-0.924,0.924-1.397,1.383
			l-0.437,0.429l-0.266-0.458c-0.281-0.443-0.525-0.939-0.828-1.354C190.025,230.992,189.789,230.992,189.545,230.992"/>
		<path d="M195.083,234.919v0.776h0.236l-0.244,1.108h0.399c0.126-0.369,0.259-0.731,0.377-1.095c0.008-0.25,0.008-0.523,0.008-0.79
			H195.083"/>
		<path d="M199.719,230.992c0.044,0.348,0.125,0.688,0.199,1.021l0.613,3.186c0.022,0.074,0.104,0.407,0.089,0.473
			c0,0.067-0.036,0.111-0.066,0.163c-0.073,0.104-0.133,0.208-0.192,0.312c-0.17,0.288-0.398,0.635-0.739,0.754
			c-0.288,0.111-0.843-0.037-1.042-0.089l-0.074,0.562c0.259,0.037,0.762,0.096,1.021,0.045c0.688-0.148,1.116-0.821,1.404-1.324
			l2.765-4.613l0.171-0.295c0.036-0.066,0.073-0.127,0.11-0.199c-0.214,0-0.443-0.008-0.621,0.021
			c-0.25,0.34-0.443,0.739-0.664,1.102l-1.133,1.944c-0.177,0.325-0.369,0.644-0.518,1.006c-0.021-0.481-0.103-0.962-0.191-1.427
			c-0.045-0.26-0.443-2.551-0.496-2.625c-0.043-0.037-0.117-0.021-0.17-0.021h-0.465"/>
		<path d="M204.864,228.221c0.081,0.089,0.185,0.17,0.273,0.244c0.081,0.074,0.147,0.154,0.214,0.229
			c0.873,0.998,1.368,2.359,1.442,4.021c0.044,1.235-0.14,2.521-0.71,3.639c-0.191,0.391-0.436,0.762-0.732,1.078
			c-0.066,0.082-0.133,0.156-0.214,0.23c-0.089,0.081-0.192,0.154-0.273,0.25h0.333c0.051,0,0.117,0.008,0.17-0.014
			c0.118-0.06,0.414-0.355,0.458-0.399c0.954-0.954,1.522-2.403,1.604-4.089c0.052-1.205-0.148-2.432-0.688-3.512
			c-0.236-0.473-0.562-0.917-0.939-1.293c-0.096-0.097-0.317-0.318-0.436-0.377c-0.053-0.022-0.119-0.016-0.17-0.016h-0.333"/>
		<path d="M212.221,234.955h0.008C212.229,234.971,212.221,234.978,212.221,234.955 M212.746,231.82
			c0.029,0.06,0.08,0.134,0.088,0.215c0.015,0.104-0.037,0.229-0.059,0.332c-0.045,0.215-0.414,1.953-0.414,1.953
			c-0.045,0.236-0.126,0.317-0.281,0.48c-0.252,0.259-0.569,0.443-0.932,0.48c-0.377,0.029-0.695-0.126-0.895-0.297
			c-0.369-0.347-0.398-0.871-0.325-1.345c0.096-0.747,0.399-1.517,1.064-1.93C211.459,231.385,212.391,231.199,212.746,231.82z
			 M213.544,228.775l-0.599,2.846h-0.008c-0.081-0.222-0.34-0.451-0.539-0.555c-0.65-0.348-1.412-0.074-1.945,0.369
			c-0.621,0.519-1.02,1.279-1.146,2.063c-0.17,0.991,0.155,1.841,0.784,2.159c0.568,0.281,1.271,0.037,1.736-0.318
			c0.141-0.111,0.273-0.244,0.393-0.369l-0.148,0.725c0.215,0,0.437,0.014,0.629-0.023l0.037-0.104
			c0.096-0.502,0.207-0.99,0.318-1.484l1.115-5.309H213.544z"/>
		<path d="M215.51,230.992c0.467,0.755,0.954,1.494,1.405,2.271l-0.044,0.06l-1.886,1.848l-0.524,0.525c0.229,0,0.465,0,0.688-0.008
			l0.191-0.178l1.805-1.877c0.385,0.68,0.746,1.382,1.153,2.039c0.214,0.031,0.473,0.023,0.71,0.023
			c-0.126-0.229-1.309-2.1-1.398-2.24c-0.029-0.052-0.096-0.125-0.088-0.186c0.022-0.066,0.111-0.125,0.162-0.178l0.437-0.428
			l1.22-1.184c0.156-0.162,0.348-0.311,0.488-0.488c-0.229,0-0.473,0-0.688,0.008c-0.488,0.436-0.932,0.924-1.397,1.383
			l-0.444,0.429l-0.266-0.458c-0.281-0.443-0.518-0.939-0.828-1.354C215.983,230.992,215.747,230.992,215.51,230.992"/>
	</g>
	<g>
		<g>
			
				<line style="fill:none;stroke:#231F20;stroke-width:0.5;stroke-miterlimit:10;" x1="143.354" y1="178.43" x2="166.225" y2="221.502"/>
			<g>
				<polygon style="fill:#231F20;" points="142.324,180.852 142.808,180.981 143.443,178.599 145.773,179.407 145.936,178.934 
					143.099,177.95 				"/>
			</g>
		</g>
	</g>
	<path d="M309.945,242.735c0.082,0.55,0.211,1.089,0.316,1.628l0.984,5.035c0.035,0.128,0.151,0.643,0.141,0.76
		c0,0.094-0.059,0.176-0.105,0.258c-0.117,0.152-0.211,0.328-0.305,0.48c-0.27,0.457-0.633,1.019-1.171,1.205
		c-0.457,0.176-1.347-0.069-1.663-0.141l-0.105,0.879c0.41,0.07,1.207,0.164,1.615,0.082c1.09-0.234,1.77-1.312,2.226-2.096
		l4.367-7.318l0.27-0.456c0.069-0.106,0.128-0.211,0.175-0.316c-0.327,0-0.689-0.012-0.982,0.035
		c-0.387,0.538-0.691,1.171-1.055,1.733l-1.779,3.079c-0.293,0.526-0.586,1.03-0.819,1.593c-0.035-0.75-0.164-1.512-0.305-2.261
		c-0.082-0.409-0.714-4.039-0.796-4.145c-0.059-0.07-0.188-0.035-0.258-0.035H309.945"/>
	<path d="M6.5,241.325c0.724,1.152,1.469,2.282,2.159,3.469l-0.068,0.102l-2.881,2.813l-0.802,0.814c0.35,0,0.711,0,1.051-0.023
		l0.282-0.271l2.768-2.869c0.588,1.039,1.142,2.124,1.763,3.129c0.317,0.046,0.712,0.035,1.085,0.035
		c-0.203-0.362-2-3.221-2.136-3.436c-0.045-0.079-0.158-0.182-0.135-0.271c0.034-0.113,0.169-0.203,0.237-0.271l0.678-0.654
		l1.853-1.82c0.249-0.248,0.542-0.475,0.746-0.745c-0.351,0-0.712,0-1.051,0.011c-0.746,0.678-1.413,1.424-2.125,2.125l-0.678,0.654
		l-0.407-0.699c-0.43-0.689-0.792-1.436-1.266-2.08C7.235,241.325,6.874,241.325,6.5,241.325"/>
	<path d="M166.728,1.615l-0.126,0.642h3.849l-3.771,3.751c-0.446,0.457-0.933,0.875-1.351,1.36
		c-0.059,0.126-0.078,0.292-0.107,0.428c1.701-0.009,3.499,0.029,5.123-0.009c0.087-0.185,0.125-0.418,0.174-0.642h-4.092
		l3.859-3.83c0.418-0.418,0.846-0.835,1.254-1.273c0.038-0.126,0.077-0.282,0.106-0.428H166.728"/>
	<g>
		<path d="M205.964,203.558c0.071,0.481,0.175,0.954,0.276,1.425l0.852,4.407c0.03,0.112,0.143,0.573,0.133,0.666
			c0,0.082-0.062,0.153-0.103,0.226c-0.093,0.133-0.175,0.287-0.267,0.42c-0.225,0.41-0.543,0.893-1.015,1.056
			c-0.399,0.153-1.179-0.051-1.455-0.122l-0.093,0.768c0.359,0.062,1.046,0.145,1.404,0.072c0.953-0.205,1.548-1.148,1.947-1.835
			l3.833-6.405l0.235-0.4c0.053-0.092,0.113-0.174,0.154-0.276c-0.297,0-0.615-0.01-0.861,0.03
			c-0.348,0.473-0.604,1.025-0.922,1.518l-1.568,2.695c-0.246,0.461-0.512,0.902-0.717,1.395c-0.031-0.656-0.134-1.322-0.257-1.969
			c-0.071-0.369-0.625-3.546-0.696-3.639c-0.051-0.061-0.164-0.03-0.236-0.03H205.964"/>
		<path d="M216.961,207.637c-0.092,0.154,0,0.359,0.174,0.4c0.082,0.03,0.164,0.02,0.246,0.02h8.363c0.113,0,0.205,0,0.287-0.092
			c0.185-0.164,0.062-0.441-0.174-0.461c-0.195-0.021-0.389,0-0.584,0h-7.893C217.197,207.504,217.063,207.483,216.961,207.637
			 M217.135,204.828c-0.276,0.082-0.266,0.472,0.021,0.523c0.082,0.03,0.184,0.021,0.266,0.021h8.312c0.103,0,0.215,0,0.297-0.082
			c0.164-0.153,0.062-0.44-0.164-0.472c-0.194-0.01-0.389,0-0.584,0h-7.912C217.299,204.818,217.197,204.809,217.135,204.828z"/>
		<path d="M236.178,206.838l-0.215,0.953c-0.062,0.348-0.123,0.676-0.359,0.963c-0.45,0.574-1.301,0.82-1.998,0.738
			c-0.348-0.041-0.737-0.186-0.902-0.513c-0.245-0.481,0.123-1.035,0.503-1.343C233.893,207.094,235.071,206.838,236.178,206.838
			 M233.031,204.746c0.227-0.092,0.42-0.234,0.637-0.328c0.491-0.234,1.023-0.379,1.567-0.379c0.164,0,0.327-0.01,0.481,0.031
			c0.502,0.133,0.779,0.666,0.759,1.189c0,0.286-0.134,0.727-0.175,0.953c0,0.112-0.041,0.205-0.164,0.205h-0.225
			c-0.318,0.029-0.646,0.041-0.964,0.081c-1.188,0.185-2.521,0.626-3.013,1.609c-0.318,0.636-0.236,1.66,0.481,1.988
			c0.39,0.144,0.614,0.123,1.147,0.041c0.789-0.112,1.589-0.431,2.143-1.024l-0.205,0.973h0.635c0.134,0,0.257,0.021,0.257-0.153
			c0.071-0.267,0.276-1.312,0.298-1.373c0.061-0.328,0.645-2.993,0.676-3.208c0.041-0.533-0.113-1.097-0.513-1.486
			c-0.308-0.277-0.707-0.431-1.128-0.472c-0.809-0.071-1.906,0.246-2.346,0.472c-0.072,0.031-0.175,0.051-0.236,0.123
			c-0.041,0.051-0.041,0.154-0.041,0.215C233.072,204.388,233.053,204.572,233.031,204.746z"/>
	</g>
	<g>
		<path d="M33.38,227.447c0.621,1.014,1.271,1.988,1.871,3.032l-0.06,0.079l-2.501,2.451l-0.709,0.709c0.305,0,0.62,0,0.916-0.02
			l0.256-0.236l2.403-2.5c0.512,0.905,0.995,1.851,1.536,2.727c0.286,0.04,0.63,0.029,0.945,0.029
			c-0.167-0.305-1.743-2.807-1.861-2.993c-0.04-0.069-0.128-0.157-0.118-0.236c0.029-0.089,0.147-0.177,0.216-0.236l0.581-0.571
			l1.625-1.585c0.208-0.208,0.463-0.414,0.65-0.649c-0.305,0-0.63,0-0.915,0.01c-0.65,0.59-1.241,1.24-1.862,1.851l-0.59,0.571
			l-0.354-0.611c-0.375-0.6-0.689-1.25-1.103-1.811C34.011,227.447,33.695,227.447,33.38,227.447"/>
		<path d="M43.77,231.365c-0.089,0.148,0,0.346,0.167,0.385c0.079,0.029,0.158,0.01,0.236,0.01h8.036c0.108,0,0.197,0,0.276-0.078
			c0.178-0.158,0.06-0.424-0.167-0.444c-0.187-0.019-0.374,0-0.561,0h-7.583C43.996,231.237,43.868,231.219,43.77,231.365
			 M43.937,228.668c-0.266,0.078-0.256,0.453,0.02,0.502c0.079,0.029,0.177,0.02,0.256,0.02H52.2c0.098,0,0.207,0,0.285-0.078
			c0.158-0.148,0.06-0.424-0.158-0.453c-0.187-0.01-0.374,0-0.561,0h-7.603C44.095,228.658,43.996,228.648,43.937,228.668z"/>
		<path d="M62.402,228.195c0.118,0.059,0.227,0.127,0.315,0.227c0.463,0.442,0.492,1.162,0.414,1.762
			c-0.148,1.025-0.581,2.088-1.517,2.63c-0.414,0.236-1.162,0.502-1.753,0.256c-0.236-0.118-0.414-0.345-0.512-0.591
			c-0.029-0.089-0.088-0.197-0.088-0.285c0-0.148,0.069-0.325,0.099-0.473c0.069-0.325,0.128-0.65,0.207-0.975l0.246-1.183
			c0.02-0.138,0.068-0.256,0.088-0.394c0.02-0.079,0.029-0.168,0.059-0.246c0.059-0.139,0.207-0.266,0.315-0.365
			C60.816,228.086,61.594,227.791,62.402,228.195 M60.038,224.502l-1.959,9.217c0.295,0,0.59,0.011,0.837-0.029
			c0.098-0.266,0.138-0.57,0.207-0.866h0.009c0.119,0.325,0.355,0.61,0.64,0.778c0.847,0.512,1.94,0.078,2.64-0.492
			c0.827-0.689,1.359-1.694,1.526-2.738c0.187-1.113-0.049-2.059-0.62-2.629c-0.808-0.729-2.059-0.345-2.827,0.236
			c-0.148,0.107-0.295,0.236-0.434,0.373c0.266-1.289,0.562-2.55,0.817-3.85H60.038z"/>
	</g>
	<g>
		<path d="M63.538,250.793h0.009C63.547,250.803,63.538,250.82,63.538,250.793 M64.195,246.854c0.038,0.073,0.102,0.176,0.111,0.278
			c0.01,0.119-0.046,0.286-0.074,0.407c-0.065,0.278-0.529,2.456-0.529,2.456c-0.045,0.297-0.147,0.398-0.343,0.594
			c-0.314,0.333-0.713,0.564-1.167,0.602c-0.473,0.037-0.872-0.148-1.122-0.361c-0.463-0.436-0.5-1.104-0.417-1.687
			c0.129-0.937,0.5-1.9,1.343-2.429C62.583,246.316,63.741,246.085,64.195,246.854z M65.197,243.045l-0.751,3.559h-0.009
			c-0.102-0.269-0.426-0.557-0.676-0.686c-0.815-0.436-1.78-0.102-2.438,0.463c-0.778,0.649-1.279,1.604-1.436,2.586
			c-0.213,1.242,0.194,2.299,0.982,2.697c0.713,0.352,1.594,0.056,2.178-0.398c0.176-0.13,0.333-0.297,0.481-0.463l-0.185,0.917
			c0.278,0,0.556,0.009,0.788-0.028l0.056-0.139c0.12-0.621,0.259-1.232,0.399-1.863l1.399-6.645H65.197z"/>
		<path d="M67.801,245.816c0.065,0.436,0.167,0.861,0.25,1.288l0.778,3.985c0.028,0.102,0.121,0.52,0.111,0.602
			c0,0.074-0.046,0.14-0.083,0.205c-0.093,0.119-0.167,0.259-0.241,0.379c-0.214,0.371-0.501,0.807-0.927,0.955
			c-0.361,0.139-1.065-0.047-1.316-0.111l-0.083,0.695c0.324,0.056,0.954,0.129,1.278,0.064c0.862-0.186,1.399-1.038,1.761-1.658
			l3.457-5.793L73,246.066c0.056-0.084,0.102-0.158,0.139-0.25c-0.259,0-0.546-0.01-0.778,0.027
			c-0.306,0.428-0.547,0.928-0.834,1.371l-1.408,2.438c-0.232,0.417-0.464,0.815-0.649,1.26c-0.027-0.593-0.13-1.195-0.241-1.778
			c-0.065-0.325-0.565-3.207-0.63-3.291c-0.046-0.056-0.148-0.027-0.204-0.027H67.801"/>
	</g>
</g>
<g id="Layer_1">
</g>
</svg>
