<svg xmlns="http://www.w3.org/2000/svg" xmlns:xlink="http://www.w3.org/1999/xlink" height="113pt" version="1.1" viewBox="0 0 226 113" width="226pt">
 <defs>
  <clipPath id="pe96e7003ef">
   <rect height="113.385826772" width="226.771653543" x="0.0" y="0.0"/>
  </clipPath>
 </defs>
<defs>
  <style type="text/css">
*{stroke-linecap:butt;stroke-linejoin:round;stroke-miterlimit:100000;}
  </style>
 </defs>
 <g id="figure_1">
  <g id="patch_1">
   <path d="M 0 113.385827  L 226.771654 113.385827  L 226.771654 0  L 0 0  z " style="fill:#ffffff;"/>
  </g>
  <g id="axes_1">
   <g id="patch_2">
    <path clip-path="url(#pe96e7003ef)" d="M 68.031496 73.700787  L 65.19685 75.826772  L 65.19685 73.700787  L 45.354331 73.700787  L 45.354331 73.700787  L 65.19685 73.700787  L 65.19685 71.574803  L 68.031496 73.700787  z " style="fill:none;stroke:#000000;stroke-linejoin:miter;"/>
   </g>
   <g id="patch_3">
    <path clip-path="url(#pe96e7003ef)" d="M 85.03937 45.354331  L 87.165354 48.188976  L 85.03937 48.188976  L 85.03937 56.692913  L 85.03937 56.692913  L 85.03937 48.188976  L 82.913386 48.188976  L 85.03937 45.354331  z " style="fill:none;stroke:#000000;stroke-linejoin:miter;"/>
   </g>
   <g id="patch_4">
    <path clip-path="url(#pe96e7003ef)" d="M 124.724409 73.700787  L 121.889764 75.826772  L 121.889764 73.700787  L 102.047244 73.700787  L 102.047244 73.700787  L 121.889764 73.700787  L 121.889764 71.574803  L 124.724409 73.700787  z " style="fill:none;stroke:#000000;stroke-linejoin:miter;"/>
   </g>
   <g id="patch_5">
    <path clip-path="url(#pe96e7003ef)" d="M 141.732283 56.692913  L 139.606299 53.858268  L 141.732283 53.858268  L 141.732283 45.354331  L 141.732283 45.354331  L 141.732283 53.858268  L 143.858268 53.858268  L 141.732283 56.692913  z " style="fill:none;stroke:#000000;stroke-linejoin:miter;"/>
   </g>
   <g id="patch_6">
    <path clip-path="url(#pe96e7003ef)" d="M 28.346457 90.708661  C 32.856998 90.708661 37.183406 88.916605 40.37284 85.72717  C 43.562274 82.537736 45.354331 78.211328 45.354331 73.700787  C 45.354331 69.190246 43.562274 64.863838 40.37284 61.674404  C 37.183406 58.48497 32.856998 56.692913 28.346457 56.692913  C 23.835916 56.692913 19.509508 58.48497 16.320074 61.674404  C 13.13064 64.863838 11.338583 69.190246 11.338583 73.700787  C 11.338583 78.211328 13.13064 82.537736 16.320074 85.72717  C 19.509508 88.916605 23.835916 90.708661 28.346457 90.708661  L 28.346457 90.708661  z " style="fill:none;stroke:#000000;stroke-linejoin:miter;"/>
   </g>
   <g id="patch_7">
    <path clip-path="url(#pe96e7003ef)" d="M 85.03937 90.708661  C 89.549911 90.708661 93.876319 88.916605 97.065753 85.72717  C 100.255187 82.537736 102.047244 78.211328 102.047244 73.700787  C 102.047244 69.190246 100.255187 64.863838 97.065753 61.674404  C 93.876319 58.48497 89.549911 56.692913 85.03937 56.692913  C 80.528829 56.692913 76.202421 58.48497 73.012987 61.674404  C 69.823553 64.863838 68.031496 69.190246 68.031496 73.700787  C 68.031496 78.211328 69.823553 82.537736 73.012987 85.72717  C 76.202421 88.916605 80.528829 90.708661 85.03937 90.708661  L 85.03937 90.708661  z " style="fill:none;stroke:#000000;stroke-linejoin:miter;"/>
   </g>
   <g id="patch_8">
    <path clip-path="url(#pe96e7003ef)" d="M 141.732283 90.708661  C 146.242824 90.708661 150.569232 88.916605 153.758667 85.72717  C 156.948101 82.537736 158.740157 78.211328 158.740157 73.700787  C 158.740157 69.190246 156.948101 64.863838 153.758667 61.674404  C 150.569232 58.48497 146.242824 56.692913 141.732283 56.692913  C 137.221743 56.692913 132.895334 58.48497 129.7059 61.674404  C 126.516466 64.863838 124.724409 69.190246 124.724409 73.700787  C 124.724409 78.211328 126.516466 82.537736 129.7059 85.72717  C 132.895334 88.916605 137.221743 90.708661 141.732283 90.708661  L 141.732283 90.708661  z " style="fill:none;stroke:#000000;stroke-linejoin:miter;"/>
   </g>
   <g id="patch_9">
    <path clip-path="url(#pe96e7003ef)" d="M 141.732283 45.354331  C 146.242824 45.354331 150.569232 43.562274 153.758667 40.37284  C 156.948101 37.183406 158.740157 32.856998 158.740157 28.346457  C 158.740157 23.835916 156.948101 19.509508 153.758667 16.320074  C 150.569232 13.13064 146.242824 11.338583 141.732283 11.338583  C 137.221743 11.338583 132.895334 13.13064 129.7059 16.320074  C 126.516466 19.509508 124.724409 23.835916 124.724409 28.346457  C 124.724409 32.856998 126.516466 37.183406 129.7059 40.37284  C 132.895334 43.562274 137.221743 45.354331 141.732283 45.354331  L 141.732283 45.354331  z " style="fill:none;stroke:#000000;stroke-linejoin:miter;"/>
   </g>
   <g id="patch_10">
    <path clip-path="url(#pe96e7003ef)" d="M 85.03937 45.354331  C 89.549911 45.354331 93.876319 43.562274 97.065753 40.37284  C 100.255187 37.183406 102.047244 32.856998 102.047244 28.346457  C 102.047244 23.835916 100.255187 19.509508 97.065753 16.320074  C 93.876319 13.13064 89.549911 11.338583 85.03937 11.338583  C 80.528829 11.338583 76.202421 13.13064 73.012987 16.320074  C 69.823553 19.509508 68.031496 23.835916 68.031496 28.346457  C 68.031496 32.856998 69.823553 37.183406 73.012987 40.37284  C 76.202421 43.562274 80.528829 45.354331 85.03937 45.354331  L 85.03937 45.354331  z " style="fill:none;stroke:#000000;stroke-linejoin:miter;"/>
   </g>
   <g id="matplotlib.axis_1"/>
   <g id="matplotlib.axis_2"/>
   <g id="text_1">
    <!-- L -->
    <defs>
     <path d="M 9.8125 72.90625  L 19.671875 72.90625  L 19.671875 8.296875  L 55.171875 8.296875  L 55.171875 0  L 9.8125 0  z " id="BitstreamVeraSans-Roman-4c"/>
    </defs>
    <g transform="translate(23.3317691929 78.6676624016)scale(0.18 -0.18)">
     <use xlink:href="#BitstreamVeraSans-Roman-4c"/>
    </g>
   </g>
   <g id="text_2">
    <!-- R -->
    <defs>
     <path d="M 44.390625 34.1875  Q 47.5625 33.109375 50.5625 29.59375  Q 53.5625 26.078125 56.59375 19.921875  L 66.609375 0  L 56 0  L 46.6875 18.703125  Q 43.0625 26.03125 39.671875 28.421875  Q 36.28125 30.8125 30.421875 30.8125  L 19.671875 30.8125  L 19.671875 0  L 9.8125 0  L 9.8125 72.90625  L 32.078125 72.90625  Q 44.578125 72.90625 50.734375 67.671875  Q 56.890625 62.453125 56.890625 51.90625  Q 56.890625 45.015625 53.6875 40.46875  Q 50.484375 35.9375 44.390625 34.1875  M 19.671875 64.796875  L 19.671875 38.921875  L 32.078125 38.921875  Q 39.203125 38.921875 42.84375 42.21875  Q 46.484375 45.515625 46.484375 51.90625  Q 46.484375 58.296875 42.84375 61.546875  Q 39.203125 64.796875 32.078125 64.796875  z " id="BitstreamVeraSans-Roman-52"/>
    </defs>
    <g transform="translate(78.7857763287 78.6676624016)scale(0.18 -0.18)">
     <use xlink:href="#BitstreamVeraSans-Roman-52"/>
    </g>
   </g>
   <g id="text_3">
    <!-- T -->
    <defs>
     <path d="M -0.296875 72.90625  L 61.375 72.90625  L 61.375 64.59375  L 35.5 64.59375  L 35.5 0  L 25.59375 0  L 25.59375 64.59375  L -0.296875 64.59375  z " id="BitstreamVeraSans-Roman-54"/>
    </defs>
    <g transform="translate(136.235252215 78.6676624016)scale(0.18 -0.18)">
     <use xlink:href="#BitstreamVeraSans-Roman-54"/>
    </g>
   </g>
   <g id="text_4">
    <!-- B -->
    <defs>
     <path d="M 19.671875 34.8125  L 19.671875 8.109375  L 35.5 8.109375  Q 43.453125 8.109375 47.28125 11.40625  Q 51.125 14.703125 51.125 21.484375  Q 51.125 28.328125 47.28125 31.5625  Q 43.453125 34.8125 35.5 34.8125  z M 19.671875 64.796875  L 19.671875 42.828125  L 34.28125 42.828125  Q 41.5 42.828125 45.03125 45.53125  Q 48.578125 48.25 48.578125 53.8125  Q 48.578125 59.328125 45.03125 62.0625  Q 41.5 64.796875 34.28125 64.796875  z M 9.8125 72.90625  L 35.015625 72.90625  Q 46.296875 72.90625 52.390625 68.21875  Q 58.5 63.53125 58.5 54.890625  Q 58.5 48.1875 55.375 44.234375  Q 52.25 40.28125 46.1875 39.3125  Q 53.46875 37.75 57.5 32.78125  Q 61.53125 27.828125 61.53125 20.40625  Q 61.53125 10.640625 54.890625 5.3125  Q 48.25 0 35.984375 0  L 9.8125 0  z " id="BitstreamVeraSans-Roman-42"/>
    </defs>
    <g transform="translate(135.557439715 33.3133316929)scale(0.18 -0.18)">
     <use xlink:href="#BitstreamVeraSans-Roman-42"/>
    </g>
   </g>
   <g id="text_5">
    <!-- D -->
    <defs>
     <path d="M 19.671875 64.796875  L 19.671875 8.109375  L 31.59375 8.109375  Q 46.6875 8.109375 53.6875 14.9375  Q 60.6875 21.78125 60.6875 36.53125  Q 60.6875 51.171875 53.6875 57.984375  Q 46.6875 64.796875 31.59375 64.796875  z M 9.8125 72.90625  L 30.078125 72.90625  Q 51.265625 72.90625 61.171875 64.09375  Q 71.09375 55.28125 71.09375 36.53125  Q 71.09375 17.671875 61.125 8.828125  Q 51.171875 0 30.078125 0  L 9.8125 0  z " id="BitstreamVeraSans-Roman-44"/>
    </defs>
    <g transform="translate(78.1093700787 33.3133316929)scale(0.18 -0.18)">
     <use xlink:href="#BitstreamVeraSans-Roman-44"/>
    </g>
   </g>
  </g>
 </g>
 </svg>
