<?xml version="1.0" encoding="iso-8859-1"?>
<!-- Generator: Adobe Illustrator 16.0.0, SVG Export Plug-In . SVG Version: 6.00 Build 0)  -->
<!DOCTYPE svg PUBLIC "-//W3C//DTD SVG 1.1//EN" "http://www.w3.org/Graphics/SVG/1.1/DTD/svg11.dtd">
<svg version="1.1" id="Layer_1" xmlns="http://www.w3.org/2000/svg" xmlns:xlink="http://www.w3.org/1999/xlink" x="0px" y="0px"
	 width="330.037px" height="156px" viewBox="0 0 330.037 156" style="enable-background:new 0 0 330.037 156;" xml:space="preserve"
	>
<path style="fill:#C2F4FF;stroke:#41C8F7;stroke-miterlimit:10;" d="M6.189,103.124c11.599-30.391,3.115-72.667,28.705-75.212
	C60.484,25.371,53.84,10.525,79.43,7.982c25.588-2.543,57.822,9.759,49.621,31.249c-8.202,21.487-33.791,24.032-20.504,53.722
	c13.288,29.69,0.986,61.921-20.502,53.722c-21.49-8.201-47.458,6.506-61.923,0.983C14.725,143.311,2.089,113.868,6.189,103.124z"/>
<path style="fill:#FF6E6E;stroke:#F24444;stroke-linecap:round;stroke-linejoin:round;stroke-miterlimit:10;" d="M274.984,146.144
	c-37.945,2.719-58.276-14.892-40.668-35.224c17.613-20.333-40.66-35.223-23.049-55.554c17.611-20.333,14.891-58.277,35.225-40.665
	c20.329,17.613,75.883-5.439,78.606,32.503C327.817,85.147,312.923,143.423,274.984,146.144z"/>
<g>
	<g>
		<path style="fill:#3EC5DB;" d="M86.281,21.053l-6.78,9.75l7.038,10.073h-1.873l-6.134-8.749l-6.102,8.749h-1.808l7.006-10.041
			l-6.812-9.782h1.873l5.875,8.458l5.908-8.458H86.281z"/>
	</g>
</g>
<g>
	<rect x="223.011" y="28.54" style="fill:none;" width="39.744" height="39.748"/>
	<path style="fill:#E03434;" d="M242.932,39.548l6.231-9.847h1.775l-7.231,11.364v8.458h-1.647v-8.458l-7.199-11.364h1.808
		L242.932,39.548z"/>
</g>
<circle style="fill:#FFFA5A;" cx="67.876" cy="79.646" r="5.39"/>
<circle style="fill:#FFFA5A;" cx="259.907" cy="79.646" r="5.389"/>
<g>
	<g>
		<path style="fill:none;stroke:#8821EA;stroke-linecap:round;stroke-linejoin:round;" d="M78.563,74.256
			c28.022-17.698,123.571-21.464,167.293,0.679"/>
		<g>
			<polygon style="fill:#8821EA;" points="241.072,77.181 240.78,76.224 245.497,74.787 243.721,70.188 244.654,69.828 
				246.817,75.431 			"/>
		</g>
	</g>
</g>
<g>
	<rect x="120.997" y="68.524" style="fill:none;" width="83.386" height="30.679"/>
	<path d="M132.652,69.453l-1.343,2.505c0.533,0.087,0.801,0.396,0.801,0.931c0,0.275-0.091,0.508-0.271,0.697
		s-0.409,0.284-0.685,0.284c-0.293,0-0.529-0.095-0.71-0.284s-0.271-0.439-0.271-0.749c0-0.345,0.121-0.724,0.362-1.137l1.214-2.247
		H132.652z M135.83,69.453l-1.343,2.505c0.534,0.087,0.801,0.396,0.801,0.931c0,0.275-0.09,0.508-0.271,0.697
		c-0.181,0.189-0.409,0.284-0.684,0.284c-0.293,0-0.53-0.095-0.71-0.284s-0.271-0.439-0.271-0.749c0-0.345,0.12-0.724,0.361-1.137
		l1.214-2.247H135.83z"/>
	<path d="M145.902,75.807c0.344-0.62,0.835-1.141,1.472-1.562c0.637-0.422,1.334-0.633,2.092-0.633c1.119,0,1.979,0.361,2.583,1.085
		c0.603,0.723,0.904,1.679,0.904,2.867v7.748h-1.266v-7.567c0-0.913-0.207-1.632-0.62-2.157c-0.413-0.524-1.024-0.787-1.833-0.787
		c-0.689,0-1.309,0.224-1.86,0.671c-0.551,0.448-0.947,1.025-1.188,1.73v8.11h-1.292v-7.567c0-0.913-0.207-1.632-0.62-2.157
		c-0.414-0.524-1.025-0.787-1.834-0.787c-0.689,0-1.309,0.224-1.859,0.671c-0.551,0.448-0.947,1.025-1.188,1.73v8.11h-1.291V73.844
		h1.291v1.757c0.31-0.586,0.753-1.063,1.331-1.434c0.577-0.37,1.235-0.556,1.976-0.556
		C144.301,73.611,145.369,74.344,145.902,75.807z"/>
	<path d="M164.317,85.312h-1.24v-1.085c-0.275,0.327-0.706,0.62-1.292,0.878c-0.585,0.259-1.214,0.388-1.885,0.388
		c-1.206,0-2.213-0.322-3.022-0.969c-0.81-0.646-1.214-1.502-1.214-2.569c0-1.033,0.413-1.877,1.24-2.531s1.842-0.981,3.048-0.981
		c0.62,0,1.222,0.125,1.808,0.374c0.585,0.25,1.024,0.53,1.317,0.84v-2.04c0-0.861-0.254-1.554-0.762-2.08
		c-0.508-0.524-1.21-0.787-2.105-0.787c-1.43,0-2.359,0.654-2.79,1.963h-1.266c0.224-0.964,0.702-1.722,1.434-2.273
		c0.731-0.551,1.605-0.826,2.622-0.826c1.274,0,2.277,0.357,3.009,1.072c0.731,0.715,1.098,1.675,1.098,2.88V85.312z
		 M163.078,82.703V81.23c-0.189-0.499-0.573-0.908-1.149-1.227c-0.577-0.318-1.21-0.478-1.898-0.478
		c-0.878,0-1.623,0.211-2.234,0.633c-0.611,0.422-0.917,1.02-0.917,1.795c0,0.774,0.306,1.378,0.917,1.808
		c0.611,0.431,1.356,0.646,2.234,0.646c0.688,0,1.321-0.158,1.898-0.478C162.505,83.611,162.888,83.202,163.078,82.703z"/>
	<path d="M169.146,83.606v6.096h-1.291V73.844h1.291v1.705c0.346-0.534,0.84-0.99,1.486-1.369c0.645-0.379,1.338-0.568,2.078-0.568
		c1.602,0,2.838,0.573,3.707,1.718c0.869,1.146,1.305,2.562,1.305,4.249s-0.436,3.104-1.305,4.248
		c-0.869,1.146-2.105,1.718-3.707,1.718c-0.74,0-1.434-0.189-2.078-0.568C169.986,84.598,169.492,84.141,169.146,83.606z
		 M169.146,77.072v5.011c0.793,1.516,1.938,2.272,3.436,2.272c1.188,0,2.127-0.442,2.816-1.33c0.688-0.887,1.031-2.035,1.031-3.447
		s-0.344-2.562-1.031-3.448c-0.689-0.887-1.629-1.33-2.816-1.33C171.084,74.8,169.939,75.558,169.146,77.072z"/>
	<path d="M179.504,82.341h1.292c0.465,1.396,1.532,2.093,3.202,2.093c0.827,0,1.498-0.181,2.015-0.543
		c0.517-0.361,0.775-0.887,0.775-1.575c0-0.964-0.706-1.645-2.118-2.04l-2.144-0.595c-1.809-0.481-2.712-1.446-2.712-2.893
		c0-0.964,0.37-1.734,1.11-2.312c0.74-0.576,1.661-0.865,2.764-0.865c1.171,0,2.122,0.275,2.854,0.826
		c0.732,0.552,1.201,1.317,1.408,2.299h-1.266c-0.448-1.343-1.446-2.015-2.996-2.015c-0.758,0-1.387,0.177-1.886,0.53
		c-0.499,0.353-0.749,0.848-0.749,1.484c0,0.517,0.159,0.904,0.479,1.162c0.318,0.259,0.848,0.491,1.588,0.698l2.041,0.567
		c1.911,0.5,2.866,1.542,2.866,3.126c0,1.016-0.379,1.812-1.136,2.389c-0.759,0.577-1.73,0.865-2.919,0.865
		c-1.171,0-2.166-0.284-2.983-0.853S179.676,83.34,179.504,82.341z"/>
	<path d="M189.551,73.638l1.343-2.506c-0.533-0.086-0.801-0.396-0.801-0.93c0-0.275,0.091-0.508,0.271-0.697
		s0.409-0.284,0.685-0.284c0.293,0,0.529,0.095,0.71,0.284s0.271,0.439,0.271,0.749c0,0.327-0.121,0.706-0.361,1.137l-1.214,2.247
		H189.551z M192.728,73.638l1.343-2.506c-0.533-0.086-0.801-0.396-0.801-0.93c0-0.275,0.091-0.508,0.271-0.697
		s0.409-0.284,0.685-0.284c0.293,0,0.529,0.095,0.71,0.284s0.271,0.439,0.271,0.749c0,0.327-0.121,0.706-0.361,1.137l-1.214,2.247
		H192.728z"/>
</g>
<circle style="fill:#FFFA5A;" cx="62.485" cy="129.907" r="5.39"/>
<circle style="fill:#FFFA5A;" cx="272.401" cy="99.203" r="5.389"/>
<g>
	<g>
		<path style="fill:none;stroke:#8821EA;stroke-linecap:round;stroke-linejoin:round;" d="M73.173,124.517
			c28.013-17.691,141.408-27.378,188.5-25.362"/>
		<g>
			<polygon style="fill:#8821EA;" points="258.24,103.163 257.58,102.411 261.288,99.161 257.776,95.7 258.479,94.987 
				262.756,99.204 			"/>
		</g>
	</g>
</g>
<circle style="fill:#FFFA5A;" cx="111.303" cy="29.292" r="5.39"/>
<circle style="fill:#FFFA5A;" cx="303.47" cy="41.42" r="5.39"/>
<g>
	<g>
		<path style="fill:none;stroke:#8821EA;stroke-linecap:round;stroke-linejoin:round;" d="M120.255,23.939
			c28.022-17.699,153.273-34.145,175.971,8.604"/>
		<g>
			<polygon style="fill:#8821EA;" points="290.984,31.715 291.282,30.76 295.987,32.233 297.113,27.432 298.088,27.662 
				296.715,33.508 			"/>
		</g>
	</g>
</g>
<g>
</g>
<g>
</g>
<g>
</g>
<g>
</g>
<g>
</g>
<g>
</g>
<g>
</g>
</svg>
