<?xml version="1.0" encoding="utf-8"?>
<!-- Generator: Adobe Illustrator 16.0.0, SVG Export Plug-In . SVG Version: 6.00 Build 0)  -->
<!DOCTYPE svg PUBLIC "-//W3C//DTD SVG 1.1 Tiny//EN" "http://www.w3.org/Graphics/SVG/1.1/DTD/svg11-tiny.dtd">
<svg version="1.1" baseProfile="tiny" id="Layer_1" xmlns="http://www.w3.org/2000/svg" xmlns:xlink="http://www.w3.org/1999/xlink"
	 x="0px" y="0px" width="298.363px" height="137.168px" viewBox="0 0 298.363 137.168" xml:space="preserve">
<path fill="#C2F4FF" stroke="#41C8F7" stroke-miterlimit="10" d="M1.234,94.101c10.778-28.24,2.895-67.524,26.674-69.889
	C51.686,21.85,45.513,8.055,69.291,5.692c23.778-2.363,53.729,9.068,46.109,29.037C107.779,54.696,84,57.061,96.348,84.649
	s0.917,57.538-19.052,49.919c-19.968-7.621-44.1,6.046-57.541,0.914C9.166,131.442-2.576,104.084,1.234,94.101z"/>
<path fill="#FF6E6E" stroke="#F24444" stroke-linecap="round" stroke-linejoin="round" stroke-miterlimit="10" d="M251.005,134.075
	c-35.26,2.526-54.152-13.838-37.789-32.73c16.366-18.895-37.783-32.729-21.418-51.622c16.365-18.895,13.836-54.152,32.731-37.787
	c18.891,16.366,70.513-5.055,73.043,30.203C300.099,77.396,286.259,131.547,251.005,134.075z"/>
<g>
	<rect x="50.02" y="16.758" fill="none" width="36.933" height="36.934"/>
	<path fill="#65CDE5" d="M73.881,17.57l-4.739,6.815l4.92,7.042h-1.309l-4.288-6.116l-4.266,6.116h-1.264l4.898-7.02L63.07,17.57
		h1.309l4.107,5.913l4.13-5.913H73.881z"/>
</g>
<g>
	<rect x="202.709" y="24.795" fill="none" width="36.932" height="36.934"/>
	<path fill="#E03434" d="M221.209,32.491l4.356-6.884h1.24l-5.055,7.944v5.913H220.6v-5.913l-5.033-7.944h1.265L221.209,32.491z"/>
</g>
<circle fill="#EDD420" cx="58.555" cy="72.284" r="5.008"/>
<circle fill="#EDD420" cx="236.995" cy="72.284" r="5.008"/>
<g>
	<path fill="none" stroke="#8821EA" stroke-linecap="round" stroke-linejoin="round" d="M68.486,67.275
		C94.511,50.839,183.212,47.334,223.87,67.87"/>
	<g>
		<polygon fill="#8821EA" points="219.085,70.116 218.793,69.159 223.511,67.723 221.734,63.123 222.667,62.764 224.831,68.366 		
			"/>
	</g>
</g>
<g>
	<rect x="107.917" y="61.949" fill="none" width="77.483" height="28.508"/>
	<path d="M124.556,62.634l-0.988,1.843c0.393,0.064,0.589,0.292,0.589,0.685c0,0.203-0.066,0.374-0.199,0.514
		c-0.133,0.139-0.301,0.209-0.504,0.209c-0.215,0-0.39-0.07-0.522-0.209c-0.133-0.14-0.2-0.323-0.2-0.552
		c0-0.253,0.088-0.532,0.266-0.836l0.893-1.653H124.556z M126.893,62.634l-0.988,1.843c0.393,0.064,0.589,0.292,0.589,0.685
		c0,0.203-0.066,0.374-0.2,0.514c-0.133,0.139-0.301,0.209-0.503,0.209c-0.216,0-0.39-0.07-0.523-0.209
		c-0.133-0.14-0.199-0.323-0.199-0.552c0-0.253,0.088-0.532,0.266-0.836l0.893-1.653H126.893z"/>
	<path d="M134.305,67.309c0.253-0.456,0.615-0.839,1.083-1.149s0.981-0.466,1.54-0.466c0.823,0,1.457,0.266,1.9,0.798
		c0.443,0.532,0.665,1.235,0.665,2.11v5.701h-0.931v-5.568c0-0.672-0.152-1.2-0.456-1.587s-0.754-0.58-1.35-0.58
		c-0.507,0-0.963,0.165-1.368,0.494c-0.406,0.33-0.697,0.754-0.875,1.273v5.968h-0.95v-5.568c0-0.672-0.152-1.2-0.456-1.587
		s-0.754-0.58-1.349-0.58c-0.507,0-0.963,0.165-1.369,0.494c-0.406,0.33-0.697,0.754-0.874,1.273v5.968h-0.95v-8.438h0.95v1.293
		c0.228-0.431,0.554-0.782,0.979-1.056c0.424-0.271,0.909-0.408,1.454-0.408C133.127,65.693,133.913,66.232,134.305,67.309z"/>
	<path d="M147.856,74.303h-0.912v-0.798c-0.203,0.24-0.52,0.456-0.95,0.646c-0.431,0.19-0.894,0.285-1.388,0.285
		c-0.887,0-1.628-0.237-2.224-0.713c-0.596-0.475-0.893-1.104-0.893-1.891c0-0.76,0.304-1.381,0.912-1.862
		c0.608-0.481,1.356-0.723,2.243-0.723c0.456,0,0.899,0.093,1.331,0.275c0.431,0.185,0.753,0.39,0.969,0.618v-1.502
		c0-0.633-0.187-1.143-0.561-1.529c-0.374-0.387-0.891-0.58-1.549-0.58c-1.052,0-1.736,0.482-2.052,1.444h-0.931
		c0.165-0.709,0.516-1.267,1.055-1.672c0.538-0.405,1.181-0.608,1.929-0.608c0.938,0,1.676,0.263,2.214,0.789
		c0.539,0.525,0.808,1.232,0.808,2.119V74.303z M146.944,72.383V71.3c-0.14-0.367-0.421-0.668-0.846-0.902
		c-0.425-0.234-0.89-0.352-1.397-0.352c-0.646,0-1.194,0.155-1.644,0.465c-0.45,0.312-0.675,0.751-0.675,1.321
		s0.225,1.014,0.675,1.33c0.45,0.317,0.998,0.476,1.644,0.476c0.507,0,0.972-0.117,1.397-0.352
		C146.522,73.052,146.804,72.751,146.944,72.383z"/>
	<path d="M151.41,73.049v4.484h-0.95V65.864h0.95v1.255c0.253-0.393,0.618-0.729,1.093-1.008c0.476-0.278,0.985-0.418,1.53-0.418
		c1.178,0,2.087,0.421,2.727,1.264s0.96,1.885,0.96,3.127c0,1.241-0.32,2.283-0.96,3.126s-1.549,1.264-2.727,1.264
		c-0.545,0-1.055-0.14-1.53-0.418C152.028,73.777,151.663,73.441,151.41,73.049z M151.41,68.24v3.687
		c0.583,1.115,1.426,1.673,2.527,1.673c0.875,0,1.565-0.326,2.072-0.979s0.76-1.498,0.76-2.537s-0.253-1.885-0.76-2.538
		c-0.507-0.652-1.197-0.979-2.072-0.979C152.835,66.567,151.993,67.125,151.41,68.24z"/>
	<path d="M159.031,72.117h0.95c0.342,1.026,1.128,1.539,2.356,1.539c0.608,0,1.103-0.133,1.482-0.398
		c0.381-0.267,0.57-0.652,0.57-1.16c0-0.709-0.52-1.209-1.559-1.501l-1.577-0.438c-1.33-0.354-1.995-1.063-1.995-2.128
		c0-0.71,0.271-1.276,0.816-1.701s1.223-0.637,2.034-0.637c0.861,0,1.562,0.203,2.1,0.608c0.539,0.405,0.884,0.969,1.036,1.691
		h-0.932c-0.329-0.988-1.063-1.482-2.204-1.482c-0.558,0-1.021,0.13-1.388,0.39s-0.551,0.624-0.551,1.093
		c0,0.38,0.117,0.665,0.352,0.855c0.234,0.189,0.624,0.36,1.169,0.513l1.501,0.418c1.406,0.368,2.109,1.134,2.109,2.3
		c0,0.748-0.278,1.334-0.836,1.758c-0.558,0.425-1.273,0.637-2.147,0.637c-0.862,0-1.594-0.209-2.195-0.627
		S159.158,72.853,159.031,72.117z"/>
	<path d="M166.423,65.712l0.988-1.843c-0.393-0.063-0.589-0.292-0.589-0.685c0-0.202,0.066-0.373,0.2-0.513
		c0.133-0.14,0.301-0.209,0.503-0.209c0.216,0,0.39,0.069,0.522,0.209c0.134,0.14,0.2,0.322,0.2,0.551
		c0,0.241-0.089,0.52-0.267,0.836l-0.893,1.653H166.423z M168.761,65.712l0.988-1.843c-0.393-0.063-0.589-0.292-0.589-0.685
		c0-0.202,0.066-0.373,0.199-0.513s0.301-0.209,0.504-0.209c0.215,0,0.39,0.069,0.522,0.209s0.2,0.322,0.2,0.551
		c0,0.241-0.089,0.52-0.267,0.836l-0.894,1.653H168.761z"/>
</g>
<circle fill="#EDD420" cx="53.546" cy="118.988" r="5.009"/>
<circle fill="#EDD420" cx="248.605" cy="90.457" r="5.008"/>
<g>
	<path fill="none" stroke="#8821EA" stroke-linecap="round" stroke-linejoin="round" d="M63.478,113.979
		C89.493,97.549,194.755,88.55,238.56,90.408"/>
	<g>
		<polygon fill="#8821EA" points="235.126,94.417 234.466,93.665 238.173,90.415 234.662,86.954 235.365,86.241 239.642,90.458 		
			"/>
	</g>
</g>
<circle fill="#EDD420" cx="102.908" cy="21.494" r="5.008"/>
<circle fill="#EDD420" cx="277.476" cy="36.764" r="5.008"/>
<g>
	<path fill="none" stroke="#8821EA" stroke-linecap="round" stroke-linejoin="round" d="M107.227,14.735
		C133.25-1.702,249.522-11.282,270.708,28.447"/>
	<g>
		<polygon fill="#8821EA" points="265.464,27.627 265.761,26.671 270.468,28.138 271.587,23.335 272.562,23.562 271.199,29.412 		
			"/>
	</g>
</g>
<g>
</g>
<g>
</g>
<g>
</g>
<g>
</g>
<g>
</g>
<g>
</g>
<g>
</g>
</svg>
