<svg xmlns="http://www.w3.org/2000/svg" xmlns:xlink="http://www.w3.org/1999/xlink" height="514pt" version="1.1" viewBox="0 0 748 514" width="748pt">
 <defs>
  <clipPath id="pd831f6c710">
   <rect height="398.97" width="580.32" x="93.6" y="51.48"/>
  </clipPath>
 </defs>
<defs>
  <style type="text/css">
*{stroke-linecap:butt;stroke-linejoin:round;}
  </style>
 </defs>
 <g id="figure_1">
  <g id="patch_1">
   <path d=" M0 514.8 L748.8 514.8 L748.8 0 L0 0 z " style="fill:#ffffff;"/>
  </g>
  <g id="axes_1">
   <g id="patch_2">
    <path d=" M93.6 450.45 L673.92 450.45 L673.92 51.48 L93.6 51.48 z " style="fill:#eaeaf2;"/>
   </g>
   <g id="matplotlib.axis_1">
    <g id="xtick_1">
     <g id="line2d_1">
      <path clip-path="url(#pd831f6c710)" d=" M93.6 450.45 L93.6 51.48" style="fill:none;stroke:#ffffff;stroke-linecap:round;stroke-width:1.3;"/>
     </g>
     <g id="line2d_2">
      <defs>
       <path d=" M0 0 L0 0" id="m56cc5124a0" style="stroke:#262626;stroke-width:1.3;"/>
      </defs>
      <g>
       <use style="fill:#262626;stroke:#262626;stroke-width:1.3;" x="93.6" xlink:href="#m56cc5124a0" y="450.45"/>
      </g>
     </g>
     <g id="line2d_3">
      <g>
       <use style="fill:#262626;stroke:#262626;stroke-width:1.3;" x="93.6" xlink:href="#m56cc5124a0" y="51.48"/>
      </g>
     </g>
     <g id="text_1">
      <!-- &#8722;6 -->
      <defs>
       <path d=" M12.7031 19.5938 Q12.7031 13.5938 16.3906 9.6875 Q20.0938 5.79688 26 5.79688 Q31.7969 5.79688 35.5 9.64062 Q39.2031 13.5 39.2031 19.5938 Q39.2031 25.7031 35.5 29.6406 Q31.7969 33.5938 26 33.5938 Q20.0938 33.5938 16.3906 29.6875 Q12.7031 25.7969 12.7031 19.5938 M45.5938 47.0938 L37.7969 47.0938 Q35 55.7969 26.5 55.7969 Q19.7969 55.7969 15.3906 49.0469 Q11 42.2969 11 32.2969 Q11 32 11.0469 30.9531 Q11.0938 29.9062 11.0938 29.5938 Q12.5938 34.2969 16.8906 37.1875 Q21.2031 40.0938 26.5938 40.0938 Q35.2969 40.0938 40.8906 34.1406 Q46.5 28.2031 46.5 19.7031 Q46.5 11 40.7969 5.04688 Q35.0938 -0.90625 25.9062 -0.90625 Q13.4062 -0.90625 7.59375 10.7969 Q4 18.4062 4 29.5938 Q4 44.4062 10.25 53.3438 Q16.5 62.2969 26.5 62.2969 Q41.7031 62.2969 45.5938 47.0938" id="CalibreRegular-36"/>
       <path d=" M7.29688 26.5938 L7.29688 32.7969 L46.7031 32.7969 L46.7031 26.5938 z " id="CalibreRegular-2212"/>
      </defs>
      <g style="fill:#262626;" transform="translate(86.9359765625 468.845)scale(0.14300000000000002 -0.14300000000000002)">
       <use xlink:href="#CalibreRegular-2212"/>
       <use x="53.99998474121094" xlink:href="#CalibreRegular-36"/>
      </g>
     </g>
    </g>
    <g id="xtick_2">
     <g id="line2d_4">
      <path clip-path="url(#pd831f6c710)" d=" M190.32 450.45 L190.32 51.48" style="fill:none;stroke:#ffffff;stroke-linecap:round;stroke-width:1.3;"/>
     </g>
     <g id="line2d_5">
      <g>
       <use style="fill:#262626;stroke:#262626;stroke-width:1.3;" x="190.32" xlink:href="#m56cc5124a0" y="450.45"/>
      </g>
     </g>
     <g id="line2d_6">
      <g>
       <use style="fill:#262626;stroke:#262626;stroke-width:1.3;" x="190.32" xlink:href="#m56cc5124a0" y="51.48"/>
      </g>
     </g>
     <g id="text_2">
      <!-- &#8722;4 -->
      <defs>
       <path d=" M33.7969 61.4062 L10.9062 20.5 L30.5 20.5 L30.5 35.2969 L37.7969 35.2969 L37.7969 20.5 L48.5938 20.5 L48.5938 13.9062 L37.7969 13.9062 L37.7969 0 L30.5 0 L30.5 13.9062 L2.20312 13.9062 L2.20312 19.5 L25.7969 61.4062 z " id="CalibreRegular-34"/>
      </defs>
      <g style="fill:#262626;" transform="translate(183.506273438 468.845)scale(0.14300000000000002 -0.14300000000000002)">
       <use xlink:href="#CalibreRegular-2212"/>
       <use x="53.99998474121094" xlink:href="#CalibreRegular-34"/>
      </g>
     </g>
    </g>
    <g id="xtick_3">
     <g id="line2d_7">
      <path clip-path="url(#pd831f6c710)" d=" M287.04 450.45 L287.04 51.48" style="fill:none;stroke:#ffffff;stroke-linecap:round;stroke-width:1.3;"/>
     </g>
     <g id="line2d_8">
      <g>
       <use style="fill:#262626;stroke:#262626;stroke-width:1.3;" x="287.04" xlink:href="#m56cc5124a0" y="450.45"/>
      </g>
     </g>
     <g id="line2d_9">
      <g>
       <use style="fill:#262626;stroke:#262626;stroke-width:1.3;" x="287.04" xlink:href="#m56cc5124a0" y="51.48"/>
      </g>
     </g>
     <g id="text_3">
      <!-- &#8722;2 -->
      <defs>
       <path d=" M34.0938 44.9062 Q34.0938 49.5938 31.0938 52.4375 Q28.0938 55.2969 23 55.2969 Q17.5938 55.2969 14.5469 51.9375 Q11.5 48.5938 11 43 L2.90625 43 Q3.79688 51.7031 9.1875 57 Q14.5938 62.2969 23 62.2969 Q31.7031 62.2969 36.7031 57.5938 Q41.7031 52.9062 41.7031 45 Q41.7031 43.5938 41.3438 42.0938 Q41 40.5938 40.6406 39.5 Q40.2969 38.4062 39.3438 36.75 Q38.4062 35.0938 37.9062 34.2969 Q37.4062 33.5 35.9062 31.7031 Q34.4062 29.9062 33.9062 29.2969 Q33.4062 28.7031 31.5469 26.6406 Q29.7031 24.5938 29.2969 24.0938 L13.7031 7 L43 7 L43 0 L2.90625 0 L2.90625 5.20312 L22.7031 27 Q27.2031 32 28.7969 33.7969 Q30.4062 35.5938 32.25 38.8906 Q34.0938 42.2031 34.0938 44.9062" id="CalibreRegular-32"/>
      </defs>
      <g style="fill:#262626;" transform="translate(280.626226563 468.845)scale(0.14300000000000002 -0.14300000000000002)">
       <use xlink:href="#CalibreRegular-2212"/>
       <use x="53.99998474121094" xlink:href="#CalibreRegular-32"/>
      </g>
     </g>
    </g>
    <g id="xtick_4">
     <g id="line2d_10">
      <path clip-path="url(#pd831f6c710)" d=" M383.76 450.45 L383.76 51.48" style="fill:none;stroke:#ffffff;stroke-linecap:round;stroke-width:1.3;"/>
     </g>
     <g id="line2d_11">
      <g>
       <use style="fill:#262626;stroke:#262626;stroke-width:1.3;" x="383.76" xlink:href="#m56cc5124a0" y="450.45"/>
      </g>
     </g>
     <g id="line2d_12">
      <g>
       <use style="fill:#262626;stroke:#262626;stroke-width:1.3;" x="383.76" xlink:href="#m56cc5124a0" y="51.48"/>
      </g>
     </g>
     <g id="text_4">
      <!-- 0 -->
      <defs>
       <path d=" M49.7969 16.5938 Q37.0938 -0.90625 26.8906 -0.90625 Q16.7031 -0.90625 10.3438 7.84375 Q4 16.5938 4 30.6875 Q4 44.7969 10.3438 53.5469 Q16.7031 62.2969 26.8906 62.2969 Q37.0938 62.2969 43.4375 53.5469 Q49.7969 44.7969 49.7969 30.6875 Q49.7969 16.5938 37.0938 -0.90625 M26.9062 55.2031 Q19.5938 55.2031 15.6406 48.5 Q11.7031 41.7969 11.7031 30.6875 Q11.7031 19.5938 15.6406 12.8906 Q19.5938 6.20312 26.9062 6.20312 Q34.0938 6.20312 38.0938 12.9531 Q42.0938 19.7031 42.0938 30.7031 Q42.0938 41.7031 38.0938 48.4531 Q34.0938 55.2031 26.9062 55.2031" id="CalibreRegular-30"/>
      </defs>
      <g style="fill:#262626;" transform="translate(380.485523438 468.845)scale(0.14300000000000002 -0.14300000000000002)">
       <use xlink:href="#CalibreRegular-30"/>
      </g>
     </g>
    </g>
    <g id="xtick_5">
     <g id="line2d_13">
      <path clip-path="url(#pd831f6c710)" d=" M480.48 450.45 L480.48 51.48" style="fill:none;stroke:#ffffff;stroke-linecap:round;stroke-width:1.3;"/>
     </g>
     <g id="line2d_14">
      <g>
       <use style="fill:#262626;stroke:#262626;stroke-width:1.3;" x="480.48" xlink:href="#m56cc5124a0" y="450.45"/>
      </g>
     </g>
     <g id="line2d_15">
      <g>
       <use style="fill:#262626;stroke:#262626;stroke-width:1.3;" x="480.48" xlink:href="#m56cc5124a0" y="51.48"/>
      </g>
     </g>
     <g id="text_5">
      <!-- 2 -->
      <g style="fill:#262626;" transform="translate(477.613296875 468.845)scale(0.14300000000000002 -0.14300000000000002)">
       <use xlink:href="#CalibreRegular-32"/>
      </g>
     </g>
    </g>
    <g id="xtick_6">
     <g id="line2d_16">
      <path clip-path="url(#pd831f6c710)" d=" M577.2 450.45 L577.2 51.48" style="fill:none;stroke:#ffffff;stroke-linecap:round;stroke-width:1.3;"/>
     </g>
     <g id="line2d_17">
      <g>
       <use style="fill:#262626;stroke:#262626;stroke-width:1.3;" x="577.2" xlink:href="#m56cc5124a0" y="450.45"/>
      </g>
     </g>
     <g id="line2d_18">
      <g>
       <use style="fill:#262626;stroke:#262626;stroke-width:1.3;" x="577.2" xlink:href="#m56cc5124a0" y="51.48"/>
      </g>
     </g>
     <g id="text_6">
      <!-- 4 -->
      <g style="fill:#262626;" transform="translate(573.883070313 468.845)scale(0.14300000000000002 -0.14300000000000002)">
       <use xlink:href="#CalibreRegular-34"/>
      </g>
     </g>
    </g>
    <g id="xtick_7">
     <g id="line2d_19">
      <path clip-path="url(#pd831f6c710)" d=" M673.92 450.45 L673.92 51.48" style="fill:none;stroke:#ffffff;stroke-linecap:round;stroke-width:1.3;"/>
     </g>
     <g id="line2d_20">
      <g>
       <use style="fill:#262626;stroke:#262626;stroke-width:1.3;" x="673.92" xlink:href="#m56cc5124a0" y="450.45"/>
      </g>
     </g>
     <g id="line2d_21">
      <g>
       <use style="fill:#262626;stroke:#262626;stroke-width:1.3;" x="673.92" xlink:href="#m56cc5124a0" y="51.48"/>
      </g>
     </g>
     <g id="text_7">
      <!-- 6 -->
      <g style="fill:#262626;" transform="translate(670.88125 468.845)scale(0.14300000000000002 -0.14300000000000002)">
       <use xlink:href="#CalibreRegular-36"/>
      </g>
     </g>
    </g>
   </g>
   <g id="matplotlib.axis_2">
    <g id="ytick_1">
     <g id="line2d_22">
      <path clip-path="url(#pd831f6c710)" d=" M93.6 443.91 L673.92 443.91" style="fill:none;stroke:#ffffff;stroke-linecap:round;stroke-width:1.3;"/>
     </g>
     <g id="line2d_23">
      <g>
       <use style="fill:#262626;stroke:#262626;stroke-width:1.3;" x="93.6" xlink:href="#m56cc5124a0" y="443.909508197"/>
      </g>
     </g>
     <g id="line2d_24">
      <g>
       <use style="fill:#262626;stroke:#262626;stroke-width:1.3;" x="673.92" xlink:href="#m56cc5124a0" y="443.909508197"/>
      </g>
     </g>
     <g id="text_8">
      <!-- 0.0 -->
      <defs>
       <path d=" M6.29688 -0.5 Q3.20312 2.59375 3.20312 4.89062 Q3.20312 7.20312 4.75 8.79688 Q6.29688 10.4062 8.59375 10.4062 Q10.7969 10.4062 12.3438 8.79688 Q13.9062 7.20312 13.9062 4.89062 Q13.9062 2.59375 12.3438 1.04688 Q10.7969 -0.5 8.59375 -0.5 Q6.29688 -0.5 3.20312 2.59375" id="CalibreRegular-2e"/>
      </defs>
      <g style="fill:#262626;" transform="translate(67.8136875 447.341508197)scale(0.14300000000000002 -0.14300000000000002)">
       <use xlink:href="#CalibreRegular-30"/>
       <use x="53.79998779296875" xlink:href="#CalibreRegular-2e"/>
       <use x="70.89997863769531" xlink:href="#CalibreRegular-30"/>
      </g>
     </g>
    </g>
    <g id="ytick_2">
     <g id="line2d_25">
      <path clip-path="url(#pd831f6c710)" d=" M93.6 378.505 L673.92 378.505" style="fill:none;stroke:#ffffff;stroke-linecap:round;stroke-width:1.3;"/>
     </g>
     <g id="line2d_26">
      <g>
       <use style="fill:#262626;stroke:#262626;stroke-width:1.3;" x="93.6" xlink:href="#m56cc5124a0" y="378.504590164"/>
      </g>
     </g>
     <g id="line2d_27">
      <g>
       <use style="fill:#262626;stroke:#262626;stroke-width:1.3;" x="673.92" xlink:href="#m56cc5124a0" y="378.504590164"/>
      </g>
     </g>
     <g id="text_9">
      <!-- 0.1 -->
      <defs>
       <path d=" M25.4062 61.5 L25.4062 0 L17.7031 0 L17.7031 52 L2.5 44.2031 L2.5 52.2031 L20.7031 61.5 z " id="CalibreRegular-31"/>
      </defs>
      <g style="fill:#262626;" transform="translate(71.301546875 381.936590164)scale(0.14300000000000002 -0.14300000000000002)">
       <use xlink:href="#CalibreRegular-30"/>
       <use x="53.79998779296875" xlink:href="#CalibreRegular-2e"/>
       <use x="70.89997863769531" xlink:href="#CalibreRegular-31"/>
      </g>
     </g>
    </g>
    <g id="ytick_3">
     <g id="line2d_28">
      <path clip-path="url(#pd831f6c710)" d=" M93.6 313.1 L673.92 313.1" style="fill:none;stroke:#ffffff;stroke-linecap:round;stroke-width:1.3;"/>
     </g>
     <g id="line2d_29">
      <g>
       <use style="fill:#262626;stroke:#262626;stroke-width:1.3;" x="93.6" xlink:href="#m56cc5124a0" y="313.099672131"/>
      </g>
     </g>
     <g id="line2d_30">
      <g>
       <use style="fill:#262626;stroke:#262626;stroke-width:1.3;" x="673.92" xlink:href="#m56cc5124a0" y="313.099672131"/>
      </g>
     </g>
     <g id="text_10">
      <!-- 0.2 -->
      <g style="fill:#262626;" transform="translate(68.785640625 316.531672131)scale(0.14300000000000002 -0.14300000000000002)">
       <use xlink:href="#CalibreRegular-30"/>
       <use x="53.79998779296875" xlink:href="#CalibreRegular-2e"/>
       <use x="70.89997863769531" xlink:href="#CalibreRegular-32"/>
      </g>
     </g>
    </g>
    <g id="ytick_4">
     <g id="line2d_31">
      <path clip-path="url(#pd831f6c710)" d=" M93.6 247.695 L673.92 247.695" style="fill:none;stroke:#ffffff;stroke-linecap:round;stroke-width:1.3;"/>
     </g>
     <g id="line2d_32">
      <g>
       <use style="fill:#262626;stroke:#262626;stroke-width:1.3;" x="93.6" xlink:href="#m56cc5124a0" y="247.694754098"/>
      </g>
     </g>
     <g id="line2d_33">
      <g>
       <use style="fill:#262626;stroke:#262626;stroke-width:1.3;" x="673.92" xlink:href="#m56cc5124a0" y="247.694754098"/>
      </g>
     </g>
     <g id="text_11">
      <!-- 0.3 -->
      <defs>
       <path d=" M18.4062 28.0938 L18.4062 34.7969 L22.5 34.7969 Q27.5 34.7969 30.75 37.5469 Q34 40.2969 34 45.0938 Q34 49.5938 30.9531 52.5469 Q27.9062 55.5 22.7969 55.5 Q17.7031 55.5 14.5 52.5 Q11.2969 49.5 10.5938 44.5938 L2.90625 44.5938 Q4 52.5 9.39062 57.3906 Q14.7969 62.2969 22.7969 62.2969 Q31.4062 62.2969 36.4531 57.6406 Q41.5 53 41.5 45.5 Q41.5 40.5 38.8438 36.6406 Q36.2031 32.7969 31.9062 31.5 Q36.9062 30.0938 39.7969 26.25 Q42.7031 22.4062 42.7031 17.2031 Q42.7031 9.40625 37.3438 4.25 Q32 -0.90625 23 -0.90625 Q14 -0.90625 8.25 4.09375 Q2.5 9.09375 1.70312 17.5 L9.40625 17.5 Q10.2031 12.0938 13.7031 9 Q17.2031 5.90625 22.9062 5.90625 Q28.4062 5.90625 31.7969 8.95312 Q35.2031 12 35.2031 17.0938 Q35.2031 22.0938 31.6406 25.0938 Q28.0938 28.0938 22.7031 28.0938 z " id="CalibreRegular-33"/>
      </defs>
      <g style="fill:#262626;" transform="translate(68.82809375 251.126754098)scale(0.14300000000000002 -0.14300000000000002)">
       <use xlink:href="#CalibreRegular-30"/>
       <use x="53.79998779296875" xlink:href="#CalibreRegular-2e"/>
       <use x="70.89997863769531" xlink:href="#CalibreRegular-33"/>
      </g>
     </g>
    </g>
    <g id="ytick_5">
     <g id="line2d_34">
      <path clip-path="url(#pd831f6c710)" d=" M93.6 182.29 L673.92 182.29" style="fill:none;stroke:#ffffff;stroke-linecap:round;stroke-width:1.3;"/>
     </g>
     <g id="line2d_35">
      <g>
       <use style="fill:#262626;stroke:#262626;stroke-width:1.3;" x="93.6" xlink:href="#m56cc5124a0" y="182.289836066"/>
      </g>
     </g>
     <g id="line2d_36">
      <g>
       <use style="fill:#262626;stroke:#262626;stroke-width:1.3;" x="673.92" xlink:href="#m56cc5124a0" y="182.289836066"/>
      </g>
     </g>
     <g id="text_12">
      <!-- 0.4 -->
      <g style="fill:#262626;" transform="translate(67.985734375 185.721836066)scale(0.14300000000000002 -0.14300000000000002)">
       <use xlink:href="#CalibreRegular-30"/>
       <use x="53.79998779296875" xlink:href="#CalibreRegular-2e"/>
       <use x="70.89997863769531" xlink:href="#CalibreRegular-34"/>
      </g>
     </g>
    </g>
    <g id="ytick_6">
     <g id="line2d_37">
      <path clip-path="url(#pd831f6c710)" d=" M93.6 116.885 L673.92 116.885" style="fill:none;stroke:#ffffff;stroke-linecap:round;stroke-width:1.3;"/>
     </g>
     <g id="line2d_38">
      <g>
       <use style="fill:#262626;stroke:#262626;stroke-width:1.3;" x="93.6" xlink:href="#m56cc5124a0" y="116.884918033"/>
      </g>
     </g>
     <g id="line2d_39">
      <g>
       <use style="fill:#262626;stroke:#262626;stroke-width:1.3;" x="673.92" xlink:href="#m56cc5124a0" y="116.884918033"/>
      </g>
     </g>
     <g id="text_13">
      <!-- 0.5 -->
      <defs>
       <path d=" M23.7031 33 Q17.2031 33 12.7969 27.7031 L6.59375 27.7031 L6.59375 61.4062 L40.2031 61.4062 L40.2031 54.4062 L13.2031 54.4062 L13.2031 35.9062 Q17.5 39.7969 24.4062 39.7969 Q32.9062 39.7969 38.2969 34.0469 Q43.7031 28.2969 43.7031 19.4062 Q43.7031 10.7031 38.0938 4.89062 Q32.5 -0.90625 23.7969 -0.90625 Q15 -0.90625 9.39062 4 Q3.79688 8.90625 2.70312 17.5 L10.4062 17.5 Q12.5 5.90625 23.7969 5.90625 Q29.2969 5.90625 32.7969 9.75 Q36.2969 13.5938 36.2969 19.3906 Q36.2969 25.2031 32.7969 29.0938 Q29.2969 33 23.7031 33" id="CalibreRegular-35"/>
      </defs>
      <g style="fill:#262626;" transform="translate(68.68509375 120.316918033)scale(0.14300000000000002 -0.14300000000000002)">
       <use xlink:href="#CalibreRegular-30"/>
       <use x="53.79998779296875" xlink:href="#CalibreRegular-2e"/>
       <use x="70.89997863769531" xlink:href="#CalibreRegular-35"/>
      </g>
     </g>
    </g>
    <g id="ytick_7">
     <g id="text_14">
      <!-- 0.6 -->
      <g style="fill:#262626;" transform="translate(68.285140625 54.912)scale(0.14300000000000002 -0.14300000000000002)">
       <use xlink:href="#CalibreRegular-30"/>
       <use x="53.79998779296875" xlink:href="#CalibreRegular-2e"/>
       <use x="70.89997863769531" xlink:href="#CalibreRegular-36"/>
      </g>
     </g>
    </g>
   </g>
   <g id="line2d_40">
    <path clip-path="url(#pd831f6c710)" d=" M93.6 443.91 L673.92 443.91" style="fill:none;stroke:#dcdce6;stroke-linecap:round;stroke-width:2;"/>
   </g>
   <g id="line2d_41">
    <path clip-path="url(#pd831f6c710)" d=" M383.76 450.45 L383.76 51.48" style="fill:none;stroke:#dcdce6;stroke-linecap:round;stroke-width:2;"/>
   </g>
   <g id="line2d_42">
    <path clip-path="url(#pd831f6c710)" d=" M93.6 443.91 L673.92 443.91" style="fill:none;stroke:#dcdce6;stroke-linecap:round;stroke-width:2;"/>
   </g>
   <g id="line2d_43">
    <path clip-path="url(#pd831f6c710)" d=" M383.76 450.45 L383.76 51.48" style="fill:none;stroke:#dcdce6;stroke-linecap:round;stroke-width:2;"/>
   </g>
   <g id="line2d_44">
    <path clip-path="url(#pd831f6c710)" d=" M93.6 443.91 L673.92 443.91" style="fill:none;stroke:#dcdce6;stroke-linecap:round;stroke-width:2;"/>
   </g>
   <g id="line2d_45">
    <path clip-path="url(#pd831f6c710)" d=" M383.76 450.45 L383.76 51.48" style="fill:none;stroke:#dcdce6;stroke-linecap:round;stroke-width:2;"/>
   </g>
   <g id="patch_3">
    <path d=" M93.6 450.45 L93.6 51.48" style="fill:none;"/>
   </g>
   <g id="patch_4">
    <path d=" M93.6 450.45 L673.92 450.45" style="fill:none;"/>
   </g>
   <g id="patch_5">
    <path d=" M673.92 450.45 L673.92 51.48" style="fill:none;"/>
   </g>
   <g id="patch_6">
    <path d=" M93.6 51.48 L673.92 51.48" style="fill:none;"/>
   </g>
   <g id="text_15">
    <!-- Normal (Gaussian) Distribution PDF -->
    <defs>
     <path id="CalibreRegular-20"/>
     <path d=" M15.2031 0 L7.29688 0 L7.29688 61.4062 L44.7969 61.4062 L44.7969 54.4062 L15.2031 54.4062 L15.2031 33.7031 L43 33.7031 L43 26.7031 L15.2031 26.7031 z " id="CalibreRegular-46"/>
     <path d=" M14.2031 65 L14.2031 0 L6.70312 0 L6.70312 65 z " id="CalibreRegular-6c"/>
     <path d=" M55 61.4062 L55 0 L49.2031 0 L14.9062 48.7969 L14.9062 0 L7.29688 0 L7.29688 61.4062 L14.7969 61.4062 L47.5 14.7031 L47.5 61.4062 z " id="CalibreRegular-4e"/>
     <path d=" M38.2031 38.2031 Q43.2031 45.2969 51.7031 45.2969 Q58.4062 45.2969 62.0469 41 Q65.7031 36.7031 65.7031 29.4062 L65.7031 0 L58.0938 0 L58.0938 28.2031 Q58.0938 33 56 35.75 Q53.9062 38.5 49.7031 38.5 Q46.2969 38.5 43.5938 36.3438 Q40.9062 34.2031 39.9062 30.5938 L39.9062 0 L32.4062 0 L32.4062 28.2031 Q32.4062 33 30.2969 35.75 Q28.2031 38.5 24 38.5 Q20.5938 38.5 17.8906 36.3438 Q15.2031 34.2031 14.2031 30.5938 L14.2031 0 L6.70312 0 L6.70312 44.4062 L14.2031 44.4062 L14.2031 39.2031 Q18 45.2969 26.2031 45.2969 Q34.5938 45.2969 38.2031 38.2031" id="CalibreRegular-6d"/>
     <path d=" M38.9062 0 L31.7031 0 L31.7031 3.29688 Q30.2969 1.79688 27 0.5 Q23.7031 -0.796875 20 -0.796875 Q13 -0.796875 8.25 3.09375 Q3.5 7 3.5 13.4062 Q3.5 19.5 8.39062 23.3906 Q13.2969 27.2969 20.5 27.2969 Q23.7969 27.2969 27 26.1875 Q30.2031 25.0938 31.7031 23.7031 L31.7031 29.2969 Q31.7031 33.5938 29.1406 36.1875 Q26.5938 38.7969 21.9062 38.7969 Q14.9062 38.7969 12.7969 32.7031 L5.40625 32.7031 Q6.5 38.2969 11.0469 41.7969 Q15.5938 45.2969 22 45.2969 Q29.9062 45.2969 34.4062 41.0938 Q38.9062 36.9062 38.9062 29.5938 z  M31.7031 11 L31.7031 15.5938 Q30.7031 18 27.75 19.5469 Q24.7969 21.0938 21.2969 21.0938 Q16.9062 21.0938 13.7969 19.0938 Q10.7031 17.0938 10.7031 13.4062 Q10.7031 9.59375 13.7969 7.54688 Q16.9062 5.5 21.2969 5.5 Q24.7969 5.5 27.75 7.04688 Q30.7031 8.59375 31.7031 11" id="CalibreRegular-61"/>
     <path d=" M14.5938 61.7969 Q29.0938 42 29.0938 28.2969 Q29.0938 14.5938 21.8438 4.6875 Q14.5938 -5.20312 2.29688 -8.40625 L2.29688 -0.40625 Q10.7031 1.70312 16.1406 9.39062 Q21.5938 17.0938 21.5938 28.2969 Q21.5938 39.5 16.1406 47.2031 Q10.7031 54.9062 2.29688 57 L2.29688 65 Q14.5938 61.7969 29.0938 42" id="CalibreRegular-29"/>
     <path d=" M29.5 44.5938 L29.5 36.9062 Q27.7031 38.0938 24.5 38.0938 Q20.9062 38.0938 18.0938 35.8906 Q15.2969 33.7031 14.2031 29.7969 L14.2031 0 L6.70312 0 L6.70312 44.4062 L14.2031 44.4062 L14.2031 38.5938 Q15.7031 41.5 18.6406 43.3906 Q21.5938 45.2969 25.2031 45.2969 Q28.0938 45.2969 29.5 44.5938" id="CalibreRegular-72"/>
     <path d=" M15.2031 7.09375 L26.9062 7.09375 Q37.2969 7.09375 43.1406 13.4375 Q49 19.7969 49 30.6875 Q49 41.5938 43.0938 48 Q37.2031 54.4062 26.9062 54.4062 L15.2031 54.4062 z  M7.29688 0 L7.29688 61.4062 L27 61.4062 Q40.5 61.4062 48.6406 53.0469 Q56.7969 44.7031 56.7969 30.7031 Q56.7969 16.7031 48.6406 8.34375 Q40.5 0 27 0 z " id="CalibreRegular-44"/>
     <path d=" M33 45.2969 Q44.2969 32.4062 44.2969 22.2031 Q44.2969 12 38.6406 5.54688 Q33 -0.90625 23.8906 -0.90625 Q14.7969 -0.90625 9.14062 5.54688 Q3.5 12 3.5 22.2031 Q3.5 32.4062 9.14062 38.8438 Q14.7969 45.2969 23.8906 45.2969 Q33 45.2969 44.2969 32.4062 M29.7969 5.70312 Q36.7031 14.7969 36.7031 22.1875 Q36.7031 29.5938 33.25 34.1406 Q29.7969 38.7031 23.8906 38.7031 Q18 38.7031 14.5469 34.1406 Q11.0938 29.5938 11.0938 22.1875 Q11.0938 14.7969 14.5469 10.25 Q18 5.70312 23.8906 5.70312 Q29.7969 5.70312 36.7031 14.7969" id="CalibreRegular-6f"/>
     <path d=" M17.5 -5.20312 Q3 14.5938 3 28.2969 Q3 42 10.25 51.8906 Q17.5 61.7969 29.7969 65 L29.7969 57 Q21.4062 54.9062 15.9531 47.2031 Q10.5 39.5 10.5 28.2969 Q10.5 17.0938 15.9531 9.39062 Q21.4062 1.70312 29.7969 -0.40625 L29.7969 -8.40625 Q17.5 -5.20312 3 14.5938" id="CalibreRegular-28"/>
     <path d=" M14.2031 44.4062 L14.2031 0 L6.70312 0 L6.70312 44.4062 z  M12.4062 62.5938 Q15.2969 59.7969 15.2969 57.7969 Q15.2969 55.7969 13.8438 54.3906 Q12.4062 53 10.4062 53 Q8.40625 53 7 54.3906 Q5.59375 55.7969 5.59375 57.7969 Q5.59375 59.7969 7 61.1875 Q8.40625 62.5938 10.4062 62.5938 Q12.4062 62.5938 15.2969 59.7969" id="CalibreRegular-69"/>
     <path d=" M14.2031 5.20312 L14.2031 0 L6.59375 0 L6.59375 65 L14.2031 65 L14.2031 39.2031 Q16 41.7969 19.3906 43.5469 Q22.7969 45.2969 26.7031 45.2969 Q36.0938 45.2969 41.3906 38.6406 Q46.7031 32 46.7031 22.2031 Q46.7031 12.2969 41.3906 5.6875 Q36.0938 -0.90625 26.7031 -0.90625 Q22.7969 -0.90625 19.3906 0.84375 Q16 2.59375 14.2031 5.20312 M14.2031 31.2031 L14.2031 13.2031 Q15.9062 9.79688 18.9531 7.84375 Q22 5.90625 25.5938 5.90625 Q31.7969 5.90625 35.4375 10.4531 Q39.0938 15 39.0938 22.2031 Q39.0938 29.4062 35.4375 33.9531 Q31.7969 38.5 25.5938 38.5 Q22 38.5 18.9531 36.5469 Q15.9062 34.5938 14.2031 31.2031" id="CalibreRegular-62"/>
     <path d=" M3 12.2031 L10.7969 12.2031 Q12.9062 5.40625 21.2969 5.40625 Q25.4062 5.40625 27.9062 7.04688 Q30.4062 8.70312 30.4062 12 Q30.4062 16.5 23.7969 18.2031 L15 20.5 Q4.29688 23.2031 4.29688 32.2031 Q4.29688 38 8.79688 41.6406 Q13.2969 45.2969 20.2031 45.2969 Q27.4062 45.2969 31.7969 42 Q36.2031 38.7031 37.4062 32.7031 L29.9062 32.7031 Q27.9062 39 20.0938 39 Q16.5938 39 14.0938 37.3438 Q11.5938 35.7031 11.5938 32.5938 Q11.5938 30.4062 13.0469 29.1562 Q14.5 27.9062 17.7969 27 L26.4062 24.9062 Q37.7031 21.9062 37.7031 12.5 Q37.7031 6.29688 33.0938 2.6875 Q28.5 -0.90625 21.2031 -0.90625 Q13.9062 -0.90625 8.95312 2.59375 Q4 6.09375 3 12.2031" id="CalibreRegular-73"/>
     <path d=" M42.0938 44.4062 L42.0938 0 L34.5 0 L34.5 5.59375 Q32.5 2.79688 29.0938 0.9375 Q25.7031 -0.90625 21.5938 -0.90625 Q14.2031 -0.90625 10.1406 3.5 Q6.09375 7.90625 6.09375 15.2969 L6.09375 44.4062 L13.7031 44.4062 L13.7031 16.5 Q13.7031 11.5938 16.0938 8.79688 Q18.5 6 23.4062 6 Q27.2031 6 30.25 8.29688 Q33.2969 10.5938 34.5 14.2969 L34.5 44.4062 z " id="CalibreRegular-75"/>
     <path d=" M30.2969 24.5938 L15.2031 24.5938 L15.2031 0 L7.29688 0 L7.29688 61.4062 L30.2969 61.4062 Q39.7969 61.4062 45.1406 56.6562 Q50.5 51.9062 50.5 43 Q50.5 34.0938 45.0938 29.3438 Q39.7031 24.5938 30.2969 24.5938 M42.7031 43 Q42.7031 48.4062 39.4531 51.4531 Q36.2031 54.5 30.0938 54.5 L15.2031 54.5 L15.2031 31.5938 L30.0938 31.5938 Q36.2031 31.5938 39.4531 34.6406 Q42.7031 37.7031 42.7031 43" id="CalibreRegular-50"/>
     <path d=" M49.7969 23.5 L35.0938 23.5 L35.0938 30.2969 L57.2969 30.2969 L57.2969 26.0938 Q57.2969 13.9062 50.25 6.5 Q43.2031 -0.90625 31.9062 -0.90625 Q19.7031 -0.90625 11.7031 7.79688 Q3.70312 16.5 3.70312 30.7031 Q3.70312 44.7969 11.7031 53.5469 Q19.7031 62.2969 31.7031 62.2969 Q41.2969 62.2969 47.6406 57.1875 Q54 52.0938 55.9062 43.4062 L48 43.4062 Q43.7031 55.2031 31.7031 55.2031 Q22.7031 55.2031 17.1406 48.4531 Q11.5938 41.7031 11.5938 30.7031 Q11.5938 19.7031 17.1875 12.8906 Q22.7969 6.09375 31.9062 6.09375 Q39.7969 6.09375 44.4375 10.75 Q49.0938 15.4062 49.7969 23.5" id="CalibreRegular-47"/>
     <path d=" M6.70312 0 L6.70312 44.4062 L14.2031 44.4062 L14.2031 38.7969 Q16.2969 41.5938 19.75 43.4375 Q23.2031 45.2969 27.2969 45.2969 Q34.7031 45.2969 38.7969 40.8906 Q42.9062 36.5 42.9062 29.0938 L42.9062 0 L35.2969 0 L35.2969 27.9062 Q35.2969 32.7031 32.8438 35.5469 Q30.4062 38.4062 25.5 38.4062 Q21.5938 38.4062 18.5 36.0469 Q15.4062 33.7031 14.2031 30.0938 L14.2031 0 z " id="CalibreRegular-6e"/>
     <path d=" M8.79688 11.2031 L8.79688 38 L1.59375 38 L1.59375 44.4062 L8.79688 44.4062 L8.79688 56.0938 L16.2969 56.0938 L16.2969 44.4062 L27 44.4062 L27 38 L16.2969 38 L16.2969 12 Q16.2969 5.79688 22.2031 5.79688 Q25.2969 5.79688 28 7.59375 L28 0.59375 Q25.2031 -0.90625 21 -0.90625 Q15.4062 -0.90625 12.0938 2.14062 Q8.79688 5.20312 8.79688 11.2031" id="CalibreRegular-74"/>
    </defs>
    <g style="fill:#262626;" transform="translate(265.585246875 46.48)scale(0.17160000000000003 -0.17160000000000003)">
     <use xlink:href="#CalibreRegular-4e"/>
     <use x="62.29998779296875" xlink:href="#CalibreRegular-6f"/>
     <use x="110.0999755859375" xlink:href="#CalibreRegular-72"/>
     <use x="142.19996643066406" xlink:href="#CalibreRegular-6d"/>
     <use x="213.8999481201172" xlink:href="#CalibreRegular-61"/>
     <use x="258.8999328613281" xlink:href="#CalibreRegular-6c"/>
     <use x="279.7999267578125" xlink:href="#CalibreRegular-20"/>
     <use x="301.89991760253906" xlink:href="#CalibreRegular-28"/>
     <use x="333.9999084472656" xlink:href="#CalibreRegular-47"/>
     <use x="394.99989318847656" xlink:href="#CalibreRegular-61"/>
     <use x="439.9998779296875" xlink:href="#CalibreRegular-75"/>
     <use x="488.6998748779297" xlink:href="#CalibreRegular-73"/>
     <use x="530.0998687744141" xlink:href="#CalibreRegular-73"/>
     <use x="571.4998626708984" xlink:href="#CalibreRegular-69"/>
     <use x="592.3998565673828" xlink:href="#CalibreRegular-61"/>
     <use x="637.3998413085938" xlink:href="#CalibreRegular-6e"/>
     <use x="686.2998352050781" xlink:href="#CalibreRegular-29"/>
     <use x="718.3998260498047" xlink:href="#CalibreRegular-20"/>
     <use x="740.4998168945312" xlink:href="#CalibreRegular-44"/>
     <use x="800.9998016357422" xlink:href="#CalibreRegular-69"/>
     <use x="821.8997955322266" xlink:href="#CalibreRegular-73"/>
     <use x="863.2997894287109" xlink:href="#CalibreRegular-74"/>
     <use x="894.9997863769531" xlink:href="#CalibreRegular-72"/>
     <use x="927.0997772216797" xlink:href="#CalibreRegular-69"/>
     <use x="947.9997711181641" xlink:href="#CalibreRegular-62"/>
     <use x="998.1997680664062" xlink:href="#CalibreRegular-75"/>
     <use x="1046.8997650146484" xlink:href="#CalibreRegular-74"/>
     <use x="1078.5997619628906" xlink:href="#CalibreRegular-69"/>
     <use x="1099.499755859375" xlink:href="#CalibreRegular-6f"/>
     <use x="1147.2997436523438" xlink:href="#CalibreRegular-6e"/>
     <use x="1196.1997375488281" xlink:href="#CalibreRegular-20"/>
     <use x="1218.2997283935547" xlink:href="#CalibreRegular-50"/>
     <use x="1271.9997253417969" xlink:href="#CalibreRegular-44"/>
     <use x="1332.4997100830078" xlink:href="#CalibreRegular-46"/>
    </g>
   </g>
   <g id="line2d_46">
    <path clip-path="url(#pd831f6c710)" d=" M93.6 443.91 L192.934 443.801 L208.037 443.555 L217.913 443.181 L225.465 442.679 L231.854 442.03 L237.083 441.286 L241.73 440.414 L245.796 439.451 L249.862 438.262 L253.348 437.033 L256.833 435.579 L260.319 433.87 L263.804 431.874 L266.708 429.966 L269.613 427.813 L272.517 425.395 L275.422 422.69 L278.326 419.678 L281.231 416.338 L284.135 412.65 L287.04 408.597 L289.945 404.161 L292.849 399.33 L295.754 394.092 L298.658 388.438 L301.563 382.365 L305.048 374.525 L308.533 366.092 L312.019 357.086 L316.085 345.898 L320.151 334.048 L324.799 319.821 L330.608 301.282 L346.873 248.843 L350.939 236.656 L354.425 226.831 L357.91 217.718 L360.814 210.76 L363.719 204.452 L366.043 199.918 L368.366 195.872 L370.69 192.34 L372.432 190.042 L374.175 188.057 L375.918 186.39 L377.661 185.049 L379.403 184.038 L381.146 183.363 L382.889 183.024 L384.05 182.986 L385.212 183.099 L386.955 183.55 L388.698 184.338 L390.44 185.459 L392.183 186.91 L393.926 188.683 L395.668 190.774 L397.411 193.173 L399.735 196.836 L402.058 201.007 L404.382 205.659 L406.706 210.76 L409.61 217.718 L412.515 225.259 L416 234.975 L420.066 247.062 L424.714 261.607 L432.265 286.124 L441.56 316.169 L446.788 332.307 L451.435 345.898 L455.501 357.086 L458.987 366.092 L462.472 374.525 L465.957 382.365 L469.443 389.602 L472.347 395.172 L475.252 400.329 L478.156 405.08 L481.061 409.437 L483.965 413.416 L486.87 417.033 L489.774 420.306 L492.679 423.255 L495.583 425.901 L498.488 428.264 L501.392 430.366 L504.297 432.228 L507.782 434.174 L511.268 435.838 L514.753 437.252 L518.239 438.447 L522.305 439.601 L526.371 440.536 L531.018 441.38 L536.246 442.1 L542.055 442.679 L549.026 443.15 L557.74 443.506 L569.358 443.744 L587.947 443.874 L636.161 443.909 L673.92 443.91 L673.92 443.91" style="fill:none;stroke:#386df9;stroke-linecap:round;stroke-width:2.275;"/>
   </g>
   <g id="line2d_47">
    <path clip-path="url(#pd831f6c710)" d=" M93.6 443.851 L122.064 443.65 L138.91 443.325 L151.69 442.867 L162.146 442.274 L170.86 441.566 L178.412 440.745 L185.382 439.775 L191.772 438.669 L197.581 437.453 L203.39 436.005 L208.618 434.478 L213.846 432.714 L218.494 430.928 L223.141 428.919 L227.788 426.67 L232.435 424.164 L237.083 421.388 L241.73 418.325 L246.377 414.966 L251.024 411.299 L255.671 407.318 L260.319 403.02 L264.966 398.403 L269.613 393.473 L274.26 388.238 L279.488 382 L284.716 375.421 L290.525 367.752 L296.915 358.953 L305.048 347.358 L326.541 316.464 L332.35 308.589 L337.578 301.867 L342.226 296.257 L346.292 291.681 L350.358 287.455 L353.844 284.139 L357.329 281.13 L360.814 278.446 L363.719 276.471 L366.623 274.744 L369.528 273.274 L372.432 272.066 L375.337 271.126 L378.241 270.46 L381.146 270.071 L383.47 269.959 L385.793 270.026 L388.698 270.36 L391.602 270.971 L394.507 271.856 L397.411 273.011 L400.316 274.43 L403.22 276.106 L406.125 278.032 L409.029 280.198 L412.515 283.101 L416 286.317 L419.485 289.824 L423.552 294.255 L427.618 299.015 L432.265 304.806 L437.493 311.694 L443.883 320.526 L452.016 332.179 L470.605 358.953 L477.575 368.535 L483.385 376.168 L488.613 382.711 L493.841 388.909 L499.069 394.735 L503.716 399.587 L508.363 404.124 L513.01 408.343 L517.658 412.245 L522.305 415.834 L526.952 419.118 L531.599 422.108 L536.246 424.816 L540.894 427.256 L545.541 429.443 L550.188 431.395 L555.416 433.33 L560.644 435.012 L565.872 436.465 L571.681 437.84 L577.49 438.993 L583.88 440.039 L590.851 440.954 L598.403 441.726 L607.116 442.39 L616.992 442.919 L629.191 443.341 L644.875 443.642 L666.949 443.824 L673.92 443.851 L673.92 443.851" style="fill:none;stroke:#ffdc52;stroke-linecap:round;stroke-width:2.275;"/>
   </g>
   <g id="line2d_48">
    <path clip-path="url(#pd831f6c710)" d=" M93.6 443.91 L237.663 443.805 L248.701 443.57 L256.252 443.189 L261.48 442.726 L266.128 442.101 L270.194 441.324 L273.679 440.432 L276.584 439.49 L279.488 438.328 L282.393 436.905 L284.716 435.549 L287.04 433.971 L289.364 432.144 L291.687 430.038 L294.011 427.622 L296.334 424.863 L298.658 421.728 L300.982 418.183 L303.305 414.194 L305.629 409.726 L307.952 404.748 L310.276 399.229 L312.6 393.141 L314.923 386.459 L317.247 379.165 L319.57 371.243 L322.475 360.447 L325.379 348.66 L328.284 335.903 L331.188 322.22 L334.674 304.677 L338.74 282.88 L343.387 256.665 L356.748 180.264 L360.234 162.009 L363.138 147.93 L365.462 137.579 L367.785 128.165 L370.109 119.795 L371.852 114.261 L373.594 109.406 L375.337 105.262 L377.08 101.857 L378.241 100.009 L379.403 98.5066 L380.565 97.3528 L381.727 96.5519 L382.889 96.1061 L384.05 96.0168 L385.212 96.2844 L386.374 96.9081 L387.536 97.8858 L388.698 99.2146 L389.859 100.891 L391.021 102.908 L392.183 105.262 L393.926 109.406 L395.668 114.261 L397.411 119.795 L399.154 125.971 L401.477 135.134 L403.801 145.261 L406.706 159.102 L409.61 174.038 L413.095 193.063 L418.324 222.975 L427.618 276.435 L431.684 298.583 L435.17 316.502 L438.655 333.238 L441.56 346.185 L444.464 358.168 L447.369 369.163 L450.273 379.165 L452.597 386.459 L454.92 393.141 L457.244 399.229 L459.568 404.748 L461.891 409.726 L464.215 414.194 L466.538 418.183 L468.862 421.728 L471.186 424.863 L473.509 427.622 L475.833 430.038 L478.156 432.144 L480.48 433.971 L482.804 435.549 L485.708 437.213 L488.613 438.58 L491.517 439.695 L495.003 440.756 L498.488 441.572 L502.554 442.28 L507.201 442.847 L513.01 443.301 L519.981 443.609 L529.857 443.805 L547.865 443.897 L629.772 443.91 L673.92 443.91 L673.92 443.91" style="fill:none;stroke:#ff1614;stroke-linecap:round;stroke-width:2.275;"/>
   </g>
   <g id="legend_1">
    <g id="line2d_49">
     <path d=" M574.249 69.355 L602.849 69.355" style="fill:none;stroke:#386df9;stroke-linecap:round;stroke-width:2.275;"/>
    </g>
    <g id="line2d_50"/>
    <g id="text_16">
     <!-- $\sigma=1$ -->
     <defs>
      <path d=" M63.7031 32 L4.79688 32 L4.79688 38.5938 L63.7031 38.5938 z  M63.7031 12 L4.79688 12 L4.79688 18.5938 L63.7031 18.5938 z " id="STIXGeneral-Regular-3d"/>
      <path d=" M62.5 45.2969 L60.7969 38.2031 L43.5 38.2031 Q49.2031 33.2031 49.2031 25.5938 Q49.2031 21.5 47.3438 17 Q45.5 12.5 42.1406 8.39062 Q38.7969 4.29688 33.3906 1.64062 Q28 -1 21.5938 -1 Q13.7031 -1 9.09375 3.54688 Q4.5 8.09375 4.5 15.5938 Q4.5 21.2031 7.04688 27.0938 Q9.59375 33 13.2969 36.7031 Q17.5938 41 23 43.1406 Q28.4062 45.2969 33 45.2969 z  M41.0938 23.7031 Q41.0938 28.7969 37.9375 32.5 Q34.7969 36.2031 30.5938 38.2031 Q23 38.2031 17.8906 31.9531 Q12.7969 25.7031 12.7969 17.7031 Q12.7969 12.4062 15.6406 9.25 Q18.5 6.09375 23.5 6.09375 Q31.2969 6.09375 36.1875 11.6875 Q41.0938 17.2969 41.0938 23.7031" id="STIXNonUnicode-Italic-e1ea"/>
      <path d=" M30.2031 0 L22.2969 0 L22.2969 57 Q20.0938 56 15.75 53.75 Q11.4062 51.5 10.7969 51.2031 L10.7969 58.5 L28.7969 67.7031 L30.2031 67.2031 z " id="STIXGeneral-Regular-1d7e3"/>
     </defs>
     <g style="fill:#262626;" transform="translate(614.289 74.36)scale(0.14300000000000002 -0.14300000000000002)">
      <use transform="translate(0.0 0.296875)" xlink:href="#STIXNonUnicode-Italic-e1ea"/>
      <use transform="translate(75.8199951171875 0.296875)" xlink:href="#STIXGeneral-Regular-3d"/>
      <use transform="translate(149.83061828613282 0.296875)" xlink:href="#STIXGeneral-Regular-1d7e3"/>
     </g>
    </g>
    <g id="line2d_51">
     <path d=" M574.249 88.946 L602.849 88.946" style="fill:none;stroke:#ffdc52;stroke-linecap:round;stroke-width:2.275;"/>
    </g>
    <g id="line2d_52"/>
    <g id="text_17">
     <!-- $\sigma=1.5$ -->
     <defs>
      <path d=" M45.7969 67.5938 L42.5938 60.5 L24.9062 60.5 L18.5 47.7969 Q29.9062 46.2031 37.25 39.75 Q44.5938 33.2969 44.5938 22.5938 Q44.5938 12.7031 37.8438 5.64062 Q31.0938 -1.40625 21 -1.40625 Q10 -1.40625 3.59375 5.59375 L8.29688 11.2031 Q13.4062 5.70312 20.5 5.70312 Q27.9062 5.70312 32.2969 10.75 Q36.7031 15.7969 36.7031 22.5938 Q36.7031 30 30.0938 35.2031 Q23.4062 40.7031 9.40625 40.7031 L8 42.4062 L19.5938 67.5938 z " id="STIXGeneral-Regular-1d7e7"/>
      <path d=" M18.0938 4.29688 Q18.0938 2.09375 16.4375 0.5 Q14.7969 -1.09375 12.5 -1.09375 Q10.2031 -1.09375 8.59375 0.5 Q7 2.09375 7 4.39062 Q7 6.70312 8.64062 8.34375 Q10.2969 10 12.5938 10 Q14.7969 10 16.4375 8.29688 Q18.0938 6.59375 18.0938 4.29688" id="STIXGeneral-Regular-2e"/>
     </defs>
     <g style="fill:#262626;" transform="translate(614.289 93.951)scale(0.14300000000000002 -0.14300000000000002)">
      <use transform="translate(0.0 0.296875)" xlink:href="#STIXNonUnicode-Italic-e1ea"/>
      <use transform="translate(75.8199951171875 0.296875)" xlink:href="#STIXGeneral-Regular-3d"/>
      <use transform="translate(149.83061828613282 0.296875)" xlink:href="#STIXGeneral-Regular-1d7e3"/>
      <use transform="translate(199.83060302734376 0.296875)" xlink:href="#STIXGeneral-Regular-2e"/>
      <use transform="translate(226.04435119628909 0.296875)" xlink:href="#STIXGeneral-Regular-1d7e7"/>
     </g>
    </g>
    <g id="line2d_53">
     <path d=" M574.249 108.537 L602.849 108.537" style="fill:none;stroke:#ff1614;stroke-linecap:round;stroke-width:2.275;"/>
    </g>
    <g id="line2d_54"/>
    <g id="text_18">
     <!-- $\sigma=0.75$ -->
     <defs>
      <path d=" M47.7031 33 Q47.7031 23.7969 45.5469 16.3438 Q43.4062 8.90625 38.0938 3.75 Q32.7969 -1.40625 25 -1.40625 Q18.7969 -1.40625 14.25 1.6875 Q9.70312 4.79688 7.20312 10.0469 Q4.70312 15.2969 3.5 21.1406 Q2.29688 27 2.29688 33.5938 Q2.29688 42.9062 4.59375 50.3438 Q6.90625 57.7969 12.2969 62.6875 Q17.7031 67.5938 25.4062 67.5938 Q35.2031 67.5938 41.4531 57.9375 Q47.7031 48.2969 47.7031 33 M39.7969 33 Q39.7969 45.2031 35.75 52.8438 Q31.7031 60.5 25.2031 60.5 Q17.7969 60.5 14 52.75 Q10.2031 45 10.2031 33.4062 Q10.2031 28.2031 10.9531 23.5469 Q11.7031 18.9062 13.3438 14.75 Q15 10.5938 18 8.14062 Q21 5.70312 25 5.70312 Q30.0938 5.70312 33.5469 9.79688 Q37 13.9062 38.3906 19.8438 Q39.7969 25.7969 39.7969 33" id="STIXGeneral-Regular-1d7e2"/>
      <path d=" M45.0938 64.2031 L23 -0.796875 L14.7969 -0.796875 L35.4062 59.0938 L3.79688 59.0938 L6.90625 66.2031 L45.0938 66.2031 z " id="STIXGeneral-Regular-1d7e9"/>
     </defs>
     <g style="fill:#262626;" transform="translate(614.289 113.542)scale(0.14300000000000002 -0.14300000000000002)">
      <use transform="translate(0.0 0.40625)" xlink:href="#STIXNonUnicode-Italic-e1ea"/>
      <use transform="translate(75.8199951171875 0.40625)" xlink:href="#STIXGeneral-Regular-3d"/>
      <use transform="translate(149.83061828613282 0.40625)" xlink:href="#STIXGeneral-Regular-1d7e2"/>
      <use transform="translate(199.83060302734376 0.40625)" xlink:href="#STIXGeneral-Regular-2e"/>
      <use transform="translate(226.04435119628909 0.40625)" xlink:href="#STIXGeneral-Regular-1d7e9"/>
      <use transform="translate(276.0443359375 0.40625)" xlink:href="#STIXGeneral-Regular-1d7e7"/>
     </g>
    </g>
   </g>
  </g>
 </g>
 </svg>
