<?xml version="1.0" encoding="utf-8"?>
<!-- Generator: Adobe Illustrator 16.0.0, SVG Export Plug-In . SVG Version: 6.00 Build 0)  -->
<!DOCTYPE svg PUBLIC "-//W3C//DTD SVG 1.1 Tiny//EN" "http://www.w3.org/Graphics/SVG/1.1/DTD/svg11-tiny.dtd">
<svg version="1.1" baseProfile="tiny" id="Layer_1" xmlns="http://www.w3.org/2000/svg" xmlns:xlink="http://www.w3.org/1999/xlink"
	 x="0px" y="0px" width="168.875px" height="216.75px" viewBox="0 0 168.875 216.75" xml:space="preserve">
<g>
	<circle fill="#FFFFFF" stroke="#231F20" stroke-width="0.75" stroke-miterlimit="10" cx="45.375" cy="9.375" r="9"/>
	<circle fill="#FFFFFF" stroke="#231F20" stroke-width="0.75" stroke-miterlimit="10" cx="45.375" cy="81.375" r="9"/>
	<circle fill="#FFFFFF" stroke="#231F20" stroke-width="0.75" stroke-miterlimit="10" cx="45.375" cy="153.375" r="9"/>
	<circle fill="#FFFFFF" stroke="#231F20" stroke-width="0.75" stroke-miterlimit="10" cx="9.375" cy="153.375" r="9"/>
	<circle fill="#FFFFFF" stroke="#231F20" stroke-width="0.75" stroke-miterlimit="10" cx="81.375" cy="153.375" r="9"/>
	<circle fill="#FFFFFF" stroke="#231F20" stroke-width="0.75" stroke-miterlimit="10" cx="63.375" cy="207.375" r="9"/>
	<circle fill="#FFFFFF" stroke="#231F20" stroke-width="0.75" stroke-miterlimit="10" cx="99.375" cy="207.375" r="9"/>
</g>
<g>
	<line fill="none" stroke="#231F20" stroke-width="0.75" stroke-miterlimit="10" x1="45.375" y1="18.375" x2="45.375" y2="72.375"/>
	<line fill="none" stroke="#231F20" stroke-width="0.75" stroke-miterlimit="10" x1="45.375" y1="90.375" x2="9.375" y2="144.375"/>
	
		<line fill="none" stroke="#231F20" stroke-width="0.75" stroke-miterlimit="10" x1="45.375" y1="90.375" x2="45.375" y2="144.375"/>
	
		<line fill="none" stroke="#231F20" stroke-width="0.75" stroke-miterlimit="10" x1="45.375" y1="90.375" x2="81.375" y2="144.375"/>
	
		<line fill="none" stroke="#231F20" stroke-width="0.75" stroke-miterlimit="10" x1="81.375" y1="162.375" x2="63.375" y2="198.375"/>
	
		<line fill="none" stroke="#231F20" stroke-width="0.75" stroke-miterlimit="10" x1="81.375" y1="162.375" x2="99.375" y2="198.375"/>
	<path fill="none" stroke="#231F20" stroke-width="0.75" stroke-miterlimit="10" d="M59.123,110.994
		c-3.302,3.903-8.235,6.381-13.748,6.381c-5.51,0-10.44-2.476-13.742-6.375"/>
</g>
<g>
	<rect x="64.875" y="76.875" fill="none" width="69.5" height="24"/>
	<path fill="#231F20" d="M68.067,77.307h0.564l2.916,7.368h-0.612l-0.96-2.424h-3.264l-0.948,2.424h-0.612L68.067,77.307z
		 M68.343,78.099l-1.416,3.6h2.832L68.343,78.099z"/>
	<path fill="#231F20" d="M78.267,77.307v7.368h-0.408l-4.5-6.396v6.396h-0.588v-7.368h0.588l4.32,6.144v-6.144H78.267z"/>
	<path fill="#231F20" d="M80.163,84.675v-7.368h2.244c1.071,0,1.936,0.334,2.592,1.002c0.655,0.668,0.983,1.562,0.983,2.682
		c0,1.12-0.328,2.014-0.983,2.682c-0.656,0.668-1.521,1.002-2.592,1.002H80.163z M80.774,84.111h1.633
		c0.903,0,1.621-0.284,2.153-0.852c0.532-0.568,0.798-1.324,0.798-2.268c0-0.944-0.266-1.7-0.798-2.268
		c-0.532-0.568-1.25-0.852-2.153-0.852h-1.633V84.111z"/>
	<path fill="#231F20" d="M89.942,84.675v-5.328h0.601v0.852c0.176-0.272,0.414-0.5,0.714-0.684c0.3-0.184,0.63-0.276,0.99-0.276
		c0.592,0,1.048,0.174,1.368,0.522c0.319,0.348,0.479,0.81,0.479,1.386v3.528h-0.588v-3.444c0-0.432-0.114-0.78-0.342-1.044
		c-0.229-0.264-0.57-0.396-1.026-0.396c-0.352,0-0.672,0.108-0.96,0.324s-0.5,0.492-0.636,0.828v3.732H89.942z"/>
	<path fill="#231F20" d="M99.417,80.007c0.436,0.512,0.653,1.18,0.653,2.004c0,0.824-0.218,1.492-0.653,2.004
		c-0.437,0.512-1.007,0.768-1.71,0.768c-0.704,0-1.272-0.256-1.704-0.768c-0.433-0.512-0.648-1.18-0.648-2.004
		c0-0.824,0.216-1.492,0.648-2.004c0.432-0.512,1-0.768,1.704-0.768C98.41,79.239,98.98,79.495,99.417,80.007z M98.99,83.637
		c0.32-0.412,0.48-0.954,0.48-1.626s-0.16-1.214-0.48-1.626c-0.319-0.412-0.748-0.618-1.283-0.618c-0.528,0-0.952,0.206-1.272,0.618
		s-0.479,0.954-0.479,1.626s0.159,1.214,0.479,1.626c0.32,0.412,0.744,0.618,1.272,0.618C98.242,84.255,98.671,84.049,98.99,83.637z
		"/>
	<path fill="#231F20" d="M105.003,84.675v-0.792c-0.16,0.248-0.391,0.46-0.69,0.636c-0.3,0.176-0.622,0.264-0.966,0.264
		c-0.752,0-1.328-0.266-1.728-0.798c-0.4-0.532-0.601-1.19-0.601-1.974c0-0.784,0.2-1.442,0.601-1.974
		c0.399-0.532,0.976-0.798,1.728-0.798c0.344,0,0.666,0.088,0.966,0.264s0.53,0.388,0.69,0.636v-3.264h0.588v7.8H105.003z
		 M105.003,83.175v-2.328c-0.176-0.336-0.406-0.596-0.69-0.78s-0.59-0.276-0.918-0.276c-0.544,0-0.976,0.206-1.296,0.618
		c-0.32,0.412-0.479,0.946-0.479,1.602c0,0.656,0.159,1.19,0.479,1.602s0.752,0.618,1.296,0.618c0.328,0,0.634-0.092,0.918-0.276
		C104.597,83.771,104.827,83.511,105.003,83.175z"/>
	<path fill="#231F20" d="M110.775,83.127h0.576c-0.104,0.504-0.339,0.906-0.702,1.206c-0.364,0.3-0.818,0.45-1.362,0.45
		c-0.704,0-1.274-0.256-1.71-0.768c-0.437-0.512-0.654-1.18-0.654-2.004c0-0.808,0.214-1.472,0.643-1.992
		c0.428-0.52,0.997-0.78,1.71-0.78c0.688,0,1.22,0.238,1.596,0.714c0.376,0.476,0.564,1.106,0.564,1.89v0.216h-3.925
		c0.008,0.672,0.176,1.206,0.504,1.602s0.752,0.594,1.272,0.594c0.376,0,0.698-0.1,0.966-0.3
		C110.521,83.755,110.695,83.479,110.775,83.127z M109.275,79.767c-0.48,0-0.874,0.164-1.183,0.492
		c-0.308,0.328-0.494,0.772-0.558,1.332h3.3c-0.016-0.512-0.156-0.944-0.42-1.296S109.771,79.767,109.275,79.767z"/>
</g>
<g>
	<rect x="99.375" y="148.375" fill="none" width="69.5" height="24"/>
	<path fill="#231F20" d="M105.441,149.755c0.611,0.704,0.918,1.616,0.918,2.735c0,1.121-0.307,2.033-0.918,2.736
		c-0.612,0.704-1.395,1.057-2.346,1.057c-0.945,0-1.723-0.353-2.334-1.057c-0.613-0.703-0.919-1.615-0.919-2.736
		c0-1.119,0.306-2.031,0.919-2.735c0.611-0.704,1.389-1.056,2.334-1.056C104.047,148.699,104.829,149.051,105.441,149.755z
		 M105.003,154.812c0.487-0.596,0.731-1.369,0.731-2.322c0-0.951-0.244-1.726-0.731-2.321c-0.487-0.597-1.124-0.894-1.907-0.894
		c-0.777,0-1.408,0.297-1.896,0.894c-0.488,0.596-0.732,1.37-0.732,2.321c0,0.953,0.244,1.727,0.732,2.322s1.119,0.895,1.896,0.895
		C103.879,155.707,104.516,155.408,105.003,154.812z"/>
	<path fill="#231F20" d="M110.139,152.923h-1.764v3.252h-0.611v-7.368h2.604c0.728,0,1.296,0.178,1.703,0.534
		c0.408,0.356,0.613,0.866,0.613,1.53c0,0.592-0.164,1.061-0.492,1.404s-0.789,0.551-1.381,0.623l2.221,3.276h-0.709
		L110.139,152.923z M108.375,149.359v3.023h1.968c0.56,0,0.99-0.132,1.29-0.396c0.301-0.264,0.45-0.636,0.45-1.115
		c0-0.488-0.149-0.862-0.45-1.122c-0.3-0.261-0.73-0.39-1.29-0.39H108.375z"/>
	<path fill="#231F20" d="M116.907,156.175v-5.328h0.601v0.853c0.176-0.272,0.414-0.5,0.714-0.685c0.3-0.184,0.63-0.276,0.99-0.276
		c0.592,0,1.048,0.174,1.368,0.522c0.319,0.349,0.479,0.81,0.479,1.386v3.528h-0.588v-3.444c0-0.432-0.114-0.779-0.342-1.043
		c-0.229-0.265-0.57-0.396-1.026-0.396c-0.352,0-0.672,0.107-0.96,0.324c-0.288,0.215-0.5,0.492-0.636,0.828v3.731H116.907z"/>
	<path fill="#231F20" d="M126.382,151.507c0.436,0.513,0.653,1.181,0.653,2.004c0,0.824-0.218,1.492-0.653,2.004
		c-0.437,0.513-1.007,0.769-1.71,0.769c-0.704,0-1.272-0.256-1.704-0.769c-0.433-0.512-0.648-1.18-0.648-2.004
		c0-0.823,0.216-1.491,0.648-2.004c0.432-0.512,1-0.769,1.704-0.769C125.375,150.738,125.945,150.995,126.382,151.507z
		 M125.955,155.137c0.32-0.412,0.48-0.954,0.48-1.626s-0.16-1.214-0.48-1.626c-0.319-0.412-0.748-0.618-1.283-0.618
		c-0.528,0-0.952,0.206-1.272,0.618s-0.479,0.954-0.479,1.626s0.159,1.214,0.479,1.626s0.744,0.618,1.272,0.618
		C125.207,155.755,125.636,155.549,125.955,155.137z"/>
	<path fill="#231F20" d="M131.968,156.175v-0.792c-0.16,0.248-0.391,0.46-0.69,0.637c-0.3,0.176-0.622,0.264-0.966,0.264
		c-0.752,0-1.328-0.266-1.728-0.799c-0.4-0.531-0.601-1.189-0.601-1.974s0.2-1.442,0.601-1.974c0.399-0.532,0.976-0.799,1.728-0.799
		c0.344,0,0.666,0.089,0.966,0.265s0.53,0.388,0.69,0.636v-3.264h0.588v7.8H131.968z M131.968,154.675v-2.328
		c-0.176-0.336-0.406-0.596-0.69-0.78c-0.284-0.184-0.59-0.275-0.918-0.275c-0.544,0-0.976,0.206-1.296,0.617
		c-0.32,0.412-0.479,0.947-0.479,1.603c0,0.656,0.159,1.19,0.479,1.603s0.752,0.617,1.296,0.617c0.328,0,0.634-0.092,0.918-0.275
		S131.792,155.011,131.968,154.675z"/>
	<path fill="#231F20" d="M137.74,154.627h0.576c-0.104,0.504-0.339,0.906-0.702,1.206c-0.364,0.3-0.818,0.45-1.362,0.45
		c-0.704,0-1.274-0.256-1.71-0.769c-0.437-0.512-0.654-1.18-0.654-2.004c0-0.808,0.214-1.472,0.643-1.991
		c0.428-0.521,0.997-0.781,1.71-0.781c0.688,0,1.22,0.238,1.596,0.715c0.376,0.476,0.564,1.105,0.564,1.89v0.216h-3.925
		c0.008,0.672,0.176,1.206,0.504,1.602c0.328,0.396,0.752,0.595,1.272,0.595c0.376,0,0.698-0.101,0.966-0.3
		C137.486,155.255,137.66,154.979,137.74,154.627z M136.24,151.267c-0.48,0-0.874,0.164-1.183,0.492
		c-0.308,0.328-0.494,0.772-0.558,1.332h3.3c-0.016-0.512-0.156-0.944-0.42-1.296S136.736,151.267,136.24,151.267z"/>
</g>
<g>
</g>
<g>
</g>
<g>
</g>
<g>
</g>
<g>
</g>
<g>
</g>
</svg>
