<?xml version="1.0" encoding="utf-8"?>
<!-- Generator: Adobe Illustrator 16.0.0, SVG Export Plug-In . SVG Version: 6.00 Build 0)  -->
<!DOCTYPE svg PUBLIC "-//W3C//DTD SVG 1.1 Tiny//EN" "http://www.w3.org/Graphics/SVG/1.1/DTD/svg11-tiny.dtd">
<svg version="1.1" baseProfile="tiny" id="Layer_1" xmlns="http://www.w3.org/2000/svg" xmlns:xlink="http://www.w3.org/1999/xlink"
	 x="0px" y="0px" width="182.403px" height="194.22px" viewBox="0 0 182.403 194.22" xml:space="preserve">
<g>
	<circle fill="#386DF9" stroke="#231F20" stroke-width="0.75" stroke-miterlimit="10" cx="63.476" cy="12.995" r="12.62"/>
	<circle fill="#FFFFFF" stroke="#231F20" stroke-width="0.75" stroke-miterlimit="10" cx="12.995" cy="57.866" r="12.62"/>
	<circle fill="#FFFFFF" stroke="#231F20" stroke-width="0.75" stroke-miterlimit="10" cx="113.957" cy="57.866" r="12.62"/>
	<circle fill="#FFFFFF" stroke="#231F20" stroke-width="0.75" stroke-miterlimit="10" cx="91.521" cy="102.738" r="12.62"/>
	<circle fill="#FFFFFF" stroke="#231F20" stroke-width="0.75" stroke-miterlimit="10" cx="136.392" cy="102.738" r="12.62"/>
	<circle fill="#FFFFFF" stroke="#231F20" stroke-width="0.75" stroke-miterlimit="10" cx="91.521" cy="141.981" r="12.62"/>
	<circle fill="#FF1614" stroke="#231F20" stroke-width="0.75" stroke-miterlimit="10" cx="91.988" cy="181.225" r="12.62"/>
</g>
<g>
	<line fill="none" stroke="#231F20" stroke-width="0.75" stroke-miterlimit="10" x1="63.476" y1="25.615" x2="12.995" y2="45.246"/>
	
		<line fill="none" stroke="#231F20" stroke-width="0.75" stroke-miterlimit="10" x1="63.476" y1="25.615" x2="113.956" y2="45.246"/>
	<line fill="none" stroke="#231F20" stroke-width="0.75" stroke-miterlimit="10" x1="113.956" y1="70.486" x2="91.52" y2="90.118"/>
	
		<line fill="none" stroke="#231F20" stroke-width="0.75" stroke-miterlimit="10" x1="113.956" y1="70.486" x2="136.391" y2="90.118"/>
	<line fill="none" stroke="#231F20" stroke-width="0.75" stroke-miterlimit="10" x1="91.52" y1="115.358" x2="91.52" y2="129.361"/>
	
		<line fill="none" stroke="#231F20" stroke-width="0.75" stroke-miterlimit="10" x1="91.989" y1="154.602" x2="91.989" y2="168.604"/>
</g>
<g>
	<g>
		<rect x="56.465" y="6.984" fill="none" width="14.022" height="16.826"/>
		<path fill="#FFFFFF" d="M59.582,15.229h1.347c0.393,1.145,1.268,1.717,2.625,1.717c0.684,0,1.236-0.16,1.657-0.479
			c0.421-0.32,0.631-0.761,0.631-1.321c0-0.415-0.129-0.754-0.387-1.019c-0.259-0.263-0.679-0.468-1.263-0.613l-1.851-0.488
			c-1.648-0.427-2.474-1.312-2.474-2.659c0-0.863,0.32-1.567,0.959-2.111c0.64-0.544,1.453-0.816,2.44-0.816
			c1.043,0,1.885,0.244,2.523,0.732c0.64,0.488,1.061,1.152,1.263,1.994h-1.33c-0.37-1.066-1.188-1.599-2.456-1.599
			c-0.629,0-1.142,0.154-1.54,0.463S61.13,9.75,61.13,10.266c0,0.427,0.134,0.76,0.403,1.001s0.685,0.436,1.245,0.581l1.767,0.454
			c1.717,0.438,2.575,1.363,2.575,2.776c0,0.92-0.334,1.649-1.002,2.188c-0.667,0.538-1.522,0.808-2.565,0.808
			c-1.044,0-1.919-0.249-2.625-0.749C60.221,16.825,59.772,16.127,59.582,15.229z"/>
	</g>
	<g>
		<rect x="5.984" y="50.855" fill="none" width="14.022" height="12.617"/>
		<path fill="#231F20" d="M12.374,51.462h1.245l4.039,10.332h-1.347l-1.194-3.113h-4.258l-1.178,3.113H8.335L12.374,51.462z
			 M12.979,53.111l-1.683,4.408h3.366L12.979,53.111z"/>
	</g>
	<g>
		<rect x="106.946" y="51.855" fill="none" width="14.021" height="12.617"/>
		<path fill="#231F20" d="M115.959,57.443c0.549,0.146,0.998,0.443,1.346,0.892s0.521,0.965,0.521,1.548
			c0,0.932-0.303,1.649-0.908,2.154s-1.447,0.757-2.523,0.757h-3.736V52.462h3.398c1.078,0,1.916,0.236,2.516,0.707
			c0.602,0.472,0.9,1.15,0.9,2.036c0,0.583-0.143,1.068-0.428,1.455C116.758,57.048,116.397,57.309,115.959,57.443z M111.956,56.955
			h2.102c1.426,0,2.139-0.561,2.139-1.683c0-1.1-0.713-1.649-2.139-1.649h-2.102V56.955z M111.956,58.065v3.567h2.439
			c0.684,0,1.211-0.16,1.582-0.479c0.369-0.319,0.555-0.754,0.555-1.304c0-0.562-0.186-0.999-0.555-1.312
			c-0.371-0.314-0.898-0.472-1.582-0.472H111.956z"/>
	</g>
	<g>
		<rect x="84.977" y="96.26" fill="none" width="14.023" height="17.76"/>
		<path fill="#231F20" d="M91.367,96.866h1.245l4.039,10.332h-1.347l-1.194-3.113h-4.258l-1.178,3.113h-1.346L91.367,96.866z
			 M91.972,98.516l-1.683,4.408h3.366L91.972,98.516z"/>
	</g>
	<g>
		<rect x="129.381" y="96.26" fill="none" width="14.021" height="17.76"/>
		<path fill="#231F20" d="M133.406,105.877c-0.881-0.981-1.32-2.263-1.32-3.845c0-1.581,0.439-2.863,1.32-3.845
			s1.982-1.473,3.307-1.473c1.065,0,1.949,0.286,2.65,0.858s1.158,1.347,1.371,2.322h-1.312c-0.471-1.323-1.374-1.985-2.709-1.985
			c-0.987,0-1.783,0.378-2.39,1.136c-0.605,0.757-0.908,1.753-0.908,2.986c0,1.223,0.303,2.216,0.908,2.979
			c0.606,0.763,1.402,1.145,2.39,1.145c1.346,0,2.249-0.668,2.709-2.003h1.312c-0.213,0.987-0.67,1.767-1.371,2.339
			s-1.585,0.858-2.65,0.858C135.388,107.35,134.287,106.859,133.406,105.877z"/>
	</g>
	<g>
		<rect x="84.51" y="135.503" fill="none" width="14.021" height="12.153"/>
		<path fill="#231F20" d="M87.66,146.441v-10.332h3.314c1.515,0,2.729,0.469,3.644,1.405c0.914,0.937,1.371,2.19,1.371,3.761
			c0,1.571-0.457,2.824-1.371,3.761c-0.915,0.938-2.129,1.405-3.644,1.405H87.66z M88.989,145.247h1.969
			c1.167,0,2.078-0.356,2.734-1.069c0.656-0.712,0.984-1.68,0.984-2.902s-0.331-2.192-0.993-2.911
			c-0.662-0.718-1.57-1.076-2.726-1.076h-1.969V145.247z"/>
	</g>
	<g>
		<rect x="84.977" y="175.148" fill="none" width="14.023" height="14.062"/>
		<path fill="#FFFFFF" d="M95.237,182.134h-2.474v-1.145h3.735v0.707c0,1.368-0.396,2.468-1.187,3.298
			c-0.79,0.83-1.819,1.245-3.087,1.245c-1.369,0-2.502-0.488-3.399-1.464s-1.346-2.261-1.346-3.854c0-1.581,0.448-2.863,1.346-3.845
			s2.02-1.473,3.365-1.473c1.077,0,1.972,0.286,2.684,0.858c0.713,0.572,1.176,1.347,1.389,2.322h-1.329
			c-0.482-1.323-1.396-1.985-2.743-1.985c-1.01,0-1.825,0.378-2.448,1.136c-0.622,0.757-0.934,1.753-0.934,2.986
			c0,1.234,0.313,2.232,0.942,2.995c0.628,0.764,1.452,1.145,2.474,1.145c0.886,0,1.59-0.261,2.111-0.782
			S95.158,183.042,95.237,182.134z"/>
	</g>
</g>
<g>
	<g>
		<rect x="132.856" y="53.894" fill="none" width="49.547" height="33.186"/>
		<path d="M133.901,60.569c-0.404-0.479-0.605-1.103-0.605-1.873s0.201-1.395,0.605-1.873s0.934-0.719,1.592-0.719
			c0.518,0,0.941,0.141,1.273,0.421c0.334,0.28,0.545,0.656,0.635,1.128h-0.572c-0.074-0.329-0.229-0.586-0.461-0.769
			c-0.23-0.184-0.523-0.275-0.875-0.275c-0.484,0-0.879,0.191-1.182,0.572c-0.305,0.382-0.455,0.887-0.455,1.515
			s0.15,1.133,0.455,1.515c0.303,0.381,0.697,0.571,1.182,0.571c0.352,0,0.645-0.091,0.875-0.274
			c0.232-0.184,0.387-0.439,0.461-0.769h0.572c-0.09,0.472-0.301,0.847-0.635,1.128c-0.332,0.28-0.756,0.42-1.273,0.42
			C134.834,61.287,134.305,61.048,133.901,60.569z"/>
		<path d="M139.172,53.895v7.292h-0.561v-7.292H139.172z"/>
		<path d="M144.204,56.823c0.408,0.479,0.611,1.103,0.611,1.873s-0.203,1.395-0.611,1.873s-0.941,0.718-1.6,0.718
			s-1.188-0.239-1.592-0.718s-0.605-1.103-0.605-1.873s0.201-1.395,0.605-1.873s0.934-0.719,1.592-0.719
			S143.795,56.345,144.204,56.823z M143.805,60.216c0.299-0.385,0.449-0.892,0.449-1.52s-0.15-1.135-0.449-1.521
			c-0.299-0.385-0.699-0.577-1.201-0.577c-0.492,0-0.889,0.192-1.188,0.577c-0.301,0.386-0.449,0.893-0.449,1.521
			s0.148,1.135,0.449,1.52c0.299,0.386,0.695,0.578,1.188,0.578C143.106,60.794,143.506,60.602,143.805,60.216z"/>
		<path d="M145.588,59.896h0.561c0.203,0.605,0.666,0.908,1.391,0.908c0.359,0,0.652-0.078,0.875-0.235
			c0.225-0.157,0.338-0.385,0.338-0.685c0-0.418-0.307-0.714-0.92-0.886l-0.932-0.258c-0.785-0.209-1.178-0.628-1.178-1.257
			c0-0.419,0.16-0.753,0.482-1.004c0.322-0.25,0.721-0.376,1.201-0.376c0.508,0,0.92,0.12,1.238,0.359s0.521,0.572,0.611,0.998
			h-0.549c-0.195-0.583-0.629-0.875-1.301-0.875c-0.33,0-0.604,0.077-0.82,0.23s-0.324,0.368-0.324,0.645
			c0,0.225,0.068,0.393,0.207,0.505s0.367,0.213,0.689,0.303l0.887,0.247c0.83,0.217,1.244,0.67,1.244,1.357
			c0,0.441-0.164,0.787-0.492,1.038c-0.33,0.25-0.752,0.375-1.268,0.375c-0.51,0-0.941-0.123-1.297-0.37
			C145.877,60.671,145.663,60.33,145.588,59.896z"/>
		<path d="M153.766,59.739h0.539c-0.098,0.472-0.316,0.847-0.656,1.128c-0.342,0.28-0.766,0.42-1.273,0.42
			c-0.658,0-1.191-0.239-1.6-0.718c-0.406-0.479-0.611-1.103-0.611-1.873c0-0.756,0.201-1.376,0.602-1.862
			c0.398-0.486,0.932-0.729,1.598-0.729c0.643,0,1.141,0.223,1.492,0.668s0.527,1.034,0.527,1.767v0.202h-3.668
			c0.006,0.628,0.164,1.127,0.471,1.497s0.703,0.556,1.189,0.556c0.352,0,0.652-0.094,0.902-0.28
			C153.528,60.326,153.692,60.068,153.766,59.739z M152.364,56.599c-0.449,0-0.816,0.153-1.105,0.46
			c-0.287,0.307-0.461,0.722-0.521,1.245h3.086c-0.016-0.479-0.146-0.883-0.393-1.212C153.182,56.763,152.827,56.599,152.364,56.599
			z"/>
		<path d="M157.95,56.172v0.55c-0.143-0.06-0.295-0.09-0.461-0.09c-0.299,0-0.564,0.098-0.795,0.292
			c-0.232,0.194-0.408,0.456-0.527,0.785v3.478h-0.561v-4.98h0.561v0.796c0.119-0.262,0.299-0.477,0.537-0.645
			c0.24-0.168,0.51-0.253,0.809-0.253C157.655,56.104,157.799,56.127,157.95,56.172z"/>
	</g>
	<g>
		<rect x="48.985" y="96.427" fill="none" width="49.546" height="33.185"/>
		<path d="M50.029,103.103c-0.403-0.479-0.605-1.103-0.605-1.873s0.202-1.395,0.605-1.873c0.404-0.479,0.935-0.719,1.593-0.719
			c0.517,0,0.94,0.141,1.273,0.421s0.544,0.656,0.634,1.128h-0.572c-0.074-0.329-0.228-0.586-0.46-0.769
			c-0.231-0.184-0.523-0.275-0.875-0.275c-0.485,0-0.88,0.191-1.183,0.572c-0.304,0.382-0.455,0.887-0.455,1.515
			s0.151,1.133,0.455,1.515c0.303,0.381,0.697,0.571,1.183,0.571c0.352,0,0.644-0.091,0.875-0.274
			c0.232-0.184,0.386-0.439,0.46-0.769h0.572c-0.09,0.472-0.301,0.847-0.634,1.128c-0.333,0.28-0.757,0.42-1.273,0.42
			C50.964,103.82,50.434,103.581,50.029,103.103z"/>
		<path d="M55.302,96.428v7.292h-0.561v-7.292H55.302z"/>
		<path d="M60.332,99.356c0.408,0.479,0.611,1.103,0.611,1.873s-0.203,1.395-0.611,1.873c-0.407,0.479-0.94,0.718-1.599,0.718
			s-1.188-0.239-1.593-0.718c-0.403-0.479-0.605-1.103-0.605-1.873s0.202-1.395,0.605-1.873c0.404-0.479,0.935-0.719,1.593-0.719
			S59.925,98.878,60.332,99.356z M59.935,102.749c0.299-0.385,0.448-0.892,0.448-1.52s-0.149-1.135-0.448-1.521
			c-0.3-0.385-0.7-0.577-1.201-0.577c-0.493,0-0.89,0.192-1.188,0.577c-0.3,0.386-0.449,0.893-0.449,1.521s0.149,1.135,0.449,1.52
			c0.299,0.386,0.695,0.578,1.188,0.578C59.234,103.327,59.635,103.135,59.935,102.749z"/>
		<path d="M61.718,102.43h0.561c0.202,0.605,0.665,0.908,1.391,0.908c0.359,0,0.651-0.078,0.875-0.235
			c0.225-0.157,0.337-0.385,0.337-0.685c0-0.418-0.307-0.714-0.92-0.886l-0.931-0.258c-0.785-0.209-1.179-0.628-1.179-1.257
			c0-0.419,0.161-0.753,0.482-1.004c0.322-0.25,0.722-0.376,1.201-0.376c0.508,0,0.921,0.12,1.239,0.359
			c0.317,0.239,0.521,0.572,0.611,0.998h-0.55c-0.194-0.583-0.628-0.875-1.301-0.875c-0.33,0-0.603,0.077-0.819,0.23
			s-0.325,0.368-0.325,0.645c0,0.225,0.069,0.393,0.207,0.505c0.139,0.112,0.368,0.213,0.69,0.303l0.886,0.247
			c0.83,0.217,1.245,0.67,1.245,1.357c0,0.441-0.164,0.787-0.493,1.038c-0.329,0.25-0.752,0.375-1.268,0.375
			c-0.509,0-0.94-0.123-1.296-0.37C62.007,103.204,61.792,102.863,61.718,102.43z"/>
		<path d="M69.895,102.272h0.539c-0.098,0.472-0.316,0.847-0.656,1.128c-0.341,0.28-0.765,0.42-1.273,0.42
			c-0.658,0-1.191-0.239-1.599-0.718s-0.611-1.103-0.611-1.873c0-0.756,0.2-1.376,0.601-1.862c0.399-0.486,0.933-0.729,1.598-0.729
			c0.644,0,1.141,0.223,1.492,0.668s0.527,1.034,0.527,1.767v0.202h-3.668c0.007,0.628,0.164,1.127,0.471,1.497
			s0.703,0.556,1.189,0.556c0.352,0,0.652-0.094,0.903-0.28C69.657,102.859,69.82,102.602,69.895,102.272z M68.492,99.132
			c-0.448,0-0.816,0.153-1.104,0.46s-0.462,0.722-0.521,1.245h3.085c-0.016-0.479-0.146-0.883-0.393-1.212
			C69.312,99.296,68.956,99.132,68.492,99.132z"/>
		<path d="M74.078,98.705v0.55c-0.142-0.06-0.295-0.09-0.46-0.09c-0.299,0-0.564,0.098-0.796,0.292
			c-0.232,0.194-0.408,0.456-0.527,0.785v3.478h-0.561v-4.98h0.561v0.796c0.119-0.262,0.299-0.477,0.538-0.645
			s0.509-0.253,0.808-0.253C73.783,98.638,73.929,98.66,74.078,98.705z"/>
	</g>
</g>
<g>
</g>
<g>
</g>
<g>
</g>
<g>
</g>
<g>
</g>
<g>
</g>
</svg>
