<?xml version="1.0" encoding="iso-8859-1"?>
<!-- Generator: Adobe Illustrator 16.0.0, SVG Export Plug-In . SVG Version: 6.00 Build 0)  -->
<!DOCTYPE svg PUBLIC "-//W3C//DTD SVG 1.1//EN" "http://www.w3.org/Graphics/SVG/1.1/DTD/svg11.dtd">
<svg version="1.1" id="Layer_1" xmlns="http://www.w3.org/2000/svg" xmlns:xlink="http://www.w3.org/1999/xlink" x="0px" y="0px"
	 width="310.425px" height="138.947px" viewBox="0 0 310.425 138.947" style="enable-background:new 0 0 310.425 138.947;"
	 xml:space="preserve">
<circle style="fill:none;stroke:#212221;stroke-width:0.75;stroke-miterlimit:10;" cx="17.04" cy="42.796" r="10.897"/>
<g>
	<g>
		<path style="fill:none;stroke:#386DF9;stroke-width:0.75;stroke-linecap:round;stroke-linejoin:round;stroke-dasharray:4,4;" d="
			M33.757,43.546c0,0,27.692,0,79.829,0"/>
		<g>
			<polygon style="fill:#386DF9;" points="112.094,44.818 113.366,43.546 112.094,42.275 113.173,42.275 114.445,43.546 
				113.173,44.818 			"/>
		</g>
	</g>
</g>
<g>
	<g>
		<rect x="9.361" y="5.917" style="fill:none;" width="11.106" height="16.151"/>
		<path style="fill:#231F20;" d="M9.84,16.118h1.666c0.485,1.416,1.568,2.124,3.248,2.124c0.847,0,1.53-0.198,2.051-0.593
			s0.781-0.94,0.781-1.634c0-0.514-0.16-0.934-0.479-1.26c-0.319-0.326-0.84-0.579-1.561-0.76l-2.291-0.604
			c-2.04-0.527-3.06-1.624-3.06-3.29c0-1.068,0.396-1.939,1.187-2.613c0.791-0.673,1.797-1.01,3.019-1.01
			c1.291,0,2.332,0.302,3.123,0.906c0.791,0.604,1.312,1.426,1.562,2.467h-1.645c-0.458-1.318-1.472-1.978-3.04-1.978
			c-0.777,0-1.412,0.191-1.905,0.573s-0.739,0.892-0.739,1.53c0,0.527,0.167,0.94,0.5,1.239s0.846,0.538,1.541,0.718l2.186,0.562
			c2.124,0.541,3.186,1.687,3.186,3.435c0,1.138-0.413,2.041-1.239,2.707c-0.826,0.667-1.884,1-3.175,1
			c-1.291,0-2.373-0.309-3.248-0.927C10.631,18.092,10.076,17.228,9.84,16.118z"/>
	</g>
	<g>
		<rect x="21.551" y="15.075" style="fill:none;" width="13.359" height="16.152"/>
		<path style="fill:#231F20;" d="M25.076,15.56v8.536h-1.069v-7.217l-2.109,1.083v-1.11l2.526-1.291H25.076z"/>
	</g>
</g>
<path style="fill:none;stroke:#212221;stroke-width:0.75;stroke-miterlimit:10;" d="M142.456,42.796
	c0,6.017-4.877,10.895-10.898,10.895c-6.016,0-10.897-4.878-10.897-10.895c0-6.018,4.882-10.899,10.897-10.899
	C137.578,31.897,142.456,36.778,142.456,42.796z"/>
<g>
	<g>
		<rect x="122.563" y="5.917" style="fill:none;" width="11.105" height="16.151"/>
		<path style="fill:#231F20;" d="M123.042,16.118h1.666c0.485,1.416,1.568,2.124,3.248,2.124c0.847,0,1.53-0.198,2.051-0.593
			s0.781-0.94,0.781-1.634c0-0.514-0.16-0.934-0.479-1.26c-0.319-0.326-0.84-0.579-1.561-0.76l-2.291-0.604
			c-2.04-0.527-3.06-1.624-3.06-3.29c0-1.068,0.396-1.939,1.187-2.613c0.791-0.673,1.797-1.01,3.019-1.01
			c1.291,0,2.332,0.302,3.123,0.906c0.791,0.604,1.312,1.426,1.562,2.467h-1.645c-0.458-1.318-1.472-1.978-3.04-1.978
			c-0.777,0-1.412,0.191-1.905,0.573s-0.739,0.892-0.739,1.53c0,0.527,0.167,0.94,0.5,1.239s0.846,0.538,1.541,0.718l2.186,0.562
			c2.124,0.541,3.186,1.687,3.186,3.435c0,1.138-0.413,2.041-1.239,2.707c-0.826,0.667-1.884,1-3.175,1
			c-1.291,0-2.373-0.309-3.248-0.927C123.833,18.092,123.277,17.228,123.042,16.118z"/>
	</g>
	<g>
		<rect x="134.752" y="15.075" style="fill:none;" width="13.359" height="16.152"/>
		<path style="fill:#231F20;" d="M139.485,17.864c0-0.435-0.139-0.784-0.417-1.048c-0.277-0.264-0.652-0.396-1.124-0.396
			c-0.5,0-0.891,0.155-1.173,0.465s-0.447,0.724-0.493,1.242h-1.125c0.083-0.805,0.375-1.453,0.875-1.943
			c0.5-0.49,1.138-0.735,1.916-0.735c0.805,0,1.438,0.217,1.901,0.652s0.694,1.018,0.694,1.749c0,0.129-0.016,0.264-0.048,0.402
			c-0.033,0.139-0.065,0.259-0.097,0.361c-0.033,0.102-0.093,0.229-0.181,0.382c-0.088,0.152-0.155,0.266-0.201,0.34
			c-0.046,0.074-0.139,0.194-0.277,0.361s-0.231,0.278-0.278,0.333c-0.046,0.056-0.155,0.178-0.326,0.368
			c-0.171,0.189-0.275,0.308-0.312,0.354l-2.166,2.374h4.067v0.972h-5.566v-0.722l2.749-3.026c0.416-0.462,0.698-0.777,0.847-0.944
			c0.147-0.167,0.307-0.402,0.479-0.708C139.399,18.392,139.485,18.114,139.485,17.864z"/>
	</g>
</g>
<g>
	<g>
		<path style="fill:none;stroke:#386DF9;stroke-width:0.75;stroke-linecap:round;stroke-linejoin:round;stroke-dasharray:4,4;" d="
			M148.11,43.546c0,0-6.63,0,45.134,0"/>
		<g>
			<polygon style="fill:#386DF9;" points="191.75,44.818 193.022,43.546 191.75,42.275 192.83,42.275 194.101,43.546 192.83,44.818 
							"/>
		</g>
	</g>
</g>
<g>
	<g>
		<path style="fill:none;stroke:#386DF9;stroke-width:0.75;stroke-linecap:round;stroke-linejoin:round;stroke-dasharray:4,4;" d="
			M223.292,43.546c0,0-6.63,0,45.133,0"/>
		<g>
			<polygon style="fill:#386DF9;" points="266.93,44.818 268.203,43.546 266.93,42.275 268.01,42.275 269.282,43.546 268.01,44.818 
							"/>
		</g>
	</g>
</g>
<g>
	<rect x="196.242" y="31.897" style="fill:none;" width="26.14" height="16.151"/>
	<path style="fill:#231F20;" d="M200.661,43.618c0-0.541,0.184-0.999,0.552-1.374c0.367-0.375,0.822-0.562,1.363-0.562
		c0.542,0,1,0.184,1.374,0.552c0.375,0.368,0.562,0.83,0.562,1.384c0,0.556-0.188,1.021-0.562,1.395
		c-0.374,0.375-0.832,0.562-1.374,0.562c-0.527,0-0.979-0.187-1.353-0.562C200.848,44.638,200.661,44.173,200.661,43.618z"/>
	<path style="fill:#231F20;" d="M207.385,43.618c0-0.541,0.184-0.999,0.552-1.374c0.367-0.375,0.822-0.562,1.363-0.562
		c0.542,0,1,0.184,1.374,0.552c0.375,0.368,0.562,0.83,0.562,1.384c0,0.556-0.188,1.021-0.562,1.395
		c-0.374,0.375-0.832,0.562-1.374,0.562c-0.527,0-0.979-0.187-1.353-0.562C207.573,44.638,207.385,44.173,207.385,43.618z"/>
	<path style="fill:#231F20;" d="M214.11,43.618c0-0.541,0.184-0.999,0.552-1.374c0.367-0.375,0.822-0.562,1.363-0.562
		c0.542,0,1,0.184,1.374,0.552c0.375,0.368,0.562,0.83,0.562,1.384c0,0.556-0.188,1.021-0.562,1.395
		c-0.374,0.375-0.832,0.562-1.374,0.562c-0.527,0-0.979-0.187-1.353-0.562C214.297,44.638,214.11,44.173,214.11,43.618z"/>
</g>
<path style="fill:none;stroke:#212221;stroke-width:0.75;stroke-miterlimit:10;" d="M296.288,42.796
	c0,6.017-4.878,10.895-10.898,10.895c-6.016,0-10.897-4.878-10.897-10.895c0-6.018,4.882-10.899,10.897-10.899
	C291.41,31.897,296.288,36.778,296.288,42.796z"/>
<g>
	<g>
		<rect x="276.395" y="5.917" style="fill:none;" width="11.104" height="16.151"/>
		<path style="fill:#231F20;" d="M276.873,16.118h1.666c0.485,1.416,1.568,2.124,3.248,2.124c0.846,0,1.53-0.198,2.051-0.593
			s0.78-0.94,0.78-1.634c0-0.514-0.159-0.934-0.479-1.26c-0.319-0.326-0.84-0.579-1.562-0.76l-2.29-0.604
			c-2.041-0.527-3.061-1.624-3.061-3.29c0-1.068,0.396-1.939,1.187-2.613c0.791-0.673,1.797-1.01,3.019-1.01
			c1.291,0,2.332,0.302,3.123,0.906c0.791,0.604,1.312,1.426,1.562,2.467h-1.645c-0.458-1.318-1.472-1.978-3.04-1.978
			c-0.777,0-1.412,0.191-1.904,0.573c-0.493,0.382-0.739,0.892-0.739,1.53c0,0.527,0.166,0.94,0.499,1.239s0.847,0.538,1.541,0.718
			l2.186,0.562c2.124,0.541,3.186,1.687,3.186,3.435c0,1.138-0.413,2.041-1.238,2.707c-0.826,0.667-1.885,1-3.175,1
			c-1.291,0-2.374-0.309-3.248-0.927C277.664,18.092,277.109,17.228,276.873,16.118z"/>
	</g>
	<g>
		<rect x="288.584" y="15.075" style="fill:none;" width="13.359" height="16.152"/>
		<path style="fill:#231F20;" d="M296.217,15.574v8.522h-0.805l-4.761-6.773v6.773h-1.055v-8.522h1.04l4.539,6.481v-6.481H296.217z"
			/>
	</g>
</g>
<g>
	<g>
		<path style="fill:none;stroke:#FF1614;stroke-width:0.75;stroke-linecap:round;stroke-linejoin:round;stroke-dasharray:4,4;" d="
			M17.041,59.879c0,0,0,13.4,0,45.126"/>
		<g>
			<polygon style="fill:#FF1614;" points="15.77,103.517 17.041,104.789 18.312,103.517 18.312,104.596 17.041,105.868 
				15.77,104.596 			"/>
		</g>
	</g>
</g>
<g>
	<g>
		<rect x="11.097" y="111.113" style="fill:none;" width="11.105" height="16.154"/>
		<path style="fill:#231F20;" d="M19.216,123.313v1.332H11.95v-1.021l5.184-6.891h-5.018v-1.333h7.016v1.021l-5.142,6.892H19.216z"
			/>
	</g>
	<g>
		<rect x="23.287" y="120.274" style="fill:none;" width="13.359" height="16.151"/>
		<path style="fill:#231F20;" d="M26.812,120.758v8.536h-1.069v-7.218l-2.109,1.083v-1.11l2.526-1.291H26.812z"/>
	</g>
</g>
<g>
	<g>
		<path style="fill:none;stroke:#FF1614;stroke-width:0.75;stroke-linecap:round;stroke-linejoin:round;stroke-dasharray:4,4;" d="
			M131.218,59.879c0,0,0,13.4,0,45.126"/>
		<g>
			<polygon style="fill:#FF1614;" points="129.947,103.517 131.218,104.789 132.49,103.517 132.49,104.596 131.218,105.868 
				129.947,104.596 			"/>
		</g>
	</g>
</g>
<g>
	<g>
		<rect x="125.276" y="111.113" style="fill:none;" width="11.105" height="16.154"/>
		<path style="fill:#231F20;" d="M133.395,123.313v1.332h-7.266v-1.021l5.184-6.891h-5.018v-1.333h7.016v1.021l-5.142,6.892H133.395
			z"/>
	</g>
	<g>
		<rect x="137.466" y="120.274" style="fill:none;" width="13.359" height="16.151"/>
		<path style="fill:#231F20;" d="M142.198,123.062c0-0.435-0.139-0.784-0.417-1.048c-0.277-0.264-0.652-0.396-1.124-0.396
			c-0.5,0-0.891,0.155-1.173,0.465c-0.282,0.311-0.447,0.725-0.493,1.243h-1.125c0.083-0.806,0.375-1.453,0.875-1.943
			s1.138-0.736,1.916-0.736c0.805,0,1.438,0.218,1.901,0.652c0.463,0.436,0.694,1.019,0.694,1.749c0,0.13-0.016,0.264-0.048,0.402
			c-0.033,0.14-0.065,0.26-0.097,0.361c-0.033,0.102-0.093,0.229-0.181,0.382c-0.088,0.152-0.155,0.266-0.201,0.34
			s-0.139,0.194-0.277,0.361c-0.139,0.166-0.231,0.277-0.278,0.333s-0.155,0.178-0.326,0.367c-0.171,0.19-0.275,0.308-0.312,0.354
			l-2.166,2.373h4.067v0.972h-5.566v-0.722l2.749-3.025c0.416-0.463,0.698-0.777,0.847-0.944c0.147-0.166,0.307-0.402,0.479-0.708
			C142.113,123.59,142.198,123.312,142.198,123.062z"/>
	</g>
</g>
<g>
	<g>
		<path style="fill:none;stroke:#FF1614;stroke-width:0.75;stroke-linecap:round;stroke-linejoin:round;stroke-dasharray:4,4;" d="
			M285.052,59.879c0,0,0,13.4,0,45.126"/>
		<g>
			<polygon style="fill:#FF1614;" points="283.781,103.517 285.052,104.789 286.324,103.517 286.324,104.596 285.052,105.868 
				283.781,104.596 			"/>
		</g>
	</g>
</g>
<g>
	<g>
		<rect x="279.109" y="111.113" style="fill:none;" width="11.104" height="16.154"/>
		<path style="fill:#231F20;" d="M287.227,123.313v1.332h-7.266v-1.021l5.185-6.891h-5.018v-1.333h7.016v1.021l-5.143,6.892H287.227
			z"/>
	</g>
	<g>
		<rect x="291.297" y="120.274" style="fill:none;" width="13.36" height="16.151"/>
		<path style="fill:#231F20;" d="M298.931,120.772v8.522h-0.805l-4.761-6.773v6.773h-1.055v-8.522h1.04l4.539,6.482v-6.482H298.931z
			"/>
	</g>
</g>
<g>
</g>
<g>
</g>
<g>
</g>
<g>
</g>
<g>
</g>
<g>
</g>
<g>
</g>
</svg>
