<?xml version="1.0" encoding="utf-8"?>
<!-- Generator: Adobe Illustrator 16.0.0, SVG Export Plug-In . SVG Version: 6.00 Build 0)  -->
<!DOCTYPE svg PUBLIC "-//W3C//DTD SVG 1.1 Tiny//EN" "http://www.w3.org/Graphics/SVG/1.1/DTD/svg11-tiny.dtd">
<svg version="1.1" baseProfile="tiny" id="Layer_1" xmlns="http://www.w3.org/2000/svg" xmlns:xlink="http://www.w3.org/1999/xlink"
	 x="0px" y="0px" width="265.297px" height="118.724px" viewBox="0 0 265.297 118.724" xml:space="preserve">
<circle fill="none" stroke="#212221" stroke-width="0.75" stroke-miterlimit="10" cx="10.046" cy="35.631" r="9.671"/>
<g>
	
		<path fill="none" stroke="#F288A8" stroke-width="0.75" stroke-linecap="round" stroke-linejoin="round" stroke-dasharray="4,4" d="
		M24.881,36.298c0,0,24.542,0,70.75,0"/>
	<g>
		<polygon fill="#F288A8" points="94.139,37.57 95.411,36.298 94.139,35.027 95.219,35.027 96.49,36.298 95.219,37.57 		"/>
	</g>
</g>
<g>
	<g>
		<rect x="3.231" y="2.901" fill="none" width="9.854" height="14.334"/>
		<path fill="#231F20" d="M3.656,11.955h1.479c0.431,1.256,1.392,1.884,2.882,1.884c0.751,0,1.358-0.175,1.82-0.526
			s0.693-0.834,0.693-1.451c0-0.456-0.142-0.828-0.425-1.118c-0.284-0.289-0.746-0.514-1.386-0.674L6.687,9.535
			C4.876,9.066,3.971,8.093,3.971,6.615c0-0.948,0.351-1.721,1.053-2.319C5.726,3.699,6.619,3.4,7.703,3.4
			c1.146,0,2.069,0.268,2.771,0.804c0.702,0.536,1.164,1.266,1.386,2.189H10.4c-0.407-1.17-1.306-1.755-2.698-1.755
			c-0.69,0-1.253,0.169-1.69,0.508C5.575,5.485,5.356,5.938,5.356,6.504c0,0.468,0.147,0.834,0.443,1.099
			c0.295,0.265,0.751,0.478,1.367,0.638l1.94,0.499c1.885,0.48,2.827,1.497,2.827,3.049c0,1.01-0.367,1.811-1.1,2.402
			s-1.672,0.887-2.817,0.887s-2.106-0.274-2.882-0.822C4.358,13.707,3.866,12.94,3.656,11.955z"/>
	</g>
	<g>
		<rect x="14.049" y="11.029" fill="none" width="11.855" height="14.335"/>
		<path fill="#231F20" d="M17.178,11.46v7.575h-0.949V12.63l-1.872,0.961v-0.985l2.242-1.146H17.178z"/>
	</g>
</g>
<circle fill="none" stroke="#212221" stroke-width="0.75" stroke-miterlimit="10" cx="111.677" cy="35.631" r="9.671"/>
<g>
	<g>
		<rect x="103.693" y="2.901" fill="none" width="9.855" height="14.334"/>
		<path fill="#231F20" d="M104.118,11.955h1.479c0.431,1.256,1.392,1.884,2.882,1.884c0.751,0,1.358-0.175,1.82-0.526
			s0.693-0.834,0.693-1.451c0-0.456-0.142-0.828-0.425-1.118c-0.284-0.289-0.746-0.514-1.386-0.674l-2.033-0.536
			c-1.811-0.468-2.716-1.441-2.716-2.919c0-0.948,0.351-1.721,1.053-2.319c0.702-0.597,1.595-0.896,2.679-0.896
			c1.146,0,2.069,0.268,2.771,0.804c0.702,0.536,1.164,1.266,1.386,2.189h-1.459c-0.407-1.17-1.306-1.755-2.698-1.755
			c-0.69,0-1.253,0.169-1.69,0.508c-0.438,0.339-0.656,0.792-0.656,1.358c0,0.468,0.147,0.834,0.443,1.099
			c0.295,0.265,0.751,0.478,1.367,0.638l1.94,0.499c1.885,0.48,2.827,1.497,2.827,3.049c0,1.01-0.367,1.811-1.1,2.402
			s-1.672,0.887-2.817,0.887s-2.106-0.274-2.882-0.822C104.82,13.707,104.328,12.94,104.118,11.955z"/>
	</g>
	<g>
		<rect x="114.511" y="11.029" fill="none" width="11.856" height="14.335"/>
		<path fill="#231F20" d="M118.711,13.505c0-0.386-0.123-0.696-0.369-0.93c-0.247-0.234-0.579-0.351-0.998-0.351
			c-0.443,0-0.791,0.137-1.041,0.413c-0.25,0.275-0.396,0.643-0.437,1.102h-0.998c0.074-0.714,0.333-1.289,0.776-1.724
			s1.01-0.653,1.7-0.653c0.714,0,1.277,0.193,1.688,0.579c0.411,0.386,0.616,0.904,0.616,1.552c0,0.115-0.015,0.234-0.043,0.357
			c-0.029,0.123-0.058,0.23-0.086,0.32c-0.029,0.091-0.083,0.204-0.16,0.339c-0.078,0.136-0.138,0.236-0.179,0.302
			c-0.041,0.066-0.123,0.172-0.247,0.32c-0.123,0.148-0.205,0.247-0.246,0.296c-0.041,0.049-0.138,0.158-0.29,0.326
			c-0.152,0.168-0.245,0.273-0.277,0.314l-1.921,2.106h3.609v0.862h-4.939v-0.641l2.438-2.685c0.37-0.411,0.62-0.69,0.751-0.838
			c0.131-0.147,0.273-0.357,0.425-0.628C118.635,13.973,118.711,13.727,118.711,13.505z"/>
	</g>
</g>
<g>
	
		<path fill="none" stroke="#F288A8" stroke-width="0.75" stroke-linecap="round" stroke-linejoin="round" stroke-dasharray="4,4" d="
		M126.367,36.298c0,0-5.875,0,39.957,0"/>
	<g>
		<polygon fill="#F288A8" points="164.83,37.57 166.103,36.298 164.83,35.027 165.91,35.027 167.182,36.298 165.91,37.57 		"/>
	</g>
</g>
<g>
	
		<path fill="none" stroke="#F288A8" stroke-width="0.75" stroke-linecap="round" stroke-linejoin="round" stroke-dasharray="4,4" d="
		M194.088,36.298c0,0-6.863,0,38.957,0"/>
	<g>
		<polygon fill="#F288A8" points="231.551,37.57 232.823,36.298 231.551,35.027 232.631,35.027 233.902,36.298 232.631,37.57 		"/>
	</g>
</g>
<g>
	<rect x="169.081" y="25.959" fill="none" width="23.197" height="14.334"/>
	<path fill="#231F20" d="M173.002,36.361c0-0.48,0.164-0.887,0.49-1.22c0.326-0.333,0.729-0.499,1.209-0.499s0.887,0.163,1.221,0.49
		c0.332,0.326,0.498,0.736,0.498,1.229s-0.166,0.905-0.498,1.238c-0.334,0.333-0.74,0.499-1.221,0.499
		c-0.467,0-0.867-0.167-1.201-0.499C173.168,37.267,173.002,36.854,173.002,36.361z"/>
	<path fill="#231F20" d="M178.969,36.361c0-0.48,0.164-0.887,0.49-1.22c0.326-0.333,0.73-0.499,1.211-0.499s0.887,0.163,1.219,0.49
		c0.332,0.326,0.5,0.736,0.5,1.229s-0.168,0.905-0.5,1.238s-0.738,0.499-1.219,0.499c-0.469,0-0.869-0.167-1.201-0.499
		S178.969,36.854,178.969,36.361z"/>
	<path fill="#231F20" d="M184.938,36.361c0-0.48,0.164-0.887,0.49-1.22c0.326-0.333,0.729-0.499,1.209-0.499s0.887,0.163,1.221,0.49
		c0.332,0.326,0.498,0.736,0.498,1.229s-0.166,0.905-0.498,1.238c-0.334,0.333-0.74,0.499-1.221,0.499
		c-0.467,0-0.867-0.167-1.201-0.499C185.104,37.267,184.938,36.854,184.938,36.361z"/>
</g>
<circle fill="none" stroke="#212221" stroke-width="0.75" stroke-miterlimit="10" cx="248.198" cy="35.631" r="9.671"/>
<g>
	<g>
		<rect x="240.215" y="2.901" fill="none" width="9.854" height="14.334"/>
		<path fill="#231F20" d="M240.641,11.955h1.479c0.43,1.256,1.391,1.884,2.881,1.884c0.752,0,1.359-0.175,1.82-0.526
			c0.463-0.351,0.693-0.834,0.693-1.451c0-0.456-0.143-0.828-0.426-1.118c-0.283-0.289-0.744-0.514-1.385-0.674l-2.033-0.536
			c-1.811-0.468-2.715-1.441-2.715-2.919c0-0.948,0.35-1.721,1.053-2.319c0.701-0.597,1.596-0.896,2.68-0.896
			c1.145,0,2.068,0.268,2.771,0.804c0.701,0.536,1.164,1.266,1.385,2.189h-1.459c-0.406-1.17-1.307-1.755-2.697-1.755
			c-0.691,0-1.254,0.169-1.691,0.508c-0.438,0.339-0.656,0.792-0.656,1.358c0,0.468,0.148,0.834,0.443,1.099
			c0.297,0.265,0.752,0.478,1.367,0.638l1.941,0.499c1.883,0.48,2.826,1.497,2.826,3.049c0,1.01-0.367,1.811-1.1,2.402
			s-1.672,0.887-2.818,0.887c-1.145,0-2.105-0.274-2.881-0.822C241.342,13.707,240.85,12.94,240.641,11.955z"/>
	</g>
	<g>
		<rect x="251.031" y="11.029" fill="none" width="11.856" height="14.335"/>
		<path fill="#231F20" d="M257.806,11.473v7.563h-0.714l-4.226-6.011v6.011h-0.936v-7.563h0.924l4.027,5.752v-5.752H257.806z"/>
	</g>
</g>
<g>
	
		<path fill="none" stroke="#7FD8EF" stroke-width="0.75" stroke-linecap="round" stroke-linejoin="round" stroke-dasharray="4,4" d="
		M10.046,50.792c0,0,0,11.867,0,39.957"/>
	<g>
		<polygon fill="#7FD8EF" points="8.775,89.256 10.046,90.527 11.318,89.256 11.318,90.335 10.046,91.606 8.775,90.335 		"/>
	</g>
</g>
<g>
	<g>
		<rect x="4.771" y="96.261" fill="none" width="9.854" height="14.334"/>
		<path fill="#231F20" d="M11.978,107.088v1.183H5.529v-0.905l4.601-6.116H5.677v-1.183h6.227v0.906l-4.563,6.115H11.978z"/>
	</g>
	<g>
		<rect x="15.588" y="104.39" fill="none" width="11.856" height="14.334"/>
		<path fill="#231F20" d="M18.717,104.82v7.576h-0.949v-6.406l-1.872,0.961v-0.984l2.242-1.146H18.717z"/>
	</g>
</g>
<g>
	
		<path fill="none" stroke="#7FD8EF" stroke-width="0.75" stroke-linecap="round" stroke-linejoin="round" stroke-dasharray="4,4" d="
		M111.376,50.792c0,0,0,11.867,0,39.957"/>
	<g>
		<polygon fill="#7FD8EF" points="110.104,89.256 111.376,90.527 112.647,89.256 112.647,90.335 111.376,91.606 110.104,90.335 		
			"/>
	</g>
</g>
<g>
	<g>
		<rect x="106.101" y="96.261" fill="none" width="9.855" height="14.334"/>
		<path fill="#231F20" d="M113.307,107.088v1.183h-6.449v-0.905l4.601-6.116h-4.453v-1.183h6.227v0.906l-4.563,6.115H113.307z"/>
	</g>
	<g>
		<rect x="116.918" y="104.39" fill="none" width="11.856" height="14.334"/>
		<path fill="#231F20" d="M121.118,106.865c0-0.387-0.123-0.695-0.369-0.93c-0.247-0.234-0.579-0.352-0.998-0.352
			c-0.443,0-0.791,0.139-1.041,0.412c-0.25,0.275-0.396,0.643-0.437,1.104h-0.998c0.074-0.715,0.333-1.289,0.776-1.725
			s1.01-0.652,1.7-0.652c0.714,0,1.277,0.193,1.688,0.578c0.411,0.387,0.616,0.904,0.616,1.553c0,0.115-0.015,0.234-0.043,0.357
			s-0.058,0.229-0.086,0.32c-0.029,0.09-0.083,0.203-0.16,0.338c-0.078,0.135-0.138,0.236-0.179,0.303
			c-0.041,0.064-0.123,0.172-0.247,0.32c-0.123,0.146-0.205,0.246-0.246,0.295s-0.138,0.158-0.29,0.326s-0.245,0.273-0.277,0.314
			l-1.921,2.105h3.609v0.863h-4.939v-0.641l2.438-2.686c0.37-0.41,0.62-0.689,0.751-0.838s0.273-0.357,0.425-0.629
			C121.042,107.334,121.118,107.088,121.118,106.865z"/>
	</g>
</g>
<g>
	
		<path fill="none" stroke="#7FD8EF" stroke-width="0.75" stroke-linecap="round" stroke-linejoin="round" stroke-dasharray="4,4" d="
		M247.898,50.792c0,0,0,11.867,0,39.957"/>
	<g>
		<polygon fill="#7FD8EF" points="246.627,89.256 247.898,90.527 249.17,89.256 249.17,90.335 247.898,91.606 246.627,90.335 		"/>
	</g>
</g>
<g>
	<g>
		<rect x="242.623" y="96.261" fill="none" width="9.855" height="14.334"/>
		<path fill="#231F20" d="M249.829,107.088v1.183h-6.448v-0.905l4.601-6.116h-4.453v-1.183h6.227v0.906l-4.563,6.115H249.829z"/>
	</g>
	<g>
		<rect x="253.44" y="104.39" fill="none" width="11.856" height="14.334"/>
		<path fill="#231F20" d="M260.215,104.832v7.564h-0.714l-4.226-6.012v6.012h-0.936v-7.564h0.924l4.027,5.754v-5.754H260.215z"/>
	</g>
</g>
<g>
</g>
<g>
</g>
<g>
</g>
<g>
</g>
<g>
</g>
<g>
</g>
<g>
</g>
</svg>
