<?xml version="1.0" encoding="iso-8859-1"?>
<!-- Generator: Adobe Illustrator 16.0.0, SVG Export Plug-In . SVG Version: 6.00 Build 0)  -->
<!DOCTYPE svg PUBLIC "-//W3C//DTD SVG 1.1//EN" "http://www.w3.org/Graphics/SVG/1.1/DTD/svg11.dtd">
<svg version="1.1" id="Layer_1" xmlns="http://www.w3.org/2000/svg" xmlns:xlink="http://www.w3.org/1999/xlink" x="0px" y="0px"
	 width="314.62px" height="173.633px" viewBox="0 0 314.62 173.633" style="enable-background:new 0 0 314.62 173.633;"
	 xml:space="preserve">
<circle style="fill:none;stroke:#212221;stroke-width:0.75;stroke-miterlimit:10;" cx="217.069" cy="44.405" r="10.008"/>
<g>
	<g>
		<g>
			<path style="fill:none;stroke:#386DF9;stroke-width:0.75;stroke-linecap:round;stroke-linejoin:round;stroke-dasharray:4,4;" d="
				M82.146,49.052c0,0-21.016,9.579-34.025,2.102c-14.722-8.462,1.307-16.612,33.174-11.686"/>
			<g>
				<polygon style="fill:#386DF9;" points="79.641,40.537 81.077,39.453 79.993,38.018 81.062,38.167 82.146,39.602 80.71,40.686 
									"/>
			</g>
		</g>
	</g>
</g>
<g>
	<g>
		<circle style="fill:none;stroke:#212221;stroke-width:0.75;stroke-miterlimit:10;" cx="99.366" cy="44.404" r="12.092"/>
	</g>
</g>
<g>
	<g>
		<path style="fill:none;stroke:#386DF9;stroke-width:0.75;stroke-linecap:round;stroke-linejoin:round;stroke-dasharray:4,4;" d="
			M115.828,33.073c0,0,28.699-25.74,79.893-1.067"/>
		<g>
			<polygon style="fill:#386DF9;" points="193.827,32.542 195.516,31.926 194.9,30.237 195.878,30.692 196.495,32.382 
				194.805,32.998 			"/>
		</g>
	</g>
</g>
<g>
	<rect x="196.497" y="15.498" style="fill:none;" width="49.574" height="14.81"/>
	<path style="fill:#A7A9AC;" d="M196.862,23.304h1.274c0.372,1.083,1.2,1.625,2.486,1.625c0.647,0,1.171-0.151,1.569-0.454
		c0.398-0.302,0.597-0.719,0.597-1.25c0-0.393-0.122-0.714-0.366-0.964s-0.643-0.443-1.194-0.582l-1.753-0.462
		c-1.562-0.404-2.342-1.243-2.342-2.518c0-0.818,0.303-1.484,0.908-2s1.375-0.773,2.31-0.773c0.988,0,1.785,0.231,2.391,0.693
		c0.604,0.462,1.003,1.091,1.194,1.888h-1.259c-0.351-1.009-1.126-1.513-2.326-1.513c-0.595,0-1.081,0.146-1.458,0.438
		c-0.377,0.292-0.565,0.683-0.565,1.171c0,0.404,0.128,0.72,0.383,0.948s0.647,0.412,1.179,0.549l1.673,0.431
		c1.625,0.414,2.438,1.291,2.438,2.628c0,0.871-0.315,1.562-0.947,2.071c-0.633,0.51-1.442,0.765-2.43,0.765
		c-0.988,0-1.816-0.236-2.486-0.709C197.467,24.815,197.042,24.154,196.862,23.304z"/>
	<path style="fill:#A7A9AC;" d="M211.711,18.779v7.074H210.5v-0.892c-0.213,0.297-0.5,0.544-0.86,0.741
		c-0.361,0.196-0.76,0.295-1.195,0.295c-0.786,0-1.395-0.234-1.824-0.701c-0.431-0.467-0.646-1.094-0.646-1.88v-4.637h1.211v4.445
		c0,0.521,0.128,0.93,0.383,1.227s0.643,0.446,1.163,0.446c0.403,0,0.767-0.122,1.091-0.366s0.55-0.563,0.678-0.956v-4.796H211.711z
		"/>
	<path style="fill:#A7A9AC;" d="M214.228,25.854v-7.074h1.195v0.892c0.223-0.297,0.518-0.544,0.884-0.741
		c0.366-0.196,0.768-0.294,1.203-0.294c0.786,0,1.396,0.233,1.832,0.701c0.436,0.468,0.653,1.094,0.653,1.88v4.636h-1.211v-4.445
		c0-0.51-0.13-0.916-0.39-1.219c-0.261-0.303-0.651-0.454-1.172-0.454c-0.414,0-0.786,0.125-1.115,0.375s-0.558,0.565-0.685,0.948
		v4.796H214.228z"/>
	<path style="fill:#A7A9AC;" d="M222.417,25.854v-7.074h1.195v0.892c0.223-0.297,0.518-0.544,0.884-0.741
		c0.366-0.196,0.768-0.294,1.203-0.294c0.786,0,1.396,0.233,1.832,0.701c0.436,0.468,0.653,1.094,0.653,1.88v4.636h-1.211v-4.445
		c0-0.51-0.13-0.916-0.39-1.219c-0.261-0.303-0.651-0.454-1.172-0.454c-0.414,0-0.786,0.125-1.115,0.375s-0.558,0.565-0.685,0.948
		v4.796H222.417z"/>
	<path style="fill:#A7A9AC;" d="M232.615,28.562h-1.179l1.067-2.661l-2.756-7.122h1.29l2.087,5.577l2.056-5.577h1.243
		L232.615,28.562z"/>
</g>
<g>
	<rect x="8.757" y="39.35" style="fill:none;" width="26.92" height="26.13"/>
	<path style="fill:#231F20;" d="M16.545,42.79c0,1.549-0.33,3.098-1.004,4.489c-0.674,1.391-1.936,2.338-3.528,2.338
		c-1.764,0-2.653-1.276-2.653-3.442c0-1.549,0.33-3.098,1.004-4.489c0.674-1.392,1.937-2.338,3.528-2.338
		C15.627,39.347,16.545,40.624,16.545,42.79z M11.065,42.302c-0.516,1.219-0.774,2.553-0.774,3.657c0,1.836,0.631,2.854,1.879,2.854
		c1.19,0,2.152-0.918,2.668-2.137c0.516-1.248,0.774-2.567,0.774-3.672c0-1.836-0.631-2.854-1.879-2.854
		C12.543,40.15,11.582,41.054,11.065,42.302z"/>
	<path style="fill:#231F20;" d="M19.727,48.068c0.416,0,0.731,0.315,0.731,0.731s-0.315,0.731-0.731,0.731s-0.731-0.287-0.731-0.731
		C18.995,48.383,19.311,48.068,19.727,48.068z"/>
	<path style="fill:#231F20;" d="M30.482,45.773c0,1.104-0.344,2.022-1.018,2.754c-0.674,0.731-1.549,1.09-2.639,1.09
		c-1.535,0-2.467-1.076-2.467-2.61c0-1.033,0.33-1.965,0.99-2.812l3.815-4.848h0.99l-3.041,3.973
		c0.244-0.158,0.545-0.244,0.933-0.244C29.579,43.076,30.482,44.037,30.482,45.773z M26.007,44.797
		c-0.502,0.617-0.746,1.319-0.746,2.137c0,1.147,0.631,1.879,1.721,1.879c0.774,0,1.406-0.287,1.879-0.875
		c0.473-0.588,0.717-1.276,0.717-2.08c0-1.32-0.617-1.979-1.692-1.979C27.14,43.879,26.509,44.181,26.007,44.797z"/>
</g>
<g>
	<rect x="146.517" y="5.929" style="fill:none;" width="150.666" height="26.133"/>
	<path style="fill:#231F20;" d="M154.305,9.368c0,1.549-0.33,3.099-1.004,4.49c-0.674,1.391-1.936,2.338-3.528,2.338
		c-1.764,0-2.653-1.276-2.653-3.442c0-1.549,0.33-3.098,1.004-4.489c0.674-1.392,1.937-2.338,3.528-2.338
		C153.387,5.925,154.305,7.202,154.305,9.368z M148.825,8.88c-0.516,1.219-0.774,2.553-0.774,3.657c0,1.836,0.631,2.854,1.879,2.854
		c1.19,0,2.152-0.918,2.668-2.137c0.516-1.248,0.774-2.567,0.774-3.672c0-1.836-0.631-2.854-1.879-2.854
		C150.303,6.729,149.342,7.632,148.825,8.88z"/>
	<path style="fill:#231F20;" d="M157.486,14.646c0.416,0,0.731,0.316,0.731,0.732c0,0.416-0.315,0.731-0.731,0.731
		s-0.731-0.287-0.731-0.731C156.755,14.962,157.07,14.646,157.486,14.646z"/>
	<path style="fill:#231F20;" d="M165.417,16.081l0.459-2.309h-4.331l0.043-0.244l5.594-7.487h1.104l-1.349,6.928h1.291l-0.157,0.803
		h-1.291l-0.459,2.309H165.417z M162.964,12.968h3.069l1.09-5.666L162.964,12.968z"/>
</g>
<g>
	<g>
		<path style="fill:none;stroke:#386DF9;stroke-width:0.75;stroke-linecap:round;stroke-linejoin:round;stroke-dasharray:4,4;" d="
			M196.495,54.905c0,0-28.699,25.74-79.893,1.066"/>
		<g>
			<polygon style="fill:#386DF9;" points="118.496,55.435 116.806,56.051 117.422,57.74 116.444,57.285 115.828,55.595 
				117.517,54.979 			"/>
		</g>
	</g>
</g>
<g>
	<rect x="146.518" y="72.82" style="fill:none;" width="32.232" height="26.132"/>
	<path style="fill:#231F20;" d="M154.306,76.259c0,1.549-0.33,3.098-1.004,4.489c-0.674,1.391-1.936,2.338-3.528,2.338
		c-1.764,0-2.653-1.276-2.653-3.442c0-1.549,0.33-3.098,1.004-4.489c0.674-1.392,1.937-2.338,3.528-2.338
		C153.388,72.817,154.306,74.093,154.306,76.259z M148.826,75.771c-0.516,1.219-0.774,2.553-0.774,3.657
		c0,1.836,0.631,2.854,1.879,2.854c1.19,0,2.152-0.918,2.668-2.137c0.516-1.248,0.774-2.567,0.774-3.672
		c0-1.836-0.631-2.854-1.879-2.854C150.304,73.62,149.343,74.523,148.826,75.771z"/>
	<path style="fill:#231F20;" d="M157.487,81.538c0.416,0,0.731,0.315,0.731,0.731S157.903,83,157.487,83s-0.731-0.287-0.731-0.731
		C156.756,81.853,157.071,81.538,157.487,81.538z"/>
	<path style="fill:#231F20;" d="M161.459,82.972l0.057-0.33l4.476-4.776c0.416-0.445,0.717-0.775,0.889-0.99
		c0.359-0.445,0.703-1.076,0.703-1.721c0-0.976-0.487-1.535-1.42-1.535c-1.032,0-1.821,0.789-2.151,2.037l-0.817-0.172
		c0.387-1.678,1.478-2.667,3.127-2.667c1.305,0,2.194,0.86,2.194,2.123c0,0.617-0.129,1.176-0.401,1.664
		c-0.272,0.474-0.718,1.047-1.349,1.707l-3.657,3.858h4.288l-0.157,0.803H161.459z"/>
</g>
<g>
	<g>
		<g>
			<path style="fill:none;stroke:#386DF9;stroke-width:0.75;stroke-linecap:round;stroke-linejoin:round;stroke-dasharray:4,4;" d="
				M232.989,49.052c0,0,21.018,9.579,34.024,2.102c14.722-8.462-1.306-16.612-33.174-11.686"/>
			<g>
				<polygon style="fill:#386DF9;" points="235.141,38.018 234.057,39.453 235.493,40.537 234.423,40.686 232.989,39.602 
					234.073,38.167 				"/>
			</g>
		</g>
	</g>
</g>
<g>
	<rect x="278.94" y="39.35" style="fill:none;" width="26.924" height="26.13"/>
	<path style="fill:#231F20;" d="M286.728,42.79c0,1.549-0.329,3.098-1.004,4.489c-0.674,1.391-1.937,2.338-3.528,2.338
		c-1.764,0-2.653-1.276-2.653-3.442c0-1.549,0.33-3.098,1.004-4.489c0.674-1.392,1.937-2.338,3.528-2.338
		C285.81,39.347,286.728,40.624,286.728,42.79z M281.25,42.302c-0.517,1.219-0.774,2.553-0.774,3.657
		c0,1.836,0.631,2.854,1.879,2.854c1.19,0,2.151-0.918,2.668-2.137c0.516-1.248,0.774-2.567,0.774-3.672
		c0-1.836-0.632-2.854-1.879-2.854C282.727,40.15,281.765,41.054,281.25,42.302z"/>
	<path style="fill:#231F20;" d="M289.91,48.068c0.416,0,0.731,0.315,0.731,0.731s-0.315,0.731-0.731,0.731s-0.731-0.287-0.731-0.731
		C289.178,48.383,289.494,48.068,289.91,48.068z"/>
	<path style="fill:#231F20;" d="M301.053,41.599c0,1.248-0.674,2.223-1.707,2.611c0.632,0.287,1.091,0.989,1.091,2.08
		c0,1.062-0.302,1.865-0.918,2.424c-0.789,0.703-1.449,0.904-2.597,0.904c-0.717,0-1.319-0.244-1.807-0.717
		c-0.474-0.473-0.718-1.09-0.718-1.85c0-1.492,0.688-2.481,2.08-2.983c-0.603-0.445-0.903-1.047-0.903-1.807
		c0-0.918,0.373-1.678,1.104-2.267c0.53-0.43,1.247-0.645,2.151-0.645C300.208,39.347,301.053,40.236,301.053,41.599z
		 M296.019,45.242c-0.474,0.444-0.717,1.018-0.717,1.75c0,1.076,0.745,1.822,1.778,1.822c1.534,0,2.496-0.975,2.496-2.41
		c0-1.162-0.675-1.836-1.765-1.836C297.109,44.568,296.506,44.797,296.019,45.242z M297.109,40.709
		c-0.416,0.387-0.631,0.904-0.631,1.521c0,0.918,0.53,1.535,1.491,1.535c0.617,0,1.134-0.201,1.55-0.588s0.631-0.904,0.631-1.521
		c0-0.976-0.53-1.535-1.463-1.535C298.07,40.122,297.54,40.322,297.109,40.709z"/>
</g>
<g>
	<rect x="72.57" y="13.905" style="fill:none;" width="45.779" height="14.81"/>
	<path style="fill:#A7A9AC;" d="M86.659,20.118h-1.736v4.143h-1.259v-9.783h3.633c0.998,0,1.782,0.245,2.35,0.733
		c0.568,0.489,0.852,1.19,0.852,2.103c0,0.797-0.218,1.429-0.653,1.896c-0.436,0.468-1.046,0.754-1.833,0.86l2.884,4.19h-1.434
		L86.659,20.118z M84.923,15.577v3.473h2.342c0.638,0,1.129-0.154,1.474-0.462c0.345-0.308,0.518-0.733,0.518-1.275
		c0-0.542-0.173-0.966-0.518-1.274c-0.345-0.308-0.836-0.462-1.474-0.462H84.923z"/>
	<path style="fill:#A7A9AC;" d="M97.892,24.26h-1.147v-0.526c-0.149,0.16-0.398,0.308-0.749,0.446
		c-0.351,0.138-0.722,0.207-1.115,0.207c-0.744,0-1.368-0.207-1.872-0.622c-0.504-0.414-0.757-0.961-0.757-1.641
		c0-0.648,0.26-1.179,0.781-1.593c0.521-0.415,1.163-0.622,1.928-0.622c0.351,0,0.696,0.059,1.036,0.175
		c0.34,0.117,0.589,0.25,0.749,0.398v-0.893c0-0.457-0.136-0.823-0.406-1.099c-0.271-0.276-0.656-0.415-1.155-0.415
		c-0.744,0-1.227,0.324-1.45,0.972h-1.179c0.117-0.595,0.417-1.078,0.9-1.45c0.483-0.372,1.064-0.558,1.745-0.558
		c0.839,0,1.498,0.223,1.976,0.669s0.717,1.057,0.717,1.832V24.26z M96.745,22.508v-0.733c-0.106-0.255-0.316-0.465-0.629-0.629
		c-0.313-0.165-0.656-0.247-1.028-0.247c-0.467,0-0.866,0.106-1.195,0.319c-0.33,0.212-0.494,0.515-0.494,0.908
		c0,0.404,0.165,0.714,0.494,0.932c0.329,0.218,0.728,0.327,1.195,0.327c0.372,0,0.714-0.082,1.028-0.247
		C96.428,22.973,96.638,22.763,96.745,22.508z"/>
	<path style="fill:#A7A9AC;" d="M101.468,14.509c0.154,0.149,0.231,0.33,0.231,0.542s-0.077,0.393-0.231,0.542
		c-0.154,0.149-0.337,0.223-0.549,0.223c-0.213,0-0.394-0.074-0.542-0.223c-0.149-0.148-0.223-0.329-0.223-0.542
		s0.074-0.393,0.223-0.542c0.148-0.148,0.329-0.223,0.542-0.223C101.131,14.286,101.314,14.361,101.468,14.509z M101.524,17.186
		v7.074h-1.195v-7.074H101.524z"/>
	<path style="fill:#A7A9AC;" d="M104.057,24.26v-7.074h1.195v0.892c0.223-0.297,0.518-0.544,0.884-0.741
		c0.367-0.196,0.768-0.294,1.203-0.294c0.786,0,1.396,0.233,1.833,0.701c0.435,0.468,0.653,1.094,0.653,1.88v4.636h-1.211v-4.445
		c0-0.51-0.13-0.916-0.39-1.219s-0.651-0.454-1.171-0.454c-0.415,0-0.786,0.125-1.115,0.375c-0.33,0.25-0.558,0.565-0.686,0.948
		v4.796H104.057z"/>
	<path style="fill:#A7A9AC;" d="M114.254,26.969h-1.179l1.067-2.661l-2.756-7.122h1.291l2.087,5.577l2.055-5.577h1.243
		L114.254,26.969z"/>
</g>
<g>
	<rect x="93.104" y="38.586" style="fill:none;" width="12.527" height="14.81"/>
	<path style="fill:#231F20;" d="M99.117,45.091h-1.818v4.336h-1.317V39.187h3.803c1.045,0,1.865,0.256,2.46,0.767
		c0.595,0.512,0.893,1.246,0.893,2.202c0,0.834-0.228,1.496-0.684,1.985s-1.095,0.79-1.918,0.9l3.019,4.387h-1.501L99.117,45.091z
		 M97.299,40.337v3.636h2.452c0.667,0,1.182-0.161,1.543-0.483c0.361-0.323,0.542-0.768,0.542-1.334
		c0-0.567-0.181-1.012-0.542-1.334c-0.361-0.322-0.875-0.483-1.543-0.483H97.299z"/>
</g>
<g>
	<rect x="210.807" y="38.586" style="fill:none;" width="12.527" height="14.81"/>
	<path style="fill:#231F20;" d="M213.208,46.759h1.334c0.39,1.134,1.257,1.701,2.603,1.701c0.678,0,1.226-0.159,1.643-0.476
		s0.625-0.753,0.625-1.309c0-0.411-0.128-0.748-0.384-1.009c-0.256-0.261-0.673-0.464-1.25-0.609l-1.835-0.483
		c-1.635-0.422-2.452-1.301-2.452-2.635c0-0.856,0.317-1.554,0.951-2.093c0.634-0.539,1.439-0.809,2.418-0.809
		c1.034,0,1.868,0.242,2.502,0.726c0.634,0.484,1.051,1.143,1.251,1.977h-1.317c-0.367-1.056-1.179-1.584-2.436-1.584
		c-0.623,0-1.132,0.153-1.526,0.458c-0.395,0.306-0.592,0.715-0.592,1.226c0,0.423,0.134,0.753,0.4,0.992
		c0.267,0.239,0.678,0.431,1.234,0.576l1.751,0.45c1.701,0.434,2.552,1.351,2.552,2.752c0,0.912-0.331,1.635-0.992,2.168
		s-1.51,0.8-2.543,0.8c-1.034,0-1.902-0.247-2.603-0.742C213.842,48.34,213.397,47.648,213.208,46.759z"/>
</g>
<g>
	<g>
		<path style="fill:none;stroke:#FF1614;stroke-width:0.75;stroke-linecap:round;stroke-linejoin:round;stroke-dasharray:4,4;" d="
			M215.488,59.717c0,0,1.021,13.822-4.682,33.393c-3.372,11.564-15.026,19.3-14.352,37.911"/>
		<g>
			<polygon style="fill:#FF1614;" points="195.187,129.549 196.478,130.801 197.73,129.51 197.747,130.589 196.495,131.88 
				195.204,130.628 			"/>
		</g>
	</g>
</g>
<g>
	<g>
		<path style="fill:none;stroke:#FF1614;stroke-width:0.75;stroke-linecap:round;stroke-linejoin:round;stroke-dasharray:4,4;" d="
			M220.396,59.717c0,0-1.02,13.822,4.683,33.393c3.372,11.564,15.026,19.3,14.352,37.911"/>
		<g>
			<polygon style="fill:#FF1614;" points="238.156,129.51 239.408,130.801 240.699,129.549 240.682,130.628 239.391,131.88 
				238.139,130.589 			"/>
		</g>
	</g>
</g>
<g>
	<rect x="190.165" y="134.535" style="fill:none;" width="12.527" height="14.812"/>
	<path style="fill:#231F20;" d="M199.322,135.133h1.317v10.241h-1.317v-4.67h-5.788v4.67h-1.317v-10.241h1.317v4.387h5.788V135.133z
		"/>
</g>
<g>
	<rect x="233.196" y="134.535" style="fill:none;" width="12.527" height="14.812"/>
	<path style="fill:#231F20;" d="M242.678,141.455h-2.451v-1.134h3.702v0.7c0,1.357-0.392,2.446-1.176,3.27
		c-0.783,0.823-1.804,1.234-3.061,1.234c-1.356,0-2.479-0.484-3.369-1.451c-0.89-0.968-1.334-2.24-1.334-3.819
		c0-1.568,0.444-2.838,1.334-3.812c0.89-0.973,2.002-1.459,3.336-1.459c1.067,0,1.954,0.283,2.66,0.851
		c0.706,0.566,1.165,1.334,1.376,2.302h-1.317c-0.479-1.312-1.385-1.969-2.719-1.969c-1.001,0-1.81,0.376-2.427,1.126
		c-0.617,0.751-0.926,1.737-0.926,2.961c0,1.223,0.312,2.213,0.935,2.969c0.622,0.756,1.439,1.134,2.451,1.134
		c0.879,0,1.576-0.259,2.094-0.775C242.303,143.065,242.601,142.356,242.678,141.455z"/>
</g>
<g>
	<rect x="233.856" y="93.852" style="fill:none;" width="26.922" height="26.132"/>
	<path style="fill:#231F20;" d="M240.774,96.914c0,1.376-0.293,2.752-0.892,3.988c-0.599,1.235-1.72,2.076-3.134,2.076
		c-1.567,0-2.357-1.134-2.357-3.058c0-1.376,0.293-2.752,0.892-3.988c0.599-1.235,1.721-2.076,3.135-2.076
		C239.958,93.856,240.774,94.99,240.774,96.914z M235.908,96.48c-0.459,1.083-0.688,2.269-0.688,3.249
		c0,1.631,0.561,2.536,1.669,2.536c1.058,0,1.911-0.815,2.37-1.898c0.459-1.108,0.688-2.281,0.688-3.262
		c0-1.631-0.561-2.536-1.669-2.536C237.219,94.569,236.366,95.372,235.908,96.48z"/>
	<path style="fill:#231F20;" d="M243.606,101.602c0.369,0,0.649,0.28,0.649,0.65c0,0.369-0.28,0.649-0.649,0.649
		c-0.37,0-0.65-0.255-0.65-0.649C242.956,101.882,243.236,101.602,243.606,101.602z"/>
	<path style="fill:#231F20;" d="M250.705,93.958h0.217l-1.746,8.919h-0.803l1.479-7.568l-1.656,0.931l0.19-0.969L250.705,93.958z"/>
</g>
<g>
	<rect x="175.887" y="93.852" style="fill:none;" width="26.92" height="26.132"/>
	<path style="fill:#231F20;" d="M189.319,96.914c0,1.376-0.293,2.752-0.892,3.988c-0.599,1.235-1.72,2.076-3.134,2.076
		c-1.567,0-2.357-1.134-2.357-3.058c0-1.376,0.293-2.752,0.892-3.988c0.599-1.235,1.721-2.076,3.135-2.076
		C188.503,93.856,189.319,94.99,189.319,96.914z M184.453,96.48c-0.459,1.083-0.688,2.269-0.688,3.249
		c0,1.631,0.561,2.536,1.669,2.536c1.058,0,1.911-0.815,2.37-1.898c0.459-1.108,0.688-2.281,0.688-3.262
		c0-1.631-0.561-2.536-1.669-2.536C185.764,94.569,184.911,95.372,184.453,96.48z"/>
	<path style="fill:#231F20;" d="M192.151,101.602c0.369,0,0.649,0.28,0.649,0.65c0,0.369-0.28,0.649-0.649,0.649
		c-0.37,0-0.65-0.255-0.65-0.649C191.5,101.882,191.781,101.602,192.151,101.602z"/>
	<path style="fill:#231F20;" d="M196.854,97.27c0-0.98,0.293-1.783,0.892-2.434c0.6-0.649,1.389-0.98,2.357-0.98
		c1.363,0,2.191,0.955,2.191,2.318c0,0.918-0.293,1.746-0.879,2.498l-3.39,4.306h-0.879l2.701-3.529
		c-0.217,0.141-0.484,0.217-0.828,0.217C197.657,99.666,196.854,98.812,196.854,97.27z M200.817,98.137
		c0.445-0.548,0.675-1.173,0.675-1.898c0-1.02-0.561-1.67-1.528-1.67c-0.688,0-1.249,0.255-1.67,0.777
		c-0.42,0.522-0.637,1.134-0.637,1.848c0,1.172,0.548,1.759,1.504,1.759C199.823,98.953,200.371,98.685,200.817,98.137z"/>
</g>
<g>
	<g>
		<path style="fill:none;stroke:#FF1614;stroke-width:0.75;stroke-linecap:round;stroke-linejoin:round;stroke-dasharray:4,4;" d="
			M97.32,59.717c0,0,1.021,13.822-4.683,33.393c-3.372,11.564-15.026,19.3-14.35,37.911"/>
		<g>
			<polygon style="fill:#FF1614;" points="77.019,129.549 78.31,130.801 79.562,129.51 79.578,130.589 78.327,131.88 
				77.036,130.628 			"/>
		</g>
	</g>
</g>
<g>
	<g>
		<path style="fill:none;stroke:#FF1614;stroke-width:0.75;stroke-linecap:round;stroke-linejoin:round;stroke-dasharray:4,4;" d="
			M102.229,59.717c0,0-1.021,13.822,4.683,33.393c3.371,11.564,15.026,19.3,14.35,37.911"/>
		<g>
			<polygon style="fill:#FF1614;" points="119.987,129.51 121.238,130.801 122.529,129.549 122.513,130.628 121.222,131.88 
				119.97,130.589 			"/>
		</g>
	</g>
</g>
<g>
	<rect x="71.996" y="134.535" style="fill:none;" width="12.527" height="14.812"/>
	<path style="fill:#231F20;" d="M81.153,135.133h1.318v10.241h-1.318v-4.67h-5.788v4.67h-1.317v-10.241h1.317v4.387h5.788V135.133z"
		/>
</g>
<g>
	<rect x="115.027" y="134.535" style="fill:none;" width="12.528" height="14.812"/>
	<path style="fill:#231F20;" d="M124.51,141.455h-2.452v-1.134h3.703v0.7c0,1.357-0.392,2.446-1.176,3.27
		c-0.784,0.823-1.804,1.234-3.061,1.234c-1.357,0-2.48-0.484-3.369-1.451c-0.89-0.968-1.334-2.24-1.334-3.819
		c0-1.568,0.444-2.838,1.334-3.812c0.889-0.973,2.001-1.459,3.335-1.459c1.067,0,1.954,0.283,2.661,0.851
		c0.706,0.566,1.165,1.334,1.376,2.302h-1.318c-0.478-1.312-1.384-1.969-2.719-1.969c-1,0-1.81,0.376-2.427,1.126
		c-0.617,0.751-0.926,1.737-0.926,2.961c0,1.223,0.312,2.213,0.934,2.969s1.44,1.134,2.452,1.134c0.878,0,1.576-0.259,2.093-0.775
		C124.134,143.065,124.432,142.356,124.51,141.455z"/>
</g>
<g>
	<rect x="115.688" y="93.852" style="fill:none;" width="26.921" height="26.132"/>
	<path style="fill:#231F20;" d="M122.606,96.914c0,1.376-0.293,2.752-0.892,3.988c-0.599,1.235-1.72,2.076-3.134,2.076
		c-1.567,0-2.357-1.134-2.357-3.058c0-1.376,0.293-2.752,0.892-3.988c0.599-1.235,1.72-2.076,3.134-2.076
		C121.791,93.856,122.606,94.99,122.606,96.914z M117.739,96.48c-0.458,1.083-0.688,2.269-0.688,3.249
		c0,1.631,0.561,2.536,1.669,2.536c1.058,0,1.911-0.815,2.37-1.898c0.458-1.108,0.688-2.281,0.688-3.262
		c0-1.631-0.561-2.536-1.669-2.536C119.051,94.569,118.197,95.372,117.739,96.48z"/>
	<path style="fill:#231F20;" d="M125.438,101.602c0.369,0,0.649,0.28,0.649,0.65c0,0.369-0.28,0.649-0.649,0.649
		c-0.37,0-0.65-0.255-0.65-0.649C124.788,101.882,125.068,101.602,125.438,101.602z"/>
	<path style="fill:#231F20;" d="M134.996,99.564c0,0.98-0.306,1.796-0.905,2.446c-0.599,0.649-1.376,0.968-2.344,0.968
		c-1.363,0-2.191-0.955-2.191-2.318c0-0.918,0.293-1.746,0.879-2.497l3.389-4.307h0.879l-2.701,3.529
		c0.216-0.141,0.484-0.217,0.828-0.217C134.193,97.168,134.996,98.022,134.996,99.564z M131.021,98.698
		c-0.446,0.548-0.663,1.172-0.663,1.898c0,1.019,0.561,1.669,1.529,1.669c0.688,0,1.249-0.255,1.669-0.777s0.637-1.134,0.637-1.848
		c0-1.172-0.548-1.758-1.503-1.758C132.027,97.882,131.466,98.15,131.021,98.698z"/>
</g>
<g>
	<rect x="57.718" y="93.852" style="fill:none;" width="26.921" height="26.132"/>
	<path style="fill:#231F20;" d="M71.406,96.914c0,1.376-0.293,2.752-0.892,3.988c-0.599,1.235-1.72,2.076-3.134,2.076
		c-1.567,0-2.357-1.134-2.357-3.058c0-1.376,0.293-2.752,0.892-3.988c0.599-1.235,1.72-2.076,3.135-2.076
		C70.591,93.856,71.406,94.99,71.406,96.914z M66.539,96.48c-0.458,1.083-0.688,2.269-0.688,3.249c0,1.631,0.561,2.536,1.669,2.536
		c1.058,0,1.911-0.815,2.37-1.898c0.458-1.108,0.688-2.281,0.688-3.262c0-1.631-0.561-2.536-1.669-2.536
		C67.852,94.569,66.998,95.372,66.539,96.48z"/>
	<path style="fill:#231F20;" d="M74.238,101.602c0.37,0,0.65,0.28,0.65,0.65c0,0.369-0.28,0.649-0.65,0.649
		c-0.369,0-0.649-0.255-0.649-0.649C73.588,101.882,73.869,101.602,74.238,101.602z"/>
	<path style="fill:#231F20;" d="M81.286,102.876l0.408-2.052h-3.848l0.038-0.216l4.969-6.651h0.981l-1.198,6.154h1.147l-0.14,0.713
		h-1.147l-0.408,2.052H81.286z M79.107,100.112h2.727l0.969-5.033L79.107,100.112z"/>
</g>
<g>
	<rect x="32.88" y="153.051" style="fill:none;" width="49.268" height="14.81"/>
	<path style="fill:#A7A9AC;" d="M47.844,153.625h1.259v9.782h-1.259v-4.461h-5.528v4.461h-1.259v-9.782h1.259v4.189h5.528V153.625z"
		/>
	<path style="fill:#A7A9AC;" d="M56.862,163.408h-1.147v-0.525c-0.149,0.159-0.398,0.308-0.749,0.445
		c-0.351,0.139-0.722,0.208-1.115,0.208c-0.744,0-1.368-0.208-1.872-0.622s-0.757-0.961-0.757-1.641c0-0.648,0.26-1.18,0.781-1.594
		s1.163-0.621,1.928-0.621c0.351,0,0.696,0.059,1.036,0.175c0.34,0.117,0.589,0.25,0.749,0.398v-0.892
		c0-0.457-0.136-0.823-0.406-1.1c-0.271-0.276-0.656-0.414-1.155-0.414c-0.744,0-1.227,0.324-1.45,0.972h-1.179
		c0.117-0.595,0.417-1.078,0.9-1.45c0.483-0.371,1.064-0.558,1.745-0.558c0.839,0,1.498,0.224,1.976,0.669
		c0.478,0.446,0.717,1.058,0.717,1.833V163.408z M55.715,161.655v-0.732c-0.106-0.255-0.316-0.465-0.629-0.63
		c-0.313-0.164-0.656-0.246-1.028-0.246c-0.467,0-0.866,0.105-1.195,0.318c-0.33,0.213-0.494,0.516-0.494,0.908
		c0,0.403,0.165,0.714,0.494,0.932c0.329,0.218,0.728,0.327,1.195,0.327c0.372,0,0.714-0.082,1.028-0.247
		C55.399,162.12,55.609,161.91,55.715,161.655z"/>
	<path style="fill:#A7A9AC;" d="M60.495,162.58v3.537H59.3v-9.783h1.195v0.828c0.202-0.275,0.48-0.507,0.837-0.692
		c0.355-0.186,0.741-0.279,1.155-0.279c0.999,0,1.779,0.354,2.342,1.06c0.563,0.707,0.844,1.58,0.844,2.621
		s-0.281,1.915-0.844,2.621s-1.344,1.06-2.342,1.06c-0.414,0-0.799-0.094-1.155-0.279C60.975,163.086,60.696,162.856,60.495,162.58z
		 M60.495,158.437v2.867c0.181,0.361,0.433,0.646,0.757,0.853c0.324,0.207,0.677,0.311,1.06,0.311c0.659,0,1.182-0.241,1.569-0.725
		s0.582-1.107,0.582-1.872s-0.194-1.389-0.582-1.872s-0.911-0.725-1.569-0.725c-0.382,0-0.735,0.104-1.06,0.311
		C60.928,157.792,60.675,158.076,60.495,158.437z"/>
	<path style="fill:#A7A9AC;" d="M68.891,162.58v3.537h-1.195v-9.783h1.195v0.828c0.202-0.275,0.48-0.507,0.837-0.692
		c0.355-0.186,0.741-0.279,1.155-0.279c0.999,0,1.779,0.354,2.342,1.06c0.563,0.707,0.844,1.58,0.844,2.621
		s-0.281,1.915-0.844,2.621s-1.344,1.06-2.342,1.06c-0.414,0-0.799-0.094-1.155-0.279C69.371,163.086,69.092,162.856,68.891,162.58z
		 M68.891,158.437v2.867c0.181,0.361,0.433,0.646,0.757,0.853c0.324,0.207,0.677,0.311,1.06,0.311c0.659,0,1.182-0.241,1.569-0.725
		s0.582-1.107,0.582-1.872s-0.194-1.389-0.582-1.872s-0.911-0.725-1.569-0.725c-0.382,0-0.735,0.104-1.06,0.311
		C69.324,157.792,69.071,158.076,68.891,158.437z"/>
	<path style="fill:#A7A9AC;" d="M78.052,166.117h-1.179l1.067-2.661l-2.756-7.122h1.291l2.087,5.576l2.055-5.576h1.243
		L78.052,166.117z"/>
</g>
<g>
	<rect x="233.869" y="153.051" style="fill:none;" width="61.751" height="14.81"/>
	<path style="fill:#A7A9AC;" d="M241.802,159.664h-2.342v-1.083h3.537v0.669c0,1.296-0.375,2.337-1.124,3.123
		c-0.748,0.786-1.723,1.179-2.923,1.179c-1.297,0-2.369-0.462-3.219-1.387c-0.85-0.924-1.274-2.14-1.274-3.648
		c0-1.497,0.425-2.711,1.274-3.641c0.85-0.929,1.912-1.394,3.187-1.394c1.02,0,1.866,0.271,2.541,0.812
		c0.675,0.541,1.112,1.274,1.314,2.198h-1.259c-0.457-1.253-1.322-1.88-2.597-1.88c-0.956,0-1.729,0.358-2.318,1.075
		c-0.59,0.718-0.884,1.66-0.884,2.828c0,1.169,0.297,2.114,0.892,2.836c0.595,0.723,1.376,1.084,2.343,1.084
		c0.839,0,1.505-0.247,1.999-0.741S241.728,160.524,241.802,159.664z"/>
	<path style="fill:#A7A9AC;" d="M248.685,156.301v1.228c-0.191-0.128-0.457-0.191-0.797-0.191c-0.382,0-0.723,0.117-1.02,0.351
		c-0.298,0.233-0.505,0.558-0.621,0.972v4.748h-1.195v-7.074h1.195v0.924c0.159-0.308,0.396-0.562,0.709-0.765
		c0.312-0.201,0.661-0.303,1.043-0.303C248.308,156.19,248.537,156.227,248.685,156.301z"/>
	<path style="fill:#A7A9AC;" d="M256.206,156.333v7.074h-1.211v-0.893c-0.213,0.298-0.5,0.545-0.86,0.741
		c-0.361,0.196-0.76,0.295-1.195,0.295c-0.786,0-1.395-0.233-1.824-0.701c-0.431-0.468-0.646-1.094-0.646-1.88v-4.637h1.211v4.445
		c0,0.521,0.128,0.93,0.383,1.227c0.255,0.298,0.643,0.446,1.163,0.446c0.403,0,0.767-0.122,1.091-0.366s0.55-0.563,0.678-0.956
		v-4.796H256.206z"/>
	<path style="fill:#A7A9AC;" d="M263.741,157.322c0.531-0.755,1.248-1.132,2.151-1.132c0.711,0,1.261,0.229,1.649,0.686
		c0.387,0.457,0.581,1.073,0.581,1.848v4.685h-1.211v-4.493c0-0.51-0.111-0.91-0.335-1.203c-0.223-0.292-0.558-0.438-1.003-0.438
		c-0.361,0-0.686,0.114-0.973,0.342c-0.286,0.229-0.483,0.534-0.589,0.917v4.875h-1.195v-4.493c0-0.51-0.111-0.91-0.335-1.203
		c-0.223-0.292-0.558-0.438-1.003-0.438c-0.361,0-0.686,0.114-0.973,0.342c-0.286,0.229-0.483,0.534-0.589,0.917v4.875h-1.195
		v-7.074h1.195v0.828c0.403-0.647,1.041-0.972,1.912-0.972C262.721,156.19,263.359,156.567,263.741,157.322z"/>
	<path style="fill:#A7A9AC;" d="M271.74,162.58v3.537h-1.195v-9.783h1.195v0.828c0.201-0.275,0.48-0.507,0.836-0.692
		c0.356-0.186,0.741-0.279,1.155-0.279c0.998,0,1.779,0.354,2.342,1.06c0.563,0.707,0.845,1.58,0.845,2.621
		s-0.281,1.915-0.845,2.621c-0.562,0.706-1.344,1.06-2.342,1.06c-0.414,0-0.799-0.094-1.155-0.279
		C272.22,163.086,271.941,162.856,271.74,162.58z M271.74,158.437v2.867c0.181,0.361,0.433,0.646,0.757,0.853
		c0.323,0.207,0.677,0.311,1.06,0.311c0.658,0,1.182-0.241,1.569-0.725s0.581-1.107,0.581-1.872s-0.193-1.389-0.581-1.872
		s-0.911-0.725-1.569-0.725c-0.383,0-0.736,0.104-1.06,0.311C272.172,157.792,271.92,158.076,271.74,158.437z"/>
	<path style="fill:#A7A9AC;" d="M280.9,166.117h-1.179l1.067-2.661l-2.756-7.122h1.29l2.087,5.576l2.056-5.576h1.243L280.9,166.117z
		"/>
</g>
<g>
</g>
<g>
</g>
<g>
</g>
<g>
</g>
<g>
</g>
<g>
</g>
<g>
</g>
</svg>
