<?xml version="1.0" encoding="utf-8"?>
<!-- Generator: Adobe Illustrator 16.0.0, SVG Export Plug-In . SVG Version: 6.00 Build 0)  -->
<!DOCTYPE svg PUBLIC "-//W3C//DTD SVG 1.1 Tiny//EN" "http://www.w3.org/Graphics/SVG/1.1/DTD/svg11-tiny.dtd">
<svg version="1.1" baseProfile="tiny" id="Layer_1" xmlns="http://www.w3.org/2000/svg" xmlns:xlink="http://www.w3.org/1999/xlink"
	 x="0px" y="0px" width="428.287px" height="224.989px" viewBox="0 0 428.287 224.989" xml:space="preserve">
<circle fill="none" stroke="#212221" stroke-width="0.75" stroke-miterlimit="10" cx="289.324" cy="60.546" r="12.395"/>
<g>
	<g>
		
			<path fill="none" stroke="#F288A8" stroke-width="0.75" stroke-linecap="round" stroke-linejoin="round" stroke-dasharray="4,4" d="
			M122.221,66.302c0,0-26.028,11.864-42.14,2.602c-18.264-10.498,1.687-20.609,41.291-14.441"/>
		<g>
			<polygon fill="#F288A8" points="119.716,55.531 121.152,54.448 120.068,53.013 121.137,53.162 122.221,54.597 120.786,55.68 			
				"/>
		</g>
	</g>
</g>
<g>
	<g>
		<circle fill="none" stroke="#212221" stroke-width="0.75" stroke-miterlimit="10" cx="143.549" cy="60.544" r="14.976"/>
	</g>
</g>
<g>
	
		<path fill="none" stroke="#F288A8" stroke-width="0.75" stroke-linecap="round" stroke-linejoin="round" stroke-dasharray="4,4" d="
		M163.936,46.511c0,0,35.613-31.941,99.133-1.232"/>
	<g>
		<polygon fill="#F288A8" points="261.174,45.815 262.865,45.2 262.248,43.51 263.226,43.966 263.842,45.655 262.153,46.271 		"/>
	</g>
</g>
<g>
	<rect x="263.842" y="24.745" fill="none" width="254.768" height="18.342"/>
	<path fill="#A7A9AC" d="M264.319,34.866h1.652c0.481,1.405,1.556,2.107,3.223,2.107c0.84,0,1.518-0.196,2.034-0.588
		c0.517-0.393,0.774-0.933,0.774-1.622c0-0.509-0.158-0.926-0.475-1.25c-0.317-0.323-0.834-0.575-1.55-0.754l-2.271-0.599
		c-2.024-0.523-3.037-1.611-3.037-3.264c0-1.061,0.393-1.924,1.178-2.592s1.783-1.002,2.995-1.002c1.28,0,2.313,0.299,3.099,0.898
		s1.301,1.415,1.549,2.448h-1.632c-0.454-1.308-1.46-1.962-3.016-1.962c-0.771,0-1.401,0.189-1.891,0.568
		c-0.488,0.379-0.732,0.885-0.732,1.518c0,0.523,0.165,0.933,0.495,1.229c0.331,0.296,0.84,0.534,1.529,0.713l2.169,0.558
		c2.106,0.537,3.16,1.673,3.16,3.408c0,1.129-0.41,2.024-1.229,2.686s-1.869,0.992-3.149,0.992c-1.281,0-2.355-0.307-3.223-0.919
		C265.103,36.826,264.552,35.968,264.319,34.866z"/>
	<path fill="#A7A9AC" d="M285.119,29v9.172h-1.569v-1.157c-0.276,0.386-0.647,0.706-1.116,0.96
		c-0.468,0.255-0.984,0.382-1.549,0.382c-1.02,0-1.808-0.303-2.365-0.909c-0.558-0.605-0.837-1.418-0.837-2.438V29h1.57v5.764
		c0,0.675,0.165,1.205,0.496,1.59c0.33,0.386,0.833,0.579,1.508,0.579c0.522,0,0.994-0.158,1.415-0.475
		c0.42-0.317,0.712-0.73,0.878-1.24V29H285.119z"/>
	<path fill="#A7A9AC" d="M289.932,38.171V29h1.55v1.157c0.289-0.385,0.671-0.706,1.146-0.96c0.475-0.254,0.994-0.382,1.56-0.382
		c1.019,0,1.811,0.303,2.375,0.909s0.848,1.418,0.848,2.438v6.011h-1.57v-5.763c0-0.661-0.169-1.188-0.506-1.581
		c-0.338-0.392-0.844-0.588-1.519-0.588c-0.537,0-1.02,0.162-1.446,0.485c-0.427,0.324-0.723,0.733-0.888,1.229v6.218H289.932z"/>
	<path fill="#A7A9AC" d="M302.099,38.171V29h1.55v1.157c0.289-0.385,0.671-0.706,1.146-0.96c0.475-0.254,0.994-0.382,1.56-0.382
		c1.019,0,1.811,0.303,2.375,0.909s0.848,1.418,0.848,2.438v6.011h-1.57v-5.763c0-0.661-0.169-1.188-0.506-1.581
		c-0.338-0.392-0.844-0.588-1.519-0.588c-0.537,0-1.02,0.162-1.446,0.485c-0.427,0.324-0.723,0.733-0.888,1.229v6.218H302.099z"/>
	<path fill="#A7A9AC" d="M316.869,41.683h-1.528l1.384-3.45L313.151,29h1.673l2.706,7.23l2.665-7.23h1.611L316.869,41.683z"/>
</g>
<g>
	<rect x="31.326" y="54.285" fill="none" width="33.342" height="32.362"/>
	<path fill="#231F20" d="M40.97,58.547c0,1.918-0.409,3.836-1.244,5.559c-0.834,1.723-2.397,2.895-4.369,2.895
		c-2.185,0-3.286-1.581-3.286-4.263c0-1.918,0.408-3.836,1.243-5.559c0.835-1.723,2.398-2.895,4.369-2.895
		C39.833,54.285,40.97,55.865,40.97,58.547z M34.185,57.943c-0.639,1.51-0.959,3.162-0.959,4.529c0,2.273,0.782,3.535,2.327,3.535
		c1.474,0,2.665-1.137,3.304-2.646c0.639-1.545,0.959-3.179,0.959-4.547c0-2.273-0.781-3.535-2.327-3.535
		C36.015,55.279,34.825,56.398,34.185,57.943z"/>
	<path fill="#231F20" d="M44.912,65.083c0.515,0,0.906,0.391,0.906,0.906s-0.391,0.906-0.906,0.906s-0.906-0.355-0.906-0.906
		C44.006,65.474,44.396,65.083,44.912,65.083z"/>
	<path fill="#231F20" d="M58.232,62.242c0,1.367-0.427,2.504-1.261,3.41c-0.835,0.906-1.918,1.35-3.268,1.35
		c-1.9,0-3.055-1.332-3.055-3.232c0-1.279,0.409-2.434,1.226-3.481l4.725-6.003h1.226l-3.766,4.919
		c0.302-0.195,0.675-0.302,1.155-0.302C57.113,58.902,58.232,60.092,58.232,62.242z M52.69,61.034
		c-0.622,0.764-0.923,1.634-0.923,2.646c0,1.421,0.782,2.327,2.131,2.327c0.959,0,1.741-0.355,2.327-1.083
		c0.586-0.728,0.888-1.581,0.888-2.575c0-1.634-0.764-2.451-2.096-2.451C54.093,59.897,53.312,60.27,52.69,61.034z"/>
</g>
<g>
	<rect x="201.943" y="12.894" fill="none" width="186.601" height="32.364"/>
	<path fill="#231F20" d="M211.588,17.156c0,1.918-0.409,3.836-1.244,5.559c-0.834,1.723-2.397,2.895-4.369,2.895
		c-2.185,0-3.286-1.581-3.286-4.263c0-1.918,0.408-3.836,1.243-5.559c0.835-1.723,2.398-2.895,4.369-2.895
		C210.451,12.894,211.588,14.474,211.588,17.156z M204.803,16.552c-0.639,1.51-0.959,3.162-0.959,4.529
		c0,2.273,0.782,3.535,2.327,3.535c1.474,0,2.664-1.137,3.304-2.646c0.64-1.545,0.959-3.179,0.959-4.547
		c0-2.273-0.781-3.535-2.327-3.535C206.632,13.888,205.442,15.007,204.803,16.552z"/>
	<path fill="#231F20" d="M215.529,23.692c0.515,0,0.906,0.391,0.906,0.906s-0.391,0.906-0.906,0.906s-0.906-0.355-0.906-0.906
		C214.624,24.083,215.014,23.692,215.529,23.692z"/>
	<path fill="#231F20" d="M225.351,25.468l0.568-2.859h-5.364l0.054-0.302l6.927-9.271h1.367l-1.669,8.579h1.599l-0.196,0.995h-1.598
		l-0.568,2.859H225.351z M222.314,21.614h3.801l1.35-7.016L222.314,21.614z"/>
</g>
<g>
	
		<path fill="none" stroke="#F288A8" stroke-width="0.75" stroke-linecap="round" stroke-linejoin="round" stroke-dasharray="4,4" d="
		M263.842,73.55c0,0-35.613,31.941-99.133,1.231"/>
	<g>
		<polygon fill="#F288A8" points="166.604,74.246 164.914,74.861 165.531,76.551 164.552,76.095 163.936,74.406 165.625,73.79 		"/>
	</g>
</g>
<g>
	<rect x="201.944" y="95.738" fill="none" width="39.919" height="32.365"/>
	<path fill="#231F20" d="M211.589,100c0,1.918-0.409,3.837-1.244,5.56c-0.834,1.723-2.397,2.895-4.369,2.895
		c-2.185,0-3.286-1.581-3.286-4.263c0-1.918,0.408-3.836,1.243-5.559c0.835-1.723,2.398-2.896,4.369-2.896
		C210.452,95.737,211.589,97.318,211.589,100z M204.804,99.396c-0.639,1.51-0.959,3.161-0.959,4.529
		c0,2.273,0.782,3.535,2.327,3.535c1.474,0,2.664-1.137,3.304-2.646c0.64-1.545,0.959-3.179,0.959-4.547
		c0-2.273-0.781-3.534-2.327-3.534C206.633,96.732,205.443,97.851,204.804,99.396z"/>
	<path fill="#231F20" d="M215.53,106.536c0.515,0,0.906,0.391,0.906,0.906c0,0.515-0.391,0.906-0.906,0.906
		s-0.906-0.355-0.906-0.906C214.625,106.927,215.015,106.536,215.53,106.536z"/>
	<path fill="#231F20" d="M220.45,108.312l0.071-0.409l5.541-5.915c0.516-0.55,0.889-0.959,1.102-1.225
		c0.444-0.551,0.87-1.333,0.87-2.131c0-1.208-0.604-1.9-1.758-1.9c-1.279,0-2.256,0.977-2.665,2.522l-1.012-0.213
		c0.479-2.078,1.829-3.304,3.872-3.304c1.616,0,2.717,1.066,2.717,2.629c0,0.764-0.159,1.457-0.497,2.061
		c-0.338,0.586-0.888,1.296-1.67,2.113l-4.528,4.778h5.311l-0.195,0.995H220.45z"/>
</g>
<g>
	<g>
		
			<path fill="none" stroke="#F288A8" stroke-width="0.75" stroke-linecap="round" stroke-linejoin="round" stroke-dasharray="4,4" d="
			M309.041,66.302c0,0,26.028,11.864,42.141,2.602c18.264-10.498-1.688-20.609-41.291-14.441"/>
		<g>
			<polygon fill="#F288A8" points="311.193,53.013 310.109,54.448 311.544,55.531 310.475,55.68 309.041,54.597 310.125,53.162 			
				"/>
		</g>
	</g>
</g>
<g>
	<rect x="365.951" y="54.285" fill="none" width="33.342" height="32.362"/>
	<path fill="#231F20" d="M375.595,58.547c0,1.918-0.408,3.836-1.242,5.559c-0.836,1.723-2.398,2.895-4.369,2.895
		c-2.186,0-3.287-1.581-3.287-4.263c0-1.918,0.408-3.836,1.244-5.559c0.834-1.723,2.396-2.895,4.369-2.895
		C374.458,54.285,375.595,55.865,375.595,58.547z M368.81,57.943c-0.639,1.51-0.959,3.162-0.959,4.529
		c0,2.273,0.781,3.535,2.328,3.535c1.473,0,2.664-1.137,3.303-2.646c0.639-1.545,0.959-3.179,0.959-4.547
		c0-2.273-0.781-3.535-2.326-3.535C370.64,55.279,369.451,56.398,368.81,57.943z"/>
	<path fill="#231F20" d="M379.537,65.083c0.516,0,0.906,0.391,0.906,0.906s-0.391,0.906-0.906,0.906
		c-0.514,0-0.906-0.355-0.906-0.906C378.63,65.474,379.023,65.083,379.537,65.083z"/>
	<path fill="#231F20" d="M393.337,57.073c0,1.545-0.836,2.753-2.115,3.233c0.783,0.355,1.352,1.225,1.352,2.575
		c0,1.314-0.373,2.309-1.137,3.001c-0.979,0.871-1.795,1.119-3.215,1.119c-0.889,0-1.635-0.302-2.238-0.888
		c-0.586-0.586-0.889-1.35-0.889-2.291c0-1.847,0.854-3.073,2.576-3.694c-0.746-0.551-1.119-1.296-1.119-2.238
		c0-1.137,0.461-2.078,1.367-2.807c0.658-0.533,1.545-0.799,2.664-0.799C392.289,54.285,393.337,55.386,393.337,57.073z
		 M387.103,61.584c-0.586,0.55-0.889,1.261-0.889,2.167c0,1.333,0.924,2.256,2.203,2.256c1.9,0,3.09-1.208,3.09-2.984
		c0-1.438-0.834-2.273-2.186-2.273C388.453,60.75,387.707,61.034,387.103,61.584z M388.453,55.972
		c-0.516,0.479-0.781,1.119-0.781,1.883c0,1.137,0.656,1.9,1.846,1.9c0.766,0,1.404-0.249,1.92-0.728
		c0.514-0.479,0.781-1.119,0.781-1.883c0-1.208-0.658-1.9-1.812-1.9C389.642,55.244,388.986,55.492,388.453,55.972z"/>
</g>
<g>
	<rect x="-87.71" y="22.771" fill="none" width="254.768" height="18.343"/>
	<path fill="#A7A9AC" d="M119.775,30.828h-2.252v5.371h-1.632V23.515h4.71c1.294,0,2.31,0.317,3.047,0.95
		c0.736,0.634,1.105,1.543,1.105,2.727c0,1.033-0.282,1.852-0.847,2.458c-0.565,0.606-1.356,0.978-2.375,1.116l3.739,5.433h-1.859
		L119.775,30.828z M117.523,24.94v4.503h3.037c0.827,0,1.463-0.199,1.911-0.599c0.447-0.399,0.671-0.95,0.671-1.652
		c0-0.703-0.224-1.253-0.671-1.653c-0.448-0.399-1.084-0.599-1.911-0.599H117.523z"/>
	<path fill="#A7A9AC" d="M135.887,36.198H134.4v-0.682c-0.193,0.207-0.517,0.399-0.971,0.578c-0.454,0.179-0.937,0.269-1.446,0.269
		c-0.964,0-1.773-0.269-2.427-0.805c-0.654-0.537-0.981-1.247-0.981-2.128c0-0.84,0.337-1.529,1.012-2.065
		c0.674-0.537,1.508-0.806,2.5-0.806c0.454,0,0.902,0.076,1.342,0.227c0.441,0.152,0.765,0.324,0.971,0.517v-1.157
		c0-0.592-0.176-1.067-0.527-1.425c-0.351-0.358-0.851-0.537-1.498-0.537c-0.964,0-1.591,0.42-1.88,1.26h-1.529
		c0.152-0.771,0.541-1.397,1.167-1.88c0.626-0.482,1.38-0.723,2.262-0.723c1.088,0,1.942,0.289,2.562,0.867
		c0.62,0.579,0.93,1.371,0.93,2.376V36.198z M134.4,33.926v-0.95c-0.138-0.331-0.41-0.602-0.816-0.816
		c-0.406-0.213-0.851-0.32-1.333-0.32c-0.606,0-1.123,0.138-1.549,0.413s-0.64,0.668-0.64,1.177c0,0.523,0.213,0.926,0.64,1.208
		s0.943,0.423,1.549,0.423c0.482,0,0.926-0.106,1.333-0.32C133.99,34.529,134.262,34.256,134.4,33.926z"/>
	<path fill="#A7A9AC" d="M142.073,23.556c0.2,0.193,0.3,0.427,0.3,0.702c0,0.276-0.1,0.51-0.3,0.703s-0.437,0.289-0.712,0.289
		c-0.276,0-0.51-0.096-0.703-0.289s-0.289-0.427-0.289-0.703c0-0.275,0.096-0.509,0.289-0.702s0.427-0.289,0.703-0.289
		C141.636,23.267,141.874,23.363,142.073,23.556z M142.146,27.026v9.172h-1.549v-9.172H142.146z"/>
	<path fill="#A7A9AC" d="M146.979,36.198v-9.172h1.549v1.157c0.29-0.385,0.671-0.706,1.146-0.96c0.475-0.254,0.995-0.382,1.56-0.382
		c1.019,0,1.811,0.303,2.376,0.909c0.564,0.606,0.847,1.418,0.847,2.438v6.011h-1.57v-5.763c0-0.661-0.169-1.188-0.506-1.581
		c-0.337-0.392-0.844-0.588-1.518-0.588c-0.537,0-1.02,0.162-1.446,0.485c-0.427,0.324-0.723,0.733-0.889,1.229v6.218H146.979z"/>
	<path fill="#A7A9AC" d="M161.749,39.71h-1.528l1.384-3.45l-3.574-9.234h1.673l2.706,7.23l2.665-7.23h1.611L161.749,39.71z"/>
</g>
<g>
	<rect x="135.791" y="53.339" fill="none" width="15.516" height="18.343"/>
	<path fill="#231F20" d="M143.24,61.396h-2.252v5.371h-1.632V54.083h4.71c1.294,0,2.31,0.317,3.047,0.95
		c0.736,0.634,1.105,1.543,1.105,2.727c0,1.033-0.282,1.852-0.847,2.458c-0.565,0.606-1.356,0.978-2.375,1.116l3.739,5.433h-1.859
		L143.24,61.396z M140.988,55.509v4.503h3.037c0.827,0,1.463-0.199,1.911-0.599c0.447-0.399,0.671-0.95,0.671-1.652
		c0-0.703-0.224-1.253-0.671-1.653c-0.448-0.399-1.084-0.599-1.911-0.599H140.988z"/>
</g>
<g>
	<rect x="281.567" y="53.339" fill="none" width="15.515" height="18.343"/>
	<path fill="#231F20" d="M284.543,63.461h1.652c0.481,1.405,1.556,2.107,3.223,2.107c0.84,0,1.518-0.196,2.034-0.588
		c0.517-0.393,0.774-0.933,0.774-1.622c0-0.509-0.158-0.926-0.475-1.25c-0.317-0.323-0.834-0.575-1.55-0.754l-2.271-0.599
		c-2.024-0.523-3.037-1.611-3.037-3.264c0-1.061,0.393-1.924,1.178-2.592s1.783-1.002,2.995-1.002c1.28,0,2.313,0.299,3.099,0.898
		s1.301,1.415,1.549,2.448h-1.632c-0.454-1.308-1.46-1.962-3.016-1.962c-0.771,0-1.401,0.189-1.891,0.568
		c-0.488,0.379-0.732,0.885-0.732,1.518c0,0.523,0.165,0.933,0.495,1.229c0.331,0.296,0.84,0.534,1.529,0.713l2.169,0.558
		c2.106,0.537,3.16,1.673,3.16,3.408c0,1.129-0.41,2.024-1.229,2.686s-1.869,0.992-3.149,0.992c-1.281,0-2.355-0.307-3.223-0.919
		C285.328,65.421,284.777,64.563,284.543,63.461z"/>
</g>
<g>
	
		<path fill="none" stroke="#CF8CF2" stroke-width="0.75" stroke-linecap="round" stroke-linejoin="round" stroke-dasharray="4,4" d="
		M287.366,79.509c0,0,1.266,17.119-5.799,41.357c-4.188,14.368-18.696,23.96-17.766,47.157"/>
	<g>
		<polygon fill="#CF8CF2" points="262.535,166.551 263.826,167.803 265.078,166.512 265.094,167.591 263.842,168.882 
			262.551,167.63 		"/>
	</g>
</g>
<g>
	
		<path fill="none" stroke="#CF8CF2" stroke-width="0.75" stroke-linecap="round" stroke-linejoin="round" stroke-dasharray="4,4" d="
		M293.445,79.509c0,0-1.264,17.119,5.801,41.357c4.186,14.368,18.693,23.96,17.764,47.157"/>
	<g>
		<polygon fill="#CF8CF2" points="315.733,166.512 316.985,167.803 318.276,166.551 318.259,167.63 316.968,168.882 
			315.716,167.591 		"/>
	</g>
</g>
<g>
	<rect x="256" y="172.172" fill="none" width="15.516" height="18.344"/>
	<path fill="#231F20" d="M267.343,172.916h1.632v12.684h-1.632v-5.783h-7.168v5.783h-1.632v-12.684h1.632v5.434h7.168V172.916z"/>
</g>
<g>
	<rect x="309.294" y="172.172" fill="none" width="15.515" height="18.344"/>
	<path fill="#231F20" d="M321.041,180.746h-3.036v-1.404h4.586v0.867c0,1.68-0.486,3.029-1.457,4.049s-2.234,1.527-3.79,1.527
		c-1.681,0-3.071-0.598-4.173-1.797c-1.102-1.197-1.652-2.773-1.652-4.73c0-1.941,0.551-3.514,1.652-4.719s2.479-1.809,4.131-1.809
		c1.322,0,2.421,0.352,3.295,1.055c0.875,0.701,1.442,1.652,1.704,2.85h-1.632c-0.592-1.625-1.714-2.438-3.367-2.438
		c-1.239,0-2.241,0.465-3.005,1.395c-0.765,0.93-1.146,2.152-1.146,3.666c0,1.516,0.385,2.74,1.156,3.678
		c0.771,0.936,1.783,1.404,3.037,1.404c1.088,0,1.952-0.32,2.592-0.961C320.576,182.738,320.944,181.861,321.041,180.746z"/>
</g>
<g>
	<rect x="310.114" y="121.787" fill="none" width="33.341" height="32.362"/>
	<path fill="#231F20" d="M318.689,125.574c0,1.705-0.363,3.41-1.105,4.941c-0.742,1.533-2.133,2.574-3.885,2.574
		c-1.943,0-2.922-1.404-2.922-3.789c0-1.705,0.363-3.412,1.105-4.943s2.131-2.574,3.885-2.574
		C317.677,121.783,318.689,123.189,318.689,125.574z M312.656,125.037c-0.568,1.342-0.854,2.811-0.854,4.027
		c0,2.021,0.695,3.143,2.07,3.143c1.311,0,2.369-1.012,2.938-2.354c0.568-1.375,0.852-2.828,0.852-4.043
		c0-2.021-0.693-3.143-2.068-3.143C314.283,122.667,313.224,123.662,312.656,125.037z"/>
	<path fill="#231F20" d="M322.191,131.384c0.457,0,0.805,0.348,0.805,0.807c0,0.457-0.348,0.805-0.805,0.805
		c-0.459,0-0.807-0.316-0.807-0.805C321.384,131.732,321.732,131.384,322.191,131.384z"/>
	<path fill="#231F20" d="M330.984,121.91h0.268l-2.162,11.055h-0.996l1.832-9.381l-2.053,1.152l0.236-1.201L330.984,121.91z"/>
</g>
<g>
	<rect x="238.317" y="121.787" fill="none" width="33.341" height="32.362"/>
	<path fill="#231F20" d="M254.96,125.574c0,1.705-0.363,3.41-1.105,4.941c-0.742,1.533-2.133,2.574-3.885,2.574
		c-1.943,0-2.922-1.404-2.922-3.789c0-1.705,0.363-3.412,1.105-4.943s2.131-2.574,3.885-2.574
		C253.949,121.783,254.96,123.189,254.96,125.574z M248.927,125.037c-0.568,1.342-0.854,2.811-0.854,4.027
		c0,2.021,0.695,3.143,2.07,3.143c1.311,0,2.369-1.012,2.938-2.354c0.568-1.375,0.852-2.828,0.852-4.043
		c0-2.021-0.693-3.143-2.068-3.143C250.554,122.667,249.496,123.662,248.927,125.037z"/>
	<path fill="#231F20" d="M258.462,131.384c0.457,0,0.805,0.348,0.805,0.807c0,0.457-0.348,0.805-0.805,0.805
		c-0.459,0-0.807-0.316-0.807-0.805C257.656,131.732,258.003,131.384,258.462,131.384z"/>
	<path fill="#231F20" d="M264.287,126.015c0-1.217,0.363-2.211,1.105-3.016c0.742-0.807,1.721-1.217,2.922-1.217
		c1.689,0,2.715,1.184,2.715,2.875c0,1.137-0.363,2.162-1.09,3.094l-4.199,5.338h-1.09l3.348-4.373
		c-0.27,0.174-0.6,0.268-1.027,0.268C265.281,128.984,264.287,127.925,264.287,126.015z M269.197,127.089
		c0.553-0.68,0.838-1.453,0.838-2.354c0-1.264-0.695-2.068-1.895-2.068c-0.854,0-1.549,0.314-2.07,0.963
		c-0.52,0.646-0.789,1.406-0.789,2.289c0,1.453,0.68,2.18,1.863,2.18C267.966,128.099,268.644,127.767,269.197,127.089z"/>
</g>
<g>
	
		<path fill="none" stroke="#CF8CF2" stroke-width="0.75" stroke-linecap="round" stroke-linejoin="round" stroke-dasharray="4,4" d="
		M141.014,79.509c0,0,1.265,17.119-5.8,41.357c-4.187,14.368-18.695,23.96-17.765,47.157"/>
	<g>
		<polygon fill="#CF8CF2" points="116.183,166.551 117.474,167.803 118.726,166.512 118.743,167.591 117.491,168.882 116.2,167.63 
					"/>
	</g>
</g>
<g>
	
		<path fill="none" stroke="#CF8CF2" stroke-width="0.75" stroke-linecap="round" stroke-linejoin="round" stroke-dasharray="4,4" d="
		M147.094,79.509c0,0-1.265,17.119,5.799,41.357c4.187,14.368,18.695,23.96,17.765,47.157"/>
	<g>
		<polygon fill="#CF8CF2" points="169.382,166.512 170.633,167.803 171.924,166.551 171.908,167.63 170.617,168.882 
			169.365,167.591 		"/>
	</g>
</g>
<g>
	<rect x="109.648" y="172.172" fill="none" width="15.516" height="18.344"/>
	<path fill="#231F20" d="M120.991,172.916h1.632v12.684h-1.632v-5.783h-7.168v5.783h-1.632v-12.684h1.632v5.434h7.168V172.916z"/>
</g>
<g>
	<rect x="162.943" y="172.172" fill="none" width="15.516" height="18.344"/>
	<path fill="#231F20" d="M174.688,180.746h-3.037v-1.404h4.586v0.867c0,1.68-0.485,3.029-1.457,4.049
		c-0.971,1.02-2.234,1.527-3.791,1.527c-1.68,0-3.071-0.598-4.172-1.797c-1.102-1.197-1.653-2.773-1.653-4.73
		c0-1.941,0.551-3.514,1.653-4.719c1.102-1.205,2.479-1.809,4.131-1.809c1.322,0,2.42,0.352,3.295,1.055
		c0.874,0.701,1.442,1.652,1.704,2.85h-1.632c-0.592-1.625-1.715-2.438-3.367-2.438c-1.239,0-2.241,0.465-3.006,1.395
		c-0.764,0.93-1.146,2.152-1.146,3.666c0,1.516,0.386,2.74,1.157,3.678c0.771,0.936,1.783,1.404,3.036,1.404
		c1.088,0,1.952-0.32,2.593-0.961C174.224,182.738,174.592,181.861,174.688,180.746z"/>
</g>
<g>
	<rect x="163.761" y="121.787" fill="none" width="33.342" height="32.362"/>
	<path fill="#231F20" d="M172.337,125.574c0,1.705-0.363,3.41-1.105,4.941c-0.743,1.533-2.132,2.574-3.885,2.574
		c-1.942,0-2.922-1.404-2.922-3.789c0-1.705,0.363-3.412,1.105-4.943c0.743-1.531,2.132-2.574,3.885-2.574
		C171.326,121.783,172.337,123.189,172.337,125.574z M166.304,125.037c-0.568,1.342-0.853,2.811-0.853,4.027
		c0,2.021,0.695,3.143,2.069,3.143c1.311,0,2.369-1.012,2.938-2.354c0.568-1.375,0.853-2.828,0.853-4.043
		c0-2.021-0.695-3.143-2.069-3.143C167.931,122.667,166.873,123.662,166.304,125.037z"/>
	<path fill="#231F20" d="M175.838,131.384c0.458,0,0.805,0.348,0.805,0.807c0,0.457-0.348,0.805-0.805,0.805
		c-0.458,0-0.806-0.316-0.806-0.805C175.033,131.732,175.38,131.384,175.838,131.384z"/>
	<path fill="#231F20" d="M187.68,128.857c0,1.217-0.379,2.229-1.122,3.033c-0.742,0.805-1.706,1.199-2.906,1.199
		c-1.69,0-2.716-1.184-2.716-2.873c0-1.137,0.363-2.164,1.09-3.096l4.201-5.338h1.09l-3.348,4.375c0.269-0.174,0.6-0.27,1.026-0.27
		C186.685,125.888,187.68,126.947,187.68,128.857z M182.753,127.785c-0.553,0.678-0.821,1.451-0.821,2.352
		c0,1.264,0.695,2.07,1.895,2.07c0.853,0,1.548-0.316,2.069-0.965c0.521-0.646,0.79-1.404,0.79-2.289c0-1.453-0.679-2.18-1.863-2.18
		C184,126.773,183.306,127.105,182.753,127.785z"/>
</g>
<g>
	<rect x="91.965" y="121.787" fill="none" width="33.342" height="32.362"/>
	<path fill="#231F20" d="M108.925,125.574c0,1.705-0.363,3.41-1.105,4.941c-0.743,1.533-2.132,2.574-3.885,2.574
		c-1.942,0-2.922-1.404-2.922-3.789c0-1.705,0.363-3.412,1.105-4.943c0.743-1.531,2.132-2.574,3.885-2.574
		C107.914,121.783,108.925,123.189,108.925,125.574z M102.892,125.037c-0.568,1.342-0.853,2.811-0.853,4.027
		c0,2.021,0.695,3.143,2.069,3.143c1.311,0,2.369-1.012,2.938-2.354c0.568-1.375,0.853-2.828,0.853-4.043
		c0-2.021-0.695-3.143-2.069-3.143C104.519,122.667,103.46,123.662,102.892,125.037z"/>
	<path fill="#231F20" d="M112.426,131.384c0.458,0,0.805,0.348,0.805,0.807c0,0.457-0.348,0.805-0.805,0.805
		c-0.458,0-0.806-0.316-0.806-0.805C111.621,131.732,111.968,131.384,112.426,131.384z"/>
	<path fill="#231F20" d="M121.157,132.964l0.505-2.543h-4.77l0.047-0.27l6.159-8.242h1.216l-1.484,7.627h1.421l-0.174,0.885h-1.421
		l-0.505,2.543H121.157z M118.456,129.537h3.38l1.2-6.238L118.456,129.537z"/>
</g>
<g>
	<rect x="-132.547" y="195.104" fill="none" width="254.768" height="18.344"/>
	<path fill="#A7A9AC" d="M71.55,195.847h1.632v12.684H71.55v-5.785h-7.168v5.785H62.75v-12.684h1.632v5.432h7.168V195.847z"/>
	<path fill="#A7A9AC" d="M84.792,208.531h-1.487v-0.682c-0.193,0.205-0.517,0.398-0.971,0.578c-0.454,0.178-0.937,0.268-1.446,0.268
		c-0.964,0-1.773-0.268-2.427-0.805c-0.654-0.537-0.981-1.246-0.981-2.127c0-0.84,0.337-1.529,1.012-2.066
		c0.674-0.537,1.508-0.807,2.5-0.807c0.454,0,0.902,0.076,1.342,0.229c0.441,0.15,0.765,0.322,0.971,0.516v-1.156
		c0-0.592-0.176-1.066-0.527-1.426c-0.351-0.357-0.851-0.537-1.498-0.537c-0.964,0-1.591,0.42-1.88,1.26h-1.529
		c0.152-0.771,0.541-1.396,1.167-1.879c0.626-0.482,1.38-0.723,2.262-0.723c1.088,0,1.942,0.289,2.562,0.867s0.93,1.371,0.93,2.375
		V208.531z M83.304,206.257v-0.949c-0.138-0.33-0.41-0.604-0.816-0.816c-0.406-0.213-0.851-0.32-1.333-0.32
		c-0.606,0-1.123,0.139-1.549,0.414s-0.64,0.668-0.64,1.178c0,0.523,0.213,0.926,0.64,1.207c0.427,0.283,0.943,0.424,1.549,0.424
		c0.482,0,0.926-0.105,1.333-0.32C82.894,206.861,83.167,206.589,83.304,206.257z"/>
	<path fill="#A7A9AC" d="M91.05,207.457v4.586H89.5v-12.684h1.549v1.074c0.262-0.357,0.623-0.658,1.084-0.898
		c0.461-0.242,0.961-0.361,1.498-0.361c1.294,0,2.306,0.457,3.036,1.373s1.095,2.049,1.095,3.398s-0.365,2.482-1.095,3.398
		s-1.742,1.373-3.036,1.373c-0.537,0-1.037-0.121-1.498-0.361S91.312,207.814,91.05,207.457z M91.05,202.085v3.719
		c0.234,0.467,0.561,0.836,0.981,1.105c0.42,0.268,0.878,0.402,1.374,0.402c0.854,0,1.532-0.314,2.035-0.939
		c0.502-0.627,0.754-1.438,0.754-2.428c0-0.992-0.251-1.801-0.754-2.428c-0.503-0.627-1.181-0.939-2.035-0.939
		c-0.496,0-0.954,0.135-1.374,0.402C91.611,201.25,91.284,201.617,91.05,202.085z"/>
	<path fill="#A7A9AC" d="M103.485,207.457v4.586h-1.549v-12.684h1.549v1.074c0.262-0.357,0.623-0.658,1.084-0.898
		c0.461-0.242,0.961-0.361,1.498-0.361c1.294,0,2.306,0.457,3.036,1.373s1.095,2.049,1.095,3.398s-0.365,2.482-1.095,3.398
		s-1.742,1.373-3.036,1.373c-0.537,0-1.037-0.121-1.498-0.361S103.747,207.814,103.485,207.457z M103.485,202.085v3.719
		c0.234,0.467,0.561,0.836,0.981,1.105c0.42,0.268,0.878,0.402,1.374,0.402c0.854,0,1.532-0.314,2.035-0.939
		c0.502-0.627,0.754-1.438,0.754-2.428c0-0.992-0.251-1.801-0.754-2.428c-0.503-0.627-1.181-0.939-2.035-0.939
		c-0.496,0-0.954,0.135-1.374,0.402C104.046,201.25,103.72,201.617,103.485,202.085z"/>
	<path fill="#A7A9AC" d="M116.912,212.042h-1.528l1.384-3.451l-3.574-9.232h1.673l2.706,7.23l2.665-7.23h1.611L116.912,212.042z"/>
</g>
<g>
	<rect x="310.129" y="195.104" fill="none" width="254.768" height="18.344"/>
	<path fill="#A7A9AC" d="M320.417,203.675h-3.036v-1.404h4.586v0.867c0,1.682-0.486,3.031-1.457,4.049
		c-0.971,1.02-2.234,1.529-3.79,1.529c-1.681,0-3.071-0.6-4.173-1.797c-1.102-1.199-1.652-2.775-1.652-4.73
		c0-1.941,0.551-3.516,1.652-4.721s2.479-1.807,4.131-1.807c1.322,0,2.421,0.35,3.295,1.053c0.875,0.703,1.442,1.652,1.704,2.852
		h-1.632c-0.592-1.625-1.714-2.438-3.367-2.438c-1.239,0-2.241,0.465-3.005,1.395c-0.765,0.928-1.146,2.15-1.146,3.666
		s0.385,2.74,1.156,3.676c0.771,0.938,1.783,1.406,3.037,1.406c1.088,0,1.952-0.32,2.592-0.961
		C319.953,205.669,320.321,204.791,320.417,203.675z"/>
	<path fill="#A7A9AC" d="M330.89,199.318v1.59c-0.248-0.166-0.592-0.248-1.033-0.248c-0.495,0-0.937,0.152-1.321,0.455
		c-0.386,0.303-0.654,0.723-0.806,1.26v6.156h-1.55v-9.172h1.55v1.197c0.206-0.398,0.513-0.729,0.919-0.99s0.857-0.393,1.353-0.393
		C330.401,199.173,330.697,199.22,330.89,199.318z"/>
	<path fill="#A7A9AC" d="M342.19,199.359v9.172h-1.569v-1.158c-0.276,0.387-0.647,0.707-1.116,0.961
		c-0.468,0.256-0.984,0.383-1.549,0.383c-1.02,0-1.808-0.303-2.365-0.908c-0.558-0.607-0.837-1.42-0.837-2.438v-6.012h1.57v5.764
		c0,0.674,0.165,1.205,0.496,1.59c0.33,0.387,0.833,0.578,1.508,0.578c0.522,0,0.994-0.158,1.415-0.475
		c0.42-0.316,0.712-0.73,0.878-1.24v-6.217H342.19z"/>
	<path fill="#A7A9AC" d="M353.509,200.64c0.688-0.979,1.618-1.467,2.789-1.467c0.923,0,1.635,0.295,2.138,0.887
		c0.503,0.594,0.754,1.393,0.754,2.396v6.074h-1.569v-5.826c0-0.66-0.145-1.18-0.434-1.559c-0.29-0.379-0.724-0.568-1.302-0.568
		c-0.469,0-0.889,0.148-1.26,0.443c-0.372,0.297-0.627,0.693-0.765,1.188v6.322h-1.55v-5.826c0-0.66-0.145-1.18-0.434-1.559
		s-0.723-0.568-1.301-0.568c-0.469,0-0.889,0.148-1.261,0.443c-0.371,0.297-0.627,0.693-0.764,1.188v6.322h-1.55v-9.172h1.55v1.074
		c0.522-0.84,1.35-1.26,2.479-1.26C352.188,199.173,353.014,199.662,353.509,200.64z"/>
	<path fill="#A7A9AC" d="M365.428,207.457v4.586h-1.55v-12.684h1.55v1.074c0.261-0.357,0.623-0.658,1.084-0.898
		c0.462-0.242,0.961-0.361,1.498-0.361c1.294,0,2.307,0.457,3.036,1.373c0.73,0.916,1.095,2.049,1.095,3.398
		s-0.364,2.482-1.095,3.398c-0.729,0.916-1.742,1.373-3.036,1.373c-0.537,0-1.036-0.121-1.498-0.361
		C366.051,208.115,365.689,207.814,365.428,207.457z M365.428,202.085v3.719c0.233,0.467,0.561,0.836,0.98,1.105
		c0.42,0.268,0.878,0.402,1.374,0.402c0.854,0,1.532-0.314,2.035-0.939c0.502-0.627,0.754-1.438,0.754-2.428
		c0-0.992-0.252-1.801-0.754-2.428c-0.503-0.627-1.182-0.939-2.035-0.939c-0.496,0-0.954,0.135-1.374,0.402
		C365.989,201.25,365.662,201.617,365.428,202.085z"/>
	<path fill="#A7A9AC" d="M378.855,212.042h-1.528l1.384-3.451l-3.573-9.232h1.673l2.706,7.23l2.665-7.23h1.611L378.855,212.042z"/>
</g>
<g>
</g>
<g>
</g>
<g>
</g>
<g>
</g>
<g>
</g>
<g>
</g>
<g>
</g>
</svg>
