<svg xmlns="http://www.w3.org/2000/svg" xmlns:xlink="http://www.w3.org/1999/xlink" height="288pt" version="1.1" viewBox="0 0 576 288" width="576pt">
 <defs>
  <clipPath id="pd17d8af51d">
   <rect height="223.2" width="446.4" x="72.0" y="28.8"/>
  </clipPath>
 </defs>
<defs>
  <style type="text/css">
*{stroke-linecap:butt;stroke-linejoin:round;}
  </style>
 </defs>
 <g id="figure_1">
  <g id="patch_1">
   <path d=" M0 288 L576 288 L576 0 L0 0 z " style="fill:#ffffff;"/>
  </g>
  <g id="axes_1">
   <g id="patch_2">
    <path d=" M72 252 L518.4 252 L518.4 28.8 L72 28.8 z " style="fill:#eaeaf2;"/>
   </g>
   <g id="matplotlib.axis_1">
    <g id="xtick_1">
     <g id="line2d_1">
      <path clip-path="url(#pd17d8af51d)" d=" M72 252 L72 28.8" style="fill:none;stroke:#ffffff;stroke-linecap:round;stroke-width:1.3;"/>
     </g>
     <g id="line2d_2">
      <defs>
       <path d=" M0 0 L0 0" id="m56cc5124a0" style="stroke:#262626;stroke-width:1.3;"/>
      </defs>
      <g>
       <use style="fill:#262626;stroke:#262626;stroke-width:1.3;" x="72.0" xlink:href="#m56cc5124a0" y="252.0"/>
      </g>
     </g>
     <g id="line2d_3">
      <g>
       <use style="fill:#262626;stroke:#262626;stroke-width:1.3;" x="72.0" xlink:href="#m56cc5124a0" y="28.8"/>
      </g>
     </g>
     <g id="text_1">
      <!-- &#8722;1.5 -->
      <defs>
       <path d=" M25.4062 61.5 L25.4062 0 L17.7031 0 L17.7031 52 L2.5 44.2031 L2.5 52.2031 L20.7031 61.5 z " id="CalibreRegular-31"/>
       <path d=" M6.29688 -0.5 Q3.20312 2.59375 3.20312 4.89062 Q3.20312 7.20312 4.75 8.79688 Q6.29688 10.4062 8.59375 10.4062 Q10.7969 10.4062 12.3438 8.79688 Q13.9062 7.20312 13.9062 4.89062 Q13.9062 2.59375 12.3438 1.04688 Q10.7969 -0.5 8.59375 -0.5 Q6.29688 -0.5 3.20312 2.59375" id="CalibreRegular-2e"/>
       <path d=" M7.29688 26.5938 L7.29688 32.7969 L46.7031 32.7969 L46.7031 26.5938 z " id="CalibreRegular-2212"/>
       <path d=" M23.7031 33 Q17.2031 33 12.7969 27.7031 L6.59375 27.7031 L6.59375 61.4062 L40.2031 61.4062 L40.2031 54.4062 L13.2031 54.4062 L13.2031 35.9062 Q17.5 39.7969 24.4062 39.7969 Q32.9062 39.7969 38.2969 34.0469 Q43.7031 28.2969 43.7031 19.4062 Q43.7031 10.7031 38.0938 4.89062 Q32.5 -0.90625 23.7969 -0.90625 Q15 -0.90625 9.39062 4 Q3.79688 8.90625 2.70312 17.5 L10.4062 17.5 Q12.5 5.90625 23.7969 5.90625 Q29.2969 5.90625 32.7969 9.75 Q36.2969 13.5938 36.2969 19.3906 Q36.2969 25.2031 32.7969 29.0938 Q29.2969 33 23.7031 33" id="CalibreRegular-35"/>
      </defs>
      <g style="fill:#262626;" transform="translate(61.960953125 270.395)scale(0.14300000000000002 -0.14300000000000002)">
       <use xlink:href="#CalibreRegular-2212"/>
       <use x="53.99998474121094" xlink:href="#CalibreRegular-31"/>
       <use x="86.89997863769531" xlink:href="#CalibreRegular-2e"/>
       <use x="103.99996948242188" xlink:href="#CalibreRegular-35"/>
      </g>
     </g>
    </g>
    <g id="xtick_2">
     <g id="line2d_4">
      <path clip-path="url(#pd17d8af51d)" d=" M146.4 252 L146.4 28.8" style="fill:none;stroke:#ffffff;stroke-linecap:round;stroke-width:1.3;"/>
     </g>
     <g id="line2d_5">
      <g>
       <use style="fill:#262626;stroke:#262626;stroke-width:1.3;" x="146.4" xlink:href="#m56cc5124a0" y="252.0"/>
      </g>
     </g>
     <g id="line2d_6">
      <g>
       <use style="fill:#262626;stroke:#262626;stroke-width:1.3;" x="146.4" xlink:href="#m56cc5124a0" y="28.8"/>
      </g>
     </g>
     <g id="text_2">
      <!-- &#8722;1.0 -->
      <defs>
       <path d=" M49.7969 16.5938 Q37.0938 -0.90625 26.8906 -0.90625 Q16.7031 -0.90625 10.3438 7.84375 Q4 16.5938 4 30.6875 Q4 44.7969 10.3438 53.5469 Q16.7031 62.2969 26.8906 62.2969 Q37.0938 62.2969 43.4375 53.5469 Q49.7969 44.7969 49.7969 30.6875 Q49.7969 16.5938 37.0938 -0.90625 M26.9062 55.2031 Q19.5938 55.2031 15.6406 48.5 Q11.7031 41.7969 11.7031 30.6875 Q11.7031 19.5938 15.6406 12.8906 Q19.5938 6.20312 26.9062 6.20312 Q34.0938 6.20312 38.0938 12.9531 Q42.0938 19.7031 42.0938 30.7031 Q42.0938 41.7031 38.0938 48.4531 Q34.0938 55.2031 26.9062 55.2031" id="CalibreRegular-30"/>
      </defs>
      <g style="fill:#262626;" transform="translate(135.92525 270.395)scale(0.14300000000000002 -0.14300000000000002)">
       <use xlink:href="#CalibreRegular-2212"/>
       <use x="53.99998474121094" xlink:href="#CalibreRegular-31"/>
       <use x="86.89997863769531" xlink:href="#CalibreRegular-2e"/>
       <use x="103.99996948242188" xlink:href="#CalibreRegular-30"/>
      </g>
     </g>
    </g>
    <g id="xtick_3">
     <g id="line2d_7">
      <path clip-path="url(#pd17d8af51d)" d=" M220.8 252 L220.8 28.8" style="fill:none;stroke:#ffffff;stroke-linecap:round;stroke-width:1.3;"/>
     </g>
     <g id="line2d_8">
      <g>
       <use style="fill:#262626;stroke:#262626;stroke-width:1.3;" x="220.8" xlink:href="#m56cc5124a0" y="252.0"/>
      </g>
     </g>
     <g id="line2d_9">
      <g>
       <use style="fill:#262626;stroke:#262626;stroke-width:1.3;" x="220.8" xlink:href="#m56cc5124a0" y="28.8"/>
      </g>
     </g>
     <g id="text_3">
      <!-- &#8722;0.5 -->
      <g style="fill:#262626;" transform="translate(209.267273438 270.395)scale(0.14300000000000002 -0.14300000000000002)">
       <use xlink:href="#CalibreRegular-2212"/>
       <use x="53.99998474121094" xlink:href="#CalibreRegular-30"/>
       <use x="107.79997253417969" xlink:href="#CalibreRegular-2e"/>
       <use x="124.89996337890625" xlink:href="#CalibreRegular-35"/>
      </g>
     </g>
    </g>
    <g id="xtick_4">
     <g id="line2d_10">
      <path clip-path="url(#pd17d8af51d)" d=" M295.2 252 L295.2 28.8" style="fill:none;stroke:#ffffff;stroke-linecap:round;stroke-width:1.3;"/>
     </g>
     <g id="line2d_11">
      <g>
       <use style="fill:#262626;stroke:#262626;stroke-width:1.3;" x="295.2" xlink:href="#m56cc5124a0" y="252.0"/>
      </g>
     </g>
     <g id="line2d_12">
      <g>
       <use style="fill:#262626;stroke:#262626;stroke-width:1.3;" x="295.2" xlink:href="#m56cc5124a0" y="28.8"/>
      </g>
     </g>
     <g id="text_4">
      <!-- 0.0 -->
      <g style="fill:#262626;" transform="translate(286.85684375 270.395)scale(0.14300000000000002 -0.14300000000000002)">
       <use xlink:href="#CalibreRegular-30"/>
       <use x="53.79998779296875" xlink:href="#CalibreRegular-2e"/>
       <use x="70.89997863769531" xlink:href="#CalibreRegular-30"/>
      </g>
     </g>
    </g>
    <g id="xtick_5">
     <g id="line2d_13">
      <path clip-path="url(#pd17d8af51d)" d=" M369.6 252 L369.6 28.8" style="fill:none;stroke:#ffffff;stroke-linecap:round;stroke-width:1.3;"/>
     </g>
     <g id="line2d_14">
      <g>
       <use style="fill:#262626;stroke:#262626;stroke-width:1.3;" x="369.6" xlink:href="#m56cc5124a0" y="252.0"/>
      </g>
     </g>
     <g id="line2d_15">
      <g>
       <use style="fill:#262626;stroke:#262626;stroke-width:1.3;" x="369.6" xlink:href="#m56cc5124a0" y="28.8"/>
      </g>
     </g>
     <g id="text_5">
      <!-- 0.5 -->
      <g style="fill:#262626;" transform="translate(361.692546875 270.395)scale(0.14300000000000002 -0.14300000000000002)">
       <use xlink:href="#CalibreRegular-30"/>
       <use x="53.79998779296875" xlink:href="#CalibreRegular-2e"/>
       <use x="70.89997863769531" xlink:href="#CalibreRegular-35"/>
      </g>
     </g>
    </g>
    <g id="xtick_6">
     <g id="line2d_16">
      <path clip-path="url(#pd17d8af51d)" d=" M444 252 L444 28.8" style="fill:none;stroke:#ffffff;stroke-linecap:round;stroke-width:1.3;"/>
     </g>
     <g id="line2d_17">
      <g>
       <use style="fill:#262626;stroke:#262626;stroke-width:1.3;" x="444.0" xlink:href="#m56cc5124a0" y="252.0"/>
      </g>
     </g>
     <g id="line2d_18">
      <g>
       <use style="fill:#262626;stroke:#262626;stroke-width:1.3;" x="444.0" xlink:href="#m56cc5124a0" y="28.8"/>
      </g>
     </g>
     <g id="text_6">
      <!-- 1.0 -->
      <g style="fill:#262626;" transform="translate(437.043273437 270.395)scale(0.14300000000000002 -0.14300000000000002)">
       <use xlink:href="#CalibreRegular-31"/>
       <use x="32.899993896484375" xlink:href="#CalibreRegular-2e"/>
       <use x="49.99998474121094" xlink:href="#CalibreRegular-30"/>
      </g>
     </g>
    </g>
    <g id="xtick_7">
     <g id="line2d_19">
      <path clip-path="url(#pd17d8af51d)" d=" M518.4 252 L518.4 28.8" style="fill:none;stroke:#ffffff;stroke-linecap:round;stroke-width:1.3;"/>
     </g>
     <g id="line2d_20">
      <g>
       <use style="fill:#262626;stroke:#262626;stroke-width:1.3;" x="518.4" xlink:href="#m56cc5124a0" y="252.0"/>
      </g>
     </g>
     <g id="line2d_21">
      <g>
       <use style="fill:#262626;stroke:#262626;stroke-width:1.3;" x="518.4" xlink:href="#m56cc5124a0" y="28.8"/>
      </g>
     </g>
     <g id="text_7">
      <!-- 1.5 -->
      <g style="fill:#262626;" transform="translate(511.878976562 270.395)scale(0.14300000000000002 -0.14300000000000002)">
       <use xlink:href="#CalibreRegular-31"/>
       <use x="32.899993896484375" xlink:href="#CalibreRegular-2e"/>
       <use x="49.99998474121094" xlink:href="#CalibreRegular-35"/>
      </g>
     </g>
    </g>
   </g>
   <g id="matplotlib.axis_2">
    <g id="ytick_1">
     <g id="line2d_22">
      <path clip-path="url(#pd17d8af51d)" d=" M72 241.855 L518.4 241.855" style="fill:none;stroke:#ffffff;stroke-linecap:round;stroke-width:1.3;"/>
     </g>
     <g id="line2d_23">
      <g>
       <use style="fill:#262626;stroke:#262626;stroke-width:1.3;" x="72.0" xlink:href="#m56cc5124a0" y="241.854545455"/>
      </g>
     </g>
     <g id="line2d_24">
      <g>
       <use style="fill:#262626;stroke:#262626;stroke-width:1.3;" x="518.4" xlink:href="#m56cc5124a0" y="241.854545455"/>
      </g>
     </g>
     <g id="text_8">
      <!-- &#8722;1.0 -->
      <g style="fill:#262626;" transform="translate(41.9505 245.286545455)scale(0.14300000000000002 -0.14300000000000002)">
       <use xlink:href="#CalibreRegular-2212"/>
       <use x="53.99998474121094" xlink:href="#CalibreRegular-31"/>
       <use x="86.89997863769531" xlink:href="#CalibreRegular-2e"/>
       <use x="103.99996948242188" xlink:href="#CalibreRegular-30"/>
      </g>
     </g>
    </g>
    <g id="ytick_2">
     <g id="line2d_25">
      <path clip-path="url(#pd17d8af51d)" d=" M72 191.127 L518.4 191.127" style="fill:none;stroke:#ffffff;stroke-linecap:round;stroke-width:1.3;"/>
     </g>
     <g id="line2d_26">
      <g>
       <use style="fill:#262626;stroke:#262626;stroke-width:1.3;" x="72.0" xlink:href="#m56cc5124a0" y="191.127272727"/>
      </g>
     </g>
     <g id="line2d_27">
      <g>
       <use style="fill:#262626;stroke:#262626;stroke-width:1.3;" x="518.4" xlink:href="#m56cc5124a0" y="191.127272727"/>
      </g>
     </g>
     <g id="text_9">
      <!-- &#8722;0.5 -->
      <g style="fill:#262626;" transform="translate(39.834546875 194.559272727)scale(0.14300000000000002 -0.14300000000000002)">
       <use xlink:href="#CalibreRegular-2212"/>
       <use x="53.99998474121094" xlink:href="#CalibreRegular-30"/>
       <use x="107.79997253417969" xlink:href="#CalibreRegular-2e"/>
       <use x="124.89996337890625" xlink:href="#CalibreRegular-35"/>
      </g>
     </g>
    </g>
    <g id="ytick_3">
     <g id="line2d_28">
      <path clip-path="url(#pd17d8af51d)" d=" M72 140.4 L518.4 140.4" style="fill:none;stroke:#ffffff;stroke-linecap:round;stroke-width:1.3;"/>
     </g>
     <g id="line2d_29">
      <g>
       <use style="fill:#262626;stroke:#262626;stroke-width:1.3;" x="72.0" xlink:href="#m56cc5124a0" y="140.4"/>
      </g>
     </g>
     <g id="line2d_30">
      <g>
       <use style="fill:#262626;stroke:#262626;stroke-width:1.3;" x="518.4" xlink:href="#m56cc5124a0" y="140.4"/>
      </g>
     </g>
     <g id="text_10">
      <!-- 0.0 -->
      <g style="fill:#262626;" transform="translate(46.2136875 143.832)scale(0.14300000000000002 -0.14300000000000002)">
       <use xlink:href="#CalibreRegular-30"/>
       <use x="53.79998779296875" xlink:href="#CalibreRegular-2e"/>
       <use x="70.89997863769531" xlink:href="#CalibreRegular-30"/>
      </g>
     </g>
    </g>
    <g id="ytick_4">
     <g id="line2d_31">
      <path clip-path="url(#pd17d8af51d)" d=" M72 89.6727 L518.4 89.6727" style="fill:none;stroke:#ffffff;stroke-linecap:round;stroke-width:1.3;"/>
     </g>
     <g id="line2d_32">
      <g>
       <use style="fill:#262626;stroke:#262626;stroke-width:1.3;" x="72.0" xlink:href="#m56cc5124a0" y="89.6727272727"/>
      </g>
     </g>
     <g id="line2d_33">
      <g>
       <use style="fill:#262626;stroke:#262626;stroke-width:1.3;" x="518.4" xlink:href="#m56cc5124a0" y="89.6727272727"/>
      </g>
     </g>
     <g id="text_11">
      <!-- 0.5 -->
      <g style="fill:#262626;" transform="translate(47.08509375 93.1047272727)scale(0.14300000000000002 -0.14300000000000002)">
       <use xlink:href="#CalibreRegular-30"/>
       <use x="53.79998779296875" xlink:href="#CalibreRegular-2e"/>
       <use x="70.89997863769531" xlink:href="#CalibreRegular-35"/>
      </g>
     </g>
    </g>
    <g id="ytick_5">
     <g id="line2d_34">
      <path clip-path="url(#pd17d8af51d)" d=" M72 38.9455 L518.4 38.9455" style="fill:none;stroke:#ffffff;stroke-linecap:round;stroke-width:1.3;"/>
     </g>
     <g id="line2d_35">
      <g>
       <use style="fill:#262626;stroke:#262626;stroke-width:1.3;" x="72.0" xlink:href="#m56cc5124a0" y="38.9454545455"/>
      </g>
     </g>
     <g id="line2d_36">
      <g>
       <use style="fill:#262626;stroke:#262626;stroke-width:1.3;" x="518.4" xlink:href="#m56cc5124a0" y="38.9454545455"/>
      </g>
     </g>
     <g id="text_12">
      <!-- 1.0 -->
      <g style="fill:#262626;" transform="translate(48.986546875 42.3774545455)scale(0.14300000000000002 -0.14300000000000002)">
       <use xlink:href="#CalibreRegular-31"/>
       <use x="32.899993896484375" xlink:href="#CalibreRegular-2e"/>
       <use x="49.99998474121094" xlink:href="#CalibreRegular-30"/>
      </g>
     </g>
    </g>
   </g>
   <g id="line2d_37">
    <path clip-path="url(#pd17d8af51d)" d=" M72 140.4 L518.4 140.4" style="fill:none;stroke:#dcdce6;stroke-linecap:round;stroke-width:2;"/>
   </g>
   <g id="line2d_38">
    <path clip-path="url(#pd17d8af51d)" d=" M295.2 252 L295.2 28.8" style="fill:none;stroke:#dcdce6;stroke-linecap:round;stroke-width:2;"/>
   </g>
   <g id="patch_3">
    <path d=" M72 252 L72 28.8" style="fill:none;"/>
   </g>
   <g id="patch_4">
    <path d=" M72 252 L518.4 252" style="fill:none;"/>
   </g>
   <g id="patch_5">
    <path d=" M518.4 252 L518.4 28.8" style="fill:none;"/>
   </g>
   <g id="patch_6">
    <path d=" M72 28.8 L518.4 28.8" style="fill:none;"/>
   </g>
   <g id="text_13">
    <!-- Inflection example -->
    <defs>
     <path id="CalibreRegular-20"/>
     <path d=" M15.2031 61.4062 L15.2031 0 L7.29688 0 L7.29688 61.4062 z " id="CalibreRegular-49"/>
     <path d=" M14.2031 65 L14.2031 0 L6.70312 0 L6.70312 65 z " id="CalibreRegular-6c"/>
     <path d=" M38.2031 38.2031 Q43.2031 45.2969 51.7031 45.2969 Q58.4062 45.2969 62.0469 41 Q65.7031 36.7031 65.7031 29.4062 L65.7031 0 L58.0938 0 L58.0938 28.2031 Q58.0938 33 56 35.75 Q53.9062 38.5 49.7031 38.5 Q46.2969 38.5 43.5938 36.3438 Q40.9062 34.2031 39.9062 30.5938 L39.9062 0 L32.4062 0 L32.4062 28.2031 Q32.4062 33 30.2969 35.75 Q28.2031 38.5 24 38.5 Q20.5938 38.5 17.8906 36.3438 Q15.2031 34.2031 14.2031 30.5938 L14.2031 0 L6.70312 0 L6.70312 44.4062 L14.2031 44.4062 L14.2031 39.2031 Q18 45.2969 26.2031 45.2969 Q34.5938 45.2969 38.2031 38.2031" id="CalibreRegular-6d"/>
     <path d=" M6.70312 0 L6.70312 44.4062 L14.2031 44.4062 L14.2031 38.7969 Q16.2969 41.5938 19.75 43.4375 Q23.2031 45.2969 27.2969 45.2969 Q34.7031 45.2969 38.7969 40.8906 Q42.9062 36.5 42.9062 29.0938 L42.9062 0 L35.2969 0 L35.2969 27.9062 Q35.2969 32.7031 32.8438 35.5469 Q30.4062 38.4062 25.5 38.4062 Q21.5938 38.4062 18.5 36.0469 Q15.4062 33.7031 14.2031 30.0938 L14.2031 0 z " id="CalibreRegular-6e"/>
     <path d=" M14.7031 -0.90625 Q3.5 11.9062 3.5 22.2031 Q3.5 32.5 9.09375 38.8906 Q14.7031 45.2969 23.7031 45.2969 Q31 45.2969 35.6406 41.3906 Q40.2969 37.5 41.5 31 L33.7969 31 Q33 34.5938 30.3438 36.6406 Q27.7031 38.7031 23.7031 38.7031 Q18 38.7031 14.5469 34.0938 Q11.0938 29.5 11.0938 22.2031 Q11.0938 14.9062 14.5469 10.2969 Q18 5.70312 23.7031 5.70312 Q27.7031 5.70312 30.3438 7.75 Q33 9.79688 33.7969 13.4062 L41.5 13.4062 Q40.2969 6.90625 35.6406 3 Q31 -0.90625 23.7031 -0.90625 Q14.7031 -0.90625 3.5 11.9062" id="CalibreRegular-63"/>
     <path d=" M38.9062 0 L31.7031 0 L31.7031 3.29688 Q30.2969 1.79688 27 0.5 Q23.7031 -0.796875 20 -0.796875 Q13 -0.796875 8.25 3.09375 Q3.5 7 3.5 13.4062 Q3.5 19.5 8.39062 23.3906 Q13.2969 27.2969 20.5 27.2969 Q23.7969 27.2969 27 26.1875 Q30.2031 25.0938 31.7031 23.7031 L31.7031 29.2969 Q31.7031 33.5938 29.1406 36.1875 Q26.5938 38.7969 21.9062 38.7969 Q14.9062 38.7969 12.7969 32.7031 L5.40625 32.7031 Q6.5 38.2969 11.0469 41.7969 Q15.5938 45.2969 22 45.2969 Q29.9062 45.2969 34.4062 41.0938 Q38.9062 36.9062 38.9062 29.5938 z  M31.7031 11 L31.7031 15.5938 Q30.7031 18 27.75 19.5469 Q24.7969 21.0938 21.2969 21.0938 Q16.9062 21.0938 13.7969 19.0938 Q10.7031 17.0938 10.7031 13.4062 Q10.7031 9.59375 13.7969 7.54688 Q16.9062 5.5 21.2969 5.5 Q24.7969 5.5 27.75 7.04688 Q30.7031 8.59375 31.7031 11" id="CalibreRegular-61"/>
     <path d=" M33 45.2969 Q44.2969 32.4062 44.2969 22.2031 Q44.2969 12 38.6406 5.54688 Q33 -0.90625 23.8906 -0.90625 Q14.7969 -0.90625 9.14062 5.54688 Q3.5 12 3.5 22.2031 Q3.5 32.4062 9.14062 38.8438 Q14.7969 45.2969 23.8906 45.2969 Q33 45.2969 44.2969 32.4062 M29.7969 5.70312 Q36.7031 14.7969 36.7031 22.1875 Q36.7031 29.5938 33.25 34.1406 Q29.7969 38.7031 23.8906 38.7031 Q18 38.7031 14.5469 34.1406 Q11.0938 29.5938 11.0938 22.1875 Q11.0938 14.7969 14.5469 10.25 Q18 5.70312 23.8906 5.70312 Q29.7969 5.70312 36.7031 14.7969" id="CalibreRegular-6f"/>
     <path d=" M14.2031 5.20312 L14.2031 -17 L6.70312 -17 L6.70312 44.4062 L14.2031 44.4062 L14.2031 39.2031 Q16.0938 41.7969 19.4375 43.5469 Q22.7969 45.2969 26.7031 45.2969 Q36.0938 45.2969 41.3906 38.6406 Q46.7031 32 46.7031 22.2031 Q46.7031 12.4062 41.3906 5.75 Q36.0938 -0.90625 26.7031 -0.90625 Q22.7969 -0.90625 19.4375 0.84375 Q16.0938 2.59375 14.2031 5.20312 M14.2031 31.2031 L14.2031 13.2031 Q15.9062 9.79688 18.9531 7.84375 Q22 5.90625 25.5938 5.90625 Q31.7969 5.90625 35.4375 10.4531 Q39.0938 15 39.0938 22.2031 Q39.0938 29.4062 35.4375 33.9531 Q31.7969 38.5 25.5938 38.5 Q22 38.5 18.9531 36.5469 Q15.9062 34.5938 14.2031 31.2031" id="CalibreRegular-70"/>
     <path d=" M14.2031 44.4062 L14.2031 0 L6.70312 0 L6.70312 44.4062 z  M12.4062 62.5938 Q15.2969 59.7969 15.2969 57.7969 Q15.2969 55.7969 13.8438 54.3906 Q12.4062 53 10.4062 53 Q8.40625 53 7 54.3906 Q5.59375 55.7969 5.59375 57.7969 Q5.59375 59.7969 7 61.1875 Q8.40625 62.5938 10.4062 62.5938 Q12.4062 62.5938 15.2969 59.7969" id="CalibreRegular-69"/>
     <path d=" M8.79688 11.2031 L8.79688 38 L1.59375 38 L1.59375 44.4062 L8.79688 44.4062 L8.79688 56.0938 L16.2969 56.0938 L16.2969 44.4062 L27 44.4062 L27 38 L16.2969 38 L16.2969 12 Q16.2969 5.79688 22.2031 5.79688 Q25.2969 5.79688 28 7.59375 L28 0.59375 Q25.2031 -0.90625 21 -0.90625 Q15.4062 -0.90625 12.0938 2.14062 Q8.79688 5.20312 8.79688 11.2031" id="CalibreRegular-74"/>
     <path d=" M42.2031 44.4062 L26.5938 23 L43.0938 0 L34.5938 0 L22.2969 17.2969 L9.90625 0 L1.79688 0 L18.2031 22.7031 L2.70312 44.4062 L11.2969 44.4062 L22.5 28.5 L34 44.4062 z " id="CalibreRegular-78"/>
     <path d=" M28.9062 64.9062 L28.9062 58.0938 Q27 59.2969 24.2031 59.2969 Q20.7969 59.2969 18.8438 57.1875 Q16.9062 55.0938 16.9062 51.2031 L16.9062 44.4062 L26.9062 44.4062 L26.9062 38 L16.9062 38 L16.9062 0 L9.5 0 L9.5 38 L2 38 L2 44.4062 L9.5 44.4062 L9.5 51.7969 Q9.5 58.2969 13.2969 62.0938 Q17.0938 65.9062 23.0938 65.9062 Q26.5 65.9062 28.9062 64.9062" id="CalibreRegular-66"/>
     <path d=" M34.7031 13.2969 L41.7969 13.2969 Q40.5938 6.79688 35.8906 2.9375 Q31.2031 -0.90625 23.9062 -0.90625 Q14.7969 -0.90625 9.14062 5.4375 Q3.5 11.7969 3.5 22.0938 Q3.5 32.2031 9.09375 38.75 Q14.7031 45.2969 23.7031 45.2969 Q32.5938 45.2969 37.5 39.3438 Q42.4062 33.4062 42.4062 23.5 L42.4062 20.7969 L11 20.7969 Q11.0938 13.7969 14.6406 9.64062 Q18.2031 5.5 23.9062 5.5 Q28.0938 5.5 30.9375 7.54688 Q33.7969 9.59375 34.7031 13.2969 M23.7969 38.9062 Q18.7969 38.9062 15.3906 35.5938 Q12 32.2969 11.2031 26.5 L34.7969 26.5 Q34.7031 31.7969 31.8906 35.3438 Q29.0938 38.9062 23.7969 38.9062" id="CalibreRegular-65"/>
    </defs>
    <g style="fill:#262626;" transform="translate(234.81825 23.8)scale(0.17160000000000003 -0.17160000000000003)">
     <use xlink:href="#CalibreRegular-49"/>
     <use x="22.499984741210938" xlink:href="#CalibreRegular-6e"/>
     <use x="71.39997863769531" xlink:href="#CalibreRegular-66"/>
     <use x="100.29997253417969" xlink:href="#CalibreRegular-6c"/>
     <use x="121.19996643066406" xlink:href="#CalibreRegular-65"/>
     <use x="166.89996337890625" xlink:href="#CalibreRegular-63"/>
     <use x="211.4999542236328" xlink:href="#CalibreRegular-74"/>
     <use x="243.199951171875" xlink:href="#CalibreRegular-69"/>
     <use x="264.0999450683594" xlink:href="#CalibreRegular-6f"/>
     <use x="311.8999328613281" xlink:href="#CalibreRegular-6e"/>
     <use x="360.7999267578125" xlink:href="#CalibreRegular-20"/>
     <use x="382.89991760253906" xlink:href="#CalibreRegular-65"/>
     <use x="428.59991455078125" xlink:href="#CalibreRegular-78"/>
     <use x="473.4999084472656" xlink:href="#CalibreRegular-61"/>
     <use x="518.4998931884766" xlink:href="#CalibreRegular-6d"/>
     <use x="590.1998748779297" xlink:href="#CalibreRegular-70"/>
     <use x="640.3998718261719" xlink:href="#CalibreRegular-6c"/>
     <use x="661.2998657226562" xlink:href="#CalibreRegular-65"/>
    </g>
   </g>
   <g id="line2d_39">
    <path clip-path="url(#pd17d8af51d)" d=" M126.214 289 L130.537 277.884 L135.005 266.992 L139.474 256.691 L143.942 246.965 L148.411 237.797 L152.879 229.17 L157.348 221.069 L161.369 214.212 L165.391 207.756 L169.413 201.688 L173.434 195.995 L177.456 190.667 L181.477 185.69 L185.499 181.053 L189.521 176.744 L193.542 172.751 L197.564 169.061 L201.586 165.663 L205.607 162.545 L209.629 159.695 L213.65 157.1 L217.672 154.75 L222.141 152.409 L226.609 150.337 L231.077 148.519 L235.546 146.937 L240.014 145.575 L244.93 144.312 L249.845 143.273 L255.207 142.37 L261.016 141.63 L267.272 141.071 L273.975 140.694 L282.018 140.471 L293.636 140.4 L310.616 140.287 L318.659 140.002 L325.362 139.555 L331.618 138.913 L337.427 138.081 L342.789 137.081 L347.705 135.943 L352.62 134.57 L357.088 133.101 L361.557 131.403 L366.025 129.46 L370.494 127.256 L374.515 125.035 L378.537 122.577 L382.559 119.87 L386.58 116.903 L390.602 113.662 L394.623 110.136 L398.645 106.313 L402.667 102.181 L406.688 97.7273 L410.71 92.9408 L414.732 87.8092 L418.753 82.3203 L422.775 76.4623 L426.796 70.223 L430.818 63.5905 L434.84 56.5527 L438.861 49.0977 L442.883 41.2134 L447.351 31.9349 L451.82 22.0951 L456.288 11.6775 L460.757 0.665564 L461.412 -1 L461.412 -1" style="fill:none;stroke:#386df9;stroke-linecap:round;stroke-width:2.275;"/>
   </g>
   <g id="legend_1">
    <g id="line2d_40">
     <path d=" M450.046 46.675 L478.646 46.675" style="fill:none;stroke:#386df9;stroke-linecap:round;stroke-width:2.275;"/>
    </g>
    <g id="line2d_41"/>
    <g id="text_14">
     <!-- $x^3$ -->
     <defs>
      <path d=" M54.4062 45.2969 L34.4062 23.5938 L45.2031 0 L35.7969 0 L27.9062 17.5 L12.4062 0 L3 0 L25 23.9062 L15.4062 45.2969 L24.7969 45.2969 L31.5938 30.2031 L45 45.2969 z " id="STIXGeneral-Italic-1d639"/>
      <path d=" M11.2969 49.2031 L4.20312 50.9062 Q6.40625 58.7031 11.5 63.1406 Q16.5938 67.5938 24.2969 67.5938 Q31.4062 67.5938 36.2031 63.0938 Q41 58.5938 41 51.9062 Q41 43 32.4062 37 Q38 35 41.0469 30.3438 Q44.0938 25.7031 44.0938 21 Q44.0938 11.2969 37.7969 5 Q31.4062 -1.40625 20.5 -1.40625 Q9.5 -1.40625 3.09375 5.59375 L7.79688 11.2031 Q12.9062 5.70312 20 5.70312 Q27.4062 5.70312 31.5938 9.29688 Q36.2031 13.2031 36.2031 19.0938 Q36.2031 24.2969 32.4531 27.7969 Q28.7031 31.2969 22.2031 32.2031 L15.7969 32.2031 L15.7969 34.2969 L20.5938 39.4062 Q25.0938 39.4062 29.0938 42.8438 Q33.0938 46.2969 33.0938 51.2031 Q33.0938 55.4062 30.4375 57.9531 Q27.7969 60.5 24 60.5 Q20 60.5 16.5469 57.6406 Q13.0938 54.7969 11.2969 49.2031" id="STIXGeneral-Regular-1d7e5"/>
     </defs>
     <g style="fill:#262626;" transform="translate(490.086 51.68)scale(0.14300000000000002 -0.14300000000000002)">
      <use transform="translate(0.0 0.9765625)" xlink:href="#STIXGeneral-Italic-1d639"/>
      <use transform="translate(48.19999694824219 32.684375)scale(0.7)" xlink:href="#STIXGeneral-Regular-1d7e5"/>
     </g>
    </g>
   </g>
  </g>
 </g>
 </svg>
