<?xml version="1.0" encoding="utf-8"?>
<!-- Generator: Adobe Illustrator 16.0.0, SVG Export Plug-In . SVG Version: 6.00 Build 0)  -->
<!DOCTYPE svg PUBLIC "-//W3C//DTD SVG 1.1//EN" "http://www.w3.org/Graphics/SVG/1.1/DTD/svg11.dtd">
<svg version="1.1" id="Layer_1" xmlns="http://www.w3.org/2000/svg" xmlns:xlink="http://www.w3.org/1999/xlink" x="0px" y="0px"
	 width="154.543px" height="155.116px" viewBox="0 0 154.543 155.116" enable-background="new 0 0 154.543 155.116"
	 xml:space="preserve">
<g>
	<g>
		
			<line fill="none" stroke="#CCF4FF" stroke-linecap="round" stroke-linejoin="round" x1="153.776" y1="154.348" x2="0.765" y2="0.769"/>
		<g>
			<polygon fill="#CCF4FF" points="154.335,149.115 153.335,149.148 153.507,154.076 148.579,153.887 148.541,154.887 
				154.543,155.115 			"/>
		</g>
		<g>
			<polygon fill="#CCF4FF" points="6,0.229 5.963,1.229 1.036,1.04 1.207,5.968 0.206,6.002 0,0 			"/>
		</g>
	</g>
</g>
<line fill="none" stroke="#BABABA" stroke-linecap="round" stroke-linejoin="round" stroke-miterlimit="10" x1="66.824" y1="61.818" x2="55.663" y2="61.818"/>
<line fill="none" stroke="#BABABA" stroke-linecap="round" stroke-linejoin="round" stroke-miterlimit="10" x1="66.824" y1="77.272" x2="55.663" y2="77.272"/>
<line fill="none" stroke="#BABABA" stroke-linecap="round" stroke-linejoin="round" stroke-miterlimit="10" x1="66.824" y1="92.727" x2="55.663" y2="92.727"/>
<line fill="none" stroke="#BABABA" stroke-linecap="round" stroke-linejoin="round" stroke-miterlimit="10" x1="76.698" y1="102.602" x2="76.698" y2="113.762"/>
<g>
	<g>
		
			<line fill="none" stroke="#4BF9CF" stroke-linecap="round" stroke-miterlimit="10" x1="61.388" y1="108.182" x2="91.185" y2="93.213"/>
		<g>
			<polygon fill="#4BF9CF" points="90.06,98.355 89.121,98.008 90.842,93.387 86.107,92.008 86.388,91.047 92.153,92.729 			"/>
		</g>
	</g>
</g>
<g>
	<g>
		<line fill="none" stroke="#BABABA" stroke-linejoin="round" x1="61.388" y1="31.994" x2="61.388" y2="139.723"/>
		<g>
			<polygon fill="#BABABA" points="57.298,35.307 58.03,35.989 61.387,32.377 64.744,35.989 65.477,35.307 61.387,30.909 			"/>
		</g>
		<g>
			<polygon fill="#BABABA" points="57.298,136.41 58.03,135.727 61.387,139.34 64.744,135.727 65.477,136.41 61.387,140.807 			"/>
		</g>
	</g>
</g>
<g>
	<g>
		<line fill="none" stroke="#BABABA" stroke-linejoin="round" x1="141.01" y1="108.182" x2="33.281" y2="108.182"/>
		<g>
			<polygon fill="#BABABA" points="137.695,104.092 137.014,104.824 140.625,108.18 137.014,111.537 137.695,112.27 142.094,108.18 
							"/>
		</g>
		<g>
			<polygon fill="#BABABA" points="36.596,104.092 37.277,104.824 33.666,108.18 37.277,111.537 36.596,112.27 32.197,108.18 			"/>
		</g>
	</g>
</g>
<g>
	<g>
		
			<line fill="none" stroke="#F7415B" stroke-linecap="round" stroke-miterlimit="10" x1="61.388" y1="108.182" x2="61.247" y2="62.902"/>
		<g>
			<polygon fill="#F7415B" points="65.348,66.203 64.617,66.887 61.25,63.287 57.903,66.909 57.169,66.228 61.245,61.818 			"/>
		</g>
	</g>
</g>
<line fill="none" stroke="#BABABA" stroke-linecap="round" stroke-linejoin="round" stroke-miterlimit="10" x1="92.153" y1="102.602" x2="92.153" y2="113.762"/>
<line fill="none" stroke="#BABABA" stroke-linecap="round" stroke-linejoin="round" stroke-miterlimit="10" x1="107.606" y1="102.602" x2="107.606" y2="113.762"/>
<g>
	<g>
		<rect x="37.418" y="79.42" fill="none" width="15.885" height="15.455"/>
		<path fill="#F7415B" d="M42.341,93.185h-0.7V79.424h1.051v6.345c0.412-1.483,1.689-2.286,3.192-2.286
			c2.308,0,3.812,1.627,3.812,4.758c0,3.069-1.545,5.13-4.059,5.13c-1.709,0-2.698-0.886-3.049-1.937L42.341,93.185z M42.691,89.456
			c0,2.163,1.441,3.09,2.802,3.09c1.751,0,3.131-1.318,3.131-4.223c0-2.657-1.174-3.935-2.925-3.935
			c-1.607,0-3.008,1.092-3.008,3.296V89.456z"/>
	</g>
	
		<polyline fill="none" stroke="#F7415B" stroke-width="0.5" stroke-linecap="round" stroke-linejoin="round" stroke-miterlimit="10" points="
		41.711,77.058 49.009,77.058 45.36,74.267 	"/>
</g>
<g>
	<g>
		<rect x="77.342" y="113.332" fill="none" width="15.884" height="15.455"/>
		<path fill="#4BF9CF" d="M88.238,125.119c0,0.886,0.268,1.194,0.762,1.194c0.186,0,0.31-0.021,0.433-0.082v0.865
			c-0.165,0.041-0.371,0.082-0.639,0.082c-0.947,0-1.483-0.494-1.545-1.688c-0.453,1.235-1.647,1.792-2.925,1.792
			c-1.751,0-2.884-0.947-2.884-2.555c0-1.937,1.483-3.028,4.552-3.028c0.371,0,0.763,0,1.195,0.062v-1.318
			c0-1.628-0.927-2.163-2.225-2.163c-1.216,0-2.102,0.515-2.225,1.916l-0.969-0.145c0.145-2.019,1.73-2.657,3.296-2.657
			c1.73,0,3.173,0.721,3.173,2.925V125.119z M87.188,122.544c-0.33-0.041-0.618-0.062-0.989-0.062c-2.41,0-3.707,0.68-3.707,2.143
			c0,1.092,0.7,1.812,2.039,1.812c1.318,0,2.657-0.824,2.657-2.328V122.544z"/>
	</g>
	
		<polyline fill="none" stroke="#4BF9CF" stroke-width="0.5" stroke-linecap="round" stroke-linejoin="round" stroke-miterlimit="10" points="
		81.635,114.406 88.933,114.406 85.283,111.615 	"/>
</g>
<g>
	<g>
		<g>
			<rect x="80.99" y="62.892" fill="none" width="15.885" height="15.455"/>
			<path fill="#41C8F7" d="M85.913,76.657h-0.7V62.896h1.051v6.345c0.412-1.483,1.689-2.286,3.192-2.286
				c2.308,0,3.812,1.627,3.812,4.758c0,3.069-1.545,5.13-4.059,5.13c-1.709,0-2.698-0.886-3.049-1.937L85.913,76.657z
				 M86.264,72.928c0,2.163,1.441,3.09,2.802,3.09c1.751,0,3.131-1.319,3.131-4.223c0-2.657-1.174-3.935-2.925-3.935
				c-1.607,0-3.008,1.092-3.008,3.296V72.928z"/>
		</g>
		
			<polyline fill="none" stroke="#41C8F7" stroke-width="0.5" stroke-linecap="round" stroke-linejoin="round" stroke-miterlimit="10" points="
			85.283,60.53 92.582,60.53 88.933,57.74 		"/>
	</g>
	<g>
		<g>
			<rect x="104.387" y="62.892" fill="none" width="15.885" height="15.455"/>
			<path fill="#41C8F7" d="M115.284,74.679c0,0.886,0.268,1.195,0.762,1.195c0.186,0,0.31-0.021,0.433-0.082v0.865
				c-0.165,0.041-0.371,0.082-0.639,0.082c-0.947,0-1.483-0.494-1.545-1.689c-0.453,1.236-1.647,1.792-2.925,1.792
				c-1.751,0-2.884-0.947-2.884-2.555c0-1.937,1.482-3.028,4.552-3.028c0.371,0,0.763,0,1.195,0.062v-1.318
				c0-1.628-0.927-2.163-2.225-2.163c-1.216,0-2.102,0.515-2.225,1.916l-0.969-0.145c0.145-2.019,1.73-2.657,3.296-2.657
				c1.73,0,3.173,0.721,3.173,2.925V74.679z M114.233,72.104c-0.33-0.041-0.618-0.062-0.989-0.062c-2.41,0-3.707,0.68-3.707,2.143
				c0,1.092,0.7,1.813,2.039,1.813c1.318,0,2.657-0.825,2.657-2.329V72.104z"/>
		</g>
		<polyline fill="none" stroke="#41C8F7" stroke-width="0.5" stroke-miterlimit="10" points="108.68,63.964 115.978,63.964 
			112.329,61.174 		"/>
	</g>
	<g>
		<g>
			<path fill="#41C8F7" d="M97.99,70.187h4.614v0.906H97.99V70.187z"/>
		</g>
	</g>
</g>
<g>
	<g>
		
			<line fill="none" stroke="#41C8F7" stroke-linecap="round" stroke-linejoin="round" x1="92.153" y1="92.727" x2="62.011" y2="62.584"/>
		<g>
			<polygon fill="#41C8F7" points="67.246,62.036 67.21,63.036 62.283,62.855 62.463,67.784 61.463,67.819 61.245,61.817 			"/>
		</g>
	</g>
</g>
<g>
	<rect x="27.473" y="1.718" fill="none" width="67.112" height="26.616"/>
	<path fill="#7AD6E5" d="M28.699,2.016c0.265,0,0.469,0.205,0.469,0.469c0,0.253-0.204,0.445-0.469,0.445
		c-0.253,0-0.445-0.192-0.445-0.445C28.254,2.221,28.446,2.016,28.699,2.016z M29.012,4.192v5.555h-0.613V4.192H29.012z"/>
	<path fill="#7AD6E5" d="M31.415,5.467c0.253-0.842,0.927-1.383,1.864-1.383c0.962,0,1.695,0.517,1.695,1.755v3.908h-0.613V5.996
		c0-0.878-0.433-1.371-1.227-1.371c-0.878,0-1.659,0.613-1.659,1.972v3.15h-0.613V4.192h0.469L31.415,5.467z"/>
	<path fill="#7AD6E5" d="M39.338,9.483c-0.289,0.252-0.71,0.373-1.19,0.373c-0.866,0-1.347-0.493-1.347-1.407V4.698h-0.806V4.192
		h0.806V3.014l0.613-0.084v1.262h1.659v0.505h-1.672v3.643c0,0.697,0.325,0.986,0.818,0.986c0.396,0,0.648-0.096,0.949-0.336
		L39.338,9.483z"/>
	<path fill="#7AD6E5" d="M43.87,8.269l0.541,0.12c-0.205,1.058-0.998,1.467-2.057,1.467c-1.431,0-2.345-0.974-2.345-2.874
		c0-1.839,0.914-2.897,2.381-2.897c1.347,0,2.032,0.938,2.032,2.212c0,0.276-0.036,0.529-0.072,0.709H40.6
		c0,1.491,0.673,2.356,1.804,2.356C43.196,9.363,43.665,9.038,43.87,8.269z M43.81,6.501c0.012-0.108,0.012-0.204,0.012-0.325
		c0-0.89-0.517-1.587-1.467-1.587c-1.034,0-1.623,0.709-1.731,1.912H43.81z"/>
	<path fill="#7AD6E5" d="M48.617,4.83c-0.132-0.06-0.312-0.084-0.517-0.084c-0.938,0-1.6,0.914-1.6,2.116v2.886h-0.613V4.192h0.505
		l0.084,1.575c0.169-0.998,0.806-1.671,1.828-1.671c0.145,0,0.276,0.024,0.373,0.06L48.617,4.83z"/>
	<path fill="#7AD6E5" d="M49.71,8.292c0.12,0.746,0.674,1.083,1.455,1.083c0.842,0,1.383-0.289,1.383-0.986
		c0-0.613-0.349-0.926-1.106-1.106L50.72,7.102c-0.901-0.216-1.383-0.625-1.383-1.479c0-1.13,0.902-1.539,1.853-1.539
		c1.069,0,1.743,0.409,1.888,1.467l-0.59,0.072c-0.096-0.733-0.517-1.058-1.298-1.058c-0.77,0-1.275,0.336-1.275,0.998
		c0,0.589,0.301,0.842,0.998,1.01l0.71,0.18c0.913,0.241,1.503,0.602,1.503,1.575c0,1.07-0.817,1.527-1.96,1.527
		c-1.13,0-1.815-0.433-2.032-1.395L49.71,8.292z"/>
	<path fill="#7AD6E5" d="M57.993,8.269l0.541,0.12c-0.205,1.058-0.998,1.467-2.057,1.467c-1.431,0-2.345-0.974-2.345-2.874
		c0-1.839,0.914-2.897,2.381-2.897c1.347,0,2.032,0.938,2.032,2.212c0,0.276-0.036,0.529-0.072,0.709h-3.751
		c0,1.491,0.673,2.356,1.804,2.356C57.319,9.363,57.788,9.038,57.993,8.269z M57.933,6.501c0.012-0.108,0.012-0.204,0.012-0.325
		c0-0.89-0.517-1.587-1.467-1.587c-1.034,0-1.623,0.709-1.731,1.912H57.933z"/>
	<path fill="#7AD6E5" d="M64.026,8.317c-0.192,1.106-1.01,1.539-2.08,1.539c-1.395,0-2.309-0.974-2.309-2.862
		c0-1.852,0.902-2.91,2.381-2.91c1.179,0,1.852,0.601,1.948,1.768l-0.565,0.084c-0.108-0.866-0.565-1.323-1.419-1.323
		c-1.142,0-1.755,0.926-1.755,2.393c0,1.442,0.673,2.344,1.768,2.344c0.829,0,1.322-0.385,1.515-1.142L64.026,8.317z"/>
	<path fill="#7AD6E5" d="M67.945,9.483c-0.289,0.252-0.71,0.373-1.19,0.373c-0.866,0-1.347-0.493-1.347-1.407V4.698h-0.806V4.192
		h0.806V3.014l0.613-0.084v1.262h1.659v0.505h-1.672v3.643c0,0.697,0.325,0.986,0.818,0.986c0.396,0,0.648-0.096,0.949-0.336
		L67.945,9.483z"/>
	<path fill="#7AD6E5" d="M69.375,2.016c0.265,0,0.469,0.205,0.469,0.469c0,0.253-0.204,0.445-0.469,0.445
		c-0.253,0-0.445-0.192-0.445-0.445C68.93,2.221,69.122,2.016,69.375,2.016z M69.688,4.192v5.555h-0.613V4.192H69.688z"/>
	<path fill="#7AD6E5" d="M72.091,5.467c0.253-0.842,0.927-1.383,1.864-1.383c0.962,0,1.695,0.517,1.695,1.755v3.908h-0.613V5.996
		c0-0.878-0.433-1.371-1.227-1.371c-0.878,0-1.659,0.613-1.659,1.972v3.15h-0.613V4.192h0.469L72.091,5.467z"/>
	<path fill="#7AD6E5" d="M80.807,4.698c0.289-0.157,0.457-0.493,0.493-0.986l0.553,0.181c-0.06,0.625-0.385,0.962-0.806,1.118
		c0.157,0.276,0.241,0.613,0.241,1.01c0,1.227-0.902,1.9-2.08,1.9c-0.312,0-0.602-0.048-0.806-0.12
		c-0.312,0.144-0.469,0.361-0.469,0.649c0,0.385,0.276,0.577,0.805,0.577h1.263c1.082,0,1.828,0.433,1.828,1.479
		c0,1.395-1.479,1.78-2.79,1.78c-1.202,0-2.368-0.349-2.368-1.539c0-0.83,0.613-1.347,1.479-1.395
		c-0.48-0.036-0.757-0.36-0.757-0.805c0-0.409,0.24-0.722,0.697-0.866c-0.602-0.3-0.975-0.877-0.975-1.659
		c0-1.202,0.83-1.936,2.08-1.936C79.881,4.084,80.435,4.301,80.807,4.698z M79.088,11.816c1.13,0,2.152-0.301,2.152-1.251
		c0-0.613-0.397-0.986-1.251-0.986h-1.179c-0.913,0-1.551,0.325-1.551,1.118C77.26,11.515,78.065,11.816,79.088,11.816z
		 M79.195,7.451c0.891,0,1.479-0.517,1.479-1.443s-0.589-1.443-1.479-1.443c-0.913,0.012-1.479,0.541-1.479,1.443
		C77.717,6.886,78.282,7.451,79.195,7.451z"/>
	<path fill="#7AD6E5" d="M29.817,20.051c-0.204,0.048-0.337,0.06-0.481,0.06c-0.625,0-1.021-0.349-1.021-1.046v-7.046h0.613v6.961
		c0,0.445,0.216,0.602,0.517,0.602c0.156,0,0.253-0.024,0.373-0.06V20.051z"/>
	<path fill="#7AD6E5" d="M31.403,12.319c0.265,0,0.469,0.205,0.469,0.469c0,0.252-0.204,0.445-0.469,0.445
		c-0.253,0-0.445-0.192-0.445-0.445C30.958,12.524,31.15,12.319,31.403,12.319z M31.716,14.496v5.555h-0.613v-5.555H31.716z"/>
	<path fill="#7AD6E5" d="M34.119,15.77c0.253-0.841,0.926-1.382,1.864-1.382c0.962,0,1.695,0.517,1.695,1.755v3.908h-0.613v-3.751
		c0-0.878-0.433-1.371-1.227-1.371c-0.878,0-1.659,0.613-1.659,1.972v3.15h-0.613v-5.555h0.469L34.119,15.77z"/>
	<path fill="#7AD6E5" d="M42.968,18.572l0.541,0.12c-0.205,1.058-0.998,1.467-2.057,1.467c-1.431,0-2.345-0.974-2.345-2.874
		c0-1.839,0.914-2.897,2.381-2.897c1.347,0,2.032,0.938,2.032,2.212c0,0.276-0.036,0.529-0.072,0.709h-3.751
		c0,1.491,0.673,2.357,1.804,2.357C42.294,19.666,42.763,19.341,42.968,18.572z M42.907,16.804c0.012-0.108,0.012-0.204,0.012-0.325
		c0-0.89-0.517-1.587-1.467-1.587c-1.034,0-1.623,0.709-1.731,1.912H42.907z"/>
</g>
<g>
	<g>
		
			<line fill="none" stroke="#41C8F7" stroke-linecap="round" stroke-linejoin="round" x1="61.816" y1="108.182" x2="31.674" y2="78.038"/>
		<g>
			<polygon fill="#41C8F7" points="36.909,77.489 36.873,78.489 31.946,78.31 32.126,83.238 31.126,83.273 30.908,77.271 			"/>
		</g>
	</g>
</g>
<g>
</g>
<g>
</g>
<g>
</g>
<g>
</g>
<g>
</g>
<g>
</g>
<g>
</g>
</svg>
