<?xml version="1.0" encoding="utf-8" standalone="no"?>
<!DOCTYPE svg PUBLIC "-//W3C//DTD SVG 1.1//EN"
  "http://www.w3.org/Graphics/SVG/1.1/DTD/svg11.dtd">
<!-- Created with matplotlib (http://matplotlib.org/) -->
<svg height="288pt" version="1.1" viewBox="0 0 720 288" width="720pt" xmlns="http://www.w3.org/2000/svg" xmlns:xlink="http://www.w3.org/1999/xlink">
 <defs>
  <style type="text/css">
*{stroke-linecap:butt;stroke-linejoin:round;}
  </style>
 </defs>
 <g id="figure_1">
  <g id="patch_1">
   <path d="
M0 288
L720 288
L720 0
L0 0
z
" style="fill:#ffffff;"/>
  </g>
  <g id="axes_1">
   <g id="patch_2">
    <path d="
M90 252
L648 252
L648 28.8
L90 28.8
z
" style="fill:#eaeaf2;"/>
   </g>
   <g id="matplotlib.axis_1">
    <g id="xtick_1">
     <g id="line2d_1">
      <path clip-path="url(#p9f76a1e9e4)" d="
M90 252
L90 28.8" style="fill:none;stroke:#ffffff;stroke-linecap:round;stroke-width:1.3;"/>
     </g>
     <g id="line2d_2">
      <defs>
       <path d="
M0 0
L0 0" id="m56cc5124a0" style="stroke:#262626;stroke-width:1.3;"/>
      </defs>
      <g>
       <use style="fill:#262626;stroke:#262626;stroke-width:1.3;" x="90.0" xlink:href="#m56cc5124a0" y="252.0"/>
      </g>
     </g>
     <g id="line2d_3">
      <g>
       <use style="fill:#262626;stroke:#262626;stroke-width:1.3;" x="90.0" xlink:href="#m56cc5124a0" y="28.8"/>
      </g>
     </g>
     <g id="text_1">
      <!-- −6 -->
      <defs>
       <path d="
M7.29688 26.5938
L7.29688 32.7969
L46.7031 32.7969
L46.7031 26.5938
z
" id="CalibreRegular-2212"/>
       <path d="
M12.7031 19.5938
Q12.7031 13.5938 16.3906 9.6875
Q20.0938 5.79688 26 5.79688
Q31.7969 5.79688 35.5 9.64062
Q39.2031 13.5 39.2031 19.5938
Q39.2031 25.7031 35.5 29.6406
Q31.7969 33.5938 26 33.5938
Q20.0938 33.5938 16.3906 29.6875
Q12.7031 25.7969 12.7031 19.5938
M45.5938 47.0938
L37.7969 47.0938
Q35 55.7969 26.5 55.7969
Q19.7969 55.7969 15.3906 49.0469
Q11 42.2969 11 32.2969
Q11 32 11.0469 30.9531
Q11.0938 29.9062 11.0938 29.5938
Q12.5938 34.2969 16.8906 37.1875
Q21.2031 40.0938 26.5938 40.0938
Q35.2969 40.0938 40.8906 34.1406
Q46.5 28.2031 46.5 19.7031
Q46.5 11 40.7969 5.04688
Q35.0938 -0.90625 25.9062 -0.90625
Q13.4062 -0.90625 7.59375 10.7969
Q4 18.4062 4 29.5938
Q4 44.4062 10.25 53.3438
Q16.5 62.2969 26.5 62.2969
Q41.7031 62.2969 45.5938 47.0938" id="CalibreRegular-36"/>
      </defs>
      <g style="fill:#262626;" transform="translate(83.3359765625 270.395)scale(0.14300000000000002 -0.14300000000000002)">
       <use xlink:href="#CalibreRegular-2212"/>
       <use x="53.99998474121094" xlink:href="#CalibreRegular-36"/>
      </g>
     </g>
    </g>
    <g id="xtick_2">
     <g id="line2d_4">
      <path clip-path="url(#p9f76a1e9e4)" d="
M183 252
L183 28.8" style="fill:none;stroke:#ffffff;stroke-linecap:round;stroke-width:1.3;"/>
     </g>
     <g id="line2d_5">
      <g>
       <use style="fill:#262626;stroke:#262626;stroke-width:1.3;" x="183.0" xlink:href="#m56cc5124a0" y="252.0"/>
      </g>
     </g>
     <g id="line2d_6">
      <g>
       <use style="fill:#262626;stroke:#262626;stroke-width:1.3;" x="183.0" xlink:href="#m56cc5124a0" y="28.8"/>
      </g>
     </g>
     <g id="text_2">
      <!-- −4 -->
      <defs>
       <path d="
M33.7969 61.4062
L10.9062 20.5
L30.5 20.5
L30.5 35.2969
L37.7969 35.2969
L37.7969 20.5
L48.5938 20.5
L48.5938 13.9062
L37.7969 13.9062
L37.7969 0
L30.5 0
L30.5 13.9062
L2.20312 13.9062
L2.20312 19.5
L25.7969 61.4062
z
" id="CalibreRegular-34"/>
      </defs>
      <g style="fill:#262626;" transform="translate(176.186273438 270.395)scale(0.14300000000000002 -0.14300000000000002)">
       <use xlink:href="#CalibreRegular-2212"/>
       <use x="53.99998474121094" xlink:href="#CalibreRegular-34"/>
      </g>
     </g>
    </g>
    <g id="xtick_3">
     <g id="line2d_7">
      <path clip-path="url(#p9f76a1e9e4)" d="
M276 252
L276 28.8" style="fill:none;stroke:#ffffff;stroke-linecap:round;stroke-width:1.3;"/>
     </g>
     <g id="line2d_8">
      <g>
       <use style="fill:#262626;stroke:#262626;stroke-width:1.3;" x="276.0" xlink:href="#m56cc5124a0" y="252.0"/>
      </g>
     </g>
     <g id="line2d_9">
      <g>
       <use style="fill:#262626;stroke:#262626;stroke-width:1.3;" x="276.0" xlink:href="#m56cc5124a0" y="28.8"/>
      </g>
     </g>
     <g id="text_3">
      <!-- −2 -->
      <defs>
       <path d="
M34.0938 44.9062
Q34.0938 49.5938 31.0938 52.4375
Q28.0938 55.2969 23 55.2969
Q17.5938 55.2969 14.5469 51.9375
Q11.5 48.5938 11 43
L2.90625 43
Q3.79688 51.7031 9.1875 57
Q14.5938 62.2969 23 62.2969
Q31.7031 62.2969 36.7031 57.5938
Q41.7031 52.9062 41.7031 45
Q41.7031 43.5938 41.3438 42.0938
Q41 40.5938 40.6406 39.5
Q40.2969 38.4062 39.3438 36.75
Q38.4062 35.0938 37.9062 34.2969
Q37.4062 33.5 35.9062 31.7031
Q34.4062 29.9062 33.9062 29.2969
Q33.4062 28.7031 31.5469 26.6406
Q29.7031 24.5938 29.2969 24.0938
L13.7031 7
L43 7
L43 0
L2.90625 0
L2.90625 5.20312
L22.7031 27
Q27.2031 32 28.7969 33.7969
Q30.4062 35.5938 32.25 38.8906
Q34.0938 42.2031 34.0938 44.9062" id="CalibreRegular-32"/>
      </defs>
      <g style="fill:#262626;" transform="translate(269.586226562 270.395)scale(0.14300000000000002 -0.14300000000000002)">
       <use xlink:href="#CalibreRegular-2212"/>
       <use x="53.99998474121094" xlink:href="#CalibreRegular-32"/>
      </g>
     </g>
    </g>
    <g id="xtick_4">
     <g id="line2d_10">
      <path clip-path="url(#p9f76a1e9e4)" d="
M369 252
L369 28.8" style="fill:none;stroke:#ffffff;stroke-linecap:round;stroke-width:1.3;"/>
     </g>
     <g id="line2d_11">
      <g>
       <use style="fill:#262626;stroke:#262626;stroke-width:1.3;" x="369.0" xlink:href="#m56cc5124a0" y="252.0"/>
      </g>
     </g>
     <g id="line2d_12">
      <g>
       <use style="fill:#262626;stroke:#262626;stroke-width:1.3;" x="369.0" xlink:href="#m56cc5124a0" y="28.8"/>
      </g>
     </g>
     <g id="text_4">
      <!-- 0 -->
      <defs>
       <path d="
M49.7969 16.5938
Q37.0938 -0.90625 26.8906 -0.90625
Q16.7031 -0.90625 10.3438 7.84375
Q4 16.5938 4 30.6875
Q4 44.7969 10.3438 53.5469
Q16.7031 62.2969 26.8906 62.2969
Q37.0938 62.2969 43.4375 53.5469
Q49.7969 44.7969 49.7969 30.6875
Q49.7969 16.5938 37.0938 -0.90625
M26.9062 55.2031
Q19.5938 55.2031 15.6406 48.5
Q11.7031 41.7969 11.7031 30.6875
Q11.7031 19.5938 15.6406 12.8906
Q19.5938 6.20312 26.9062 6.20312
Q34.0938 6.20312 38.0938 12.9531
Q42.0938 19.7031 42.0938 30.7031
Q42.0938 41.7031 38.0938 48.4531
Q34.0938 55.2031 26.9062 55.2031" id="CalibreRegular-30"/>
      </defs>
      <g style="fill:#262626;" transform="translate(365.725523437 270.395)scale(0.14300000000000002 -0.14300000000000002)">
       <use xlink:href="#CalibreRegular-30"/>
      </g>
     </g>
    </g>
    <g id="xtick_5">
     <g id="line2d_13">
      <path clip-path="url(#p9f76a1e9e4)" d="
M462 252
L462 28.8" style="fill:none;stroke:#ffffff;stroke-linecap:round;stroke-width:1.3;"/>
     </g>
     <g id="line2d_14">
      <g>
       <use style="fill:#262626;stroke:#262626;stroke-width:1.3;" x="462.0" xlink:href="#m56cc5124a0" y="252.0"/>
      </g>
     </g>
     <g id="line2d_15">
      <g>
       <use style="fill:#262626;stroke:#262626;stroke-width:1.3;" x="462.0" xlink:href="#m56cc5124a0" y="28.8"/>
      </g>
     </g>
     <g id="text_5">
      <!-- 2 -->
      <g style="fill:#262626;" transform="translate(459.133296875 270.395)scale(0.14300000000000002 -0.14300000000000002)">
       <use xlink:href="#CalibreRegular-32"/>
      </g>
     </g>
    </g>
    <g id="xtick_6">
     <g id="line2d_16">
      <path clip-path="url(#p9f76a1e9e4)" d="
M555 252
L555 28.8" style="fill:none;stroke:#ffffff;stroke-linecap:round;stroke-width:1.3;"/>
     </g>
     <g id="line2d_17">
      <g>
       <use style="fill:#262626;stroke:#262626;stroke-width:1.3;" x="555.0" xlink:href="#m56cc5124a0" y="252.0"/>
      </g>
     </g>
     <g id="line2d_18">
      <g>
       <use style="fill:#262626;stroke:#262626;stroke-width:1.3;" x="555.0" xlink:href="#m56cc5124a0" y="28.8"/>
      </g>
     </g>
     <g id="text_6">
      <!-- 4 -->
      <g style="fill:#262626;" transform="translate(551.683070313 270.395)scale(0.14300000000000002 -0.14300000000000002)">
       <use xlink:href="#CalibreRegular-34"/>
      </g>
     </g>
    </g>
    <g id="xtick_7">
     <g id="line2d_19">
      <path clip-path="url(#p9f76a1e9e4)" d="
M648 252
L648 28.8" style="fill:none;stroke:#ffffff;stroke-linecap:round;stroke-width:1.3;"/>
     </g>
     <g id="line2d_20">
      <g>
       <use style="fill:#262626;stroke:#262626;stroke-width:1.3;" x="648.0" xlink:href="#m56cc5124a0" y="252.0"/>
      </g>
     </g>
     <g id="line2d_21">
      <g>
       <use style="fill:#262626;stroke:#262626;stroke-width:1.3;" x="648.0" xlink:href="#m56cc5124a0" y="28.8"/>
      </g>
     </g>
     <g id="text_7">
      <!-- 6 -->
      <g style="fill:#262626;" transform="translate(644.96125 270.395)scale(0.14300000000000002 -0.14300000000000002)">
       <use xlink:href="#CalibreRegular-36"/>
      </g>
     </g>
    </g>
   </g>
   <g id="matplotlib.axis_2">
    <g id="ytick_1">
     <g id="line2d_22">
      <path clip-path="url(#p9f76a1e9e4)" d="
M90 252
L648 252" style="fill:none;stroke:#ffffff;stroke-linecap:round;stroke-width:1.3;"/>
     </g>
     <g id="line2d_23">
      <g>
       <use style="fill:#262626;stroke:#262626;stroke-width:1.3;" x="90.0" xlink:href="#m56cc5124a0" y="252.0"/>
      </g>
     </g>
     <g id="line2d_24">
      <g>
       <use style="fill:#262626;stroke:#262626;stroke-width:1.3;" x="648.0" xlink:href="#m56cc5124a0" y="252.0"/>
      </g>
     </g>
     <g id="text_8">
      <!-- 0.0 -->
      <defs>
       <path d="
M6.29688 -0.5
Q3.20312 2.59375 3.20312 4.89062
Q3.20312 7.20312 4.75 8.79688
Q6.29688 10.4062 8.59375 10.4062
Q10.7969 10.4062 12.3438 8.79688
Q13.9062 7.20312 13.9062 4.89062
Q13.9062 2.59375 12.3438 1.04688
Q10.7969 -0.5 8.59375 -0.5
Q6.29688 -0.5 3.20312 2.59375" id="CalibreRegular-2e"/>
      </defs>
      <g style="fill:#262626;" transform="translate(64.2136875 255.432)scale(0.14300000000000002 -0.14300000000000002)">
       <use xlink:href="#CalibreRegular-30"/>
       <use x="53.79998779296875" xlink:href="#CalibreRegular-2e"/>
       <use x="70.89997863769531" xlink:href="#CalibreRegular-30"/>
      </g>
     </g>
    </g>
    <g id="ytick_2">
     <g id="line2d_25">
      <path clip-path="url(#p9f76a1e9e4)" d="
M90 214.8
L648 214.8" style="fill:none;stroke:#ffffff;stroke-linecap:round;stroke-width:1.3;"/>
     </g>
     <g id="line2d_26">
      <g>
       <use style="fill:#262626;stroke:#262626;stroke-width:1.3;" x="90.0" xlink:href="#m56cc5124a0" y="214.8"/>
      </g>
     </g>
     <g id="line2d_27">
      <g>
       <use style="fill:#262626;stroke:#262626;stroke-width:1.3;" x="648.0" xlink:href="#m56cc5124a0" y="214.8"/>
      </g>
     </g>
     <g id="text_9">
      <!-- 0.2 -->
      <g style="fill:#262626;" transform="translate(65.185640625 218.232)scale(0.14300000000000002 -0.14300000000000002)">
       <use xlink:href="#CalibreRegular-30"/>
       <use x="53.79998779296875" xlink:href="#CalibreRegular-2e"/>
       <use x="70.89997863769531" xlink:href="#CalibreRegular-32"/>
      </g>
     </g>
    </g>
    <g id="ytick_3">
     <g id="line2d_28">
      <path clip-path="url(#p9f76a1e9e4)" d="
M90 177.6
L648 177.6" style="fill:none;stroke:#ffffff;stroke-linecap:round;stroke-width:1.3;"/>
     </g>
     <g id="line2d_29">
      <g>
       <use style="fill:#262626;stroke:#262626;stroke-width:1.3;" x="90.0" xlink:href="#m56cc5124a0" y="177.6"/>
      </g>
     </g>
     <g id="line2d_30">
      <g>
       <use style="fill:#262626;stroke:#262626;stroke-width:1.3;" x="648.0" xlink:href="#m56cc5124a0" y="177.6"/>
      </g>
     </g>
     <g id="text_10">
      <!-- 0.4 -->
      <g style="fill:#262626;" transform="translate(64.385734375 181.032)scale(0.14300000000000002 -0.14300000000000002)">
       <use xlink:href="#CalibreRegular-30"/>
       <use x="53.79998779296875" xlink:href="#CalibreRegular-2e"/>
       <use x="70.89997863769531" xlink:href="#CalibreRegular-34"/>
      </g>
     </g>
    </g>
    <g id="ytick_4">
     <g id="line2d_31">
      <path clip-path="url(#p9f76a1e9e4)" d="
M90 140.4
L648 140.4" style="fill:none;stroke:#ffffff;stroke-linecap:round;stroke-width:1.3;"/>
     </g>
     <g id="line2d_32">
      <g>
       <use style="fill:#262626;stroke:#262626;stroke-width:1.3;" x="90.0" xlink:href="#m56cc5124a0" y="140.4"/>
      </g>
     </g>
     <g id="line2d_33">
      <g>
       <use style="fill:#262626;stroke:#262626;stroke-width:1.3;" x="648.0" xlink:href="#m56cc5124a0" y="140.4"/>
      </g>
     </g>
     <g id="text_11">
      <!-- 0.6 -->
      <g style="fill:#262626;" transform="translate(64.685140625 143.832)scale(0.14300000000000002 -0.14300000000000002)">
       <use xlink:href="#CalibreRegular-30"/>
       <use x="53.79998779296875" xlink:href="#CalibreRegular-2e"/>
       <use x="70.89997863769531" xlink:href="#CalibreRegular-36"/>
      </g>
     </g>
    </g>
    <g id="ytick_5">
     <g id="line2d_34">
      <path clip-path="url(#p9f76a1e9e4)" d="
M90 103.2
L648 103.2" style="fill:none;stroke:#ffffff;stroke-linecap:round;stroke-width:1.3;"/>
     </g>
     <g id="line2d_35">
      <g>
       <use style="fill:#262626;stroke:#262626;stroke-width:1.3;" x="90.0" xlink:href="#m56cc5124a0" y="103.2"/>
      </g>
     </g>
     <g id="line2d_36">
      <g>
       <use style="fill:#262626;stroke:#262626;stroke-width:1.3;" x="648.0" xlink:href="#m56cc5124a0" y="103.2"/>
      </g>
     </g>
     <g id="text_12">
      <!-- 0.8 -->
      <defs>
       <path d="
M24.2969 5.5
Q30.2031 5.5 33.9531 8.79688
Q37.7031 12.0938 37.7031 17.2969
Q37.7031 22.5 33.9531 25.75
Q30.2031 29 24.2969 29
Q18.5 29 14.75 25.75
Q11 22.5 11 17.2969
Q11 12.0938 14.75 8.79688
Q18.5 5.5 24.2969 5.5
M24.2969 35.5938
Q29.2031 35.5938 32.3906 38.3906
Q35.5938 41.2031 35.5938 45.7031
Q35.5938 50.2031 32.3906 53.0469
Q29.2031 55.9062 24.2969 55.9062
Q19.5 55.9062 16.2969 53.0469
Q13.0938 50.2031 13.0938 45.7031
Q13.0938 41.2969 16.2969 38.4375
Q19.5 35.5938 24.2969 35.5938
M24.2969 -0.90625
Q15.2969 -0.90625 9.34375 4
Q3.40625 8.90625 3.40625 16.7031
Q3.40625 22.5 6.75 26.7031
Q10.0938 30.9062 15.4062 32.2969
Q11 33.7969 8.29688 37.5
Q5.59375 41.2031 5.59375 46.0938
Q5.59375 53.4062 10.9375 57.8438
Q16.2969 62.2969 24.2969 62.2969
Q32.4062 62.2969 37.75 57.8438
Q43.0938 53.4062 43.0938 46.0938
Q43.0938 41.2031 40.3438 37.5469
Q37.5938 33.9062 33.2969 32.2969
Q38.5 30.9062 41.8906 26.7031
Q45.2969 22.5 45.2969 16.7031
Q45.2969 8.90625 39.3438 4
Q33.4062 -0.90625 24.2969 -0.90625" id="CalibreRegular-38"/>
      </defs>
      <g style="fill:#262626;" transform="translate(64.8571875 106.632)scale(0.14300000000000002 -0.14300000000000002)">
       <use xlink:href="#CalibreRegular-30"/>
       <use x="53.79998779296875" xlink:href="#CalibreRegular-2e"/>
       <use x="70.89997863769531" xlink:href="#CalibreRegular-38"/>
      </g>
     </g>
    </g>
    <g id="ytick_6">
     <g id="line2d_37">
      <path clip-path="url(#p9f76a1e9e4)" d="
M90 66
L648 66" style="fill:none;stroke:#ffffff;stroke-linecap:round;stroke-width:1.3;"/>
     </g>
     <g id="line2d_38">
      <g>
       <use style="fill:#262626;stroke:#262626;stroke-width:1.3;" x="90.0" xlink:href="#m56cc5124a0" y="66.0"/>
      </g>
     </g>
     <g id="line2d_39">
      <g>
       <use style="fill:#262626;stroke:#262626;stroke-width:1.3;" x="648.0" xlink:href="#m56cc5124a0" y="66.0"/>
      </g>
     </g>
     <g id="text_13">
      <!-- 1.0 -->
      <defs>
       <path d="
M25.4062 61.5
L25.4062 0
L17.7031 0
L17.7031 52
L2.5 44.2031
L2.5 52.2031
L20.7031 61.5
z
" id="CalibreRegular-31"/>
      </defs>
      <g style="fill:#262626;" transform="translate(66.986546875 69.432)scale(0.14300000000000002 -0.14300000000000002)">
       <use xlink:href="#CalibreRegular-31"/>
       <use x="32.899993896484375" xlink:href="#CalibreRegular-2e"/>
       <use x="49.99998474121094" xlink:href="#CalibreRegular-30"/>
      </g>
     </g>
    </g>
    <g id="ytick_7">
     <g id="line2d_40">
      <path clip-path="url(#p9f76a1e9e4)" d="
M90 28.8
L648 28.8" style="fill:none;stroke:#ffffff;stroke-linecap:round;stroke-width:1.3;"/>
     </g>
     <g id="line2d_41">
      <g>
       <use style="fill:#262626;stroke:#262626;stroke-width:1.3;" x="90.0" xlink:href="#m56cc5124a0" y="28.8"/>
      </g>
     </g>
     <g id="line2d_42">
      <g>
       <use style="fill:#262626;stroke:#262626;stroke-width:1.3;" x="648.0" xlink:href="#m56cc5124a0" y="28.8"/>
      </g>
     </g>
     <g id="text_14">
      <!-- 1.2 -->
      <g style="fill:#262626;" transform="translate(67.9585 32.232)scale(0.14300000000000002 -0.14300000000000002)">
       <use xlink:href="#CalibreRegular-31"/>
       <use x="32.899993896484375" xlink:href="#CalibreRegular-2e"/>
       <use x="49.99998474121094" xlink:href="#CalibreRegular-32"/>
      </g>
     </g>
    </g>
    <g id="text_15">
     <!-- Density -->
     <defs>
      <path d="
M15.2031 7.09375
L26.9062 7.09375
Q37.2969 7.09375 43.1406 13.4375
Q49 19.7969 49 30.6875
Q49 41.5938 43.0938 48
Q37.2031 54.4062 26.9062 54.4062
L15.2031 54.4062
z

M7.29688 0
L7.29688 61.4062
L27 61.4062
Q40.5 61.4062 48.6406 53.0469
Q56.7969 44.7031 56.7969 30.7031
Q56.7969 16.7031 48.6406 8.34375
Q40.5 0 27 0
z
" id="CalibreRegular-44"/>
      <path d="
M8.79688 11.2031
L8.79688 38
L1.59375 38
L1.59375 44.4062
L8.79688 44.4062
L8.79688 56.0938
L16.2969 56.0938
L16.2969 44.4062
L27 44.4062
L27 38
L16.2969 38
L16.2969 12
Q16.2969 5.79688 22.2031 5.79688
Q25.2969 5.79688 28 7.59375
L28 0.59375
Q25.2031 -0.90625 21 -0.90625
Q15.4062 -0.90625 12.0938 2.14062
Q8.79688 5.20312 8.79688 11.2031" id="CalibreRegular-74"/>
      <path d="
M14.2031 44.4062
L14.2031 0
L6.70312 0
L6.70312 44.4062
z

M12.4062 62.5938
Q15.2969 59.7969 15.2969 57.7969
Q15.2969 55.7969 13.8438 54.3906
Q12.4062 53 10.4062 53
Q8.40625 53 7 54.3906
Q5.59375 55.7969 5.59375 57.7969
Q5.59375 59.7969 7 61.1875
Q8.40625 62.5938 10.4062 62.5938
Q12.4062 62.5938 15.2969 59.7969" id="CalibreRegular-69"/>
      <path d="
M3 12.2031
L10.7969 12.2031
Q12.9062 5.40625 21.2969 5.40625
Q25.4062 5.40625 27.9062 7.04688
Q30.4062 8.70312 30.4062 12
Q30.4062 16.5 23.7969 18.2031
L15 20.5
Q4.29688 23.2031 4.29688 32.2031
Q4.29688 38 8.79688 41.6406
Q13.2969 45.2969 20.2031 45.2969
Q27.4062 45.2969 31.7969 42
Q36.2031 38.7031 37.4062 32.7031
L29.9062 32.7031
Q27.9062 39 20.0938 39
Q16.5938 39 14.0938 37.3438
Q11.5938 35.7031 11.5938 32.5938
Q11.5938 30.4062 13.0469 29.1562
Q14.5 27.9062 17.7969 27
L26.4062 24.9062
Q37.7031 21.9062 37.7031 12.5
Q37.7031 6.29688 33.0938 2.6875
Q28.5 -0.90625 21.2031 -0.90625
Q13.9062 -0.90625 8.95312 2.59375
Q4 6.09375 3 12.2031" id="CalibreRegular-73"/>
      <path d="
M19.7969 -17
L12.4062 -17
L19.0938 -0.296875
L1.79688 44.4062
L9.90625 44.4062
L23 9.40625
L35.9062 44.4062
L43.7031 44.4062
z
" id="CalibreRegular-79"/>
      <path d="
M34.7031 13.2969
L41.7969 13.2969
Q40.5938 6.79688 35.8906 2.9375
Q31.2031 -0.90625 23.9062 -0.90625
Q14.7969 -0.90625 9.14062 5.4375
Q3.5 11.7969 3.5 22.0938
Q3.5 32.2031 9.09375 38.75
Q14.7031 45.2969 23.7031 45.2969
Q32.5938 45.2969 37.5 39.3438
Q42.4062 33.4062 42.4062 23.5
L42.4062 20.7969
L11 20.7969
Q11.0938 13.7969 14.6406 9.64062
Q18.2031 5.5 23.9062 5.5
Q28.0938 5.5 30.9375 7.54688
Q33.7969 9.59375 34.7031 13.2969
M23.7969 38.9062
Q18.7969 38.9062 15.3906 35.5938
Q12 32.2969 11.2031 26.5
L34.7969 26.5
Q34.7031 31.7969 31.8906 35.3438
Q29.0938 38.9062 23.7969 38.9062" id="CalibreRegular-65"/>
      <path d="
M6.70312 0
L6.70312 44.4062
L14.2031 44.4062
L14.2031 38.7969
Q16.2969 41.5938 19.75 43.4375
Q23.2031 45.2969 27.2969 45.2969
Q34.7031 45.2969 38.7969 40.8906
Q42.9062 36.5 42.9062 29.0938
L42.9062 0
L35.2969 0
L35.2969 27.9062
Q35.2969 32.7031 32.8438 35.5469
Q30.4062 38.4062 25.5 38.4062
Q21.5938 38.4062 18.5 36.0469
Q15.4062 33.7031 14.2031 30.0938
L14.2031 0
z
" id="CalibreRegular-6e"/>
     </defs>
     <g style="fill:#262626;" transform="translate(56.5395875 162.857032812)rotate(-90.0)scale(0.15730000000000002 -0.15730000000000002)">
      <use xlink:href="#CalibreRegular-44"/>
      <use x="60.49998474121094" xlink:href="#CalibreRegular-65"/>
      <use x="106.19998168945312" xlink:href="#CalibreRegular-6e"/>
      <use x="155.0999755859375" xlink:href="#CalibreRegular-73"/>
      <use x="196.49996948242188" xlink:href="#CalibreRegular-69"/>
      <use x="217.39996337890625" xlink:href="#CalibreRegular-74"/>
      <use x="249.09996032714844" xlink:href="#CalibreRegular-79"/>
     </g>
    </g>
   </g>
   <g id="line2d_43">
    <path clip-path="url(#p9f76a1e9e4)" d="
M90 252
L303.106 251.911
L308.714 251.717
L311.518 251.513
L314.322 251.181
L317.126 250.655
L319.93 249.845
L322.734 248.625
L325.538 246.84
L328.342 244.295
L331.146 240.764
L333.95 235.997
L336.754 229.74
L339.558 221.76
L342.362 211.88
L345.166 200.017
L347.97 186.22
L350.774 170.706
L353.578 153.883
L359.186 118.86
L361.99 102.313
L364.794 87.6431
L367.598 75.7539
L370.402 67.4221
L373.206 63.2147
L376.01 63.4247
L378.814 68.0372
L381.618 76.7316
L384.422 88.9181
L387.226 103.804
L390.03 120.479
L395.638 155.507
L398.442 172.23
L401.246 187.596
L404.05 201.217
L406.854 212.894
L409.658 222.59
L412.462 230.398
L415.266 236.505
L418.07 241.145
L420.874 244.573
L423.678 247.037
L426.482 248.762
L429.286 249.936
L432.09 250.715
L434.894 251.219
L437.698 251.536
L443.307 251.848
L451.719 251.976
L482.563 252
L648 252
L648 252" style="fill:none;opacity:0.1;stroke:#34495e;stroke-linecap:round;stroke-width:2.275;"/>
   </g>
   <g id="line2d_44">
    <path clip-path="url(#p9f76a1e9e4)" d="
M90 252
L305.91 251.928
L311.518 251.766
L317.126 251.313
L319.93 250.863
L322.734 250.163
L325.538 249.1
L328.342 247.529
L331.146 245.27
L333.95 242.105
L336.754 237.791
L339.558 232.075
L342.362 224.711
L345.166 215.5
L347.97 204.321
L350.774 191.173
L353.578 176.214
L356.382 159.783
L364.794 107.839
L367.598 92.4184
L370.402 79.477
L373.206 69.8457
L376.01 64.1719
L378.814 62.8485
L381.618 65.968
L384.422 73.3126
L387.226 84.379
L390.03 98.4353
L392.834 114.601
L401.246 166.606
L404.05 182.492
L406.854 196.746
L409.658 209.103
L412.462 219.475
L415.266 227.916
L418.07 234.583
L420.874 239.698
L423.678 243.515
L426.482 246.284
L429.286 248.239
L432.09 249.584
L434.894 250.484
L437.698 251.071
L440.503 251.444
L446.111 251.814
L454.523 251.97
L479.759 252
L648 252
L648 252" style="fill:none;opacity:0.1;stroke:#34495e;stroke-linecap:round;stroke-width:2.275;"/>
   </g>
   <g id="line2d_45">
    <path clip-path="url(#p9f76a1e9e4)" d="
M90 252
L286.281 251.91
L291.889 251.715
L294.693 251.51
L297.497 251.177
L300.302 250.649
L303.106 249.835
L305.91 248.611
L308.714 246.82
L311.518 244.267
L314.322 240.725
L317.126 235.945
L319.93 229.673
L322.734 221.676
L325.538 211.778
L328.342 199.896
L331.146 186.081
L333.95 170.553
L336.754 153.719
L342.362 118.698
L345.166 102.164
L347.97 87.5165
L350.774 75.6575
L353.578 67.3625
L356.382 63.1959
L359.186 63.4479
L361.99 68.1009
L364.794 76.8314
L367.598 89.0473
L370.402 103.955
L373.206 120.642
L378.814 155.669
L381.618 172.382
L384.422 187.733
L387.226 201.337
L390.03 212.995
L392.834 222.672
L395.638 230.464
L398.442 236.555
L401.246 241.182
L404.05 244.6
L406.854 247.057
L409.658 248.775
L412.462 249.945
L415.266 250.721
L418.07 251.223
L420.874 251.539
L426.482 251.849
L434.894 251.976
L465.739 252
L648 252
L648 252" style="fill:none;opacity:0.1;stroke:#34495e;stroke-linecap:round;stroke-width:2.275;"/>
   </g>
   <g id="line2d_46">
    <path clip-path="url(#p9f76a1e9e4)" d="
M90 252
L294.693 251.903
L300.302 251.693
L303.106 251.473
L305.91 251.117
L308.714 250.556
L311.518 249.693
L314.322 248.401
L317.126 246.516
L319.93 243.84
L322.734 240.142
L325.538 235.17
L328.342 228.671
L331.146 220.419
L333.95 210.248
L336.754 198.092
L339.558 184.022
L342.362 168.284
L347.97 133.731
L350.774 116.326
L353.578 99.9983
L356.382 85.6856
L359.186 74.2786
L361.99 66.5282
L364.794 62.9639
L367.598 63.8346
L370.402 69.0792
L373.206 78.3339
L376.01 90.9743
L378.814 106.184
L381.618 123.044
L387.226 158.049
L390.03 174.603
L392.834 189.731
L395.638 203.073
L398.442 214.454
L401.246 223.862
L404.05 231.405
L406.854 237.279
L409.658 241.723
L412.462 244.993
L415.266 247.334
L418.07 248.966
L420.874 250.073
L423.678 250.805
L426.482 251.276
L429.286 251.572
L434.894 251.86
L443.307 251.978
L476.955 252
L648 252
L648 252" style="fill:none;opacity:0.1;stroke:#34495e;stroke-linecap:round;stroke-width:2.275;"/>
   </g>
   <g id="line2d_47">
    <path clip-path="url(#p9f76a1e9e4)" d="
M90 252
L277.869 251.932
L283.477 251.779
L289.085 251.348
L291.889 250.918
L294.693 250.247
L297.497 249.226
L300.302 247.714
L303.106 245.533
L305.91 242.469
L308.714 238.282
L311.518 232.718
L314.322 225.529
L317.126 216.51
L319.93 205.53
L322.734 192.576
L325.538 177.786
L328.342 161.482
L336.754 109.485
L339.558 93.8661
L342.362 80.6367
L345.166 70.6409
L347.97 64.5484
L350.774 62.7799
L353.578 65.4592
L356.382 72.3989
L359.186 83.1223
L361.99 96.917
L364.794 112.914
L373.206 164.941
L376.01 180.969
L378.814 195.401
L381.618 207.954
L384.422 218.525
L387.226 227.153
L390.03 233.989
L392.834 239.249
L395.638 243.184
L398.442 246.047
L401.246 248.074
L404.05 249.472
L406.854 250.41
L409.658 251.023
L412.462 251.414
L418.07 251.803
L426.482 251.968
L451.719 252
L648 252
L648 252" style="fill:none;opacity:0.1;stroke:#34495e;stroke-linecap:round;stroke-width:2.275;"/>
   </g>
   <g id="line2d_48">
    <path clip-path="url(#p9f76a1e9e4)" d="
M90 252
L342.362 251.912
L347.97 251.72
L350.774 251.518
L353.578 251.19
L356.382 250.669
L359.186 249.866
L361.99 248.657
L364.794 246.886
L367.598 244.36
L370.402 240.852
L373.206 236.115
L376.01 229.893
L378.814 221.952
L381.618 212.115
L384.422 200.295
L387.226 186.538
L390.03 171.058
L392.834 154.257
L398.442 119.232
L401.246 102.655
L404.05 87.9344
L406.854 75.9761
L409.658 67.5604
L412.462 63.2596
L415.266 63.3729
L418.07 67.8924
L420.874 76.5038
L423.678 88.6225
L426.482 103.459
L429.286 120.106
L434.894 155.133
L437.698 171.88
L440.503 187.281
L443.307 200.943
L446.111 212.662
L448.915 222.4
L451.719 230.248
L454.523 236.389
L457.327 241.058
L460.131 244.51
L462.935 246.993
L465.739 248.731
L468.543 249.915
L471.347 250.702
L474.151 251.21
L476.955 251.531
L482.563 251.846
L490.975 251.976
L521.819 252
L648 252
L648 252" style="fill:none;opacity:0.1;stroke:#34495e;stroke-linecap:round;stroke-width:2.275;"/>
   </g>
   <g id="line2d_49">
    <path clip-path="url(#p9f76a1e9e4)" d="
M90 252
L266.653 251.934
L272.261 251.785
L277.869 251.363
L280.673 250.943
L283.477 250.286
L286.281 249.285
L289.085 247.8
L291.889 245.654
L294.693 242.638
L297.497 238.51
L300.302 233.016
L303.106 225.91
L305.91 216.981
L308.714 206.095
L311.518 193.233
L314.322 178.524
L317.126 162.281
L325.538 110.269
L328.342 94.5592
L331.146 81.1965
L333.95 71.0308
L336.754 64.7417
L339.558 62.7631
L342.362 65.2335
L345.166 71.98
L347.97 82.5387
L350.774 96.2066
L353.578 112.12
L361.99 164.149
L364.794 180.243
L367.598 194.758
L370.402 207.404
L373.206 218.069
L376.01 226.787
L378.814 233.702
L381.618 239.032
L384.422 243.024
L387.226 245.932
L390.03 247.994
L392.834 249.417
L395.638 250.373
L398.442 251
L401.246 251.399
L406.854 251.798
L415.266 251.967
L440.503 252
L648 252
L648 252" style="fill:none;opacity:0.1;stroke:#34495e;stroke-linecap:round;stroke-width:2.275;"/>
   </g>
   <g id="line2d_50">
    <path clip-path="url(#p9f76a1e9e4)" d="
M90 252
L333.95 251.937
L339.558 251.794
L345.166 251.387
L347.97 250.981
L350.774 250.344
L353.578 249.372
L356.382 247.929
L359.186 245.838
L361.99 242.894
L364.794 238.856
L367.598 233.471
L370.402 226.49
L373.206 217.701
L376.01 206.961
L378.814 194.24
L381.618 179.659
L384.422 163.514
L392.834 111.487
L395.638 95.6415
L398.442 82.0765
L401.246 71.6509
L404.05 65.0597
L406.854 62.7568
L409.658 64.9034
L412.462 71.3492
L415.266 81.6499
L418.07 95.1179
L420.874 110.898
L432.09 179.112
L434.894 193.755
L437.698 206.545
L440.503 217.355
L443.307 226.211
L446.111 233.252
L448.915 238.69
L451.719 242.771
L454.523 245.75
L457.327 247.867
L460.131 249.33
L462.935 250.316
L465.739 250.963
L468.543 251.376
L474.151 251.79
L482.563 251.965
L504.995 252
L648 252
L648 252" style="fill:none;opacity:0.1;stroke:#34495e;stroke-linecap:round;stroke-width:2.275;"/>
   </g>
   <g id="line2d_51">
    <path clip-path="url(#p9f76a1e9e4)" d="
M90 252
L261.045 251.919
L266.653 251.741
L269.457 251.552
L272.261 251.245
L275.065 250.756
L277.869 249.998
L280.673 248.853
L283.477 247.17
L286.281 244.761
L289.085 241.403
L291.889 236.85
L294.693 230.847
L297.497 223.156
L300.302 213.588
L303.106 202.042
L305.91 188.543
L308.714 173.281
L311.518 156.631
L319.93 104.85
L322.734 89.8188
L325.538 77.4297
L328.342 68.4862
L331.146 63.5937
L333.95 63.092
L336.754 67.0161
L339.558 75.0927
L342.362 86.7711
L345.166 101.286
L347.97 117.738
L356.382 169.641
L359.186 185.254
L361.99 199.172
L364.794 211.165
L367.598 221.173
L370.402 229.273
L373.206 235.635
L376.01 240.492
L378.814 244.097
L381.618 246.699
L384.422 248.528
L387.226 249.779
L390.03 250.612
L392.834 251.153
L395.638 251.495
L401.246 251.833
L409.658 251.973
L437.698 252
L648 252
L648 252" style="fill:none;opacity:0.1;stroke:#34495e;stroke-linecap:round;stroke-width:2.275;"/>
   </g>
   <g id="line2d_52">
    <path clip-path="url(#p9f76a1e9e4)" d="
M90 252
L333.95 251.914
L339.558 251.725
L342.362 251.526
L345.166 251.202
L347.97 250.689
L350.774 249.896
L353.578 248.701
L356.382 246.95
L359.186 244.45
L361.99 240.976
L364.794 236.279
L367.598 230.106
L370.402 222.221
L373.206 212.444
L376.01 200.683
L378.814 186.983
L381.618 171.551
L384.422 154.782
L390.03 119.755
L392.834 103.136
L395.638 88.3458
L398.442 76.2911
L401.246 67.758
L404.05 63.3261
L406.854 63.3036
L409.658 67.6923
L412.462 76.1866
L415.266 88.2094
L418.07 102.977
L420.874 119.582
L426.482 154.609
L429.286 171.388
L432.09 186.836
L434.894 200.555
L437.698 212.335
L440.503 222.133
L443.307 230.036
L446.111 236.225
L448.915 240.935
L451.719 244.42
L454.523 246.929
L457.327 248.687
L460.131 249.886
L462.935 250.682
L465.739 251.198
L468.543 251.523
L474.151 251.843
L482.563 251.975
L513.407 252
L648 252
L648 252" style="fill:none;opacity:0.1;stroke:#34495e;stroke-linecap:round;stroke-width:2.275;"/>
   </g>
   <g id="line2d_53">
    <path clip-path="url(#p9f76a1e9e4)" d="
M374.476 252
L374.476 240.84" style="fill:none;stroke:#34495e;stroke-linecap:round;stroke-width:3;"/>
   </g>
   <g id="line2d_54">
    <path clip-path="url(#p9f76a1e9e4)" d="
M378.245 252
L378.245 240.84" style="fill:none;stroke:#34495e;stroke-linecap:round;stroke-width:3;"/>
   </g>
   <g id="line2d_55">
    <path clip-path="url(#p9f76a1e9e4)" d="
M357.626 252
L357.626 240.84" style="fill:none;stroke:#34495e;stroke-linecap:round;stroke-width:3;"/>
   </g>
   <g id="line2d_56">
    <path clip-path="url(#p9f76a1e9e4)" d="
M365.649 252
L365.649 240.84" style="fill:none;stroke:#34495e;stroke-linecap:round;stroke-width:3;"/>
   </g>
   <g id="line2d_57">
    <path clip-path="url(#p9f76a1e9e4)" d="
M350.485 252
L350.485 240.84" style="fill:none;stroke:#34495e;stroke-linecap:round;stroke-width:3;"/>
   </g>
   <g id="line2d_58">
    <path clip-path="url(#p9f76a1e9e4)" d="
M413.793 252
L413.793 240.84" style="fill:none;stroke:#34495e;stroke-linecap:round;stroke-width:3;"/>
   </g>
   <g id="line2d_59">
    <path clip-path="url(#p9f76a1e9e4)" d="
M339.402 252
L339.402 240.84" style="fill:none;stroke:#34495e;stroke-linecap:round;stroke-width:3;"/>
   </g>
   <g id="line2d_60">
    <path clip-path="url(#p9f76a1e9e4)" d="
M406.904 252
L406.904 240.84" style="fill:none;stroke:#34495e;stroke-linecap:round;stroke-width:3;"/>
   </g>
   <g id="line2d_61">
    <path clip-path="url(#p9f76a1e9e4)" d="
M332.863 252
L332.863 240.84" style="fill:none;stroke:#34495e;stroke-linecap:round;stroke-width:3;"/>
   </g>
   <g id="line2d_62">
    <path clip-path="url(#p9f76a1e9e4)" d="
M405.466 252
L405.466 240.84" style="fill:none;stroke:#34495e;stroke-linecap:round;stroke-width:3;"/>
   </g>
   <g id="line2d_63">
    <path clip-path="url(#p9f76a1e9e4)" d="
M278.165 251.427
L282.66 251.246
L285.658 250.931
L288.655 250.423
L291.652 249.67
L294.65 248.609
L297.647 247.163
L300.644 245.256
L302.143 244.104
L303.641 242.809
L305.14 241.362
L306.639 239.757
L309.636 236.054
L312.633 231.681
L315.631 226.656
L318.628 221.036
L321.625 214.915
L326.121 205.088
L333.614 188.365
L336.611 182.055
L339.609 176.198
L342.606 170.92
L345.603 166.325
L347.102 164.31
L348.601 162.492
L350.099 160.88
L351.598 159.478
L353.096 158.29
L354.595 157.318
L356.094 156.564
L357.592 156.028
L359.091 155.708
L360.59 155.6
L362.088 155.699
L363.587 155.997
L365.086 156.484
L366.584 157.149
L368.083 157.977
L371.08 160.051
L374.077 162.546
L384.568 171.953
L387.565 174.185
L390.562 176.073
L393.56 177.662
L401.053 181.247
L404.05 183.051
L405.549 184.137
L407.047 185.374
L408.546 186.778
L410.045 188.362
L411.543 190.131
L414.541 194.228
L417.538 199.01
L420.535 204.344
L425.031 212.942
L429.527 221.572
L432.524 226.983
L435.522 231.92
L438.519 236.271
L441.516 239.979
L444.513 243.038
L447.511 245.482
L450.508 247.375
L453.505 248.794
L456.503 249.823
L459.5 250.541
L462.497 251.013
L465.494 251.294
L468.492 251.418
L468.492 251.418" style="fill:none;stroke:#386df9;stroke-linecap:round;stroke-width:2.275;"/>
   </g>
   <g id="patch_3">
    <path d="
M90 252
L90 28.8" style="fill:none;"/>
   </g>
   <g id="patch_4">
    <path d="
M90 28.8
L648 28.8" style="fill:none;"/>
   </g>
   <g id="patch_5">
    <path d="
M90 252
L648 252" style="fill:none;"/>
   </g>
   <g id="patch_6">
    <path d="
M648 252
L648 28.8" style="fill:none;"/>
   </g>
   <g id="text_16">
    <!-- Kernel functions for each point -->
    <defs>
     <path d="
M6.70312 0
L6.70312 65
L14.2031 65
L14.2031 38.7969
Q16.2969 41.5938 19.75 43.4375
Q23.2031 45.2969 27.2969 45.2969
Q34.7031 45.2969 38.7969 40.8906
Q42.9062 36.5 42.9062 29.0938
L42.9062 0
L35.2969 0
L35.2969 27.9062
Q35.2969 32.7031 32.8438 35.5469
Q30.4062 38.4062 25.5 38.4062
Q21.5938 38.4062 18.5 36.0469
Q15.4062 33.7031 14.2031 30.0938
L14.2031 0
z
" id="CalibreRegular-68"/>
     <path d="
M14.7031 -0.90625
Q3.5 11.9062 3.5 22.2031
Q3.5 32.5 9.09375 38.8906
Q14.7031 45.2969 23.7031 45.2969
Q31 45.2969 35.6406 41.3906
Q40.2969 37.5 41.5 31
L33.7969 31
Q33 34.5938 30.3438 36.6406
Q27.7031 38.7031 23.7031 38.7031
Q18 38.7031 14.5469 34.0938
Q11.0938 29.5 11.0938 22.2031
Q11.0938 14.9062 14.5469 10.2969
Q18 5.70312 23.7031 5.70312
Q27.7031 5.70312 30.3438 7.75
Q33 9.79688 33.7969 13.4062
L41.5 13.4062
Q40.2969 6.90625 35.6406 3
Q31 -0.90625 23.7031 -0.90625
Q14.7031 -0.90625 3.5 11.9062" id="CalibreRegular-63"/>
     <path d="
M33 45.2969
Q44.2969 32.4062 44.2969 22.2031
Q44.2969 12 38.6406 5.54688
Q33 -0.90625 23.8906 -0.90625
Q14.7969 -0.90625 9.14062 5.54688
Q3.5 12 3.5 22.2031
Q3.5 32.4062 9.14062 38.8438
Q14.7969 45.2969 23.8906 45.2969
Q33 45.2969 44.2969 32.4062
M29.7969 5.70312
Q36.7031 14.7969 36.7031 22.1875
Q36.7031 29.5938 33.25 34.1406
Q29.7969 38.7031 23.8906 38.7031
Q18 38.7031 14.5469 34.1406
Q11.0938 29.5938 11.0938 22.1875
Q11.0938 14.7969 14.5469 10.25
Q18 5.70312 23.8906 5.70312
Q29.7969 5.70312 36.7031 14.7969" id="CalibreRegular-6f"/>
     <path d="
M38.9062 0
L31.7031 0
L31.7031 3.29688
Q30.2969 1.79688 27 0.5
Q23.7031 -0.796875 20 -0.796875
Q13 -0.796875 8.25 3.09375
Q3.5 7 3.5 13.4062
Q3.5 19.5 8.39062 23.3906
Q13.2969 27.2969 20.5 27.2969
Q23.7969 27.2969 27 26.1875
Q30.2031 25.0938 31.7031 23.7031
L31.7031 29.2969
Q31.7031 33.5938 29.1406 36.1875
Q26.5938 38.7969 21.9062 38.7969
Q14.9062 38.7969 12.7969 32.7031
L5.40625 32.7031
Q6.5 38.2969 11.0469 41.7969
Q15.5938 45.2969 22 45.2969
Q29.9062 45.2969 34.4062 41.0938
Q38.9062 36.9062 38.9062 29.5938
z

M31.7031 11
L31.7031 15.5938
Q30.7031 18 27.75 19.5469
Q24.7969 21.0938 21.2969 21.0938
Q16.9062 21.0938 13.7969 19.0938
Q10.7031 17.0938 10.7031 13.4062
Q10.7031 9.59375 13.7969 7.54688
Q16.9062 5.5 21.2969 5.5
Q24.7969 5.5 27.75 7.04688
Q30.7031 8.59375 31.7031 11" id="CalibreRegular-61"/>
     <path d="
M28.9062 64.9062
L28.9062 58.0938
Q27 59.2969 24.2031 59.2969
Q20.7969 59.2969 18.8438 57.1875
Q16.9062 55.0938 16.9062 51.2031
L16.9062 44.4062
L26.9062 44.4062
L26.9062 38
L16.9062 38
L16.9062 0
L9.5 0
L9.5 38
L2 38
L2 44.4062
L9.5 44.4062
L9.5 51.7969
Q9.5 58.2969 13.2969 62.0938
Q17.0938 65.9062 23.0938 65.9062
Q26.5 65.9062 28.9062 64.9062" id="CalibreRegular-66"/>
     <path id="CalibreRegular-20"/>
     <path d="
M14.2031 65
L14.2031 0
L6.70312 0
L6.70312 65
z
" id="CalibreRegular-6c"/>
     <path d="
M15.2031 61.4062
L15.2031 30.7031
L43.7969 61.4062
L53.7969 61.4062
L27.5 33.4062
L54.7031 0
L44.9062 0
L21.7969 28
L15.2031 20.9062
L15.2031 0
L7.29688 0
L7.29688 61.4062
z
" id="CalibreRegular-4b"/>
     <path d="
M29.5 44.5938
L29.5 36.9062
Q27.7031 38.0938 24.5 38.0938
Q20.9062 38.0938 18.0938 35.8906
Q15.2969 33.7031 14.2031 29.7969
L14.2031 0
L6.70312 0
L6.70312 44.4062
L14.2031 44.4062
L14.2031 38.5938
Q15.7031 41.5 18.6406 43.3906
Q21.5938 45.2969 25.2031 45.2969
Q28.0938 45.2969 29.5 44.5938" id="CalibreRegular-72"/>
     <path d="
M42.0938 44.4062
L42.0938 0
L34.5 0
L34.5 5.59375
Q32.5 2.79688 29.0938 0.9375
Q25.7031 -0.90625 21.5938 -0.90625
Q14.2031 -0.90625 10.1406 3.5
Q6.09375 7.90625 6.09375 15.2969
L6.09375 44.4062
L13.7031 44.4062
L13.7031 16.5
Q13.7031 11.5938 16.0938 8.79688
Q18.5 6 23.4062 6
Q27.2031 6 30.25 8.29688
Q33.2969 10.5938 34.5 14.2969
L34.5 44.4062
z
" id="CalibreRegular-75"/>
     <path d="
M14.2031 5.20312
L14.2031 -17
L6.70312 -17
L6.70312 44.4062
L14.2031 44.4062
L14.2031 39.2031
Q16.0938 41.7969 19.4375 43.5469
Q22.7969 45.2969 26.7031 45.2969
Q36.0938 45.2969 41.3906 38.6406
Q46.7031 32 46.7031 22.2031
Q46.7031 12.4062 41.3906 5.75
Q36.0938 -0.90625 26.7031 -0.90625
Q22.7969 -0.90625 19.4375 0.84375
Q16.0938 2.59375 14.2031 5.20312
M14.2031 31.2031
L14.2031 13.2031
Q15.9062 9.79688 18.9531 7.84375
Q22 5.90625 25.5938 5.90625
Q31.7969 5.90625 35.4375 10.4531
Q39.0938 15 39.0938 22.2031
Q39.0938 29.4062 35.4375 33.9531
Q31.7969 38.5 25.5938 38.5
Q22 38.5 18.9531 36.5469
Q15.9062 34.5938 14.2031 31.2031" id="CalibreRegular-70"/>
    </defs>
    <g style="fill:#262626;" transform="translate(462.0 140.4)scale(0.1 -0.1)">
     <use xlink:href="#CalibreRegular-4b"/>
     <use x="56.399993896484375" xlink:href="#CalibreRegular-65"/>
     <use x="102.09999084472656" xlink:href="#CalibreRegular-72"/>
     <use x="134.19998168945312" xlink:href="#CalibreRegular-6e"/>
     <use x="183.0999755859375" xlink:href="#CalibreRegular-65"/>
     <use x="228.7999725341797" xlink:href="#CalibreRegular-6c"/>
     <use x="249.69996643066406" xlink:href="#CalibreRegular-20"/>
     <use x="271.7999572753906" xlink:href="#CalibreRegular-66"/>
     <use x="300.699951171875" xlink:href="#CalibreRegular-75"/>
     <use x="349.3999481201172" xlink:href="#CalibreRegular-6e"/>
     <use x="398.29994201660156" xlink:href="#CalibreRegular-63"/>
     <use x="442.8999328613281" xlink:href="#CalibreRegular-74"/>
     <use x="474.5999298095703" xlink:href="#CalibreRegular-69"/>
     <use x="495.4999237060547" xlink:href="#CalibreRegular-6f"/>
     <use x="543.2999114990234" xlink:href="#CalibreRegular-6e"/>
     <use x="592.1999053955078" xlink:href="#CalibreRegular-73"/>
     <use x="633.5998992919922" xlink:href="#CalibreRegular-20"/>
     <use x="655.6998901367188" xlink:href="#CalibreRegular-66"/>
     <use x="684.5998840332031" xlink:href="#CalibreRegular-6f"/>
     <use x="732.3998718261719" xlink:href="#CalibreRegular-72"/>
     <use x="764.4998626708984" xlink:href="#CalibreRegular-20"/>
     <use x="786.599853515625" xlink:href="#CalibreRegular-65"/>
     <use x="832.2998504638672" xlink:href="#CalibreRegular-61"/>
     <use x="877.2998352050781" xlink:href="#CalibreRegular-63"/>
     <use x="921.8998260498047" xlink:href="#CalibreRegular-68"/>
     <use x="970.7998199462891" xlink:href="#CalibreRegular-20"/>
     <use x="992.8998107910156" xlink:href="#CalibreRegular-70"/>
     <use x="1043.0998077392578" xlink:href="#CalibreRegular-6f"/>
     <use x="1090.8997955322266" xlink:href="#CalibreRegular-69"/>
     <use x="1111.799789428711" xlink:href="#CalibreRegular-6e"/>
     <use x="1160.6997833251953" xlink:href="#CalibreRegular-74"/>
    </g>
   </g>
   <g id="text_17">
    <!-- Kernel density estimate -->
    <defs>
     <path d="
M38.2031 38.2031
Q43.2031 45.2969 51.7031 45.2969
Q58.4062 45.2969 62.0469 41
Q65.7031 36.7031 65.7031 29.4062
L65.7031 0
L58.0938 0
L58.0938 28.2031
Q58.0938 33 56 35.75
Q53.9062 38.5 49.7031 38.5
Q46.2969 38.5 43.5938 36.3438
Q40.9062 34.2031 39.9062 30.5938
L39.9062 0
L32.4062 0
L32.4062 28.2031
Q32.4062 33 30.2969 35.75
Q28.2031 38.5 24 38.5
Q20.5938 38.5 17.8906 36.3438
Q15.2031 34.2031 14.2031 30.5938
L14.2031 0
L6.70312 0
L6.70312 44.4062
L14.2031 44.4062
L14.2031 39.2031
Q18 45.2969 26.2031 45.2969
Q34.5938 45.2969 38.2031 38.2031" id="CalibreRegular-6d"/>
     <path d="
M36 0
L36 5.20312
Q34.2031 2.59375 30.7969 0.84375
Q27.4062 -0.90625 23.5 -0.90625
Q14.0938 -0.90625 8.79688 5.6875
Q3.5 12.2969 3.5 22.2031
Q3.5 32 8.79688 38.6406
Q14.0938 45.2969 23.5 45.2969
Q27.4062 45.2969 30.7969 43.5469
Q34.2031 41.7969 36 39.2031
L36 65
L43.5938 65
L43.5938 0
z

M36 13.2031
L36 31.2031
Q34.2969 34.5938 31.25 36.5469
Q28.2031 38.5 24.5938 38.5
Q18.4062 38.5 14.75 33.9531
Q11.0938 29.4062 11.0938 22.2031
Q11.0938 15 14.75 10.4531
Q18.4062 5.90625 24.5938 5.90625
Q28.2031 5.90625 31.25 7.84375
Q34.2969 9.79688 36 13.2031" id="CalibreRegular-64"/>
    </defs>
    <g style="fill:#262626;" transform="translate(434.1 214.8)scale(0.1 -0.1)">
     <use xlink:href="#CalibreRegular-4b"/>
     <use x="56.399993896484375" xlink:href="#CalibreRegular-65"/>
     <use x="102.09999084472656" xlink:href="#CalibreRegular-72"/>
     <use x="134.19998168945312" xlink:href="#CalibreRegular-6e"/>
     <use x="183.0999755859375" xlink:href="#CalibreRegular-65"/>
     <use x="228.7999725341797" xlink:href="#CalibreRegular-6c"/>
     <use x="249.69996643066406" xlink:href="#CalibreRegular-20"/>
     <use x="271.7999572753906" xlink:href="#CalibreRegular-64"/>
     <use x="321.9999542236328" xlink:href="#CalibreRegular-65"/>
     <use x="367.699951171875" xlink:href="#CalibreRegular-6e"/>
     <use x="416.5999450683594" xlink:href="#CalibreRegular-73"/>
     <use x="457.99993896484375" xlink:href="#CalibreRegular-69"/>
     <use x="478.8999328613281" xlink:href="#CalibreRegular-74"/>
     <use x="510.5999298095703" xlink:href="#CalibreRegular-79"/>
     <use x="556.0999145507812" xlink:href="#CalibreRegular-20"/>
     <use x="578.1999053955078" xlink:href="#CalibreRegular-65"/>
     <use x="623.89990234375" xlink:href="#CalibreRegular-73"/>
     <use x="665.2998962402344" xlink:href="#CalibreRegular-74"/>
     <use x="696.9998931884766" xlink:href="#CalibreRegular-69"/>
     <use x="717.8998870849609" xlink:href="#CalibreRegular-6d"/>
     <use x="789.5998687744141" xlink:href="#CalibreRegular-61"/>
     <use x="834.599853515625" xlink:href="#CalibreRegular-74"/>
     <use x="866.2998504638672" xlink:href="#CalibreRegular-65"/>
    </g>
   </g>
   <g id="text_18">
    <!-- KDE with kernels -->
    <defs>
     <path d="
M34.9062 44.4062
L44 10.5
L53.7969 44.4062
L61.0938 44.4062
L48 0
L40.7031 0
L31.5 33.7031
L22.2031 0
L14.9062 0
L1.79688 44.4062
L9.29688 44.4062
L19.0938 10.5
L28.2031 44.4062
z
" id="CalibreRegular-77"/>
     <path d="
M35.9062 0
L19 20.5
L14.2031 15.9062
L14.2031 0
L6.70312 0
L6.70312 65
L14.2031 65
L14.2031 24.7031
L34.5 44.4062
L44.4062 44.4062
L24.4062 25.2031
L45.0938 0
z
" id="CalibreRegular-6b"/>
     <path d="
M7.29688 61.4062
L46.4062 61.4062
L46.4062 54.4062
L15.0938 54.4062
L15.0938 35
L43.5 35
L43.5 28
L15.0938 28
L15.0938 7.09375
L46.4062 7.09375
L46.4062 0
L7.29688 0
z
" id="CalibreRegular-45"/>
    </defs>
    <g style="fill:#262626;" transform="translate(312.8492625 23.8)scale(0.17160000000000003 -0.17160000000000003)">
     <use xlink:href="#CalibreRegular-4b"/>
     <use x="56.399993896484375" xlink:href="#CalibreRegular-44"/>
     <use x="116.89997863769531" xlink:href="#CalibreRegular-45"/>
     <use x="168.39996337890625" xlink:href="#CalibreRegular-20"/>
     <use x="190.4999542236328" xlink:href="#CalibreRegular-77"/>
     <use x="253.3999481201172" xlink:href="#CalibreRegular-69"/>
     <use x="274.29994201660156" xlink:href="#CalibreRegular-74"/>
     <use x="305.99993896484375" xlink:href="#CalibreRegular-68"/>
     <use x="354.8999328613281" xlink:href="#CalibreRegular-20"/>
     <use x="376.9999237060547" xlink:href="#CalibreRegular-6b"/>
     <use x="423.39991760253906" xlink:href="#CalibreRegular-65"/>
     <use x="469.09991455078125" xlink:href="#CalibreRegular-72"/>
     <use x="501.1999053955078" xlink:href="#CalibreRegular-6e"/>
     <use x="550.0998992919922" xlink:href="#CalibreRegular-65"/>
     <use x="595.7998962402344" xlink:href="#CalibreRegular-6c"/>
     <use x="616.6998901367188" xlink:href="#CalibreRegular-73"/>
    </g>
   </g>
  </g>
 </g>
 <defs>
  <clipPath id="p9f76a1e9e4">
   <rect height="223.2" width="558.0" x="90.0" y="28.8"/>
  </clipPath>
 </defs>
</svg>
