<svg xmlns="http://www.w3.org/2000/svg" xmlns:xlink="http://www.w3.org/1999/xlink" height="113pt" version="1.1" viewBox="0 0 170 113" width="170pt">
 <defs>
  <clipPath id="pcba6c4bb47">
   <rect height="113.385826772" width="170.078740157" x="0.0" y="0.0"/>
  </clipPath>
 </defs>
<defs>
  <style type="text/css">
*{stroke-linecap:butt;stroke-linejoin:round;stroke-miterlimit:100000;}
  </style>
 </defs>
 <g id="figure_1">
  <g id="patch_1">
   <path d="M 0 113.385827  L 170.07874 113.385827  L 170.07874 0  L 0 0  z " style="fill:#ffffff;"/>
  </g>
  <g id="axes_1">
   <g id="patch_2">
    <path clip-path="url(#pcba6c4bb47)" d="M 56.692913 45.354331  C 61.203454 45.354331 65.529862 43.562274 68.719296 40.37284  C 71.908731 37.183406 73.700787 32.856998 73.700787 28.346457  C 73.700787 23.835916 71.908731 19.509508 68.719296 16.320074  C 65.529862 13.13064 61.203454 11.338583 56.692913 11.338583  C 52.182372 11.338583 47.855964 13.13064 44.66653 16.320074  C 41.477096 19.509508 39.685039 23.835916 39.685039 28.346457  C 39.685039 32.856998 41.477096 37.183406 44.66653 40.37284  C 47.855964 43.562274 52.182372 45.354331 56.692913 45.354331  L 56.692913 45.354331  z " style="fill:none;stroke:#000000;stroke-linejoin:miter;"/>
   </g>
   <g id="patch_3">
    <path clip-path="url(#pcba6c4bb47)" d="M 113.385827 45.354331  C 117.896368 45.354331 122.222776 43.562274 125.41221 40.37284  C 128.601644 37.183406 130.393701 32.856998 130.393701 28.346457  C 130.393701 23.835916 128.601644 19.509508 125.41221 16.320074  C 122.222776 13.13064 117.896368 11.338583 113.385827 11.338583  C 108.875286 11.338583 104.548878 13.13064 101.359444 16.320074  C 98.17001 19.509508 96.377953 23.835916 96.377953 28.346457  C 96.377953 32.856998 98.17001 37.183406 101.359444 40.37284  C 104.548878 43.562274 108.875286 45.354331 113.385827 45.354331  L 113.385827 45.354331  z " style="fill:none;stroke:#000000;stroke-linejoin:miter;"/>
   </g>
   <g id="patch_4">
    <path clip-path="url(#pcba6c4bb47)" d="M 56.692913 102.047244  C 61.203454 102.047244 65.529862 100.255187 68.719296 97.065753  C 71.908731 93.876319 73.700787 89.549911 73.700787 85.03937  C 73.700787 80.528829 71.908731 76.202421 68.719296 73.012987  C 65.529862 69.823553 61.203454 68.031496 56.692913 68.031496  C 52.182372 68.031496 47.855964 69.823553 44.66653 73.012987  C 41.477096 76.202421 39.685039 80.528829 39.685039 85.03937  C 39.685039 89.549911 41.477096 93.876319 44.66653 97.065753  C 47.855964 100.255187 52.182372 102.047244 56.692913 102.047244  L 56.692913 102.047244  z " style="fill:none;stroke:#000000;stroke-linejoin:miter;"/>
   </g>
   <g id="patch_5">
    <path clip-path="url(#pcba6c4bb47)" d="M 28.346457 73.700787  C 32.856998 73.700787 37.183406 71.908731 40.37284 68.719296  C 43.562274 65.529862 45.354331 61.203454 45.354331 56.692913  C 45.354331 52.182372 43.562274 47.855964 40.37284 44.66653  C 37.183406 41.477096 32.856998 39.685039 28.346457 39.685039  C 23.835916 39.685039 19.509508 41.477096 16.320074 44.66653  C 13.13064 47.855964 11.338583 52.182372 11.338583 56.692913  C 11.338583 61.203454 13.13064 65.529862 16.320074 68.719296  C 19.509508 71.908731 23.835916 73.700787 28.346457 73.700787  L 28.346457 73.700787  z " style="fill:none;stroke:#000000;stroke-linejoin:miter;"/>
   </g>
   <g id="patch_6">
    <path clip-path="url(#pcba6c4bb47)" d="M 85.03937 73.700787  C 89.549911 73.700787 93.876319 71.908731 97.065753 68.719296  C 100.255187 65.529862 102.047244 61.203454 102.047244 56.692913  C 102.047244 52.182372 100.255187 47.855964 97.065753 44.66653  C 93.876319 41.477096 89.549911 39.685039 85.03937 39.685039  C 80.528829 39.685039 76.202421 41.477096 73.012987 44.66653  C 69.823553 47.855964 68.031496 52.182372 68.031496 56.692913  C 68.031496 61.203454 69.823553 65.529862 73.012987 68.719296  C 76.202421 71.908731 80.528829 73.700787 85.03937 73.700787  L 85.03937 73.700787  z " style="fill:none;stroke:#000000;stroke-linejoin:miter;"/>
   </g>
   <g id="patch_7">
    <path clip-path="url(#pcba6c4bb47)" d="M 113.385827 102.047244  C 117.896368 102.047244 122.222776 100.255187 125.41221 97.065753  C 128.601644 93.876319 130.393701 89.549911 130.393701 85.03937  C 130.393701 80.528829 128.601644 76.202421 125.41221 73.012987  C 122.222776 69.823553 117.896368 68.031496 113.385827 68.031496  C 108.875286 68.031496 104.548878 69.823553 101.359444 73.012987  C 98.17001 76.202421 96.377953 80.528829 96.377953 85.03937  C 96.377953 89.549911 98.17001 93.876319 101.359444 97.065753  C 104.548878 100.255187 108.875286 102.047244 113.385827 102.047244  L 113.385827 102.047244  z " style="fill:none;stroke:#000000;stroke-linejoin:miter;"/>
   </g>
   <g id="line2d_1">
    <path clip-path="url(#pcba6c4bb47)" d="M 40.37284 44.66653  L 44.66653 40.37284  " style="fill:none;stroke:#000000;stroke-linecap:square;"/>
   </g>
   <g id="line2d_2">
    <path clip-path="url(#pcba6c4bb47)" d="M 44.66653 73.012987  L 40.37284 68.719296  " style="fill:none;stroke:#000000;stroke-linecap:square;"/>
   </g>
   <g id="line2d_3">
    <path clip-path="url(#pcba6c4bb47)" d="M 68.031496 56.692913  L 45.354331 56.692913  " style="fill:none;stroke:#000000;stroke-linecap:square;"/>
   </g>
   <g id="line2d_4">
    <path clip-path="url(#pcba6c4bb47)" d="M 97.065753 44.66653  L 101.359444 40.37284  " style="fill:none;stroke:#000000;stroke-linecap:square;"/>
   </g>
   <g id="line2d_5">
    <path clip-path="url(#pcba6c4bb47)" d="M 97.065753 68.719296  L 101.359444 73.012987  " style="fill:none;stroke:#000000;stroke-linecap:square;"/>
   </g>
   <g id="line2d_6">
    <path clip-path="url(#pcba6c4bb47)" d="M 113.385827 45.354331  L 113.385827 68.031496  " style="fill:none;stroke:#000000;stroke-linecap:square;"/>
   </g>
   <g id="matplotlib.axis_1"/>
   <g id="matplotlib.axis_2"/>
   <g id="text_1">
    <!-- A -->
    <defs>
     <path d="M 34.1875 63.1875  L 20.796875 26.90625  L 47.609375 26.90625  z M 28.609375 72.90625  L 39.796875 72.90625  L 67.578125 0  L 57.328125 0  L 50.6875 18.703125  L 17.828125 18.703125  L 11.1875 0  L 0.78125 0  z " id="BitstreamVeraSans-Roman-41"/>
    </defs>
    <g transform="translate(50.5363508858 33.3133316929)scale(0.18 -0.18)">
     <use xlink:href="#BitstreamVeraSans-Roman-41"/>
    </g>
   </g>
   <g id="text_2">
    <!-- F -->
    <defs>
     <path d="M 9.8125 72.90625  L 51.703125 72.90625  L 51.703125 64.59375  L 19.671875 64.59375  L 19.671875 43.109375  L 48.578125 43.109375  L 48.578125 34.8125  L 19.671875 34.8125  L 19.671875 0  L 9.8125 0  z " id="BitstreamVeraSans-Roman-46"/>
    </defs>
    <g transform="translate(108.209420522 33.3133316929)scale(0.18 -0.18)">
     <use xlink:href="#BitstreamVeraSans-Roman-46"/>
    </g>
   </g>
   <g id="text_3">
    <!-- C -->
    <defs>
     <path d="M 64.40625 67.28125  L 64.40625 56.890625  Q 59.421875 61.53125 53.78125 63.8125  Q 48.140625 66.109375 41.796875 66.109375  Q 29.296875 66.109375 22.65625 58.46875  Q 16.015625 50.828125 16.015625 36.375  Q 16.015625 21.96875 22.65625 14.328125  Q 29.296875 6.6875 41.796875 6.6875  Q 48.140625 6.6875 53.78125 8.984375  Q 59.421875 11.28125 64.40625 15.921875  L 64.40625 5.609375  Q 59.234375 2.09375 53.4375 0.328125  Q 47.65625 -1.421875 41.21875 -1.421875  Q 24.65625 -1.421875 15.125 8.703125  Q 5.609375 18.84375 5.609375 36.375  Q 5.609375 53.953125 15.125 64.078125  Q 24.65625 74.21875 41.21875 74.21875  Q 47.75 74.21875 53.53125 72.484375  Q 59.328125 70.75 64.40625 67.28125  " id="BitstreamVeraSans-Roman-43"/>
    </defs>
    <g transform="translate(50.4083821358 90.0062450787)scale(0.18 -0.18)">
     <use xlink:href="#BitstreamVeraSans-Roman-43"/>
    </g>
   </g>
   <g id="text_4">
    <!-- D -->
    <defs>
     <path d="M 19.671875 64.796875  L 19.671875 8.109375  L 31.59375 8.109375  Q 46.6875 8.109375 53.6875 14.9375  Q 60.6875 21.78125 60.6875 36.53125  Q 60.6875 51.171875 53.6875 57.984375  Q 46.6875 64.796875 31.59375 64.796875  z M 9.8125 72.90625  L 30.078125 72.90625  Q 51.265625 72.90625 61.171875 64.09375  Q 71.09375 55.28125 71.09375 36.53125  Q 71.09375 17.671875 61.125 8.828125  Q 51.171875 0 30.078125 0  L 9.8125 0  z " id="BitstreamVeraSans-Roman-44"/>
    </defs>
    <g transform="translate(21.4164566929 61.6597883858)scale(0.18 -0.18)">
     <use xlink:href="#BitstreamVeraSans-Roman-44"/>
    </g>
   </g>
   <g id="text_5">
    <!-- B -->
    <defs>
     <path d="M 19.671875 34.8125  L 19.671875 8.109375  L 35.5 8.109375  Q 43.453125 8.109375 47.28125 11.40625  Q 51.125 14.703125 51.125 21.484375  Q 51.125 28.328125 47.28125 31.5625  Q 43.453125 34.8125 35.5 34.8125  z M 19.671875 64.796875  L 19.671875 42.828125  L 34.28125 42.828125  Q 41.5 42.828125 45.03125 45.53125  Q 48.578125 48.25 48.578125 53.8125  Q 48.578125 59.328125 45.03125 62.0625  Q 41.5 64.796875 34.28125 64.796875  z M 9.8125 72.90625  L 35.015625 72.90625  Q 46.296875 72.90625 52.390625 68.21875  Q 58.5 63.53125 58.5 54.890625  Q 58.5 48.1875 55.375 44.234375  Q 52.25 40.28125 46.1875 39.3125  Q 53.46875 37.75 57.5 32.78125  Q 61.53125 27.828125 61.53125 20.40625  Q 61.53125 10.640625 54.890625 5.3125  Q 48.25 0 35.984375 0  L 9.8125 0  z " id="BitstreamVeraSans-Roman-42"/>
    </defs>
    <g transform="translate(78.8645263287 61.6597883858)scale(0.18 -0.18)">
     <use xlink:href="#BitstreamVeraSans-Roman-42"/>
    </g>
   </g>
   <g id="text_6">
    <!-- E -->
    <defs>
     <path d="M 9.8125 72.90625  L 55.90625 72.90625  L 55.90625 64.59375  L 19.671875 64.59375  L 19.671875 43.015625  L 54.390625 43.015625  L 54.390625 34.71875  L 19.671875 34.71875  L 19.671875 8.296875  L 56.78125 8.296875  L 56.78125 0  L 9.8125 0  z " id="BitstreamVeraSans-Roman-45"/>
    </defs>
    <g transform="translate(107.698951772 90.0062450787)scale(0.18 -0.18)">
     <use xlink:href="#BitstreamVeraSans-Roman-45"/>
    </g>
   </g>
  </g>
 </g>
 </svg>
