<svg xmlns="http://www.w3.org/2000/svg" xmlns:xlink="http://www.w3.org/1999/xlink" height="170pt" version="1.1" viewBox="0 0 170 170" width="170pt">
 <defs>
  <clipPath id="pc9d05bf2cc">
   <rect height="170.078740157" width="170.078740157" x="0.0" y="0.0"/>
  </clipPath>
 </defs>
<defs>
  <style type="text/css">
*{stroke-linecap:butt;stroke-linejoin:round;stroke-miterlimit:100000;}
  </style>
 </defs>
 <g id="figure_1">
  <g id="patch_1">
   <path d="M 0 170.07874  L 170.07874 170.07874  L 170.07874 0  L 0 0  z " style="fill:#ffffff;"/>
  </g>
  <g id="axes_1">
   <g id="matplotlib.axis_1"/>
   <g id="matplotlib.axis_2"/>
   <g id="patch_2">
    <path clip-path="url(#pc9d05bf2cc)" d="M 39.685039 102.047244  C 44.19558 102.047244 48.521988 100.255187 51.711422 97.065753  C 54.900856 93.876319 56.692913 89.549911 56.692913 85.03937  C 56.692913 80.528829 54.900856 76.202421 51.711422 73.012987  C 48.521988 69.823553 44.19558 68.031496 39.685039 68.031496  C 35.174498 68.031496 30.84809 69.823553 27.658656 73.012987  C 24.469222 76.202421 22.677165 80.528829 22.677165 85.03937  C 22.677165 89.549911 24.469222 93.876319 27.658656 97.065753  C 30.84809 100.255187 35.174498 102.047244 39.685039 102.047244  L 39.685039 102.047244  z " style="fill:none;stroke:#000000;stroke-linejoin:miter;"/>
   </g>
   <g id="patch_3">
    <path clip-path="url(#pc9d05bf2cc)" d="M 85.03937 73.700787  C 89.549911 73.700787 93.876319 71.908731 97.065753 68.719296  C 100.255187 65.529862 102.047244 61.203454 102.047244 56.692913  C 102.047244 52.182372 100.255187 47.855964 97.065753 44.66653  C 93.876319 41.477096 89.549911 39.685039 85.03937 39.685039  C 80.528829 39.685039 76.202421 41.477096 73.012987 44.66653  C 69.823553 47.855964 68.031496 52.182372 68.031496 56.692913  C 68.031496 61.203454 69.823553 65.529862 73.012987 68.719296  C 76.202421 71.908731 80.528829 73.700787 85.03937 73.700787  L 85.03937 73.700787  z " style="fill:none;stroke:#000000;stroke-linejoin:miter;"/>
   </g>
   <g id="patch_4">
    <path clip-path="url(#pc9d05bf2cc)" d="M 130.393701 102.047244  C 134.904242 102.047244 139.23065 100.255187 142.420084 97.065753  C 145.609518 93.876319 147.401575 89.549911 147.401575 85.03937  C 147.401575 80.528829 145.609518 76.202421 142.420084 73.012987  C 139.23065 69.823553 134.904242 68.031496 130.393701 68.031496  C 125.88316 68.031496 121.556752 69.823553 118.367318 73.012987  C 115.177884 76.202421 113.385827 80.528829 113.385827 85.03937  C 113.385827 89.549911 115.177884 93.876319 118.367318 97.065753  C 121.556752 100.255187 125.88316 102.047244 130.393701 102.047244  L 130.393701 102.047244  z " style="fill:none;stroke:#000000;stroke-linejoin:miter;"/>
   </g>
   <g id="patch_5">
    <path clip-path="url(#pc9d05bf2cc)" d="M 85.03937 130.393701  C 89.549911 130.393701 93.876319 128.601644 97.065753 125.41221  C 100.255187 122.222776 102.047244 117.896368 102.047244 113.385827  C 102.047244 108.875286 100.255187 104.548878 97.065753 101.359444  C 93.876319 98.17001 89.549911 96.377953 85.03937 96.377953  C 80.528829 96.377953 76.202421 98.17001 73.012987 101.359444  C 69.823553 104.548878 68.031496 108.875286 68.031496 113.385827  C 68.031496 117.896368 69.823553 122.222776 73.012987 125.41221  C 76.202421 128.601644 80.528829 130.393701 85.03937 130.393701  L 85.03937 130.393701  z " style="fill:none;stroke:#000000;stroke-linejoin:miter;"/>
   </g>
   <g id="line2d_1">
    <path clip-path="url(#pc9d05bf2cc)" d="M 54.107688 76.025215  L 70.616722 65.707069  " style="fill:none;stroke:#000000;stroke-linecap:round;"/>
   </g>
   <g id="line2d_2">
    <path clip-path="url(#pc9d05bf2cc)" d="M 99.462018 65.707069  L 115.971052 76.025215  " style="fill:none;stroke:#000000;stroke-linecap:round;"/>
   </g>
   <g id="line2d_3">
    <path clip-path="url(#pc9d05bf2cc)" d="M 99.462018 104.371672  L 115.971052 94.053525  " style="fill:none;stroke:#000000;stroke-linecap:round;"/>
   </g>
   <g id="line2d_4">
    <path clip-path="url(#pc9d05bf2cc)" d="M 54.107688 94.053525  L 70.616722 104.371672  " style="fill:none;stroke:#000000;stroke-linecap:round;"/>
   </g>
   <g id="text_1">
    <!-- A -->
    <defs>
     <path d="M 26.09375 61.40625  L 33.5 61.40625  L 57.5 0  L 49.5 0  L 42.40625 18.5  L 17.09375 18.5  L 10.09375 0  L 2.09375 0  z M 29.703125 51.59375  L 19.703125 25.40625  L 39.703125 25.40625  z " id="CalibreRegular-41"/>
    </defs>
    <g style="fill:#262626;" transform="translate(34.3216018701 89.3593700787)scale(0.18 -0.18)">
     <use xlink:href="#CalibreRegular-41"/>
    </g>
   </g>
   <g id="text_2">
    <!-- B -->
    <defs>
     <path d="M 38.796875 31.796875  Q 43.703125 30.5 46.796875 26.5  Q 49.90625 22.5 49.90625 17.296875  Q 49.90625 9 44.5 4.5  Q 39.09375 0 29.5 0  L 7.296875 0  L 7.296875 61.40625  L 27.5 61.40625  Q 37.09375 61.40625 42.4375 57.203125  Q 47.796875 53 47.796875 45.09375  Q 47.796875 39.90625 45.25 36.453125  Q 42.703125 33 38.796875 31.796875  M 15 34.703125  L 27.5 34.703125  Q 40.203125 34.703125 40.203125 44.703125  Q 40.203125 54.5 27.5 54.5  L 15 54.5  z M 15 28.09375  L 15 6.90625  L 29.5 6.90625  Q 35.59375 6.90625 38.890625 9.75  Q 42.203125 12.59375 42.203125 17.5  Q 42.203125 22.5 38.890625 25.296875  Q 35.59375 28.09375 29.5 28.09375  z " id="CalibreRegular-42"/>
    </defs>
    <g style="fill:#262626;" transform="translate(80.1976513287 61.0129133858)scale(0.18 -0.18)">
     <use xlink:href="#CalibreRegular-42"/>
    </g>
   </g>
   <g id="text_3">
    <!-- D -->
    <defs>
     <path d="M 15.203125 7.09375  L 26.90625 7.09375  Q 37.296875 7.09375 43.140625 13.4375  Q 49 19.796875 49 30.6875  Q 49 41.59375 43.09375 48  Q 37.203125 54.40625 26.90625 54.40625  L 15.203125 54.40625  z M 7.296875 0  L 7.296875 61.40625  L 27 61.40625  Q 40.5 61.40625 48.640625 53.046875  Q 56.796875 44.703125 56.796875 30.703125  Q 56.796875 16.703125 48.640625 8.34375  Q 40.5 0 27 0  z " id="CalibreRegular-44"/>
    </defs>
    <g style="fill:#262626;" transform="translate(124.948700787 89.3593700787)scale(0.18 -0.18)">
     <use xlink:href="#CalibreRegular-44"/>
    </g>
   </g>
   <g id="text_4">
    <!-- C -->
    <defs>
     <path d="M 19.40625 -0.90625  Q 3.703125 16.59375 3.703125 30.6875  Q 3.703125 44.796875 11.546875 53.546875  Q 19.40625 62.296875 31.203125 62.296875  Q 40.703125 62.296875 46.953125 57.1875  Q 53.203125 52.09375 55.09375 43.40625  L 47.296875 43.40625  Q 43.09375 55.203125 31.203125 55.203125  Q 22.40625 55.203125 17 48.453125  Q 11.59375 41.703125 11.59375 30.703125  Q 11.59375 19.796875 17 13  Q 22.40625 6.203125 31.203125 6.203125  Q 43.203125 6.203125 47.296875 18.09375  L 55.09375 18.09375  Q 53.203125 9.296875 46.953125 4.1875  Q 40.703125 -0.90625 31.203125 -0.90625  Q 19.40625 -0.90625 3.703125 16.59375  " id="CalibreRegular-43"/>
    </defs>
    <g style="fill:#262626;" transform="translate(79.7659325787 117.705826772)scale(0.18 -0.18)">
     <use xlink:href="#CalibreRegular-43"/>
    </g>
   </g>
  </g>
 </g>
 </svg>
