<svg xmlns="http://www.w3.org/2000/svg" xmlns:xlink="http://www.w3.org/1999/xlink" height="288pt" version="1.1" viewBox="0 0 576 288" width="576pt">
 <defs>
  <clipPath id="pd17d8af51d">
   <rect height="223.2" width="446.4" x="72.0" y="28.8"/>
  </clipPath>
 </defs>
<defs>
  <style type="text/css">
*{stroke-linecap:butt;stroke-linejoin:round;}
  </style>
 </defs>
 <g id="figure_1">
  <g id="patch_1">
   <path d=" M0 288 L576 288 L576 0 L0 0 z " style="fill:#ffffff;"/>
  </g>
  <g id="axes_1">
   <g id="patch_2">
    <path d=" M72 252 L518.4 252 L518.4 28.8 L72 28.8 z " style="fill:#eaeaf2;"/>
   </g>
   <g id="matplotlib.axis_1">
    <g id="xtick_1">
     <g id="line2d_1">
      <path clip-path="url(#pd17d8af51d)" d=" M72 252 L72 28.8" style="fill:none;stroke:#ffffff;stroke-linecap:round;stroke-width:1.3;"/>
     </g>
     <g id="line2d_2">
      <defs>
       <path d=" M0 0 L0 0" id="m56cc5124a0" style="stroke:#262626;stroke-width:1.3;"/>
      </defs>
      <g>
       <use style="fill:#262626;stroke:#262626;stroke-width:1.3;" x="72.0" xlink:href="#m56cc5124a0" y="252.0"/>
      </g>
     </g>
     <g id="line2d_3">
      <g>
       <use style="fill:#262626;stroke:#262626;stroke-width:1.3;" x="72.0" xlink:href="#m56cc5124a0" y="28.8"/>
      </g>
     </g>
    </g>
    <g id="xtick_2">
     <g id="line2d_4">
      <path clip-path="url(#pd17d8af51d)" d=" M127.8 252 L127.8 28.8" style="fill:none;stroke:#ffffff;stroke-linecap:round;stroke-width:1.3;"/>
     </g>
     <g id="line2d_5">
      <g>
       <use style="fill:#262626;stroke:#262626;stroke-width:1.3;" x="127.8" xlink:href="#m56cc5124a0" y="252.0"/>
      </g>
     </g>
     <g id="line2d_6">
      <g>
       <use style="fill:#262626;stroke:#262626;stroke-width:1.3;" x="127.8" xlink:href="#m56cc5124a0" y="28.8"/>
      </g>
     </g>
    </g>
    <g id="xtick_3">
     <g id="line2d_7">
      <path clip-path="url(#pd17d8af51d)" d=" M183.6 252 L183.6 28.8" style="fill:none;stroke:#ffffff;stroke-linecap:round;stroke-width:1.3;"/>
     </g>
     <g id="line2d_8">
      <g>
       <use style="fill:#262626;stroke:#262626;stroke-width:1.3;" x="183.6" xlink:href="#m56cc5124a0" y="252.0"/>
      </g>
     </g>
     <g id="line2d_9">
      <g>
       <use style="fill:#262626;stroke:#262626;stroke-width:1.3;" x="183.6" xlink:href="#m56cc5124a0" y="28.8"/>
      </g>
     </g>
    </g>
    <g id="xtick_4">
     <g id="line2d_10">
      <path clip-path="url(#pd17d8af51d)" d=" M239.4 252 L239.4 28.8" style="fill:none;stroke:#ffffff;stroke-linecap:round;stroke-width:1.3;"/>
     </g>
     <g id="line2d_11">
      <g>
       <use style="fill:#262626;stroke:#262626;stroke-width:1.3;" x="239.4" xlink:href="#m56cc5124a0" y="252.0"/>
      </g>
     </g>
     <g id="line2d_12">
      <g>
       <use style="fill:#262626;stroke:#262626;stroke-width:1.3;" x="239.4" xlink:href="#m56cc5124a0" y="28.8"/>
      </g>
     </g>
    </g>
    <g id="xtick_5">
     <g id="line2d_13">
      <path clip-path="url(#pd17d8af51d)" d=" M295.2 252 L295.2 28.8" style="fill:none;stroke:#ffffff;stroke-linecap:round;stroke-width:1.3;"/>
     </g>
     <g id="line2d_14">
      <g>
       <use style="fill:#262626;stroke:#262626;stroke-width:1.3;" x="295.2" xlink:href="#m56cc5124a0" y="252.0"/>
      </g>
     </g>
     <g id="line2d_15">
      <g>
       <use style="fill:#262626;stroke:#262626;stroke-width:1.3;" x="295.2" xlink:href="#m56cc5124a0" y="28.8"/>
      </g>
     </g>
    </g>
    <g id="xtick_6">
     <g id="line2d_16">
      <path clip-path="url(#pd17d8af51d)" d=" M351 252 L351 28.8" style="fill:none;stroke:#ffffff;stroke-linecap:round;stroke-width:1.3;"/>
     </g>
     <g id="line2d_17">
      <g>
       <use style="fill:#262626;stroke:#262626;stroke-width:1.3;" x="351.0" xlink:href="#m56cc5124a0" y="252.0"/>
      </g>
     </g>
     <g id="line2d_18">
      <g>
       <use style="fill:#262626;stroke:#262626;stroke-width:1.3;" x="351.0" xlink:href="#m56cc5124a0" y="28.8"/>
      </g>
     </g>
    </g>
    <g id="xtick_7">
     <g id="line2d_19">
      <path clip-path="url(#pd17d8af51d)" d=" M406.8 252 L406.8 28.8" style="fill:none;stroke:#ffffff;stroke-linecap:round;stroke-width:1.3;"/>
     </g>
     <g id="line2d_20">
      <g>
       <use style="fill:#262626;stroke:#262626;stroke-width:1.3;" x="406.8" xlink:href="#m56cc5124a0" y="252.0"/>
      </g>
     </g>
     <g id="line2d_21">
      <g>
       <use style="fill:#262626;stroke:#262626;stroke-width:1.3;" x="406.8" xlink:href="#m56cc5124a0" y="28.8"/>
      </g>
     </g>
    </g>
    <g id="xtick_8">
     <g id="line2d_22">
      <path clip-path="url(#pd17d8af51d)" d=" M462.6 252 L462.6 28.8" style="fill:none;stroke:#ffffff;stroke-linecap:round;stroke-width:1.3;"/>
     </g>
     <g id="line2d_23">
      <g>
       <use style="fill:#262626;stroke:#262626;stroke-width:1.3;" x="462.6" xlink:href="#m56cc5124a0" y="252.0"/>
      </g>
     </g>
     <g id="line2d_24">
      <g>
       <use style="fill:#262626;stroke:#262626;stroke-width:1.3;" x="462.6" xlink:href="#m56cc5124a0" y="28.8"/>
      </g>
     </g>
    </g>
    <g id="xtick_9">
     <g id="line2d_25">
      <path clip-path="url(#pd17d8af51d)" d=" M518.4 252 L518.4 28.8" style="fill:none;stroke:#ffffff;stroke-linecap:round;stroke-width:1.3;"/>
     </g>
     <g id="line2d_26">
      <g>
       <use style="fill:#262626;stroke:#262626;stroke-width:1.3;" x="518.4" xlink:href="#m56cc5124a0" y="252.0"/>
      </g>
     </g>
     <g id="line2d_27">
      <g>
       <use style="fill:#262626;stroke:#262626;stroke-width:1.3;" x="518.4" xlink:href="#m56cc5124a0" y="28.8"/>
      </g>
     </g>
    </g>
   </g>
   <g id="matplotlib.axis_2">
    <g id="ytick_1">
     <g id="line2d_28">
      <path clip-path="url(#pd17d8af51d)" d=" M72 252 L518.4 252" style="fill:none;stroke:#ffffff;stroke-linecap:round;stroke-width:1.3;"/>
     </g>
     <g id="line2d_29">
      <g>
       <use style="fill:#262626;stroke:#262626;stroke-width:1.3;" x="72.0" xlink:href="#m56cc5124a0" y="252.0"/>
      </g>
     </g>
     <g id="line2d_30">
      <g>
       <use style="fill:#262626;stroke:#262626;stroke-width:1.3;" x="518.4" xlink:href="#m56cc5124a0" y="252.0"/>
      </g>
     </g>
    </g>
    <g id="ytick_2">
     <g id="line2d_31">
      <path clip-path="url(#pd17d8af51d)" d=" M72 207.36 L518.4 207.36" style="fill:none;stroke:#ffffff;stroke-linecap:round;stroke-width:1.3;"/>
     </g>
     <g id="line2d_32">
      <g>
       <use style="fill:#262626;stroke:#262626;stroke-width:1.3;" x="72.0" xlink:href="#m56cc5124a0" y="207.36"/>
      </g>
     </g>
     <g id="line2d_33">
      <g>
       <use style="fill:#262626;stroke:#262626;stroke-width:1.3;" x="518.4" xlink:href="#m56cc5124a0" y="207.36"/>
      </g>
     </g>
    </g>
    <g id="ytick_3">
     <g id="line2d_34">
      <path clip-path="url(#pd17d8af51d)" d=" M72 162.72 L518.4 162.72" style="fill:none;stroke:#ffffff;stroke-linecap:round;stroke-width:1.3;"/>
     </g>
     <g id="line2d_35">
      <g>
       <use style="fill:#262626;stroke:#262626;stroke-width:1.3;" x="72.0" xlink:href="#m56cc5124a0" y="162.72"/>
      </g>
     </g>
     <g id="line2d_36">
      <g>
       <use style="fill:#262626;stroke:#262626;stroke-width:1.3;" x="518.4" xlink:href="#m56cc5124a0" y="162.72"/>
      </g>
     </g>
    </g>
    <g id="ytick_4">
     <g id="line2d_37">
      <path clip-path="url(#pd17d8af51d)" d=" M72 118.08 L518.4 118.08" style="fill:none;stroke:#ffffff;stroke-linecap:round;stroke-width:1.3;"/>
     </g>
     <g id="line2d_38">
      <g>
       <use style="fill:#262626;stroke:#262626;stroke-width:1.3;" x="72.0" xlink:href="#m56cc5124a0" y="118.08"/>
      </g>
     </g>
     <g id="line2d_39">
      <g>
       <use style="fill:#262626;stroke:#262626;stroke-width:1.3;" x="518.4" xlink:href="#m56cc5124a0" y="118.08"/>
      </g>
     </g>
    </g>
    <g id="ytick_5">
     <g id="line2d_40">
      <path clip-path="url(#pd17d8af51d)" d=" M72 73.44 L518.4 73.44" style="fill:none;stroke:#ffffff;stroke-linecap:round;stroke-width:1.3;"/>
     </g>
     <g id="line2d_41">
      <g>
       <use style="fill:#262626;stroke:#262626;stroke-width:1.3;" x="72.0" xlink:href="#m56cc5124a0" y="73.44"/>
      </g>
     </g>
     <g id="line2d_42">
      <g>
       <use style="fill:#262626;stroke:#262626;stroke-width:1.3;" x="518.4" xlink:href="#m56cc5124a0" y="73.44"/>
      </g>
     </g>
    </g>
    <g id="ytick_6">
     <g id="line2d_43">
      <path clip-path="url(#pd17d8af51d)" d=" M72 28.8 L518.4 28.8" style="fill:none;stroke:#ffffff;stroke-linecap:round;stroke-width:1.3;"/>
     </g>
     <g id="line2d_44">
      <g>
       <use style="fill:#262626;stroke:#262626;stroke-width:1.3;" x="72.0" xlink:href="#m56cc5124a0" y="28.8"/>
      </g>
     </g>
     <g id="line2d_45">
      <g>
       <use style="fill:#262626;stroke:#262626;stroke-width:1.3;" x="518.4" xlink:href="#m56cc5124a0" y="28.8"/>
      </g>
     </g>
    </g>
   </g>
   <g id="line2d_46">
    <path clip-path="url(#pd17d8af51d)" d=" M72 73.44 L518.4 73.44" style="fill:none;stroke:#dcdce6;stroke-linecap:round;stroke-width:2;"/>
   </g>
   <g id="line2d_47">
    <path clip-path="url(#pd17d8af51d)" d=" M295.2 252 L295.2 28.8" style="fill:none;stroke:#dcdce6;stroke-linecap:round;stroke-width:2;"/>
   </g>
   <g id="line2d_48">
    <path clip-path="url(#pd17d8af51d)" d=" M72 73.44 L518.4 73.44" style="fill:none;stroke:#ffdc52;stroke-linecap:round;stroke-width:2;"/>
   </g>
   <g id="patch_3">
    <path d=" M72 252 L72 28.8" style="fill:none;"/>
   </g>
   <g id="patch_4">
    <path d=" M518.4 252 L518.4 28.8" style="fill:none;"/>
   </g>
   <g id="patch_5">
    <path d=" M72 252 L518.4 252" style="fill:none;"/>
   </g>
   <g id="patch_6">
    <path d=" M72 28.8 L518.4 28.8" style="fill:none;"/>
   </g>
   <g id="text_1">
    <!-- A maxima -->
    <defs>
     <path d=" M42.2031 44.4062 L26.5938 23 L43.0938 0 L34.5938 0 L22.2969 17.2969 L9.90625 0 L1.79688 0 L18.2031 22.7031 L2.70312 44.4062 L11.2969 44.4062 L22.5 28.5 L34 44.4062 z " id="CalibreRegular-78"/>
     <path d=" M38.2031 38.2031 Q43.2031 45.2969 51.7031 45.2969 Q58.4062 45.2969 62.0469 41 Q65.7031 36.7031 65.7031 29.4062 L65.7031 0 L58.0938 0 L58.0938 28.2031 Q58.0938 33 56 35.75 Q53.9062 38.5 49.7031 38.5 Q46.2969 38.5 43.5938 36.3438 Q40.9062 34.2031 39.9062 30.5938 L39.9062 0 L32.4062 0 L32.4062 28.2031 Q32.4062 33 30.2969 35.75 Q28.2031 38.5 24 38.5 Q20.5938 38.5 17.8906 36.3438 Q15.2031 34.2031 14.2031 30.5938 L14.2031 0 L6.70312 0 L6.70312 44.4062 L14.2031 44.4062 L14.2031 39.2031 Q18 45.2969 26.2031 45.2969 Q34.5938 45.2969 38.2031 38.2031" id="CalibreRegular-6d"/>
     <path id="CalibreRegular-20"/>
     <path d=" M26.0938 61.4062 L33.5 61.4062 L57.5 0 L49.5 0 L42.4062 18.5 L17.0938 18.5 L10.0938 0 L2.09375 0 z  M29.7031 51.5938 L19.7031 25.4062 L39.7031 25.4062 z " id="CalibreRegular-41"/>
     <path d=" M38.9062 0 L31.7031 0 L31.7031 3.29688 Q30.2969 1.79688 27 0.5 Q23.7031 -0.796875 20 -0.796875 Q13 -0.796875 8.25 3.09375 Q3.5 7 3.5 13.4062 Q3.5 19.5 8.39062 23.3906 Q13.2969 27.2969 20.5 27.2969 Q23.7969 27.2969 27 26.1875 Q30.2031 25.0938 31.7031 23.7031 L31.7031 29.2969 Q31.7031 33.5938 29.1406 36.1875 Q26.5938 38.7969 21.9062 38.7969 Q14.9062 38.7969 12.7969 32.7031 L5.40625 32.7031 Q6.5 38.2969 11.0469 41.7969 Q15.5938 45.2969 22 45.2969 Q29.9062 45.2969 34.4062 41.0938 Q38.9062 36.9062 38.9062 29.5938 z  M31.7031 11 L31.7031 15.5938 Q30.7031 18 27.75 19.5469 Q24.7969 21.0938 21.2969 21.0938 Q16.9062 21.0938 13.7969 19.0938 Q10.7031 17.0938 10.7031 13.4062 Q10.7031 9.59375 13.7969 7.54688 Q16.9062 5.5 21.2969 5.5 Q24.7969 5.5 27.75 7.04688 Q30.7031 8.59375 31.7031 11" id="CalibreRegular-61"/>
     <path d=" M14.2031 44.4062 L14.2031 0 L6.70312 0 L6.70312 44.4062 z  M12.4062 62.5938 Q15.2969 59.7969 15.2969 57.7969 Q15.2969 55.7969 13.8438 54.3906 Q12.4062 53 10.4062 53 Q8.40625 53 7 54.3906 Q5.59375 55.7969 5.59375 57.7969 Q5.59375 59.7969 7 61.1875 Q8.40625 62.5938 10.4062 62.5938 Q12.4062 62.5938 15.2969 59.7969" id="CalibreRegular-69"/>
    </defs>
    <g style="fill:#262626;" transform="translate(263.0410875 23.8)scale(0.17160000000000003 -0.17160000000000003)">
     <use xlink:href="#CalibreRegular-41"/>
     <use x="59.59999084472656" xlink:href="#CalibreRegular-20"/>
     <use x="81.69998168945312" xlink:href="#CalibreRegular-6d"/>
     <use x="153.39996337890625" xlink:href="#CalibreRegular-61"/>
     <use x="198.3999481201172" xlink:href="#CalibreRegular-78"/>
     <use x="243.29994201660156" xlink:href="#CalibreRegular-69"/>
     <use x="264.19993591308594" xlink:href="#CalibreRegular-6d"/>
     <use x="335.89991760253906" xlink:href="#CalibreRegular-61"/>
    </g>
   </g>
   <g id="line2d_49">
    <path clip-path="url(#pd17d8af51d)" d=" M172.582 289 L177.903 270.697 L183.265 253.074 L188.18 237.644 L193.095 222.907 L198.011 208.863 L202.926 195.511 L207.395 183.975 L211.863 173.011 L216.332 162.619 L220.8 152.8 L225.268 143.554 L229.29 135.721 L233.312 128.353 L237.333 121.448 L241.355 115.007 L244.93 109.671 L248.505 104.701 L252.079 100.098 L255.654 95.8612 L259.229 91.9909 L262.357 88.9049 L265.485 86.0995 L268.613 83.5746 L271.741 81.3303 L274.868 79.3665 L277.996 77.6832 L281.124 76.2805 L283.805 75.3015 L286.486 74.5285 L289.168 73.9617 L291.849 73.601 L294.53 73.4464 L297.211 73.498 L299.892 73.7556 L302.573 74.2194 L305.254 74.8892 L307.935 75.7652 L310.616 76.8473 L313.744 78.3703 L316.872 80.1737 L320 82.2578 L323.128 84.6224 L326.256 87.2675 L329.384 90.1931 L332.512 93.3993 L336.086 97.4071 L339.661 101.781 L343.236 106.522 L346.811 111.629 L350.386 117.102 L354.407 123.698 L358.429 130.757 L362.45 138.28 L366.472 146.267 L370.494 154.718 L374.962 164.652 L379.431 175.158 L383.899 186.236 L388.368 197.887 L393.283 211.365 L398.198 225.535 L403.114 240.398 L408.029 255.954 L412.944 272.202 L417.818 289 L417.818 289" style="fill:none;stroke:#386df9;stroke-linecap:round;stroke-width:2.275;"/>
   </g>
   <g id="text_2">
    <!-- $f^{(1)}(x)=0, f^{(2)}(x) &lt; 0$ -->
    <defs>
     <path d=" M63.7031 32 L4.79688 32 L4.79688 38.5938 L63.7031 38.5938 z  M63.7031 12 L4.79688 12 L4.79688 18.5938 L63.7031 18.5938 z " id="STIXGeneral-Regular-3d"/>
     <path d=" M47.7031 33 Q47.7031 23.7969 45.5469 16.3438 Q43.4062 8.90625 38.0938 3.75 Q32.7969 -1.40625 25 -1.40625 Q18.7969 -1.40625 14.25 1.6875 Q9.70312 4.79688 7.20312 10.0469 Q4.70312 15.2969 3.5 21.1406 Q2.29688 27 2.29688 33.5938 Q2.29688 42.9062 4.59375 50.3438 Q6.90625 57.7969 12.2969 62.6875 Q17.7031 67.5938 25.4062 67.5938 Q35.2031 67.5938 41.4531 57.9375 Q47.7031 48.2969 47.7031 33 M39.7969 33 Q39.7969 45.2031 35.75 52.8438 Q31.7031 60.5 25.2031 60.5 Q17.7969 60.5 14 52.75 Q10.2031 45 10.2031 33.4062 Q10.2031 28.2031 10.9531 23.5469 Q11.7031 18.9062 13.3438 14.75 Q15 10.5938 18 8.14062 Q21 5.70312 25 5.70312 Q30.0938 5.70312 33.5469 9.79688 Q37 13.9062 38.3906 19.8438 Q39.7969 25.7969 39.7969 33" id="STIXGeneral-Regular-1d7e2"/>
     <path d=" M30.2031 0 L22.2969 0 L22.2969 57 Q20.0938 56 15.75 53.75 Q11.4062 51.5 10.7969 51.2031 L10.7969 58.5 L28.7969 67.7031 L30.2031 67.2031 z " id="STIXGeneral-Regular-1d7e3"/>
     <path d=" M8.29688 -14.0938 L7.29688 -12.2031 Q15.5938 -6.59375 15.5938 -1.5 Q15.5938 -0.203125 14.2031 -0.203125 Q13.7969 -0.203125 12.8438 -0.390625 Q11.9062 -0.59375 11.2969 -0.59375 Q5.5 -0.59375 5.5 4.5 Q5.5 7.09375 7.14062 8.64062 Q8.79688 10.2031 11.5 10.2031 Q14.9062 10.2031 17.2031 7.75 Q19.5 5.29688 19.5 1.5 Q19.5 -3.09375 16.4531 -7.39062 Q13.4062 -11.7031 8.29688 -14.0938" id="STIXGeneral-Regular-2c"/>
     <path d=" M30.4062 -16.0938 L29.2031 -17.7031 Q17.5938 -11.0938 11.1875 0.5 Q4.79688 12.0938 4.79688 25.2031 Q4.79688 52.9062 29.5 67.5938 L30.4062 66 Q20.2031 57.2969 16.7969 48.8438 Q13.4062 40.4062 13.4062 25.5 Q13.4062 10.7031 16.9062 1.5 Q20.4062 -7.70312 30.4062 -16.0938" id="STIXGeneral-Regular-28"/>
     <path d=" M54.4062 45.2969 L34.4062 23.5938 L45.2031 0 L35.7969 0 L27.9062 17.5 L12.4062 0 L3 0 L25 23.9062 L15.4062 45.2969 L24.7969 45.2969 L31.5938 30.2031 L45 45.2969 z " id="STIXGeneral-Italic-1d639"/>
     <path d=" M62.0938 -2.40625 L5.59375 24.9062 L5.59375 25.9062 L62.0938 53.4062 L62.0938 46.9062 L18.9062 25.4062 L62.0938 3.90625 z " id="STIXGeneral-Regular-3c"/>
     <path d=" M2.90625 66 L4.09375 67.5938 Q15.5 60.7969 22 49.1875 Q28.5 37.5938 28.5 24.7031 Q28.5 -2.59375 3.79688 -17.7031 L2.90625 -16.0938 Q13.2031 -7.59375 16.5469 0.84375 Q19.9062 9.29688 19.9062 24.4062 Q19.9062 39.5938 16.5469 48.75 Q13.2031 57.9062 2.90625 66" id="STIXGeneral-Regular-29"/>
     <path d=" M46.9062 7.09375 L44 0 L3.5 0 L3.5 2.09375 L21 23.5 L21 23.4062 L26.5938 30.2031 Q30.5 34.9062 32.0938 36.9531 Q33.7031 39 35.2031 41.9531 Q36.7031 44.9062 36.7031 47.5 Q36.7031 53.7031 33.3438 57.0938 Q30 60.5 24.2031 60.5 Q19.5938 60.5 15.75 56.7031 Q11.9062 52.9062 10.9062 45.9062 L3.70312 47.5938 Q5.29688 56.5 11.1875 62.0469 Q17.0938 67.5938 24.9062 67.5938 Q33.5938 67.5938 39.0938 62.1875 Q44.5938 56.7969 44.5938 49.0938 Q44.5938 43.5 42.5 39.4531 Q40.4062 35.4062 33.7031 27 L17.7031 7.09375 z " id="STIXGeneral-Regular-1d7e4"/>
     <path d=" M52.5938 63.2969 L48.7969 57.4062 L47.0938 57.2969 Q44.7031 59.5 43.3438 60.3438 Q42 61.2031 40.0938 61.2031 Q37 61.2031 34.4531 58.7031 Q31.9062 56.2031 30.5938 50.9062 L29.2031 45.2969 L40.5938 45.2969 L38.9062 38.2031 L27.5 38.2031 L18 0 L10.0938 0 L19.5938 38.2031 L11.5 38.2031 L13.2031 45.2969 L21.2969 45.2969 L22.4062 49.4062 Q25.2031 59.5 30.7969 64.2969 Q35.7969 68.2969 41.2031 68.2969 Q48 68.2969 52.5938 63.2969" id="STIXGeneral-Italic-1d627"/>
    </defs>
    <g style="fill:#262626;" transform="translate(136.56 68.976)scale(0.12 -0.12)">
     <use transform="translate(0.0 0.9000000000000057)" xlink:href="#STIXGeneral-Italic-1d627"/>
     <use transform="translate(33.59999084472656 55.60781250000001)scale(0.7)" xlink:href="#STIXGeneral-Regular-28"/>
     <use transform="translate(56.90998229980468 55.60781250000001)scale(0.7)" xlink:href="#STIXGeneral-Regular-1d7e3"/>
     <use transform="translate(91.90997161865234 55.60781250000001)scale(0.7)" xlink:href="#STIXGeneral-Regular-29"/>
     <use transform="translate(124.27933807373047 0.9000000000000057)" xlink:href="#STIXGeneral-Regular-28"/>
     <use transform="translate(157.5793258666992 0.9000000000000057)" xlink:href="#STIXGeneral-Italic-1d639"/>
     <use transform="translate(205.7793228149414 0.9000000000000057)" xlink:href="#STIXGeneral-Regular-29"/>
     <use transform="translate(254.19930877685545 0.9000000000000057)" xlink:href="#STIXGeneral-Regular-3d"/>
     <use transform="translate(328.2099319458008 0.9000000000000057)" xlink:href="#STIXGeneral-Regular-1d7e2"/>
     <use transform="translate(378.20991668701174 0.9000000000000057)" xlink:href="#STIXGeneral-Regular-2c"/>
     <use transform="translate(407.32991485595704 0.9000000000000057)" xlink:href="#STIXGeneral-Italic-1d627"/>
     <use transform="translate(440.9299057006836 55.60781250000001)scale(0.7)" xlink:href="#STIXGeneral-Regular-28"/>
     <use transform="translate(464.2398971557617 55.60781250000001)scale(0.7)" xlink:href="#STIXGeneral-Regular-1d7e4"/>
     <use transform="translate(499.23988647460936 55.60781250000001)scale(0.7)" xlink:href="#STIXGeneral-Regular-29"/>
     <use transform="translate(531.6092529296875 0.9000000000000057)" xlink:href="#STIXGeneral-Regular-28"/>
     <use transform="translate(564.9092407226562 0.9000000000000057)" xlink:href="#STIXGeneral-Italic-1d639"/>
     <use transform="translate(613.1092376708984 0.9000000000000057)" xlink:href="#STIXGeneral-Regular-29"/>
     <use transform="translate(661.5292236328125 0.9000000000000057)" xlink:href="#STIXGeneral-Regular-3c"/>
     <use transform="translate(733.1492218017578 0.9000000000000057)" xlink:href="#STIXGeneral-Regular-1d7e2"/>
    </g>
   </g>
   <g id="text_3">
    <!-- $f^{(1)}(x) &gt; 0$ -->
    <defs>
     <path d=" M62.0938 24.9062 L5.59375 -2.40625 L5.59375 3.90625 L48.7969 25.4062 L5.59375 46.9062 L5.59375 53.4062 L62.0938 25.9062 z " id="STIXGeneral-Regular-3e"/>
    </defs>
    <g style="fill:#262626;" transform="translate(188.94 118.08)scale(0.12 -0.12)">
     <use transform="translate(0.0 0.9000000000000057)" xlink:href="#STIXGeneral-Italic-1d627"/>
     <use transform="translate(33.59999084472656 55.60781250000001)scale(0.7)" xlink:href="#STIXGeneral-Regular-28"/>
     <use transform="translate(56.90998229980468 55.60781250000001)scale(0.7)" xlink:href="#STIXGeneral-Regular-1d7e3"/>
     <use transform="translate(91.90997161865234 55.60781250000001)scale(0.7)" xlink:href="#STIXGeneral-Regular-29"/>
     <use transform="translate(124.27933807373047 0.9000000000000057)" xlink:href="#STIXGeneral-Regular-28"/>
     <use transform="translate(157.5793258666992 0.9000000000000057)" xlink:href="#STIXGeneral-Italic-1d639"/>
     <use transform="translate(205.7793228149414 0.9000000000000057)" xlink:href="#STIXGeneral-Regular-29"/>
     <use transform="translate(254.19930877685545 0.9000000000000057)" xlink:href="#STIXGeneral-Regular-3e"/>
     <use transform="translate(325.8193069458008 0.9000000000000057)" xlink:href="#STIXGeneral-Regular-1d7e2"/>
    </g>
   </g>
   <g id="text_4">
    <!-- $f^{(1)}(x) &lt; 0$ -->
    <g style="fill:#262626;" transform="translate(356.34 118.08)scale(0.12 -0.12)">
     <use transform="translate(0.0 0.9000000000000057)" xlink:href="#STIXGeneral-Italic-1d627"/>
     <use transform="translate(33.59999084472656 55.60781250000001)scale(0.7)" xlink:href="#STIXGeneral-Regular-28"/>
     <use transform="translate(56.90998229980468 55.60781250000001)scale(0.7)" xlink:href="#STIXGeneral-Regular-1d7e3"/>
     <use transform="translate(91.90997161865234 55.60781250000001)scale(0.7)" xlink:href="#STIXGeneral-Regular-29"/>
     <use transform="translate(124.27933807373047 0.9000000000000057)" xlink:href="#STIXGeneral-Regular-28"/>
     <use transform="translate(157.5793258666992 0.9000000000000057)" xlink:href="#STIXGeneral-Italic-1d639"/>
     <use transform="translate(205.7793228149414 0.9000000000000057)" xlink:href="#STIXGeneral-Regular-29"/>
     <use transform="translate(254.19930877685545 0.9000000000000057)" xlink:href="#STIXGeneral-Regular-3c"/>
     <use transform="translate(325.8193069458008 0.9000000000000057)" xlink:href="#STIXGeneral-Regular-1d7e2"/>
    </g>
   </g>
  </g>
 </g>
 </svg>
