<?xml version="1.0" encoding="utf-8"?>
<!-- Generator: Adobe Illustrator 16.0.0, SVG Export Plug-In . SVG Version: 6.00 Build 0)  -->
<!DOCTYPE svg PUBLIC "-//W3C//DTD SVG 1.1 Tiny//EN" "http://www.w3.org/Graphics/SVG/1.1/DTD/svg11-tiny.dtd">
<svg version="1.1" baseProfile="tiny" id="Layer_1" xmlns="http://www.w3.org/2000/svg" xmlns:xlink="http://www.w3.org/1999/xlink"
	 x="0px" y="0px" width="467px" height="158px" viewBox="0 0 467 158" xml:space="preserve">
<g>
	<line fill="none" stroke="#AAAAAA" stroke-width="0.75" stroke-miterlimit="10" x1="233.411" y1="24.5" x2="197.411" y2="78.5"/>
	<line fill="none" stroke="#AAAAAA" stroke-width="0.75" stroke-miterlimit="10" x1="233.411" y1="24.5" x2="269.41" y2="78.5"/>
	
		<line fill="#FFFFFF" stroke="#231F20" stroke-width="0.75" stroke-miterlimit="10" x1="269.41" y1="96.5" x2="251.411" y2="132.5"/>
	<line fill="none" stroke="#AAAAAA" stroke-width="0.75" stroke-miterlimit="10" x1="269.41" y1="96.5" x2="287.41" y2="132.5"/>
	
		<line fill="#FFFFFF" stroke="#231F20" stroke-width="0.75" stroke-miterlimit="10" x1="197.411" y1="96.5" x2="179.411" y2="132.5"/>
	<line fill="none" stroke="#AAAAAA" stroke-width="0.75" stroke-miterlimit="10" x1="197.411" y1="96.5" x2="215.411" y2="132.5"/>
</g>
<g>
	<rect x="88.244" y="11" fill="none" width="69.5" height="24"/>
	<path fill="#231F20" d="M92.72,14.384c0.16-0.288,0.388-0.53,0.684-0.726c0.296-0.196,0.62-0.294,0.972-0.294
		c0.52,0,0.92,0.168,1.2,0.504c0.28,0.336,0.42,0.78,0.42,1.332v3.6h-0.588v-3.516c0-0.424-0.096-0.758-0.288-1.002
		c-0.192-0.244-0.476-0.366-0.852-0.366c-0.32,0-0.608,0.104-0.864,0.312c-0.256,0.208-0.44,0.476-0.552,0.804V18.8h-0.6v-3.516
		c0-0.424-0.096-0.758-0.288-1.002c-0.192-0.244-0.476-0.366-0.852-0.366c-0.32,0-0.608,0.104-0.864,0.312s-0.44,0.476-0.552,0.804
		V18.8h-0.6v-5.328h0.6v0.816c0.144-0.271,0.35-0.494,0.618-0.666c0.268-0.172,0.574-0.258,0.918-0.258
		C91.976,13.364,92.472,13.704,92.72,14.384z"/>
	<path fill="#231F20" d="M101.276,18.8H100.7v-0.504c-0.128,0.152-0.328,0.288-0.6,0.408c-0.272,0.12-0.564,0.18-0.876,0.18
		c-0.56,0-1.028-0.15-1.404-0.45c-0.376-0.3-0.564-0.698-0.564-1.194c0-0.48,0.192-0.872,0.576-1.176
		c0.384-0.304,0.855-0.456,1.416-0.456c0.288,0,0.568,0.058,0.84,0.174c0.272,0.116,0.476,0.246,0.612,0.39v-0.948
		c0-0.4-0.118-0.722-0.354-0.966s-0.562-0.366-0.978-0.366c-0.664,0-1.096,0.304-1.296,0.912h-0.588
		c0.104-0.448,0.326-0.8,0.666-1.056c0.34-0.256,0.746-0.384,1.218-0.384c0.592,0,1.058,0.166,1.398,0.498
		c0.34,0.332,0.51,0.778,0.51,1.338V18.8z M100.7,17.588v-0.684c-0.088-0.232-0.266-0.422-0.534-0.57
		c-0.269-0.148-0.562-0.222-0.882-0.222c-0.408,0-0.754,0.098-1.038,0.294c-0.284,0.196-0.426,0.474-0.426,0.834
		s0.142,0.64,0.426,0.84c0.284,0.2,0.63,0.3,1.038,0.3c0.32,0,0.614-0.074,0.882-0.222C100.434,18.01,100.612,17.82,100.7,17.588z"
		/>
	<path fill="#231F20" d="M106.868,13.472l-1.884,2.592l1.968,2.736h-0.66l-1.644-2.28l-1.656,2.28h-0.636l1.968-2.712l-1.884-2.616
		h0.66l1.56,2.172l1.572-2.172H106.868z"/>
</g>
<g>
	<line fill="none" stroke="#AAAAAA" stroke-width="0.75" stroke-miterlimit="10" x1="68.744" y1="24.5" x2="32.744" y2="78.5"/>
	<line fill="none" stroke="#AAAAAA" stroke-width="0.75" stroke-miterlimit="10" x1="68.744" y1="24.5" x2="104.744" y2="78.5"/>
	<line fill="none" stroke="#AAAAAA" stroke-width="0.75" stroke-miterlimit="10" x1="104.744" y1="96.5" x2="86.744" y2="132.5"/>
	<line fill="none" stroke="#AAAAAA" stroke-width="0.75" stroke-miterlimit="10" x1="104.744" y1="96.5" x2="122.744" y2="132.5"/>
	<line fill="none" stroke="#AAAAAA" stroke-width="0.75" stroke-miterlimit="10" x1="32.744" y1="96.5" x2="14.744" y2="132.5"/>
	<line fill="none" stroke="#AAAAAA" stroke-width="0.75" stroke-miterlimit="10" x1="32.744" y1="96.5" x2="50.744" y2="132.5"/>
</g>
<g>
	<rect x="252.911" y="11" fill="none" width="69.5" height="24"/>
	<path fill="#231F20" d="M257.387,14.384c0.16-0.288,0.388-0.53,0.684-0.726c0.296-0.196,0.62-0.294,0.972-0.294
		c0.52,0,0.92,0.168,1.2,0.504c0.28,0.336,0.42,0.78,0.42,1.332v3.6h-0.588v-3.516c0-0.424-0.096-0.758-0.288-1.002
		c-0.192-0.244-0.476-0.366-0.852-0.366c-0.32,0-0.608,0.104-0.864,0.312c-0.256,0.208-0.44,0.476-0.552,0.804V18.8h-0.6v-3.516
		c0-0.424-0.096-0.758-0.288-1.002c-0.192-0.244-0.476-0.366-0.852-0.366c-0.32,0-0.608,0.104-0.864,0.312s-0.44,0.476-0.552,0.804
		V18.8h-0.6v-5.328h0.6v0.816c0.144-0.271,0.35-0.494,0.618-0.666c0.268-0.172,0.574-0.258,0.918-0.258
		C256.643,13.364,257.139,13.704,257.387,14.384z"/>
	<path fill="#231F20" d="M265.943,18.8h-0.576v-0.504c-0.129,0.152-0.328,0.288-0.601,0.408c-0.272,0.12-0.563,0.18-0.876,0.18
		c-0.561,0-1.027-0.15-1.404-0.45c-0.375-0.3-0.563-0.698-0.563-1.194c0-0.48,0.192-0.872,0.576-1.176s0.855-0.456,1.416-0.456
		c0.288,0,0.567,0.058,0.84,0.174c0.272,0.116,0.476,0.246,0.612,0.39v-0.948c0-0.4-0.119-0.722-0.354-0.966
		s-0.562-0.366-0.978-0.366c-0.664,0-1.097,0.304-1.297,0.912h-0.588c0.104-0.448,0.326-0.8,0.666-1.056
		c0.34-0.256,0.746-0.384,1.219-0.384c0.592,0,1.058,0.166,1.397,0.498c0.341,0.332,0.511,0.778,0.511,1.338V18.8z M265.367,17.588
		v-0.684c-0.088-0.232-0.267-0.422-0.534-0.57c-0.269-0.148-0.562-0.222-0.882-0.222c-0.408,0-0.754,0.098-1.039,0.294
		c-0.283,0.196-0.426,0.474-0.426,0.834s0.143,0.64,0.426,0.84c0.285,0.2,0.631,0.3,1.039,0.3c0.319,0,0.613-0.074,0.882-0.222
		C265.101,18.01,265.279,17.82,265.367,17.588z"/>
	<path fill="#231F20" d="M271.535,13.472l-1.885,2.592l1.969,2.736h-0.66l-1.645-2.28l-1.656,2.28h-0.635l1.967-2.712l-1.883-2.616
		h0.66l1.559,2.172l1.572-2.172H271.535z"/>
</g>
<g>
	<circle fill="#FFFFFF" stroke="#AAAAAA" stroke-width="0.75" stroke-miterlimit="10" cx="68.744" cy="15.5" r="9"/>
	<circle fill="#FFFFFF" stroke="#AAAAAA" stroke-width="0.75" stroke-miterlimit="10" cx="32.744" cy="87.5" r="9"/>
	<circle fill="#FFFFFF" stroke="#AAAAAA" stroke-width="0.75" stroke-miterlimit="10" cx="104.744" cy="87.5" r="9"/>
	<circle fill="#FFFFFF" stroke="#231F20" stroke-width="0.75" stroke-miterlimit="10" cx="86.744" cy="141.5" r="9"/>
	<circle fill="#FFFFFF" stroke="#231F20" stroke-width="0.75" stroke-miterlimit="10" cx="122.744" cy="141.5" r="9"/>
	<circle fill="#FFFFFF" stroke="#231F20" stroke-width="0.75" stroke-miterlimit="10" cx="14.744" cy="141.5" r="9"/>
	<circle fill="#FFFFFF" stroke="#231F20" stroke-width="0.75" stroke-miterlimit="10" cx="50.744" cy="141.5" r="9"/>
</g>
<g>
	<circle fill="#FFFFFF" stroke="#231F20" stroke-width="0.75" stroke-miterlimit="10" cx="197.411" cy="87.5" r="9"/>
	<circle fill="#FFFFFF" stroke="#231F20" stroke-width="0.75" stroke-miterlimit="10" cx="269.41" cy="87.5" r="9"/>
	<circle fill="#FFFFFF" stroke="#AAAAAA" stroke-width="0.75" stroke-miterlimit="10" cx="233.411" cy="15.5" r="9"/>
	<circle fill="#FFFFFF" stroke="#AAAAAA" stroke-width="0.75" stroke-miterlimit="10" cx="251.411" cy="141.5" r="9"/>
	<circle fill="#FFFFFF" stroke="#AAAAAA" stroke-width="0.75" stroke-miterlimit="10" cx="287.41" cy="141.5" r="9"/>
	<circle fill="#FFFFFF" stroke="#AAAAAA" stroke-width="0.75" stroke-miterlimit="10" cx="179.411" cy="141.5" r="9"/>
	<circle fill="#FFFFFF" stroke="#AAAAAA" stroke-width="0.75" stroke-miterlimit="10" cx="215.411" cy="141.5" r="9"/>
</g>
<g>
	<rect x="170.495" y="137.5" fill="none" width="17.916" height="20.5"/>
	<path fill="#AAAAAA" d="M180.803,139.912c0-0.376-0.12-0.679-0.36-0.906c-0.24-0.229-0.564-0.342-0.972-0.342
		c-0.432,0-0.77,0.134-1.014,0.401c-0.244,0.269-0.386,0.626-0.426,1.074h-0.972c0.072-0.696,0.324-1.256,0.756-1.68
		s0.984-0.636,1.656-0.636c0.696,0,1.244,0.188,1.644,0.563s0.6,0.88,0.6,1.512c0,0.112-0.014,0.229-0.042,0.349
		s-0.056,0.224-0.084,0.312s-0.08,0.198-0.156,0.33c-0.076,0.132-0.134,0.23-0.174,0.294c-0.04,0.064-0.12,0.168-0.24,0.312
		c-0.12,0.144-0.2,0.239-0.24,0.288c-0.04,0.048-0.134,0.153-0.282,0.317c-0.148,0.164-0.238,0.267-0.27,0.307l-1.872,2.052h3.516
		v0.84h-4.812v-0.624l2.376-2.616c0.36-0.399,0.604-0.672,0.732-0.815c0.128-0.145,0.266-0.349,0.414-0.612
		C180.729,140.368,180.803,140.128,180.803,139.912z"/>
</g>
<g>
	<rect x="204.661" y="137.5" fill="none" width="21.5" height="20.5"/>
	<path fill="#AAAAAA" d="M217.75,138.664l-2.628,6.636h-0.948l2.604-6.528h-3.792v-0.84h4.764V138.664z"/>
</g>
<g>
	<rect x="240.661" y="137.5" fill="none" width="21.5" height="20.5"/>
	<path fill="#AAAAAA" d="M252.484,137.92v7.38h-0.924v-6.24l-1.824,0.937v-0.96l2.184-1.116H252.484z"/>
</g>
<g>
	<rect x="287.41" y="82.5" fill="none" width="69.5" height="24"/>
	<path fill="#231F20" d="M291.887,85.884c0.16-0.288,0.388-0.53,0.684-0.726c0.297-0.196,0.62-0.295,0.973-0.295
		c0.52,0,0.92,0.168,1.199,0.504c0.28,0.336,0.42,0.781,0.42,1.332V90.3h-0.588v-3.517c0-0.424-0.096-0.758-0.287-1.002
		c-0.192-0.243-0.477-0.365-0.853-0.365c-0.319,0-0.608,0.104-0.864,0.312c-0.256,0.207-0.439,0.476-0.552,0.803V90.3h-0.601v-3.517
		c0-0.424-0.096-0.758-0.287-1.002c-0.192-0.243-0.477-0.365-0.852-0.365c-0.32,0-0.609,0.104-0.865,0.312
		c-0.256,0.207-0.439,0.476-0.551,0.803V90.3h-0.601v-5.328h0.601v0.815c0.144-0.271,0.35-0.493,0.617-0.666
		c0.268-0.172,0.574-0.258,0.918-0.258C291.143,84.863,291.639,85.204,291.887,85.884z"/>
	<path fill="#231F20" d="M297.406,83.064c0.08,0.08,0.121,0.176,0.121,0.287c0,0.112-0.041,0.209-0.121,0.288
		c-0.08,0.08-0.176,0.12-0.287,0.12c-0.112,0-0.209-0.04-0.289-0.12c-0.079-0.079-0.119-0.176-0.119-0.288
		c0-0.111,0.04-0.207,0.119-0.287c0.08-0.08,0.177-0.121,0.289-0.121C297.23,82.943,297.326,82.984,297.406,83.064z M297.419,84.972
		V90.3h-0.601v-5.328H297.419z"/>
	<path fill="#231F20" d="M299.123,90.3v-5.328h0.6v0.853c0.176-0.272,0.414-0.5,0.714-0.685c0.3-0.184,0.63-0.276,0.989-0.276
		c0.592,0,1.049,0.174,1.369,0.522c0.318,0.349,0.479,0.81,0.479,1.386V90.3h-0.588v-3.444c0-0.432-0.113-0.779-0.342-1.043
		c-0.229-0.265-0.57-0.396-1.025-0.396c-0.352,0-0.672,0.107-0.96,0.324c-0.288,0.215-0.5,0.492-0.636,0.828V90.3H299.123z"/>
</g>
<g>
	<rect x="186.661" y="83.5" fill="none" width="21.5" height="20.5"/>
	<path d="M198.761,85.912c0-0.376-0.12-0.679-0.36-0.906c-0.24-0.229-0.564-0.342-0.972-0.342c-0.432,0-0.77,0.134-1.014,0.401
		c-0.244,0.269-0.386,0.626-0.426,1.074h-0.972c0.072-0.696,0.324-1.256,0.756-1.68s0.984-0.636,1.656-0.636
		c0.696,0,1.244,0.188,1.644,0.563s0.6,0.88,0.6,1.512c0,0.112-0.014,0.229-0.042,0.349s-0.056,0.224-0.084,0.312
		s-0.08,0.198-0.156,0.33c-0.076,0.132-0.134,0.23-0.174,0.294c-0.04,0.064-0.12,0.168-0.24,0.312c-0.12,0.144-0.2,0.239-0.24,0.288
		c-0.04,0.048-0.134,0.153-0.282,0.317c-0.148,0.164-0.238,0.267-0.27,0.307l-1.872,2.052h3.516v0.84h-4.812v-0.624l2.376-2.616
		c0.36-0.399,0.604-0.672,0.732-0.815c0.128-0.145,0.266-0.349,0.414-0.612C198.687,86.368,198.761,86.128,198.761,85.912z"/>
</g>
<g>
	<rect x="122.744" y="82.5" fill="none" width="69.5" height="24"/>
	<path fill="#231F20" d="M127.22,85.884c0.16-0.288,0.388-0.53,0.684-0.726c0.296-0.196,0.62-0.295,0.972-0.295
		c0.52,0,0.92,0.168,1.2,0.504c0.28,0.336,0.42,0.781,0.42,1.332V90.3h-0.588v-3.517c0-0.424-0.096-0.758-0.288-1.002
		c-0.192-0.243-0.476-0.365-0.852-0.365c-0.32,0-0.608,0.104-0.864,0.312c-0.256,0.207-0.44,0.476-0.552,0.803V90.3h-0.6v-3.517
		c0-0.424-0.096-0.758-0.288-1.002c-0.192-0.243-0.476-0.365-0.852-0.365c-0.32,0-0.608,0.104-0.864,0.312
		c-0.256,0.207-0.44,0.476-0.552,0.803V90.3h-0.6v-5.328h0.6v0.815c0.144-0.271,0.35-0.493,0.618-0.666
		c0.268-0.172,0.574-0.258,0.918-0.258C126.476,84.863,126.972,85.204,127.22,85.884z"/>
	<path fill="#231F20" d="M132.74,83.064c0.08,0.08,0.12,0.176,0.12,0.287c0,0.112-0.04,0.209-0.12,0.288
		c-0.08,0.08-0.176,0.12-0.288,0.12c-0.112,0-0.208-0.04-0.288-0.12c-0.08-0.079-0.12-0.176-0.12-0.288
		c0-0.111,0.04-0.207,0.12-0.287c0.08-0.08,0.176-0.121,0.288-0.121C132.564,82.943,132.66,82.984,132.74,83.064z M132.752,84.972
		V90.3h-0.6v-5.328H132.752z"/>
	<path fill="#231F20" d="M134.456,90.3v-5.328h0.6v0.853c0.176-0.272,0.414-0.5,0.714-0.685c0.3-0.184,0.63-0.276,0.99-0.276
		c0.592,0,1.049,0.174,1.369,0.522c0.318,0.349,0.479,0.81,0.479,1.386V90.3h-0.588v-3.444c0-0.432-0.113-0.779-0.342-1.043
		c-0.229-0.265-0.57-0.396-1.025-0.396c-0.353,0-0.672,0.107-0.96,0.324c-0.288,0.215-0.5,0.492-0.636,0.828V90.3H134.456z"/>
</g>
<g>
	
		<line fill="#FFFFFF" stroke="#231F20" stroke-width="0.75" stroke-miterlimit="10" x1="393.998" y1="24.5" x2="357.998" y2="78.5"/>
	<line fill="none" stroke="#AAAAAA" stroke-width="0.75" stroke-miterlimit="10" x1="393.998" y1="24.5" x2="429.998" y2="78.5"/>
	<line fill="none" stroke="#AAAAAA" stroke-width="0.75" stroke-miterlimit="10" x1="429.998" y1="96.5" x2="411.998" y2="132.5"/>
	<line fill="none" stroke="#AAAAAA" stroke-width="0.75" stroke-miterlimit="10" x1="429.998" y1="96.5" x2="447.998" y2="132.5"/>
	<line fill="none" stroke="#AAAAAA" stroke-width="0.75" stroke-miterlimit="10" x1="357.998" y1="96.5" x2="339.998" y2="132.5"/>
	<line fill="none" stroke="#AAAAAA" stroke-width="0.75" stroke-miterlimit="10" x1="357.998" y1="96.5" x2="375.998" y2="132.5"/>
</g>
<g>
	<rect x="413.498" y="11" fill="none" width="69.5" height="24"/>
	<path fill="#231F20" d="M417.973,14.384c0.16-0.288,0.389-0.53,0.685-0.726c0.296-0.196,0.62-0.294,0.972-0.294
		c0.52,0,0.92,0.168,1.2,0.504s0.42,0.78,0.42,1.332v3.6h-0.588v-3.516c0-0.424-0.097-0.758-0.288-1.002
		c-0.191-0.244-0.477-0.366-0.852-0.366c-0.32,0-0.608,0.104-0.864,0.312c-0.257,0.208-0.44,0.476-0.552,0.804V18.8h-0.601v-3.516
		c0-0.424-0.096-0.758-0.288-1.002c-0.191-0.244-0.476-0.366-0.852-0.366c-0.32,0-0.608,0.104-0.864,0.312s-0.44,0.476-0.552,0.804
		V18.8h-0.6v-5.328h0.6v0.816c0.145-0.271,0.35-0.494,0.617-0.666c0.269-0.172,0.574-0.258,0.918-0.258
		C417.229,13.364,417.725,13.704,417.973,14.384z"/>
	<path fill="#231F20" d="M426.529,18.8h-0.576v-0.504c-0.128,0.152-0.328,0.288-0.6,0.408c-0.272,0.12-0.564,0.18-0.877,0.18
		c-0.56,0-1.027-0.15-1.403-0.45c-0.376-0.3-0.563-0.698-0.563-1.194c0-0.48,0.191-0.872,0.576-1.176
		c0.383-0.304,0.855-0.456,1.416-0.456c0.287,0,0.567,0.058,0.84,0.174c0.271,0.116,0.475,0.246,0.611,0.39v-0.948
		c0-0.4-0.118-0.722-0.354-0.966c-0.236-0.244-0.562-0.366-0.979-0.366c-0.664,0-1.096,0.304-1.296,0.912h-0.588
		c0.104-0.448,0.325-0.8,0.666-1.056c0.34-0.256,0.745-0.384,1.218-0.384c0.592,0,1.059,0.166,1.398,0.498s0.51,0.778,0.51,1.338
		V18.8z M425.953,17.588v-0.684c-0.088-0.232-0.266-0.422-0.533-0.57c-0.27-0.148-0.562-0.222-0.883-0.222
		c-0.408,0-0.754,0.098-1.038,0.294c-0.284,0.196-0.426,0.474-0.426,0.834s0.142,0.64,0.426,0.84c0.284,0.2,0.63,0.3,1.038,0.3
		c0.32,0,0.613-0.074,0.883-0.222C425.688,18.01,425.865,17.82,425.953,17.588z"/>
	<path fill="#231F20" d="M432.121,13.472l-1.884,2.592l1.968,2.736h-0.66l-1.644-2.28l-1.656,2.28h-0.636l1.968-2.712l-1.884-2.616
		h0.66l1.56,2.172l1.572-2.172H432.121z"/>
</g>
<g>
	<circle fill="none" stroke="#AAAAAA" stroke-width="0.75" stroke-miterlimit="10" cx="357.998" cy="87.5" r="9"/>
	<circle fill="none" stroke="#AAAAAA" stroke-width="0.75" stroke-miterlimit="10" cx="429.998" cy="87.5" r="9"/>
	<circle fill="#FFFFFF" stroke="#231F20" stroke-width="0.75" stroke-miterlimit="10" cx="393.998" cy="15.5" r="9"/>
	<circle fill="#FFFFFF" stroke="#AAAAAA" stroke-width="0.75" stroke-miterlimit="10" cx="411.998" cy="141.5" r="9"/>
	<circle fill="#FFFFFF" stroke="#AAAAAA" stroke-width="0.75" stroke-miterlimit="10" cx="447.998" cy="141.5" r="9"/>
	<circle fill="#FFFFFF" stroke="#AAAAAA" stroke-width="0.75" stroke-miterlimit="10" cx="339.998" cy="141.5" r="9"/>
	<circle fill="#FFFFFF" stroke="#AAAAAA" stroke-width="0.75" stroke-miterlimit="10" cx="375.998" cy="141.5" r="9"/>
</g>
<g>
	<rect x="330.996" y="137.5" fill="none" width="18.002" height="20.5"/>
	<path fill="#AAAAAA" d="M341.348,139.912c0-0.376-0.12-0.679-0.36-0.906c-0.239-0.229-0.563-0.342-0.972-0.342
		c-0.432,0-0.771,0.134-1.014,0.401c-0.244,0.269-0.387,0.626-0.427,1.074h-0.972c0.072-0.696,0.324-1.256,0.756-1.68
		s0.984-0.636,1.656-0.636c0.695,0,1.244,0.188,1.644,0.563s0.601,0.88,0.601,1.512c0,0.112-0.015,0.229-0.043,0.349
		c-0.027,0.12-0.056,0.224-0.084,0.312c-0.027,0.088-0.08,0.198-0.155,0.33c-0.076,0.132-0.134,0.23-0.175,0.294
		c-0.039,0.064-0.119,0.168-0.239,0.312c-0.12,0.144-0.2,0.239-0.24,0.288c-0.04,0.048-0.134,0.153-0.282,0.317
		s-0.238,0.267-0.27,0.307l-1.872,2.052h3.517v0.84h-4.812v-0.624l2.376-2.616c0.36-0.399,0.604-0.672,0.731-0.815
		c0.129-0.145,0.266-0.349,0.414-0.612S341.348,140.128,341.348,139.912z"/>
</g>
<g>
	<rect x="365.248" y="137.5" fill="none" width="21.5" height="20.5"/>
	<path fill="#AAAAAA" d="M378.337,138.664l-2.628,6.636h-0.948l2.604-6.528h-3.793v-0.84h4.765V138.664z"/>
</g>
<g>
	<rect x="401.248" y="137.5" fill="none" width="21.5" height="20.5"/>
	<path fill="#AAAAAA" d="M413.07,137.92v7.38h-0.924v-6.24l-1.824,0.937v-0.96l2.185-1.116H413.07z"/>
</g>
<g>
	<rect x="447.998" y="82.5" fill="none" width="69.5" height="24"/>
	<path fill="#231F20" d="M452.473,85.884c0.16-0.288,0.389-0.53,0.685-0.726c0.296-0.196,0.62-0.295,0.972-0.295
		c0.52,0,0.92,0.168,1.2,0.504s0.42,0.781,0.42,1.332V90.3h-0.588v-3.517c0-0.424-0.097-0.758-0.288-1.002
		c-0.191-0.243-0.477-0.365-0.852-0.365c-0.32,0-0.608,0.104-0.864,0.312c-0.257,0.207-0.44,0.476-0.552,0.803V90.3h-0.601v-3.517
		c0-0.424-0.096-0.758-0.288-1.002c-0.191-0.243-0.476-0.365-0.852-0.365c-0.32,0-0.608,0.104-0.864,0.312
		c-0.256,0.207-0.44,0.476-0.552,0.803V90.3h-0.6v-5.328h0.6v0.815c0.145-0.271,0.35-0.493,0.617-0.666
		c0.269-0.172,0.574-0.258,0.918-0.258C451.729,84.863,452.225,85.204,452.473,85.884z"/>
	<path fill="#231F20" d="M457.993,83.064c0.08,0.08,0.12,0.176,0.12,0.287c0,0.112-0.04,0.209-0.12,0.288
		c-0.08,0.08-0.176,0.12-0.288,0.12c-0.111,0-0.208-0.04-0.288-0.12c-0.079-0.079-0.12-0.176-0.12-0.288
		c0-0.111,0.041-0.207,0.12-0.287c0.08-0.08,0.177-0.121,0.288-0.121C457.817,82.943,457.913,82.984,457.993,83.064z
		 M458.006,84.972V90.3h-0.601v-5.328H458.006z"/>
	<path fill="#231F20" d="M459.709,90.3v-5.328h0.6v0.853c0.176-0.272,0.414-0.5,0.715-0.685c0.299-0.184,0.63-0.276,0.989-0.276
		c0.592,0,1.049,0.174,1.369,0.522c0.318,0.349,0.479,0.81,0.479,1.386V90.3h-0.588v-3.444c0-0.432-0.113-0.779-0.342-1.043
		c-0.229-0.265-0.57-0.396-1.025-0.396c-0.353,0-0.673,0.107-0.96,0.324c-0.289,0.215-0.5,0.492-0.637,0.828V90.3H459.709z"/>
</g>
<g>
	<rect x="347.248" y="83.5" fill="none" width="21.5" height="20.5"/>
	<path fill="#AAAAAA" d="M359.348,85.912c0-0.376-0.12-0.679-0.36-0.906c-0.239-0.229-0.563-0.342-0.972-0.342
		c-0.432,0-0.771,0.134-1.014,0.401c-0.244,0.269-0.387,0.626-0.427,1.074h-0.972c0.072-0.696,0.324-1.256,0.756-1.68
		s0.984-0.636,1.656-0.636c0.695,0,1.244,0.188,1.644,0.563s0.601,0.88,0.601,1.512c0,0.112-0.015,0.229-0.043,0.349
		c-0.027,0.12-0.056,0.224-0.084,0.312c-0.027,0.088-0.08,0.198-0.155,0.33c-0.076,0.132-0.134,0.23-0.175,0.294
		c-0.039,0.064-0.119,0.168-0.239,0.312c-0.12,0.144-0.2,0.239-0.24,0.288c-0.04,0.048-0.134,0.153-0.282,0.317
		s-0.238,0.267-0.27,0.307l-1.872,2.052h3.517v0.84h-4.812v-0.624l2.376-2.616c0.36-0.399,0.604-0.672,0.731-0.815
		c0.129-0.145,0.266-0.349,0.414-0.612S359.348,86.128,359.348,85.912z"/>
</g>
<g>
	<rect x="383.248" y="11.5" fill="none" width="21.5" height="20.5"/>
	<path d="M395.348,13.912c0-0.376-0.119-0.679-0.359-0.906c-0.24-0.229-0.564-0.342-0.973-0.342c-0.432,0-0.77,0.134-1.014,0.401
		c-0.244,0.269-0.387,0.626-0.426,1.074h-0.973c0.072-0.696,0.324-1.256,0.756-1.68c0.433-0.424,0.984-0.636,1.656-0.636
		c0.696,0,1.244,0.188,1.645,0.563c0.399,0.376,0.6,0.88,0.6,1.512c0,0.112-0.014,0.229-0.042,0.349s-0.056,0.224-0.084,0.312
		s-0.08,0.198-0.155,0.33c-0.076,0.132-0.135,0.23-0.175,0.294c-0.04,0.064-0.12,0.168-0.239,0.312
		c-0.121,0.144-0.201,0.239-0.24,0.288c-0.041,0.048-0.135,0.153-0.282,0.317c-0.148,0.164-0.238,0.267-0.271,0.307L392.9,18.46
		h3.516v0.84h-4.812v-0.624l2.377-2.616c0.359-0.399,0.604-0.672,0.731-0.815c0.128-0.145,0.266-0.349,0.414-0.612
		C395.273,14.368,395.348,14.128,395.348,13.912z"/>
</g>
<g>
	<line fill="none" stroke="#386DF9" stroke-miterlimit="10" x1="142.25" y1="60.5" x2="172.076" y2="60.5"/>
	<g>
		<polygon fill="#386DF9" points="168.763,64.59 168.081,63.857 171.692,60.501 168.081,57.144 168.763,56.411 173.161,60.501 		"/>
	</g>
</g>
<g>
	<line fill="none" stroke="#386DF9" stroke-miterlimit="10" x1="300.086" y1="60.5" x2="329.912" y2="60.5"/>
	<g>
		<polygon fill="#386DF9" points="326.599,64.59 325.916,63.857 329.528,60.501 325.916,57.144 326.599,56.411 330.996,60.501 		"/>
	</g>
</g>
<g>
	<rect x="258.661" y="83.5" fill="none" width="21.5" height="20.5"/>
	<path d="M265.631,87.604v-0.888l3.563-1.452v0.816l-2.76,1.08l2.76,1.092v0.804L265.631,87.604z M265.631,90.208v-0.744h3.563
		v0.744H265.631z"/>
	<path d="M273.047,83.92v7.38h-0.924v-6.24l-1.824,0.937v-0.96l2.184-1.116H273.047z"/>
</g>
<g>
	<rect x="222.661" y="11.5" fill="none" width="21.5" height="20.5"/>
	<path d="M232.475,14.716v0.888l-3.564,1.452v-0.804l2.748-1.092l-2.748-1.08v-0.816L232.475,14.716z M232.475,17.464v0.744h-3.564
		v-0.744H232.475z"/>
	<path d="M237.323,13.912c0-0.376-0.12-0.679-0.36-0.906c-0.24-0.229-0.564-0.342-0.972-0.342c-0.432,0-0.77,0.134-1.014,0.401
		c-0.244,0.269-0.386,0.626-0.426,1.074h-0.972c0.072-0.696,0.324-1.256,0.756-1.68s0.984-0.636,1.656-0.636
		c0.696,0,1.244,0.188,1.644,0.563s0.6,0.88,0.6,1.512c0,0.112-0.014,0.229-0.042,0.349s-0.056,0.224-0.084,0.312
		s-0.08,0.198-0.156,0.33c-0.076,0.132-0.134,0.23-0.174,0.294c-0.04,0.064-0.12,0.168-0.24,0.312c-0.12,0.144-0.2,0.239-0.24,0.288
		c-0.04,0.048-0.134,0.153-0.282,0.317c-0.148,0.164-0.238,0.267-0.27,0.307l-1.872,2.052h3.516v0.84h-4.812v-0.624l2.376-2.616
		c0.36-0.399,0.604-0.672,0.732-0.815c0.128-0.145,0.266-0.349,0.414-0.612C237.249,14.368,237.323,14.128,237.323,13.912z"/>
</g>
<g>
	<rect x="419.248" y="83.5" fill="none" width="21.5" height="20.5"/>
	<path fill="#AAAAAA" d="M426.217,87.604v-0.888l3.564-1.452v0.816l-2.76,1.08l2.76,1.092v0.804L426.217,87.604z M426.217,90.208
		v-0.744h3.564v0.744H426.217z"/>
	<path fill="#AAAAAA" d="M433.633,83.92v7.38h-0.924v-6.24l-1.824,0.937v-0.96l2.185-1.116H433.633z"/>
</g>
<g>
	<g>
		<rect x="6.161" y="137.5" fill="none" width="17.167" height="20.5"/>
		<path d="M16.095,139.912c0-0.376-0.12-0.679-0.36-0.906c-0.24-0.229-0.564-0.342-0.972-0.342c-0.432,0-0.77,0.134-1.014,0.401
			c-0.244,0.269-0.386,0.626-0.426,1.074h-0.972c0.072-0.696,0.324-1.256,0.756-1.68s0.984-0.636,1.656-0.636
			c0.696,0,1.244,0.188,1.644,0.563s0.6,0.88,0.6,1.512c0,0.112-0.014,0.229-0.042,0.349s-0.056,0.224-0.084,0.312
			s-0.08,0.198-0.156,0.33c-0.076,0.132-0.134,0.23-0.174,0.294c-0.04,0.064-0.12,0.168-0.24,0.312
			c-0.12,0.144-0.2,0.239-0.24,0.288c-0.04,0.048-0.134,0.153-0.282,0.317c-0.148,0.164-0.238,0.267-0.27,0.307l-1.872,2.052h3.516
			v0.84h-4.812v-0.624l2.376-2.616c0.36-0.399,0.604-0.672,0.732-0.815c0.128-0.145,0.266-0.349,0.414-0.612
			C16.021,140.368,16.095,140.128,16.095,139.912z"/>
	</g>
	<g>
		<rect x="39.994" y="137.5" fill="none" width="21.5" height="20.5"/>
		<path d="M53.083,138.664l-2.628,6.636h-0.948l2.604-6.528h-3.792v-0.84h4.764V138.664z"/>
	</g>
	<g>
		<rect x="75.994" y="137.5" fill="none" width="21.5" height="20.5"/>
		<path d="M87.817,137.92v7.38h-0.924v-6.24l-1.824,0.937v-0.96l2.184-1.116H87.817z"/>
	</g>
	<g>
		<rect x="21.994" y="83.5" fill="none" width="21.5" height="20.5"/>
		<path d="M28.196,87.604v-0.888l3.564-1.452v0.816L29,87.16l2.76,1.092v0.804L28.196,87.604z M28.196,90.208v-0.744h3.564v0.744
			H28.196z"/>
		<path d="M36.656,85.912c0-0.376-0.12-0.679-0.36-0.906c-0.24-0.229-0.564-0.342-0.972-0.342c-0.432,0-0.77,0.134-1.014,0.401
			c-0.244,0.269-0.386,0.626-0.426,1.074h-0.972c0.072-0.696,0.324-1.256,0.756-1.68s0.984-0.636,1.656-0.636
			c0.696,0,1.244,0.188,1.644,0.563s0.6,0.88,0.6,1.512c0,0.112-0.014,0.229-0.042,0.349s-0.056,0.224-0.084,0.312
			s-0.08,0.198-0.156,0.33c-0.076,0.132-0.134,0.23-0.174,0.294c-0.04,0.064-0.12,0.168-0.24,0.312
			c-0.12,0.144-0.2,0.239-0.24,0.288c-0.04,0.048-0.134,0.153-0.282,0.317c-0.148,0.164-0.238,0.267-0.27,0.307l-1.872,2.052h3.516
			v0.84h-4.812v-0.624l2.376-2.616c0.36-0.399,0.604-0.672,0.732-0.815c0.128-0.145,0.266-0.349,0.414-0.612
			C36.582,86.368,36.656,86.128,36.656,85.912z"/>
	</g>
</g>
<g>
</g>
<g>
</g>
<g>
</g>
<g>
</g>
<g>
</g>
<g>
</g>
<g>
</g>
</svg>
