<?xml version="1.0" encoding="utf-8"?>
<!-- Generator: Adobe Illustrator 16.0.0, SVG Export Plug-In . SVG Version: 6.00 Build 0)  -->
<!DOCTYPE svg PUBLIC "-//W3C//DTD SVG 1.1 Tiny//EN" "http://www.w3.org/Graphics/SVG/1.1/DTD/svg11-tiny.dtd">
<svg version="1.1" baseProfile="tiny" id="Layer_1" xmlns="http://www.w3.org/2000/svg" xmlns:xlink="http://www.w3.org/1999/xlink"
	 x="0px" y="0px" width="468px" height="157.75px" viewBox="0 0 468 157.75" xml:space="preserve">
<g>
	<line fill="none" stroke="#AAAAAA" stroke-width="0.75" stroke-miterlimit="10" x1="232.411" y1="24.25" x2="196.411" y2="78.25"/>
	<line fill="none" stroke="#AAAAAA" stroke-width="0.75" stroke-miterlimit="10" x1="232.411" y1="24.25" x2="268.41" y2="78.25"/>
	
		<line fill="#FFFFFF" stroke="#231F20" stroke-width="0.75" stroke-miterlimit="10" x1="268.41" y1="96.25" x2="250.411" y2="132.25"/>
	<line fill="none" stroke="#AAAAAA" stroke-width="0.75" stroke-miterlimit="10" x1="268.41" y1="96.25" x2="286.41" y2="132.25"/>
	
		<line fill="#FFFFFF" stroke="#231F20" stroke-width="0.75" stroke-miterlimit="10" x1="196.411" y1="96.25" x2="178.411" y2="132.25"/>
	
		<line fill="none" stroke="#AAAAAA" stroke-width="0.75" stroke-miterlimit="10" x1="196.411" y1="96.25" x2="214.411" y2="132.25"/>
</g>
<g>
	<rect x="87.244" y="10.75" fill="none" width="69.5" height="24"/>
	<path fill="#231F20" d="M91.72,14.134c0.16-0.288,0.388-0.53,0.684-0.726c0.296-0.196,0.62-0.294,0.972-0.294
		c0.52,0,0.92,0.168,1.2,0.504c0.28,0.336,0.42,0.78,0.42,1.332v3.6h-0.588v-3.516c0-0.424-0.096-0.758-0.288-1.002
		c-0.192-0.244-0.476-0.366-0.852-0.366c-0.32,0-0.608,0.104-0.864,0.312c-0.256,0.208-0.44,0.476-0.552,0.804v3.768h-0.6v-3.516
		c0-0.424-0.096-0.758-0.288-1.002c-0.192-0.244-0.476-0.366-0.852-0.366c-0.32,0-0.608,0.104-0.864,0.312s-0.44,0.476-0.552,0.804
		v3.768h-0.6v-5.328h0.6v0.816c0.144-0.271,0.35-0.494,0.618-0.666c0.268-0.172,0.574-0.258,0.918-0.258
		C90.976,13.114,91.472,13.454,91.72,14.134z"/>
	<path fill="#231F20" d="M100.276,18.55H99.7v-0.504c-0.128,0.152-0.328,0.288-0.6,0.408c-0.272,0.12-0.564,0.18-0.876,0.18
		c-0.56,0-1.028-0.15-1.404-0.45c-0.376-0.3-0.564-0.698-0.564-1.194c0-0.48,0.192-0.872,0.576-1.176
		c0.384-0.304,0.855-0.456,1.416-0.456c0.288,0,0.568,0.058,0.84,0.174c0.272,0.116,0.476,0.246,0.612,0.39v-0.948
		c0-0.4-0.118-0.722-0.354-0.966s-0.562-0.366-0.978-0.366c-0.664,0-1.096,0.304-1.296,0.912h-0.588
		c0.104-0.448,0.326-0.8,0.666-1.056c0.34-0.256,0.746-0.384,1.218-0.384c0.592,0,1.058,0.166,1.398,0.498
		c0.34,0.332,0.51,0.778,0.51,1.338V18.55z M99.7,17.338v-0.684c-0.088-0.232-0.266-0.422-0.534-0.57
		c-0.269-0.148-0.562-0.222-0.882-0.222c-0.408,0-0.754,0.098-1.038,0.294c-0.284,0.196-0.426,0.474-0.426,0.834
		s0.142,0.64,0.426,0.84c0.284,0.2,0.63,0.3,1.038,0.3c0.32,0,0.614-0.074,0.882-0.222C99.434,17.76,99.612,17.57,99.7,17.338z"/>
	<path fill="#231F20" d="M105.868,13.222l-1.884,2.592l1.968,2.736h-0.66l-1.644-2.28l-1.656,2.28h-0.636l1.968-2.712l-1.884-2.616
		h0.66l1.56,2.172l1.572-2.172H105.868z"/>
</g>
<g>
	<line fill="none" stroke="#AAAAAA" stroke-width="0.75" stroke-miterlimit="10" x1="67.744" y1="24.25" x2="31.744" y2="78.25"/>
	<line fill="none" stroke="#AAAAAA" stroke-width="0.75" stroke-miterlimit="10" x1="67.744" y1="24.25" x2="103.744" y2="78.25"/>
	<line fill="none" stroke="#AAAAAA" stroke-width="0.75" stroke-miterlimit="10" x1="103.744" y1="96.25" x2="85.744" y2="132.25"/>
	
		<line fill="none" stroke="#AAAAAA" stroke-width="0.75" stroke-miterlimit="10" x1="103.744" y1="96.25" x2="121.744" y2="132.25"/>
	<line fill="none" stroke="#AAAAAA" stroke-width="0.75" stroke-miterlimit="10" x1="31.744" y1="96.25" x2="13.744" y2="132.25"/>
	<line fill="none" stroke="#AAAAAA" stroke-width="0.75" stroke-miterlimit="10" x1="31.744" y1="96.25" x2="49.744" y2="132.25"/>
</g>
<g>
	<rect x="251.911" y="10.75" fill="none" width="69.5" height="24"/>
	<path fill="#231F20" d="M256.387,14.134c0.16-0.288,0.388-0.53,0.684-0.726c0.296-0.196,0.62-0.294,0.972-0.294
		c0.52,0,0.92,0.168,1.2,0.504c0.28,0.336,0.42,0.78,0.42,1.332v3.6h-0.588v-3.516c0-0.424-0.096-0.758-0.288-1.002
		c-0.192-0.244-0.476-0.366-0.852-0.366c-0.32,0-0.608,0.104-0.864,0.312c-0.256,0.208-0.44,0.476-0.552,0.804v3.768h-0.6v-3.516
		c0-0.424-0.096-0.758-0.288-1.002c-0.192-0.244-0.476-0.366-0.852-0.366c-0.32,0-0.608,0.104-0.864,0.312s-0.44,0.476-0.552,0.804
		v3.768h-0.6v-5.328h0.6v0.816c0.144-0.271,0.35-0.494,0.618-0.666c0.268-0.172,0.574-0.258,0.918-0.258
		C255.643,13.114,256.139,13.454,256.387,14.134z"/>
	<path fill="#231F20" d="M264.943,18.55h-0.576v-0.504c-0.129,0.152-0.328,0.288-0.601,0.408c-0.272,0.12-0.563,0.18-0.876,0.18
		c-0.561,0-1.027-0.15-1.404-0.45c-0.375-0.3-0.563-0.698-0.563-1.194c0-0.48,0.192-0.872,0.576-1.176s0.855-0.456,1.416-0.456
		c0.288,0,0.567,0.058,0.84,0.174c0.272,0.116,0.476,0.246,0.612,0.39v-0.948c0-0.4-0.119-0.722-0.354-0.966
		s-0.562-0.366-0.978-0.366c-0.664,0-1.097,0.304-1.297,0.912h-0.588c0.104-0.448,0.326-0.8,0.666-1.056
		c0.34-0.256,0.746-0.384,1.219-0.384c0.592,0,1.058,0.166,1.397,0.498c0.341,0.332,0.511,0.778,0.511,1.338V18.55z M264.367,17.338
		v-0.684c-0.088-0.232-0.267-0.422-0.534-0.57c-0.269-0.148-0.562-0.222-0.882-0.222c-0.408,0-0.754,0.098-1.039,0.294
		c-0.283,0.196-0.426,0.474-0.426,0.834s0.143,0.64,0.426,0.84c0.285,0.2,0.631,0.3,1.039,0.3c0.319,0,0.613-0.074,0.882-0.222
		C264.101,17.76,264.279,17.57,264.367,17.338z"/>
	<path fill="#231F20" d="M270.535,13.222l-1.885,2.592l1.969,2.736h-0.66l-1.645-2.28l-1.656,2.28h-0.635l1.967-2.712l-1.883-2.616
		h0.66l1.559,2.172l1.572-2.172H270.535z"/>
</g>
<g>
	<circle fill="#FFFFFF" stroke="#AAAAAA" stroke-width="0.75" stroke-miterlimit="10" cx="67.744" cy="15.25" r="9"/>
	<circle fill="#FFFFFF" stroke="#AAAAAA" stroke-width="0.75" stroke-miterlimit="10" cx="31.744" cy="87.25" r="9"/>
	<circle fill="#FFFFFF" stroke="#AAAAAA" stroke-width="0.75" stroke-miterlimit="10" cx="103.744" cy="87.25" r="9"/>
	<circle fill="#FFFFFF" stroke="#231F20" stroke-width="0.75" stroke-miterlimit="10" cx="85.744" cy="141.25" r="9"/>
	<circle fill="#FFFFFF" stroke="#231F20" stroke-width="0.75" stroke-miterlimit="10" cx="121.744" cy="141.25" r="9"/>
	<circle fill="#FFFFFF" stroke="#231F20" stroke-width="0.75" stroke-miterlimit="10" cx="13.744" cy="141.25" r="9"/>
	<circle fill="#FFFFFF" stroke="#231F20" stroke-width="0.75" stroke-miterlimit="10" cx="49.744" cy="141.25" r="9"/>
</g>
<g>
	<g>
		<rect x="4.332" y="137.25" fill="none" width="18.917" height="20.5"/>
		<path d="M15.141,139.662c0-0.376-0.12-0.679-0.36-0.906c-0.24-0.229-0.564-0.342-0.972-0.342c-0.432,0-0.77,0.134-1.014,0.401
			c-0.244,0.269-0.386,0.626-0.426,1.074h-0.972c0.072-0.696,0.324-1.256,0.756-1.68s0.984-0.636,1.656-0.636
			c0.696,0,1.244,0.188,1.644,0.563s0.6,0.88,0.6,1.512c0,0.112-0.014,0.229-0.042,0.349s-0.056,0.224-0.084,0.312
			s-0.08,0.198-0.156,0.33c-0.076,0.132-0.134,0.23-0.174,0.294c-0.04,0.064-0.12,0.168-0.24,0.312
			c-0.12,0.144-0.2,0.239-0.24,0.288c-0.04,0.048-0.134,0.153-0.282,0.317c-0.148,0.164-0.238,0.267-0.27,0.307l-1.872,2.052h3.516
			v0.84h-4.812v-0.624l2.376-2.616c0.36-0.399,0.604-0.672,0.732-0.815c0.128-0.145,0.266-0.349,0.414-0.612
			C15.067,140.118,15.141,139.878,15.141,139.662z"/>
	</g>
	<g>
		<rect x="38.994" y="137.25" fill="none" width="21.5" height="20.5"/>
		<path d="M52.083,138.414l-2.628,6.636h-0.948l2.604-6.528h-3.792v-0.84h4.764V138.414z"/>
	</g>
	<g>
		<rect x="74.994" y="137.25" fill="none" width="21.5" height="20.5"/>
		<path d="M86.817,137.67v7.38h-0.924v-6.24l-1.824,0.937v-0.96l2.184-1.116H86.817z"/>
	</g>
	<g>
		<rect x="110.994" y="137.25" fill="none" width="21.5" height="20.5"/>
		<path d="M121.738,145.158c-0.72,0-1.318-0.196-1.794-0.589c-0.476-0.392-0.714-0.899-0.714-1.523c0-0.464,0.134-0.864,0.402-1.2
			s0.614-0.56,1.038-0.672c-0.352-0.12-0.636-0.328-0.852-0.624c-0.216-0.296-0.324-0.64-0.324-1.032
			c0-0.584,0.214-1.054,0.642-1.41c0.428-0.355,0.962-0.533,1.602-0.533c0.648,0,1.186,0.178,1.614,0.533
			c0.428,0.356,0.642,0.826,0.642,1.41c0,0.393-0.11,0.734-0.33,1.026c-0.22,0.292-0.502,0.502-0.846,0.63
			c0.416,0.112,0.76,0.336,1.032,0.672s0.408,0.736,0.408,1.2c0,0.624-0.238,1.132-0.714,1.523
			C123.068,144.962,122.466,145.158,121.738,145.158z M121.738,144.39c0.472,0,0.858-0.132,1.158-0.396
			c0.3-0.265,0.45-0.604,0.45-1.021s-0.15-0.754-0.45-1.014c-0.3-0.26-0.687-0.391-1.158-0.391c-0.464,0-0.846,0.131-1.146,0.391
			s-0.45,0.598-0.45,1.014s0.15,0.756,0.45,1.021C120.892,144.258,121.274,144.39,121.738,144.39z M121.738,140.777
			c0.392,0,0.716-0.111,0.972-0.336c0.256-0.224,0.384-0.516,0.384-0.876c0-0.359-0.128-0.653-0.384-0.882
			c-0.256-0.228-0.58-0.342-0.972-0.342c-0.384,0-0.704,0.114-0.96,0.342c-0.256,0.229-0.384,0.522-0.384,0.882
			c0,0.353,0.128,0.643,0.384,0.87C121.034,140.664,121.354,140.777,121.738,140.777z"/>
	</g>
</g>
<g>
	<circle fill="#FFFFFF" stroke="#AAAAAA" stroke-width="0.75" stroke-miterlimit="10" cx="232.411" cy="15.25" r="9"/>
	<circle fill="#FFFFFF" stroke="#231F20" stroke-width="0.75" stroke-miterlimit="10" cx="196.411" cy="87.25" r="9"/>
	<circle fill="#FFFFFF" stroke="#231F20" stroke-width="0.75" stroke-miterlimit="10" cx="268.41" cy="87.25" r="9"/>
	<circle fill="#FFFFFF" stroke="#AAAAAA" stroke-width="0.75" stroke-miterlimit="10" cx="250.411" cy="141.25" r="9"/>
	<circle fill="#FFFFFF" stroke="#AAAAAA" stroke-width="0.75" stroke-miterlimit="10" cx="286.41" cy="141.25" r="9"/>
	<circle fill="#FFFFFF" stroke="#AAAAAA" stroke-width="0.75" stroke-miterlimit="10" cx="178.411" cy="141.25" r="9"/>
	<circle fill="#FFFFFF" stroke="#AAAAAA" stroke-width="0.75" stroke-miterlimit="10" cx="214.411" cy="141.25" r="9"/>
</g>
<g>
	<rect x="286.41" y="82.25" fill="none" width="69.5" height="24"/>
	<path fill="#231F20" d="M290.887,85.634c0.16-0.288,0.388-0.53,0.684-0.726c0.297-0.196,0.62-0.295,0.973-0.295
		c0.52,0,0.92,0.168,1.199,0.504c0.28,0.336,0.42,0.781,0.42,1.332v3.601h-0.588v-3.517c0-0.424-0.096-0.758-0.287-1.002
		c-0.192-0.243-0.477-0.365-0.853-0.365c-0.319,0-0.608,0.104-0.864,0.312c-0.256,0.207-0.439,0.476-0.552,0.803v3.769h-0.601
		v-3.517c0-0.424-0.096-0.758-0.287-1.002c-0.192-0.243-0.477-0.365-0.852-0.365c-0.32,0-0.609,0.104-0.865,0.312
		c-0.256,0.207-0.439,0.476-0.551,0.803v3.769h-0.601v-5.328h0.601v0.815c0.144-0.271,0.35-0.493,0.617-0.666
		c0.268-0.172,0.574-0.258,0.918-0.258C290.143,84.613,290.639,84.954,290.887,85.634z"/>
	<path fill="#231F20" d="M296.406,82.814c0.08,0.08,0.121,0.176,0.121,0.287c0,0.112-0.041,0.209-0.121,0.288
		c-0.08,0.08-0.176,0.12-0.287,0.12c-0.112,0-0.209-0.04-0.289-0.12c-0.079-0.079-0.119-0.176-0.119-0.288
		c0-0.111,0.04-0.207,0.119-0.287c0.08-0.08,0.177-0.121,0.289-0.121C296.23,82.693,296.326,82.734,296.406,82.814z M296.419,84.722
		v5.328h-0.601v-5.328H296.419z"/>
	<path fill="#231F20" d="M298.123,90.05v-5.328h0.6v0.853c0.176-0.272,0.414-0.5,0.714-0.685c0.3-0.184,0.63-0.276,0.989-0.276
		c0.592,0,1.049,0.174,1.369,0.522c0.318,0.349,0.479,0.81,0.479,1.386v3.528h-0.588v-3.444c0-0.432-0.113-0.779-0.342-1.043
		c-0.229-0.265-0.57-0.396-1.025-0.396c-0.352,0-0.672,0.107-0.96,0.324c-0.288,0.215-0.5,0.492-0.636,0.828v3.731H298.123z"/>
</g>
<g>
	<g>
		<rect x="168.417" y="137.25" fill="none" width="18.994" height="20.5"/>
		<path fill="#AAAAAA" d="M179.264,139.662c0-0.376-0.12-0.679-0.36-0.906c-0.24-0.229-0.564-0.342-0.972-0.342
			c-0.432,0-0.77,0.134-1.014,0.401c-0.244,0.269-0.386,0.626-0.426,1.074h-0.972c0.072-0.696,0.324-1.256,0.756-1.68
			s0.984-0.636,1.656-0.636c0.696,0,1.244,0.188,1.644,0.563s0.6,0.88,0.6,1.512c0,0.112-0.014,0.229-0.042,0.349
			s-0.056,0.224-0.084,0.312s-0.08,0.198-0.156,0.33c-0.076,0.132-0.134,0.23-0.174,0.294c-0.04,0.064-0.12,0.168-0.24,0.312
			c-0.12,0.144-0.2,0.239-0.24,0.288c-0.04,0.048-0.134,0.153-0.282,0.317c-0.148,0.164-0.238,0.267-0.27,0.307l-1.872,2.052h3.516
			v0.84h-4.812v-0.624l2.376-2.616c0.36-0.399,0.604-0.672,0.732-0.815c0.128-0.145,0.266-0.349,0.414-0.612
			C179.19,140.118,179.264,139.878,179.264,139.662z"/>
	</g>
	<g>
		<rect x="203.661" y="137.25" fill="none" width="21.5" height="20.5"/>
		<path fill="#AAAAAA" d="M216.75,138.414l-2.628,6.636h-0.948l2.604-6.528h-3.792v-0.84h4.764V138.414z"/>
	</g>
	<g>
		<rect x="239.661" y="137.25" fill="none" width="21.5" height="20.5"/>
		<path fill="#AAAAAA" d="M251.484,137.67v7.38h-0.924v-6.24l-1.824,0.937v-0.96l2.184-1.116H251.484z"/>
	</g>
	<g>
		<rect x="275.66" y="137.25" fill="none" width="21.5" height="20.5"/>
		<path fill="#AAAAAA" d="M286.404,145.158c-0.72,0-1.318-0.196-1.793-0.589c-0.477-0.392-0.715-0.899-0.715-1.523
			c0-0.464,0.135-0.864,0.402-1.2s0.613-0.56,1.038-0.672c-0.353-0.12-0.636-0.328-0.853-0.624c-0.216-0.296-0.324-0.64-0.324-1.032
			c0-0.584,0.215-1.054,0.643-1.41c0.428-0.355,0.962-0.533,1.602-0.533c0.648,0,1.187,0.178,1.614,0.533
			c0.429,0.356,0.642,0.826,0.642,1.41c0,0.393-0.109,0.734-0.33,1.026c-0.219,0.292-0.502,0.502-0.846,0.63
			c0.416,0.112,0.76,0.336,1.032,0.672s0.408,0.736,0.408,1.2c0,0.624-0.238,1.132-0.714,1.523
			C287.734,144.962,287.133,145.158,286.404,145.158z M286.404,144.39c0.473,0,0.858-0.132,1.158-0.396
			c0.301-0.265,0.45-0.604,0.45-1.021s-0.149-0.754-0.45-1.014c-0.3-0.26-0.686-0.391-1.158-0.391c-0.463,0-0.846,0.131-1.146,0.391
			s-0.45,0.598-0.45,1.014s0.15,0.756,0.45,1.021C285.559,144.258,285.941,144.39,286.404,144.39z M286.404,140.777
			c0.393,0,0.717-0.111,0.973-0.336c0.256-0.224,0.384-0.516,0.384-0.876c0-0.359-0.128-0.653-0.384-0.882
			c-0.256-0.228-0.58-0.342-0.973-0.342c-0.383,0-0.703,0.114-0.959,0.342c-0.257,0.229-0.385,0.522-0.385,0.882
			c0,0.353,0.128,0.643,0.385,0.87C285.701,140.664,286.021,140.777,286.404,140.777z"/>
	</g>
	<g>
		<rect x="185.661" y="83.25" fill="none" width="21.5" height="20.5"/>
		<path d="M197.761,85.662c0-0.376-0.12-0.679-0.36-0.906c-0.24-0.229-0.564-0.342-0.972-0.342c-0.432,0-0.77,0.134-1.014,0.401
			c-0.244,0.269-0.386,0.626-0.426,1.074h-0.972c0.072-0.696,0.324-1.256,0.756-1.68s0.984-0.636,1.656-0.636
			c0.696,0,1.244,0.188,1.644,0.563s0.6,0.88,0.6,1.512c0,0.112-0.014,0.229-0.042,0.349s-0.056,0.224-0.084,0.312
			s-0.08,0.198-0.156,0.33c-0.076,0.132-0.134,0.23-0.174,0.294c-0.04,0.064-0.12,0.168-0.24,0.312
			c-0.12,0.144-0.2,0.239-0.24,0.288c-0.04,0.048-0.134,0.153-0.282,0.317c-0.148,0.164-0.238,0.267-0.27,0.307l-1.872,2.052h3.516
			v0.84h-4.812v-0.624l2.376-2.616c0.36-0.399,0.604-0.672,0.732-0.815c0.128-0.145,0.266-0.349,0.414-0.612
			C197.687,86.118,197.761,85.878,197.761,85.662z"/>
	</g>
	<g>
		<rect x="257.661" y="83.25" fill="none" width="21.5" height="20.5"/>
		<path d="M269.484,83.67v7.38h-0.924v-6.24l-1.824,0.937v-0.96l2.184-1.116H269.484z"/>
	</g>
</g>
<g>
	<rect x="121.744" y="82.25" fill="none" width="69.5" height="24"/>
	<path fill="#231F20" d="M126.22,85.634c0.16-0.288,0.388-0.53,0.684-0.726c0.296-0.196,0.62-0.295,0.972-0.295
		c0.52,0,0.92,0.168,1.2,0.504c0.28,0.336,0.42,0.781,0.42,1.332v3.601h-0.588v-3.517c0-0.424-0.096-0.758-0.288-1.002
		c-0.192-0.243-0.476-0.365-0.852-0.365c-0.32,0-0.608,0.104-0.864,0.312c-0.256,0.207-0.44,0.476-0.552,0.803v3.769h-0.6v-3.517
		c0-0.424-0.096-0.758-0.288-1.002c-0.192-0.243-0.476-0.365-0.852-0.365c-0.32,0-0.608,0.104-0.864,0.312
		c-0.256,0.207-0.44,0.476-0.552,0.803v3.769h-0.6v-5.328h0.6v0.815c0.144-0.271,0.35-0.493,0.618-0.666
		c0.268-0.172,0.574-0.258,0.918-0.258C125.476,84.613,125.972,84.954,126.22,85.634z"/>
	<path fill="#231F20" d="M131.74,82.814c0.08,0.08,0.12,0.176,0.12,0.287c0,0.112-0.04,0.209-0.12,0.288
		c-0.08,0.08-0.176,0.12-0.288,0.12c-0.112,0-0.208-0.04-0.288-0.12c-0.08-0.079-0.12-0.176-0.12-0.288
		c0-0.111,0.04-0.207,0.12-0.287c0.08-0.08,0.176-0.121,0.288-0.121C131.564,82.693,131.66,82.734,131.74,82.814z M131.752,84.722
		v5.328h-0.6v-5.328H131.752z"/>
	<path fill="#231F20" d="M133.456,90.05v-5.328h0.6v0.853c0.176-0.272,0.414-0.5,0.714-0.685c0.3-0.184,0.63-0.276,0.99-0.276
		c0.592,0,1.049,0.174,1.369,0.522c0.318,0.349,0.479,0.81,0.479,1.386v3.528h-0.588v-3.444c0-0.432-0.113-0.779-0.342-1.043
		c-0.229-0.265-0.57-0.396-1.025-0.396c-0.353,0-0.672,0.107-0.96,0.324c-0.288,0.215-0.5,0.492-0.636,0.828v3.731H133.456z"/>
</g>
<g>
	
		<line fill="#FFFFFF" stroke="#231F20" stroke-width="0.75" stroke-miterlimit="10" x1="392.998" y1="24.25" x2="356.998" y2="78.25"/>
	<line fill="none" stroke="#AAAAAA" stroke-width="0.75" stroke-miterlimit="10" x1="392.998" y1="24.25" x2="428.998" y2="78.25"/>
	
		<line fill="none" stroke="#AAAAAA" stroke-width="0.75" stroke-miterlimit="10" x1="428.998" y1="96.25" x2="410.998" y2="132.25"/>
	
		<line fill="none" stroke="#AAAAAA" stroke-width="0.75" stroke-miterlimit="10" x1="428.998" y1="96.25" x2="446.998" y2="132.25"/>
	
		<line fill="none" stroke="#AAAAAA" stroke-width="0.75" stroke-miterlimit="10" x1="356.998" y1="96.25" x2="338.998" y2="132.25"/>
	
		<line fill="none" stroke="#AAAAAA" stroke-width="0.75" stroke-miterlimit="10" x1="356.998" y1="96.25" x2="374.998" y2="132.25"/>
</g>
<g>
	<rect x="412.498" y="10.75" fill="none" width="69.5" height="24"/>
	<path fill="#231F20" d="M416.973,14.134c0.16-0.288,0.389-0.53,0.685-0.726c0.296-0.196,0.62-0.294,0.972-0.294
		c0.52,0,0.92,0.168,1.2,0.504s0.42,0.78,0.42,1.332v3.6h-0.588v-3.516c0-0.424-0.097-0.758-0.288-1.002
		c-0.191-0.244-0.477-0.366-0.852-0.366c-0.32,0-0.608,0.104-0.864,0.312c-0.257,0.208-0.44,0.476-0.552,0.804v3.768h-0.601v-3.516
		c0-0.424-0.096-0.758-0.288-1.002c-0.191-0.244-0.476-0.366-0.852-0.366c-0.32,0-0.608,0.104-0.864,0.312s-0.44,0.476-0.552,0.804
		v3.768h-0.6v-5.328h0.6v0.816c0.145-0.271,0.35-0.494,0.617-0.666c0.269-0.172,0.574-0.258,0.918-0.258
		C416.229,13.114,416.725,13.454,416.973,14.134z"/>
	<path fill="#231F20" d="M425.529,18.55h-0.576v-0.504c-0.128,0.152-0.328,0.288-0.6,0.408c-0.272,0.12-0.564,0.18-0.877,0.18
		c-0.56,0-1.027-0.15-1.403-0.45c-0.376-0.3-0.563-0.698-0.563-1.194c0-0.48,0.191-0.872,0.576-1.176
		c0.383-0.304,0.855-0.456,1.416-0.456c0.287,0,0.567,0.058,0.84,0.174c0.271,0.116,0.475,0.246,0.611,0.39v-0.948
		c0-0.4-0.118-0.722-0.354-0.966c-0.236-0.244-0.562-0.366-0.979-0.366c-0.664,0-1.096,0.304-1.296,0.912h-0.588
		c0.104-0.448,0.325-0.8,0.666-1.056c0.34-0.256,0.745-0.384,1.218-0.384c0.592,0,1.059,0.166,1.398,0.498s0.51,0.778,0.51,1.338
		V18.55z M424.953,17.338v-0.684c-0.088-0.232-0.266-0.422-0.533-0.57c-0.27-0.148-0.562-0.222-0.883-0.222
		c-0.408,0-0.754,0.098-1.038,0.294c-0.284,0.196-0.426,0.474-0.426,0.834s0.142,0.64,0.426,0.84c0.284,0.2,0.63,0.3,1.038,0.3
		c0.32,0,0.613-0.074,0.883-0.222C424.688,17.76,424.865,17.57,424.953,17.338z"/>
	<path fill="#231F20" d="M431.121,13.222l-1.884,2.592l1.968,2.736h-0.66l-1.644-2.28l-1.656,2.28h-0.636l1.968-2.712l-1.884-2.616
		h0.66l1.56,2.172l1.572-2.172H431.121z"/>
</g>
<g>
	<circle fill="none" stroke="#AAAAAA" stroke-width="0.75" stroke-miterlimit="10" cx="356.998" cy="87.25" r="9"/>
	<circle fill="none" stroke="#AAAAAA" stroke-width="0.75" stroke-miterlimit="10" cx="428.998" cy="87.25" r="9"/>
	<circle fill="#FFFFFF" stroke="#231F20" stroke-width="0.75" stroke-miterlimit="10" cx="392.998" cy="15.25" r="9"/>
	<circle fill="#FFFFFF" stroke="#AAAAAA" stroke-width="0.75" stroke-miterlimit="10" cx="410.998" cy="141.25" r="9"/>
	<circle fill="#FFFFFF" stroke="#AAAAAA" stroke-width="0.75" stroke-miterlimit="10" cx="446.998" cy="141.25" r="9"/>
	<circle fill="#FFFFFF" stroke="#AAAAAA" stroke-width="0.75" stroke-miterlimit="10" cx="338.998" cy="141.25" r="9"/>
	<circle fill="#FFFFFF" stroke="#AAAAAA" stroke-width="0.75" stroke-miterlimit="10" cx="374.998" cy="141.25" r="9"/>
</g>
<g>
	<rect x="446.998" y="82.25" fill="none" width="69.5" height="24"/>
	<path fill="#231F20" d="M451.473,85.634c0.16-0.288,0.389-0.53,0.685-0.726c0.296-0.196,0.62-0.295,0.972-0.295
		c0.52,0,0.92,0.168,1.2,0.504s0.42,0.781,0.42,1.332v3.601h-0.588v-3.517c0-0.424-0.097-0.758-0.288-1.002
		c-0.191-0.243-0.477-0.365-0.852-0.365c-0.32,0-0.608,0.104-0.864,0.312c-0.257,0.207-0.44,0.476-0.552,0.803v3.769h-0.601v-3.517
		c0-0.424-0.096-0.758-0.288-1.002c-0.191-0.243-0.476-0.365-0.852-0.365c-0.32,0-0.608,0.104-0.864,0.312
		c-0.256,0.207-0.44,0.476-0.552,0.803v3.769h-0.6v-5.328h0.6v0.815c0.145-0.271,0.35-0.493,0.617-0.666
		c0.269-0.172,0.574-0.258,0.918-0.258C450.729,84.613,451.225,84.954,451.473,85.634z"/>
	<path fill="#231F20" d="M456.993,82.814c0.08,0.08,0.12,0.176,0.12,0.287c0,0.112-0.04,0.209-0.12,0.288
		c-0.08,0.08-0.176,0.12-0.288,0.12c-0.111,0-0.208-0.04-0.288-0.12c-0.079-0.079-0.12-0.176-0.12-0.288
		c0-0.111,0.041-0.207,0.12-0.287c0.08-0.08,0.177-0.121,0.288-0.121C456.817,82.693,456.913,82.734,456.993,82.814z
		 M457.006,84.722v5.328h-0.601v-5.328H457.006z"/>
	<path fill="#231F20" d="M458.709,90.05v-5.328h0.6v0.853c0.176-0.272,0.414-0.5,0.715-0.685c0.299-0.184,0.63-0.276,0.989-0.276
		c0.592,0,1.049,0.174,1.369,0.522c0.318,0.349,0.479,0.81,0.479,1.386v3.528h-0.588v-3.444c0-0.432-0.113-0.779-0.342-1.043
		c-0.229-0.265-0.57-0.396-1.025-0.396c-0.353,0-0.673,0.107-0.96,0.324c-0.289,0.215-0.5,0.492-0.637,0.828v3.731H458.709z"/>
</g>
<g>
	<g>
		<rect x="329.004" y="137.25" fill="none" width="21.5" height="20.5"/>
		<path fill="#AAAAAA" d="M341.104,139.662c0-0.376-0.12-0.679-0.36-0.906c-0.239-0.229-0.563-0.342-0.972-0.342
			c-0.432,0-0.771,0.134-1.014,0.401c-0.244,0.269-0.387,0.626-0.427,1.074h-0.972c0.072-0.696,0.324-1.256,0.756-1.68
			s0.984-0.636,1.656-0.636c0.695,0,1.244,0.188,1.644,0.563s0.601,0.88,0.601,1.512c0,0.112-0.015,0.229-0.043,0.349
			c-0.027,0.12-0.056,0.224-0.084,0.312c-0.027,0.088-0.08,0.198-0.155,0.33c-0.076,0.132-0.134,0.23-0.175,0.294
			c-0.039,0.064-0.119,0.168-0.239,0.312c-0.12,0.144-0.2,0.239-0.24,0.288c-0.04,0.048-0.134,0.153-0.282,0.317
			s-0.238,0.267-0.27,0.307l-1.872,2.052h3.517v0.84h-4.812v-0.624l2.376-2.616c0.36-0.399,0.604-0.672,0.731-0.815
			c0.129-0.145,0.266-0.349,0.414-0.612S341.104,139.878,341.104,139.662z"/>
	</g>
	<g>
		<rect x="364.248" y="137.25" fill="none" width="21.5" height="20.5"/>
		<path fill="#AAAAAA" d="M377.337,138.414l-2.628,6.636h-0.948l2.604-6.528h-3.793v-0.84h4.765V138.414z"/>
	</g>
	<g>
		<rect x="400.248" y="137.25" fill="none" width="21.5" height="20.5"/>
		<path fill="#AAAAAA" d="M412.07,137.67v7.38h-0.924v-6.24l-1.824,0.937v-0.96l2.185-1.116H412.07z"/>
	</g>
	<g>
		<rect x="436.248" y="137.25" fill="none" width="21.5" height="20.5"/>
		<path fill="#AAAAAA" d="M446.991,145.158c-0.72,0-1.318-0.196-1.794-0.589c-0.477-0.392-0.714-0.899-0.714-1.523
			c0-0.464,0.134-0.864,0.401-1.2c0.269-0.336,0.614-0.56,1.039-0.672c-0.353-0.12-0.637-0.328-0.853-0.624s-0.324-0.64-0.324-1.032
			c0-0.584,0.214-1.054,0.642-1.41c0.428-0.355,0.963-0.533,1.603-0.533c0.647,0,1.187,0.178,1.614,0.533
			c0.428,0.356,0.642,0.826,0.642,1.41c0,0.393-0.11,0.734-0.33,1.026s-0.502,0.502-0.846,0.63c0.416,0.112,0.76,0.336,1.032,0.672
			c0.271,0.336,0.408,0.736,0.408,1.2c0,0.624-0.238,1.132-0.715,1.523C448.321,144.962,447.719,145.158,446.991,145.158z
			 M446.991,144.39c0.472,0,0.858-0.132,1.158-0.396c0.3-0.265,0.45-0.604,0.45-1.021s-0.15-0.754-0.45-1.014
			s-0.687-0.391-1.158-0.391c-0.464,0-0.847,0.131-1.146,0.391c-0.301,0.26-0.451,0.598-0.451,1.014s0.15,0.756,0.451,1.021
			C446.145,144.258,446.527,144.39,446.991,144.39z M446.991,140.777c0.392,0,0.716-0.111,0.972-0.336
			c0.256-0.224,0.385-0.516,0.385-0.876c0-0.359-0.129-0.653-0.385-0.882c-0.256-0.228-0.58-0.342-0.972-0.342
			c-0.384,0-0.704,0.114-0.96,0.342c-0.256,0.229-0.385,0.522-0.385,0.882c0,0.353,0.129,0.643,0.385,0.87
			C446.287,140.664,446.607,140.777,446.991,140.777z"/>
	</g>
	<g>
		<rect x="346.248" y="83.25" fill="none" width="21.5" height="20.5"/>
		<path fill="#AAAAAA" d="M358.348,85.662c0-0.376-0.12-0.679-0.36-0.906c-0.239-0.229-0.563-0.342-0.972-0.342
			c-0.432,0-0.771,0.134-1.014,0.401c-0.244,0.269-0.387,0.626-0.427,1.074h-0.972c0.072-0.696,0.324-1.256,0.756-1.68
			s0.984-0.636,1.656-0.636c0.695,0,1.244,0.188,1.644,0.563s0.601,0.88,0.601,1.512c0,0.112-0.015,0.229-0.043,0.349
			c-0.027,0.12-0.056,0.224-0.084,0.312c-0.027,0.088-0.08,0.198-0.155,0.33c-0.076,0.132-0.134,0.23-0.175,0.294
			c-0.039,0.064-0.119,0.168-0.239,0.312c-0.12,0.144-0.2,0.239-0.24,0.288c-0.04,0.048-0.134,0.153-0.282,0.317
			s-0.238,0.267-0.27,0.307l-1.872,2.052h3.517v0.84h-4.812v-0.624l2.376-2.616c0.36-0.399,0.604-0.672,0.731-0.815
			c0.129-0.145,0.266-0.349,0.414-0.612S358.348,85.878,358.348,85.662z"/>
	</g>
	<g>
		<rect x="418.248" y="83.25" fill="none" width="21.5" height="20.5"/>
		<path fill="#AAAAAA" d="M430.07,83.67v7.38h-0.924v-6.24l-1.824,0.937v-0.96l2.185-1.116H430.07z"/>
	</g>
	<g>
		<rect x="382.248" y="11.25" fill="none" width="21.5" height="20.5"/>
		<path d="M394.348,13.662c0-0.376-0.119-0.679-0.359-0.906c-0.24-0.229-0.564-0.342-0.973-0.342c-0.432,0-0.77,0.134-1.014,0.401
			c-0.244,0.269-0.387,0.626-0.426,1.074h-0.973c0.072-0.696,0.324-1.256,0.756-1.68c0.433-0.424,0.984-0.636,1.656-0.636
			c0.696,0,1.244,0.188,1.645,0.563c0.399,0.376,0.6,0.88,0.6,1.512c0,0.112-0.014,0.229-0.042,0.349s-0.056,0.224-0.084,0.312
			s-0.08,0.198-0.155,0.33c-0.076,0.132-0.135,0.23-0.175,0.294c-0.04,0.064-0.12,0.168-0.239,0.312
			c-0.121,0.144-0.201,0.239-0.24,0.288c-0.041,0.048-0.135,0.153-0.282,0.317c-0.148,0.164-0.238,0.267-0.271,0.307L391.9,18.21
			h3.516v0.84h-4.812v-0.624l2.377-2.616c0.359-0.399,0.604-0.672,0.731-0.815c0.128-0.145,0.266-0.349,0.414-0.612
			C394.273,14.118,394.348,13.878,394.348,13.662z"/>
	</g>
</g>
<g>
	<line fill="none" stroke="#386DF9" stroke-miterlimit="10" x1="141.25" y1="60.25" x2="171.076" y2="60.25"/>
	<g>
		<polygon fill="#386DF9" points="167.763,64.34 167.081,63.607 170.692,60.251 167.081,56.894 167.763,56.161 172.161,60.251 		"/>
	</g>
</g>
<g>
	<line fill="none" stroke="#386DF9" stroke-miterlimit="10" x1="299.086" y1="60.25" x2="328.912" y2="60.25"/>
	<g>
		<polygon fill="#386DF9" points="325.598,64.34 324.916,63.607 328.527,60.251 324.916,56.894 325.598,56.161 329.996,60.251 		"/>
	</g>
</g>
<g>
</g>
<g>
</g>
<g>
</g>
<g>
</g>
<g>
</g>
<g>
</g>
<g>
</g>
</svg>
