<?xml version="1.0" encoding="utf-8"?>
<!-- Generator: Adobe Illustrator 16.0.0, SVG Export Plug-In . SVG Version: 6.00 Build 0)  -->
<!DOCTYPE svg PUBLIC "-//W3C//DTD SVG 1.1 Tiny//EN" "http://www.w3.org/Graphics/SVG/1.1/DTD/svg11-tiny.dtd">
<svg version="1.1" baseProfile="tiny" id="Layer_1" xmlns="http://www.w3.org/2000/svg" xmlns:xlink="http://www.w3.org/1999/xlink"
	 x="0px" y="0px" width="283px" height="214.625px" viewBox="0 0 283 214.625" xml:space="preserve">
<g>
	<circle fill="#FFFFFF" stroke="#231F20" stroke-width="0.75" stroke-miterlimit="10" cx="37.33" cy="18.721" r="12.981"/>
	<circle fill="#FFFFFF" stroke="#231F20" stroke-width="0.75" stroke-miterlimit="10" cx="101.042" cy="121.696" r="12.981"/>
	<circle fill="#FFFFFF" stroke="#231F20" stroke-width="0.75" stroke-miterlimit="10" cx="37.331" cy="70.687" r="12.981"/>
	<circle fill="#FFFFFF" stroke="#231F20" stroke-width="0.75" stroke-miterlimit="10" cx="100.951" cy="70.666" r="12.981"/>
	<circle fill="#FFFFFF" stroke="#231F20" stroke-width="0.75" stroke-miterlimit="10" cx="37.33" cy="122.718" r="12.981"/>
	<circle fill="#FFFFFF" stroke="#231F20" stroke-width="0.75" stroke-miterlimit="10" cx="37.33" cy="175.391" r="12.981"/>
</g>
<rect x="76.801" y="93.243" fill="none" stroke="#386DF9" stroke-miterlimit="10" width="51.882" height="68.512"/>
<rect x="6.5" y="93.243" fill="none" stroke="#386DF9" stroke-miterlimit="10" width="61.663" height="112.885"/>
<g>
	<g>
		
			<line fill="none" stroke="#231F20" stroke-width="0.75" stroke-miterlimit="10" x1="90.396" y1="129.122" x2="50.881" y2="169.417"/>
		<g>
			<polygon fill="#231F20" points="50.431,165.495 51.182,165.515 51.082,169.211 54.776,169.04 54.811,169.79 50.311,169.997 			
				"/>
		</g>
	</g>
	<g>
		
			<line fill="none" stroke="#231F20" stroke-width="0.75" stroke-miterlimit="10" x1="37.331" y1="31.702" x2="37.331" y2="56.894"/>
		<g>
			<polygon fill="#231F20" points="34.264,54.409 34.812,53.897 37.33,56.606 39.849,53.897 40.397,54.409 37.33,57.707 			"/>
		</g>
	</g>
	<g>
		
			<line fill="none" stroke="#231F20" stroke-width="0.75" stroke-miterlimit="10" x1="37.331" y1="83.669" x2="37.331" y2="108.859"/>
		<g>
			<polygon fill="#231F20" points="34.264,106.374 34.812,105.862 37.33,108.571 39.849,105.862 40.397,106.374 37.33,109.673 			
				"/>
		</g>
	</g>
	<g>
		
			<line fill="none" stroke="#231F20" stroke-width="0.75" stroke-miterlimit="10" x1="37.331" y1="135.75" x2="37.331" y2="160.941"/>
		<g>
			<polygon fill="#231F20" points="34.264,158.456 34.812,157.944 37.33,160.653 39.849,157.944 40.397,158.456 37.33,161.755 			
				"/>
		</g>
	</g>
	<g>
		
			<line fill="none" stroke="#231F20" stroke-width="0.75" stroke-miterlimit="10" x1="100.95" y1="83.646" x2="100.95" y2="108.839"/>
		<g>
			<polygon fill="#231F20" points="97.883,106.354 98.432,105.843 100.949,108.551 103.468,105.843 104.017,106.354 
				100.949,109.652 			"/>
		</g>
	</g>
</g>
<g>
	<path d="M166.928,42.347v1.762h-4.053c-3.876,0-6.518,2.202-6.518,8.28v17.706c0,7.222-2.906,11.802-10.218,11.802
		c-3.259,0-5.285-0.615-7.752-1.673l0.705-1.674c1.938,0.969,3.964,1.674,7.047,1.674c4.756,0,8.367-2.555,8.367-10.129v-17.97
		c0-5.99,2.291-8.544,6.255-8.809V43.14c-3.964-0.264-6.255-2.819-6.255-8.809V16.362c0-7.575-3.611-10.13-8.367-10.13
		c-3.083,0-5.108,0.705-7.047,1.674l-0.705-1.674c2.467-1.057,4.493-1.673,7.752-1.673c7.312,0,10.218,4.581,10.218,11.803v17.705
		c0,6.078,2.642,8.28,6.518,8.28H166.928z"/>
</g>
<g>
	<rect x="173.379" y="30.832" fill="none" width="109.621" height="49.952"/>
	<path d="M174.213,38.466v-7.634h0.587v3.253c0.173-0.266,0.405-0.489,0.699-0.669s0.616-0.27,0.969-0.27
		c0.579,0,1.025,0.17,1.339,0.511c0.313,0.34,0.47,0.793,0.47,1.356v3.453h-0.575v-3.371c0-0.422-0.111-0.763-0.335-1.021
		c-0.223-0.258-0.558-0.388-1.004-0.388c-0.345,0-0.658,0.105-0.939,0.317c-0.282,0.211-0.489,0.482-0.623,0.811v3.653H174.213z"/>
	<path d="M180.99,40.462h-0.588l0.846-2.067l-2.044-5.145h0.623l1.715,4.416l1.715-4.416h0.599L180.99,40.462z"/>
	<path d="M185.488,37.69v2.772h-0.587v-7.211h0.587v0.775c0.157-0.243,0.382-0.45,0.676-0.623c0.293-0.172,0.608-0.258,0.945-0.258
		c0.729,0,1.29,0.26,1.686,0.781c0.396,0.521,0.593,1.165,0.593,1.932c0,0.768-0.197,1.412-0.593,1.932
		c-0.396,0.521-0.957,0.781-1.686,0.781c-0.337,0-0.652-0.086-0.945-0.258C185.87,38.141,185.646,37.934,185.488,37.69z
		 M185.488,34.719v2.278c0.36,0.689,0.881,1.034,1.562,1.034c0.54,0,0.967-0.202,1.28-0.605c0.312-0.403,0.47-0.926,0.47-1.568
		s-0.157-1.165-0.47-1.568c-0.313-0.403-0.74-0.605-1.28-0.605C186.369,33.686,185.849,34.03,185.488,34.719z"/>
	<path d="M194.086,36.951h0.563c-0.102,0.493-0.331,0.887-0.688,1.18c-0.356,0.294-0.8,0.44-1.333,0.44
		c-0.688,0-1.247-0.25-1.673-0.751c-0.428-0.501-0.641-1.155-0.641-1.961c0-0.791,0.209-1.44,0.628-1.95
		c0.419-0.509,0.978-0.763,1.674-0.763c0.674,0,1.194,0.233,1.562,0.699s0.552,1.083,0.552,1.85v0.211h-3.841
		c0.008,0.658,0.173,1.181,0.494,1.568c0.32,0.388,0.735,0.582,1.244,0.582c0.368,0,0.684-0.098,0.946-0.293
		C193.837,37.565,194.007,37.295,194.086,36.951z M192.617,33.662c-0.47,0-0.855,0.161-1.156,0.481
		c-0.302,0.321-0.483,0.756-0.547,1.304h3.23c-0.016-0.501-0.152-0.924-0.411-1.269C193.475,33.834,193.103,33.662,192.617,33.662z"
		/>
	<path d="M198.467,33.216v0.575c-0.149-0.062-0.31-0.094-0.482-0.094c-0.312,0-0.591,0.102-0.833,0.305
		c-0.243,0.204-0.428,0.478-0.553,0.822v3.641h-0.587v-5.215h0.587v0.834c0.125-0.274,0.313-0.499,0.564-0.675
		c0.25-0.176,0.532-0.264,0.846-0.264C198.157,33.146,198.31,33.169,198.467,33.216z"/>
	<path d="M199.054,35.682v-0.54h2.831v0.54H199.054z"/>
	<path d="M174.8,51.785v2.772h-0.587v-7.211h0.587v0.775c0.157-0.243,0.382-0.45,0.676-0.623c0.293-0.172,0.608-0.258,0.945-0.258
		c0.729,0,1.29,0.26,1.686,0.781c0.396,0.521,0.593,1.165,0.593,1.932c0,0.768-0.197,1.412-0.593,1.932
		c-0.396,0.521-0.957,0.781-1.686,0.781c-0.337,0-0.652-0.086-0.945-0.258C175.182,52.235,174.957,52.028,174.8,51.785z
		 M174.8,48.813v2.278c0.36,0.689,0.881,1.034,1.562,1.034c0.54,0,0.967-0.202,1.28-0.605c0.312-0.403,0.47-0.926,0.47-1.568
		s-0.157-1.165-0.47-1.568c-0.313-0.403-0.74-0.605-1.28-0.605C175.681,47.78,175.16,48.125,174.8,48.813z"/>
	<path d="M183.538,52.56h-0.563v-0.493c-0.126,0.149-0.321,0.282-0.588,0.399c-0.266,0.117-0.552,0.176-0.857,0.176
		c-0.548,0-1.006-0.146-1.374-0.44c-0.368-0.293-0.552-0.683-0.552-1.168c0-0.47,0.188-0.854,0.563-1.151
		c0.376-0.298,0.838-0.446,1.387-0.446c0.281,0,0.556,0.057,0.821,0.17c0.267,0.114,0.466,0.241,0.6,0.382V49.06
		c0-0.392-0.116-0.707-0.347-0.945c-0.231-0.239-0.55-0.358-0.957-0.358c-0.65,0-1.073,0.298-1.269,0.893h-0.575
		c0.102-0.438,0.318-0.783,0.651-1.034c0.333-0.25,0.73-0.375,1.192-0.375c0.579,0,1.035,0.163,1.368,0.487s0.499,0.762,0.499,1.31
		V52.56z M182.975,51.374v-0.67c-0.087-0.227-0.261-0.413-0.522-0.558c-0.263-0.145-0.551-0.217-0.863-0.217
		c-0.399,0-0.738,0.096-1.017,0.288c-0.277,0.192-0.417,0.464-0.417,0.816s0.14,0.626,0.417,0.822
		c0.278,0.196,0.617,0.293,1.017,0.293c0.312,0,0.601-0.072,0.863-0.217C182.714,51.787,182.888,51.601,182.975,51.374z"/>
	<path d="M187.603,47.31v0.575c-0.149-0.062-0.31-0.094-0.482-0.094c-0.312,0-0.591,0.102-0.833,0.305
		c-0.243,0.204-0.428,0.478-0.553,0.822v3.641h-0.587v-5.215h0.587v0.834c0.125-0.274,0.313-0.499,0.564-0.675
		c0.25-0.176,0.532-0.264,0.846-0.264C187.293,47.24,187.445,47.263,187.603,47.31z"/>
	<path d="M192.136,52.56h-0.563v-0.493c-0.126,0.149-0.321,0.282-0.588,0.399c-0.266,0.117-0.552,0.176-0.857,0.176
		c-0.548,0-1.006-0.146-1.374-0.44c-0.368-0.293-0.552-0.683-0.552-1.168c0-0.47,0.188-0.854,0.563-1.151
		c0.376-0.298,0.838-0.446,1.387-0.446c0.281,0,0.556,0.057,0.821,0.17c0.267,0.114,0.466,0.241,0.6,0.382V49.06
		c0-0.392-0.116-0.707-0.347-0.945c-0.231-0.239-0.55-0.358-0.957-0.358c-0.65,0-1.073,0.298-1.269,0.893h-0.575
		c0.102-0.438,0.318-0.783,0.651-1.034c0.333-0.25,0.73-0.375,1.192-0.375c0.579,0,1.035,0.163,1.368,0.487s0.499,0.762,0.499,1.31
		V52.56z M191.572,51.374v-0.67c-0.087-0.227-0.261-0.413-0.522-0.558c-0.263-0.145-0.551-0.217-0.863-0.217
		c-0.399,0-0.738,0.096-1.017,0.288c-0.277,0.192-0.417,0.464-0.417,0.816s0.14,0.626,0.417,0.822
		c0.278,0.196,0.617,0.293,1.017,0.293c0.312,0,0.601-0.072,0.863-0.217C191.312,51.787,191.485,51.601,191.572,51.374z"/>
	<path d="M197.292,48.238c0.156-0.282,0.38-0.519,0.67-0.71c0.289-0.192,0.606-0.288,0.951-0.288c0.509,0,0.9,0.164,1.175,0.493
		c0.273,0.329,0.41,0.763,0.41,1.304v3.523h-0.575v-3.441c0-0.415-0.094-0.742-0.282-0.98c-0.188-0.239-0.466-0.358-0.833-0.358
		c-0.313,0-0.596,0.102-0.846,0.305c-0.251,0.204-0.431,0.466-0.541,0.787v3.688h-0.587v-3.441c0-0.415-0.094-0.742-0.282-0.98
		c-0.188-0.239-0.466-0.358-0.834-0.358c-0.312,0-0.595,0.102-0.845,0.305c-0.251,0.204-0.432,0.466-0.541,0.787v3.688h-0.587
		v-5.215h0.587v0.799c0.142-0.266,0.343-0.483,0.605-0.652c0.262-0.168,0.562-0.252,0.898-0.252
		C196.563,47.24,197.049,47.572,197.292,48.238z"/>
	<path d="M205.514,51.045h0.563c-0.102,0.493-0.331,0.887-0.688,1.18c-0.356,0.294-0.8,0.44-1.333,0.44
		c-0.688,0-1.247-0.25-1.673-0.751c-0.428-0.501-0.641-1.155-0.641-1.961c0-0.791,0.209-1.44,0.628-1.95
		c0.419-0.509,0.978-0.763,1.674-0.763c0.674,0,1.194,0.233,1.562,0.699s0.552,1.083,0.552,1.85V50h-3.841
		c0.008,0.658,0.173,1.181,0.494,1.568c0.32,0.388,0.735,0.582,1.244,0.582c0.368,0,0.684-0.098,0.946-0.293
		C205.265,51.66,205.435,51.39,205.514,51.045z M204.045,47.756c-0.47,0-0.855,0.161-1.156,0.481
		c-0.302,0.321-0.483,0.756-0.547,1.304h3.23c-0.016-0.501-0.152-0.924-0.411-1.269C204.902,47.929,204.53,47.756,204.045,47.756z"
		/>
	<path d="M207.674,51.35v-3.5h-0.881v-0.505h0.881v-1.339h0.576v1.339h1.351v0.505h-1.351v3.441c0,0.564,0.25,0.846,0.752,0.846
		c0.25,0,0.489-0.066,0.716-0.2v0.552c-0.219,0.117-0.478,0.176-0.775,0.176c-0.392,0-0.7-0.111-0.928-0.334
		C207.788,52.108,207.674,51.781,207.674,51.35z"/>
	<path d="M214.264,51.045h0.563c-0.102,0.493-0.331,0.887-0.688,1.18c-0.356,0.294-0.8,0.44-1.333,0.44
		c-0.688,0-1.247-0.25-1.673-0.751c-0.428-0.501-0.641-1.155-0.641-1.961c0-0.791,0.209-1.44,0.628-1.95
		c0.419-0.509,0.978-0.763,1.674-0.763c0.674,0,1.194,0.233,1.562,0.699s0.552,1.083,0.552,1.85V50h-3.841
		c0.008,0.658,0.173,1.181,0.494,1.568c0.32,0.388,0.735,0.582,1.244,0.582c0.368,0,0.684-0.098,0.946-0.293
		C214.015,51.66,214.185,51.39,214.264,51.045z M212.795,47.756c-0.47,0-0.855,0.161-1.156,0.481
		c-0.302,0.321-0.483,0.756-0.547,1.304h3.23c-0.016-0.501-0.152-0.924-0.411-1.269C213.652,47.929,213.28,47.756,212.795,47.756z"
		/>
	<path d="M218.645,47.31v0.575c-0.149-0.062-0.31-0.094-0.482-0.094c-0.312,0-0.591,0.102-0.833,0.305
		c-0.243,0.204-0.428,0.478-0.553,0.822v3.641h-0.587v-5.215h0.587v0.834c0.125-0.274,0.313-0.499,0.564-0.675
		c0.25-0.176,0.532-0.264,0.846-0.264C218.335,47.24,218.487,47.263,218.645,47.31z"/>
	<path d="M219.231,51.209h0.587c0.212,0.634,0.697,0.951,1.457,0.951c0.375,0,0.681-0.082,0.916-0.247
		c0.234-0.165,0.352-0.403,0.352-0.716c0-0.438-0.32-0.748-0.963-0.928L220.605,50c-0.822-0.219-1.233-0.658-1.233-1.315
		c0-0.438,0.168-0.789,0.505-1.051c0.337-0.262,0.756-0.393,1.257-0.393c0.532,0,0.965,0.125,1.298,0.375
		c0.333,0.251,0.546,0.599,0.641,1.045h-0.576c-0.203-0.611-0.657-0.916-1.362-0.916c-0.345,0-0.63,0.08-0.857,0.241
		c-0.227,0.161-0.341,0.386-0.341,0.675c0,0.235,0.072,0.411,0.218,0.528c0.145,0.118,0.386,0.224,0.723,0.317l0.928,0.258
		c0.869,0.227,1.304,0.701,1.304,1.421c0,0.462-0.173,0.824-0.517,1.086c-0.345,0.262-0.787,0.393-1.328,0.393
		c-0.532,0-0.984-0.129-1.356-0.387S219.31,51.664,219.231,51.209z"/>
</g>
<g>
	<path d="M152.584,120.352v0.939h-2.162c-2.067,0-3.477,1.175-3.477,4.417v9.443c0,3.852-1.55,6.296-5.45,6.296
		c-1.738,0-2.819-0.329-4.135-0.893l0.376-0.893c1.034,0.517,2.114,0.893,3.759,0.893c2.537,0,4.463-1.362,4.463-5.403v-9.585
		c0-3.194,1.223-4.558,3.337-4.699v-0.094c-2.114-0.141-3.337-1.503-3.337-4.698v-9.585c0-4.04-1.926-5.402-4.463-5.402
		c-1.645,0-2.725,0.376-3.759,0.893l-0.376-0.893c1.315-0.564,2.396-0.893,4.135-0.893c3.9,0,5.45,2.442,5.45,6.295v9.444
		c0,3.242,1.409,4.417,3.477,4.417H152.584z"/>
</g>
<g>
	<rect x="160.655" y="109.587" fill="none" width="109.622" height="49.952"/>
	<path d="M162.076,109.586v7.635h-0.587v-7.635H162.076z"/>
	<path d="M167.291,117.221h-0.563v-0.493c-0.126,0.148-0.321,0.282-0.588,0.399c-0.266,0.117-0.552,0.176-0.857,0.176
		c-0.548,0-1.006-0.146-1.374-0.44c-0.368-0.293-0.552-0.683-0.552-1.169c0-0.47,0.188-0.853,0.563-1.15s0.838-0.446,1.387-0.446
		c0.281,0,0.556,0.057,0.821,0.17c0.267,0.114,0.466,0.241,0.6,0.382v-0.928c0-0.392-0.116-0.707-0.347-0.945
		c-0.231-0.239-0.55-0.358-0.957-0.358c-0.65,0-1.073,0.298-1.269,0.893h-0.575c0.102-0.438,0.318-0.783,0.651-1.033
		c0.333-0.251,0.73-0.376,1.192-0.376c0.579,0,1.035,0.162,1.368,0.487s0.499,0.762,0.499,1.31V117.221z M166.728,116.034v-0.669
		c-0.087-0.228-0.261-0.413-0.522-0.559c-0.263-0.145-0.551-0.217-0.863-0.217c-0.399,0-0.738,0.096-1.017,0.288
		c-0.277,0.191-0.417,0.464-0.417,0.815c0,0.353,0.14,0.627,0.417,0.822c0.278,0.196,0.617,0.294,1.017,0.294
		c0.312,0,0.601-0.072,0.863-0.217C166.467,116.447,166.641,116.262,166.728,116.034z"/>
	<path d="M169.123,116.011v-3.5h-0.881v-0.505h0.881v-1.339h0.576v1.339h1.351v0.505h-1.351v3.441c0,0.563,0.25,0.846,0.752,0.846
		c0.25,0,0.489-0.066,0.716-0.199v0.552c-0.219,0.117-0.478,0.176-0.775,0.176c-0.392,0-0.7-0.111-0.928-0.335
		C169.237,116.769,169.123,116.441,169.123,116.011z"/>
	<path d="M175.713,115.706h0.563c-0.102,0.493-0.331,0.887-0.688,1.18c-0.356,0.294-0.8,0.44-1.333,0.44
		c-0.688,0-1.247-0.25-1.673-0.751c-0.428-0.502-0.641-1.155-0.641-1.962c0-0.791,0.209-1.44,0.628-1.949
		c0.419-0.51,0.978-0.764,1.674-0.764c0.674,0,1.194,0.232,1.562,0.698c0.368,0.467,0.552,1.083,0.552,1.851v0.211h-3.841
		c0.008,0.658,0.173,1.181,0.494,1.568c0.32,0.388,0.735,0.581,1.244,0.581c0.368,0,0.684-0.098,0.946-0.294
		C175.464,116.32,175.634,116.05,175.713,115.706z M174.244,112.417c-0.47,0-0.855,0.16-1.156,0.481
		c-0.302,0.321-0.483,0.756-0.547,1.304h3.23c-0.016-0.501-0.152-0.924-0.411-1.269S174.729,112.417,174.244,112.417z"/>
	<path d="M177.639,117.221v-5.215h0.587v0.834c0.173-0.267,0.405-0.489,0.699-0.67c0.294-0.18,0.616-0.27,0.969-0.27
		c0.579,0,1.025,0.17,1.339,0.511s0.47,0.793,0.47,1.356v3.453h-0.575v-3.371c0-0.423-0.111-0.764-0.335-1.021
		c-0.223-0.259-0.558-0.388-1.004-0.388c-0.345,0-0.658,0.105-0.939,0.317c-0.282,0.211-0.489,0.481-0.623,0.811v3.652H177.639z"/>
	<path d="M183.546,116.011v-3.5h-0.881v-0.505h0.881v-1.339h0.576v1.339h1.351v0.505h-1.351v3.441c0,0.563,0.25,0.846,0.752,0.846
		c0.25,0,0.489-0.066,0.716-0.199v0.552c-0.219,0.117-0.478,0.176-0.775,0.176c-0.392,0-0.7-0.111-0.928-0.335
		C183.66,116.769,183.546,116.441,183.546,116.011z"/>
	<path d="M163.45,131.315h-0.505l-2.079-5.215h0.623l1.715,4.404l1.715-4.404h0.599L163.45,131.315z"/>
	<path d="M170.017,131.315h-0.563v-0.493c-0.126,0.148-0.321,0.282-0.588,0.399c-0.266,0.117-0.552,0.176-0.857,0.176
		c-0.548,0-1.006-0.146-1.374-0.44c-0.368-0.293-0.552-0.683-0.552-1.169c0-0.47,0.188-0.853,0.563-1.15s0.838-0.446,1.387-0.446
		c0.281,0,0.556,0.057,0.821,0.17c0.267,0.114,0.466,0.241,0.6,0.382v-0.928c0-0.392-0.116-0.707-0.347-0.945
		c-0.231-0.239-0.55-0.358-0.957-0.358c-0.65,0-1.073,0.298-1.269,0.893h-0.575c0.102-0.438,0.318-0.783,0.651-1.033
		c0.333-0.251,0.73-0.376,1.192-0.376c0.579,0,1.035,0.162,1.368,0.487s0.499,0.762,0.499,1.31V131.315z M169.453,130.129v-0.669
		c-0.087-0.228-0.261-0.413-0.522-0.559c-0.263-0.145-0.551-0.217-0.863-0.217c-0.399,0-0.738,0.096-1.017,0.288
		c-0.277,0.191-0.417,0.464-0.417,0.815c0,0.353,0.14,0.627,0.417,0.822c0.278,0.196,0.617,0.294,1.017,0.294
		c0.312,0,0.601-0.072,0.863-0.217C169.192,130.542,169.366,130.356,169.453,130.129z"/>
	<path d="M174.081,126.065v0.575c-0.149-0.062-0.31-0.094-0.482-0.094c-0.312,0-0.591,0.102-0.833,0.306
		c-0.243,0.203-0.428,0.478-0.553,0.822v3.641h-0.587v-5.215h0.587v0.834c0.125-0.274,0.313-0.499,0.564-0.676
		c0.25-0.176,0.532-0.264,0.846-0.264C173.771,125.995,173.924,126.019,174.081,126.065z"/>
	<path d="M175.736,124.233c0.078,0.078,0.118,0.172,0.118,0.281c0,0.11-0.04,0.204-0.118,0.282s-0.172,0.117-0.281,0.117
		c-0.11,0-0.204-0.039-0.282-0.117s-0.117-0.172-0.117-0.282c0-0.109,0.039-0.203,0.117-0.281s0.172-0.118,0.282-0.118
		C175.564,124.115,175.658,124.155,175.736,124.233z M175.748,126.101v5.215h-0.587v-5.215H175.748z"/>
	<path d="M180.963,131.315h-0.563v-0.493c-0.126,0.148-0.321,0.282-0.588,0.399c-0.266,0.117-0.552,0.176-0.857,0.176
		c-0.548,0-1.006-0.146-1.374-0.44c-0.368-0.293-0.552-0.683-0.552-1.169c0-0.47,0.188-0.853,0.563-1.15s0.838-0.446,1.387-0.446
		c0.281,0,0.556,0.057,0.821,0.17c0.267,0.114,0.466,0.241,0.6,0.382v-0.928c0-0.392-0.116-0.707-0.347-0.945
		c-0.231-0.239-0.55-0.358-0.957-0.358c-0.65,0-1.073,0.298-1.269,0.893h-0.575c0.102-0.438,0.318-0.783,0.651-1.033
		c0.333-0.251,0.73-0.376,1.192-0.376c0.579,0,1.035,0.162,1.368,0.487s0.499,0.762,0.499,1.31V131.315z M180.399,130.129v-0.669
		c-0.087-0.228-0.261-0.413-0.522-0.559c-0.263-0.145-0.551-0.217-0.863-0.217c-0.399,0-0.738,0.096-1.017,0.288
		c-0.277,0.191-0.417,0.464-0.417,0.815c0,0.353,0.14,0.627,0.417,0.822c0.278,0.196,0.617,0.294,1.017,0.294
		c0.312,0,0.601-0.072,0.863-0.217C180.139,130.542,180.312,130.356,180.399,130.129z"/>
	<path d="M183.159,130.54v0.775h-0.575v-7.635h0.575v3.195c0.157-0.243,0.382-0.45,0.676-0.623c0.293-0.172,0.608-0.258,0.945-0.258
		c0.736,0,1.3,0.26,1.691,0.781c0.392,0.521,0.587,1.164,0.587,1.932s-0.195,1.411-0.587,1.932
		c-0.392,0.521-0.955,0.781-1.691,0.781c-0.337,0-0.652-0.086-0.945-0.258C183.541,130.99,183.316,130.783,183.159,130.54z
		 M183.159,127.568v2.279c0.173,0.328,0.397,0.583,0.676,0.763c0.277,0.181,0.577,0.271,0.898,0.271
		c0.532,0,0.955-0.201,1.269-0.604c0.312-0.403,0.47-0.926,0.47-1.568c0-0.642-0.157-1.165-0.47-1.568
		c-0.313-0.402-0.736-0.604-1.269-0.604c-0.321,0-0.621,0.09-0.898,0.271C183.557,126.985,183.332,127.24,183.159,127.568z"/>
	<path d="M188.938,123.681v7.635h-0.587v-7.635H188.938z"/>
	<path d="M194,129.801h0.563c-0.102,0.493-0.331,0.887-0.688,1.18c-0.356,0.294-0.8,0.44-1.333,0.44
		c-0.688,0-1.247-0.25-1.673-0.751c-0.428-0.502-0.641-1.155-0.641-1.962c0-0.791,0.209-1.44,0.628-1.949
		c0.419-0.51,0.978-0.764,1.674-0.764c0.674,0,1.194,0.232,1.562,0.698c0.368,0.467,0.552,1.083,0.552,1.851v0.211h-3.841
		c0.008,0.658,0.173,1.181,0.494,1.568c0.32,0.388,0.735,0.581,1.244,0.581c0.368,0,0.684-0.098,0.946-0.294
		C193.751,130.415,193.921,130.145,194,129.801z M192.531,126.512c-0.47,0-0.855,0.16-1.156,0.481
		c-0.302,0.321-0.483,0.756-0.547,1.304h3.23c-0.016-0.501-0.152-0.924-0.411-1.269S193.017,126.512,192.531,126.512z"/>
	<path d="M195.491,129.965h0.587c0.212,0.634,0.697,0.951,1.457,0.951c0.375,0,0.681-0.082,0.916-0.246
		c0.234-0.165,0.352-0.403,0.352-0.717c0-0.438-0.32-0.748-0.963-0.928l-0.975-0.271c-0.822-0.219-1.233-0.657-1.233-1.315
		c0-0.438,0.168-0.789,0.505-1.051c0.337-0.263,0.756-0.394,1.257-0.394c0.532,0,0.965,0.125,1.298,0.376
		c0.333,0.25,0.546,0.599,0.641,1.045h-0.576c-0.203-0.61-0.657-0.916-1.362-0.916c-0.345,0-0.63,0.08-0.857,0.24
		c-0.227,0.161-0.341,0.386-0.341,0.676c0,0.235,0.072,0.411,0.218,0.528c0.145,0.118,0.386,0.224,0.723,0.317l0.928,0.259
		c0.869,0.227,1.304,0.7,1.304,1.421c0,0.462-0.173,0.824-0.517,1.086c-0.345,0.263-0.787,0.394-1.328,0.394
		c-0.532,0-0.984-0.129-1.356-0.388C195.794,130.775,195.569,130.419,195.491,129.965z"/>
</g>
<g>
	<path d="M152.584,175.438v0.939h-2.162c-2.067,0-3.477,1.175-3.477,4.417v9.443c0,3.852-1.55,6.296-5.45,6.296
		c-1.738,0-2.819-0.329-4.135-0.893l0.376-0.893c1.034,0.517,2.114,0.893,3.759,0.893c2.537,0,4.463-1.362,4.463-5.403v-9.585
		c0-3.194,1.223-4.558,3.337-4.699v-0.094c-2.114-0.141-3.337-1.503-3.337-4.698v-9.585c0-4.04-1.926-5.402-4.463-5.402
		c-1.645,0-2.725,0.375-3.759,0.893l-0.376-0.893c1.315-0.564,2.396-0.893,4.135-0.893c3.9,0,5.45,2.442,5.45,6.295v9.444
		c0,3.242,1.409,4.417,3.477,4.417H152.584z"/>
</g>
<g>
	<rect x="160.655" y="164.673" fill="none" width="109.622" height="49.952"/>
	<path d="M165.013,172.307v-0.775c-0.156,0.243-0.382,0.45-0.676,0.623c-0.293,0.172-0.608,0.258-0.945,0.258
		c-0.735,0-1.3-0.26-1.691-0.781c-0.392-0.521-0.587-1.164-0.587-1.932s0.195-1.411,0.587-1.932
		c0.392-0.521,0.956-0.781,1.691-0.781c0.337,0,0.652,0.086,0.945,0.258c0.294,0.173,0.52,0.38,0.676,0.623v-3.195h0.575v7.635
		H165.013z M165.013,170.839v-2.279c-0.172-0.328-0.397-0.583-0.676-0.763c-0.277-0.181-0.577-0.271-0.898-0.271
		c-0.532,0-0.955,0.202-1.269,0.604c-0.312,0.403-0.47,0.927-0.47,1.568c0,0.643,0.157,1.165,0.47,1.568
		c0.313,0.403,0.736,0.604,1.269,0.604c0.321,0,0.621-0.09,0.898-0.271C164.615,171.422,164.841,171.167,165.013,170.839z"/>
	<path d="M170.814,172.307h-0.563v-0.493c-0.126,0.148-0.321,0.282-0.588,0.399c-0.266,0.117-0.552,0.176-0.857,0.176
		c-0.548,0-1.006-0.146-1.374-0.44c-0.368-0.293-0.552-0.683-0.552-1.169c0-0.47,0.188-0.853,0.563-1.15s0.838-0.446,1.387-0.446
		c0.281,0,0.556,0.057,0.821,0.17c0.267,0.114,0.466,0.241,0.6,0.382v-0.928c0-0.392-0.116-0.707-0.347-0.945
		c-0.231-0.239-0.55-0.358-0.957-0.358c-0.65,0-1.073,0.298-1.269,0.893h-0.575c0.102-0.438,0.318-0.783,0.651-1.033
		c0.333-0.251,0.73-0.376,1.192-0.376c0.579,0,1.035,0.162,1.368,0.487s0.499,0.762,0.499,1.31V172.307z M170.251,171.12v-0.669
		c-0.087-0.228-0.261-0.413-0.522-0.559c-0.263-0.145-0.551-0.217-0.863-0.217c-0.399,0-0.738,0.096-1.017,0.288
		c-0.277,0.191-0.417,0.464-0.417,0.815c0,0.353,0.14,0.627,0.417,0.822c0.278,0.196,0.617,0.294,1.017,0.294
		c0.312,0,0.601-0.072,0.863-0.217C169.99,171.533,170.164,171.348,170.251,171.12z"/>
	<path d="M172.646,171.097v-3.5h-0.881v-0.505h0.881v-1.339h0.576v1.339h1.351v0.505h-1.351v3.441c0,0.563,0.25,0.846,0.752,0.846
		c0.25,0,0.489-0.066,0.716-0.199v0.552c-0.219,0.117-0.478,0.176-0.775,0.176c-0.392,0-0.7-0.111-0.928-0.335
		C172.761,171.854,172.646,171.527,172.646,171.097z"/>
	<path d="M179.412,172.307h-0.563v-0.493c-0.126,0.148-0.321,0.282-0.588,0.399c-0.266,0.117-0.552,0.176-0.857,0.176
		c-0.548,0-1.006-0.146-1.374-0.44c-0.368-0.293-0.552-0.683-0.552-1.169c0-0.47,0.188-0.853,0.563-1.15s0.838-0.446,1.387-0.446
		c0.281,0,0.556,0.057,0.821,0.17c0.267,0.114,0.466,0.241,0.6,0.382v-0.928c0-0.392-0.116-0.707-0.347-0.945
		c-0.231-0.239-0.55-0.358-0.957-0.358c-0.65,0-1.073,0.298-1.269,0.893h-0.575c0.102-0.438,0.318-0.783,0.651-1.033
		c0.333-0.251,0.73-0.376,1.192-0.376c0.579,0,1.035,0.162,1.368,0.487s0.499,0.762,0.499,1.31V172.307z M178.849,171.12v-0.669
		c-0.087-0.228-0.261-0.413-0.522-0.559c-0.263-0.145-0.551-0.217-0.863-0.217c-0.399,0-0.738,0.096-1.017,0.288
		c-0.277,0.191-0.417,0.464-0.417,0.815c0,0.353,0.14,0.627,0.417,0.822c0.278,0.196,0.617,0.294,1.017,0.294
		c0.312,0,0.601-0.072,0.863-0.217C178.588,171.533,178.762,171.348,178.849,171.12z"/>
	<path d="M162.076,185.626v2.772h-0.587v-7.212h0.587v0.775c0.157-0.243,0.382-0.45,0.676-0.623
		c0.293-0.172,0.608-0.258,0.945-0.258c0.729,0,1.29,0.26,1.686,0.781c0.396,0.521,0.593,1.164,0.593,1.932
		s-0.197,1.411-0.593,1.932c-0.396,0.521-0.957,0.781-1.686,0.781c-0.337,0-0.652-0.086-0.945-0.258
		C162.458,186.076,162.233,185.869,162.076,185.626z M162.076,182.654v2.279c0.36,0.688,0.881,1.033,1.562,1.033
		c0.54,0,0.967-0.201,1.28-0.604c0.312-0.403,0.47-0.926,0.47-1.568c0-0.642-0.157-1.165-0.47-1.568
		c-0.313-0.402-0.74-0.604-1.28-0.604C162.957,181.621,162.437,181.966,162.076,182.654z"/>
	<path d="M170.879,181.832c0.427,0.502,0.641,1.155,0.641,1.962s-0.214,1.46-0.641,1.962c-0.427,0.501-0.984,0.751-1.674,0.751
		c-0.688,0-1.245-0.25-1.667-0.751c-0.423-0.502-0.635-1.155-0.635-1.962s0.212-1.46,0.635-1.962
		c0.422-0.501,0.979-0.751,1.667-0.751C169.895,181.081,170.452,181.331,170.879,181.832z M170.462,185.386
		c0.313-0.403,0.47-0.934,0.47-1.592s-0.156-1.188-0.47-1.592s-0.732-0.604-1.257-0.604c-0.517,0-0.932,0.201-1.245,0.604
		c-0.312,0.403-0.47,0.934-0.47,1.592s0.157,1.188,0.47,1.592c0.313,0.403,0.729,0.604,1.245,0.604
		C169.729,185.99,170.148,185.789,170.462,185.386z"/>
	<path d="M173.387,179.319c0.078,0.078,0.118,0.172,0.118,0.281c0,0.11-0.04,0.204-0.118,0.282S173.215,180,173.105,180
		c-0.11,0-0.204-0.039-0.282-0.117s-0.117-0.172-0.117-0.282c0-0.109,0.039-0.203,0.117-0.281s0.172-0.118,0.282-0.118
		C173.215,179.201,173.309,179.241,173.387,179.319z M173.398,181.187v5.215h-0.587v-5.215H173.398z"/>
	<path d="M175.066,186.401v-5.215h0.587v0.834c0.173-0.267,0.405-0.489,0.699-0.67c0.294-0.18,0.616-0.27,0.969-0.27
		c0.579,0,1.025,0.17,1.339,0.511s0.47,0.793,0.47,1.356v3.453h-0.575v-3.371c0-0.423-0.111-0.764-0.335-1.021
		c-0.223-0.259-0.558-0.388-1.004-0.388c-0.345,0-0.658,0.105-0.939,0.317c-0.282,0.211-0.489,0.481-0.623,0.811v3.652H175.066z"/>
	<path d="M180.974,185.191v-3.5h-0.881v-0.505h0.881v-1.339h0.576v1.339h1.351v0.505h-1.351v3.441c0,0.563,0.25,0.846,0.752,0.846
		c0.25,0,0.489-0.066,0.716-0.199v0.552c-0.219,0.117-0.478,0.176-0.775,0.176c-0.392,0-0.7-0.111-0.928-0.335
		C181.088,185.949,180.974,185.622,180.974,185.191z"/>
	<path d="M183.734,185.051h0.587c0.212,0.634,0.697,0.951,1.457,0.951c0.375,0,0.681-0.082,0.916-0.246
		c0.234-0.165,0.352-0.403,0.352-0.717c0-0.438-0.32-0.748-0.963-0.928l-0.975-0.271c-0.822-0.219-1.233-0.657-1.233-1.315
		c0-0.438,0.168-0.789,0.505-1.051c0.337-0.263,0.756-0.394,1.257-0.394c0.532,0,0.965,0.125,1.298,0.376
		c0.333,0.25,0.546,0.599,0.641,1.045h-0.576c-0.203-0.61-0.657-0.916-1.362-0.916c-0.345,0-0.63,0.08-0.857,0.24
		c-0.227,0.161-0.341,0.386-0.341,0.676c0,0.235,0.072,0.411,0.218,0.528c0.145,0.118,0.386,0.224,0.723,0.317l0.928,0.259
		c0.869,0.227,1.304,0.7,1.304,1.421c0,0.462-0.173,0.824-0.517,1.086c-0.345,0.263-0.787,0.394-1.328,0.394
		c-0.532,0-0.984-0.129-1.356-0.388C184.037,185.861,183.812,185.505,183.734,185.051z"/>
</g>
<g>
	<path fill="none" d="M98.418,123.349c0.572-1.068,0.881-2.324,1.045-3.008h-3.095c-0.386,1.455-0.474,2.314-0.474,2.941
		c0,1.377,0.309,1.808,0.805,1.808C97.338,125.09,97.899,124.362,98.418,123.349z"/>
	<path fill="none" d="M100.069,116.903c0-0.848-0.088-1.795-0.815-1.795c-0.672,0-1.223,0.826-1.619,1.554
		c-0.595,1.058-0.892,2.247-1.146,3.194h3.106C99.949,118.392,100.069,117.631,100.069,116.903z"/>
	<path d="M101.05,117.83c0-0.98-0.265-3.052-1.785-3.052c-2.06,0-4.352,4.187-4.352,7.59c0,1.399,0.431,3.051,1.786,3.051
		C98.791,125.419,101.05,121.156,101.05,117.83z M97.635,116.662c0.396-0.728,0.947-1.554,1.619-1.554
		c0.728,0,0.815,0.947,0.815,1.795c0,0.728-0.12,1.488-0.475,2.953h-3.106C96.743,118.909,97.04,117.72,97.635,116.662z
		 M95.895,123.282c0-0.627,0.088-1.486,0.474-2.941h3.095c-0.164,0.684-0.473,1.939-1.045,3.008
		c-0.519,1.014-1.08,1.741-1.719,1.741C96.203,125.09,95.895,124.659,95.895,123.282z"/>
	<path d="M102.581,117.498c0,0.177,0.132,0.344,0.319,0.344c0.064,0,0.088,0,0.22-0.101l1.411-0.947l-0.166,1.675
		c0,0.231,0.187,0.309,0.319,0.309c0.122,0,0.319-0.077,0.319-0.309c0-0.099-0.044-0.407-0.056-0.507
		c-0.021-0.176-0.088-0.926-0.109-1.168l1.244,0.837c0.266,0.211,0.287,0.211,0.387,0.211c0.187,0,0.319-0.167,0.319-0.344
		c0-0.197-0.122-0.252-0.221-0.297l-1.564-0.649c0.848-0.375,1.234-0.517,1.487-0.649c0.198-0.078,0.298-0.122,0.298-0.32
		c0-0.176-0.133-0.33-0.319-0.33c-0.078,0-0.1,0-0.221,0.1l-1.41,0.936l0.154-1.531c0.021-0.188,0-0.451-0.309-0.451
		c-0.133,0-0.319,0.088-0.319,0.319c0,0.089,0.034,0.396,0.043,0.508c0.023,0.176,0.1,0.924,0.123,1.155l-1.399-0.936
		c-0.111-0.067-0.144-0.1-0.231-0.1c-0.188,0-0.319,0.154-0.319,0.33c0,0.21,0.12,0.266,0.208,0.309l1.576,0.649
		c-0.859,0.375-1.233,0.52-1.497,0.64C102.669,117.268,102.581,117.312,102.581,117.498z"/>
	<path d="M106.116,125.375c0,0.221,0.177,0.375,0.408,0.375c0.286,0,0.595-0.22,0.595-0.66c0-0.342-0.253-0.728-0.793-0.728
		c-0.595,0-1.135,0.43-1.663,0.914c-0.44,0.419-0.782,0.738-1.201,0.914l1.025-4.142c0.01-0.021,0.044-0.154,0.044-0.166
		c0-0.055-0.044-0.142-0.166-0.142c-0.209,0-1.069,0.076-1.333,0.099c-0.076,0.011-0.231,0.021-0.231,0.241
		c0,0.145,0.155,0.145,0.275,0.145c0.495,0,0.495,0.076,0.495,0.153s-0.021,0.145-0.043,0.231l-1.454,5.871
		c-0.055,0.187-0.055,0.209-0.055,0.232c0,0.153,0.121,0.33,0.352,0.33c0.276,0,0.418-0.21,0.474-0.441
		c0.023-0.045,0.475-1.861,0.507-2.004c0.737,0.066,1.333,0.309,1.333,0.848c0,0.044,0,0.099-0.021,0.209
		c-0.044,0.155-0.044,0.198-0.044,0.319c0,0.739,0.605,1.069,1.101,1.069c1.002,0,1.323-1.576,1.323-1.587
		c0-0.143-0.144-0.143-0.177-0.143c-0.145,0-0.154,0.055-0.199,0.253c-0.132,0.451-0.407,1.179-0.914,1.179
		c-0.286,0-0.362-0.254-0.362-0.54c0-0.176,0-0.188,0.065-0.462c0-0.034,0.044-0.21,0.044-0.319c0-0.926-1.244-1.069-1.675-1.103
		c0.298-0.188,0.683-0.528,0.859-0.683c0.528-0.496,1.047-0.98,1.63-0.98c0.122,0,0.254,0.023,0.342,0.133
		C106.204,124.858,106.116,125.21,106.116,125.375z"/>
</g>
<g>
	<path d="M84.931,157.092c-0.029,0.095-0.029,0.11-0.029,0.15c0,0.155,0.135,0.19,0.195,0.19c0.091,0,0.189-0.061,0.229-0.141
		c0.035-0.064,0.341-1.312,0.381-1.481c0.23,0.019,0.782,0.129,0.782,0.575c0,0.045,0,0.075-0.021,0.141
		c-0.01,0.08-0.024,0.159-0.024,0.235c0,0.4,0.271,0.671,0.621,0.671c0.2,0,0.386-0.11,0.531-0.36
		c0.17-0.296,0.245-0.666,0.245-0.682c0-0.065-0.06-0.065-0.081-0.065c-0.069,0-0.074,0.025-0.096,0.121
		c-0.134,0.491-0.289,0.836-0.585,0.836c-0.13,0-0.216-0.075-0.216-0.315c0-0.115,0.025-0.271,0.051-0.381
		c0.029-0.115,0.029-0.14,0.029-0.211c0-0.436-0.425-0.631-1.001-0.706c0.21-0.119,0.426-0.34,0.581-0.5
		c0.325-0.356,0.637-0.646,0.967-0.646c0.04,0,0.044,0,0.06,0.005c0.08,0.015,0.09,0.015,0.141,0.055
		c0.016,0.006,0.016,0.011,0.029,0.026c-0.325,0.02-0.385,0.284-0.385,0.365c0,0.104,0.075,0.235,0.255,0.235
		c0.176,0,0.371-0.15,0.371-0.411c0-0.205-0.155-0.425-0.456-0.425c-0.19,0-0.501,0.055-0.986,0.596
		c-0.23,0.255-0.496,0.525-0.751,0.626l0.7-2.85c0-0.006,0-0.075-0.084-0.075c-0.156,0-0.652,0.054-0.827,0.069
		c-0.055,0.006-0.125,0.011-0.125,0.136c0,0.08,0.061,0.08,0.16,0.08c0.325,0,0.335,0.045,0.335,0.115l-0.019,0.136L84.931,157.092z
		"/>
	<path d="M90.725,155.149h4.032c0.101,0,0.23,0,0.23-0.135c0-0.136-0.13-0.136-0.225-0.136h-4.042c-0.095,0-0.226,0-0.226,0.136
		C90.495,155.149,90.626,155.149,90.725,155.149z"/>
	<path d="M90.721,156.461h4.042c0.095,0,0.225,0,0.225-0.136c0-0.135-0.13-0.135-0.23-0.135h-4.032c-0.099,0-0.229,0-0.229,0.135
		C90.495,156.461,90.626,156.461,90.721,156.461z"/>
	<path d="M99.074,152.859c-0.416,0.432-1.013,0.432-1.228,0.432v0.21c0.135,0,0.53,0,0.886-0.175v3.5c0,0.24-0.019,0.32-0.63,0.32
		h-0.216v0.211c0.236-0.021,0.827-0.021,1.092-0.021c0.271,0,0.861,0,1.097,0.021v-0.211H99.86c-0.611,0-0.632-0.074-0.632-0.32
		v-3.791C99.229,152.875,99.229,152.859,99.074,152.859z"/>
	<path d="M101.302,158.589c0,0.046,0.031,0.071,0.065,0.071c0.075,0,0.616-0.522,0.616-1.308c0-0.445-0.17-0.712-0.431-0.712
		c-0.226,0-0.36,0.171-0.36,0.361c0,0.18,0.135,0.355,0.36,0.355c0.08,0,0.165-0.025,0.235-0.086
		c0.021-0.014,0.025-0.024,0.035-0.024c0.005,0,0.011,0.011,0.011,0.105c0,0.5-0.235,0.901-0.457,1.127
		C101.302,158.555,101.302,158.564,101.302,158.589z"/>
	<path d="M104.918,157.002c0-0.2-0.159-0.361-0.36-0.361c-0.195,0-0.355,0.161-0.355,0.361c0,0.195,0.16,0.355,0.355,0.355
		C104.759,157.357,104.918,157.197,104.918,157.002z"/>
	<path d="M107.908,157.002c0-0.2-0.16-0.361-0.355-0.361c-0.2,0-0.36,0.161-0.36,0.361c0,0.195,0.16,0.355,0.36,0.355
		C107.748,157.357,107.908,157.197,107.908,157.002z"/>
	<path d="M110.897,157.002c0-0.2-0.159-0.361-0.354-0.361c-0.196,0-0.361,0.161-0.361,0.361c0,0.195,0.165,0.355,0.361,0.355
		C110.738,157.357,110.897,157.197,110.897,157.002z"/>
	<path d="M113.302,158.589c0,0.046,0.035,0.071,0.064,0.071c0.076,0,0.617-0.522,0.617-1.308c0-0.445-0.172-0.712-0.432-0.712
		c-0.226,0-0.36,0.171-0.36,0.361c0,0.18,0.135,0.355,0.36,0.355c0.08,0,0.165-0.025,0.235-0.086
		c0.02-0.014,0.024-0.024,0.035-0.024c0.005,0,0.011,0.011,0.011,0.105c0,0.5-0.235,0.901-0.456,1.127
		C113.302,158.555,113.302,158.564,113.302,158.589z"/>
	<path d="M121.535,152.745c-0.15,0-0.321,0.02-0.48,0.02c-0.246,0-0.506-0.02-0.751-0.02c-0.046,0-0.131,0-0.131,0.135
		c0,0.045,0.035,0.066,0.085,0.075c0.146,0.01,0.206,0.045,0.206,0.14c0,0.121-0.2,0.276-0.24,0.311l-2.634,2.028l0.539-2.168
		c0.061-0.245,0.076-0.311,0.567-0.311c0.17,0,0.229,0,0.229-0.136c0-0.059-0.055-0.074-0.095-0.074c-0.19,0-0.676,0.02-0.867,0.02
		c-0.194,0-0.676-0.02-0.87-0.02c-0.045,0-0.137,0-0.137,0.13c0,0.08,0.066,0.08,0.2,0.08c0.086,0,0.206,0.005,0.291,0.01
		c0.104,0.016,0.146,0.035,0.146,0.11c0,0.025-0.004,0.046-0.025,0.131l-0.906,3.625c-0.064,0.266-0.08,0.315-0.615,0.315
		c-0.116,0-0.186,0-0.186,0.131c0,0.08,0.08,0.08,0.1,0.08c0.19,0,0.667-0.021,0.856-0.021c0.14,0,0.29,0.005,0.431,0.005
		c0.15,0,0.301,0.016,0.44,0.016c0.046,0,0.136,0,0.136-0.136c0-0.075-0.06-0.075-0.191-0.075c-0.25,0-0.436,0-0.436-0.12
		c0-0.045,0.04-0.195,0.062-0.296c0.095-0.35,0.18-0.711,0.27-1.062l1.007-0.785l0.781,1.817c0.079,0.186,0.079,0.196,0.079,0.236
		c0,0.204-0.289,0.209-0.35,0.209c-0.074,0-0.146,0-0.146,0.136c0,0.075,0.081,0.075,0.09,0.075c0.271,0,0.557-0.021,0.827-0.021
		c0.15,0,0.511,0.021,0.66,0.021c0.036,0,0.121,0,0.121-0.136c0-0.075-0.07-0.075-0.135-0.075c-0.276-0.005-0.36-0.063-0.466-0.3
		l-0.957-2.219c-0.01-0.02-0.035-0.075-0.035-0.096c0-0.005,0.12-0.1,0.195-0.154l1.182-0.912c0.636-0.466,0.901-0.49,1.103-0.511
		c0.056-0.009,0.12-0.016,0.12-0.136C121.605,152.79,121.585,152.745,121.535,152.745z"/>
</g>
<g>
	<path d="M18.545,198.716c0,0.074,0.08,0.074,0.098,0.074c0.073,0,0.078-0.018,0.118-0.136c0.209-0.718,0.509-0.944,0.769-0.944
		c0.062,0,0.192,0,0.192,0.242c0,0.159-0.051,0.316-0.085,0.396c-0.062,0.197-0.401,1.08-0.525,1.408
		c-0.074,0.198-0.176,0.452-0.176,0.61c0,0.362,0.26,0.627,0.629,0.627c0.717,0,0.994-1.108,0.994-1.176
		c0-0.072-0.067-0.072-0.09-0.072c-0.075,0-0.075,0.021-0.114,0.136c-0.136,0.479-0.39,0.944-0.78,0.944
		c-0.125,0-0.181-0.074-0.181-0.25c0-0.191,0.046-0.299,0.221-0.763l0.3-0.803c0.09-0.221,0.09-0.238,0.164-0.441
		c0.062-0.153,0.102-0.26,0.102-0.401c0-0.345-0.243-0.627-0.628-0.627C18.84,197.541,18.545,198.643,18.545,198.716z"/>
	<path d="M20.491,196.144c0-0.152-0.107-0.271-0.283-0.271c-0.204,0-0.407,0.198-0.407,0.401c0,0.147,0.102,0.277,0.288,0.277
		C20.265,196.551,20.491,196.375,20.491,196.144z"/>
	<path d="M23.741,199.897h4.568c0.107,0,0.249,0,0.249-0.151c0-0.154-0.142-0.154-0.26-0.154h-4.552c-0.113,0-0.26,0-0.26,0.154
		C23.487,199.897,23.634,199.897,23.741,199.897z"/>
	<path d="M23.747,198.416h4.552c0.118,0,0.26,0,0.26-0.152s-0.142-0.152-0.249-0.152h-4.568c-0.107,0-0.254,0-0.254,0.152
		S23.634,198.416,23.747,198.416z"/>
	<path d="M33.179,195.833c-0.476,0.486-1.147,0.486-1.392,0.486v0.236c0.153,0,0.605,0,1.001-0.197v3.951
		c0,0.272-0.022,0.362-0.712,0.362h-0.243v0.238c0.266-0.022,0.933-0.022,1.238-0.022s0.966,0,1.232,0.022v-0.238h-0.243
		c-0.684,0-0.707-0.083-0.707-0.362v-4.279C33.354,195.85,33.354,195.833,33.179,195.833z"/>
	<path d="M35.688,202.301c0,0.051,0.04,0.079,0.073,0.079c0.086,0,0.695-0.588,0.695-1.476c0-0.503-0.19-0.803-0.485-0.803
		c-0.254,0-0.407,0.191-0.407,0.408c0,0.202,0.153,0.4,0.407,0.4c0.09,0,0.191-0.029,0.266-0.097
		c0.023-0.017,0.029-0.027,0.04-0.027c0.006,0,0.01,0.011,0.01,0.118c0,0.565-0.265,1.018-0.514,1.272
		C35.688,202.261,35.688,202.272,35.688,202.301z"/>
	<path d="M39.772,200.51c0-0.228-0.182-0.408-0.402-0.408c-0.222,0-0.407,0.181-0.407,0.408c0,0.22,0.186,0.4,0.407,0.4
		C39.591,200.91,39.772,200.729,39.772,200.51z"/>
	<path d="M43.146,200.51c0-0.228-0.181-0.408-0.401-0.408s-0.407,0.181-0.407,0.408c0,0.22,0.187,0.4,0.407,0.4
		S43.146,200.729,43.146,200.51z"/>
	<path d="M46.545,200.51c0-0.228-0.182-0.408-0.401-0.408c-0.221,0-0.407,0.181-0.407,0.408c0,0.22,0.187,0.4,0.407,0.4
		C46.363,200.91,46.545,200.729,46.545,200.51z"/>
	<path d="M49.236,202.301c0,0.051,0.039,0.079,0.073,0.079c0.084,0,0.695-0.588,0.695-1.476c0-0.503-0.191-0.803-0.486-0.803
		c-0.255,0-0.406,0.191-0.406,0.408c0,0.202,0.151,0.4,0.406,0.4c0.091,0,0.192-0.029,0.267-0.097
		c0.022-0.017,0.028-0.027,0.038-0.027c0.006,0,0.012,0.011,0.012,0.118c0,0.565-0.266,1.018-0.515,1.272
		C49.236,202.261,49.236,202.272,49.236,202.301z"/>
	<path d="M56.1,199.746c-0.078,0-0.078,0.021-0.119,0.136c-0.152,0.52-0.401,0.944-0.773,0.944c-0.13,0-0.188-0.074-0.188-0.25
		c0-0.191,0.068-0.374,0.142-0.543c0.142-0.401,0.464-1.243,0.464-1.679c0-0.509-0.327-0.813-0.877-0.813
		c-0.689,0-1.062,0.486-1.193,0.66c-0.033-0.424-0.35-0.66-0.7-0.66c-0.35,0-0.492,0.299-0.57,0.435
		c-0.125,0.26-0.228,0.706-0.228,0.74c0,0.074,0.074,0.074,0.092,0.074c0.072,0,0.084-0.007,0.13-0.176
		c0.13-0.542,0.282-0.904,0.554-0.904c0.151,0,0.237,0.096,0.237,0.351c0,0.159-0.022,0.243-0.124,0.64l-0.44,1.763
		c-0.023,0.113-0.068,0.289-0.068,0.323c0,0.14,0.107,0.208,0.22,0.208c0.091,0,0.231-0.062,0.283-0.214
		c0.006-0.018,0.102-0.374,0.147-0.566l0.164-0.684c0.044-0.17,0.096-0.332,0.13-0.51c0.033-0.129,0.09-0.35,0.102-0.384
		c0.113-0.236,0.52-0.927,1.243-0.927c0.34,0,0.414,0.283,0.414,0.531c0,0.475-0.38,1.448-0.499,1.776
		c-0.066,0.175-0.078,0.265-0.078,0.35c0,0.362,0.271,0.627,0.627,0.627c0.719,0,1.001-1.112,1.001-1.176
		C56.19,199.746,56.122,199.746,56.1,199.746z"/>
</g>
<path d="M38.926,20.816c-1.587,1.388-2.975,1.588-3.695,1.588c-1.081,0-1.616-0.814-1.616-1.961c0-0.881,0.469-2.83,1.042-3.75
	c0.841-1.308,1.814-1.654,2.441-1.654c1.789,0,1.789,2.362,1.789,3.763C38.887,19.468,38.887,20.509,38.926,20.816 M40.128,18.348
	c0-2.815-1.669-3.697-3.004-3.697c-2.468,0-4.844,2.562-4.844,5.111c0,1.668,1.082,3.029,2.923,3.029
	c1.135,0,2.428-0.413,3.79-1.508c0.24,0.962,0.827,1.508,1.642,1.508c0.946,0,1.508-0.987,1.508-1.267
	c0-0.134-0.107-0.188-0.214-0.188c-0.133,0-0.188,0.054-0.239,0.188c-0.321,0.881-0.962,0.881-1.002,0.881
	c-0.56,0-0.56-1.401-0.56-1.842c0-0.373,0-0.414,0.187-0.627c1.681-2.122,2.068-4.216,2.068-4.23c0-0.04-0.027-0.173-0.214-0.173
	s-0.187,0.053-0.28,0.373c-0.319,1.134-0.907,2.495-1.761,3.562V18.348z"/>
<path d="M36.698,67.454h2.238c-0.647,2.931-0.84,3.785-0.84,5.126c0,0.296,0,0.825,0.161,1.503c0.207,0.869,0.429,1.002,0.723,1.002
	c0.397,0,0.811-0.368,0.811-0.766c0-0.119,0-0.163-0.118-0.429c-0.574-1.443-0.574-2.724-0.574-3.284
	c0-1.046,0.133-2.122,0.354-3.152h2.268c0.251,0,0.973,0,0.973-0.679c0-0.485-0.413-0.485-0.796-0.485h-6.658
	c-0.428,0-1.193,0-2.062,0.942c-0.691,0.767-1.208,1.68-1.208,1.783c0,0.014,0,0.206,0.236,0.206c0.161,0,0.19-0.089,0.309-0.25
	c0.988-1.518,2.136-1.518,2.534-1.518h1.134c-0.647,2.401-1.709,4.803-2.548,6.614c-0.162,0.295-0.162,0.339-0.162,0.471
	c0,0.384,0.323,0.53,0.574,0.53c0.604,0,0.766-0.544,1.002-1.281c0.279-0.912,0.279-0.958,0.53-1.944L36.698,67.454"/>
<path d="M104.839,67.294c0.114-0.456,0.143-0.589,1.074-0.589c0.333,0,0.437,0,0.437-0.257c0-0.143-0.143-0.143-0.181-0.143
	c-0.361,0-1.282,0.038-1.634,0.038c-0.381,0-1.284-0.038-1.655-0.038c-0.104,0-0.246,0-0.246,0.256c0,0.144,0.113,0.144,0.36,0.144
	c0.019,0,0.267,0,0.485,0.028c0.228,0.029,0.342,0.038,0.342,0.199c0,0.058-0.009,0.086-0.048,0.247l-0.77,3.128h-3.907l0.752-3.014
	c0.113-0.456,0.151-0.589,1.073-0.589c0.343,0,0.438,0,0.438-0.257c0-0.143-0.133-0.143-0.181-0.143
	c-0.352,0-1.274,0.038-1.636,0.038c-0.37,0-1.282-0.038-1.653-0.038c-0.104,0-0.246,0-0.246,0.256c0,0.144,0.113,0.144,0.361,0.144
	c0.028,0,0.266,0,0.484,0.028c0.229,0.029,0.352,0.038,0.352,0.199c0,0.058-0.019,0.096-0.058,0.247l-1.711,6.882
	c-0.133,0.504-0.161,0.608-1.169,0.608c-0.237,0-0.352,0-0.352,0.257c0,0.143,0.152,0.143,0.18,0.143
	c0.362,0,1.275-0.038,1.626-0.038c0.276,0,0.562,0.01,0.827,0.01c0.276,0,0.561,0.028,0.827,0.028c0.104,0,0.257,0,0.257-0.257
	c0-0.143-0.114-0.143-0.353-0.143c-0.475,0-0.836,0-0.836-0.229c0-0.085,0.028-0.143,0.039-0.218l0.874-3.518h3.906
	c-0.542,2.13-0.827,3.347-0.884,3.536c-0.125,0.408-0.371,0.428-1.169,0.428c-0.19,0-0.306,0-0.306,0.257
	c0,0.143,0.153,0.143,0.182,0.143c0.361,0,1.265-0.048,1.625-0.048c0.267,0,0.552,0.02,0.828,0.02c0.275,0,0.56,0.028,0.826,0.028
	c0.104,0,0.257,0,0.257-0.257c0-0.143-0.114-0.143-0.36-0.143c-0.477,0-0.828,0-0.828-0.238c0-0.075,0.02-0.133,0.038-0.208
	L104.839,67.294"/>
<g>
	<path d="M32.653,123.867c1.028-1.128,1.6-1.601,2.286-2.199c0-0.015,1.198-1.043,1.885-1.729c1.828-1.8,2.256-2.728,2.256-2.8
		c0-0.199-0.17-0.199-0.214-0.199c-0.128,0-0.186,0.043-0.285,0.215c-0.571,0.927-0.986,1.241-1.443,1.241s-0.699-0.3-0.984-0.628
		c-0.373-0.443-0.687-0.828-1.328-0.828c-1.441,0-2.329,1.8-2.329,2.199c0,0.101,0.058,0.214,0.229,0.214
		c0.17,0,0.214-0.1,0.257-0.214c0.357-0.886,1.472-0.899,1.628-0.899c0.415,0,0.771,0.128,1.214,0.285
		c0.771,0.285,0.986,0.285,1.485,0.285c-0.699,0.829-2.314,2.214-2.67,2.528l-1.744,1.614c-1.312,1.299-1.983,2.384-1.983,2.527
		c0,0.186,0.2,0.186,0.227,0.186c0.159,0,0.201-0.029,0.315-0.243c0.444-0.671,1.014-1.198,1.643-1.198
		c0.443,0,0.629,0.171,1.114,0.728c0.329,0.413,0.671,0.714,1.228,0.714c1.913,0,3.028-2.441,3.028-2.956
		c0-0.101-0.071-0.2-0.229-0.2c-0.17,0-0.214,0.114-0.27,0.257c-0.443,1.244-1.671,1.614-2.315,1.614
		c-0.384,0-0.729-0.114-1.141-0.242c-0.645-0.259-0.943-0.329-1.345-0.329C33.125,123.81,32.825,123.81,32.653,123.867"/>
	<path d="M40.651,126.78c-0.042,0.186-0.114,0.342-0.114,0.571c0,0.628,0.543,1.143,1.271,1.143c1.345,0,1.942-1.857,1.942-2.056
		c0-0.173-0.17-0.173-0.214-0.173c-0.186,0-0.199,0.071-0.256,0.229c-0.313,1.071-0.9,1.628-1.431,1.628
		c-0.27,0-0.342-0.186-0.342-0.47c0-0.314,0.102-0.572,0.229-0.872c0.128-0.357,0.271-0.729,0.428-1.071
		c0.115-0.328,0.601-1.542,0.658-1.714c0.042-0.128,0.084-0.285,0.084-0.429c0-0.628-0.541-1.143-1.284-1.143
		c-1.329,0-1.942,1.828-1.942,2.057c0,0.186,0.186,0.186,0.229,0.186c0.185,0,0.198-0.07,0.242-0.228
		c0.343-1.144,0.928-1.629,1.428-1.629c0.215,0,0.343,0.1,0.343,0.472c0,0.3-0.086,0.5-0.415,1.343L40.651,126.78 M43.395,119.954
		c0-0.215-0.158-0.515-0.529-0.515s-0.757,0.357-0.757,0.743c0,0.229,0.172,0.514,0.543,0.514
		C43.037,120.696,43.395,120.324,43.395,119.954z"/>
</g>
<g>
	<path d="M35.564,172.643c0.104-0.456,0.508-2.069,1.73-2.069c0.091,0,0.506,0,0.885,0.234c-0.495,0.078-0.847,0.521-0.847,0.95
		c0,0.272,0.196,0.611,0.665,0.611c0.39,0,0.948-0.326,0.948-1.015c0-0.924-1.041-1.158-1.626-1.158
		c-1.027,0-1.639,0.924-1.847,1.327c-0.442-1.159-1.393-1.327-1.899-1.327c-1.82,0-2.823,2.264-2.823,2.693
		c0,0.181,0.184,0.181,0.208,0.181c0.144,0,0.196-0.038,0.234-0.193c0.6-1.861,1.756-2.304,2.354-2.304
		c0.326,0,0.937,0.156,0.937,1.185c0,0.533-0.285,1.716-0.937,4.175c-0.287,1.08-0.896,1.821-1.679,1.821
		c-0.103,0-0.506,0-0.869-0.233c0.441-0.092,0.818-0.455,0.818-0.949c0-0.47-0.377-0.612-0.637-0.612
		c-0.534,0-0.978,0.454-0.978,1.015c0,0.819,0.886,1.157,1.653,1.157c1.157,0,1.796-1.223,1.847-1.327
		c0.209,0.651,0.846,1.327,1.886,1.327c1.81,0,2.81-2.263,2.81-2.692c0-0.182-0.154-0.182-0.207-0.182
		c-0.156,0-0.194,0.077-0.221,0.194c-0.586,1.874-1.782,2.303-2.342,2.303c-0.677,0-0.963-0.559-0.963-1.158
		c0-0.39,0.104-0.78,0.299-1.548L35.564,172.643"/>
	<path d="M41.184,179.146c-0.053,0.17-0.104,0.312-0.104,0.521c0,0.572,0.48,1.041,1.157,1.041c1.223,0,1.77-1.691,1.77-1.873
		c0-0.156-0.17-0.156-0.195-0.156c-0.182,0-0.195,0.064-0.235,0.208c-0.285,0.975-0.819,1.482-1.3,1.482
		c-0.247,0-0.312-0.168-0.312-0.429c0-0.287,0.091-0.521,0.195-0.794c0.13-0.324,0.26-0.663,0.39-0.976
		c0.116-0.299,0.559-1.405,0.61-1.561c0.039-0.118,0.066-0.261,0.066-0.391c0-0.572-0.481-1.04-1.158-1.04
		c-1.21,0-1.782,1.665-1.782,1.873c0,0.169,0.182,0.169,0.209,0.169c0.182,0,0.193-0.064,0.222-0.208
		c0.323-1.041,0.858-1.482,1.312-1.482c0.195,0,0.312,0.091,0.312,0.429c0,0.273-0.079,0.454-0.391,1.223L41.184,179.146
		 M43.682,172.929c0-0.195-0.144-0.469-0.495-0.469c-0.325,0-0.676,0.326-0.676,0.677c0,0.207,0.155,0.468,0.481,0.468
		C43.356,173.604,43.682,173.267,43.682,172.929z"/>
</g>
<g>
</g>
<g>
</g>
<g>
</g>
<g>
</g>
<g>
</g>
<g>
</g>
<g>
</g>
</svg>
