<?xml version="1.0" encoding="utf-8" standalone="no"?>
<!DOCTYPE svg PUBLIC "-//W3C//DTD SVG 1.1//EN"
  "http://www.w3.org/Graphics/SVG/1.1/DTD/svg11.dtd">
<!-- Created with matplotlib (http://matplotlib.org/) -->
<svg height="514pt" version="1.1" viewBox="0 0 748 514" width="748pt" xmlns="http://www.w3.org/2000/svg" xmlns:xlink="http://www.w3.org/1999/xlink">
 <defs>
  <style type="text/css">
*{stroke-linecap:butt;stroke-linejoin:round;}
  </style>
 </defs>
 <g id="figure_1">
  <g id="patch_1">
   <path d="
M0 514.8
L748.8 514.8
L748.8 0
L0 0
z
" style="fill:#ffffff;"/>
  </g>
  <g id="axes_1">
   <g id="patch_2">
    <path d="
M93.6 450.45
L673.92 450.45
L673.92 51.48
L93.6 51.48
z
" style="fill:#eaeaf2;"/>
   </g>
   <g id="matplotlib.axis_1">
    <g id="xtick_1">
     <g id="line2d_1">
      <path clip-path="url(#pd831f6c710)" d="
M93.6 450.45
L93.6 51.48" style="fill:none;stroke:#ffffff;stroke-linecap:round;stroke-width:1.3;"/>
     </g>
     <g id="line2d_2">
      <defs>
       <path d="
M0 0
L0 0" id="m56cc5124a0" style="stroke:#262626;stroke-width:1.3;"/>
      </defs>
      <g>
       <use style="fill:#262626;stroke:#262626;stroke-width:1.3;" x="93.6" xlink:href="#m56cc5124a0" y="450.45"/>
      </g>
     </g>
     <g id="line2d_3">
      <g>
       <use style="fill:#262626;stroke:#262626;stroke-width:1.3;" x="93.6" xlink:href="#m56cc5124a0" y="51.48"/>
      </g>
     </g>
     <g id="text_1">
      <!-- 0.0 -->
      <defs>
       <path d="
M6.29688 -0.5
Q3.20312 2.59375 3.20312 4.89062
Q3.20312 7.20312 4.75 8.79688
Q6.29688 10.4062 8.59375 10.4062
Q10.7969 10.4062 12.3438 8.79688
Q13.9062 7.20312 13.9062 4.89062
Q13.9062 2.59375 12.3438 1.04688
Q10.7969 -0.5 8.59375 -0.5
Q6.29688 -0.5 3.20312 2.59375" id="CalibreRegular-2e"/>
       <path d="
M49.7969 16.5938
Q37.0938 -0.90625 26.8906 -0.90625
Q16.7031 -0.90625 10.3438 7.84375
Q4 16.5938 4 30.6875
Q4 44.7969 10.3438 53.5469
Q16.7031 62.2969 26.8906 62.2969
Q37.0938 62.2969 43.4375 53.5469
Q49.7969 44.7969 49.7969 30.6875
Q49.7969 16.5938 37.0938 -0.90625
M26.9062 55.2031
Q19.5938 55.2031 15.6406 48.5
Q11.7031 41.7969 11.7031 30.6875
Q11.7031 19.5938 15.6406 12.8906
Q19.5938 6.20312 26.9062 6.20312
Q34.0938 6.20312 38.0938 12.9531
Q42.0938 19.7031 42.0938 30.7031
Q42.0938 41.7031 38.0938 48.4531
Q34.0938 55.2031 26.9062 55.2031" id="CalibreRegular-30"/>
      </defs>
      <g style="fill:#262626;" transform="translate(85.25684375 468.845)scale(0.14300000000000002 -0.14300000000000002)">
       <use xlink:href="#CalibreRegular-30"/>
       <use x="53.79998779296875" xlink:href="#CalibreRegular-2e"/>
       <use x="70.89997863769531" xlink:href="#CalibreRegular-30"/>
      </g>
     </g>
    </g>
    <g id="xtick_2">
     <g id="line2d_4">
      <path clip-path="url(#pd831f6c710)" d="
M209.664 450.45
L209.664 51.48" style="fill:none;stroke:#ffffff;stroke-linecap:round;stroke-width:1.3;"/>
     </g>
     <g id="line2d_5">
      <g>
       <use style="fill:#262626;stroke:#262626;stroke-width:1.3;" x="209.664" xlink:href="#m56cc5124a0" y="450.45"/>
      </g>
     </g>
     <g id="line2d_6">
      <g>
       <use style="fill:#262626;stroke:#262626;stroke-width:1.3;" x="209.664" xlink:href="#m56cc5124a0" y="51.48"/>
      </g>
     </g>
     <g id="text_2">
      <!-- 0.2 -->
      <defs>
       <path d="
M34.0938 44.9062
Q34.0938 49.5938 31.0938 52.4375
Q28.0938 55.2969 23 55.2969
Q17.5938 55.2969 14.5469 51.9375
Q11.5 48.5938 11 43
L2.90625 43
Q3.79688 51.7031 9.1875 57
Q14.5938 62.2969 23 62.2969
Q31.7031 62.2969 36.7031 57.5938
Q41.7031 52.9062 41.7031 45
Q41.7031 43.5938 41.3438 42.0938
Q41 40.5938 40.6406 39.5
Q40.2969 38.4062 39.3438 36.75
Q38.4062 35.0938 37.9062 34.2969
Q37.4062 33.5 35.9062 31.7031
Q34.4062 29.9062 33.9062 29.2969
Q33.4062 28.7031 31.5469 26.6406
Q29.7031 24.5938 29.2969 24.0938
L13.7031 7
L43 7
L43 0
L2.90625 0
L2.90625 5.20312
L22.7031 27
Q27.2031 32 28.7969 33.7969
Q30.4062 35.5938 32.25 38.8906
Q34.0938 42.2031 34.0938 44.9062" id="CalibreRegular-32"/>
      </defs>
      <g style="fill:#262626;" transform="translate(201.806820313 468.845)scale(0.14300000000000002 -0.14300000000000002)">
       <use xlink:href="#CalibreRegular-30"/>
       <use x="53.79998779296875" xlink:href="#CalibreRegular-2e"/>
       <use x="70.89997863769531" xlink:href="#CalibreRegular-32"/>
      </g>
     </g>
    </g>
    <g id="xtick_3">
     <g id="line2d_7">
      <path clip-path="url(#pd831f6c710)" d="
M325.728 450.45
L325.728 51.48" style="fill:none;stroke:#ffffff;stroke-linecap:round;stroke-width:1.3;"/>
     </g>
     <g id="line2d_8">
      <g>
       <use style="fill:#262626;stroke:#262626;stroke-width:1.3;" x="325.728" xlink:href="#m56cc5124a0" y="450.45"/>
      </g>
     </g>
     <g id="line2d_9">
      <g>
       <use style="fill:#262626;stroke:#262626;stroke-width:1.3;" x="325.728" xlink:href="#m56cc5124a0" y="51.48"/>
      </g>
     </g>
     <g id="text_3">
      <!-- 0.4 -->
      <defs>
       <path d="
M33.7969 61.4062
L10.9062 20.5
L30.5 20.5
L30.5 35.2969
L37.7969 35.2969
L37.7969 20.5
L48.5938 20.5
L48.5938 13.9062
L37.7969 13.9062
L37.7969 0
L30.5 0
L30.5 13.9062
L2.20312 13.9062
L2.20312 19.5
L25.7969 61.4062
z
" id="CalibreRegular-34"/>
      </defs>
      <g style="fill:#262626;" transform="translate(317.470867188 468.845)scale(0.14300000000000002 -0.14300000000000002)">
       <use xlink:href="#CalibreRegular-30"/>
       <use x="53.79998779296875" xlink:href="#CalibreRegular-2e"/>
       <use x="70.89997863769531" xlink:href="#CalibreRegular-34"/>
      </g>
     </g>
    </g>
    <g id="xtick_4">
     <g id="line2d_10">
      <path clip-path="url(#pd831f6c710)" d="
M441.792 450.45
L441.792 51.48" style="fill:none;stroke:#ffffff;stroke-linecap:round;stroke-width:1.3;"/>
     </g>
     <g id="line2d_11">
      <g>
       <use style="fill:#262626;stroke:#262626;stroke-width:1.3;" x="441.792" xlink:href="#m56cc5124a0" y="450.45"/>
      </g>
     </g>
     <g id="line2d_12">
      <g>
       <use style="fill:#262626;stroke:#262626;stroke-width:1.3;" x="441.792" xlink:href="#m56cc5124a0" y="51.48"/>
      </g>
     </g>
     <g id="text_4">
      <!-- 0.6 -->
      <defs>
       <path d="
M12.7031 19.5938
Q12.7031 13.5938 16.3906 9.6875
Q20.0938 5.79688 26 5.79688
Q31.7969 5.79688 35.5 9.64062
Q39.2031 13.5 39.2031 19.5938
Q39.2031 25.7031 35.5 29.6406
Q31.7969 33.5938 26 33.5938
Q20.0938 33.5938 16.3906 29.6875
Q12.7031 25.7969 12.7031 19.5938
M45.5938 47.0938
L37.7969 47.0938
Q35 55.7969 26.5 55.7969
Q19.7969 55.7969 15.3906 49.0469
Q11 42.2969 11 32.2969
Q11 32 11.0469 30.9531
Q11.0938 29.9062 11.0938 29.5938
Q12.5938 34.2969 16.8906 37.1875
Q21.2031 40.0938 26.5938 40.0938
Q35.2969 40.0938 40.8906 34.1406
Q46.5 28.2031 46.5 19.7031
Q46.5 11 40.7969 5.04688
Q35.0938 -0.90625 25.9062 -0.90625
Q13.4062 -0.90625 7.59375 10.7969
Q4 18.4062 4 29.5938
Q4 44.4062 10.25 53.3438
Q16.5 62.2969 26.5 62.2969
Q41.7031 62.2969 45.5938 47.0938" id="CalibreRegular-36"/>
      </defs>
      <g style="fill:#262626;" transform="translate(433.684570313 468.845)scale(0.14300000000000002 -0.14300000000000002)">
       <use xlink:href="#CalibreRegular-30"/>
       <use x="53.79998779296875" xlink:href="#CalibreRegular-2e"/>
       <use x="70.89997863769531" xlink:href="#CalibreRegular-36"/>
      </g>
     </g>
    </g>
    <g id="xtick_5">
     <g id="line2d_13">
      <path clip-path="url(#pd831f6c710)" d="
M557.856 450.45
L557.856 51.48" style="fill:none;stroke:#ffffff;stroke-linecap:round;stroke-width:1.3;"/>
     </g>
     <g id="line2d_14">
      <g>
       <use style="fill:#262626;stroke:#262626;stroke-width:1.3;" x="557.856" xlink:href="#m56cc5124a0" y="450.45"/>
      </g>
     </g>
     <g id="line2d_15">
      <g>
       <use style="fill:#262626;stroke:#262626;stroke-width:1.3;" x="557.856" xlink:href="#m56cc5124a0" y="51.48"/>
      </g>
     </g>
     <g id="text_5">
      <!-- 0.8 -->
      <defs>
       <path d="
M24.2969 5.5
Q30.2031 5.5 33.9531 8.79688
Q37.7031 12.0938 37.7031 17.2969
Q37.7031 22.5 33.9531 25.75
Q30.2031 29 24.2969 29
Q18.5 29 14.75 25.75
Q11 22.5 11 17.2969
Q11 12.0938 14.75 8.79688
Q18.5 5.5 24.2969 5.5
M24.2969 35.5938
Q29.2031 35.5938 32.3906 38.3906
Q35.5938 41.2031 35.5938 45.7031
Q35.5938 50.2031 32.3906 53.0469
Q29.2031 55.9062 24.2969 55.9062
Q19.5 55.9062 16.2969 53.0469
Q13.0938 50.2031 13.0938 45.7031
Q13.0938 41.2969 16.2969 38.4375
Q19.5 35.5938 24.2969 35.5938
M24.2969 -0.90625
Q15.2969 -0.90625 9.34375 4
Q3.40625 8.90625 3.40625 16.7031
Q3.40625 22.5 6.75 26.7031
Q10.0938 30.9062 15.4062 32.2969
Q11 33.7969 8.29688 37.5
Q5.59375 41.2031 5.59375 46.0938
Q5.59375 53.4062 10.9375 57.8438
Q16.2969 62.2969 24.2969 62.2969
Q32.4062 62.2969 37.75 57.8438
Q43.0938 53.4062 43.0938 46.0938
Q43.0938 41.2031 40.3438 37.5469
Q37.5938 33.9062 33.2969 32.2969
Q38.5 30.9062 41.8906 26.7031
Q45.2969 22.5 45.2969 16.7031
Q45.2969 8.90625 39.3438 4
Q33.4062 -0.90625 24.2969 -0.90625" id="CalibreRegular-38"/>
      </defs>
      <g style="fill:#262626;" transform="translate(549.83459375 468.845)scale(0.14300000000000002 -0.14300000000000002)">
       <use xlink:href="#CalibreRegular-30"/>
       <use x="53.79998779296875" xlink:href="#CalibreRegular-2e"/>
       <use x="70.89997863769531" xlink:href="#CalibreRegular-38"/>
      </g>
     </g>
    </g>
    <g id="xtick_6">
     <g id="line2d_16">
      <path clip-path="url(#pd831f6c710)" d="
M673.92 450.45
L673.92 51.48" style="fill:none;stroke:#ffffff;stroke-linecap:round;stroke-width:1.3;"/>
     </g>
     <g id="line2d_17">
      <g>
       <use style="fill:#262626;stroke:#262626;stroke-width:1.3;" x="673.92" xlink:href="#m56cc5124a0" y="450.45"/>
      </g>
     </g>
     <g id="line2d_18">
      <g>
       <use style="fill:#262626;stroke:#262626;stroke-width:1.3;" x="673.92" xlink:href="#m56cc5124a0" y="51.48"/>
      </g>
     </g>
     <g id="text_6">
      <!-- 1.0 -->
      <defs>
       <path d="
M25.4062 61.5
L25.4062 0
L17.7031 0
L17.7031 52
L2.5 44.2031
L2.5 52.2031
L20.7031 61.5
z
" id="CalibreRegular-31"/>
      </defs>
      <g style="fill:#262626;" transform="translate(666.963273438 468.845)scale(0.14300000000000002 -0.14300000000000002)">
       <use xlink:href="#CalibreRegular-31"/>
       <use x="32.899993896484375" xlink:href="#CalibreRegular-2e"/>
       <use x="49.99998474121094" xlink:href="#CalibreRegular-30"/>
      </g>
     </g>
    </g>
   </g>
   <g id="matplotlib.axis_2">
    <g id="ytick_1">
     <g id="line2d_19">
      <path clip-path="url(#pd831f6c710)" d="
M93.6 448.465
L673.92 448.465" style="fill:none;stroke:#ffffff;stroke-linecap:round;stroke-width:1.3;"/>
     </g>
     <g id="line2d_20">
      <g>
       <use style="fill:#262626;stroke:#262626;stroke-width:1.3;" x="93.6" xlink:href="#m56cc5124a0" y="448.465074627"/>
      </g>
     </g>
     <g id="line2d_21">
      <g>
       <use style="fill:#262626;stroke:#262626;stroke-width:1.3;" x="673.92" xlink:href="#m56cc5124a0" y="448.465074627"/>
      </g>
     </g>
     <g id="text_7">
      <!-- 0.0 -->
      <g style="fill:#262626;" transform="translate(67.8136875 451.897074627)scale(0.14300000000000002 -0.14300000000000002)">
       <use xlink:href="#CalibreRegular-30"/>
       <use x="53.79998779296875" xlink:href="#CalibreRegular-2e"/>
       <use x="70.89997863769531" xlink:href="#CalibreRegular-30"/>
      </g>
     </g>
    </g>
    <g id="ytick_2">
     <g id="line2d_22">
      <path clip-path="url(#pd831f6c710)" d="
M93.6 349.219
L673.92 349.219" style="fill:none;stroke:#ffffff;stroke-linecap:round;stroke-width:1.3;"/>
     </g>
     <g id="line2d_23">
      <g>
       <use style="fill:#262626;stroke:#262626;stroke-width:1.3;" x="93.6" xlink:href="#m56cc5124a0" y="349.21880597"/>
      </g>
     </g>
     <g id="line2d_24">
      <g>
       <use style="fill:#262626;stroke:#262626;stroke-width:1.3;" x="673.92" xlink:href="#m56cc5124a0" y="349.21880597"/>
      </g>
     </g>
     <g id="text_8">
      <!-- 0.5 -->
      <defs>
       <path d="
M23.7031 33
Q17.2031 33 12.7969 27.7031
L6.59375 27.7031
L6.59375 61.4062
L40.2031 61.4062
L40.2031 54.4062
L13.2031 54.4062
L13.2031 35.9062
Q17.5 39.7969 24.4062 39.7969
Q32.9062 39.7969 38.2969 34.0469
Q43.7031 28.2969 43.7031 19.4062
Q43.7031 10.7031 38.0938 4.89062
Q32.5 -0.90625 23.7969 -0.90625
Q15 -0.90625 9.39062 4
Q3.79688 8.90625 2.70312 17.5
L10.4062 17.5
Q12.5 5.90625 23.7969 5.90625
Q29.2969 5.90625 32.7969 9.75
Q36.2969 13.5938 36.2969 19.3906
Q36.2969 25.2031 32.7969 29.0938
Q29.2969 33 23.7031 33" id="CalibreRegular-35"/>
      </defs>
      <g style="fill:#262626;" transform="translate(68.68509375 352.65080597)scale(0.14300000000000002 -0.14300000000000002)">
       <use xlink:href="#CalibreRegular-30"/>
       <use x="53.79998779296875" xlink:href="#CalibreRegular-2e"/>
       <use x="70.89997863769531" xlink:href="#CalibreRegular-35"/>
      </g>
     </g>
    </g>
    <g id="ytick_3">
     <g id="line2d_25">
      <path clip-path="url(#pd831f6c710)" d="
M93.6 249.973
L673.92 249.973" style="fill:none;stroke:#ffffff;stroke-linecap:round;stroke-width:1.3;"/>
     </g>
     <g id="line2d_26">
      <g>
       <use style="fill:#262626;stroke:#262626;stroke-width:1.3;" x="93.6" xlink:href="#m56cc5124a0" y="249.972537313"/>
      </g>
     </g>
     <g id="line2d_27">
      <g>
       <use style="fill:#262626;stroke:#262626;stroke-width:1.3;" x="673.92" xlink:href="#m56cc5124a0" y="249.972537313"/>
      </g>
     </g>
     <g id="text_9">
      <!-- 1.0 -->
      <g style="fill:#262626;" transform="translate(70.586546875 253.404537313)scale(0.14300000000000002 -0.14300000000000002)">
       <use xlink:href="#CalibreRegular-31"/>
       <use x="32.899993896484375" xlink:href="#CalibreRegular-2e"/>
       <use x="49.99998474121094" xlink:href="#CalibreRegular-30"/>
      </g>
     </g>
    </g>
    <g id="ytick_4">
     <g id="line2d_28">
      <path clip-path="url(#pd831f6c710)" d="
M93.6 150.726
L673.92 150.726" style="fill:none;stroke:#ffffff;stroke-linecap:round;stroke-width:1.3;"/>
     </g>
     <g id="line2d_29">
      <g>
       <use style="fill:#262626;stroke:#262626;stroke-width:1.3;" x="93.6" xlink:href="#m56cc5124a0" y="150.726268657"/>
      </g>
     </g>
     <g id="line2d_30">
      <g>
       <use style="fill:#262626;stroke:#262626;stroke-width:1.3;" x="673.92" xlink:href="#m56cc5124a0" y="150.726268657"/>
      </g>
     </g>
     <g id="text_10">
      <!-- 1.5 -->
      <g style="fill:#262626;" transform="translate(71.457953125 154.158268657)scale(0.14300000000000002 -0.14300000000000002)">
       <use xlink:href="#CalibreRegular-31"/>
       <use x="32.899993896484375" xlink:href="#CalibreRegular-2e"/>
       <use x="49.99998474121094" xlink:href="#CalibreRegular-35"/>
      </g>
     </g>
    </g>
    <g id="ytick_5">
     <g id="line2d_31">
      <path clip-path="url(#pd831f6c710)" d="
M93.6 51.48
L673.92 51.48" style="fill:none;stroke:#ffffff;stroke-linecap:round;stroke-width:1.3;"/>
     </g>
     <g id="line2d_32">
      <g>
       <use style="fill:#262626;stroke:#262626;stroke-width:1.3;" x="93.6" xlink:href="#m56cc5124a0" y="51.48"/>
      </g>
     </g>
     <g id="line2d_33">
      <g>
       <use style="fill:#262626;stroke:#262626;stroke-width:1.3;" x="673.92" xlink:href="#m56cc5124a0" y="51.48"/>
      </g>
     </g>
     <g id="text_11">
      <!-- 2.0 -->
      <g style="fill:#262626;" transform="translate(68.8146875 54.912)scale(0.14300000000000002 -0.14300000000000002)">
       <use xlink:href="#CalibreRegular-32"/>
       <use x="45.69999694824219" xlink:href="#CalibreRegular-2e"/>
       <use x="62.79998779296875" xlink:href="#CalibreRegular-30"/>
      </g>
     </g>
    </g>
   </g>
   <g id="line2d_34">
    <path clip-path="url(#pd831f6c710)" d="
M93.6 448.465
L673.92 448.465" style="fill:none;stroke:#dcdce6;stroke-linecap:round;stroke-width:2;"/>
   </g>
   <g id="line2d_35">
    <path clip-path="url(#pd831f6c710)" d="
M93.6 450.45
L93.6 51.48" style="fill:none;stroke:#dcdce6;stroke-linecap:round;stroke-width:2;"/>
   </g>
   <g id="line2d_36">
    <path clip-path="url(#pd831f6c710)" d="
M93.6 448.465
L102.314 430.851
L110.446 414.896
L118.579 399.409
L126.711 384.39
L134.844 369.838
L142.977 355.754
L151.109 342.138
L158.661 329.914
L166.213 318.093
L173.764 306.675
L181.316 295.66
L188.868 285.049
L196.419 274.841
L203.39 265.777
L210.361 257.056
L217.332 248.678
L224.303 240.645
L231.274 232.955
L238.244 225.609
L245.215 218.606
L251.605 212.489
L257.995 206.661
L264.385 201.121
L270.775 195.871
L277.165 190.909
L283.555 186.236
L289.945 181.851
L296.334 177.756
L302.143 174.283
L307.952 171.049
L313.761 168.054
L319.57 165.297
L325.379 162.779
L331.188 160.5
L336.997 158.459
L342.806 156.657
L348.615 155.094
L354.425 153.77
L360.234 152.684
L366.043 151.836
L371.852 151.228
L377.661 150.858
L383.47 150.727
L389.279 150.834
L395.088 151.18
L400.897 151.765
L406.706 152.588
L412.515 153.65
L418.324 154.951
L424.133 156.49
L429.942 158.268
L435.751 160.285
L441.56 162.541
L447.369 165.035
L453.178 167.767
L458.987 170.739
L464.796 173.949
L470.605 177.398
L476.414 181.085
L482.804 185.417
L489.194 190.038
L495.583 194.947
L501.973 200.145
L508.363 205.632
L514.753 211.408
L521.143 217.472
L527.533 223.826
L534.504 231.086
L541.475 238.69
L548.445 246.638
L555.416 254.929
L562.387 263.564
L569.358 272.543
L576.329 281.865
L583.88 292.352
L591.432 303.243
L598.984 314.536
L606.535 326.234
L614.087 338.334
L621.639 350.838
L629.772 364.755
L637.904 379.139
L646.037 393.991
L654.169 409.312
L662.302 425.099
L670.435 441.355
L673.92 448.465
L673.92 448.465" style="fill:none;stroke:#386df9;stroke-linecap:round;stroke-width:2.275;"/>
   </g>
   <g id="patch_3">
    <path d="
M93.6 450.45
L93.6 51.48" style="fill:none;"/>
   </g>
   <g id="patch_4">
    <path d="
M93.6 51.48
L673.92 51.48" style="fill:none;"/>
   </g>
   <g id="patch_5">
    <path d="
M673.92 450.45
L673.92 51.48" style="fill:none;"/>
   </g>
   <g id="patch_6">
    <path d="
M93.6 450.45
L673.92 450.45" style="fill:none;"/>
   </g>
   <g id="text_12">
    <!-- Negative (Light-Tailed) Kurtosis -->
    <defs>
     <path d="
M33 45.2969
Q44.2969 32.4062 44.2969 22.2031
Q44.2969 12 38.6406 5.54688
Q33 -0.90625 23.8906 -0.90625
Q14.7969 -0.90625 9.14062 5.54688
Q3.5 12 3.5 22.2031
Q3.5 32.4062 9.14062 38.8438
Q14.7969 45.2969 23.8906 45.2969
Q33 45.2969 44.2969 32.4062
M29.7969 5.70312
Q36.7031 14.7969 36.7031 22.1875
Q36.7031 29.5938 33.25 34.1406
Q29.7969 38.7031 23.8906 38.7031
Q18 38.7031 14.5469 34.1406
Q11.0938 29.5938 11.0938 22.1875
Q11.0938 14.7969 14.5469 10.25
Q18 5.70312 23.8906 5.70312
Q29.7969 5.70312 36.7031 14.7969" id="CalibreRegular-6f"/>
     <path d="
M3 12.2031
L10.7969 12.2031
Q12.9062 5.40625 21.2969 5.40625
Q25.4062 5.40625 27.9062 7.04688
Q30.4062 8.70312 30.4062 12
Q30.4062 16.5 23.7969 18.2031
L15 20.5
Q4.29688 23.2031 4.29688 32.2031
Q4.29688 38 8.79688 41.6406
Q13.2969 45.2969 20.2031 45.2969
Q27.4062 45.2969 31.7969 42
Q36.2031 38.7031 37.4062 32.7031
L29.9062 32.7031
Q27.9062 39 20.0938 39
Q16.5938 39 14.0938 37.3438
Q11.5938 35.7031 11.5938 32.5938
Q11.5938 30.4062 13.0469 29.1562
Q14.5 27.9062 17.7969 27
L26.4062 24.9062
Q37.7031 21.9062 37.7031 12.5
Q37.7031 6.29688 33.0938 2.6875
Q28.5 -0.90625 21.2031 -0.90625
Q13.9062 -0.90625 8.95312 2.59375
Q4 6.09375 3 12.2031" id="CalibreRegular-73"/>
     <path d="
M29.5 44.5938
L29.5 36.9062
Q27.7031 38.0938 24.5 38.0938
Q20.9062 38.0938 18.0938 35.8906
Q15.2969 33.7031 14.2031 29.7969
L14.2031 0
L6.70312 0
L6.70312 44.4062
L14.2031 44.4062
L14.2031 38.5938
Q15.7031 41.5 18.6406 43.3906
Q21.5938 45.2969 25.2031 45.2969
Q28.0938 45.2969 29.5 44.5938" id="CalibreRegular-72"/>
     <path d="
M14.2031 44.4062
L14.2031 0
L6.70312 0
L6.70312 44.4062
z

M12.4062 62.5938
Q15.2969 59.7969 15.2969 57.7969
Q15.2969 55.7969 13.8438 54.3906
Q12.4062 53 10.4062 53
Q8.40625 53 7 54.3906
Q5.59375 55.7969 5.59375 57.7969
Q5.59375 59.7969 7 61.1875
Q8.40625 62.5938 10.4062 62.5938
Q12.4062 62.5938 15.2969 59.7969" id="CalibreRegular-69"/>
     <path d="
M55 61.4062
L55 0
L49.2031 0
L14.9062 48.7969
L14.9062 0
L7.29688 0
L7.29688 61.4062
L14.7969 61.4062
L47.5 14.7031
L47.5 61.4062
z
" id="CalibreRegular-4e"/>
     <path d="
M8.79688 11.2031
L8.79688 38
L1.59375 38
L1.59375 44.4062
L8.79688 44.4062
L8.79688 56.0938
L16.2969 56.0938
L16.2969 44.4062
L27 44.4062
L27 38
L16.2969 38
L16.2969 12
Q16.2969 5.79688 22.2031 5.79688
Q25.2969 5.79688 28 7.59375
L28 0.59375
Q25.2031 -0.90625 21 -0.90625
Q15.4062 -0.90625 12.0938 2.14062
Q8.79688 5.20312 8.79688 11.2031" id="CalibreRegular-74"/>
     <path d="
M35.7969 3
L35.7969 6.29688
Q34 3.79688 30.6406 2.04688
Q27.2969 0.296875 23.4062 0.296875
Q14.0938 0.296875 8.79688 6.89062
Q3.5 13.5 3.5 22.7969
Q3.5 32.2031 8.79688 38.75
Q14.0938 45.2969 23.4062 45.2969
Q27.2969 45.2969 30.6406 43.5938
Q34 41.9062 35.7969 39.4062
L35.7969 44.4062
L43.4062 44.4062
L43.4062 3.5
Q43.4062 -7.09375 37.9531 -12.5469
Q32.5 -18 23.5938 -18
Q15.5938 -18 10.6406 -14.0938
Q5.70312 -10.2031 4.59375 -3.29688
L12 -3.29688
Q13.9062 -11.5938 23.5938 -11.5938
Q35.7969 -11.5938 35.7969 3
M35.7969 14
L35.7969 31.7031
Q32 38.5938 24.5 38.5938
Q18.2969 38.5938 14.75 34.1875
Q11.2031 29.7969 11.2031 22.7969
Q11.2031 15.7969 14.75 11.4375
Q18.2969 7.09375 24.5 7.09375
Q32 7.09375 35.7969 14" id="CalibreRegular-67"/>
     <path d="
M26.4062 0
L19 0
L1.79688 44.4062
L9.90625 44.4062
L22.9062 9.5
L35.7969 44.4062
L43.7031 44.4062
z
" id="CalibreRegular-76"/>
     <path d="
M6.70312 0
L6.70312 65
L14.2031 65
L14.2031 38.7969
Q16.2969 41.5938 19.75 43.4375
Q23.2031 45.2969 27.2969 45.2969
Q34.7031 45.2969 38.7969 40.8906
Q42.9062 36.5 42.9062 29.0938
L42.9062 0
L35.2969 0
L35.2969 27.9062
Q35.2969 32.7031 32.8438 35.5469
Q30.4062 38.4062 25.5 38.4062
Q21.5938 38.4062 18.5 36.0469
Q15.4062 33.7031 14.2031 30.0938
L14.2031 0
z
" id="CalibreRegular-68"/>
     <path d="
M3 54.4062
L3 61.4062
L53.7031 61.4062
L53.7031 54.4062
L32.2969 54.4062
L32.2969 0
L24.4062 0
L24.4062 54.4062
z
" id="CalibreRegular-54"/>
     <path d="
M14.2031 65
L14.2031 0
L6.70312 0
L6.70312 65
z
" id="CalibreRegular-6c"/>
     <path d="
M4 22.5938
L4 29.5938
L28.0938 29.5938
L28.0938 22.5938
z
" id="CalibreRegular-2d"/>
     <path d="
M15.2031 61.4062
L15.2031 30.7031
L43.7969 61.4062
L53.7969 61.4062
L27.5 33.4062
L54.7031 0
L44.9062 0
L21.7969 28
L15.2031 20.9062
L15.2031 0
L7.29688 0
L7.29688 61.4062
z
" id="CalibreRegular-4b"/>
     <path d="
M14.5938 61.7969
Q29.0938 42 29.0938 28.2969
Q29.0938 14.5938 21.8438 4.6875
Q14.5938 -5.20312 2.29688 -8.40625
L2.29688 -0.40625
Q10.7031 1.70312 16.1406 9.39062
Q21.5938 17.0938 21.5938 28.2969
Q21.5938 39.5 16.1406 47.2031
Q10.7031 54.9062 2.29688 57
L2.29688 65
Q14.5938 61.7969 29.0938 42" id="CalibreRegular-29"/>
     <path d="
M7.29688 0
L7.29688 61.4062
L15.2031 61.4062
L15.2031 7.09375
L46.5 7.09375
L46.5 0
z
" id="CalibreRegular-4c"/>
     <path d="
M38.9062 0
L31.7031 0
L31.7031 3.29688
Q30.2969 1.79688 27 0.5
Q23.7031 -0.796875 20 -0.796875
Q13 -0.796875 8.25 3.09375
Q3.5 7 3.5 13.4062
Q3.5 19.5 8.39062 23.3906
Q13.2969 27.2969 20.5 27.2969
Q23.7969 27.2969 27 26.1875
Q30.2031 25.0938 31.7031 23.7031
L31.7031 29.2969
Q31.7031 33.5938 29.1406 36.1875
Q26.5938 38.7969 21.9062 38.7969
Q14.9062 38.7969 12.7969 32.7031
L5.40625 32.7031
Q6.5 38.2969 11.0469 41.7969
Q15.5938 45.2969 22 45.2969
Q29.9062 45.2969 34.4062 41.0938
Q38.9062 36.9062 38.9062 29.5938
z

M31.7031 11
L31.7031 15.5938
Q30.7031 18 27.75 19.5469
Q24.7969 21.0938 21.2969 21.0938
Q16.9062 21.0938 13.7969 19.0938
Q10.7031 17.0938 10.7031 13.4062
Q10.7031 9.59375 13.7969 7.54688
Q16.9062 5.5 21.2969 5.5
Q24.7969 5.5 27.75 7.04688
Q30.7031 8.59375 31.7031 11" id="CalibreRegular-61"/>
     <path d="
M17.5 -5.20312
Q3 14.5938 3 28.2969
Q3 42 10.25 51.8906
Q17.5 61.7969 29.7969 65
L29.7969 57
Q21.4062 54.9062 15.9531 47.2031
Q10.5 39.5 10.5 28.2969
Q10.5 17.0938 15.9531 9.39062
Q21.4062 1.70312 29.7969 -0.40625
L29.7969 -8.40625
Q17.5 -5.20312 3 14.5938" id="CalibreRegular-28"/>
     <path d="
M36 0
L36 5.20312
Q34.2031 2.59375 30.7969 0.84375
Q27.4062 -0.90625 23.5 -0.90625
Q14.0938 -0.90625 8.79688 5.6875
Q3.5 12.2969 3.5 22.2031
Q3.5 32 8.79688 38.6406
Q14.0938 45.2969 23.5 45.2969
Q27.4062 45.2969 30.7969 43.5469
Q34.2031 41.7969 36 39.2031
L36 65
L43.5938 65
L43.5938 0
z

M36 13.2031
L36 31.2031
Q34.2969 34.5938 31.25 36.5469
Q28.2031 38.5 24.5938 38.5
Q18.4062 38.5 14.75 33.9531
Q11.0938 29.4062 11.0938 22.2031
Q11.0938 15 14.75 10.4531
Q18.4062 5.90625 24.5938 5.90625
Q28.2031 5.90625 31.25 7.84375
Q34.2969 9.79688 36 13.2031" id="CalibreRegular-64"/>
     <path id="CalibreRegular-20"/>
     <path d="
M34.7031 13.2969
L41.7969 13.2969
Q40.5938 6.79688 35.8906 2.9375
Q31.2031 -0.90625 23.9062 -0.90625
Q14.7969 -0.90625 9.14062 5.4375
Q3.5 11.7969 3.5 22.0938
Q3.5 32.2031 9.09375 38.75
Q14.7031 45.2969 23.7031 45.2969
Q32.5938 45.2969 37.5 39.3438
Q42.4062 33.4062 42.4062 23.5
L42.4062 20.7969
L11 20.7969
Q11.0938 13.7969 14.6406 9.64062
Q18.2031 5.5 23.9062 5.5
Q28.0938 5.5 30.9375 7.54688
Q33.7969 9.59375 34.7031 13.2969
M23.7969 38.9062
Q18.7969 38.9062 15.3906 35.5938
Q12 32.2969 11.2031 26.5
L34.7969 26.5
Q34.7031 31.7969 31.8906 35.3438
Q29.0938 38.9062 23.7969 38.9062" id="CalibreRegular-65"/>
     <path d="
M42.0938 44.4062
L42.0938 0
L34.5 0
L34.5 5.59375
Q32.5 2.79688 29.0938 0.9375
Q25.7031 -0.90625 21.5938 -0.90625
Q14.2031 -0.90625 10.1406 3.5
Q6.09375 7.90625 6.09375 15.2969
L6.09375 44.4062
L13.7031 44.4062
L13.7031 16.5
Q13.7031 11.5938 16.0938 8.79688
Q18.5 6 23.4062 6
Q27.2031 6 30.25 8.29688
Q33.2969 10.5938 34.5 14.2969
L34.5 44.4062
z
" id="CalibreRegular-75"/>
    </defs>
    <g style="fill:#262626;" transform="translate(276.89341875 46.48)scale(0.17160000000000003 -0.17160000000000003)">
     <use xlink:href="#CalibreRegular-4e"/>
     <use x="62.29998779296875" xlink:href="#CalibreRegular-65"/>
     <use x="107.99998474121094" xlink:href="#CalibreRegular-67"/>
     <use x="158.0999755859375" xlink:href="#CalibreRegular-61"/>
     <use x="203.09996032714844" xlink:href="#CalibreRegular-74"/>
     <use x="234.79995727539062" xlink:href="#CalibreRegular-69"/>
     <use x="255.699951171875" xlink:href="#CalibreRegular-76"/>
     <use x="301.19993591308594" xlink:href="#CalibreRegular-65"/>
     <use x="346.8999328613281" xlink:href="#CalibreRegular-20"/>
     <use x="368.9999237060547" xlink:href="#CalibreRegular-28"/>
     <use x="401.09991455078125" xlink:href="#CalibreRegular-4c"/>
     <use x="451.4999084472656" xlink:href="#CalibreRegular-69"/>
     <use x="472.39990234375" xlink:href="#CalibreRegular-67"/>
     <use x="522.4998931884766" xlink:href="#CalibreRegular-68"/>
     <use x="571.3998870849609" xlink:href="#CalibreRegular-74"/>
     <use x="603.0998840332031" xlink:href="#CalibreRegular-2d"/>
     <use x="635.1998748779297" xlink:href="#CalibreRegular-54"/>
     <use x="691.8998718261719" xlink:href="#CalibreRegular-61"/>
     <use x="736.8998565673828" xlink:href="#CalibreRegular-69"/>
     <use x="757.7998504638672" xlink:href="#CalibreRegular-6c"/>
     <use x="778.6998443603516" xlink:href="#CalibreRegular-65"/>
     <use x="824.3998413085938" xlink:href="#CalibreRegular-64"/>
     <use x="874.5998382568359" xlink:href="#CalibreRegular-29"/>
     <use x="906.6998291015625" xlink:href="#CalibreRegular-20"/>
     <use x="928.7998199462891" xlink:href="#CalibreRegular-4b"/>
     <use x="985.1998138427734" xlink:href="#CalibreRegular-75"/>
     <use x="1033.8998107910156" xlink:href="#CalibreRegular-72"/>
     <use x="1065.9998016357422" xlink:href="#CalibreRegular-74"/>
     <use x="1097.6997985839844" xlink:href="#CalibreRegular-6f"/>
     <use x="1145.4997863769531" xlink:href="#CalibreRegular-73"/>
     <use x="1186.8997802734375" xlink:href="#CalibreRegular-69"/>
     <use x="1207.7997741699219" xlink:href="#CalibreRegular-73"/>
    </g>
   </g>
  </g>
 </g>
 <defs>
  <clipPath id="pd831f6c710">
   <rect height="398.97" width="580.32" x="93.6" y="51.48"/>
  </clipPath>
 </defs>
</svg>
