<?xml version="1.0" encoding="utf-8"?>
<!-- Generator: Adobe Illustrator 16.0.0, SVG Export Plug-In . SVG Version: 6.00 Build 0)  -->
<!DOCTYPE svg PUBLIC "-//W3C//DTD SVG 1.1 Tiny//EN" "http://www.w3.org/Graphics/SVG/1.1/DTD/svg11-tiny.dtd">
<svg version="1.1" baseProfile="tiny" id="Layer_1" xmlns="http://www.w3.org/2000/svg" xmlns:xlink="http://www.w3.org/1999/xlink"
	 x="0px" y="0px" width="323px" height="186px" viewBox="0 0 323 186" xml:space="preserve">
<g>
	
		<line fill="none" stroke="#386DF9" stroke-linecap="round" stroke-linejoin="round" stroke-miterlimit="10" x1="150" y1="15" x2="15" y2="123"/>
	<polyline fill="none" stroke="#C6C5C5" stroke-linecap="round" stroke-linejoin="round" stroke-miterlimit="10" points="15,123 
		222,159 150,15 	"/>
	
		<circle fill="none" stroke="#231F20" stroke-width="2" stroke-linecap="round" stroke-linejoin="round" stroke-miterlimit="10" cx="15" cy="123" r="9"/>
	
		<circle fill="none" stroke="#231F20" stroke-width="2" stroke-linecap="round" stroke-linejoin="round" stroke-miterlimit="10" cx="150" cy="15" r="9"/>
	
		<circle fill="none" stroke="#FF1614" stroke-width="2" stroke-linecap="round" stroke-linejoin="round" stroke-miterlimit="10" cx="222" cy="159" r="9"/>
	
		<circle fill="none" stroke="#FFBDBD" stroke-width="2" stroke-linecap="round" stroke-linejoin="round" stroke-miterlimit="10" cx="59" cy="43" r="9"/>
	<g>
		<line fill="none" stroke="#FFDC52" stroke-linecap="round" stroke-linejoin="round" x1="222" y1="159" x2="69.886" y2="51.625"/>
		<g>
			<polygon fill="#FFDC52" points="74.952,50.195 75.086,51.187 70.2,51.846 71.215,56.672 70.235,56.877 69,50.999 			"/>
		</g>
	</g>
	<g>
		<rect x="235" y="168" fill="none" width="75" height="18"/>
		<path fill="#231F20" d="M240.584,171.296l1.456,5.424l1.568-5.424h1.168l-2.097,7.104h-1.168l-1.472-5.393l-1.488,5.393h-1.168
			l-2.096-7.104h1.2l1.567,5.424l1.456-5.424H240.584z"/>
		<path fill="#231F20" d="M251.248,172.184c0.603,0.688,0.904,1.576,0.904,2.664s-0.302,1.977-0.904,2.664s-1.389,1.032-2.359,1.032
			s-1.758-0.345-2.36-1.032s-0.904-1.576-0.904-2.664s0.302-1.976,0.904-2.664c0.603-0.688,1.39-1.031,2.36-1.031
			S250.646,171.496,251.248,172.184z M250.385,176.76c0.368-0.485,0.552-1.123,0.552-1.912s-0.184-1.426-0.552-1.912
			c-0.368-0.484-0.867-0.728-1.496-0.728c-0.63,0-1.128,0.243-1.496,0.728c-0.368,0.486-0.552,1.123-0.552,1.912
			s0.184,1.427,0.552,1.912c0.368,0.486,0.866,0.729,1.496,0.729C249.518,177.488,250.017,177.246,250.385,176.76z"/>
		<path fill="#231F20" d="M257.433,171.264v1.232c-0.191-0.129-0.458-0.192-0.8-0.192c-0.384,0-0.726,0.118-1.023,0.353
			c-0.299,0.234-0.507,0.56-0.624,0.976v4.769h-1.2v-7.104h1.2v0.929c0.159-0.311,0.396-0.566,0.712-0.769
			c0.314-0.202,0.664-0.304,1.048-0.304C257.054,171.152,257.283,171.189,257.433,171.264z"/>
		<path fill="#231F20" d="M258.281,176.447h1.247c0.225,0.727,0.784,1.089,1.681,1.089c0.438,0,0.789-0.089,1.056-0.265
			s0.4-0.439,0.4-0.791c0-0.48-0.353-0.811-1.057-0.992l-1.407-0.368c-1.142-0.288-1.712-0.912-1.712-1.872
			c0-0.619,0.239-1.123,0.72-1.512c0.479-0.39,1.088-0.584,1.824-0.584c0.768,0,1.386,0.176,1.855,0.527s0.769,0.848,0.896,1.488
			h-1.2c-0.214-0.672-0.736-1.008-1.568-1.008c-0.373,0-0.693,0.088-0.96,0.264s-0.399,0.43-0.399,0.76
			c0,0.234,0.077,0.419,0.231,0.553c0.154,0.133,0.408,0.248,0.76,0.344l1.376,0.336c1.206,0.32,1.809,0.981,1.809,1.984
			c0,0.661-0.246,1.184-0.736,1.567s-1.125,0.576-1.904,0.576c-0.778,0-1.432-0.187-1.96-0.56
			C258.705,177.611,258.388,177.099,258.281,176.447z"/>
		<path fill="#231F20" d="M265.833,176.607v-4.287h-1.152v-1.024h1.152v-1.872h1.2v1.872h1.712v1.024h-1.712v4.16
			c0,0.661,0.314,0.991,0.943,0.991c0.331,0,0.641-0.096,0.929-0.288v1.12c-0.299,0.16-0.673,0.24-1.12,0.24
			c-0.598,0-1.072-0.163-1.425-0.488C266.009,177.73,265.833,177.248,265.833,176.607z"/>
		<path fill="#231F20" d="M275.306,177.568v3.552h-1.2v-9.824h1.2v0.832c0.202-0.277,0.482-0.509,0.84-0.696
			c0.357-0.186,0.744-0.279,1.16-0.279c1.002,0,1.786,0.354,2.352,1.063c0.565,0.71,0.848,1.587,0.848,2.632
			c0,1.046-0.282,1.923-0.848,2.633c-0.565,0.709-1.35,1.063-2.352,1.063c-0.416,0-0.803-0.094-1.16-0.28
			C275.788,178.078,275.508,177.846,275.306,177.568z M275.306,173.408v2.88c0.181,0.362,0.434,0.647,0.76,0.856
			c0.325,0.207,0.68,0.312,1.063,0.312c0.661,0,1.187-0.243,1.576-0.728c0.39-0.486,0.584-1.113,0.584-1.881
			s-0.194-1.395-0.584-1.88s-0.915-0.728-1.576-0.728c-0.384,0-0.738,0.104-1.063,0.312
			C275.739,172.76,275.486,173.045,275.306,173.408z"/>
		<path fill="#231F20" d="M287.281,172.184c0.603,0.688,0.904,1.576,0.904,2.664s-0.302,1.977-0.904,2.664s-1.389,1.032-2.359,1.032
			s-1.758-0.345-2.36-1.032s-0.904-1.576-0.904-2.664s0.302-1.976,0.904-2.664c0.603-0.688,1.39-1.031,2.36-1.031
			S286.679,171.496,287.281,172.184z M286.418,176.76c0.368-0.485,0.552-1.123,0.552-1.912s-0.184-1.426-0.552-1.912
			c-0.368-0.484-0.867-0.728-1.496-0.728c-0.63,0-1.128,0.243-1.496,0.728c-0.368,0.486-0.552,1.123-0.552,1.912
			s0.184,1.427,0.552,1.912c0.368,0.486,0.866,0.729,1.496,0.729C285.551,177.488,286.05,177.246,286.418,176.76z"/>
		<path fill="#231F20" d="M290.962,168.607c0.154,0.15,0.232,0.331,0.232,0.545c0,0.213-0.078,0.395-0.232,0.543
			c-0.154,0.15-0.339,0.225-0.552,0.225c-0.214,0-0.395-0.074-0.544-0.225c-0.149-0.148-0.224-0.33-0.224-0.543
			c0-0.214,0.074-0.395,0.224-0.545c0.149-0.148,0.33-0.224,0.544-0.224C290.623,168.384,290.808,168.459,290.962,168.607z
			 M291.019,171.296v7.104h-1.2v-7.104H291.019z"/>
		<path fill="#231F20" d="M293.162,178.4v-7.104h1.2v0.896c0.224-0.298,0.52-0.546,0.888-0.744c0.368-0.197,0.771-0.295,1.208-0.295
			c0.789,0,1.402,0.234,1.84,0.703c0.438,0.47,0.656,1.1,0.656,1.889v4.656h-1.216v-4.465c0-0.512-0.131-0.92-0.393-1.224
			s-0.653-0.456-1.176-0.456c-0.416,0-0.79,0.125-1.12,0.376c-0.331,0.251-0.56,0.567-0.688,0.952v4.816H293.162z"/>
		<path fill="#231F20" d="M301.322,176.607v-4.287h-1.152v-1.024h1.152v-1.872h1.2v1.872h1.712v1.024h-1.712v4.16
			c0,0.661,0.314,0.991,0.943,0.991c0.331,0,0.641-0.096,0.929-0.288v1.12c-0.299,0.16-0.673,0.24-1.12,0.24
			c-0.598,0-1.072-0.163-1.425-0.488C301.498,177.73,301.322,177.248,301.322,176.607z"/>
	</g>
	<path d="M313.885,172.574c0.111-0.447,0.572-0.922,0.871-1.17c0.586-0.523,1.07-0.635,1.357-0.635c0.672,0,1.084,0.585,1.084,1.568
		c0,0.996-0.561,2.926-0.859,3.561c-0.574,1.184-1.383,1.731-2.005,1.731c-1.108,0-1.319-1.395-1.319-1.494
		c0-0.024,0-0.062,0.049-0.261L313.885,172.574 M310.934,179.871c-0.138,0.561-0.174,0.686-0.909,0.686c-0.2,0-0.386,0-0.386,0.311
		c0,0.138,0.074,0.212,0.211,0.212c0.461,0,0.946-0.05,1.42-0.05c0.548,0,1.121,0.05,1.656,0.05c0.088,0,0.299,0,0.299-0.336
		c0-0.187-0.162-0.187-0.398-0.187c-0.848,0-0.848-0.125-0.848-0.274c0-0.199,0.71-2.938,0.835-3.35
		c0.212,0.485,0.685,1.071,1.544,1.071c1.942,0,4.047-2.453,4.047-4.918c0-1.582-0.959-2.69-2.241-2.69
		c-0.835,0-1.645,0.599-2.192,1.257c-0.174-0.908-0.896-1.257-1.519-1.257c-0.772,0-1.083,0.647-1.245,0.959
		c-0.299,0.573-0.51,1.581-0.51,1.631c0,0.162,0.161,0.162,0.198,0.162c0.162,0,0.187-0.013,0.286-0.386
		c0.287-1.195,0.623-1.992,1.221-1.992c0.286,0,0.523,0.124,0.523,0.771c0,0.387-0.051,0.561-0.112,0.847l-1.894,7.483H310.934z"/>
</g>
<g>
	<path d="M43.675,23.86c0.115-0.459,0.586-0.942,0.892-1.198c0.599-0.535,1.096-0.649,1.389-0.649c0.688,0,1.095,0.6,1.095,1.604
		c0,1.02-0.56,2.994-0.866,3.645c-0.586,1.21-1.415,1.77-2.051,1.77c-1.134,0-1.351-1.427-1.351-1.528c0-0.025,0-0.063,0.051-0.268
		L43.675,23.86 M40.644,31.323c-0.128,0.574-0.166,0.702-0.93,0.702c-0.204,0-0.395,0-0.395,0.318c0,0.14,0.089,0.216,0.229,0.216
		c0.458,0,0.956-0.051,1.439-0.051c0.573,0,1.159,0.051,1.707,0.051c0.077,0,0.306,0,0.306-0.344c0-0.19-0.166-0.19-0.408-0.19
		c-0.866,0-0.866-0.128-0.866-0.28c0-0.204,0.726-3.007,0.841-3.427c0.229,0.497,0.713,1.095,1.579,1.095c2,0,4.14-2.509,4.14-5.03
		c0-1.619-0.968-2.752-2.28-2.752c-0.854,0-1.681,0.611-2.254,1.287c-0.166-0.931-0.904-1.287-1.542-1.287
		c-0.79,0-1.121,0.662-1.273,0.981c-0.306,0.585-0.536,1.617-0.536,1.668c0,0.166,0.179,0.166,0.217,0.166
		c0.166,0,0.178-0.014,0.28-0.396c0.293-1.223,0.637-2.038,1.261-2.038c0.293,0,0.535,0.128,0.535,0.79
		c0,0.395-0.051,0.573-0.127,0.865L40.644,31.323z"/>
	<path d="M51.967,16.484c0.089-0.203,0.102-0.306,0.102-0.382c0-0.37-0.331-0.662-0.701-0.662c-0.458,0-0.611,0.369-0.662,0.561
		l-1.579,5.196c-0.013,0.025-0.064,0.18-0.064,0.191c0,0.14,0.37,0.269,0.471,0.269c0.076,0,0.089-0.026,0.179-0.205L51.967,16.484"
		/>
</g>
<g>
</g>
<g>
</g>
<g>
</g>
<g>
</g>
<g>
</g>
<g>
</g>
<g>
</g>
</svg>
