<?xml version="1.0" encoding="utf-8"?>
<!-- Generator: Adobe Illustrator 16.0.0, SVG Export Plug-In . SVG Version: 6.00 Build 0)  -->
<!DOCTYPE svg PUBLIC "-//W3C//DTD SVG 1.1 Tiny//EN" "http://www.w3.org/Graphics/SVG/1.1/DTD/svg11-tiny.dtd">
<svg version="1.1" baseProfile="tiny" id="Layer_1" xmlns="http://www.w3.org/2000/svg" xmlns:xlink="http://www.w3.org/1999/xlink"
	 x="0px" y="0px" width="323.703px" height="189px" viewBox="0 0 323.703 189" xml:space="preserve">
<g>
	
		<line fill="none" stroke="#386DF9" stroke-linecap="round" stroke-linejoin="round" stroke-miterlimit="10" x1="149" y1="18" x2="14" y2="126"/>
	<polyline fill="none" stroke="#C6C5C5" stroke-linecap="round" stroke-linejoin="round" stroke-miterlimit="10" points="14,126 
		221,162 149,18 	"/>
	
		<circle fill="none" stroke="#231F20" stroke-width="2" stroke-linecap="round" stroke-linejoin="round" stroke-miterlimit="10" cx="14" cy="126" r="9"/>
	
		<circle fill="none" stroke="#231F20" stroke-width="2" stroke-linecap="round" stroke-linejoin="round" stroke-miterlimit="10" cx="149" cy="18" r="9"/>
	
		<circle fill="none" stroke="#FF1614" stroke-width="2" stroke-linecap="round" stroke-linejoin="round" stroke-miterlimit="10" cx="221" cy="162" r="9"/>
	<g>
		<rect x="235" y="168" fill="none" width="75" height="18"/>
		<path fill="#231F20" d="M240.584,171.296l1.456,5.424l1.568-5.424h1.168l-2.097,7.104h-1.168l-1.472-5.393l-1.488,5.393h-1.168
			l-2.096-7.104h1.2l1.567,5.424l1.456-5.424H240.584z"/>
		<path fill="#231F20" d="M251.248,172.184c0.603,0.688,0.904,1.576,0.904,2.664s-0.302,1.977-0.904,2.664s-1.389,1.032-2.359,1.032
			s-1.758-0.345-2.36-1.032s-0.904-1.576-0.904-2.664s0.302-1.976,0.904-2.664c0.603-0.688,1.39-1.031,2.36-1.031
			S250.646,171.496,251.248,172.184z M250.385,176.76c0.368-0.485,0.552-1.123,0.552-1.912s-0.184-1.426-0.552-1.912
			c-0.368-0.484-0.867-0.728-1.496-0.728c-0.63,0-1.128,0.243-1.496,0.728c-0.368,0.486-0.552,1.123-0.552,1.912
			s0.184,1.427,0.552,1.912c0.368,0.486,0.866,0.729,1.496,0.729C249.518,177.488,250.017,177.246,250.385,176.76z"/>
		<path fill="#231F20" d="M257.433,171.264v1.232c-0.191-0.129-0.458-0.192-0.8-0.192c-0.384,0-0.726,0.118-1.023,0.353
			c-0.299,0.234-0.507,0.56-0.624,0.976v4.769h-1.2v-7.104h1.2v0.929c0.159-0.311,0.396-0.566,0.712-0.769
			c0.314-0.202,0.664-0.304,1.048-0.304C257.054,171.152,257.283,171.189,257.433,171.264z"/>
		<path fill="#231F20" d="M258.281,176.447h1.247c0.225,0.727,0.784,1.089,1.681,1.089c0.438,0,0.789-0.089,1.056-0.265
			s0.4-0.439,0.4-0.791c0-0.48-0.353-0.811-1.057-0.992l-1.407-0.368c-1.142-0.288-1.712-0.912-1.712-1.872
			c0-0.619,0.239-1.123,0.72-1.512c0.479-0.39,1.088-0.584,1.824-0.584c0.768,0,1.386,0.176,1.855,0.527s0.769,0.848,0.896,1.488
			h-1.2c-0.214-0.672-0.736-1.008-1.568-1.008c-0.373,0-0.693,0.088-0.96,0.264s-0.399,0.43-0.399,0.76
			c0,0.234,0.077,0.419,0.231,0.553c0.154,0.133,0.408,0.248,0.76,0.344l1.376,0.336c1.206,0.32,1.809,0.981,1.809,1.984
			c0,0.661-0.246,1.184-0.736,1.567s-1.125,0.576-1.904,0.576c-0.778,0-1.432-0.187-1.96-0.56
			C258.705,177.611,258.388,177.099,258.281,176.447z"/>
		<path fill="#231F20" d="M265.833,176.607v-4.287h-1.152v-1.024h1.152v-1.872h1.2v1.872h1.712v1.024h-1.712v4.16
			c0,0.661,0.314,0.991,0.943,0.991c0.331,0,0.641-0.096,0.929-0.288v1.12c-0.299,0.16-0.673,0.24-1.12,0.24
			c-0.598,0-1.072-0.163-1.425-0.488C266.009,177.73,265.833,177.248,265.833,176.607z"/>
		<path fill="#231F20" d="M275.306,177.568v3.552h-1.2v-9.824h1.2v0.832c0.202-0.277,0.482-0.509,0.84-0.696
			c0.357-0.186,0.744-0.279,1.16-0.279c1.002,0,1.786,0.354,2.352,1.063c0.565,0.71,0.848,1.587,0.848,2.632
			c0,1.046-0.282,1.923-0.848,2.633c-0.565,0.709-1.35,1.063-2.352,1.063c-0.416,0-0.803-0.094-1.16-0.28
			C275.788,178.078,275.508,177.846,275.306,177.568z M275.306,173.408v2.88c0.181,0.362,0.434,0.647,0.76,0.856
			c0.325,0.207,0.68,0.312,1.063,0.312c0.661,0,1.187-0.243,1.576-0.728c0.39-0.486,0.584-1.113,0.584-1.881
			s-0.194-1.395-0.584-1.88s-0.915-0.728-1.576-0.728c-0.384,0-0.738,0.104-1.063,0.312
			C275.739,172.76,275.486,173.045,275.306,173.408z"/>
		<path fill="#231F20" d="M287.281,172.184c0.603,0.688,0.904,1.576,0.904,2.664s-0.302,1.977-0.904,2.664s-1.389,1.032-2.359,1.032
			s-1.758-0.345-2.36-1.032s-0.904-1.576-0.904-2.664s0.302-1.976,0.904-2.664c0.603-0.688,1.39-1.031,2.36-1.031
			S286.679,171.496,287.281,172.184z M286.418,176.76c0.368-0.485,0.552-1.123,0.552-1.912s-0.184-1.426-0.552-1.912
			c-0.368-0.484-0.867-0.728-1.496-0.728c-0.63,0-1.128,0.243-1.496,0.728c-0.368,0.486-0.552,1.123-0.552,1.912
			s0.184,1.427,0.552,1.912c0.368,0.486,0.866,0.729,1.496,0.729C285.551,177.488,286.05,177.246,286.418,176.76z"/>
		<path fill="#231F20" d="M290.962,168.607c0.154,0.15,0.232,0.331,0.232,0.545c0,0.213-0.078,0.395-0.232,0.543
			c-0.154,0.15-0.339,0.225-0.552,0.225c-0.214,0-0.395-0.074-0.544-0.225c-0.149-0.148-0.224-0.33-0.224-0.543
			c0-0.214,0.074-0.395,0.224-0.545c0.149-0.148,0.33-0.224,0.544-0.224C290.623,168.384,290.808,168.459,290.962,168.607z
			 M291.019,171.296v7.104h-1.2v-7.104H291.019z"/>
		<path fill="#231F20" d="M293.162,178.4v-7.104h1.2v0.896c0.224-0.298,0.52-0.546,0.888-0.744c0.368-0.197,0.771-0.295,1.208-0.295
			c0.789,0,1.402,0.234,1.84,0.703c0.438,0.47,0.656,1.1,0.656,1.889v4.656h-1.216v-4.465c0-0.512-0.131-0.92-0.393-1.224
			s-0.653-0.456-1.176-0.456c-0.416,0-0.79,0.125-1.12,0.376c-0.331,0.251-0.56,0.567-0.688,0.952v4.816H293.162z"/>
		<path fill="#231F20" d="M301.322,176.607v-4.287h-1.152v-1.024h1.152v-1.872h1.2v1.872h1.712v1.024h-1.712v4.16
			c0,0.661,0.314,0.991,0.943,0.991c0.331,0,0.641-0.096,0.929-0.288v1.12c-0.299,0.16-0.673,0.24-1.12,0.24
			c-0.598,0-1.072-0.163-1.425-0.488C301.498,177.73,301.322,177.248,301.322,176.607z"/>
	</g>
	<g>
		<rect x="9.5" y="54" fill="none" width="67.5" height="36"/>
		<path fill="#231F20" d="M23.321,63.568V64.4h-1.217V54h1.217v4.128c0.191-0.277,0.469-0.509,0.831-0.696
			c0.363-0.187,0.753-0.28,1.169-0.28c1.002,0,1.786,0.355,2.352,1.064c0.565,0.709,0.848,1.587,0.848,2.632
			c0,1.056-0.282,1.936-0.848,2.64s-1.35,1.056-2.352,1.056c-0.416,0-0.806-0.094-1.169-0.28
			C23.79,64.078,23.513,63.845,23.321,63.568z M23.321,59.408v2.88c0.181,0.363,0.434,0.648,0.76,0.856
			c0.325,0.208,0.68,0.312,1.063,0.312c0.661,0,1.187-0.243,1.576-0.728s0.584-1.112,0.584-1.88c0-0.768-0.194-1.395-0.584-1.88
			c-0.39-0.485-0.915-0.728-1.576-0.728c-0.384,0-0.738,0.104-1.063,0.312C23.755,58.76,23.502,59.045,23.321,59.408z"/>
		<path fill="#231F20" d="M34.665,62.272h1.137c-0.129,0.693-0.443,1.246-0.944,1.656c-0.502,0.411-1.142,0.616-1.92,0.616
			c-0.971,0-1.758-0.338-2.36-1.016c-0.603-0.677-0.904-1.565-0.904-2.664c0-1.077,0.299-1.965,0.896-2.664
			c0.598-0.698,1.376-1.048,2.336-1.048c0.949,0,1.686,0.317,2.208,0.952s0.784,1.48,0.784,2.536v0.432h-5.024
			c0.011,0.747,0.205,1.342,0.584,1.784c0.379,0.443,0.872,0.664,1.48,0.664c0.448,0,0.824-0.109,1.128-0.328
			C34.369,62.974,34.569,62.667,34.665,62.272z M32.921,58.176c-0.533,0-0.981,0.176-1.344,0.528
			c-0.362,0.352-0.587,0.837-0.672,1.456h3.776c-0.011-0.565-0.166-1.037-0.465-1.416C33.919,58.365,33.486,58.176,32.921,58.176z"
			/>
		<path fill="#231F20" d="M36.938,62.448h1.247c0.225,0.726,0.784,1.088,1.681,1.088c0.438,0,0.789-0.088,1.056-0.264
			c0.267-0.176,0.4-0.44,0.4-0.792c0-0.48-0.353-0.811-1.057-0.992l-1.407-0.368c-1.142-0.288-1.712-0.912-1.712-1.872
			c0-0.619,0.239-1.123,0.72-1.512c0.479-0.389,1.088-0.584,1.824-0.584c0.768,0,1.386,0.176,1.855,0.528
			c0.47,0.352,0.769,0.848,0.896,1.488h-1.2c-0.214-0.672-0.736-1.008-1.568-1.008c-0.373,0-0.693,0.088-0.96,0.264
			c-0.267,0.176-0.399,0.43-0.399,0.76c0,0.234,0.077,0.418,0.231,0.552c0.154,0.134,0.408,0.248,0.76,0.344l1.376,0.336
			c1.206,0.32,1.809,0.981,1.809,1.984c0,0.662-0.246,1.184-0.736,1.568c-0.49,0.384-1.125,0.576-1.904,0.576
			c-0.778,0-1.432-0.187-1.96-0.56C37.361,63.611,37.044,63.099,36.938,62.448z"/>
		<path fill="#231F20" d="M44.488,62.608V58.32h-1.152v-1.024h1.152v-1.872h1.2v1.872H47.4v1.024h-1.712v4.16
			c0,0.662,0.314,0.992,0.943,0.992c0.331,0,0.641-0.096,0.929-0.288v1.12c-0.299,0.16-0.673,0.24-1.12,0.24
			c-0.598,0-1.072-0.163-1.425-0.488C44.664,63.73,44.488,63.248,44.488,62.608z"/>
		<path fill="#231F20" d="M52.168,62.448h1.247c0.225,0.726,0.784,1.088,1.681,1.088c0.438,0,0.789-0.088,1.056-0.264
			c0.267-0.176,0.4-0.44,0.4-0.792c0-0.48-0.353-0.811-1.057-0.992l-1.407-0.368c-1.142-0.288-1.712-0.912-1.712-1.872
			c0-0.619,0.239-1.123,0.72-1.512c0.479-0.389,1.088-0.584,1.824-0.584c0.768,0,1.386,0.176,1.855,0.528
			c0.47,0.352,0.769,0.848,0.896,1.488h-1.2c-0.214-0.672-0.736-1.008-1.568-1.008c-0.373,0-0.693,0.088-0.96,0.264
			c-0.267,0.176-0.399,0.43-0.399,0.76c0,0.234,0.077,0.418,0.231,0.552c0.154,0.134,0.408,0.248,0.76,0.344l1.376,0.336
			c1.206,0.32,1.809,0.981,1.809,1.984c0,0.662-0.246,1.184-0.736,1.568c-0.49,0.384-1.125,0.576-1.904,0.576
			c-0.778,0-1.432-0.187-1.96-0.56C52.592,63.611,52.274,63.099,52.168,62.448z"/>
		<path fill="#231F20" d="M60.528,54.608c0.154,0.149,0.232,0.331,0.232,0.544s-0.078,0.395-0.232,0.544
			c-0.154,0.149-0.339,0.224-0.552,0.224c-0.214,0-0.395-0.075-0.544-0.224c-0.149-0.149-0.224-0.331-0.224-0.544
			s0.074-0.395,0.224-0.544s0.33-0.224,0.544-0.224C60.189,54.384,60.374,54.458,60.528,54.608z M60.585,57.296V64.4h-1.2v-7.104
			H60.585z"/>
		<path fill="#231F20" d="M67.416,64.4v-0.832c-0.191,0.277-0.47,0.51-0.832,0.696c-0.362,0.187-0.752,0.28-1.168,0.28
			c-1.003,0-1.786-0.352-2.352-1.056s-0.849-1.584-0.849-2.64c0-1.045,0.283-1.923,0.849-2.632c0.565-0.709,1.349-1.064,2.352-1.064
			c0.416,0,0.806,0.094,1.168,0.28s0.641,0.418,0.832,0.696V54h1.216v10.4H67.416z M67.416,62.288v-2.88
			c-0.182-0.362-0.435-0.648-0.76-0.856s-0.68-0.312-1.064-0.312c-0.661,0-1.187,0.243-1.575,0.728
			c-0.39,0.486-0.584,1.112-0.584,1.88c0,0.768,0.194,1.395,0.584,1.88c0.389,0.485,0.914,0.728,1.575,0.728
			c0.385,0,0.739-0.104,1.064-0.312S67.234,62.651,67.416,62.288z"/>
		<path fill="#231F20" d="M75.239,62.272h1.137c-0.129,0.693-0.443,1.246-0.944,1.656c-0.502,0.411-1.142,0.616-1.92,0.616
			c-0.971,0-1.758-0.338-2.36-1.016c-0.603-0.677-0.904-1.565-0.904-2.664c0-1.077,0.299-1.965,0.896-2.664
			c0.598-0.698,1.376-1.048,2.336-1.048c0.949,0,1.686,0.317,2.208,0.952s0.784,1.48,0.784,2.536v0.432h-5.024
			c0.011,0.747,0.205,1.342,0.584,1.784c0.379,0.443,0.872,0.664,1.48,0.664c0.448,0,0.824-0.109,1.128-0.328
			C74.943,62.974,75.144,62.667,75.239,62.272z M73.495,58.176c-0.533,0-0.981,0.176-1.344,0.528
			c-0.362,0.352-0.587,0.837-0.672,1.456h3.776c-0.011-0.565-0.166-1.037-0.465-1.416C74.493,58.365,74.061,58.176,73.495,58.176z"
			/>
	</g>
	<path d="M313.885,172.574c0.111-0.447,0.572-0.922,0.871-1.17c0.586-0.523,1.07-0.635,1.357-0.635c0.672,0,1.084,0.585,1.084,1.568
		c0,0.996-0.561,2.926-0.859,3.561c-0.574,1.184-1.383,1.731-2.005,1.731c-1.108,0-1.319-1.395-1.319-1.494
		c0-0.024,0-0.062,0.049-0.261L313.885,172.574 M310.934,179.871c-0.138,0.561-0.174,0.686-0.909,0.686c-0.2,0-0.386,0-0.386,0.311
		c0,0.138,0.074,0.212,0.211,0.212c0.461,0,0.946-0.05,1.42-0.05c0.548,0,1.121,0.05,1.656,0.05c0.088,0,0.299,0,0.299-0.336
		c0-0.187-0.162-0.187-0.398-0.187c-0.848,0-0.848-0.125-0.848-0.274c0-0.199,0.71-2.938,0.835-3.35
		c0.212,0.485,0.685,1.071,1.544,1.071c1.942,0,4.047-2.453,4.047-4.918c0-1.582-0.959-2.69-2.241-2.69
		c-0.835,0-1.645,0.599-2.192,1.257c-0.174-0.908-0.896-1.257-1.519-1.257c-0.772,0-1.083,0.647-1.245,0.959
		c-0.299,0.573-0.51,1.581-0.51,1.631c0,0.162,0.161,0.162,0.198,0.162c0.162,0,0.187-0.013,0.286-0.386
		c0.287-1.195,0.623-1.992,1.221-1.992c0.286,0,0.523,0.124,0.523,0.771c0,0.387-0.051,0.561-0.112,0.847l-1.894,7.483H310.934z"/>
</g>
<g>
</g>
<g>
</g>
<g>
</g>
<g>
</g>
<g>
</g>
<g>
</g>
</svg>
