<?xml version="1.0" encoding="utf-8"?>
<!-- Generator: Adobe Illustrator 16.0.0, SVG Export Plug-In . SVG Version: 6.00 Build 0)  -->
<!DOCTYPE svg PUBLIC "-//W3C//DTD SVG 1.1 Tiny//EN" "http://www.w3.org/Graphics/SVG/1.1/DTD/svg11-tiny.dtd">
<svg version="1.1" baseProfile="tiny" id="Layer_1" xmlns="http://www.w3.org/2000/svg" xmlns:xlink="http://www.w3.org/1999/xlink"
	 x="0px" y="0px" width="323px" height="205px" viewBox="0 0 323 205" xml:space="preserve">
<g>
	
		<line fill="none" stroke="#386DF9" stroke-linecap="round" stroke-linejoin="round" stroke-miterlimit="10" x1="149" y1="16" x2="14" y2="124"/>
	<polyline fill="none" stroke="#C6C5C5" stroke-linecap="round" stroke-linejoin="round" stroke-miterlimit="10" points="14,124 
		221,160 149,16 	"/>
	
		<circle fill="none" stroke="#231F20" stroke-width="2" stroke-linecap="round" stroke-linejoin="round" stroke-miterlimit="10" cx="14" cy="124" r="9"/>
	
		<circle fill="none" stroke="#231F20" stroke-width="2" stroke-linecap="round" stroke-linejoin="round" stroke-miterlimit="10" cx="149" cy="16" r="9"/>
	
		<circle fill="none" stroke="#FF1614" stroke-width="2" stroke-linecap="round" stroke-linejoin="round" stroke-miterlimit="10" cx="221" cy="160" r="9"/>
	
		<circle fill="none" stroke="#FFBDBD" stroke-width="2" stroke-linecap="round" stroke-linejoin="round" stroke-miterlimit="10" cx="58" cy="44" r="9"/>
	<g>
		<line fill="none" stroke="#FFDC52" stroke-linecap="round" stroke-linejoin="round" x1="221" y1="160" x2="68.886" y2="52.625"/>
		<g>
			<polygon fill="#FFDC52" points="73.951,51.195 74.086,52.187 69.2,52.846 70.215,57.672 69.235,57.876 68.001,51.999 			"/>
		</g>
	</g>
	<g>
		<rect x="5" y="187" fill="none" width="135" height="36"/>
		<path fill="#231F20" d="M6.488,196.52c-0.576-0.682-0.864-1.572-0.864-2.672c0-1.098,0.288-1.988,0.864-2.672
			c0.576-0.683,1.333-1.023,2.271-1.023c0.736,0,1.342,0.199,1.816,0.6s0.775,0.936,0.904,1.607h-0.816
			c-0.106-0.469-0.325-0.834-0.656-1.096c-0.33-0.262-0.746-0.392-1.248-0.392c-0.693,0-1.256,0.272-1.688,0.815
			c-0.433,0.545-0.648,1.264-0.648,2.16s0.216,1.616,0.648,2.16c0.432,0.544,0.994,0.816,1.688,0.816
			c0.502,0,0.918-0.131,1.248-0.393c0.331-0.262,0.55-0.627,0.656-1.096h0.816c-0.129,0.672-0.43,1.208-0.904,1.607
			c-0.475,0.4-1.08,0.601-1.816,0.601C7.821,197.544,7.064,197.203,6.488,196.52z"/>
		<path fill="#231F20" d="M18.048,191.176c0.581,0.684,0.872,1.574,0.872,2.672c0,1.1-0.291,1.99-0.872,2.672
			c-0.581,0.684-1.342,1.024-2.28,1.024s-1.695-0.341-2.271-1.024c-0.576-0.682-0.864-1.572-0.864-2.672
			c0-1.098,0.288-1.988,0.864-2.672c0.576-0.683,1.333-1.023,2.271-1.023S17.467,190.493,18.048,191.176z M17.479,196.016
			c0.427-0.549,0.641-1.271,0.641-2.168s-0.214-1.618-0.641-2.168c-0.427-0.549-0.997-0.824-1.712-0.824
			c-0.704,0-1.27,0.275-1.695,0.824c-0.427,0.55-0.641,1.271-0.641,2.168s0.214,1.619,0.641,2.168
			c0.426,0.55,0.991,0.824,1.695,0.824C16.482,196.84,17.053,196.565,17.479,196.016z"/>
		<path fill="#231F20" d="M20.681,197.4v-7.104h0.8v1.136c0.235-0.362,0.553-0.666,0.952-0.912c0.4-0.245,0.84-0.367,1.32-0.367
			c0.789,0,1.397,0.231,1.824,0.695c0.427,0.465,0.64,1.08,0.64,1.848v4.705h-0.784v-4.592c0-0.576-0.151-1.041-0.456-1.393
			c-0.304-0.352-0.76-0.528-1.367-0.528c-0.47,0-0.896,0.144-1.28,0.433c-0.384,0.287-0.667,0.656-0.849,1.104v4.977H20.681z"/>
		<path fill="#231F20" d="M28.728,195.752v-4.768h-1.2v-0.688h1.2v-1.824h0.784v1.824h1.84v0.688h-1.84v4.688
			c0,0.768,0.341,1.152,1.023,1.152c0.342,0,0.667-0.091,0.977-0.272v0.752c-0.299,0.16-0.651,0.24-1.057,0.24
			c-0.533,0-0.954-0.151-1.264-0.456S28.728,196.339,28.728,195.752z"/>
		<path fill="#231F20" d="M36.504,190.248v0.783c-0.203-0.084-0.422-0.127-0.656-0.127c-0.427,0-0.806,0.139-1.136,0.416
			c-0.331,0.277-0.582,0.65-0.753,1.119v4.961h-0.8v-7.104h0.8v1.136c0.171-0.373,0.427-0.68,0.769-0.92
			c0.341-0.24,0.726-0.359,1.152-0.359C36.082,190.152,36.29,190.184,36.504,190.248z"/>
		<path fill="#231F20" d="M42.681,197.4h-0.768v-0.672c-0.171,0.202-0.438,0.383-0.8,0.543c-0.363,0.16-0.752,0.24-1.168,0.24
			c-0.747,0-1.371-0.199-1.872-0.6c-0.502-0.4-0.752-0.931-0.752-1.592c0-0.641,0.256-1.163,0.768-1.568s1.142-0.607,1.888-0.607
			c0.385,0,0.758,0.076,1.12,0.231s0.635,0.328,0.816,0.521v-1.265c0-0.533-0.157-0.962-0.473-1.288
			c-0.314-0.325-0.749-0.488-1.304-0.488c-0.886,0-1.461,0.406-1.728,1.217h-0.784c0.139-0.598,0.435-1.066,0.888-1.408
			s0.995-0.512,1.624-0.512c0.789,0,1.411,0.221,1.864,0.664c0.453,0.442,0.68,1.037,0.68,1.783V197.4z M41.913,195.783v-0.911
			c-0.118-0.31-0.354-0.562-0.712-0.761c-0.357-0.197-0.75-0.295-1.177-0.295c-0.544,0-1.005,0.131-1.384,0.392
			s-0.567,0.632-0.567,1.112c0,0.479,0.188,0.854,0.567,1.119c0.379,0.268,0.84,0.4,1.384,0.4c0.427,0,0.819-0.099,1.177-0.296
			S41.795,196.094,41.913,195.783z"/>
		<path fill="#231F20" d="M45.225,196.52c-0.576-0.682-0.864-1.572-0.864-2.672c0-1.098,0.288-1.988,0.864-2.672
			c0.576-0.683,1.333-1.023,2.271-1.023c0.736,0,1.342,0.199,1.816,0.6s0.775,0.936,0.904,1.607H49.4
			c-0.106-0.469-0.325-0.834-0.656-1.096c-0.33-0.262-0.746-0.392-1.248-0.392c-0.693,0-1.256,0.272-1.688,0.815
			c-0.433,0.545-0.648,1.264-0.648,2.16s0.216,1.616,0.648,2.16c0.432,0.544,0.994,0.816,1.688,0.816
			c0.502,0,0.918-0.131,1.248-0.393c0.331-0.262,0.55-0.627,0.656-1.096h0.816c-0.129,0.672-0.43,1.208-0.904,1.607
			c-0.475,0.4-1.08,0.601-1.816,0.601C46.558,197.544,45.801,197.203,45.225,196.52z"/>
		<path fill="#231F20" d="M52.28,195.752v-4.768h-1.2v-0.688h1.2v-1.824h0.784v1.824h1.84v0.688h-1.84v4.688
			c0,0.768,0.341,1.152,1.023,1.152c0.342,0,0.667-0.091,0.977-0.272v0.752c-0.299,0.16-0.651,0.24-1.057,0.24
			c-0.533,0-0.954-0.151-1.264-0.456S52.28,196.339,52.28,195.752z"/>
	</g>
	
		<circle fill="none" stroke="#FF1614" stroke-width="2" stroke-linecap="round" stroke-linejoin="round" stroke-miterlimit="10" cx="117.5" cy="87.333" r="9"/>
	<g>
		<line fill="none" stroke="#7833E5" stroke-linecap="round" stroke-linejoin="round" x1="221" y1="160" x2="132.002" y2="96.96"/>
		<g>
			<polygon fill="#7833E5" points="137.07,95.538 137.203,96.529 132.316,97.181 133.322,102.008 132.343,102.212 131.118,96.332 
							"/>
		</g>
	</g>
	<g>
		<rect x="235" y="167.079" fill="none" width="75" height="18"/>
		<path fill="#231F20" d="M240.584,170.375l1.456,5.424l1.568-5.424h1.168l-2.097,7.104h-1.168l-1.472-5.392l-1.488,5.392h-1.168
			l-2.096-7.104h1.2l1.567,5.424l1.456-5.424H240.584z"/>
		<path fill="#231F20" d="M251.248,171.264c0.603,0.688,0.904,1.575,0.904,2.664c0,1.088-0.302,1.975-0.904,2.663
			s-1.389,1.032-2.359,1.032s-1.758-0.344-2.36-1.032s-0.904-1.575-0.904-2.663c0-1.089,0.302-1.977,0.904-2.664
			c0.603-0.688,1.39-1.033,2.36-1.033S250.646,170.575,251.248,171.264z M250.385,175.839c0.368-0.485,0.552-1.122,0.552-1.911
			c0-0.79-0.184-1.428-0.552-1.912c-0.368-0.486-0.867-0.729-1.496-0.729c-0.63,0-1.128,0.242-1.496,0.729
			c-0.368,0.484-0.552,1.122-0.552,1.912c0,0.789,0.184,1.426,0.552,1.911s0.866,0.728,1.496,0.728
			C249.518,176.566,250.017,176.324,250.385,175.839z"/>
		<path fill="#231F20" d="M257.433,170.343v1.232c-0.191-0.128-0.458-0.192-0.8-0.192c-0.384,0-0.726,0.117-1.023,0.352
			c-0.299,0.235-0.507,0.561-0.624,0.977v4.768h-1.2v-7.104h1.2v0.928c0.159-0.309,0.396-0.564,0.712-0.768
			c0.314-0.203,0.664-0.305,1.048-0.305C257.054,170.23,257.283,170.269,257.433,170.343z"/>
		<path fill="#231F20" d="M258.281,175.527h1.247c0.225,0.725,0.784,1.088,1.681,1.088c0.438,0,0.789-0.088,1.056-0.264
			c0.267-0.177,0.4-0.44,0.4-0.793c0-0.479-0.353-0.811-1.057-0.992l-1.407-0.367c-1.142-0.288-1.712-0.912-1.712-1.872
			c0-0.618,0.239-1.122,0.72-1.513c0.479-0.389,1.088-0.584,1.824-0.584c0.768,0,1.386,0.177,1.855,0.528
			c0.47,0.353,0.769,0.849,0.896,1.488h-1.2c-0.214-0.672-0.736-1.009-1.568-1.009c-0.373,0-0.693,0.089-0.96,0.265
			c-0.267,0.177-0.399,0.43-0.399,0.761c0,0.234,0.077,0.418,0.231,0.551c0.154,0.135,0.408,0.248,0.76,0.345l1.376,0.336
			c1.206,0.319,1.809,0.981,1.809,1.983c0,0.662-0.246,1.185-0.736,1.568c-0.49,0.385-1.125,0.576-1.904,0.576
			c-0.778,0-1.432-0.187-1.96-0.561C258.705,176.689,258.388,176.178,258.281,175.527z"/>
		<path fill="#231F20" d="M265.833,175.688v-4.289h-1.152v-1.023h1.152v-1.872h1.2v1.872h1.712v1.023h-1.712v4.16
			c0,0.662,0.314,0.992,0.943,0.992c0.331,0,0.641-0.096,0.929-0.287v1.119c-0.299,0.16-0.673,0.24-1.12,0.24
			c-0.598,0-1.072-0.162-1.425-0.488C266.009,176.81,265.833,176.327,265.833,175.688z"/>
		<path fill="#231F20" d="M275.306,176.646v3.553h-1.2v-9.824h1.2v0.832c0.202-0.277,0.482-0.51,0.84-0.695
			c0.357-0.188,0.744-0.281,1.16-0.281c1.002,0,1.786,0.355,2.352,1.064s0.848,1.587,0.848,2.633c0,1.045-0.282,1.922-0.848,2.631
			c-0.565,0.71-1.35,1.064-2.352,1.064c-0.416,0-0.803-0.094-1.16-0.28S275.508,176.924,275.306,176.646z M275.306,172.486v2.881
			c0.181,0.363,0.434,0.648,0.76,0.855c0.325,0.209,0.68,0.312,1.063,0.312c0.661,0,1.187-0.242,1.576-0.729
			c0.39-0.484,0.584-1.111,0.584-1.879c0-0.769-0.194-1.395-0.584-1.881c-0.39-0.485-0.915-0.729-1.576-0.729
			c-0.384,0-0.738,0.104-1.063,0.312C275.739,171.839,275.486,172.125,275.306,172.486z"/>
		<path fill="#231F20" d="M287.281,171.264c0.603,0.688,0.904,1.575,0.904,2.664c0,1.088-0.302,1.975-0.904,2.663
			s-1.389,1.032-2.359,1.032s-1.758-0.344-2.36-1.032s-0.904-1.575-0.904-2.663c0-1.089,0.302-1.977,0.904-2.664
			c0.603-0.688,1.39-1.033,2.36-1.033S286.679,170.575,287.281,171.264z M286.418,175.839c0.368-0.485,0.552-1.122,0.552-1.911
			c0-0.79-0.184-1.428-0.552-1.912c-0.368-0.486-0.867-0.729-1.496-0.729c-0.63,0-1.128,0.242-1.496,0.729
			c-0.368,0.484-0.552,1.122-0.552,1.912c0,0.789,0.184,1.426,0.552,1.911s0.866,0.728,1.496,0.728
			C285.551,176.566,286.05,176.324,286.418,175.839z"/>
		<path fill="#231F20" d="M290.962,167.688c0.154,0.148,0.232,0.33,0.232,0.543c0,0.214-0.078,0.396-0.232,0.545
			c-0.154,0.148-0.339,0.224-0.552,0.224c-0.214,0-0.395-0.075-0.544-0.224c-0.149-0.149-0.224-0.331-0.224-0.545
			c0-0.213,0.074-0.395,0.224-0.543c0.149-0.15,0.33-0.225,0.544-0.225C290.623,167.463,290.808,167.537,290.962,167.688z
			 M291.019,170.375v7.104h-1.2v-7.104H291.019z"/>
		<path fill="#231F20" d="M293.162,177.479v-7.104h1.2v0.896c0.224-0.299,0.52-0.547,0.888-0.744s0.771-0.297,1.208-0.297
			c0.789,0,1.402,0.235,1.84,0.705c0.438,0.469,0.656,1.098,0.656,1.888v4.655h-1.216v-4.463c0-0.513-0.131-0.92-0.393-1.225
			s-0.653-0.456-1.176-0.456c-0.416,0-0.79,0.126-1.12,0.376c-0.331,0.251-0.56,0.568-0.688,0.952v4.815H293.162z"/>
		<path fill="#231F20" d="M301.322,175.688v-4.289h-1.152v-1.023h1.152v-1.872h1.2v1.872h1.712v1.023h-1.712v4.16
			c0,0.662,0.314,0.992,0.943,0.992c0.331,0,0.641-0.096,0.929-0.287v1.119c-0.299,0.16-0.673,0.24-1.12,0.24
			c-0.598,0-1.072-0.162-1.425-0.488C301.498,176.81,301.322,176.327,301.322,175.688z"/>
	</g>
	<path d="M313.885,171.653c0.111-0.447,0.572-0.922,0.871-1.17c0.586-0.523,1.07-0.635,1.357-0.635c0.672,0,1.084,0.585,1.084,1.568
		c0,0.996-0.561,2.926-0.859,3.561c-0.574,1.184-1.383,1.731-2.005,1.731c-1.108,0-1.319-1.395-1.319-1.494
		c0-0.024,0-0.062,0.049-0.261L313.885,171.653 M310.934,178.95c-0.138,0.561-0.174,0.686-0.909,0.686c-0.2,0-0.386,0-0.386,0.311
		c0,0.138,0.074,0.212,0.211,0.212c0.461,0,0.946-0.05,1.42-0.05c0.548,0,1.121,0.05,1.656,0.05c0.088,0,0.299,0,0.299-0.336
		c0-0.187-0.162-0.187-0.398-0.187c-0.848,0-0.848-0.125-0.848-0.274c0-0.199,0.71-2.938,0.835-3.35
		c0.212,0.485,0.685,1.071,1.544,1.071c1.942,0,4.047-2.453,4.047-4.918c0-1.582-0.959-2.69-2.241-2.69
		c-0.835,0-1.645,0.599-2.192,1.257c-0.174-0.908-0.896-1.257-1.519-1.257c-0.772,0-1.083,0.647-1.245,0.959
		c-0.299,0.573-0.51,1.581-0.51,1.631c0,0.162,0.161,0.162,0.198,0.162c0.162,0,0.187-0.013,0.286-0.386
		c0.287-1.195,0.623-1.992,1.221-1.992c0.286,0,0.523,0.124,0.523,0.771c0,0.387-0.051,0.561-0.112,0.847l-1.894,7.483H310.934z"/>
	<g>
		<path d="M133.697,67.85c0.123-0.491,0.629-1.011,0.957-1.284c0.642-0.574,1.174-0.696,1.488-0.696
			c0.738,0,1.188,0.642,1.188,1.721c0,1.092-0.614,3.21-0.942,3.906c-0.629,1.298-1.516,1.899-2.199,1.899
			c-1.216,0-1.448-1.53-1.448-1.639c0-0.027,0-0.068,0.056-0.287L133.697,67.85 M130.461,75.854
			c-0.15,0.615-0.191,0.751-0.998,0.751c-0.219,0-0.423,0-0.423,0.342c0,0.15,0.081,0.232,0.231,0.232
			c0.506,0,1.039-0.055,1.558-0.055c0.601,0,1.229,0.055,1.817,0.055c0.095,0,0.327,0,0.327-0.369c0-0.205-0.177-0.205-0.437-0.205
			c-0.916,0-0.916-0.137-0.916-0.301c0-0.218,0.766-3.224,0.902-3.674c0.232,0.533,0.751,1.175,1.693,1.175
			c2.131,0,4.439-2.691,4.439-5.396c0-1.735-1.053-2.951-2.459-2.951c-0.915,0-1.803,0.656-2.404,1.38
			c-0.191-0.997-0.983-1.38-1.666-1.38c-0.848,0-1.188,0.71-1.366,1.052c-0.327,0.628-0.56,1.735-0.56,1.79
			c0,0.177,0.178,0.177,0.219,0.177c0.178,0,0.205-0.014,0.313-0.423c0.314-1.311,0.683-2.185,1.339-2.185
			c0.314,0,0.574,0.136,0.574,0.846c0,0.423-0.055,0.615-0.123,0.929L130.461,75.854z"/>
		<path d="M142.59,59.941c0.096-0.218,0.109-0.328,0.109-0.41c0-0.396-0.354-0.71-0.751-0.71c-0.492,0-0.643,0.396-0.71,0.601
			l-1.694,5.573c-0.014,0.028-0.068,0.191-0.068,0.205c0,0.15,0.396,0.287,0.505,0.287c0.082,0,0.096-0.028,0.191-0.219
			L142.59,59.941"/>
		<path d="M146.852,59.941c0.096-0.218,0.109-0.328,0.109-0.41c0-0.396-0.355-0.71-0.751-0.71c-0.492,0-0.656,0.396-0.71,0.601
			l-1.694,5.573c-0.014,0.028-0.068,0.191-0.068,0.205c0,0.15,0.396,0.287,0.506,0.287c0.082,0,0.095-0.028,0.19-0.219
			L146.852,59.941"/>
	</g>
	<g>
		<path d="M60.089,20.42c0.115-0.459,0.586-0.942,0.892-1.198c0.599-0.535,1.096-0.649,1.389-0.649c0.688,0,1.095,0.6,1.095,1.604
			c0,1.02-0.56,2.994-0.865,3.645c-0.586,1.21-1.414,1.77-2.051,1.77c-1.134,0-1.351-1.427-1.351-1.528c0-0.025,0-0.063,0.051-0.268
			L60.089,20.42 M57.058,27.883c-0.128,0.574-0.166,0.702-0.93,0.702c-0.204,0-0.396,0-0.396,0.318c0,0.14,0.089,0.216,0.229,0.216
			c0.459,0,0.955-0.051,1.439-0.051c0.572,0,1.159,0.051,1.707,0.051c0.076,0,0.306,0,0.306-0.344c0-0.19-0.166-0.19-0.407-0.19
			c-0.867,0-0.867-0.128-0.867-0.28c0-0.204,0.727-3.007,0.842-3.427c0.229,0.497,0.713,1.095,1.578,1.095
			c2,0,4.141-2.509,4.141-5.03c0-1.619-0.969-2.752-2.28-2.752c-0.854,0-1.681,0.611-2.255,1.287
			C60,18.547,59.261,18.19,58.624,18.19c-0.79,0-1.121,0.662-1.273,0.981c-0.307,0.585-0.535,1.617-0.535,1.668
			c0,0.166,0.178,0.166,0.217,0.166c0.165,0,0.178-0.014,0.279-0.396c0.293-1.223,0.637-2.038,1.262-2.038
			c0.293,0,0.535,0.128,0.535,0.79c0,0.395-0.052,0.573-0.127,0.865L57.058,27.883z"/>
		<path d="M68.382,13.044c0.088-0.203,0.102-0.306,0.102-0.382c0-0.37-0.331-0.662-0.701-0.662c-0.458,0-0.611,0.369-0.662,0.561
			l-1.579,5.196c-0.013,0.025-0.063,0.18-0.063,0.191c0,0.14,0.369,0.269,0.471,0.269c0.076,0,0.09-0.026,0.179-0.205L68.382,13.044
			"/>
	</g>
</g>
<g>
</g>
<g>
</g>
<g>
</g>
<g>
</g>
<g>
</g>
<g>
</g>
<g>
</g>
</svg>
