<?xml version="1.0" encoding="utf-8"?>
<!-- Generator: Adobe Illustrator 16.0.0, SVG Export Plug-In . SVG Version: 6.00 Build 0)  -->
<!DOCTYPE svg PUBLIC "-//W3C//DTD SVG 1.1 Tiny//EN" "http://www.w3.org/Graphics/SVG/1.1/DTD/svg11-tiny.dtd">
<svg version="1.1" baseProfile="tiny" id="Layer_1" xmlns="http://www.w3.org/2000/svg" xmlns:xlink="http://www.w3.org/1999/xlink"
	 x="0px" y="0px" width="340px" height="221px" viewBox="0 0 340 221" xml:space="preserve">
<g>
	<g>
		<line fill="none" stroke="#7833E5" stroke-linecap="round" stroke-linejoin="round" x1="240" y1="176" x2="24.885" y2="23.627"/>
		<g>
			<polygon fill="#7833E5" points="29.953,22.205 30.086,23.196 25.198,23.848 26.205,28.676 25.226,28.879 24.001,22.999 			"/>
		</g>
	</g>
	
		<line fill="none" stroke="#386DF9" stroke-linecap="round" stroke-linejoin="round" stroke-miterlimit="10" x1="168" y1="32" x2="33" y2="140"/>
	<polyline fill="none" stroke="#C6C5C5" stroke-linecap="round" stroke-linejoin="round" stroke-miterlimit="10" points="33,140 
		240,176 168,32 	"/>
	
		<circle fill="none" stroke="#231F20" stroke-width="2" stroke-linecap="round" stroke-linejoin="round" stroke-miterlimit="10" cx="33" cy="140" r="9"/>
	
		<circle fill="none" stroke="#231F20" stroke-width="2" stroke-linecap="round" stroke-linejoin="round" stroke-miterlimit="10" cx="168" cy="32" r="9"/>
	
		<circle fill="none" stroke="#E74546" stroke-width="2" stroke-linecap="round" stroke-linejoin="round" stroke-miterlimit="10" cx="240" cy="176" r="9"/>
	
		<circle fill="none" stroke="#FFBDBD" stroke-width="2" stroke-linecap="round" stroke-linejoin="round" stroke-miterlimit="10" cx="77" cy="60" r="9"/>
	<g>
		<line fill="none" stroke="#FFDC52" stroke-linecap="round" stroke-linejoin="round" x1="240" y1="176" x2="87.886" y2="68.625"/>
		<g>
			<polygon fill="#FFDC52" points="92.951,67.195 93.086,68.187 88.2,68.846 89.215,73.672 88.235,73.877 87.001,67.999 			"/>
		</g>
	</g>
	<g>
		<rect x="24" y="203" fill="none" width="135" height="36"/>
		<path fill="#231F20" d="M29.76,211.336h0.769c-0.139,0.672-0.451,1.208-0.937,1.607c-0.485,0.4-1.091,0.601-1.815,0.601
			c-0.939,0-1.699-0.341-2.28-1.024c-0.582-0.682-0.872-1.572-0.872-2.672c0-1.077,0.285-1.963,0.856-2.656
			c0.57-0.693,1.33-1.039,2.279-1.039c0.918,0,1.627,0.316,2.128,0.951c0.502,0.635,0.752,1.475,0.752,2.521v0.288h-5.231
			c0.011,0.896,0.234,1.607,0.672,2.136s1.002,0.792,1.696,0.792c0.501,0,0.93-0.133,1.288-0.4
			C29.421,212.174,29.653,211.805,29.76,211.336z M27.76,206.855c-0.64,0-1.165,0.219-1.576,0.656
			c-0.41,0.438-0.658,1.029-0.743,1.776h4.399c-0.021-0.683-0.208-1.259-0.56-1.728C28.928,207.091,28.421,206.855,27.76,206.855z"
			/>
		<path fill="#231F20" d="M37.488,206.296l-2.513,3.456L37.6,213.4h-0.88l-2.191-3.041L32.32,213.4h-0.849l2.624-3.617l-2.512-3.487
			h0.88l2.08,2.896l2.096-2.896H37.488z"/>
		<path fill="#231F20" d="M39.92,212.344v3.776h-0.8v-9.824h0.8v1.056c0.214-0.33,0.521-0.613,0.921-0.848
			c0.399-0.234,0.829-0.352,1.287-0.352c0.992,0,1.758,0.354,2.297,1.063c0.538,0.71,0.808,1.587,0.808,2.632
			c0,1.046-0.27,1.923-0.808,2.633c-0.539,0.709-1.305,1.063-2.297,1.063c-0.458,0-0.888-0.118-1.287-0.353
			C40.44,212.957,40.134,212.675,39.92,212.344z M39.92,208.296v3.104c0.491,0.938,1.2,1.408,2.129,1.408
			c0.735,0,1.316-0.275,1.743-0.824c0.427-0.55,0.641-1.262,0.641-2.137c0-0.874-0.214-1.586-0.641-2.136s-1.008-0.824-1.743-0.824
			C41.12,206.888,40.411,207.357,39.92,208.296z"/>
		<path fill="#231F20" d="M51.824,213.4h-0.768v-0.672c-0.171,0.202-0.438,0.383-0.8,0.543c-0.363,0.16-0.752,0.24-1.168,0.24
			c-0.747,0-1.371-0.199-1.872-0.6c-0.502-0.4-0.752-0.931-0.752-1.592c0-0.641,0.256-1.163,0.768-1.568s1.142-0.607,1.888-0.607
			c0.385,0,0.758,0.076,1.12,0.231s0.635,0.328,0.816,0.521v-1.265c0-0.533-0.157-0.962-0.473-1.288
			c-0.314-0.325-0.749-0.488-1.304-0.488c-0.886,0-1.461,0.406-1.728,1.217h-0.784c0.139-0.598,0.435-1.066,0.888-1.408
			s0.995-0.512,1.624-0.512c0.789,0,1.411,0.221,1.864,0.664c0.453,0.442,0.68,1.037,0.68,1.783V213.4z M51.057,211.783v-0.911
			c-0.118-0.31-0.354-0.562-0.712-0.761c-0.357-0.197-0.75-0.295-1.177-0.295c-0.544,0-1.005,0.131-1.384,0.392
			s-0.567,0.632-0.567,1.112c0,0.479,0.188,0.854,0.567,1.119c0.379,0.268,0.84,0.4,1.384,0.4c0.427,0,0.819-0.099,1.177-0.296
			S50.938,212.094,51.057,211.783z"/>
		<path fill="#231F20" d="M54.017,213.4v-7.104h0.8v1.136c0.235-0.362,0.553-0.666,0.952-0.912c0.4-0.245,0.84-0.367,1.32-0.367
			c0.789,0,1.397,0.231,1.824,0.695c0.427,0.465,0.64,1.08,0.64,1.848v4.705h-0.784v-4.592c0-0.576-0.151-1.041-0.456-1.393
			c-0.304-0.352-0.76-0.528-1.367-0.528c-0.47,0-0.896,0.144-1.28,0.433c-0.384,0.287-0.667,0.656-0.849,1.104v4.977H54.017z"/>
		<path fill="#231F20" d="M66.544,213.4v-1.057c-0.213,0.331-0.52,0.613-0.92,0.848c-0.399,0.234-0.829,0.353-1.288,0.353
			c-1.002,0-1.771-0.354-2.304-1.063c-0.533-0.71-0.8-1.587-0.8-2.633c0-1.045,0.267-1.922,0.8-2.632
			c0.533-0.709,1.302-1.063,2.304-1.063c0.459,0,0.889,0.117,1.288,0.352c0.4,0.234,0.707,0.518,0.92,0.848V203h0.784v10.4H66.544z
			 M66.544,211.4v-3.104c-0.234-0.448-0.541-0.794-0.92-1.04c-0.378-0.245-0.786-0.368-1.224-0.368
			c-0.726,0-1.302,0.274-1.728,0.824c-0.427,0.55-0.641,1.262-0.641,2.136c0,0.875,0.214,1.587,0.641,2.137
			c0.426,0.549,1.002,0.824,1.728,0.824c0.438,0,0.846-0.123,1.224-0.369C66.003,212.195,66.31,211.848,66.544,211.4z"/>
	</g>
	
		<circle fill="none" stroke="#FF1614" stroke-width="2" stroke-linecap="round" stroke-linejoin="round" stroke-miterlimit="10" cx="15" cy="14" r="9"/>
	<g>
		<rect x="251" y="185" fill="none" width="75" height="18"/>
		<path fill="#231F20" d="M256.584,188.296l1.456,5.424l1.568-5.424h1.168l-2.097,7.104h-1.168l-1.472-5.393l-1.488,5.393h-1.168
			l-2.096-7.104h1.2l1.567,5.424l1.456-5.424H256.584z"/>
		<path fill="#231F20" d="M267.248,189.184c0.603,0.688,0.904,1.576,0.904,2.664s-0.302,1.977-0.904,2.664s-1.389,1.032-2.359,1.032
			s-1.758-0.345-2.36-1.032s-0.904-1.576-0.904-2.664s0.302-1.976,0.904-2.664c0.603-0.688,1.39-1.031,2.36-1.031
			S266.646,188.496,267.248,189.184z M266.385,193.76c0.368-0.485,0.552-1.123,0.552-1.912s-0.184-1.426-0.552-1.912
			c-0.368-0.484-0.867-0.728-1.496-0.728c-0.63,0-1.128,0.243-1.496,0.728c-0.368,0.486-0.552,1.123-0.552,1.912
			s0.184,1.427,0.552,1.912c0.368,0.486,0.866,0.729,1.496,0.729C265.518,194.488,266.017,194.246,266.385,193.76z"/>
		<path fill="#231F20" d="M273.433,188.264v1.232c-0.191-0.129-0.458-0.192-0.8-0.192c-0.384,0-0.726,0.118-1.023,0.353
			c-0.299,0.234-0.507,0.56-0.624,0.976v4.769h-1.2v-7.104h1.2v0.929c0.159-0.311,0.396-0.566,0.712-0.769
			c0.314-0.202,0.664-0.304,1.048-0.304C273.054,188.152,273.283,188.189,273.433,188.264z"/>
		<path fill="#231F20" d="M274.281,193.447h1.247c0.225,0.727,0.784,1.089,1.681,1.089c0.438,0,0.789-0.089,1.056-0.265
			s0.4-0.439,0.4-0.791c0-0.48-0.353-0.811-1.057-0.992l-1.407-0.368c-1.142-0.288-1.712-0.912-1.712-1.872
			c0-0.619,0.239-1.123,0.72-1.512c0.479-0.39,1.088-0.584,1.824-0.584c0.768,0,1.386,0.176,1.855,0.527s0.769,0.848,0.896,1.488
			h-1.2c-0.214-0.672-0.736-1.008-1.568-1.008c-0.373,0-0.693,0.088-0.96,0.264s-0.399,0.43-0.399,0.76
			c0,0.234,0.077,0.419,0.231,0.553c0.154,0.133,0.408,0.248,0.76,0.344l1.376,0.336c1.206,0.32,1.809,0.981,1.809,1.984
			c0,0.661-0.246,1.184-0.736,1.567s-1.125,0.576-1.904,0.576c-0.778,0-1.432-0.187-1.96-0.56
			C274.705,194.611,274.388,194.099,274.281,193.447z"/>
		<path fill="#231F20" d="M281.833,193.607v-4.287h-1.152v-1.024h1.152v-1.872h1.2v1.872h1.712v1.024h-1.712v4.16
			c0,0.661,0.314,0.991,0.943,0.991c0.331,0,0.641-0.096,0.929-0.288v1.12c-0.299,0.16-0.673,0.24-1.12,0.24
			c-0.598,0-1.072-0.163-1.425-0.488C282.009,194.73,281.833,194.248,281.833,193.607z"/>
		<path fill="#231F20" d="M291.306,194.568v3.552h-1.2v-9.824h1.2v0.832c0.202-0.277,0.482-0.509,0.84-0.696
			c0.357-0.186,0.744-0.279,1.16-0.279c1.002,0,1.786,0.354,2.352,1.063c0.565,0.71,0.848,1.587,0.848,2.632
			c0,1.046-0.282,1.923-0.848,2.633c-0.565,0.709-1.35,1.063-2.352,1.063c-0.416,0-0.803-0.094-1.16-0.28
			C291.788,195.078,291.508,194.846,291.306,194.568z M291.306,190.408v2.88c0.181,0.362,0.434,0.647,0.76,0.856
			c0.325,0.207,0.68,0.312,1.063,0.312c0.661,0,1.187-0.243,1.576-0.728c0.39-0.486,0.584-1.113,0.584-1.881
			s-0.194-1.395-0.584-1.88s-0.915-0.728-1.576-0.728c-0.384,0-0.738,0.104-1.063,0.312
			C291.739,189.76,291.486,190.045,291.306,190.408z"/>
		<path fill="#231F20" d="M303.281,189.184c0.603,0.688,0.904,1.576,0.904,2.664s-0.302,1.977-0.904,2.664s-1.389,1.032-2.359,1.032
			s-1.758-0.345-2.36-1.032s-0.904-1.576-0.904-2.664s0.302-1.976,0.904-2.664c0.603-0.688,1.39-1.031,2.36-1.031
			S302.679,188.496,303.281,189.184z M302.418,193.76c0.368-0.485,0.552-1.123,0.552-1.912s-0.184-1.426-0.552-1.912
			c-0.368-0.484-0.867-0.728-1.496-0.728c-0.63,0-1.128,0.243-1.496,0.728c-0.368,0.486-0.552,1.123-0.552,1.912
			s0.184,1.427,0.552,1.912c0.368,0.486,0.866,0.729,1.496,0.729C301.551,194.488,302.05,194.246,302.418,193.76z"/>
		<path fill="#231F20" d="M306.962,185.607c0.154,0.15,0.232,0.331,0.232,0.545c0,0.213-0.078,0.395-0.232,0.543
			c-0.154,0.15-0.339,0.225-0.552,0.225c-0.214,0-0.395-0.074-0.544-0.225c-0.149-0.148-0.224-0.33-0.224-0.543
			c0-0.214,0.074-0.395,0.224-0.545c0.149-0.148,0.33-0.224,0.544-0.224C306.623,185.384,306.808,185.459,306.962,185.607z
			 M307.019,188.296v7.104h-1.2v-7.104H307.019z"/>
		<path fill="#231F20" d="M309.162,195.4v-7.104h1.2v0.896c0.224-0.298,0.52-0.546,0.888-0.744c0.368-0.197,0.771-0.295,1.208-0.295
			c0.789,0,1.402,0.234,1.84,0.703c0.438,0.47,0.656,1.1,0.656,1.889v4.656h-1.216v-4.465c0-0.512-0.131-0.92-0.393-1.224
			s-0.653-0.456-1.176-0.456c-0.416,0-0.79,0.125-1.12,0.376c-0.331,0.251-0.56,0.567-0.688,0.952v4.816H309.162z"/>
		<path fill="#231F20" d="M317.322,193.607v-4.287h-1.152v-1.024h1.152v-1.872h1.2v1.872h1.712v1.024h-1.712v4.16
			c0,0.661,0.314,0.991,0.943,0.991c0.331,0,0.641-0.096,0.929-0.288v1.12c-0.299,0.16-0.673,0.24-1.12,0.24
			c-0.598,0-1.072-0.163-1.425-0.488C317.498,194.73,317.322,194.248,317.322,193.607z"/>
	</g>
	<path d="M329.885,189.574c0.111-0.447,0.572-0.922,0.871-1.17c0.586-0.523,1.07-0.635,1.357-0.635c0.672,0,1.084,0.585,1.084,1.568
		c0,0.996-0.561,2.926-0.859,3.561c-0.574,1.184-1.383,1.731-2.005,1.731c-1.108,0-1.319-1.395-1.319-1.494
		c0-0.024,0-0.062,0.049-0.261L329.885,189.574 M326.934,196.871c-0.138,0.561-0.174,0.686-0.909,0.686c-0.2,0-0.386,0-0.386,0.311
		c0,0.138,0.074,0.212,0.211,0.212c0.461,0,0.946-0.05,1.42-0.05c0.548,0,1.121,0.05,1.656,0.05c0.088,0,0.299,0,0.299-0.336
		c0-0.187-0.162-0.187-0.398-0.187c-0.848,0-0.848-0.125-0.848-0.274c0-0.199,0.71-2.938,0.835-3.35
		c0.212,0.485,0.685,1.071,1.544,1.071c1.942,0,4.047-2.453,4.047-4.918c0-1.582-0.959-2.69-2.241-2.69
		c-0.835,0-1.645,0.599-2.192,1.257c-0.174-0.908-0.896-1.257-1.519-1.257c-0.772,0-1.083,0.647-1.245,0.959
		c-0.299,0.573-0.51,1.581-0.51,1.631c0,0.162,0.161,0.162,0.198,0.162c0.162,0,0.187-0.013,0.286-0.386
		c0.287-1.195,0.623-1.992,1.221-1.992c0.286,0,0.523,0.124,0.523,0.771c0,0.387-0.051,0.561-0.112,0.847l-1.894,7.483H326.934z"/>
	<g>
		<path d="M71.98,37.86c0.115-0.459,0.586-0.942,0.892-1.198c0.599-0.535,1.096-0.649,1.389-0.649c0.688,0,1.095,0.6,1.095,1.604
			c0,1.02-0.56,2.994-0.865,3.645c-0.586,1.21-1.414,1.77-2.051,1.77c-1.134,0-1.351-1.427-1.351-1.528c0-0.025,0-0.063,0.051-0.268
			L71.98,37.86 M68.949,45.323c-0.128,0.574-0.166,0.702-0.93,0.702c-0.204,0-0.396,0-0.396,0.318c0,0.14,0.089,0.216,0.229,0.216
			c0.459,0,0.955-0.051,1.439-0.051c0.572,0,1.159,0.051,1.707,0.051c0.076,0,0.306,0,0.306-0.344c0-0.19-0.166-0.19-0.407-0.19
			c-0.867,0-0.867-0.128-0.867-0.28c0-0.204,0.727-3.007,0.842-3.427c0.229,0.497,0.713,1.095,1.578,1.095
			c2,0,4.141-2.509,4.141-5.03c0-1.619-0.969-2.752-2.28-2.752c-0.854,0-1.681,0.611-2.255,1.287
			c-0.165-0.931-0.904-1.287-1.541-1.287c-0.79,0-1.121,0.662-1.273,0.981c-0.307,0.585-0.535,1.617-0.535,1.668
			c0,0.166,0.178,0.166,0.217,0.166c0.165,0,0.178-0.014,0.279-0.396c0.293-1.223,0.637-2.038,1.262-2.038
			c0.293,0,0.535,0.128,0.535,0.79c0,0.395-0.052,0.573-0.127,0.865L68.949,45.323z"/>
		<path d="M80.273,30.484c0.088-0.203,0.102-0.306,0.102-0.382c0-0.37-0.331-0.662-0.701-0.662c-0.458,0-0.611,0.369-0.662,0.561
			l-1.579,5.196c-0.013,0.025-0.063,0.18-0.063,0.191c0,0.14,0.369,0.269,0.471,0.269c0.076,0,0.09-0.026,0.179-0.205L80.273,30.484
			"/>
	</g>
</g>
<g>
</g>
<g>
</g>
<g>
</g>
<g>
</g>
<g>
</g>
<g>
</g>
<g>
</g>
</svg>
