<?xml version="1.0" encoding="iso-8859-1"?>
<!-- Generator: Adobe Illustrator 16.0.0, SVG Export Plug-In . SVG Version: 6.00 Build 0)  -->
<!DOCTYPE svg PUBLIC "-//W3C//DTD SVG 1.1//EN" "http://www.w3.org/Graphics/SVG/1.1/DTD/svg11.dtd">
<svg version="1.1" id="Layer_1" xmlns="http://www.w3.org/2000/svg" xmlns:xlink="http://www.w3.org/1999/xlink" x="0px" y="0px"
	 width="704.668px" height="515px" viewBox="0 0 704.668 515" style="enable-background:new 0 0 704.668 515;" xml:space="preserve"
	>
<g>
	
		<line style="fill:none;stroke:#386DF9;stroke-width:2;stroke-linecap:round;stroke-linejoin:round;stroke-miterlimit:10;" x1="156.814" y1="28.098" x2="29.488" y2="129.958"/>
	<polyline style="fill:none;stroke:#C6C5C5;stroke-linecap:round;stroke-linejoin:round;stroke-miterlimit:10;" points="
		29.488,129.958 224.722,163.912 156.814,28.098 	"/>
	
		<circle style="fill:none;stroke:#231F20;stroke-width:2;stroke-linecap:round;stroke-linejoin:round;stroke-miterlimit:10;" cx="29.488" cy="129.958" r="8.488"/>
	
		<circle style="fill:none;stroke:#231F20;stroke-width:2;stroke-linecap:round;stroke-linejoin:round;stroke-miterlimit:10;" cx="156.814" cy="28.098" r="8.489"/>
	
		<circle style="fill:none;stroke:#FF1614;stroke-width:2;stroke-linecap:round;stroke-linejoin:round;stroke-miterlimit:10;" cx="224.721" cy="163.912" r="8.489"/>
	<g>
		<rect x="237.926" y="169.571" style="fill:none;" width="70.737" height="16.977"/>
		<path style="fill:#231F20;" d="M243.193,172.68l1.373,5.116l1.479-5.116h1.102l-1.977,6.7h-1.102l-1.388-5.085l-1.403,5.085
			h-1.102l-1.977-6.7h1.132l1.479,5.116l1.373-5.116H243.193z"/>
		<path style="fill:#231F20;" d="M253.25,173.517c0.568,0.649,0.853,1.486,0.853,2.513s-0.284,1.864-0.853,2.513
			s-1.311,0.973-2.226,0.973s-1.657-0.324-2.226-0.973s-0.853-1.486-0.853-2.513s0.284-1.864,0.853-2.513s1.31-0.973,2.226-0.973
			S252.682,172.868,253.25,173.517z M252.436,177.833c0.347-0.458,0.521-1.059,0.521-1.803c0-0.744-0.173-1.345-0.521-1.803
			c-0.347-0.458-0.817-0.687-1.411-0.687s-1.063,0.229-1.411,0.687c-0.347,0.458-0.521,1.059-0.521,1.803
			c0,0.745,0.174,1.346,0.521,1.803c0.347,0.458,0.817,0.687,1.411,0.687S252.088,178.291,252.436,177.833z"/>
		<path style="fill:#231F20;" d="M259.083,172.649v1.162c-0.181-0.121-0.433-0.181-0.754-0.181c-0.362,0-0.685,0.111-0.966,0.332
			c-0.282,0.221-0.478,0.528-0.588,0.92v4.497h-1.132v-6.7h1.132v0.875c0.151-0.292,0.375-0.533,0.671-0.725
			c0.296-0.191,0.626-0.287,0.988-0.287C258.726,172.544,258.942,172.579,259.083,172.649z"/>
		<path style="fill:#231F20;" d="M259.883,177.539h1.177c0.211,0.684,0.739,1.026,1.584,1.026c0.412,0,0.744-0.083,0.996-0.249
			c0.251-0.166,0.377-0.415,0.377-0.747c0-0.453-0.332-0.764-0.996-0.936l-1.328-0.347c-1.077-0.271-1.615-0.86-1.615-1.766
			c0-0.583,0.227-1.059,0.679-1.426s1.026-0.551,1.72-0.551c0.724,0,1.308,0.166,1.75,0.498c0.442,0.332,0.724,0.8,0.845,1.403
			h-1.132c-0.202-0.634-0.694-0.951-1.479-0.951c-0.352,0-0.654,0.083-0.905,0.249c-0.252,0.166-0.377,0.405-0.377,0.717
			c0,0.221,0.073,0.395,0.219,0.521c0.146,0.126,0.385,0.234,0.717,0.325l1.298,0.317c1.137,0.302,1.705,0.925,1.705,1.871
			c0,0.624-0.231,1.117-0.694,1.479c-0.463,0.362-1.062,0.543-1.796,0.543s-1.351-0.176-1.849-0.528
			C260.283,178.635,259.984,178.153,259.883,177.539z"/>
		<path style="fill:#231F20;" d="M267.006,177.69v-4.044h-1.087v-0.966h1.087v-1.766h1.132v1.766h1.614v0.966h-1.614v3.923
			c0,0.624,0.296,0.936,0.89,0.936c0.312,0,0.604-0.09,0.875-0.271v1.057c-0.282,0.151-0.634,0.226-1.056,0.226
			c-0.563,0-1.011-0.153-1.343-0.46C267.172,178.749,267.006,178.293,267.006,177.69z"/>
		<path style="fill:#231F20;" d="M275.939,178.595v3.35h-1.132v-9.266h1.132v0.785c0.191-0.261,0.455-0.48,0.792-0.656
			c0.337-0.176,0.702-0.264,1.094-0.264c0.945,0,1.685,0.334,2.218,1.003c0.533,0.669,0.8,1.497,0.8,2.482s-0.267,1.813-0.8,2.482
			c-0.534,0.669-1.273,1.003-2.218,1.003c-0.393,0-0.757-0.088-1.094-0.264C276.395,179.076,276.13,178.857,275.939,178.595z
			 M275.939,174.672v2.716c0.171,0.342,0.41,0.611,0.717,0.808c0.307,0.196,0.641,0.294,1.003,0.294
			c0.624,0,1.119-0.229,1.486-0.687c0.367-0.458,0.551-1.049,0.551-1.773s-0.184-1.315-0.551-1.773
			c-0.367-0.458-0.863-0.687-1.486-0.687c-0.362,0-0.697,0.098-1.003,0.294C276.349,174.061,276.11,174.33,275.939,174.672z"/>
		<path style="fill:#231F20;" d="M287.234,173.517c0.568,0.649,0.853,1.486,0.853,2.513s-0.284,1.864-0.853,2.513
			s-1.311,0.973-2.226,0.973s-1.657-0.324-2.226-0.973s-0.853-1.486-0.853-2.513s0.284-1.864,0.853-2.513s1.31-0.973,2.226-0.973
			S286.666,172.868,287.234,173.517z M286.419,177.833c0.347-0.458,0.521-1.059,0.521-1.803c0-0.744-0.173-1.345-0.521-1.803
			c-0.347-0.458-0.817-0.687-1.411-0.687s-1.063,0.229-1.411,0.687c-0.347,0.458-0.521,1.059-0.521,1.803
			c0,0.745,0.174,1.346,0.521,1.803c0.347,0.458,0.817,0.687,1.411,0.687S286.072,178.291,286.419,177.833z"/>
		<path style="fill:#231F20;" d="M290.705,170.145c0.146,0.141,0.219,0.312,0.219,0.513s-0.073,0.372-0.219,0.513
			c-0.146,0.141-0.319,0.211-0.521,0.211s-0.372-0.07-0.513-0.211c-0.141-0.141-0.211-0.312-0.211-0.513s0.07-0.372,0.211-0.513
			c0.141-0.141,0.312-0.211,0.513-0.211S290.559,170.004,290.705,170.145z M290.758,172.68v6.7h-1.132v-6.7H290.758z"/>
		<path style="fill:#231F20;" d="M292.78,179.38v-6.7h1.132v0.845c0.211-0.282,0.49-0.516,0.837-0.702s0.727-0.279,1.139-0.279
			c0.745,0,1.323,0.221,1.735,0.664s0.619,1.036,0.619,1.781v4.391h-1.146v-4.21c0-0.483-0.124-0.868-0.37-1.154
			s-0.616-0.43-1.109-0.43c-0.393,0-0.745,0.119-1.057,0.355c-0.312,0.236-0.528,0.536-0.648,0.898v4.542H292.78z"/>
		<path style="fill:#231F20;" d="M300.476,177.69v-4.044h-1.087v-0.966h1.087v-1.766h1.132v1.766h1.614v0.966h-1.614v3.923
			c0,0.624,0.296,0.936,0.89,0.936c0.312,0,0.604-0.09,0.875-0.271v1.057c-0.282,0.151-0.634,0.226-1.056,0.226
			c-0.563,0-1.011-0.153-1.343-0.46C300.642,178.749,300.476,178.293,300.476,177.69z"/>
	</g>
	<g>
		<rect x="25.245" y="62.051" style="fill:none;" width="63.663" height="33.954"/>
		<path style="fill:#231F20;" d="M38.281,71.075v0.785h-1.147v-9.809h1.147v3.893c0.181-0.261,0.442-0.48,0.785-0.656
			c0.342-0.176,0.709-0.264,1.102-0.264c0.945,0,1.685,0.334,2.218,1.003c0.533,0.669,0.8,1.497,0.8,2.482
			c0,0.996-0.267,1.826-0.8,2.49c-0.534,0.664-1.273,0.996-2.218,0.996c-0.393,0-0.76-0.088-1.102-0.264
			C38.723,71.556,38.461,71.337,38.281,71.075z M38.281,67.152v2.716c0.171,0.342,0.41,0.611,0.717,0.808
			c0.307,0.196,0.641,0.294,1.003,0.294c0.624,0,1.119-0.229,1.486-0.687c0.367-0.458,0.551-1.049,0.551-1.773
			s-0.184-1.315-0.551-1.773c-0.367-0.458-0.863-0.687-1.486-0.687c-0.362,0-0.697,0.098-1.003,0.294
			C38.69,66.541,38.452,66.81,38.281,67.152z"/>
		<path style="fill:#231F20;" d="M48.979,69.853h1.071c-0.121,0.654-0.417,1.174-0.89,1.562c-0.473,0.388-1.077,0.581-1.811,0.581
			c-0.916,0-1.657-0.319-2.226-0.958c-0.568-0.639-0.853-1.477-0.853-2.513c0-1.016,0.281-1.854,0.845-2.513
			c0.563-0.659,1.298-0.988,2.204-0.988c0.895,0,1.589,0.299,2.082,0.898c0.493,0.599,0.74,1.396,0.74,2.392v0.408h-4.738
			c0.01,0.704,0.193,1.265,0.551,1.683c0.357,0.417,0.822,0.626,1.396,0.626c0.423,0,0.777-0.103,1.064-0.309
			S48.889,70.225,48.979,69.853z M47.334,65.99c-0.503,0-0.925,0.166-1.268,0.498c-0.342,0.332-0.553,0.79-0.634,1.373h3.562
			c-0.01-0.533-0.156-0.978-0.438-1.335C48.275,66.168,47.868,65.99,47.334,65.99z"/>
		<path style="fill:#231F20;" d="M51.122,70.019h1.177c0.211,0.684,0.739,1.026,1.584,1.026c0.412,0,0.744-0.083,0.996-0.249
			c0.251-0.166,0.377-0.415,0.377-0.747c0-0.453-0.332-0.764-0.996-0.936l-1.328-0.347c-1.077-0.271-1.615-0.86-1.615-1.766
			c0-0.583,0.227-1.059,0.679-1.426s1.026-0.551,1.72-0.551c0.724,0,1.308,0.166,1.75,0.498c0.442,0.332,0.724,0.8,0.845,1.403
			h-1.132c-0.202-0.634-0.694-0.951-1.479-0.951c-0.352,0-0.654,0.083-0.905,0.249c-0.252,0.166-0.377,0.405-0.377,0.717
			c0,0.221,0.073,0.395,0.219,0.521c0.146,0.126,0.385,0.234,0.717,0.325l1.298,0.317c1.137,0.302,1.705,0.925,1.705,1.871
			c0,0.624-0.231,1.117-0.694,1.479c-0.463,0.362-1.062,0.543-1.796,0.543s-1.351-0.176-1.849-0.528
			C51.521,71.115,51.222,70.633,51.122,70.019z"/>
		<path style="fill:#231F20;" d="M58.244,70.17v-4.044h-1.087V65.16h1.087v-1.766h1.132v1.766h1.614v0.966h-1.614v3.923
			c0,0.624,0.296,0.936,0.89,0.936c0.312,0,0.604-0.09,0.875-0.271v1.057c-0.282,0.151-0.634,0.226-1.056,0.226
			c-0.563,0-1.011-0.153-1.343-0.46C58.41,71.229,58.244,70.773,58.244,70.17z"/>
		<path style="fill:#231F20;" d="M65.488,70.019h1.177c0.211,0.684,0.739,1.026,1.584,1.026c0.412,0,0.744-0.083,0.996-0.249
			c0.251-0.166,0.377-0.415,0.377-0.747c0-0.453-0.332-0.764-0.996-0.936l-1.328-0.347c-1.077-0.271-1.615-0.86-1.615-1.766
			c0-0.583,0.227-1.059,0.679-1.426s1.026-0.551,1.72-0.551c0.724,0,1.308,0.166,1.75,0.498c0.442,0.332,0.724,0.8,0.845,1.403
			h-1.132c-0.202-0.634-0.694-0.951-1.479-0.951c-0.352,0-0.654,0.083-0.905,0.249c-0.252,0.166-0.377,0.405-0.377,0.717
			c0,0.221,0.073,0.395,0.219,0.521c0.146,0.126,0.385,0.234,0.717,0.325l1.298,0.317c1.137,0.302,1.705,0.925,1.705,1.871
			c0,0.624-0.231,1.117-0.694,1.479c-0.463,0.362-1.062,0.543-1.796,0.543s-1.351-0.176-1.849-0.528
			C65.888,71.115,65.588,70.633,65.488,70.019z"/>
		<path style="fill:#231F20;" d="M73.372,62.625c0.146,0.141,0.219,0.312,0.219,0.513s-0.073,0.372-0.219,0.513
			c-0.146,0.141-0.319,0.211-0.521,0.211s-0.372-0.07-0.513-0.211c-0.141-0.141-0.211-0.312-0.211-0.513s0.07-0.372,0.211-0.513
			c0.141-0.141,0.312-0.211,0.513-0.211S73.226,62.484,73.372,62.625z M73.425,65.16v6.7h-1.132v-6.7H73.425z"/>
		<path style="fill:#231F20;" d="M79.868,71.86v-0.785c-0.181,0.262-0.443,0.48-0.785,0.656c-0.342,0.176-0.709,0.264-1.102,0.264
			c-0.946,0-1.686-0.332-2.218-0.996c-0.534-0.664-0.8-1.494-0.8-2.49c0-0.986,0.266-1.813,0.8-2.482
			c0.533-0.669,1.272-1.003,2.218-1.003c0.392,0,0.759,0.088,1.102,0.264c0.342,0.176,0.604,0.395,0.785,0.656v-3.893h1.147v9.809
			H79.868z M79.868,69.868v-2.716c-0.171-0.342-0.41-0.611-0.717-0.808c-0.307-0.196-0.642-0.294-1.003-0.294
			c-0.624,0-1.12,0.229-1.486,0.687c-0.368,0.458-0.551,1.049-0.551,1.773s0.184,1.315,0.551,1.773
			c0.367,0.458,0.862,0.687,1.486,0.687c0.362,0,0.696-0.098,1.003-0.294C79.458,70.479,79.697,70.21,79.868,69.868z"/>
		<path style="fill:#231F20;" d="M87.247,69.853h1.071c-0.121,0.654-0.417,1.174-0.89,1.562c-0.473,0.388-1.077,0.581-1.811,0.581
			c-0.916,0-1.657-0.319-2.226-0.958c-0.568-0.639-0.853-1.477-0.853-2.513c0-1.016,0.281-1.854,0.845-2.513
			c0.563-0.659,1.298-0.988,2.204-0.988c0.895,0,1.589,0.299,2.082,0.898c0.493,0.599,0.74,1.396,0.74,2.392v0.408h-4.738
			c0.01,0.704,0.193,1.265,0.551,1.683c0.357,0.417,0.822,0.626,1.396,0.626c0.423,0,0.777-0.103,1.064-0.309
			S87.157,70.225,87.247,69.853z M85.602,65.99c-0.503,0-0.925,0.166-1.268,0.498c-0.342,0.332-0.553,0.79-0.634,1.373h3.562
			c-0.01-0.533-0.156-0.978-0.438-1.335C86.543,66.168,86.135,65.99,85.602,65.99z"/>
	</g>
	<path d="M318.958,172.713c1.083,0.244,1.604,1.459,1.508,2.481c-0.037,0.34-0.084,0.669-0.183,0.997
		c-0.292,0.974-0.937,1.873-1.799,2.396c-0.401,0.244-0.852,0.414-1.338,0.438c-0.705,0.048-1.13-0.329-1.349-0.827
		c-0.037-0.122-0.11-0.255-0.11-0.365c0-0.182,0.085-0.401,0.122-0.571c0.183-0.913,0.571-2.712,0.571-2.712l0.098-0.474
		c0.073-0.39,0.194-0.486,0.474-0.742C317.486,172.908,318.119,172.568,318.958,172.713 M316.672,173.09l0.231-1.119h-1.033
		l-2.213,10.482h1.046l0.814-3.83c0.17,0.303,0.341,0.583,0.622,0.814c0.862,0.705,2.115,0.414,2.966-0.134
		c1.605-1.009,2.53-2.979,2.445-4.852c-0.049-1.021-0.511-2.213-1.581-2.542C318.642,171.545,317.268,172.507,316.672,173.09z"/>
</g>
<g>
	<g>
		<g>
			
				<line style="fill:none;stroke:#FFDC52;stroke-width:2;stroke-linecap:round;stroke-linejoin:round;" x1="590.666" y1="444.972" x2="388.714" y2="301.923"/>
			<g>
				<polygon style="fill:#FFDC52;" points="398.85,299.078 399.116,301.062 389.342,302.364 391.355,312.02 389.396,312.427 
					386.945,300.667 				"/>
			</g>
		</g>
	</g>
	
		<line style="fill:none;stroke:#386DF9;stroke-width:2;stroke-linecap:round;stroke-linejoin:round;stroke-miterlimit:10;" x1="522.759" y1="309.158" x2="395.433" y2="411.019"/>
	<polyline style="fill:none;stroke:#C6C5C5;stroke-linecap:round;stroke-linejoin:round;stroke-miterlimit:10;" points="
		395.433,411.019 590.666,444.972 522.759,309.158 	"/>
	
		<circle style="fill:none;stroke:#231F20;stroke-width:2;stroke-linecap:round;stroke-linejoin:round;stroke-miterlimit:10;" cx="395.433" cy="411.019" r="8.488"/>
	
		<circle style="fill:none;stroke:#231F20;stroke-width:2;stroke-linecap:round;stroke-linejoin:round;stroke-miterlimit:10;" cx="522.759" cy="309.158" r="8.488"/>
	
		<circle style="fill:none;stroke:#E74546;stroke-width:2;stroke-linecap:round;stroke-linejoin:round;stroke-miterlimit:10;" cx="590.666" cy="444.972" r="8.488"/>
	
		<circle style="fill:none;stroke:#FFC0D4;stroke-width:2;stroke-linecap:round;stroke-linejoin:round;stroke-miterlimit:10;" cx="436.932" cy="335.566" r="8.488"/>
	<g>
		<g>
			
				<line style="fill:none;stroke:#FF1614;stroke-width:2;stroke-linecap:round;stroke-linejoin:round;" x1="590.666" y1="444.972" x2="448.135" y2="344.362"/>
			<g>
				<polygon style="fill:#FF1614;" points="458.267,341.501 458.536,343.484 448.764,344.803 450.793,354.455 448.833,354.864 
					446.364,343.109 				"/>
			</g>
		</g>
	</g>
	<g>
		<rect x="386.944" y="470.438" style="fill:none;" width="127.326" height="33.953"/>
		<path style="fill:#231F20;" d="M389.691,475.824v-0.679h0.694c0.563,0,1.028-0.161,1.396-0.482
			c0.367-0.322,0.551-0.76,0.551-1.313c0-0.533-0.184-0.968-0.551-1.306c-0.368-0.337-0.848-0.505-1.441-0.505
			c-0.554,0-1.019,0.166-1.396,0.498c-0.377,0.332-0.621,0.779-0.731,1.343h-0.755c0.121-0.765,0.443-1.378,0.966-1.841
			c0.523-0.463,1.162-0.694,1.917-0.694c0.835,0,1.501,0.231,1.999,0.694s0.747,1.057,0.747,1.78c0,0.544-0.161,1.017-0.482,1.419
			c-0.322,0.402-0.725,0.648-1.207,0.739c0.543,0.091,0.99,0.335,1.343,0.731c0.352,0.397,0.528,0.898,0.528,1.502
			c0,0.765-0.26,1.401-0.777,1.909c-0.519,0.508-1.22,0.762-2.105,0.762c-0.855,0-1.554-0.236-2.098-0.709
			c-0.543-0.473-0.87-1.111-0.98-1.917h0.77c0.11,0.614,0.364,1.09,0.762,1.427s0.913,0.505,1.547,0.505
			c0.644,0,1.159-0.179,1.547-0.535c0.388-0.357,0.581-0.833,0.581-1.427c0-0.583-0.204-1.046-0.611-1.388s-0.908-0.514-1.501-0.514
			H389.691z"/>
		<path style="fill:#231F20;" d="M395.638,479.25v0.996h-0.739v-9.809h0.739v4.104c0.201-0.312,0.49-0.578,0.867-0.8
			c0.378-0.222,0.782-0.332,1.215-0.332c0.945,0,1.67,0.335,2.173,1.004s0.755,1.496,0.755,2.482c0,0.985-0.252,1.812-0.755,2.481
			c-0.503,0.67-1.228,1.004-2.173,1.004c-0.433,0-0.837-0.11-1.215-0.332C396.128,479.829,395.839,479.562,395.638,479.25z
			 M395.638,475.433v2.927c0.221,0.423,0.511,0.75,0.867,0.981c0.357,0.231,0.742,0.347,1.154,0.347c0.685,0,1.228-0.259,1.63-0.777
			c0.402-0.518,0.604-1.189,0.604-2.014c0-0.825-0.201-1.497-0.604-2.015c-0.402-0.519-0.945-0.777-1.63-0.777
			c-0.412,0-0.797,0.115-1.154,0.347C396.148,474.683,395.858,475.01,395.638,475.433z"/>
		<path style="fill:#231F20;" d="M401.734,480.125c-0.111-0.11-0.166-0.246-0.166-0.407s0.055-0.299,0.166-0.415
			c0.11-0.115,0.241-0.173,0.393-0.173c0.16,0,0.296,0.058,0.407,0.173c0.11,0.116,0.166,0.254,0.166,0.415
			s-0.056,0.297-0.166,0.407c-0.111,0.111-0.247,0.166-0.407,0.166C401.976,480.291,401.845,480.236,401.734,480.125z"/>
		<path style="fill:#231F20;" d="M407.726,470.98h5.749v0.709h-4.995v3.426h4.527v0.709h-4.527v3.713h4.995v0.709h-5.749V470.98z"/>
		<path style="fill:#231F20;" d="M420.341,473.546l-2.369,3.26l2.475,3.44h-0.83l-2.067-2.867l-2.082,2.867h-0.8l2.475-3.41
			l-2.369-3.29h0.83l1.962,2.731l1.977-2.731H420.341z"/>
		<path style="fill:#231F20;" d="M422.635,479.25v3.562h-0.755v-9.266h0.755v0.996c0.201-0.312,0.49-0.578,0.867-0.8
			c0.378-0.222,0.782-0.332,1.215-0.332c0.936,0,1.657,0.335,2.166,1.004c0.508,0.669,0.762,1.496,0.762,2.482
			c0,0.985-0.254,1.812-0.762,2.481c-0.509,0.67-1.23,1.004-2.166,1.004c-0.433,0-0.837-0.11-1.215-0.332
			C423.125,479.829,422.836,479.562,422.635,479.25z M422.635,475.433v2.927c0.462,0.886,1.132,1.328,2.007,1.328
			c0.694,0,1.242-0.259,1.645-0.777c0.402-0.518,0.604-1.189,0.604-2.014c0-0.825-0.201-1.497-0.604-2.015
			c-0.402-0.519-0.95-0.777-1.645-0.777C423.767,474.104,423.097,474.547,422.635,475.433z"/>
		<path style="fill:#231F20;" d="M433.862,480.246h-0.725v-0.634c-0.161,0.191-0.412,0.362-0.755,0.513
			c-0.342,0.151-0.709,0.227-1.102,0.227c-0.704,0-1.292-0.188-1.766-0.565c-0.473-0.378-0.709-0.878-0.709-1.502
			c0-0.604,0.241-1.097,0.725-1.479c0.482-0.383,1.076-0.573,1.78-0.573c0.362,0,0.715,0.072,1.057,0.219
			c0.342,0.146,0.599,0.309,0.77,0.49v-1.192c0-0.503-0.148-0.907-0.445-1.215c-0.297-0.307-0.707-0.46-1.229-0.46
			c-0.835,0-1.379,0.382-1.63,1.146h-0.739c0.131-0.563,0.409-1.006,0.837-1.328c0.428-0.321,0.938-0.482,1.532-0.482
			c0.744,0,1.33,0.209,1.758,0.626c0.428,0.418,0.642,0.979,0.642,1.683V480.246z M433.138,478.722v-0.86
			c-0.11-0.291-0.335-0.53-0.672-0.717c-0.337-0.186-0.706-0.278-1.108-0.278c-0.514,0-0.948,0.123-1.306,0.369
			c-0.357,0.247-0.536,0.597-0.536,1.049c0,0.453,0.179,0.805,0.536,1.057c0.357,0.251,0.792,0.377,1.306,0.377
			c0.402,0,0.771-0.093,1.108-0.279C432.803,479.253,433.027,479.014,433.138,478.722z"/>
		<path style="fill:#231F20;" d="M435.93,480.246v-6.7h0.755v1.071c0.221-0.342,0.521-0.629,0.897-0.86
			c0.378-0.231,0.792-0.347,1.245-0.347c0.744,0,1.317,0.219,1.721,0.656c0.402,0.438,0.604,1.019,0.604,1.743v4.437h-0.739v-4.331
			c0-0.543-0.144-0.98-0.431-1.312c-0.286-0.332-0.717-0.498-1.29-0.498c-0.442,0-0.845,0.136-1.207,0.407s-0.629,0.619-0.8,1.041
			v4.693H435.93z"/>
		<path style="fill:#231F20;" d="M447.745,480.246v-0.996c-0.201,0.312-0.49,0.579-0.868,0.8c-0.377,0.222-0.782,0.332-1.215,0.332
			c-0.945,0-1.67-0.334-2.173-1.004c-0.503-0.669-0.754-1.496-0.754-2.481c0-0.986,0.251-1.813,0.754-2.482s1.228-1.004,2.173-1.004
			c0.433,0,0.838,0.11,1.215,0.332c0.378,0.222,0.667,0.488,0.868,0.8v-4.104h0.739v9.809H447.745z M447.745,478.359v-2.927
			c-0.222-0.423-0.511-0.75-0.868-0.981c-0.356-0.231-0.741-0.347-1.154-0.347c-0.684,0-1.228,0.259-1.63,0.777
			c-0.402,0.518-0.604,1.189-0.604,2.015c0,0.824,0.201,1.496,0.604,2.014c0.402,0.519,0.946,0.777,1.63,0.777
			c0.413,0,0.798-0.115,1.154-0.347C447.234,479.109,447.523,478.782,447.745,478.359z"/>
	</g>
	
		<circle style="fill:none;stroke:#FF1614;stroke-width:2;stroke-linecap:round;stroke-linejoin:round;stroke-miterlimit:10;" cx="378.456" cy="292.181" r="8.488"/>
	<g>
		<rect x="601.041" y="453.461" style="fill:none;" width="70.736" height="16.977"/>
		<path style="fill:#231F20;" d="M606.308,456.569l1.373,5.115l1.479-5.115h1.102l-1.978,6.7h-1.102l-1.388-5.086l-1.404,5.086
			h-1.102l-1.977-6.7h1.132l1.479,5.115l1.374-5.115H606.308z"/>
		<path style="fill:#231F20;" d="M616.365,457.407c0.568,0.648,0.854,1.486,0.854,2.513c0,1.025-0.285,1.863-0.854,2.512
			c-0.568,0.649-1.311,0.974-2.226,0.974s-1.657-0.324-2.226-0.974c-0.568-0.648-0.853-1.486-0.853-2.512
			c0-1.026,0.284-1.864,0.853-2.513c0.568-0.649,1.311-0.974,2.226-0.974S615.797,456.758,616.365,457.407z M615.551,461.723
			c0.347-0.458,0.521-1.059,0.521-1.803c0-0.745-0.174-1.346-0.521-1.804s-0.817-0.687-1.411-0.687s-1.063,0.229-1.411,0.687
			c-0.347,0.458-0.521,1.059-0.521,1.804c0,0.744,0.174,1.345,0.521,1.803c0.348,0.458,0.817,0.687,1.411,0.687
			S615.204,462.181,615.551,461.723z"/>
		<path style="fill:#231F20;" d="M622.198,456.539v1.162c-0.182-0.121-0.434-0.181-0.755-0.181c-0.362,0-0.685,0.11-0.966,0.331
			c-0.282,0.222-0.478,0.528-0.589,0.921v4.497h-1.132v-6.7h1.132v0.875c0.151-0.291,0.375-0.533,0.672-0.724
			c0.297-0.191,0.626-0.287,0.988-0.287C621.841,456.434,622.057,456.469,622.198,456.539z"/>
		<path style="fill:#231F20;" d="M622.998,461.429h1.177c0.211,0.684,0.739,1.026,1.584,1.026c0.413,0,0.745-0.083,0.996-0.249
			c0.252-0.166,0.378-0.415,0.378-0.747c0-0.453-0.332-0.765-0.996-0.936l-1.328-0.348c-1.077-0.271-1.615-0.86-1.615-1.766
			c0-0.583,0.227-1.059,0.68-1.426c0.452-0.367,1.026-0.551,1.72-0.551c0.725,0,1.309,0.166,1.751,0.498s0.725,0.8,0.845,1.403
			h-1.132c-0.201-0.634-0.693-0.951-1.479-0.951c-0.353,0-0.654,0.083-0.905,0.249c-0.252,0.166-0.377,0.405-0.377,0.717
			c0,0.222,0.072,0.396,0.219,0.521c0.146,0.125,0.385,0.233,0.717,0.324l1.298,0.316c1.137,0.302,1.705,0.926,1.705,1.871
			c0,0.624-0.231,1.117-0.694,1.479s-1.062,0.543-1.796,0.543s-1.351-0.176-1.849-0.528
			C623.397,462.525,623.098,462.042,622.998,461.429z"/>
		<path style="fill:#231F20;" d="M630.12,461.579v-4.044h-1.087v-0.966h1.087v-1.766h1.132v1.766h1.614v0.966h-1.614v3.924
			c0,0.624,0.297,0.936,0.89,0.936c0.312,0,0.604-0.091,0.876-0.271v1.056c-0.282,0.151-0.634,0.227-1.057,0.227
			c-0.563,0-1.011-0.153-1.343-0.46S630.12,462.183,630.12,461.579z"/>
		<path style="fill:#231F20;" d="M639.053,462.484v3.351h-1.132v-9.266h1.132v0.785c0.191-0.262,0.455-0.48,0.793-0.657
			c0.337-0.176,0.701-0.264,1.094-0.264c0.945,0,1.685,0.335,2.218,1.004s0.8,1.496,0.8,2.482c0,0.985-0.267,1.812-0.8,2.481
			c-0.533,0.67-1.272,1.004-2.218,1.004c-0.393,0-0.757-0.088-1.094-0.264C639.508,462.966,639.244,462.746,639.053,462.484z
			 M639.053,458.562v2.716c0.171,0.343,0.41,0.611,0.717,0.808s0.642,0.294,1.004,0.294c0.624,0,1.119-0.229,1.486-0.687
			c0.367-0.457,0.551-1.049,0.551-1.772c0-0.725-0.184-1.315-0.551-1.773s-0.862-0.687-1.486-0.687
			c-0.362,0-0.697,0.098-1.004,0.294S639.224,458.22,639.053,458.562z"/>
		<path style="fill:#231F20;" d="M650.348,457.407c0.568,0.648,0.854,1.486,0.854,2.513c0,1.025-0.285,1.863-0.854,2.512
			c-0.568,0.649-1.311,0.974-2.226,0.974s-1.657-0.324-2.226-0.974c-0.568-0.648-0.853-1.486-0.853-2.512
			c0-1.026,0.284-1.864,0.853-2.513c0.568-0.649,1.311-0.974,2.226-0.974S649.779,456.758,650.348,457.407z M649.533,461.723
			c0.347-0.458,0.521-1.059,0.521-1.803c0-0.745-0.174-1.346-0.521-1.804s-0.817-0.687-1.411-0.687s-1.063,0.229-1.411,0.687
			c-0.347,0.458-0.521,1.059-0.521,1.804c0,0.744,0.174,1.345,0.521,1.803c0.348,0.458,0.817,0.687,1.411,0.687
			S649.187,462.181,649.533,461.723z"/>
		<path style="fill:#231F20;" d="M653.818,454.034c0.146,0.141,0.219,0.312,0.219,0.513c0,0.202-0.073,0.373-0.219,0.514
			s-0.319,0.211-0.521,0.211s-0.372-0.07-0.513-0.211c-0.142-0.141-0.212-0.312-0.212-0.514c0-0.201,0.07-0.372,0.212-0.513
			c0.141-0.141,0.312-0.211,0.513-0.211S653.673,453.894,653.818,454.034z M653.871,456.569v6.7h-1.132v-6.7H653.871z"/>
		<path style="fill:#231F20;" d="M655.894,463.27v-6.7h1.132v0.845c0.212-0.281,0.49-0.515,0.838-0.701
			c0.347-0.187,0.727-0.279,1.14-0.279c0.744,0,1.322,0.222,1.735,0.664c0.412,0.442,0.618,1.036,0.618,1.78v4.392h-1.146v-4.21
			c0-0.483-0.123-0.868-0.37-1.154c-0.246-0.287-0.616-0.431-1.109-0.431c-0.392,0-0.744,0.118-1.056,0.354
			c-0.312,0.236-0.528,0.536-0.649,0.898v4.542H655.894z"/>
		<path style="fill:#231F20;" d="M663.59,461.579v-4.044h-1.087v-0.966h1.087v-1.766h1.132v1.766h1.614v0.966h-1.614v3.924
			c0,0.624,0.297,0.936,0.89,0.936c0.312,0,0.604-0.091,0.876-0.271v1.056c-0.282,0.151-0.634,0.227-1.057,0.227
			c-0.563,0-1.011-0.153-1.343-0.46S663.59,462.183,663.59,461.579z"/>
	</g>
	<path d="M682.072,456.604c1.083,0.243,1.604,1.459,1.509,2.48c-0.037,0.34-0.085,0.669-0.184,0.997
		c-0.292,0.973-0.937,1.872-1.799,2.395c-0.401,0.244-0.852,0.415-1.339,0.438c-0.703,0.049-1.13-0.328-1.349-0.827
		c-0.036-0.121-0.11-0.255-0.11-0.364c0-0.183,0.086-0.402,0.123-0.571c0.182-0.912,0.57-2.712,0.57-2.712l0.098-0.475
		c0.073-0.389,0.194-0.486,0.475-0.741C680.601,456.798,681.234,456.458,682.072,456.604 M679.786,456.979l0.231-1.119h-1.033
		l-2.214,10.482h1.047l0.814-3.83c0.169,0.304,0.341,0.584,0.62,0.815c0.862,0.704,2.115,0.413,2.966-0.134
		c1.606-1.01,2.53-2.979,2.444-4.853c-0.048-1.021-0.51-2.213-1.58-2.542C681.756,455.436,680.383,456.396,679.786,456.979z"/>
	<g>
		<path d="M434.014,313.206c1.137,0.254,1.686,1.531,1.584,2.604c-0.039,0.358-0.09,0.703-0.193,1.048
			c-0.306,1.022-0.981,1.968-1.89,2.518c-0.409,0.255-0.894,0.434-1.393,0.46c-0.741,0.051-1.188-0.345-1.432-0.869
			c-0.037-0.128-0.102-0.268-0.102-0.384c0-0.191,0.075-0.408,0.116-0.6c0.189-0.946,0.599-2.849,0.599-2.849l0.104-0.499
			c0.075-0.409,0.217-0.511,0.51-0.779C432.466,313.409,433.131,313.051,434.014,313.206 M431.624,313.601l0.229-1.176h-1.085
			l-2.324,11.014h1.11l0.844-4.024c0.191,0.319,0.357,0.613,0.652,0.856c0.919,0.74,2.222,0.435,3.116-0.142
			c1.686-1.06,2.656-3.13,2.568-5.097c-0.052-1.073-0.538-2.325-1.648-2.67C433.68,311.979,432.237,312.988,431.624,313.601z"/>
		<path d="M439.608,306.753c-0.063,0-0.114,0.025-0.179,0.052c-0.28,0.115-0.332,0.396-0.422,0.664l-0.141,0.473l-1.1,3.717
			c-0.037,0.116-0.318,0.983-0.306,1.074c0.025,0.127,0.218,0.166,0.331,0.204c0.052,0.013,0.091,0.039,0.143,0.026
			c0.14-0.014,0.191-0.218,0.23-0.333l0.471-1.047l1.124-2.606c0.116-0.243,0.538-1.137,0.59-1.354
			C440.565,307.061,439.991,306.678,439.608,306.753"/>
	</g>
</g>
<g>
	<path d="M394.112,270.747c1.208,0.271,1.791,1.628,1.683,2.768c-0.041,0.38-0.096,0.746-0.203,1.113
		c-0.326,1.085-1.045,2.089-2.009,2.672c-0.446,0.271-0.963,0.461-1.492,0.502c-0.786,0.054-1.261-0.367-1.519-0.937
		c-0.027-0.136-0.108-0.285-0.108-0.406c0-0.203,0.095-0.436,0.135-0.638c0.204-1.004,0.639-3.024,0.639-3.024l0.108-0.531
		c0.067-0.433,0.217-0.541,0.529-0.827C392.458,270.965,393.177,270.584,394.112,270.747 M391.562,271.168l0.258-1.234h-1.153
		l-2.47,11.68h1.167l0.896-4.272c0.204,0.339,0.394,0.65,0.706,0.908c0.963,0.787,2.36,0.462,3.31-0.149
		c1.791-1.125,2.821-3.323,2.727-5.413c-0.055-1.125-0.57-2.468-1.764-2.834C393.76,269.445,392.228,270.517,391.562,271.168z"/>
	<path d="M400.055,263.897c-0.068,0-0.136,0.025-0.204,0.054c-0.284,0.121-0.352,0.42-0.434,0.705l-0.163,0.503l-1.153,3.946
		c-0.04,0.136-0.339,1.046-0.325,1.14c0.027,0.137,0.231,0.177,0.339,0.218c0.055,0.013,0.109,0.04,0.163,0.026
		c0.148-0.014,0.204-0.23,0.244-0.353l0.488-1.112l1.208-2.768c0.108-0.258,0.556-1.207,0.623-1.438
		C401.072,264.222,400.462,263.815,400.055,263.897"/>
	<path d="M403.718,263.897c-0.068,0-0.122,0.025-0.19,0.054c-0.298,0.121-0.353,0.42-0.447,0.705l-0.149,0.503l-1.167,3.946
		c-0.04,0.136-0.34,1.046-0.325,1.14c0.027,0.137,0.23,0.177,0.353,0.218c0.055,0.013,0.096,0.04,0.149,0.026
		c0.148-0.014,0.204-0.23,0.244-0.353l0.501-1.112l1.195-2.768c0.122-0.258,0.568-1.207,0.623-1.438
		C404.735,264.222,404.124,263.815,403.718,263.897"/>
</g>
<g>
	
		<line style="fill:none;stroke:#386DF9;stroke-width:2;stroke-linecap:round;stroke-linejoin:round;stroke-miterlimit:10;" x1="166.246" y1="309.158" x2="38.92" y2="411.019"/>
	<polyline style="fill:none;stroke:#C6C5C5;stroke-linecap:round;stroke-linejoin:round;stroke-miterlimit:10;" points="
		38.92,411.019 234.153,444.972 166.246,309.158 	"/>
	
		<circle style="fill:none;stroke:#231F20;stroke-width:2;stroke-linecap:round;stroke-linejoin:round;stroke-miterlimit:10;" cx="38.92" cy="411.019" r="8.488"/>
	
		<circle style="fill:none;stroke:#231F20;stroke-width:2;stroke-linecap:round;stroke-linejoin:round;stroke-miterlimit:10;" cx="166.246" cy="309.158" r="8.489"/>
	
		<circle style="fill:none;stroke:#FF1614;stroke-width:2;stroke-linecap:round;stroke-linejoin:round;stroke-miterlimit:10;" cx="234.153" cy="444.972" r="8.489"/>
	
		<circle style="fill:none;stroke:#FFC0D4;stroke-width:2;stroke-linecap:round;stroke-linejoin:round;stroke-miterlimit:10;" cx="80.419" cy="335.566" r="8.489"/>
	<g>
		<g>
			
				<line style="fill:none;stroke:#FF1614;stroke-width:2;stroke-linecap:round;stroke-linejoin:round;" x1="234.153" y1="444.972" x2="91.622" y2="344.362"/>
			<g>
				<polygon style="fill:#FF1614;" points="101.753,341.501 102.023,343.484 92.25,344.803 94.279,354.455 92.32,354.864 
					89.851,343.109 				"/>
			</g>
		</g>
	</g>
	<g>
		<rect x="30.432" y="470.438" style="fill:none;" width="127.326" height="33.953"/>
		<path style="fill:#231F20;" d="M33.179,475.824v-0.679h0.694c0.563,0,1.029-0.161,1.396-0.482c0.367-0.322,0.551-0.76,0.551-1.313
			c0-0.533-0.184-0.968-0.551-1.306c-0.367-0.337-0.848-0.505-1.441-0.505c-0.554,0-1.019,0.166-1.396,0.498
			s-0.621,0.779-0.732,1.343h-0.754c0.121-0.765,0.442-1.378,0.966-1.841c0.523-0.463,1.162-0.694,1.917-0.694
			c0.835,0,1.501,0.231,2,0.694s0.747,1.057,0.747,1.78c0,0.544-0.161,1.017-0.483,1.419c-0.322,0.402-0.724,0.648-1.207,0.739
			c0.543,0.091,0.991,0.335,1.343,0.731c0.352,0.397,0.528,0.898,0.528,1.502c0,0.765-0.259,1.401-0.777,1.909
			c-0.519,0.508-1.22,0.762-2.105,0.762c-0.855,0-1.554-0.236-2.097-0.709c-0.543-0.473-0.871-1.111-0.981-1.917h0.77
			c0.11,0.614,0.364,1.09,0.762,1.427c0.397,0.337,0.913,0.505,1.546,0.505c0.644,0,1.16-0.179,1.547-0.535
			c0.387-0.357,0.581-0.833,0.581-1.427c0-0.583-0.204-1.046-0.611-1.388c-0.407-0.342-0.908-0.514-1.501-0.514H33.179z"/>
		<path style="fill:#231F20;" d="M42.927,480.246h-0.725v-0.634c-0.161,0.191-0.413,0.362-0.754,0.513
			c-0.342,0.151-0.709,0.227-1.102,0.227c-0.705,0-1.293-0.188-1.766-0.565c-0.473-0.378-0.709-0.878-0.709-1.502
			c0-0.604,0.242-1.097,0.725-1.479c0.483-0.383,1.076-0.573,1.781-0.573c0.362,0,0.714,0.072,1.056,0.219
			c0.342,0.146,0.599,0.309,0.77,0.49v-1.192c0-0.503-0.148-0.907-0.445-1.215c-0.297-0.307-0.707-0.46-1.23-0.46
			c-0.835,0-1.378,0.382-1.63,1.146h-0.739c0.13-0.563,0.41-1.006,0.837-1.328c0.427-0.321,0.938-0.482,1.532-0.482
			c0.744,0,1.33,0.209,1.758,0.626c0.428,0.418,0.642,0.979,0.642,1.683V480.246z M42.202,478.722v-0.86
			c-0.111-0.291-0.334-0.53-0.671-0.717c-0.337-0.186-0.707-0.278-1.109-0.278c-0.513,0-0.948,0.123-1.305,0.369
			c-0.357,0.247-0.536,0.597-0.536,1.049c0,0.453,0.179,0.805,0.536,1.057c0.357,0.251,0.792,0.377,1.305,0.377
			c0.402,0,0.772-0.093,1.109-0.279C41.868,479.253,42.091,479.014,42.202,478.722z"/>
		<path style="fill:#231F20;" d="M44.586,480.125c-0.111-0.11-0.166-0.246-0.166-0.407s0.055-0.299,0.166-0.415
			c0.11-0.115,0.241-0.173,0.392-0.173c0.161,0,0.297,0.058,0.408,0.173c0.11,0.116,0.166,0.254,0.166,0.415
			s-0.056,0.297-0.166,0.407c-0.111,0.111-0.247,0.166-0.408,0.166C44.828,480.291,44.697,480.236,44.586,480.125z"/>
		<path style="fill:#231F20;" d="M51.135,479.076c-0.775-0.87-1.162-2.024-1.162-3.463s0.387-2.593,1.162-3.463
			c0.774-0.87,1.745-1.306,2.913-1.306c0.885,0,1.63,0.239,2.233,0.717s1.001,1.124,1.192,1.939h-0.754
			c-0.201-0.604-0.531-1.077-0.988-1.419c-0.458-0.342-1.019-0.513-1.683-0.513c-0.976,0-1.768,0.367-2.377,1.102
			s-0.913,1.715-0.913,2.942s0.307,2.208,0.921,2.942c0.613,0.734,1.403,1.102,2.369,1.102c0.664,0,1.225-0.171,1.683-0.513
			c0.458-0.342,0.787-0.814,0.988-1.419h0.754c-0.191,0.815-0.591,1.462-1.2,1.939s-1.351,0.717-2.226,0.717
			C52.88,480.382,51.91,479.947,51.135,479.076z"/>
		<path style="fill:#231F20;" d="M63.773,474.376c0.548,0.644,0.822,1.484,0.822,2.521s-0.274,1.876-0.822,2.52
			c-0.548,0.644-1.265,0.966-2.15,0.966c-0.886,0-1.6-0.322-2.143-0.966c-0.543-0.644-0.815-1.483-0.815-2.52
			s0.272-1.877,0.815-2.521c0.543-0.644,1.257-0.966,2.143-0.966C62.508,473.41,63.225,473.732,63.773,474.376z M63.238,478.94
			c0.402-0.518,0.604-1.199,0.604-2.044c0-0.846-0.202-1.527-0.604-2.045c-0.403-0.519-0.941-0.777-1.615-0.777
			c-0.664,0-1.197,0.259-1.6,0.777c-0.403,0.518-0.604,1.199-0.604,2.045c0,0.845,0.201,1.526,0.604,2.044
			c0.402,0.519,0.936,0.777,1.6,0.777C62.297,479.718,62.835,479.459,63.238,478.94z"/>
		<path style="fill:#231F20;" d="M66.255,480.246v-6.7h0.755v1.071c0.221-0.342,0.521-0.629,0.897-0.86
			c0.377-0.231,0.792-0.347,1.245-0.347c0.745,0,1.318,0.219,1.72,0.656s0.604,1.019,0.604,1.743v4.437h-0.74v-4.331
			c0-0.543-0.143-0.98-0.43-1.312c-0.287-0.332-0.717-0.498-1.29-0.498c-0.443,0-0.845,0.136-1.207,0.407
			c-0.362,0.271-0.629,0.619-0.8,1.041v4.693H66.255z"/>
		<path style="fill:#231F20;" d="M73.846,478.691v-4.497h-1.132v-0.648h1.132v-1.721h0.74v1.721h1.735v0.648h-1.735v4.422
			c0,0.725,0.322,1.087,0.966,1.087c0.322,0,0.628-0.086,0.92-0.257v0.709c-0.282,0.151-0.614,0.227-0.996,0.227
			c-0.503,0-0.9-0.144-1.192-0.43C73.992,479.665,73.846,479.245,73.846,478.691z"/>
		<path style="fill:#231F20;" d="M81.18,473.501v0.739c-0.191-0.08-0.397-0.121-0.619-0.121c-0.402,0-0.76,0.131-1.071,0.393
			c-0.312,0.262-0.548,0.613-0.709,1.057v4.678h-0.755v-6.7h0.755v1.071c0.161-0.352,0.402-0.642,0.724-0.867
			c0.322-0.227,0.684-0.34,1.086-0.34C80.782,473.41,80.979,473.44,81.18,473.501z"/>
		<path style="fill:#231F20;" d="M87.005,480.246H86.28v-0.634c-0.161,0.191-0.413,0.362-0.754,0.513
			c-0.342,0.151-0.709,0.227-1.102,0.227c-0.705,0-1.293-0.188-1.766-0.565c-0.473-0.378-0.709-0.878-0.709-1.502
			c0-0.604,0.242-1.097,0.725-1.479c0.483-0.383,1.076-0.573,1.781-0.573c0.362,0,0.714,0.072,1.056,0.219
			c0.342,0.146,0.599,0.309,0.77,0.49v-1.192c0-0.503-0.148-0.907-0.445-1.215c-0.297-0.307-0.707-0.46-1.23-0.46
			c-0.835,0-1.378,0.382-1.63,1.146h-0.739c0.13-0.563,0.41-1.006,0.837-1.328c0.427-0.321,0.938-0.482,1.532-0.482
			c0.744,0,1.33,0.209,1.758,0.626c0.428,0.418,0.642,0.979,0.642,1.683V480.246z M86.28,478.722v-0.86
			c-0.111-0.291-0.334-0.53-0.671-0.717c-0.337-0.186-0.707-0.278-1.109-0.278c-0.513,0-0.948,0.123-1.305,0.369
			c-0.357,0.247-0.536,0.597-0.536,1.049c0,0.453,0.179,0.805,0.536,1.057c0.357,0.251,0.792,0.377,1.305,0.377
			c0.402,0,0.772-0.093,1.109-0.279C85.946,479.253,86.169,479.014,86.28,478.722z"/>
		<path style="fill:#231F20;" d="M89.404,479.416c-0.543-0.644-0.815-1.483-0.815-2.52s0.272-1.877,0.815-2.521
			c0.543-0.644,1.257-0.966,2.143-0.966c0.694,0,1.265,0.188,1.712,0.565c0.448,0.378,0.732,0.883,0.853,1.517h-0.77
			c-0.101-0.442-0.307-0.787-0.619-1.033s-0.704-0.37-1.177-0.37c-0.654,0-1.185,0.257-1.592,0.77
			c-0.407,0.514-0.611,1.192-0.611,2.038c0,0.845,0.204,1.523,0.611,2.037c0.408,0.513,0.938,0.77,1.592,0.77
			c0.473,0,0.865-0.123,1.177-0.37c0.312-0.246,0.518-0.591,0.619-1.033h0.77c-0.121,0.634-0.405,1.139-0.853,1.517
			c-0.448,0.377-1.019,0.565-1.712,0.565C90.661,480.382,89.947,480.06,89.404,479.416z"/>
		<path style="fill:#231F20;" d="M96.058,478.691v-4.497h-1.132v-0.648h1.132v-1.721h0.74v1.721h1.735v0.648h-1.735v4.422
			c0,0.725,0.322,1.087,0.966,1.087c0.322,0,0.628-0.086,0.92-0.257v0.709c-0.282,0.151-0.614,0.227-0.996,0.227
			c-0.503,0-0.9-0.144-1.192-0.43C96.204,479.665,96.058,479.245,96.058,478.691z"/>
	</g>
	
		<circle style="fill:none;stroke:#FF1614;stroke-width:2;stroke-linecap:round;stroke-linejoin:round;stroke-miterlimit:10;" cx="136.536" cy="376.436" r="8.489"/>
	<g>
		<g>
			
				<line style="fill:none;stroke:#FFDC52;stroke-width:2;stroke-linecap:round;stroke-linejoin:round;" x1="234.153" y1="444.972" x2="151.149" y2="386.178"/>
			<g>
				<polygon style="fill:#FFDC52;" points="161.285,383.333 161.552,385.317 151.777,386.619 153.79,396.274 151.83,396.682 
					149.38,384.922 				"/>
			</g>
		</g>
	</g>
	<g>
		<rect x="247.357" y="451.648" style="fill:none;" width="70.737" height="16.977"/>
		<path style="fill:#231F20;" d="M252.625,454.758l1.373,5.115l1.479-5.115h1.102l-1.977,6.7H253.5l-1.388-5.086l-1.403,5.086
			h-1.102l-1.977-6.7h1.132l1.479,5.115l1.373-5.115H252.625z"/>
		<path style="fill:#231F20;" d="M262.682,455.596c0.568,0.648,0.853,1.486,0.853,2.513c0,1.025-0.284,1.863-0.853,2.512
			c-0.568,0.649-1.311,0.974-2.226,0.974s-1.657-0.324-2.226-0.974c-0.568-0.648-0.853-1.486-0.853-2.512
			c0-1.026,0.284-1.864,0.853-2.513c0.568-0.649,1.31-0.974,2.226-0.974S262.114,454.946,262.682,455.596z M261.867,459.911
			c0.347-0.458,0.521-1.059,0.521-1.803c0-0.745-0.173-1.346-0.521-1.804s-0.817-0.687-1.411-0.687s-1.063,0.229-1.411,0.687
			s-0.521,1.059-0.521,1.804c0,0.744,0.174,1.345,0.521,1.803s0.817,0.687,1.411,0.687S261.52,460.369,261.867,459.911z"/>
		<path style="fill:#231F20;" d="M268.515,454.728v1.162c-0.181-0.121-0.433-0.181-0.754-0.181c-0.362,0-0.685,0.11-0.966,0.331
			c-0.282,0.222-0.478,0.528-0.588,0.921v4.497h-1.132v-6.7h1.132v0.875c0.151-0.291,0.375-0.533,0.671-0.724
			c0.296-0.191,0.626-0.287,0.988-0.287C268.157,454.622,268.374,454.657,268.515,454.728z"/>
		<path style="fill:#231F20;" d="M269.315,459.617h1.177c0.211,0.684,0.739,1.026,1.584,1.026c0.412,0,0.744-0.083,0.996-0.249
			c0.251-0.166,0.377-0.415,0.377-0.747c0-0.453-0.332-0.765-0.996-0.936l-1.328-0.348c-1.077-0.271-1.615-0.86-1.615-1.766
			c0-0.583,0.227-1.059,0.679-1.426s1.026-0.551,1.72-0.551c0.724,0,1.308,0.166,1.75,0.498c0.442,0.332,0.724,0.8,0.845,1.403
			h-1.132c-0.202-0.634-0.694-0.951-1.479-0.951c-0.352,0-0.654,0.083-0.905,0.249c-0.252,0.166-0.377,0.405-0.377,0.717
			c0,0.222,0.073,0.396,0.219,0.521c0.146,0.125,0.385,0.233,0.717,0.324l1.298,0.316c1.137,0.302,1.705,0.926,1.705,1.871
			c0,0.624-0.231,1.117-0.694,1.479c-0.463,0.362-1.062,0.543-1.796,0.543s-1.351-0.176-1.849-0.528
			C269.715,460.714,269.416,460.23,269.315,459.617z"/>
		<path style="fill:#231F20;" d="M276.438,459.768v-4.044h-1.087v-0.966h1.087v-1.766h1.132v1.766h1.614v0.966h-1.614v3.924
			c0,0.624,0.296,0.936,0.89,0.936c0.312,0,0.604-0.091,0.875-0.271v1.056c-0.282,0.151-0.634,0.227-1.056,0.227
			c-0.563,0-1.011-0.153-1.343-0.46C276.604,460.827,276.438,460.371,276.438,459.768z"/>
		<path style="fill:#231F20;" d="M285.371,460.673v3.351h-1.132v-9.266h1.132v0.785c0.191-0.262,0.455-0.48,0.792-0.657
			c0.337-0.176,0.702-0.264,1.094-0.264c0.945,0,1.685,0.335,2.218,1.004c0.533,0.669,0.8,1.496,0.8,2.482
			c0,0.985-0.267,1.812-0.8,2.481c-0.534,0.67-1.273,1.004-2.218,1.004c-0.393,0-0.757-0.088-1.094-0.264
			S285.562,460.935,285.371,460.673z M285.371,456.75v2.716c0.171,0.343,0.41,0.611,0.717,0.808
			c0.307,0.196,0.641,0.294,1.003,0.294c0.624,0,1.119-0.229,1.486-0.687c0.367-0.457,0.551-1.049,0.551-1.772
			c0-0.725-0.184-1.315-0.551-1.773s-0.863-0.687-1.486-0.687c-0.362,0-0.697,0.098-1.003,0.294
			C285.781,456.139,285.542,456.408,285.371,456.75z"/>
		<path style="fill:#231F20;" d="M296.666,455.596c0.568,0.648,0.853,1.486,0.853,2.513c0,1.025-0.284,1.863-0.853,2.512
			c-0.568,0.649-1.311,0.974-2.226,0.974s-1.657-0.324-2.226-0.974c-0.568-0.648-0.853-1.486-0.853-2.512
			c0-1.026,0.284-1.864,0.853-2.513c0.568-0.649,1.31-0.974,2.226-0.974S296.097,454.946,296.666,455.596z M295.851,459.911
			c0.347-0.458,0.521-1.059,0.521-1.803c0-0.745-0.173-1.346-0.521-1.804s-0.817-0.687-1.411-0.687s-1.063,0.229-1.411,0.687
			s-0.521,1.059-0.521,1.804c0,0.744,0.174,1.345,0.521,1.803s0.817,0.687,1.411,0.687S295.503,460.369,295.851,459.911z"/>
		<path style="fill:#231F20;" d="M300.136,452.223c0.146,0.141,0.219,0.312,0.219,0.513c0,0.202-0.073,0.373-0.219,0.514
			s-0.319,0.211-0.521,0.211s-0.372-0.07-0.513-0.211c-0.141-0.141-0.211-0.312-0.211-0.514c0-0.201,0.07-0.372,0.211-0.513
			c0.141-0.141,0.312-0.211,0.513-0.211S299.99,452.082,300.136,452.223z M300.189,454.758v6.7h-1.132v-6.7H300.189z"/>
		<path style="fill:#231F20;" d="M302.211,461.458v-6.7h1.132v0.845c0.211-0.281,0.49-0.515,0.837-0.701s0.727-0.279,1.139-0.279
			c0.745,0,1.323,0.222,1.735,0.664s0.619,1.036,0.619,1.78v4.392h-1.146v-4.21c0-0.483-0.124-0.868-0.37-1.154
			c-0.247-0.287-0.616-0.431-1.109-0.431c-0.393,0-0.745,0.118-1.057,0.354c-0.312,0.236-0.528,0.536-0.648,0.898v4.542H302.211z"/>
		<path style="fill:#231F20;" d="M309.908,459.768v-4.044h-1.087v-0.966h1.087v-1.766h1.132v1.766h1.614v0.966h-1.614v3.924
			c0,0.624,0.296,0.936,0.89,0.936c0.312,0,0.604-0.091,0.875-0.271v1.056c-0.282,0.151-0.634,0.227-1.056,0.227
			c-0.563,0-1.011-0.153-1.343-0.46C310.074,460.827,309.908,460.371,309.908,459.768z"/>
	</g>
	<path d="M328.389,454.791c1.083,0.243,1.604,1.459,1.509,2.481c-0.037,0.34-0.084,0.669-0.183,0.997
		c-0.292,0.973-0.937,1.872-1.799,2.395c-0.402,0.244-0.852,0.414-1.339,0.438c-0.704,0.049-1.13-0.328-1.348-0.827
		c-0.037-0.122-0.111-0.255-0.111-0.365c0-0.182,0.086-0.401,0.123-0.57c0.183-0.912,0.571-2.712,0.571-2.712l0.098-0.475
		c0.072-0.39,0.194-0.486,0.474-0.741C326.917,454.985,327.551,454.646,328.389,454.791 M326.104,455.168l0.231-1.119h-1.034
		l-2.213,10.482h1.046l0.814-3.83c0.169,0.304,0.341,0.584,0.621,0.814c0.862,0.705,2.115,0.414,2.966-0.133
		c1.606-1.01,2.53-2.98,2.445-4.853c-0.048-1.021-0.51-2.213-1.581-2.542C328.072,453.623,326.699,454.585,326.104,455.168z"/>
	<g>
		<path d="M83.886,311.663c1.136,0.254,1.686,1.531,1.584,2.604c-0.039,0.358-0.089,0.704-0.192,1.048
			c-0.306,1.022-0.983,1.968-1.89,2.518c-0.409,0.255-0.894,0.434-1.394,0.46c-0.74,0.052-1.188-0.345-1.43-0.869
			c-0.038-0.128-0.103-0.268-0.103-0.384c0-0.191,0.077-0.408,0.116-0.6c0.19-0.946,0.6-2.849,0.6-2.849l0.103-0.498
			c0.076-0.41,0.217-0.512,0.51-0.78C82.339,311.866,83.003,311.508,83.886,311.663 M81.497,312.059l0.229-1.177H80.64
			l-2.325,11.014h1.112l0.843-4.024c0.191,0.319,0.358,0.613,0.652,0.856c0.92,0.74,2.222,0.435,3.117-0.141
			c1.687-1.061,2.657-3.131,2.568-5.098c-0.051-1.073-0.537-2.325-1.648-2.67C83.553,310.437,82.11,311.445,81.497,312.059z"/>
		<path d="M89.481,305.21c-0.063,0-0.114,0.026-0.179,0.052c-0.281,0.115-0.333,0.396-0.422,0.664l-0.141,0.473l-1.099,3.717
			c-0.038,0.116-0.318,0.984-0.306,1.074c0.025,0.127,0.217,0.166,0.332,0.205c0.052,0.013,0.09,0.038,0.141,0.025
			c0.14-0.013,0.191-0.218,0.23-0.333l0.473-1.047l1.124-2.606c0.116-0.243,0.537-1.137,0.589-1.354
			C90.439,305.518,89.864,305.135,89.481,305.21"/>
	</g>
	<g>
		<path d="M153.793,355.939c1.208,0.271,1.791,1.628,1.682,2.768c-0.041,0.379-0.095,0.745-0.203,1.112
			c-0.326,1.085-1.045,2.089-2.009,2.673c-0.447,0.271-0.962,0.46-1.492,0.501c-0.787,0.056-1.261-0.366-1.519-0.936
			c-0.028-0.136-0.109-0.285-0.109-0.406c0-0.204,0.095-0.435,0.135-0.639c0.204-1.004,0.639-3.024,0.639-3.024l0.108-0.529
			c0.067-0.435,0.216-0.543,0.529-0.827C152.139,356.157,152.857,355.776,153.793,355.939 M151.243,356.359l0.258-1.234h-1.153
			l-2.469,11.682h1.167l0.895-4.274c0.204,0.339,0.394,0.651,0.706,0.909c0.963,0.787,2.361,0.462,3.31-0.149
			c1.791-1.126,2.821-3.323,2.727-5.412c-0.054-1.126-0.57-2.469-1.764-2.835C153.44,354.638,151.908,355.709,151.243,356.359z"/>
		<path d="M159.735,349.089c-0.068,0-0.135,0.026-0.204,0.055c-0.285,0.121-0.352,0.42-0.434,0.704l-0.163,0.503l-1.153,3.948
			c-0.041,0.135-0.339,1.044-0.325,1.138c0.027,0.137,0.231,0.177,0.339,0.218c0.054,0.014,0.108,0.041,0.163,0.027
			c0.148-0.014,0.204-0.23,0.244-0.353l0.488-1.111l1.208-2.77c0.109-0.258,0.556-1.206,0.624-1.437
			C160.753,349.414,160.142,349.008,159.735,349.089"/>
		<path d="M163.398,349.089c-0.068,0-0.122,0.026-0.19,0.055c-0.298,0.121-0.353,0.42-0.447,0.704l-0.149,0.503l-1.167,3.948
			c-0.041,0.135-0.34,1.044-0.325,1.138c0.027,0.137,0.23,0.177,0.353,0.218c0.054,0.014,0.095,0.041,0.149,0.027
			c0.148-0.014,0.204-0.23,0.244-0.353l0.501-1.111l1.195-2.77c0.123-0.258,0.569-1.206,0.624-1.437
			C164.416,349.414,163.805,349.008,163.398,349.089"/>
	</g>
</g>
<g>
	
		<line style="fill:none;stroke:#386DF9;stroke-width:2;stroke-linecap:round;stroke-linejoin:round;stroke-miterlimit:10;" x1="514.64" y1="36.586" x2="387.313" y2="138.447"/>
	<polyline style="fill:none;stroke:#C6C5C5;stroke-linecap:round;stroke-linejoin:round;stroke-miterlimit:10;" points="
		387.313,138.447 582.547,172.4 514.64,36.586 	"/>
	
		<circle style="fill:none;stroke:#231F20;stroke-width:2;stroke-linecap:round;stroke-linejoin:round;stroke-miterlimit:10;" cx="387.313" cy="138.447" r="8.488"/>
	
		<circle style="fill:none;stroke:#231F20;stroke-width:2;stroke-linecap:round;stroke-linejoin:round;stroke-miterlimit:10;" cx="514.64" cy="36.586" r="8.488"/>
	
		<circle style="fill:none;stroke:#FF1614;stroke-width:2;stroke-linecap:round;stroke-linejoin:round;stroke-miterlimit:10;" cx="582.547" cy="172.4" r="8.488"/>
	
		<circle style="fill:none;stroke:#FFC0D4;stroke-width:2;stroke-linecap:round;stroke-linejoin:round;stroke-miterlimit:10;" cx="428.812" cy="62.994" r="8.488"/>
	<g>
		<g>
			
				<line style="fill:none;stroke:#FF1614;stroke-width:2;stroke-linecap:round;stroke-linejoin:round;" x1="582.547" y1="172.4" x2="440.016" y2="71.791"/>
			<g>
				<polygon style="fill:#FF1614;" points="450.147,68.93 450.417,70.913 440.645,72.231 442.674,81.883 440.714,82.293 
					438.245,70.538 				"/>
			</g>
		</g>
	</g>
	<g>
		<rect x="594.808" y="180.889" style="fill:none;" width="70.737" height="16.977"/>
		<path style="fill:#231F20;" d="M600.075,183.998l1.373,5.116l1.479-5.116h1.102l-1.978,6.7h-1.102l-1.388-5.085l-1.404,5.085
			h-1.102l-1.977-6.7h1.132l1.479,5.116l1.374-5.116H600.075z"/>
		<path style="fill:#231F20;" d="M610.133,184.835c0.568,0.649,0.854,1.486,0.854,2.513s-0.285,1.864-0.854,2.513
			s-1.311,0.973-2.226,0.973s-1.657-0.324-2.226-0.973s-0.853-1.486-0.853-2.513s0.284-1.864,0.853-2.513s1.311-0.973,2.226-0.973
			S609.564,184.186,610.133,184.835z M609.318,189.151c0.347-0.458,0.521-1.059,0.521-1.803c0-0.744-0.174-1.345-0.521-1.803
			c-0.347-0.458-0.817-0.687-1.411-0.687s-1.063,0.229-1.411,0.687c-0.347,0.458-0.521,1.059-0.521,1.803
			c0,0.745,0.174,1.346,0.521,1.803c0.348,0.458,0.817,0.687,1.411,0.687S608.972,189.609,609.318,189.151z"/>
		<path style="fill:#231F20;" d="M615.966,183.967v1.162c-0.182-0.121-0.434-0.181-0.755-0.181c-0.362,0-0.685,0.111-0.966,0.332
			c-0.282,0.221-0.478,0.528-0.589,0.92v4.497h-1.132v-6.7h1.132v0.875c0.151-0.292,0.375-0.533,0.672-0.725
			c0.297-0.191,0.626-0.287,0.988-0.287C615.608,183.862,615.824,183.897,615.966,183.967z"/>
		<path style="fill:#231F20;" d="M616.766,188.857h1.177c0.211,0.684,0.739,1.026,1.584,1.026c0.413,0,0.745-0.083,0.996-0.249
			c0.252-0.166,0.378-0.415,0.378-0.747c0-0.453-0.332-0.764-0.996-0.936l-1.328-0.347c-1.077-0.271-1.615-0.86-1.615-1.766
			c0-0.583,0.227-1.059,0.68-1.426c0.452-0.367,1.026-0.551,1.72-0.551c0.725,0,1.309,0.166,1.751,0.498s0.725,0.8,0.845,1.403
			h-1.132c-0.201-0.634-0.693-0.951-1.479-0.951c-0.353,0-0.654,0.083-0.905,0.249c-0.252,0.166-0.377,0.405-0.377,0.717
			c0,0.221,0.072,0.395,0.219,0.521c0.146,0.126,0.385,0.234,0.717,0.325l1.298,0.317c1.137,0.302,1.705,0.925,1.705,1.871
			c0,0.624-0.231,1.117-0.694,1.479c-0.463,0.362-1.062,0.543-1.796,0.543s-1.351-0.176-1.849-0.528
			C617.165,189.953,616.865,189.471,616.766,188.857z"/>
		<path style="fill:#231F20;" d="M623.888,189.008v-4.044h-1.087v-0.966h1.087v-1.766h1.132v1.766h1.614v0.966h-1.614v3.923
			c0,0.624,0.297,0.936,0.89,0.936c0.312,0,0.604-0.09,0.876-0.271v1.057c-0.282,0.151-0.634,0.226-1.057,0.226
			c-0.563,0-1.011-0.153-1.343-0.46C624.054,190.066,623.888,189.611,623.888,189.008z"/>
		<path style="fill:#231F20;" d="M632.82,189.913v3.35h-1.132v-9.266h1.132v0.785c0.191-0.261,0.455-0.48,0.793-0.656
			c0.337-0.176,0.701-0.264,1.094-0.264c0.945,0,1.685,0.334,2.218,1.003c0.533,0.669,0.8,1.497,0.8,2.482s-0.267,1.813-0.8,2.482
			s-1.272,1.003-2.218,1.003c-0.393,0-0.757-0.088-1.094-0.264C633.275,190.394,633.012,190.175,632.82,189.913z M632.82,185.99
			v2.716c0.171,0.342,0.41,0.611,0.717,0.808s0.642,0.294,1.004,0.294c0.624,0,1.119-0.229,1.486-0.687
			c0.367-0.458,0.551-1.049,0.551-1.773s-0.184-1.315-0.551-1.773c-0.367-0.458-0.862-0.687-1.486-0.687
			c-0.362,0-0.697,0.098-1.004,0.294S632.991,185.647,632.82,185.99z"/>
		<path style="fill:#231F20;" d="M644.115,184.835c0.568,0.649,0.854,1.486,0.854,2.513s-0.285,1.864-0.854,2.513
			s-1.311,0.973-2.226,0.973s-1.657-0.324-2.226-0.973s-0.853-1.486-0.853-2.513s0.284-1.864,0.853-2.513s1.311-0.973,2.226-0.973
			S643.547,184.186,644.115,184.835z M643.301,189.151c0.347-0.458,0.521-1.059,0.521-1.803c0-0.744-0.174-1.345-0.521-1.803
			c-0.347-0.458-0.817-0.687-1.411-0.687s-1.063,0.229-1.411,0.687c-0.347,0.458-0.521,1.059-0.521,1.803
			c0,0.745,0.174,1.346,0.521,1.803c0.348,0.458,0.817,0.687,1.411,0.687S642.954,189.609,643.301,189.151z"/>
		<path style="fill:#231F20;" d="M647.586,181.462c0.146,0.141,0.219,0.312,0.219,0.513s-0.073,0.372-0.219,0.513
			c-0.146,0.141-0.319,0.211-0.521,0.211s-0.372-0.07-0.513-0.211c-0.142-0.141-0.212-0.312-0.212-0.513s0.07-0.372,0.212-0.513
			c0.141-0.141,0.312-0.211,0.513-0.211S647.44,181.322,647.586,181.462z M647.639,183.998v6.7h-1.132v-6.7H647.639z"/>
		<path style="fill:#231F20;" d="M649.661,190.698v-6.7h1.132v0.845c0.212-0.282,0.49-0.516,0.838-0.702
			c0.347-0.186,0.727-0.279,1.14-0.279c0.744,0,1.322,0.221,1.735,0.664c0.412,0.443,0.618,1.036,0.618,1.781v4.391h-1.146v-4.21
			c0-0.483-0.123-0.868-0.37-1.154c-0.246-0.287-0.616-0.43-1.109-0.43c-0.392,0-0.744,0.119-1.056,0.355
			c-0.312,0.236-0.528,0.536-0.649,0.898v4.542H649.661z"/>
		<path style="fill:#231F20;" d="M657.357,189.008v-4.044h-1.087v-0.966h1.087v-1.766h1.132v1.766h1.614v0.966h-1.614v3.923
			c0,0.624,0.297,0.936,0.89,0.936c0.312,0,0.604-0.09,0.876-0.271v1.057c-0.282,0.151-0.634,0.226-1.057,0.226
			c-0.563,0-1.011-0.153-1.343-0.46C657.523,190.066,657.357,189.611,657.357,189.008z"/>
	</g>
	<path d="M675.84,184.031c1.083,0.243,1.604,1.459,1.509,2.481c-0.037,0.34-0.085,0.668-0.183,0.997
		c-0.293,0.973-0.938,1.873-1.8,2.395c-0.401,0.244-0.851,0.415-1.339,0.438c-0.704,0.049-1.13-0.328-1.349-0.827
		c-0.037-0.122-0.109-0.255-0.109-0.365c0-0.182,0.085-0.401,0.122-0.571c0.183-0.912,0.571-2.712,0.571-2.712l0.098-0.474
		c0.071-0.39,0.193-0.486,0.474-0.742C674.368,184.226,675.002,183.886,675.84,184.031 M673.554,184.408l0.232-1.119h-1.034
		l-2.214,10.482h1.046l0.814-3.831c0.171,0.304,0.341,0.584,0.621,0.815c0.862,0.705,2.114,0.414,2.966-0.134
		c1.606-1.009,2.531-2.979,2.444-4.852c-0.048-1.021-0.51-2.213-1.58-2.542C675.522,182.863,674.15,183.825,673.554,184.408z"/>
	<g>
		<path d="M416.691,43.45c1.137,0.254,1.686,1.532,1.584,2.604c-0.039,0.358-0.089,0.704-0.192,1.048
			c-0.306,1.022-0.982,1.967-1.89,2.517c-0.409,0.255-0.895,0.434-1.394,0.459c-0.74,0.052-1.188-0.344-1.431-0.868
			c-0.038-0.128-0.103-0.268-0.103-0.384c0-0.191,0.077-0.408,0.116-0.6c0.19-0.946,0.6-2.849,0.6-2.849l0.104-0.499
			c0.075-0.41,0.216-0.511,0.51-0.78C415.145,43.653,415.809,43.295,416.691,43.45 M414.302,43.845l0.229-1.176h-1.086
			l-2.324,11.014h1.111l0.843-4.025c0.191,0.32,0.358,0.614,0.652,0.857c0.92,0.74,2.223,0.435,3.116-0.141
			c1.687-1.06,2.657-3.13,2.568-5.097c-0.051-1.073-0.537-2.326-1.647-2.67C416.358,42.223,414.915,43.232,414.302,43.845z"/>
		<path d="M422.287,36.997c-0.064,0-0.114,0.026-0.179,0.052c-0.281,0.115-0.333,0.396-0.422,0.664l-0.142,0.473l-1.099,3.717
			c-0.038,0.116-0.318,0.983-0.306,1.074c0.024,0.127,0.218,0.166,0.332,0.205c0.051,0.013,0.09,0.039,0.141,0.026
			c0.14-0.013,0.191-0.217,0.23-0.333l0.472-1.047l1.124-2.606c0.116-0.243,0.537-1.137,0.589-1.354
			C423.244,37.304,422.67,36.921,422.287,36.997"/>
	</g>
	<g>
		<rect x="378.825" y="197.865" style="fill:none;" width="127.326" height="33.954"/>
		<path style="fill:#231F20;" d="M384.168,200.823c0-0.563-0.179-1.011-0.535-1.343c-0.357-0.332-0.822-0.498-1.396-0.498
			c-0.653,0-1.167,0.199-1.539,0.596c-0.372,0.397-0.594,0.938-0.664,1.623h-0.77c0.08-0.875,0.385-1.582,0.913-2.121
			c0.528-0.538,1.215-0.807,2.06-0.807c0.825,0,1.479,0.234,1.962,0.702c0.483,0.468,0.725,1.084,0.725,1.849
			c0,0.131-0.011,0.259-0.03,0.385c-0.021,0.126-0.056,0.256-0.105,0.393c-0.051,0.136-0.096,0.251-0.136,0.347
			c-0.041,0.096-0.111,0.217-0.212,0.362c-0.101,0.146-0.173,0.254-0.219,0.325c-0.045,0.07-0.138,0.186-0.279,0.347
			c-0.141,0.161-0.231,0.267-0.271,0.317c-0.04,0.051-0.143,0.169-0.309,0.355s-0.27,0.299-0.31,0.339l-2.762,2.973h4.844v0.709
			h-5.915v-0.528l3.274-3.561c0.433-0.473,0.734-0.81,0.905-1.011s0.342-0.468,0.514-0.8
			C384.083,201.442,384.168,201.125,384.168,200.823z"/>
		<path style="fill:#231F20;" d="M386.522,207.554c-0.111-0.111-0.166-0.247-0.166-0.408c0-0.161,0.055-0.299,0.166-0.415
			c0.11-0.115,0.241-0.173,0.393-0.173c0.16,0,0.296,0.058,0.407,0.173c0.11,0.116,0.166,0.254,0.166,0.415
			c0,0.161-0.056,0.297-0.166,0.408c-0.111,0.111-0.247,0.166-0.407,0.166C386.764,207.72,386.633,207.665,386.522,207.554z"/>
		<path style="fill:#231F20;" d="M395.501,203.585h-2.218v4.089h-0.77v-9.266h3.274c0.915,0,1.63,0.224,2.143,0.671
			c0.514,0.448,0.77,1.089,0.77,1.924c0,0.745-0.206,1.333-0.618,1.766c-0.413,0.433-0.991,0.694-1.735,0.785l2.791,4.12h-0.89
			L395.501,203.585z M393.283,199.103v3.803h2.475c0.704,0,1.245-0.166,1.622-0.498c0.378-0.332,0.566-0.8,0.566-1.403
			c0-0.614-0.188-1.084-0.566-1.411c-0.377-0.327-0.918-0.49-1.622-0.49H393.283z"/>
		<path style="fill:#231F20;" d="M404.963,205.728h0.725c-0.131,0.634-0.426,1.14-0.883,1.517c-0.458,0.377-1.029,0.566-1.713,0.566
			c-0.886,0-1.603-0.322-2.15-0.966c-0.549-0.644-0.822-1.484-0.822-2.52c0-1.016,0.269-1.851,0.807-2.505s1.255-0.981,2.15-0.981
			c0.865,0,1.534,0.299,2.008,0.898c0.473,0.599,0.709,1.391,0.709,2.376v0.272h-4.935c0.01,0.845,0.221,1.517,0.634,2.015
			c0.412,0.498,0.945,0.747,1.6,0.747c0.473,0,0.877-0.125,1.215-0.377C404.644,206.518,404.862,206.17,404.963,205.728z
			 M403.076,201.502c-0.604,0-1.099,0.206-1.486,0.619c-0.387,0.413-0.621,0.971-0.701,1.675h4.149
			c-0.021-0.644-0.196-1.187-0.528-1.629C404.178,201.724,403.7,201.502,403.076,201.502z"/>
		<path style="fill:#231F20;" d="M410.426,197.866v0.694c-0.201-0.11-0.428-0.166-0.68-0.166c-0.361,0-0.656,0.128-0.883,0.385
			c-0.226,0.257-0.339,0.611-0.339,1.064v1.132h1.569v0.649h-1.569v6.051h-0.739v-6.051h-1.087v-0.649h1.087v-1.207
			c0-0.604,0.176-1.094,0.527-1.472c0.353-0.377,0.805-0.566,1.358-0.566C409.942,197.729,410.194,197.775,410.426,197.866z"/>
		<path style="fill:#231F20;" d="M412.086,197.866v9.809h-0.755v-9.809H412.086z"/>
		<path style="fill:#231F20;" d="M418.59,205.728h0.725c-0.131,0.634-0.426,1.14-0.883,1.517c-0.458,0.377-1.029,0.566-1.713,0.566
			c-0.886,0-1.603-0.322-2.15-0.966c-0.549-0.644-0.822-1.484-0.822-2.52c0-1.016,0.269-1.851,0.807-2.505s1.255-0.981,2.15-0.981
			c0.865,0,1.534,0.299,2.008,0.898c0.473,0.599,0.709,1.391,0.709,2.376v0.272h-4.935c0.01,0.845,0.221,1.517,0.634,2.015
			c0.412,0.498,0.945,0.747,1.6,0.747c0.473,0,0.877-0.125,1.215-0.377C418.271,206.518,418.489,206.17,418.59,205.728z
			 M416.703,201.502c-0.604,0-1.099,0.206-1.486,0.619c-0.387,0.413-0.621,0.971-0.701,1.675h4.149
			c-0.021-0.644-0.196-1.187-0.528-1.629C417.805,201.724,417.327,201.502,416.703,201.502z"/>
		<path style="fill:#231F20;" d="M421.411,206.844c-0.543-0.644-0.814-1.484-0.814-2.52s0.271-1.876,0.814-2.52
			c0.543-0.644,1.258-0.966,2.143-0.966c0.694,0,1.266,0.188,1.713,0.566c0.448,0.377,0.732,0.883,0.853,1.517h-0.77
			c-0.101-0.443-0.307-0.787-0.618-1.034c-0.312-0.247-0.705-0.37-1.178-0.37c-0.653,0-1.185,0.256-1.592,0.77
			s-0.611,1.192-0.611,2.037s0.204,1.524,0.611,2.037s0.938,0.77,1.592,0.77c0.473,0,0.865-0.123,1.178-0.37
			c0.312-0.246,0.518-0.591,0.618-1.034h0.77c-0.12,0.634-0.404,1.14-0.853,1.517c-0.447,0.377-1.019,0.566-1.713,0.566
			C422.669,207.81,421.954,207.488,421.411,206.844z"/>
		<path style="fill:#231F20;" d="M428.065,206.12v-4.497h-1.132v-0.649h1.132v-1.72h0.739v1.72h1.735v0.649h-1.735v4.421
			c0,0.725,0.322,1.086,0.966,1.086c0.322,0,0.629-0.085,0.921-0.256v0.709c-0.282,0.151-0.614,0.226-0.996,0.226
			c-0.503,0-0.9-0.143-1.192-0.43C428.211,207.093,428.065,206.673,428.065,206.12z"/>
	</g>
</g>
<g>
	<rect x="22.949" y="197.865" style="fill:none;" width="127.326" height="33.954"/>
	<path style="fill:#231F20;" d="M26.602,198.394v9.281h-0.754v-8.36l-2.43,1.253v-0.8l2.716-1.374H26.602z"/>
	<path style="fill:#231F20;" d="M28.594,207.554c-0.111-0.111-0.166-0.247-0.166-0.408c0-0.161,0.055-0.299,0.166-0.415
		c0.11-0.115,0.241-0.173,0.392-0.173c0.161,0,0.297,0.058,0.408,0.173c0.11,0.116,0.166,0.254,0.166,0.415
		c0,0.161-0.056,0.297-0.166,0.408c-0.111,0.111-0.247,0.166-0.408,0.166C28.835,207.72,28.704,207.665,28.594,207.554z"/>
	<path style="fill:#231F20;" d="M37.572,203.585h-2.218v4.089h-0.77v-9.266h3.274c0.916,0,1.63,0.224,2.143,0.671
		c0.513,0.448,0.77,1.089,0.77,1.924c0,0.745-0.207,1.333-0.619,1.766c-0.413,0.433-0.991,0.694-1.736,0.785l2.792,4.12h-0.89
		L37.572,203.585z M35.354,199.103v3.803h2.475c0.704,0,1.245-0.166,1.622-0.498c0.377-0.332,0.566-0.8,0.566-1.403
		c0-0.614-0.188-1.084-0.566-1.411c-0.377-0.327-0.918-0.49-1.622-0.49H35.354z"/>
	<path style="fill:#231F20;" d="M47.306,207.674h-0.725v-0.634c-0.161,0.191-0.413,0.362-0.754,0.513
		c-0.342,0.151-0.709,0.226-1.102,0.226c-0.705,0-1.293-0.188-1.766-0.566c-0.473-0.377-0.709-0.877-0.709-1.501
		c0-0.604,0.242-1.096,0.725-1.479s1.076-0.574,1.781-0.574c0.362,0,0.714,0.073,1.056,0.219c0.342,0.146,0.599,0.31,0.77,0.491
		v-1.192c0-0.503-0.148-0.908-0.445-1.215c-0.297-0.307-0.707-0.46-1.23-0.46c-0.835,0-1.378,0.382-1.63,1.147h-0.739
		c0.13-0.563,0.41-1.006,0.837-1.328c0.427-0.322,0.938-0.483,1.532-0.483c0.744,0,1.33,0.209,1.758,0.626
		c0.428,0.418,0.642,0.979,0.642,1.683V207.674z M46.581,206.15v-0.86c-0.111-0.292-0.334-0.531-0.671-0.717
		c-0.337-0.186-0.707-0.279-1.109-0.279c-0.513,0-0.948,0.124-1.305,0.37c-0.357,0.247-0.536,0.596-0.536,1.049
		s0.179,0.805,0.536,1.057s0.792,0.377,1.305,0.377c0.402,0,0.772-0.093,1.109-0.279C46.247,206.681,46.47,206.442,46.581,206.15z"
		/>
	<path style="fill:#231F20;" d="M49.373,207.674v-6.7h0.755v1.071c0.221-0.342,0.521-0.628,0.897-0.86
		c0.377-0.231,0.792-0.347,1.245-0.347c0.745,0,1.318,0.219,1.72,0.656c0.402,0.438,0.604,1.019,0.604,1.743v4.437h-0.74v-4.331
		c0-0.543-0.143-0.981-0.43-1.313c-0.287-0.332-0.717-0.498-1.29-0.498c-0.443,0-0.845,0.136-1.207,0.407
		c-0.362,0.271-0.629,0.619-0.8,1.041v4.693H49.373z"/>
	<path style="fill:#231F20;" d="M61.143,207.674l-2.913-3.35l-0.814,0.754v2.596h-0.755v-9.809h0.755v6.338l3.546-3.229h0.996
		l-3.184,2.882l3.29,3.818H61.143z"/>
	<path style="fill:#231F20;" d="M69.247,207.674h-0.648l-2.671-6.7h0.8l2.203,5.659l2.204-5.659h0.77L69.247,207.674z"/>
	<path style="fill:#231F20;" d="M77.517,205.728h0.724c-0.131,0.634-0.425,1.14-0.883,1.517c-0.458,0.377-1.028,0.566-1.712,0.566
		c-0.886,0-1.603-0.322-2.15-0.966c-0.549-0.644-0.823-1.484-0.823-2.52c0-1.016,0.269-1.851,0.808-2.505
		c0.538-0.654,1.255-0.981,2.15-0.981c0.865,0,1.534,0.299,2.007,0.898c0.473,0.599,0.709,1.391,0.709,2.376v0.272h-4.935
		c0.01,0.845,0.221,1.517,0.634,2.015c0.412,0.498,0.945,0.747,1.6,0.747c0.473,0,0.877-0.125,1.215-0.377
		C77.197,206.518,77.416,206.17,77.517,205.728z M75.63,201.502c-0.604,0-1.1,0.206-1.486,0.619
		c-0.388,0.413-0.622,0.971-0.702,1.675h4.15c-0.02-0.644-0.196-1.187-0.528-1.629C76.732,201.724,76.254,201.502,75.63,201.502z"/>
	<path style="fill:#231F20;" d="M83.145,200.929v0.74c-0.191-0.081-0.397-0.121-0.619-0.121c-0.402,0-0.76,0.131-1.071,0.393
		c-0.312,0.262-0.548,0.614-0.709,1.056v4.678h-0.755v-6.7h0.755v1.071c0.161-0.352,0.402-0.641,0.724-0.868
		c0.322-0.226,0.684-0.339,1.086-0.339C82.748,200.838,82.944,200.869,83.145,200.929z"/>
	<path style="fill:#231F20;" d="M84.835,206.12v-4.497h-1.132v-0.649h1.132v-1.72h0.74v1.72h1.735v0.649h-1.735v4.421
		c0,0.725,0.322,1.086,0.966,1.086c0.322,0,0.628-0.085,0.92-0.256v0.709c-0.282,0.151-0.614,0.226-0.996,0.226
		c-0.503,0-0.9-0.143-1.192-0.43C84.981,207.093,84.835,206.673,84.835,206.12z"/>
	<path style="fill:#231F20;" d="M89.755,198.575c0.1,0.101,0.151,0.222,0.151,0.362c0,0.141-0.051,0.262-0.151,0.362
		c-0.101,0.101-0.222,0.151-0.362,0.151c-0.141,0-0.262-0.05-0.362-0.151s-0.151-0.221-0.151-0.362c0-0.141,0.05-0.262,0.151-0.362
		s0.221-0.151,0.362-0.151C89.533,198.424,89.654,198.474,89.755,198.575z M89.77,200.974v6.7h-0.755v-6.7H89.77z"/>
	<path style="fill:#231F20;" d="M92.244,206.844c-0.543-0.644-0.815-1.484-0.815-2.52s0.272-1.876,0.815-2.52
		c0.543-0.644,1.257-0.966,2.143-0.966c0.694,0,1.265,0.188,1.712,0.566c0.448,0.377,0.732,0.883,0.853,1.517h-0.77
		c-0.101-0.443-0.307-0.787-0.619-1.034s-0.704-0.37-1.177-0.37c-0.654,0-1.185,0.256-1.592,0.77
		c-0.407,0.513-0.611,1.192-0.611,2.037s0.204,1.524,0.611,2.037c0.408,0.513,0.938,0.77,1.592,0.77c0.473,0,0.865-0.123,1.177-0.37
		c0.312-0.246,0.518-0.591,0.619-1.034h0.77c-0.121,0.634-0.405,1.14-0.853,1.517c-0.448,0.377-1.019,0.566-1.712,0.566
		C93.501,207.81,92.788,207.488,92.244,206.844z"/>
	<path style="fill:#231F20;" d="M102.883,205.728h0.724c-0.131,0.634-0.425,1.14-0.883,1.517c-0.458,0.377-1.028,0.566-1.712,0.566
		c-0.886,0-1.603-0.322-2.15-0.966c-0.549-0.644-0.823-1.484-0.823-2.52c0-1.016,0.269-1.851,0.808-2.505
		c0.538-0.654,1.255-0.981,2.15-0.981c0.865,0,1.534,0.299,2.007,0.898c0.473,0.599,0.709,1.391,0.709,2.376v0.272h-4.935
		c0.01,0.845,0.221,1.517,0.634,2.015c0.412,0.498,0.945,0.747,1.6,0.747c0.473,0,0.877-0.125,1.215-0.377
		C102.563,206.518,102.782,206.17,102.883,205.728z M100.997,201.502c-0.604,0-1.1,0.206-1.486,0.619
		c-0.388,0.413-0.622,0.971-0.702,1.675h4.15c-0.02-0.644-0.196-1.187-0.528-1.629C102.098,201.724,101.62,201.502,100.997,201.502z
		"/>
	<path style="fill:#231F20;" d="M104.799,205.939h0.754c0.272,0.815,0.896,1.222,1.872,1.222c0.483,0,0.875-0.105,1.177-0.317
		c0.302-0.211,0.453-0.518,0.453-0.92c0-0.563-0.413-0.96-1.237-1.192l-1.252-0.347c-1.056-0.282-1.584-0.845-1.584-1.69
		c0-0.563,0.216-1.013,0.649-1.351c0.433-0.337,0.971-0.505,1.615-0.505c0.684,0,1.24,0.161,1.667,0.483
		c0.427,0.322,0.702,0.77,0.822,1.343h-0.739c-0.262-0.785-0.845-1.177-1.75-1.177c-0.443,0-0.81,0.103-1.102,0.309
		c-0.292,0.207-0.438,0.496-0.438,0.868c0,0.302,0.093,0.528,0.279,0.679s0.496,0.287,0.928,0.408l1.192,0.332
		c1.117,0.292,1.675,0.9,1.675,1.826c0,0.594-0.222,1.059-0.664,1.396c-0.443,0.337-1.011,0.505-1.705,0.505
		c-0.685,0-1.265-0.166-1.743-0.498S104.9,206.522,104.799,205.939z"/>
</g>
<g>
</g>
<g>
</g>
<g>
</g>
<g>
</g>
<g>
</g>
<g>
</g>
<g>
</g>
</svg>
