<?xml version="1.0" encoding="iso-8859-1"?>
<!-- Generator: Adobe Illustrator 16.0.0, SVG Export Plug-In . SVG Version: 6.00 Build 0)  -->
<!DOCTYPE svg PUBLIC "-//W3C//DTD SVG 1.1//EN" "http://www.w3.org/Graphics/SVG/1.1/DTD/svg11.dtd">
<svg version="1.1" id="Layer_1" xmlns="http://www.w3.org/2000/svg" xmlns:xlink="http://www.w3.org/1999/xlink" x="0px" y="0px"
	 width="502.061px" height="298.208px" viewBox="0 0 502.061 298.208" style="enable-background:new 0 0 502.061 298.208;"
	 xml:space="preserve">
<circle style="fill:#FFFFFF;stroke:#231F20;stroke-width:3;stroke-miterlimit:10;" cx="133.766" cy="97.794" r="16.073"/>
<g>
	<circle style="fill:#231F20;stroke:#FFFFFF;stroke-miterlimit:10;" cx="133.766" cy="128.024" r="2.459"/>
	<circle style="fill:#231F20;stroke:#FFFFFF;stroke-miterlimit:10;" cx="133.766" cy="134.582" r="2.459"/>
	<circle style="fill:#231F20;stroke:#FFFFFF;stroke-miterlimit:10;" cx="133.766" cy="141.14" r="2.459"/>
</g>
<circle style="fill:#FFFFFF;stroke:#231F20;stroke-width:3;stroke-miterlimit:10;" cx="133.766" cy="169.796" r="16.073"/>
<g>
	<path style="fill:#231F20;stroke:#FFFFFF;stroke-miterlimit:10;" d="M136.225,197.677c0,1.357-1.101,2.457-2.459,2.457
		c-1.358,0-2.459-1.1-2.459-2.457c0-1.36,1.101-2.461,2.459-2.461C135.124,195.216,136.225,196.316,136.225,197.677z"/>
	<circle style="fill:#231F20;stroke:#FFFFFF;stroke-miterlimit:10;" cx="133.766" cy="204.233" r="2.459"/>
	<circle style="fill:#231F20;stroke:#FFFFFF;stroke-miterlimit:10;" cx="133.766" cy="210.792" r="2.459"/>
</g>
<circle style="fill:#FFFFFF;stroke:#231F20;stroke-width:3;stroke-miterlimit:10;" cx="133.766" cy="239.446" r="16.073"/>
<g>
	<defs>
		<rect id="SVGID_1_" x="120.927" y="37.284" width="25.676" height="25.676"/>
	</defs>
	<clipPath id="SVGID_2_">
		<use xlink:href="#SVGID_1_"  style="overflow:visible;"/>
	</clipPath>
	<path style="clip-path:url(#SVGID_2_);" d="M125.179,37.664l-4.23,19.998c4.038-0.021,8.29,0.064,12.157-0.021
		c0.192-0.427,0.256-0.982,0.363-1.496h-10.191l0.727-3.376c1.026-5.042,2.18-10.042,3.184-15.105H125.179"/>
	<path style="clip-path:url(#SVGID_2_);" d="M143.083,49.948c0.214,0.129,0.406,0.278,0.598,0.449
		c0.748,0.748,0.983,2.179,1.026,3.526c0,0.277,0.021,0.533,0.021,0.812v1.026c0,1.729-0.171,3.396-0.94,4.422
		c-1.003,1.303-3.141,1.346-4.188,0.042c-0.255-0.277-0.405-0.598-0.533-0.939c-0.363-1.026-0.449-2.308-0.449-3.611v-1.025
		c0-0.257,0.021-0.492,0.021-0.748c0-1.603,0.406-3.162,1.475-3.846C140.904,49.564,142.122,49.436,143.083,49.948 M141.375,48.475
		c-0.47,0.064-0.94,0.149-1.389,0.342c-2.072,0.812-2.82,3.546-2.82,6.239c0,0.427,0,0.833,0.021,1.261
		c0.042,1.858,0.47,3.696,1.539,4.807c0.897,0.918,2.2,1.303,3.418,1.175c0.748-0.086,1.389-0.362,1.923-0.705
		c1.709-1.197,2.115-3.696,2.115-6.388c0-2.223-0.385-4.21-1.453-5.406C143.896,48.881,142.614,48.367,141.375,48.475z"/>
</g>
<g>
	<defs>
		<rect id="SVGID_3_" x="125.864" y="230.938" width="15.803" height="17.017"/>
	</defs>
	<clipPath id="SVGID_4_">
		<use xlink:href="#SVGID_3_"  style="overflow:visible;"/>
	</clipPath>
	<path style="clip-path:url(#SVGID_4_);" d="M128.324,234.048l-2.137,10.098c0.302,0,0.625,0.012,0.885-0.031l0.054-0.162
		l1.921-9.074h0.021c0.043,0.259,0.162,0.507,0.249,0.755c0.496,1.532,2.794,8.428,2.837,8.47c0.054,0.076,0.227,0.043,0.313,0.043
		h0.733c0.173,0,0.388,0.055,0.388-0.16c0.044-0.142,2.094-9.723,2.115-9.938h-0.906c-0.626,3.117-1.328,6.15-1.964,9.257
		l-3.085-9.257H128.324"/>
	<path style="clip-path:url(#SVGID_4_);" d="M139.686,232.062c0.108,0.065,0.205,0.141,0.302,0.227
		c0.377,0.378,0.496,1.111,0.518,1.781c0,0.139,0.011,0.269,0.011,0.41v0.517c0,0.874-0.086,1.716-0.475,2.234
		c-0.506,0.668-1.575,0.691-2.115,0.021c-0.129-0.14-0.205-0.301-0.27-0.475c-0.184-0.518-0.227-1.165-0.227-1.812v-0.518
		c0-0.141,0.011-0.26,0.011-0.389c0-0.81,0.206-1.598,0.745-1.942C138.585,231.867,139.2,231.802,139.686,232.062 M138.823,231.328
		c-0.237,0.021-0.475,0.063-0.701,0.173c-1.046,0.397-1.424,1.779-1.424,3.139c0,0.217,0,0.422,0.011,0.636
		c0.032,0.94,0.238,1.868,0.776,2.44c0.453,0.453,1.112,0.647,1.727,0.582c0.377-0.043,0.701-0.183,0.982-0.354
		c0.863-0.604,1.057-1.869,1.057-3.228c0-1.111-0.183-2.125-0.734-2.73C140.096,231.522,139.448,231.263,138.823,231.328z"/>
	<path style="clip-path:url(#SVGID_4_);" d="M139.309,247.005h0.011C139.319,247.005,139.309,247.016,139.309,247.005
		 M139.772,243.758c0.064,0.076,0.129,0.173,0.151,0.28c0.022,0.098-0.022,0.216-0.043,0.324c-0.076,0.302-0.421,1.964-0.421,1.964
		c-0.054,0.247-0.129,0.334-0.313,0.497c-0.269,0.236-0.593,0.41-0.959,0.441c-0.421,0.033-0.788-0.13-1.014-0.324
		c-0.4-0.388-0.378-1.002-0.281-1.499c0.107-0.562,0.345-1.122,0.776-1.499c0.184-0.163,0.389-0.271,0.616-0.367
		C138.801,243.391,139.416,243.358,139.772,243.758z M140.668,240.704l-0.162,0.777l-0.442,2.115h-0.011
		c-0.075-0.172-0.249-0.324-0.399-0.433c-0.345-0.248-0.798-0.323-1.208-0.27c-0.593,0.087-1.09,0.475-1.425,0.82
		c-0.604,0.638-0.938,1.532-0.928,2.417c0.021,0.788,0.464,1.63,1.381,1.704c0.821,0.033,1.425-0.421,1.835-0.831l-0.151,0.746h0.55
		c0.043,0,0.162,0.021,0.183-0.033c0.033-0.043,0.043-0.13,0.055-0.194c0.032-0.129,1.435-6.731,1.446-6.819H140.668z"/>
</g>
<g>
	<defs>
		<rect id="SVGID_5_" x="10.828" y="155.801" width="28" height="25.988"/>
	</defs>
	<clipPath id="SVGID_6_">
		<use xlink:href="#SVGID_5_"  style="overflow:visible;"/>
	</clipPath>
	<path style="clip-path:url(#SVGID_6_);" d="M17.272,156.651c1.624,2.93,3.382,5.726,5.086,8.602
		c0.613,1.066,1.278,2.051,1.811,3.144l-0.24,0.372l-12.462,12.809c0.959,0,1.971,0.053,2.876-0.054l0.452-0.426L25.18,170.18
		l4.607,8.254c0.613,1.013,1.038,2.185,1.784,3.09c0.932,0.106,1.998,0.054,3.036,0.054c-0.505-0.933-1.091-1.864-1.625-2.743
		c-2.05-3.462-4.021-6.978-6.151-10.359v-0.026l11.504-11.797c-0.986,0-1.944,0-2.849,0.055l-0.374,0.319l-9.16,9.506l-0.506-0.958
		c-1.731-2.903-3.302-5.992-5.113-8.841C19.402,156.626,18.337,156.651,17.272,156.651"/>
</g>
<g>
	<g>
		
			<line style="fill:none;stroke:#231F20;stroke-width:0.75;stroke-miterlimit:10;" x1="41.212" y1="168.457" x2="66.969" y2="168.456"/>
		<g>
			<polygon style="fill:#231F20;" points="64.484,171.523 63.973,170.975 66.682,168.457 63.973,165.938 64.484,165.39 
				67.783,168.457 			"/>
		</g>
	</g>
</g>
<g>
	<polyline style="fill:none;stroke:#000000;stroke-width:0.75;stroke-miterlimit:10;" points="101.416,97.794 86.082,97.794 
		86.082,241.796 101.416,241.796 	"/>
	
		<line style="fill:none;stroke:#000000;stroke-width:0.75;stroke-miterlimit:10;" x1="86.082" y1="168.457" x2="76.249" y2="168.457"/>
</g>
<circle style="fill:#FFFFFF;stroke:#231F20;stroke-width:3;stroke-miterlimit:10;" cx="240.432" cy="132.582" r="16.073"/>
<g>
	<circle style="fill:#231F20;stroke:#FFFFFF;stroke-miterlimit:10;" cx="240.432" cy="162.812" r="2.459"/>
	<circle style="fill:#231F20;stroke:#FFFFFF;stroke-miterlimit:10;" cx="240.432" cy="169.37" r="2.459"/>
	<circle style="fill:#231F20;stroke:#FFFFFF;stroke-miterlimit:10;" cx="240.432" cy="175.928" r="2.459"/>
</g>
<circle style="fill:#FFFFFF;stroke:#231F20;stroke-width:3;stroke-miterlimit:10;" cx="240.432" cy="204.583" r="16.073"/>
<g>
	<circle style="fill:#231F20;stroke:#FFFFFF;stroke-miterlimit:10;" cx="240.432" cy="232.464" r="2.459"/>
	<circle style="fill:#231F20;stroke:#FFFFFF;stroke-miterlimit:10;" cx="240.432" cy="239.021" r="2.459"/>
	<circle style="fill:#231F20;stroke:#FFFFFF;stroke-miterlimit:10;" cx="240.432" cy="245.579" r="2.459"/>
</g>
<circle style="fill:#FFFFFF;stroke:#231F20;stroke-width:3;stroke-miterlimit:10;" cx="240.432" cy="274.235" r="16.073"/>
<circle style="fill:#FFFFFF;stroke:#231F20;stroke-width:3;stroke-miterlimit:10;" cx="240.432" cy="60.951" r="16.073"/>
<g>
	<circle style="fill:#231F20;stroke:#FFFFFF;stroke-miterlimit:10;" cx="240.432" cy="91.181" r="2.459"/>
	<circle style="fill:#231F20;stroke:#FFFFFF;stroke-miterlimit:10;" cx="240.432" cy="97.739" r="2.459"/>
	<circle style="fill:#231F20;stroke:#FFFFFF;stroke-miterlimit:10;" cx="240.432" cy="104.297" r="2.459"/>
</g>
<g>
	<g>
		<g>
			
				<line style="fill:none;stroke:#423D3E;stroke-width:0.75;stroke-miterlimit:10;" x1="154.215" y1="97.795" x2="215.362" y2="89.898"/>
			<g>
				<polygon style="fill:#423D3E;" points="213.291,93.258 212.713,92.779 215.077,89.936 212.068,87.785 212.505,87.175 
					216.169,89.795 				"/>
			</g>
		</g>
	</g>
	<g>
		<g>
			
				<line style="fill:none;stroke:#423D3E;stroke-width:0.75;stroke-miterlimit:10;" x1="154.215" y1="97.795" x2="215.431" y2="126.239"/>
			<g>
				<polygon style="fill:#423D3E;" points="211.885,127.974 211.652,127.26 215.17,126.118 213.774,122.693 214.47,122.411 
					216.168,126.582 				"/>
			</g>
		</g>
	</g>
	<g>
		<g>
			
				<line style="fill:none;stroke:#423D3E;stroke-width:0.75;stroke-miterlimit:10;" x1="154.215" y1="97.795" x2="215.599" y2="160.217"/>
			<g>
				<polygon style="fill:#423D3E;" points="211.669,160.596 211.702,159.846 215.396,160.013 215.292,156.315 216.043,156.295 
					216.168,160.798 				"/>
			</g>
		</g>
	</g>
	<g>
		<g>
			
				<line style="fill:none;stroke:#423D3E;stroke-width:0.75;stroke-miterlimit:10;" x1="154.215" y1="97.795" x2="215.736" y2="195.544"/>
			<g>
				<polygon style="fill:#423D3E;" points="211.816,195.075 212.008,194.349 215.582,195.301 216.27,191.667 217.007,191.808 
					216.168,196.232 				"/>
			</g>
		</g>
	</g>
	<g>
		<g>
			
				<line style="fill:none;stroke:#423D3E;stroke-width:0.75;stroke-miterlimit:10;" x1="154.215" y1="97.795" x2="215.827" y2="230.709"/>
			<g>
				<polygon style="fill:#423D3E;" points="211.999,229.745 212.282,229.05 215.705,230.448 216.851,226.932 217.564,227.165 
					216.168,231.447 				"/>
			</g>
		</g>
	</g>
	<g>
		<g>
			
				<line style="fill:none;stroke:#423D3E;stroke-width:0.75;stroke-miterlimit:10;" x1="154.215" y1="97.795" x2="215.5" y2="55.422"/>
			<g>
				<polygon style="fill:#423D3E;" points="215.2,59.358 214.467,59.197 215.264,55.586 211.604,55.056 211.712,54.313 
					216.169,54.96 				"/>
			</g>
		</g>
	</g>
	<g>
		<g>
			
				<line style="fill:none;stroke:#423D3E;stroke-width:0.75;stroke-miterlimit:10;" x1="154.215" y1="97.795" x2="215.888" y2="265.472"/>
			<g>
				<polygon style="fill:#423D3E;" points="212.151,264.198 212.49,263.528 215.788,265.202 217.216,261.79 217.908,262.081 
					216.168,266.235 				"/>
			</g>
		</g>
	</g>
</g>
<g>
	<g>
		<g>
			
				<line style="fill:none;stroke:#423D3E;stroke-width:0.75;stroke-miterlimit:10;" x1="154.215" y1="168.457" x2="215.633" y2="98.405"/>
			<g>
				<polygon style="fill:#423D3E;" points="216.301,102.296 215.551,102.319 215.443,98.623 211.764,98.999 211.688,98.252 
					216.169,97.794 				"/>
			</g>
		</g>
	</g>
	<g>
		<g>
			
				<line style="fill:none;stroke:#423D3E;stroke-width:0.75;stroke-miterlimit:10;" x1="154.215" y1="168.457" x2="215.455" y2="134.972"/>
			<g>
				<polygon style="fill:#423D3E;" points="214.747,138.855 214.034,138.619 215.203,135.11 211.618,134.201 211.804,133.473 
					216.169,134.582 				"/>
			</g>
		</g>
	</g>
	<g>
		<g>
			
				<line style="fill:none;stroke:#423D3E;stroke-width:0.75;stroke-miterlimit:10;" x1="154.215" y1="168.457" x2="215.355" y2="168.792"/>
			<g>
				<polygon style="fill:#423D3E;" points="212.854,171.846 212.345,171.294 215.068,168.792 212.373,166.259 212.887,165.712 
					216.169,168.798 				"/>
			</g>
		</g>
	</g>
	<g>
		<g>
			
				<line style="fill:none;stroke:#423D3E;stroke-width:0.75;stroke-miterlimit:10;" x1="154.215" y1="168.457" x2="215.465" y2="203.827"/>
			<g>
				<polygon style="fill:#423D3E;" points="211.779,205.24 211.61,204.509 215.215,203.684 214.128,200.148 214.846,199.929 
					216.168,204.234 				"/>
			</g>
		</g>
	</g>
	<g>
		<g>
			
				<line style="fill:none;stroke:#423D3E;stroke-width:0.75;stroke-miterlimit:10;" x1="154.215" y1="168.457" x2="215.634" y2="238.835"/>
			<g>
				<polygon style="fill:#423D3E;" points="211.689,238.979 211.767,238.232 215.444,238.618 215.561,234.922 216.311,234.945 
					216.168,239.448 				"/>
			</g>
		</g>
	</g>
	<g>
		<g>
			
				<line style="fill:none;stroke:#423D3E;stroke-width:0.75;stroke-miterlimit:10;" x1="154.215" y1="168.457" x2="215.757" y2="63.661"/>
			<g>
				<polygon style="fill:#423D3E;" points="217.144,67.357 216.411,67.52 215.612,63.909 212.069,64.97 211.854,64.251 
					216.169,62.96 				"/>
			</g>
		</g>
	</g>
	<g>
		<g>
			
				<line style="fill:none;stroke:#423D3E;stroke-width:0.75;stroke-miterlimit:10;" x1="154.215" y1="168.457" x2="215.758" y2="273.533"/>
			<g>
				<polygon style="fill:#423D3E;" points="211.855,272.939 212.07,272.221 215.612,273.285 216.416,269.676 217.148,269.839 
					216.168,274.235 				"/>
			</g>
		</g>
	</g>
</g>
<g>
	<g>
		<g>
			
				<line style="fill:none;stroke:#423D3E;stroke-width:0.75;stroke-miterlimit:10;" x1="154.215" y1="239.459" x2="215.831" y2="104.534"/>
			<g>
				<polygon style="fill:#423D3E;" points="217.589,108.068 216.877,108.306 215.712,104.796 212.296,106.214 212.009,105.521 
					216.169,103.794 				"/>
			</g>
		</g>
	</g>
	<g>
		<g>
			
				<line style="fill:none;stroke:#423D3E;stroke-width:0.75;stroke-miterlimit:10;" x1="154.215" y1="239.459" x2="215.737" y2="141.271"/>
			<g>
				<polygon style="fill:#423D3E;" points="217.017,145.006 216.28,145.147 215.585,141.516 212.013,142.474 211.819,141.749 
					216.169,140.583 				"/>
			</g>
		</g>
	</g>
	<g>
		<g>
			
				<line style="fill:none;stroke:#423D3E;stroke-width:0.75;stroke-miterlimit:10;" x1="154.215" y1="239.459" x2="215.606" y2="175.383"/>
			<g>
				<polygon style="fill:#423D3E;" points="216.102,179.3 215.351,179.289 215.408,175.592 211.715,175.806 211.673,175.056 
					216.169,174.797 				"/>
			</g>
		</g>
	</g>
	<g>
		<g>
			
				<line style="fill:none;stroke:#423D3E;stroke-width:0.75;stroke-miterlimit:10;" x1="154.215" y1="239.459" x2="215.434" y2="210.579"/>
			<g>
				<polygon style="fill:#423D3E;" points="214.495,214.414 213.797,214.136 215.173,210.703 211.649,209.581 211.877,208.866 
					216.169,210.233 				"/>
			</g>
		</g>
	</g>
	<g>
		<g>
			
				<line style="fill:none;stroke:#423D3E;stroke-width:0.75;stroke-miterlimit:10;" x1="154.215" y1="239.459" x2="215.359" y2="245.369"/>
			<g>
				<polygon style="fill:#423D3E;" points="212.591,248.183 212.134,247.587 215.073,245.342 212.619,242.575 213.181,242.077 
					216.169,245.448 				"/>
			</g>
		</g>
	</g>
	<g>
		<g>
			
				<line style="fill:none;stroke:#423D3E;stroke-width:0.75;stroke-miterlimit:10;" x1="154.215" y1="239.459" x2="215.891" y2="69.725"/>
			<g>
				<polygon style="fill:#423D3E;" points="217.925,73.108 217.234,73.401 215.793,69.996 212.502,71.682 212.16,71.013 
					216.169,68.961 				"/>
			</g>
		</g>
	</g>
	<g>
		<g>
			
				<line style="fill:none;stroke:#423D3E;stroke-width:0.75;stroke-miterlimit:10;" x1="154.215" y1="239.459" x2="215.49" y2="279.788"/>
			<g>
				<polygon style="fill:#423D3E;" points="211.728,280.984 211.602,280.244 215.249,279.631 214.37,276.038 215.1,275.86 
					216.168,280.236 				"/>
			</g>
		</g>
	</g>
</g>
<circle style="fill:#FFFFFF;stroke:#231F20;stroke-width:3;stroke-miterlimit:10;" cx="345.103" cy="97.794" r="16.074"/>
<g>
	<circle style="fill:#231F20;stroke:#FFFFFF;stroke-miterlimit:10;" cx="345.104" cy="128.024" r="2.459"/>
	<circle style="fill:#231F20;stroke:#FFFFFF;stroke-miterlimit:10;" cx="345.104" cy="134.582" r="2.459"/>
	<circle style="fill:#231F20;stroke:#FFFFFF;stroke-miterlimit:10;" cx="345.104" cy="141.14" r="2.459"/>
</g>
<circle style="fill:#FFFFFF;stroke:#231F20;stroke-width:3;stroke-miterlimit:10;" cx="345.103" cy="169.796" r="16.074"/>
<g>
	<path style="fill:#231F20;stroke:#FFFFFF;stroke-miterlimit:10;" d="M347.562,197.677c0,1.357-1.101,2.457-2.459,2.457
		s-2.459-1.1-2.459-2.457c0-1.36,1.101-2.461,2.459-2.461S347.562,196.316,347.562,197.677z"/>
	<circle style="fill:#231F20;stroke:#FFFFFF;stroke-miterlimit:10;" cx="345.104" cy="204.233" r="2.459"/>
	<circle style="fill:#231F20;stroke:#FFFFFF;stroke-miterlimit:10;" cx="345.104" cy="210.792" r="2.459"/>
</g>
<circle style="fill:#FFFFFF;stroke:#231F20;stroke-width:3;stroke-miterlimit:10;" cx="345.103" cy="239.446" r="16.074"/>
<g>
	<g>
		<g>
			
				<line style="fill:none;stroke:#423D3E;stroke-width:0.75;stroke-miterlimit:10;" x1="154.215" y1="134.582" x2="215.49" y2="94.241"/>
			<g>
				<polygon style="fill:#423D3E;" points="215.101,98.169 214.371,97.992 215.25,94.399 211.603,93.786 211.728,93.046 
					216.169,93.794 				"/>
			</g>
		</g>
	</g>
	<g>
		<g>
			
				<line style="fill:none;stroke:#423D3E;stroke-width:0.75;stroke-miterlimit:10;" x1="154.215" y1="134.582" x2="215.357" y2="130.634"/>
			<g>
				<polygon style="fill:#423D3E;" points="213.075,133.855 212.529,133.34 215.07,130.653 212.205,128.315 212.68,127.734 
					216.169,130.582 				"/>
			</g>
		</g>
	</g>
	<g>
		<g>
			
				<line style="fill:none;stroke:#423D3E;stroke-width:0.75;stroke-miterlimit:10;" x1="154.215" y1="134.582" x2="215.438" y2="164.439"/>
			<g>
				<polygon style="fill:#423D3E;" points="211.86,166.107 211.641,165.389 215.179,164.313 213.848,160.863 214.548,160.594 
					216.168,164.797 				"/>
			</g>
		</g>
	</g>
	<g>
		<g>
			
				<line style="fill:none;stroke:#423D3E;stroke-width:0.75;stroke-miterlimit:10;" x1="154.215" y1="134.582" x2="215.611" y2="199.641"/>
			<g>
				<polygon style="fill:#423D3E;" points="211.674,199.938 211.723,199.189 215.413,199.432 215.385,195.733 216.135,195.729 
					216.168,200.233 				"/>
			</g>
		</g>
	</g>
	<g>
		<g>
			
				<line style="fill:none;stroke:#423D3E;stroke-width:0.75;stroke-miterlimit:10;" x1="154.215" y1="134.582" x2="215.743" y2="234.754"/>
			<g>
				<polygon style="fill:#423D3E;" points="211.829,234.242 212.029,233.519 215.592,234.51 216.32,230.883 217.056,231.031 
					216.168,235.447 				"/>
			</g>
		</g>
	</g>
	<g>
		<g>
			
				<line style="fill:none;stroke:#423D3E;stroke-width:0.75;stroke-miterlimit:10;" x1="154.215" y1="134.582" x2="215.653" y2="59.589"/>
			<g>
				<polygon style="fill:#423D3E;" points="216.451,63.456 215.702,63.503 215.472,59.812 211.807,60.312 211.707,59.568 
					216.169,58.96 				"/>
			</g>
		</g>
	</g>
	<g>
		<g>
			
				<line style="fill:none;stroke:#423D3E;stroke-width:0.75;stroke-miterlimit:10;" x1="154.215" y1="134.582" x2="215.831" y2="269.495"/>
			<g>
				<polygon style="fill:#423D3E;" points="212.008,268.509 212.295,267.815 215.711,269.234 216.876,265.724 217.588,265.961 
					216.168,270.235 				"/>
			</g>
		</g>
	</g>
</g>
<g>
	<g>
		<g>
			
				<line style="fill:none;stroke:#423D3E;stroke-width:0.75;stroke-miterlimit:10;" x1="154.215" y1="202.583" x2="215.761" y2="96.497"/>
			<g>
				<polygon style="fill:#423D3E;" points="217.167,100.186 216.435,100.353 215.617,96.746 212.08,97.826 211.861,97.107 
					216.169,95.794 				"/>
			</g>
		</g>
	</g>
	<g>
		<g>
			
				<line style="fill:none;stroke:#423D3E;stroke-width:0.75;stroke-miterlimit:10;" x1="154.215" y1="202.583" x2="215.63" y2="133.19"/>
			<g>
				<polygon style="fill:#423D3E;" points="216.28,137.084 215.529,137.104 215.439,133.407 211.759,133.766 211.687,133.019 
					216.169,132.582 				"/>
			</g>
		</g>
	</g>
	<g>
		<g>
			
				<line style="fill:none;stroke:#423D3E;stroke-width:0.75;stroke-miterlimit:10;" x1="154.215" y1="202.583" x2="215.465" y2="167.204"/>
			<g>
				<polygon style="fill:#423D3E;" points="214.847,171.103 214.129,170.883 215.216,167.349 211.611,166.522 211.779,165.791 
					216.169,166.798 				"/>
			</g>
		</g>
	</g>
	<g>
		<g>
			
				<line style="fill:none;stroke:#423D3E;stroke-width:0.75;stroke-miterlimit:10;" x1="154.215" y1="202.583" x2="215.355" y2="202.237"/>
			<g>
				<polygon style="fill:#423D3E;" points="212.888,205.318 212.373,204.772 215.068,202.239 212.345,199.736 212.853,199.185 
					216.169,202.233 				"/>
			</g>
		</g>
	</g>
	<g>
		<g>
			
				<line style="fill:none;stroke:#423D3E;stroke-width:0.75;stroke-miterlimit:10;" x1="154.215" y1="202.583" x2="215.46" y2="237.05"/>
			<g>
				<polygon style="fill:#423D3E;" points="211.79,238.504 211.614,237.774 215.209,236.909 214.083,233.386 214.798,233.158 
					216.168,237.449 				"/>
			</g>
		</g>
	</g>
	<g>
		<g>
			
				<line style="fill:none;stroke:#423D3E;stroke-width:0.75;stroke-miterlimit:10;" x1="154.215" y1="202.583" x2="215.843" y2="61.706"/>
			<g>
				<polygon style="fill:#423D3E;" points="217.657,65.212 216.949,65.46 215.729,61.97 212.335,63.442 212.038,62.753 
					216.169,60.961 				"/>
			</g>
		</g>
	</g>
	<g>
		<g>
			
				<line style="fill:none;stroke:#423D3E;stroke-width:0.75;stroke-miterlimit:10;" x1="154.215" y1="202.583" x2="215.628" y2="271.628"/>
			<g>
				<polygon style="fill:#423D3E;" points="211.685,271.81 211.755,271.062 215.437,271.413 215.518,267.716 216.268,267.732 
					216.168,272.235 				"/>
			</g>
		</g>
	</g>
</g>
<g>
	<g>
		
			<line style="fill:none;stroke:#231F20;stroke-width:0.75;stroke-miterlimit:10;" x1="402.805" y1="168.457" x2="428.562" y2="168.456"/>
		<g>
			<polygon style="fill:#231F20;" points="426.078,171.523 425.566,170.975 428.274,168.457 425.565,165.938 426.077,165.39 
				429.376,168.457 			"/>
		</g>
	</g>
</g>
<g>
	<polyline style="fill:none;stroke:#000000;stroke-width:0.75;stroke-miterlimit:10;" points="370.34,97.794 385.673,97.794 
		385.673,241.796 370.34,241.796 	"/>
	
		<line style="fill:none;stroke:#000000;stroke-width:0.75;stroke-miterlimit:10;" x1="385.673" y1="168.457" x2="395.506" y2="168.457"/>
</g>
<g>
	<defs>
		<rect id="SVGID_7_" x="435.765" y="158.104" width="55.468" height="22.955"/>
	</defs>
	<clipPath id="SVGID_8_">
		<use xlink:href="#SVGID_7_"  style="overflow:visible;"/>
	</clipPath>
	<path style="clip-path:url(#SVGID_8_);" d="M439.364,166.917h0.018C439.382,166.917,439.364,166.951,439.364,166.917
		 M439.449,159.684l-3.361,15.892h1.034c0.204,0,0.475,0.068,0.475-0.22c0.052-0.171,0.07-0.322,0.12-0.493
		c0.289-1.323,1.121-5.483,1.324-6.18c0.442-1.291,1.392-2.768,2.938-2.955c1.002-0.068,1.918,0.188,2.258,0.865
		c0.356,0.698,0.067,1.494-0.068,2.208l-1.442,6.774h1.086c0.222,0,0.425,0.052,0.425-0.254c0.136-0.459,0.458-2.156,0.458-2.156
		l1.036-4.771c0.188-0.884,0.39-1.902-0.051-2.735c-0.407-0.729-1.204-0.984-1.986-1.052c-1.562-0.12-2.479,0.407-3.361,1.205
		c-0.357,0.306-0.697,0.68-0.918,1.087h-0.032l1.51-7.216H439.449z"/>
	<path style="clip-path:url(#SVGID_8_);" d="M452.047,173.929c0,0.12-0.034,0.272-0.067,0.391c-0.374,1.256-0.696,2.377-1.563,3.275
		c-0.424,0.426-1.068,0.851-1.68,0.579c-0.731-0.306-0.9-1.342-0.9-2.275c0-0.662,0.103-1.324,0.222-1.97H452.047 M452.267,173.029
		h-4.023c0.068-0.441,0.221-0.85,0.34-1.257c0.307-0.883,0.714-1.8,1.358-2.462c0.459-0.475,1.223-0.866,1.833-0.442
		c0.374,0.271,0.543,0.765,0.611,1.205c0.153,0.647,0.119,1.342,0.034,1.987C452.369,172.384,452.302,172.706,452.267,173.029z
		 M451.198,167.799c-1.036,0.137-1.851,0.901-2.445,1.681c-0.968,1.258-1.562,2.785-1.833,4.331
		c-0.204,1.019-0.204,2.105-0.035,3.107c0.237,0.985,0.814,2.359,2.226,2.223c1.035-0.103,1.865-0.899,2.461-1.681
		c0.899-1.171,1.461-2.563,1.765-4.007c0.223-1.052,0.358-2.496,0.068-3.48c-0.221-0.935-0.746-2.02-1.781-2.156
		C451.486,167.799,451.334,167.782,451.198,167.799z"/>
	<path style="clip-path:url(#SVGID_8_);" d="M463.458,180.652c-0.188-0.204-0.409-0.374-0.614-0.561
		c-0.186-0.17-0.339-0.355-0.508-0.527c-2.292-2.529-3.481-6.553-3.294-10.831c0.085-2.343,0.543-4.721,1.646-6.826
		c0.509-0.95,1.376-2.275,2.155-2.937c0.205-0.186,0.426-0.356,0.614-0.576h-0.749c-0.117,0-0.288-0.018-0.391,0.032
		c-0.271,0.135-0.969,0.815-1.054,0.919c-2.205,2.188-3.513,5.517-3.684,9.388c-0.119,2.768,0.339,5.586,1.58,8.048
		c0.543,1.104,1.273,2.122,2.139,2.988c0.237,0.221,0.748,0.73,1.019,0.865c0.103,0.052,0.273,0.018,0.391,0.018H463.458"/>
	<path style="clip-path:url(#SVGID_8_);" d="M468.89,159.684c1.035,1.851,2.156,3.634,3.226,5.467
		c0.391,0.697,0.833,1.309,1.172,2.021l-0.153,0.221l-7.946,8.184c0.611,0,1.257,0.018,1.835-0.05l0.289-0.273l6.621-6.96
		l2.937,5.264c0.391,0.646,0.663,1.409,1.139,1.97c0.595,0.067,1.255,0.05,1.917,0.05c-0.322-0.594-0.679-1.188-1.019-1.765
		c-1.307-2.192-2.562-4.449-3.922-6.589v-0.033l7.335-7.505c-0.629,0-1.24,0-1.815,0.017l-0.257,0.204l-5.84,6.079l-0.323-0.629
		c-1.086-1.851-2.104-3.82-3.242-5.619C470.246,159.649,469.552,159.684,468.89,159.684"/>
	<path style="clip-path:url(#SVGID_8_);" d="M484.662,158.395c0.188,0.22,0.407,0.391,0.612,0.576
		c0.186,0.17,0.356,0.339,0.509,0.526c1.986,2.291,3.142,5.417,3.293,9.236c0.119,2.835-0.323,5.79-1.629,8.353
		c-0.425,0.899-1.003,1.75-1.664,2.479c-0.152,0.172-0.323,0.357-0.509,0.527c-0.205,0.171-0.425,0.356-0.612,0.561h0.747
		c0.118,0,0.29,0.034,0.39-0.018c0.272-0.135,0.968-0.831,1.054-0.915c2.208-2.192,3.515-5.519,3.684-9.39
		c0.119-2.769-0.339-5.587-1.579-8.065c-0.543-1.087-1.271-2.105-2.14-2.972c-0.236-0.237-0.746-0.731-1.019-0.866
		c-0.117-0.05-0.271-0.032-0.39-0.032H484.662"/>
</g>
<g>
	<g>
		<g>
			
				<line style="fill:none;stroke:#423D3E;stroke-width:0.75;stroke-miterlimit:10;" x1="260.653" y1="97.795" x2="321.794" y2="96.807"/>
			<g>
				<polygon style="fill:#423D3E;" points="319.359,99.914 318.839,99.373 321.507,96.812 318.757,94.338 319.26,93.78 
					322.607,96.794 				"/>
			</g>
		</g>
	</g>
	<g>
		<g>
			
				<line style="fill:none;stroke:#423D3E;stroke-width:0.75;stroke-miterlimit:10;" x1="260.653" y1="97.795" x2="321.898" y2="132.183"/>
			<g>
				<polygon style="fill:#423D3E;" points="318.229,133.641 318.053,132.912 321.646,132.043 320.518,128.521 321.232,128.292 
					322.607,132.582 				"/>
			</g>
		</g>
	</g>
	<g>
		<g>
			
				<line style="fill:none;stroke:#423D3E;stroke-width:0.75;stroke-miterlimit:10;" x1="260.653" y1="97.795" x2="322.064" y2="166.191"/>
			<g>
				<polygon style="fill:#423D3E;" points="318.121,166.392 318.188,165.645 321.871,165.978 321.936,162.28 322.686,162.294 
					322.606,166.798 				"/>
			</g>
		</g>
	</g>
	<g>
		<g>
			
				<line style="fill:none;stroke:#423D3E;stroke-width:0.75;stroke-miterlimit:10;" x1="260.653" y1="97.795" x2="322.192" y2="201.533"/>
			<g>
				<polygon style="fill:#423D3E;" points="318.286,200.961 318.498,200.24 322.045,201.286 322.828,197.671 323.562,197.831 
					322.606,202.232 				"/>
			</g>
		</g>
	</g>
	<g>
		<g>
			
				<line style="fill:none;stroke:#423D3E;stroke-width:0.75;stroke-miterlimit:10;" x1="260.653" y1="97.795" x2="322.277" y2="236.705"/>
			<g>
				<polygon style="fill:#423D3E;" points="318.466,235.677 318.761,234.986 322.16,236.442 323.363,232.944 324.073,233.189 
					322.606,237.448 				"/>
			</g>
		</g>
	</g>
</g>
<g>
	<g>
		<g>
			
				<line style="fill:none;stroke:#423D3E;stroke-width:0.75;stroke-miterlimit:10;" x1="260.653" y1="61.256" x2="321.871" y2="89.911"/>
			<g>
				<polygon style="fill:#423D3E;" points="318.319,91.636 318.089,90.921 321.609,89.79 320.224,86.361 320.92,86.08 
					322.607,90.256 				"/>
			</g>
		</g>
	</g>
	<g>
		<g>
			
				<line style="fill:none;stroke:#423D3E;stroke-width:0.75;stroke-miterlimit:10;" x1="260.653" y1="61.256" x2="322.045" y2="125.455"/>
			<g>
				<polygon style="fill:#423D3E;" points="318.111,125.779 318.154,125.03 321.846,125.248 321.794,121.549 322.544,121.54 
					322.606,126.043 				"/>
			</g>
		</g>
	</g>
	<g>
		<g>
			
				<line style="fill:none;stroke:#423D3E;stroke-width:0.75;stroke-miterlimit:10;" x1="260.653" y1="61.256" x2="322.176" y2="159.568"/>
			<g>
				<polygon style="fill:#423D3E;" points="318.258,159.089 318.452,158.364 322.022,159.325 322.721,155.692 323.457,155.835 
					322.606,160.258 				"/>
			</g>
		</g>
	</g>
	<g>
		<g>
			
				<line style="fill:none;stroke:#423D3E;stroke-width:0.75;stroke-miterlimit:10;" x1="260.653" y1="61.256" x2="322.267" y2="194.957"/>
			<g>
				<polygon style="fill:#423D3E;" points="318.441,193.983 318.726,193.289 322.146,194.695 323.299,191.182 324.012,191.416 
					322.606,195.695 				"/>
			</g>
		</g>
	</g>
	<g>
		<g>
			
				<line style="fill:none;stroke:#423D3E;stroke-width:0.75;stroke-miterlimit:10;" x1="260.653" y1="61.256" x2="322.328" y2="230.146"/>
			<g>
				<polygon style="fill:#423D3E;" points="318.595,228.863 318.936,228.194 322.229,229.875 323.665,226.467 324.356,226.759 
					322.606,230.909 				"/>
			</g>
		</g>
	</g>
</g>
<g>
	<g>
		<g>
			
				<line style="fill:none;stroke:#423D3E;stroke-width:0.75;stroke-miterlimit:10;" x1="260.653" y1="133.795" x2="321.89" y2="101.176"/>
			<g>
				<polygon style="fill:#423D3E;" points="321.139,105.052 320.429,104.808 321.636,101.312 318.062,100.363 318.255,99.638 
					322.607,100.794 				"/>
			</g>
		</g>
	</g>
	<g>
		<g>
			
				<line style="fill:none;stroke:#423D3E;stroke-width:0.75;stroke-miterlimit:10;" x1="260.653" y1="133.795" x2="321.795" y2="136.545"/>
			<g>
				<polygon style="fill:#423D3E;" points="319.175,139.498 318.688,138.926 321.507,136.533 318.914,133.896 319.45,133.37 
					322.607,136.583 				"/>
			</g>
		</g>
	</g>
	<g>
		<g>
			
				<line style="fill:none;stroke:#423D3E;stroke-width:0.75;stroke-miterlimit:10;" x1="260.653" y1="133.795" x2="321.909" y2="170.38"/>
			<g>
				<polygon style="fill:#423D3E;" points="318.203,171.739 318.045,171.005 321.662,170.232 320.627,166.682 321.348,166.473 
					322.607,170.798 				"/>
			</g>
		</g>
	</g>
	<g>
		<g>
			
				<line style="fill:none;stroke:#423D3E;stroke-width:0.75;stroke-miterlimit:10;" x1="260.653" y1="133.795" x2="322.079" y2="205.615"/>
			<g>
				<polygon style="fill:#423D3E;" points="318.133,205.721 318.218,204.975 321.891,205.397 322.044,201.702 322.794,201.733 
					322.606,206.233 				"/>
			</g>
		</g>
	</g>
	<g>
		<g>
			
				<line style="fill:none;stroke:#423D3E;stroke-width:0.75;stroke-miterlimit:10;" x1="260.653" y1="133.795" x2="322.202" y2="240.742"/>
			<g>
				<polygon style="fill:#423D3E;" points="318.304,240.118 318.524,239.401 322.058,240.493 322.889,236.89 323.62,237.059 
					322.606,241.447 				"/>
			</g>
		</g>
	</g>
</g>
<g>
	<g>
		<g>
			
				<line style="fill:none;stroke:#423D3E;stroke-width:0.75;stroke-miterlimit:10;" x1="260.653" y1="168.797" x2="322.032" y2="107.369"/>
			<g>
				<polygon style="fill:#423D3E;" points="322.445,111.295 321.695,111.269 321.83,107.573 318.134,107.71 318.106,106.959 
					322.608,106.794 				"/>
			</g>
		</g>
	</g>
	<g>
		<g>
			
				<line style="fill:none;stroke:#423D3E;stroke-width:0.75;stroke-miterlimit:10;" x1="260.653" y1="168.797" x2="321.858" y2="142.898"/>
			<g>
				<polygon style="fill:#423D3E;" points="320.765,146.692 320.08,146.385 321.594,143.011 318.117,141.748 318.375,141.042 
					322.607,142.582 				"/>
			</g>
		</g>
	</g>
	<g>
		<g>
			
				<line style="fill:none;stroke:#423D3E;stroke-width:0.75;stroke-miterlimit:10;" x1="260.653" y1="168.797" x2="321.801" y2="176.692"/>
			<g>
				<polygon style="fill:#423D3E;" points="318.943,179.417 318.506,178.807 321.516,176.656 319.151,173.812 319.729,173.333 
					322.607,176.798 				"/>
			</g>
		</g>
	</g>
	<g>
		<g>
			
				<line style="fill:none;stroke:#423D3E;stroke-width:0.75;stroke-miterlimit:10;" x1="260.653" y1="168.797" x2="321.941" y2="211.766"/>
			<g>
				<polygon style="fill:#423D3E;" points="318.146,212.851 318.042,212.107 321.705,211.601 320.933,207.984 321.667,207.828 
					322.607,212.233 				"/>
			</g>
		</g>
	</g>
	<g>
		<g>
			
				<line style="fill:none;stroke:#423D3E;stroke-width:0.75;stroke-miterlimit:10;" x1="260.653" y1="168.797" x2="322.104" y2="246.809"/>
			<g>
				<polygon style="fill:#423D3E;" points="318.157,246.754 318.271,246.013 321.926,246.583 322.228,242.896 322.976,242.959 
					322.606,247.447 				"/>
			</g>
		</g>
	</g>
</g>
<g>
	<g>
		<g>
			
				<line style="fill:none;stroke:#423D3E;stroke-width:0.75;stroke-miterlimit:10;" x1="260.653" y1="204.798" x2="322.149" y2="114.466"/>
			<g>
				<polygon style="fill:#423D3E;" points="323.287,118.247 322.545,118.36 321.988,114.705 318.383,115.527 318.216,114.795 
					322.608,113.794 				"/>
			</g>
		</g>
	</g>
	<g>
		<g>
			
				<line style="fill:none;stroke:#423D3E;stroke-width:0.75;stroke-miterlimit:10;" x1="260.653" y1="204.798" x2="322" y2="150.123"/>
			<g>
				<polygon style="fill:#423D3E;" points="322.186,154.066 321.438,153.997 321.786,150.315 318.088,150.237 318.104,149.487 
					322.607,149.583 				"/>
			</g>
		</g>
	</g>
	<g>
		<g>
			
				<line style="fill:none;stroke:#423D3E;stroke-width:0.75;stroke-miterlimit:10;" x1="260.653" y1="204.798" x2="321.837" y2="184.058"/>
			<g>
				<polygon style="fill:#423D3E;" points="320.469,187.761 319.808,187.405 321.564,184.151 318.19,182.636 318.499,181.951 
					322.607,183.798 				"/>
			</g>
		</g>
	</g>
	<g>
		<g>
			
				<line style="fill:none;stroke:#423D3E;stroke-width:0.75;stroke-miterlimit:10;" x1="260.653" y1="204.798" x2="321.815" y2="219.048"/>
			<g>
				<polygon style="fill:#423D3E;" points="318.699,221.472 318.325,220.82 321.535,218.983 319.468,215.916 320.091,215.497 
					322.607,219.233 				"/>
			</g>
		</g>
	</g>
	<g>
		<g>
			
				<line style="fill:none;stroke:#423D3E;stroke-width:0.75;stroke-miterlimit:10;" x1="260.653" y1="204.798" x2="321.973" y2="253.939"/>
			<g>
				<polygon style="fill:#423D3E;" points="318.115,254.779 318.06,254.03 321.748,253.76 321.209,250.102 321.951,249.992 
					322.607,254.449 				"/>
			</g>
		</g>
	</g>
</g>
<g>
	<g>
		<g>
			
				<line style="fill:none;stroke:#423D3E;stroke-width:0.75;stroke-miterlimit:10;" x1="260.653" y1="237.798" x2="322.241" y2="115.521"/>
			<g>
				<polygon style="fill:#423D3E;" points="323.863,119.12 323.143,119.33 322.112,115.778 318.646,117.064 318.385,116.36 
					322.608,114.794 				"/>
			</g>
		</g>
	</g>
	<g>
		<g>
			
				<line style="fill:none;stroke:#423D3E;stroke-width:0.75;stroke-miterlimit:10;" x1="260.653" y1="237.798" x2="322.137" y2="151.245"/>
			<g>
				<polygon style="fill:#423D3E;" points="323.198,155.048 322.454,155.146 321.971,151.48 318.349,152.23 318.197,151.495 
					322.608,150.582 				"/>
			</g>
		</g>
	</g>
	<g>
		<g>
			
				<line style="fill:none;stroke:#423D3E;stroke-width:0.75;stroke-miterlimit:10;" x1="260.653" y1="237.798" x2="321.989" y2="185.325"/>
			<g>
				<polygon style="fill:#423D3E;" points="322.095,189.271 321.35,189.188 321.771,185.514 318.076,185.36 318.107,184.61 
					322.607,184.798 				"/>
			</g>
		</g>
	</g>
	<g>
		<g>
			
				<line style="fill:none;stroke:#423D3E;stroke-width:0.75;stroke-miterlimit:10;" x1="260.653" y1="237.798" x2="321.825" y2="220.455"/>
			<g>
				<polygon style="fill:#423D3E;" points="320.271,224.084 319.629,223.695 321.548,220.534 318.255,218.851 318.598,218.183 
					322.607,220.234 				"/>
			</g>
		</g>
	</g>
	<g>
		<g>
			
				<line style="fill:none;stroke:#423D3E;stroke-width:0.75;stroke-miterlimit:10;" x1="260.653" y1="237.798" x2="321.825" y2="255.226"/>
			<g>
				<polygon style="fill:#423D3E;" points="318.595,257.494 318.253,256.826 321.548,255.147 319.633,251.983 320.275,251.595 
					322.607,255.449 				"/>
			</g>
		</g>
	</g>
</g>
<g>
	<g>
		<g>
			
				<line style="fill:none;stroke:#423D3E;stroke-width:0.75;stroke-miterlimit:10;" x1="260.653" y1="276.799" x2="322.309" y2="120.551"/>
			<g>
				<polygon style="fill:#423D3E;" points="324.25,123.989 323.551,124.263 322.204,120.819 318.867,122.415 318.544,121.737 
					322.608,119.795 				"/>
			</g>
		</g>
	</g>
	<g>
		<g>
			
				<line style="fill:none;stroke:#423D3E;stroke-width:0.75;stroke-miterlimit:10;" x1="260.653" y1="276.799" x2="322.237" y2="156.308"/>
			<g>
				<polygon style="fill:#423D3E;" points="323.838,159.916 323.115,160.122 322.106,156.563 318.632,157.83 318.376,157.124 
					322.608,155.583 				"/>
			</g>
		</g>
	</g>
	<g>
		<g>
			
				<line style="fill:none;stroke:#423D3E;stroke-width:0.75;stroke-miterlimit:10;" x1="260.653" y1="276.799" x2="322.136" y2="190.459"/>
			<g>
				<polygon style="fill:#423D3E;" points="323.192,194.263 322.448,194.361 321.97,190.694 318.347,191.44 318.196,190.705 
					322.608,189.797 				"/>
			</g>
		</g>
	</g>
	<g>
		<g>
			
				<line style="fill:none;stroke:#423D3E;stroke-width:0.75;stroke-miterlimit:10;" x1="260.653" y1="276.799" x2="321.982" y2="225.754"/>
			<g>
				<polygon style="fill:#423D3E;" points="322.034,229.701 321.29,229.606 321.762,225.938 318.068,225.736 318.11,224.986 
					322.607,225.234 				"/>
			</g>
		</g>
	</g>
	<g>
		<g>
			
				<line style="fill:none;stroke:#423D3E;stroke-width:0.75;stroke-miterlimit:10;" x1="260.653" y1="276.799" x2="321.821" y2="260.656"/>
			<g>
				<polygon style="fill:#423D3E;" points="320.201,264.256 319.566,263.855 321.543,260.729 318.281,258.986 318.636,258.325 
					322.607,260.449 				"/>
			</g>
		</g>
	</g>
</g>
<g>
	<defs>
		<rect id="SVGID_9_" x="329.678" y="37.284" width="30.852" height="24.518"/>
	</defs>
	<clipPath id="SVGID_10_">
		<use xlink:href="#SVGID_9_"  style="overflow:visible;"/>
	</clipPath>
	<path style="clip-path:url(#SVGID_10_);" d="M334.018,37.663l-4.172,19.716c3.981-0.042,8.193,0.042,11.987-0.042
		c0.21-0.422,0.272-0.948,0.378-1.475h-10.069l0.717-3.328c1.032-4.972,2.168-9.879,3.159-14.871H334.018"/>
	<path style="clip-path:url(#SVGID_10_);" d="M349.836,47.878l-2.907,13.755h1.012c0.105,0,0.295,0.043,0.357-0.042
		c0.063-0.086,0.19-0.864,0.254-1.117c0.167-0.864,1.812-8.531,1.812-8.531c0.168-0.948,0.441-1.875,0.59-2.844h0.021l4.507,12.555
		c0.675-0.042,1.475,0.063,2.064-0.042l0.085-0.315l2.844-13.419h-1.37l-2.653,12.555l-4.192-11.606
		c-0.104-0.337-0.189-0.652-0.356-0.905l-0.169-0.043H349.836"/>
</g>
<g>
	<defs>
		<rect id="SVGID_11_" x="229.883" y="6.399" width="22.017" height="25.275"/>
	</defs>
	<clipPath id="SVGID_12_">
		<use xlink:href="#SVGID_11_"  style="overflow:visible;"/>
	</clipPath>
	<path style="clip-path:url(#SVGID_12_);" d="M234.356,6.791l-4.299,20.323c4.103-0.044,8.446,0.043,12.354-0.044
		c0.217-0.434,0.282-0.978,0.391-1.52h-10.379l0.739-3.431c1.063-5.124,2.236-10.184,3.256-15.329H234.356"/>
	<path style="clip-path:url(#SVGID_12_);" d="M249.208,21.858l-0.26,1.239l-1.781,8.403h1.064c0.108,0,0.305,0.043,0.37-0.022
		c0.086-0.086,0.194-0.695,0.194-0.716c0.327-1.672,1.824-8.555,1.868-8.903h-1.432 M249.881,18.776h1.433l0.325-1.455
		c-0.499,0-1.02-0.022-1.433,0.043C250.055,17.82,249.968,18.298,249.881,18.776z"/>
</g>
<g>
	<defs>
		<rect id="SVGID_13_" x="334.981" y="230.331" width="20.244" height="18.888"/>
	</defs>
	<clipPath id="SVGID_14_">
		<use xlink:href="#SVGID_13_"  style="overflow:visible;"/>
	</clipPath>
	<path style="clip-path:url(#SVGID_14_);" d="M337.354,233.779l-2.373,11.213c0.337,0,0.696,0.012,0.983-0.037l0.06-0.18
		l2.132-10.073h0.024c0.048,0.287,0.18,0.562,0.276,0.84c0.551,1.699,3.103,9.354,3.148,9.401c0.061,0.084,0.252,0.049,0.348,0.049
		h0.814c0.192,0,0.432,0.06,0.432-0.181c0.048-0.156,2.324-10.791,2.348-11.032h-1.006c-0.694,3.462-1.474,6.828-2.18,10.278
		l-3.426-10.278H337.354"/>
	<path style="clip-path:url(#SVGID_14_);" d="M348.924,230.51l-1.652,7.822h0.574c0.05,0,0.168,0.024,0.192-0.036
		c0.037-0.036,0.121-0.479,0.155-0.623c0.084-0.491,1.019-4.851,1.019-4.851c0.107-0.54,0.251-1.078,0.347-1.629h0.014l2.55,7.139
		c0.384-0.024,0.851,0.049,1.175-0.024l0.06-0.168l1.604-7.63h-0.777l-1.51,7.139l-2.371-6.611
		c-0.061-0.181-0.121-0.358-0.205-0.504l-0.107-0.023H348.924"/>
	<path style="clip-path:url(#SVGID_14_);" d="M347.607,241.172l-1.653,7.819c0.239,0,0.491,0.012,0.707-0.023l0.049-0.12
		c0.106-0.562,0.226-1.137,0.37-1.676l0.132-0.146l1.077-0.85c0.479,0.934,0.935,1.893,1.438,2.791
		c0.264,0.035,0.562,0.023,0.85,0.023l-1.676-3.318c0.874-0.635,1.676-1.34,2.539-1.987v-0.013c-0.323,0-0.658,0-0.971,0.013
		l-0.119,0.071l-3.067,2.443l1.056-5.028H347.607"/>
</g>
<g>
	<defs>
		<rect id="SVGID_15_" x="231.16" y="264.895" width="17.464" height="18.682"/>
	</defs>
	<clipPath id="SVGID_16_">
		<use xlink:href="#SVGID_15_"  style="overflow:visible;"/>
	</clipPath>
	<path style="clip-path:url(#SVGID_16_);" d="M233.625,268.014l-2.14,10.124c0.302,0,0.626,0.01,0.886-0.033l0.054-0.162
		l1.925-9.096h0.021c0.043,0.261,0.163,0.508,0.249,0.758c0.498,1.523,2.802,8.446,2.844,8.49c0.054,0.073,0.227,0.043,0.313,0.043
		h0.736c0.173,0,0.389,0.053,0.389-0.163c0.043-0.151,2.098-9.745,2.12-9.961h-0.909c-0.627,3.114-1.33,6.166-1.969,9.28
		l-3.093-9.28H233.625"/>
	<path style="clip-path:url(#SVGID_16_);" d="M243.348,267.322l-0.13,0.605l-0.887,4.195h0.53c0.053,0,0.151,0.022,0.184-0.021
		c0.043-0.043,0.086-0.345,0.086-0.355c0.162-0.822,0.919-4.251,0.94-4.424H243.348 M243.672,265.788h0.725l0.151-0.726
		c-0.238,0-0.497-0.011-0.713,0.021C243.77,265.3,243.726,265.548,243.672,265.788z"/>
	<path style="clip-path:url(#SVGID_16_);" d="M242.883,277.921h-0.011c0.075-0.325,0.14-0.64,0.206-0.974h-0.714l-1.017,4.802h0.53
		c0.098,0,0.228,0.032,0.228-0.097c0.021-0.076,0.172-0.758,0.227-1.028c0.076-0.346,0.324-1.6,0.4-1.859
		c0.12-0.39,0.325-0.747,0.627-1.007c0.195-0.172,0.444-0.291,0.693-0.323c0.486-0.033,0.93,0.075,1.104,0.389
		c0.15,0.294,0.032,0.638-0.033,0.941l-0.627,2.984h0.541c0.108,0,0.216,0.032,0.216-0.108c0.065-0.205,0.207-0.962,0.207-0.962
		l0.465-2.12c0.075-0.391,0.162-0.854-0.054-1.222c-0.271-0.444-0.866-0.52-1.471-0.455c-0.411,0.076-0.779,0.281-1.092,0.562
		C243.153,277.575,242.98,277.735,242.883,277.921"/>
	<path style="clip-path:url(#SVGID_16_);" d="M247.446,279.868l-0.097,0.432l-0.639,2.996h0.379c0.043,0,0.108,0.011,0.129-0.022
		c0.033-0.021,0.076-0.237,0.076-0.248c0.107-0.584,0.649-3.039,0.66-3.157H247.446 M247.674,278.765h0.519l0.108-0.51
		c-0.173,0-0.356-0.01-0.508,0.012C247.738,278.43,247.706,278.603,247.674,278.765z"/>
</g>
<g>
	<defs>
		<rect id="SVGID_17_" x="231.602" y="121.984" width="16.581" height="22.621"/>
	</defs>
	<clipPath id="SVGID_18_">
		<use xlink:href="#SVGID_17_"  style="overflow:visible;"/>
	</clipPath>
	<path style="clip-path:url(#SVGID_18_);" d="M234.653,125.725l-2.571,12.154c0.376,0,0.753,0.025,1.078-0.026l0.064-0.195
		l2.312-10.933h0.013c0.052,0.312,0.195,0.611,0.299,0.909c0.598,1.844,3.363,10.142,3.416,10.194
		c0.078,0.091,0.285,0.052,0.389,0.052h0.87c0.221,0,0.48,0.078,0.48-0.195c0.053-0.168,2.519-11.699,2.533-11.959h-1.078
		c-0.753,3.752-1.597,7.415-2.363,11.142l-3.713-11.142h-1.714"/>
	<path style="clip-path:url(#SVGID_18_);" d="M246.34,124.894l-0.169,0.74l-1.064,5.026h0.636c0.065,0,0.194,0.025,0.22-0.014
		c0.052-0.052,0.117-0.415,0.117-0.428c0.195-1,1.104-5.117,1.117-5.324H246.34 M246.729,123.05h0.87l0.182-0.87
		c-0.299,0-0.598-0.013-0.857,0.026C246.833,122.478,246.781,122.764,246.729,123.05z"/>
	<path style="clip-path:url(#SVGID_18_);" d="M245.483,136.45c-0.026,0.194-0.091,0.39-0.117,0.584
		c-0.273,1.182-0.728,3.363-0.909,4.285l-0.286,1.298c-0.051,0.222-0.065,0.454-0.208,0.624c-0.338,0.35-1.039,0.506-1.662,0.312
		c-0.169-0.064-0.312-0.156-0.481-0.234l-0.324,0.689c0.663,0.285,1.572,0.558,2.402,0.156c0.467-0.195,0.87-0.637,1.039-1.092
		c0.064-0.194,1.415-6.596,1.415-6.622H245.483 M246.054,133.737l-0.168,0.87h0.87l0.169-0.87H246.054z"/>
</g>
<g>
	<defs>
		<rect id="SVGID_19_" x="232.76" y="51.683" width="15.001" height="18.526"/>
	</defs>
	<clipPath id="SVGID_20_">
		<use xlink:href="#SVGID_19_"  style="overflow:visible;"/>
	</clipPath>
	<path style="clip-path:url(#SVGID_20_);" d="M235.086,55.067l-2.326,10.996c0.33,0,0.682,0.012,0.964-0.035l0.059-0.177
		l2.091-9.879h0.023c0.047,0.282,0.176,0.552,0.27,0.822c0.542,1.668,3.043,9.174,3.09,9.222c0.059,0.082,0.247,0.047,0.34,0.047
		h0.799c0.188,0,0.423,0.059,0.423-0.176c0.047-0.153,2.279-10.585,2.302-10.819h-0.986c-0.681,3.395-1.445,6.696-2.138,10.079
		l-3.36-10.079H235.086"/>
	<path style="clip-path:url(#SVGID_20_);" d="M245.648,54.314l-0.141,0.658l-0.964,4.559h0.576c0.059,0,0.164,0.023,0.199-0.024
		c0.047-0.035,0.094-0.376,0.094-0.388c0.176-0.894,0.999-4.617,1.021-4.805H245.648 M246,52.646h0.788l0.164-0.788
		c-0.258,0-0.54-0.011-0.775,0.024C246.106,52.129,246.06,52.388,246,52.646z"/>
	<path style="clip-path:url(#SVGID_20_);" d="M243.78,63.29v0.623c0.552,0,1.092-0.093,1.61-0.317v5.78h-1.54v0.611h3.866v-0.611
		h-1.54v-6.813c-0.058,0-0.141-0.012-0.188,0.012c-0.094,0.023-0.164,0.117-0.234,0.176C245.296,63.126,244.497,63.29,243.78,63.29"
		/>
</g>
<g>
</g>
<g>
</g>
<g>
</g>
<g>
</g>
<g>
</g>
<g>
</g>
<g>
</g>
</svg>
