<?xml version="1.0" encoding="utf-8"?>
<!-- Generator: Adobe Illustrator 16.0.0, SVG Export Plug-In . SVG Version: 6.00 Build 0)  -->
<!DOCTYPE svg PUBLIC "-//W3C//DTD SVG 1.1 Tiny//EN" "http://www.w3.org/Graphics/SVG/1.1/DTD/svg11-tiny.dtd">
<svg version="1.1" baseProfile="tiny" id="Layer_1" xmlns="http://www.w3.org/2000/svg" xmlns:xlink="http://www.w3.org/1999/xlink"
	 x="0px" y="0px" width="504.36px" height="200.609px" viewBox="0 0 504.36 200.609" xml:space="preserve">
<g>
	<line fill="none" stroke="#A6A8AB" stroke-miterlimit="10" x1="144.101" y1="30.288" x2="206.568" y2="66.29"/>
	<g>
		<polygon fill="#A6A8AB" points="201.655,68.179 201.43,67.203 206.235,66.099 204.782,61.387 205.739,61.093 207.507,66.832 		"/>
	</g>
</g>
<g>
	<line fill="none" stroke="#A6A8AB" stroke-miterlimit="10" x1="202.39" y1="77.712" x2="144.101" y2="77.712"/>
	<g>
		<polygon fill="#A6A8AB" points="199.075,73.622 198.394,74.354 202.005,77.711 198.394,81.068 199.075,81.801 203.474,77.711 		
			"/>
	</g>
</g>
<g>
	<line fill="none" stroke="#A6A8AB" stroke-miterlimit="10" x1="143.619" y1="122.884" x2="206.553" y2="89.106"/>
	<g>
		<polygon fill="#A6A8AB" points="205.566,94.277 204.619,93.954 206.215,89.289 201.444,88.039 201.699,87.071 207.508,88.595 		
			"/>
	</g>
</g>
<circle fill="none" stroke="#386DF9" stroke-miterlimit="10" cx="127.363" cy="26.383" r="16.737"/>
<circle fill="none" stroke="#386DF9" stroke-miterlimit="10" cx="127.363" cy="126.809" r="16.737"/>
<circle fill="none" stroke="#386DF9" stroke-miterlimit="10" cx="127.363" cy="77.712" r="16.737"/>
<g>
	<line fill="none" stroke="#A6A8AB" stroke-miterlimit="10" x1="450.922" y1="77.712" x2="403.707" y2="77.712"/>
	<g>
		<polygon fill="#A6A8AB" points="447.609,73.622 446.927,74.354 450.539,77.711 446.927,81.068 447.609,81.801 452.007,77.711 		
			"/>
	</g>
</g>
<g>
	<path d="M124.48,23.738c0.125-0.544,0.608-2.478,2.074-2.478c0.108,0,0.609,0,1.06,0.264c-0.592,0.11-1.012,0.642-1.012,1.139
		c0,0.342,0.233,0.732,0.795,0.732c0.467,0,1.137-0.374,1.137-1.215c0-1.092-1.247-1.389-1.949-1.389
		c-1.232,0-1.964,1.124-2.213,1.607c-0.53-1.387-1.667-1.607-2.276-1.607c-2.182,0-3.383,2.714-3.383,3.244
		c0,0.203,0.22,0.203,0.25,0.203c0.172,0,0.233-0.033,0.281-0.234c0.716-2.214,2.104-2.743,2.82-2.743
		c0.39,0,1.125,0.186,1.125,1.403c0,0.654-0.359,2.058-1.125,5.002c-0.342,1.311-1.075,2.184-2.009,2.184
		c-0.126,0-0.61,0-1.047-0.265c0.53-0.109,0.982-0.545,0.982-1.138c0-0.56-0.452-0.732-0.779-0.732
		c-0.623,0-1.152,0.545-1.152,1.215c0,0.967,1.059,1.388,1.978,1.388c1.388,0,2.152-1.466,2.214-1.589
		c0.249,0.764,0.998,1.589,2.26,1.589c2.168,0,3.367-2.712,3.367-3.242c0-0.203-0.186-0.203-0.249-0.203
		c-0.188,0-0.233,0.078-0.279,0.234c-0.688,2.246-2.121,2.744-2.793,2.744c-0.825,0-1.154-0.67-1.154-1.388
		c0-0.451,0.126-0.918,0.36-1.839L124.48,23.738"/>
	<path d="M134.365,23.863c0-0.405-0.017-0.42-0.439-0.42c-0.934,0.936-2.273,0.951-2.866,0.951v0.514c0.342,0,1.31,0,2.119-0.405
		v7.483c0,0.484,0,0.669-1.466,0.669h-0.56v0.53c0.266-0.015,2.072-0.046,2.618-0.046c0.451,0,2.306,0.032,2.619,0.046v-0.53h-0.561
		c-1.465,0-1.465-0.186-1.465-0.669V23.863"/>
</g>
<g>
	<path d="M124.073,74.576c0.126-0.546,0.608-2.495,2.074-2.495c0.11,0,0.608,0,1.059,0.28c-0.591,0.108-1.012,0.624-1.012,1.139
		c0,0.326,0.233,0.731,0.795,0.731c0.467,0,1.137-0.374,1.137-1.214c0-1.093-1.245-1.389-1.948-1.389
		c-1.232,0-1.963,1.107-2.212,1.59c-0.531-1.388-1.67-1.59-2.278-1.59c-2.181,0-3.381,2.713-3.381,3.243
		c0,0.203,0.219,0.203,0.249,0.203c0.172,0,0.233-0.048,0.281-0.235c0.716-2.229,2.105-2.758,2.82-2.758
		c0.391,0,1.125,0.203,1.125,1.419c0,0.653-0.359,2.057-1.125,5.002c-0.342,1.295-1.075,2.183-2.009,2.183
		c-0.125,0-0.609,0-1.046-0.264c0.531-0.111,0.983-0.562,0.983-1.139c0-0.578-0.452-0.733-0.78-0.733
		c-0.623,0-1.152,0.546-1.152,1.217c0,0.967,1.059,1.387,1.979,1.387c1.386,0,2.151-1.482,2.214-1.606
		c0.249,0.78,0.997,1.606,2.259,1.606c2.168,0,3.366-2.713,3.366-3.243c0-0.204-0.186-0.204-0.249-0.204
		c-0.186,0-0.232,0.079-0.277,0.217c-0.688,2.262-2.121,2.761-2.794,2.761c-0.824,0-1.152-0.67-1.152-1.386
		c0-0.469,0.123-0.921,0.359-1.856L124.073,74.576"/>
	<path d="M136.452,81.402h-0.499c-0.03,0.328-0.188,1.199-0.374,1.341c-0.125,0.093-1.248,0.093-1.449,0.093h-2.698
		c1.528-1.372,2.042-1.777,2.931-2.463c1.075-0.873,2.09-1.776,2.09-3.18c0-1.777-1.545-2.852-3.432-2.852
		c-1.822,0-3.055,1.277-3.055,2.618c0,0.748,0.64,0.826,0.78,0.826c0.357,0,0.78-0.25,0.78-0.778c0-0.266-0.095-0.78-0.857-0.78
		c0.45-1.045,1.448-1.356,2.135-1.356c1.466,0,2.23,1.138,2.23,2.322c0,1.279-0.904,2.291-1.373,2.822l-3.54,3.493
		c-0.155,0.14-0.155,0.155-0.155,0.576h6.051L136.452,81.402"/>
</g>
<g>
	<rect x="22.161" y="69.681" fill="none" width="50.649" height="24.73"/>
	<path fill="#221F1F" d="M28.347,70.257v9.824h-1.264v-9.824H28.347z"/>
	<path fill="#221F1F" d="M32.186,80.081v-7.104h1.2v0.896c0.224-0.299,0.52-0.547,0.888-0.744c0.368-0.197,0.771-0.296,1.208-0.296
		c0.789,0,1.402,0.234,1.84,0.704c0.437,0.47,0.656,1.099,0.656,1.888v4.656h-1.216v-4.464c0-0.512-0.131-0.92-0.392-1.225
		c-0.261-0.304-0.653-0.455-1.176-0.455c-0.416,0-0.79,0.125-1.12,0.376c-0.331,0.25-0.56,0.567-0.688,0.951v4.816H32.186z"/>
	<path fill="#221F1F" d="M42.811,79.249v3.552h-1.2v-9.823h1.2v0.831c0.203-0.276,0.482-0.509,0.84-0.695s0.744-0.28,1.16-0.28
		c1.002,0,1.787,0.354,2.352,1.064c0.565,0.709,0.848,1.586,0.848,2.632c0,1.045-0.282,1.923-0.848,2.632s-1.35,1.063-2.352,1.063
		c-0.416,0-0.803-0.093-1.16-0.279S43.013,79.526,42.811,79.249z M42.811,75.089v2.88c0.181,0.363,0.435,0.648,0.76,0.856
		c0.325,0.208,0.68,0.312,1.064,0.312c0.661,0,1.186-0.242,1.576-0.728s0.584-1.112,0.584-1.88c0-0.769-0.194-1.395-0.584-1.88
		s-0.915-0.729-1.576-0.729c-0.384,0-0.739,0.104-1.064,0.312C43.245,74.441,42.992,74.727,42.811,75.089z"/>
	<path fill="#221F1F" d="M56.907,72.978v7.104H55.69v-0.896c-0.213,0.299-0.501,0.547-0.863,0.744
		c-0.363,0.197-0.763,0.296-1.2,0.296c-0.79,0-1.4-0.234-1.832-0.703c-0.432-0.47-0.648-1.099-0.648-1.889v-4.655h1.217v4.464
		c0,0.522,0.128,0.934,0.384,1.231c0.256,0.299,0.646,0.448,1.168,0.448c0.405,0,0.771-0.122,1.096-0.368
		c0.325-0.245,0.552-0.565,0.68-0.96v-4.815H56.907z"/>
	<path fill="#221F1F" d="M60.971,78.289v-4.288h-1.152v-1.023h1.152v-1.872h1.2v1.872h1.712v1.023h-1.712v4.16
		c0,0.661,0.314,0.992,0.943,0.992c0.331,0,0.641-0.097,0.929-0.288v1.12c-0.299,0.16-0.673,0.239-1.12,0.239
		c-0.598,0-1.072-0.162-1.425-0.487C61.147,79.412,60.971,78.929,60.971,78.289z"/>
	<path fill="#221F1F" d="M66.667,78.129h1.247c0.225,0.726,0.784,1.088,1.681,1.088c0.438,0,0.789-0.088,1.056-0.264
		s0.4-0.44,0.4-0.792c0-0.48-0.353-0.811-1.057-0.992l-1.407-0.368c-1.142-0.288-1.712-0.912-1.712-1.872
		c0-0.618,0.239-1.122,0.72-1.512c0.479-0.39,1.088-0.584,1.824-0.584c0.768,0,1.386,0.176,1.855,0.528
		c0.47,0.352,0.769,0.848,0.896,1.487h-1.2c-0.214-0.672-0.736-1.008-1.568-1.008c-0.373,0-0.693,0.088-0.96,0.265
		c-0.267,0.176-0.399,0.429-0.399,0.76c0,0.234,0.077,0.419,0.231,0.552c0.154,0.134,0.408,0.248,0.76,0.344l1.376,0.336
		c1.206,0.32,1.809,0.981,1.809,1.984c0,0.661-0.246,1.184-0.736,1.568c-0.49,0.384-1.125,0.575-1.904,0.575
		c-0.778,0-1.432-0.187-1.96-0.56C67.09,79.292,66.773,78.78,66.667,78.129z"/>
</g>
<g>
	<polyline fill="none" stroke="#000000" stroke-width="0.75" stroke-miterlimit="10" points="101.667,25.027 86.333,25.027 
		86.333,129.428 101.667,129.428 	"/>
	<line fill="none" stroke="#000000" stroke-width="0.75" stroke-miterlimit="10" x1="86.333" y1="76.257" x2="76.5" y2="76.257"/>
</g>
<circle fill="none" stroke="#386DF9" stroke-miterlimit="10" cx="127.363" cy="26.383" r="16.737"/>
<g>
	<path d="M202.268,50.67c0.083-0.357,0.237-0.952,0.237-1.046c0-0.285-0.226-0.429-0.464-0.429c-0.189,0-0.486,0.119-0.595,0.44
		c-0.047,0.119-0.797,3.175-0.915,3.603c-0.106,0.476-0.143,0.761-0.143,1.058c0,0.167,0,0.202,0.013,0.285
		c-0.369,0.845-0.846,1.344-1.475,1.344c-1.285,0-1.285-1.189-1.285-1.463c0-0.511,0.083-1.129,0.844-3.104
		c0.167-0.487,0.262-0.713,0.262-1.034c0-0.713-0.522-1.309-1.307-1.309c-1.522,0-2.117,2.319-2.117,2.462
		c0,0.167,0.154,0.167,0.189,0.167c0.155,0,0.179-0.036,0.262-0.286c0.428-1.498,1.059-1.997,1.617-1.997
		c0.144,0,0.405,0.023,0.405,0.534c0,0.404-0.179,0.845-0.298,1.118c-0.701,1.902-0.893,2.64-0.893,3.246
		c0,1.463,1.07,2.021,2.272,2.021c0.272,0,1.034,0,1.676-1.129c0.416,1.034,1.522,1.129,1.998,1.129c1.2,0,1.914-1.01,2.33-1.973
		c0.548-1.249,1.059-3.401,1.059-4.174c0-0.88-0.44-1.118-0.714-1.118c-0.392,0-0.797,0.416-0.797,0.773
		c0,0.202,0.095,0.297,0.238,0.428c0.178,0.179,0.583,0.595,0.583,1.368c0,0.534-0.464,2.116-0.88,2.925
		c-0.416,0.855-0.986,1.415-1.771,1.415c-0.749,0-1.189-0.476-1.189-1.392c0-0.452,0.119-0.951,0.179-1.177L202.268,50.67"/>
	<path d="M210.08,51.348c0-0.297-0.023-0.309-0.334-0.309c-0.714,0.701-1.735,0.713-2.199,0.713v0.404c0.274,0,1.012,0,1.629-0.309
		v5.708c0,0.368,0,0.511-1.118,0.511h-0.428v0.404c0.202-0.012,1.581-0.047,1.997-0.047c0.346,0,1.749,0.036,1.997,0.047v-0.404
		h-0.428c-1.116,0-1.116-0.143-1.116-0.511V51.348"/>
</g>
<g>
	<path d="M185.48,67.712c0.083-0.345,0.237-0.939,0.237-1.035c0-0.297-0.226-0.44-0.464-0.44c-0.189,0-0.486,0.131-0.595,0.452
		c-0.047,0.119-0.797,3.175-0.915,3.59c-0.106,0.488-0.143,0.773-0.143,1.059c0,0.178,0,0.214,0.013,0.286
		c-0.369,0.855-0.846,1.355-1.475,1.355c-1.285,0-1.285-1.189-1.285-1.463c0-0.511,0.083-1.142,0.844-3.115
		c0.167-0.476,0.262-0.702,0.262-1.023c0-0.726-0.522-1.308-1.307-1.308c-1.522,0-2.117,2.319-2.117,2.461
		c0,0.167,0.154,0.167,0.189,0.167c0.155,0,0.179-0.036,0.262-0.297c0.428-1.487,1.059-1.986,1.617-1.986
		c0.144,0,0.405,0.012,0.405,0.535c0,0.393-0.179,0.844-0.298,1.117c-0.701,1.891-0.893,2.628-0.893,3.247
		c0,1.451,1.07,2.021,2.272,2.021c0.272,0,1.034,0,1.676-1.129c0.416,1.022,1.522,1.129,1.998,1.129c1.2,0,1.914-1.01,2.33-1.974
		c0.548-1.26,1.059-3.4,1.059-4.173c0-0.88-0.44-1.118-0.714-1.118c-0.392,0-0.797,0.416-0.797,0.761c0,0.215,0.095,0.31,0.238,0.44
		c0.178,0.166,0.583,0.595,0.583,1.355c0,0.546-0.464,2.116-0.88,2.937c-0.416,0.856-0.986,1.415-1.771,1.415
		c-0.749,0-1.189-0.487-1.189-1.404c0-0.439,0.119-0.939,0.179-1.165L185.48,67.712"/>
	<path d="M195.194,73.527h-0.38c-0.036,0.25-0.143,0.904-0.285,1.023c-0.095,0.071-0.952,0.071-1.106,0.071h-2.069
		c1.179-1.046,1.569-1.355,2.248-1.89c0.819-0.654,1.593-1.355,1.593-2.414c0-1.356-1.189-2.188-2.615-2.188
		c-1.392,0-2.33,0.975-2.33,2.01c0,0.571,0.487,0.63,0.594,0.63c0.274,0,0.594-0.19,0.594-0.594c0-0.202-0.083-0.595-0.665-0.595
		c0.357-0.797,1.118-1.046,1.641-1.046c1.118,0,1.701,0.88,1.701,1.784c0,0.975-0.69,1.748-1.059,2.152l-2.687,2.664
		c-0.119,0.095-0.119,0.119-0.119,0.428h4.613L195.194,73.527"/>
</g>
<g>
	<path fill="none" d="M177.459,161.355c-0.584,0-1.603,0.35-2.705,1.803c-0.201,0.25-0.201,0.301-0.334,0.802l-0.501,2.071
		c-0.351,1.42-0.351,1.836-0.351,2.271c0,1.67,0.734,2.271,1.503,2.271c0.885,0,1.921-0.802,2.655-2.322
		c0.4-0.852,1.152-3.439,1.152-4.776C178.879,162.039,178.261,161.355,177.459,161.355z"/>
	<path d="M177.51,160.87c-1.053,0-1.971,0.651-2.64,1.353l1.654-6.781h0.016c0-0.032,0-0.25-0.3-0.25
		c-0.519,0-2.155,0.184-2.756,0.218c-0.167,0.032-0.417,0.05-0.417,0.45c0,0.284,0.199,0.284,0.534,0.284
		c1.085,0,1.136,0.15,1.136,0.367c0,0.167-0.2,0.936-0.317,1.403l-1.854,7.349c-0.268,1.119-0.352,1.487-0.352,2.271
		c0,2.138,1.186,3.541,2.856,3.541c2.655,0,5.428-3.357,5.428-6.598C180.499,162.424,179.297,160.87,177.51,160.87z
		 M177.727,168.252c-0.734,1.521-1.771,2.322-2.655,2.322c-0.769,0-1.503-0.602-1.503-2.271c0-0.436,0-0.852,0.351-2.271
		l0.501-2.071c0.133-0.501,0.133-0.552,0.334-0.802c1.103-1.453,2.121-1.803,2.705-1.803c0.802,0,1.42,0.684,1.42,2.12
		C178.879,164.812,178.127,167.4,177.727,168.252z"/>
</g>
<g>
	<rect x="197.723" y="167.547" fill="none" width="50.648" height="24.73"/>
	<path fill="#221F1F" d="M203.93,172.86c0.522,0.139,0.949,0.422,1.28,0.848c0.331,0.427,0.496,0.918,0.496,1.473
		c0,0.885-0.288,1.567-0.864,2.048c-0.576,0.479-1.376,0.72-2.4,0.72h-3.552v-9.824h3.232c1.024,0,1.821,0.225,2.392,0.672
		c0.57,0.448,0.856,1.094,0.856,1.937c0,0.555-0.136,1.016-0.408,1.384C204.69,172.484,204.346,172.732,203.93,172.86z
		 M200.122,172.396h2c1.354,0,2.032-0.533,2.032-1.601c0-1.045-0.678-1.567-2.032-1.567h-2V172.396z M200.122,173.452v3.393h2.32
		c0.65,0,1.152-0.152,1.504-0.456c0.352-0.305,0.528-0.718,0.528-1.24c0-0.533-0.176-0.949-0.528-1.248s-0.854-0.448-1.504-0.448
		H200.122z"/>
	<path fill="#221F1F" d="M210.146,168.156c0.155,0.149,0.232,0.331,0.232,0.544c0,0.214-0.078,0.395-0.232,0.544
		s-0.338,0.224-0.552,0.224s-0.395-0.074-0.544-0.224c-0.149-0.149-0.224-0.33-0.224-0.544c0-0.213,0.075-0.395,0.224-0.544
		c0.149-0.149,0.331-0.224,0.544-0.224S209.991,168.007,210.146,168.156z M210.202,170.845v7.104h-1.2v-7.104H210.202z"/>
	<path fill="#221F1F" d="M219.099,177.948h-1.152v-0.528c-0.149,0.16-0.4,0.31-0.752,0.448s-0.725,0.208-1.12,0.208
		c-0.747,0-1.374-0.208-1.88-0.624c-0.506-0.416-0.76-0.965-0.76-1.647c0-0.651,0.261-1.185,0.784-1.601
		c0.522-0.416,1.168-0.624,1.936-0.624c0.352,0,0.699,0.059,1.04,0.176c0.341,0.118,0.592,0.251,0.752,0.4v-0.896
		c0-0.458-0.136-0.826-0.408-1.104s-0.659-0.416-1.16-0.416c-0.747,0-1.232,0.325-1.456,0.976h-1.184
		c0.118-0.597,0.419-1.082,0.904-1.456c0.485-0.373,1.069-0.56,1.752-0.56c0.842,0,1.504,0.224,1.984,0.672s0.72,1.062,0.72,1.84
		V177.948z M217.946,176.188v-0.736c-0.106-0.256-0.317-0.467-0.632-0.632s-0.659-0.248-1.032-0.248c-0.47,0-0.87,0.106-1.2,0.32
		c-0.331,0.213-0.496,0.518-0.496,0.912c0,0.405,0.166,0.717,0.496,0.936s0.73,0.328,1.2,0.328c0.373,0,0.717-0.083,1.032-0.248
		S217.84,176.444,217.946,176.188z"/>
	<path fill="#221F1F" d="M222.155,175.996h1.247c0.225,0.726,0.784,1.088,1.681,1.088c0.438,0,0.789-0.088,1.056-0.264
		s0.4-0.44,0.4-0.792c0-0.48-0.353-0.811-1.057-0.992l-1.407-0.368c-1.142-0.288-1.712-0.912-1.712-1.872
		c0-0.618,0.239-1.122,0.72-1.512c0.479-0.39,1.088-0.584,1.824-0.584c0.768,0,1.386,0.176,1.855,0.528
		c0.47,0.352,0.769,0.848,0.896,1.487h-1.2c-0.214-0.672-0.736-1.008-1.568-1.008c-0.373,0-0.693,0.088-0.96,0.265
		c-0.267,0.176-0.399,0.429-0.399,0.76c0,0.234,0.077,0.419,0.231,0.552c0.154,0.134,0.408,0.248,0.76,0.344l1.376,0.336
		c1.206,0.32,1.809,0.981,1.809,1.984c0,0.661-0.246,1.184-0.736,1.568c-0.49,0.384-1.125,0.575-1.904,0.575
		c-0.778,0-1.432-0.187-1.96-0.56C222.579,177.159,222.261,176.647,222.155,175.996z"/>
</g>
<g>
	<line fill="none" stroke="#A6A8AB" stroke-miterlimit="10" x1="180.746" y1="147.259" x2="208.532" y2="100.6"/>
	<g>
		<polygon fill="#A6A8AB" points="210.351,105.539 209.372,105.751 208.337,100.931 203.604,102.316 203.323,101.355 
			209.088,99.669 		"/>
	</g>
</g>
<circle fill="none" stroke="#386DF9" stroke-miterlimit="10" cx="175.563" cy="163.176" r="16.737"/>
<g>
	<path d="M369.146,79.337c-0.079,0.284-0.079,0.309-0.309,0.571c-0.675,0.858-1.304,1.098-1.739,1.098
		c-0.776,0-0.982-0.845-0.982-1.452c0-0.766,0.491-2.664,0.846-3.374c0.48-0.916,1.168-1.486,1.785-1.486
		c1.005,0,1.223,1.269,1.223,1.359c0,0.093-0.035,0.183-0.046,0.264L369.146,79.337 M370.154,75.345
		c-0.275-0.572-0.722-0.984-1.419-0.984c-1.808,0-3.717,2.265-3.717,4.517c0,1.454,0.846,2.471,2.047,2.471
		c0.309,0,1.086-0.068,2.002-1.155c0.124,0.64,0.674,1.155,1.407,1.155c0.549,0,0.892-0.354,1.142-0.846
		c0.264-0.561,0.472-1.499,0.472-1.533c0-0.148-0.151-0.148-0.196-0.148c-0.149,0-0.159,0.056-0.217,0.275
		c-0.253,1.005-0.538,1.909-1.167,1.909c-0.411,0-0.458-0.399-0.458-0.708c0-0.342,0.022-0.457,0.196-1.143
		c0.17-0.641,0.205-0.801,0.343-1.386l0.548-2.162c0.114-0.435,0.114-0.457,0.114-0.525c0-0.262-0.183-0.413-0.446-0.413
		C370.429,74.669,370.199,75.012,370.154,75.345z"/>
	<path d="M377.667,84.884c0-0.047,0-0.081-0.262-0.344c-1.934-1.944-2.425-4.86-2.425-7.218c0-2.688,0.583-5.375,2.48-7.297
		c0.206-0.183,0.206-0.216,0.206-0.262c0-0.115-0.067-0.16-0.159-0.16c-0.147,0-1.545,1.051-2.448,3.007
		c-0.79,1.705-0.973,3.409-0.973,4.712c0,1.201,0.174,3.065,1.02,4.817c0.926,1.887,2.254,2.892,2.401,2.892
		C377.6,85.031,377.667,84.986,377.667,84.884"/>
	<path d="M383.686,76.522c0.091-0.399,0.444-1.829,1.52-1.829c0.08,0,0.458,0,0.778,0.205c-0.435,0.079-0.743,0.458-0.743,0.834
		c0,0.241,0.171,0.539,0.582,0.539c0.344,0,0.837-0.275,0.837-0.893c0-0.8-0.904-1.019-1.432-1.019c-0.904,0-1.44,0.812-1.624,1.167
		c-0.388-1.019-1.212-1.167-1.67-1.167c-1.601,0-2.481,1.99-2.481,2.38c0,0.149,0.16,0.149,0.183,0.149
		c0.127,0,0.172-0.036,0.207-0.172c0.525-1.636,1.545-2.024,2.069-2.024c0.287,0,0.834,0.148,0.834,1.04
		c0,0.48-0.262,1.51-0.834,3.672c-0.252,0.949-0.789,1.601-1.465,1.601c-0.091,0-0.444,0-0.777-0.194
		c0.39-0.08,0.731-0.401,0.731-0.834c0-0.424-0.342-0.539-0.571-0.539c-0.47,0-0.846,0.401-0.846,0.893
		c0,0.71,0.767,1.018,1.44,1.018c1.019,0,1.578-1.085,1.625-1.177c0.183,0.572,0.742,1.177,1.67,1.177
		c1.578,0,2.459-1.989,2.459-2.379c0-0.148-0.138-0.148-0.183-0.148c-0.139,0-0.173,0.056-0.195,0.16
		c-0.515,1.659-1.567,2.024-2.059,2.024c-0.595,0-0.847-0.491-0.847-1.017c0-0.343,0.092-0.676,0.263-1.361L383.686,76.522"/>
	<path d="M391.794,77.322c0-1.2-0.171-3.075-1.02-4.813c-0.926-1.9-2.252-2.905-2.4-2.905c-0.092,0-0.16,0.068-0.16,0.16
		c0,0.045,0,0.079,0.298,0.354c1.508,1.521,2.389,3.98,2.389,7.205c0,2.632-0.572,5.354-2.48,7.299
		c-0.206,0.183-0.206,0.216-0.206,0.263c0,0.091,0.068,0.147,0.16,0.147c0.148,0,1.544-1.051,2.447-3.007
		C391.611,80.331,391.794,78.616,391.794,77.322"/>
</g>
<g>
	<path d="M124.064,123.112c0.126-0.55,0.614-2.501,2.108-2.501c0.111,0,0.614,0,1.055,0.283c-0.598,0.094-1.007,0.63-1.007,1.133
		c0,0.347,0.22,0.756,0.803,0.756c0.456,0,1.148-0.395,1.148-1.244c0-1.102-1.258-1.399-1.982-1.399
		c-1.227,0-1.966,1.132-2.218,1.62c-0.536-1.399-1.684-1.62-2.297-1.62c-2.203,0-3.414,2.737-3.414,3.271
		c0,0.221,0.204,0.221,0.251,0.221c0.173,0,0.236-0.046,0.267-0.234c0.725-2.25,2.124-2.785,2.848-2.785
		c0.41,0,1.148,0.188,1.148,1.416c0,0.661-0.361,2.092-1.148,5.05c-0.33,1.321-1.085,2.218-2.014,2.218
		c-0.125,0-0.613,0-1.054-0.283c0.52-0.109,0.991-0.55,0.991-1.148c0-0.565-0.472-0.738-0.786-0.738
		c-0.629,0-1.165,0.55-1.165,1.227c0,0.976,1.055,1.4,1.998,1.4c1.401,0,2.155-1.479,2.219-1.605
		c0.267,0.787,1.022,1.605,2.296,1.605c2.187,0,3.398-2.736,3.398-3.257c0-0.22-0.188-0.22-0.251-0.22
		c-0.189,0-0.236,0.094-0.283,0.235c-0.692,2.266-2.14,2.784-2.816,2.784c-0.833,0-1.164-0.677-1.164-1.399
		c0-0.472,0.125-0.944,0.362-1.872L124.064,123.112"/>
	<path d="M130.907,131.781c-0.063,0.188-0.157,0.566-0.157,0.613c0,0.315,0.267,0.472,0.504,0.472c0.268,0,0.503-0.204,0.582-0.33
		c0.078-0.142,0.188-0.613,0.268-0.913c0.062-0.282,0.235-0.975,0.329-1.337c0.08-0.33,0.174-0.645,0.253-0.991
		c0.157-0.612,0.188-0.724,0.613-1.336c0.408-0.598,1.116-1.354,2.219-1.354c0.865,0,0.881,0.756,0.881,1.022
		c0,0.896-0.645,2.532-0.881,3.162c-0.159,0.409-0.221,0.551-0.221,0.803c0,0.786,0.66,1.273,1.416,1.273
		c1.479,0,2.123-2.044,2.123-2.265c0-0.189-0.188-0.189-0.236-0.189c-0.203,0-0.221,0.08-0.282,0.236
		c-0.347,1.195-0.976,1.793-1.572,1.793c-0.301,0-0.362-0.204-0.362-0.519c0-0.33,0.062-0.521,0.33-1.196
		c0.188-0.455,0.786-2.029,0.786-2.848c0-1.447-1.134-1.698-1.92-1.698c-1.226,0-2.06,0.755-2.501,1.353
		c-0.109-1.022-0.975-1.353-1.59-1.353c-0.628,0-0.974,0.456-1.164,0.802c-0.33,0.551-0.533,1.385-0.533,1.463
		c0,0.189,0.203,0.189,0.251,0.189c0.204,0,0.221-0.031,0.33-0.44c0.221-0.866,0.504-1.589,1.07-1.589
		c0.394,0,0.487,0.314,0.487,0.723c0,0.284-0.125,0.818-0.236,1.229c-0.094,0.393-0.251,1.006-0.314,1.32l-0.487,1.904"/>
</g>
<path d="M180.961,87.093c0.07-0.355,0.236-0.946,0.236-1.041c0-0.283-0.224-0.425-0.46-0.425c-0.19,0-0.485,0.119-0.593,0.437
	c-0.047,0.118-0.804,3.168-0.909,3.582c-0.106,0.474-0.142,0.757-0.142,1.053c0,0.166,0,0.201,0.012,0.283
	c-0.367,0.84-0.839,1.335-1.467,1.335c-1.275,0-1.275-1.182-1.275-1.453c0-0.509,0.082-1.123,0.827-3.086
	c0.178-0.484,0.272-0.709,0.272-1.028c0-0.709-0.521-1.3-1.301-1.3c-1.514,0-2.104,2.305-2.104,2.458
	c0,0.154,0.154,0.154,0.189,0.154c0.153,0,0.177-0.035,0.248-0.284c0.438-1.489,1.052-1.986,1.62-1.986
	c0.142,0,0.39,0.024,0.39,0.532c0,0.402-0.165,0.851-0.284,1.111c-0.697,1.892-0.886,2.625-0.886,3.227
	c0,1.454,1.063,2.009,2.257,2.009c0.272,0,1.017,0,1.656-1.123c0.413,1.029,1.524,1.123,1.996,1.123
	c1.195,0,1.892-1.004,2.318-1.961c0.531-1.241,1.051-3.381,1.051-4.149c0-0.875-0.437-1.111-0.708-1.111
	c-0.392,0-0.793,0.414-0.793,0.769c0,0.201,0.095,0.295,0.236,0.425c0.178,0.178,0.579,0.591,0.579,1.36
	c0,0.544-0.473,2.104-0.886,2.907c-0.414,0.852-0.97,1.406-1.749,1.406c-0.746,0-1.183-0.473-1.183-1.383
	c0-0.448,0.117-0.945,0.177-1.169L180.961,87.093"/>
<path d="M186.363,94.187c-0.047,0.153-0.118,0.425-0.118,0.46c0,0.249,0.2,0.355,0.378,0.355c0.201,0,0.379-0.142,0.438-0.236
	c0.06-0.106,0.143-0.461,0.201-0.698c0.047-0.212,0.178-0.721,0.248-1.005c0.06-0.236,0.13-0.484,0.189-0.745
	c0.119-0.448,0.142-0.542,0.461-0.993c0.307-0.449,0.84-1.028,1.667-1.028c0.649,0,0.662,0.568,0.662,0.781
	c0,0.662-0.484,1.903-0.662,2.375c-0.118,0.308-0.165,0.403-0.165,0.591c0,0.592,0.495,0.958,1.062,0.958
	c1.112,0,1.597-1.537,1.597-1.703c0-0.141-0.143-0.141-0.178-0.141c-0.153,0-0.165,0.07-0.212,0.189
	c-0.261,0.886-0.733,1.348-1.183,1.348c-0.226,0-0.272-0.154-0.272-0.391c0-0.26,0.047-0.401,0.248-0.898
	c0.143-0.343,0.592-1.525,0.592-2.151c0-1.076-0.851-1.265-1.442-1.265c-0.922,0-1.548,0.567-1.88,1.005
	c-0.082-0.769-0.732-1.005-1.193-1.005c-0.474,0-0.733,0.343-0.876,0.603c-0.247,0.402-0.401,1.041-0.401,1.1
	c0,0.142,0.154,0.142,0.19,0.142c0.152,0,0.165-0.035,0.247-0.331c0.165-0.662,0.379-1.206,0.804-1.206
	c0.296,0,0.366,0.249,0.366,0.544c0,0.212-0.094,0.626-0.177,0.922c-0.07,0.307-0.189,0.757-0.236,1.005l-0.366,1.419"/>
<rect x="340.676" y="62.458" fill="none" stroke="#F74848" stroke-miterlimit="10" width="56.255" height="28.71"/>
<path fill="none" stroke="#F74848" stroke-miterlimit="10" d="M345.936,91.169c-6.243,31.163-33.753,54.63-66.763,54.63
	c-37.612,0-68.086-30.474-68.086-68.087s30.474-68.087,68.086-68.087c32.369,0,59.448,22.563,66.374,52.823"/>
<g>
	<line fill="none" stroke="#A6A8AB" stroke-miterlimit="10" x1="358.316" y1="77.712" x2="331.751" y2="77.712"/>
	<g>
		<polygon fill="#A6A8AB" points="355.004,73.622 354.321,74.354 357.934,77.711 354.321,81.068 355.004,81.801 359.401,77.711 		
			"/>
	</g>
</g>
<g>
	<rect x="354.542" y="96.374" fill="none" width="127.979" height="38.14"/>
	<path fill="#221F1F" d="M358.718,96.948h1.184l3.841,9.824h-1.28l-1.136-2.96h-4.048l-1.12,2.96h-1.28L358.718,96.948z
		 M359.294,98.517l-1.6,4.191h3.199L359.294,98.517z"/>
	<path fill="#221F1F" d="M367.022,105.893c-0.598-0.683-0.896-1.573-0.896-2.672s0.299-1.989,0.896-2.672
		c0.597-0.683,1.375-1.024,2.336-1.024c0.777,0,1.416,0.208,1.912,0.624s0.808,0.971,0.936,1.664h-1.232
		c-0.086-0.384-0.27-0.686-0.552-0.904c-0.282-0.218-0.638-0.328-1.063-0.328c-0.608,0-1.097,0.246-1.465,0.736
		c-0.367,0.491-0.552,1.126-0.552,1.904s0.185,1.413,0.552,1.903c0.368,0.491,0.856,0.736,1.465,0.736
		c0.426,0,0.781-0.109,1.063-0.328s0.466-0.52,0.552-0.903h1.232c-0.128,0.693-0.439,1.247-0.936,1.663s-1.135,0.624-1.912,0.624
		C368.397,106.916,367.619,106.575,367.022,105.893z"/>
	<path fill="#221F1F" d="M375.758,104.98v-4.288h-1.152v-1.023h1.152v-1.872h1.2v1.872h1.713v1.023h-1.713v4.16
		c0,0.661,0.314,0.992,0.943,0.992c0.33,0,0.641-0.097,0.93-0.288v1.12c-0.299,0.16-0.674,0.239-1.121,0.239
		c-0.598,0-1.072-0.162-1.424-0.487C375.934,106.104,375.758,105.62,375.758,104.98z"/>
	<path fill="#221F1F" d="M383.237,96.98c0.154,0.149,0.232,0.331,0.232,0.544c0,0.214-0.078,0.395-0.232,0.544
		s-0.34,0.224-0.553,0.224s-0.395-0.074-0.543-0.224c-0.15-0.149-0.225-0.33-0.225-0.544c0-0.213,0.074-0.395,0.225-0.544
		c0.148-0.149,0.33-0.224,0.543-0.224S383.083,96.831,383.237,96.98z M383.294,99.669v7.104h-1.201v-7.104H383.294z"/>
	<path fill="#221F1F" d="M390.188,106.772h-1.184l-2.752-7.104h1.297l2.08,5.584l2.062-5.584h1.266L390.188,106.772z"/>
	<path fill="#221F1F" d="M400.876,106.772h-1.15v-0.528c-0.15,0.16-0.4,0.31-0.752,0.448c-0.354,0.139-0.727,0.208-1.121,0.208
		c-0.746,0-1.373-0.208-1.879-0.624c-0.508-0.416-0.762-0.965-0.762-1.647c0-0.651,0.262-1.185,0.785-1.601
		c0.521-0.416,1.168-0.624,1.936-0.624c0.352,0,0.699,0.059,1.041,0.176c0.34,0.118,0.592,0.251,0.752,0.4v-0.896
		c0-0.458-0.137-0.826-0.408-1.104c-0.273-0.277-0.66-0.416-1.16-0.416c-0.748,0-1.232,0.325-1.457,0.976h-1.184
		c0.117-0.597,0.418-1.082,0.904-1.456c0.484-0.373,1.068-0.56,1.752-0.56c0.842,0,1.504,0.224,1.984,0.672s0.719,1.062,0.719,1.84
		V106.772z M399.726,105.013v-0.736c-0.107-0.256-0.318-0.467-0.633-0.632s-0.658-0.248-1.031-0.248
		c-0.471,0-0.871,0.106-1.201,0.32c-0.33,0.213-0.496,0.518-0.496,0.912c0,0.405,0.166,0.717,0.496,0.936s0.73,0.328,1.201,0.328
		c0.373,0,0.717-0.083,1.031-0.248S399.618,105.269,399.726,105.013z"/>
	<path fill="#221F1F" d="M404.813,104.98v-4.288h-1.152v-1.023h1.152v-1.872h1.199v1.872h1.713v1.023h-1.713v4.16
		c0,0.661,0.314,0.992,0.943,0.992c0.332,0,0.641-0.097,0.93-0.288v1.12c-0.299,0.16-0.674,0.239-1.121,0.239
		c-0.598,0-1.072-0.162-1.424-0.487S404.813,105.62,404.813,104.98z"/>
	<path fill="#221F1F" d="M412.292,96.98c0.154,0.149,0.232,0.331,0.232,0.544c0,0.214-0.078,0.395-0.232,0.544
		s-0.338,0.224-0.551,0.224c-0.215,0-0.395-0.074-0.545-0.224c-0.148-0.149-0.223-0.33-0.223-0.544c0-0.213,0.074-0.395,0.223-0.544
		c0.15-0.149,0.33-0.224,0.545-0.224C411.954,96.757,412.138,96.831,412.292,96.98z M412.349,99.669v7.104h-1.199v-7.104H412.349z"
		/>
	<path fill="#221F1F" d="M421.204,100.557c0.602,0.688,0.904,1.576,0.904,2.664s-0.303,1.976-0.904,2.664
		c-0.604,0.688-1.389,1.031-2.359,1.031s-1.758-0.344-2.361-1.031c-0.602-0.688-0.904-1.576-0.904-2.664s0.303-1.977,0.904-2.664
		c0.604-0.688,1.391-1.032,2.361-1.032S420.601,99.868,421.204,100.557z M420.341,105.133c0.367-0.485,0.551-1.123,0.551-1.912
		s-0.184-1.427-0.551-1.912c-0.369-0.485-0.867-0.729-1.496-0.729c-0.631,0-1.129,0.243-1.496,0.729
		c-0.369,0.485-0.553,1.123-0.553,1.912s0.184,1.427,0.553,1.912c0.367,0.485,0.865,0.728,1.496,0.728
		C419.474,105.86,419.972,105.618,420.341,105.133z"/>
	<path fill="#221F1F" d="M425.341,106.772v-7.104h1.201v0.896c0.223-0.299,0.52-0.547,0.887-0.744
		c0.369-0.197,0.771-0.296,1.209-0.296c0.789,0,1.402,0.234,1.84,0.704s0.656,1.099,0.656,1.888v4.656h-1.217v-4.464
		c0-0.512-0.131-0.92-0.393-1.225c-0.262-0.304-0.652-0.455-1.176-0.455c-0.416,0-0.789,0.125-1.119,0.376
		c-0.332,0.25-0.561,0.567-0.688,0.951v4.816H425.341z"/>
	<path fill="#221F1F" d="M356.974,121.772h-1.264v-9.824h6v1.12h-4.736v3.312h4.448v1.119h-4.448V121.772z"/>
	<path fill="#221F1F" d="M370.431,114.669v7.104h-1.217v-0.896c-0.213,0.299-0.501,0.547-0.863,0.744
		c-0.363,0.197-0.764,0.296-1.2,0.296c-0.79,0-1.399-0.234-1.832-0.703c-0.433-0.47-0.647-1.099-0.647-1.889v-4.655h1.215v4.464
		c0,0.522,0.129,0.934,0.385,1.231c0.256,0.299,0.645,0.448,1.168,0.448c0.405,0,0.771-0.122,1.096-0.368
		c0.325-0.245,0.553-0.565,0.68-0.96v-4.815H370.431z"/>
	<path fill="#221F1F" d="M374.158,121.772v-7.104h1.2v0.896c0.225-0.299,0.52-0.547,0.889-0.744c0.367-0.197,0.77-0.296,1.207-0.296
		c0.789,0,1.402,0.234,1.84,0.704s0.656,1.099,0.656,1.888v4.656h-1.215v-4.464c0-0.512-0.131-0.92-0.393-1.225
		c-0.262-0.304-0.654-0.455-1.176-0.455c-0.416,0-0.79,0.125-1.121,0.376c-0.33,0.25-0.56,0.567-0.688,0.951v4.816H374.158z"/>
	<path fill="#221F1F" d="M383.966,120.893c-0.598-0.683-0.896-1.573-0.896-2.672s0.299-1.989,0.896-2.672s1.375-1.024,2.336-1.024
		c0.777,0,1.416,0.208,1.912,0.624s0.807,0.971,0.936,1.664h-1.232c-0.086-0.384-0.27-0.686-0.551-0.904
		c-0.283-0.218-0.639-0.328-1.064-0.328c-0.609,0-1.096,0.246-1.465,0.736c-0.367,0.491-0.551,1.126-0.551,1.904
		s0.184,1.413,0.551,1.903c0.369,0.491,0.855,0.736,1.465,0.736c0.426,0,0.781-0.109,1.064-0.328
		c0.281-0.219,0.465-0.52,0.551-0.903h1.232c-0.129,0.693-0.439,1.247-0.936,1.663s-1.135,0.624-1.912,0.624
		C385.341,121.916,384.563,121.575,383.966,120.893z"/>
	<path fill="#221F1F" d="M392.702,119.98v-4.288h-1.152v-1.023h1.152v-1.872h1.199v1.872h1.713v1.023h-1.713v4.16
		c0,0.661,0.314,0.992,0.943,0.992c0.332,0,0.641-0.097,0.93-0.288v1.12c-0.299,0.16-0.674,0.239-1.121,0.239
		c-0.598,0-1.072-0.162-1.424-0.487S392.702,120.62,392.702,119.98z"/>
	<path fill="#221F1F" d="M400.181,111.98c0.154,0.149,0.232,0.331,0.232,0.544c0,0.214-0.078,0.395-0.232,0.544
		s-0.338,0.224-0.551,0.224c-0.215,0-0.395-0.074-0.545-0.224c-0.148-0.149-0.223-0.33-0.223-0.544c0-0.213,0.074-0.395,0.223-0.544
		c0.15-0.149,0.33-0.224,0.545-0.224C399.843,111.757,400.026,111.831,400.181,111.98z M400.237,114.669v7.104h-1.199v-7.104
		H400.237z"/>
	<path fill="#221F1F" d="M409.093,115.557c0.602,0.688,0.904,1.576,0.904,2.664s-0.303,1.976-0.904,2.664
		c-0.604,0.688-1.389,1.031-2.359,1.031s-1.758-0.344-2.361-1.031c-0.602-0.688-0.904-1.576-0.904-2.664s0.303-1.977,0.904-2.664
		c0.604-0.688,1.391-1.032,2.361-1.032S408.489,114.868,409.093,115.557z M408.229,120.133c0.367-0.485,0.551-1.123,0.551-1.912
		s-0.184-1.427-0.551-1.912c-0.369-0.485-0.867-0.729-1.496-0.729c-0.631,0-1.129,0.243-1.496,0.729
		c-0.369,0.485-0.553,1.123-0.553,1.912s0.184,1.427,0.553,1.912c0.367,0.485,0.865,0.728,1.496,0.728
		C407.362,120.86,407.86,120.618,408.229,120.133z"/>
	<path fill="#221F1F" d="M413.229,121.772v-7.104h1.201v0.896c0.223-0.299,0.52-0.547,0.887-0.744
		c0.369-0.197,0.771-0.296,1.209-0.296c0.789,0,1.402,0.234,1.84,0.704s0.656,1.099,0.656,1.888v4.656h-1.217v-4.464
		c0-0.512-0.131-0.92-0.393-1.225c-0.262-0.304-0.652-0.455-1.176-0.455c-0.416,0-0.789,0.125-1.119,0.376
		c-0.332,0.25-0.561,0.567-0.688,0.951v4.816H413.229z"/>
</g>
<g>
	<path fill="none" d="M325.37,75.548c-0.406,0-1.116,0.233-1.884,1.256c-0.141,0.175-0.141,0.209-0.233,0.546l-0.349,1.443
		c-0.245,0.989-0.245,1.292-0.245,1.594c0,1.152,0.513,1.582,1.047,1.582c0.617,0,1.339-0.57,1.851-1.616
		c0.291-0.594,0.803-2.396,0.803-3.327C326.359,76.025,325.94,75.548,325.37,75.548z"/>
	<path d="M222.172,80.911c0-0.419-0.337-0.546-0.569-0.546c-0.479,0-0.873,0.407-0.873,0.908c0,0.732,0.791,1.035,1.478,1.035
		c1.035,0,1.606-1.093,1.651-1.186c0.187,0.581,0.756,1.186,1.688,1.186c1.616,0,2.513-2.024,2.513-2.408
		c0-0.163-0.139-0.163-0.188-0.163c-0.139,0-0.173,0.069-0.196,0.174c-0.523,1.675-1.594,2.059-2.094,2.059
		c-0.604,0-0.86-0.5-0.86-1.035c0-0.35,0.092-0.699,0.267-1.384l0.535-2.152c0.094-0.407,0.453-1.85,1.547-1.85
		c0.082,0,0.454,0,0.792,0.21c-0.442,0.069-0.757,0.465-0.757,0.849c0,0.244,0.175,0.546,0.594,0.546
		c0.35,0,0.849-0.291,0.849-0.907c0-0.826-0.93-1.035-1.454-1.035c-0.918,0-1.466,0.826-1.652,1.187
		c-0.394-1.036-1.244-1.187-1.697-1.187c-1.63,0-2.525,2.024-2.525,2.408c0,0.163,0.164,0.163,0.187,0.163
		c0.129,0,0.174-0.034,0.209-0.174c0.536-1.664,1.571-2.059,2.106-2.059c0.29,0,0.837,0.14,0.837,1.059
		c0,0.477-0.267,1.535-0.837,3.733c-0.257,0.966-0.802,1.628-1.5,1.628c-0.094,0-0.455,0-0.78-0.208
		C221.835,81.678,222.172,81.353,222.172,80.911z"/>
	<path d="M235.004,80.05h9.398c0.209,0,0.513,0,0.513-0.314s-0.304-0.314-0.535-0.314h-9.366c-0.231,0-0.534,0-0.534,0.314
		S234.782,80.05,235.004,80.05z"/>
	<path d="M235.014,77.013h9.366c0.231,0,0.535,0,0.535-0.314c0-0.314-0.304-0.314-0.513-0.314h-9.398c-0.222,0-0.524,0-0.524,0.314
		C234.479,77.013,234.782,77.013,235.014,77.013z"/>
	<path d="M259.656,58.982c0-1.058-0.837-1.245-1.419-1.245c-0.907,0-1.524,0.559-1.849,1c-0.082-0.755-0.734-1-1.176-1
		c-0.478,0-0.722,0.337-0.861,0.594c-0.243,0.407-0.395,1.023-0.395,1.082c0,0.14,0.151,0.14,0.187,0.14
		c0.15,0,0.161-0.023,0.231-0.326c0.163-0.639,0.372-1.186,0.803-1.186c0.29,0,0.362,0.244,0.362,0.547
		c0,0.198-0.095,0.604-0.176,0.907c-0.081,0.291-0.187,0.745-0.245,0.978l-0.349,1.408c-0.035,0.14-0.104,0.419-0.104,0.442
		c0,0.244,0.198,0.36,0.373,0.36c0.197,0,0.371-0.152,0.429-0.244c0.048-0.104,0.141-0.454,0.198-0.686
		c0.047-0.198,0.175-0.71,0.232-0.978c0.07-0.245,0.141-0.489,0.187-0.733c0.128-0.454,0.141-0.536,0.466-0.989
		c0.301-0.442,0.814-1.012,1.641-1.012c0.639,0,0.651,0.558,0.651,0.768c0,0.663-0.478,1.873-0.651,2.338
		c-0.118,0.302-0.164,0.407-0.164,0.594c0,0.582,0.478,0.942,1.037,0.942c1.093,0,1.581-1.513,1.581-1.675
		c0-0.152-0.141-0.152-0.174-0.152c-0.151,0-0.163,0.07-0.21,0.187c-0.256,0.883-0.722,1.327-1.164,1.327
		c-0.231,0-0.278-0.152-0.278-0.385c0-0.244,0.059-0.396,0.255-0.884C259.203,60.763,259.656,59.599,259.656,58.982z"/>
	<path d="M246.86,67.393c-0.012,0.047-0.012,0.349-0.012,0.523l8.294,11.354l-8.119,9.527c-0.163,0.187-0.163,0.268-0.163,0.279
		c0,0.174,0.14,0.174,0.43,0.174h18.544l1.896-5.025h-0.395c-0.606,1.64-2.271,2.698-4.071,3.175
		c-0.338,0.082-1.873,0.489-4.889,0.489h-9.455l7.98-9.375c0.115-0.117,0.139-0.163,0.139-0.244c0-0.035,0-0.082-0.104-0.233
		l-7.306-9.993h8.598c2.094,0,3.524,0.21,3.663,0.244c0.85,0.128,2.211,0.396,3.455,1.175c0.396,0.256,1.454,0.966,1.99,2.233h0.395
		l-1.896-4.408H247.29C246.93,67.289,246.907,67.301,246.86,67.393z"/>
	<path d="M250.699,93.776c0-0.174-0.141-0.419-0.443-0.419c-0.3,0-0.615,0.292-0.615,0.605c0,0.187,0.14,0.419,0.442,0.419
		C250.396,94.381,250.699,94.067,250.699,93.776z"/>
	<path d="M248.466,99.336c-0.046,0.14-0.104,0.279-0.104,0.466c0,0.511,0.44,0.93,1.046,0.93c1.093,0,1.57-1.512,1.57-1.674
		c0-0.151-0.139-0.151-0.174-0.151c-0.152,0-0.163,0.07-0.21,0.185c-0.256,0.885-0.732,1.327-1.164,1.327
		c-0.209,0-0.267-0.14-0.267-0.383c0-0.245,0.069-0.454,0.174-0.699c0.105-0.29,0.232-0.592,0.35-0.871
		c0.104-0.268,0.488-1.257,0.534-1.396c0.034-0.105,0.07-0.233,0.07-0.35c0-0.513-0.441-0.931-1.047-0.931
		c-1.081,0-1.582,1.489-1.582,1.674c0,0.14,0.151,0.14,0.187,0.14c0.15,0,0.163-0.046,0.197-0.175
		c0.28-0.941,0.767-1.337,1.175-1.337c0.176,0,0.268,0.093,0.268,0.384c0,0.256-0.07,0.419-0.338,1.105L248.466,99.336z"/>
	<path d="M259.971,98.813h-7.223c-0.176,0-0.42,0-0.42,0.268s0.257,0.268,0.408,0.268h7.245c0.14,0,0.409,0,0.409-0.268
		S260.133,98.813,259.971,98.813z"/>
	<path d="M259.981,96.406h-7.245c-0.151,0-0.408,0-0.408,0.255c0,0.279,0.244,0.279,0.42,0.279h7.223c0.162,0,0.42,0,0.42-0.279
		C260.391,96.406,260.121,96.406,259.981,96.406z"/>
	<path d="M262.901,100.221h-0.419v0.396c0.199-0.012,1.548-0.047,1.955-0.047c0.337,0,1.71,0.035,1.954,0.047v-0.396h-0.419
		c-1.092,0-1.092-0.14-1.092-0.5V93.66c0-0.303-0.023-0.314-0.327-0.314c-0.698,0.698-1.698,0.698-2.141,0.698v0.395
		c0.257,0,0.977,0,1.582-0.302v5.584C263.995,100.082,263.995,100.221,262.901,100.221z"/>
	<path d="M275.036,76.49c0-0.709-0.525-1.291-1.292-1.291c-1.489,0-2.071,2.28-2.071,2.419c0,0.163,0.164,0.163,0.187,0.163
		c0.163,0,0.174-0.034,0.256-0.291c0.419-1.454,1.036-1.942,1.582-1.942c0.141,0,0.395,0.012,0.395,0.524
		c0,0.384-0.173,0.825-0.278,1.094c-0.698,1.849-0.884,2.57-0.884,3.175c0,1.42,1.047,1.966,2.222,1.966c0.268,0,1.013,0,1.64-1.093
		c0.408,1,1.49,1.093,1.954,1.093c1.187,0,1.874-0.989,2.28-1.919c0.536-1.234,1.035-3.327,1.035-4.083
		c0-0.862-0.418-1.105-0.686-1.105c-0.396,0-0.79,0.418-0.79,0.756c0,0.209,0.093,0.303,0.232,0.43
		c0.174,0.164,0.568,0.582,0.568,1.327c0,0.535-0.453,2.07-0.858,2.873c-0.408,0.838-0.955,1.384-1.734,1.384
		c-0.733,0-1.151-0.477-1.151-1.373c0-0.43,0.104-0.918,0.162-1.14l0.664-2.641c0.081-0.338,0.231-0.919,0.231-1.012
		c0-0.291-0.221-0.431-0.452-0.431c-0.188,0-0.467,0.129-0.583,0.442c-0.047,0.116-0.779,3.106-0.896,3.513
		c-0.105,0.477-0.139,0.757-0.139,1.036c0,0.174,0,0.209,0.022,0.279c-0.36,0.837-0.837,1.325-1.442,1.325
		c-1.257,0-1.257-1.163-1.257-1.431c0-0.5,0.07-1.116,0.814-3.048C274.942,77.025,275.036,76.804,275.036,76.49z"/>
	<path d="M285.993,77.654c0-0.175-0.127-0.419-0.442-0.419c-0.291,0-0.605,0.291-0.605,0.604c0,0.187,0.141,0.419,0.432,0.419
		C285.703,78.258,285.993,77.956,285.993,77.654z"/>
	<path d="M282.958,81.341c0,0.151,0.161,0.151,0.185,0.151c0.164,0,0.164-0.058,0.199-0.186c0.29-0.931,0.767-1.326,1.175-1.326
		c0.173,0,0.278,0.081,0.278,0.384c0,0.244-0.07,0.407-0.349,1.093l-0.687,1.757c-0.047,0.151-0.094,0.279-0.094,0.465
		c0,0.512,0.431,0.931,1.036,0.931c1.094,0,1.581-1.512,1.581-1.675c0-0.14-0.149-0.14-0.173-0.14c-0.163,0-0.176,0.058-0.211,0.186
		c-0.255,0.873-0.731,1.314-1.163,1.314c-0.22,0-0.278-0.14-0.278-0.372c0-0.256,0.082-0.465,0.175-0.71
		c0.116-0.291,0.232-0.593,0.349-0.872c0.104-0.268,0.499-1.256,0.547-1.396c0.022-0.104,0.059-0.232,0.059-0.349
		c0-0.511-0.432-0.93-1.034-0.93C283.468,79.667,282.958,81.155,282.958,81.341z"/>
	<path d="M289.541,80.911c0-0.419-0.338-0.546-0.582-0.546c-0.464,0-0.859,0.407-0.859,0.908c0,0.732,0.79,1.035,1.477,1.035
		c1.036,0,1.604-1.093,1.651-1.186c0.186,0.581,0.745,1.186,1.687,1.186c1.617,0,2.514-2.024,2.514-2.408
		c0-0.163-0.141-0.163-0.186-0.163c-0.141,0-0.177,0.069-0.209,0.174c-0.514,1.675-1.584,2.059-2.084,2.059
		c-0.616,0-0.861-0.5-0.861-1.035c0-0.35,0.094-0.699,0.269-1.384l0.535-2.152h-0.013c0.105-0.407,0.466-1.85,1.561-1.85
		c0.08,0,0.453,0,0.779,0.21c-0.432,0.069-0.746,0.465-0.746,0.849c0,0.244,0.176,0.546,0.593,0.546
		c0.351,0,0.852-0.291,0.852-0.907c0-0.826-0.932-1.035-1.468-1.035c-0.907,0-1.453,0.826-1.639,1.187
		c-0.396-1.036-1.244-1.187-1.7-1.187c-1.627,0-2.522,2.024-2.522,2.408c0,0.163,0.151,0.163,0.187,0.163
		c0.126,0,0.174-0.034,0.207-0.174c0.525-1.664,1.562-2.059,2.097-2.059c0.303,0,0.848,0.14,0.848,1.059
		c0,0.477-0.269,1.535-0.848,3.733c-0.246,0.966-0.793,1.628-1.491,1.628c-0.092,0-0.453,0-0.779-0.208
		C289.203,81.678,289.541,81.353,289.541,80.911z"/>
	<path d="M297.113,81.341c0,0.151,0.151,0.151,0.187,0.151c0.151,0,0.164-0.058,0.198-0.186c0.291-0.931,0.768-1.326,1.175-1.326
		c0.174,0,0.268,0.081,0.268,0.384c0,0.244-0.058,0.407-0.337,1.093l-0.688,1.757c-0.046,0.151-0.104,0.279-0.104,0.465
		c0,0.512,0.441,0.931,1.047,0.931c1.093,0,1.57-1.512,1.57-1.675c0-0.14-0.14-0.14-0.174-0.14c-0.151,0-0.164,0.058-0.209,0.186
		c-0.245,0.873-0.734,1.314-1.152,1.314c-0.222,0-0.28-0.14-0.28-0.372c0-0.256,0.082-0.465,0.175-0.71
		c0.117-0.291,0.232-0.593,0.35-0.872c0.104-0.268,0.5-1.256,0.535-1.396c0.035-0.104,0.07-0.232,0.07-0.349
		c0-0.511-0.443-0.93-1.036-0.93C297.615,79.667,297.113,81.155,297.113,81.341z"/>
	<path d="M300.149,77.654c0-0.175-0.127-0.419-0.44-0.419c-0.292,0-0.618,0.291-0.618,0.604c0,0.187,0.151,0.419,0.443,0.419
		C299.848,78.258,300.149,77.956,300.149,77.654z"/>
	<path d="M311.399,72.989c-0.314,0-0.314,0.302-0.314,0.523v4.386h-4.397c-0.222,0-0.511,0-0.511,0.313
		c0,0.314,0.289,0.314,0.511,0.314h4.397v4.396c0,0.222,0,0.524,0.314,0.524c0.313,0,0.313-0.302,0.313-0.524v-4.396h4.375
		c0.221,0,0.522,0,0.522-0.314c0-0.313-0.302-0.313-0.522-0.313h-4.375v-4.386C311.713,73.291,311.713,72.989,311.399,72.989z"/>
	<path d="M325.406,75.21c-0.722,0-1.374,0.454-1.839,0.93l1.163-4.723c0-0.011,0-0.162-0.209-0.162c-0.36,0-1.501,0.116-1.908,0.151
		c-0.128,0.011-0.303,0.035-0.303,0.314c0,0.185,0.14,0.185,0.372,0.185c0.757,0,0.792,0.117,0.792,0.268
		c0,0.116-0.139,0.64-0.222,0.977l-1.292,5.107c-0.185,0.792-0.243,1.036-0.243,1.593c0,1.489,0.825,2.455,1.988,2.455
		c1.851,0,3.781-2.339,3.781-4.595C327.487,76.292,326.662,75.21,325.406,75.21z M325.557,80.353
		c-0.512,1.046-1.233,1.616-1.851,1.616c-0.534,0-1.047-0.43-1.047-1.582c0-0.302,0-0.605,0.245-1.594l0.349-1.443
		c0.093-0.337,0.093-0.372,0.233-0.546c0.768-1.023,1.478-1.256,1.884-1.256c0.57,0,0.989,0.478,0.989,1.478
		C326.359,77.956,325.848,79.759,325.557,80.353z"/>
</g>
<g>
</g>
<g>
</g>
<g>
</g>
<g>
</g>
<g>
</g>
<g>
</g>
<g>
</g>
</svg>
