<?xml version="1.0" encoding="utf-8"?>
<!-- Generator: Adobe Illustrator 16.0.0, SVG Export Plug-In . SVG Version: 6.00 Build 0)  -->
<!DOCTYPE svg PUBLIC "-//W3C//DTD SVG 1.1 Tiny//EN" "http://www.w3.org/Graphics/SVG/1.1/DTD/svg11-tiny.dtd">
<svg version="1.1" baseProfile="tiny" id="Layer_1" xmlns="http://www.w3.org/2000/svg" xmlns:xlink="http://www.w3.org/1999/xlink"
	 x="0px" y="0px" width="192.963px" height="128.813px" viewBox="0 0 192.963 128.813" xml:space="preserve">
<g>
	<circle fill="#386DF9" stroke="#231F20" stroke-width="0.75" stroke-miterlimit="10" cx="14.439" cy="61.904" r="14.064"/>
	<circle fill="#FFFFFF" stroke="#231F20" stroke-width="0.75" stroke-miterlimit="10" cx="61.479" cy="29.608" r="14.064"/>
	<circle fill="#FFFFFF" stroke="#231F20" stroke-width="0.75" stroke-miterlimit="10" cx="61.479" cy="90.613" r="14.064"/>
	<circle fill="#FFFFFF" stroke="#231F20" stroke-width="0.75" stroke-miterlimit="10" cx="110.756" cy="61.904" r="14.064"/>
	<circle fill="#FF1614" stroke="#231F20" stroke-width="0.75" stroke-miterlimit="10" cx="178.524" cy="61.904" r="14.064"/>
</g>
<g>
	<g>
		<rect x="6.625" y="55.091" fill="none" width="15.627" height="18.753"/>
		<path fill="#FFFFFF" d="M10.098,64.28h1.5c0.438,1.274,1.412,1.912,2.925,1.912c0.763,0,1.379-0.178,1.848-0.534
			s0.703-0.847,0.703-1.472c0-0.463-0.144-0.841-0.432-1.135c-0.287-0.294-0.756-0.522-1.406-0.685l-2.062-0.544
			c-1.838-0.475-2.757-1.463-2.757-2.963c0-0.963,0.356-1.747,1.069-2.354c0.712-0.606,1.618-0.909,2.719-0.909
			c1.163,0,2.101,0.271,2.812,0.815c0.713,0.544,1.182,1.284,1.407,2.223h-1.481c-0.413-1.188-1.325-1.782-2.738-1.782
			c-0.7,0-1.272,0.172-1.716,0.516c-0.444,0.345-0.666,0.804-0.666,1.379c0,0.475,0.15,0.847,0.45,1.115
			c0.3,0.27,0.763,0.485,1.388,0.647l1.969,0.506c1.913,0.488,2.869,1.52,2.869,3.095c0,1.025-0.372,1.838-1.115,2.438
			c-0.744,0.601-1.697,0.9-2.86,0.9c-1.162,0-2.138-0.278-2.925-0.835C10.81,66.059,10.31,65.28,10.098,64.28z"/>
	</g>
	<g>
		<rect x="53.665" y="21.795" fill="none" width="15.627" height="14.062"/>
		<path fill="#231F20" d="M60.785,22.47h1.388l4.5,11.514h-1.5l-1.331-3.469h-4.744l-1.313,3.469h-1.5L60.785,22.47z M61.46,24.307
			l-1.875,4.914h3.75L61.46,24.307z"/>
	</g>
	<g>
		<rect x="53.665" y="83.8" fill="none" width="15.627" height="14.062"/>
		<path fill="#231F20" d="M63.711,90.027c0.612,0.162,1.112,0.493,1.5,0.993c0.387,0.5,0.581,1.075,0.581,1.726
			c0,1.038-0.338,1.838-1.013,2.4s-1.612,0.844-2.812,0.844h-4.163V84.477h3.788c1.2,0,2.134,0.262,2.803,0.787
			s1.004,1.282,1.004,2.27c0,0.649-0.159,1.19-0.479,1.622C64.602,89.586,64.198,89.877,63.711,90.027z M59.247,89.483h2.345
			c1.587,0,2.381-0.625,2.381-1.876c0-1.225-0.794-1.837-2.381-1.837h-2.345V89.483z M59.247,90.721v3.976h2.72
			c0.762,0,1.35-0.178,1.763-0.534c0.412-0.356,0.618-0.841,0.618-1.453c0-0.625-0.206-1.113-0.618-1.463
			c-0.413-0.35-1.001-0.525-1.763-0.525H59.247z"/>
	</g>
	<g>
		<rect x="102.941" y="54.571" fill="none" width="15.628" height="19.792"/>
		<path fill="#231F20" d="M107.427,65.289c-0.981-1.094-1.473-2.522-1.473-4.285s0.491-3.191,1.473-4.285s2.209-1.641,3.685-1.641
			c1.188,0,2.172,0.318,2.954,0.956c0.781,0.638,1.29,1.5,1.528,2.588h-1.463c-0.525-1.475-1.531-2.213-3.02-2.213
			c-1.1,0-1.987,0.422-2.663,1.266c-0.675,0.844-1.013,1.954-1.013,3.329c0,1.362,0.338,2.469,1.013,3.319
			c0.676,0.85,1.563,1.274,2.663,1.274c1.5,0,2.507-0.743,3.02-2.231h1.463c-0.238,1.101-0.747,1.97-1.528,2.606
			c-0.782,0.638-1.767,0.957-2.954,0.957C109.636,66.93,108.408,66.383,107.427,65.289z"/>
	</g>
	<g>
		<rect x="170.709" y="55.133" fill="none" width="15.627" height="16.148"/>
		<path fill="#FFFFFF" d="M182.142,62.915h-2.757v-1.274h4.163v0.787c0,1.525-0.44,2.751-1.322,3.676
			c-0.881,0.925-2.028,1.388-3.44,1.388c-1.525,0-2.788-0.544-3.788-1.632c-1.001-1.088-1.501-2.519-1.501-4.294
			c0-1.763,0.5-3.191,1.501-4.285c1-1.094,2.25-1.641,3.75-1.641c1.2,0,2.197,0.318,2.991,0.956s1.31,1.5,1.547,2.588h-1.481
			c-0.537-1.475-1.557-2.213-3.057-2.213c-1.125,0-2.034,0.422-2.729,1.266c-0.693,0.844-1.041,1.954-1.041,3.329
			s0.351,2.487,1.051,3.338s1.619,1.275,2.757,1.275c0.987,0,1.771-0.291,2.354-0.872C181.72,64.725,182.054,63.928,182.142,62.915z
			"/>
	</g>
</g>
<g>
	<line fill="none" stroke="#231F20" stroke-width="0.75" stroke-miterlimit="10" x1="25.75" y1="53.57" x2="48.887" y2="35.856"/>
	<line fill="none" stroke="#231F20" stroke-width="0.75" stroke-miterlimit="10" x1="26.761" y1="68.676" x2="48.911" y2="84.342"/>
	<line fill="none" stroke="#231F20" stroke-width="0.75" stroke-miterlimit="10" x1="74.066" y1="35.856" x2="101.1" y2="51.698"/>
	<line fill="none" stroke="#231F20" stroke-width="0.75" stroke-miterlimit="10" x1="74.066" y1="84.363" x2="98.825" y2="69.327"/>
	<line fill="none" stroke="#231F20" stroke-width="0.75" stroke-miterlimit="10" x1="124.82" y1="61.904" x2="164.46" y2="61.904"/>
</g>
<g>
	<g>
		<rect x="134.534" y="66.327" fill="none" width="30.211" height="20.836"/>
		<path fill="#929497" d="M137.836,66.782v7.995h-1.001v-6.76l-1.976,1.014v-1.04l2.366-1.209H137.836z"/>
		<path fill="#929497" d="M144.46,73.757c-0.551,0.759-1.268,1.138-2.151,1.138s-1.602-0.379-2.151-1.138
			c-0.551-0.758-0.826-1.748-0.826-2.971c0-1.222,0.275-2.212,0.826-2.971c0.55-0.758,1.268-1.137,2.151-1.137
			s1.601,0.379,2.151,1.137c0.551,0.759,0.825,1.749,0.825,2.971C145.285,72.009,145.011,72.999,144.46,73.757z M142.309,67.602
			c-0.633,0-1.12,0.29-1.463,0.871c-0.342,0.58-0.513,1.352-0.513,2.313s0.171,1.733,0.513,2.314c0.343,0.58,0.83,0.871,1.463,0.871
			c0.624,0,1.109-0.293,1.456-0.878s0.52-1.354,0.52-2.308c0-0.953-0.173-1.723-0.52-2.308S142.933,67.602,142.309,67.602z"/>
		<path fill="#929497" d="M151.454,73.757c-0.551,0.759-1.268,1.138-2.151,1.138s-1.602-0.379-2.151-1.138
			c-0.551-0.758-0.826-1.748-0.826-2.971c0-1.222,0.275-2.212,0.826-2.971c0.55-0.758,1.268-1.137,2.151-1.137
			s1.601,0.379,2.151,1.137c0.551,0.759,0.825,1.749,0.825,2.971C152.279,72.009,152.005,72.999,151.454,73.757z M149.303,67.602
			c-0.633,0-1.12,0.29-1.463,0.871c-0.342,0.58-0.513,1.352-0.513,2.313s0.171,1.733,0.513,2.314c0.343,0.58,0.83,0.871,1.463,0.871
			c0.624,0,1.109-0.293,1.456-0.878s0.52-1.354,0.52-2.308c0-0.953-0.173-1.723-0.52-2.308S149.927,67.602,149.303,67.602z"/>
	</g>
	<g>
		<rect x="87.993" y="31.438" fill="none" width="30.21" height="20.837"/>
		<path fill="#929497" d="M91.295,31.893v7.995h-1.001v-6.76l-1.976,1.014v-1.04l2.366-1.209H91.295z"/>
	</g>
	<g>
		<rect x="29.545" y="31.482" fill="none" width="30.211" height="20.836"/>
		<path fill="#929497" d="M32.847,31.938v7.995h-1.001v-6.76l-1.976,1.014v-1.04l2.366-1.209H32.847z"/>
	</g>
	<g>
		<rect x="29.545" y="79.412" fill="none" width="30.211" height="20.836"/>
		<path fill="#929497" d="M32.847,79.866v7.995h-1.001v-6.76l-1.976,1.014v-1.04l2.366-1.209H32.847z"/>
	</g>
	<g>
		<rect x="87.837" y="79.745" fill="none" width="30.211" height="20.837"/>
		<path fill="#929497" d="M91.139,80.201v7.995h-1.001v-6.76l-1.976,1.014v-1.04l2.366-1.209H91.139z"/>
		<path fill="#929497" d="M97.763,87.176c-0.551,0.759-1.268,1.138-2.151,1.138s-1.602-0.379-2.151-1.138
			c-0.551-0.758-0.826-1.748-0.826-2.971c0-1.222,0.275-2.212,0.826-2.971c0.55-0.758,1.268-1.137,2.151-1.137
			s1.601,0.379,2.151,1.137c0.551,0.759,0.825,1.749,0.825,2.971C98.588,85.428,98.313,86.418,97.763,87.176z M95.611,81.021
			c-0.633,0-1.12,0.29-1.463,0.871c-0.342,0.58-0.513,1.352-0.513,2.313s0.171,1.733,0.513,2.314c0.343,0.58,0.83,0.871,1.463,0.871
			c0.624,0,1.109-0.293,1.456-0.878s0.52-1.354,0.52-2.308c0-0.953-0.173-1.723-0.52-2.308S96.235,81.021,95.611,81.021z"/>
	</g>
</g>
<g>
	<g>
		<rect x="51.088" y="2.355" fill="none" width="29.589" height="20.835"/>
		<path fill="#EC1C24" d="M54.897,2.881v9.225h-1.154v-7.8l-2.28,1.17v-1.2l2.73-1.395H54.897z"/>
		<path fill="#EC1C24" d="M62.54,10.928c-0.635,0.875-1.463,1.312-2.482,1.312c-1.021,0-1.848-0.438-2.482-1.312
			c-0.636-0.875-0.953-2.018-0.953-3.428c0-1.409,0.317-2.552,0.953-3.427c0.635-0.875,1.462-1.312,2.482-1.312
			c1.02,0,1.848,0.438,2.482,1.312s0.952,2.018,0.952,3.427C63.492,8.91,63.175,10.053,62.54,10.928z M60.058,3.825
			c-0.73,0-1.293,0.335-1.688,1.005c-0.396,0.671-0.593,1.561-0.593,2.67c0,1.11,0.197,2.001,0.593,2.671
			c0.395,0.67,0.957,1.005,1.688,1.005c0.72,0,1.279-0.338,1.68-1.013s0.601-1.562,0.601-2.663c0-1.1-0.2-1.987-0.601-2.662
			S60.777,3.825,60.058,3.825z"/>
		<path fill="#EC1C24" d="M70.61,10.928c-0.635,0.875-1.463,1.312-2.482,1.312c-1.021,0-1.848-0.438-2.482-1.312
			C65.01,10.053,64.692,8.91,64.692,7.5c0-1.409,0.317-2.552,0.953-3.427c0.635-0.875,1.462-1.312,2.482-1.312
			c1.02,0,1.848,0.438,2.482,1.312s0.952,2.018,0.952,3.427C71.562,8.91,71.245,10.053,70.61,10.928z M68.128,3.825
			c-0.73,0-1.293,0.335-1.688,1.005c-0.396,0.671-0.593,1.561-0.593,2.67c0,1.11,0.197,2.001,0.593,2.671
			c0.395,0.67,0.957,1.005,1.688,1.005c0.72,0,1.279-0.338,1.68-1.013s0.601-1.562,0.601-2.663c0-1.1-0.2-1.987-0.601-2.662
			S68.848,3.825,68.128,3.825z"/>
	</g>
	<g>
		<rect x="106.338" y="35.173" fill="none" width="29.588" height="20.834"/>
		<path fill="#EC1C24" d="M112.855,43.745c-0.635,0.875-1.463,1.312-2.482,1.312c-1.021,0-1.848-0.438-2.482-1.312
			c-0.636-0.875-0.953-2.018-0.953-3.428c0-1.409,0.317-2.552,0.953-3.427c0.635-0.875,1.462-1.312,2.482-1.312
			c1.02,0,1.848,0.438,2.482,1.312s0.952,2.018,0.952,3.427C113.808,41.728,113.49,42.87,112.855,43.745z M110.373,36.643
			c-0.73,0-1.293,0.335-1.688,1.005c-0.396,0.671-0.593,1.561-0.593,2.67c0,1.11,0.197,2.001,0.593,2.671
			c0.395,0.67,0.957,1.005,1.688,1.005c0.72,0,1.279-0.338,1.68-1.013s0.601-1.562,0.601-2.663c0-1.1-0.2-1.987-0.601-2.662
			S111.093,36.643,110.373,36.643z"/>
	</g>
	<g>
		<rect x="58.146" y="107.979" fill="none" width="29.589" height="20.835"/>
		<path fill="#EC1C24" d="M64.663,116.551c-0.635,0.875-1.463,1.312-2.482,1.312c-1.021,0-1.848-0.438-2.482-1.312
			c-0.636-0.875-0.953-2.018-0.953-3.428c0-1.409,0.317-2.552,0.953-3.427c0.635-0.875,1.462-1.312,2.482-1.312
			c1.02,0,1.848,0.438,2.482,1.312s0.952,2.018,0.952,3.427C65.615,114.533,65.298,115.676,64.663,116.551z M62.181,109.448
			c-0.73,0-1.293,0.335-1.688,1.005c-0.396,0.671-0.593,1.561-0.593,2.67c0,1.11,0.197,2.001,0.593,2.671
			c0.395,0.67,0.957,1.005,1.688,1.005c0.72,0,1.279-0.338,1.68-1.013s0.601-1.562,0.601-2.663c0-1.1-0.2-1.987-0.601-2.662
			S62.9,109.448,62.181,109.448z"/>
	</g>
</g>
<g>
</g>
<g>
</g>
<g>
</g>
<g>
</g>
<g>
</g>
<g>
</g>
</svg>
