<?xml version="1.0" encoding="utf-8"?>
<!-- Generator: Adobe Illustrator 16.0.0, SVG Export Plug-In . SVG Version: 6.00 Build 0)  -->
<!DOCTYPE svg PUBLIC "-//W3C//DTD SVG 1.1 Tiny//EN" "http://www.w3.org/Graphics/SVG/1.1/DTD/svg11-tiny.dtd">
<svg version="1.1" baseProfile="tiny" id="Layer_1" xmlns="http://www.w3.org/2000/svg" xmlns:xlink="http://www.w3.org/1999/xlink"
	 x="0px" y="0px" width="205.857px" height="143.58px" viewBox="0 0 205.857 143.58" xml:space="preserve">
<g>
	<g>
		<circle fill="#386DF9" stroke="#231F20" stroke-width="0.75" stroke-miterlimit="10" cx="105.093" cy="11.443" r="11.068"/>
		<circle fill="#FFFFFF" stroke="#231F20" stroke-width="0.75" stroke-miterlimit="10" cx="60.822" cy="50.795" r="11.068"/>
		<circle fill="#FFFFFF" stroke="#231F20" stroke-width="0.75" stroke-miterlimit="10" cx="149.365" cy="50.795" r="11.068"/>
		<circle fill="#FFFFFF" stroke="#231F20" stroke-width="0.75" stroke-miterlimit="10" cx="60.822" cy="85.22" r="11.068"/>
		<circle fill="#FF1614" stroke="#231F20" stroke-width="0.75" stroke-miterlimit="10" cx="149.365" cy="119.637" r="11.068"/>
		<circle fill="#FFFFFF" stroke="#231F20" stroke-width="0.75" stroke-miterlimit="10" cx="149.365" cy="85.22" r="11.068"/>
	</g>
	<g>
		
			<line fill="none" stroke="#231F20" stroke-width="0.75" stroke-miterlimit="10" x1="105.094" y1="22.511" x2="60.821" y2="39.727"/>
		
			<line fill="none" stroke="#231F20" stroke-width="0.75" stroke-miterlimit="10" x1="105.094" y1="22.511" x2="149.365" y2="39.727"/>
		
			<line fill="none" stroke="#231F20" stroke-width="0.75" stroke-miterlimit="10" x1="60.821" y1="61.872" x2="60.821" y2="74.152"/>
		
			<line fill="none" stroke="#231F20" stroke-width="0.75" stroke-miterlimit="10" x1="149.365" y1="96.288" x2="149.365" y2="108.569"/>
		
			<line fill="none" stroke="#231F20" stroke-width="0.75" stroke-miterlimit="10" x1="149.365" y1="61.872" x2="149.365" y2="74.152"/>
	</g>
	<g>
		<g>
			<rect x="98.944" y="5.295" fill="none" width="12.299" height="14.757"/>
			<path fill="#FFFFFF" d="M101.678,12.526h1.18c0.345,1.004,1.112,1.505,2.303,1.505c0.6,0,1.085-0.14,1.453-0.42
				c0.369-0.28,0.554-0.667,0.554-1.159c0-0.364-0.113-0.662-0.34-0.893c-0.226-0.231-0.595-0.411-1.106-0.539l-1.623-0.428
				c-1.446-0.374-2.17-1.151-2.17-2.332c0-0.757,0.281-1.375,0.842-1.852c0.561-0.477,1.273-0.716,2.14-0.716
				c0.915,0,1.652,0.214,2.214,0.642c0.561,0.428,0.93,1.011,1.106,1.749h-1.166c-0.324-0.935-1.043-1.402-2.154-1.402
				c-0.551,0-1.001,0.135-1.351,0.406c-0.349,0.271-0.523,0.632-0.523,1.085c0,0.374,0.118,0.667,0.354,0.878
				c0.236,0.211,0.601,0.381,1.093,0.509l1.549,0.398c1.506,0.383,2.258,1.195,2.258,2.435c0,0.807-0.292,1.446-0.878,1.918
				c-0.585,0.472-1.335,0.708-2.25,0.708s-1.683-0.219-2.303-0.657C102.238,13.926,101.845,13.313,101.678,12.526z"/>
		</g>
		<g>
			<rect x="54.674" y="44.647" fill="none" width="12.297" height="11.065"/>
			<path fill="#231F20" d="M60.276,45.179h1.092l3.542,9.061h-1.181l-1.048-2.73h-3.733l-1.033,2.73h-1.181L60.276,45.179z
				 M60.808,46.625l-1.476,3.866h2.951L60.808,46.625z"/>
		</g>
		<g>
			<rect x="143.217" y="45.71" fill="none" width="12.298" height="11.065"/>
			<path fill="#231F20" d="M151.122,50.61c0.482,0.128,0.876,0.389,1.181,0.782s0.458,0.846,0.458,1.357
				c0,0.817-0.266,1.446-0.797,1.889s-1.27,0.664-2.214,0.664h-3.276v-9.061h2.981c0.944,0,1.68,0.207,2.206,0.62
				c0.526,0.413,0.789,1.008,0.789,1.786c0,0.511-0.125,0.937-0.376,1.276S151.506,50.492,151.122,50.61z M147.61,50.182h1.845
				c1.249,0,1.874-0.492,1.874-1.476c0-0.964-0.625-1.446-1.874-1.446h-1.845V50.182z M147.61,51.156v3.129h2.14
				c0.6,0,1.062-0.14,1.387-0.421c0.325-0.28,0.487-0.662,0.487-1.144c0-0.492-0.162-0.875-0.487-1.151
				c-0.324-0.275-0.787-0.414-1.387-0.414H147.61z"/>
		</g>
		<g>
			<rect x="54.674" y="79.726" fill="none" width="12.297" height="12.707"/>
			<path fill="#231F20" d="M58.202,88.16c-0.772-0.861-1.158-1.985-1.158-3.372c0-1.388,0.386-2.512,1.158-3.372
				c0.772-0.861,1.739-1.292,2.9-1.292c0.935,0,1.709,0.251,2.324,0.753c0.614,0.502,1.016,1.181,1.202,2.036h-1.15
				c-0.413-1.16-1.206-1.741-2.376-1.741c-0.866,0-1.564,0.332-2.096,0.996s-0.797,1.537-0.797,2.62
				c0,1.072,0.266,1.942,0.797,2.611s1.229,1.004,2.096,1.004c1.181,0,1.972-0.585,2.376-1.756h1.15
				c-0.187,0.865-0.588,1.549-1.202,2.051c-0.615,0.502-1.39,0.753-2.324,0.753C59.941,89.451,58.975,89.021,58.202,88.16z"/>
		</g>
		<g>
			<rect x="143.217" y="114.31" fill="none" width="12.298" height="12.333"/>
			<path fill="#FFFFFF" d="M152.214,120.435h-2.169v-1.004h3.276v0.62c0,1.2-0.347,2.164-1.041,2.893
				c-0.693,0.728-1.596,1.092-2.707,1.092c-1.201,0-2.194-0.428-2.981-1.284c-0.787-0.855-1.181-1.982-1.181-3.379
				c0-1.388,0.394-2.512,1.181-3.372c0.787-0.861,1.771-1.292,2.951-1.292c0.944,0,1.729,0.251,2.354,0.753
				c0.624,0.502,1.03,1.181,1.217,2.036h-1.166c-0.423-1.16-1.225-1.741-2.405-1.741c-0.885,0-1.601,0.332-2.146,0.996
				c-0.547,0.664-0.819,1.537-0.819,2.62c0,1.082,0.275,1.957,0.826,2.626c0.551,0.67,1.274,1.004,2.17,1.004
				c0.776,0,1.395-0.229,1.852-0.687C151.882,121.858,152.146,121.231,152.214,120.435z"/>
		</g>
		<g>
			<rect x="143.217" y="79.726" fill="none" width="12.298" height="12.707"/>
			<path fill="#231F20" d="M146.746,88.16c-0.772-0.861-1.158-1.985-1.158-3.372c0-1.388,0.386-2.512,1.158-3.372
				c0.772-0.861,1.739-1.292,2.9-1.292c0.935,0,1.709,0.251,2.324,0.753c0.614,0.502,1.016,1.181,1.202,2.036h-1.15
				c-0.413-1.16-1.206-1.741-2.376-1.741c-0.866,0-1.564,0.332-2.096,0.996s-0.797,1.537-0.797,2.62
				c0,1.072,0.266,1.942,0.797,2.611s1.229,1.004,2.096,1.004c1.181,0,1.972-0.585,2.376-1.756h1.15
				c-0.187,0.865-0.588,1.549-1.202,2.051c-0.615,0.502-1.39,0.753-2.324,0.753C148.485,89.451,147.519,89.021,146.746,88.16z"/>
		</g>
	</g>
	<g>
		<rect y="45.974" fill="none" width="48.663" height="27.874"/>
		<path fill="#929497" d="M2.835,46.384v7.204H2.249v-6.489L0.363,48.07V47.45l2.108-1.066H2.835z"/>
		<path fill="#929497" d="M6.606,47.965h0.503v1.921h1.933v0.503H7.109v1.921H6.606V50.39H4.686v-0.503h1.921V47.965z"/>
		<path fill="#929497" d="M12.193,46.384v7.204h-0.586v-6.489L9.722,48.07V47.45l2.108-1.066H12.193z"/>
		<path fill="#929497" d="M16.362,53.693c-0.796,0-1.437-0.342-1.921-1.025c-0.483-0.683-0.726-1.576-0.726-2.676
			c0-1.101,0.242-1.993,0.726-2.677c0.484-0.683,1.125-1.025,1.921-1.025c0.789,0,1.426,0.342,1.91,1.025
			c0.483,0.684,0.726,1.576,0.726,2.677c0,1.101-0.242,1.993-0.726,2.676C17.788,53.351,17.151,53.693,16.362,53.693z
			 M17.862,47.713c-0.367-0.582-0.867-0.873-1.5-0.873c-0.632,0-1.132,0.291-1.499,0.873s-0.551,1.341-0.551,2.278
			c0,0.937,0.184,1.696,0.551,2.278c0.367,0.582,0.867,0.873,1.499,0.873c0.633,0,1.133-0.291,1.5-0.873
			c0.366-0.582,0.55-1.341,0.55-2.278C18.412,49.054,18.229,48.295,17.862,47.713z"/>
		<path fill="#929497" d="M22.641,53.693c-0.796,0-1.437-0.342-1.921-1.025c-0.483-0.683-0.726-1.576-0.726-2.676
			c0-1.101,0.242-1.993,0.726-2.677c0.484-0.683,1.125-1.025,1.921-1.025c0.789,0,1.426,0.342,1.91,1.025
			c0.483,0.684,0.726,1.576,0.726,2.677c0,1.101-0.242,1.993-0.726,2.676C24.066,53.351,23.43,53.693,22.641,53.693z M24.141,47.713
			c-0.367-0.582-0.867-0.873-1.5-0.873c-0.632,0-1.132,0.291-1.499,0.873s-0.551,1.341-0.551,2.278c0,0.937,0.184,1.696,0.551,2.278
			c0.367,0.582,0.867,0.873,1.499,0.873c0.633,0,1.133-0.291,1.5-0.873c0.366-0.582,0.55-1.341,0.55-2.278
			C24.69,49.054,24.507,48.295,24.141,47.713z"/>
		<path fill="#929497" d="M26.659,49.628v-0.492h4.356v0.492H26.659z M26.659,51.127v-0.492h4.356v0.492H26.659z"/>
		<path fill="#929497" d="M34.426,46.384v7.204H33.84v-6.489l-1.886,0.972V47.45l2.108-1.066H34.426z"/>
		<path fill="#929497" d="M38.595,53.693c-0.796,0-1.437-0.342-1.921-1.025c-0.483-0.683-0.726-1.576-0.726-2.676
			c0-1.101,0.242-1.993,0.726-2.677c0.484-0.683,1.125-1.025,1.921-1.025c0.789,0,1.426,0.342,1.91,1.025
			c0.483,0.684,0.726,1.576,0.726,2.677c0,1.101-0.242,1.993-0.726,2.676C40.021,53.351,39.384,53.693,38.595,53.693z
			 M40.095,47.713c-0.367-0.582-0.867-0.873-1.5-0.873c-0.632,0-1.132,0.291-1.499,0.873s-0.551,1.341-0.551,2.278
			c0,0.937,0.184,1.696,0.551,2.278c0.367,0.582,0.867,0.873,1.499,0.873c0.633,0,1.133-0.291,1.5-0.873
			c0.366-0.582,0.55-1.341,0.55-2.278C40.645,49.054,40.461,48.295,40.095,47.713z"/>
		<path fill="#929497" d="M44.358,46.384v7.204h-0.586v-6.489l-1.886,0.972V47.45l2.108-1.066H44.358z"/>
	</g>
	<g>
		<rect x="16.334" y="81.37" fill="none" width="32.829" height="27.875"/>
		<path fill="#929497" d="M20.48,83.665c0-0.437-0.139-0.784-0.416-1.042s-0.639-0.386-1.083-0.386
			c-0.508,0-0.906,0.154-1.195,0.462c-0.289,0.309-0.461,0.729-0.515,1.259h-0.598c0.062-0.679,0.299-1.228,0.708-1.645
			c0.41-0.418,0.943-0.627,1.6-0.627c0.64,0,1.147,0.182,1.522,0.545c0.375,0.362,0.562,0.841,0.562,1.434
			c0,0.102-0.008,0.201-0.023,0.299S21,84.163,20.961,84.269s-0.074,0.195-0.105,0.27s-0.086,0.168-0.164,0.281
			s-0.135,0.197-0.17,0.252s-0.107,0.145-0.217,0.27s-0.18,0.207-0.211,0.246s-0.111,0.131-0.24,0.275s-0.209,0.232-0.24,0.264
			l-2.144,2.307h3.761v0.551h-4.592v-0.41l2.542-2.764c0.335-0.367,0.569-0.629,0.702-0.785s0.266-0.363,0.398-0.621
			S20.48,83.899,20.48,83.665z"/>
		<path fill="#929497" d="M23.947,83.361h0.503v1.921h1.933v0.504H24.45v1.92h-0.503v-1.92h-1.921v-0.504h1.921V83.361z"/>
		<path fill="#929497" d="M30.354,89.089c-0.796,0-1.437-0.342-1.921-1.025c-0.483-0.683-0.726-1.575-0.726-2.676
			c0-1.102,0.242-1.993,0.726-2.677c0.484-0.683,1.125-1.024,1.921-1.024c0.789,0,1.426,0.342,1.91,1.024
			c0.483,0.684,0.726,1.575,0.726,2.677c0,1.101-0.242,1.993-0.726,2.676C31.779,88.747,31.143,89.089,30.354,89.089z
			 M31.854,83.109c-0.367-0.581-0.867-0.872-1.5-0.872c-0.632,0-1.132,0.291-1.499,0.872s-0.551,1.341-0.551,2.278
			s0.184,1.696,0.551,2.277c0.367,0.582,0.867,0.873,1.499,0.873c0.633,0,1.133-0.291,1.5-0.873c0.366-0.581,0.55-1.34,0.55-2.277
			S32.22,83.69,31.854,83.109z"/>
		<path fill="#929497" d="M34.372,85.024v-0.492h4.356v0.492H34.372z M34.372,86.523v-0.491h4.356v0.491H34.372z"/>
		<path fill="#929497" d="M43.695,83.665c0-0.437-0.139-0.784-0.416-1.042s-0.639-0.386-1.083-0.386
			c-0.508,0-0.906,0.154-1.195,0.462c-0.289,0.309-0.461,0.729-0.515,1.259h-0.598c0.062-0.679,0.299-1.228,0.708-1.645
			c0.41-0.418,0.943-0.627,1.6-0.627c0.64,0,1.147,0.182,1.522,0.545c0.375,0.362,0.562,0.841,0.562,1.434
			c0,0.102-0.008,0.201-0.023,0.299s-0.043,0.199-0.082,0.305s-0.074,0.195-0.105,0.27s-0.086,0.168-0.164,0.281
			s-0.135,0.197-0.17,0.252s-0.107,0.145-0.217,0.27s-0.18,0.207-0.211,0.246s-0.111,0.131-0.24,0.275s-0.209,0.232-0.24,0.264
			l-2.144,2.307h3.761v0.551h-4.592v-0.41l2.542-2.764c0.335-0.367,0.569-0.629,0.702-0.785s0.266-0.363,0.398-0.621
			S43.695,83.899,43.695,83.665z"/>
	</g>
	<g>
		<rect x="164.559" y="47.927" fill="none" width="32.829" height="27.874"/>
		<path fill="#929497" d="M167.395,48.336v7.204h-0.586v-6.489l-1.886,0.972v-0.621l2.108-1.066H167.395z"/>
		<path fill="#929497" d="M171.166,49.918h0.503v1.921h1.933v0.503h-1.933v1.921h-0.503v-1.921h-1.921v-0.503h1.921V49.918z"/>
		<path fill="#929497" d="M177.572,55.646c-0.796,0-1.437-0.342-1.921-1.025c-0.483-0.683-0.726-1.576-0.726-2.676
			c0-1.101,0.242-1.993,0.726-2.677c0.484-0.683,1.125-1.025,1.921-1.025c0.789,0,1.426,0.342,1.91,1.025
			c0.483,0.684,0.726,1.576,0.726,2.677c0,1.101-0.242,1.993-0.726,2.676C178.998,55.304,178.361,55.646,177.572,55.646z
			 M179.072,49.666c-0.367-0.582-0.867-0.873-1.5-0.873c-0.632,0-1.132,0.291-1.499,0.873s-0.551,1.341-0.551,2.278
			c0,0.937,0.184,1.696,0.551,2.278c0.367,0.582,0.867,0.873,1.499,0.873c0.633,0,1.133-0.291,1.5-0.873
			c0.366-0.582,0.55-1.341,0.55-2.278C179.622,51.007,179.438,50.248,179.072,49.666z"/>
		<path fill="#929497" d="M181.591,51.581v-0.492h4.356v0.492H181.591z M181.591,53.08v-0.492h4.356v0.492H181.591z"/>
		<path fill="#929497" d="M189.356,48.336v7.204h-0.586v-6.489l-1.886,0.972v-0.621l2.108-1.066H189.356z"/>
	</g>
	<g>
		<rect x="164.911" y="82.352" fill="none" width="37.726" height="27.874"/>
		<path fill="#929497" d="M167.746,82.762v7.204h-0.586v-6.49l-1.886,0.973v-0.621l2.108-1.065H167.746z"/>
		<path fill="#929497" d="M171.611,82.762v7.204h-0.586v-6.49l-1.886,0.973v-0.621l2.108-1.065H171.611z"/>
		<path fill="#929497" d="M175.383,84.343h0.503v1.922h1.933v0.503h-1.933v1.921h-0.503v-1.921h-1.921v-0.503h1.921V84.343z"/>
		<path fill="#929497" d="M181.789,90.071c-0.796,0-1.437-0.342-1.921-1.025c-0.483-0.684-0.726-1.576-0.726-2.676
			c0-1.102,0.242-1.994,0.726-2.678c0.484-0.683,1.125-1.024,1.921-1.024c0.789,0,1.426,0.342,1.91,1.024
			c0.483,0.684,0.726,1.576,0.726,2.678c0,1.1-0.242,1.992-0.726,2.676C183.215,89.729,182.578,90.071,181.789,90.071z
			 M183.289,84.091c-0.367-0.581-0.867-0.872-1.5-0.872c-0.632,0-1.132,0.291-1.499,0.872c-0.367,0.582-0.551,1.342-0.551,2.279
			c0,0.937,0.184,1.695,0.551,2.277s0.867,0.873,1.499,0.873c0.633,0,1.133-0.291,1.5-0.873c0.366-0.582,0.55-1.341,0.55-2.277
			C183.839,85.433,183.655,84.673,183.289,84.091z"/>
		<path fill="#929497" d="M185.808,86.007v-0.492h4.356v0.492H185.808z M185.808,87.505v-0.491h4.356v0.491H185.808z"/>
		<path fill="#929497" d="M196.455,82.762v7.204h-0.586v-6.49l-1.886,0.973v-0.621l2.108-1.065H196.455z"/>
		<path fill="#929497" d="M200.32,82.762v7.204h-0.586v-6.49l-1.886,0.973v-0.621l2.108-1.065H200.32z"/>
	</g>
	<g>
		<rect x="164.559" y="115.706" fill="none" width="41.299" height="27.874"/>
		<path fill="#929497" d="M167.394,116.115v7.203h-0.586v-6.489l-1.886,0.973v-0.621l2.108-1.065H167.394z"/>
		<path fill="#929497" d="M171.259,116.115v7.203h-0.586v-6.489l-1.886,0.973v-0.621l2.108-1.065H171.259z"/>
		<path fill="#929497" d="M175.124,116.115v7.203h-0.586v-6.489l-1.886,0.973v-0.621l2.108-1.065H175.124z"/>
		<path fill="#929497" d="M178.896,117.696h0.503v1.921h1.933v0.504h-1.933v1.921h-0.503v-1.921h-1.921v-0.504h1.921V117.696z"/>
		<path fill="#929497" d="M185.302,123.424c-0.796,0-1.437-0.342-1.921-1.024c-0.483-0.684-0.726-1.576-0.726-2.677
			s0.242-1.993,0.726-2.677c0.484-0.683,1.125-1.024,1.921-1.024c0.789,0,1.426,0.342,1.91,1.024
			c0.483,0.684,0.726,1.576,0.726,2.677s-0.242,1.993-0.726,2.677C186.728,123.082,186.091,123.424,185.302,123.424z
			 M186.802,117.444c-0.367-0.581-0.867-0.872-1.5-0.872c-0.632,0-1.132,0.291-1.499,0.872c-0.367,0.582-0.551,1.341-0.551,2.278
			s0.184,1.696,0.551,2.278s0.867,0.872,1.499,0.872c0.633,0,1.133-0.29,1.5-0.872c0.366-0.582,0.55-1.341,0.55-2.278
			S187.168,118.026,186.802,117.444z"/>
		<path fill="#929497" d="M189.32,119.359v-0.492h4.356v0.492H189.32z M189.32,120.858v-0.491h4.356v0.491H189.32z"/>
		<path fill="#929497" d="M197.086,116.115v7.203H196.5v-6.489l-1.886,0.973v-0.621l2.108-1.065H197.086z"/>
		<path fill="#929497" d="M200.951,116.115v7.203h-0.586v-6.489l-1.886,0.973v-0.621l2.108-1.065H200.951z"/>
		<path fill="#929497" d="M204.816,116.115v7.203h-0.586v-6.489l-1.886,0.973v-0.621l2.108-1.065H204.816z"/>
	</g>
	<line fill="none" stroke="#FF2222" stroke-width="2" stroke-miterlimit="10" x1="49.136" y1="73.534" x2="72.095" y2="96.493"/>
</g>
<g>
</g>
<g>
</g>
<g>
</g>
<g>
</g>
<g>
</g>
<g>
</g>
</svg>
