<?xml version="1.0" encoding="iso-8859-1"?>
<!-- Generator: Adobe Illustrator 16.0.0, SVG Export Plug-In . SVG Version: 6.00 Build 0)  -->
<!DOCTYPE svg PUBLIC "-//W3C//DTD SVG 1.1//EN" "http://www.w3.org/Graphics/SVG/1.1/DTD/svg11.dtd">
<svg version="1.1" id="Layer_1" xmlns="http://www.w3.org/2000/svg" xmlns:xlink="http://www.w3.org/1999/xlink" x="0px" y="0px"
	 width="606px" height="289px" viewBox="0 0 606 289" style="enable-background:new 0 0 606 289;" xml:space="preserve">
<pattern  x="-96" y="-163" width="45" height="45" patternUnits="userSpaceOnUse" id="New_Pattern_6" viewBox="0 -45 45 45" style="overflow:visible;">
	<g>
		<polygon style="fill:none;" points="0,-45 45,-45 45,0 0,0 		"/>
		<line style="fill:none;stroke:#FFF9B3;stroke-width:2;stroke-miterlimit:10;" x1="2.812" y1="-45" x2="2.812" y2="0"/>
		<line style="fill:none;stroke:#FFF9B3;stroke-width:2;stroke-miterlimit:10;" x1="8.438" y1="-45" x2="8.438" y2="0"/>
		<line style="fill:none;stroke:#FFF9B3;stroke-width:2;stroke-miterlimit:10;" x1="14.062" y1="-45" x2="14.062" y2="0"/>
		<line style="fill:none;stroke:#FFF9B3;stroke-width:2;stroke-miterlimit:10;" x1="19.688" y1="-45" x2="19.688" y2="0"/>
		<line style="fill:none;stroke:#FFF9B3;stroke-width:2;stroke-miterlimit:10;" x1="25.312" y1="-45" x2="25.312" y2="0"/>
		<line style="fill:none;stroke:#FFF9B3;stroke-width:2;stroke-miterlimit:10;" x1="30.938" y1="-45" x2="30.938" y2="0"/>
		<line style="fill:none;stroke:#FFF9B3;stroke-width:2;stroke-miterlimit:10;" x1="36.562" y1="-45" x2="36.562" y2="0"/>
		<line style="fill:none;stroke:#FFF9B3;stroke-width:2;stroke-miterlimit:10;" x1="42.188" y1="-45" x2="42.188" y2="0"/>
	</g>
</pattern>
<g>
	
		<pattern  id="SVGID_1_" xlink:href="#New_Pattern_6" patternTransform="matrix(0.7071 0.7071 -0.7071 0.7071 -7479.043 3232.1201)">
	</pattern>
	<path style="fill:url(#SVGID_1_);" d="M355.948,165.948c-4.559,4.559-13.054,3.849-18.382,6.929
		c-5.512,3.187-9.172,10.858-15.185,12.463c-6.098,1.628-13.111-3.22-19.382-3.22s-13.284,4.848-19.382,3.22
		c-6.012-1.604-9.672-9.276-15.185-12.463c-5.328-3.081-13.823-2.37-18.381-6.929s-3.848-13.054-6.928-18.382
		c-3.187-5.512-10.859-9.172-12.464-15.185c-1.628-6.098,3.22-13.111,3.22-19.382s-4.849-13.284-3.22-19.383
		c1.605-6.012,9.277-9.672,12.464-15.184c3.081-5.328,2.37-13.823,6.928-18.381c4.559-4.559,13.054-3.848,18.382-6.928
		c5.513-3.188,9.173-10.859,15.185-12.464c6.099-1.628,13.112,3.221,19.382,3.221s13.284-4.848,19.382-3.22
		c6.013,1.605,9.672,9.277,15.185,12.464c5.327,3.081,13.822,2.37,18.381,6.928c4.559,4.559,3.849,13.054,6.929,18.382
		c3.188,5.513,10.858,9.173,12.464,15.185c1.628,6.099-3.221,13.112-3.221,19.383c0,6.27,4.848,13.283,3.22,19.382
		c-1.604,6.012-9.276,9.672-12.463,15.185C359.796,152.895,360.507,161.39,355.948,165.948z"/>
	<path style="fill:none;stroke:#4D91FF;stroke-miterlimit:10;" d="M355.948,165.948c-4.559,4.559-13.054,3.849-18.382,6.929
		c-5.512,3.187-9.172,10.858-15.185,12.463c-6.098,1.628-13.111-3.22-19.382-3.22s-13.284,4.848-19.382,3.22
		c-6.012-1.604-9.672-9.276-15.185-12.463c-5.328-3.081-13.823-2.37-18.381-6.929s-3.848-13.054-6.928-18.382
		c-3.187-5.512-10.859-9.172-12.464-15.185c-1.628-6.098,3.22-13.111,3.22-19.382s-4.849-13.284-3.22-19.383
		c1.605-6.012,9.277-9.672,12.464-15.184c3.081-5.328,2.37-13.823,6.928-18.381c4.559-4.559,13.054-3.848,18.382-6.928
		c5.513-3.188,9.173-10.859,15.185-12.464c6.099-1.628,13.112,3.221,19.382,3.221s13.284-4.848,19.382-3.22
		c6.013,1.605,9.672,9.277,15.185,12.464c5.327,3.081,13.822,2.37,18.381,6.928c4.559,4.559,3.849,13.054,6.929,18.382
		c3.188,5.513,10.858,9.173,12.464,15.185c1.628,6.099-3.221,13.112-3.221,19.383c0,6.27,4.848,13.283,3.22,19.382
		c-1.604,6.012-9.276,9.672-12.463,15.185C359.796,152.895,360.507,161.39,355.948,165.948z"/>
</g>
<g>
	
		<line style="fill:none;stroke:#A8A8A8;stroke-width:2;stroke-linecap:round;stroke-linejoin:round;stroke-miterlimit:10;" x1="393" y1="23" x2="213" y2="203"/>
	
		<polyline style="fill:none;stroke:#A8A8A8;stroke-width:2;stroke-linecap:round;stroke-linejoin:round;stroke-miterlimit:10;" points="
		365.998,41 374.998,41 374.998,50 	"/>
	
		<polyline style="fill:none;stroke:#A8A8A8;stroke-width:2;stroke-linecap:round;stroke-linejoin:round;stroke-miterlimit:10;" points="
		240,185 231,185 231,176 	"/>
</g>
<g>
	
		<pattern  id="SVGID_2_" xlink:href="#New_Pattern_6" patternTransform="matrix(0.7071 0.7071 -0.1875 0.1875 -3733.4299 -704.4126)">
	</pattern>
	<path style="fill:url(#SVGID_2_);" d="M355.948,165.948c-2.299,2.299-7.745-2.469-13.46-4.395
		c-3.444-1.161-9.748,2.205-14.057-0.271c-3.422-1.967-3.968-9.167-7.774-11.87c-3.327-2.363-10.262-0.412-13.781-3.279
		c-3.224-2.626-2.752-9.817-6.061-12.822c-3.115-2.829-10.224-1.646-13.352-4.774c-3.126-3.126-1.943-10.234-4.771-13.348
		c-3.004-3.308-10.195-2.837-12.821-6.06c-2.869-3.521-0.918-10.457-3.282-13.786c-2.704-3.807-9.905-4.354-11.873-7.777
		c-2.477-4.31,0.889-10.612-0.271-14.057c-1.925-5.713-6.692-11.16-4.395-13.458c2.298-2.298,7.746,2.469,13.46,4.395
		c3.445,1.161,9.748-2.205,14.057,0.272c3.422,1.967,3.968,9.167,7.775,11.871c3.327,2.363,10.261,0.412,13.781,3.279
		c3.224,2.626,2.752,9.817,6.061,12.821c3.115,2.829,10.224,1.646,13.352,4.774c3.126,3.126,1.944,10.234,4.771,13.348
		c3.004,3.308,10.193,2.836,12.819,6.06c2.869,3.521,0.919,10.457,3.283,13.786c2.704,3.807,9.905,4.354,11.872,7.777
		c2.478,4.31-0.89,10.613,0.271,14.057C353.479,158.205,358.246,163.65,355.948,165.948z"/>
	<path style="fill:none;stroke:#52C5FF;stroke-miterlimit:10;" d="M355.948,165.948c-2.299,2.299-7.745-2.469-13.46-4.395
		c-3.444-1.161-9.748,2.205-14.057-0.271c-3.422-1.967-3.968-9.167-7.774-11.87c-3.327-2.363-10.262-0.412-13.781-3.279
		c-3.224-2.626-2.752-9.817-6.061-12.822c-3.115-2.829-10.224-1.646-13.352-4.774c-3.126-3.126-1.943-10.234-4.771-13.348
		c-3.004-3.308-10.195-2.837-12.821-6.06c-2.869-3.521-0.918-10.457-3.282-13.786c-2.704-3.807-9.905-4.354-11.873-7.777
		c-2.477-4.31,0.889-10.612-0.271-14.057c-1.925-5.713-6.692-11.16-4.395-13.458c2.298-2.298,7.746,2.469,13.46,4.395
		c3.445,1.161,9.748-2.205,14.057,0.272c3.422,1.967,3.968,9.167,7.775,11.871c3.327,2.363,10.261,0.412,13.781,3.279
		c3.224,2.626,2.752,9.817,6.061,12.821c3.115,2.829,10.224,1.646,13.352,4.774c3.126,3.126,1.944,10.234,4.771,13.348
		c3.004,3.308,10.193,2.836,12.819,6.06c2.869,3.521,0.919,10.457,3.283,13.786c2.704,3.807,9.905,4.354,11.872,7.777
		c2.478,4.31-0.89,10.613,0.271,14.057C353.479,158.205,358.246,163.65,355.948,165.948z"/>
</g>
<g>
	
		<pattern  id="SVGID_3_" xlink:href="#New_Pattern_6" patternTransform="matrix(0.1875 0.1875 -0.7071 0.7071 -11389.5898 -869.3545)">
	</pattern>
	<path style="fill:url(#SVGID_3_);" d="M318.536,128.537c-3.126,3.126-10.234,1.943-13.348,4.771
		c-3.308,3.004-2.836,10.194-6.06,12.82c-3.521,2.868-10.457,0.919-13.785,3.283c-3.808,2.704-4.355,9.904-7.777,11.872
		c-4.31,2.477-10.612-0.89-14.057,0.271c-5.713,1.925-11.16,6.692-13.458,4.395c-2.298-2.299,2.469-7.745,4.395-13.46
		c1.161-3.444-2.205-9.748,0.271-14.057c1.967-3.422,9.168-3.969,11.872-7.774c2.363-3.328,0.411-10.262,3.278-13.781
		c2.626-3.224,9.817-2.753,12.822-6.062c2.829-3.115,1.646-10.224,4.774-13.352c3.126-3.126,10.234-1.943,13.348-4.771
		c3.309-3.004,2.836-10.195,6.059-12.821c3.521-2.869,10.458-0.918,13.787-3.282c3.807-2.704,4.354-9.905,7.776-11.873
		c4.309-2.477,10.613,0.889,14.058-0.271c5.713-1.925,11.159-6.691,13.457-4.394c2.298,2.298-2.47,7.745-4.396,13.459
		c-1.161,3.445,2.206,9.749-0.271,14.057c-1.967,3.422-9.168,3.968-11.871,7.775c-2.363,3.328-0.411,10.261-3.278,13.781
		c-2.626,3.224-9.816,2.753-12.82,6.062C320.482,118.3,321.664,125.41,318.536,128.537z"/>
	<path style="fill:none;stroke:#555EFF;stroke-miterlimit:10;" d="M318.536,128.537c-3.126,3.126-10.234,1.943-13.348,4.771
		c-3.308,3.004-2.836,10.194-6.06,12.82c-3.521,2.868-10.457,0.919-13.785,3.283c-3.808,2.704-4.355,9.904-7.777,11.872
		c-4.31,2.477-10.612-0.89-14.057,0.271c-5.713,1.925-11.16,6.692-13.458,4.395c-2.298-2.299,2.469-7.745,4.395-13.46
		c1.161-3.444-2.205-9.748,0.271-14.057c1.967-3.422,9.168-3.969,11.872-7.774c2.363-3.328,0.411-10.262,3.278-13.781
		c2.626-3.224,9.817-2.753,12.822-6.062c2.829-3.115,1.646-10.224,4.774-13.352c3.126-3.126,10.234-1.943,13.348-4.771
		c3.309-3.004,2.836-10.195,6.059-12.821c3.521-2.869,10.458-0.918,13.787-3.282c3.807-2.704,4.354-9.905,7.776-11.873
		c4.309-2.477,10.613,0.889,14.058-0.271c5.713-1.925,11.159-6.691,13.457-4.394c2.298,2.298-2.47,7.745-4.396,13.459
		c-1.161,3.445,2.206,9.749-0.271,14.057c-1.967,3.422-9.168,3.968-11.871,7.775c-2.363,3.328-0.411,10.261-3.278,13.781
		c-2.626,3.224-9.816,2.753-12.82,6.062C320.482,118.3,321.664,125.41,318.536,128.537z"/>
</g>
<g>
	
		<line style="fill:none;stroke:#DDDDDD;stroke-width:2;stroke-linecap:round;stroke-linejoin:round;stroke-miterlimit:10;" x1="213" y1="23" x2="393" y2="203"/>
	
		<polyline style="fill:none;stroke:#DDDDDD;stroke-width:2;stroke-linecap:round;stroke-linejoin:round;stroke-miterlimit:10;" points="
		240,41 240,50 231,50 	"/>
	
		<polyline style="fill:none;stroke:#DDDDDD;stroke-width:2;stroke-linecap:round;stroke-linejoin:round;stroke-miterlimit:10;" points="
		366.001,184.999 366.001,175.999 375.001,175.999 	"/>
</g>
<circle style="fill:#F72F2F;" cx="303" cy="113" r="9"/>
<g>
	
		<pattern  id="SVGID_4_" xlink:href="#New_Pattern_6" patternTransform="matrix(0.7071 0.7071 -0.7071 0.7071 -7495.124 3232.1201)">
	</pattern>
	<path style="fill:url(#SVGID_4_);" d="M148.949,165.948c-4.559,4.559-13.054,3.849-18.382,6.929
		c-5.513,3.187-9.173,10.858-15.185,12.463c-6.099,1.628-13.112-3.22-19.382-3.22c-6.27,0-13.283,4.848-19.382,3.22
		c-6.012-1.604-9.672-9.276-15.185-12.463c-5.328-3.081-13.823-2.37-18.381-6.929s-3.848-13.054-6.928-18.382
		c-3.187-5.512-10.859-9.172-12.464-15.185c-1.628-6.098,3.22-13.111,3.22-19.382s-4.849-13.284-3.22-19.383
		c1.605-6.012,9.277-9.672,12.464-15.184c3.081-5.328,2.37-13.823,6.928-18.381c4.559-4.559,13.054-3.848,18.382-6.928
		c5.513-3.188,9.173-10.859,15.185-12.464c6.099-1.628,13.112,3.221,19.382,3.221c6.27,0,13.283-4.848,19.382-3.22
		c6.012,1.605,9.672,9.277,15.185,12.464c5.328,3.081,13.823,2.37,18.381,6.928c4.558,4.559,3.848,13.054,6.928,18.382
		c3.187,5.513,10.859,9.173,12.464,15.185c1.628,6.099-3.221,13.111-3.221,19.382s4.849,13.284,3.22,19.382
		c-1.605,6.012-9.277,9.672-12.464,15.185C152.796,152.895,153.507,161.39,148.949,165.948z"/>
	<path style="fill:none;stroke:#5277FF;stroke-miterlimit:10;" d="M148.949,165.948c-4.559,4.559-13.054,3.849-18.382,6.929
		c-5.513,3.187-9.173,10.858-15.185,12.463c-6.099,1.628-13.112-3.22-19.382-3.22c-6.27,0-13.283,4.848-19.382,3.22
		c-6.012-1.604-9.672-9.276-15.185-12.463c-5.328-3.081-13.823-2.37-18.381-6.929s-3.848-13.054-6.928-18.382
		c-3.187-5.512-10.859-9.172-12.464-15.185c-1.628-6.098,3.22-13.111,3.22-19.382s-4.849-13.284-3.22-19.383
		c1.605-6.012,9.277-9.672,12.464-15.184c3.081-5.328,2.37-13.823,6.928-18.381c4.559-4.559,13.054-3.848,18.382-6.928
		c5.513-3.188,9.173-10.859,15.185-12.464c6.099-1.628,13.112,3.221,19.382,3.221c6.27,0,13.283-4.848,19.382-3.22
		c6.012,1.605,9.672,9.277,15.185,12.464c5.328,3.081,13.823,2.37,18.381,6.928c4.558,4.559,3.848,13.054,6.928,18.382
		c3.187,5.513,10.859,9.173,12.464,15.185c1.628,6.099-3.221,13.111-3.221,19.382s4.849,13.284,3.22,19.382
		c-1.605,6.012-9.277,9.672-12.464,15.185C152.796,152.895,153.507,161.39,148.949,165.948z"/>
</g>
<g>
	
		<line style="fill:none;stroke:#DDDDDD;stroke-width:2;stroke-linecap:round;stroke-linejoin:round;stroke-miterlimit:10;" x1="6" y1="23" x2="186" y2="203"/>
	
		<polyline style="fill:none;stroke:#DDDDDD;stroke-width:2;stroke-linecap:round;stroke-linejoin:round;stroke-miterlimit:10;" points="
		33,41 33,50 24,50 	"/>
	
		<polyline style="fill:none;stroke:#DDDDDD;stroke-width:2;stroke-linecap:round;stroke-linejoin:round;stroke-miterlimit:10;" points="
		159.001,184.999 159.001,175.999 168.001,175.999 	"/>
</g>
<g>
	
		<line style="fill:none;stroke:#A8A8A8;stroke-width:2;stroke-linecap:round;stroke-linejoin:round;stroke-miterlimit:10;" x1="186" y1="23" x2="6" y2="203"/>
	
		<polyline style="fill:none;stroke:#A8A8A8;stroke-width:2;stroke-linecap:round;stroke-linejoin:round;stroke-miterlimit:10;" points="
		158.998,41 167.998,41 167.998,50 	"/>
	
		<polyline style="fill:none;stroke:#A8A8A8;stroke-width:2;stroke-linecap:round;stroke-linejoin:round;stroke-miterlimit:10;" points="
		33,185 24,185 24,176 	"/>
</g>
<circle style="fill:#F27C7C;" cx="96" cy="113" r="9"/>
<g>
	
		<pattern  id="SVGID_5_" xlink:href="#New_Pattern_6" patternTransform="matrix(0.7071 0.7071 -0.7071 0.7071 -7462.9619 3232.1201)">
	</pattern>
	<path style="fill:url(#SVGID_5_);" d="M562.948,165.948c-4.559,4.559-13.054,3.849-18.382,6.929
		c-5.512,3.188-9.172,10.858-15.185,12.464c-6.098,1.628-13.111-3.221-19.382-3.221s-13.284,4.848-19.383,3.22
		c-6.012-1.604-9.672-9.276-15.185-12.463c-5.327-3.081-13.822-2.37-18.381-6.929s-3.849-13.054-6.929-18.382
		c-3.187-5.512-10.858-9.173-12.463-15.185c-1.628-6.099,3.22-13.111,3.22-19.382s-4.848-13.284-3.22-19.382
		c1.604-6.012,9.276-9.672,12.463-15.185c3.081-5.328,2.37-13.823,6.929-18.381c4.559-4.559,13.054-3.848,18.382-6.928
		c5.512-3.188,9.172-10.859,15.185-12.464c6.098-1.628,13.112,3.221,19.383,3.221s13.283-4.848,19.382-3.22
		c6.012,1.605,9.672,9.277,15.185,12.464c5.327,3.081,13.822,2.37,18.381,6.928c4.559,4.559,3.849,13.054,6.929,18.382
		c3.188,5.513,10.858,9.173,12.464,15.185c1.628,6.099-3.221,13.112-3.221,19.382c0,6.271,4.848,13.284,3.22,19.382
		c-1.604,6.012-9.276,9.672-12.463,15.185C566.796,152.895,567.507,161.39,562.948,165.948z"/>
	<path style="fill:none;stroke:#52C5FF;stroke-miterlimit:10;" d="M562.948,165.948c-4.559,4.559-13.054,3.849-18.382,6.929
		c-5.512,3.188-9.172,10.858-15.185,12.464c-6.098,1.628-13.111-3.221-19.382-3.221s-13.284,4.848-19.383,3.22
		c-6.012-1.604-9.672-9.276-15.185-12.463c-5.327-3.081-13.822-2.37-18.381-6.929s-3.849-13.054-6.929-18.382
		c-3.187-5.512-10.858-9.173-12.463-15.185c-1.628-6.099,3.22-13.111,3.22-19.382s-4.848-13.284-3.22-19.382
		c1.604-6.012,9.276-9.672,12.463-15.185c3.081-5.328,2.37-13.823,6.929-18.381c4.559-4.559,13.054-3.848,18.382-6.928
		c5.512-3.188,9.172-10.859,15.185-12.464c6.098-1.628,13.112,3.221,19.383,3.221s13.283-4.848,19.382-3.22
		c6.012,1.605,9.672,9.277,15.185,12.464c5.327,3.081,13.822,2.37,18.381,6.928c4.559,4.559,3.849,13.054,6.929,18.382
		c3.188,5.513,10.858,9.173,12.464,15.185c1.628,6.099-3.221,13.112-3.221,19.382c0,6.271,4.848,13.284,3.22,19.382
		c-1.604,6.012-9.276,9.672-12.463,15.185C566.796,152.895,567.507,161.39,562.948,165.948z"/>
</g>
<g>
	
		<line style="fill:none;stroke:#DDDDDD;stroke-width:2;stroke-linecap:round;stroke-linejoin:round;stroke-miterlimit:10;" x1="420" y1="23" x2="600" y2="203"/>
	
		<polyline style="fill:none;stroke:#DDDDDD;stroke-width:2;stroke-linecap:round;stroke-linejoin:round;stroke-miterlimit:10;" points="
		447,41 447,50 438,50 	"/>
	
		<polyline style="fill:none;stroke:#DDDDDD;stroke-width:2;stroke-linecap:round;stroke-linejoin:round;stroke-miterlimit:10;" points="
		573.001,184.999 573.001,175.999 582.001,175.999 	"/>
</g>
<g>
	
		<line style="fill:none;stroke:#A8A8A8;stroke-width:2;stroke-linecap:round;stroke-linejoin:round;stroke-miterlimit:10;" x1="600" y1="23" x2="420" y2="203"/>
	
		<polyline style="fill:none;stroke:#A8A8A8;stroke-width:2;stroke-linecap:round;stroke-linejoin:round;stroke-miterlimit:10;" points="
		572.998,41 581.998,41 581.998,50 	"/>
	
		<polyline style="fill:none;stroke:#A8A8A8;stroke-width:2;stroke-linecap:round;stroke-linejoin:round;stroke-miterlimit:10;" points="
		447,185 438,185 438,176 	"/>
</g>
<circle style="fill:#F27C7C;" cx="510" cy="113" r="9"/>
<g>
	<g>
		<path style="fill:none;stroke:#555EFF;stroke-miterlimit:10;" d="M105,23c24.339-17.849,145.213-26.848,179.154-0.674"/>
		<g>
			<polygon style="fill:#555EFF;" points="279.037,23.712 278.917,22.718 283.813,22.135 282.874,17.294 283.857,17.104 285,23.001 
							"/>
		</g>
	</g>
</g>
<g>
	<g>
		<path style="fill:none;stroke:#52C5FF;stroke-miterlimit:10;" d="M510,203.959c-24.338,17.849-145.214,26.848-179.154,0.675"/>
		<g>
			<polygon style="fill:#52C5FF;" points="335.963,203.247 336.083,204.241 331.187,204.823 332.126,209.665 331.143,209.854 
				330.001,203.958 			"/>
		</g>
	</g>
</g>
<g>
	<g>
		<line style="fill:none;stroke:#F72F2F;stroke-miterlimit:10;" x1="6" y1="257" x2="598.916" y2="257"/>
		<g>
			<polygon style="fill:#F72F2F;" points="595.602,261.09 594.92,260.357 598.531,257.001 594.92,253.644 595.602,252.911 
				600,257.001 			"/>
		</g>
	</g>
</g>
<g>
	<rect x="6" y="262" style="fill:none;" width="81" height="27"/>
	<path d="M6.48,263.696v-1.12h8.112v1.12h-3.424v8.704H9.904v-8.704H6.48z"/>
	<path d="M18.784,262.576v9.824H17.52v-9.824H18.784z"/>
	<path d="M27.568,272.4h-0.864l-3.104-7.488v7.488h-1.2v-9.824h1.424l3.328,8.064l3.312-8.064h1.376v9.824h-1.2v-7.488L27.568,272.4
		z"/>
	<path d="M35.456,262.576h6.256v1.12h-5.008v3.104h4.544v1.119h-4.544v3.345h5.008v1.136h-6.256V262.576z"/>
</g>
<g>
</g>
<g>
</g>
<g>
</g>
<g>
</g>
<g>
</g>
<g>
</g>
<g>
</g>
</svg>
