<?xml version="1.0" encoding="utf-8"?>
<!-- Generator: Adobe Illustrator 16.0.0, SVG Export Plug-In . SVG Version: 6.00 Build 0)  -->
<!DOCTYPE svg PUBLIC "-//W3C//DTD SVG 1.1 Tiny//EN" "http://www.w3.org/Graphics/SVG/1.1/DTD/svg11-tiny.dtd">
<svg version="1.1" baseProfile="tiny" id="Layer_1" xmlns="http://www.w3.org/2000/svg" xmlns:xlink="http://www.w3.org/1999/xlink"
	 x="0px" y="0px" width="325px" height="180px" viewBox="0 0 325 180" xml:space="preserve">
<ellipse fill="none" stroke="#231F20" stroke-width="0.75" stroke-miterlimit="10" cx="161.839" cy="89.428" rx="154.25" ry="82.048"/>
<g>
	<path d="M91.676,76.472c0-0.583-0.452-0.885-0.941-0.885c-0.658,0-1.392,0.546-1.392,1.524c0,1.129,1.11,1.75,2.164,1.75
		c1.393,0,2.408-1.506,2.86-2.465c0.809-1.6,1.393-4.666,1.411-4.854l1.524-8.034h2.183c0.508,0,0.771,0,0.771-0.508
		c0-0.282-0.264-0.282-0.696-0.282h-2.107l0.545-2.897c0.094-0.527,0.452-2.333,0.602-2.634c0.226-0.489,0.659-0.866,1.204-0.866
		c0.094,0,0.752,0,1.242,0.452c-1.129,0.112-1.374,0.997-1.374,1.373c0,0.583,0.452,0.885,0.941,0.885
		c0.659,0,1.392-0.564,1.392-1.524c0-1.166-1.167-1.75-2.201-1.75c-0.865,0-2.465,0.452-3.236,2.973
		c-0.151,0.527-0.226,0.791-0.828,3.989h-1.75c-0.489,0-0.771,0-0.771,0.471c0,0.319,0.226,0.319,0.715,0.319h1.674l-1.9,10.01
		c-0.451,2.465-0.884,4.779-2.201,4.779c-0.113,0-0.752,0-1.223-0.452C91.45,77.77,91.676,76.848,91.676,76.472z"/>
	<path d="M111.958,57.13c0-0.301-0.226-0.564-0.546-0.564c-0.132,0-0.169,0-0.376,0.169l-2.408,1.6l0.264-2.615
		c0.038-0.32,0-0.753-0.527-0.753c-0.226,0-0.564,0.132-0.564,0.527c0,0.15,0.075,0.677,0.094,0.865
		c0.038,0.301,0.169,1.58,0.207,1.976l-2.408-1.6c-0.169-0.112-0.226-0.169-0.376-0.169c-0.32,0-0.545,0.264-0.545,0.564
		c0,0.357,0.207,0.451,0.357,0.526l2.672,1.11c-1.449,0.64-2.107,0.885-2.54,1.092c-0.339,0.15-0.489,0.226-0.489,0.563
		c0,0.282,0.226,0.564,0.545,0.564c0.113,0,0.151,0,0.376-0.169l2.408-1.6L107.8,62.06c0,0.395,0.338,0.526,0.564,0.526
		c0.207,0,0.545-0.132,0.545-0.526c0-0.15-0.075-0.696-0.094-0.866c-0.038-0.301-0.15-1.58-0.188-1.976l2.126,1.411
		c0.452,0.357,0.489,0.357,0.659,0.357c0.32,0,0.546-0.263,0.546-0.564c0-0.357-0.226-0.451-0.376-0.526l-2.672-1.11
		c1.449-0.64,2.107-0.884,2.54-1.109C111.789,57.544,111.958,57.469,111.958,57.13z"/>
</g>
<rect x="146" y="77.73" fill="none" stroke="#386DF9" stroke-miterlimit="10" width="45" height="45"/>
<g>
	<g>
		
			<line fill="none" stroke="#386DF9" stroke-linecap="round" stroke-miterlimit="10" x1="191" y1="77.73" x2="190.293" y2="78.438"/>
		
			<line fill="none" stroke="#386DF9" stroke-linecap="round" stroke-miterlimit="10" stroke-dasharray="1.9884,1.9884" x1="188.887" y1="79.844" x2="147.411" y2="121.32"/>
		
			<line fill="none" stroke="#386DF9" stroke-linecap="round" stroke-miterlimit="10" x1="146.708" y1="122.023" x2="146" y2="122.73"/>
	</g>
	<g>
		
			<line fill="none" stroke="#386DF9" stroke-linecap="round" stroke-miterlimit="10" x1="187" y1="77.73" x2="186.293" y2="78.438"/>
		
			<line fill="none" stroke="#386DF9" stroke-linecap="round" stroke-miterlimit="10" stroke-dasharray="1.9304,1.9304" x1="184.928" y1="79.803" x2="147.391" y2="117.341"/>
		
			<line fill="none" stroke="#386DF9" stroke-linecap="round" stroke-miterlimit="10" x1="146.708" y1="118.023" x2="146.001" y2="118.73"/>
	</g>
	<g>
		
			<line fill="none" stroke="#386DF9" stroke-linecap="round" stroke-miterlimit="10" x1="183" y1="77.73" x2="182.293" y2="78.438"/>
		
			<line fill="none" stroke="#386DF9" stroke-linecap="round" stroke-miterlimit="10" stroke-dasharray="2.013,2.013" x1="180.869" y1="79.861" x2="147.42" y2="113.312"/>
		
			<line fill="none" stroke="#386DF9" stroke-linecap="round" stroke-miterlimit="10" x1="146.708" y1="114.023" x2="146.001" y2="114.73"/>
	</g>
	<g>
		
			<line fill="none" stroke="#386DF9" stroke-linecap="round" stroke-miterlimit="10" x1="179" y1="77.73" x2="178.293" y2="78.438"/>
		
			<line fill="none" stroke="#386DF9" stroke-linecap="round" stroke-miterlimit="10" stroke-dasharray="1.9421,1.9421" x1="176.92" y1="79.811" x2="147.394" y2="109.337"/>
		
			<line fill="none" stroke="#386DF9" stroke-linecap="round" stroke-miterlimit="10" x1="146.708" y1="110.023" x2="146" y2="110.73"/>
	</g>
	<g>
		
			<line fill="none" stroke="#386DF9" stroke-linecap="round" stroke-miterlimit="10" x1="175" y1="77.73" x2="174.293" y2="78.438"/>
		
			<line fill="none" stroke="#386DF9" stroke-linecap="round" stroke-miterlimit="10" stroke-dasharray="2.0533,2.0533" x1="172.842" y1="79.89" x2="147.434" y2="105.297"/>
		
			<line fill="none" stroke="#386DF9" stroke-linecap="round" stroke-miterlimit="10" x1="146.708" y1="106.023" x2="146" y2="106.73"/>
	</g>
	<g>
		
			<line fill="none" stroke="#386DF9" stroke-linecap="round" stroke-miterlimit="10" x1="171" y1="77.73" x2="170.293" y2="78.437"/>
		
			<line fill="none" stroke="#386DF9" stroke-linecap="round" stroke-miterlimit="10" stroke-dasharray="1.962,1.962" x1="168.905" y1="79.825" x2="147.401" y2="101.329"/>
		
			<line fill="none" stroke="#386DF9" stroke-linecap="round" stroke-miterlimit="10" x1="146.708" y1="102.023" x2="146" y2="102.73"/>
	</g>
	<g>
		
			<line fill="none" stroke="#386DF9" stroke-linecap="round" stroke-miterlimit="10" x1="167" y1="77.73" x2="166.293" y2="78.438"/>
		
			<line fill="none" stroke="#386DF9" stroke-linecap="round" stroke-miterlimit="10" stroke-dasharray="2.1307,2.1307" x1="164.786" y1="79.944" x2="147.46" y2="97.27"/>
		
			<line fill="none" stroke="#386DF9" stroke-linecap="round" stroke-miterlimit="10" x1="146.707" y1="98.023" x2="146" y2="98.73"/>
	</g>
	<g>
		
			<line fill="none" stroke="#386DF9" stroke-linecap="round" stroke-miterlimit="10" x1="163" y1="77.73" x2="162.293" y2="78.438"/>
		
			<line fill="none" stroke="#386DF9" stroke-linecap="round" stroke-miterlimit="10" stroke-dasharray="2.0037,2.0037" x1="160.876" y1="79.854" x2="147.416" y2="93.314"/>
		
			<line fill="none" stroke="#386DF9" stroke-linecap="round" stroke-miterlimit="10" x1="146.708" y1="94.022" x2="146" y2="94.729"/>
	</g>
	<g>
		
			<line fill="none" stroke="#386DF9" stroke-linecap="round" stroke-miterlimit="10" x1="159" y1="77.73" x2="158.293" y2="78.438"/>
		
			<line fill="none" stroke="#386DF9" stroke-linecap="round" stroke-miterlimit="10" stroke-dasharray="1.8205,1.8205" x1="157.006" y1="79.725" x2="147.352" y2="89.38"/>
		
			<line fill="none" stroke="#386DF9" stroke-linecap="round" stroke-miterlimit="10" x1="146.708" y1="90.023" x2="146.001" y2="90.73"/>
	</g>
	<g>
		
			<line fill="none" stroke="#386DF9" stroke-linecap="round" stroke-miterlimit="10" x1="155" y1="77.731" x2="154.293" y2="78.438"/>
		
			<line fill="none" stroke="#386DF9" stroke-linecap="round" stroke-miterlimit="10" stroke-dasharray="2.1454,2.1454" x1="152.776" y1="79.955" x2="147.466" y2="85.265"/>
		
			<line fill="none" stroke="#386DF9" stroke-linecap="round" stroke-miterlimit="10" x1="146.708" y1="86.023" x2="146" y2="86.73"/>
	</g>
	<g>
		
			<line fill="none" stroke="#386DF9" stroke-linecap="round" stroke-miterlimit="10" x1="151" y1="77.73" x2="150.293" y2="78.438"/>
		
			<line fill="none" stroke="#386DF9" stroke-linecap="round" stroke-miterlimit="10" stroke-dasharray="1.6904,1.6904" x1="149.098" y1="79.633" x2="147.305" y2="81.426"/>
		
			<line fill="none" stroke="#386DF9" stroke-linecap="round" stroke-miterlimit="10" x1="146.707" y1="82.023" x2="146" y2="82.73"/>
	</g>
	<g>
		
			<line fill="none" stroke="#386DF9" stroke-linecap="round" stroke-miterlimit="10" x1="191" y1="117.73" x2="190.293" y2="118.438"/>
		
			<line fill="none" stroke="#386DF9" stroke-linecap="round" stroke-miterlimit="10" stroke-dasharray="1.6904,1.6904" x1="189.098" y1="119.633" x2="187.305" y2="121.426"/>
		
			<line fill="none" stroke="#386DF9" stroke-linecap="round" stroke-miterlimit="10" x1="186.707" y1="122.023" x2="186" y2="122.73"/>
	</g>
	<g>
		
			<line fill="none" stroke="#386DF9" stroke-linecap="round" stroke-miterlimit="10" x1="191" y1="113.73" x2="190.293" y2="114.438"/>
		
			<line fill="none" stroke="#386DF9" stroke-linecap="round" stroke-miterlimit="10" stroke-dasharray="2.1456,2.1456" x1="188.775" y1="115.955" x2="183.466" y2="121.265"/>
		
			<line fill="none" stroke="#386DF9" stroke-linecap="round" stroke-miterlimit="10" x1="182.707" y1="122.023" x2="182" y2="122.73"/>
	</g>
	<g>
		
			<line fill="none" stroke="#386DF9" stroke-linecap="round" stroke-miterlimit="10" x1="191" y1="109.73" x2="190.293" y2="110.438"/>
		
			<line fill="none" stroke="#386DF9" stroke-linecap="round" stroke-miterlimit="10" stroke-dasharray="1.8205,1.8205" x1="189.006" y1="111.725" x2="179.351" y2="121.38"/>
		
			<line fill="none" stroke="#386DF9" stroke-linecap="round" stroke-miterlimit="10" x1="178.707" y1="122.023" x2="178" y2="122.73"/>
	</g>
	<g>
		
			<line fill="none" stroke="#386DF9" stroke-linecap="round" stroke-miterlimit="10" x1="191" y1="105.73" x2="190.293" y2="106.438"/>
		
			<line fill="none" stroke="#386DF9" stroke-linecap="round" stroke-miterlimit="10" stroke-dasharray="2.0038,2.0038" x1="188.876" y1="107.855" x2="175.416" y2="121.314"/>
		
			<line fill="none" stroke="#386DF9" stroke-linecap="round" stroke-miterlimit="10" x1="174.707" y1="122.023" x2="174" y2="122.73"/>
	</g>
	<g>
		
			<line fill="none" stroke="#386DF9" stroke-linecap="round" stroke-miterlimit="10" x1="191" y1="101.73" x2="190.293" y2="102.438"/>
		
			<line fill="none" stroke="#386DF9" stroke-linecap="round" stroke-miterlimit="10" stroke-dasharray="2.1306,2.1306" x1="188.786" y1="103.944" x2="171.461" y2="121.271"/>
		
			<line fill="none" stroke="#386DF9" stroke-linecap="round" stroke-miterlimit="10" x1="170.707" y1="122.023" x2="170" y2="122.73"/>
	</g>
	<g>
		
			<line fill="none" stroke="#386DF9" stroke-linecap="round" stroke-miterlimit="10" x1="191" y1="97.73" x2="190.293" y2="98.438"/>
		
			<line fill="none" stroke="#386DF9" stroke-linecap="round" stroke-miterlimit="10" stroke-dasharray="1.9621,1.9621" x1="188.906" y1="99.825" x2="167.401" y2="121.33"/>
		
			<line fill="none" stroke="#386DF9" stroke-linecap="round" stroke-miterlimit="10" x1="166.707" y1="122.023" x2="166" y2="122.73"/>
	</g>
	<g>
		
			<line fill="none" stroke="#386DF9" stroke-linecap="round" stroke-miterlimit="10" x1="191" y1="93.73" x2="190.293" y2="94.438"/>
		
			<line fill="none" stroke="#386DF9" stroke-linecap="round" stroke-miterlimit="10" stroke-dasharray="2.0533,2.0533" x1="188.841" y1="95.89" x2="163.434" y2="121.298"/>
		
			<line fill="none" stroke="#386DF9" stroke-linecap="round" stroke-miterlimit="10" x1="162.707" y1="122.023" x2="162" y2="122.73"/>
	</g>
	<g>
		
			<line fill="none" stroke="#386DF9" stroke-linecap="round" stroke-miterlimit="10" x1="191" y1="89.73" x2="190.293" y2="90.438"/>
		
			<line fill="none" stroke="#386DF9" stroke-linecap="round" stroke-miterlimit="10" stroke-dasharray="1.9421,1.9421" x1="188.92" y1="91.811" x2="159.394" y2="121.337"/>
		
			<line fill="none" stroke="#386DF9" stroke-linecap="round" stroke-miterlimit="10" x1="158.708" y1="122.023" x2="158" y2="122.73"/>
	</g>
	<g>
		
			<line fill="none" stroke="#386DF9" stroke-linecap="round" stroke-miterlimit="10" x1="191" y1="85.73" x2="190.293" y2="86.438"/>
		
			<line fill="none" stroke="#386DF9" stroke-linecap="round" stroke-miterlimit="10" stroke-dasharray="2.013,2.013" x1="188.869" y1="87.861" x2="155.419" y2="121.312"/>
		
			<line fill="none" stroke="#386DF9" stroke-linecap="round" stroke-miterlimit="10" x1="154.708" y1="122.023" x2="154" y2="122.73"/>
	</g>
	<g>
		
			<line fill="none" stroke="#386DF9" stroke-linecap="round" stroke-miterlimit="10" x1="191" y1="81.73" x2="190.293" y2="82.438"/>
		
			<line fill="none" stroke="#386DF9" stroke-linecap="round" stroke-miterlimit="10" stroke-dasharray="1.9304,1.9304" x1="188.928" y1="83.803" x2="151.391" y2="121.341"/>
		
			<line fill="none" stroke="#386DF9" stroke-linecap="round" stroke-miterlimit="10" x1="150.708" y1="122.023" x2="150.001" y2="122.73"/>
	</g>
</g>
<g>
</g>
<g>
</g>
<g>
</g>
<g>
</g>
<g>
</g>
<g>
</g>
</svg>
