<?xml version="1.0" encoding="utf-8"?>
<!-- Generator: Adobe Illustrator 16.0.0, SVG Export Plug-In . SVG Version: 6.00 Build 0)  -->
<!DOCTYPE svg PUBLIC "-//W3C//DTD SVG 1.1 Tiny//EN" "http://www.w3.org/Graphics/SVG/1.1/DTD/svg11-tiny.dtd">
<svg version="1.1" baseProfile="tiny" id="Layer_1" xmlns="http://www.w3.org/2000/svg" xmlns:xlink="http://www.w3.org/1999/xlink"
	 x="0px" y="0px" width="325px" height="180px" viewBox="0 0 325 180" overflow="auto" xml:space="preserve">
<ellipse fill="none" stroke="#231F20" stroke-width="0.75" stroke-miterlimit="10" cx="161.839" cy="89.266" rx="154.25" ry="82.048"/>
<g>
	<path d="M91.676,76.31c0-0.583-0.452-0.885-0.941-0.885c-0.658,0-1.392,0.546-1.392,1.524c0,1.129,1.11,1.75,2.164,1.75
		c1.393,0,2.408-1.506,2.86-2.465c0.809-1.6,1.393-4.666,1.411-4.854l1.524-8.034h2.183c0.508,0,0.771,0,0.771-0.508
		c0-0.282-0.264-0.282-0.696-0.282h-2.107l0.545-2.897c0.094-0.527,0.452-2.333,0.602-2.634c0.226-0.489,0.659-0.866,1.204-0.866
		c0.094,0,0.752,0,1.242,0.452c-1.129,0.112-1.374,0.997-1.374,1.373c0,0.583,0.452,0.885,0.941,0.885
		c0.659,0,1.392-0.564,1.392-1.524c0-1.166-1.167-1.75-2.201-1.75c-0.865,0-2.465,0.452-3.236,2.973
		c-0.151,0.527-0.226,0.791-0.828,3.989h-1.75c-0.489,0-0.771,0-0.771,0.471c0,0.319,0.226,0.319,0.715,0.319h1.674l-1.9,10.01
		c-0.451,2.465-0.884,4.779-2.201,4.779c-0.113,0-0.752,0-1.223-0.452C91.45,77.607,91.676,76.686,91.676,76.31z"/>
	<path d="M111.958,56.968c0-0.301-0.226-0.564-0.546-0.564c-0.132,0-0.169,0-0.376,0.169l-2.408,1.6l0.264-2.615
		c0.038-0.32,0-0.753-0.527-0.753c-0.226,0-0.564,0.132-0.564,0.527c0,0.15,0.075,0.677,0.094,0.865
		c0.038,0.301,0.169,1.58,0.207,1.976l-2.408-1.6c-0.169-0.112-0.226-0.169-0.376-0.169c-0.32,0-0.545,0.264-0.545,0.564
		c0,0.357,0.207,0.451,0.357,0.526l2.672,1.11c-1.449,0.64-2.107,0.885-2.54,1.092c-0.339,0.15-0.489,0.226-0.489,0.563
		c0,0.282,0.226,0.564,0.545,0.564c0.113,0,0.151,0,0.376-0.169l2.408-1.6l-0.301,2.842c0,0.395,0.338,0.526,0.564,0.526
		c0.207,0,0.545-0.132,0.545-0.526c0-0.15-0.075-0.696-0.094-0.866c-0.038-0.301-0.15-1.58-0.188-1.976l2.126,1.411
		c0.452,0.357,0.489,0.357,0.659,0.357c0.32,0,0.546-0.263,0.546-0.564c0-0.357-0.226-0.451-0.376-0.526l-2.672-1.11
		c1.449-0.64,2.107-0.884,2.54-1.109C111.789,57.382,111.958,57.307,111.958,56.968z"/>
</g>
<g>
</g>
<g>
</g>
<g>
</g>
<g>
</g>
<g>
</g>
<g>
</g>
</svg>
