<?xml version="1.0" encoding="utf-8" standalone="no"?>
<!DOCTYPE svg PUBLIC "-//W3C//DTD SVG 1.1//EN"
  "http://www.w3.org/Graphics/SVG/1.1/DTD/svg11.dtd">
<!-- Created with matplotlib (http://matplotlib.org/) -->
<svg height="514pt" version="1.1" viewBox="0 0 748 514" width="748pt" xmlns="http://www.w3.org/2000/svg" xmlns:xlink="http://www.w3.org/1999/xlink">
 <defs>
  <style type="text/css">
*{stroke-linecap:butt;stroke-linejoin:round;}
  </style>
 </defs>
 <g id="figure_1">
  <g id="patch_1">
   <path d="
M0 514.8
L748.8 514.8
L748.8 0
L0 0
z
" style="fill:#ffffff;"/>
  </g>
  <g id="axes_1">
   <g id="patch_2">
    <path d="
M93.6 450.45
L673.92 450.45
L673.92 51.48
L93.6 51.48
z
" style="fill:#eaeaf2;"/>
   </g>
   <g id="matplotlib.axis_1">
    <g id="xtick_1">
     <g id="line2d_1">
      <path clip-path="url(#pd831f6c710)" d="
M93.6 450.45
L93.6 51.48" style="fill:none;stroke:#ffffff;stroke-linecap:round;stroke-width:1.3;"/>
     </g>
     <g id="line2d_2">
      <defs>
       <path d="
M0 0
L0 0" id="m56cc5124a0" style="stroke:#262626;stroke-width:1.3;"/>
      </defs>
      <g>
       <use style="fill:#262626;stroke:#262626;stroke-width:1.3;" x="93.6" xlink:href="#m56cc5124a0" y="450.45"/>
      </g>
     </g>
     <g id="line2d_3">
      <g>
       <use style="fill:#262626;stroke:#262626;stroke-width:1.3;" x="93.6" xlink:href="#m56cc5124a0" y="51.48"/>
      </g>
     </g>
     <g id="text_1">
      <!-- −6 -->
      <defs>
       <path d="
M12.7031 19.5938
Q12.7031 13.5938 16.3906 9.6875
Q20.0938 5.79688 26 5.79688
Q31.7969 5.79688 35.5 9.64062
Q39.2031 13.5 39.2031 19.5938
Q39.2031 25.7031 35.5 29.6406
Q31.7969 33.5938 26 33.5938
Q20.0938 33.5938 16.3906 29.6875
Q12.7031 25.7969 12.7031 19.5938
M45.5938 47.0938
L37.7969 47.0938
Q35 55.7969 26.5 55.7969
Q19.7969 55.7969 15.3906 49.0469
Q11 42.2969 11 32.2969
Q11 32 11.0469 30.9531
Q11.0938 29.9062 11.0938 29.5938
Q12.5938 34.2969 16.8906 37.1875
Q21.2031 40.0938 26.5938 40.0938
Q35.2969 40.0938 40.8906 34.1406
Q46.5 28.2031 46.5 19.7031
Q46.5 11 40.7969 5.04688
Q35.0938 -0.90625 25.9062 -0.90625
Q13.4062 -0.90625 7.59375 10.7969
Q4 18.4062 4 29.5938
Q4 44.4062 10.25 53.3438
Q16.5 62.2969 26.5 62.2969
Q41.7031 62.2969 45.5938 47.0938" id="CalibreRegular-36"/>
       <path d="
M7.29688 26.5938
L7.29688 32.7969
L46.7031 32.7969
L46.7031 26.5938
z
" id="CalibreRegular-2212"/>
      </defs>
      <g style="fill:#262626;" transform="translate(86.9359765625 468.845)scale(0.14300000000000002 -0.14300000000000002)">
       <use xlink:href="#CalibreRegular-2212"/>
       <use x="53.99998474121094" xlink:href="#CalibreRegular-36"/>
      </g>
     </g>
    </g>
    <g id="xtick_2">
     <g id="line2d_4">
      <path clip-path="url(#pd831f6c710)" d="
M190.32 450.45
L190.32 51.48" style="fill:none;stroke:#ffffff;stroke-linecap:round;stroke-width:1.3;"/>
     </g>
     <g id="line2d_5">
      <g>
       <use style="fill:#262626;stroke:#262626;stroke-width:1.3;" x="190.32" xlink:href="#m56cc5124a0" y="450.45"/>
      </g>
     </g>
     <g id="line2d_6">
      <g>
       <use style="fill:#262626;stroke:#262626;stroke-width:1.3;" x="190.32" xlink:href="#m56cc5124a0" y="51.48"/>
      </g>
     </g>
     <g id="text_2">
      <!-- −4 -->
      <defs>
       <path d="
M33.7969 61.4062
L10.9062 20.5
L30.5 20.5
L30.5 35.2969
L37.7969 35.2969
L37.7969 20.5
L48.5938 20.5
L48.5938 13.9062
L37.7969 13.9062
L37.7969 0
L30.5 0
L30.5 13.9062
L2.20312 13.9062
L2.20312 19.5
L25.7969 61.4062
z
" id="CalibreRegular-34"/>
      </defs>
      <g style="fill:#262626;" transform="translate(183.506273438 468.845)scale(0.14300000000000002 -0.14300000000000002)">
       <use xlink:href="#CalibreRegular-2212"/>
       <use x="53.99998474121094" xlink:href="#CalibreRegular-34"/>
      </g>
     </g>
    </g>
    <g id="xtick_3">
     <g id="line2d_7">
      <path clip-path="url(#pd831f6c710)" d="
M287.04 450.45
L287.04 51.48" style="fill:none;stroke:#ffffff;stroke-linecap:round;stroke-width:1.3;"/>
     </g>
     <g id="line2d_8">
      <g>
       <use style="fill:#262626;stroke:#262626;stroke-width:1.3;" x="287.04" xlink:href="#m56cc5124a0" y="450.45"/>
      </g>
     </g>
     <g id="line2d_9">
      <g>
       <use style="fill:#262626;stroke:#262626;stroke-width:1.3;" x="287.04" xlink:href="#m56cc5124a0" y="51.48"/>
      </g>
     </g>
     <g id="text_3">
      <!-- −2 -->
      <defs>
       <path d="
M34.0938 44.9062
Q34.0938 49.5938 31.0938 52.4375
Q28.0938 55.2969 23 55.2969
Q17.5938 55.2969 14.5469 51.9375
Q11.5 48.5938 11 43
L2.90625 43
Q3.79688 51.7031 9.1875 57
Q14.5938 62.2969 23 62.2969
Q31.7031 62.2969 36.7031 57.5938
Q41.7031 52.9062 41.7031 45
Q41.7031 43.5938 41.3438 42.0938
Q41 40.5938 40.6406 39.5
Q40.2969 38.4062 39.3438 36.75
Q38.4062 35.0938 37.9062 34.2969
Q37.4062 33.5 35.9062 31.7031
Q34.4062 29.9062 33.9062 29.2969
Q33.4062 28.7031 31.5469 26.6406
Q29.7031 24.5938 29.2969 24.0938
L13.7031 7
L43 7
L43 0
L2.90625 0
L2.90625 5.20312
L22.7031 27
Q27.2031 32 28.7969 33.7969
Q30.4062 35.5938 32.25 38.8906
Q34.0938 42.2031 34.0938 44.9062" id="CalibreRegular-32"/>
      </defs>
      <g style="fill:#262626;" transform="translate(280.626226563 468.845)scale(0.14300000000000002 -0.14300000000000002)">
       <use xlink:href="#CalibreRegular-2212"/>
       <use x="53.99998474121094" xlink:href="#CalibreRegular-32"/>
      </g>
     </g>
    </g>
    <g id="xtick_4">
     <g id="line2d_10">
      <path clip-path="url(#pd831f6c710)" d="
M383.76 450.45
L383.76 51.48" style="fill:none;stroke:#ffffff;stroke-linecap:round;stroke-width:1.3;"/>
     </g>
     <g id="line2d_11">
      <g>
       <use style="fill:#262626;stroke:#262626;stroke-width:1.3;" x="383.76" xlink:href="#m56cc5124a0" y="450.45"/>
      </g>
     </g>
     <g id="line2d_12">
      <g>
       <use style="fill:#262626;stroke:#262626;stroke-width:1.3;" x="383.76" xlink:href="#m56cc5124a0" y="51.48"/>
      </g>
     </g>
     <g id="text_4">
      <!-- 0 -->
      <defs>
       <path d="
M49.7969 16.5938
Q37.0938 -0.90625 26.8906 -0.90625
Q16.7031 -0.90625 10.3438 7.84375
Q4 16.5938 4 30.6875
Q4 44.7969 10.3438 53.5469
Q16.7031 62.2969 26.8906 62.2969
Q37.0938 62.2969 43.4375 53.5469
Q49.7969 44.7969 49.7969 30.6875
Q49.7969 16.5938 37.0938 -0.90625
M26.9062 55.2031
Q19.5938 55.2031 15.6406 48.5
Q11.7031 41.7969 11.7031 30.6875
Q11.7031 19.5938 15.6406 12.8906
Q19.5938 6.20312 26.9062 6.20312
Q34.0938 6.20312 38.0938 12.9531
Q42.0938 19.7031 42.0938 30.7031
Q42.0938 41.7031 38.0938 48.4531
Q34.0938 55.2031 26.9062 55.2031" id="CalibreRegular-30"/>
      </defs>
      <g style="fill:#262626;" transform="translate(380.485523438 468.845)scale(0.14300000000000002 -0.14300000000000002)">
       <use xlink:href="#CalibreRegular-30"/>
      </g>
     </g>
    </g>
    <g id="xtick_5">
     <g id="line2d_13">
      <path clip-path="url(#pd831f6c710)" d="
M480.48 450.45
L480.48 51.48" style="fill:none;stroke:#ffffff;stroke-linecap:round;stroke-width:1.3;"/>
     </g>
     <g id="line2d_14">
      <g>
       <use style="fill:#262626;stroke:#262626;stroke-width:1.3;" x="480.48" xlink:href="#m56cc5124a0" y="450.45"/>
      </g>
     </g>
     <g id="line2d_15">
      <g>
       <use style="fill:#262626;stroke:#262626;stroke-width:1.3;" x="480.48" xlink:href="#m56cc5124a0" y="51.48"/>
      </g>
     </g>
     <g id="text_5">
      <!-- 2 -->
      <g style="fill:#262626;" transform="translate(477.613296875 468.845)scale(0.14300000000000002 -0.14300000000000002)">
       <use xlink:href="#CalibreRegular-32"/>
      </g>
     </g>
    </g>
    <g id="xtick_6">
     <g id="line2d_16">
      <path clip-path="url(#pd831f6c710)" d="
M577.2 450.45
L577.2 51.48" style="fill:none;stroke:#ffffff;stroke-linecap:round;stroke-width:1.3;"/>
     </g>
     <g id="line2d_17">
      <g>
       <use style="fill:#262626;stroke:#262626;stroke-width:1.3;" x="577.2" xlink:href="#m56cc5124a0" y="450.45"/>
      </g>
     </g>
     <g id="line2d_18">
      <g>
       <use style="fill:#262626;stroke:#262626;stroke-width:1.3;" x="577.2" xlink:href="#m56cc5124a0" y="51.48"/>
      </g>
     </g>
     <g id="text_6">
      <!-- 4 -->
      <g style="fill:#262626;" transform="translate(573.883070313 468.845)scale(0.14300000000000002 -0.14300000000000002)">
       <use xlink:href="#CalibreRegular-34"/>
      </g>
     </g>
    </g>
    <g id="xtick_7">
     <g id="line2d_19">
      <path clip-path="url(#pd831f6c710)" d="
M673.92 450.45
L673.92 51.48" style="fill:none;stroke:#ffffff;stroke-linecap:round;stroke-width:1.3;"/>
     </g>
     <g id="line2d_20">
      <g>
       <use style="fill:#262626;stroke:#262626;stroke-width:1.3;" x="673.92" xlink:href="#m56cc5124a0" y="450.45"/>
      </g>
     </g>
     <g id="line2d_21">
      <g>
       <use style="fill:#262626;stroke:#262626;stroke-width:1.3;" x="673.92" xlink:href="#m56cc5124a0" y="51.48"/>
      </g>
     </g>
     <g id="text_7">
      <!-- 6 -->
      <g style="fill:#262626;" transform="translate(670.88125 468.845)scale(0.14300000000000002 -0.14300000000000002)">
       <use xlink:href="#CalibreRegular-36"/>
      </g>
     </g>
    </g>
   </g>
   <g id="matplotlib.axis_2">
    <g id="ytick_1">
     <g id="line2d_22">
      <path clip-path="url(#pd831f6c710)" d="
M93.6 442.627
L673.92 442.627" style="fill:none;stroke:#ffffff;stroke-linecap:round;stroke-width:1.3;"/>
     </g>
     <g id="line2d_23">
      <g>
       <use style="fill:#262626;stroke:#262626;stroke-width:1.3;" x="93.6" xlink:href="#m56cc5124a0" y="442.627058824"/>
      </g>
     </g>
     <g id="line2d_24">
      <g>
       <use style="fill:#262626;stroke:#262626;stroke-width:1.3;" x="673.92" xlink:href="#m56cc5124a0" y="442.627058824"/>
      </g>
     </g>
     <g id="text_8">
      <!-- 0.0 -->
      <defs>
       <path d="
M6.29688 -0.5
Q3.20312 2.59375 3.20312 4.89062
Q3.20312 7.20312 4.75 8.79688
Q6.29688 10.4062 8.59375 10.4062
Q10.7969 10.4062 12.3438 8.79688
Q13.9062 7.20312 13.9062 4.89062
Q13.9062 2.59375 12.3438 1.04688
Q10.7969 -0.5 8.59375 -0.5
Q6.29688 -0.5 3.20312 2.59375" id="CalibreRegular-2e"/>
      </defs>
      <g style="fill:#262626;" transform="translate(67.8136875 446.059058824)scale(0.14300000000000002 -0.14300000000000002)">
       <use xlink:href="#CalibreRegular-30"/>
       <use x="53.79998779296875" xlink:href="#CalibreRegular-2e"/>
       <use x="70.89997863769531" xlink:href="#CalibreRegular-30"/>
      </g>
     </g>
    </g>
    <g id="ytick_2">
     <g id="line2d_25">
      <path clip-path="url(#pd831f6c710)" d="
M93.6 364.398
L673.92 364.398" style="fill:none;stroke:#ffffff;stroke-linecap:round;stroke-width:1.3;"/>
     </g>
     <g id="line2d_26">
      <g>
       <use style="fill:#262626;stroke:#262626;stroke-width:1.3;" x="93.6" xlink:href="#m56cc5124a0" y="364.397647059"/>
      </g>
     </g>
     <g id="line2d_27">
      <g>
       <use style="fill:#262626;stroke:#262626;stroke-width:1.3;" x="673.92" xlink:href="#m56cc5124a0" y="364.397647059"/>
      </g>
     </g>
     <g id="text_9">
      <!-- 0.1 -->
      <defs>
       <path d="
M25.4062 61.5
L25.4062 0
L17.7031 0
L17.7031 52
L2.5 44.2031
L2.5 52.2031
L20.7031 61.5
z
" id="CalibreRegular-31"/>
      </defs>
      <g style="fill:#262626;" transform="translate(71.301546875 367.829647059)scale(0.14300000000000002 -0.14300000000000002)">
       <use xlink:href="#CalibreRegular-30"/>
       <use x="53.79998779296875" xlink:href="#CalibreRegular-2e"/>
       <use x="70.89997863769531" xlink:href="#CalibreRegular-31"/>
      </g>
     </g>
    </g>
    <g id="ytick_3">
     <g id="line2d_28">
      <path clip-path="url(#pd831f6c710)" d="
M93.6 286.168
L673.92 286.168" style="fill:none;stroke:#ffffff;stroke-linecap:round;stroke-width:1.3;"/>
     </g>
     <g id="line2d_29">
      <g>
       <use style="fill:#262626;stroke:#262626;stroke-width:1.3;" x="93.6" xlink:href="#m56cc5124a0" y="286.168235294"/>
      </g>
     </g>
     <g id="line2d_30">
      <g>
       <use style="fill:#262626;stroke:#262626;stroke-width:1.3;" x="673.92" xlink:href="#m56cc5124a0" y="286.168235294"/>
      </g>
     </g>
     <g id="text_10">
      <!-- 0.2 -->
      <g style="fill:#262626;" transform="translate(68.785640625 289.600235294)scale(0.14300000000000002 -0.14300000000000002)">
       <use xlink:href="#CalibreRegular-30"/>
       <use x="53.79998779296875" xlink:href="#CalibreRegular-2e"/>
       <use x="70.89997863769531" xlink:href="#CalibreRegular-32"/>
      </g>
     </g>
    </g>
    <g id="ytick_4">
     <g id="line2d_31">
      <path clip-path="url(#pd831f6c710)" d="
M93.6 207.939
L673.92 207.939" style="fill:none;stroke:#ffffff;stroke-linecap:round;stroke-width:1.3;"/>
     </g>
     <g id="line2d_32">
      <g>
       <use style="fill:#262626;stroke:#262626;stroke-width:1.3;" x="93.6" xlink:href="#m56cc5124a0" y="207.938823529"/>
      </g>
     </g>
     <g id="line2d_33">
      <g>
       <use style="fill:#262626;stroke:#262626;stroke-width:1.3;" x="673.92" xlink:href="#m56cc5124a0" y="207.938823529"/>
      </g>
     </g>
     <g id="text_11">
      <!-- 0.3 -->
      <defs>
       <path d="
M18.4062 28.0938
L18.4062 34.7969
L22.5 34.7969
Q27.5 34.7969 30.75 37.5469
Q34 40.2969 34 45.0938
Q34 49.5938 30.9531 52.5469
Q27.9062 55.5 22.7969 55.5
Q17.7031 55.5 14.5 52.5
Q11.2969 49.5 10.5938 44.5938
L2.90625 44.5938
Q4 52.5 9.39062 57.3906
Q14.7969 62.2969 22.7969 62.2969
Q31.4062 62.2969 36.4531 57.6406
Q41.5 53 41.5 45.5
Q41.5 40.5 38.8438 36.6406
Q36.2031 32.7969 31.9062 31.5
Q36.9062 30.0938 39.7969 26.25
Q42.7031 22.4062 42.7031 17.2031
Q42.7031 9.40625 37.3438 4.25
Q32 -0.90625 23 -0.90625
Q14 -0.90625 8.25 4.09375
Q2.5 9.09375 1.70312 17.5
L9.40625 17.5
Q10.2031 12.0938 13.7031 9
Q17.2031 5.90625 22.9062 5.90625
Q28.4062 5.90625 31.7969 8.95312
Q35.2031 12 35.2031 17.0938
Q35.2031 22.0938 31.6406 25.0938
Q28.0938 28.0938 22.7031 28.0938
z
" id="CalibreRegular-33"/>
      </defs>
      <g style="fill:#262626;" transform="translate(68.82809375 211.370823529)scale(0.14300000000000002 -0.14300000000000002)">
       <use xlink:href="#CalibreRegular-30"/>
       <use x="53.79998779296875" xlink:href="#CalibreRegular-2e"/>
       <use x="70.89997863769531" xlink:href="#CalibreRegular-33"/>
      </g>
     </g>
    </g>
    <g id="ytick_5">
     <g id="line2d_34">
      <path clip-path="url(#pd831f6c710)" d="
M93.6 129.709
L673.92 129.709" style="fill:none;stroke:#ffffff;stroke-linecap:round;stroke-width:1.3;"/>
     </g>
     <g id="line2d_35">
      <g>
       <use style="fill:#262626;stroke:#262626;stroke-width:1.3;" x="93.6" xlink:href="#m56cc5124a0" y="129.709411765"/>
      </g>
     </g>
     <g id="line2d_36">
      <g>
       <use style="fill:#262626;stroke:#262626;stroke-width:1.3;" x="673.92" xlink:href="#m56cc5124a0" y="129.709411765"/>
      </g>
     </g>
     <g id="text_12">
      <!-- 0.4 -->
      <g style="fill:#262626;" transform="translate(67.985734375 133.141411765)scale(0.14300000000000002 -0.14300000000000002)">
       <use xlink:href="#CalibreRegular-30"/>
       <use x="53.79998779296875" xlink:href="#CalibreRegular-2e"/>
       <use x="70.89997863769531" xlink:href="#CalibreRegular-34"/>
      </g>
     </g>
    </g>
    <g id="ytick_6">
     <g id="text_13">
      <!-- 0.5 -->
      <defs>
       <path d="
M23.7031 33
Q17.2031 33 12.7969 27.7031
L6.59375 27.7031
L6.59375 61.4062
L40.2031 61.4062
L40.2031 54.4062
L13.2031 54.4062
L13.2031 35.9062
Q17.5 39.7969 24.4062 39.7969
Q32.9062 39.7969 38.2969 34.0469
Q43.7031 28.2969 43.7031 19.4062
Q43.7031 10.7031 38.0938 4.89062
Q32.5 -0.90625 23.7969 -0.90625
Q15 -0.90625 9.39062 4
Q3.79688 8.90625 2.70312 17.5
L10.4062 17.5
Q12.5 5.90625 23.7969 5.90625
Q29.2969 5.90625 32.7969 9.75
Q36.2969 13.5938 36.2969 19.3906
Q36.2969 25.2031 32.7969 29.0938
Q29.2969 33 23.7031 33" id="CalibreRegular-35"/>
      </defs>
      <g style="fill:#262626;" transform="translate(68.68509375 54.912)scale(0.14300000000000002 -0.14300000000000002)">
       <use xlink:href="#CalibreRegular-30"/>
       <use x="53.79998779296875" xlink:href="#CalibreRegular-2e"/>
       <use x="70.89997863769531" xlink:href="#CalibreRegular-35"/>
      </g>
     </g>
    </g>
   </g>
   <g id="line2d_37">
    <path clip-path="url(#pd831f6c710)" d="
M93.6 442.627
L673.92 442.627" style="fill:none;stroke:#dcdce6;stroke-linecap:round;stroke-width:2;"/>
   </g>
   <g id="line2d_38">
    <path clip-path="url(#pd831f6c710)" d="
M383.76 450.45
L383.76 51.48" style="fill:none;stroke:#dcdce6;stroke-linecap:round;stroke-width:2;"/>
   </g>
   <g id="line2d_39">
    <path clip-path="url(#pd831f6c710)" d="
M93.6 442.627
L190.61 442.52
L205.133 442.287
L215.008 441.919
L222.56 441.421
L228.95 440.769
L234.178 440.016
L238.825 439.129
L242.892 438.142
L246.958 436.917
L250.443 435.644
L253.929 434.132
L257.414 432.345
L260.319 430.62
L263.223 428.655
L266.128 426.428
L269.032 423.914
L271.937 421.087
L274.841 417.923
L277.746 414.396
L280.65 410.481
L283.555 406.155
L286.459 401.396
L289.364 396.184
L292.268 390.501
L295.173 384.334
L298.077 377.671
L300.982 370.508
L304.467 361.251
L307.952 351.281
L311.438 340.62
L314.923 329.306
L318.99 315.349
L323.637 298.533
L328.865 278.765
L338.159 242.546
L345.13 215.785
L349.777 198.815
L353.263 186.815
L356.748 175.614
L359.653 167.002
L362.557 159.137
L364.881 153.435
L367.204 148.3
L369.528 143.763
L371.271 140.773
L373.013 138.148
L374.756 135.9
L376.499 134.035
L378.241 132.562
L379.984 131.487
L381.146 130.992
L382.308 130.678
L383.47 130.542
L384.631 130.588
L385.793 130.813
L386.955 131.217
L388.117 131.801
L389.279 132.562
L391.021 134.035
L392.764 135.9
L394.507 138.148
L396.249 140.773
L397.992 143.763
L400.316 148.3
L402.639 153.435
L404.963 159.137
L407.286 165.367
L410.191 173.836
L413.095 182.984
L416.581 194.736
L420.647 209.312
L425.875 229.032
L435.751 267.52
L442.721 294.207
L447.95 313.294
L452.016 327.36
L456.082 340.62
L459.568 351.281
L463.053 361.251
L466.538 370.508
L470.024 379.044
L472.928 385.606
L475.833 391.676
L478.737 397.263
L481.642 402.383
L484.546 407.054
L487.451 411.296
L490.355 415.131
L493.26 418.584
L496.164 421.679
L499.069 424.441
L501.973 426.896
L504.878 429.068
L507.782 430.983
L510.687 432.663
L514.172 434.402
L517.658 435.872
L521.143 437.109
L525.209 438.296
L529.276 439.253
L533.923 440.112
L539.151 440.839
L544.96 441.421
L551.931 441.889
L560.644 442.239
L572.262 442.47
L591.432 442.596
L644.294 442.627
L673.92 442.627
L673.92 442.627" style="fill:none;stroke:#386df9;stroke-linecap:round;stroke-width:2.275;"/>
   </g>
   <g id="patch_3">
    <path d="
M93.6 51.48
L673.92 51.48" style="fill:none;"/>
   </g>
   <g id="patch_4">
    <path d="
M93.6 450.45
L93.6 51.48" style="fill:none;"/>
   </g>
   <g id="patch_5">
    <path d="
M93.6 450.45
L673.92 450.45" style="fill:none;"/>
   </g>
   <g id="patch_6">
    <path d="
M673.92 450.45
L673.92 51.48" style="fill:none;"/>
   </g>
   <g id="text_14">
    <!-- Normal Distribution PDF -->
    <defs>
     <path d="
M8.79688 11.2031
L8.79688 38
L1.59375 38
L1.59375 44.4062
L8.79688 44.4062
L8.79688 56.0938
L16.2969 56.0938
L16.2969 44.4062
L27 44.4062
L27 38
L16.2969 38
L16.2969 12
Q16.2969 5.79688 22.2031 5.79688
Q25.2969 5.79688 28 7.59375
L28 0.59375
Q25.2031 -0.90625 21 -0.90625
Q15.4062 -0.90625 12.0938 2.14062
Q8.79688 5.20312 8.79688 11.2031" id="CalibreRegular-74"/>
     <path d="
M42.0938 44.4062
L42.0938 0
L34.5 0
L34.5 5.59375
Q32.5 2.79688 29.0938 0.9375
Q25.7031 -0.90625 21.5938 -0.90625
Q14.2031 -0.90625 10.1406 3.5
Q6.09375 7.90625 6.09375 15.2969
L6.09375 44.4062
L13.7031 44.4062
L13.7031 16.5
Q13.7031 11.5938 16.0938 8.79688
Q18.5 6 23.4062 6
Q27.2031 6 30.25 8.29688
Q33.2969 10.5938 34.5 14.2969
L34.5 44.4062
z
" id="CalibreRegular-75"/>
     <path d="
M29.5 44.5938
L29.5 36.9062
Q27.7031 38.0938 24.5 38.0938
Q20.9062 38.0938 18.0938 35.8906
Q15.2969 33.7031 14.2031 29.7969
L14.2031 0
L6.70312 0
L6.70312 44.4062
L14.2031 44.4062
L14.2031 38.5938
Q15.7031 41.5 18.6406 43.3906
Q21.5938 45.2969 25.2031 45.2969
Q28.0938 45.2969 29.5 44.5938" id="CalibreRegular-72"/>
     <path d="
M3 12.2031
L10.7969 12.2031
Q12.9062 5.40625 21.2969 5.40625
Q25.4062 5.40625 27.9062 7.04688
Q30.4062 8.70312 30.4062 12
Q30.4062 16.5 23.7969 18.2031
L15 20.5
Q4.29688 23.2031 4.29688 32.2031
Q4.29688 38 8.79688 41.6406
Q13.2969 45.2969 20.2031 45.2969
Q27.4062 45.2969 31.7969 42
Q36.2031 38.7031 37.4062 32.7031
L29.9062 32.7031
Q27.9062 39 20.0938 39
Q16.5938 39 14.0938 37.3438
Q11.5938 35.7031 11.5938 32.5938
Q11.5938 30.4062 13.0469 29.1562
Q14.5 27.9062 17.7969 27
L26.4062 24.9062
Q37.7031 21.9062 37.7031 12.5
Q37.7031 6.29688 33.0938 2.6875
Q28.5 -0.90625 21.2031 -0.90625
Q13.9062 -0.90625 8.95312 2.59375
Q4 6.09375 3 12.2031" id="CalibreRegular-73"/>
     <path d="
M15.2031 7.09375
L26.9062 7.09375
Q37.2969 7.09375 43.1406 13.4375
Q49 19.7969 49 30.6875
Q49 41.5938 43.0938 48
Q37.2031 54.4062 26.9062 54.4062
L15.2031 54.4062
z

M7.29688 0
L7.29688 61.4062
L27 61.4062
Q40.5 61.4062 48.6406 53.0469
Q56.7969 44.7031 56.7969 30.7031
Q56.7969 16.7031 48.6406 8.34375
Q40.5 0 27 0
z
" id="CalibreRegular-44"/>
     <path d="
M14.2031 5.20312
L14.2031 0
L6.59375 0
L6.59375 65
L14.2031 65
L14.2031 39.2031
Q16 41.7969 19.3906 43.5469
Q22.7969 45.2969 26.7031 45.2969
Q36.0938 45.2969 41.3906 38.6406
Q46.7031 32 46.7031 22.2031
Q46.7031 12.2969 41.3906 5.6875
Q36.0938 -0.90625 26.7031 -0.90625
Q22.7969 -0.90625 19.3906 0.84375
Q16 2.59375 14.2031 5.20312
M14.2031 31.2031
L14.2031 13.2031
Q15.9062 9.79688 18.9531 7.84375
Q22 5.90625 25.5938 5.90625
Q31.7969 5.90625 35.4375 10.4531
Q39.0938 15 39.0938 22.2031
Q39.0938 29.4062 35.4375 33.9531
Q31.7969 38.5 25.5938 38.5
Q22 38.5 18.9531 36.5469
Q15.9062 34.5938 14.2031 31.2031" id="CalibreRegular-62"/>
     <path d="
M55 61.4062
L55 0
L49.2031 0
L14.9062 48.7969
L14.9062 0
L7.29688 0
L7.29688 61.4062
L14.7969 61.4062
L47.5 14.7031
L47.5 61.4062
z
" id="CalibreRegular-4e"/>
     <path d="
M6.70312 0
L6.70312 44.4062
L14.2031 44.4062
L14.2031 38.7969
Q16.2969 41.5938 19.75 43.4375
Q23.2031 45.2969 27.2969 45.2969
Q34.7031 45.2969 38.7969 40.8906
Q42.9062 36.5 42.9062 29.0938
L42.9062 0
L35.2969 0
L35.2969 27.9062
Q35.2969 32.7031 32.8438 35.5469
Q30.4062 38.4062 25.5 38.4062
Q21.5938 38.4062 18.5 36.0469
Q15.4062 33.7031 14.2031 30.0938
L14.2031 0
z
" id="CalibreRegular-6e"/>
     <path d="
M33 45.2969
Q44.2969 32.4062 44.2969 22.2031
Q44.2969 12 38.6406 5.54688
Q33 -0.90625 23.8906 -0.90625
Q14.7969 -0.90625 9.14062 5.54688
Q3.5 12 3.5 22.2031
Q3.5 32.4062 9.14062 38.8438
Q14.7969 45.2969 23.8906 45.2969
Q33 45.2969 44.2969 32.4062
M29.7969 5.70312
Q36.7031 14.7969 36.7031 22.1875
Q36.7031 29.5938 33.25 34.1406
Q29.7969 38.7031 23.8906 38.7031
Q18 38.7031 14.5469 34.1406
Q11.0938 29.5938 11.0938 22.1875
Q11.0938 14.7969 14.5469 10.25
Q18 5.70312 23.8906 5.70312
Q29.7969 5.70312 36.7031 14.7969" id="CalibreRegular-6f"/>
     <path d="
M38.2031 38.2031
Q43.2031 45.2969 51.7031 45.2969
Q58.4062 45.2969 62.0469 41
Q65.7031 36.7031 65.7031 29.4062
L65.7031 0
L58.0938 0
L58.0938 28.2031
Q58.0938 33 56 35.75
Q53.9062 38.5 49.7031 38.5
Q46.2969 38.5 43.5938 36.3438
Q40.9062 34.2031 39.9062 30.5938
L39.9062 0
L32.4062 0
L32.4062 28.2031
Q32.4062 33 30.2969 35.75
Q28.2031 38.5 24 38.5
Q20.5938 38.5 17.8906 36.3438
Q15.2031 34.2031 14.2031 30.5938
L14.2031 0
L6.70312 0
L6.70312 44.4062
L14.2031 44.4062
L14.2031 39.2031
Q18 45.2969 26.2031 45.2969
Q34.5938 45.2969 38.2031 38.2031" id="CalibreRegular-6d"/>
     <path d="
M14.2031 44.4062
L14.2031 0
L6.70312 0
L6.70312 44.4062
z

M12.4062 62.5938
Q15.2969 59.7969 15.2969 57.7969
Q15.2969 55.7969 13.8438 54.3906
Q12.4062 53 10.4062 53
Q8.40625 53 7 54.3906
Q5.59375 55.7969 5.59375 57.7969
Q5.59375 59.7969 7 61.1875
Q8.40625 62.5938 10.4062 62.5938
Q12.4062 62.5938 15.2969 59.7969" id="CalibreRegular-69"/>
     <path d="
M14.2031 65
L14.2031 0
L6.70312 0
L6.70312 65
z
" id="CalibreRegular-6c"/>
     <path d="
M30.2969 24.5938
L15.2031 24.5938
L15.2031 0
L7.29688 0
L7.29688 61.4062
L30.2969 61.4062
Q39.7969 61.4062 45.1406 56.6562
Q50.5 51.9062 50.5 43
Q50.5 34.0938 45.0938 29.3438
Q39.7031 24.5938 30.2969 24.5938
M42.7031 43
Q42.7031 48.4062 39.4531 51.4531
Q36.2031 54.5 30.0938 54.5
L15.2031 54.5
L15.2031 31.5938
L30.0938 31.5938
Q36.2031 31.5938 39.4531 34.6406
Q42.7031 37.7031 42.7031 43" id="CalibreRegular-50"/>
     <path id="CalibreRegular-20"/>
     <path d="
M15.2031 0
L7.29688 0
L7.29688 61.4062
L44.7969 61.4062
L44.7969 54.4062
L15.2031 54.4062
L15.2031 33.7031
L43 33.7031
L43 26.7031
L15.2031 26.7031
z
" id="CalibreRegular-46"/>
     <path d="
M38.9062 0
L31.7031 0
L31.7031 3.29688
Q30.2969 1.79688 27 0.5
Q23.7031 -0.796875 20 -0.796875
Q13 -0.796875 8.25 3.09375
Q3.5 7 3.5 13.4062
Q3.5 19.5 8.39062 23.3906
Q13.2969 27.2969 20.5 27.2969
Q23.7969 27.2969 27 26.1875
Q30.2031 25.0938 31.7031 23.7031
L31.7031 29.2969
Q31.7031 33.5938 29.1406 36.1875
Q26.5938 38.7969 21.9062 38.7969
Q14.9062 38.7969 12.7969 32.7031
L5.40625 32.7031
Q6.5 38.2969 11.0469 41.7969
Q15.5938 45.2969 22 45.2969
Q29.9062 45.2969 34.4062 41.0938
Q38.9062 36.9062 38.9062 29.5938
z

M31.7031 11
L31.7031 15.5938
Q30.7031 18 27.75 19.5469
Q24.7969 21.0938 21.2969 21.0938
Q16.9062 21.0938 13.7969 19.0938
Q10.7031 17.0938 10.7031 13.4062
Q10.7031 9.59375 13.7969 7.54688
Q16.9062 5.5 21.2969 5.5
Q24.7969 5.5 27.75 7.04688
Q30.7031 8.59375 31.7031 11" id="CalibreRegular-61"/>
    </defs>
    <g style="fill:#262626;" transform="translate(303.21793125 46.48)scale(0.17160000000000003 -0.17160000000000003)">
     <use xlink:href="#CalibreRegular-4e"/>
     <use x="62.29998779296875" xlink:href="#CalibreRegular-6f"/>
     <use x="110.0999755859375" xlink:href="#CalibreRegular-72"/>
     <use x="142.19996643066406" xlink:href="#CalibreRegular-6d"/>
     <use x="213.8999481201172" xlink:href="#CalibreRegular-61"/>
     <use x="258.8999328613281" xlink:href="#CalibreRegular-6c"/>
     <use x="279.7999267578125" xlink:href="#CalibreRegular-20"/>
     <use x="301.89991760253906" xlink:href="#CalibreRegular-44"/>
     <use x="362.39990234375" xlink:href="#CalibreRegular-69"/>
     <use x="383.2998962402344" xlink:href="#CalibreRegular-73"/>
     <use x="424.69989013671875" xlink:href="#CalibreRegular-74"/>
     <use x="456.39988708496094" xlink:href="#CalibreRegular-72"/>
     <use x="488.4998779296875" xlink:href="#CalibreRegular-69"/>
     <use x="509.3998718261719" xlink:href="#CalibreRegular-62"/>
     <use x="559.5998687744141" xlink:href="#CalibreRegular-75"/>
     <use x="608.2998657226562" xlink:href="#CalibreRegular-74"/>
     <use x="639.9998626708984" xlink:href="#CalibreRegular-69"/>
     <use x="660.8998565673828" xlink:href="#CalibreRegular-6f"/>
     <use x="708.6998443603516" xlink:href="#CalibreRegular-6e"/>
     <use x="757.5998382568359" xlink:href="#CalibreRegular-20"/>
     <use x="779.6998291015625" xlink:href="#CalibreRegular-50"/>
     <use x="833.3998260498047" xlink:href="#CalibreRegular-44"/>
     <use x="893.8998107910156" xlink:href="#CalibreRegular-46"/>
    </g>
   </g>
  </g>
 </g>
 <defs>
  <clipPath id="pd831f6c710">
   <rect height="398.97" width="580.32" x="93.6" y="51.48"/>
  </clipPath>
 </defs>
</svg>
