<?xml version="1.0" encoding="UTF-8" standalone="no"?>
<!-- Created with Inkscape (http://www.inkscape.org/) -->

<svg
   xmlns:dc="http://purl.org/dc/elements/1.1/"
   xmlns:cc="http://creativecommons.org/ns#"
   xmlns:rdf="http://www.w3.org/1999/02/22-rdf-syntax-ns#"
   xmlns:svg="http://www.w3.org/2000/svg"
   xmlns="http://www.w3.org/2000/svg"
   xmlns:sodipodi="http://sodipodi.sourceforge.net/DTD/sodipodi-0.dtd"
   xmlns:inkscape="http://www.inkscape.org/namespaces/inkscape"
   width="563.0625"
   height="265.16074"
   id="svg2"
   sodipodi:version="0.32"
   inkscape:version="0.47pre4 r22446"
   sodipodi:docname="Discrete_probability_distrib.svg"
   version="1.0">
  <defs
     id="defs4">
    <inkscape:perspective
       sodipodi:type="inkscape:persp3d"
       inkscape:vp_x="0 : 144.375 : 1"
       inkscape:vp_y="0 : 1000 : 0"
       inkscape:vp_z="578.75 : 144.375 : 1"
       inkscape:persp3d-origin="289.375 : 96.25 : 1"
       id="perspective32" />
    <marker
       inkscape:stockid="Arrow1Lend"
       orient="auto"
       refY="0"
       refX="0"
       id="Arrow1Lend"
       style="overflow:visible">
      <path
         id="path2352"
         d="M 0,0 5,-5 -12.5,0 5,5 0,0 z"
         style="fill-rule:evenodd;stroke:#000000;stroke-width:1pt;marker-start:none"
         transform="scale(-0.8,-0.8)" />
    </marker>
  </defs>
  <sodipodi:namedview
     id="base"
     pagecolor="#ffffff"
     bordercolor="#666666"
     borderopacity="1.0"
     inkscape:pageopacity="0.0"
     inkscape:pageshadow="2"
     inkscape:zoom="1.32"
     inkscape:cx="239.48601"
     inkscape:cy="153.88485"
     inkscape:document-units="px"
     inkscape:current-layer="layer1"
     showgrid="false"
     inkscape:window-width="1276"
     inkscape:window-height="756"
     inkscape:window-x="4"
     inkscape:window-y="0"
     inkscape:grid-points="true"
     inkscape:guide-points="true"
     gridtolerance="1px"
     inkscape:window-maximized="0">
    <inkscape:grid
       id="GridFromPre046Settings"
       type="xygrid"
       originx="0px"
       originy="0px"
       spacingx="2px"
       spacingy="2px"
       color="#0000ff"
       empcolor="#0000ff"
       opacity="0.2"
       empopacity="0.4"
       empspacing="5"
       visible="true"
       enabled="true"
       snapvisiblegridlinesonly="true" />
  </sodipodi:namedview>
  <metadata
     id="metadata7">
    <rdf:RDF>
      <cc:Work
         rdf:about="">
        <dc:format>image/svg+xml</dc:format>
        <dc:type
           rdf:resource="http://purl.org/dc/dcmitype/StillImage" />
      </cc:Work>
    </rdf:RDF>
  </metadata>
  <g
     inkscape:label="Layer 1"
     inkscape:groupmode="layer"
     id="layer1"
     transform="translate(-12.499998,-8.1869334)">
    <g
       id="g3841">
      <path
         sodipodi:nodetypes="cc"
         id="path1319"
         d="m 130.5,220.1875 0,-92"
         style="fill:none;stroke:#e90000;stroke-width:5;stroke-linecap:butt;stroke-linejoin:miter;stroke-miterlimit:4;stroke-opacity:1;stroke-dasharray:none;marker-mid:none" />
      <path
         sodipodi:nodetypes="cc"
         id="path1321"
         d="m 250.5,224.1875 0,-210"
         style="fill:none;stroke:#e90000;stroke-width:5;stroke-linecap:butt;stroke-linejoin:miter;stroke-miterlimit:4;stroke-opacity:1;stroke-dasharray:none" />
      <path
         sodipodi:nodetypes="cc"
         id="path1323"
         d="m 428.5,220.6875 0,-136"
         style="fill:none;stroke:#e90000;stroke-width:5;stroke-linecap:butt;stroke-linejoin:miter;stroke-miterlimit:4;stroke-opacity:1;stroke-dasharray:none" />
      <path
         transform="translate(41.49999,-386.1743)"
         sodipodi:end="12.009364"
         sodipodi:start="5.7289715"
         d="m 214.9522,397.67826 c 2.03458,3.28731 1.01903,7.60155 -2.26828,9.63612 -3.28731,2.03458 -7.60155,1.01904 -9.63612,-2.26827 -2.03458,-3.28731 -1.01903,-7.60155 2.26828,-9.63613 3.28082,-2.03056 7.5861,-1.02347 9.62581,2.25167 L 209,401.36218 z"
         sodipodi:ry="7"
         sodipodi:rx="7"
         sodipodi:cy="401.36218"
         sodipodi:cx="209"
         id="path3255"
         style="fill:#e90000;fill-opacity:1;fill-rule:nonzero;stroke:#e90000;stroke-width:0;stroke-linecap:butt;stroke-linejoin:miter;stroke-miterlimit:4;stroke-opacity:1;stroke-dasharray:none;stroke-dashoffset:0"
         sodipodi:type="arc" />
      <path
         transform="translate(-78.5,-275.1747)"
         sodipodi:end="12.009364"
         sodipodi:start="5.7289715"
         d="m 214.9522,397.67826 c 2.03458,3.28731 1.01903,7.60155 -2.26828,9.63612 -3.28731,2.03458 -7.60155,1.01904 -9.63612,-2.26827 -2.03458,-3.28731 -1.01903,-7.60155 2.26828,-9.63613 3.28082,-2.03056 7.5861,-1.02347 9.62581,2.25167 L 209,401.36218 z"
         sodipodi:ry="7"
         sodipodi:rx="7"
         sodipodi:cy="401.36218"
         sodipodi:cx="209"
         id="path3257"
         style="fill:#e90000;fill-opacity:1;fill-rule:nonzero;stroke:#e90000;stroke-width:0;stroke-linecap:butt;stroke-linejoin:miter;stroke-miterlimit:4;stroke-opacity:1;stroke-dasharray:none;stroke-dashoffset:0"
         sodipodi:type="arc" />
      <path
         transform="translate(219.5,-317.1747)"
         sodipodi:end="12.009364"
         sodipodi:start="5.7289715"
         d="m 214.9522,397.67826 c 2.03458,3.28731 1.01903,7.60155 -2.26828,9.63612 -3.28731,2.03458 -7.60155,1.01904 -9.63612,-2.26827 -2.03458,-3.28731 -1.01903,-7.60155 2.26828,-9.63613 3.28082,-2.03056 7.5861,-1.02347 9.62581,2.25167 L 209,401.36218 z"
         sodipodi:ry="7"
         sodipodi:rx="7"
         sodipodi:cy="401.36218"
         sodipodi:cx="209"
         id="path3259"
         style="fill:#e90000;fill-opacity:1;fill-rule:nonzero;stroke:#e90000;stroke-width:0;stroke-linecap:butt;stroke-linejoin:miter;stroke-miterlimit:4;stroke-opacity:1;stroke-dasharray:none;stroke-dashoffset:0"
         sodipodi:type="arc" />
      <path
         transform="translate(-78.5,-178.1743)"
         sodipodi:end="12.009364"
         sodipodi:start="5.7289715"
         d="m 214.9522,397.67826 c 2.03458,3.28731 1.01903,7.60155 -2.26828,9.63612 -3.28731,2.03458 -7.60155,1.01904 -9.63612,-2.26827 -2.03458,-3.28731 -1.01903,-7.60155 2.26828,-9.63613 3.28082,-2.03056 7.5861,-1.02347 9.62581,2.25167 L 209,401.36218 z"
         sodipodi:ry="7"
         sodipodi:rx="7"
         sodipodi:cy="401.36218"
         sodipodi:cx="209"
         id="path3261"
         style="fill:#000000;fill-opacity:1;fill-rule:nonzero;stroke:#e90000;stroke-width:0;stroke-linecap:butt;stroke-linejoin:miter;stroke-miterlimit:4;stroke-opacity:1;stroke-dasharray:none;stroke-dashoffset:0"
         sodipodi:type="arc" />
      <path
         transform="translate(219.5,-176.1743)"
         sodipodi:end="12.009364"
         sodipodi:start="5.7289715"
         d="m 214.9522,397.67826 c 2.03458,3.28731 1.01903,7.60155 -2.26828,9.63612 -3.28731,2.03458 -7.60155,1.01904 -9.63612,-2.26827 -2.03458,-3.28731 -1.01903,-7.60155 2.26828,-9.63613 3.28082,-2.03056 7.5861,-1.02347 9.62581,2.25167 L 209,401.36218 z"
         sodipodi:ry="7"
         sodipodi:rx="7"
         sodipodi:cy="401.36218"
         sodipodi:cx="209"
         id="path3263"
         style="fill:#000000;fill-opacity:1;fill-rule:nonzero;stroke:#e90000;stroke-width:0;stroke-linecap:butt;stroke-linejoin:miter;stroke-miterlimit:4;stroke-opacity:1;stroke-dasharray:none;stroke-dashoffset:0"
         sodipodi:type="arc" />
      <path
         transform="translate(41.49999,-177.1747)"
         sodipodi:end="12.009364"
         sodipodi:start="5.7289715"
         d="m 214.9522,397.67826 c 2.03458,3.28731 1.01903,7.60155 -2.26828,9.63612 -3.28731,2.03458 -7.60155,1.01904 -9.63612,-2.26827 -2.03458,-3.28731 -1.01903,-7.60155 2.26828,-9.63613 3.28082,-2.03056 7.5861,-1.02347 9.62581,2.25167 L 209,401.36218 z"
         sodipodi:ry="7"
         sodipodi:rx="7"
         sodipodi:cy="401.36218"
         sodipodi:cx="209"
         id="path3265"
         style="fill:#000000;fill-opacity:1;fill-rule:nonzero;stroke:#e90000;stroke-width:0;stroke-linecap:butt;stroke-linejoin:miter;stroke-miterlimit:4;stroke-opacity:1;stroke-dasharray:none;stroke-dashoffset:0"
         sodipodi:type="arc" />
      <g
         id="text3267"
         style="font-size:40px;font-style:oblique;font-variant:normal;font-weight:normal;font-stretch:normal;text-align:start;line-height:100%;writing-mode:lr-tb;text-anchor:start;fill:#000000;fill-opacity:1;stroke:none;font-family:Bitstream Vera Sans">
        <path
           id="path3818"
           d="m 119.70312,268.02734 6.44531,0 4.35547,-22.4414 -7.28516,1.40625 0.6836,-3.39844 7.24609,-1.40625 3.96484,0 -5.03906,25.83984 6.42578,0 -0.625,3.32032 -16.8164,0 0.64453,-3.32032" />
      </g>
      <g
         id="text3271"
         style="font-size:40px;font-style:oblique;font-variant:normal;font-weight:normal;font-stretch:normal;text-align:start;line-height:100%;writing-mode:lr-tb;text-anchor:start;fill:#000000;fill-opacity:1;stroke:none;font-family:Bitstream Vera Sans">
        <path
           id="path3815"
           d="m 243.95702,243.18359 c 1.43228,-0.41663 2.819,-0.72913 4.16015,-0.9375 1.35416,-0.2083 2.68228,-0.31247 3.98438,-0.3125 2.57811,3e-5 4.62237,0.57295 6.13281,1.71875 1.51039,1.14586 2.2656,2.68232 2.26562,4.60938 -2e-5,1.88804 -0.59898,3.50913 -1.79687,4.86328 -1.18492,1.35418 -2.82554,2.27866 -4.92188,2.77344 1.64061,0.46876 2.84504,1.19793 3.61329,2.1875 0.7682,0.98959 1.15232,2.29819 1.15234,3.92578 -2e-5,1.56251 -0.37762,3.02735 -1.13281,4.39453 -0.74221,1.36719 -1.81643,2.54558 -3.22266,3.53516 -1.06772,0.75521 -2.34376,1.3151 -3.82812,1.67968 -1.48439,0.37761 -3.19663,0.56641 -5.13672,0.56641 -1.22397,0 -2.46095,-0.1237 -3.71094,-0.37109 -1.25,-0.23438 -2.51953,-0.59245 -3.80859,-1.07422 l 0.72265,-3.73047 c 1.22396,0.67709 2.45443,1.1849 3.69141,1.52344 1.24999,0.32552 2.52603,0.48828 3.82812,0.48828 2.5651,0 4.64192,-0.65755 6.23047,-1.97266 1.60155,-1.32812 2.40233,-3.04687 2.40235,-5.15625 -2e-5,-1.35415 -0.50783,-2.39582 -1.52344,-3.125 -1.01564,-0.74217 -2.46746,-1.11327 -4.35547,-1.11328 l -3.39844,0 0.60547,-3.20313 3.59375,0 c 2.16145,2e-5 3.86066,-0.49477 5.09766,-1.48437 1.24998,-0.98956 1.87498,-2.33071 1.875,-4.02344 -2e-5,-1.22393 -0.45575,-2.16794 -1.36719,-2.83203 -0.91148,-0.67706 -2.19403,-1.0156 -3.84766,-1.01562 -1.25001,2e-5 -2.53256,0.13674 -3.84765,0.41015 -1.30209,0.26045 -2.65626,0.65758 -4.0625,1.19141 l 0.60547,-3.51563" />
      </g>
      <g
         id="text3279"
         style="font-size:40px;font-style:oblique;font-variant:normal;font-weight:normal;font-stretch:normal;text-align:start;line-height:100%;writing-mode:lr-tb;text-anchor:start;fill:#000000;fill-opacity:1;stroke:none;font-family:Bitstream Vera Sans">
        <path
           id="path3812"
           d="m 423.90625,244.1875 19.96094,0 -0.35157,1.67969 -16.67968,27.48047 -4.33594,0 15.76172,-25.83985 -15,0 0.64453,-3.32031" />
      </g>
      <g
         id="text1323"
         style="font-size:40px;font-style:oblique;font-variant:normal;font-weight:normal;font-stretch:normal;text-align:start;line-height:100%;writing-mode:lr-tb;text-anchor:start;fill:#000000;fill-opacity:1;stroke:none;font-family:Bitstream Vera Sans">
        <path
           id="path3821"
           d="m 58.601547,117.93359 c 2.643211,3e-5 4.661439,0.87894 6.054688,2.63672 1.406227,1.75784 2.109351,4.28388 2.109375,7.57813 -2.4e-5,2.50001 -0.332055,4.98699 -0.996094,7.46093 -0.651063,2.46095 -1.569031,4.66798 -2.753906,6.6211 -1.210956,1.95313 -2.636736,3.4375 -4.277344,4.45312 -1.627618,1.00261 -3.431002,1.50391 -5.410156,1.50391 -2.552091,0 -4.524745,-0.88542 -5.917969,-2.65625 -1.393232,-1.77083 -2.089846,-4.29036 -2.089844,-7.55859 -2e-6,-2.47395 0.332029,-4.94791 0.996094,-7.42188 0.67708,-2.48696 1.614579,-4.7005 2.8125,-6.64062 1.19791,-1.9531 2.597648,-3.43748 4.199219,-4.45313 1.614571,-1.01559 3.372382,-1.52341 5.273437,-1.52344 m -0.234375,3.125 c -0.989597,3e-5 -1.933607,0.26696 -2.832031,0.80079 -0.885428,0.52085 -1.686208,1.29559 -2.402344,2.32421 -1.197925,1.71878 -2.154955,3.86721 -2.871094,6.44532 -0.703131,2.56511 -1.054693,5.20183 -1.054687,7.91015 -6e-6,2.14845 0.377598,3.77605 1.132812,4.88281 0.768222,1.09376 1.894523,1.64063 3.378907,1.64063 1.041655,0 2.005196,-0.26041 2.890625,-0.78125 0.885402,-0.53385 1.686183,-1.3151 2.402343,-2.34375 1.184879,-1.70572 2.122379,-3.84114 2.8125,-6.40625 0.703106,-2.57811 1.054668,-5.22785 1.054688,-7.94922 -2e-5,-2.14841 -0.384134,-3.76951 -1.152344,-4.86328 -0.755226,-1.10674 -1.875016,-1.66013 -3.359375,-1.66016" />
        <path
           id="path3823"
           d="m 72.07811,142.66016 4.121093,0 -0.957031,4.96093 -4.121094,0 0.957032,-4.96093" />
        <path
           id="path3825"
           d="m 99.968735,133.53906 -12.597657,10.80078 13.925782,0 -0.68359,3.28125 -18.925785,0 0.644531,-3.32031 13.164062,-11.28906 c 1.757797,-1.52342 3.001286,-2.85806 3.730469,-4.00391 0.742169,-1.15883 1.113263,-2.34373 1.113283,-3.55468 -2e-5,-1.263 -0.442728,-2.29165 -1.328127,-3.08594 -0.885433,-0.79425 -2.044286,-1.19138 -3.476562,-1.19141 -1.236992,3e-5 -2.610688,0.22138 -4.121094,0.66406 -1.510425,0.44274 -3.125007,1.08727 -4.84375,1.9336 l 0.722656,-3.90625 c 1.614576,-0.63799 3.157544,-1.11977 4.628907,-1.44531 1.471342,-0.3255 2.832018,-0.48826 4.082031,-0.48829 2.552066,3e-5 4.602849,0.67712 6.152339,2.03125 1.56248,1.3542 2.34373,3.13154 2.34375,5.33204 -2e-5,1.48439 -0.37111,2.90366 -1.11328,4.25781 -0.74221,1.34116 -1.88153,2.66928 -3.417965,3.98437" />
      </g>
      <g
         id="text1327"
         style="font-size:40px;font-style:oblique;font-variant:normal;font-weight:normal;font-stretch:normal;text-align:start;line-height:100%;writing-mode:lr-tb;text-anchor:start;fill:#000000;fill-opacity:1;stroke:none;font-family:Bitstream Vera Sans">
        <path
           id="path3835"
           d="m 176.32811,9.9335938 c 2.64321,2.96e-5 4.66144,0.8789352 6.05469,2.6367192 1.40622,1.757837 2.10935,4.283876 2.10937,7.578124 -2e-5,2.500017 -0.33205,4.986994 -0.99609,7.460938 -0.65106,2.460947 -1.56903,4.667976 -2.75391,6.621094 -1.21095,1.953128 -2.63673,3.437502 -4.27734,4.453125 -1.62762,1.002604 -3.431,1.503905 -5.41016,1.503906 -2.55209,-10e-7 -4.52474,-0.885416 -5.91797,-2.65625 -1.39323,-1.770829 -2.08984,-4.290358 -2.08984,-7.558594 0,-2.473946 0.33203,-4.947902 0.99609,-7.421875 0.67708,-2.486959 1.61458,-4.700499 2.8125,-6.640625 1.19791,-1.953099 2.59765,-3.437473 4.19922,-4.453125 1.61457,-1.015596 3.37238,-1.5234076 5.27344,-1.5234372 m -0.23438,3.1250002 c -0.98959,2.6e-5 -1.9336,0.266953 -2.83203,0.800781 -0.88542,0.520859 -1.6862,1.295597 -2.40234,2.324219 -1.19793,1.718771 -2.15496,3.867207 -2.87109,6.445312 -0.70314,2.565119 -1.0547,5.201835 -1.05469,7.910156 -1e-5,2.148445 0.3776,3.776047 1.13281,4.882813 0.76822,1.093753 1.89452,1.640628 3.37891,1.640625 1.04165,3e-6 2.00519,-0.260414 2.89062,-0.78125 0.8854,-0.53385 1.68619,-1.3151 2.40235,-2.34375 1.18487,-1.705722 2.12237,-3.841136 2.8125,-6.40625 0.7031,-2.57811 1.05466,-5.227847 1.05468,-7.949219 -2e-5,-2.148415 -0.38413,-3.769507 -1.15234,-4.863281 -0.75523,-1.106745 -1.87502,-1.66013 -3.35938,-1.660156" />
        <path
           id="path3837"
           d="m 189.80467,34.660156 4.1211,0 -0.95704,4.960938 -4.12109,0 0.95703,-4.960938" />
        <path
           id="path3839"
           d="m 222.49998,10.460938 -0.60546,3.28125 -12.07032,0 -1.40625,7.207031 c 0.59895,-0.195294 1.20442,-0.338523 1.81641,-0.429688 0.62499,-0.09113 1.2565,-0.136699 1.89453,-0.136719 2.6953,2e-5 4.8242,0.722675 6.38672,2.167969 1.56248,1.445328 2.34373,3.404962 2.34375,5.878906 -2e-5,1.731781 -0.40367,3.391935 -1.21094,4.980469 -0.79429,1.588547 -1.9271,2.981774 -3.39844,4.179688 -1.04168,0.833334 -2.31772,1.477865 -3.82812,1.933593 -1.49741,0.442708 -3.13803,0.664062 -4.92188,0.664063 -1.17188,-10e-7 -2.36979,-0.104167 -3.59375,-0.3125 -1.22396,-0.208333 -2.50651,-0.520833 -3.84765,-0.9375 l 0.72265,-3.671875 c 1.19792,0.585941 2.39583,1.028649 3.59375,1.328125 1.21094,0.286461 2.42838,0.42969 3.65235,0.429687 2.53905,3e-6 4.6354,-0.761715 6.28906,-2.285156 1.66665,-1.523431 2.49998,-3.430981 2.5,-5.722656 -2e-5,-1.692696 -0.54689,-3.007799 -1.64062,-3.945313 -1.08075,-0.937484 -2.59767,-1.406234 -4.55079,-1.40625 -1.02865,1.6e-5 -2.10287,0.123714 -3.22265,0.371094 -1.10678,0.234391 -2.2461,0.592463 -3.41797,1.074219 l 2.83203,-14.648437 15.68359,0" />
      </g>
      <g
         id="text1331"
         style="font-size:40px;font-style:oblique;font-variant:normal;font-weight:normal;font-stretch:normal;text-align:start;line-height:100%;writing-mode:lr-tb;text-anchor:start;fill:#000000;fill-opacity:1;stroke:none;font-family:Bitstream Vera Sans">
        <path
           id="path3828"
           d="m 361.78125,70.5 c 2.64321,3e-5 4.66144,0.878935 6.05469,2.636719 1.40622,1.757838 2.10935,4.283877 2.10937,7.578125 -2e-5,2.500017 -0.33205,4.986993 -0.99609,7.460937 -0.65106,2.460947 -1.56903,4.667976 -2.75391,6.621094 -1.21095,1.953128 -2.63673,3.437502 -4.27734,4.453125 -1.62762,1.0026 -3.431,1.50391 -5.41016,1.50391 -2.55209,0 -4.52474,-0.88542 -5.91797,-2.656254 C 349.19661,96.326827 348.5,93.807298 348.5,90.539062 c 0,-2.473946 0.33203,-4.947902 0.99609,-7.421875 0.67708,-2.486959 1.61458,-4.700499 2.8125,-6.640625 1.19791,-1.953099 2.59765,-3.437472 4.19922,-4.453125 1.61457,-1.015595 3.37238,-1.523407 5.27344,-1.523437 m -0.23438,3.125 c -0.98959,2.7e-5 -1.9336,0.266953 -2.83203,0.800781 -0.88542,0.520859 -1.6862,1.295598 -2.40234,2.324219 -1.19793,1.718772 -2.15496,3.867207 -2.87109,6.445312 -0.70313,2.565119 -1.0547,5.201835 -1.05469,7.910157 -1e-5,2.148444 0.3776,3.776047 1.13281,4.882812 0.76822,1.093753 1.89452,1.640628 3.37891,1.640625 1.04165,3e-6 2.00519,-0.260414 2.89062,-0.78125 0.8854,-0.53385 1.68619,-1.315099 2.40235,-2.34375 1.18488,-1.705722 2.12237,-3.841136 2.8125,-6.40625 0.7031,-2.57811 1.05466,-5.227847 1.05468,-7.949219 -2e-5,-2.148415 -0.38413,-3.769507 -1.15234,-4.863281 -0.75523,-1.106745 -1.87502,-1.660129 -3.35938,-1.660156" />
        <path
           id="path3830"
           d="m 375.25781,95.226562 4.1211,0 -0.95704,4.960938 -4.12109,0 0.95703,-4.960938" />
        <path
           id="path3832"
           d="m 391.03906,71.75 c 1.43229,-0.416638 2.819,-0.729138 4.16016,-0.9375 1.35415,-0.208304 2.68228,-0.31247 3.98437,-0.3125 2.57811,3e-5 4.62238,0.572946 6.13282,1.71875 1.51039,1.14586 2.2656,2.682317 2.26562,4.609375 -2e-5,1.888042 -0.59898,3.509134 -1.79687,4.863281 -1.18492,1.354184 -2.82554,2.278662 -4.92188,2.773438 1.64061,0.468765 2.84503,1.197931 3.61328,2.1875 0.76821,0.989596 1.15233,2.298188 1.15235,3.925781 -2e-5,1.562508 -0.37763,3.02735 -1.13282,4.394531 -0.7422,1.367192 -1.81642,2.545576 -3.22265,3.535156 -1.06773,0.75521 -2.34377,1.315105 -3.82813,1.679688 -1.48438,0.3776 -3.19662,0.56641 -5.13672,0.56641 -1.22396,0 -2.46094,-0.1237 -3.71093,-0.3711 -1.25001,-0.23437 -2.51954,-0.592445 -3.8086,-1.074216 l 0.72266,-3.730469 c 1.22396,0.677087 2.45442,1.184899 3.6914,1.523437 1.25,0.325524 2.52604,0.488284 3.82813,0.488282 2.56509,2e-6 4.64191,-0.657549 6.23047,-1.972657 1.60155,-1.328119 2.40233,-3.046867 2.40234,-5.15625 -1e-5,-1.354155 -0.50783,-2.395821 -1.52344,-3.125 -1.01563,-0.742173 -2.46746,-1.113267 -4.35546,-1.113281 l -3.39844,0 0.60547,-3.203125 3.59375,0 c 2.16144,1.7e-5 3.86066,-0.494774 5.09765,-1.484375 1.24999,-0.989563 1.87498,-2.330708 1.875,-4.023437 -2e-5,-1.223935 -0.45574,-2.167944 -1.36718,-2.832032 -0.91148,-0.677057 -2.19403,-1.015598 -3.84766,-1.015625 -1.25001,2.7e-5 -2.53256,0.136746 -3.84766,0.410157 -1.30209,0.260442 -2.65625,0.657577 -4.0625,1.191406 L 391.03906,71.75" />
      </g>
      <g
         id="g3807">
        <path
           style="fill:none;stroke:#000000;stroke-width:4;stroke-linecap:butt;stroke-linejoin:miter;stroke-miterlimit:4;stroke-opacity:1;stroke-dasharray:none;marker-end:none"
           d="m 14.499998,224.1875 514.285722,0"
           id="path1307" />
        <path
           style="fill:#000000;stroke:none"
           d="m 506.25,204.4375 19.46875,19.75 -19.46875,19.75 68.78125,-19.65625 0.53125,0 -0.28125,-0.0937 0.28125,-0.0625 -0.53125,0 L 506.25,204.4375 z"
           id="path2840" />
      </g>
    </g>
  </g>
</svg>
