<svg xmlns="http://www.w3.org/2000/svg" xmlns:xlink="http://www.w3.org/1999/xlink" height="288pt" version="1.1" viewBox="0 0 288 288" width="288pt">
 <defs>
  <clipPath id="p08154cb638">
   <rect height="223.2" width="223.2" x="36.0" y="28.8"/>
  </clipPath>
 </defs>
<defs>
  <style type="text/css">
*{stroke-linecap:butt;stroke-linejoin:round;}
  </style>
 </defs>
 <g id="figure_1">
  <g id="patch_1">
   <path d=" M0 288 L288 288 L288 0 L0 0 z " style="fill:#ffffff;"/>
  </g>
  <g id="axes_1">
   <g id="patch_2">
    <path d=" M36 252 L259.2 252 L259.2 28.8 L36 28.8 z " style="fill:#eaeaf2;"/>
   </g>
   <g id="matplotlib.axis_1">
    <g id="xtick_1">
     <g id="line2d_1">
      <path clip-path="url(#p08154cb638)" d=" M36 252 L36 28.8" style="fill:none;stroke:#ffffff;stroke-linecap:round;stroke-width:1.3;"/>
     </g>
     <g id="line2d_2">
      <defs>
       <path d=" M0 0 L0 0" id="m56cc5124a0" style="stroke:#262626;stroke-width:1.3;"/>
      </defs>
      <g>
       <use style="fill:#262626;stroke:#262626;stroke-width:1.3;" x="36.0" xlink:href="#m56cc5124a0" y="252.0"/>
      </g>
     </g>
     <g id="line2d_3">
      <g>
       <use style="fill:#262626;stroke:#262626;stroke-width:1.3;" x="36.0" xlink:href="#m56cc5124a0" y="28.8"/>
      </g>
     </g>
     <g id="text_1">
      <!-- &#8722;1 -->
      <defs>
       <path d=" M25.4062 61.5 L25.4062 0 L17.7031 0 L17.7031 52 L2.5 44.2031 L2.5 52.2031 L20.7031 61.5 z " id="CalibreRegular-31"/>
       <path d=" M7.29688 26.5938 L7.29688 32.7969 L46.7031 32.7969 L46.7031 26.5938 z " id="CalibreRegular-2212"/>
      </defs>
      <g style="fill:#262626;" transform="translate(30.8441796875 270.395)scale(0.14300000000000002 -0.14300000000000002)">
       <use xlink:href="#CalibreRegular-2212"/>
       <use x="53.99998474121094" xlink:href="#CalibreRegular-31"/>
      </g>
     </g>
    </g>
    <g id="xtick_2">
     <g id="line2d_4">
      <path clip-path="url(#p08154cb638)" d=" M80.64 252 L80.64 28.8" style="fill:none;stroke:#ffffff;stroke-linecap:round;stroke-width:1.3;"/>
     </g>
     <g id="line2d_5">
      <g>
       <use style="fill:#262626;stroke:#262626;stroke-width:1.3;" x="80.64" xlink:href="#m56cc5124a0" y="252.0"/>
      </g>
     </g>
     <g id="line2d_6">
      <g>
       <use style="fill:#262626;stroke:#262626;stroke-width:1.3;" x="80.64" xlink:href="#m56cc5124a0" y="28.8"/>
      </g>
     </g>
     <g id="text_2">
      <!-- 0 -->
      <defs>
       <path d=" M49.7969 16.5938 Q37.0938 -0.90625 26.8906 -0.90625 Q16.7031 -0.90625 10.3438 7.84375 Q4 16.5938 4 30.6875 Q4 44.7969 10.3438 53.5469 Q16.7031 62.2969 26.8906 62.2969 Q37.0938 62.2969 43.4375 53.5469 Q49.7969 44.7969 49.7969 30.6875 Q49.7969 16.5938 37.0938 -0.90625 M26.9062 55.2031 Q19.5938 55.2031 15.6406 48.5 Q11.7031 41.7969 11.7031 30.6875 Q11.7031 19.5938 15.6406 12.8906 Q19.5938 6.20312 26.9062 6.20312 Q34.0938 6.20312 38.0938 12.9531 Q42.0938 19.7031 42.0938 30.7031 Q42.0938 41.7031 38.0938 48.4531 Q34.0938 55.2031 26.9062 55.2031" id="CalibreRegular-30"/>
      </defs>
      <g style="fill:#262626;" transform="translate(77.3655234375 270.395)scale(0.14300000000000002 -0.14300000000000002)">
       <use xlink:href="#CalibreRegular-30"/>
      </g>
     </g>
    </g>
    <g id="xtick_3">
     <g id="line2d_7">
      <path clip-path="url(#p08154cb638)" d=" M125.28 252 L125.28 28.8" style="fill:none;stroke:#ffffff;stroke-linecap:round;stroke-width:1.3;"/>
     </g>
     <g id="line2d_8">
      <g>
       <use style="fill:#262626;stroke:#262626;stroke-width:1.3;" x="125.28" xlink:href="#m56cc5124a0" y="252.0"/>
      </g>
     </g>
     <g id="line2d_9">
      <g>
       <use style="fill:#262626;stroke:#262626;stroke-width:1.3;" x="125.28" xlink:href="#m56cc5124a0" y="28.8"/>
      </g>
     </g>
     <g id="text_3">
      <!-- 1 -->
      <g style="fill:#262626;" transform="translate(123.642203125 270.395)scale(0.14300000000000002 -0.14300000000000002)">
       <use xlink:href="#CalibreRegular-31"/>
      </g>
     </g>
    </g>
    <g id="xtick_4">
     <g id="line2d_10">
      <path clip-path="url(#p08154cb638)" d=" M169.92 252 L169.92 28.8" style="fill:none;stroke:#ffffff;stroke-linecap:round;stroke-width:1.3;"/>
     </g>
     <g id="line2d_11">
      <g>
       <use style="fill:#262626;stroke:#262626;stroke-width:1.3;" x="169.92" xlink:href="#m56cc5124a0" y="252.0"/>
      </g>
     </g>
     <g id="line2d_12">
      <g>
       <use style="fill:#262626;stroke:#262626;stroke-width:1.3;" x="169.92" xlink:href="#m56cc5124a0" y="28.8"/>
      </g>
     </g>
     <g id="text_4">
      <!-- 2 -->
      <defs>
       <path d=" M34.0938 44.9062 Q34.0938 49.5938 31.0938 52.4375 Q28.0938 55.2969 23 55.2969 Q17.5938 55.2969 14.5469 51.9375 Q11.5 48.5938 11 43 L2.90625 43 Q3.79688 51.7031 9.1875 57 Q14.5938 62.2969 23 62.2969 Q31.7031 62.2969 36.7031 57.5938 Q41.7031 52.9062 41.7031 45 Q41.7031 43.5938 41.3438 42.0938 Q41 40.5938 40.6406 39.5 Q40.2969 38.4062 39.3438 36.75 Q38.4062 35.0938 37.9062 34.2969 Q37.4062 33.5 35.9062 31.7031 Q34.4062 29.9062 33.9062 29.2969 Q33.4062 28.7031 31.5469 26.6406 Q29.7031 24.5938 29.2969 24.0938 L13.7031 7 L43 7 L43 0 L2.90625 0 L2.90625 5.20312 L22.7031 27 Q27.2031 32 28.7969 33.7969 Q30.4062 35.5938 32.25 38.8906 Q34.0938 42.2031 34.0938 44.9062" id="CalibreRegular-32"/>
      </defs>
      <g style="fill:#262626;" transform="translate(167.053296875 270.395)scale(0.14300000000000002 -0.14300000000000002)">
       <use xlink:href="#CalibreRegular-32"/>
      </g>
     </g>
    </g>
    <g id="xtick_5">
     <g id="line2d_13">
      <path clip-path="url(#p08154cb638)" d=" M214.56 252 L214.56 28.8" style="fill:none;stroke:#ffffff;stroke-linecap:round;stroke-width:1.3;"/>
     </g>
     <g id="line2d_14">
      <g>
       <use style="fill:#262626;stroke:#262626;stroke-width:1.3;" x="214.56" xlink:href="#m56cc5124a0" y="252.0"/>
      </g>
     </g>
     <g id="line2d_15">
      <g>
       <use style="fill:#262626;stroke:#262626;stroke-width:1.3;" x="214.56" xlink:href="#m56cc5124a0" y="28.8"/>
      </g>
     </g>
     <g id="text_5">
      <!-- 3 -->
      <defs>
       <path d=" M18.4062 28.0938 L18.4062 34.7969 L22.5 34.7969 Q27.5 34.7969 30.75 37.5469 Q34 40.2969 34 45.0938 Q34 49.5938 30.9531 52.5469 Q27.9062 55.5 22.7969 55.5 Q17.7031 55.5 14.5 52.5 Q11.2969 49.5 10.5938 44.5938 L2.90625 44.5938 Q4 52.5 9.39062 57.3906 Q14.7969 62.2969 22.7969 62.2969 Q31.4062 62.2969 36.4531 57.6406 Q41.5 53 41.5 45.5 Q41.5 40.5 38.8438 36.6406 Q36.2031 32.7969 31.9062 31.5 Q36.9062 30.0938 39.7969 26.25 Q42.7031 22.4062 42.7031 17.2031 Q42.7031 9.40625 37.3438 4.25 Q32 -0.90625 23 -0.90625 Q14 -0.90625 8.25 4.09375 Q2.5 9.09375 1.70312 17.5 L9.40625 17.5 Q10.2031 12.0938 13.7031 9 Q17.2031 5.90625 22.9062 5.90625 Q28.4062 5.90625 31.7969 8.95312 Q35.2031 12 35.2031 17.0938 Q35.2031 22.0938 31.6406 25.0938 Q28.0938 28.0938 22.7031 28.0938 z " id="CalibreRegular-33"/>
      </defs>
      <g style="fill:#262626;" transform="translate(211.6285 270.395)scale(0.14300000000000002 -0.14300000000000002)">
       <use xlink:href="#CalibreRegular-33"/>
      </g>
     </g>
    </g>
    <g id="xtick_6">
     <g id="line2d_16">
      <path clip-path="url(#p08154cb638)" d=" M259.2 252 L259.2 28.8" style="fill:none;stroke:#ffffff;stroke-linecap:round;stroke-width:1.3;"/>
     </g>
     <g id="line2d_17">
      <g>
       <use style="fill:#262626;stroke:#262626;stroke-width:1.3;" x="259.2" xlink:href="#m56cc5124a0" y="252.0"/>
      </g>
     </g>
     <g id="line2d_18">
      <g>
       <use style="fill:#262626;stroke:#262626;stroke-width:1.3;" x="259.2" xlink:href="#m56cc5124a0" y="28.8"/>
      </g>
     </g>
     <g id="text_6">
      <!-- 4 -->
      <defs>
       <path d=" M33.7969 61.4062 L10.9062 20.5 L30.5 20.5 L30.5 35.2969 L37.7969 35.2969 L37.7969 20.5 L48.5938 20.5 L48.5938 13.9062 L37.7969 13.9062 L37.7969 0 L30.5 0 L30.5 13.9062 L2.20312 13.9062 L2.20312 19.5 L25.7969 61.4062 z " id="CalibreRegular-34"/>
      </defs>
      <g style="fill:#262626;" transform="translate(255.883070312 270.395)scale(0.14300000000000002 -0.14300000000000002)">
       <use xlink:href="#CalibreRegular-34"/>
      </g>
     </g>
    </g>
   </g>
   <g id="matplotlib.axis_2">
    <g id="ytick_1">
     <g id="line2d_19">
      <path clip-path="url(#p08154cb638)" d=" M36 252 L259.2 252" style="fill:none;stroke:#ffffff;stroke-linecap:round;stroke-width:1.3;"/>
     </g>
     <g id="line2d_20">
      <g>
       <use style="fill:#262626;stroke:#262626;stroke-width:1.3;" x="36.0" xlink:href="#m56cc5124a0" y="252.0"/>
      </g>
     </g>
     <g id="line2d_21">
      <g>
       <use style="fill:#262626;stroke:#262626;stroke-width:1.3;" x="259.2" xlink:href="#m56cc5124a0" y="252.0"/>
      </g>
     </g>
     <g id="text_7">
      <!-- &#8722;1 -->
      <g style="fill:#262626;" transform="translate(16.588359375 255.432)scale(0.14300000000000002 -0.14300000000000002)">
       <use xlink:href="#CalibreRegular-2212"/>
       <use x="53.99998474121094" xlink:href="#CalibreRegular-31"/>
      </g>
     </g>
    </g>
    <g id="ytick_2">
     <g id="line2d_22">
      <path clip-path="url(#p08154cb638)" d=" M36 207.36 L259.2 207.36" style="fill:none;stroke:#ffffff;stroke-linecap:round;stroke-width:1.3;"/>
     </g>
     <g id="line2d_23">
      <g>
       <use style="fill:#262626;stroke:#262626;stroke-width:1.3;" x="36.0" xlink:href="#m56cc5124a0" y="207.36"/>
      </g>
     </g>
     <g id="line2d_24">
      <g>
       <use style="fill:#262626;stroke:#262626;stroke-width:1.3;" x="259.2" xlink:href="#m56cc5124a0" y="207.36"/>
      </g>
     </g>
     <g id="text_8">
      <!-- 0 -->
      <g style="fill:#262626;" transform="translate(20.351046875 210.792)scale(0.14300000000000002 -0.14300000000000002)">
       <use xlink:href="#CalibreRegular-30"/>
      </g>
     </g>
    </g>
    <g id="ytick_3">
     <g id="line2d_25">
      <path clip-path="url(#p08154cb638)" d=" M36 162.72 L259.2 162.72" style="fill:none;stroke:#ffffff;stroke-linecap:round;stroke-width:1.3;"/>
     </g>
     <g id="line2d_26">
      <g>
       <use style="fill:#262626;stroke:#262626;stroke-width:1.3;" x="36.0" xlink:href="#m56cc5124a0" y="162.72"/>
      </g>
     </g>
     <g id="line2d_27">
      <g>
       <use style="fill:#262626;stroke:#262626;stroke-width:1.3;" x="259.2" xlink:href="#m56cc5124a0" y="162.72"/>
      </g>
     </g>
     <g id="text_9">
      <!-- 1 -->
      <g style="fill:#262626;" transform="translate(23.62440625 166.152)scale(0.14300000000000002 -0.14300000000000002)">
       <use xlink:href="#CalibreRegular-31"/>
      </g>
     </g>
    </g>
    <g id="ytick_4">
     <g id="line2d_28">
      <path clip-path="url(#p08154cb638)" d=" M36 118.08 L259.2 118.08" style="fill:none;stroke:#ffffff;stroke-linecap:round;stroke-width:1.3;"/>
     </g>
     <g id="line2d_29">
      <g>
       <use style="fill:#262626;stroke:#262626;stroke-width:1.3;" x="36.0" xlink:href="#m56cc5124a0" y="118.08"/>
      </g>
     </g>
     <g id="line2d_30">
      <g>
       <use style="fill:#262626;stroke:#262626;stroke-width:1.3;" x="259.2" xlink:href="#m56cc5124a0" y="118.08"/>
      </g>
     </g>
     <g id="text_10">
      <!-- 2 -->
      <g style="fill:#262626;" transform="translate(21.16659375 121.512)scale(0.14300000000000002 -0.14300000000000002)">
       <use xlink:href="#CalibreRegular-32"/>
      </g>
     </g>
    </g>
    <g id="ytick_5">
     <g id="line2d_31">
      <path clip-path="url(#p08154cb638)" d=" M36 73.44 L259.2 73.44" style="fill:none;stroke:#ffffff;stroke-linecap:round;stroke-width:1.3;"/>
     </g>
     <g id="line2d_32">
      <g>
       <use style="fill:#262626;stroke:#262626;stroke-width:1.3;" x="36.0" xlink:href="#m56cc5124a0" y="73.44"/>
      </g>
     </g>
     <g id="line2d_33">
      <g>
       <use style="fill:#262626;stroke:#262626;stroke-width:1.3;" x="259.2" xlink:href="#m56cc5124a0" y="73.44"/>
      </g>
     </g>
     <g id="text_11">
      <!-- 3 -->
      <g style="fill:#262626;" transform="translate(21.037 76.872)scale(0.14300000000000002 -0.14300000000000002)">
       <use xlink:href="#CalibreRegular-33"/>
      </g>
     </g>
    </g>
    <g id="ytick_6">
     <g id="line2d_34">
      <path clip-path="url(#p08154cb638)" d=" M36 28.8 L259.2 28.8" style="fill:none;stroke:#ffffff;stroke-linecap:round;stroke-width:1.3;"/>
     </g>
     <g id="line2d_35">
      <g>
       <use style="fill:#262626;stroke:#262626;stroke-width:1.3;" x="36.0" xlink:href="#m56cc5124a0" y="28.8"/>
      </g>
     </g>
     <g id="line2d_36">
      <g>
       <use style="fill:#262626;stroke:#262626;stroke-width:1.3;" x="259.2" xlink:href="#m56cc5124a0" y="28.8"/>
      </g>
     </g>
     <g id="text_12">
      <!-- 4 -->
      <g style="fill:#262626;" transform="translate(20.266140625 32.232)scale(0.14300000000000002 -0.14300000000000002)">
       <use xlink:href="#CalibreRegular-34"/>
      </g>
     </g>
    </g>
   </g>
   <g id="patch_3">
    <path d=" M36 252 L259.2 252" style="fill:none;"/>
   </g>
   <g id="patch_4">
    <path d=" M259.2 252 L259.2 28.8" style="fill:none;"/>
   </g>
   <g id="patch_5">
    <path d=" M36 28.8 L259.2 28.8" style="fill:none;"/>
   </g>
   <g id="patch_6">
    <path d=" M36 252 L36 28.8" style="fill:none;"/>
   </g>
   <g id="text_13">
    <!-- $\vec b$ -->
    <defs>
     <path d=" M31.0938 67.9062 L24.5 41.4062 Q31.2031 46.2969 38.5 46.2969 Q45.5 46.2969 49.5 42.25 Q53.5 38.2031 53.5 31.2969 Q53.5 18.2031 44 8.59375 Q34.5 -1 22.5 -1 Q12.2031 -1 7.40625 4.70312 L22.7031 66 L30.2969 68.4062 z  M21.7031 30.2031 L16.5 9.40625 Q19.5938 6.09375 24.7969 6.09375 Q32 6.09375 38.5938 12.3906 Q45.2031 18.7031 45.2031 28.7969 Q45.2031 33.5938 42.6406 36.3906 Q40.0938 39.2031 35.2031 39.2031 Q31.5938 39.2031 27.9375 36.8438 Q24.2969 34.5 21.7031 30.2031" id="STIXGeneral-Italic-1d623"/>
     <path d=" M-1.70312 65.4062 L-14.9062 54.7969 L-16.7031 55.5938 Q-11.7969 59.7031 -11.7969 61.2031 Q-11.7969 62.7031 -16.7031 62.7031 L-45.2969 62.7031 L-45.2969 68.0938 L-16.7031 68.0938 Q-11.7969 68.0938 -11.7969 69.5938 Q-11.7969 69.9062 -12 70.25 Q-12.2031 70.5938 -12.75 71.1406 Q-13.2969 71.7031 -13.75 72.2031 Q-14.2031 72.7031 -15.2031 73.6406 Q-16.2031 74.5938 -16.7969 75.2031 L-15 76 z " id="STIXGeneral-Regular-20d7"/>
    </defs>
    <g style="fill:#262626;" transform="translate(94.032 153.792)scale(0.15 -0.15)">
     <use transform="translate(46.296875 27.0)" xlink:href="#STIXGeneral-Regular-20d7"/>
     <use transform="translate(0.0 0.890625)" xlink:href="#STIXGeneral-Italic-1d623"/>
    </g>
   </g>
   <g id="text_14">
    <!-- Proj$_{\vec a}(\vec b)$ -->
    <defs>
     <path d=" M30.2969 24.5938 L15.2031 24.5938 L15.2031 0 L7.29688 0 L7.29688 61.4062 L30.2969 61.4062 Q39.7969 61.4062 45.1406 56.6562 Q50.5 51.9062 50.5 43 Q50.5 34.0938 45.0938 29.3438 Q39.7031 24.5938 30.2969 24.5938 M42.7031 43 Q42.7031 48.4062 39.4531 51.4531 Q36.2031 54.5 30.0938 54.5 L15.2031 54.5 L15.2031 31.5938 L30.0938 31.5938 Q36.2031 31.5938 39.4531 34.6406 Q42.7031 37.7031 42.7031 43" id="CalibreRegular-50"/>
     <path d=" M2.90625 66 L4.09375 67.5938 Q15.5 60.7969 22 49.1875 Q28.5 37.5938 28.5 24.7031 Q28.5 -2.59375 3.79688 -17.7031 L2.90625 -16.0938 Q13.2031 -7.59375 16.5469 0.84375 Q19.9062 9.29688 19.9062 24.4062 Q19.9062 39.5938 16.5469 48.75 Q13.2031 57.9062 2.90625 66" id="STIXGeneral-Regular-29"/>
     <path d=" M16.9062 30.2031 L12.7969 33.2969 Q15.7969 40.0938 21.3438 43.1875 Q26.9062 46.2969 33.4062 46.2969 Q39.7031 46.2969 43.2031 43.6406 Q46.7031 41 46.7031 36.2031 Q46.7031 34.7969 46.2031 32.5938 L39.9062 7.59375 Q39.0938 4.70312 39.0938 0 L30.5938 0 L31.0938 4.40625 Q23.9062 -1 14.9062 -1 Q10.5 -1 8 0.953125 Q5.5 2.90625 5.5 6.59375 Q5.5 23.4062 37.5 29.4062 L38.2969 32.7031 Q38.5 33.7031 38.5 34.2031 Q38.5 36.5 36.5469 37.8438 Q34.5938 39.2031 31.4062 39.2031 Q23.7969 39.2031 18.4062 30.2031 z  M33.4062 13.2031 L35.7031 22.2031 Q13.9062 18.7031 13.9062 9.59375 Q13.9062 6.09375 18.7031 6.09375 Q25.5 6.09375 33.4062 13.2031" id="STIXGeneral-Italic-1d622"/>
     <path d=" M33 45.2969 Q44.2969 32.4062 44.2969 22.2031 Q44.2969 12 38.6406 5.54688 Q33 -0.90625 23.8906 -0.90625 Q14.7969 -0.90625 9.14062 5.54688 Q3.5 12 3.5 22.2031 Q3.5 32.4062 9.14062 38.8438 Q14.7969 45.2969 23.8906 45.2969 Q33 45.2969 44.2969 32.4062 M29.7969 5.70312 Q36.7031 14.7969 36.7031 22.1875 Q36.7031 29.5938 33.25 34.1406 Q29.7969 38.7031 23.8906 38.7031 Q18 38.7031 14.5469 34.1406 Q11.0938 29.5938 11.0938 22.1875 Q11.0938 14.7969 14.5469 10.25 Q18 5.70312 23.8906 5.70312 Q29.7969 5.70312 36.7031 14.7969" id="CalibreRegular-6f"/>
     <path d=" M30.4062 -16.0938 L29.2031 -17.7031 Q17.5938 -11.0938 11.1875 0.5 Q4.79688 12.0938 4.79688 25.2031 Q4.79688 52.9062 29.5 67.5938 L30.4062 66 Q20.2031 57.2969 16.7969 48.8438 Q13.4062 40.4062 13.4062 25.5 Q13.4062 10.7031 16.9062 1.5 Q20.4062 -7.70312 30.4062 -16.0938" id="STIXGeneral-Regular-28"/>
     <path d=" M14.2031 44.4062 L14.2031 -5.09375 Q14.2031 -11.2969 10.8438 -14.5938 Q7.5 -17.9062 1.29688 -17.9062 Q-0.796875 -17.9062 -1.90625 -17.5 L-1.90625 -11.0938 Q-0.09375 -11.4062 0.703125 -11.4062 Q6.70312 -11.4062 6.70312 -4.59375 L6.70312 44.4062 z  M12.4062 62.5938 Q15.2969 59.7969 15.2969 57.7969 Q15.2969 55.7969 13.8438 54.3906 Q12.4062 53 10.4062 53 Q8.40625 53 7 54.3906 Q5.59375 55.7969 5.59375 57.7969 Q5.59375 59.7969 7 61.1875 Q8.40625 62.5938 10.4062 62.5938 Q12.4062 62.5938 15.2969 59.7969" id="CalibreRegular-6a"/>
     <path d=" M29.5 44.5938 L29.5 36.9062 Q27.7031 38.0938 24.5 38.0938 Q20.9062 38.0938 18.0938 35.8906 Q15.2969 33.7031 14.2031 29.7969 L14.2031 0 L6.70312 0 L6.70312 44.4062 L14.2031 44.4062 L14.2031 38.5938 Q15.7031 41.5 18.6406 43.3906 Q21.5938 45.2969 25.2031 45.2969 Q28.0938 45.2969 29.5 44.5938" id="CalibreRegular-72"/>
    </defs>
    <g style="fill:#262626;" transform="translate(116.352 202.896)scale(0.15 -0.15)">
     <use transform="translate(0.0 0.890625)" xlink:href="#CalibreRegular-50"/>
     <use transform="translate(53.69999694824219 0.890625)" xlink:href="#CalibreRegular-72"/>
     <use transform="translate(85.79998779296875 0.890625)" xlink:href="#CalibreRegular-6f"/>
     <use transform="translate(133.5999755859375 0.890625)" xlink:href="#CalibreRegular-6a"/>
     <use transform="translate(185.0187225341797 -16.07343750000001)scale(0.7)" xlink:href="#STIXGeneral-Regular-20d7"/>
     <use transform="translate(154.2999725341797 -18.871875000000003)scale(0.7)" xlink:href="#STIXGeneral-Italic-1d622"/>
     <use transform="translate(185.65996398925782 0.890625)" xlink:href="#STIXGeneral-Regular-28"/>
     <use transform="translate(265.25682678222654 27.0)" xlink:href="#STIXGeneral-Regular-20d7"/>
     <use transform="translate(218.95995178222657 0.890625)" xlink:href="#STIXGeneral-Italic-1d623"/>
     <use transform="translate(268.5599426269531 0.890625)" xlink:href="#STIXGeneral-Regular-29"/>
    </g>
   </g>
   <g id="text_15">
    <!-- $\vec a$ -->
    <g style="fill:#262626;" transform="translate(214.56 162.72)scale(0.15 -0.15)">
     <use transform="translate(44.296875 4.0)" xlink:href="#STIXGeneral-Regular-20d7"/>
     <use xlink:href="#STIXGeneral-Italic-1d622"/>
    </g>
   </g>
   <g id="text_16">
    <!-- $\vec b - $Proj$_{\vec a}(\vec b)$ -->
    <defs>
     <path d=" M62.0938 22 L6.40625 22 L6.40625 28.5938 L62.0938 28.5938 z " id="STIXGeneral-Regular-2212"/>
    </defs>
    <g style="fill:#262626;" transform="translate(134.208 131.472)scale(0.15 -0.15)">
     <use transform="translate(46.296875 27.0)" xlink:href="#STIXGeneral-Regular-20d7"/>
     <use transform="translate(0.0 0.890625)" xlink:href="#STIXGeneral-Italic-1d623"/>
     <use transform="translate(49.59999084472656 0.890625)" xlink:href="#STIXGeneral-Regular-2212"/>
     <use transform="translate(118.0999755859375 0.890625)" xlink:href="#CalibreRegular-50"/>
     <use transform="translate(171.7999725341797 0.890625)" xlink:href="#CalibreRegular-72"/>
     <use transform="translate(203.89996337890625 0.890625)" xlink:href="#CalibreRegular-6f"/>
     <use transform="translate(251.699951171875 0.890625)" xlink:href="#CalibreRegular-6a"/>
     <use transform="translate(303.1186981201172 -16.07343750000001)scale(0.7)" xlink:href="#STIXGeneral-Regular-20d7"/>
     <use transform="translate(272.3999481201172 -18.871875000000003)scale(0.7)" xlink:href="#STIXGeneral-Italic-1d622"/>
     <use transform="translate(303.7599395751953 0.890625)" xlink:href="#STIXGeneral-Regular-28"/>
     <use transform="translate(383.35680236816404 27.0)" xlink:href="#STIXGeneral-Regular-20d7"/>
     <use transform="translate(337.05992736816404 0.890625)" xlink:href="#STIXGeneral-Italic-1d623"/>
     <use transform="translate(386.6599182128906 0.890625)" xlink:href="#STIXGeneral-Regular-29"/>
    </g>
   </g>
   <g id="Quiver_1">
    <path clip-path="url(#p08154cb638)" d=" M80.1409 207.11 L123.783 119.827 L122.285 119.078 L125.28 118.08 L126.278 121.075 L124.781 120.326 L81.1391 207.61 L80.1409 207.11" style="fill:#386df9;"/>
    <path clip-path="url(#p08154cb638)" d=" M80.3905 206.861 L212.314 140.899 L211.565 139.402 L214.56 140.4 L213.562 143.395 L212.813 141.897 L80.8895 207.859 L80.3905 206.861" style="fill:#ffdc52;"/>
    <path clip-path="url(#p08154cb638)" d=" M80.3905 206.861 L149.818 172.147 L149.069 170.65 L152.064 171.648 L151.066 174.643 L150.317 173.145 L80.8895 207.859 L80.3905 206.861" style="fill:#ff1614;"/>
    <path clip-path="url(#p08154cb638)" d=" M151.565 171.898 L125.779 120.326 L124.282 121.075 L125.28 118.08 L128.275 119.078 L126.777 119.827 L152.563 171.398 L151.565 171.898" style="fill:#62f591;"/>
   </g>
  </g>
 </g>
 </svg>
