<?xml version="1.0" encoding="utf-8"?>
<!-- Generator: Adobe Illustrator 16.0.0, SVG Export Plug-In . SVG Version: 6.00 Build 0)  -->
<!DOCTYPE svg PUBLIC "-//W3C//DTD SVG 1.1//EN" "http://www.w3.org/Graphics/SVG/1.1/DTD/svg11.dtd">
<svg version="1.1" id="Layer_1" xmlns="http://www.w3.org/2000/svg" xmlns:xlink="http://www.w3.org/1999/xlink" x="0px" y="0px"
	 width="162.759px" height="122.65px" viewBox="0 0 162.759 122.65" enable-background="new 0 0 162.759 122.65"
	 xml:space="preserve">
<g>
	<g>
		
			<line fill="none" stroke="#FFB3C2" stroke-linecap="round" stroke-miterlimit="10" x1="109.891" y1="63.903" x2="94.211" y2="42.998"/>
		<g>
			<polygon fill="#FFB3C2" points="99.471,43.195 99.295,44.181 94.442,43.305 93.924,48.209 92.929,48.103 93.562,42.13 			"/>
		</g>
	</g>
</g>
<g>
	<g>
		<line fill="none" stroke="#BABABA" stroke-linejoin="round" x1="144.961" y1="30.797" x2="42.063" y2="121.781"/>
		<g>
			<polygon fill="#BABABA" points="139.77,29.928 139.744,30.928 144.673,31.05 144.191,35.958 145.188,36.055 145.772,30.077 			
				"/>
		</g>
		<g>
			<polygon fill="#BABABA" points="41.837,116.522 42.833,116.62 42.351,121.526 47.28,121.649 47.254,122.65 41.25,122.499 			"/>
		</g>
	</g>
</g>
<g>
	<g>
		
			<line fill="none" stroke="#4BF9CF" stroke-linecap="round" stroke-miterlimit="10" x1="75.262" y1="93.188" x2="129.135" y2="44.801"/>
		<g>
			<polygon fill="#4BF9CF" points="129.402,50.058 128.405,49.969 128.85,45.058 123.919,44.974 123.938,43.973 129.942,44.077 			
				"/>
		</g>
	</g>
</g>
<g>
	<g>
		
			<line fill="none" stroke="#C41C3C" stroke-linecap="round" stroke-miterlimit="10" x1="75.262" y1="93.188" x2="108.959" y2="62.922"/>
		<g>
			<polygon fill="#C41C3C" points="109.227,68.179 108.229,68.09 108.674,63.179 103.743,63.095 103.762,62.094 109.767,62.198 			
				"/>
		</g>
	</g>
</g>
<g>
	<g>
		<line fill="none" stroke="#BABABA" stroke-linejoin="round" x1="75.262" y1="10.496" x2="75.262" y2="119.65"/>
		<g>
			<polygon fill="#BABABA" points="71.172,13.811 71.904,14.492 75.261,10.881 78.618,14.492 79.351,13.811 75.261,9.412 			"/>
		</g>
		<g>
			<polygon fill="#BABABA" points="71.172,116.336 71.904,115.654 75.261,119.266 78.618,115.654 79.351,116.336 75.261,120.734 			
				"/>
		</g>
	</g>
</g>
<g>
	<g>
		<line fill="none" stroke="#BABABA" stroke-linejoin="round" x1="161.674" y1="93.188" x2="39.787" y2="93.188"/>
		<g>
			<polygon fill="#BABABA" points="158.361,89.098 157.679,89.83 161.291,93.187 157.679,96.544 158.361,97.276 162.759,93.187 			
				"/>
		</g>
		<g>
			<polygon fill="#BABABA" points="43.102,89.098 43.783,89.83 40.172,93.187 43.783,96.544 43.102,97.276 38.703,93.187 			"/>
		</g>
	</g>
</g>
<g>
	<g>
		
			<line fill="none" stroke="#F7415B" stroke-linecap="round" stroke-miterlimit="10" x1="75.262" y1="93.188" x2="93.202" y2="41.901"/>
		<g>
			<polygon fill="#F7415B" points="95.969,46.38 95.053,46.781 93.076,42.264 88.715,44.564 88.249,43.679 93.562,40.878 			"/>
		</g>
	</g>
</g>
<g>
	<g>
		
			<line fill="none" stroke="#F2EC14" stroke-linecap="round" stroke-miterlimit="10" x1="41.251" y1="19.281" x2="66.208" y2="40.18"/>
		<g>
			<polygon fill="#F2EC14" points="61.041,41.188 60.988,40.188 65.913,39.934 65.299,35.041 66.292,34.918 67.038,40.877 			"/>
		</g>
	</g>
</g>
<g>
	<g>
		
			<line fill="none" stroke="#F2EC14" stroke-linecap="round" stroke-miterlimit="10" x1="31.063" y1="29.469" x2="56.021" y2="50.368"/>
		<g>
			<polygon fill="#F2EC14" points="50.854,51.376 50.801,50.377 55.726,50.122 55.111,45.229 56.105,45.106 56.851,51.065 			"/>
		</g>
	</g>
</g>
<g>
	<g>
		
			<line fill="none" stroke="#F2EC14" stroke-linecap="round" stroke-miterlimit="10" x1="19.603" y1="37.109" x2="44.559" y2="58.009"/>
		<g>
			<polygon fill="#F2EC14" points="39.392,59.017 39.339,58.018 44.264,57.763 43.65,52.87 44.644,52.746 45.389,58.706 			"/>
		</g>
	</g>
</g>
<g>
	<g>
		
			<line fill="none" stroke="#F2EC14" stroke-linecap="round" stroke-miterlimit="10" x1="10.688" y1="2.726" x2="35.645" y2="23.625"/>
		<g>
			<polygon fill="#F2EC14" points="30.478,24.633 30.425,23.634 35.35,23.379 34.735,18.486 35.729,18.363 36.475,24.322 			"/>
		</g>
	</g>
</g>
<g>
	<g>
		
			<line fill="none" stroke="#F2EC14" stroke-linecap="round" stroke-miterlimit="10" x1="0.5" y1="12.913" x2="25.457" y2="33.812"/>
		<g>
			<polygon fill="#F2EC14" points="20.29,34.82 20.237,33.821 25.162,33.566 24.548,28.674 25.541,28.551 26.287,34.51 			"/>
		</g>
	</g>
</g>
<g>
	<rect x="17.503" y="1.611" fill="none" width="55.396" height="19.739"/>
	<path fill="#7A7A7A" d="M34.188,12.691h-0.751c-1.211-1.439-2.141-3.121-2.141-5.542s0.93-4.103,2.141-5.542h0.751
		c-1.401,1.694-2.242,3.185-2.242,5.542C31.945,9.494,32.786,10.997,34.188,12.691z"/>
	<path fill="#7A7A7A" d="M37.014,10.118c-0.217,0.051-0.356,0.063-0.51,0.063c-0.662,0-1.083-0.369-1.083-1.108V1.607h0.65v7.377
		c0,0.472,0.229,0.637,0.548,0.637c0.165,0,0.268-0.025,0.395-0.063V10.118z"/>
	<path fill="#7A7A7A" d="M38.694,1.926c0.28,0,0.497,0.217,0.497,0.497c0,0.268-0.217,0.471-0.497,0.471
		c-0.268,0-0.472-0.203-0.472-0.471C38.223,2.143,38.427,1.926,38.694,1.926z M39.025,4.231v5.887h-0.649V4.231H39.025z"/>
	<path fill="#7A7A7A" d="M44.541,4.767c0.306-0.165,0.483-0.522,0.522-1.045l0.586,0.191c-0.063,0.663-0.408,1.02-0.854,1.186
		c0.165,0.293,0.255,0.649,0.255,1.069c0,1.3-0.956,2.014-2.205,2.014c-0.331,0-0.637-0.051-0.854-0.128
		c-0.331,0.153-0.497,0.383-0.497,0.688c0,0.407,0.294,0.611,0.854,0.611h1.338c1.146,0,1.937,0.459,1.937,1.567
		c0,1.478-1.567,1.886-2.956,1.886c-1.274,0-2.51-0.369-2.51-1.631c0-0.879,0.649-1.427,1.566-1.479
		c-0.51-0.038-0.803-0.382-0.803-0.854c0-0.433,0.255-0.764,0.739-0.917c-0.637-0.318-1.032-0.93-1.032-1.759
		c0-1.273,0.88-2.051,2.204-2.051C43.56,4.117,44.146,4.347,44.541,4.767z M42.719,12.31c1.197,0,2.28-0.318,2.28-1.325
		c0-0.649-0.42-1.045-1.325-1.045h-1.248c-0.969,0-1.644,0.345-1.644,1.186C40.782,11.991,41.636,12.31,42.719,12.31z M42.833,7.685
		c0.943,0,1.567-0.548,1.567-1.529c0-0.98-0.624-1.528-1.567-1.528C41.865,4.64,41.267,5.2,41.267,6.155
		C41.267,7.086,41.865,7.685,42.833,7.685z"/>
	<path fill="#7A7A7A" d="M47.493,5.569c0.242-0.854,0.904-1.452,1.898-1.452c1.032,0,1.81,0.548,1.81,1.86v4.141h-0.65V6.143
		c0-0.93-0.471-1.452-1.3-1.452c-0.942,0-1.758,0.649-1.758,2.09v3.338h-0.649V1.607h0.649V5.569z"/>
	<path fill="#7A7A7A" d="M55.798,9.838c-0.307,0.268-0.752,0.395-1.262,0.395c-0.917,0-1.427-0.521-1.427-1.49V4.767h-0.854V4.231
		h0.854V2.983l0.649-0.09v1.338h1.759v0.535h-1.771v3.861c0,0.738,0.344,1.044,0.866,1.044c0.421,0,0.688-0.102,1.007-0.356
		L55.798,9.838z"/>
	<path fill="#7A7A7A" d="M56.229,1.607h0.739c1.223,1.439,2.14,3.121,2.14,5.542s-0.917,4.103-2.14,5.542h-0.739
		c1.401-1.694,2.242-3.197,2.242-5.542C58.471,4.792,57.63,3.302,56.229,1.607z"/>
</g>
<g>
	<rect x="102.244" y="55.485" fill="none" width="55.396" height="19.739"/>
	<path fill="#4BF9CF" d="M128.551,56.897v9.677h4.883v0.82h-5.827V56.897H128.551z"/>
</g>
<g>
	<g>
		<rect x="93.561" y="30.7" fill="none" width="11.75" height="11.432"/>
		<path fill="#F7415B" d="M100.015,38.794c-0.518-0.778-0.549-0.976-0.549-0.976h-0.061c0,0-0.046,0.183-0.595,0.99l-1.402,2.073
			H96.57l2.438-3.582l-2.302-3.461h0.899l1.25,1.921c0.519,0.823,0.595,1.006,0.595,1.006h0.046c0,0,0.061-0.197,0.563-0.99
			l1.266-1.937h0.854l-2.302,3.445l2.424,3.598h-0.869L100.015,38.794z"/>
	</g>
	
		<polyline fill="none" stroke="#F7415B" stroke-width="0.5" stroke-linecap="round" stroke-linejoin="round" stroke-miterlimit="10" points="
		96.735,28.952 102.135,28.952 99.436,26.888 	"/>
	<g>
	</g>
</g>
<g>
	<g>
		<g>
			<rect x="125.027" y="77.184" fill="none" width="10.252" height="9.973"/>
			<path fill="#C41C3C" d="M130.657,84.246c-0.451-0.679-0.479-0.851-0.479-0.851h-0.053c0,0-0.04,0.159-0.519,0.863l-1.223,1.808
				h-0.73l2.126-3.123l-2.007-3.018h0.784l1.09,1.675c0.452,0.718,0.519,0.877,0.519,0.877h0.04c0,0,0.053-0.172,0.491-0.863
				l1.104-1.688h0.744l-2.007,3.004l2.113,3.137h-0.758L130.657,84.246z"/>
		</g>
		
			<polyline fill="none" stroke="#C41C3C" stroke-width="0.5" stroke-linecap="round" stroke-linejoin="round" stroke-miterlimit="10" points="
			127.798,75.658 132.508,75.658 130.153,73.857 		"/>
		<g>
		</g>
	</g>
	<g>
		<g>
			<path fill="#C41C3C" d="M97.894,84.923v-7.828h2.1c1.861,0,2.658,0.851,2.658,2.312c0,1.568-0.863,2.433-2.604,2.433h-1.449
				v3.083H97.894z M98.598,81.255h1.383c1.396,0,1.94-0.625,1.94-1.821c0-1.129-0.611-1.74-1.954-1.74h-1.369V81.255z"/>
			<path fill="#C41C3C" d="M107.094,79.487c-0.146-0.066-0.346-0.093-0.571-0.093c-1.036,0-1.768,1.01-1.768,2.339v3.189h-0.678
				v-6.141h0.559l0.093,1.741c0.186-1.103,0.891-1.847,2.02-1.847c0.16,0,0.306,0.026,0.412,0.066L107.094,79.487z"/>
			<path fill="#C41C3C" d="M107.654,81.826c0-2.073,1.01-3.163,2.618-3.163c1.635,0,2.632,1.09,2.632,3.163
				c0,2.087-0.997,3.216-2.632,3.216C108.664,85.042,107.654,83.913,107.654,81.826z M108.318,81.826
				c0,1.754,0.691,2.672,1.954,2.672c1.276,0,1.967-0.918,1.967-2.672c0-1.728-0.69-2.592-1.967-2.592
				C109.01,79.234,108.318,80.099,108.318,81.826z"/>
			<path fill="#C41C3C" d="M115.22,78.782v6.672c0,1.608-0.798,2.207-2.26,2.167v-0.572c1.051,0.054,1.582-0.398,1.582-1.528v-6.738
				H115.22z M114.888,76.377c0.279,0,0.505,0.227,0.505,0.519c0,0.279-0.226,0.491-0.505,0.491s-0.505-0.212-0.505-0.491
				C114.383,76.604,114.608,76.377,114.888,76.377z"/>
			<path fill="#C41C3C" d="M125.814,87.607h-0.783c-1.263-1.502-2.233-3.256-2.233-5.781s0.971-4.279,2.233-5.781h0.783
				c-1.462,1.768-2.339,3.322-2.339,5.781C123.476,84.271,124.353,85.84,125.814,87.607z"/>
			<path fill="#C41C3C" d="M134.511,76.045h0.771c1.275,1.502,2.232,3.256,2.232,5.781s-0.957,4.279-2.232,5.781h-0.771
				c1.462-1.768,2.34-3.336,2.34-5.781C136.851,79.367,135.973,77.812,134.511,76.045z"/>
		</g>
	</g>
	<g>
		<g>
			<path fill="#C41C3C" d="M119.525,83.968v4.822h2.434v0.408h-2.904v-5.23H119.525z"/>
		</g>
	</g>
</g>
<g>
	<g>
		<g>
			<g>
				
					<rect x="134.089" y="22.578" transform="matrix(0.796 -0.6053 0.6053 0.796 12.2341 88.7921)" fill="none" width="7.54" height="7.332"/>
				<path fill="#FFB3C2" d="M139.078,27.234c-0.566-0.196-0.659-0.285-0.659-0.285l-0.031,0.023c0,0,0.048,0.111,0.081,0.737
					l0.088,1.604l-0.428,0.325l-0.145-2.777l-2.52-0.873l0.459-0.35l1.385,0.496c0.584,0.219,0.694,0.283,0.694,0.283l0.023-0.018
					c0,0-0.046-0.125-0.097-0.726l-0.105-1.479l0.437-0.332l0.161,2.652l2.635,0.898l-0.443,0.337L139.078,27.234z"/>
			</g>
			
				<polyline fill="none" stroke="#FFB3C2" stroke-width="0.5" stroke-linecap="round" stroke-linejoin="round" stroke-miterlimit="10" points="
				133.582,23.48 136.34,21.385 134.161,21.38 			"/>
			<g>
			</g>
		</g>
		<g>
			<g>
				<path fill="#FFB3C2" d="M113.918,43.439l1.744-1.325l0.261,0.343l-1.744,1.325L113.918,43.439z"/>
				<path fill="#FFB3C2" d="M120.238,42.176l-3.485-4.588l1.23-0.935c1.09-0.828,1.937-0.685,2.587,0.172
					c0.698,0.919,0.577,1.81-0.443,2.585l-0.849,0.645l1.373,1.807L120.238,42.176z M119.019,39.713l0.81-0.615
					c0.817-0.621,0.858-1.23,0.326-1.932c-0.503-0.662-1.134-0.748-1.92-0.15l-0.803,0.609L119.019,39.713z"/>
				<path fill="#FFB3C2" d="M123.206,34.896c-0.115,0.026-0.244,0.099-0.377,0.199c-0.607,0.462-0.586,1.38,0.006,2.158l1.42,1.869
					l-0.396,0.302l-2.734-3.598l0.327-0.249l0.83,0.979c-0.382-0.729-0.301-1.479,0.361-1.981c0.094-0.071,0.191-0.121,0.271-0.146
					L123.206,34.896z"/>
				<path fill="#FFB3C2" d="M124.573,36.02c-0.923-1.215-0.816-2.303,0.126-3.019c0.958-0.728,2.027-0.534,2.95,0.681
					c0.929,1.223,0.848,2.328-0.11,3.057C126.598,37.454,125.502,37.242,124.573,36.02z M124.963,35.724
					c0.781,1.028,1.594,1.257,2.334,0.695c0.748-0.568,0.744-1.413-0.037-2.441c-0.769-1.013-1.559-1.211-2.307-0.643
					C124.214,33.896,124.193,34.711,124.963,35.724z"/>
				<path fill="#FFB3C2" d="M126.383,29.608c0.163-0.124,0.396-0.093,0.526,0.079c0.124,0.163,0.086,0.389-0.077,0.513
					c-0.164,0.124-0.391,0.101-0.515-0.063C126.187,29.965,126.219,29.732,126.383,29.608z M127.648,30.87l2.971,3.91
					c0.716,0.942,0.515,1.646-0.36,2.274l-0.254-0.334c0.639-0.438,0.749-0.938,0.246-1.601l-3-3.948L127.648,30.87z"/>
				<path fill="#FFB3C2" d="M137.781,31.326l-0.459,0.35c-1.408-0.318-2.758-0.914-3.883-2.395
					c-1.124-1.479-1.336-2.939-1.266-4.381l0.46-0.349c-0.069,1.687,0.108,2.987,1.203,4.429
					C134.926,30.412,136.138,30.941,137.781,31.326z"/>
				<path fill="#FFB3C2" d="M137.724,20.684l0.452-0.343c1.416,0.311,2.757,0.913,3.882,2.393c1.124,1.479,1.345,2.934,1.266,4.382
					l-0.452,0.344c0.07-1.688-0.114-2.997-1.203-4.43C140.573,21.589,139.367,21.068,137.724,20.684z"/>
			</g>
		</g>
		<g>
			<g>
				<path fill="#FFB3C2" d="M131.689,32.593l2.146,2.823l1.425-1.083l0.182,0.239l-1.7,1.292l-2.327-3.062L131.689,32.593z"/>
			</g>
		</g>
	</g>
	<g>
		<g>
			
				<rect x="106.157" y="41.836" transform="matrix(0.7962 -0.605 0.605 0.7962 -5.3417 76.2172)" fill="none" width="8.639" height="8.405"/>
			<path fill="#FFB3C2" d="M111.871,47.175c-0.648-0.225-0.755-0.327-0.755-0.327l-0.035,0.027c0,0,0.054,0.127,0.093,0.844
				l0.101,1.836l-0.49,0.373l-0.166-3.18l-2.885-1.002l0.526-0.399l1.585,0.567c0.669,0.252,0.795,0.324,0.795,0.324l0.026-0.02
				c0,0-0.052-0.144-0.11-0.83l-0.12-1.695l0.499-0.38l0.186,3.039l3.017,1.027l-0.508,0.386L111.871,47.175z"/>
		</g>
		
			<polyline fill="none" stroke="#FFB3C2" stroke-width="0.5" stroke-linecap="round" stroke-linejoin="round" stroke-miterlimit="10" points="
			105.578,42.872 108.735,40.471 106.237,40.461 		"/>
		<g>
		</g>
	</g>
</g>
<g>
</g>
<g>
</g>
<g>
</g>
<g>
</g>
<g>
</g>
<g>
</g>
<g>
</g>
</svg>
