<?xml version="1.0" encoding="utf-8" standalone="no"?>
<!DOCTYPE svg PUBLIC "-//W3C//DTD SVG 1.1//EN"
  "http://www.w3.org/Graphics/SVG/1.1/DTD/svg11.dtd">
<!-- Created with matplotlib (http://matplotlib.org/) -->
<svg height="288pt" version="1.1" viewBox="0 0 720 288" width="720pt" xmlns="http://www.w3.org/2000/svg" xmlns:xlink="http://www.w3.org/1999/xlink">
 <defs>
  <style type="text/css">
*{stroke-linecap:butt;stroke-linejoin:round;}
  </style>
 </defs>
 <g id="figure_1">
  <g id="patch_1">
   <path d="
M0 288
L720 288
L720 0
L0 0
z
" style="fill:#ffffff;"/>
  </g>
  <g id="axes_1">
   <g id="patch_2">
    <path d="
M90 252
L648 252
L648 28.8
L90 28.8
z
" style="fill:#eaeaf2;"/>
   </g>
   <g id="matplotlib.axis_1">
    <g id="xtick_1">
     <g id="line2d_1">
      <path clip-path="url(#p9f76a1e9e4)" d="
M90 252
L90 28.8" style="fill:none;stroke:#ffffff;stroke-linecap:round;stroke-width:1.3;"/>
     </g>
     <g id="line2d_2">
      <defs>
       <path d="
M0 0
L0 0" id="m56cc5124a0" style="stroke:#262626;stroke-width:1.3;"/>
      </defs>
      <g>
       <use style="fill:#262626;stroke:#262626;stroke-width:1.3;" x="90.0" xlink:href="#m56cc5124a0" y="252.0"/>
      </g>
     </g>
     <g id="line2d_3">
      <g>
       <use style="fill:#262626;stroke:#262626;stroke-width:1.3;" x="90.0" xlink:href="#m56cc5124a0" y="28.8"/>
      </g>
     </g>
     <g id="text_1">
      <!-- −3 -->
      <defs>
       <path d="
M18.4062 28.0938
L18.4062 34.7969
L22.5 34.7969
Q27.5 34.7969 30.75 37.5469
Q34 40.2969 34 45.0938
Q34 49.5938 30.9531 52.5469
Q27.9062 55.5 22.7969 55.5
Q17.7031 55.5 14.5 52.5
Q11.2969 49.5 10.5938 44.5938
L2.90625 44.5938
Q4 52.5 9.39062 57.3906
Q14.7969 62.2969 22.7969 62.2969
Q31.4062 62.2969 36.4531 57.6406
Q41.5 53 41.5 45.5
Q41.5 40.5 38.8438 36.6406
Q36.2031 32.7969 31.9062 31.5
Q36.9062 30.0938 39.7969 26.25
Q42.7031 22.4062 42.7031 17.2031
Q42.7031 9.40625 37.3438 4.25
Q32 -0.90625 23 -0.90625
Q14 -0.90625 8.25 4.09375
Q2.5 9.09375 1.70312 17.5
L9.40625 17.5
Q10.2031 12.0938 13.7031 9
Q17.2031 5.90625 22.9062 5.90625
Q28.4062 5.90625 31.7969 8.95312
Q35.2031 12 35.2031 17.0938
Q35.2031 22.0938 31.6406 25.0938
Q28.0938 28.0938 22.7031 28.0938
z
" id="CalibreRegular-33"/>
       <path d="
M7.29688 26.5938
L7.29688 32.7969
L46.7031 32.7969
L46.7031 26.5938
z
" id="CalibreRegular-2212"/>
      </defs>
      <g style="fill:#262626;" transform="translate(83.607453125 270.395)scale(0.14300000000000002 -0.14300000000000002)">
       <use xlink:href="#CalibreRegular-2212"/>
       <use x="53.99998474121094" xlink:href="#CalibreRegular-33"/>
      </g>
     </g>
    </g>
    <g id="xtick_2">
     <g id="line2d_4">
      <path clip-path="url(#p9f76a1e9e4)" d="
M183 252
L183 28.8" style="fill:none;stroke:#ffffff;stroke-linecap:round;stroke-width:1.3;"/>
     </g>
     <g id="line2d_5">
      <g>
       <use style="fill:#262626;stroke:#262626;stroke-width:1.3;" x="183.0" xlink:href="#m56cc5124a0" y="252.0"/>
      </g>
     </g>
     <g id="line2d_6">
      <g>
       <use style="fill:#262626;stroke:#262626;stroke-width:1.3;" x="183.0" xlink:href="#m56cc5124a0" y="28.8"/>
      </g>
     </g>
     <g id="text_2">
      <!-- −2 -->
      <defs>
       <path d="
M34.0938 44.9062
Q34.0938 49.5938 31.0938 52.4375
Q28.0938 55.2969 23 55.2969
Q17.5938 55.2969 14.5469 51.9375
Q11.5 48.5938 11 43
L2.90625 43
Q3.79688 51.7031 9.1875 57
Q14.5938 62.2969 23 62.2969
Q31.7031 62.2969 36.7031 57.5938
Q41.7031 52.9062 41.7031 45
Q41.7031 43.5938 41.3438 42.0938
Q41 40.5938 40.6406 39.5
Q40.2969 38.4062 39.3438 36.75
Q38.4062 35.0938 37.9062 34.2969
Q37.4062 33.5 35.9062 31.7031
Q34.4062 29.9062 33.9062 29.2969
Q33.4062 28.7031 31.5469 26.6406
Q29.7031 24.5938 29.2969 24.0938
L13.7031 7
L43 7
L43 0
L2.90625 0
L2.90625 5.20312
L22.7031 27
Q27.2031 32 28.7969 33.7969
Q30.4062 35.5938 32.25 38.8906
Q34.0938 42.2031 34.0938 44.9062" id="CalibreRegular-32"/>
      </defs>
      <g style="fill:#262626;" transform="translate(176.586226563 270.395)scale(0.14300000000000002 -0.14300000000000002)">
       <use xlink:href="#CalibreRegular-2212"/>
       <use x="53.99998474121094" xlink:href="#CalibreRegular-32"/>
      </g>
     </g>
    </g>
    <g id="xtick_3">
     <g id="line2d_7">
      <path clip-path="url(#p9f76a1e9e4)" d="
M276 252
L276 28.8" style="fill:none;stroke:#ffffff;stroke-linecap:round;stroke-width:1.3;"/>
     </g>
     <g id="line2d_8">
      <g>
       <use style="fill:#262626;stroke:#262626;stroke-width:1.3;" x="276.0" xlink:href="#m56cc5124a0" y="252.0"/>
      </g>
     </g>
     <g id="line2d_9">
      <g>
       <use style="fill:#262626;stroke:#262626;stroke-width:1.3;" x="276.0" xlink:href="#m56cc5124a0" y="28.8"/>
      </g>
     </g>
     <g id="text_3">
      <!-- −1 -->
      <defs>
       <path d="
M25.4062 61.5
L25.4062 0
L17.7031 0
L17.7031 52
L2.5 44.2031
L2.5 52.2031
L20.7031 61.5
z
" id="CalibreRegular-31"/>
      </defs>
      <g style="fill:#262626;" transform="translate(270.844179688 270.395)scale(0.14300000000000002 -0.14300000000000002)">
       <use xlink:href="#CalibreRegular-2212"/>
       <use x="53.99998474121094" xlink:href="#CalibreRegular-31"/>
      </g>
     </g>
    </g>
    <g id="xtick_4">
     <g id="line2d_10">
      <path clip-path="url(#p9f76a1e9e4)" d="
M369 252
L369 28.8" style="fill:none;stroke:#ffffff;stroke-linecap:round;stroke-width:1.3;"/>
     </g>
     <g id="line2d_11">
      <g>
       <use style="fill:#262626;stroke:#262626;stroke-width:1.3;" x="369.0" xlink:href="#m56cc5124a0" y="252.0"/>
      </g>
     </g>
     <g id="line2d_12">
      <g>
       <use style="fill:#262626;stroke:#262626;stroke-width:1.3;" x="369.0" xlink:href="#m56cc5124a0" y="28.8"/>
      </g>
     </g>
     <g id="text_4">
      <!-- 0 -->
      <defs>
       <path d="
M49.7969 16.5938
Q37.0938 -0.90625 26.8906 -0.90625
Q16.7031 -0.90625 10.3438 7.84375
Q4 16.5938 4 30.6875
Q4 44.7969 10.3438 53.5469
Q16.7031 62.2969 26.8906 62.2969
Q37.0938 62.2969 43.4375 53.5469
Q49.7969 44.7969 49.7969 30.6875
Q49.7969 16.5938 37.0938 -0.90625
M26.9062 55.2031
Q19.5938 55.2031 15.6406 48.5
Q11.7031 41.7969 11.7031 30.6875
Q11.7031 19.5938 15.6406 12.8906
Q19.5938 6.20312 26.9062 6.20312
Q34.0938 6.20312 38.0938 12.9531
Q42.0938 19.7031 42.0938 30.7031
Q42.0938 41.7031 38.0938 48.4531
Q34.0938 55.2031 26.9062 55.2031" id="CalibreRegular-30"/>
      </defs>
      <g style="fill:#262626;" transform="translate(365.725523437 270.395)scale(0.14300000000000002 -0.14300000000000002)">
       <use xlink:href="#CalibreRegular-30"/>
      </g>
     </g>
    </g>
    <g id="xtick_5">
     <g id="line2d_13">
      <path clip-path="url(#p9f76a1e9e4)" d="
M462 252
L462 28.8" style="fill:none;stroke:#ffffff;stroke-linecap:round;stroke-width:1.3;"/>
     </g>
     <g id="line2d_14">
      <g>
       <use style="fill:#262626;stroke:#262626;stroke-width:1.3;" x="462.0" xlink:href="#m56cc5124a0" y="252.0"/>
      </g>
     </g>
     <g id="line2d_15">
      <g>
       <use style="fill:#262626;stroke:#262626;stroke-width:1.3;" x="462.0" xlink:href="#m56cc5124a0" y="28.8"/>
      </g>
     </g>
     <g id="text_5">
      <!-- 1 -->
      <g style="fill:#262626;" transform="translate(460.362203125 270.395)scale(0.14300000000000002 -0.14300000000000002)">
       <use xlink:href="#CalibreRegular-31"/>
      </g>
     </g>
    </g>
    <g id="xtick_6">
     <g id="line2d_16">
      <path clip-path="url(#p9f76a1e9e4)" d="
M555 252
L555 28.8" style="fill:none;stroke:#ffffff;stroke-linecap:round;stroke-width:1.3;"/>
     </g>
     <g id="line2d_17">
      <g>
       <use style="fill:#262626;stroke:#262626;stroke-width:1.3;" x="555.0" xlink:href="#m56cc5124a0" y="252.0"/>
      </g>
     </g>
     <g id="line2d_18">
      <g>
       <use style="fill:#262626;stroke:#262626;stroke-width:1.3;" x="555.0" xlink:href="#m56cc5124a0" y="28.8"/>
      </g>
     </g>
     <g id="text_6">
      <!-- 2 -->
      <g style="fill:#262626;" transform="translate(552.133296875 270.395)scale(0.14300000000000002 -0.14300000000000002)">
       <use xlink:href="#CalibreRegular-32"/>
      </g>
     </g>
    </g>
    <g id="xtick_7">
     <g id="line2d_19">
      <path clip-path="url(#p9f76a1e9e4)" d="
M648 252
L648 28.8" style="fill:none;stroke:#ffffff;stroke-linecap:round;stroke-width:1.3;"/>
     </g>
     <g id="line2d_20">
      <g>
       <use style="fill:#262626;stroke:#262626;stroke-width:1.3;" x="648.0" xlink:href="#m56cc5124a0" y="252.0"/>
      </g>
     </g>
     <g id="line2d_21">
      <g>
       <use style="fill:#262626;stroke:#262626;stroke-width:1.3;" x="648.0" xlink:href="#m56cc5124a0" y="28.8"/>
      </g>
     </g>
     <g id="text_7">
      <!-- 3 -->
      <g style="fill:#262626;" transform="translate(645.0685 270.395)scale(0.14300000000000002 -0.14300000000000002)">
       <use xlink:href="#CalibreRegular-33"/>
      </g>
     </g>
    </g>
   </g>
   <g id="matplotlib.axis_2">
    <g id="ytick_1">
     <g id="line2d_22">
      <path clip-path="url(#p9f76a1e9e4)" d="
M90 231.709
L648 231.709" style="fill:none;stroke:#ffffff;stroke-linecap:round;stroke-width:1.3;"/>
     </g>
     <g id="line2d_23">
      <g>
       <use style="fill:#262626;stroke:#262626;stroke-width:1.3;" x="90.0" xlink:href="#m56cc5124a0" y="231.709090909"/>
      </g>
     </g>
     <g id="line2d_24">
      <g>
       <use style="fill:#262626;stroke:#262626;stroke-width:1.3;" x="648.0" xlink:href="#m56cc5124a0" y="231.709090909"/>
      </g>
     </g>
     <g id="text_8">
      <!-- −0.4 -->
      <defs>
       <path d="
M6.29688 -0.5
Q3.20312 2.59375 3.20312 4.89062
Q3.20312 7.20312 4.75 8.79688
Q6.29688 10.4062 8.59375 10.4062
Q10.7969 10.4062 12.3438 8.79688
Q13.9062 7.20312 13.9062 4.89062
Q13.9062 2.59375 12.3438 1.04688
Q10.7969 -0.5 8.59375 -0.5
Q6.29688 -0.5 3.20312 2.59375" id="CalibreRegular-2e"/>
       <path d="
M33.7969 61.4062
L10.9062 20.5
L30.5 20.5
L30.5 35.2969
L37.7969 35.2969
L37.7969 20.5
L48.5938 20.5
L48.5938 13.9062
L37.7969 13.9062
L37.7969 0
L30.5 0
L30.5 13.9062
L2.20312 13.9062
L2.20312 19.5
L25.7969 61.4062
z
" id="CalibreRegular-34"/>
      </defs>
      <g style="fill:#262626;" transform="translate(57.1351875 235.141090909)scale(0.14300000000000002 -0.14300000000000002)">
       <use xlink:href="#CalibreRegular-2212"/>
       <use x="53.99998474121094" xlink:href="#CalibreRegular-30"/>
       <use x="107.79997253417969" xlink:href="#CalibreRegular-2e"/>
       <use x="124.89996337890625" xlink:href="#CalibreRegular-34"/>
      </g>
     </g>
    </g>
    <g id="ytick_2">
     <g id="line2d_25">
      <path clip-path="url(#p9f76a1e9e4)" d="
M90 204.655
L648 204.655" style="fill:none;stroke:#ffffff;stroke-linecap:round;stroke-width:1.3;"/>
     </g>
     <g id="line2d_26">
      <g>
       <use style="fill:#262626;stroke:#262626;stroke-width:1.3;" x="90.0" xlink:href="#m56cc5124a0" y="204.654545455"/>
      </g>
     </g>
     <g id="line2d_27">
      <g>
       <use style="fill:#262626;stroke:#262626;stroke-width:1.3;" x="648.0" xlink:href="#m56cc5124a0" y="204.654545455"/>
      </g>
     </g>
     <g id="text_9">
      <!-- −0.2 -->
      <g style="fill:#262626;" transform="translate(57.93509375 208.086545455)scale(0.14300000000000002 -0.14300000000000002)">
       <use xlink:href="#CalibreRegular-2212"/>
       <use x="53.99998474121094" xlink:href="#CalibreRegular-30"/>
       <use x="107.79997253417969" xlink:href="#CalibreRegular-2e"/>
       <use x="124.89996337890625" xlink:href="#CalibreRegular-32"/>
      </g>
     </g>
    </g>
    <g id="ytick_3">
     <g id="line2d_28">
      <path clip-path="url(#p9f76a1e9e4)" d="
M90 177.6
L648 177.6" style="fill:none;stroke:#ffffff;stroke-linecap:round;stroke-width:1.3;"/>
     </g>
     <g id="line2d_29">
      <g>
       <use style="fill:#262626;stroke:#262626;stroke-width:1.3;" x="90.0" xlink:href="#m56cc5124a0" y="177.6"/>
      </g>
     </g>
     <g id="line2d_30">
      <g>
       <use style="fill:#262626;stroke:#262626;stroke-width:1.3;" x="648.0" xlink:href="#m56cc5124a0" y="177.6"/>
      </g>
     </g>
     <g id="text_10">
      <!-- 0.0 -->
      <g style="fill:#262626;" transform="translate(64.2136875 181.032)scale(0.14300000000000002 -0.14300000000000002)">
       <use xlink:href="#CalibreRegular-30"/>
       <use x="53.79998779296875" xlink:href="#CalibreRegular-2e"/>
       <use x="70.89997863769531" xlink:href="#CalibreRegular-30"/>
      </g>
     </g>
    </g>
    <g id="ytick_4">
     <g id="line2d_31">
      <path clip-path="url(#p9f76a1e9e4)" d="
M90 150.545
L648 150.545" style="fill:none;stroke:#ffffff;stroke-linecap:round;stroke-width:1.3;"/>
     </g>
     <g id="line2d_32">
      <g>
       <use style="fill:#262626;stroke:#262626;stroke-width:1.3;" x="90.0" xlink:href="#m56cc5124a0" y="150.545454545"/>
      </g>
     </g>
     <g id="line2d_33">
      <g>
       <use style="fill:#262626;stroke:#262626;stroke-width:1.3;" x="648.0" xlink:href="#m56cc5124a0" y="150.545454545"/>
      </g>
     </g>
     <g id="text_11">
      <!-- 0.2 -->
      <g style="fill:#262626;" transform="translate(65.185640625 153.977454545)scale(0.14300000000000002 -0.14300000000000002)">
       <use xlink:href="#CalibreRegular-30"/>
       <use x="53.79998779296875" xlink:href="#CalibreRegular-2e"/>
       <use x="70.89997863769531" xlink:href="#CalibreRegular-32"/>
      </g>
     </g>
    </g>
    <g id="ytick_5">
     <g id="line2d_34">
      <path clip-path="url(#p9f76a1e9e4)" d="
M90 123.491
L648 123.491" style="fill:none;stroke:#ffffff;stroke-linecap:round;stroke-width:1.3;"/>
     </g>
     <g id="line2d_35">
      <g>
       <use style="fill:#262626;stroke:#262626;stroke-width:1.3;" x="90.0" xlink:href="#m56cc5124a0" y="123.490909091"/>
      </g>
     </g>
     <g id="line2d_36">
      <g>
       <use style="fill:#262626;stroke:#262626;stroke-width:1.3;" x="648.0" xlink:href="#m56cc5124a0" y="123.490909091"/>
      </g>
     </g>
     <g id="text_12">
      <!-- 0.4 -->
      <g style="fill:#262626;" transform="translate(64.385734375 126.922909091)scale(0.14300000000000002 -0.14300000000000002)">
       <use xlink:href="#CalibreRegular-30"/>
       <use x="53.79998779296875" xlink:href="#CalibreRegular-2e"/>
       <use x="70.89997863769531" xlink:href="#CalibreRegular-34"/>
      </g>
     </g>
    </g>
    <g id="ytick_6">
     <g id="line2d_37">
      <path clip-path="url(#p9f76a1e9e4)" d="
M90 96.4364
L648 96.4364" style="fill:none;stroke:#ffffff;stroke-linecap:round;stroke-width:1.3;"/>
     </g>
     <g id="line2d_38">
      <g>
       <use style="fill:#262626;stroke:#262626;stroke-width:1.3;" x="90.0" xlink:href="#m56cc5124a0" y="96.4363636364"/>
      </g>
     </g>
     <g id="line2d_39">
      <g>
       <use style="fill:#262626;stroke:#262626;stroke-width:1.3;" x="648.0" xlink:href="#m56cc5124a0" y="96.4363636364"/>
      </g>
     </g>
     <g id="text_13">
      <!-- 0.6 -->
      <defs>
       <path d="
M12.7031 19.5938
Q12.7031 13.5938 16.3906 9.6875
Q20.0938 5.79688 26 5.79688
Q31.7969 5.79688 35.5 9.64062
Q39.2031 13.5 39.2031 19.5938
Q39.2031 25.7031 35.5 29.6406
Q31.7969 33.5938 26 33.5938
Q20.0938 33.5938 16.3906 29.6875
Q12.7031 25.7969 12.7031 19.5938
M45.5938 47.0938
L37.7969 47.0938
Q35 55.7969 26.5 55.7969
Q19.7969 55.7969 15.3906 49.0469
Q11 42.2969 11 32.2969
Q11 32 11.0469 30.9531
Q11.0938 29.9062 11.0938 29.5938
Q12.5938 34.2969 16.8906 37.1875
Q21.2031 40.0938 26.5938 40.0938
Q35.2969 40.0938 40.8906 34.1406
Q46.5 28.2031 46.5 19.7031
Q46.5 11 40.7969 5.04688
Q35.0938 -0.90625 25.9062 -0.90625
Q13.4062 -0.90625 7.59375 10.7969
Q4 18.4062 4 29.5938
Q4 44.4062 10.25 53.3438
Q16.5 62.2969 26.5 62.2969
Q41.7031 62.2969 45.5938 47.0938" id="CalibreRegular-36"/>
      </defs>
      <g style="fill:#262626;" transform="translate(64.685140625 99.8683636364)scale(0.14300000000000002 -0.14300000000000002)">
       <use xlink:href="#CalibreRegular-30"/>
       <use x="53.79998779296875" xlink:href="#CalibreRegular-2e"/>
       <use x="70.89997863769531" xlink:href="#CalibreRegular-36"/>
      </g>
     </g>
    </g>
    <g id="ytick_7">
     <g id="line2d_40">
      <path clip-path="url(#p9f76a1e9e4)" d="
M90 69.3818
L648 69.3818" style="fill:none;stroke:#ffffff;stroke-linecap:round;stroke-width:1.3;"/>
     </g>
     <g id="line2d_41">
      <g>
       <use style="fill:#262626;stroke:#262626;stroke-width:1.3;" x="90.0" xlink:href="#m56cc5124a0" y="69.3818181818"/>
      </g>
     </g>
     <g id="line2d_42">
      <g>
       <use style="fill:#262626;stroke:#262626;stroke-width:1.3;" x="648.0" xlink:href="#m56cc5124a0" y="69.3818181818"/>
      </g>
     </g>
     <g id="text_14">
      <!-- 0.8 -->
      <defs>
       <path d="
M24.2969 5.5
Q30.2031 5.5 33.9531 8.79688
Q37.7031 12.0938 37.7031 17.2969
Q37.7031 22.5 33.9531 25.75
Q30.2031 29 24.2969 29
Q18.5 29 14.75 25.75
Q11 22.5 11 17.2969
Q11 12.0938 14.75 8.79688
Q18.5 5.5 24.2969 5.5
M24.2969 35.5938
Q29.2031 35.5938 32.3906 38.3906
Q35.5938 41.2031 35.5938 45.7031
Q35.5938 50.2031 32.3906 53.0469
Q29.2031 55.9062 24.2969 55.9062
Q19.5 55.9062 16.2969 53.0469
Q13.0938 50.2031 13.0938 45.7031
Q13.0938 41.2969 16.2969 38.4375
Q19.5 35.5938 24.2969 35.5938
M24.2969 -0.90625
Q15.2969 -0.90625 9.34375 4
Q3.40625 8.90625 3.40625 16.7031
Q3.40625 22.5 6.75 26.7031
Q10.0938 30.9062 15.4062 32.2969
Q11 33.7969 8.29688 37.5
Q5.59375 41.2031 5.59375 46.0938
Q5.59375 53.4062 10.9375 57.8438
Q16.2969 62.2969 24.2969 62.2969
Q32.4062 62.2969 37.75 57.8438
Q43.0938 53.4062 43.0938 46.0938
Q43.0938 41.2031 40.3438 37.5469
Q37.5938 33.9062 33.2969 32.2969
Q38.5 30.9062 41.8906 26.7031
Q45.2969 22.5 45.2969 16.7031
Q45.2969 8.90625 39.3438 4
Q33.4062 -0.90625 24.2969 -0.90625" id="CalibreRegular-38"/>
      </defs>
      <g style="fill:#262626;" transform="translate(64.8571875 72.8138181818)scale(0.14300000000000002 -0.14300000000000002)">
       <use xlink:href="#CalibreRegular-30"/>
       <use x="53.79998779296875" xlink:href="#CalibreRegular-2e"/>
       <use x="70.89997863769531" xlink:href="#CalibreRegular-38"/>
      </g>
     </g>
    </g>
    <g id="ytick_8">
     <g id="line2d_43">
      <path clip-path="url(#p9f76a1e9e4)" d="
M90 42.3273
L648 42.3273" style="fill:none;stroke:#ffffff;stroke-linecap:round;stroke-width:1.3;"/>
     </g>
     <g id="line2d_44">
      <g>
       <use style="fill:#262626;stroke:#262626;stroke-width:1.3;" x="90.0" xlink:href="#m56cc5124a0" y="42.3272727273"/>
      </g>
     </g>
     <g id="line2d_45">
      <g>
       <use style="fill:#262626;stroke:#262626;stroke-width:1.3;" x="648.0" xlink:href="#m56cc5124a0" y="42.3272727273"/>
      </g>
     </g>
     <g id="text_15">
      <!-- 1.0 -->
      <g style="fill:#262626;" transform="translate(66.986546875 45.7592727273)scale(0.14300000000000002 -0.14300000000000002)">
       <use xlink:href="#CalibreRegular-31"/>
       <use x="32.899993896484375" xlink:href="#CalibreRegular-2e"/>
       <use x="49.99998474121094" xlink:href="#CalibreRegular-30"/>
      </g>
     </g>
    </g>
   </g>
   <g id="line2d_46">
    <path clip-path="url(#p9f76a1e9e4)" d="
M90 177.6
L648 177.6" style="fill:none;stroke:#dcdce6;stroke-linecap:round;stroke-width:2;"/>
   </g>
   <g id="line2d_47">
    <path clip-path="url(#p9f76a1e9e4)" d="
M369 252
L369 28.8" style="fill:none;stroke:#dcdce6;stroke-linecap:round;stroke-width:2;"/>
   </g>
   <g id="line2d_48">
    <path clip-path="url(#p9f76a1e9e4)" d="
M90 177.6
L274.883 177.706
L281.027 177.929
L285.495 178.306
L288.847 178.81
L291.64 179.452
L293.874 180.165
L296.108 181.103
L298.342 182.318
L300.018 183.446
L301.694 184.785
L303.369 186.36
L305.045 188.194
L306.721 190.305
L308.396 192.708
L310.631 196.381
L312.865 200.58
L315.099 205.266
L317.892 211.666
L325.153 228.69
L326.829 231.976
L328.505 234.705
L329.622 236.131
L330.739 237.183
L331.856 237.808
L332.414 237.945
L332.973 237.956
L333.532 237.836
L334.09 237.579
L334.649 237.179
L335.766 235.931
L336.883 234.052
L338 231.512
L339.117 228.283
L340.234 224.35
L341.351 219.704
L342.468 214.346
L344.144 205.005
L345.82 194.181
L347.495 182.022
L349.73 164.096
L353.081 134.886
L357.55 95.9781
L359.784 78.6238
L361.459 67.2769
L363.135 57.7444
L364.252 52.5447
L365.369 48.3555
L366.486 45.2354
L367.045 44.0907
L367.604 43.2286
L368.162 42.6521
L368.721 42.3634
L369.279 42.3634
L369.838 42.6521
L370.396 43.2286
L370.955 44.0907
L371.514 45.2354
L372.631 48.3555
L373.748 52.5447
L374.865 57.7444
L375.982 63.8822
L377.658 74.6602
L379.333 87.0287
L381.568 105.357
L386.036 144.804
L388.829 168.734
L391.063 186.212
L392.739 197.946
L394.414 208.289
L396.09 217.113
L397.207 222.116
L398.324 226.406
L399.441 229.985
L400.559 232.867
L401.676 235.072
L402.793 236.631
L403.91 237.579
L404.468 237.836
L405.027 237.956
L405.586 237.945
L406.144 237.808
L407.261 237.183
L408.378 236.131
L409.495 234.705
L410.613 232.956
L412.288 229.837
L414.523 225.009
L417.874 217.04
L422.342 206.504
L425.135 200.58
L427.369 196.381
L429.604 192.708
L431.838 189.569
L433.514 187.553
L435.189 185.808
L436.865 184.314
L438.541 183.048
L440.775 181.672
L443.009 180.602
L445.243 179.783
L448.036 179.038
L450.829 178.528
L454.18 178.134
L458.649 177.844
L465.351 177.668
L478.757 177.604
L616.162 177.6
L648 177.6
L648 177.6" style="fill:none;stroke:#386df9;stroke-linecap:round;stroke-width:2.275;"/>
   </g>
   <g id="patch_3">
    <path d="
M90 252
L90 28.8" style="fill:none;"/>
   </g>
   <g id="patch_4">
    <path d="
M90 28.8
L648 28.8" style="fill:none;"/>
   </g>
   <g id="patch_5">
    <path d="
M90 252
L648 252" style="fill:none;"/>
   </g>
   <g id="patch_6">
    <path d="
M648 252
L648 28.8" style="fill:none;"/>
   </g>
   <g id="text_16">
    <!-- The Ricker Wavelet -->
    <defs>
     <path d="
M8.79688 11.2031
L8.79688 38
L1.59375 38
L1.59375 44.4062
L8.79688 44.4062
L8.79688 56.0938
L16.2969 56.0938
L16.2969 44.4062
L27 44.4062
L27 38
L16.2969 38
L16.2969 12
Q16.2969 5.79688 22.2031 5.79688
Q25.2969 5.79688 28 7.59375
L28 0.59375
Q25.2031 -0.90625 21 -0.90625
Q15.4062 -0.90625 12.0938 2.14062
Q8.79688 5.20312 8.79688 11.2031" id="CalibreRegular-74"/>
     <path d="
M26.4062 0
L19 0
L1.79688 44.4062
L9.90625 44.4062
L22.9062 9.5
L35.7969 44.4062
L43.7031 44.4062
z
" id="CalibreRegular-76"/>
     <path d="
M38.9062 0
L31.7031 0
L31.7031 3.29688
Q30.2969 1.79688 27 0.5
Q23.7031 -0.796875 20 -0.796875
Q13 -0.796875 8.25 3.09375
Q3.5 7 3.5 13.4062
Q3.5 19.5 8.39062 23.3906
Q13.2969 27.2969 20.5 27.2969
Q23.7969 27.2969 27 26.1875
Q30.2031 25.0938 31.7031 23.7031
L31.7031 29.2969
Q31.7031 33.5938 29.1406 36.1875
Q26.5938 38.7969 21.9062 38.7969
Q14.9062 38.7969 12.7969 32.7031
L5.40625 32.7031
Q6.5 38.2969 11.0469 41.7969
Q15.5938 45.2969 22 45.2969
Q29.9062 45.2969 34.4062 41.0938
Q38.9062 36.9062 38.9062 29.5938
z

M31.7031 11
L31.7031 15.5938
Q30.7031 18 27.75 19.5469
Q24.7969 21.0938 21.2969 21.0938
Q16.9062 21.0938 13.7969 19.0938
Q10.7031 17.0938 10.7031 13.4062
Q10.7031 9.59375 13.7969 7.54688
Q16.9062 5.5 21.2969 5.5
Q24.7969 5.5 27.75 7.04688
Q30.7031 8.59375 31.7031 11" id="CalibreRegular-61"/>
     <path d="
M35.9062 0
L19 20.5
L14.2031 15.9062
L14.2031 0
L6.70312 0
L6.70312 65
L14.2031 65
L14.2031 24.7031
L34.5 44.4062
L44.4062 44.4062
L24.4062 25.2031
L45.0938 0
z
" id="CalibreRegular-6b"/>
     <path d="
M14.2031 65
L14.2031 0
L6.70312 0
L6.70312 65
z
" id="CalibreRegular-6c"/>
     <path d="
M35.2969 61.4062
L41.5938 61.4062
L54.5938 12.5938
L67.2031 61.4062
L74.7969 61.4062
L58.5 0
L51.2969 0
L38.4062 47.9062
L25.2969 0
L18.2031 0
L1.90625 61.4062
L9.70312 61.4062
L22.2969 12.5938
z
" id="CalibreRegular-57"/>
     <path d="
M26.0938 26
L15.2031 26
L15.2031 0
L7.29688 0
L7.29688 61.4062
L30.0938 61.4062
Q39.5 61.4062 44.8438 56.7969
Q50.2031 52.2031 50.2031 43.5938
Q50.2031 36.0938 46.0938 31.6875
Q42 27.2969 34.5938 26.2969
L52.7031 0
L43.7031 0
z

M15.2031 54.5
L15.2031 32.7031
L29.9062 32.7031
Q35.9062 32.7031 39.1562 35.5938
Q42.4062 38.5 42.4062 43.5938
Q42.4062 48.7031 39.1562 51.5938
Q35.9062 54.5 29.9062 54.5
z
" id="CalibreRegular-52"/>
     <path d="
M6.70312 0
L6.70312 65
L14.2031 65
L14.2031 38.7969
Q16.2969 41.5938 19.75 43.4375
Q23.2031 45.2969 27.2969 45.2969
Q34.7031 45.2969 38.7969 40.8906
Q42.9062 36.5 42.9062 29.0938
L42.9062 0
L35.2969 0
L35.2969 27.9062
Q35.2969 32.7031 32.8438 35.5469
Q30.4062 38.4062 25.5 38.4062
Q21.5938 38.4062 18.5 36.0469
Q15.4062 33.7031 14.2031 30.0938
L14.2031 0
z
" id="CalibreRegular-68"/>
     <path d="
M14.2031 44.4062
L14.2031 0
L6.70312 0
L6.70312 44.4062
z

M12.4062 62.5938
Q15.2969 59.7969 15.2969 57.7969
Q15.2969 55.7969 13.8438 54.3906
Q12.4062 53 10.4062 53
Q8.40625 53 7 54.3906
Q5.59375 55.7969 5.59375 57.7969
Q5.59375 59.7969 7 61.1875
Q8.40625 62.5938 10.4062 62.5938
Q12.4062 62.5938 15.2969 59.7969" id="CalibreRegular-69"/>
     <path d="
M3 54.4062
L3 61.4062
L53.7031 61.4062
L53.7031 54.4062
L32.2969 54.4062
L32.2969 0
L24.4062 0
L24.4062 54.4062
z
" id="CalibreRegular-54"/>
     <path d="
M34.7031 13.2969
L41.7969 13.2969
Q40.5938 6.79688 35.8906 2.9375
Q31.2031 -0.90625 23.9062 -0.90625
Q14.7969 -0.90625 9.14062 5.4375
Q3.5 11.7969 3.5 22.0938
Q3.5 32.2031 9.09375 38.75
Q14.7031 45.2969 23.7031 45.2969
Q32.5938 45.2969 37.5 39.3438
Q42.4062 33.4062 42.4062 23.5
L42.4062 20.7969
L11 20.7969
Q11.0938 13.7969 14.6406 9.64062
Q18.2031 5.5 23.9062 5.5
Q28.0938 5.5 30.9375 7.54688
Q33.7969 9.59375 34.7031 13.2969
M23.7969 38.9062
Q18.7969 38.9062 15.3906 35.5938
Q12 32.2969 11.2031 26.5
L34.7969 26.5
Q34.7031 31.7969 31.8906 35.3438
Q29.0938 38.9062 23.7969 38.9062" id="CalibreRegular-65"/>
     <path id="CalibreRegular-20"/>
     <path d="
M14.7031 -0.90625
Q3.5 11.9062 3.5 22.2031
Q3.5 32.5 9.09375 38.8906
Q14.7031 45.2969 23.7031 45.2969
Q31 45.2969 35.6406 41.3906
Q40.2969 37.5 41.5 31
L33.7969 31
Q33 34.5938 30.3438 36.6406
Q27.7031 38.7031 23.7031 38.7031
Q18 38.7031 14.5469 34.0938
Q11.0938 29.5 11.0938 22.2031
Q11.0938 14.9062 14.5469 10.2969
Q18 5.70312 23.7031 5.70312
Q27.7031 5.70312 30.3438 7.75
Q33 9.79688 33.7969 13.4062
L41.5 13.4062
Q40.2969 6.90625 35.6406 3
Q31 -0.90625 23.7031 -0.90625
Q14.7031 -0.90625 3.5 11.9062" id="CalibreRegular-63"/>
     <path d="
M29.5 44.5938
L29.5 36.9062
Q27.7031 38.0938 24.5 38.0938
Q20.9062 38.0938 18.0938 35.8906
Q15.2969 33.7031 14.2031 29.7969
L14.2031 0
L6.70312 0
L6.70312 44.4062
L14.2031 44.4062
L14.2031 38.5938
Q15.7031 41.5 18.6406 43.3906
Q21.5938 45.2969 25.2031 45.2969
Q28.0938 45.2969 29.5 44.5938" id="CalibreRegular-72"/>
    </defs>
    <g style="fill:#262626;" transform="translate(304.828303125 23.8)scale(0.17160000000000003 -0.17160000000000003)">
     <use xlink:href="#CalibreRegular-54"/>
     <use x="56.69999694824219" xlink:href="#CalibreRegular-68"/>
     <use x="105.59999084472656" xlink:href="#CalibreRegular-65"/>
     <use x="151.29998779296875" xlink:href="#CalibreRegular-20"/>
     <use x="173.3999786376953" xlink:href="#CalibreRegular-52"/>
     <use x="228.5999755859375" xlink:href="#CalibreRegular-69"/>
     <use x="249.49996948242188" xlink:href="#CalibreRegular-63"/>
     <use x="294.09996032714844" xlink:href="#CalibreRegular-6b"/>
     <use x="340.4999542236328" xlink:href="#CalibreRegular-65"/>
     <use x="386.199951171875" xlink:href="#CalibreRegular-72"/>
     <use x="418.29994201660156" xlink:href="#CalibreRegular-20"/>
     <use x="440.3999328613281" xlink:href="#CalibreRegular-57"/>
     <use x="517.0999145507812" xlink:href="#CalibreRegular-61"/>
     <use x="562.0998992919922" xlink:href="#CalibreRegular-76"/>
     <use x="607.5998840332031" xlink:href="#CalibreRegular-65"/>
     <use x="653.2998809814453" xlink:href="#CalibreRegular-6c"/>
     <use x="674.1998748779297" xlink:href="#CalibreRegular-65"/>
     <use x="719.8998718261719" xlink:href="#CalibreRegular-74"/>
    </g>
   </g>
   <g id="legend_1">
    <g id="line2d_49">
     <path d="
M493.989 53.968
L522.589 53.968" style="fill:none;stroke:#386df9;stroke-linecap:round;stroke-width:2.275;"/>
    </g>
    <g id="line2d_50"/>
    <g id="text_17">
     <!-- $\phi = (1-r^2) \cdot e^{-\frac{r^2}{2}}$ -->
     <defs>
      <path d="
M8.40625 25
Q8.40625 26.4219 9.125 27.6875
Q9.85938 28.9531 11.1562 29.7344
Q12.4531 30.5156 13.9219 30.5156
Q15.3281 30.5156 16.625 29.7344
Q17.9219 28.9531 18.6562 27.6875
Q19.3906 26.4219 19.3906 25
Q19.3906 22.75 17.7969 21.1094
Q16.2188 19.4844 13.9219 19.4844
Q11.6719 19.4844 10.0312 21.1094
Q8.40625 22.75 8.40625 25" id="Cmsy10-a2"/>
      <path d="
M20.125 -1.125
Q15.3281 -1.125 11.7344 1.35938
Q8.15625 3.85938 6.26562 8.07812
Q4.39062 12.3125 4.39062 17
Q4.39062 24.125 7.98438 30.3906
Q11.5781 36.6719 17.7188 40.4219
Q23.875 44.1875 30.9062 44.1875
Q35.2031 44.1875 38.4062 41.9688
Q41.6094 39.75 41.6094 35.5938
Q41.6094 29.8281 37.0156 27.0156
Q32.4219 24.2188 26.6562 23.5625
Q20.9062 22.9062 13.9219 22.9062
L13.625 22.9062
Q12.0156 16.9375 12.0156 12.7031
Q12.0156 8.25 14.0625 4.875
Q16.1094 1.51562 20.3125 1.51562
Q26.2656 1.51562 31.75 4.25
Q37.25 6.98438 40.7188 11.8125
Q41.0156 12.1094 41.5 12.1094
Q42 12.1094 42.5 11.5469
Q43.0156 10.9844 43.0156 10.5
Q43.0156 10.1094 42.8281 9.90625
Q39.1562 4.78125 32.9531 1.82812
Q26.7656 -1.125 20.125 -1.125
M14.2031 25.4844
Q20.0156 25.4844 24.9531 26.0156
Q29.8906 26.5625 33.8906 28.7344
Q37.8906 30.9062 37.8906 35.5
Q37.8906 37.3594 36.8594 38.75
Q35.8438 40.1406 34.2031 40.875
Q32.5625 41.6094 30.8125 41.6094
Q26.5625 41.6094 23.1719 39.3125
Q19.7812 37.0156 17.5781 33.3281
Q15.375 29.6406 14.2031 25.4844" id="Cmmi10-65"/>
      <path d="
M7.51562 13.2812
Q6.6875 13.2812 6.14062 13.9062
Q5.60938 14.5469 5.60938 15.2812
Q5.60938 16.1094 6.14062 16.6875
Q6.6875 17.2812 7.51562 17.2812
L70.3125 17.2812
Q71.0469 17.2812 71.5781 16.6875
Q72.125 16.1094 72.125 15.2812
Q72.125 14.5469 71.5781 13.9062
Q71.0469 13.2812 70.3125 13.2812
z

M7.51562 32.7188
Q6.6875 32.7188 6.14062 33.2969
Q5.60938 33.8906 5.60938 34.7188
Q5.60938 35.4531 6.14062 36.0781
Q6.6875 36.7188 7.51562 36.7188
L70.3125 36.7188
Q71.0469 36.7188 71.5781 36.0781
Q72.125 35.4531 72.125 34.7188
Q72.125 33.8906 71.5781 33.2969
Q71.0469 32.7188 70.3125 32.7188
z
" id="Cmr10-3d"/>
      <path d="
M19.3906 -19.4844
L23.875 -1.42188
Q18.7969 -1.42188 14.4062 0.953125
Q10.0156 3.32812 7.34375 7.5625
Q4.6875 11.8125 4.6875 16.7969
Q4.6875 22.2188 7.375 27.1406
Q10.0625 32.0781 14.7188 36.1094
Q19.3906 40.1406 24.75 42.3125
Q30.125 44.4844 35.4062 44.4844
L41.4062 68.7969
Q41.6094 69.3906 42.1875 69.3906
L43.4062 69.3906
Q43.7969 69.3906 44.0312 69.0469
Q44.2812 68.7031 44.2812 68.4062
L38.2812 44.4844
Q42.0469 44.4844 45.5625 43.1094
Q49.0781 41.75 51.7812 39.2812
Q54.5 36.8125 56 33.4688
Q57.5156 30.125 57.5156 26.3125
Q57.5156 20.9062 54.8281 15.9688
Q52.1562 11.0312 47.6094 7.07812
Q43.0625 3.125 37.4688 0.84375
Q31.8906 -1.42188 26.8125 -1.42188
L22.2188 -19.9219
Q22.0156 -20.5156 21.3906 -20.5156
L20.2188 -20.5156
Q19.8281 -20.5156 19.6094 -20.1406
Q19.3906 -19.7812 19.3906 -19.4844
M24.5156 1.21875
L34.7188 41.8906
Q32.1719 41.8906 29.3906 40.8594
Q26.6094 39.8438 24.1406 38.2812
Q21.6875 36.7188 19.6719 34.7188
Q17.2344 32.2812 15.375 28.9531
Q13.5312 25.6406 12.5781 21.9531
Q11.625 18.2656 11.625 14.7031
Q11.625 10.9375 13.2344 7.85938
Q14.8438 4.78125 17.7656 3
Q20.7031 1.21875 24.5156 1.21875
M27.4844 1.21875
Q31.25 1.21875 35.5 3.35938
Q39.75 5.51562 42.4844 8.40625
Q46.2344 12.1094 48.4062 17.5
Q50.5938 22.9062 50.5938 28.4219
Q50.5938 32.125 48.9688 35.2188
Q47.3594 38.3281 44.4219 40.1094
Q41.5 41.8906 37.7031 41.8906
z
" id="Cmmi10-c1"/>
      <path d="
M31 -24.8125
Q25.4375 -20.4062 21.4062 -14.7188
Q17.3906 -9.03125 14.8125 -2.57812
Q12.25 3.85938 10.9844 10.8906
Q9.71875 17.9219 9.71875 25
Q9.71875 32.1719 10.9844 39.2031
Q12.25 46.2344 14.8594 52.7344
Q17.4844 59.2344 21.5312 64.8906
Q25.5938 70.5625 31 74.8125
Q31 75 31.5 75
L32.4219 75
Q32.7188 75 32.9531 74.7344
Q33.2031 74.4688 33.2031 74.125
Q33.2031 73.6875 33.0156 73.4844
Q28.125 68.7031 24.875 63.2344
Q21.625 57.7656 19.6406 51.5781
Q17.6719 45.4062 16.7969 38.7812
Q15.9219 32.1719 15.9219 25
Q15.9219 -6.78125 32.9062 -23.2969
Q33.2031 -23.5781 33.2031 -24.125
Q33.2031 -24.3594 32.9375 -24.6719
Q32.6719 -25 32.4219 -25
L31.5 -25
Q31 -25 31 -24.8125" id="Cmr10-28"/>
      <path d="
M6.5 -25
Q5.60938 -25 5.60938 -24.125
Q5.60938 -23.6875 5.8125 -23.4844
Q22.9062 -6.78125 22.9062 25
Q22.9062 56.7812 6 73.2969
Q5.60938 73.5312 5.60938 74.125
Q5.60938 74.4688 5.875 74.7344
Q6.15625 75 6.5 75
L7.42188 75
Q7.71875 75 7.90625 74.8125
Q15.0938 69.1406 19.875 61.0312
Q24.6562 52.9375 26.875 43.75
Q29.1094 34.5781 29.1094 25
Q29.1094 17.9219 27.9062 11.0625
Q26.7031 4.20312 24.0938 -2.45312
Q21.4844 -9.125 17.4844 -14.7656
Q13.4844 -20.4062 7.90625 -24.8125
Q7.71875 -25 7.42188 -25
z
" id="Cmr10-29"/>
      <path d="
M4.98438 0
L4.98438 2.6875
Q4.98438 2.9375 5.17188 3.21875
L20.7031 20.4062
Q24.2188 24.2188 26.4062 26.7969
Q28.6094 29.3906 30.75 32.7656
Q32.9062 36.1406 34.1562 39.625
Q35.4062 43.1094 35.4062 47.0156
Q35.4062 51.125 33.8906 54.8594
Q32.375 58.5938 29.375 60.8438
Q26.375 63.0938 22.125 63.0938
Q17.7812 63.0938 14.3125 60.4688
Q10.8438 57.8594 9.42188 53.7188
Q9.8125 53.8125 10.5 53.8125
Q12.75 53.8125 14.3281 52.2969
Q15.9219 50.7812 15.9219 48.3906
Q15.9219 46.0938 14.3281 44.5
Q12.75 42.9219 10.5 42.9219
Q8.15625 42.9219 6.5625 44.5469
Q4.98438 46.1875 4.98438 48.3906
Q4.98438 52.1562 6.39062 55.4375
Q7.8125 58.7344 10.4688 61.2969
Q13.1406 63.875 16.4844 65.2344
Q19.8281 66.6094 23.5781 66.6094
Q29.2969 66.6094 34.2188 64.1875
Q39.1562 61.7656 42.0312 57.3438
Q44.9219 52.9375 44.9219 47.0156
Q44.9219 42.6719 43.0156 38.7656
Q41.1094 34.8594 38.125 31.6562
Q35.1562 28.4688 30.5156 24.4062
Q25.875 20.3594 24.4219 19
L13.0938 8.10938
L22.7031 8.10938
Q29.7812 8.10938 34.5469 8.21875
Q39.3125 8.34375 39.5938 8.59375
Q40.7656 9.85938 42 17.8281
L44.9219 17.8281
L42.0938 0
z
" id="Cmr10-32"/>
      <path d="
M9.28125 0
L9.28125 3.51562
Q21.7812 3.51562 21.7812 6.6875
L21.7812 59.1875
Q16.6094 56.6875 8.6875 56.6875
L8.6875 60.2031
Q20.9531 60.2031 27.2031 66.6094
L28.6094 66.6094
Q28.9531 66.6094 29.2656 66.3281
Q29.5938 66.0625 29.5938 65.7188
L29.5938 6.6875
Q29.5938 3.51562 42.0938 3.51562
L42.0938 0
z
" id="Cmr10-31"/>
      <path d="
M10.2031 23
Q9.375 23 8.82812 23.625
Q8.29688 24.2656 8.29688 25
Q8.29688 25.7344 8.82812 26.3594
Q9.375 27 10.2031 27
L67.5781 27
Q68.3594 27 68.875 26.3594
Q69.3906 25.7344 69.3906 25
Q69.3906 24.2656 68.875 23.625
Q68.3594 23 67.5781 23
z
" id="Cmsy10-a1"/>
      <path d="
M7.71875 1.70312
Q7.71875 2.29688 7.8125 2.59375
L15.2812 32.4219
Q16.0156 35.2031 16.0156 37.3125
Q16.0156 41.6094 13.0938 41.6094
Q9.96875 41.6094 8.45312 37.8594
Q6.9375 34.125 5.51562 28.4219
Q5.51562 28.125 5.21875 27.9531
Q4.9375 27.7812 4.6875 27.7812
L3.51562 27.7812
Q3.17188 27.7812 2.92188 28.1406
Q2.6875 28.5156 2.6875 28.8125
Q3.76562 33.1562 4.76562 36.1719
Q5.76562 39.2031 7.89062 41.6875
Q10.0156 44.1875 13.1875 44.1875
Q16.6562 44.1875 19.2656 42.1875
Q21.875 40.1875 22.5156 36.9219
Q25.0469 40.2344 28.2969 42.2031
Q31.5469 44.1875 35.4062 44.1875
Q38.5781 44.1875 40.9844 42.3281
Q43.4062 40.4844 43.4062 37.3125
Q43.4062 34.7656 41.8125 32.875
Q40.2344 31 37.5938 31
Q35.9844 31 34.8906 32
Q33.7969 33.0156 33.7969 34.625
Q33.7969 36.8125 35.4062 38.5469
Q37.0156 40.2812 39.1094 40.2812
Q37.5 41.6094 35.2031 41.6094
Q30.9062 41.6094 27.7344 38.5469
Q24.5625 35.5 22.0156 30.8125
L14.8906 2.20312
Q14.5469 0.828125 13.3438 -0.140625
Q12.1562 -1.125 10.6875 -1.125
Q9.46875 -1.125 8.59375 -0.34375
Q7.71875 0.4375 7.71875 1.70312" id="Cmmi10-72"/>
     </defs>
     <g style="fill:#262626;" transform="translate(534.029 58.973)scale(0.14300000000000002 -0.14300000000000002)">
      <use transform="translate(0.0 0.9976718750000089)" xlink:href="#Cmmi10-c1"/>
      <use transform="translate(77.080078125 0.9976718750000089)" xlink:href="#Cmr10-3d"/>
      <use transform="translate(161.138671875 0.9976718750000089)" xlink:href="#Cmr10-28"/>
      <use transform="translate(199.95703125 0.9976718750000089)" xlink:href="#Cmr10-31"/>
      <use transform="translate(249.95703125 0.9976718750000089)" xlink:href="#Cmsy10-a1"/>
      <use transform="translate(327.642578125 0.9976718750000089)" xlink:href="#Cmmi10-72"/>
      <use transform="translate(372.759765625 43.51329687500001)scale(0.7)" xlink:href="#Cmr10-32"/>
      <use transform="translate(439.766015625 0.9976718750000089)" xlink:href="#Cmr10-29"/>
      <use transform="translate(496.14296875 0.9976718750000089)" xlink:href="#Cmsy10-a2"/>
      <use transform="translate(524.6859375 0.9976718750000089)" xlink:href="#Cmmi10-65"/>
      <use transform="translate(571.1703125 50.51907812500001)scale(0.7)" xlink:href="#Cmsy10-a1"/>
      <use transform="translate(625.5501953125 77.320328125)scale(0.49)" xlink:href="#Cmmi10-72"/>
      <use transform="translate(647.6576171875 98.152984375)scale(0.34299999999999997)" xlink:href="#Cmr10-32"/>
      <use transform="translate(640.5501953125 22.25548437500001)scale(0.49)" xlink:href="#Cmr10-32"/>
      <path d="
M625.55 59.2691
L625.55 63.6441
L680.491 63.6441
L680.491 59.2691
L625.55 59.2691
z
"/>
     </g>
    </g>
   </g>
  </g>
 </g>
 <defs>
  <clipPath id="p9f76a1e9e4">
   <rect height="223.2" width="558.0" x="90.0" y="28.8"/>
  </clipPath>
 </defs>
</svg>
