<?xml version="1.0" encoding="utf-8" standalone="no"?>
<!DOCTYPE svg PUBLIC "-//W3C//DTD SVG 1.1//EN"
  "http://www.w3.org/Graphics/SVG/1.1/DTD/svg11.dtd">
<!-- Created with matplotlib (http://matplotlib.org/) -->
<svg height="288pt" version="1.1" viewBox="0 0 288 288" width="288pt" xmlns="http://www.w3.org/2000/svg" xmlns:xlink="http://www.w3.org/1999/xlink">
 <defs>
  <style type="text/css">
*{stroke-linecap:butt;stroke-linejoin:round;}
  </style>
 </defs>
 <g id="figure_1">
  <g id="patch_1">
   <path d="
M0 288
L288 288
L288 0
L0 0
z
" style="fill:#ffffff;"/>
  </g>
  <g id="axes_1">
   <g id="patch_2">
    <path d="
M36 252
L259.2 252
L259.2 28.8
L36 28.8
z
" style="fill:#eaeaf2;"/>
   </g>
   <g id="matplotlib.axis_1">
    <g id="xtick_1">
     <g id="line2d_1">
      <path clip-path="url(#p08154cb638)" d="
M36 252
L36 28.8" style="fill:none;stroke:#ffffff;stroke-linecap:round;stroke-width:1.3;"/>
     </g>
     <g id="line2d_2">
      <defs>
       <path d="
M0 0
L0 0" id="m56cc5124a0" style="stroke:#262626;stroke-width:1.3;"/>
      </defs>
      <g>
       <use style="fill:#262626;stroke:#262626;stroke-width:1.3;" x="36.0" xlink:href="#m56cc5124a0" y="252.0"/>
      </g>
     </g>
     <g id="line2d_3">
      <g>
       <use style="fill:#262626;stroke:#262626;stroke-width:1.3;" x="36.0" xlink:href="#m56cc5124a0" y="28.8"/>
      </g>
     </g>
     <g id="text_1">
      <!-- 0.0 -->
      <defs>
       <path d="
M6.29688 -0.5
Q3.20312 2.59375 3.20312 4.89062
Q3.20312 7.20312 4.75 8.79688
Q6.29688 10.4062 8.59375 10.4062
Q10.7969 10.4062 12.3438 8.79688
Q13.9062 7.20312 13.9062 4.89062
Q13.9062 2.59375 12.3438 1.04688
Q10.7969 -0.5 8.59375 -0.5
Q6.29688 -0.5 3.20312 2.59375" id="CalibreRegular-2e"/>
       <path d="
M49.7969 16.5938
Q37.0938 -0.90625 26.8906 -0.90625
Q16.7031 -0.90625 10.3438 7.84375
Q4 16.5938 4 30.6875
Q4 44.7969 10.3438 53.5469
Q16.7031 62.2969 26.8906 62.2969
Q37.0938 62.2969 43.4375 53.5469
Q49.7969 44.7969 49.7969 30.6875
Q49.7969 16.5938 37.0938 -0.90625
M26.9062 55.2031
Q19.5938 55.2031 15.6406 48.5
Q11.7031 41.7969 11.7031 30.6875
Q11.7031 19.5938 15.6406 12.8906
Q19.5938 6.20312 26.9062 6.20312
Q34.0938 6.20312 38.0938 12.9531
Q42.0938 19.7031 42.0938 30.7031
Q42.0938 41.7031 38.0938 48.4531
Q34.0938 55.2031 26.9062 55.2031" id="CalibreRegular-30"/>
      </defs>
      <g style="fill:#262626;" transform="translate(27.65684375 270.395)scale(0.14300000000000002 -0.14300000000000002)">
       <use xlink:href="#CalibreRegular-30"/>
       <use x="53.79998779296875" xlink:href="#CalibreRegular-2e"/>
       <use x="70.89997863769531" xlink:href="#CalibreRegular-30"/>
      </g>
     </g>
    </g>
    <g id="xtick_2">
     <g id="line2d_4">
      <path clip-path="url(#p08154cb638)" d="
M80.64 252
L80.64 28.8" style="fill:none;stroke:#ffffff;stroke-linecap:round;stroke-width:1.3;"/>
     </g>
     <g id="line2d_5">
      <g>
       <use style="fill:#262626;stroke:#262626;stroke-width:1.3;" x="80.64" xlink:href="#m56cc5124a0" y="252.0"/>
      </g>
     </g>
     <g id="line2d_6">
      <g>
       <use style="fill:#262626;stroke:#262626;stroke-width:1.3;" x="80.64" xlink:href="#m56cc5124a0" y="28.8"/>
      </g>
     </g>
     <g id="text_2">
      <!-- 0.2 -->
      <defs>
       <path d="
M34.0938 44.9062
Q34.0938 49.5938 31.0938 52.4375
Q28.0938 55.2969 23 55.2969
Q17.5938 55.2969 14.5469 51.9375
Q11.5 48.5938 11 43
L2.90625 43
Q3.79688 51.7031 9.1875 57
Q14.5938 62.2969 23 62.2969
Q31.7031 62.2969 36.7031 57.5938
Q41.7031 52.9062 41.7031 45
Q41.7031 43.5938 41.3438 42.0938
Q41 40.5938 40.6406 39.5
Q40.2969 38.4062 39.3438 36.75
Q38.4062 35.0938 37.9062 34.2969
Q37.4062 33.5 35.9062 31.7031
Q34.4062 29.9062 33.9062 29.2969
Q33.4062 28.7031 31.5469 26.6406
Q29.7031 24.5938 29.2969 24.0938
L13.7031 7
L43 7
L43 0
L2.90625 0
L2.90625 5.20312
L22.7031 27
Q27.2031 32 28.7969 33.7969
Q30.4062 35.5938 32.25 38.8906
Q34.0938 42.2031 34.0938 44.9062" id="CalibreRegular-32"/>
      </defs>
      <g style="fill:#262626;" transform="translate(72.7828203125 270.395)scale(0.14300000000000002 -0.14300000000000002)">
       <use xlink:href="#CalibreRegular-30"/>
       <use x="53.79998779296875" xlink:href="#CalibreRegular-2e"/>
       <use x="70.89997863769531" xlink:href="#CalibreRegular-32"/>
      </g>
     </g>
    </g>
    <g id="xtick_3">
     <g id="line2d_7">
      <path clip-path="url(#p08154cb638)" d="
M125.28 252
L125.28 28.8" style="fill:none;stroke:#ffffff;stroke-linecap:round;stroke-width:1.3;"/>
     </g>
     <g id="line2d_8">
      <g>
       <use style="fill:#262626;stroke:#262626;stroke-width:1.3;" x="125.28" xlink:href="#m56cc5124a0" y="252.0"/>
      </g>
     </g>
     <g id="line2d_9">
      <g>
       <use style="fill:#262626;stroke:#262626;stroke-width:1.3;" x="125.28" xlink:href="#m56cc5124a0" y="28.8"/>
      </g>
     </g>
     <g id="text_3">
      <!-- 0.4 -->
      <defs>
       <path d="
M33.7969 61.4062
L10.9062 20.5
L30.5 20.5
L30.5 35.2969
L37.7969 35.2969
L37.7969 20.5
L48.5938 20.5
L48.5938 13.9062
L37.7969 13.9062
L37.7969 0
L30.5 0
L30.5 13.9062
L2.20312 13.9062
L2.20312 19.5
L25.7969 61.4062
z
" id="CalibreRegular-34"/>
      </defs>
      <g style="fill:#262626;" transform="translate(117.022867187 270.395)scale(0.14300000000000002 -0.14300000000000002)">
       <use xlink:href="#CalibreRegular-30"/>
       <use x="53.79998779296875" xlink:href="#CalibreRegular-2e"/>
       <use x="70.89997863769531" xlink:href="#CalibreRegular-34"/>
      </g>
     </g>
    </g>
    <g id="xtick_4">
     <g id="line2d_10">
      <path clip-path="url(#p08154cb638)" d="
M169.92 252
L169.92 28.8" style="fill:none;stroke:#ffffff;stroke-linecap:round;stroke-width:1.3;"/>
     </g>
     <g id="line2d_11">
      <g>
       <use style="fill:#262626;stroke:#262626;stroke-width:1.3;" x="169.92" xlink:href="#m56cc5124a0" y="252.0"/>
      </g>
     </g>
     <g id="line2d_12">
      <g>
       <use style="fill:#262626;stroke:#262626;stroke-width:1.3;" x="169.92" xlink:href="#m56cc5124a0" y="28.8"/>
      </g>
     </g>
     <g id="text_4">
      <!-- 0.6 -->
      <defs>
       <path d="
M12.7031 19.5938
Q12.7031 13.5938 16.3906 9.6875
Q20.0938 5.79688 26 5.79688
Q31.7969 5.79688 35.5 9.64062
Q39.2031 13.5 39.2031 19.5938
Q39.2031 25.7031 35.5 29.6406
Q31.7969 33.5938 26 33.5938
Q20.0938 33.5938 16.3906 29.6875
Q12.7031 25.7969 12.7031 19.5938
M45.5938 47.0938
L37.7969 47.0938
Q35 55.7969 26.5 55.7969
Q19.7969 55.7969 15.3906 49.0469
Q11 42.2969 11 32.2969
Q11 32 11.0469 30.9531
Q11.0938 29.9062 11.0938 29.5938
Q12.5938 34.2969 16.8906 37.1875
Q21.2031 40.0938 26.5938 40.0938
Q35.2969 40.0938 40.8906 34.1406
Q46.5 28.2031 46.5 19.7031
Q46.5 11 40.7969 5.04688
Q35.0938 -0.90625 25.9062 -0.90625
Q13.4062 -0.90625 7.59375 10.7969
Q4 18.4062 4 29.5938
Q4 44.4062 10.25 53.3438
Q16.5 62.2969 26.5 62.2969
Q41.7031 62.2969 45.5938 47.0938" id="CalibreRegular-36"/>
      </defs>
      <g style="fill:#262626;" transform="translate(161.812570313 270.395)scale(0.14300000000000002 -0.14300000000000002)">
       <use xlink:href="#CalibreRegular-30"/>
       <use x="53.79998779296875" xlink:href="#CalibreRegular-2e"/>
       <use x="70.89997863769531" xlink:href="#CalibreRegular-36"/>
      </g>
     </g>
    </g>
    <g id="xtick_5">
     <g id="line2d_13">
      <path clip-path="url(#p08154cb638)" d="
M214.56 252
L214.56 28.8" style="fill:none;stroke:#ffffff;stroke-linecap:round;stroke-width:1.3;"/>
     </g>
     <g id="line2d_14">
      <g>
       <use style="fill:#262626;stroke:#262626;stroke-width:1.3;" x="214.56" xlink:href="#m56cc5124a0" y="252.0"/>
      </g>
     </g>
     <g id="line2d_15">
      <g>
       <use style="fill:#262626;stroke:#262626;stroke-width:1.3;" x="214.56" xlink:href="#m56cc5124a0" y="28.8"/>
      </g>
     </g>
     <g id="text_5">
      <!-- 0.8 -->
      <defs>
       <path d="
M24.2969 5.5
Q30.2031 5.5 33.9531 8.79688
Q37.7031 12.0938 37.7031 17.2969
Q37.7031 22.5 33.9531 25.75
Q30.2031 29 24.2969 29
Q18.5 29 14.75 25.75
Q11 22.5 11 17.2969
Q11 12.0938 14.75 8.79688
Q18.5 5.5 24.2969 5.5
M24.2969 35.5938
Q29.2031 35.5938 32.3906 38.3906
Q35.5938 41.2031 35.5938 45.7031
Q35.5938 50.2031 32.3906 53.0469
Q29.2031 55.9062 24.2969 55.9062
Q19.5 55.9062 16.2969 53.0469
Q13.0938 50.2031 13.0938 45.7031
Q13.0938 41.2969 16.2969 38.4375
Q19.5 35.5938 24.2969 35.5938
M24.2969 -0.90625
Q15.2969 -0.90625 9.34375 4
Q3.40625 8.90625 3.40625 16.7031
Q3.40625 22.5 6.75 26.7031
Q10.0938 30.9062 15.4062 32.2969
Q11 33.7969 8.29688 37.5
Q5.59375 41.2031 5.59375 46.0938
Q5.59375 53.4062 10.9375 57.8438
Q16.2969 62.2969 24.2969 62.2969
Q32.4062 62.2969 37.75 57.8438
Q43.0938 53.4062 43.0938 46.0938
Q43.0938 41.2031 40.3438 37.5469
Q37.5938 33.9062 33.2969 32.2969
Q38.5 30.9062 41.8906 26.7031
Q45.2969 22.5 45.2969 16.7031
Q45.2969 8.90625 39.3438 4
Q33.4062 -0.90625 24.2969 -0.90625" id="CalibreRegular-38"/>
      </defs>
      <g style="fill:#262626;" transform="translate(206.53859375 270.395)scale(0.14300000000000002 -0.14300000000000002)">
       <use xlink:href="#CalibreRegular-30"/>
       <use x="53.79998779296875" xlink:href="#CalibreRegular-2e"/>
       <use x="70.89997863769531" xlink:href="#CalibreRegular-38"/>
      </g>
     </g>
    </g>
    <g id="xtick_6">
     <g id="line2d_16">
      <path clip-path="url(#p08154cb638)" d="
M259.2 252
L259.2 28.8" style="fill:none;stroke:#ffffff;stroke-linecap:round;stroke-width:1.3;"/>
     </g>
     <g id="line2d_17">
      <g>
       <use style="fill:#262626;stroke:#262626;stroke-width:1.3;" x="259.2" xlink:href="#m56cc5124a0" y="252.0"/>
      </g>
     </g>
     <g id="line2d_18">
      <g>
       <use style="fill:#262626;stroke:#262626;stroke-width:1.3;" x="259.2" xlink:href="#m56cc5124a0" y="28.8"/>
      </g>
     </g>
     <g id="text_6">
      <!-- 1.0 -->
      <defs>
       <path d="
M25.4062 61.5
L25.4062 0
L17.7031 0
L17.7031 52
L2.5 44.2031
L2.5 52.2031
L20.7031 61.5
z
" id="CalibreRegular-31"/>
      </defs>
      <g style="fill:#262626;" transform="translate(252.243273437 270.395)scale(0.14300000000000002 -0.14300000000000002)">
       <use xlink:href="#CalibreRegular-31"/>
       <use x="32.899993896484375" xlink:href="#CalibreRegular-2e"/>
       <use x="49.99998474121094" xlink:href="#CalibreRegular-30"/>
      </g>
     </g>
    </g>
   </g>
   <g id="matplotlib.axis_2">
    <g id="ytick_1">
     <g id="line2d_19">
      <path clip-path="url(#p08154cb638)" d="
M36 252
L259.2 252" style="fill:none;stroke:#ffffff;stroke-linecap:round;stroke-width:1.3;"/>
     </g>
     <g id="line2d_20">
      <g>
       <use style="fill:#262626;stroke:#262626;stroke-width:1.3;" x="36.0" xlink:href="#m56cc5124a0" y="252.0"/>
      </g>
     </g>
     <g id="line2d_21">
      <g>
       <use style="fill:#262626;stroke:#262626;stroke-width:1.3;" x="259.2" xlink:href="#m56cc5124a0" y="252.0"/>
      </g>
     </g>
     <g id="text_7">
      <!-- 0.0 -->
      <g style="fill:#262626;" transform="translate(10.2136875 255.432)scale(0.14300000000000002 -0.14300000000000002)">
       <use xlink:href="#CalibreRegular-30"/>
       <use x="53.79998779296875" xlink:href="#CalibreRegular-2e"/>
       <use x="70.89997863769531" xlink:href="#CalibreRegular-30"/>
      </g>
     </g>
    </g>
    <g id="ytick_2">
     <g id="line2d_22">
      <path clip-path="url(#p08154cb638)" d="
M36 207.36
L259.2 207.36" style="fill:none;stroke:#ffffff;stroke-linecap:round;stroke-width:1.3;"/>
     </g>
     <g id="line2d_23">
      <g>
       <use style="fill:#262626;stroke:#262626;stroke-width:1.3;" x="36.0" xlink:href="#m56cc5124a0" y="207.36"/>
      </g>
     </g>
     <g id="line2d_24">
      <g>
       <use style="fill:#262626;stroke:#262626;stroke-width:1.3;" x="259.2" xlink:href="#m56cc5124a0" y="207.36"/>
      </g>
     </g>
     <g id="text_8">
      <!-- 0.2 -->
      <g style="fill:#262626;" transform="translate(11.185640625 210.792)scale(0.14300000000000002 -0.14300000000000002)">
       <use xlink:href="#CalibreRegular-30"/>
       <use x="53.79998779296875" xlink:href="#CalibreRegular-2e"/>
       <use x="70.89997863769531" xlink:href="#CalibreRegular-32"/>
      </g>
     </g>
    </g>
    <g id="ytick_3">
     <g id="line2d_25">
      <path clip-path="url(#p08154cb638)" d="
M36 162.72
L259.2 162.72" style="fill:none;stroke:#ffffff;stroke-linecap:round;stroke-width:1.3;"/>
     </g>
     <g id="line2d_26">
      <g>
       <use style="fill:#262626;stroke:#262626;stroke-width:1.3;" x="36.0" xlink:href="#m56cc5124a0" y="162.72"/>
      </g>
     </g>
     <g id="line2d_27">
      <g>
       <use style="fill:#262626;stroke:#262626;stroke-width:1.3;" x="259.2" xlink:href="#m56cc5124a0" y="162.72"/>
      </g>
     </g>
     <g id="text_9">
      <!-- 0.4 -->
      <g style="fill:#262626;" transform="translate(10.385734375 166.152)scale(0.14300000000000002 -0.14300000000000002)">
       <use xlink:href="#CalibreRegular-30"/>
       <use x="53.79998779296875" xlink:href="#CalibreRegular-2e"/>
       <use x="70.89997863769531" xlink:href="#CalibreRegular-34"/>
      </g>
     </g>
    </g>
    <g id="ytick_4">
     <g id="line2d_28">
      <path clip-path="url(#p08154cb638)" d="
M36 118.08
L259.2 118.08" style="fill:none;stroke:#ffffff;stroke-linecap:round;stroke-width:1.3;"/>
     </g>
     <g id="line2d_29">
      <g>
       <use style="fill:#262626;stroke:#262626;stroke-width:1.3;" x="36.0" xlink:href="#m56cc5124a0" y="118.08"/>
      </g>
     </g>
     <g id="line2d_30">
      <g>
       <use style="fill:#262626;stroke:#262626;stroke-width:1.3;" x="259.2" xlink:href="#m56cc5124a0" y="118.08"/>
      </g>
     </g>
     <g id="text_10">
      <!-- 0.6 -->
      <g style="fill:#262626;" transform="translate(10.685140625 121.512)scale(0.14300000000000002 -0.14300000000000002)">
       <use xlink:href="#CalibreRegular-30"/>
       <use x="53.79998779296875" xlink:href="#CalibreRegular-2e"/>
       <use x="70.89997863769531" xlink:href="#CalibreRegular-36"/>
      </g>
     </g>
    </g>
    <g id="ytick_5">
     <g id="line2d_31">
      <path clip-path="url(#p08154cb638)" d="
M36 73.44
L259.2 73.44" style="fill:none;stroke:#ffffff;stroke-linecap:round;stroke-width:1.3;"/>
     </g>
     <g id="line2d_32">
      <g>
       <use style="fill:#262626;stroke:#262626;stroke-width:1.3;" x="36.0" xlink:href="#m56cc5124a0" y="73.44"/>
      </g>
     </g>
     <g id="line2d_33">
      <g>
       <use style="fill:#262626;stroke:#262626;stroke-width:1.3;" x="259.2" xlink:href="#m56cc5124a0" y="73.44"/>
      </g>
     </g>
     <g id="text_11">
      <!-- 0.8 -->
      <g style="fill:#262626;" transform="translate(10.8571875 76.872)scale(0.14300000000000002 -0.14300000000000002)">
       <use xlink:href="#CalibreRegular-30"/>
       <use x="53.79998779296875" xlink:href="#CalibreRegular-2e"/>
       <use x="70.89997863769531" xlink:href="#CalibreRegular-38"/>
      </g>
     </g>
    </g>
    <g id="ytick_6">
     <g id="line2d_34">
      <path clip-path="url(#p08154cb638)" d="
M36 28.8
L259.2 28.8" style="fill:none;stroke:#ffffff;stroke-linecap:round;stroke-width:1.3;"/>
     </g>
     <g id="line2d_35">
      <g>
       <use style="fill:#262626;stroke:#262626;stroke-width:1.3;" x="36.0" xlink:href="#m56cc5124a0" y="28.8"/>
      </g>
     </g>
     <g id="line2d_36">
      <g>
       <use style="fill:#262626;stroke:#262626;stroke-width:1.3;" x="259.2" xlink:href="#m56cc5124a0" y="28.8"/>
      </g>
     </g>
     <g id="text_12">
      <!-- 1.0 -->
      <g style="fill:#262626;" transform="translate(12.986546875 32.232)scale(0.14300000000000002 -0.14300000000000002)">
       <use xlink:href="#CalibreRegular-31"/>
       <use x="32.899993896484375" xlink:href="#CalibreRegular-2e"/>
       <use x="49.99998474121094" xlink:href="#CalibreRegular-30"/>
      </g>
     </g>
    </g>
   </g>
   <g id="line2d_37">
    <path clip-path="url(#p08154cb638)" d="
M36 252
L259.2 252" style="fill:none;stroke:#dcdce6;stroke-linecap:round;stroke-width:2;"/>
   </g>
   <g id="line2d_38">
    <path clip-path="url(#p08154cb638)" d="
M36 252
L36 28.8" style="fill:none;stroke:#dcdce6;stroke-linecap:round;stroke-width:2;"/>
   </g>
   <g id="line2d_39">
    <path clip-path="url(#p08154cb638)" d="
M36 252
L259.2 252" style="fill:none;stroke:#dcdce6;stroke-linecap:round;stroke-width:2;"/>
   </g>
   <g id="line2d_40">
    <path clip-path="url(#p08154cb638)" d="
M36 252
L36 28.8" style="fill:none;stroke:#dcdce6;stroke-linecap:round;stroke-width:2;"/>
   </g>
   <g id="line2d_41">
    <path clip-path="url(#p08154cb638)" d="
M36 252
L259.2 252" style="fill:none;stroke:#dcdce6;stroke-linecap:round;stroke-width:2;"/>
   </g>
   <g id="line2d_42">
    <path clip-path="url(#p08154cb638)" d="
M36 252
L36 28.8" style="fill:none;stroke:#dcdce6;stroke-linecap:round;stroke-width:2;"/>
   </g>
   <g id="patch_3">
    <path d="
M36 252
L259.2 252" style="fill:none;"/>
   </g>
   <g id="patch_4">
    <path d="
M259.2 252
L259.2 28.8" style="fill:none;"/>
   </g>
   <g id="patch_5">
    <path d="
M36 252
L36 28.8" style="fill:none;"/>
   </g>
   <g id="patch_6">
    <path d="
M36 28.8
L259.2 28.8" style="fill:none;"/>
   </g>
   <g id="text_13">
    <!-- ROC Curves -->
    <defs>
     <path d="
M19.4062 -0.90625
Q3.70312 16.5938 3.70312 30.6875
Q3.70312 44.7969 11.5469 53.5469
Q19.4062 62.2969 31.2031 62.2969
Q40.7031 62.2969 46.9531 57.1875
Q53.2031 52.0938 55.0938 43.4062
L47.2969 43.4062
Q43.0938 55.2031 31.2031 55.2031
Q22.4062 55.2031 17 48.4531
Q11.5938 41.7031 11.5938 30.7031
Q11.5938 19.7969 17 13
Q22.4062 6.20312 31.2031 6.20312
Q43.2031 6.20312 47.2969 18.0938
L55.0938 18.0938
Q53.2031 9.29688 46.9531 4.1875
Q40.7031 -0.90625 31.2031 -0.90625
Q19.4062 -0.90625 3.70312 16.5938" id="CalibreRegular-43"/>
     <path d="
M43.5938 62.2969
Q59.2031 44.5938 59.2031 30.6875
Q59.2031 16.7969 51.3906 7.9375
Q43.5938 -0.90625 31.4062 -0.90625
Q19.2969 -0.90625 11.5 7.9375
Q3.70312 16.7969 3.70312 30.6875
Q3.70312 44.5938 11.5 53.4375
Q19.2969 62.2969 31.4062 62.2969
Q43.5938 62.2969 59.2031 44.5938
M40.2969 6.20312
Q51.2969 19.9062 51.2969 30.7031
Q51.2969 41.5 45.7969 48.3438
Q40.2969 55.2031 31.4062 55.2031
Q22.5938 55.2031 17.0938 48.3438
Q11.5938 41.5 11.5938 30.7031
Q11.5938 19.9062 17.0938 13.0469
Q22.5938 6.20312 31.4062 6.20312
Q40.2969 6.20312 51.2969 19.9062" id="CalibreRegular-4f"/>
     <path d="
M26.0938 26
L15.2031 26
L15.2031 0
L7.29688 0
L7.29688 61.4062
L30.0938 61.4062
Q39.5 61.4062 44.8438 56.7969
Q50.2031 52.2031 50.2031 43.5938
Q50.2031 36.0938 46.0938 31.6875
Q42 27.2969 34.5938 26.2969
L52.7031 0
L43.7031 0
z

M15.2031 54.5
L15.2031 32.7031
L29.9062 32.7031
Q35.9062 32.7031 39.1562 35.5938
Q42.4062 38.5 42.4062 43.5938
Q42.4062 48.7031 39.1562 51.5938
Q35.9062 54.5 29.9062 54.5
z
" id="CalibreRegular-52"/>
     <path d="
M3 12.2031
L10.7969 12.2031
Q12.9062 5.40625 21.2969 5.40625
Q25.4062 5.40625 27.9062 7.04688
Q30.4062 8.70312 30.4062 12
Q30.4062 16.5 23.7969 18.2031
L15 20.5
Q4.29688 23.2031 4.29688 32.2031
Q4.29688 38 8.79688 41.6406
Q13.2969 45.2969 20.2031 45.2969
Q27.4062 45.2969 31.7969 42
Q36.2031 38.7031 37.4062 32.7031
L29.9062 32.7031
Q27.9062 39 20.0938 39
Q16.5938 39 14.0938 37.3438
Q11.5938 35.7031 11.5938 32.5938
Q11.5938 30.4062 13.0469 29.1562
Q14.5 27.9062 17.7969 27
L26.4062 24.9062
Q37.7031 21.9062 37.7031 12.5
Q37.7031 6.29688 33.0938 2.6875
Q28.5 -0.90625 21.2031 -0.90625
Q13.9062 -0.90625 8.95312 2.59375
Q4 6.09375 3 12.2031" id="CalibreRegular-73"/>
     <path d="
M34.7031 13.2969
L41.7969 13.2969
Q40.5938 6.79688 35.8906 2.9375
Q31.2031 -0.90625 23.9062 -0.90625
Q14.7969 -0.90625 9.14062 5.4375
Q3.5 11.7969 3.5 22.0938
Q3.5 32.2031 9.09375 38.75
Q14.7031 45.2969 23.7031 45.2969
Q32.5938 45.2969 37.5 39.3438
Q42.4062 33.4062 42.4062 23.5
L42.4062 20.7969
L11 20.7969
Q11.0938 13.7969 14.6406 9.64062
Q18.2031 5.5 23.9062 5.5
Q28.0938 5.5 30.9375 7.54688
Q33.7969 9.59375 34.7031 13.2969
M23.7969 38.9062
Q18.7969 38.9062 15.3906 35.5938
Q12 32.2969 11.2031 26.5
L34.7969 26.5
Q34.7031 31.7969 31.8906 35.3438
Q29.0938 38.9062 23.7969 38.9062" id="CalibreRegular-65"/>
     <path id="CalibreRegular-20"/>
     <path d="
M26.4062 0
L19 0
L1.79688 44.4062
L9.90625 44.4062
L22.9062 9.5
L35.7969 44.4062
L43.7031 44.4062
z
" id="CalibreRegular-76"/>
     <path d="
M42.0938 44.4062
L42.0938 0
L34.5 0
L34.5 5.59375
Q32.5 2.79688 29.0938 0.9375
Q25.7031 -0.90625 21.5938 -0.90625
Q14.2031 -0.90625 10.1406 3.5
Q6.09375 7.90625 6.09375 15.2969
L6.09375 44.4062
L13.7031 44.4062
L13.7031 16.5
Q13.7031 11.5938 16.0938 8.79688
Q18.5 6 23.4062 6
Q27.2031 6 30.25 8.29688
Q33.2969 10.5938 34.5 14.2969
L34.5 44.4062
z
" id="CalibreRegular-75"/>
     <path d="
M29.5 44.5938
L29.5 36.9062
Q27.7031 38.0938 24.5 38.0938
Q20.9062 38.0938 18.0938 35.8906
Q15.2969 33.7031 14.2031 29.7969
L14.2031 0
L6.70312 0
L6.70312 44.4062
L14.2031 44.4062
L14.2031 38.5938
Q15.7031 41.5 18.6406 43.3906
Q21.5938 45.2969 25.2031 45.2969
Q28.0938 45.2969 29.5 44.5938" id="CalibreRegular-72"/>
    </defs>
    <g style="fill:#262626;" transform="translate(107.52335625 23.8)scale(0.17160000000000003 -0.17160000000000003)">
     <use xlink:href="#CalibreRegular-52"/>
     <use x="55.19999694824219" xlink:href="#CalibreRegular-4f"/>
     <use x="118.09999084472656" xlink:href="#CalibreRegular-43"/>
     <use x="176.69998168945312" xlink:href="#CalibreRegular-20"/>
     <use x="198.7999725341797" xlink:href="#CalibreRegular-43"/>
     <use x="257.39996337890625" xlink:href="#CalibreRegular-75"/>
     <use x="306.09996032714844" xlink:href="#CalibreRegular-72"/>
     <use x="338.199951171875" xlink:href="#CalibreRegular-76"/>
     <use x="383.69993591308594" xlink:href="#CalibreRegular-65"/>
     <use x="429.3999328613281" xlink:href="#CalibreRegular-73"/>
    </g>
   </g>
   <g id="line2d_43">
    <path clip-path="url(#p08154cb638)" d="
M36 252
L259.2 28.8
L259.2 28.8" style="fill:none;stroke:#386df9;stroke-linecap:round;stroke-width:2.275;"/>
   </g>
   <g id="line2d_44">
    <path clip-path="url(#p08154cb638)" d="
M36 252
L43.373 237.498
L50.7459 223.482
L57.8955 210.357
L65.045 197.69
L72.1946 185.48
L79.1207 174.089
L86.0468 163.128
L92.7495 152.93
L99.4523 143.134
L105.932 134.047
L112.411 125.337
L118.89 117.003
L125.146 109.313
L131.402 101.974
L137.434 95.2288
L143.467 88.8099
L149.499 82.7171
L155.308 77.1581
L161.117 71.9015
L166.926 66.9473
L172.512 62.4687
L178.097 58.2698
L183.683 54.3503
L189.045 50.8507
L194.407 47.6087
L199.769 44.6244
L205.132 41.8977
L210.27 39.5263
L215.409 37.3916
L220.548 35.4935
L225.686 33.8321
L230.825 32.4072
L235.964 31.219
L241.103 30.2673
L246.018 29.5785
L250.933 29.1062
L255.849 28.8503
L259.2 28.8
L259.2 28.8" style="fill:none;stroke:#ffdc52;stroke-linecap:round;stroke-width:2.275;"/>
   </g>
   <g id="line2d_45">
    <path clip-path="url(#p08154cb638)" d="
M36 252
L36.2234 242.016
L36.6703 234.715
L37.3405 227.574
L38.2342 220.498
L39.3514 213.467
L40.6919 206.476
L42.2559 199.526
L44.0432 192.621
L46.0541 185.765
L48.2883 178.962
L50.7459 172.218
L53.427 165.538
L56.3315 158.927
L59.4595 152.391
L62.8108 145.936
L66.1622 139.953
L69.7369 134.009
L73.5351 128.118
L77.5568 122.293
L81.8018 116.545
L86.2703 110.885
L90.7387 105.579
L95.4306 100.35
L100.346 95.2083
L105.485 90.1672
L110.623 85.437
L115.986 80.8046
L121.571 76.2828
L127.157 72.0477
L132.966 67.9262
L138.775 64.0745
L144.807 60.3427
L150.84 56.8686
L157.095 53.5235
L163.351 50.428
L169.831 47.4728
L176.31 44.7623
L182.789 42.2868
L189.492 39.9646
L196.195 37.8772
L202.897 36.018
L209.823 34.3301
L216.75 32.874
L223.676 31.6451
L230.602 30.6397
L237.528 29.8546
L244.454 29.2876
L251.38 28.937
L258.53 28.801
L259.2 28.8
L259.2 28.8" style="fill:none;stroke:#ff1614;stroke-linecap:round;stroke-width:2.275;"/>
   </g>
   <g id="legend_1">
    <g id="line2d_46">
     <path d="
M143.024 192.512
L171.624 192.512" style="fill:none;stroke:#386df9;stroke-linecap:round;stroke-width:2.275;"/>
    </g>
    <g id="line2d_47"/>
    <g id="text_14">
     <!-- worst -->
     <defs>
      <path d="
M8.79688 11.2031
L8.79688 38
L1.59375 38
L1.59375 44.4062
L8.79688 44.4062
L8.79688 56.0938
L16.2969 56.0938
L16.2969 44.4062
L27 44.4062
L27 38
L16.2969 38
L16.2969 12
Q16.2969 5.79688 22.2031 5.79688
Q25.2969 5.79688 28 7.59375
L28 0.59375
Q25.2031 -0.90625 21 -0.90625
Q15.4062 -0.90625 12.0938 2.14062
Q8.79688 5.20312 8.79688 11.2031" id="CalibreRegular-74"/>
      <path d="
M33 45.2969
Q44.2969 32.4062 44.2969 22.2031
Q44.2969 12 38.6406 5.54688
Q33 -0.90625 23.8906 -0.90625
Q14.7969 -0.90625 9.14062 5.54688
Q3.5 12 3.5 22.2031
Q3.5 32.4062 9.14062 38.8438
Q14.7969 45.2969 23.8906 45.2969
Q33 45.2969 44.2969 32.4062
M29.7969 5.70312
Q36.7031 14.7969 36.7031 22.1875
Q36.7031 29.5938 33.25 34.1406
Q29.7969 38.7031 23.8906 38.7031
Q18 38.7031 14.5469 34.1406
Q11.0938 29.5938 11.0938 22.1875
Q11.0938 14.7969 14.5469 10.25
Q18 5.70312 23.8906 5.70312
Q29.7969 5.70312 36.7031 14.7969" id="CalibreRegular-6f"/>
      <path d="
M34.9062 44.4062
L44 10.5
L53.7969 44.4062
L61.0938 44.4062
L48 0
L40.7031 0
L31.5 33.7031
L22.2031 0
L14.9062 0
L1.79688 44.4062
L9.29688 44.4062
L19.0938 10.5
L28.2031 44.4062
z
" id="CalibreRegular-77"/>
     </defs>
     <g style="fill:#262626;" transform="translate(183.063671875 197.517)scale(0.14300000000000002 -0.14300000000000002)">
      <use xlink:href="#CalibreRegular-77"/>
      <use x="62.899993896484375" xlink:href="#CalibreRegular-6f"/>
      <use x="110.69998168945312" xlink:href="#CalibreRegular-72"/>
      <use x="142.7999725341797" xlink:href="#CalibreRegular-73"/>
      <use x="184.19996643066406" xlink:href="#CalibreRegular-74"/>
     </g>
    </g>
    <g id="line2d_48">
     <path d="
M143.024 212.103
L171.624 212.103" style="fill:none;stroke:#ffdc52;stroke-linecap:round;stroke-width:2.275;"/>
    </g>
    <g id="line2d_49"/>
    <g id="text_15">
     <!-- better -->
     <defs>
      <path d="
M14.2031 5.20312
L14.2031 0
L6.59375 0
L6.59375 65
L14.2031 65
L14.2031 39.2031
Q16 41.7969 19.3906 43.5469
Q22.7969 45.2969 26.7031 45.2969
Q36.0938 45.2969 41.3906 38.6406
Q46.7031 32 46.7031 22.2031
Q46.7031 12.2969 41.3906 5.6875
Q36.0938 -0.90625 26.7031 -0.90625
Q22.7969 -0.90625 19.3906 0.84375
Q16 2.59375 14.2031 5.20312
M14.2031 31.2031
L14.2031 13.2031
Q15.9062 9.79688 18.9531 7.84375
Q22 5.90625 25.5938 5.90625
Q31.7969 5.90625 35.4375 10.4531
Q39.0938 15 39.0938 22.2031
Q39.0938 29.4062 35.4375 33.9531
Q31.7969 38.5 25.5938 38.5
Q22 38.5 18.9531 36.5469
Q15.9062 34.5938 14.2031 31.2031" id="CalibreRegular-62"/>
     </defs>
     <g style="fill:#262626;" transform="translate(183.063671875 217.108)scale(0.14300000000000002 -0.14300000000000002)">
      <use xlink:href="#CalibreRegular-62"/>
      <use x="50.19999694824219" xlink:href="#CalibreRegular-65"/>
      <use x="95.89999389648438" xlink:href="#CalibreRegular-74"/>
      <use x="127.59999084472656" xlink:href="#CalibreRegular-74"/>
      <use x="159.29998779296875" xlink:href="#CalibreRegular-65"/>
      <use x="204.99998474121094" xlink:href="#CalibreRegular-72"/>
     </g>
    </g>
    <g id="line2d_50">
     <path d="
M143.024 231.694
L171.624 231.694" style="fill:none;stroke:#ff1614;stroke-linecap:round;stroke-width:2.275;"/>
    </g>
    <g id="line2d_51"/>
    <g id="text_16">
     <!-- even better -->
     <defs>
      <path d="
M6.70312 0
L6.70312 44.4062
L14.2031 44.4062
L14.2031 38.7969
Q16.2969 41.5938 19.75 43.4375
Q23.2031 45.2969 27.2969 45.2969
Q34.7031 45.2969 38.7969 40.8906
Q42.9062 36.5 42.9062 29.0938
L42.9062 0
L35.2969 0
L35.2969 27.9062
Q35.2969 32.7031 32.8438 35.5469
Q30.4062 38.4062 25.5 38.4062
Q21.5938 38.4062 18.5 36.0469
Q15.4062 33.7031 14.2031 30.0938
L14.2031 0
z
" id="CalibreRegular-6e"/>
     </defs>
     <g style="fill:#262626;" transform="translate(183.063671875 236.699)scale(0.14300000000000002 -0.14300000000000002)">
      <use xlink:href="#CalibreRegular-65"/>
      <use x="45.69999694824219" xlink:href="#CalibreRegular-76"/>
      <use x="91.19998168945312" xlink:href="#CalibreRegular-65"/>
      <use x="136.8999786376953" xlink:href="#CalibreRegular-6e"/>
      <use x="185.7999725341797" xlink:href="#CalibreRegular-20"/>
      <use x="207.89996337890625" xlink:href="#CalibreRegular-62"/>
      <use x="258.09996032714844" xlink:href="#CalibreRegular-65"/>
      <use x="303.7999572753906" xlink:href="#CalibreRegular-74"/>
      <use x="335.4999542236328" xlink:href="#CalibreRegular-74"/>
      <use x="367.199951171875" xlink:href="#CalibreRegular-65"/>
      <use x="412.8999481201172" xlink:href="#CalibreRegular-72"/>
     </g>
    </g>
   </g>
  </g>
 </g>
 <defs>
  <clipPath id="p08154cb638">
   <rect height="223.2" width="223.2" x="36.0" y="28.8"/>
  </clipPath>
 </defs>
</svg>
