<svg xmlns="http://www.w3.org/2000/svg" xmlns:xlink="http://www.w3.org/1999/xlink" height="288pt" version="1.1" viewBox="0 0 720 288" width="720pt">
 <defs>
  <clipPath id="p9f76a1e9e4">
   <rect height="223.2" width="558.0" x="90.0" y="28.8"/>
  </clipPath>
 </defs>
<defs>
  <style type="text/css">
*{stroke-linecap:butt;stroke-linejoin:round;}
  </style>
 </defs>
 <g id="figure_1">
  <g id="patch_1">
   <path d=" M0 288 L720 288 L720 0 L0 0 z " style="fill:#ffffff;"/>
  </g>
  <g id="axes_1">
   <g id="patch_2">
    <path d=" M90 252 L648 252 L648 28.8 L90 28.8 z " style="fill:#eaeaf2;"/>
   </g>
   <g id="matplotlib.axis_1">
    <g id="xtick_1">
     <g id="line2d_1">
      <path clip-path="url(#p9f76a1e9e4)" d=" M90 252 L90 28.8" style="fill:none;stroke:#ffffff;stroke-linecap:round;stroke-width:1.3;"/>
     </g>
     <g id="line2d_2">
      <defs>
       <path d=" M0 0 L0 0" id="m56cc5124a0" style="stroke:#262626;stroke-width:1.3;"/>
      </defs>
      <g>
       <use style="fill:#262626;stroke:#262626;stroke-width:1.3;" x="90.0" xlink:href="#m56cc5124a0" y="252.0"/>
      </g>
     </g>
     <g id="line2d_3">
      <g>
       <use style="fill:#262626;stroke:#262626;stroke-width:1.3;" x="90.0" xlink:href="#m56cc5124a0" y="28.8"/>
      </g>
     </g>
     <g id="text_1">
      <!-- &#8722;2 -->
      <defs>
       <path d=" M7.29688 26.5938 L7.29688 32.7969 L46.7031 32.7969 L46.7031 26.5938 z " id="CalibreRegular-2212"/>
       <path d=" M34.0938 44.9062 Q34.0938 49.5938 31.0938 52.4375 Q28.0938 55.2969 23 55.2969 Q17.5938 55.2969 14.5469 51.9375 Q11.5 48.5938 11 43 L2.90625 43 Q3.79688 51.7031 9.1875 57 Q14.5938 62.2969 23 62.2969 Q31.7031 62.2969 36.7031 57.5938 Q41.7031 52.9062 41.7031 45 Q41.7031 43.5938 41.3438 42.0938 Q41 40.5938 40.6406 39.5 Q40.2969 38.4062 39.3438 36.75 Q38.4062 35.0938 37.9062 34.2969 Q37.4062 33.5 35.9062 31.7031 Q34.4062 29.9062 33.9062 29.2969 Q33.4062 28.7031 31.5469 26.6406 Q29.7031 24.5938 29.2969 24.0938 L13.7031 7 L43 7 L43 0 L2.90625 0 L2.90625 5.20312 L22.7031 27 Q27.2031 32 28.7969 33.7969 Q30.4062 35.5938 32.25 38.8906 Q34.0938 42.2031 34.0938 44.9062" id="CalibreRegular-32"/>
      </defs>
      <g style="fill:#262626;" transform="translate(83.5862265625 270.395)scale(0.14300000000000002 -0.14300000000000002)">
       <use xlink:href="#CalibreRegular-2212"/>
       <use x="53.99998474121094" xlink:href="#CalibreRegular-32"/>
      </g>
     </g>
    </g>
    <g id="xtick_2">
     <g id="line2d_4">
      <path clip-path="url(#p9f76a1e9e4)" d=" M183 252 L183 28.8" style="fill:none;stroke:#ffffff;stroke-linecap:round;stroke-width:1.3;"/>
     </g>
     <g id="line2d_5">
      <g>
       <use style="fill:#262626;stroke:#262626;stroke-width:1.3;" x="183.0" xlink:href="#m56cc5124a0" y="252.0"/>
      </g>
     </g>
     <g id="line2d_6">
      <g>
       <use style="fill:#262626;stroke:#262626;stroke-width:1.3;" x="183.0" xlink:href="#m56cc5124a0" y="28.8"/>
      </g>
     </g>
     <g id="text_2">
      <!-- &#8722;1 -->
      <defs>
       <path d=" M25.4062 61.5 L25.4062 0 L17.7031 0 L17.7031 52 L2.5 44.2031 L2.5 52.2031 L20.7031 61.5 z " id="CalibreRegular-31"/>
      </defs>
      <g style="fill:#262626;" transform="translate(177.844179688 270.395)scale(0.14300000000000002 -0.14300000000000002)">
       <use xlink:href="#CalibreRegular-2212"/>
       <use x="53.99998474121094" xlink:href="#CalibreRegular-31"/>
      </g>
     </g>
    </g>
    <g id="xtick_3">
     <g id="line2d_7">
      <path clip-path="url(#p9f76a1e9e4)" d=" M276 252 L276 28.8" style="fill:none;stroke:#ffffff;stroke-linecap:round;stroke-width:1.3;"/>
     </g>
     <g id="line2d_8">
      <g>
       <use style="fill:#262626;stroke:#262626;stroke-width:1.3;" x="276.0" xlink:href="#m56cc5124a0" y="252.0"/>
      </g>
     </g>
     <g id="line2d_9">
      <g>
       <use style="fill:#262626;stroke:#262626;stroke-width:1.3;" x="276.0" xlink:href="#m56cc5124a0" y="28.8"/>
      </g>
     </g>
     <g id="text_3">
      <!-- 0 -->
      <defs>
       <path d=" M49.7969 16.5938 Q37.0938 -0.90625 26.8906 -0.90625 Q16.7031 -0.90625 10.3438 7.84375 Q4 16.5938 4 30.6875 Q4 44.7969 10.3438 53.5469 Q16.7031 62.2969 26.8906 62.2969 Q37.0938 62.2969 43.4375 53.5469 Q49.7969 44.7969 49.7969 30.6875 Q49.7969 16.5938 37.0938 -0.90625 M26.9062 55.2031 Q19.5938 55.2031 15.6406 48.5 Q11.7031 41.7969 11.7031 30.6875 Q11.7031 19.5938 15.6406 12.8906 Q19.5938 6.20312 26.9062 6.20312 Q34.0938 6.20312 38.0938 12.9531 Q42.0938 19.7031 42.0938 30.7031 Q42.0938 41.7031 38.0938 48.4531 Q34.0938 55.2031 26.9062 55.2031" id="CalibreRegular-30"/>
      </defs>
      <g style="fill:#262626;" transform="translate(272.725523437 270.395)scale(0.14300000000000002 -0.14300000000000002)">
       <use xlink:href="#CalibreRegular-30"/>
      </g>
     </g>
    </g>
    <g id="xtick_4">
     <g id="line2d_10">
      <path clip-path="url(#p9f76a1e9e4)" d=" M369 252 L369 28.8" style="fill:none;stroke:#ffffff;stroke-linecap:round;stroke-width:1.3;"/>
     </g>
     <g id="line2d_11">
      <g>
       <use style="fill:#262626;stroke:#262626;stroke-width:1.3;" x="369.0" xlink:href="#m56cc5124a0" y="252.0"/>
      </g>
     </g>
     <g id="line2d_12">
      <g>
       <use style="fill:#262626;stroke:#262626;stroke-width:1.3;" x="369.0" xlink:href="#m56cc5124a0" y="28.8"/>
      </g>
     </g>
     <g id="text_4">
      <!-- 1 -->
      <g style="fill:#262626;" transform="translate(367.362203125 270.395)scale(0.14300000000000002 -0.14300000000000002)">
       <use xlink:href="#CalibreRegular-31"/>
      </g>
     </g>
    </g>
    <g id="xtick_5">
     <g id="line2d_13">
      <path clip-path="url(#p9f76a1e9e4)" d=" M462 252 L462 28.8" style="fill:none;stroke:#ffffff;stroke-linecap:round;stroke-width:1.3;"/>
     </g>
     <g id="line2d_14">
      <g>
       <use style="fill:#262626;stroke:#262626;stroke-width:1.3;" x="462.0" xlink:href="#m56cc5124a0" y="252.0"/>
      </g>
     </g>
     <g id="line2d_15">
      <g>
       <use style="fill:#262626;stroke:#262626;stroke-width:1.3;" x="462.0" xlink:href="#m56cc5124a0" y="28.8"/>
      </g>
     </g>
     <g id="text_5">
      <!-- 2 -->
      <g style="fill:#262626;" transform="translate(459.133296875 270.395)scale(0.14300000000000002 -0.14300000000000002)">
       <use xlink:href="#CalibreRegular-32"/>
      </g>
     </g>
    </g>
    <g id="xtick_6">
     <g id="line2d_16">
      <path clip-path="url(#p9f76a1e9e4)" d=" M555 252 L555 28.8" style="fill:none;stroke:#ffffff;stroke-linecap:round;stroke-width:1.3;"/>
     </g>
     <g id="line2d_17">
      <g>
       <use style="fill:#262626;stroke:#262626;stroke-width:1.3;" x="555.0" xlink:href="#m56cc5124a0" y="252.0"/>
      </g>
     </g>
     <g id="line2d_18">
      <g>
       <use style="fill:#262626;stroke:#262626;stroke-width:1.3;" x="555.0" xlink:href="#m56cc5124a0" y="28.8"/>
      </g>
     </g>
     <g id="text_6">
      <!-- 3 -->
      <defs>
       <path d=" M18.4062 28.0938 L18.4062 34.7969 L22.5 34.7969 Q27.5 34.7969 30.75 37.5469 Q34 40.2969 34 45.0938 Q34 49.5938 30.9531 52.5469 Q27.9062 55.5 22.7969 55.5 Q17.7031 55.5 14.5 52.5 Q11.2969 49.5 10.5938 44.5938 L2.90625 44.5938 Q4 52.5 9.39062 57.3906 Q14.7969 62.2969 22.7969 62.2969 Q31.4062 62.2969 36.4531 57.6406 Q41.5 53 41.5 45.5 Q41.5 40.5 38.8438 36.6406 Q36.2031 32.7969 31.9062 31.5 Q36.9062 30.0938 39.7969 26.25 Q42.7031 22.4062 42.7031 17.2031 Q42.7031 9.40625 37.3438 4.25 Q32 -0.90625 23 -0.90625 Q14 -0.90625 8.25 4.09375 Q2.5 9.09375 1.70312 17.5 L9.40625 17.5 Q10.2031 12.0938 13.7031 9 Q17.2031 5.90625 22.9062 5.90625 Q28.4062 5.90625 31.7969 8.95312 Q35.2031 12 35.2031 17.0938 Q35.2031 22.0938 31.6406 25.0938 Q28.0938 28.0938 22.7031 28.0938 z " id="CalibreRegular-33"/>
      </defs>
      <g style="fill:#262626;" transform="translate(552.0685 270.395)scale(0.14300000000000002 -0.14300000000000002)">
       <use xlink:href="#CalibreRegular-33"/>
      </g>
     </g>
    </g>
    <g id="xtick_7">
     <g id="line2d_19">
      <path clip-path="url(#p9f76a1e9e4)" d=" M648 252 L648 28.8" style="fill:none;stroke:#ffffff;stroke-linecap:round;stroke-width:1.3;"/>
     </g>
     <g id="line2d_20">
      <g>
       <use style="fill:#262626;stroke:#262626;stroke-width:1.3;" x="648.0" xlink:href="#m56cc5124a0" y="252.0"/>
      </g>
     </g>
     <g id="line2d_21">
      <g>
       <use style="fill:#262626;stroke:#262626;stroke-width:1.3;" x="648.0" xlink:href="#m56cc5124a0" y="28.8"/>
      </g>
     </g>
     <g id="text_7">
      <!-- 4 -->
      <defs>
       <path d=" M33.7969 61.4062 L10.9062 20.5 L30.5 20.5 L30.5 35.2969 L37.7969 35.2969 L37.7969 20.5 L48.5938 20.5 L48.5938 13.9062 L37.7969 13.9062 L37.7969 0 L30.5 0 L30.5 13.9062 L2.20312 13.9062 L2.20312 19.5 L25.7969 61.4062 z " id="CalibreRegular-34"/>
      </defs>
      <g style="fill:#262626;" transform="translate(644.683070313 270.395)scale(0.14300000000000002 -0.14300000000000002)">
       <use xlink:href="#CalibreRegular-34"/>
      </g>
     </g>
    </g>
   </g>
   <g id="matplotlib.axis_2">
    <g id="ytick_1">
     <g id="line2d_22">
      <path clip-path="url(#p9f76a1e9e4)" d=" M90 252 L648 252" style="fill:none;stroke:#ffffff;stroke-linecap:round;stroke-width:1.3;"/>
     </g>
     <g id="line2d_23">
      <g>
       <use style="fill:#262626;stroke:#262626;stroke-width:1.3;" x="90.0" xlink:href="#m56cc5124a0" y="252.0"/>
      </g>
     </g>
     <g id="line2d_24">
      <g>
       <use style="fill:#262626;stroke:#262626;stroke-width:1.3;" x="648.0" xlink:href="#m56cc5124a0" y="252.0"/>
      </g>
     </g>
     <g id="text_8">
      <!-- &#8722;20 -->
      <g style="fill:#262626;" transform="translate(60.564953125 255.432)scale(0.14300000000000002 -0.14300000000000002)">
       <use xlink:href="#CalibreRegular-2212"/>
       <use x="53.99998474121094" xlink:href="#CalibreRegular-32"/>
       <use x="99.69998168945312" xlink:href="#CalibreRegular-30"/>
      </g>
     </g>
    </g>
    <g id="ytick_2">
     <g id="line2d_25">
      <path clip-path="url(#p9f76a1e9e4)" d=" M90 224.1 L648 224.1" style="fill:none;stroke:#ffffff;stroke-linecap:round;stroke-width:1.3;"/>
     </g>
     <g id="line2d_26">
      <g>
       <use style="fill:#262626;stroke:#262626;stroke-width:1.3;" x="90.0" xlink:href="#m56cc5124a0" y="224.1"/>
      </g>
     </g>
     <g id="line2d_27">
      <g>
       <use style="fill:#262626;stroke:#262626;stroke-width:1.3;" x="648.0" xlink:href="#m56cc5124a0" y="224.1"/>
      </g>
     </g>
     <g id="text_9">
      <!-- &#8722;15 -->
      <defs>
       <path d=" M23.7031 33 Q17.2031 33 12.7969 27.7031 L6.59375 27.7031 L6.59375 61.4062 L40.2031 61.4062 L40.2031 54.4062 L13.2031 54.4062 L13.2031 35.9062 Q17.5 39.7969 24.4062 39.7969 Q32.9062 39.7969 38.2969 34.0469 Q43.7031 28.2969 43.7031 19.4062 Q43.7031 10.7031 38.0938 4.89062 Q32.5 -0.90625 23.7969 -0.90625 Q15 -0.90625 9.39062 4 Q3.79688 8.90625 2.70312 17.5 L10.4062 17.5 Q12.5 5.90625 23.7969 5.90625 Q29.2969 5.90625 32.7969 9.75 Q36.2969 13.5938 36.2969 19.3906 Q36.2969 25.2031 32.7969 29.0938 Q29.2969 33 23.7031 33" id="CalibreRegular-35"/>
      </defs>
      <g style="fill:#262626;" transform="translate(63.2663125 227.532)scale(0.14300000000000002 -0.14300000000000002)">
       <use xlink:href="#CalibreRegular-2212"/>
       <use x="53.99998474121094" xlink:href="#CalibreRegular-31"/>
       <use x="86.89997863769531" xlink:href="#CalibreRegular-35"/>
      </g>
     </g>
    </g>
    <g id="ytick_3">
     <g id="line2d_28">
      <path clip-path="url(#p9f76a1e9e4)" d=" M90 196.2 L648 196.2" style="fill:none;stroke:#ffffff;stroke-linecap:round;stroke-width:1.3;"/>
     </g>
     <g id="line2d_29">
      <g>
       <use style="fill:#262626;stroke:#262626;stroke-width:1.3;" x="90.0" xlink:href="#m56cc5124a0" y="196.2"/>
      </g>
     </g>
     <g id="line2d_30">
      <g>
       <use style="fill:#262626;stroke:#262626;stroke-width:1.3;" x="648.0" xlink:href="#m56cc5124a0" y="196.2"/>
      </g>
     </g>
     <g id="text_10">
      <!-- &#8722;10 -->
      <g style="fill:#262626;" transform="translate(62.39490625 199.632)scale(0.14300000000000002 -0.14300000000000002)">
       <use xlink:href="#CalibreRegular-2212"/>
       <use x="53.99998474121094" xlink:href="#CalibreRegular-31"/>
       <use x="86.89997863769531" xlink:href="#CalibreRegular-30"/>
      </g>
     </g>
    </g>
    <g id="ytick_4">
     <g id="line2d_31">
      <path clip-path="url(#p9f76a1e9e4)" d=" M90 168.3 L648 168.3" style="fill:none;stroke:#ffffff;stroke-linecap:round;stroke-width:1.3;"/>
     </g>
     <g id="line2d_32">
      <g>
       <use style="fill:#262626;stroke:#262626;stroke-width:1.3;" x="90.0" xlink:href="#m56cc5124a0" y="168.3"/>
      </g>
     </g>
     <g id="line2d_33">
      <g>
       <use style="fill:#262626;stroke:#262626;stroke-width:1.3;" x="648.0" xlink:href="#m56cc5124a0" y="168.3"/>
      </g>
     </g>
     <g id="text_11">
      <!-- &#8722;5 -->
      <g style="fill:#262626;" transform="translate(67.97190625 171.732)scale(0.14300000000000002 -0.14300000000000002)">
       <use xlink:href="#CalibreRegular-2212"/>
       <use x="53.99998474121094" xlink:href="#CalibreRegular-35"/>
      </g>
     </g>
    </g>
    <g id="ytick_5">
     <g id="line2d_34">
      <path clip-path="url(#p9f76a1e9e4)" d=" M90 140.4 L648 140.4" style="fill:none;stroke:#ffffff;stroke-linecap:round;stroke-width:1.3;"/>
     </g>
     <g id="line2d_35">
      <g>
       <use style="fill:#262626;stroke:#262626;stroke-width:1.3;" x="90.0" xlink:href="#m56cc5124a0" y="140.4"/>
      </g>
     </g>
     <g id="line2d_36">
      <g>
       <use style="fill:#262626;stroke:#262626;stroke-width:1.3;" x="648.0" xlink:href="#m56cc5124a0" y="140.4"/>
      </g>
     </g>
     <g id="text_12">
      <!-- 0 -->
      <g style="fill:#262626;" transform="translate(74.351046875 143.832)scale(0.14300000000000002 -0.14300000000000002)">
       <use xlink:href="#CalibreRegular-30"/>
      </g>
     </g>
    </g>
    <g id="ytick_6">
     <g id="line2d_37">
      <path clip-path="url(#p9f76a1e9e4)" d=" M90 112.5 L648 112.5" style="fill:none;stroke:#ffffff;stroke-linecap:round;stroke-width:1.3;"/>
     </g>
     <g id="line2d_38">
      <g>
       <use style="fill:#262626;stroke:#262626;stroke-width:1.3;" x="90.0" xlink:href="#m56cc5124a0" y="112.5"/>
      </g>
     </g>
     <g id="line2d_39">
      <g>
       <use style="fill:#262626;stroke:#262626;stroke-width:1.3;" x="648.0" xlink:href="#m56cc5124a0" y="112.5"/>
      </g>
     </g>
     <g id="text_13">
      <!-- 5 -->
      <g style="fill:#262626;" transform="translate(75.037 115.932)scale(0.14300000000000002 -0.14300000000000002)">
       <use xlink:href="#CalibreRegular-35"/>
      </g>
     </g>
    </g>
    <g id="ytick_7">
     <g id="line2d_40">
      <path clip-path="url(#p9f76a1e9e4)" d=" M90 84.6 L648 84.6" style="fill:none;stroke:#ffffff;stroke-linecap:round;stroke-width:1.3;"/>
     </g>
     <g id="line2d_41">
      <g>
       <use style="fill:#262626;stroke:#262626;stroke-width:1.3;" x="90.0" xlink:href="#m56cc5124a0" y="84.6"/>
      </g>
     </g>
     <g id="line2d_42">
      <g>
       <use style="fill:#262626;stroke:#262626;stroke-width:1.3;" x="648.0" xlink:href="#m56cc5124a0" y="84.6"/>
      </g>
     </g>
     <g id="text_14">
      <!-- 10 -->
      <g style="fill:#262626;" transform="translate(69.430953125 88.032)scale(0.14300000000000002 -0.14300000000000002)">
       <use xlink:href="#CalibreRegular-31"/>
       <use x="32.899993896484375" xlink:href="#CalibreRegular-30"/>
      </g>
     </g>
    </g>
    <g id="ytick_8">
     <g id="line2d_43">
      <path clip-path="url(#p9f76a1e9e4)" d=" M90 56.7 L648 56.7" style="fill:none;stroke:#ffffff;stroke-linecap:round;stroke-width:1.3;"/>
     </g>
     <g id="line2d_44">
      <g>
       <use style="fill:#262626;stroke:#262626;stroke-width:1.3;" x="90.0" xlink:href="#m56cc5124a0" y="56.7"/>
      </g>
     </g>
     <g id="line2d_45">
      <g>
       <use style="fill:#262626;stroke:#262626;stroke-width:1.3;" x="648.0" xlink:href="#m56cc5124a0" y="56.7"/>
      </g>
     </g>
     <g id="text_15">
      <!-- 15 -->
      <g style="fill:#262626;" transform="translate(70.302359375 60.132)scale(0.14300000000000002 -0.14300000000000002)">
       <use xlink:href="#CalibreRegular-31"/>
       <use x="32.899993896484375" xlink:href="#CalibreRegular-35"/>
      </g>
     </g>
    </g>
    <g id="ytick_9">
     <g id="line2d_46">
      <path clip-path="url(#p9f76a1e9e4)" d=" M90 28.8 L648 28.8" style="fill:none;stroke:#ffffff;stroke-linecap:round;stroke-width:1.3;"/>
     </g>
     <g id="line2d_47">
      <g>
       <use style="fill:#262626;stroke:#262626;stroke-width:1.3;" x="90.0" xlink:href="#m56cc5124a0" y="28.8"/>
      </g>
     </g>
     <g id="line2d_48">
      <g>
       <use style="fill:#262626;stroke:#262626;stroke-width:1.3;" x="648.0" xlink:href="#m56cc5124a0" y="28.8"/>
      </g>
     </g>
     <g id="text_16">
      <!-- 20 -->
      <g style="fill:#262626;" transform="translate(67.65909375 32.232)scale(0.14300000000000002 -0.14300000000000002)">
       <use xlink:href="#CalibreRegular-32"/>
       <use x="45.69999694824219" xlink:href="#CalibreRegular-30"/>
      </g>
     </g>
    </g>
   </g>
   <g id="line2d_49">
    <path clip-path="url(#p9f76a1e9e4)" d=" M90 140.4 L648 140.4" style="fill:none;stroke:#dcdce6;stroke-linecap:round;stroke-width:2;"/>
   </g>
   <g id="line2d_50">
    <path clip-path="url(#p9f76a1e9e4)" d=" M276 252 L276 28.8" style="fill:none;stroke:#dcdce6;stroke-linecap:round;stroke-width:2;"/>
   </g>
   <g id="line2d_51">
    <path clip-path="url(#p9f76a1e9e4)" d=" M90 67.86 L648 67.86" style="fill:none;stroke:#ffdc52;stroke-linecap:round;stroke-width:2;"/>
   </g>
   <g id="line2d_52">
    <path clip-path="url(#p9f76a1e9e4)" d=" M90 129.24 L648 129.24" style="fill:none;stroke:#ff1614;stroke-linecap:round;stroke-width:2;"/>
   </g>
   <g id="patch_3">
    <path d=" M648 252 L648 28.8" style="fill:none;"/>
   </g>
   <g id="patch_4">
    <path d=" M90 252 L648 252" style="fill:none;"/>
   </g>
   <g id="patch_5">
    <path d=" M90 252 L90 28.8" style="fill:none;"/>
   </g>
   <g id="patch_6">
    <path d=" M90 28.8 L648 28.8" style="fill:none;"/>
   </g>
   <g id="line2d_53">
    <path clip-path="url(#p9f76a1e9e4)" d=" M485.436 252 L485.436 28.8" style="fill:none;stroke:#34495e;stroke-linecap:round;stroke-width:2.275;"/>
   </g>
   <g id="line2d_54">
    <path clip-path="url(#p9f76a1e9e4)" d=" M188.022 252 L188.022 28.8" style="fill:none;stroke:#34495e;stroke-linecap:round;stroke-width:2.275;"/>
   </g>
   <g id="text_17">
    <!-- Rolle's Theorem example -->
    <defs>
     <path d=" M6.70312 0 L6.70312 65 L14.2031 65 L14.2031 38.7969 Q16.2969 41.5938 19.75 43.4375 Q23.2031 45.2969 27.2969 45.2969 Q34.7031 45.2969 38.7969 40.8906 Q42.9062 36.5 42.9062 29.0938 L42.9062 0 L35.2969 0 L35.2969 27.9062 Q35.2969 32.7031 32.8438 35.5469 Q30.4062 38.4062 25.5 38.4062 Q21.5938 38.4062 18.5 36.0469 Q15.4062 33.7031 14.2031 30.0938 L14.2031 0 z " id="CalibreRegular-68"/>
     <path d=" M42.2031 44.4062 L26.5938 23 L43.0938 0 L34.5938 0 L22.2969 17.2969 L9.90625 0 L1.79688 0 L18.2031 22.7031 L2.70312 44.4062 L11.2969 44.4062 L22.5 28.5 L34 44.4062 z " id="CalibreRegular-78"/>
     <path d=" M34.7031 13.2969 L41.7969 13.2969 Q40.5938 6.79688 35.8906 2.9375 Q31.2031 -0.90625 23.9062 -0.90625 Q14.7969 -0.90625 9.14062 5.4375 Q3.5 11.7969 3.5 22.0938 Q3.5 32.2031 9.09375 38.75 Q14.7031 45.2969 23.7031 45.2969 Q32.5938 45.2969 37.5 39.3438 Q42.4062 33.4062 42.4062 23.5 L42.4062 20.7969 L11 20.7969 Q11.0938 13.7969 14.6406 9.64062 Q18.2031 5.5 23.9062 5.5 Q28.0938 5.5 30.9375 7.54688 Q33.7969 9.59375 34.7031 13.2969 M23.7969 38.9062 Q18.7969 38.9062 15.3906 35.5938 Q12 32.2969 11.2031 26.5 L34.7969 26.5 Q34.7031 31.7969 31.8906 35.3438 Q29.0938 38.9062 23.7969 38.9062" id="CalibreRegular-65"/>
     <path d=" M14.2031 5.20312 L14.2031 -17 L6.70312 -17 L6.70312 44.4062 L14.2031 44.4062 L14.2031 39.2031 Q16.0938 41.7969 19.4375 43.5469 Q22.7969 45.2969 26.7031 45.2969 Q36.0938 45.2969 41.3906 38.6406 Q46.7031 32 46.7031 22.2031 Q46.7031 12.4062 41.3906 5.75 Q36.0938 -0.90625 26.7031 -0.90625 Q22.7969 -0.90625 19.4375 0.84375 Q16.0938 2.59375 14.2031 5.20312 M14.2031 31.2031 L14.2031 13.2031 Q15.9062 9.79688 18.9531 7.84375 Q22 5.90625 25.5938 5.90625 Q31.7969 5.90625 35.4375 10.4531 Q39.0938 15 39.0938 22.2031 Q39.0938 29.4062 35.4375 33.9531 Q31.7969 38.5 25.5938 38.5 Q22 38.5 18.9531 36.5469 Q15.9062 34.5938 14.2031 31.2031" id="CalibreRegular-70"/>
     <path d=" M38.9062 0 L31.7031 0 L31.7031 3.29688 Q30.2969 1.79688 27 0.5 Q23.7031 -0.796875 20 -0.796875 Q13 -0.796875 8.25 3.09375 Q3.5 7 3.5 13.4062 Q3.5 19.5 8.39062 23.3906 Q13.2969 27.2969 20.5 27.2969 Q23.7969 27.2969 27 26.1875 Q30.2031 25.0938 31.7031 23.7031 L31.7031 29.2969 Q31.7031 33.5938 29.1406 36.1875 Q26.5938 38.7969 21.9062 38.7969 Q14.9062 38.7969 12.7969 32.7031 L5.40625 32.7031 Q6.5 38.2969 11.0469 41.7969 Q15.5938 45.2969 22 45.2969 Q29.9062 45.2969 34.4062 41.0938 Q38.9062 36.9062 38.9062 29.5938 z  M31.7031 11 L31.7031 15.5938 Q30.7031 18 27.75 19.5469 Q24.7969 21.0938 21.2969 21.0938 Q16.9062 21.0938 13.7969 19.0938 Q10.7031 17.0938 10.7031 13.4062 Q10.7031 9.59375 13.7969 7.54688 Q16.9062 5.5 21.2969 5.5 Q24.7969 5.5 27.75 7.04688 Q30.7031 8.59375 31.7031 11" id="CalibreRegular-61"/>
     <path d=" M29.5 44.5938 L29.5 36.9062 Q27.7031 38.0938 24.5 38.0938 Q20.9062 38.0938 18.0938 35.8906 Q15.2969 33.7031 14.2031 29.7969 L14.2031 0 L6.70312 0 L6.70312 44.4062 L14.2031 44.4062 L14.2031 38.5938 Q15.7031 41.5 18.6406 43.3906 Q21.5938 45.2969 25.2031 45.2969 Q28.0938 45.2969 29.5 44.5938" id="CalibreRegular-72"/>
     <path d=" M26.0938 26 L15.2031 26 L15.2031 0 L7.29688 0 L7.29688 61.4062 L30.0938 61.4062 Q39.5 61.4062 44.8438 56.7969 Q50.2031 52.2031 50.2031 43.5938 Q50.2031 36.0938 46.0938 31.6875 Q42 27.2969 34.5938 26.2969 L52.7031 0 L43.7031 0 z  M15.2031 54.5 L15.2031 32.7031 L29.9062 32.7031 Q35.9062 32.7031 39.1562 35.5938 Q42.4062 38.5 42.4062 43.5938 Q42.4062 48.7031 39.1562 51.5938 Q35.9062 54.5 29.9062 54.5 z " id="CalibreRegular-52"/>
     <path d=" M33 45.2969 Q44.2969 32.4062 44.2969 22.2031 Q44.2969 12 38.6406 5.54688 Q33 -0.90625 23.8906 -0.90625 Q14.7969 -0.90625 9.14062 5.54688 Q3.5 12 3.5 22.2031 Q3.5 32.4062 9.14062 38.8438 Q14.7969 45.2969 23.8906 45.2969 Q33 45.2969 44.2969 32.4062 M29.7969 5.70312 Q36.7031 14.7969 36.7031 22.1875 Q36.7031 29.5938 33.25 34.1406 Q29.7969 38.7031 23.8906 38.7031 Q18 38.7031 14.5469 34.1406 Q11.0938 29.5938 11.0938 22.1875 Q11.0938 14.7969 14.5469 10.25 Q18 5.70312 23.8906 5.70312 Q29.7969 5.70312 36.7031 14.7969" id="CalibreRegular-6f"/>
     <path d=" M38.2031 38.2031 Q43.2031 45.2969 51.7031 45.2969 Q58.4062 45.2969 62.0469 41 Q65.7031 36.7031 65.7031 29.4062 L65.7031 0 L58.0938 0 L58.0938 28.2031 Q58.0938 33 56 35.75 Q53.9062 38.5 49.7031 38.5 Q46.2969 38.5 43.5938 36.3438 Q40.9062 34.2031 39.9062 30.5938 L39.9062 0 L32.4062 0 L32.4062 28.2031 Q32.4062 33 30.2969 35.75 Q28.2031 38.5 24 38.5 Q20.5938 38.5 17.8906 36.3438 Q15.2031 34.2031 14.2031 30.5938 L14.2031 0 L6.70312 0 L6.70312 44.4062 L14.2031 44.4062 L14.2031 39.2031 Q18 45.2969 26.2031 45.2969 Q34.5938 45.2969 38.2031 38.2031" id="CalibreRegular-6d"/>
     <path d=" M4 39.5 L4 61.4062 L10.7969 61.4062 L10.7969 39.5 z " id="CalibreRegular-27"/>
     <path d=" M14.2031 65 L14.2031 0 L6.70312 0 L6.70312 65 z " id="CalibreRegular-6c"/>
     <path id="CalibreRegular-20"/>
     <path d=" M3 54.4062 L3 61.4062 L53.7031 61.4062 L53.7031 54.4062 L32.2969 54.4062 L32.2969 0 L24.4062 0 L24.4062 54.4062 z " id="CalibreRegular-54"/>
     <path d=" M3 12.2031 L10.7969 12.2031 Q12.9062 5.40625 21.2969 5.40625 Q25.4062 5.40625 27.9062 7.04688 Q30.4062 8.70312 30.4062 12 Q30.4062 16.5 23.7969 18.2031 L15 20.5 Q4.29688 23.2031 4.29688 32.2031 Q4.29688 38 8.79688 41.6406 Q13.2969 45.2969 20.2031 45.2969 Q27.4062 45.2969 31.7969 42 Q36.2031 38.7031 37.4062 32.7031 L29.9062 32.7031 Q27.9062 39 20.0938 39 Q16.5938 39 14.0938 37.3438 Q11.5938 35.7031 11.5938 32.5938 Q11.5938 30.4062 13.0469 29.1562 Q14.5 27.9062 17.7969 27 L26.4062 24.9062 Q37.7031 21.9062 37.7031 12.5 Q37.7031 6.29688 33.0938 2.6875 Q28.5 -0.90625 21.2031 -0.90625 Q13.9062 -0.90625 8.95312 2.59375 Q4 6.09375 3 12.2031" id="CalibreRegular-73"/>
    </defs>
    <g style="fill:#262626;" transform="translate(286.60250625 23.8)scale(0.17160000000000003 -0.17160000000000003)">
     <use xlink:href="#CalibreRegular-52"/>
     <use x="55.19999694824219" xlink:href="#CalibreRegular-6f"/>
     <use x="102.99998474121094" xlink:href="#CalibreRegular-6c"/>
     <use x="123.89997863769531" xlink:href="#CalibreRegular-6c"/>
     <use x="144.7999725341797" xlink:href="#CalibreRegular-65"/>
     <use x="190.49996948242188" xlink:href="#CalibreRegular-27"/>
     <use x="205.29995727539062" xlink:href="#CalibreRegular-73"/>
     <use x="246.699951171875" xlink:href="#CalibreRegular-20"/>
     <use x="268.79994201660156" xlink:href="#CalibreRegular-54"/>
     <use x="325.49993896484375" xlink:href="#CalibreRegular-68"/>
     <use x="374.3999328613281" xlink:href="#CalibreRegular-65"/>
     <use x="420.0999298095703" xlink:href="#CalibreRegular-6f"/>
     <use x="467.89991760253906" xlink:href="#CalibreRegular-72"/>
     <use x="499.9999084472656" xlink:href="#CalibreRegular-65"/>
     <use x="545.6999053955078" xlink:href="#CalibreRegular-6d"/>
     <use x="617.3998870849609" xlink:href="#CalibreRegular-20"/>
     <use x="639.4998779296875" xlink:href="#CalibreRegular-65"/>
     <use x="685.1998748779297" xlink:href="#CalibreRegular-78"/>
     <use x="730.0998687744141" xlink:href="#CalibreRegular-61"/>
     <use x="775.099853515625" xlink:href="#CalibreRegular-6d"/>
     <use x="846.7998352050781" xlink:href="#CalibreRegular-70"/>
     <use x="896.9998321533203" xlink:href="#CalibreRegular-6c"/>
     <use x="917.8998260498047" xlink:href="#CalibreRegular-65"/>
    </g>
   </g>
   <g id="line2d_55">
    <path clip-path="url(#p9f76a1e9e4)" d=" M93.2168 289 L98.9369 275.805 L105.081 262.182 L111.225 249.121 L117.369 236.611 L123.514 224.642 L129.099 214.223 L134.685 204.236 L140.27 194.675 L145.856 185.531 L151.441 176.798 L157.027 168.468 L162.613 160.534 L168.198 152.989 L173.784 145.825 L179.369 139.036 L184.955 132.613 L190.541 126.551 L196.126 120.841 L201.712 115.476 L207.297 110.449 L212.324 106.208 L217.351 102.23 L222.378 98.5089 L227.405 95.0398 L232.432 91.8175 L237.459 88.8367 L242.486 86.0921 L247.514 83.5783 L252.541 81.2902 L257.568 79.2224 L263.153 77.1768 L268.739 75.3895 L274.324 73.8531 L279.91 72.5604 L285.495 71.5042 L291.081 70.6772 L296.667 70.0721 L302.252 69.6817 L307.838 69.4988 L313.982 69.5286 L320.126 69.7909 L326.27 70.2762 L332.414 70.9747 L339.117 71.9686 L345.82 73.1923 L352.523 74.6333 L359.784 76.425 L367.045 78.441 L374.865 80.8446 L383.243 83.6656 L391.622 86.7166 L401.117 90.4218 L411.171 94.5932 L422.342 99.477 L435.189 105.345 L451.946 113.261 L492.162 132.367 L505.009 138.172 L516.18 142.983 L526.234 147.074 L535.73 150.69 L544.108 153.652 L552.486 156.374 L560.306 158.676 L567.568 160.591 L574.829 162.274 L581.532 163.607 L588.234 164.718 L594.937 165.592 L601.081 166.176 L607.225 166.54 L613.369 166.677 L619.514 166.576 L625.099 166.269 L630.685 165.751 L636.27 165.014 L641.856 164.05 L647.441 162.853 L648 162.72 L648 162.72" style="fill:none;stroke:#386df9;stroke-linecap:round;stroke-width:2.275;"/>
   </g>
   <g id="legend_1">
    <g id="line2d_56">
     <path d=" M530.597 49.106 L559.197 49.106" style="fill:none;stroke:#ffdc52;stroke-linecap:round;stroke-width:2;"/>
    </g>
    <g id="line2d_57"/>
    <g id="text_18">
     <!-- $\frac{dx}{dy}=0$ -->
     <defs>
      <path d=" M17.3906 -1.125 Q11.0781 -1.125 7.4375 3.64062 Q3.8125 8.40625 3.8125 14.8906 Q3.8125 21.2969 7.125 28.1719 Q10.4531 35.0625 16.0938 39.625 Q21.7344 44.1875 28.2188 44.1875 Q31.1562 44.1875 33.5156 42.5469 Q35.8906 40.9219 37.2031 38.1875 L42.8281 60.5 Q43.2188 62.2031 43.3125 63.1875 Q43.3125 64.7969 36.8125 64.7969 Q35.7969 64.7969 35.7969 66.1094 Q35.8438 66.3594 36.0156 66.9844 Q36.1875 67.625 36.4531 67.9688 Q36.7188 68.3125 37.2031 68.3125 L50.6875 69.3906 Q51.9062 69.3906 51.9062 68.1094 L37.5 10.5938 Q36.8125 8.9375 36.8125 5.8125 Q36.8125 1.51562 39.7031 1.51562 Q42.8281 1.51562 44.4531 5.48438 Q46.0938 9.46875 47.2188 14.7031 Q47.4062 15.2812 48 15.2812 L49.2188 15.2812 Q49.6094 15.2812 49.8438 14.9375 Q50.0938 14.5938 50.0938 14.3125 Q48.3438 7.32812 46.2656 3.09375 Q44.1875 -1.125 39.5 -1.125 Q36.1406 -1.125 33.5469 0.84375 Q30.9531 2.82812 30.3281 6.10938 Q23.875 -1.125 17.3906 -1.125 M17.4844 1.51562 Q21.0938 1.51562 24.4844 4.21875 Q27.875 6.9375 30.3281 10.5938 Q30.4219 10.6875 30.4219 10.9844 L35.8906 33.0156 Q35.2969 36.5312 33.2969 39.0625 Q31.2969 41.6094 27.9844 41.6094 Q24.6094 41.6094 21.7031 38.8438 Q18.7969 36.0781 16.7969 32.3281 Q14.8438 28.3281 13.0625 21.3438 Q11.2812 14.3594 11.2812 10.5 Q11.2812 7.03125 12.7656 4.26562 Q14.2656 1.51562 17.4844 1.51562" id="Cmmi10-64"/>
      <path d=" M7.51562 13.2812 Q6.6875 13.2812 6.14062 13.9062 Q5.60938 14.5469 5.60938 15.2812 Q5.60938 16.1094 6.14062 16.6875 Q6.6875 17.2812 7.51562 17.2812 L70.3125 17.2812 Q71.0469 17.2812 71.5781 16.6875 Q72.125 16.1094 72.125 15.2812 Q72.125 14.5469 71.5781 13.9062 Q71.0469 13.2812 70.3125 13.2812 z  M7.51562 32.7188 Q6.6875 32.7188 6.14062 33.2969 Q5.60938 33.8906 5.60938 34.7188 Q5.60938 35.4531 6.14062 36.0781 Q6.6875 36.7188 7.51562 36.7188 L70.3125 36.7188 Q71.0469 36.7188 71.5781 36.0781 Q72.125 35.4531 72.125 34.7188 Q72.125 33.8906 71.5781 33.2969 Q71.0469 32.7188 70.3125 32.7188 z " id="Cmr10-3d"/>
      <path d=" M8.40625 -14.3125 Q10.5 -17.9219 15.7188 -17.9219 Q20.4531 -17.9219 23.9219 -14.5938 Q27.3906 -11.2812 29.5156 -6.5625 Q31.6406 -1.85938 32.8125 3.07812 Q28.375 -1.125 23.1875 -1.125 Q19.2344 -1.125 16.4531 0.234375 Q13.6719 1.60938 12.125 4.3125 Q10.5938 7.03125 10.5938 10.8906 Q10.5938 14.1562 11.4688 17.5938 Q12.3594 21.0469 13.9375 25.2656 Q15.5312 29.5 16.7031 32.625 Q18.0156 36.2812 18.0156 38.625 Q18.0156 41.6094 15.8281 41.6094 Q11.8594 41.6094 9.29688 37.5312 Q6.73438 33.4531 5.51562 28.4219 Q5.32812 27.7812 4.6875 27.7812 L3.51562 27.7812 Q2.6875 27.7812 2.6875 28.7188 L2.6875 29 Q4.29688 34.9688 7.60938 39.5781 Q10.9375 44.1875 16.0156 44.1875 Q19.5781 44.1875 22.0469 41.8438 Q24.5156 39.5 24.5156 35.8906 Q24.5156 34.0312 23.6875 31.9844 Q23.25 30.7656 21.6875 26.6562 Q20.125 22.5625 19.2812 19.875 Q18.4531 17.1875 17.9219 14.5938 Q17.3906 12.0156 17.3906 9.42188 Q17.3906 6.10938 18.7969 3.8125 Q20.2188 1.51562 23.2969 1.51562 Q29.5 1.51562 34.4219 9.07812 L42 39.8906 Q42.3281 41.2188 43.5469 42.1562 Q44.7812 43.1094 46.1875 43.1094 Q47.4062 43.1094 48.3125 42.3281 Q49.2188 41.5469 49.2188 40.2812 Q49.2188 39.7031 49.125 39.5 L39.2031 -0.296875 Q37.8906 -5.42188 34.375 -10.1094 Q30.8594 -14.7969 25.9062 -17.6562 Q20.9531 -20.5156 15.5781 -20.5156 Q12.9844 -20.5156 10.4375 -19.5 Q7.90625 -18.5 6.34375 -16.5 Q4.78125 -14.5 4.78125 -11.8125 Q4.78125 -9.07812 6.39062 -7.07812 Q8.01562 -5.07812 10.6875 -5.07812 Q12.3125 -5.07812 13.4062 -6.07812 Q14.5 -7.07812 14.5 -8.6875 Q14.5 -10.9844 12.7812 -12.6875 Q11.0781 -14.4062 8.79688 -14.4062 Q8.6875 -14.3594 8.59375 -14.3281 Q8.5 -14.3125 8.40625 -14.3125" id="Cmmi10-79"/>
      <path d=" M25 -2.20312 Q12.75 -2.20312 8.32812 7.875 Q3.90625 17.9688 3.90625 31.8906 Q3.90625 40.5781 5.48438 48.2344 Q7.07812 55.9062 11.7812 61.25 Q16.5 66.6094 25 66.6094 Q31.5938 66.6094 35.7812 63.375 Q39.9844 60.1562 42.1875 55.0469 Q44.3906 49.9531 45.1875 44.1094 Q46 38.2812 46 31.8906 Q46 23.2969 44.4062 15.7969 Q42.8281 8.29688 38.1875 3.04688 Q33.5469 -2.20312 25 -2.20312 M25 0.390625 Q30.5625 0.390625 33.2969 6.09375 Q36.0312 11.8125 36.6719 18.75 Q37.3125 25.6875 37.3125 33.5 Q37.3125 41.0156 36.6719 47.3594 Q36.0312 53.7188 33.3125 58.8594 Q30.6094 64.0156 25 64.0156 Q19.3438 64.0156 16.6094 58.8281 Q13.875 53.6562 13.2344 47.3281 Q12.5938 41.0156 12.5938 33.5 Q12.5938 27.9375 12.8594 23 Q13.1406 18.0625 14.3125 12.8125 Q15.4844 7.5625 18.0938 3.96875 Q20.7031 0.390625 25 0.390625" id="Cmr10-30"/>
      <path d=" M7.8125 2.875 Q9.57812 1.51562 12.7969 1.51562 Q15.9219 1.51562 18.3125 4.51562 Q20.7031 7.51562 21.5781 11.0781 L26.125 28.8125 Q27.2031 33.6406 27.2031 35.4062 Q27.2031 37.8906 25.8125 39.75 Q24.4219 41.6094 21.9219 41.6094 Q18.75 41.6094 15.9688 39.625 Q13.1875 37.6406 11.2812 34.5938 Q9.375 31.5469 8.59375 28.4219 Q8.40625 27.7812 7.8125 27.7812 L6.59375 27.7812 Q5.8125 27.7812 5.8125 28.7188 L5.8125 29 Q6.78125 32.7188 9.125 36.25 Q11.4688 39.7969 14.8594 41.9844 Q18.2656 44.1875 22.125 44.1875 Q25.7812 44.1875 28.7344 42.2344 Q31.6875 40.2812 32.9062 36.9219 Q34.625 39.9844 37.2812 42.0781 Q39.9375 44.1875 43.1094 44.1875 Q45.2656 44.1875 47.5 43.4219 Q49.75 42.6719 51.1719 41.1094 Q52.5938 39.5469 52.5938 37.2031 Q52.5938 34.6719 50.9531 32.8281 Q49.3125 31 46.7812 31 Q45.1719 31 44.0938 32.0312 Q43.0156 33.0625 43.0156 34.625 Q43.0156 36.7188 44.4531 38.2969 Q45.9062 39.8906 47.9062 40.1875 Q46.0938 41.6094 42.9219 41.6094 Q39.7031 41.6094 37.3281 38.625 Q34.9688 35.6406 33.9844 31.9844 L29.5938 14.3125 Q28.5156 10.2969 28.5156 7.71875 Q28.5156 5.17188 29.9531 3.34375 Q31.3906 1.51562 33.7969 1.51562 Q38.4844 1.51562 42.1562 5.64062 Q45.8438 9.76562 47.0156 14.7031 Q47.2188 15.2812 47.7969 15.2812 L49.0312 15.2812 Q49.4219 15.2812 49.6562 15.0156 Q49.9062 14.75 49.9062 14.4062 Q49.9062 14.3125 49.8125 14.1094 Q48.3906 8.15625 43.8438 3.51562 Q39.3125 -1.125 33.5938 -1.125 Q29.9375 -1.125 26.9844 0.84375 Q24.0312 2.82812 22.7969 6.20312 Q21.2344 3.26562 18.4688 1.0625 Q15.7188 -1.125 12.5938 -1.125 Q10.4531 -1.125 8.17188 -0.359375 Q5.90625 0.390625 4.48438 1.95312 Q3.07812 3.51562 3.07812 5.90625 Q3.07812 8.25 4.70312 10.1719 Q6.34375 12.1094 8.79688 12.1094 Q10.4531 12.1094 11.5781 11.1094 Q12.7031 10.1094 12.7031 8.5 Q12.7031 6.39062 11.2969 4.82812 Q9.90625 3.26562 7.8125 2.875" id="Cmmi10-78"/>
     </defs>
     <g style="fill:#262626;" transform="translate(570.637 54.111)scale(0.14300000000000002 -0.14300000000000002)">
      <use transform="translate(0.0 38.4265625)scale(0.7)" xlink:href="#Cmmi10-64"/>
      <use transform="translate(36.4013671875 38.4265625)scale(0.7)" xlink:href="#Cmmi10-78"/>
      <use transform="translate(3.0 -42.18437499999999)scale(0.7)" xlink:href="#Cmmi10-64"/>
      <use transform="translate(39.4013671875 -42.18437499999999)scale(0.7)" xlink:href="#Cmmi10-79"/>
      <use transform="translate(106.416015625 0.13906250000000853)" xlink:href="#Cmr10-3d"/>
      <use transform="translate(190.474609375 0.13906250000000853)" xlink:href="#Cmr10-30"/>
      <path d=" M0 12.6391 L0 18.8891 L76.3574 18.8891 L76.3574 12.6391 L0 12.6391 z "/>
     </g>
    </g>
    <g id="line2d_58">
     <path d=" M530.597 75.132 L559.197 75.132" style="fill:none;stroke:#ff1614;stroke-linecap:round;stroke-width:2;"/>
    </g>
    <g id="line2d_59"/>
    <g id="text_19">
     <!-- $f(a) = f(b)$ -->
     <defs>
      <path d=" M9.71875 -16.5 Q11.5781 -17.9219 14.2031 -17.9219 Q17.7812 -17.9219 20.0156 -10.0156 Q20.9531 -6.20312 25.0938 15.0938 L29.6875 39.5938 L21.0938 39.5938 Q20.125 39.5938 20.125 40.9219 Q20.5156 43.1094 21.3906 43.1094 L30.3281 43.1094 L31.5 49.6094 Q32.0781 52.6406 32.5625 54.8125 Q33.0625 56.9844 33.625 58.8281 Q34.1875 60.6875 35.2969 62.9844 Q37.0156 66.2656 39.9219 68.3906 Q42.8281 70.5156 46.1875 70.5156 Q48.3906 70.5156 50.4688 69.7031 Q52.5469 68.8906 53.8594 67.2812 Q55.1719 65.6719 55.1719 63.4844 Q55.1719 60.9375 53.4844 59.0469 Q51.8125 57.1719 49.4219 57.1719 Q47.7969 57.1719 46.6562 58.1719 Q45.5156 59.1875 45.5156 60.7969 Q45.5156 62.9844 47 64.625 Q48.4844 66.2656 50.6875 66.5 Q48.8281 67.9219 46.0938 67.9219 Q44.5781 67.9219 43.2344 66.5 Q41.8906 65.0938 41.5 63.4844 Q40.875 60.9375 38.7188 49.7031 L37.5 43.1094 L47.7969 43.1094 Q48.7812 43.1094 48.7812 41.7969 Q48.7344 41.5469 48.5781 40.9375 Q48.4375 40.3281 48.1719 39.9531 Q47.9062 39.5938 47.5156 39.5938 L36.8125 39.5938 L32.1719 15.1875 Q31.2969 9.85938 30.1406 4.35938 Q29 -1.125 26.9219 -6.90625 Q24.8594 -12.7031 21.625 -16.6094 Q18.4062 -20.5156 14.0156 -20.5156 Q10.6406 -20.5156 7.98438 -18.5781 Q5.32812 -16.6562 5.32812 -13.4844 Q5.32812 -10.9375 6.95312 -9.04688 Q8.59375 -7.17188 11.0781 -7.17188 Q12.75 -7.17188 13.8594 -8.17188 Q14.9844 -9.1875 14.9844 -10.7969 Q14.9844 -12.9375 13.3906 -14.7188 Q11.8125 -16.5 9.71875 -16.5" id="Cmmi10-66"/>
      <path d=" M17.2812 -1.125 Q11.2344 -1.125 7.85938 3.60938 Q4.5 8.34375 4.5 14.7031 Q4.5 15.625 4.95312 18.3281 Q5.42188 21.0469 5.42188 21.6875 L15.0938 60.5 Q15.4844 62.2031 15.5781 63.1875 Q15.5781 64.7969 9.07812 64.7969 Q8.10938 64.7969 8.10938 66.1094 Q8.15625 66.3594 8.32812 66.9844 Q8.5 67.625 8.76562 67.9688 Q9.03125 68.3125 9.51562 68.3125 L23 69.3906 Q24.2188 69.3906 24.2188 68.1094 L16.7969 38.625 Q22.4688 44.1875 28.2188 44.1875 Q32.4688 44.1875 35.5156 41.9375 Q38.5781 39.7031 40.0938 36.0312 Q41.6094 32.375 41.6094 28.2188 Q41.6094 23.3906 39.7188 18.2344 Q37.8438 13.0938 34.5156 8.67188 Q31.2031 4.25 26.75 1.5625 Q22.3125 -1.125 17.2812 -1.125 M17.4844 1.51562 Q20.9062 1.51562 23.875 4.375 Q26.8594 7.23438 28.7188 10.7969 Q30.7188 14.7969 32.4531 21.6562 Q34.1875 28.5156 34.1875 32.625 Q34.1875 36.1875 32.6875 38.8906 Q31.2031 41.6094 27.9844 41.6094 Q24.3594 41.6094 21.0625 38.9375 Q17.7812 36.2812 15.2812 32.625 L12.5 21.2969 Q10.8906 14.9844 10.7969 11.1875 Q10.7969 7.42188 12.4219 4.46875 Q14.0625 1.51562 17.4844 1.51562" id="Cmmi10-62"/>
      <path d=" M17.3906 -1.125 Q11.0781 -1.125 7.4375 3.64062 Q3.8125 8.40625 3.8125 14.8906 Q3.8125 21.2969 7.125 28.1719 Q10.4531 35.0625 16.0938 39.625 Q21.7344 44.1875 28.2188 44.1875 Q31.2031 44.1875 33.5469 42.5781 Q35.8906 40.9688 37.2031 38.1875 Q38.3281 42.1875 41.6094 42.1875 Q42.875 42.1875 43.7188 41.4219 Q44.5781 40.6719 44.5781 39.4062 Q44.5781 39.1094 44.5469 38.9531 Q44.5312 38.8125 44.4844 38.625 L37.5 10.6875 Q36.8125 7.71875 36.8125 5.8125 Q36.8125 1.51562 39.7031 1.51562 Q42.8281 1.51562 44.4531 5.48438 Q46.0938 9.46875 47.2188 14.7031 Q47.4062 15.2812 48 15.2812 L49.2188 15.2812 Q49.6094 15.2812 49.8438 14.9375 Q50.0938 14.5938 50.0938 14.3125 Q48.3438 7.32812 46.2656 3.09375 Q44.1875 -1.125 39.5 -1.125 Q36.1406 -1.125 33.5469 0.84375 Q30.9531 2.82812 30.3281 6.10938 Q23.875 -1.125 17.3906 -1.125 M17.4844 1.51562 Q21.0938 1.51562 24.4844 4.21875 Q27.875 6.9375 30.3281 10.5938 Q30.4219 10.6875 30.4219 10.8906 L35.7969 32.625 L35.8906 32.9062 Q35.2969 36.4688 33.3125 39.0312 Q31.3438 41.6094 27.9844 41.6094 Q24.6094 41.6094 21.7031 38.8438 Q18.7969 36.0781 16.7969 32.3281 Q14.8438 28.3281 13.0625 21.3438 Q11.2812 14.3594 11.2812 10.5 Q11.2812 7.03125 12.7656 4.26562 Q14.2656 1.51562 17.4844 1.51562" id="Cmmi10-61"/>
      <path d=" M31 -24.8125 Q25.4375 -20.4062 21.4062 -14.7188 Q17.3906 -9.03125 14.8125 -2.57812 Q12.25 3.85938 10.9844 10.8906 Q9.71875 17.9219 9.71875 25 Q9.71875 32.1719 10.9844 39.2031 Q12.25 46.2344 14.8594 52.7344 Q17.4844 59.2344 21.5312 64.8906 Q25.5938 70.5625 31 74.8125 Q31 75 31.5 75 L32.4219 75 Q32.7188 75 32.9531 74.7344 Q33.2031 74.4688 33.2031 74.125 Q33.2031 73.6875 33.0156 73.4844 Q28.125 68.7031 24.875 63.2344 Q21.625 57.7656 19.6406 51.5781 Q17.6719 45.4062 16.7969 38.7812 Q15.9219 32.1719 15.9219 25 Q15.9219 -6.78125 32.9062 -23.2969 Q33.2031 -23.5781 33.2031 -24.125 Q33.2031 -24.3594 32.9375 -24.6719 Q32.6719 -25 32.4219 -25 L31.5 -25 Q31 -25 31 -24.8125" id="Cmr10-28"/>
      <path d=" M6.5 -25 Q5.60938 -25 5.60938 -24.125 Q5.60938 -23.6875 5.8125 -23.4844 Q22.9062 -6.78125 22.9062 25 Q22.9062 56.7812 6 73.2969 Q5.60938 73.5312 5.60938 74.125 Q5.60938 74.4688 5.875 74.7344 Q6.15625 75 6.5 75 L7.42188 75 Q7.71875 75 7.90625 74.8125 Q15.0938 69.1406 19.875 61.0312 Q24.6562 52.9375 26.875 43.75 Q29.1094 34.5781 29.1094 25 Q29.1094 17.9219 27.9062 11.0625 Q26.7031 4.20312 24.0938 -2.45312 Q21.4844 -9.125 17.4844 -14.7656 Q13.4844 -20.4062 7.90625 -24.8125 Q7.71875 -25 7.42188 -25 z " id="Cmr10-29"/>
     </defs>
     <g style="fill:#262626;" transform="translate(570.637 80.137)scale(0.14300000000000002 -0.14300000000000002)">
      <use xlink:href="#Cmmi10-66"/>
      <use transform="translate(48.876953125 0.0)" xlink:href="#Cmr10-28"/>
      <use transform="translate(87.6953125 0.0)" xlink:href="#Cmmi10-61"/>
      <use transform="translate(140.478515625 0.0)" xlink:href="#Cmr10-29"/>
      <use transform="translate(196.85546875 0.0)" xlink:href="#Cmr10-3d"/>
      <use transform="translate(280.9140625 0.0)" xlink:href="#Cmmi10-66"/>
      <use transform="translate(329.791015625 0.0)" xlink:href="#Cmr10-28"/>
      <use transform="translate(368.609375 0.0)" xlink:href="#Cmmi10-62"/>
      <use transform="translate(411.529296875 0.0)" xlink:href="#Cmr10-29"/>
     </g>
    </g>
   </g>
  </g>
 </g>
 </svg>
