<svg xmlns="http://www.w3.org/2000/svg" xmlns:xlink="http://www.w3.org/1999/xlink" height="288pt" version="1.1" viewBox="0 0 720 288" width="720pt">
 <defs>
  <clipPath id="p9f76a1e9e4">
   <rect height="223.2" width="558.0" x="90.0" y="28.8"/>
  </clipPath>
 </defs>
<defs>
  <style type="text/css">
*{stroke-linecap:butt;stroke-linejoin:round;}
  </style>
 </defs>
 <g id="figure_1">
  <g id="patch_1">
   <path d=" M0 288 L720 288 L720 0 L0 0 z " style="fill:#ffffff;"/>
  </g>
  <g id="axes_1">
   <g id="patch_2">
    <path d=" M90 252 L648 252 L648 28.8 L90 28.8 z " style="fill:#eaeaf2;"/>
   </g>
   <g id="matplotlib.axis_1">
    <g id="xtick_1">
     <g id="line2d_1">
      <path clip-path="url(#p9f76a1e9e4)" d=" M90 252 L90 28.8" style="fill:none;stroke:#ffffff;stroke-linecap:round;stroke-width:1.3;"/>
     </g>
     <g id="line2d_2">
      <defs>
       <path d=" M0 0 L0 0" id="m56cc5124a0" style="stroke:#262626;stroke-width:1.3;"/>
      </defs>
      <g>
       <use style="fill:#262626;stroke:#262626;stroke-width:1.3;" x="90.0" xlink:href="#m56cc5124a0" y="252.0"/>
      </g>
     </g>
     <g id="line2d_3">
      <g>
       <use style="fill:#262626;stroke:#262626;stroke-width:1.3;" x="90.0" xlink:href="#m56cc5124a0" y="28.8"/>
      </g>
     </g>
     <g id="text_1">
      <!-- &#8722;2 -->
      <defs>
       <path d=" M7.29688 26.5938 L7.29688 32.7969 L46.7031 32.7969 L46.7031 26.5938 z " id="CalibreRegular-2212"/>
       <path d=" M34.0938 44.9062 Q34.0938 49.5938 31.0938 52.4375 Q28.0938 55.2969 23 55.2969 Q17.5938 55.2969 14.5469 51.9375 Q11.5 48.5938 11 43 L2.90625 43 Q3.79688 51.7031 9.1875 57 Q14.5938 62.2969 23 62.2969 Q31.7031 62.2969 36.7031 57.5938 Q41.7031 52.9062 41.7031 45 Q41.7031 43.5938 41.3438 42.0938 Q41 40.5938 40.6406 39.5 Q40.2969 38.4062 39.3438 36.75 Q38.4062 35.0938 37.9062 34.2969 Q37.4062 33.5 35.9062 31.7031 Q34.4062 29.9062 33.9062 29.2969 Q33.4062 28.7031 31.5469 26.6406 Q29.7031 24.5938 29.2969 24.0938 L13.7031 7 L43 7 L43 0 L2.90625 0 L2.90625 5.20312 L22.7031 27 Q27.2031 32 28.7969 33.7969 Q30.4062 35.5938 32.25 38.8906 Q34.0938 42.2031 34.0938 44.9062" id="CalibreRegular-32"/>
      </defs>
      <g style="fill:#262626;" transform="translate(83.5862265625 270.395)scale(0.14300000000000002 -0.14300000000000002)">
       <use xlink:href="#CalibreRegular-2212"/>
       <use x="53.99998474121094" xlink:href="#CalibreRegular-32"/>
      </g>
     </g>
    </g>
    <g id="xtick_2">
     <g id="line2d_4">
      <path clip-path="url(#p9f76a1e9e4)" d=" M183 252 L183 28.8" style="fill:none;stroke:#ffffff;stroke-linecap:round;stroke-width:1.3;"/>
     </g>
     <g id="line2d_5">
      <g>
       <use style="fill:#262626;stroke:#262626;stroke-width:1.3;" x="183.0" xlink:href="#m56cc5124a0" y="252.0"/>
      </g>
     </g>
     <g id="line2d_6">
      <g>
       <use style="fill:#262626;stroke:#262626;stroke-width:1.3;" x="183.0" xlink:href="#m56cc5124a0" y="28.8"/>
      </g>
     </g>
     <g id="text_2">
      <!-- &#8722;1 -->
      <defs>
       <path d=" M25.4062 61.5 L25.4062 0 L17.7031 0 L17.7031 52 L2.5 44.2031 L2.5 52.2031 L20.7031 61.5 z " id="CalibreRegular-31"/>
      </defs>
      <g style="fill:#262626;" transform="translate(177.844179688 270.395)scale(0.14300000000000002 -0.14300000000000002)">
       <use xlink:href="#CalibreRegular-2212"/>
       <use x="53.99998474121094" xlink:href="#CalibreRegular-31"/>
      </g>
     </g>
    </g>
    <g id="xtick_3">
     <g id="line2d_7">
      <path clip-path="url(#p9f76a1e9e4)" d=" M276 252 L276 28.8" style="fill:none;stroke:#ffffff;stroke-linecap:round;stroke-width:1.3;"/>
     </g>
     <g id="line2d_8">
      <g>
       <use style="fill:#262626;stroke:#262626;stroke-width:1.3;" x="276.0" xlink:href="#m56cc5124a0" y="252.0"/>
      </g>
     </g>
     <g id="line2d_9">
      <g>
       <use style="fill:#262626;stroke:#262626;stroke-width:1.3;" x="276.0" xlink:href="#m56cc5124a0" y="28.8"/>
      </g>
     </g>
     <g id="text_3">
      <!-- 0 -->
      <defs>
       <path d=" M49.7969 16.5938 Q37.0938 -0.90625 26.8906 -0.90625 Q16.7031 -0.90625 10.3438 7.84375 Q4 16.5938 4 30.6875 Q4 44.7969 10.3438 53.5469 Q16.7031 62.2969 26.8906 62.2969 Q37.0938 62.2969 43.4375 53.5469 Q49.7969 44.7969 49.7969 30.6875 Q49.7969 16.5938 37.0938 -0.90625 M26.9062 55.2031 Q19.5938 55.2031 15.6406 48.5 Q11.7031 41.7969 11.7031 30.6875 Q11.7031 19.5938 15.6406 12.8906 Q19.5938 6.20312 26.9062 6.20312 Q34.0938 6.20312 38.0938 12.9531 Q42.0938 19.7031 42.0938 30.7031 Q42.0938 41.7031 38.0938 48.4531 Q34.0938 55.2031 26.9062 55.2031" id="CalibreRegular-30"/>
      </defs>
      <g style="fill:#262626;" transform="translate(272.725523437 270.395)scale(0.14300000000000002 -0.14300000000000002)">
       <use xlink:href="#CalibreRegular-30"/>
      </g>
     </g>
    </g>
    <g id="xtick_4">
     <g id="line2d_10">
      <path clip-path="url(#p9f76a1e9e4)" d=" M369 252 L369 28.8" style="fill:none;stroke:#ffffff;stroke-linecap:round;stroke-width:1.3;"/>
     </g>
     <g id="line2d_11">
      <g>
       <use style="fill:#262626;stroke:#262626;stroke-width:1.3;" x="369.0" xlink:href="#m56cc5124a0" y="252.0"/>
      </g>
     </g>
     <g id="line2d_12">
      <g>
       <use style="fill:#262626;stroke:#262626;stroke-width:1.3;" x="369.0" xlink:href="#m56cc5124a0" y="28.8"/>
      </g>
     </g>
     <g id="text_4">
      <!-- 1 -->
      <g style="fill:#262626;" transform="translate(367.362203125 270.395)scale(0.14300000000000002 -0.14300000000000002)">
       <use xlink:href="#CalibreRegular-31"/>
      </g>
     </g>
    </g>
    <g id="xtick_5">
     <g id="line2d_13">
      <path clip-path="url(#p9f76a1e9e4)" d=" M462 252 L462 28.8" style="fill:none;stroke:#ffffff;stroke-linecap:round;stroke-width:1.3;"/>
     </g>
     <g id="line2d_14">
      <g>
       <use style="fill:#262626;stroke:#262626;stroke-width:1.3;" x="462.0" xlink:href="#m56cc5124a0" y="252.0"/>
      </g>
     </g>
     <g id="line2d_15">
      <g>
       <use style="fill:#262626;stroke:#262626;stroke-width:1.3;" x="462.0" xlink:href="#m56cc5124a0" y="28.8"/>
      </g>
     </g>
     <g id="text_5">
      <!-- 2 -->
      <g style="fill:#262626;" transform="translate(459.133296875 270.395)scale(0.14300000000000002 -0.14300000000000002)">
       <use xlink:href="#CalibreRegular-32"/>
      </g>
     </g>
    </g>
    <g id="xtick_6">
     <g id="line2d_16">
      <path clip-path="url(#p9f76a1e9e4)" d=" M555 252 L555 28.8" style="fill:none;stroke:#ffffff;stroke-linecap:round;stroke-width:1.3;"/>
     </g>
     <g id="line2d_17">
      <g>
       <use style="fill:#262626;stroke:#262626;stroke-width:1.3;" x="555.0" xlink:href="#m56cc5124a0" y="252.0"/>
      </g>
     </g>
     <g id="line2d_18">
      <g>
       <use style="fill:#262626;stroke:#262626;stroke-width:1.3;" x="555.0" xlink:href="#m56cc5124a0" y="28.8"/>
      </g>
     </g>
     <g id="text_6">
      <!-- 3 -->
      <defs>
       <path d=" M18.4062 28.0938 L18.4062 34.7969 L22.5 34.7969 Q27.5 34.7969 30.75 37.5469 Q34 40.2969 34 45.0938 Q34 49.5938 30.9531 52.5469 Q27.9062 55.5 22.7969 55.5 Q17.7031 55.5 14.5 52.5 Q11.2969 49.5 10.5938 44.5938 L2.90625 44.5938 Q4 52.5 9.39062 57.3906 Q14.7969 62.2969 22.7969 62.2969 Q31.4062 62.2969 36.4531 57.6406 Q41.5 53 41.5 45.5 Q41.5 40.5 38.8438 36.6406 Q36.2031 32.7969 31.9062 31.5 Q36.9062 30.0938 39.7969 26.25 Q42.7031 22.4062 42.7031 17.2031 Q42.7031 9.40625 37.3438 4.25 Q32 -0.90625 23 -0.90625 Q14 -0.90625 8.25 4.09375 Q2.5 9.09375 1.70312 17.5 L9.40625 17.5 Q10.2031 12.0938 13.7031 9 Q17.2031 5.90625 22.9062 5.90625 Q28.4062 5.90625 31.7969 8.95312 Q35.2031 12 35.2031 17.0938 Q35.2031 22.0938 31.6406 25.0938 Q28.0938 28.0938 22.7031 28.0938 z " id="CalibreRegular-33"/>
      </defs>
      <g style="fill:#262626;" transform="translate(552.0685 270.395)scale(0.14300000000000002 -0.14300000000000002)">
       <use xlink:href="#CalibreRegular-33"/>
      </g>
     </g>
    </g>
    <g id="xtick_7">
     <g id="line2d_19">
      <path clip-path="url(#p9f76a1e9e4)" d=" M648 252 L648 28.8" style="fill:none;stroke:#ffffff;stroke-linecap:round;stroke-width:1.3;"/>
     </g>
     <g id="line2d_20">
      <g>
       <use style="fill:#262626;stroke:#262626;stroke-width:1.3;" x="648.0" xlink:href="#m56cc5124a0" y="252.0"/>
      </g>
     </g>
     <g id="line2d_21">
      <g>
       <use style="fill:#262626;stroke:#262626;stroke-width:1.3;" x="648.0" xlink:href="#m56cc5124a0" y="28.8"/>
      </g>
     </g>
     <g id="text_7">
      <!-- 4 -->
      <defs>
       <path d=" M33.7969 61.4062 L10.9062 20.5 L30.5 20.5 L30.5 35.2969 L37.7969 35.2969 L37.7969 20.5 L48.5938 20.5 L48.5938 13.9062 L37.7969 13.9062 L37.7969 0 L30.5 0 L30.5 13.9062 L2.20312 13.9062 L2.20312 19.5 L25.7969 61.4062 z " id="CalibreRegular-34"/>
      </defs>
      <g style="fill:#262626;" transform="translate(644.683070313 270.395)scale(0.14300000000000002 -0.14300000000000002)">
       <use xlink:href="#CalibreRegular-34"/>
      </g>
     </g>
    </g>
   </g>
   <g id="matplotlib.axis_2">
    <g id="ytick_1">
     <g id="line2d_22">
      <path clip-path="url(#p9f76a1e9e4)" d=" M90 252 L648 252" style="fill:none;stroke:#ffffff;stroke-linecap:round;stroke-width:1.3;"/>
     </g>
     <g id="line2d_23">
      <g>
       <use style="fill:#262626;stroke:#262626;stroke-width:1.3;" x="90.0" xlink:href="#m56cc5124a0" y="252.0"/>
      </g>
     </g>
     <g id="line2d_24">
      <g>
       <use style="fill:#262626;stroke:#262626;stroke-width:1.3;" x="648.0" xlink:href="#m56cc5124a0" y="252.0"/>
      </g>
     </g>
     <g id="text_8">
      <!-- &#8722;20 -->
      <g style="fill:#262626;" transform="translate(60.564953125 255.432)scale(0.14300000000000002 -0.14300000000000002)">
       <use xlink:href="#CalibreRegular-2212"/>
       <use x="53.99998474121094" xlink:href="#CalibreRegular-32"/>
       <use x="99.69998168945312" xlink:href="#CalibreRegular-30"/>
      </g>
     </g>
    </g>
    <g id="ytick_2">
     <g id="line2d_25">
      <path clip-path="url(#p9f76a1e9e4)" d=" M90 224.1 L648 224.1" style="fill:none;stroke:#ffffff;stroke-linecap:round;stroke-width:1.3;"/>
     </g>
     <g id="line2d_26">
      <g>
       <use style="fill:#262626;stroke:#262626;stroke-width:1.3;" x="90.0" xlink:href="#m56cc5124a0" y="224.1"/>
      </g>
     </g>
     <g id="line2d_27">
      <g>
       <use style="fill:#262626;stroke:#262626;stroke-width:1.3;" x="648.0" xlink:href="#m56cc5124a0" y="224.1"/>
      </g>
     </g>
     <g id="text_9">
      <!-- &#8722;15 -->
      <defs>
       <path d=" M23.7031 33 Q17.2031 33 12.7969 27.7031 L6.59375 27.7031 L6.59375 61.4062 L40.2031 61.4062 L40.2031 54.4062 L13.2031 54.4062 L13.2031 35.9062 Q17.5 39.7969 24.4062 39.7969 Q32.9062 39.7969 38.2969 34.0469 Q43.7031 28.2969 43.7031 19.4062 Q43.7031 10.7031 38.0938 4.89062 Q32.5 -0.90625 23.7969 -0.90625 Q15 -0.90625 9.39062 4 Q3.79688 8.90625 2.70312 17.5 L10.4062 17.5 Q12.5 5.90625 23.7969 5.90625 Q29.2969 5.90625 32.7969 9.75 Q36.2969 13.5938 36.2969 19.3906 Q36.2969 25.2031 32.7969 29.0938 Q29.2969 33 23.7031 33" id="CalibreRegular-35"/>
      </defs>
      <g style="fill:#262626;" transform="translate(63.2663125 227.532)scale(0.14300000000000002 -0.14300000000000002)">
       <use xlink:href="#CalibreRegular-2212"/>
       <use x="53.99998474121094" xlink:href="#CalibreRegular-31"/>
       <use x="86.89997863769531" xlink:href="#CalibreRegular-35"/>
      </g>
     </g>
    </g>
    <g id="ytick_3">
     <g id="line2d_28">
      <path clip-path="url(#p9f76a1e9e4)" d=" M90 196.2 L648 196.2" style="fill:none;stroke:#ffffff;stroke-linecap:round;stroke-width:1.3;"/>
     </g>
     <g id="line2d_29">
      <g>
       <use style="fill:#262626;stroke:#262626;stroke-width:1.3;" x="90.0" xlink:href="#m56cc5124a0" y="196.2"/>
      </g>
     </g>
     <g id="line2d_30">
      <g>
       <use style="fill:#262626;stroke:#262626;stroke-width:1.3;" x="648.0" xlink:href="#m56cc5124a0" y="196.2"/>
      </g>
     </g>
     <g id="text_10">
      <!-- &#8722;10 -->
      <g style="fill:#262626;" transform="translate(62.39490625 199.632)scale(0.14300000000000002 -0.14300000000000002)">
       <use xlink:href="#CalibreRegular-2212"/>
       <use x="53.99998474121094" xlink:href="#CalibreRegular-31"/>
       <use x="86.89997863769531" xlink:href="#CalibreRegular-30"/>
      </g>
     </g>
    </g>
    <g id="ytick_4">
     <g id="line2d_31">
      <path clip-path="url(#p9f76a1e9e4)" d=" M90 168.3 L648 168.3" style="fill:none;stroke:#ffffff;stroke-linecap:round;stroke-width:1.3;"/>
     </g>
     <g id="line2d_32">
      <g>
       <use style="fill:#262626;stroke:#262626;stroke-width:1.3;" x="90.0" xlink:href="#m56cc5124a0" y="168.3"/>
      </g>
     </g>
     <g id="line2d_33">
      <g>
       <use style="fill:#262626;stroke:#262626;stroke-width:1.3;" x="648.0" xlink:href="#m56cc5124a0" y="168.3"/>
      </g>
     </g>
     <g id="text_11">
      <!-- &#8722;5 -->
      <g style="fill:#262626;" transform="translate(67.97190625 171.732)scale(0.14300000000000002 -0.14300000000000002)">
       <use xlink:href="#CalibreRegular-2212"/>
       <use x="53.99998474121094" xlink:href="#CalibreRegular-35"/>
      </g>
     </g>
    </g>
    <g id="ytick_5">
     <g id="line2d_34">
      <path clip-path="url(#p9f76a1e9e4)" d=" M90 140.4 L648 140.4" style="fill:none;stroke:#ffffff;stroke-linecap:round;stroke-width:1.3;"/>
     </g>
     <g id="line2d_35">
      <g>
       <use style="fill:#262626;stroke:#262626;stroke-width:1.3;" x="90.0" xlink:href="#m56cc5124a0" y="140.4"/>
      </g>
     </g>
     <g id="line2d_36">
      <g>
       <use style="fill:#262626;stroke:#262626;stroke-width:1.3;" x="648.0" xlink:href="#m56cc5124a0" y="140.4"/>
      </g>
     </g>
     <g id="text_12">
      <!-- 0 -->
      <g style="fill:#262626;" transform="translate(74.351046875 143.832)scale(0.14300000000000002 -0.14300000000000002)">
       <use xlink:href="#CalibreRegular-30"/>
      </g>
     </g>
    </g>
    <g id="ytick_6">
     <g id="line2d_37">
      <path clip-path="url(#p9f76a1e9e4)" d=" M90 112.5 L648 112.5" style="fill:none;stroke:#ffffff;stroke-linecap:round;stroke-width:1.3;"/>
     </g>
     <g id="line2d_38">
      <g>
       <use style="fill:#262626;stroke:#262626;stroke-width:1.3;" x="90.0" xlink:href="#m56cc5124a0" y="112.5"/>
      </g>
     </g>
     <g id="line2d_39">
      <g>
       <use style="fill:#262626;stroke:#262626;stroke-width:1.3;" x="648.0" xlink:href="#m56cc5124a0" y="112.5"/>
      </g>
     </g>
     <g id="text_13">
      <!-- 5 -->
      <g style="fill:#262626;" transform="translate(75.037 115.932)scale(0.14300000000000002 -0.14300000000000002)">
       <use xlink:href="#CalibreRegular-35"/>
      </g>
     </g>
    </g>
    <g id="ytick_7">
     <g id="line2d_40">
      <path clip-path="url(#p9f76a1e9e4)" d=" M90 84.6 L648 84.6" style="fill:none;stroke:#ffffff;stroke-linecap:round;stroke-width:1.3;"/>
     </g>
     <g id="line2d_41">
      <g>
       <use style="fill:#262626;stroke:#262626;stroke-width:1.3;" x="90.0" xlink:href="#m56cc5124a0" y="84.6"/>
      </g>
     </g>
     <g id="line2d_42">
      <g>
       <use style="fill:#262626;stroke:#262626;stroke-width:1.3;" x="648.0" xlink:href="#m56cc5124a0" y="84.6"/>
      </g>
     </g>
     <g id="text_14">
      <!-- 10 -->
      <g style="fill:#262626;" transform="translate(69.430953125 88.032)scale(0.14300000000000002 -0.14300000000000002)">
       <use xlink:href="#CalibreRegular-31"/>
       <use x="32.899993896484375" xlink:href="#CalibreRegular-30"/>
      </g>
     </g>
    </g>
    <g id="ytick_8">
     <g id="line2d_43">
      <path clip-path="url(#p9f76a1e9e4)" d=" M90 56.7 L648 56.7" style="fill:none;stroke:#ffffff;stroke-linecap:round;stroke-width:1.3;"/>
     </g>
     <g id="line2d_44">
      <g>
       <use style="fill:#262626;stroke:#262626;stroke-width:1.3;" x="90.0" xlink:href="#m56cc5124a0" y="56.7"/>
      </g>
     </g>
     <g id="line2d_45">
      <g>
       <use style="fill:#262626;stroke:#262626;stroke-width:1.3;" x="648.0" xlink:href="#m56cc5124a0" y="56.7"/>
      </g>
     </g>
     <g id="text_15">
      <!-- 15 -->
      <g style="fill:#262626;" transform="translate(70.302359375 60.132)scale(0.14300000000000002 -0.14300000000000002)">
       <use xlink:href="#CalibreRegular-31"/>
       <use x="32.899993896484375" xlink:href="#CalibreRegular-35"/>
      </g>
     </g>
    </g>
    <g id="ytick_9">
     <g id="line2d_46">
      <path clip-path="url(#p9f76a1e9e4)" d=" M90 28.8 L648 28.8" style="fill:none;stroke:#ffffff;stroke-linecap:round;stroke-width:1.3;"/>
     </g>
     <g id="line2d_47">
      <g>
       <use style="fill:#262626;stroke:#262626;stroke-width:1.3;" x="90.0" xlink:href="#m56cc5124a0" y="28.8"/>
      </g>
     </g>
     <g id="line2d_48">
      <g>
       <use style="fill:#262626;stroke:#262626;stroke-width:1.3;" x="648.0" xlink:href="#m56cc5124a0" y="28.8"/>
      </g>
     </g>
     <g id="text_16">
      <!-- 20 -->
      <g style="fill:#262626;" transform="translate(67.65909375 32.232)scale(0.14300000000000002 -0.14300000000000002)">
       <use xlink:href="#CalibreRegular-32"/>
       <use x="45.69999694824219" xlink:href="#CalibreRegular-30"/>
      </g>
     </g>
    </g>
   </g>
   <g id="line2d_49">
    <path clip-path="url(#p9f76a1e9e4)" d=" M90 140.4 L648 140.4" style="fill:none;stroke:#dcdce6;stroke-linecap:round;stroke-width:2;"/>
   </g>
   <g id="line2d_50">
    <path clip-path="url(#p9f76a1e9e4)" d=" M276 252 L276 28.8" style="fill:none;stroke:#dcdce6;stroke-linecap:round;stroke-width:2;"/>
   </g>
   <g id="line2d_51">
    <path clip-path="url(#p9f76a1e9e4)" d=" M90 67.86 L648 67.86" style="fill:none;stroke:#ffdc52;stroke-linecap:round;stroke-width:2;"/>
   </g>
   <g id="line2d_52">
    <path clip-path="url(#p9f76a1e9e4)" d=" M90 129.24 L648 129.24" style="fill:none;stroke:#ff1614;stroke-linecap:round;stroke-width:2;"/>
   </g>
   <g id="patch_3">
    <path d=" M90 252 L90 28.8" style="fill:none;"/>
   </g>
   <g id="patch_4">
    <path d=" M90 252 L648 252" style="fill:none;"/>
   </g>
   <g id="patch_5">
    <path d=" M648 252 L648 28.8" style="fill:none;"/>
   </g>
   <g id="patch_6">
    <path d=" M90 28.8 L648 28.8" style="fill:none;"/>
   </g>
   <g id="line2d_53">
    <path clip-path="url(#p9f76a1e9e4)" d=" M485.436 252 L485.436 28.8" style="fill:none;stroke:#34495e;stroke-linecap:round;stroke-width:2.275;"/>
   </g>
   <g id="line2d_54">
    <path clip-path="url(#p9f76a1e9e4)" d=" M188.022 252 L188.022 28.8" style="fill:none;stroke:#34495e;stroke-linecap:round;stroke-width:2.275;"/>
   </g>
   <g id="text_17">
    <!-- Rolle's Theorem example -->
    <defs>
     <path id="CalibreRegular-20"/>
     <path d=" M14.2031 65 L14.2031 0 L6.70312 0 L6.70312 65 z " id="CalibreRegular-6c"/>
     <path d=" M6.70312 0 L6.70312 65 L14.2031 65 L14.2031 38.7969 Q16.2969 41.5938 19.75 43.4375 Q23.2031 45.2969 27.2969 45.2969 Q34.7031 45.2969 38.7969 40.8906 Q42.9062 36.5 42.9062 29.0938 L42.9062 0 L35.2969 0 L35.2969 27.9062 Q35.2969 32.7031 32.8438 35.5469 Q30.4062 38.4062 25.5 38.4062 Q21.5938 38.4062 18.5 36.0469 Q15.4062 33.7031 14.2031 30.0938 L14.2031 0 z " id="CalibreRegular-68"/>
     <path d=" M38.2031 38.2031 Q43.2031 45.2969 51.7031 45.2969 Q58.4062 45.2969 62.0469 41 Q65.7031 36.7031 65.7031 29.4062 L65.7031 0 L58.0938 0 L58.0938 28.2031 Q58.0938 33 56 35.75 Q53.9062 38.5 49.7031 38.5 Q46.2969 38.5 43.5938 36.3438 Q40.9062 34.2031 39.9062 30.5938 L39.9062 0 L32.4062 0 L32.4062 28.2031 Q32.4062 33 30.2969 35.75 Q28.2031 38.5 24 38.5 Q20.5938 38.5 17.8906 36.3438 Q15.2031 34.2031 14.2031 30.5938 L14.2031 0 L6.70312 0 L6.70312 44.4062 L14.2031 44.4062 L14.2031 39.2031 Q18 45.2969 26.2031 45.2969 Q34.5938 45.2969 38.2031 38.2031" id="CalibreRegular-6d"/>
     <path d=" M38.9062 0 L31.7031 0 L31.7031 3.29688 Q30.2969 1.79688 27 0.5 Q23.7031 -0.796875 20 -0.796875 Q13 -0.796875 8.25 3.09375 Q3.5 7 3.5 13.4062 Q3.5 19.5 8.39062 23.3906 Q13.2969 27.2969 20.5 27.2969 Q23.7969 27.2969 27 26.1875 Q30.2031 25.0938 31.7031 23.7031 L31.7031 29.2969 Q31.7031 33.5938 29.1406 36.1875 Q26.5938 38.7969 21.9062 38.7969 Q14.9062 38.7969 12.7969 32.7031 L5.40625 32.7031 Q6.5 38.2969 11.0469 41.7969 Q15.5938 45.2969 22 45.2969 Q29.9062 45.2969 34.4062 41.0938 Q38.9062 36.9062 38.9062 29.5938 z  M31.7031 11 L31.7031 15.5938 Q30.7031 18 27.75 19.5469 Q24.7969 21.0938 21.2969 21.0938 Q16.9062 21.0938 13.7969 19.0938 Q10.7031 17.0938 10.7031 13.4062 Q10.7031 9.59375 13.7969 7.54688 Q16.9062 5.5 21.2969 5.5 Q24.7969 5.5 27.75 7.04688 Q30.7031 8.59375 31.7031 11" id="CalibreRegular-61"/>
     <path d=" M29.5 44.5938 L29.5 36.9062 Q27.7031 38.0938 24.5 38.0938 Q20.9062 38.0938 18.0938 35.8906 Q15.2969 33.7031 14.2031 29.7969 L14.2031 0 L6.70312 0 L6.70312 44.4062 L14.2031 44.4062 L14.2031 38.5938 Q15.7031 41.5 18.6406 43.3906 Q21.5938 45.2969 25.2031 45.2969 Q28.0938 45.2969 29.5 44.5938" id="CalibreRegular-72"/>
     <path d=" M3 54.4062 L3 61.4062 L53.7031 61.4062 L53.7031 54.4062 L32.2969 54.4062 L32.2969 0 L24.4062 0 L24.4062 54.4062 z " id="CalibreRegular-54"/>
     <path d=" M14.2031 5.20312 L14.2031 -17 L6.70312 -17 L6.70312 44.4062 L14.2031 44.4062 L14.2031 39.2031 Q16.0938 41.7969 19.4375 43.5469 Q22.7969 45.2969 26.7031 45.2969 Q36.0938 45.2969 41.3906 38.6406 Q46.7031 32 46.7031 22.2031 Q46.7031 12.4062 41.3906 5.75 Q36.0938 -0.90625 26.7031 -0.90625 Q22.7969 -0.90625 19.4375 0.84375 Q16.0938 2.59375 14.2031 5.20312 M14.2031 31.2031 L14.2031 13.2031 Q15.9062 9.79688 18.9531 7.84375 Q22 5.90625 25.5938 5.90625 Q31.7969 5.90625 35.4375 10.4531 Q39.0938 15 39.0938 22.2031 Q39.0938 29.4062 35.4375 33.9531 Q31.7969 38.5 25.5938 38.5 Q22 38.5 18.9531 36.5469 Q15.9062 34.5938 14.2031 31.2031" id="CalibreRegular-70"/>
     <path d=" M26.0938 26 L15.2031 26 L15.2031 0 L7.29688 0 L7.29688 61.4062 L30.0938 61.4062 Q39.5 61.4062 44.8438 56.7969 Q50.2031 52.2031 50.2031 43.5938 Q50.2031 36.0938 46.0938 31.6875 Q42 27.2969 34.5938 26.2969 L52.7031 0 L43.7031 0 z  M15.2031 54.5 L15.2031 32.7031 L29.9062 32.7031 Q35.9062 32.7031 39.1562 35.5938 Q42.4062 38.5 42.4062 43.5938 Q42.4062 48.7031 39.1562 51.5938 Q35.9062 54.5 29.9062 54.5 z " id="CalibreRegular-52"/>
     <path d=" M3 12.2031 L10.7969 12.2031 Q12.9062 5.40625 21.2969 5.40625 Q25.4062 5.40625 27.9062 7.04688 Q30.4062 8.70312 30.4062 12 Q30.4062 16.5 23.7969 18.2031 L15 20.5 Q4.29688 23.2031 4.29688 32.2031 Q4.29688 38 8.79688 41.6406 Q13.2969 45.2969 20.2031 45.2969 Q27.4062 45.2969 31.7969 42 Q36.2031 38.7031 37.4062 32.7031 L29.9062 32.7031 Q27.9062 39 20.0938 39 Q16.5938 39 14.0938 37.3438 Q11.5938 35.7031 11.5938 32.5938 Q11.5938 30.4062 13.0469 29.1562 Q14.5 27.9062 17.7969 27 L26.4062 24.9062 Q37.7031 21.9062 37.7031 12.5 Q37.7031 6.29688 33.0938 2.6875 Q28.5 -0.90625 21.2031 -0.90625 Q13.9062 -0.90625 8.95312 2.59375 Q4 6.09375 3 12.2031" id="CalibreRegular-73"/>
     <path d=" M33 45.2969 Q44.2969 32.4062 44.2969 22.2031 Q44.2969 12 38.6406 5.54688 Q33 -0.90625 23.8906 -0.90625 Q14.7969 -0.90625 9.14062 5.54688 Q3.5 12 3.5 22.2031 Q3.5 32.4062 9.14062 38.8438 Q14.7969 45.2969 23.8906 45.2969 Q33 45.2969 44.2969 32.4062 M29.7969 5.70312 Q36.7031 14.7969 36.7031 22.1875 Q36.7031 29.5938 33.25 34.1406 Q29.7969 38.7031 23.8906 38.7031 Q18 38.7031 14.5469 34.1406 Q11.0938 29.5938 11.0938 22.1875 Q11.0938 14.7969 14.5469 10.25 Q18 5.70312 23.8906 5.70312 Q29.7969 5.70312 36.7031 14.7969" id="CalibreRegular-6f"/>
     <path d=" M42.2031 44.4062 L26.5938 23 L43.0938 0 L34.5938 0 L22.2969 17.2969 L9.90625 0 L1.79688 0 L18.2031 22.7031 L2.70312 44.4062 L11.2969 44.4062 L22.5 28.5 L34 44.4062 z " id="CalibreRegular-78"/>
     <path d=" M4 39.5 L4 61.4062 L10.7969 61.4062 L10.7969 39.5 z " id="CalibreRegular-27"/>
     <path d=" M34.7031 13.2969 L41.7969 13.2969 Q40.5938 6.79688 35.8906 2.9375 Q31.2031 -0.90625 23.9062 -0.90625 Q14.7969 -0.90625 9.14062 5.4375 Q3.5 11.7969 3.5 22.0938 Q3.5 32.2031 9.09375 38.75 Q14.7031 45.2969 23.7031 45.2969 Q32.5938 45.2969 37.5 39.3438 Q42.4062 33.4062 42.4062 23.5 L42.4062 20.7969 L11 20.7969 Q11.0938 13.7969 14.6406 9.64062 Q18.2031 5.5 23.9062 5.5 Q28.0938 5.5 30.9375 7.54688 Q33.7969 9.59375 34.7031 13.2969 M23.7969 38.9062 Q18.7969 38.9062 15.3906 35.5938 Q12 32.2969 11.2031 26.5 L34.7969 26.5 Q34.7031 31.7969 31.8906 35.3438 Q29.0938 38.9062 23.7969 38.9062" id="CalibreRegular-65"/>
    </defs>
    <g style="fill:#262626;" transform="translate(286.60250625 23.8)scale(0.17160000000000003 -0.17160000000000003)">
     <use xlink:href="#CalibreRegular-52"/>
     <use x="55.19999694824219" xlink:href="#CalibreRegular-6f"/>
     <use x="102.99998474121094" xlink:href="#CalibreRegular-6c"/>
     <use x="123.89997863769531" xlink:href="#CalibreRegular-6c"/>
     <use x="144.7999725341797" xlink:href="#CalibreRegular-65"/>
     <use x="190.49996948242188" xlink:href="#CalibreRegular-27"/>
     <use x="205.29995727539062" xlink:href="#CalibreRegular-73"/>
     <use x="246.699951171875" xlink:href="#CalibreRegular-20"/>
     <use x="268.79994201660156" xlink:href="#CalibreRegular-54"/>
     <use x="325.49993896484375" xlink:href="#CalibreRegular-68"/>
     <use x="374.3999328613281" xlink:href="#CalibreRegular-65"/>
     <use x="420.0999298095703" xlink:href="#CalibreRegular-6f"/>
     <use x="467.89991760253906" xlink:href="#CalibreRegular-72"/>
     <use x="499.9999084472656" xlink:href="#CalibreRegular-65"/>
     <use x="545.6999053955078" xlink:href="#CalibreRegular-6d"/>
     <use x="617.3998870849609" xlink:href="#CalibreRegular-20"/>
     <use x="639.4998779296875" xlink:href="#CalibreRegular-65"/>
     <use x="685.1998748779297" xlink:href="#CalibreRegular-78"/>
     <use x="730.0998687744141" xlink:href="#CalibreRegular-61"/>
     <use x="775.099853515625" xlink:href="#CalibreRegular-6d"/>
     <use x="846.7998352050781" xlink:href="#CalibreRegular-70"/>
     <use x="896.9998321533203" xlink:href="#CalibreRegular-6c"/>
     <use x="917.8998260498047" xlink:href="#CalibreRegular-65"/>
    </g>
   </g>
   <g id="line2d_55">
    <path clip-path="url(#p9f76a1e9e4)" d=" M93.2168 289 L98.9369 275.805 L105.081 262.182 L111.225 249.121 L117.369 236.611 L123.514 224.642 L129.099 214.223 L134.685 204.236 L140.27 194.675 L145.856 185.531 L151.441 176.798 L157.027 168.468 L162.613 160.534 L168.198 152.989 L173.784 145.825 L179.369 139.036 L184.955 132.613 L190.541 126.551 L196.126 120.841 L201.712 115.476 L207.297 110.449 L212.324 106.208 L217.351 102.23 L222.378 98.5089 L227.405 95.0398 L232.432 91.8175 L237.459 88.8367 L242.486 86.0921 L247.514 83.5783 L252.541 81.2902 L257.568 79.2224 L263.153 77.1768 L268.739 75.3895 L274.324 73.8531 L279.91 72.5604 L285.495 71.5042 L291.081 70.6772 L296.667 70.0721 L302.252 69.6817 L307.838 69.4988 L313.982 69.5286 L320.126 69.7909 L326.27 70.2762 L332.414 70.9747 L339.117 71.9686 L345.82 73.1923 L352.523 74.6333 L359.784 76.425 L367.045 78.441 L374.865 80.8446 L383.243 83.6656 L391.622 86.7166 L401.117 90.4218 L411.171 94.5932 L422.342 99.477 L435.189 105.345 L451.946 113.261 L492.162 132.367 L505.009 138.172 L516.18 142.983 L526.234 147.074 L535.73 150.69 L544.108 153.652 L552.486 156.374 L560.306 158.676 L567.568 160.591 L574.829 162.274 L581.532 163.607 L588.234 164.718 L594.937 165.592 L601.081 166.176 L607.225 166.54 L613.369 166.677 L619.514 166.576 L625.099 166.269 L630.685 165.751 L636.27 165.014 L641.856 164.05 L647.441 162.853 L648 162.72 L648 162.72" style="fill:none;stroke:#386df9;stroke-linecap:round;stroke-width:2.275;"/>
   </g>
   <g id="legend_1">
    <g id="line2d_56">
     <path d=" M540.178 49.106 L568.778 49.106" style="fill:none;stroke:#ffdc52;stroke-linecap:round;stroke-width:2;"/>
    </g>
    <g id="line2d_57"/>
    <g id="text_18">
     <!-- $\frac{dx}{dy}=0$ -->
     <defs>
      <path d=" M54.4062 45.2969 L34.4062 23.5938 L45.2031 0 L35.7969 0 L27.9062 17.5 L12.4062 0 L3 0 L25 23.9062 L15.4062 45.2969 L24.7969 45.2969 L31.5938 30.2031 L45 45.2969 z " id="STIXGeneral-Italic-1d639"/>
      <path d=" M63.7031 32 L4.79688 32 L4.79688 38.5938 L63.7031 38.5938 z  M63.7031 12 L4.79688 12 L4.79688 18.5938 L63.7031 18.5938 z " id="STIXGeneral-Regular-3d"/>
      <path d=" M60 67.9062 L46.2031 12.7969 Q44.5938 6.20312 44 1.29688 L36.2031 -1.09375 L35.4062 -0.59375 L36.4062 4.40625 Q29.5 -1 21.4062 -1 Q14.9062 -1 11.0469 3.04688 Q7.20312 7.09375 7.20312 14.4062 Q7.20312 26.9062 16.3906 36.5938 Q25.5938 46.2969 36 46.2969 Q41.5 46.2969 45.7969 42.5938 L51.5938 66 L59.2031 68.4062 z  M39.0938 15.7969 L43.4062 32.9062 Q40.7031 39.2031 34.5938 39.2031 Q28.0938 39.2031 21.7969 32.6406 Q15.5 26.0938 15.5 16.7969 Q15.5 11.5 18.1406 8.79688 Q20.7969 6.09375 25.2031 6.09375 Q28.7031 6.09375 32.5 8.75 Q36.2969 11.4062 39.0938 15.7969" id="STIXGeneral-Italic-1d625"/>
      <path d=" M56.5 45.2969 L26.4062 -4.40625 Q21 -13.2969 16.1406 -17.4375 Q11.2969 -21.5938 4.90625 -21.5938 Q0.09375 -21.5938 -1.90625 -19.2031 L-0.09375 -12 L1.5 -12 Q4.09375 -14.4062 6.90625 -14.4062 Q10.0938 -14.4062 13.7969 -10.5469 Q17.5 -6.70312 20.9062 -0.59375 Q21.0938 -0.203125 21.7969 0.9375 Q22.5 2.09375 22.7969 2.70312 Q21.4062 10.7969 18.2969 26.3906 Q15.2031 42 14.5938 45.2969 L23.2031 45.2969 L29.0938 13 L48 45.2969 z " id="STIXGeneral-Italic-1d63a"/>
      <path d=" M47.7031 33 Q47.7031 23.7969 45.5469 16.3438 Q43.4062 8.90625 38.0938 3.75 Q32.7969 -1.40625 25 -1.40625 Q18.7969 -1.40625 14.25 1.6875 Q9.70312 4.79688 7.20312 10.0469 Q4.70312 15.2969 3.5 21.1406 Q2.29688 27 2.29688 33.5938 Q2.29688 42.9062 4.59375 50.3438 Q6.90625 57.7969 12.2969 62.6875 Q17.7031 67.5938 25.4062 67.5938 Q35.2031 67.5938 41.4531 57.9375 Q47.7031 48.2969 47.7031 33 M39.7969 33 Q39.7969 45.2031 35.75 52.8438 Q31.7031 60.5 25.2031 60.5 Q17.7969 60.5 14 52.75 Q10.2031 45 10.2031 33.4062 Q10.2031 28.2031 10.9531 23.5469 Q11.7031 18.9062 13.3438 14.75 Q15 10.5938 18 8.14062 Q21 5.70312 25 5.70312 Q30.0938 5.70312 33.5469 9.79688 Q37 13.9062 38.3906 19.8438 Q39.7969 25.7969 39.7969 33" id="STIXGeneral-Regular-1d7e2"/>
     </defs>
     <g style="fill:#262626;" transform="translate(580.218 54.111)scale(0.14300000000000002 -0.14300000000000002)">
      <use transform="translate(0.0 39.115625)scale(0.7)" xlink:href="#STIXGeneral-Italic-1d625"/>
      <use transform="translate(34.57999572753906 39.115625)scale(0.7)" xlink:href="#STIXGeneral-Italic-1d639"/>
      <use transform="translate(0.0 -40.784375)scale(0.7)" xlink:href="#STIXGeneral-Italic-1d625"/>
      <use transform="translate(34.57999572753906 -40.784375)scale(0.7)" xlink:href="#STIXGeneral-Italic-1d63a"/>
      <use transform="translate(96.07998962402344 0.5531249999999943)" xlink:href="#STIXGeneral-Regular-3d"/>
      <use transform="translate(170.09061279296876 0.5531249999999943)" xlink:href="#STIXGeneral-Regular-1d7e2"/>
      <path d=" M0 13.35 L0 19.6 L68.46 19.6 L68.46 13.35 L0 13.35 z "/>
     </g>
    </g>
    <g id="line2d_58">
     <path d=" M540.178 74.417 L568.778 74.417" style="fill:none;stroke:#ff1614;stroke-linecap:round;stroke-width:2;"/>
    </g>
    <g id="line2d_59"/>
    <g id="text_19">
     <!-- $f(a) = f(b)$ -->
     <defs>
      <path d=" M30.4062 -16.0938 L29.2031 -17.7031 Q17.5938 -11.0938 11.1875 0.5 Q4.79688 12.0938 4.79688 25.2031 Q4.79688 52.9062 29.5 67.5938 L30.4062 66 Q20.2031 57.2969 16.7969 48.8438 Q13.4062 40.4062 13.4062 25.5 Q13.4062 10.7031 16.9062 1.5 Q20.4062 -7.70312 30.4062 -16.0938" id="STIXGeneral-Regular-28"/>
      <path d=" M16.9062 30.2031 L12.7969 33.2969 Q15.7969 40.0938 21.3438 43.1875 Q26.9062 46.2969 33.4062 46.2969 Q39.7031 46.2969 43.2031 43.6406 Q46.7031 41 46.7031 36.2031 Q46.7031 34.7969 46.2031 32.5938 L39.9062 7.59375 Q39.0938 4.70312 39.0938 0 L30.5938 0 L31.0938 4.40625 Q23.9062 -1 14.9062 -1 Q10.5 -1 8 0.953125 Q5.5 2.90625 5.5 6.59375 Q5.5 23.4062 37.5 29.4062 L38.2969 32.7031 Q38.5 33.7031 38.5 34.2031 Q38.5 36.5 36.5469 37.8438 Q34.5938 39.2031 31.4062 39.2031 Q23.7969 39.2031 18.4062 30.2031 z  M33.4062 13.2031 L35.7031 22.2031 Q13.9062 18.7031 13.9062 9.59375 Q13.9062 6.09375 18.7031 6.09375 Q25.5 6.09375 33.4062 13.2031" id="STIXGeneral-Italic-1d622"/>
      <path d=" M52.5938 63.2969 L48.7969 57.4062 L47.0938 57.2969 Q44.7031 59.5 43.3438 60.3438 Q42 61.2031 40.0938 61.2031 Q37 61.2031 34.4531 58.7031 Q31.9062 56.2031 30.5938 50.9062 L29.2031 45.2969 L40.5938 45.2969 L38.9062 38.2031 L27.5 38.2031 L18 0 L10.0938 0 L19.5938 38.2031 L11.5 38.2031 L13.2031 45.2969 L21.2969 45.2969 L22.4062 49.4062 Q25.2031 59.5 30.7969 64.2969 Q35.7969 68.2969 41.2031 68.2969 Q48 68.2969 52.5938 63.2969" id="STIXGeneral-Italic-1d627"/>
      <path d=" M31.0938 67.9062 L24.5 41.4062 Q31.2031 46.2969 38.5 46.2969 Q45.5 46.2969 49.5 42.25 Q53.5 38.2031 53.5 31.2969 Q53.5 18.2031 44 8.59375 Q34.5 -1 22.5 -1 Q12.2031 -1 7.40625 4.70312 L22.7031 66 L30.2969 68.4062 z  M21.7031 30.2031 L16.5 9.40625 Q19.5938 6.09375 24.7969 6.09375 Q32 6.09375 38.5938 12.3906 Q45.2031 18.7031 45.2031 28.7969 Q45.2031 33.5938 42.6406 36.3906 Q40.0938 39.2031 35.2031 39.2031 Q31.5938 39.2031 27.9375 36.8438 Q24.2969 34.5 21.7031 30.2031" id="STIXGeneral-Italic-1d623"/>
      <path d=" M2.90625 66 L4.09375 67.5938 Q15.5 60.7969 22 49.1875 Q28.5 37.5938 28.5 24.7031 Q28.5 -2.59375 3.79688 -17.7031 L2.90625 -16.0938 Q13.2031 -7.59375 16.5469 0.84375 Q19.9062 9.29688 19.9062 24.4062 Q19.9062 39.5938 16.5469 48.75 Q13.2031 57.9062 2.90625 66" id="STIXGeneral-Regular-29"/>
     </defs>
     <g style="fill:#262626;" transform="translate(580.218 79.422)scale(0.14300000000000002 -0.14300000000000002)">
      <use transform="translate(0.0 0.59375)" xlink:href="#STIXGeneral-Italic-1d627"/>
      <use transform="translate(33.59999084472656 0.59375)" xlink:href="#STIXGeneral-Regular-28"/>
      <use transform="translate(66.89997863769531 0.59375)" xlink:href="#STIXGeneral-Italic-1d622"/>
      <use transform="translate(111.69996643066406 0.59375)" xlink:href="#STIXGeneral-Regular-29"/>
      <use transform="translate(160.1199523925781 0.59375)" xlink:href="#STIXGeneral-Regular-3d"/>
      <use transform="translate(234.13057556152344 0.59375)" xlink:href="#STIXGeneral-Italic-1d627"/>
      <use transform="translate(267.73056640625 0.59375)" xlink:href="#STIXGeneral-Regular-28"/>
      <use transform="translate(301.0305541992187 0.59375)" xlink:href="#STIXGeneral-Italic-1d623"/>
      <use transform="translate(350.6305450439453 0.59375)" xlink:href="#STIXGeneral-Regular-29"/>
     </g>
    </g>
   </g>
  </g>
 </g>
 </svg>
