<?xml version="1.0" encoding="utf-8"?>
<!-- Generator: Adobe Illustrator 16.0.0, SVG Export Plug-In . SVG Version: 6.00 Build 0)  -->
<!DOCTYPE svg PUBLIC "-//W3C//DTD SVG 1.1 Tiny//EN" "http://www.w3.org/Graphics/SVG/1.1/DTD/svg11-tiny.dtd">
<svg version="1.1" baseProfile="tiny" id="Layer_1" xmlns="http://www.w3.org/2000/svg" xmlns:xlink="http://www.w3.org/1999/xlink"
	 x="0px" y="0px" width="563.999px" height="147.947px" viewBox="0 0 563.999 147.947" xml:space="preserve">
<g>
	<rect y="15.201" fill="none" width="91.125" height="10.125"/>
	<path d="M0.958,23.976v-8.775h0.675v3.739c0.198-0.306,0.466-0.562,0.803-0.77c0.338-0.207,0.709-0.311,1.114-0.311
		c0.666,0,1.179,0.196,1.539,0.587s0.54,0.911,0.54,1.559v3.969H4.968v-3.875c0-0.486-0.128-0.877-0.385-1.174
		c-0.256-0.297-0.641-0.446-1.154-0.446c-0.396,0-0.756,0.122-1.08,0.365c-0.324,0.243-0.562,0.553-0.716,0.931v4.199H0.958z"/>
	<path d="M11.556,23.976h-0.648v-0.567c-0.144,0.171-0.369,0.324-0.675,0.459c-0.306,0.135-0.634,0.203-0.985,0.203
		c-0.63,0-1.157-0.169-1.58-0.506c-0.423-0.337-0.634-0.785-0.634-1.343c0-0.54,0.216-0.981,0.648-1.323
		c0.432-0.342,0.963-0.513,1.593-0.513c0.324,0,0.639,0.065,0.945,0.196c0.306,0.13,0.535,0.276,0.688,0.438v-1.066
		c0-0.45-0.133-0.812-0.398-1.087c-0.266-0.274-0.632-0.412-1.1-0.412c-0.747,0-1.233,0.342-1.458,1.026H7.29
		c0.117-0.504,0.367-0.9,0.749-1.188c0.383-0.288,0.839-0.432,1.371-0.432c0.666,0,1.19,0.187,1.573,0.561
		c0.382,0.374,0.574,0.875,0.574,1.505V23.976z M10.908,22.612v-0.77c-0.099-0.261-0.299-0.475-0.601-0.642
		c-0.302-0.167-0.632-0.25-0.992-0.25c-0.459,0-0.848,0.11-1.167,0.331c-0.32,0.221-0.479,0.533-0.479,0.938
		c0,0.405,0.16,0.72,0.479,0.945c0.319,0.225,0.708,0.337,1.167,0.337c0.36,0,0.69-0.083,0.992-0.25S10.809,22.873,10.908,22.612z"
		/>
	<path d="M12.852,22.423h0.675c0.243,0.729,0.801,1.094,1.674,1.094c0.432,0,0.783-0.095,1.053-0.284s0.405-0.463,0.405-0.823
		c0-0.504-0.369-0.859-1.107-1.066l-1.121-0.311c-0.945-0.252-1.417-0.756-1.417-1.512c0-0.504,0.193-0.907,0.581-1.208
		c0.387-0.302,0.869-0.453,1.444-0.453c0.612,0,1.109,0.145,1.492,0.432c0.382,0.288,0.627,0.688,0.735,1.202h-0.661
		c-0.234-0.702-0.756-1.053-1.566-1.053c-0.396,0-0.725,0.093-0.985,0.277c-0.261,0.185-0.392,0.443-0.392,0.776
		c0,0.27,0.083,0.473,0.25,0.607c0.167,0.135,0.443,0.256,0.83,0.365l1.066,0.297c0.999,0.261,1.499,0.806,1.499,1.633
		c0,0.531-0.198,0.947-0.594,1.249c-0.396,0.301-0.905,0.452-1.525,0.452c-0.612,0-1.132-0.148-1.56-0.446
		C13.201,23.354,12.941,22.945,12.852,22.423z"/>
	<path d="M21.775,23.976v-8.775h0.675v3.739c0.198-0.306,0.466-0.562,0.803-0.77c0.338-0.207,0.709-0.311,1.114-0.311
		c0.666,0,1.179,0.196,1.539,0.587s0.54,0.911,0.54,1.559v3.969h-0.662v-3.875c0-0.486-0.128-0.877-0.385-1.174
		c-0.256-0.297-0.641-0.446-1.154-0.446c-0.396,0-0.756,0.122-1.08,0.365c-0.324,0.243-0.562,0.553-0.716,0.931v4.199H21.775z"/>
	<path d="M32.373,23.976h-0.648v-0.567c-0.144,0.171-0.369,0.324-0.675,0.459c-0.306,0.135-0.634,0.203-0.985,0.203
		c-0.63,0-1.157-0.169-1.58-0.506c-0.423-0.337-0.634-0.785-0.634-1.343c0-0.54,0.216-0.981,0.648-1.323
		c0.432-0.342,0.963-0.513,1.593-0.513c0.324,0,0.639,0.065,0.945,0.196c0.306,0.13,0.535,0.276,0.688,0.438v-1.066
		c0-0.45-0.133-0.812-0.398-1.087c-0.266-0.274-0.632-0.412-1.1-0.412c-0.747,0-1.233,0.342-1.458,1.026h-0.662
		c0.117-0.504,0.367-0.9,0.749-1.188c0.383-0.288,0.839-0.432,1.371-0.432c0.666,0,1.19,0.187,1.573,0.561
		c0.382,0.374,0.574,0.875,0.574,1.505V23.976z M31.725,22.612v-0.77c-0.099-0.261-0.299-0.475-0.601-0.642
		c-0.302-0.167-0.632-0.25-0.992-0.25c-0.459,0-0.848,0.11-1.167,0.331c-0.32,0.221-0.479,0.533-0.479,0.938
		c0,0.405,0.16,0.72,0.479,0.945c0.319,0.225,0.708,0.337,1.167,0.337c0.36,0,0.69-0.083,0.992-0.25S31.625,22.873,31.725,22.612z"
		/>
	<path d="M34.883,15.835c0.09,0.09,0.135,0.198,0.135,0.324s-0.045,0.234-0.135,0.324c-0.09,0.09-0.198,0.135-0.324,0.135
		s-0.234-0.045-0.324-0.135c-0.09-0.09-0.135-0.198-0.135-0.324s0.045-0.234,0.135-0.324c0.09-0.09,0.198-0.135,0.324-0.135
		S34.793,15.745,34.883,15.835z M34.896,17.981v5.994h-0.675v-5.994H34.896z"/>
	<path d="M39.635,17.941v0.662c-0.171-0.072-0.355-0.108-0.553-0.108c-0.36,0-0.68,0.117-0.958,0.351
		c-0.279,0.234-0.491,0.549-0.635,0.945v4.185h-0.675v-5.994h0.675v0.958c0.144-0.315,0.36-0.574,0.648-0.776
		c0.288-0.203,0.612-0.304,0.972-0.304C39.279,17.86,39.455,17.887,39.635,17.941z"/>
</g>
<g>
	<rect y="35.451" fill="none" width="91.125" height="10.125"/>
	<path d="M0.958,44.226v-8.775h0.675v3.739c0.198-0.306,0.466-0.562,0.803-0.77c0.338-0.207,0.709-0.311,1.114-0.311
		c0.666,0,1.179,0.196,1.539,0.587s0.54,0.911,0.54,1.559v3.969H4.968v-3.875c0-0.486-0.128-0.877-0.385-1.174
		c-0.256-0.297-0.641-0.446-1.154-0.446c-0.396,0-0.756,0.122-1.08,0.365c-0.324,0.243-0.562,0.553-0.716,0.931v4.199H0.958z"/>
	<path d="M11.556,44.226h-0.648v-0.567c-0.144,0.171-0.369,0.324-0.675,0.459c-0.306,0.135-0.634,0.203-0.985,0.203
		c-0.63,0-1.157-0.169-1.58-0.506c-0.423-0.337-0.634-0.785-0.634-1.343c0-0.54,0.216-0.981,0.648-1.323
		c0.432-0.342,0.963-0.513,1.593-0.513c0.324,0,0.639,0.065,0.945,0.196c0.306,0.13,0.535,0.276,0.688,0.438v-1.066
		c0-0.45-0.133-0.812-0.398-1.087c-0.266-0.274-0.632-0.412-1.1-0.412c-0.747,0-1.233,0.342-1.458,1.026H7.29
		c0.117-0.504,0.367-0.9,0.749-1.188c0.383-0.288,0.839-0.432,1.371-0.432c0.666,0,1.19,0.187,1.573,0.561
		c0.382,0.374,0.574,0.875,0.574,1.505V44.226z M10.908,42.862v-0.77c-0.099-0.261-0.299-0.475-0.601-0.642
		c-0.302-0.167-0.632-0.25-0.992-0.25c-0.459,0-0.848,0.11-1.167,0.331c-0.32,0.221-0.479,0.533-0.479,0.938
		c0,0.405,0.16,0.72,0.479,0.945c0.319,0.225,0.708,0.337,1.167,0.337c0.36,0,0.69-0.083,0.992-0.25S10.809,43.123,10.908,42.862z"
		/>
	<path d="M12.852,42.673h0.675c0.243,0.729,0.801,1.094,1.674,1.094c0.432,0,0.783-0.095,1.053-0.284s0.405-0.463,0.405-0.823
		c0-0.504-0.369-0.859-1.107-1.066l-1.121-0.311c-0.945-0.252-1.417-0.756-1.417-1.512c0-0.504,0.193-0.907,0.581-1.208
		c0.387-0.302,0.869-0.453,1.444-0.453c0.612,0,1.109,0.145,1.492,0.432c0.382,0.288,0.627,0.688,0.735,1.202h-0.661
		c-0.234-0.702-0.756-1.053-1.566-1.053c-0.396,0-0.725,0.093-0.985,0.277c-0.261,0.185-0.392,0.443-0.392,0.776
		c0,0.27,0.083,0.473,0.25,0.607c0.167,0.135,0.443,0.256,0.83,0.365l1.066,0.297c0.999,0.261,1.499,0.806,1.499,1.633
		c0,0.531-0.198,0.947-0.594,1.249c-0.396,0.301-0.905,0.452-1.525,0.452c-0.612,0-1.132-0.148-1.56-0.446
		C13.201,43.604,12.941,43.195,12.852,42.673z"/>
	<path d="M22.072,43.483c-0.486-0.576-0.729-1.327-0.729-2.254c0-0.927,0.243-1.678,0.729-2.254
		c0.486-0.576,1.125-0.864,1.917-0.864c0.621,0,1.132,0.169,1.532,0.506s0.655,0.79,0.763,1.357h-0.688
		c-0.09-0.396-0.274-0.704-0.553-0.925c-0.279-0.22-0.63-0.331-1.053-0.331c-0.585,0-1.06,0.229-1.424,0.688
		c-0.364,0.459-0.546,1.066-0.546,1.822s0.182,1.364,0.546,1.823c0.365,0.459,0.839,0.688,1.424,0.688
		c0.423,0,0.774-0.11,1.053-0.331c0.279-0.22,0.463-0.528,0.553-0.925h0.688c-0.108,0.567-0.362,1.02-0.763,1.357
		s-0.911,0.506-1.532,0.506C23.197,44.347,22.558,44.059,22.072,43.483z"/>
	<path d="M28.417,35.451v8.775h-0.675v-8.775H28.417z"/>
	<path d="M34.411,44.226h-0.648v-0.567c-0.144,0.171-0.369,0.324-0.675,0.459c-0.306,0.135-0.634,0.203-0.985,0.203
		c-0.63,0-1.157-0.169-1.58-0.506c-0.423-0.337-0.634-0.785-0.634-1.343c0-0.54,0.216-0.981,0.648-1.323
		c0.432-0.342,0.963-0.513,1.593-0.513c0.324,0,0.639,0.065,0.945,0.196c0.306,0.13,0.535,0.276,0.688,0.438v-1.066
		c0-0.45-0.133-0.812-0.398-1.087c-0.266-0.274-0.632-0.412-1.1-0.412c-0.747,0-1.233,0.342-1.458,1.026h-0.662
		c0.117-0.504,0.367-0.9,0.749-1.188c0.383-0.288,0.839-0.432,1.371-0.432c0.666,0,1.19,0.187,1.573,0.561
		c0.382,0.374,0.574,0.875,0.574,1.505V44.226z M33.763,42.862v-0.77c-0.099-0.261-0.299-0.475-0.601-0.642
		c-0.302-0.167-0.632-0.25-0.992-0.25c-0.459,0-0.848,0.11-1.167,0.331c-0.32,0.221-0.479,0.533-0.479,0.938
		c0,0.405,0.16,0.72,0.479,0.945c0.319,0.225,0.708,0.337,1.167,0.337c0.36,0,0.69-0.083,0.992-0.25S33.664,43.123,33.763,42.862z"
		/>
	<path d="M39.662,38.231l1.431,4.941l1.472-4.941h0.648l-1.809,5.994h-0.581l-1.444-4.955l-1.445,4.955h-0.581l-1.809-5.994h0.661
		l1.472,4.941l1.431-4.941H39.662z"/>
	<path d="M43.847,42.673h0.675c0.243,0.729,0.801,1.094,1.674,1.094c0.432,0,0.783-0.095,1.053-0.284s0.405-0.463,0.405-0.823
		c0-0.504-0.369-0.859-1.107-1.066l-1.121-0.311c-0.945-0.252-1.417-0.756-1.417-1.512c0-0.504,0.193-0.907,0.581-1.208
		c0.387-0.302,0.869-0.453,1.444-0.453c0.612,0,1.109,0.145,1.492,0.432c0.382,0.288,0.627,0.688,0.735,1.202H47.6
		c-0.234-0.702-0.756-1.053-1.566-1.053c-0.396,0-0.725,0.093-0.985,0.277c-0.261,0.185-0.392,0.443-0.392,0.776
		c0,0.27,0.083,0.473,0.25,0.607c0.167,0.135,0.443,0.256,0.83,0.365l1.066,0.297c0.999,0.261,1.499,0.806,1.499,1.633
		c0,0.531-0.198,0.947-0.594,1.249c-0.396,0.301-0.905,0.452-1.525,0.452c-0.612,0-1.132-0.148-1.56-0.446
		C44.196,43.604,43.937,43.195,43.847,42.673z"/>
</g>
<g>
	<rect y="55.701" fill="none" width="91.125" height="10.125"/>
	<path d="M0.958,64.476v-8.775h0.675v3.739c0.198-0.306,0.466-0.562,0.803-0.77c0.338-0.207,0.709-0.311,1.114-0.311
		c0.666,0,1.179,0.196,1.539,0.587s0.54,0.911,0.54,1.559v3.969H4.968v-3.875c0-0.486-0.128-0.877-0.385-1.174
		c-0.256-0.297-0.641-0.446-1.154-0.446c-0.396,0-0.756,0.122-1.08,0.365c-0.324,0.243-0.562,0.553-0.716,0.931v4.199H0.958z"/>
	<path d="M11.556,64.476h-0.648v-0.567c-0.144,0.171-0.369,0.324-0.675,0.459c-0.306,0.135-0.634,0.203-0.985,0.203
		c-0.63,0-1.157-0.169-1.58-0.506c-0.423-0.337-0.634-0.785-0.634-1.343c0-0.54,0.216-0.981,0.648-1.323
		c0.432-0.342,0.963-0.513,1.593-0.513c0.324,0,0.639,0.065,0.945,0.196c0.306,0.13,0.535,0.276,0.688,0.438v-1.066
		c0-0.45-0.133-0.812-0.398-1.087c-0.266-0.274-0.632-0.412-1.1-0.412c-0.747,0-1.233,0.342-1.458,1.026H7.29
		c0.117-0.504,0.367-0.9,0.749-1.188c0.383-0.288,0.839-0.432,1.371-0.432c0.666,0,1.19,0.187,1.573,0.561
		c0.382,0.374,0.574,0.875,0.574,1.505V64.476z M10.908,63.112v-0.77c-0.099-0.261-0.299-0.475-0.601-0.642
		c-0.302-0.167-0.632-0.25-0.992-0.25c-0.459,0-0.848,0.11-1.167,0.331c-0.32,0.221-0.479,0.533-0.479,0.938
		c0,0.405,0.16,0.72,0.479,0.945c0.319,0.225,0.708,0.337,1.167,0.337c0.36,0,0.69-0.083,0.992-0.25S10.809,63.373,10.908,63.112z"
		/>
	<path d="M12.852,62.923h0.675c0.243,0.729,0.801,1.094,1.674,1.094c0.432,0,0.783-0.095,1.053-0.284s0.405-0.463,0.405-0.823
		c0-0.504-0.369-0.859-1.107-1.066l-1.121-0.311c-0.945-0.252-1.417-0.756-1.417-1.512c0-0.504,0.193-0.907,0.581-1.208
		c0.387-0.302,0.869-0.453,1.444-0.453c0.612,0,1.109,0.145,1.492,0.432c0.382,0.288,0.627,0.688,0.735,1.202h-0.661
		c-0.234-0.702-0.756-1.053-1.566-1.053c-0.396,0-0.725,0.093-0.985,0.277c-0.261,0.185-0.392,0.443-0.392,0.776
		c0,0.27,0.083,0.473,0.25,0.607c0.167,0.135,0.443,0.256,0.83,0.365l1.066,0.297c0.999,0.261,1.499,0.806,1.499,1.633
		c0,0.531-0.198,0.947-0.594,1.249c-0.396,0.301-0.905,0.452-1.525,0.452c-0.612,0-1.132-0.148-1.56-0.446
		C13.201,63.854,12.941,63.445,12.852,62.923z"/>
	<path d="M21.221,62.923h0.675c0.243,0.729,0.801,1.094,1.674,1.094c0.432,0,0.783-0.095,1.053-0.284s0.405-0.463,0.405-0.823
		c0-0.504-0.369-0.859-1.107-1.066l-1.121-0.311c-0.945-0.252-1.417-0.756-1.417-1.512c0-0.504,0.193-0.907,0.581-1.208
		c0.387-0.302,0.869-0.453,1.444-0.453c0.612,0,1.109,0.145,1.492,0.432c0.382,0.288,0.627,0.688,0.735,1.202h-0.661
		c-0.234-0.702-0.756-1.053-1.566-1.053c-0.396,0-0.725,0.093-0.985,0.277c-0.261,0.185-0.392,0.443-0.392,0.776
		c0,0.27,0.083,0.473,0.25,0.607c0.167,0.135,0.443,0.256,0.83,0.365l1.066,0.297c0.999,0.261,1.499,0.806,1.499,1.633
		c0,0.531-0.198,0.947-0.594,1.249c-0.396,0.301-0.905,0.452-1.525,0.452c-0.612,0-1.132-0.148-1.56-0.446
		C21.57,63.854,21.311,63.445,21.221,62.923z"/>
	<path d="M27.161,64.476v-8.775h0.675v3.739c0.198-0.306,0.466-0.562,0.803-0.77c0.338-0.207,0.709-0.311,1.114-0.311
		c0.666,0,1.179,0.196,1.539,0.587s0.54,0.911,0.54,1.559v3.969H31.17v-3.875c0-0.486-0.128-0.877-0.385-1.174
		c-0.256-0.297-0.641-0.446-1.154-0.446c-0.396,0-0.756,0.122-1.08,0.365c-0.324,0.243-0.562,0.553-0.716,0.931v4.199H27.161z"/>
	<path d="M37.759,64.476h-0.648v-0.567c-0.144,0.171-0.369,0.324-0.675,0.459c-0.306,0.135-0.634,0.203-0.985,0.203
		c-0.63,0-1.157-0.169-1.58-0.506c-0.423-0.337-0.634-0.785-0.634-1.343c0-0.54,0.216-0.981,0.648-1.323
		c0.432-0.342,0.963-0.513,1.593-0.513c0.324,0,0.639,0.065,0.945,0.196c0.306,0.13,0.535,0.276,0.688,0.438v-1.066
		c0-0.45-0.133-0.812-0.398-1.087c-0.266-0.274-0.632-0.412-1.1-0.412c-0.747,0-1.233,0.342-1.458,1.026h-0.662
		c0.117-0.504,0.367-0.9,0.749-1.188c0.383-0.288,0.839-0.432,1.371-0.432c0.666,0,1.19,0.187,1.573,0.561
		c0.382,0.374,0.574,0.875,0.574,1.505V64.476z M37.111,63.112v-0.77c-0.099-0.261-0.299-0.475-0.601-0.642
		c-0.302-0.167-0.632-0.25-0.992-0.25c-0.459,0-0.848,0.11-1.167,0.331c-0.32,0.221-0.479,0.533-0.479,0.938
		c0,0.405,0.16,0.72,0.479,0.945c0.319,0.225,0.708,0.337,1.167,0.337c0.36,0,0.69-0.083,0.992-0.25S37.012,63.373,37.111,63.112z"
		/>
	<path d="M42.429,58.441v0.662c-0.171-0.072-0.355-0.108-0.553-0.108c-0.36,0-0.68,0.117-0.958,0.351
		c-0.279,0.234-0.491,0.549-0.635,0.945v4.185h-0.675v-5.994h0.675v0.958c0.144-0.315,0.36-0.574,0.648-0.776
		c0.288-0.203,0.612-0.304,0.972-0.304C42.074,58.36,42.25,58.387,42.429,58.441z"/>
	<path d="M44.346,63.584v3.186h-0.675v-8.289h0.675v0.891c0.18-0.279,0.439-0.518,0.776-0.715s0.7-0.297,1.087-0.297
		c0.837,0,1.482,0.299,1.937,0.898s0.682,1.339,0.682,2.221c0,0.882-0.228,1.623-0.682,2.221c-0.455,0.599-1.1,0.898-1.937,0.898
		c-0.387,0-0.75-0.099-1.087-0.297C44.785,64.102,44.526,63.864,44.346,63.584z M44.346,60.169v2.619
		c0.414,0.792,1.013,1.188,1.796,1.188c0.621,0,1.111-0.231,1.471-0.695c0.36-0.463,0.54-1.064,0.54-1.802
		c0-0.738-0.18-1.338-0.54-1.802c-0.36-0.463-0.851-0.695-1.471-0.695C45.359,58.981,44.76,59.377,44.346,60.169z"/>
	<path d="M53.566,63.085v-4.023h-1.013v-0.581h1.013v-1.539h0.662v1.539h1.552v0.581h-1.552v3.956c0,0.648,0.288,0.972,0.864,0.972
		c0.288,0,0.562-0.077,0.824-0.229v0.634c-0.252,0.135-0.549,0.203-0.891,0.203c-0.45,0-0.806-0.128-1.066-0.385
		C53.697,63.956,53.566,63.58,53.566,63.085z"/>
	<path d="M61.14,62.734h0.648c-0.117,0.567-0.38,1.02-0.79,1.357c-0.41,0.337-0.92,0.506-1.532,0.506
		c-0.792,0-1.434-0.288-1.924-0.864c-0.491-0.576-0.736-1.327-0.736-2.254c0-0.909,0.241-1.656,0.722-2.241s1.123-0.878,1.924-0.878
		c0.774,0,1.373,0.268,1.795,0.804c0.423,0.535,0.635,1.244,0.635,2.126v0.243h-4.415c0.009,0.756,0.198,1.356,0.567,1.802
		c0.369,0.445,0.846,0.668,1.431,0.668c0.423,0,0.785-0.112,1.087-0.337C60.854,63.441,61.05,63.13,61.14,62.734z M59.452,58.954
		c-0.54,0-0.983,0.185-1.33,0.554c-0.347,0.369-0.556,0.869-0.628,1.498h3.713c-0.019-0.576-0.176-1.062-0.473-1.458
		C60.438,59.152,60.01,58.954,59.452,58.954z"/>
	<path d="M67.268,62.734h0.648c-0.117,0.567-0.38,1.02-0.79,1.357c-0.41,0.337-0.92,0.506-1.532,0.506
		c-0.792,0-1.434-0.288-1.924-0.864c-0.491-0.576-0.736-1.327-0.736-2.254c0-0.909,0.241-1.656,0.722-2.241s1.123-0.878,1.924-0.878
		c0.774,0,1.373,0.268,1.795,0.804c0.423,0.535,0.635,1.244,0.635,2.126v0.243h-4.415c0.009,0.756,0.198,1.356,0.567,1.802
		c0.369,0.445,0.846,0.668,1.431,0.668c0.423,0,0.785-0.112,1.087-0.337C66.982,63.441,67.178,63.13,67.268,62.734z M65.581,58.954
		c-0.54,0-0.983,0.185-1.33,0.554c-0.347,0.369-0.556,0.869-0.628,1.498h3.713c-0.019-0.576-0.176-1.062-0.473-1.458
		C66.566,59.152,66.139,58.954,65.581,58.954z"/>
	<path d="M69.752,63.085v-4.023h-1.013v-0.581h1.013v-1.539h0.662v1.539h1.552v0.581h-1.552v3.956c0,0.648,0.288,0.972,0.864,0.972
		c0.288,0,0.562-0.077,0.824-0.229v0.634c-0.252,0.135-0.549,0.203-0.891,0.203c-0.45,0-0.806-0.128-1.066-0.385
		C69.882,63.956,69.752,63.58,69.752,63.085z"/>
	<path d="M73.491,64.476v-8.775h0.675v3.739c0.198-0.306,0.466-0.562,0.803-0.77c0.338-0.207,0.709-0.311,1.114-0.311
		c0.666,0,1.179,0.196,1.539,0.587s0.54,0.911,0.54,1.559v3.969H77.5v-3.875c0-0.486-0.128-0.877-0.385-1.174
		c-0.256-0.297-0.641-0.446-1.154-0.446c-0.396,0-0.756,0.122-1.08,0.365c-0.324,0.243-0.562,0.553-0.716,0.931v4.199H73.491z"/>
</g>
<g>
	<rect y="75.951" fill="none" width="182.25" height="10.125"/>
	<path d="M0.958,84.726v-8.775h0.675v3.739c0.198-0.306,0.466-0.562,0.803-0.77c0.338-0.206,0.709-0.311,1.114-0.311
		c0.666,0,1.179,0.196,1.539,0.588s0.54,0.911,0.54,1.559v3.97H4.968v-3.875c0-0.485-0.128-0.877-0.385-1.174
		c-0.256-0.298-0.641-0.446-1.154-0.446c-0.396,0-0.756,0.122-1.08,0.365c-0.324,0.242-0.562,0.553-0.716,0.931v4.199H0.958z"/>
	<path d="M11.556,84.726h-0.648v-0.567c-0.144,0.171-0.369,0.324-0.675,0.459s-0.634,0.203-0.985,0.203
		c-0.63,0-1.157-0.169-1.58-0.507c-0.423-0.337-0.634-0.785-0.634-1.343c0-0.54,0.216-0.981,0.648-1.323
		c0.432-0.342,0.963-0.513,1.593-0.513c0.324,0,0.639,0.065,0.945,0.195c0.306,0.131,0.535,0.276,0.688,0.438v-1.066
		c0-0.45-0.133-0.812-0.398-1.087c-0.266-0.274-0.632-0.411-1.1-0.411c-0.747,0-1.233,0.342-1.458,1.025H7.29
		c0.117-0.504,0.367-0.899,0.749-1.188c0.383-0.288,0.839-0.433,1.371-0.433c0.666,0,1.19,0.188,1.573,0.561
		c0.382,0.374,0.574,0.876,0.574,1.506V84.726z M10.908,83.363v-0.77c-0.099-0.262-0.299-0.475-0.601-0.642s-0.632-0.25-0.992-0.25
		c-0.459,0-0.848,0.11-1.167,0.331c-0.32,0.221-0.479,0.533-0.479,0.938c0,0.404,0.16,0.72,0.479,0.944
		c0.319,0.226,0.708,0.338,1.167,0.338c0.36,0,0.69-0.083,0.992-0.25C10.609,83.837,10.809,83.624,10.908,83.363z"/>
	<path d="M12.852,83.173h0.675c0.243,0.729,0.801,1.094,1.674,1.094c0.432,0,0.783-0.095,1.053-0.284
		c0.27-0.188,0.405-0.463,0.405-0.823c0-0.504-0.369-0.859-1.107-1.066l-1.121-0.311c-0.945-0.252-1.417-0.756-1.417-1.512
		c0-0.504,0.193-0.907,0.581-1.208c0.387-0.302,0.869-0.453,1.444-0.453c0.612,0,1.109,0.145,1.492,0.433
		c0.382,0.288,0.627,0.688,0.735,1.201h-0.661c-0.234-0.702-0.756-1.053-1.566-1.053c-0.396,0-0.725,0.093-0.985,0.276
		c-0.261,0.185-0.392,0.443-0.392,0.776c0,0.271,0.083,0.473,0.25,0.607c0.167,0.136,0.443,0.257,0.83,0.365l1.066,0.297
		c0.999,0.261,1.499,0.806,1.499,1.633c0,0.531-0.198,0.947-0.594,1.249c-0.396,0.302-0.905,0.452-1.525,0.452
		c-0.612,0-1.132-0.148-1.56-0.445S12.941,83.696,12.852,83.173z"/>
	<path d="M24.448,75.951v0.621c-0.18-0.099-0.382-0.148-0.607-0.148c-0.324,0-0.587,0.115-0.79,0.345
		c-0.203,0.229-0.304,0.546-0.304,0.951v1.013h1.404v0.58h-1.404v5.414h-0.662v-5.414h-0.972v-0.58h0.972v-1.08
		c0-0.54,0.157-0.979,0.473-1.316c0.315-0.337,0.72-0.506,1.215-0.506C24.016,75.83,24.241,75.87,24.448,75.951z"/>
	<path d="M29.355,79.474c0.491,0.576,0.736,1.328,0.736,2.255s-0.245,1.679-0.736,2.254c-0.491,0.576-1.132,0.864-1.924,0.864
		S26,84.559,25.514,83.983c-0.486-0.575-0.729-1.327-0.729-2.254s0.243-1.679,0.729-2.255c0.486-0.575,1.125-0.864,1.917-0.864
		S28.864,78.899,29.355,79.474z M28.876,83.558c0.36-0.464,0.54-1.073,0.54-1.829s-0.18-1.366-0.54-1.829
		c-0.36-0.464-0.842-0.695-1.445-0.695c-0.594,0-1.071,0.231-1.431,0.695c-0.36,0.463-0.54,1.073-0.54,1.829s0.18,1.365,0.54,1.829
		c0.36,0.464,0.837,0.695,1.431,0.695C28.034,84.253,28.516,84.022,28.876,83.558z"/>
	<path d="M34.397,78.691v0.662c-0.171-0.072-0.355-0.108-0.553-0.108c-0.36,0-0.68,0.117-0.958,0.352
		c-0.279,0.233-0.491,0.549-0.635,0.944v4.186h-0.675v-5.994h0.675v0.958c0.144-0.314,0.36-0.573,0.648-0.775
		c0.288-0.203,0.612-0.305,0.972-0.305C34.042,78.61,34.217,78.637,34.397,78.691z"/>
	<path d="M39.041,78.732l1.431,4.94l1.472-4.94h0.648l-1.809,5.994h-0.581l-1.444-4.955l-1.445,4.955h-0.581l-1.809-5.994h0.661
		l1.472,4.94l1.431-4.94H39.041z"/>
	<path d="M47.857,84.726h-0.648v-0.567c-0.144,0.171-0.369,0.324-0.675,0.459s-0.634,0.203-0.985,0.203
		c-0.63,0-1.157-0.169-1.58-0.507c-0.423-0.337-0.634-0.785-0.634-1.343c0-0.54,0.216-0.981,0.648-1.323
		c0.432-0.342,0.963-0.513,1.593-0.513c0.324,0,0.639,0.065,0.945,0.195c0.306,0.131,0.535,0.276,0.688,0.438v-1.066
		c0-0.45-0.133-0.812-0.398-1.087c-0.266-0.274-0.632-0.411-1.1-0.411c-0.747,0-1.233,0.342-1.458,1.025h-0.662
		c0.117-0.504,0.367-0.899,0.749-1.188c0.383-0.288,0.839-0.433,1.371-0.433c0.666,0,1.19,0.188,1.573,0.561
		c0.382,0.374,0.574,0.876,0.574,1.506V84.726z M47.209,83.363v-0.77c-0.099-0.262-0.299-0.475-0.601-0.642s-0.632-0.25-0.992-0.25
		c-0.459,0-0.848,0.11-1.167,0.331c-0.32,0.221-0.479,0.533-0.479,0.938c0,0.404,0.16,0.72,0.479,0.944
		c0.319,0.226,0.708,0.338,1.167,0.338c0.36,0,0.69-0.083,0.992-0.25C46.91,83.837,47.11,83.624,47.209,83.363z"/>
	<path d="M52.527,78.691v0.662c-0.171-0.072-0.355-0.108-0.553-0.108c-0.36,0-0.68,0.117-0.958,0.352
		c-0.279,0.233-0.491,0.549-0.635,0.944v4.186h-0.675v-5.994h0.675v0.958c0.144-0.314,0.36-0.573,0.648-0.775
		c0.288-0.203,0.612-0.305,0.972-0.305C52.172,78.61,52.348,78.637,52.527,78.691z"/>
	<path d="M57.671,84.726v-0.892c-0.18,0.279-0.438,0.518-0.776,0.716c-0.338,0.198-0.7,0.297-1.087,0.297
		c-0.846,0-1.494-0.299-1.944-0.897c-0.45-0.599-0.675-1.339-0.675-2.221s0.225-1.622,0.675-2.221
		c0.45-0.599,1.098-0.898,1.944-0.898c0.387,0,0.749,0.1,1.087,0.298c0.337,0.197,0.596,0.437,0.776,0.715v-3.672h0.662v8.775
		H57.671z M57.671,83.039v-2.619c-0.198-0.378-0.457-0.671-0.776-0.878c-0.32-0.207-0.664-0.311-1.033-0.311
		c-0.612,0-1.098,0.232-1.458,0.695c-0.36,0.464-0.54,1.064-0.54,1.803s0.18,1.339,0.54,1.802c0.36,0.464,0.846,0.695,1.458,0.695
		c0.369,0,0.713-0.104,1.033-0.311C57.214,83.708,57.473,83.417,57.671,83.039z"/>
	<path d="M63.921,83.834v3.187h-0.675v-8.289h0.675v0.891c0.18-0.278,0.439-0.518,0.776-0.715c0.337-0.198,0.7-0.298,1.087-0.298
		c0.837,0,1.482,0.3,1.937,0.898s0.682,1.339,0.682,2.221s-0.228,1.622-0.682,2.221s-1.1,0.897-1.937,0.897
		c-0.387,0-0.75-0.099-1.087-0.297S64.102,84.114,63.921,83.834z M63.921,80.419v2.619c0.414,0.792,1.013,1.188,1.796,1.188
		c0.621,0,1.111-0.231,1.471-0.695c0.36-0.463,0.54-1.063,0.54-1.802s-0.18-1.339-0.54-1.803c-0.36-0.463-0.851-0.695-1.471-0.695
		C64.934,79.231,64.335,79.627,63.921,80.419z"/>
	<path d="M74.04,79.474c0.491,0.576,0.736,1.328,0.736,2.255s-0.245,1.679-0.736,2.254c-0.491,0.576-1.132,0.864-1.924,0.864
		s-1.431-0.288-1.917-0.864c-0.486-0.575-0.729-1.327-0.729-2.254s0.243-1.679,0.729-2.255c0.486-0.575,1.125-0.864,1.917-0.864
		S73.549,78.899,74.04,79.474z M73.561,83.558c0.36-0.464,0.54-1.073,0.54-1.829s-0.18-1.366-0.54-1.829
		c-0.36-0.464-0.842-0.695-1.445-0.695c-0.594,0-1.071,0.231-1.431,0.695c-0.36,0.463-0.54,1.073-0.54,1.829s0.18,1.365,0.54,1.829
		c0.36,0.464,0.837,0.695,1.431,0.695C72.719,84.253,73.2,84.022,73.561,83.558z"/>
	<path d="M76.922,76.585c0.09,0.09,0.135,0.198,0.135,0.324s-0.045,0.233-0.135,0.323c-0.09,0.091-0.198,0.136-0.324,0.136
		s-0.234-0.045-0.324-0.136c-0.09-0.09-0.135-0.197-0.135-0.323s0.045-0.234,0.135-0.324c0.09-0.09,0.198-0.135,0.324-0.135
		S76.832,76.496,76.922,76.585z M76.935,78.732v5.994H76.26v-5.994H76.935z"/>
	<path d="M78.852,84.726v-5.994h0.675v0.958c0.198-0.306,0.466-0.562,0.803-0.77c0.338-0.206,0.709-0.311,1.114-0.311
		c0.666,0,1.179,0.196,1.539,0.588s0.54,0.911,0.54,1.559v3.97h-0.662v-3.875c0-0.485-0.128-0.877-0.385-1.174
		c-0.256-0.298-0.641-0.446-1.154-0.446c-0.396,0-0.756,0.122-1.08,0.365c-0.324,0.242-0.562,0.553-0.716,0.931v4.199H78.852z"/>
	<path d="M85.643,83.335v-4.023H84.63v-0.58h1.013v-1.539h0.662v1.539h1.552v0.58h-1.552v3.956c0,0.647,0.288,0.972,0.864,0.972
		c0.288,0,0.562-0.076,0.824-0.229v0.635c-0.252,0.135-0.549,0.202-0.891,0.202c-0.45,0-0.806-0.128-1.066-0.385
		C85.773,84.207,85.643,83.831,85.643,83.335z"/>
	<path d="M90.043,76.585c0.09,0.09,0.135,0.198,0.135,0.324s-0.045,0.233-0.135,0.323c-0.09,0.091-0.198,0.136-0.324,0.136
		s-0.234-0.045-0.324-0.136c-0.09-0.09-0.135-0.197-0.135-0.323s0.045-0.234,0.135-0.324c0.09-0.09,0.198-0.135,0.324-0.135
		S89.953,76.496,90.043,76.585z M90.057,78.732v5.994h-0.675v-5.994H90.057z"/>
	<path d="M91.974,84.726v-5.994h0.675v0.958c0.198-0.306,0.466-0.562,0.803-0.77c0.338-0.206,0.709-0.311,1.114-0.311
		c0.666,0,1.179,0.196,1.539,0.588s0.54,0.911,0.54,1.559v3.97h-0.662v-3.875c0-0.485-0.128-0.877-0.385-1.174
		c-0.256-0.298-0.641-0.446-1.154-0.446c-0.396,0-0.756,0.122-1.08,0.365c-0.324,0.242-0.562,0.553-0.716,0.931v4.199H91.974z"/>
	<path d="M102.49,84.334V83.7c-0.18,0.279-0.437,0.513-0.77,0.702s-0.693,0.283-1.08,0.283c-0.828,0-1.465-0.292-1.91-0.877
		c-0.446-0.585-0.668-1.305-0.668-2.16s0.223-1.575,0.668-2.16c0.445-0.585,1.082-0.878,1.91-0.878c0.387,0,0.747,0.098,1.08,0.291
		s0.589,0.43,0.77,0.708v-0.877h0.675v5.562c0,0.918-0.227,1.622-0.682,2.113c-0.455,0.49-1.069,0.735-1.843,0.735
		c-0.684,0-1.238-0.159-1.661-0.479c-0.423-0.319-0.688-0.767-0.796-1.343h0.675c0.198,0.828,0.792,1.242,1.782,1.242
		c0.594,0,1.051-0.189,1.37-0.567S102.49,85.063,102.49,84.334z M102.49,82.917v-2.524c-0.198-0.369-0.452-0.654-0.763-0.857
		c-0.311-0.202-0.65-0.304-1.02-0.304c-0.612,0-1.093,0.223-1.444,0.669c-0.351,0.445-0.526,1.028-0.526,1.748
		c0,0.729,0.175,1.316,0.526,1.762s0.833,0.668,1.444,0.668c0.369,0,0.709-0.101,1.02-0.304
		C102.038,83.572,102.292,83.286,102.49,82.917z"/>
	<path d="M111.967,82.984h0.648c-0.117,0.567-0.38,1.02-0.79,1.357c-0.41,0.337-0.92,0.506-1.532,0.506
		c-0.792,0-1.434-0.288-1.924-0.864c-0.491-0.575-0.736-1.327-0.736-2.254c0-0.909,0.241-1.656,0.722-2.241s1.123-0.878,1.924-0.878
		c0.774,0,1.373,0.269,1.795,0.804c0.423,0.535,0.635,1.244,0.635,2.126v0.243h-4.415c0.009,0.756,0.198,1.356,0.567,1.803
		c0.369,0.445,0.846,0.668,1.431,0.668c0.423,0,0.785-0.112,1.087-0.338C111.681,83.691,111.877,83.38,111.967,82.984z
		 M110.279,79.205c-0.54,0-0.983,0.185-1.33,0.554c-0.347,0.369-0.556,0.868-0.628,1.498h3.713
		c-0.019-0.576-0.176-1.062-0.473-1.458C111.265,79.403,110.837,79.205,110.279,79.205z"/>
	<path d="M115.436,87.021h-0.675l0.972-2.376l-2.349-5.913h0.715l1.971,5.076l1.971-5.076h0.688L115.436,87.021z"/>
	<path d="M123.752,82.984h0.648c-0.117,0.567-0.38,1.02-0.79,1.357c-0.41,0.337-0.92,0.506-1.532,0.506
		c-0.792,0-1.434-0.288-1.924-0.864c-0.491-0.575-0.736-1.327-0.736-2.254c0-0.909,0.241-1.656,0.722-2.241s1.123-0.878,1.924-0.878
		c0.774,0,1.373,0.269,1.795,0.804c0.423,0.535,0.635,1.244,0.635,2.126v0.243h-4.415c0.009,0.756,0.198,1.356,0.567,1.803
		c0.369,0.445,0.846,0.668,1.431,0.668c0.423,0,0.785-0.112,1.087-0.338C123.466,83.691,123.662,83.38,123.752,82.984z
		 M122.064,79.205c-0.54,0-0.983,0.185-1.33,0.554c-0.347,0.369-0.556,0.868-0.628,1.498h3.713
		c-0.019-0.576-0.176-1.062-0.473-1.458C123.05,79.403,122.623,79.205,122.064,79.205z"/>
	<path d="M125.466,83.173h0.675c0.243,0.729,0.801,1.094,1.674,1.094c0.432,0,0.783-0.095,1.053-0.284
		c0.27-0.188,0.405-0.463,0.405-0.823c0-0.504-0.369-0.859-1.107-1.066l-1.121-0.311c-0.945-0.252-1.417-0.756-1.417-1.512
		c0-0.504,0.193-0.907,0.581-1.208c0.387-0.302,0.869-0.453,1.444-0.453c0.612,0,1.109,0.145,1.492,0.433
		c0.382,0.288,0.627,0.688,0.735,1.201h-0.661c-0.234-0.702-0.756-1.053-1.566-1.053c-0.396,0-0.725,0.093-0.985,0.276
		c-0.261,0.185-0.392,0.443-0.392,0.776c0,0.271,0.083,0.473,0.25,0.607c0.167,0.136,0.443,0.257,0.83,0.365l1.066,0.297
		c0.999,0.261,1.499,0.806,1.499,1.633c0,0.531-0.198,0.947-0.594,1.249c-0.396,0.302-0.905,0.452-1.525,0.452
		c-0.612,0-1.132-0.148-1.56-0.445S125.556,83.696,125.466,83.173z"/>
</g>
<g>
	<rect y="96.201" fill="none" width="182.25" height="10.125"/>
	<path d="M4.86,103.235h0.648c-0.117,0.567-0.38,1.019-0.79,1.356c-0.41,0.338-0.92,0.506-1.532,0.506
		c-0.792,0-1.434-0.287-1.924-0.863c-0.491-0.576-0.736-1.327-0.736-2.255c0-0.908,0.241-1.655,0.722-2.24s1.123-0.878,1.924-0.878
		c0.774,0,1.373,0.268,1.795,0.804c0.423,0.535,0.635,1.244,0.635,2.126v0.243H1.188c0.009,0.756,0.198,1.356,0.567,1.802
		s0.846,0.668,1.431,0.668c0.423,0,0.785-0.112,1.087-0.337C4.574,103.941,4.77,103.631,4.86,103.235z M3.172,99.455
		c-0.54,0-0.983,0.185-1.33,0.554c-0.347,0.369-0.556,0.869-0.628,1.498h3.713c-0.019-0.575-0.176-1.062-0.473-1.458
		C4.158,99.653,3.73,99.455,3.172,99.455z"/>
	<path d="M11.151,104.976h-0.648v-0.567c-0.144,0.172-0.369,0.324-0.675,0.459c-0.306,0.136-0.634,0.203-0.985,0.203
		c-0.63,0-1.157-0.169-1.58-0.507c-0.423-0.337-0.634-0.785-0.634-1.343c0-0.54,0.216-0.98,0.648-1.323
		c0.432-0.342,0.963-0.513,1.593-0.513c0.324,0,0.639,0.065,0.945,0.196c0.306,0.13,0.535,0.276,0.688,0.438v-1.066
		c0-0.45-0.133-0.812-0.398-1.087c-0.266-0.274-0.632-0.412-1.1-0.412c-0.747,0-1.233,0.343-1.458,1.026H6.885
		c0.117-0.504,0.367-0.9,0.749-1.188c0.383-0.287,0.839-0.432,1.371-0.432c0.666,0,1.19,0.187,1.573,0.561
		c0.382,0.373,0.574,0.875,0.574,1.505V104.976z M10.503,103.613v-0.77c-0.099-0.261-0.299-0.475-0.601-0.642
		c-0.302-0.166-0.632-0.249-0.992-0.249c-0.459,0-0.848,0.11-1.167,0.33c-0.32,0.221-0.479,0.533-0.479,0.938s0.16,0.72,0.479,0.945
		c0.319,0.225,0.708,0.337,1.167,0.337c0.36,0,0.69-0.083,0.992-0.25C10.204,104.087,10.404,103.874,10.503,103.613z"/>
	<path d="M13.257,103.585v-4.022h-1.013v-0.581h1.013v-1.539h0.662v1.539h1.552v0.581h-1.552v3.955c0,0.648,0.288,0.972,0.864,0.972
		c0.288,0,0.562-0.076,0.824-0.229v0.635c-0.252,0.135-0.549,0.202-0.891,0.202c-0.45,0-0.806-0.128-1.066-0.385
		C13.387,104.457,13.257,104.081,13.257,103.585z"/>
	<path d="M16.429,103.423h0.675c0.243,0.729,0.801,1.094,1.674,1.094c0.432,0,0.783-0.095,1.053-0.283
		c0.27-0.189,0.405-0.464,0.405-0.823c0-0.504-0.369-0.859-1.107-1.066l-1.121-0.311c-0.945-0.252-1.417-0.757-1.417-1.513
		c0-0.504,0.193-0.906,0.581-1.208c0.387-0.302,0.869-0.452,1.444-0.452c0.612,0,1.109,0.145,1.492,0.432
		c0.382,0.288,0.627,0.688,0.735,1.202h-0.661c-0.234-0.702-0.756-1.054-1.566-1.054c-0.396,0-0.725,0.093-0.985,0.277
		c-0.261,0.185-0.392,0.443-0.392,0.776c0,0.27,0.083,0.473,0.25,0.607s0.443,0.256,0.83,0.364l1.066,0.297
		c0.999,0.262,1.499,0.806,1.499,1.634c0,0.53-0.198,0.947-0.594,1.248c-0.396,0.302-0.905,0.452-1.525,0.452
		c-0.612,0-1.132-0.148-1.56-0.445S16.519,103.946,16.429,103.423z"/>
	<path d="M29.429,100.008c0.18-0.324,0.436-0.596,0.77-0.816c0.333-0.221,0.697-0.331,1.093-0.331c0.585,0,1.035,0.189,1.35,0.567
		s0.473,0.877,0.473,1.498v4.05h-0.662v-3.955c0-0.478-0.108-0.853-0.324-1.127c-0.216-0.274-0.536-0.412-0.958-0.412
		c-0.36,0-0.684,0.117-0.972,0.351c-0.288,0.234-0.495,0.536-0.621,0.905v4.238h-0.675v-3.955c0-0.478-0.108-0.853-0.324-1.127
		s-0.536-0.412-0.958-0.412c-0.36,0-0.684,0.117-0.972,0.351c-0.288,0.234-0.495,0.536-0.621,0.905v4.238h-0.675v-5.994h0.675V99.9
		c0.162-0.306,0.394-0.556,0.695-0.749c0.302-0.193,0.646-0.29,1.033-0.29C28.592,98.861,29.15,99.244,29.429,100.008z"/>
	<path d="M38.879,103.235h0.648c-0.117,0.567-0.38,1.019-0.79,1.356c-0.41,0.338-0.92,0.506-1.532,0.506
		c-0.792,0-1.434-0.287-1.924-0.863c-0.491-0.576-0.736-1.327-0.736-2.255c0-0.908,0.241-1.655,0.722-2.24s1.123-0.878,1.924-0.878
		c0.774,0,1.373,0.268,1.795,0.804c0.423,0.535,0.635,1.244,0.635,2.126v0.243h-4.415c0.009,0.756,0.198,1.356,0.567,1.802
		s0.846,0.668,1.431,0.668c0.423,0,0.785-0.112,1.087-0.337C38.593,103.941,38.789,103.631,38.879,103.235z M37.191,99.455
		c-0.54,0-0.983,0.185-1.33,0.554c-0.347,0.369-0.556,0.869-0.628,1.498h3.713c-0.019-0.575-0.176-1.062-0.473-1.458
		C38.177,99.653,37.75,99.455,37.191,99.455z"/>
	<path d="M45.17,104.976h-0.648v-0.567c-0.144,0.172-0.369,0.324-0.675,0.459c-0.306,0.136-0.634,0.203-0.985,0.203
		c-0.63,0-1.157-0.169-1.58-0.507c-0.423-0.337-0.634-0.785-0.634-1.343c0-0.54,0.216-0.98,0.648-1.323
		c0.432-0.342,0.963-0.513,1.593-0.513c0.324,0,0.639,0.065,0.945,0.196c0.306,0.13,0.535,0.276,0.688,0.438v-1.066
		c0-0.45-0.133-0.812-0.398-1.087c-0.266-0.274-0.632-0.412-1.1-0.412c-0.747,0-1.233,0.343-1.458,1.026h-0.662
		c0.117-0.504,0.367-0.9,0.749-1.188c0.383-0.287,0.839-0.432,1.371-0.432c0.666,0,1.19,0.187,1.573,0.561
		c0.382,0.373,0.574,0.875,0.574,1.505V104.976z M44.522,103.613v-0.77c-0.099-0.261-0.299-0.475-0.601-0.642
		c-0.302-0.166-0.632-0.249-0.992-0.249c-0.459,0-0.848,0.11-1.167,0.33c-0.32,0.221-0.479,0.533-0.479,0.938s0.16,0.72,0.479,0.945
		c0.319,0.225,0.708,0.337,1.167,0.337c0.36,0,0.69-0.083,0.992-0.25C44.223,104.087,44.423,103.874,44.522,103.613z"/>
	<path d="M47.276,103.585v-4.022h-1.013v-0.581h1.013v-1.539h0.662v1.539h1.552v0.581h-1.552v3.955c0,0.648,0.288,0.972,0.864,0.972
		c0.288,0,0.562-0.076,0.824-0.229v0.635c-0.252,0.135-0.549,0.202-0.891,0.202c-0.45,0-0.806-0.128-1.066-0.385
		C47.406,104.457,47.276,104.081,47.276,103.585z"/>
</g>
<g>
	<rect y="116.451" fill="none" width="182.25" height="10.125"/>
	<path d="M0.958,125.226v-8.775h0.675v3.74c0.198-0.307,0.466-0.562,0.803-0.77c0.338-0.207,0.709-0.311,1.114-0.311
		c0.666,0,1.179,0.195,1.539,0.587s0.54,0.911,0.54,1.56v3.969H4.968v-3.874c0-0.486-0.128-0.878-0.385-1.175
		c-0.256-0.297-0.641-0.445-1.154-0.445c-0.396,0-0.756,0.121-1.08,0.364c-0.324,0.243-0.562,0.554-0.716,0.932v4.198H0.958z"/>
	<path d="M11.556,125.226h-0.648v-0.567c-0.144,0.172-0.369,0.324-0.675,0.459c-0.306,0.136-0.634,0.203-0.985,0.203
		c-0.63,0-1.157-0.169-1.58-0.507c-0.423-0.337-0.634-0.785-0.634-1.343c0-0.54,0.216-0.981,0.648-1.323
		c0.432-0.342,0.963-0.513,1.593-0.513c0.324,0,0.639,0.065,0.945,0.195c0.306,0.131,0.535,0.277,0.688,0.439v-1.067
		c0-0.449-0.133-0.812-0.398-1.086c-0.266-0.274-0.632-0.412-1.1-0.412c-0.747,0-1.233,0.342-1.458,1.026H7.29
		c0.117-0.504,0.367-0.9,0.749-1.188c0.383-0.288,0.839-0.432,1.371-0.432c0.666,0,1.19,0.187,1.573,0.56
		c0.382,0.374,0.574,0.876,0.574,1.506V125.226z M10.908,123.863v-0.77c-0.099-0.261-0.299-0.475-0.601-0.642
		c-0.302-0.166-0.632-0.25-0.992-0.25c-0.459,0-0.848,0.11-1.167,0.331c-0.32,0.221-0.479,0.533-0.479,0.938s0.16,0.72,0.479,0.945
		c0.319,0.225,0.708,0.337,1.167,0.337c0.36,0,0.69-0.083,0.992-0.25C10.609,124.337,10.809,124.124,10.908,123.863z"/>
	<path d="M12.852,123.673h0.675c0.243,0.729,0.801,1.094,1.674,1.094c0.432,0,0.783-0.095,1.053-0.283
		c0.27-0.189,0.405-0.464,0.405-0.824c0-0.504-0.369-0.859-1.107-1.066l-1.121-0.311c-0.945-0.252-1.417-0.756-1.417-1.512
		c0-0.504,0.193-0.906,0.581-1.208c0.387-0.302,0.869-0.452,1.444-0.452c0.612,0,1.109,0.144,1.492,0.432
		c0.382,0.288,0.627,0.688,0.735,1.201h-0.661c-0.234-0.701-0.756-1.053-1.566-1.053c-0.396,0-0.725,0.093-0.985,0.277
		c-0.261,0.185-0.392,0.443-0.392,0.775c0,0.271,0.083,0.473,0.25,0.608c0.167,0.135,0.443,0.256,0.83,0.364l1.066,0.297
		c0.999,0.261,1.499,0.806,1.499,1.634c0,0.53-0.198,0.947-0.594,1.248c-0.396,0.302-0.905,0.452-1.525,0.452
		c-0.612,0-1.132-0.148-1.56-0.445S12.941,124.196,12.852,123.673z"/>
	<path d="M21.221,123.673h0.675c0.243,0.729,0.801,1.094,1.674,1.094c0.432,0,0.783-0.095,1.053-0.283
		c0.27-0.189,0.405-0.464,0.405-0.824c0-0.504-0.369-0.859-1.107-1.066l-1.121-0.311c-0.945-0.252-1.417-0.756-1.417-1.512
		c0-0.504,0.193-0.906,0.581-1.208c0.387-0.302,0.869-0.452,1.444-0.452c0.612,0,1.109,0.144,1.492,0.432
		c0.382,0.288,0.627,0.688,0.735,1.201h-0.661c-0.234-0.701-0.756-1.053-1.566-1.053c-0.396,0-0.725,0.093-0.985,0.277
		c-0.261,0.185-0.392,0.443-0.392,0.775c0,0.271,0.083,0.473,0.25,0.608c0.167,0.135,0.443,0.256,0.83,0.364l1.066,0.297
		c0.999,0.261,1.499,0.806,1.499,1.634c0,0.53-0.198,0.947-0.594,1.248c-0.396,0.302-0.905,0.452-1.525,0.452
		c-0.612,0-1.132-0.148-1.56-0.445S21.311,124.196,21.221,123.673z"/>
	<path d="M27.836,124.335v3.186h-0.675v-8.289h0.675v0.892c0.18-0.279,0.439-0.518,0.776-0.716s0.7-0.297,1.087-0.297
		c0.837,0,1.482,0.299,1.937,0.897s0.682,1.339,0.682,2.221s-0.228,1.622-0.682,2.221s-1.1,0.897-1.937,0.897
		c-0.387,0-0.75-0.099-1.087-0.297C28.275,124.853,28.016,124.614,27.836,124.335z M27.836,120.919v2.619
		c0.414,0.792,1.013,1.188,1.796,1.188c0.621,0,1.111-0.232,1.471-0.695c0.36-0.464,0.54-1.064,0.54-1.803
		c0-0.737-0.18-1.339-0.54-1.802c-0.36-0.464-0.851-0.695-1.471-0.695C28.849,119.732,28.25,120.127,27.836,120.919z"/>
	<path d="M37.954,119.974c0.491,0.576,0.736,1.328,0.736,2.255s-0.245,1.679-0.736,2.255s-1.132,0.863-1.924,0.863
		s-1.431-0.287-1.917-0.863c-0.486-0.576-0.729-1.328-0.729-2.255s0.243-1.679,0.729-2.255c0.486-0.575,1.125-0.863,1.917-0.863
		S37.463,119.399,37.954,119.974z M37.475,124.058c0.36-0.463,0.54-1.073,0.54-1.829s-0.18-1.365-0.54-1.829
		c-0.36-0.464-0.842-0.695-1.445-0.695c-0.594,0-1.071,0.231-1.431,0.695c-0.36,0.464-0.54,1.073-0.54,1.829s0.18,1.366,0.54,1.829
		c0.36,0.464,0.837,0.695,1.431,0.695C36.633,124.753,37.115,124.522,37.475,124.058z"/>
	<path d="M40.445,123.835v-4.022h-1.013v-0.581h1.013v-1.539h0.662v1.539h1.552v0.581h-1.552v3.955c0,0.648,0.288,0.972,0.864,0.972
		c0.288,0,0.562-0.076,0.824-0.229v0.635c-0.252,0.135-0.549,0.202-0.891,0.202c-0.45,0-0.806-0.128-1.066-0.385
		C40.575,124.707,40.445,124.331,40.445,123.835z"/>
	<path d="M43.617,123.673h0.675c0.243,0.729,0.801,1.094,1.674,1.094c0.432,0,0.783-0.095,1.053-0.283
		c0.27-0.189,0.405-0.464,0.405-0.824c0-0.504-0.369-0.859-1.107-1.066l-1.121-0.311c-0.945-0.252-1.417-0.756-1.417-1.512
		c0-0.504,0.193-0.906,0.581-1.208c0.387-0.302,0.869-0.452,1.444-0.452c0.612,0,1.109,0.144,1.492,0.432
		c0.382,0.288,0.627,0.688,0.735,1.201h-0.661c-0.234-0.701-0.756-1.053-1.566-1.053c-0.396,0-0.725,0.093-0.985,0.277
		c-0.261,0.185-0.392,0.443-0.392,0.775c0,0.271,0.083,0.473,0.25,0.608c0.167,0.135,0.443,0.256,0.83,0.364l1.066,0.297
		c0.999,0.261,1.499,0.806,1.499,1.634c0,0.53-0.198,0.947-0.594,1.248c-0.396,0.302-0.905,0.452-1.525,0.452
		c-0.612,0-1.132-0.148-1.56-0.445S43.707,124.196,43.617,123.673z"/>
</g>
<g>
	<rect y="136.701" fill="none" width="182.25" height="10.125"/>
	<path d="M3.78,139.442v0.661c-0.171-0.072-0.355-0.108-0.553-0.108c-0.36,0-0.68,0.117-0.958,0.352
		c-0.279,0.234-0.491,0.549-0.635,0.945v4.185H0.958v-5.994h0.675v0.959c0.144-0.315,0.36-0.574,0.648-0.776
		c0.288-0.203,0.612-0.304,0.972-0.304C3.424,139.361,3.6,139.387,3.78,139.442z"/>
	<path d="M9.599,139.482v5.994H8.937v-0.959c-0.198,0.307-0.464,0.563-0.796,0.77c-0.333,0.207-0.702,0.311-1.107,0.311
		c-0.667,0-1.179-0.195-1.539-0.587c-0.36-0.392-0.54-0.911-0.54-1.56v-3.969h0.662v3.875c0,0.485,0.128,0.877,0.384,1.174
		c0.257,0.297,0.642,0.446,1.154,0.446c0.396,0,0.754-0.122,1.073-0.365s0.556-0.554,0.709-0.932v-4.198H9.599z"/>
	<path d="M11.515,145.476v-5.994h0.675v0.959c0.198-0.307,0.466-0.562,0.803-0.77c0.338-0.207,0.709-0.311,1.114-0.311
		c0.666,0,1.179,0.195,1.539,0.587s0.54,0.911,0.54,1.56v3.969h-0.662v-3.874c0-0.486-0.128-0.878-0.385-1.175
		c-0.256-0.297-0.641-0.445-1.154-0.445c-0.396,0-0.756,0.121-1.08,0.364c-0.324,0.243-0.562,0.554-0.716,0.932v4.198H11.515z"/>
	<path d="M17.482,143.923h0.675c0.243,0.729,0.801,1.094,1.674,1.094c0.432,0,0.783-0.095,1.053-0.283
		c0.27-0.189,0.405-0.464,0.405-0.824c0-0.504-0.369-0.859-1.107-1.066l-1.121-0.311c-0.945-0.252-1.417-0.756-1.417-1.512
		c0-0.504,0.193-0.906,0.581-1.208c0.387-0.302,0.869-0.452,1.444-0.452c0.612,0,1.109,0.144,1.492,0.432
		c0.382,0.288,0.627,0.688,0.735,1.201h-0.661c-0.234-0.701-0.756-1.053-1.566-1.053c-0.396,0-0.725,0.093-0.985,0.277
		c-0.261,0.185-0.392,0.443-0.392,0.775c0,0.271,0.083,0.473,0.25,0.608c0.167,0.135,0.443,0.256,0.83,0.364l1.066,0.297
		c0.999,0.261,1.499,0.806,1.499,1.634c0,0.53-0.198,0.947-0.594,1.248c-0.396,0.302-0.905,0.452-1.525,0.452
		c-0.612,0-1.132-0.148-1.56-0.445S17.572,144.446,17.482,143.923z"/>
	<path d="M29.078,136.701v0.621c-0.18-0.099-0.382-0.148-0.607-0.148c-0.324,0-0.587,0.115-0.79,0.345
		c-0.203,0.229-0.304,0.547-0.304,0.951v1.013h1.404v0.581h-1.404v5.413h-0.662v-5.413h-0.972v-0.581h0.972v-1.08
		c0-0.54,0.157-0.979,0.473-1.316c0.315-0.337,0.72-0.506,1.215-0.506C28.646,136.58,28.871,136.62,29.078,136.701z"/>
	<path d="M33.912,145.476h-0.648v-0.567c-0.144,0.172-0.369,0.324-0.675,0.459c-0.306,0.136-0.634,0.203-0.985,0.203
		c-0.63,0-1.157-0.169-1.58-0.507c-0.423-0.337-0.634-0.785-0.634-1.343c0-0.54,0.216-0.981,0.648-1.323
		c0.432-0.342,0.963-0.513,1.593-0.513c0.324,0,0.639,0.065,0.945,0.195c0.306,0.131,0.535,0.277,0.688,0.439v-1.067
		c0-0.449-0.133-0.812-0.398-1.086c-0.266-0.274-0.632-0.412-1.1-0.412c-0.747,0-1.233,0.342-1.458,1.026h-0.662
		c0.117-0.504,0.367-0.9,0.749-1.188c0.383-0.288,0.839-0.432,1.371-0.432c0.666,0,1.19,0.187,1.573,0.56
		c0.382,0.374,0.574,0.876,0.574,1.506V145.476z M33.264,144.113v-0.77c-0.099-0.261-0.299-0.475-0.601-0.642
		c-0.302-0.166-0.632-0.25-0.992-0.25c-0.459,0-0.848,0.11-1.167,0.331c-0.32,0.221-0.479,0.533-0.479,0.938s0.16,0.72,0.479,0.945
		c0.319,0.225,0.708,0.337,1.167,0.337c0.36,0,0.69-0.083,0.992-0.25C32.964,144.587,33.165,144.374,33.264,144.113z"/>
	<path d="M35.207,143.923h0.675c0.243,0.729,0.801,1.094,1.674,1.094c0.432,0,0.783-0.095,1.053-0.283
		c0.27-0.189,0.405-0.464,0.405-0.824c0-0.504-0.369-0.859-1.107-1.066l-1.121-0.311c-0.945-0.252-1.417-0.756-1.417-1.512
		c0-0.504,0.193-0.906,0.581-1.208c0.387-0.302,0.869-0.452,1.444-0.452c0.612,0,1.109,0.144,1.492,0.432
		c0.382,0.288,0.627,0.688,0.735,1.201H38.96c-0.234-0.701-0.756-1.053-1.566-1.053c-0.396,0-0.725,0.093-0.985,0.277
		c-0.261,0.185-0.392,0.443-0.392,0.775c0,0.271,0.083,0.473,0.25,0.608c0.167,0.135,0.443,0.256,0.83,0.364l1.066,0.297
		c0.999,0.261,1.499,0.806,1.499,1.634c0,0.53-0.198,0.947-0.594,1.248c-0.396,0.302-0.905,0.452-1.525,0.452
		c-0.612,0-1.132-0.148-1.56-0.445S35.296,144.446,35.207,143.923z"/>
	<path d="M41.417,144.085v-4.022h-1.013v-0.581h1.013v-1.539h0.662v1.539h1.552v0.581h-1.552v3.955c0,0.648,0.288,0.972,0.864,0.972
		c0.288,0,0.562-0.076,0.824-0.229v0.635c-0.252,0.135-0.549,0.202-0.891,0.202c-0.45,0-0.806-0.128-1.066-0.385
		C41.547,144.957,41.417,144.581,41.417,144.085z"/>
</g>
<g>
	<rect x="283.5" y="15.201" fill="none" width="91.124" height="10.125"/>
	<path d="M285.12,15.835c0.09,0.09,0.135,0.198,0.135,0.324s-0.045,0.234-0.135,0.324c-0.09,0.09-0.198,0.135-0.324,0.135
		s-0.234-0.045-0.324-0.135c-0.09-0.09-0.135-0.198-0.135-0.324s0.045-0.234,0.135-0.324c0.09-0.09,0.198-0.135,0.324-0.135
		S285.03,15.745,285.12,15.835z M285.134,17.981v5.994h-0.675v-5.994H285.134z"/>
	<path d="M286.497,22.423h0.675c0.243,0.729,0.801,1.094,1.674,1.094c0.432,0,0.783-0.095,1.053-0.284
		c0.271-0.189,0.405-0.463,0.405-0.823c0-0.504-0.369-0.859-1.106-1.066l-1.121-0.311c-0.945-0.252-1.417-0.756-1.417-1.512
		c0-0.504,0.193-0.907,0.58-1.208c0.387-0.302,0.868-0.453,1.444-0.453c0.612,0,1.109,0.145,1.492,0.432
		c0.382,0.288,0.628,0.688,0.735,1.202h-0.661c-0.234-0.702-0.756-1.053-1.566-1.053c-0.396,0-0.725,0.093-0.985,0.277
		c-0.261,0.185-0.392,0.443-0.392,0.776c0,0.27,0.083,0.473,0.25,0.607c0.166,0.135,0.443,0.256,0.83,0.365l1.066,0.297
		c0.999,0.261,1.499,0.806,1.499,1.633c0,0.531-0.198,0.947-0.595,1.249c-0.396,0.301-0.904,0.452-1.525,0.452
		c-0.612,0-1.132-0.148-1.559-0.446C286.846,23.354,286.587,22.945,286.497,22.423z"/>
	<path d="M299.497,23.976h-0.647v-0.567c-0.145,0.171-0.369,0.324-0.675,0.459c-0.307,0.135-0.635,0.203-0.986,0.203
		c-0.63,0-1.156-0.169-1.579-0.506s-0.635-0.785-0.635-1.343c0-0.54,0.216-0.981,0.648-1.323c0.432-0.342,0.963-0.513,1.593-0.513
		c0.324,0,0.639,0.065,0.945,0.196c0.306,0.13,0.535,0.276,0.688,0.438v-1.066c0-0.45-0.133-0.812-0.398-1.087
		c-0.266-0.274-0.633-0.412-1.101-0.412c-0.747,0-1.232,0.342-1.458,1.026h-0.661c0.117-0.504,0.366-0.9,0.749-1.188
		c0.383-0.288,0.839-0.432,1.37-0.432c0.666,0,1.19,0.187,1.573,0.561c0.382,0.374,0.573,0.875,0.573,1.505V23.976z M298.85,22.612
		v-0.77c-0.1-0.261-0.3-0.475-0.601-0.642c-0.302-0.167-0.633-0.25-0.992-0.25c-0.459,0-0.849,0.11-1.168,0.331
		c-0.319,0.221-0.479,0.533-0.479,0.938c0,0.405,0.16,0.72,0.479,0.945c0.319,0.225,0.709,0.337,1.168,0.337
		c0.359,0,0.69-0.083,0.992-0.25C298.55,23.087,298.75,22.873,298.85,22.612z"/>
	<path d="M308.407,19.008c0.181-0.324,0.437-0.596,0.77-0.817s0.697-0.331,1.094-0.331c0.585,0,1.035,0.189,1.35,0.567
		c0.315,0.378,0.473,0.877,0.473,1.499v4.05h-0.661V20.02c0-0.477-0.108-0.853-0.324-1.127s-0.535-0.412-0.958-0.412
		c-0.36,0-0.685,0.117-0.973,0.351c-0.288,0.234-0.495,0.536-0.621,0.905v4.239h-0.675V20.02c0-0.477-0.107-0.853-0.324-1.127
		c-0.216-0.274-0.535-0.412-0.958-0.412c-0.36,0-0.685,0.117-0.972,0.351c-0.288,0.234-0.495,0.536-0.621,0.905v4.239h-0.675v-5.994
		h0.675v0.918c0.162-0.306,0.394-0.556,0.695-0.749c0.301-0.193,0.646-0.291,1.032-0.291
		C307.57,17.86,308.129,18.243,308.407,19.008z"/>
	<path d="M318.032,23.976h-0.647v-0.567c-0.145,0.171-0.369,0.324-0.675,0.459c-0.307,0.135-0.635,0.203-0.986,0.203
		c-0.63,0-1.156-0.169-1.579-0.506s-0.635-0.785-0.635-1.343c0-0.54,0.216-0.981,0.648-1.323c0.432-0.342,0.963-0.513,1.593-0.513
		c0.324,0,0.639,0.065,0.945,0.196c0.306,0.13,0.535,0.276,0.688,0.438v-1.066c0-0.45-0.133-0.812-0.398-1.087
		c-0.266-0.274-0.633-0.412-1.101-0.412c-0.747,0-1.232,0.342-1.458,1.026h-0.661c0.117-0.504,0.366-0.9,0.749-1.188
		c0.383-0.288,0.839-0.432,1.37-0.432c0.666,0,1.19,0.187,1.573,0.561c0.382,0.374,0.573,0.875,0.573,1.505V23.976z M317.385,22.612
		v-0.77c-0.1-0.261-0.3-0.475-0.601-0.642c-0.302-0.167-0.633-0.25-0.992-0.25c-0.459,0-0.849,0.11-1.168,0.331
		c-0.319,0.221-0.479,0.533-0.479,0.938c0,0.405,0.16,0.72,0.479,0.945c0.319,0.225,0.709,0.337,1.168,0.337
		c0.359,0,0.69-0.083,0.992-0.25C317.085,23.087,317.285,22.873,317.385,22.612z"/>
	<path d="M323.959,19.008c0.181-0.324,0.437-0.596,0.77-0.817s0.697-0.331,1.094-0.331c0.585,0,1.035,0.189,1.35,0.567
		c0.315,0.378,0.473,0.877,0.473,1.499v4.05h-0.661V20.02c0-0.477-0.108-0.853-0.324-1.127s-0.535-0.412-0.958-0.412
		c-0.36,0-0.685,0.117-0.973,0.351c-0.288,0.234-0.495,0.536-0.621,0.905v4.239h-0.675V20.02c0-0.477-0.107-0.853-0.324-1.127
		c-0.216-0.274-0.535-0.412-0.958-0.412c-0.36,0-0.685,0.117-0.972,0.351c-0.288,0.234-0.495,0.536-0.621,0.905v4.239h-0.675v-5.994
		h0.675v0.918c0.162-0.306,0.394-0.556,0.695-0.749c0.301-0.193,0.646-0.291,1.032-0.291
		C323.122,17.86,323.681,18.243,323.959,19.008z"/>
	<path d="M333.584,19.008c0.181-0.324,0.437-0.596,0.77-0.817s0.697-0.331,1.094-0.331c0.585,0,1.035,0.189,1.35,0.567
		c0.315,0.378,0.473,0.877,0.473,1.499v4.05h-0.661V20.02c0-0.477-0.108-0.853-0.324-1.127s-0.535-0.412-0.958-0.412
		c-0.36,0-0.685,0.117-0.973,0.351c-0.288,0.234-0.495,0.536-0.621,0.905v4.239h-0.675V20.02c0-0.477-0.107-0.853-0.324-1.127
		c-0.216-0.274-0.535-0.412-0.958-0.412c-0.36,0-0.685,0.117-0.972,0.351c-0.288,0.234-0.495,0.536-0.621,0.905v4.239h-0.675v-5.994
		h0.675v0.918c0.162-0.306,0.394-0.556,0.695-0.749c0.301-0.193,0.646-0.291,1.032-0.291
		C332.747,17.86,333.306,18.243,333.584,19.008z"/>
	<path d="M343.209,23.976h-0.647v-0.567c-0.145,0.171-0.369,0.324-0.675,0.459c-0.307,0.135-0.635,0.203-0.986,0.203
		c-0.63,0-1.156-0.169-1.579-0.506s-0.635-0.785-0.635-1.343c0-0.54,0.216-0.981,0.648-1.323c0.432-0.342,0.963-0.513,1.593-0.513
		c0.324,0,0.639,0.065,0.945,0.196c0.306,0.13,0.535,0.276,0.688,0.438v-1.066c0-0.45-0.133-0.812-0.398-1.087
		c-0.266-0.274-0.633-0.412-1.101-0.412c-0.747,0-1.232,0.342-1.458,1.026h-0.661c0.117-0.504,0.366-0.9,0.749-1.188
		c0.383-0.288,0.839-0.432,1.37-0.432c0.666,0,1.19,0.187,1.573,0.561c0.382,0.374,0.573,0.875,0.573,1.505V23.976z M342.562,22.612
		v-0.77c-0.1-0.261-0.3-0.475-0.601-0.642c-0.302-0.167-0.633-0.25-0.992-0.25c-0.459,0-0.849,0.11-1.168,0.331
		c-0.319,0.221-0.479,0.533-0.479,0.938c0,0.405,0.16,0.72,0.479,0.945c0.319,0.225,0.709,0.337,1.168,0.337
		c0.359,0,0.69-0.083,0.992-0.25C342.262,23.087,342.462,22.873,342.562,22.612z"/>
	<path d="M345.734,15.201v8.775h-0.675v-8.775H345.734z"/>
</g>
<g>
	<rect x="283.5" y="55.701" fill="none" width="91.124" height="10.125"/>
	<path d="M285.12,56.335c0.09,0.09,0.135,0.198,0.135,0.324s-0.045,0.234-0.135,0.324c-0.09,0.09-0.198,0.135-0.324,0.135
		s-0.234-0.045-0.324-0.135c-0.09-0.09-0.135-0.198-0.135-0.324s0.045-0.234,0.135-0.324c0.09-0.09,0.198-0.135,0.324-0.135
		S285.03,56.245,285.12,56.335z M285.134,58.481v5.994h-0.675v-5.994H285.134z"/>
	<path d="M286.497,62.923h0.675c0.243,0.729,0.801,1.094,1.674,1.094c0.432,0,0.783-0.095,1.053-0.284
		c0.271-0.189,0.405-0.463,0.405-0.823c0-0.504-0.369-0.859-1.106-1.066l-1.121-0.311c-0.945-0.252-1.417-0.756-1.417-1.512
		c0-0.504,0.193-0.907,0.58-1.208c0.387-0.302,0.868-0.453,1.444-0.453c0.612,0,1.109,0.145,1.492,0.432
		c0.382,0.288,0.628,0.688,0.735,1.202h-0.661c-0.234-0.702-0.756-1.053-1.566-1.053c-0.396,0-0.725,0.093-0.985,0.277
		c-0.261,0.185-0.392,0.443-0.392,0.776c0,0.27,0.083,0.473,0.25,0.607c0.166,0.135,0.443,0.256,0.83,0.365l1.066,0.297
		c0.999,0.261,1.499,0.806,1.499,1.633c0,0.531-0.198,0.947-0.595,1.249c-0.396,0.301-0.904,0.452-1.525,0.452
		c-0.612,0-1.132-0.148-1.559-0.446C286.846,63.854,286.587,63.445,286.497,62.923z"/>
	<path d="M299.497,64.476h-0.647v-0.567c-0.145,0.171-0.369,0.324-0.675,0.459c-0.307,0.135-0.635,0.203-0.986,0.203
		c-0.63,0-1.156-0.169-1.579-0.506s-0.635-0.785-0.635-1.343c0-0.54,0.216-0.981,0.648-1.323c0.432-0.342,0.963-0.513,1.593-0.513
		c0.324,0,0.639,0.065,0.945,0.196c0.306,0.13,0.535,0.276,0.688,0.438v-1.066c0-0.45-0.133-0.812-0.398-1.087
		c-0.266-0.274-0.633-0.412-1.101-0.412c-0.747,0-1.232,0.342-1.458,1.026h-0.661c0.117-0.504,0.366-0.9,0.749-1.188
		c0.383-0.288,0.839-0.432,1.37-0.432c0.666,0,1.19,0.187,1.573,0.561c0.382,0.374,0.573,0.875,0.573,1.505V64.476z M298.85,63.112
		v-0.77c-0.1-0.261-0.3-0.475-0.601-0.642c-0.302-0.167-0.633-0.25-0.992-0.25c-0.459,0-0.849,0.11-1.168,0.331
		c-0.319,0.221-0.479,0.533-0.479,0.938c0,0.405,0.16,0.72,0.479,0.945c0.319,0.225,0.709,0.337,1.168,0.337
		c0.359,0,0.69-0.083,0.992-0.25C298.55,63.587,298.75,63.373,298.85,63.112z"/>
	<path d="M304.628,63.733c-0.486-0.576-0.729-1.327-0.729-2.254c0-0.927,0.243-1.678,0.729-2.254
		c0.485-0.576,1.125-0.864,1.917-0.864c0.621,0,1.131,0.169,1.532,0.506c0.4,0.337,0.654,0.79,0.763,1.357h-0.688
		c-0.091-0.396-0.275-0.704-0.554-0.925c-0.279-0.22-0.63-0.331-1.053-0.331c-0.586,0-1.061,0.229-1.425,0.688
		s-0.547,1.066-0.547,1.822s0.183,1.364,0.547,1.823s0.839,0.688,1.425,0.688c0.423,0,0.773-0.11,1.053-0.331
		c0.278-0.22,0.463-0.528,0.554-0.925h0.688c-0.108,0.567-0.362,1.02-0.763,1.357c-0.401,0.337-0.911,0.506-1.532,0.506
		C305.753,64.597,305.113,64.309,304.628,63.733z"/>
	<path d="M314.374,64.476h-0.647v-0.567c-0.145,0.171-0.369,0.324-0.675,0.459c-0.307,0.135-0.635,0.203-0.986,0.203
		c-0.63,0-1.156-0.169-1.579-0.506s-0.635-0.785-0.635-1.343c0-0.54,0.216-0.981,0.648-1.323c0.432-0.342,0.963-0.513,1.593-0.513
		c0.324,0,0.639,0.065,0.945,0.196c0.306,0.13,0.535,0.276,0.688,0.438v-1.066c0-0.45-0.133-0.812-0.398-1.087
		c-0.266-0.274-0.633-0.412-1.101-0.412c-0.747,0-1.232,0.342-1.458,1.026h-0.661c0.117-0.504,0.366-0.9,0.749-1.188
		c0.383-0.288,0.839-0.432,1.37-0.432c0.666,0,1.19,0.187,1.573,0.561c0.382,0.374,0.573,0.875,0.573,1.505V64.476z M313.727,63.112
		v-0.77c-0.1-0.261-0.3-0.475-0.601-0.642c-0.302-0.167-0.633-0.25-0.992-0.25c-0.459,0-0.849,0.11-1.168,0.331
		c-0.319,0.221-0.479,0.533-0.479,0.938c0,0.405,0.16,0.72,0.479,0.945c0.319,0.225,0.709,0.337,1.168,0.337
		c0.359,0,0.69-0.083,0.992-0.25C313.427,63.587,313.627,63.373,313.727,63.112z"/>
	<path d="M319.046,58.441v0.662c-0.171-0.072-0.355-0.108-0.554-0.108c-0.36,0-0.68,0.117-0.959,0.351
		c-0.278,0.234-0.49,0.549-0.634,0.945v4.185h-0.675v-5.994h0.675v0.958c0.144-0.315,0.359-0.574,0.647-0.776
		c0.288-0.203,0.612-0.304,0.973-0.304C318.69,58.36,318.865,58.387,319.046,58.441z"/>
	<path d="M320.288,64.476v-5.994h0.675v0.958c0.197-0.306,0.466-0.562,0.803-0.77c0.338-0.207,0.709-0.311,1.114-0.311
		c0.666,0,1.179,0.196,1.539,0.587c0.359,0.392,0.54,0.911,0.54,1.559v3.969h-0.662v-3.875c0-0.486-0.128-0.877-0.385-1.174
		c-0.256-0.297-0.641-0.446-1.154-0.446c-0.396,0-0.756,0.122-1.08,0.365c-0.323,0.243-0.562,0.553-0.715,0.931v4.199H320.288z"/>
	<path d="M327.47,56.335c0.09,0.09,0.135,0.198,0.135,0.324s-0.045,0.234-0.135,0.324c-0.09,0.09-0.198,0.135-0.324,0.135
		s-0.234-0.045-0.324-0.135c-0.09-0.09-0.135-0.198-0.135-0.324s0.045-0.234,0.135-0.324c0.09-0.09,0.198-0.135,0.324-0.135
		S327.38,56.245,327.47,56.335z M327.483,58.481v5.994h-0.675v-5.994H327.483z"/>
	<path d="M331.654,64.476h-0.58l-2.39-5.994h0.716l1.971,5.062l1.971-5.062h0.688L331.654,64.476z"/>
	<path d="M339.289,59.224c0.49,0.576,0.735,1.328,0.735,2.254c0,0.927-0.245,1.679-0.735,2.254
		c-0.491,0.576-1.133,0.864-1.924,0.864c-0.792,0-1.432-0.288-1.917-0.864c-0.486-0.576-0.729-1.327-0.729-2.254
		c0-0.927,0.243-1.678,0.729-2.254c0.485-0.576,1.125-0.864,1.917-0.864C338.156,58.36,338.798,58.648,339.289,59.224z
		 M338.81,63.308c0.359-0.463,0.54-1.073,0.54-1.829s-0.181-1.366-0.54-1.829c-0.36-0.463-0.842-0.695-1.444-0.695
		c-0.595,0-1.071,0.232-1.432,0.695c-0.359,0.463-0.54,1.073-0.54,1.829s0.181,1.366,0.54,1.829c0.36,0.464,0.837,0.695,1.432,0.695
		C337.968,64.003,338.449,63.771,338.81,63.308z"/>
	<path d="M344.331,58.441v0.662c-0.171-0.072-0.355-0.108-0.554-0.108c-0.36,0-0.68,0.117-0.959,0.351
		c-0.278,0.234-0.49,0.549-0.634,0.945v4.185h-0.675v-5.994h0.675v0.958c0.144-0.315,0.359-0.574,0.647-0.776
		c0.288-0.203,0.612-0.304,0.973-0.304C343.976,58.36,344.15,58.387,344.331,58.441z"/>
	<path d="M349.326,62.734h0.647c-0.117,0.567-0.38,1.02-0.79,1.357c-0.409,0.337-0.92,0.506-1.532,0.506
		c-0.792,0-1.433-0.288-1.923-0.864c-0.491-0.576-0.736-1.327-0.736-2.254c0-0.909,0.241-1.656,0.723-2.241s1.122-0.878,1.924-0.878
		c0.773,0,1.372,0.268,1.795,0.804c0.423,0.535,0.635,1.244,0.635,2.126v0.243h-4.414c0.009,0.756,0.197,1.356,0.566,1.802
		c0.369,0.445,0.846,0.668,1.431,0.668c0.424,0,0.785-0.112,1.087-0.337C349.04,63.441,349.235,63.13,349.326,62.734z
		 M347.639,58.954c-0.54,0-0.983,0.185-1.33,0.554s-0.556,0.869-0.628,1.498h3.713c-0.019-0.576-0.176-1.062-0.473-1.458
		C348.624,59.152,348.196,58.954,347.639,58.954z"/>
</g>
<g>
	<rect x="472.874" y="56.263" fill="none" width="91.125" height="10.125"/>
	<path d="M474.494,56.897c0.09,0.09,0.135,0.198,0.135,0.324s-0.045,0.234-0.135,0.324c-0.09,0.09-0.198,0.135-0.324,0.135
		s-0.234-0.045-0.324-0.135c-0.09-0.09-0.135-0.198-0.135-0.324s0.045-0.234,0.135-0.324c0.09-0.09,0.198-0.135,0.324-0.135
		S474.404,56.808,474.494,56.897z M474.508,59.044v5.994h-0.675v-5.994H474.508z"/>
	<path d="M475.871,63.485h0.675c0.243,0.729,0.801,1.094,1.674,1.094c0.432,0,0.783-0.095,1.053-0.284
		c0.271-0.189,0.405-0.463,0.405-0.823c0-0.504-0.369-0.859-1.106-1.066l-1.121-0.311c-0.945-0.252-1.417-0.756-1.417-1.512
		c0-0.504,0.193-0.907,0.58-1.208c0.387-0.302,0.868-0.453,1.444-0.453c0.612,0,1.109,0.145,1.492,0.432
		c0.382,0.288,0.628,0.688,0.735,1.202h-0.661c-0.234-0.702-0.756-1.053-1.566-1.053c-0.396,0-0.725,0.093-0.985,0.277
		c-0.261,0.185-0.392,0.443-0.392,0.776c0,0.27,0.083,0.473,0.25,0.607c0.166,0.135,0.443,0.256,0.83,0.365l1.066,0.297
		c0.999,0.261,1.499,0.806,1.499,1.633c0,0.531-0.198,0.947-0.595,1.249c-0.396,0.301-0.904,0.452-1.525,0.452
		c-0.612,0-1.132-0.148-1.559-0.446C476.22,64.417,475.961,64.008,475.871,63.485z"/>
	<path d="M488.871,65.038h-0.647v-0.567c-0.145,0.171-0.369,0.324-0.675,0.459c-0.307,0.135-0.635,0.203-0.986,0.203
		c-0.63,0-1.156-0.169-1.579-0.506s-0.635-0.785-0.635-1.343c0-0.54,0.216-0.981,0.648-1.323c0.432-0.342,0.963-0.513,1.593-0.513
		c0.324,0,0.639,0.065,0.945,0.196c0.306,0.13,0.535,0.276,0.688,0.438v-1.066c0-0.45-0.133-0.812-0.398-1.087
		c-0.266-0.274-0.633-0.412-1.101-0.412c-0.747,0-1.232,0.342-1.458,1.026h-0.661c0.117-0.504,0.366-0.9,0.749-1.188
		c0.383-0.288,0.839-0.432,1.37-0.432c0.666,0,1.19,0.187,1.573,0.561c0.382,0.374,0.573,0.875,0.573,1.505V65.038z M488.224,63.675
		v-0.77c-0.1-0.261-0.3-0.475-0.601-0.642c-0.302-0.167-0.633-0.25-0.992-0.25c-0.459,0-0.849,0.11-1.168,0.331
		c-0.319,0.221-0.479,0.533-0.479,0.938c0,0.405,0.16,0.72,0.479,0.945c0.319,0.225,0.709,0.337,1.168,0.337
		c0.359,0,0.69-0.083,0.992-0.25C487.924,64.149,488.124,63.936,488.224,63.675z"/>
	<path d="M494.002,64.295c-0.486-0.576-0.729-1.327-0.729-2.254c0-0.927,0.243-1.678,0.729-2.254
		c0.485-0.576,1.125-0.864,1.917-0.864c0.621,0,1.131,0.169,1.532,0.506c0.4,0.337,0.654,0.79,0.763,1.357h-0.688
		c-0.091-0.396-0.275-0.704-0.554-0.925c-0.279-0.22-0.63-0.331-1.053-0.331c-0.586,0-1.061,0.229-1.425,0.688
		s-0.547,1.066-0.547,1.822s0.183,1.364,0.547,1.823s0.839,0.688,1.425,0.688c0.423,0,0.773-0.11,1.053-0.331
		c0.278-0.22,0.463-0.528,0.554-0.925h0.688c-0.108,0.567-0.362,1.02-0.763,1.357c-0.401,0.337-0.911,0.506-1.532,0.506
		C495.127,65.16,494.487,64.872,494.002,64.295z"/>
	<path d="M499.672,65.038v-8.775h0.675v3.739c0.197-0.306,0.466-0.562,0.803-0.77c0.338-0.207,0.709-0.311,1.114-0.311
		c0.666,0,1.179,0.196,1.539,0.587c0.359,0.392,0.54,0.911,0.54,1.559v3.969h-0.662v-3.875c0-0.486-0.128-0.877-0.385-1.174
		c-0.256-0.297-0.641-0.446-1.154-0.446c-0.396,0-0.756,0.122-1.08,0.365c-0.323,0.243-0.562,0.553-0.715,0.931v4.199H499.672z"/>
	<path d="M510.094,63.296h0.647c-0.117,0.567-0.38,1.02-0.79,1.357c-0.409,0.337-0.92,0.506-1.532,0.506
		c-0.792,0-1.433-0.288-1.923-0.864c-0.491-0.576-0.736-1.327-0.736-2.254c0-0.909,0.241-1.656,0.723-2.241s1.122-0.878,1.924-0.878
		c0.773,0,1.372,0.268,1.795,0.804c0.423,0.535,0.635,1.244,0.635,2.126v0.243h-4.414c0.009,0.756,0.197,1.356,0.566,1.802
		c0.369,0.445,0.846,0.668,1.431,0.668c0.424,0,0.785-0.112,1.087-0.337C509.808,64.003,510.003,63.693,510.094,63.296z
		 M508.406,59.517c-0.54,0-0.983,0.185-1.33,0.554s-0.556,0.869-0.628,1.498h3.713c-0.019-0.576-0.176-1.062-0.473-1.458
		C509.392,59.715,508.964,59.517,508.406,59.517z"/>
	<path d="M516.223,63.296h0.647c-0.117,0.567-0.38,1.02-0.79,1.357c-0.409,0.337-0.92,0.506-1.532,0.506
		c-0.792,0-1.433-0.288-1.923-0.864c-0.491-0.576-0.736-1.327-0.736-2.254c0-0.909,0.241-1.656,0.723-2.241s1.122-0.878,1.924-0.878
		c0.773,0,1.372,0.268,1.795,0.804c0.423,0.535,0.635,1.244,0.635,2.126v0.243h-4.414c0.009,0.756,0.197,1.356,0.566,1.802
		c0.369,0.445,0.846,0.668,1.431,0.668c0.424,0,0.785-0.112,1.087-0.337C515.937,64.003,516.132,63.693,516.223,63.296z
		 M514.535,59.517c-0.54,0-0.983,0.185-1.33,0.554s-0.556,0.869-0.628,1.498h3.713c-0.019-0.576-0.176-1.062-0.473-1.458
		C515.521,59.715,515.093,59.517,514.535,59.517z"/>
	<path d="M518.706,63.647v-4.023h-1.013v-0.581h1.013v-1.539h0.661v1.539h1.553v0.581h-1.553v3.956c0,0.648,0.288,0.972,0.864,0.972
		c0.288,0,0.562-0.077,0.823-0.229v0.634c-0.252,0.135-0.549,0.203-0.891,0.203c-0.45,0-0.806-0.128-1.066-0.385
		C518.836,64.519,518.706,64.143,518.706,63.647z"/>
	<path d="M526.481,65.038h-0.647v-0.567c-0.145,0.171-0.369,0.324-0.675,0.459c-0.307,0.135-0.635,0.203-0.986,0.203
		c-0.63,0-1.156-0.169-1.579-0.506s-0.635-0.785-0.635-1.343c0-0.54,0.216-0.981,0.648-1.323c0.432-0.342,0.963-0.513,1.593-0.513
		c0.324,0,0.639,0.065,0.945,0.196c0.306,0.13,0.535,0.276,0.688,0.438v-1.066c0-0.45-0.133-0.812-0.398-1.087
		c-0.266-0.274-0.633-0.412-1.101-0.412c-0.747,0-1.232,0.342-1.458,1.026h-0.661c0.117-0.504,0.366-0.9,0.749-1.188
		c0.383-0.288,0.839-0.432,1.37-0.432c0.666,0,1.19,0.187,1.573,0.561c0.382,0.374,0.573,0.875,0.573,1.505V65.038z M525.834,63.675
		v-0.77c-0.1-0.261-0.3-0.475-0.601-0.642c-0.302-0.167-0.633-0.25-0.992-0.25c-0.459,0-0.849,0.11-1.168,0.331
		c-0.319,0.221-0.479,0.533-0.479,0.938c0,0.405,0.16,0.72,0.479,0.945c0.319,0.225,0.709,0.337,1.168,0.337
		c0.359,0,0.69-0.083,0.992-0.25C525.534,64.149,525.734,63.936,525.834,63.675z"/>
	<path d="M528.332,65.038v-8.775h0.675v3.739c0.197-0.306,0.466-0.562,0.803-0.77c0.338-0.207,0.709-0.311,1.114-0.311
		c0.666,0,1.179,0.196,1.539,0.587c0.359,0.392,0.54,0.911,0.54,1.559v3.969h-0.662v-3.875c0-0.486-0.128-0.877-0.385-1.174
		c-0.256-0.297-0.641-0.446-1.154-0.446c-0.396,0-0.756,0.122-1.08,0.365c-0.323,0.243-0.562,0.553-0.715,0.931v4.199H528.332z"/>
</g>
<g>
	
		<line fill="none" stroke="#C1C1C1" stroke-width="0.75" stroke-miterlimit="10" x1="50.625" y1="20.826" x2="212.625" y2="20.826"/>
	<g>
		
			<line fill="none" stroke="#C1C1C1" stroke-width="0.75" stroke-miterlimit="10" x1="222.75" y1="20.826" x2="272.562" y2="20.826"/>
		<g>
			<polygon fill="#C1C1C1" points="270.076,23.893 269.565,23.344 272.273,20.827 269.565,18.308 270.076,17.759 273.375,20.827 			
				"/>
		</g>
	</g>
	<g>
		
			<line fill="none" stroke="#C1C1C1" stroke-width="0.75" stroke-miterlimit="10" x1="222.75" y1="61.326" x2="272.562" y2="61.326"/>
		<g>
			<polygon fill="#C1C1C1" points="270.076,64.394 269.565,63.844 272.273,61.327 269.565,58.809 270.076,58.259 273.375,61.327 			
				"/>
		</g>
	</g>
	<path fill="none" stroke="#C1C1C1" stroke-width="0.75" stroke-miterlimit="10" d="M86.625,61.326h126
		c-36.562,0-95.625-20.813-146.25-20.813"/>
	<path fill="none" stroke="#C1C1C1" stroke-width="0.75" stroke-miterlimit="10" d="M139.5,81.013
		c30.938,0,38.812-19.687,73.125-19.687"/>
	<path fill="none" stroke="#C1C1C1" stroke-width="0.75" stroke-miterlimit="10" d="M175.304,71.169
		c-3.879,0-7.025-3.146-7.025-7.025s3.146-7.025,7.025-7.025"/>
	
		<line fill="none" stroke="#C1C1C1" stroke-width="0.75" stroke-miterlimit="10" x1="60.375" y1="101.263" x2="212.625" y2="101.263"/>
	<g>
		<path fill="none" stroke="#C1C1C1" stroke-width="0.75" stroke-miterlimit="10" d="M222.75,101.263
			c39.322,0,89.285-4.771,90.358-29.285"/>
		<g>
			<polygon fill="#C1C1C1" points="315.904,74.714 315.314,75.177 313.033,72.267 310.297,74.754 309.792,74.199 313.126,71.169 			
				"/>
		</g>
	</g>
	<g>
		
			<line fill="none" stroke="#C1C1C1" stroke-width="0.75" stroke-miterlimit="10" x1="416.998" y1="61.326" x2="466.811" y2="61.326"/>
		<g>
			<polygon fill="#C1C1C1" points="464.325,64.394 463.813,63.844 466.522,61.327 463.813,58.809 464.325,58.259 467.624,61.327 			
				"/>
		</g>
	</g>
	<path fill="none" stroke="#C1C1C1" stroke-width="0.75" stroke-miterlimit="10" d="M56.812,121.513
		c51.188,0,212.983,10.036,261.562-15.188c58.501-30.375,57.187-39.938,88.5-39.938"/>
	
		<line fill="none" stroke="#C1C1C1" stroke-width="0.75" stroke-miterlimit="10" x1="356.625" y1="60.763" x2="406.874" y2="60.763"/>
	<path fill="none" stroke="#C1C1C1" stroke-width="0.75" stroke-miterlimit="10" d="M356.625,20.263
		c20.812,0,14.436,36.024,50.249,36.856"/>
	<path fill="none" stroke="#C1C1C1" stroke-width="0.75" stroke-miterlimit="10" d="M56.812,141.763
		c96.75,0,216.562,13.5,263.812-10.125c47.25-23.626,33.561-58.5,86.249-62.438"/>
	<path fill="none" stroke="#C1C1C1" stroke-width="0.75" stroke-miterlimit="10" d="M396.896,70.044
		c-3.88,0-7.024-3.146-7.024-7.025s3.145-7.025,7.024-7.025"/>
</g>
<g>
	<rect x="212.062" y="1.138" fill="none" width="19.126" height="12.375"/>
	<path d="M215.987,7.15c-0.126-0.144-0.189-0.27-0.252-0.531l-0.216-0.945c-0.153-0.639-0.513-0.855-1.197-0.855h-1V7.15h-0.477
		V1.848h1.639c1.197,0,1.737,0.522,1.737,1.458c0,0.837-0.576,1.288-1.233,1.323v0.018c0.522,0.054,0.819,0.297,0.972,0.892
		l0.252,1.026c0.063,0.243,0.162,0.432,0.297,0.585H215.987z M213.322,4.414h1.152c0.837,0,1.251-0.369,1.251-1.08
		c0-0.703-0.396-1.081-1.251-1.081h-1.152V4.414z"/>
	<path d="M218.281,7.15V3.279l-1.269,0.288V3.171l1.729-0.414V7.15H218.281z"/>
</g>
<g>
	<rect x="212.062" y="42.482" fill="none" width="19.126" height="12.375"/>
	<path d="M215.987,48.494c-0.126-0.144-0.189-0.27-0.252-0.531l-0.216-0.945c-0.153-0.639-0.513-0.855-1.197-0.855h-1v2.332h-0.477
		v-5.303h1.639c1.197,0,1.737,0.522,1.737,1.458c0,0.837-0.576,1.288-1.233,1.323v0.018c0.522,0.054,0.819,0.297,0.972,0.892
		l0.252,1.026c0.063,0.243,0.162,0.432,0.297,0.585H215.987z M213.322,45.757h1.152c0.837,0,1.251-0.369,1.251-1.08
		c0-0.703-0.396-1.081-1.251-1.081h-1.152V45.757z"/>
	<path d="M220.415,48.494h-3.268v-0.396c1.576-0.667,2.539-1.521,2.539-2.584c0-0.711-0.45-1.044-1.044-1.044
		c-0.558,0-0.972,0.324-1.053,1.072l-0.432-0.09c0.144-1.053,0.837-1.368,1.521-1.368c0.783,0,1.485,0.405,1.485,1.413
		c0,1.278-1.251,2.224-2.386,2.575v0.027h2.638V48.494z"/>
</g>
<g>
	<rect x="212.062" y="81.576" fill="none" width="19.126" height="12.376"/>
	<path d="M215.987,87.587c-0.126-0.144-0.189-0.27-0.252-0.531l-0.216-0.945c-0.153-0.639-0.513-0.854-1.197-0.854h-1v2.331h-0.477
		v-5.303h1.639c1.197,0,1.737,0.523,1.737,1.459c0,0.838-0.576,1.287-1.233,1.323v0.019c0.522,0.054,0.819,0.297,0.972,0.891
		l0.252,1.027c0.063,0.242,0.162,0.432,0.297,0.584H215.987z M213.322,84.851h1.152c0.837,0,1.251-0.369,1.251-1.08
		c0-0.703-0.396-1.08-1.251-1.08h-1.152V84.851z"/>
	<path d="M218.749,85.904c0.874,0.063,1.54,0.613,1.54,1.45c0,0.927-0.783,1.476-1.657,1.476c-1.017,0-1.629-0.494-1.719-1.26
		l0.441-0.081c0.117,0.667,0.567,0.972,1.27,0.972s1.207-0.422,1.207-1.115c0-0.711-0.531-1.18-1.756-1.242v-0.388
		c1.089-0.09,1.621-0.468,1.621-1.225c0-0.63-0.486-0.927-1.053-0.927c-0.558,0-0.972,0.287-1.098,0.936l-0.432-0.099
		c0.135-0.711,0.657-1.224,1.548-1.224c0.783,0,1.503,0.396,1.503,1.313c0,0.757-0.558,1.297-1.414,1.378V85.904z"/>
</g>
<g>
	<rect x="405.187" y="41.638" fill="none" width="19.125" height="12.375"/>
	<path d="M409.111,47.65c-0.126-0.144-0.188-0.27-0.252-0.531l-0.216-0.945c-0.153-0.639-0.513-0.855-1.197-0.855h-0.999v2.332
		h-0.478v-5.303h1.639c1.197,0,1.737,0.522,1.737,1.458c0,0.837-0.576,1.288-1.233,1.323v0.018c0.522,0.054,0.819,0.297,0.973,0.892
		l0.252,1.026c0.062,0.243,0.162,0.432,0.297,0.585H409.111z M406.447,44.914h1.152c0.837,0,1.251-0.369,1.251-1.08
		c0-0.703-0.396-1.081-1.251-1.081h-1.152V44.914z"/>
	<path d="M412.783,47.164h-2.692V46.84l2.692-3.52h0.459v3.457h0.882v0.387h-0.882v1.666h-0.459V47.164z M412.783,46.777v-2.071
		c0-0.54,0.036-0.864,0.036-0.864h-0.027c0,0-0.162,0.288-0.531,0.792l-1.17,1.54c-0.324,0.423-0.514,0.604-0.514,0.604v0.027
		c0,0,0.226-0.027,0.666-0.027H412.783z"/>
</g>
<g>
	<path fill="#386DF9" d="M212.625,30.951c5.592,0,10.125-4.533,10.125-10.125s-4.533-10.125-10.125-10.125V30.951z"/>
	<path fill="#386DF9" d="M212.625,71.451c5.592,0,10.125-4.533,10.125-10.125c0-5.592-4.533-10.125-10.125-10.125V71.451z"/>
	<path fill="#386DF9" d="M212.625,111.388c5.592,0,10.125-4.532,10.125-10.125c0-5.592-4.533-10.124-10.125-10.124V111.388z"/>
	<path fill="#386DF9" d="M406.874,71.451c5.592,0,10.124-4.533,10.124-10.125c0-5.592-4.532-10.125-10.124-10.125V71.451z"/>
</g>
<g>
</g>
<g>
</g>
<g>
</g>
<g>
</g>
<g>
</g>
<g>
</g>
<g>
</g>
</svg>
