<?xml version="1.0" encoding="utf-8"?>
<!-- Generator: Adobe Illustrator 16.0.0, SVG Export Plug-In . SVG Version: 6.00 Build 0)  -->
<!DOCTYPE svg PUBLIC "-//W3C//DTD SVG 1.1 Tiny//EN" "http://www.w3.org/Graphics/SVG/1.1/DTD/svg11-tiny.dtd">
<svg version="1.1" baseProfile="tiny" id="Layer_1" xmlns="http://www.w3.org/2000/svg" xmlns:xlink="http://www.w3.org/1999/xlink"
	 x="0px" y="0px" width="161.424px" height="122.335px" viewBox="0 0 161.424 122.335" xml:space="preserve">
<line fill="#FFFFFF" stroke="#D0D2D3" stroke-width="0.5" stroke-linecap="round" stroke-miterlimit="10" stroke-dasharray="4" x1="68.835" y1="58.066" x2="135.9" y2="58.066"/>
<line fill="#FFFFFF" stroke="#D0D2D3" stroke-width="0.5" stroke-linecap="round" stroke-miterlimit="10" stroke-dasharray="4" x1="68.045" y1="25.395" x2="139.12" y2="51.081"/>
<g>
	<line fill="#FFFFFF" x1="66.716" y1="87.407" x2="135.9" y2="59.463"/>
	<g>
		
			<line fill="none" stroke="#D0D2D3" stroke-width="0.5" stroke-linecap="round" stroke-miterlimit="10" x1="66.716" y1="87.407" x2="68.57" y2="86.657"/>
		
			<line fill="none" stroke="#D0D2D3" stroke-width="0.5" stroke-linecap="round" stroke-miterlimit="10" stroke-dasharray="4.1538,4.1538" x1="72.422" y1="85.103" x2="132.12" y2="60.99"/>
		
			<line fill="none" stroke="#D0D2D3" stroke-width="0.5" stroke-linecap="round" stroke-miterlimit="10" x1="134.046" y1="60.212" x2="135.9" y2="59.463"/>
	</g>
</g>
<g>
	<circle fill="#FF1614" stroke="#231F20" stroke-width="0.75" stroke-miterlimit="10" cx="148.474" cy="59.463" r="12.575"/>
	<circle fill="#386DF9" stroke="#231F20" stroke-width="0.75" stroke-miterlimit="10" cx="12.95" cy="94.392" r="12.574"/>
	<circle fill="#FFFFFF" stroke="#231F20" stroke-width="0.75" stroke-miterlimit="10" cx="56.262" cy="94.392" r="12.574"/>
	<circle fill="#FFFFFF" stroke="#231F20" stroke-width="0.75" stroke-miterlimit="10" cx="95.382" cy="94.392" r="12.574"/>
	<circle fill="#FFFFFF" stroke="#231F20" stroke-width="0.75" stroke-miterlimit="10" cx="56.262" cy="58.066" r="12.574"/>
	<circle fill="#FFFFFF" stroke="#231F20" stroke-width="0.75" stroke-miterlimit="10" cx="56.262" cy="21.041" r="12.574"/>
	<circle fill="#FFFFFF" stroke="#231F20" stroke-width="0.75" stroke-miterlimit="10" cx="148.474" cy="21.041" r="12.574"/>
</g>
<g>
	<g>
		<rect x="5.964" y="88.803" fill="none" width="13.973" height="33.532"/>
		<path fill="#FFFFFF" d="M9.069,97.019h1.341c0.392,1.14,1.264,1.71,2.616,1.71c0.682,0,1.231-0.159,1.651-0.478
			c0.419-0.319,0.628-0.758,0.628-1.316c0-0.413-0.128-0.752-0.385-1.015c-0.258-0.262-0.677-0.466-1.258-0.611l-1.845-0.486
			c-1.643-0.425-2.464-1.308-2.464-2.649c0-0.86,0.318-1.562,0.955-2.104c0.638-0.542,1.447-0.813,2.432-0.813
			c1.039,0,1.878,0.243,2.515,0.729s1.057,1.148,1.258,1.986h-1.325c-0.368-1.062-1.185-1.593-2.447-1.593
			c-0.626,0-1.138,0.154-1.534,0.461c-0.397,0.308-0.596,0.719-0.596,1.232c0,0.425,0.135,0.758,0.402,0.998
			c0.269,0.24,0.682,0.433,1.241,0.578l1.761,0.453c1.71,0.436,2.564,1.357,2.564,2.766c0,0.917-0.332,1.644-0.997,2.18
			c-0.665,0.537-1.518,0.805-2.557,0.805c-1.04,0-1.912-0.248-2.616-0.746C9.706,98.608,9.259,97.913,9.069,97.019z"/>
	</g>
	<g>
		<rect x="49.276" y="88.803" fill="none" width="13.971" height="33.532"/>
		<path fill="#231F20" d="M55.642,89.406h1.24l4.024,10.295h-1.342l-1.19-3.102h-4.241l-1.174,3.102h-1.341L55.642,89.406z
			 M56.245,91.05l-1.677,4.393h3.354L56.245,91.05z"/>
	</g>
	<g>
		<rect x="89.095" y="88.803" fill="none" width="13.973" height="33.532"/>
		<path fill="#231F20" d="M92.233,99.701V89.406h3.303c1.51,0,2.719,0.467,3.63,1.4s1.367,2.183,1.367,3.747
			c0,1.565-0.456,2.814-1.367,3.747c-0.911,0.934-2.12,1.4-3.63,1.4H92.233z M93.559,98.511h1.961c1.163,0,2.071-0.354,2.725-1.064
			c0.654-0.71,0.98-1.674,0.98-2.893c0-1.218-0.329-2.185-0.988-2.9c-0.66-0.715-1.565-1.073-2.717-1.073h-1.961V98.511z"/>
	</g>
	<g>
		<rect x="49.276" y="52.478" fill="none" width="13.971" height="33.531"/>
		<path fill="#231F20" d="M58.257,58.044c0.548,0.146,0.995,0.442,1.342,0.889c0.346,0.447,0.52,0.962,0.52,1.543
			c0,0.928-0.302,1.643-0.905,2.146s-1.442,0.755-2.515,0.755h-3.723V53.081h3.387c1.073,0,1.909,0.235,2.507,0.704
			c0.598,0.47,0.896,1.146,0.896,2.029c0,0.582-0.142,1.065-0.427,1.45C59.054,57.65,58.693,57.91,58.257,58.044z M54.267,57.558
			h2.096c1.42,0,2.13-0.559,2.13-1.676c0-1.096-0.71-1.643-2.13-1.643h-2.096V57.558z M54.267,58.664v3.555h2.432
			c0.682,0,1.207-0.159,1.575-0.478c0.369-0.318,0.554-0.752,0.554-1.3c0-0.559-0.185-0.995-0.554-1.308
			c-0.368-0.313-0.894-0.47-1.575-0.47H54.267z"/>
	</g>
	<g>
		<rect x="48.577" y="15.453" fill="none" width="13.973" height="33.53"/>
		<path fill="#231F20" d="M52.588,25.035c-0.878-0.978-1.316-2.255-1.316-3.831c0-1.576,0.438-2.853,1.316-3.831
			c0.877-0.978,1.976-1.467,3.295-1.467c1.062,0,1.941,0.285,2.641,0.855c0.698,0.57,1.153,1.341,1.366,2.314h-1.308
			c-0.47-1.319-1.37-1.979-2.699-1.979c-0.984,0-1.777,0.377-2.381,1.132s-0.905,1.747-0.905,2.976c0,1.218,0.302,2.208,0.905,2.967
			c0.604,0.76,1.396,1.14,2.381,1.14c1.341,0,2.24-0.665,2.699-1.995h1.308c-0.213,0.984-0.668,1.76-1.366,2.331
			c-0.699,0.57-1.579,0.855-2.641,0.855C54.563,26.502,53.465,26.013,52.588,25.035z"/>
	</g>
	<g>
		<rect x="141.489" y="53.875" fill="none" width="13.971" height="33.53"/>
		<path fill="#FFFFFF" d="M151.711,60.833h-2.465v-1.14h3.722v0.704c0,1.363-0.394,2.459-1.182,3.286s-1.813,1.24-3.076,1.24
			c-1.364,0-2.493-0.486-3.387-1.458c-0.895-0.973-1.342-2.253-1.342-3.84c0-1.576,0.447-2.853,1.342-3.831
			c0.894-0.978,2.012-1.467,3.353-1.467c1.073,0,1.965,0.285,2.675,0.855c0.709,0.57,1.171,1.341,1.383,2.314h-1.324
			c-0.48-1.319-1.392-1.979-2.733-1.979c-1.006,0-1.818,0.377-2.439,1.132c-0.62,0.754-0.93,1.747-0.93,2.976
			s0.312,2.225,0.938,2.984c0.626,0.761,1.447,1.14,2.465,1.14c0.883,0,1.584-0.26,2.104-0.779
			C151.334,62.451,151.633,61.738,151.711,60.833z"/>
	</g>
	<g>
		<rect x="140.79" y="15.453" fill="none" width="13.973" height="33.53"/>
		<path fill="#231F20" d="M144.683,16.057h6.556v1.174h-5.248v3.252h4.762v1.174h-4.762v3.504h5.248v1.19h-6.556V16.057z"/>
	</g>
</g>
<g>
	<line fill="none" stroke="#231F20" stroke-width="0.75" stroke-miterlimit="10" x1="25.523" y1="94.392" x2="43.687" y2="94.392"/>
	<line fill="none" stroke="#231F20" stroke-width="0.75" stroke-miterlimit="10" x1="68.835" y1="94.392" x2="82.808" y2="94.392"/>
	<line fill="none" stroke="#231F20" stroke-width="0.75" stroke-miterlimit="10" x1="56.262" y1="81.817" x2="56.262" y2="70.641"/>
	<line fill="none" stroke="#231F20" stroke-width="0.75" stroke-miterlimit="10" x1="56.262" y1="46.19" x2="56.262" y2="33.616"/>
	
		<line fill="none" stroke="#231F20" stroke-width="0.75" stroke-miterlimit="10" x1="106.118" y1="87.872" x2="138.02" y2="66.448"/>
	<line fill="none" stroke="#231F20" stroke-width="0.75" stroke-miterlimit="10" x1="68.835" y1="21.041" x2="135.9" y2="21.041"/>
	<line fill="none" stroke="#231F20" stroke-width="0.75" stroke-miterlimit="10" x1="20.845" y1="84.612" x2="46.907" y2="66.448"/>
</g>
<g>
	<g>
		<rect x="30.88" y="101.378" fill="none" width="7.453" height="18.628"/>
		<path fill="#929497" d="M33.708,107.049v-1.029h0.63c0.512,0,0.935-0.141,1.268-0.423c0.333-0.281,0.5-0.668,0.5-1.16
			c0-0.461-0.156-0.843-0.469-1.145c-0.312-0.303-0.73-0.454-1.253-0.454s-0.947,0.154-1.275,0.462
			c-0.328,0.307-0.528,0.712-0.6,1.214h-1.184c0.113-0.81,0.446-1.465,0.999-1.968c0.554-0.502,1.24-0.753,2.06-0.753
			c0.881,0,1.58,0.238,2.098,0.715s0.776,1.099,0.776,1.867c0,0.513-0.136,0.966-0.407,1.36s-0.628,0.658-1.068,0.791
			c0.513,0.144,0.917,0.413,1.215,0.808c0.297,0.395,0.445,0.857,0.445,1.391c0,0.799-0.274,1.463-0.822,1.99
			s-1.283,0.791-2.205,0.791c-0.923,0-1.678-0.256-2.268-0.768c-0.589-0.513-0.925-1.199-1.006-2.06h1.183
			c0.082,0.553,0.303,0.988,0.661,1.306c0.358,0.318,0.83,0.477,1.414,0.477c0.563,0,1.02-0.156,1.368-0.469
			c0.348-0.312,0.522-0.729,0.522-1.252c0-0.513-0.183-0.923-0.546-1.229c-0.364-0.308-0.822-0.462-1.376-0.462H33.708z"/>
	</g>
	<g>
		<rect x="73.493" y="101.378" fill="none" width="7.453" height="18.628"/>
		<path fill="#929497" d="M76.321,107.049v-1.029h0.63c0.512,0,0.935-0.141,1.268-0.423c0.333-0.281,0.5-0.668,0.5-1.16
			c0-0.461-0.156-0.843-0.469-1.145c-0.312-0.303-0.73-0.454-1.253-0.454s-0.947,0.154-1.275,0.462
			c-0.328,0.307-0.528,0.712-0.6,1.214h-1.184c0.113-0.81,0.446-1.465,0.999-1.968c0.554-0.502,1.24-0.753,2.06-0.753
			c0.881,0,1.58,0.238,2.098,0.715s0.776,1.099,0.776,1.867c0,0.513-0.136,0.966-0.407,1.36s-0.628,0.658-1.068,0.791
			c0.513,0.144,0.917,0.413,1.215,0.808c0.297,0.395,0.445,0.857,0.445,1.391c0,0.799-0.274,1.463-0.822,1.99
			s-1.283,0.791-2.205,0.791c-0.923,0-1.678-0.256-2.268-0.768c-0.589-0.513-0.925-1.199-1.006-2.06h1.183
			c0.082,0.553,0.303,0.988,0.661,1.306c0.358,0.318,0.83,0.477,1.414,0.477c0.563,0,1.02-0.156,1.368-0.469
			c0.348-0.312,0.522-0.729,0.522-1.252c0-0.513-0.183-0.923-0.546-1.229c-0.364-0.308-0.822-0.462-1.376-0.462H76.321z"/>
	</g>
	<g>
		<rect x="126.585" y="76.695" fill="none" width="7.453" height="18.629"/>
		<path fill="#929497" d="M130.228,81.613c-0.666,0-1.225,0.271-1.676,0.814H127.6v-5.179h5.164v1.076h-4.15v2.843
			c0.44-0.399,1.015-0.6,1.722-0.6c0.871,0,1.583,0.295,2.136,0.884c0.554,0.59,0.83,1.34,0.83,2.252
			c0,0.891-0.287,1.634-0.86,2.229c-0.574,0.594-1.307,0.891-2.197,0.891c-0.902,0-1.64-0.251-2.214-0.753
			c-0.573-0.502-0.917-1.193-1.029-2.074h1.184c0.215,1.188,0.901,1.782,2.06,1.782c0.562,0,1.024-0.197,1.383-0.592
			c0.358-0.394,0.538-0.889,0.538-1.482c0-0.595-0.18-1.092-0.538-1.491S130.801,81.613,130.228,81.613z"/>
	</g>
	<g>
		<rect x="63.854" y="33.615" fill="none" width="10.895" height="18.628"/>
		<path fill="#929497" d="M69.049,34.168l-3.52,6.286h3.013V38.18h1.122v2.275h1.659v1.014h-1.659v2.136h-1.122v-2.136h-4.35v-0.861
			l3.627-6.439H69.049z"/>
	</g>
	<g>
		<rect x="63.854" y="69.242" fill="none" width="10.895" height="18.628"/>
		<path fill="#929497" d="M69.049,69.796l-3.52,6.286h3.013v-2.275h1.122v2.275h1.659v1.014h-1.659v2.137h-1.122v-2.137h-4.35v-0.86
			l3.627-6.439H69.049z"/>
	</g>
	<g>
		<rect x="26.831" y="58.532" fill="none" width="10.893" height="18.627"/>
		<path fill="#929497" d="M30.474,63.45c-0.666,0-1.225,0.271-1.676,0.814h-0.952v-5.179h5.164v1.077h-4.15v2.843
			c0.44-0.399,1.015-0.6,1.722-0.6c0.871,0,1.583,0.295,2.136,0.884c0.554,0.59,0.83,1.34,0.83,2.252
			c0,0.891-0.287,1.634-0.86,2.229c-0.574,0.594-1.307,0.891-2.197,0.891c-0.902,0-1.64-0.251-2.214-0.753
			c-0.573-0.502-0.917-1.193-1.029-2.074h1.184c0.215,1.188,0.901,1.782,2.06,1.782c0.562,0,1.024-0.197,1.383-0.592
			c0.358-0.394,0.538-0.889,0.538-1.482c0-0.595-0.18-1.092-0.538-1.491S31.047,63.45,30.474,63.45z"/>
	</g>
	<g>
		<rect x="97.62" y="2.413" fill="none" width="10.895" height="18.627"/>
		<path fill="#929497" d="M104.628,5.164h-1.198c-0.287-0.891-0.866-1.337-1.737-1.337c-0.687,0-1.255,0.346-1.705,1.037
			c-0.451,0.692-0.677,1.55-0.677,2.575c0,0.03,0.003,0.1,0.008,0.207c0.005,0.108,0.008,0.177,0.008,0.208
			c0.153-0.481,0.45-0.871,0.892-1.168c0.44-0.297,0.938-0.446,1.49-0.446c0.892,0,1.624,0.305,2.198,0.915
			c0.573,0.61,0.86,1.35,0.86,2.221c0,0.892-0.292,1.642-0.876,2.252c-0.584,0.609-1.348,0.914-2.29,0.914
			c-1.281,0-2.219-0.599-2.812-1.798c-0.369-0.779-0.553-1.742-0.553-2.89c0-1.516,0.319-2.733,0.96-3.65s1.473-1.375,2.497-1.375
			C103.25,2.828,104.229,3.607,104.628,5.164z M99.572,9.391c0,0.615,0.189,1.122,0.568,1.521s0.871,0.599,1.476,0.599
			c0.594,0,1.081-0.197,1.46-0.591s0.568-0.904,0.568-1.529s-0.189-1.14-0.568-1.544s-0.866-0.607-1.46-0.607
			c-0.604,0-1.097,0.2-1.476,0.6S99.572,8.755,99.572,9.391z"/>
	</g>
	<g>
		<rect x="93.067" y="61.327" fill="none" width="26.453" height="18.627"/>
		<path fill="#BBBDBF" d="M99.445,62.818l-3.365,8.499h-1.215l3.335-8.36h-4.856v-1.076h6.102V62.818z"/>
		<path fill="#BBBDBF" d="M102.934,63.725h0.953v2.552h2.551v0.953h-2.551v2.551h-0.953v-2.551h-2.551v-0.953h2.551V63.725z"/>
	</g>
	<g>
		<rect x="93.067" y="45.958" fill="none" width="26.453" height="18.627"/>
		<path fill="#BBBDBF" d="M100.075,48.709h-1.198c-0.287-0.891-0.866-1.337-1.737-1.337c-0.687,0-1.255,0.346-1.705,1.037
			c-0.451,0.692-0.677,1.55-0.677,2.575c0,0.03,0.003,0.1,0.008,0.207c0.005,0.108,0.008,0.177,0.008,0.208
			c0.153-0.481,0.45-0.871,0.892-1.168c0.44-0.297,0.938-0.446,1.49-0.446c0.892,0,1.624,0.305,2.198,0.915
			c0.573,0.61,0.86,1.35,0.86,2.221c0,0.892-0.292,1.642-0.876,2.252c-0.584,0.609-1.348,0.914-2.29,0.914
			c-1.281,0-2.219-0.599-2.812-1.798c-0.369-0.779-0.553-1.742-0.553-2.89c0-1.516,0.319-2.733,0.96-3.65s1.473-1.375,2.497-1.375
			C98.697,46.373,99.676,47.152,100.075,48.709z M95.02,52.936c0,0.615,0.189,1.122,0.568,1.521s0.871,0.599,1.476,0.599
			c0.594,0,1.081-0.197,1.46-0.591s0.568-0.904,0.568-1.529s-0.189-1.14-0.568-1.544s-0.866-0.607-1.46-0.607
			c-0.604,0-1.097,0.2-1.476,0.6S95.02,52.3,95.02,52.936z"/>
	</g>
	<g>
		<rect x="106.294" y="28.923" fill="none" width="26.453" height="18.628"/>
		<path fill="#BBBDBF" d="M112.672,30.414l-3.365,8.499h-1.215l3.335-8.36h-4.856v-1.076h6.102V30.414z"/>
		<path fill="#BBBDBF" d="M116.16,31.32h0.953v2.551h2.551v0.953h-2.551v2.551h-0.953v-2.551h-2.551v-0.953h2.551V31.32z"/>
	</g>
</g>
<g>
</g>
<g>
</g>
<g>
</g>
<g>
</g>
<g>
</g>
<g>
</g>
</svg>
