<?xml version="1.0" encoding="utf-8"?>
<!-- Generator: Adobe Illustrator 16.0.0, SVG Export Plug-In . SVG Version: 6.00 Build 0)  -->
<!DOCTYPE svg PUBLIC "-//W3C//DTD SVG 1.1 Tiny//EN" "http://www.w3.org/Graphics/SVG/1.1/DTD/svg11-tiny.dtd">
<svg version="1.1" baseProfile="tiny" id="Layer_1" xmlns="http://www.w3.org/2000/svg" xmlns:xlink="http://www.w3.org/1999/xlink"
	 x="0px" y="0px" width="161.424px" height="122.335px" viewBox="0 0 161.424 122.335" xml:space="preserve">
<circle fill="#386DF9" stroke="#231F20" stroke-width="0.75" stroke-miterlimit="10" cx="12.95" cy="94.393" r="12.574"/>
<circle fill="#FFFFFF" stroke="#231F20" stroke-width="0.75" stroke-miterlimit="10" cx="56.262" cy="94.393" r="12.574"/>
<circle fill="#FFFFFF" stroke="#231F20" stroke-width="0.75" stroke-miterlimit="10" cx="95.382" cy="94.393" r="12.574"/>
<circle fill="#FFFFFF" stroke="#231F20" stroke-width="0.75" stroke-miterlimit="10" cx="56.262" cy="58.066" r="12.574"/>
<circle fill="#FFFFFF" stroke="#231F20" stroke-width="0.75" stroke-miterlimit="10" cx="56.262" cy="21.042" r="12.574"/>
<circle fill="#FF1614" stroke="#231F20" stroke-width="0.75" stroke-miterlimit="10" cx="148.474" cy="59.464" r="12.574"/>
<circle fill="#FFFFFF" stroke="#231F20" stroke-width="0.75" stroke-miterlimit="10" cx="148.474" cy="21.042" r="12.574"/>
<g>
	<g>
		<rect x="5.964" y="88.805" fill="none" width="13.973" height="33.53"/>
		<path fill="#FFFFFF" d="M9.069,97.02h1.341c0.392,1.141,1.264,1.71,2.616,1.71c0.682,0,1.231-0.159,1.651-0.478
			c0.419-0.318,0.628-0.757,0.628-1.316c0-0.413-0.128-0.751-0.385-1.014c-0.258-0.263-0.677-0.467-1.258-0.612l-1.845-0.486
			c-1.643-0.425-2.464-1.308-2.464-2.649c0-0.86,0.318-1.562,0.955-2.104c0.638-0.542,1.447-0.813,2.432-0.813
			c1.039,0,1.878,0.243,2.515,0.729s1.057,1.148,1.258,1.986h-1.325c-0.368-1.062-1.185-1.593-2.447-1.593
			c-0.626,0-1.138,0.154-1.534,0.462c-0.397,0.307-0.596,0.718-0.596,1.231c0,0.426,0.135,0.758,0.402,0.998
			c0.269,0.24,0.682,0.434,1.241,0.578l1.761,0.453c1.71,0.436,2.564,1.357,2.564,2.767c0,0.916-0.332,1.643-0.997,2.179
			c-0.665,0.537-1.518,0.806-2.557,0.806c-1.04,0-1.912-0.249-2.616-0.746C9.706,98.609,9.259,97.914,9.069,97.02z"/>
	</g>
	<g>
		<rect x="49.276" y="88.805" fill="none" width="13.971" height="33.53"/>
		<path fill="#231F20" d="M55.642,89.408h1.24l4.024,10.294h-1.342l-1.19-3.102h-4.241l-1.174,3.102h-1.341L55.642,89.408z
			 M56.245,91.051l-1.677,4.393h3.354L56.245,91.051z"/>
	</g>
	<g>
		<rect x="89.095" y="88.805" fill="none" width="13.973" height="33.53"/>
		<path fill="#231F20" d="M92.233,99.702V89.408h3.303c1.51,0,2.719,0.467,3.63,1.399c0.911,0.934,1.367,2.183,1.367,3.747
			c0,1.565-0.456,2.814-1.367,3.747c-0.911,0.934-2.12,1.4-3.63,1.4H92.233z M93.559,98.512h1.961c1.163,0,2.071-0.354,2.725-1.064
			c0.654-0.71,0.98-1.674,0.98-2.893c0-1.218-0.329-2.185-0.988-2.9c-0.66-0.715-1.565-1.073-2.717-1.073h-1.961V98.512z"/>
	</g>
	<g>
		<rect x="49.276" y="52.477" fill="none" width="13.971" height="33.533"/>
		<path fill="#231F20" d="M58.257,58.042c0.548,0.146,0.995,0.442,1.342,0.889c0.346,0.447,0.52,0.962,0.52,1.543
			c0,0.928-0.302,1.643-0.905,2.146s-1.442,0.755-2.515,0.755h-3.723V53.08h3.387c1.073,0,1.909,0.234,2.507,0.704
			c0.598,0.469,0.896,1.146,0.896,2.028c0,0.581-0.142,1.064-0.427,1.45S58.693,57.908,58.257,58.042z M54.267,57.557h2.096
			c1.42,0,2.13-0.56,2.13-1.677c0-1.096-0.71-1.644-2.13-1.644h-2.096V57.557z M54.267,58.663v3.554h2.432
			c0.682,0,1.207-0.159,1.575-0.478c0.369-0.318,0.554-0.752,0.554-1.299c0-0.56-0.185-0.995-0.554-1.309
			c-0.368-0.312-0.894-0.469-1.575-0.469H54.267z"/>
	</g>
	<g>
		<rect x="48.577" y="15.453" fill="none" width="13.973" height="33.532"/>
		<path fill="#231F20" d="M52.588,25.035c-0.878-0.978-1.316-2.255-1.316-3.831c0-1.576,0.438-2.853,1.316-3.831
			c0.877-0.978,1.976-1.467,3.295-1.467c1.062,0,1.941,0.285,2.641,0.855c0.698,0.57,1.153,1.341,1.366,2.314h-1.308
			c-0.47-1.319-1.37-1.979-2.699-1.979c-0.984,0-1.777,0.377-2.381,1.132s-0.905,1.747-0.905,2.976c0,1.218,0.302,2.208,0.905,2.967
			c0.604,0.76,1.396,1.14,2.381,1.14c1.341,0,2.24-0.665,2.699-1.995h1.308c-0.213,0.984-0.668,1.76-1.366,2.331
			c-0.699,0.57-1.579,0.855-2.641,0.855C54.563,26.502,53.465,26.013,52.588,25.035z"/>
	</g>
	<g>
		<rect x="141.489" y="53.875" fill="none" width="13.971" height="33.531"/>
		<path fill="#FFFFFF" d="M151.711,60.832h-2.465v-1.14h3.722v0.704c0,1.364-0.394,2.459-1.182,3.286s-1.813,1.241-3.076,1.241
			c-1.364,0-2.493-0.486-3.387-1.459c-0.895-0.973-1.342-2.252-1.342-3.84c0-1.575,0.447-2.853,1.342-3.831
			c0.894-0.978,2.012-1.467,3.353-1.467c1.073,0,1.965,0.285,2.675,0.855c0.709,0.569,1.171,1.341,1.383,2.313h-1.324
			c-0.48-1.318-1.392-1.979-2.733-1.979c-1.006,0-1.818,0.377-2.439,1.132c-0.62,0.755-0.93,1.746-0.93,2.976
			c0,1.23,0.312,2.225,0.938,2.984c0.626,0.761,1.447,1.141,2.465,1.141c0.883,0,1.584-0.26,2.104-0.78
			C151.334,62.45,151.633,61.738,151.711,60.832z"/>
	</g>
	<g>
		<rect x="140.79" y="15.453" fill="none" width="13.973" height="33.532"/>
		<path fill="#231F20" d="M144.683,16.057h6.556v1.174h-5.248v3.252h4.762v1.174h-4.762v3.504h5.248v1.19h-6.556V16.057z"/>
	</g>
</g>
<g>
	<line fill="none" stroke="#231F20" stroke-width="0.75" stroke-miterlimit="10" x1="25.523" y1="94.393" x2="43.687" y2="94.393"/>
	<line fill="none" stroke="#231F20" stroke-width="0.75" stroke-miterlimit="10" x1="68.835" y1="94.393" x2="82.808" y2="94.393"/>
	<line fill="none" stroke="#231F20" stroke-width="0.75" stroke-miterlimit="10" x1="56.262" y1="81.818" x2="56.262" y2="70.641"/>
	<line fill="none" stroke="#231F20" stroke-width="0.75" stroke-miterlimit="10" x1="56.262" y1="46.191" x2="56.262" y2="33.616"/>
	
		<line fill="none" stroke="#231F20" stroke-width="0.75" stroke-miterlimit="10" x1="106.118" y1="87.873" x2="138.02" y2="66.449"/>
	<line fill="none" stroke="#231F20" stroke-width="0.75" stroke-miterlimit="10" x1="68.835" y1="21.042" x2="135.9" y2="21.042"/>
	<line fill="none" stroke="#231F20" stroke-width="0.75" stroke-miterlimit="10" x1="20.845" y1="84.613" x2="46.907" y2="66.449"/>
</g>
<g>
	<g>
		<rect x="30.88" y="101.378" fill="none" width="7.453" height="18.628"/>
		<path fill="#929497" d="M33.708,107.049v-1.03h0.63c0.512,0,0.935-0.141,1.268-0.422c0.333-0.282,0.5-0.669,0.5-1.161
			c0-0.461-0.156-0.843-0.469-1.145s-0.73-0.453-1.253-0.453s-0.947,0.153-1.275,0.461s-0.528,0.712-0.6,1.214h-1.184
			c0.113-0.81,0.446-1.465,0.999-1.967c0.554-0.502,1.24-0.754,2.06-0.754c0.881,0,1.58,0.238,2.098,0.715s0.776,1.1,0.776,1.867
			c0,0.513-0.136,0.966-0.407,1.36s-0.628,0.658-1.068,0.792c0.513,0.144,0.917,0.412,1.215,0.807
			c0.297,0.395,0.445,0.858,0.445,1.391c0,0.799-0.274,1.463-0.822,1.99c-0.548,0.528-1.283,0.792-2.205,0.792
			c-0.923,0-1.678-0.256-2.268-0.769c-0.589-0.513-0.925-1.199-1.006-2.06h1.183c0.082,0.553,0.303,0.989,0.661,1.307
			s0.83,0.476,1.414,0.476c0.563,0,1.02-0.155,1.368-0.469c0.348-0.312,0.522-0.729,0.522-1.252c0-0.513-0.183-0.922-0.546-1.229
			c-0.364-0.308-0.822-0.461-1.376-0.461H33.708z"/>
	</g>
	<g>
		<rect x="73.493" y="101.378" fill="none" width="7.453" height="18.628"/>
		<path fill="#929497" d="M76.321,107.049v-1.03h0.63c0.512,0,0.935-0.141,1.268-0.422c0.333-0.282,0.5-0.669,0.5-1.161
			c0-0.461-0.156-0.843-0.469-1.145s-0.73-0.453-1.253-0.453s-0.947,0.153-1.275,0.461s-0.528,0.712-0.6,1.214h-1.184
			c0.113-0.81,0.446-1.465,0.999-1.967c0.554-0.502,1.24-0.754,2.06-0.754c0.881,0,1.58,0.238,2.098,0.715s0.776,1.1,0.776,1.867
			c0,0.513-0.136,0.966-0.407,1.36s-0.628,0.658-1.068,0.792c0.513,0.144,0.917,0.412,1.215,0.807
			c0.297,0.395,0.445,0.858,0.445,1.391c0,0.799-0.274,1.463-0.822,1.99c-0.548,0.528-1.283,0.792-2.205,0.792
			c-0.923,0-1.678-0.256-2.268-0.769c-0.589-0.513-0.925-1.199-1.006-2.06h1.183c0.082,0.553,0.303,0.989,0.661,1.307
			s0.83,0.476,1.414,0.476c0.563,0,1.02-0.155,1.368-0.469c0.348-0.312,0.522-0.729,0.522-1.252c0-0.513-0.183-0.922-0.546-1.229
			c-0.364-0.308-0.822-0.461-1.376-0.461H76.321z"/>
	</g>
	<g>
		<rect x="126.585" y="76.696" fill="none" width="7.453" height="18.629"/>
		<path fill="#929497" d="M130.228,81.614c-0.666,0-1.225,0.271-1.676,0.814H127.6v-5.18h5.164v1.076h-4.15v2.843
			c0.44-0.399,1.015-0.6,1.722-0.6c0.871,0,1.583,0.295,2.136,0.884c0.554,0.59,0.83,1.34,0.83,2.252
			c0,0.892-0.287,1.635-0.86,2.229c-0.574,0.594-1.307,0.892-2.197,0.892c-0.902,0-1.64-0.251-2.214-0.754
			c-0.573-0.501-0.917-1.193-1.029-2.074h1.184c0.215,1.188,0.901,1.782,2.06,1.782c0.562,0,1.024-0.196,1.383-0.591
			s0.538-0.889,0.538-1.483c0-0.594-0.18-1.091-0.538-1.491C131.268,81.813,130.801,81.614,130.228,81.614z"/>
	</g>
	<g>
		<rect x="65.253" y="30.822" fill="none" width="10.893" height="18.628"/>
		<path fill="#929497" d="M70.447,31.375l-3.52,6.286h3.013v-2.275h1.122v2.275h1.659v1.014h-1.659v2.136H69.94v-2.136h-4.35v-0.861
			l3.627-6.439H70.447z"/>
	</g>
	<g>
		<rect x="65.253" y="67.846" fill="none" width="10.893" height="18.627"/>
		<path fill="#929497" d="M70.447,68.398l-3.52,6.286h3.013V72.41h1.122v2.274h1.659v1.014h-1.659v2.137H69.94v-2.137h-4.35v-0.86
			l3.627-6.439H70.447z"/>
	</g>
	<g>
		<rect x="26.831" y="58.532" fill="none" width="10.893" height="18.627"/>
		<path fill="#929497" d="M30.474,63.45c-0.666,0-1.225,0.271-1.676,0.814h-0.952v-5.18h5.164v1.076h-4.15v2.843
			c0.44-0.399,1.015-0.6,1.722-0.6c0.871,0,1.583,0.295,2.136,0.884c0.554,0.59,0.83,1.34,0.83,2.252
			c0,0.892-0.287,1.635-0.86,2.229c-0.574,0.594-1.307,0.892-2.197,0.892c-0.902,0-1.64-0.251-2.214-0.754
			c-0.573-0.501-0.917-1.193-1.029-2.074h1.184c0.215,1.188,0.901,1.782,2.06,1.782c0.562,0,1.024-0.196,1.383-0.591
			s0.538-0.889,0.538-1.483c0-0.594-0.18-1.091-0.538-1.491C31.514,63.649,31.047,63.45,30.474,63.45z"/>
	</g>
	<g>
		<rect x="97.62" y="2.413" fill="none" width="10.895" height="18.628"/>
		<path fill="#929497" d="M104.628,5.164h-1.198c-0.287-0.891-0.866-1.337-1.737-1.337c-0.687,0-1.255,0.346-1.705,1.037
			c-0.451,0.692-0.677,1.55-0.677,2.575c0,0.03,0.003,0.1,0.008,0.207c0.005,0.108,0.008,0.177,0.008,0.208
			c0.153-0.481,0.45-0.871,0.892-1.168c0.44-0.297,0.938-0.446,1.49-0.446c0.892,0,1.624,0.305,2.198,0.915
			c0.573,0.61,0.86,1.35,0.86,2.221c0,0.892-0.292,1.642-0.876,2.252c-0.584,0.609-1.348,0.914-2.29,0.914
			c-1.281,0-2.219-0.599-2.812-1.798c-0.369-0.779-0.553-1.742-0.553-2.89c0-1.516,0.319-2.733,0.96-3.65s1.473-1.375,2.497-1.375
			C103.25,2.828,104.229,3.607,104.628,5.164z M99.572,9.391c0,0.615,0.189,1.122,0.568,1.521s0.871,0.599,1.476,0.599
			c0.594,0,1.081-0.197,1.46-0.591s0.568-0.904,0.568-1.529s-0.189-1.14-0.568-1.544s-0.866-0.607-1.46-0.607
			c-0.604,0-1.097,0.2-1.476,0.6S99.572,8.755,99.572,9.391z"/>
	</g>
</g>
<g>
</g>
<g>
</g>
<g>
</g>
<g>
</g>
<g>
</g>
<g>
</g>
</svg>
