<?xml version="1.0" encoding="utf-8" standalone="no"?>
<!DOCTYPE svg PUBLIC "-//W3C//DTD SVG 1.1//EN"
  "http://www.w3.org/Graphics/SVG/1.1/DTD/svg11.dtd">
<!-- Created with matplotlib (http://matplotlib.org/) -->
<svg height="514pt" version="1.1" viewBox="0 0 748 514" width="748pt" xmlns="http://www.w3.org/2000/svg" xmlns:xlink="http://www.w3.org/1999/xlink">
 <defs>
  <style type="text/css">
*{stroke-linecap:butt;stroke-linejoin:round;}
  </style>
 </defs>
 <g id="figure_1">
  <g id="patch_1">
   <path d="
M0 514.8
L748.8 514.8
L748.8 0
L0 0
z
" style="fill:#ffffff;"/>
  </g>
  <g id="axes_1">
   <g id="patch_2">
    <path d="
M93.6 450.45
L673.92 450.45
L673.92 51.48
L93.6 51.48
z
" style="fill:#eaeaf2;"/>
   </g>
   <g id="matplotlib.axis_1">
    <g id="xtick_1">
     <g id="line2d_1">
      <path clip-path="url(#pd831f6c710)" d="
M93.6 450.45
L93.6 51.48" style="fill:none;stroke:#ffffff;stroke-linecap:round;stroke-width:1.3;"/>
     </g>
     <g id="line2d_2">
      <defs>
       <path d="
M0 0
L0 0" id="m56cc5124a0" style="stroke:#262626;stroke-width:1.3;"/>
      </defs>
      <g>
       <use style="fill:#262626;stroke:#262626;stroke-width:1.3;" x="93.6" xlink:href="#m56cc5124a0" y="450.45"/>
      </g>
     </g>
     <g id="line2d_3">
      <g>
       <use style="fill:#262626;stroke:#262626;stroke-width:1.3;" x="93.6" xlink:href="#m56cc5124a0" y="51.48"/>
      </g>
     </g>
     <g id="text_1">
      <!-- −6 -->
      <defs>
       <path d="
M12.7031 19.5938
Q12.7031 13.5938 16.3906 9.6875
Q20.0938 5.79688 26 5.79688
Q31.7969 5.79688 35.5 9.64062
Q39.2031 13.5 39.2031 19.5938
Q39.2031 25.7031 35.5 29.6406
Q31.7969 33.5938 26 33.5938
Q20.0938 33.5938 16.3906 29.6875
Q12.7031 25.7969 12.7031 19.5938
M45.5938 47.0938
L37.7969 47.0938
Q35 55.7969 26.5 55.7969
Q19.7969 55.7969 15.3906 49.0469
Q11 42.2969 11 32.2969
Q11 32 11.0469 30.9531
Q11.0938 29.9062 11.0938 29.5938
Q12.5938 34.2969 16.8906 37.1875
Q21.2031 40.0938 26.5938 40.0938
Q35.2969 40.0938 40.8906 34.1406
Q46.5 28.2031 46.5 19.7031
Q46.5 11 40.7969 5.04688
Q35.0938 -0.90625 25.9062 -0.90625
Q13.4062 -0.90625 7.59375 10.7969
Q4 18.4062 4 29.5938
Q4 44.4062 10.25 53.3438
Q16.5 62.2969 26.5 62.2969
Q41.7031 62.2969 45.5938 47.0938" id="CalibreRegular-36"/>
       <path d="
M7.29688 26.5938
L7.29688 32.7969
L46.7031 32.7969
L46.7031 26.5938
z
" id="CalibreRegular-2212"/>
      </defs>
      <g style="fill:#262626;" transform="translate(86.9359765625 468.845)scale(0.14300000000000002 -0.14300000000000002)">
       <use xlink:href="#CalibreRegular-2212"/>
       <use x="53.99998474121094" xlink:href="#CalibreRegular-36"/>
      </g>
     </g>
    </g>
    <g id="xtick_2">
     <g id="line2d_4">
      <path clip-path="url(#pd831f6c710)" d="
M190.32 450.45
L190.32 51.48" style="fill:none;stroke:#ffffff;stroke-linecap:round;stroke-width:1.3;"/>
     </g>
     <g id="line2d_5">
      <g>
       <use style="fill:#262626;stroke:#262626;stroke-width:1.3;" x="190.32" xlink:href="#m56cc5124a0" y="450.45"/>
      </g>
     </g>
     <g id="line2d_6">
      <g>
       <use style="fill:#262626;stroke:#262626;stroke-width:1.3;" x="190.32" xlink:href="#m56cc5124a0" y="51.48"/>
      </g>
     </g>
     <g id="text_2">
      <!-- −4 -->
      <defs>
       <path d="
M33.7969 61.4062
L10.9062 20.5
L30.5 20.5
L30.5 35.2969
L37.7969 35.2969
L37.7969 20.5
L48.5938 20.5
L48.5938 13.9062
L37.7969 13.9062
L37.7969 0
L30.5 0
L30.5 13.9062
L2.20312 13.9062
L2.20312 19.5
L25.7969 61.4062
z
" id="CalibreRegular-34"/>
      </defs>
      <g style="fill:#262626;" transform="translate(183.506273438 468.845)scale(0.14300000000000002 -0.14300000000000002)">
       <use xlink:href="#CalibreRegular-2212"/>
       <use x="53.99998474121094" xlink:href="#CalibreRegular-34"/>
      </g>
     </g>
    </g>
    <g id="xtick_3">
     <g id="line2d_7">
      <path clip-path="url(#pd831f6c710)" d="
M287.04 450.45
L287.04 51.48" style="fill:none;stroke:#ffffff;stroke-linecap:round;stroke-width:1.3;"/>
     </g>
     <g id="line2d_8">
      <g>
       <use style="fill:#262626;stroke:#262626;stroke-width:1.3;" x="287.04" xlink:href="#m56cc5124a0" y="450.45"/>
      </g>
     </g>
     <g id="line2d_9">
      <g>
       <use style="fill:#262626;stroke:#262626;stroke-width:1.3;" x="287.04" xlink:href="#m56cc5124a0" y="51.48"/>
      </g>
     </g>
     <g id="text_3">
      <!-- −2 -->
      <defs>
       <path d="
M34.0938 44.9062
Q34.0938 49.5938 31.0938 52.4375
Q28.0938 55.2969 23 55.2969
Q17.5938 55.2969 14.5469 51.9375
Q11.5 48.5938 11 43
L2.90625 43
Q3.79688 51.7031 9.1875 57
Q14.5938 62.2969 23 62.2969
Q31.7031 62.2969 36.7031 57.5938
Q41.7031 52.9062 41.7031 45
Q41.7031 43.5938 41.3438 42.0938
Q41 40.5938 40.6406 39.5
Q40.2969 38.4062 39.3438 36.75
Q38.4062 35.0938 37.9062 34.2969
Q37.4062 33.5 35.9062 31.7031
Q34.4062 29.9062 33.9062 29.2969
Q33.4062 28.7031 31.5469 26.6406
Q29.7031 24.5938 29.2969 24.0938
L13.7031 7
L43 7
L43 0
L2.90625 0
L2.90625 5.20312
L22.7031 27
Q27.2031 32 28.7969 33.7969
Q30.4062 35.5938 32.25 38.8906
Q34.0938 42.2031 34.0938 44.9062" id="CalibreRegular-32"/>
      </defs>
      <g style="fill:#262626;" transform="translate(280.626226563 468.845)scale(0.14300000000000002 -0.14300000000000002)">
       <use xlink:href="#CalibreRegular-2212"/>
       <use x="53.99998474121094" xlink:href="#CalibreRegular-32"/>
      </g>
     </g>
    </g>
    <g id="xtick_4">
     <g id="line2d_10">
      <path clip-path="url(#pd831f6c710)" d="
M383.76 450.45
L383.76 51.48" style="fill:none;stroke:#ffffff;stroke-linecap:round;stroke-width:1.3;"/>
     </g>
     <g id="line2d_11">
      <g>
       <use style="fill:#262626;stroke:#262626;stroke-width:1.3;" x="383.76" xlink:href="#m56cc5124a0" y="450.45"/>
      </g>
     </g>
     <g id="line2d_12">
      <g>
       <use style="fill:#262626;stroke:#262626;stroke-width:1.3;" x="383.76" xlink:href="#m56cc5124a0" y="51.48"/>
      </g>
     </g>
     <g id="text_4">
      <!-- 0 -->
      <defs>
       <path d="
M49.7969 16.5938
Q37.0938 -0.90625 26.8906 -0.90625
Q16.7031 -0.90625 10.3438 7.84375
Q4 16.5938 4 30.6875
Q4 44.7969 10.3438 53.5469
Q16.7031 62.2969 26.8906 62.2969
Q37.0938 62.2969 43.4375 53.5469
Q49.7969 44.7969 49.7969 30.6875
Q49.7969 16.5938 37.0938 -0.90625
M26.9062 55.2031
Q19.5938 55.2031 15.6406 48.5
Q11.7031 41.7969 11.7031 30.6875
Q11.7031 19.5938 15.6406 12.8906
Q19.5938 6.20312 26.9062 6.20312
Q34.0938 6.20312 38.0938 12.9531
Q42.0938 19.7031 42.0938 30.7031
Q42.0938 41.7031 38.0938 48.4531
Q34.0938 55.2031 26.9062 55.2031" id="CalibreRegular-30"/>
      </defs>
      <g style="fill:#262626;" transform="translate(380.485523438 468.845)scale(0.14300000000000002 -0.14300000000000002)">
       <use xlink:href="#CalibreRegular-30"/>
      </g>
     </g>
    </g>
    <g id="xtick_5">
     <g id="line2d_13">
      <path clip-path="url(#pd831f6c710)" d="
M480.48 450.45
L480.48 51.48" style="fill:none;stroke:#ffffff;stroke-linecap:round;stroke-width:1.3;"/>
     </g>
     <g id="line2d_14">
      <g>
       <use style="fill:#262626;stroke:#262626;stroke-width:1.3;" x="480.48" xlink:href="#m56cc5124a0" y="450.45"/>
      </g>
     </g>
     <g id="line2d_15">
      <g>
       <use style="fill:#262626;stroke:#262626;stroke-width:1.3;" x="480.48" xlink:href="#m56cc5124a0" y="51.48"/>
      </g>
     </g>
     <g id="text_5">
      <!-- 2 -->
      <g style="fill:#262626;" transform="translate(477.613296875 468.845)scale(0.14300000000000002 -0.14300000000000002)">
       <use xlink:href="#CalibreRegular-32"/>
      </g>
     </g>
    </g>
    <g id="xtick_6">
     <g id="line2d_16">
      <path clip-path="url(#pd831f6c710)" d="
M577.2 450.45
L577.2 51.48" style="fill:none;stroke:#ffffff;stroke-linecap:round;stroke-width:1.3;"/>
     </g>
     <g id="line2d_17">
      <g>
       <use style="fill:#262626;stroke:#262626;stroke-width:1.3;" x="577.2" xlink:href="#m56cc5124a0" y="450.45"/>
      </g>
     </g>
     <g id="line2d_18">
      <g>
       <use style="fill:#262626;stroke:#262626;stroke-width:1.3;" x="577.2" xlink:href="#m56cc5124a0" y="51.48"/>
      </g>
     </g>
     <g id="text_6">
      <!-- 4 -->
      <g style="fill:#262626;" transform="translate(573.883070313 468.845)scale(0.14300000000000002 -0.14300000000000002)">
       <use xlink:href="#CalibreRegular-34"/>
      </g>
     </g>
    </g>
    <g id="xtick_7">
     <g id="line2d_19">
      <path clip-path="url(#pd831f6c710)" d="
M673.92 450.45
L673.92 51.48" style="fill:none;stroke:#ffffff;stroke-linecap:round;stroke-width:1.3;"/>
     </g>
     <g id="line2d_20">
      <g>
       <use style="fill:#262626;stroke:#262626;stroke-width:1.3;" x="673.92" xlink:href="#m56cc5124a0" y="450.45"/>
      </g>
     </g>
     <g id="line2d_21">
      <g>
       <use style="fill:#262626;stroke:#262626;stroke-width:1.3;" x="673.92" xlink:href="#m56cc5124a0" y="51.48"/>
      </g>
     </g>
     <g id="text_7">
      <!-- 6 -->
      <g style="fill:#262626;" transform="translate(670.88125 468.845)scale(0.14300000000000002 -0.14300000000000002)">
       <use xlink:href="#CalibreRegular-36"/>
      </g>
     </g>
    </g>
   </g>
   <g id="matplotlib.axis_2">
    <g id="ytick_1">
     <g id="line2d_22">
      <path clip-path="url(#pd831f6c710)" d="
M93.6 417.203
L673.92 417.203" style="fill:none;stroke:#ffffff;stroke-linecap:round;stroke-width:1.3;"/>
     </g>
     <g id="line2d_23">
      <g>
       <use style="fill:#262626;stroke:#262626;stroke-width:1.3;" x="93.6" xlink:href="#m56cc5124a0" y="417.2025"/>
      </g>
     </g>
     <g id="line2d_24">
      <g>
       <use style="fill:#262626;stroke:#262626;stroke-width:1.3;" x="673.92" xlink:href="#m56cc5124a0" y="417.2025"/>
      </g>
     </g>
     <g id="text_8">
      <!-- 0.0 -->
      <defs>
       <path d="
M6.29688 -0.5
Q3.20312 2.59375 3.20312 4.89062
Q3.20312 7.20312 4.75 8.79688
Q6.29688 10.4062 8.59375 10.4062
Q10.7969 10.4062 12.3438 8.79688
Q13.9062 7.20312 13.9062 4.89062
Q13.9062 2.59375 12.3438 1.04688
Q10.7969 -0.5 8.59375 -0.5
Q6.29688 -0.5 3.20312 2.59375" id="CalibreRegular-2e"/>
      </defs>
      <g style="fill:#262626;" transform="translate(67.8136875 420.6345)scale(0.14300000000000002 -0.14300000000000002)">
       <use xlink:href="#CalibreRegular-30"/>
       <use x="53.79998779296875" xlink:href="#CalibreRegular-2e"/>
       <use x="70.89997863769531" xlink:href="#CalibreRegular-30"/>
      </g>
     </g>
    </g>
    <g id="ytick_2">
     <g id="line2d_25">
      <path clip-path="url(#pd831f6c710)" d="
M93.6 350.708
L673.92 350.708" style="fill:none;stroke:#ffffff;stroke-linecap:round;stroke-width:1.3;"/>
     </g>
     <g id="line2d_26">
      <g>
       <use style="fill:#262626;stroke:#262626;stroke-width:1.3;" x="93.6" xlink:href="#m56cc5124a0" y="350.7075"/>
      </g>
     </g>
     <g id="line2d_27">
      <g>
       <use style="fill:#262626;stroke:#262626;stroke-width:1.3;" x="673.92" xlink:href="#m56cc5124a0" y="350.7075"/>
      </g>
     </g>
     <g id="text_9">
      <!-- 0.2 -->
      <g style="fill:#262626;" transform="translate(68.785640625 354.1395)scale(0.14300000000000002 -0.14300000000000002)">
       <use xlink:href="#CalibreRegular-30"/>
       <use x="53.79998779296875" xlink:href="#CalibreRegular-2e"/>
       <use x="70.89997863769531" xlink:href="#CalibreRegular-32"/>
      </g>
     </g>
    </g>
    <g id="ytick_3">
     <g id="line2d_28">
      <path clip-path="url(#pd831f6c710)" d="
M93.6 284.213
L673.92 284.213" style="fill:none;stroke:#ffffff;stroke-linecap:round;stroke-width:1.3;"/>
     </g>
     <g id="line2d_29">
      <g>
       <use style="fill:#262626;stroke:#262626;stroke-width:1.3;" x="93.6" xlink:href="#m56cc5124a0" y="284.2125"/>
      </g>
     </g>
     <g id="line2d_30">
      <g>
       <use style="fill:#262626;stroke:#262626;stroke-width:1.3;" x="673.92" xlink:href="#m56cc5124a0" y="284.2125"/>
      </g>
     </g>
     <g id="text_10">
      <!-- 0.4 -->
      <g style="fill:#262626;" transform="translate(67.985734375 287.6445)scale(0.14300000000000002 -0.14300000000000002)">
       <use xlink:href="#CalibreRegular-30"/>
       <use x="53.79998779296875" xlink:href="#CalibreRegular-2e"/>
       <use x="70.89997863769531" xlink:href="#CalibreRegular-34"/>
      </g>
     </g>
    </g>
    <g id="ytick_4">
     <g id="line2d_31">
      <path clip-path="url(#pd831f6c710)" d="
M93.6 217.718
L673.92 217.718" style="fill:none;stroke:#ffffff;stroke-linecap:round;stroke-width:1.3;"/>
     </g>
     <g id="line2d_32">
      <g>
       <use style="fill:#262626;stroke:#262626;stroke-width:1.3;" x="93.6" xlink:href="#m56cc5124a0" y="217.7175"/>
      </g>
     </g>
     <g id="line2d_33">
      <g>
       <use style="fill:#262626;stroke:#262626;stroke-width:1.3;" x="673.92" xlink:href="#m56cc5124a0" y="217.7175"/>
      </g>
     </g>
     <g id="text_11">
      <!-- 0.6 -->
      <g style="fill:#262626;" transform="translate(68.285140625 221.1495)scale(0.14300000000000002 -0.14300000000000002)">
       <use xlink:href="#CalibreRegular-30"/>
       <use x="53.79998779296875" xlink:href="#CalibreRegular-2e"/>
       <use x="70.89997863769531" xlink:href="#CalibreRegular-36"/>
      </g>
     </g>
    </g>
    <g id="ytick_5">
     <g id="line2d_34">
      <path clip-path="url(#pd831f6c710)" d="
M93.6 151.223
L673.92 151.223" style="fill:none;stroke:#ffffff;stroke-linecap:round;stroke-width:1.3;"/>
     </g>
     <g id="line2d_35">
      <g>
       <use style="fill:#262626;stroke:#262626;stroke-width:1.3;" x="93.6" xlink:href="#m56cc5124a0" y="151.2225"/>
      </g>
     </g>
     <g id="line2d_36">
      <g>
       <use style="fill:#262626;stroke:#262626;stroke-width:1.3;" x="673.92" xlink:href="#m56cc5124a0" y="151.2225"/>
      </g>
     </g>
     <g id="text_12">
      <!-- 0.8 -->
      <defs>
       <path d="
M24.2969 5.5
Q30.2031 5.5 33.9531 8.79688
Q37.7031 12.0938 37.7031 17.2969
Q37.7031 22.5 33.9531 25.75
Q30.2031 29 24.2969 29
Q18.5 29 14.75 25.75
Q11 22.5 11 17.2969
Q11 12.0938 14.75 8.79688
Q18.5 5.5 24.2969 5.5
M24.2969 35.5938
Q29.2031 35.5938 32.3906 38.3906
Q35.5938 41.2031 35.5938 45.7031
Q35.5938 50.2031 32.3906 53.0469
Q29.2031 55.9062 24.2969 55.9062
Q19.5 55.9062 16.2969 53.0469
Q13.0938 50.2031 13.0938 45.7031
Q13.0938 41.2969 16.2969 38.4375
Q19.5 35.5938 24.2969 35.5938
M24.2969 -0.90625
Q15.2969 -0.90625 9.34375 4
Q3.40625 8.90625 3.40625 16.7031
Q3.40625 22.5 6.75 26.7031
Q10.0938 30.9062 15.4062 32.2969
Q11 33.7969 8.29688 37.5
Q5.59375 41.2031 5.59375 46.0938
Q5.59375 53.4062 10.9375 57.8438
Q16.2969 62.2969 24.2969 62.2969
Q32.4062 62.2969 37.75 57.8438
Q43.0938 53.4062 43.0938 46.0938
Q43.0938 41.2031 40.3438 37.5469
Q37.5938 33.9062 33.2969 32.2969
Q38.5 30.9062 41.8906 26.7031
Q45.2969 22.5 45.2969 16.7031
Q45.2969 8.90625 39.3438 4
Q33.4062 -0.90625 24.2969 -0.90625" id="CalibreRegular-38"/>
      </defs>
      <g style="fill:#262626;" transform="translate(68.4571875 154.6545)scale(0.14300000000000002 -0.14300000000000002)">
       <use xlink:href="#CalibreRegular-30"/>
       <use x="53.79998779296875" xlink:href="#CalibreRegular-2e"/>
       <use x="70.89997863769531" xlink:href="#CalibreRegular-38"/>
      </g>
     </g>
    </g>
    <g id="ytick_6">
     <g id="line2d_37">
      <path clip-path="url(#pd831f6c710)" d="
M93.6 84.7275
L673.92 84.7275" style="fill:none;stroke:#ffffff;stroke-linecap:round;stroke-width:1.3;"/>
     </g>
     <g id="line2d_38">
      <g>
       <use style="fill:#262626;stroke:#262626;stroke-width:1.3;" x="93.6" xlink:href="#m56cc5124a0" y="84.7275"/>
      </g>
     </g>
     <g id="line2d_39">
      <g>
       <use style="fill:#262626;stroke:#262626;stroke-width:1.3;" x="673.92" xlink:href="#m56cc5124a0" y="84.7275"/>
      </g>
     </g>
     <g id="text_13">
      <!-- 1.0 -->
      <defs>
       <path d="
M25.4062 61.5
L25.4062 0
L17.7031 0
L17.7031 52
L2.5 44.2031
L2.5 52.2031
L20.7031 61.5
z
" id="CalibreRegular-31"/>
      </defs>
      <g style="fill:#262626;" transform="translate(70.586546875 88.1595)scale(0.14300000000000002 -0.14300000000000002)">
       <use xlink:href="#CalibreRegular-31"/>
       <use x="32.899993896484375" xlink:href="#CalibreRegular-2e"/>
       <use x="49.99998474121094" xlink:href="#CalibreRegular-30"/>
      </g>
     </g>
    </g>
   </g>
   <g id="line2d_40">
    <path clip-path="url(#pd831f6c710)" d="
M93.6 417.203
L673.92 417.203" style="fill:none;stroke:#dcdce6;stroke-linecap:round;stroke-width:2;"/>
   </g>
   <g id="line2d_41">
    <path clip-path="url(#pd831f6c710)" d="
M383.76 450.45
L383.76 51.48" style="fill:none;stroke:#dcdce6;stroke-linecap:round;stroke-width:2;"/>
   </g>
   <g id="line2d_42">
    <path clip-path="url(#pd831f6c710)" d="
M93.6 416.38
L99.4618 416.275
L105.324 416.156
L111.185 416.021
L117.047 415.87
L122.909 415.699
L128.771 415.506
L134.633 415.288
L140.495 415.043
L146.356 414.767
L152.218 414.456
L158.08 414.105
L163.942 413.71
L169.804 413.266
L175.665 412.765
L181.527 412.202
L187.389 411.568
L193.251 410.856
L199.113 410.056
L204.975 409.157
L210.836 408.149
L216.698 407.018
L222.56 405.75
L228.422 404.332
L234.284 402.745
L240.145 400.973
L246.007 398.996
L251.869 396.794
L257.731 394.345
L263.593 391.626
L269.455 388.614
L275.316 385.283
L281.178 381.61
L287.04 377.571
L292.902 373.14
L298.764 368.297
L304.625 363.022
L310.487 357.298
L316.349 351.113
L322.211 344.46
L328.073 337.338
L333.935 329.753
L339.796 321.72
L345.658 313.263
L351.52 304.412
L357.382 295.211
L363.244 285.708
L369.105 275.962
L374.967 266.036
L380.829 256.001
L386.691 245.929
L392.553 235.894
L398.415 225.968
L404.276 216.222
L410.138 206.719
L416 197.518
L421.862 188.667
L427.724 180.21
L433.585 172.177
L439.447 164.592
L445.309 157.47
L451.171 150.817
L457.033 144.632
L462.895 138.908
L468.756 133.633
L474.618 128.79
L480.48 124.359
L486.342 120.32
L492.204 116.647
L498.065 113.316
L503.927 110.304
L509.789 107.585
L515.651 105.136
L521.513 102.934
L527.375 100.957
L533.236 99.1848
L539.098 97.5983
L544.96 96.1797
L550.822 94.9124
L556.684 93.7814
L562.545 92.7729
L568.407 91.8742
L574.269 91.074
L580.131 90.3618
L585.993 89.7283
L591.855 89.165
L597.716 88.6645
L603.578 88.2198
L609.44 87.8248
L615.302 87.4742
L621.164 87.1629
L627.025 86.8867
L632.887 86.6417
L638.749 86.4243
L644.611 86.2314
L650.473 86.0605
L656.335 85.9088
L662.196 85.7744
L668.058 85.6552
L673.92 85.5496" style="fill:none;stroke:#386df9;stroke-linecap:round;stroke-width:2.275;"/>
   </g>
   <g id="patch_3">
    <path d="
M93.6 51.48
L673.92 51.48" style="fill:none;"/>
   </g>
   <g id="patch_4">
    <path d="
M93.6 450.45
L93.6 51.48" style="fill:none;"/>
   </g>
   <g id="patch_5">
    <path d="
M673.92 450.45
L673.92 51.48" style="fill:none;"/>
   </g>
   <g id="patch_6">
    <path d="
M93.6 450.45
L673.92 450.45" style="fill:none;"/>
   </g>
   <g id="text_14">
    <!-- sigmoid -->
    <defs>
     <path d="
M35.7969 3
L35.7969 6.29688
Q34 3.79688 30.6406 2.04688
Q27.2969 0.296875 23.4062 0.296875
Q14.0938 0.296875 8.79688 6.89062
Q3.5 13.5 3.5 22.7969
Q3.5 32.2031 8.79688 38.75
Q14.0938 45.2969 23.4062 45.2969
Q27.2969 45.2969 30.6406 43.5938
Q34 41.9062 35.7969 39.4062
L35.7969 44.4062
L43.4062 44.4062
L43.4062 3.5
Q43.4062 -7.09375 37.9531 -12.5469
Q32.5 -18 23.5938 -18
Q15.5938 -18 10.6406 -14.0938
Q5.70312 -10.2031 4.59375 -3.29688
L12 -3.29688
Q13.9062 -11.5938 23.5938 -11.5938
Q35.7969 -11.5938 35.7969 3
M35.7969 14
L35.7969 31.7031
Q32 38.5938 24.5 38.5938
Q18.2969 38.5938 14.75 34.1875
Q11.2031 29.7969 11.2031 22.7969
Q11.2031 15.7969 14.75 11.4375
Q18.2969 7.09375 24.5 7.09375
Q32 7.09375 35.7969 14" id="CalibreRegular-67"/>
     <path d="
M38.2031 38.2031
Q43.2031 45.2969 51.7031 45.2969
Q58.4062 45.2969 62.0469 41
Q65.7031 36.7031 65.7031 29.4062
L65.7031 0
L58.0938 0
L58.0938 28.2031
Q58.0938 33 56 35.75
Q53.9062 38.5 49.7031 38.5
Q46.2969 38.5 43.5938 36.3438
Q40.9062 34.2031 39.9062 30.5938
L39.9062 0
L32.4062 0
L32.4062 28.2031
Q32.4062 33 30.2969 35.75
Q28.2031 38.5 24 38.5
Q20.5938 38.5 17.8906 36.3438
Q15.2031 34.2031 14.2031 30.5938
L14.2031 0
L6.70312 0
L6.70312 44.4062
L14.2031 44.4062
L14.2031 39.2031
Q18 45.2969 26.2031 45.2969
Q34.5938 45.2969 38.2031 38.2031" id="CalibreRegular-6d"/>
     <path d="
M3 12.2031
L10.7969 12.2031
Q12.9062 5.40625 21.2969 5.40625
Q25.4062 5.40625 27.9062 7.04688
Q30.4062 8.70312 30.4062 12
Q30.4062 16.5 23.7969 18.2031
L15 20.5
Q4.29688 23.2031 4.29688 32.2031
Q4.29688 38 8.79688 41.6406
Q13.2969 45.2969 20.2031 45.2969
Q27.4062 45.2969 31.7969 42
Q36.2031 38.7031 37.4062 32.7031
L29.9062 32.7031
Q27.9062 39 20.0938 39
Q16.5938 39 14.0938 37.3438
Q11.5938 35.7031 11.5938 32.5938
Q11.5938 30.4062 13.0469 29.1562
Q14.5 27.9062 17.7969 27
L26.4062 24.9062
Q37.7031 21.9062 37.7031 12.5
Q37.7031 6.29688 33.0938 2.6875
Q28.5 -0.90625 21.2031 -0.90625
Q13.9062 -0.90625 8.95312 2.59375
Q4 6.09375 3 12.2031" id="CalibreRegular-73"/>
     <path d="
M14.2031 44.4062
L14.2031 0
L6.70312 0
L6.70312 44.4062
z

M12.4062 62.5938
Q15.2969 59.7969 15.2969 57.7969
Q15.2969 55.7969 13.8438 54.3906
Q12.4062 53 10.4062 53
Q8.40625 53 7 54.3906
Q5.59375 55.7969 5.59375 57.7969
Q5.59375 59.7969 7 61.1875
Q8.40625 62.5938 10.4062 62.5938
Q12.4062 62.5938 15.2969 59.7969" id="CalibreRegular-69"/>
     <path d="
M36 0
L36 5.20312
Q34.2031 2.59375 30.7969 0.84375
Q27.4062 -0.90625 23.5 -0.90625
Q14.0938 -0.90625 8.79688 5.6875
Q3.5 12.2969 3.5 22.2031
Q3.5 32 8.79688 38.6406
Q14.0938 45.2969 23.5 45.2969
Q27.4062 45.2969 30.7969 43.5469
Q34.2031 41.7969 36 39.2031
L36 65
L43.5938 65
L43.5938 0
z

M36 13.2031
L36 31.2031
Q34.2969 34.5938 31.25 36.5469
Q28.2031 38.5 24.5938 38.5
Q18.4062 38.5 14.75 33.9531
Q11.0938 29.4062 11.0938 22.2031
Q11.0938 15 14.75 10.4531
Q18.4062 5.90625 24.5938 5.90625
Q28.2031 5.90625 31.25 7.84375
Q34.2969 9.79688 36 13.2031" id="CalibreRegular-64"/>
     <path d="
M33 45.2969
Q44.2969 32.4062 44.2969 22.2031
Q44.2969 12 38.6406 5.54688
Q33 -0.90625 23.8906 -0.90625
Q14.7969 -0.90625 9.14062 5.54688
Q3.5 12 3.5 22.2031
Q3.5 32.4062 9.14062 38.8438
Q14.7969 45.2969 23.8906 45.2969
Q33 45.2969 44.2969 32.4062
M29.7969 5.70312
Q36.7031 14.7969 36.7031 22.1875
Q36.7031 29.5938 33.25 34.1406
Q29.7969 38.7031 23.8906 38.7031
Q18 38.7031 14.5469 34.1406
Q11.0938 29.5938 11.0938 22.1875
Q11.0938 14.7969 14.5469 10.25
Q18 5.70312 23.8906 5.70312
Q29.7969 5.70312 36.7031 14.7969" id="CalibreRegular-6f"/>
    </defs>
    <g style="fill:#262626;" transform="translate(358.58574375 46.48)scale(0.17160000000000003 -0.17160000000000003)">
     <use xlink:href="#CalibreRegular-73"/>
     <use x="41.399993896484375" xlink:href="#CalibreRegular-69"/>
     <use x="62.29998779296875" xlink:href="#CalibreRegular-67"/>
     <use x="112.39997863769531" xlink:href="#CalibreRegular-6d"/>
     <use x="184.09996032714844" xlink:href="#CalibreRegular-6f"/>
     <use x="231.8999481201172" xlink:href="#CalibreRegular-69"/>
     <use x="252.79994201660156" xlink:href="#CalibreRegular-64"/>
    </g>
   </g>
  </g>
 </g>
 <defs>
  <clipPath id="pd831f6c710">
   <rect height="398.97" width="580.32" x="93.6" y="51.48"/>
  </clipPath>
 </defs>
</svg>
