<?xml version="1.0" encoding="utf-8"?>
<!-- Generator: Adobe Illustrator 16.0.0, SVG Export Plug-In . SVG Version: 6.00 Build 0)  -->
<!DOCTYPE svg PUBLIC "-//W3C//DTD SVG 1.1 Tiny//EN" "http://www.w3.org/Graphics/SVG/1.1/DTD/svg11-tiny.dtd">
<svg version="1.1" baseProfile="tiny" id="Layer_1" xmlns="http://www.w3.org/2000/svg" xmlns:xlink="http://www.w3.org/1999/xlink"
	 x="0px" y="0px" width="405.086px" height="167.642px" viewBox="0 0 405.086 167.642" xml:space="preserve">
<path fill="none" stroke="#212221" stroke-width="0.75" stroke-miterlimit="10" d="M307.479,29.125
	c0,6.126-4.963,11.09-11.092,11.09c-6.123,0-11.09-4.964-11.09-11.09c0-6.123,4.967-11.091,11.09-11.091
	C302.516,18.034,307.479,23.002,307.479,29.125z"/>
<g>
	<rect x="221.175" y="135.747" fill="none" width="150.43" height="35.896"/>
	<path fill="#221F1F" d="M257.393,137.582c0.826,0.938,1.239,2.144,1.239,3.615c0,1.473-0.413,2.678-1.239,3.615
		s-1.886,1.406-3.178,1.406c-1.282,0-2.336-0.469-3.163-1.406c-0.826-0.938-1.239-2.143-1.239-3.615
		c0-1.472,0.413-2.678,1.239-3.615c0.827-0.938,1.881-1.406,3.163-1.406C255.507,136.175,256.566,136.644,257.393,137.582z
		 M256.503,144.001c0.582-0.726,0.874-1.66,0.874-2.805c0-1.144-0.292-2.079-0.874-2.805c-0.583-0.726-1.346-1.089-2.288-1.089
		c-0.933,0-1.69,0.363-2.272,1.089c-0.583,0.726-0.874,1.661-0.874,2.805c0,1.145,0.291,2.079,0.874,2.805
		c0.582,0.727,1.34,1.089,2.272,1.089C255.157,145.09,255.92,144.728,256.503,144.001z"/>
	<path fill="#221F1F" d="M267.499,139.02v7.056h-1.208v-0.89c-0.212,0.297-0.498,0.543-0.858,0.738
		c-0.36,0.196-0.757,0.294-1.191,0.294c-0.784,0-1.391-0.232-1.819-0.699c-0.43-0.466-0.644-1.091-0.644-1.875v-4.624h1.207v4.434
		c0,0.52,0.128,0.927,0.382,1.224s0.641,0.445,1.16,0.445c0.402,0,0.765-0.122,1.088-0.366c0.323-0.243,0.549-0.562,0.676-0.953
		v-4.783H267.499z"/>
	<path fill="#221F1F" d="M271.536,144.295v-4.259h-1.145v-1.017h1.145v-1.859h1.191v1.859h1.701v1.017h-1.701v4.132
		c0,0.657,0.312,0.985,0.938,0.985c0.328,0,0.635-0.095,0.921-0.286v1.112c-0.296,0.159-0.667,0.238-1.112,0.238
		c-0.593,0-1.064-0.161-1.414-0.484S271.536,144.931,271.536,144.295z"/>
	<path fill="#221F1F" d="M279.021,145.25v3.527h-1.192v-9.757h1.192v0.826c0.201-0.275,0.479-0.506,0.834-0.691
		c0.354-0.185,0.739-0.278,1.152-0.278c0.995,0,1.774,0.353,2.336,1.058c0.562,0.704,0.842,1.575,0.842,2.613
		c0,1.039-0.28,1.91-0.842,2.614c-0.562,0.705-1.341,1.057-2.336,1.057c-0.413,0-0.798-0.093-1.152-0.277
		C279.499,145.755,279.222,145.525,279.021,145.25z M279.021,141.118v2.86c0.18,0.36,0.432,0.644,0.755,0.851
		c0.322,0.206,0.675,0.31,1.057,0.31c0.656,0,1.179-0.241,1.565-0.724c0.387-0.481,0.58-1.104,0.58-1.867
		c0-0.763-0.193-1.385-0.58-1.867c-0.387-0.481-0.909-0.723-1.565-0.723c-0.382,0-0.734,0.104-1.057,0.31
		C279.452,140.474,279.2,140.757,279.021,141.118z"/>
	<path fill="#221F1F" d="M293.021,139.02v7.056h-1.208v-0.89c-0.212,0.297-0.498,0.543-0.858,0.738
		c-0.36,0.196-0.757,0.294-1.191,0.294c-0.784,0-1.391-0.232-1.819-0.699c-0.43-0.466-0.644-1.091-0.644-1.875v-4.624h1.207v4.434
		c0,0.52,0.128,0.927,0.382,1.224s0.641,0.445,1.16,0.445c0.402,0,0.765-0.122,1.088-0.366c0.323-0.243,0.549-0.562,0.676-0.953
		v-4.783H293.021z"/>
	<path fill="#221F1F" d="M297.057,144.295v-4.259h-1.145v-1.017h1.145v-1.859h1.191v1.859h1.701v1.017h-1.701v4.132
		c0,0.657,0.312,0.985,0.938,0.985c0.328,0,0.635-0.095,0.921-0.286v1.112c-0.296,0.159-0.667,0.238-1.112,0.238
		c-0.593,0-1.064-0.161-1.414-0.484S297.057,144.931,297.057,144.295z"/>
	<path fill="#221F1F" d="M309.643,135.747v10.329h-1.192v-10.329H309.643z"/>
	<path fill="#221F1F" d="M318.478,146.076h-1.145v-0.524c-0.148,0.159-0.396,0.308-0.746,0.445c-0.35,0.137-0.721,0.206-1.112,0.206
		c-0.742,0-1.364-0.206-1.868-0.619c-0.503-0.414-0.754-0.959-0.754-1.638c0-0.646,0.259-1.176,0.778-1.589
		c0.519-0.413,1.16-0.619,1.923-0.619c0.35,0,0.693,0.058,1.033,0.175c0.339,0.116,0.588,0.249,0.746,0.396v-0.89
		c0-0.455-0.135-0.82-0.404-1.097c-0.271-0.275-0.654-0.413-1.152-0.413c-0.742,0-1.224,0.323-1.446,0.97h-1.176
		c0.116-0.594,0.415-1.075,0.897-1.446s1.062-0.557,1.74-0.557c0.837,0,1.494,0.223,1.971,0.668s0.715,1.055,0.715,1.827V146.076z
		 M317.333,144.328v-0.731c-0.105-0.254-0.314-0.463-0.627-0.627s-0.654-0.247-1.025-0.247c-0.466,0-0.863,0.106-1.191,0.318
		c-0.329,0.212-0.493,0.514-0.493,0.905c0,0.403,0.164,0.713,0.493,0.93c0.328,0.218,0.726,0.326,1.191,0.326
		c0.371,0,0.713-0.082,1.025-0.246S317.228,144.582,317.333,144.328z"/>
	<path fill="#221F1F" d="M324.056,148.777h-1.176l1.064-2.653l-2.749-7.104h1.287l2.082,5.562l2.05-5.562h1.239L324.056,148.777z"/>
	<path fill="#221F1F" d="M335.117,143.962h1.128c-0.127,0.688-0.439,1.236-0.938,1.645s-1.134,0.611-1.907,0.611
		c-0.964,0-1.745-0.336-2.344-1.009s-0.897-1.555-0.897-2.646c0-1.07,0.296-1.952,0.89-2.646c0.593-0.693,1.366-1.041,2.32-1.041
		c0.942,0,1.674,0.315,2.192,0.946c0.52,0.63,0.779,1.47,0.779,2.519v0.429h-4.99c0.011,0.742,0.204,1.333,0.58,1.772
		s0.866,0.659,1.47,0.659c0.445,0,0.818-0.108,1.12-0.326C334.823,144.659,335.021,144.354,335.117,143.962z M333.385,139.894
		c-0.53,0-0.975,0.175-1.335,0.524s-0.583,0.832-0.667,1.446h3.75c-0.011-0.562-0.164-1.03-0.461-1.406
		S333.946,139.894,333.385,139.894z"/>
	<path fill="#221F1F" d="M343.141,138.988v1.224c-0.19-0.127-0.455-0.19-0.794-0.19c-0.382,0-0.721,0.117-1.018,0.35
		c-0.296,0.233-0.503,0.557-0.619,0.97v4.735h-1.192v-7.056h1.192v0.922c0.158-0.308,0.395-0.562,0.707-0.763
		s0.659-0.303,1.041-0.303C342.765,138.876,342.992,138.915,343.141,138.988z"/>
</g>
<path fill="none" stroke="#212221" stroke-width="0.75" stroke-miterlimit="10" d="M307.479,99.754
	c0,6.125-4.963,11.089-11.092,11.089c-6.123,0-11.09-4.964-11.09-11.089c0-6.123,4.967-11.092,11.09-11.092
	C302.516,88.663,307.479,93.631,307.479,99.754z"/>
<circle fill="none" stroke="#212221" stroke-width="0.75" stroke-miterlimit="10" cx="178.624" cy="29.125" r="11.091"/>
<circle fill="none" stroke="#212221" stroke-width="0.75" stroke-miterlimit="10" cx="178.624" cy="99.754" r="11.091"/>
<g>
	<rect x="103.409" y="135.747" fill="none" width="150.43" height="35.896"/>
	<path fill="#221F1F" d="M138.825,136.319h1.255v9.757h-1.255v-4.449h-5.515v4.449h-1.255v-9.757h1.255v4.179h5.515V136.319z"/>
	<path fill="#221F1F" d="M145.031,136.35c0.153,0.148,0.229,0.328,0.229,0.54c0,0.213-0.076,0.393-0.229,0.541
		c-0.154,0.148-0.337,0.222-0.549,0.222s-0.392-0.073-0.54-0.222s-0.223-0.328-0.223-0.541c0-0.212,0.074-0.392,0.223-0.54
		s0.328-0.223,0.54-0.223S144.877,136.202,145.031,136.35z M145.086,139.02v7.056h-1.191v-7.056H145.086z"/>
	<path fill="#221F1F" d="M153.461,146.076v-0.826c-0.19,0.275-0.467,0.506-0.826,0.691c-0.36,0.185-0.747,0.277-1.16,0.277
		c-0.996,0-1.774-0.35-2.336-1.049s-0.843-1.573-0.843-2.622c0-1.038,0.281-1.909,0.843-2.613c0.562-0.705,1.34-1.058,2.336-1.058
		c0.413,0,0.8,0.094,1.16,0.278c0.359,0.186,0.636,0.416,0.826,0.691v-4.1h1.208v10.329H153.461z M153.461,143.978v-2.86
		c-0.181-0.36-0.432-0.644-0.755-0.851c-0.323-0.206-0.676-0.31-1.057-0.31c-0.657,0-1.179,0.241-1.565,0.723
		c-0.387,0.482-0.58,1.104-0.58,1.867c0,0.764,0.193,1.386,0.58,1.867c0.387,0.482,0.908,0.724,1.565,0.724
		c0.381,0,0.733-0.104,1.057-0.31C153.029,144.622,153.28,144.338,153.461,143.978z"/>
	<path fill="#221F1F" d="M163.027,146.076v-0.826c-0.19,0.275-0.466,0.506-0.826,0.691c-0.36,0.185-0.747,0.277-1.16,0.277
		c-0.996,0-1.774-0.35-2.336-1.049s-0.842-1.573-0.842-2.622c0-1.038,0.28-1.909,0.842-2.613c0.562-0.705,1.34-1.058,2.336-1.058
		c0.413,0,0.8,0.094,1.16,0.278c0.36,0.186,0.636,0.416,0.826,0.691v-4.1h1.208v10.329H163.027z M163.027,143.978v-2.86
		c-0.18-0.36-0.432-0.644-0.755-0.851c-0.323-0.206-0.675-0.31-1.057-0.31c-0.656,0-1.179,0.241-1.565,0.723
		c-0.387,0.482-0.579,1.104-0.579,1.867c0,0.764,0.192,1.386,0.579,1.867c0.387,0.482,0.909,0.724,1.565,0.724
		c0.382,0,0.733-0.104,1.057-0.31C162.596,144.622,162.848,144.338,163.027,143.978z"/>
	<path fill="#221F1F" d="M172.388,143.962h1.128c-0.127,0.688-0.439,1.236-0.938,1.645s-1.134,0.611-1.907,0.611
		c-0.964,0-1.745-0.336-2.344-1.009s-0.897-1.555-0.897-2.646c0-1.07,0.296-1.952,0.89-2.646c0.593-0.693,1.367-1.041,2.32-1.041
		c0.942,0,1.674,0.315,2.193,0.946c0.519,0.63,0.778,1.47,0.778,2.519v0.429h-4.99c0.011,0.742,0.204,1.333,0.58,1.772
		s0.866,0.659,1.47,0.659c0.445,0,0.818-0.108,1.121-0.326C172.094,144.659,172.292,144.354,172.388,143.962z M170.655,139.894
		c-0.529,0-0.975,0.175-1.335,0.524s-0.583,0.832-0.667,1.446h3.75c-0.011-0.562-0.164-1.03-0.461-1.406
		S171.217,139.894,170.655,139.894z"/>
	<path fill="#221F1F" d="M176.79,146.076v-7.056h1.191v0.89c0.223-0.296,0.517-0.543,0.882-0.739c0.365-0.195,0.766-0.294,1.2-0.294
		c0.783,0,1.393,0.233,1.827,0.699c0.435,0.467,0.651,1.092,0.651,1.876v4.624h-1.207v-4.434c0-0.509-0.13-0.914-0.39-1.216
		s-0.649-0.453-1.168-0.453c-0.413,0-0.784,0.125-1.112,0.374c-0.329,0.249-0.557,0.563-0.684,0.945v4.783H176.79z"/>
	<path fill="#221F1F" d="M192.442,135.747v10.329h-1.192v-10.329H192.442z"/>
	<path fill="#221F1F" d="M201.277,146.076h-1.145v-0.524c-0.148,0.159-0.396,0.308-0.746,0.445c-0.35,0.137-0.721,0.206-1.112,0.206
		c-0.742,0-1.364-0.206-1.868-0.619c-0.503-0.414-0.754-0.959-0.754-1.638c0-0.646,0.259-1.176,0.778-1.589
		c0.519-0.413,1.16-0.619,1.923-0.619c0.35,0,0.693,0.058,1.033,0.175c0.339,0.116,0.588,0.249,0.746,0.396v-0.89
		c0-0.455-0.135-0.82-0.404-1.097c-0.271-0.275-0.654-0.413-1.152-0.413c-0.742,0-1.224,0.323-1.446,0.97h-1.176
		c0.116-0.594,0.415-1.075,0.897-1.446s1.062-0.557,1.74-0.557c0.837,0,1.494,0.223,1.971,0.668s0.715,1.055,0.715,1.827V146.076z
		 M200.133,144.328v-0.731c-0.105-0.254-0.314-0.463-0.627-0.627s-0.654-0.247-1.025-0.247c-0.466,0-0.863,0.106-1.191,0.318
		c-0.329,0.212-0.493,0.514-0.493,0.905c0,0.403,0.164,0.713,0.493,0.93c0.328,0.218,0.726,0.326,1.191,0.326
		c0.371,0,0.713-0.082,1.025-0.246S200.027,144.582,200.133,144.328z"/>
	<path fill="#221F1F" d="M206.855,148.777h-1.176l1.064-2.653l-2.749-7.104h1.287l2.082,5.562l2.05-5.562h1.239L206.855,148.777z"/>
	<path fill="#221F1F" d="M217.916,143.962h1.128c-0.127,0.688-0.439,1.236-0.938,1.645s-1.134,0.611-1.907,0.611
		c-0.964,0-1.745-0.336-2.344-1.009s-0.897-1.555-0.897-2.646c0-1.07,0.296-1.952,0.89-2.646c0.593-0.693,1.366-1.041,2.32-1.041
		c0.942,0,1.674,0.315,2.192,0.946c0.52,0.63,0.779,1.47,0.779,2.519v0.429h-4.99c0.011,0.742,0.204,1.333,0.58,1.772
		s0.866,0.659,1.47,0.659c0.445,0,0.818-0.108,1.12-0.326C217.622,144.659,217.82,144.354,217.916,143.962z M216.184,139.894
		c-0.53,0-0.975,0.175-1.335,0.524s-0.583,0.832-0.667,1.446h3.75c-0.011-0.562-0.164-1.03-0.461-1.406
		S216.745,139.894,216.184,139.894z"/>
	<path fill="#221F1F" d="M225.939,138.988v1.224c-0.19-0.127-0.455-0.19-0.794-0.19c-0.382,0-0.721,0.117-1.018,0.35
		c-0.296,0.233-0.503,0.557-0.619,0.97v4.735h-1.192v-7.056h1.192v0.922c0.158-0.308,0.395-0.562,0.707-0.763
		s0.659-0.303,1.041-0.303C225.563,138.876,225.791,138.915,225.939,138.988z"/>
</g>
<path fill="none" stroke="#212221" stroke-width="0.75" stroke-miterlimit="10" d="M74.305,29.125c0,6.126-4.964,11.09-11.09,11.09
	c-6.122,0-11.091-4.964-11.091-11.09c0-6.123,4.969-11.091,11.091-11.091C69.341,18.034,74.305,23.002,74.305,29.125z"/>
<path fill="none" stroke="#212221" stroke-width="0.75" stroke-miterlimit="10" d="M74.305,99.754
	c0,6.125-4.964,11.089-11.09,11.089c-6.122,0-11.091-4.964-11.091-11.089c0-6.123,4.969-11.092,11.091-11.092
	C69.341,88.663,74.305,93.631,74.305,99.754z"/>
<g>
	<rect x="-12" y="135.747" fill="none" width="150.431" height="35.896"/>
	<path fill="#221F1F" d="M24.974,136.319v9.757h-1.256v-9.757H24.974z"/>
	<path fill="#221F1F" d="M28.787,146.076v-7.056h1.191v0.89c0.223-0.296,0.517-0.543,0.883-0.739
		c0.365-0.195,0.765-0.294,1.199-0.294c0.784,0,1.394,0.233,1.828,0.699c0.434,0.467,0.651,1.092,0.651,1.876v4.624h-1.208v-4.434
		c0-0.509-0.13-0.914-0.39-1.216s-0.648-0.453-1.168-0.453c-0.413,0-0.784,0.125-1.112,0.374s-0.556,0.563-0.684,0.945v4.783H28.787
		z"/>
	<path fill="#221F1F" d="M39.339,145.25v3.527h-1.191v-9.757h1.191v0.826c0.201-0.275,0.479-0.506,0.834-0.691
		c0.355-0.185,0.739-0.278,1.152-0.278c0.996,0,1.774,0.353,2.336,1.058c0.562,0.704,0.843,1.575,0.843,2.613
		c0,1.039-0.281,1.91-0.843,2.614c-0.562,0.705-1.34,1.057-2.336,1.057c-0.413,0-0.797-0.093-1.152-0.277
		C39.818,145.755,39.54,145.525,39.339,145.25z M39.339,141.118v2.86c0.18,0.36,0.432,0.644,0.755,0.851
		c0.323,0.206,0.676,0.31,1.057,0.31c0.657,0,1.179-0.241,1.565-0.724c0.387-0.481,0.58-1.104,0.58-1.867
		c0-0.763-0.193-1.385-0.58-1.867c-0.387-0.481-0.908-0.723-1.565-0.723c-0.381,0-0.733,0.104-1.057,0.31
		C39.771,140.474,39.519,140.757,39.339,141.118z"/>
	<path fill="#221F1F" d="M53.34,139.02v7.056h-1.208v-0.89c-0.212,0.297-0.498,0.543-0.858,0.738
		c-0.36,0.196-0.758,0.294-1.191,0.294c-0.784,0-1.391-0.232-1.82-0.699c-0.429-0.466-0.644-1.091-0.644-1.875v-4.624h1.208v4.434
		c0,0.52,0.127,0.927,0.382,1.224c0.254,0.297,0.641,0.445,1.16,0.445c0.402,0,0.765-0.122,1.088-0.366
		c0.323-0.243,0.549-0.562,0.676-0.953v-4.783H53.34z"/>
	<path fill="#221F1F" d="M57.376,144.295v-4.259h-1.145v-1.017h1.145v-1.859h1.191v1.859h1.7v1.017h-1.7v4.132
		c0,0.657,0.312,0.985,0.938,0.985c0.328,0,0.636-0.095,0.922-0.286v1.112c-0.297,0.159-0.667,0.238-1.112,0.238
		c-0.594,0-1.064-0.161-1.414-0.484S57.376,144.931,57.376,144.295z"/>
	<path fill="#221F1F" d="M69.961,135.747v10.329H68.77v-10.329H69.961z"/>
	<path fill="#221F1F" d="M78.797,146.076h-1.145v-0.524c-0.148,0.159-0.397,0.308-0.747,0.445c-0.35,0.137-0.72,0.206-1.112,0.206
		c-0.741,0-1.364-0.206-1.867-0.619c-0.503-0.414-0.755-0.959-0.755-1.638c0-0.646,0.26-1.176,0.779-1.589
		c0.519-0.413,1.16-0.619,1.923-0.619c0.35,0,0.693,0.058,1.032,0.175c0.339,0.116,0.588,0.249,0.747,0.396v-0.89
		c0-0.455-0.135-0.82-0.405-1.097c-0.27-0.275-0.654-0.413-1.152-0.413c-0.741,0-1.224,0.323-1.445,0.97h-1.177
		c0.117-0.594,0.416-1.075,0.898-1.446c0.481-0.371,1.062-0.557,1.74-0.557c0.837,0,1.493,0.223,1.971,0.668
		c0.477,0.445,0.715,1.055,0.715,1.827V146.076z M77.652,144.328v-0.731c-0.105-0.254-0.315-0.463-0.628-0.627
		s-0.654-0.247-1.024-0.247c-0.467,0-0.863,0.106-1.192,0.318c-0.328,0.212-0.492,0.514-0.492,0.905c0,0.403,0.164,0.713,0.492,0.93
		c0.329,0.218,0.726,0.326,1.192,0.326c0.37,0,0.712-0.082,1.024-0.246S77.547,144.582,77.652,144.328z"/>
	<path fill="#221F1F" d="M84.374,148.777h-1.176l1.064-2.653l-2.749-7.104h1.287l2.082,5.562l2.05-5.562h1.239L84.374,148.777z"/>
	<path fill="#221F1F" d="M95.435,143.962h1.129c-0.127,0.688-0.44,1.236-0.938,1.645c-0.498,0.408-1.134,0.611-1.907,0.611
		c-0.964,0-1.746-0.336-2.344-1.009c-0.599-0.673-0.898-1.555-0.898-2.646c0-1.07,0.297-1.952,0.891-2.646
		c0.593-0.693,1.366-1.041,2.319-1.041c0.943,0,1.674,0.315,2.193,0.946c0.519,0.63,0.778,1.47,0.778,2.519v0.429h-4.989
		c0.01,0.742,0.203,1.333,0.58,1.772c0.376,0.439,0.866,0.659,1.47,0.659c0.445,0,0.818-0.108,1.12-0.326
		C95.141,144.659,95.34,144.354,95.435,143.962z M93.703,139.894c-0.53,0-0.976,0.175-1.335,0.524
		c-0.36,0.35-0.583,0.832-0.668,1.446h3.751c-0.011-0.562-0.165-1.03-0.461-1.406C94.693,140.083,94.265,139.894,93.703,139.894z"/>
	<path fill="#221F1F" d="M103.46,138.988v1.224c-0.191-0.127-0.456-0.19-0.795-0.19c-0.381,0-0.721,0.117-1.017,0.35
		c-0.297,0.233-0.504,0.557-0.62,0.97v4.735h-1.191v-7.056h1.191v0.922c0.159-0.308,0.395-0.562,0.707-0.763
		s0.659-0.303,1.041-0.303C103.083,138.876,103.312,138.915,103.46,138.988z"/>
</g>
<g>
	
		<path fill="none" stroke="#26A9E0" stroke-width="0.75" stroke-linecap="round" stroke-linejoin="round" stroke-dasharray="4,4" d="
		M81.291,103.361c0,0,25.547,0,78.596,0"/>
	<g>
		<polygon fill="#26A9E0" points="158.396,104.632 159.668,103.361 158.396,102.089 159.475,102.089 160.747,103.361 
			159.475,104.632 		"/>
	</g>
</g>
<g>
	
		<path fill="none" stroke="#26A9E0" stroke-width="0.75" stroke-linecap="round" stroke-linejoin="round" stroke-dasharray="4,4" d="
		M81.291,103.361c29.563,0,25.864-64.708,78.596-65.403"/>
	<g>
		<polygon fill="#26A9E0" points="158.446,39.313 159.668,37.994 158.348,36.772 159.427,36.73 160.747,37.952 159.525,39.271 		"/>
	</g>
</g>
<g>
	
		<path fill="none" stroke="#EC1C24" stroke-width="0.75" stroke-linecap="round" stroke-linejoin="round" stroke-dasharray="4,4" d="
		M81.291,29.125c0,0,25.547,0,78.596,0"/>
	<g>
		<polygon fill="#EC1C24" points="158.396,30.396 159.668,29.125 158.396,27.853 159.475,27.853 160.747,29.125 159.475,30.396 		
			"/>
	</g>
</g>
<g>
	
		<path fill="none" stroke="#EC1C24" stroke-width="0.75" stroke-linecap="round" stroke-linejoin="round" stroke-dasharray="4,4" d="
		M81.291,29.125c29.563,0,25.864,64.708,78.596,65.403"/>
	<g>
		<polygon fill="#EC1C24" points="158.348,95.713 159.668,94.492 158.446,93.172 159.525,93.213 160.747,94.534 159.427,95.754 		
			"/>
	</g>
</g>
<g>
	
		<path fill="none" stroke="#26A9E0" stroke-width="0.75" stroke-linecap="round" stroke-linejoin="round" stroke-dasharray="4,4" d="
		M196.652,103.361c0,0,25.547,0,78.596,0"/>
	<g>
		<polygon fill="#26A9E0" points="273.757,104.632 275.028,103.361 273.757,102.089 274.836,102.089 276.107,103.361 
			274.836,104.632 		"/>
	</g>
</g>
<g>
	
		<path fill="none" stroke="#26A9E0" stroke-width="0.75" stroke-linecap="round" stroke-linejoin="round" stroke-dasharray="4,4" d="
		M196.652,103.361c29.563,0,25.864-64.708,78.596-65.403"/>
	<g>
		<polygon fill="#26A9E0" points="273.808,39.313 275.029,37.994 273.709,36.772 274.788,36.73 276.107,37.952 274.886,39.271 		"/>
	</g>
</g>
<g>
	
		<path fill="none" stroke="#EC1C24" stroke-width="0.75" stroke-linecap="round" stroke-linejoin="round" stroke-dasharray="4,4" d="
		M196.652,29.125c0,0,25.547,0,78.596,0"/>
	<g>
		<polygon fill="#EC1C24" points="273.757,30.396 275.028,29.125 273.757,27.853 274.836,27.853 276.107,29.125 274.836,30.396 		
			"/>
	</g>
</g>
<g>
	
		<path fill="none" stroke="#EC1C24" stroke-width="0.75" stroke-linecap="round" stroke-linejoin="round" stroke-dasharray="4,4" d="
		M196.652,29.125c29.563,0,25.864,64.708,78.596,65.403"/>
	<g>
		<polygon fill="#EC1C24" points="273.709,95.713 275.029,94.492 273.808,93.172 274.886,93.213 276.107,94.534 274.788,95.754 		
			"/>
	</g>
</g>
<g>
	
		<path fill="none" stroke="#F9EC31" stroke-width="0.75" stroke-linecap="round" stroke-linejoin="round" stroke-dasharray="4,4" d="
		M313.629,29.125c0,0,25.547,0,78.598,0"/>
	<g>
		<polygon fill="#F9EC31" points="390.735,30.396 392.007,29.125 390.735,27.853 391.814,27.853 393.086,29.125 391.814,30.396 		
			"/>
	</g>
</g>
<g>
	
		<path fill="none" stroke="#F9EC31" stroke-width="0.75" stroke-linecap="round" stroke-linejoin="round" stroke-dasharray="4,4" d="
		M313.629,101.608c0,0,25.547,0,78.598,0"/>
	<g>
		<polygon fill="#F9EC31" points="390.735,102.879 392.007,101.608 390.735,100.336 391.814,100.336 393.086,101.608 
			391.814,102.879 		"/>
	</g>
</g>
<g>
	<path fill="none" d="M64.528,32.249c0.092-0.455,0.092-0.995,0.092-1.527c0-0.633-0.008-1.157-0.124-1.551
		c-0.131-0.417-0.51-0.655-0.903-0.655c-0.293,0-0.756,0.146-0.911,0.725c-0.107,0.393-0.107,0.949-0.107,1.481
		c0,0.532,0,1.134,0.1,1.559c0.146,0.595,0.586,0.795,0.918,0.795C63.888,33.075,64.382,32.912,64.528,32.249z"/>
	<path d="M56.093,30.751c-0.1,0.409-0.124,0.494-0.941,0.494c-0.178,0-0.286,0-0.286,0.208c0,0.108,0.093,0.108,0.286,0.108h4.815
		c0.255,0,0.262,0,0.324-0.178l0.818-2.245c0.045-0.116,0.045-0.131,0.045-0.146c0-0.039-0.03-0.117-0.123-0.117
		s-0.108,0.055-0.177,0.225c-0.355,0.957-0.811,2.145-2.616,2.145h-0.98c-0.139,0-0.162,0-0.224-0.016
		c-0.108-0.008-0.139-0.015-0.139-0.1c0-0.032,0-0.054,0.054-0.24l1.404-5.625c0.093-0.37,0.124-0.486,1.104-0.486
		c0.316,0,0.393,0,0.393-0.2c0-0.124-0.107-0.124-0.162-0.124c-0.347,0-1.197,0.031-1.543,0.031c-0.309,0-1.073-0.031-1.382-0.031
		c-0.077,0-0.2,0-0.2,0.208c0,0.116,0.092,0.116,0.293,0.116c0.023,0,0.216,0,0.394,0.023c0.186,0.016,0.286,0.032,0.286,0.162
		c0,0.046-0.015,0.077-0.047,0.201L56.093,30.751z"/>
	<path d="M65.284,30.813c0-0.802-0.1-1.374-0.432-1.882c-0.224-0.332-0.671-0.625-1.258-0.625c-1.682,0-1.682,1.983-1.682,2.508
		c0,0.526,0,2.462,1.682,2.462C65.284,33.275,65.284,31.339,65.284,30.813z M62.676,32.28c-0.1-0.424-0.1-1.026-0.1-1.559
		c0-0.533,0-1.088,0.107-1.481c0.154-0.579,0.617-0.725,0.911-0.725c0.393,0,0.772,0.239,0.903,0.655
		c0.116,0.394,0.124,0.918,0.124,1.551c0,0.532,0,1.072-0.092,1.527c-0.146,0.664-0.641,0.827-0.934,0.827
		C63.262,33.075,62.822,32.875,62.676,32.28z"/>
	<path d="M66.597,34.433c0,0.047,0.054,0.101,0.1,0.101c0.101,0,0.718-0.579,0.718-1.443c0-0.455-0.178-0.795-0.51-0.795
		c-0.239,0-0.409,0.185-0.409,0.417c0,0.231,0.162,0.416,0.417,0.416c0.178,0,0.293-0.115,0.301-0.115
		c0,0.401-0.077,0.864-0.571,1.327C66.619,34.372,66.597,34.395,66.597,34.433z"/>
	<path d="M70.602,32.534v-4.02c0-0.201-0.008-0.209-0.216-0.209c-0.462,0.463-1.127,0.463-1.42,0.463v0.263
		c0.17,0,0.648,0,1.05-0.201v3.704c0,0.24,0,0.333-0.725,0.333h-0.278v0.262c0.131-0.008,1.026-0.03,1.296-0.03
		c0.224,0,1.143,0.022,1.296,0.03v-0.262h-0.27C70.602,32.867,70.602,32.774,70.602,32.534z"/>
</g>
<g>
	<path fill="none" d="M64.528,103.272c0.092-0.453,0.092-0.995,0.092-1.526c0-0.634-0.007-1.157-0.122-1.552
		c-0.132-0.417-0.511-0.656-0.904-0.656c-0.293,0-0.756,0.146-0.911,0.728c-0.107,0.392-0.107,0.947-0.107,1.48
		c0,0.531,0,1.135,0.1,1.558c0.146,0.596,0.586,0.796,0.918,0.796C63.888,104.099,64.382,103.937,64.528,103.272z"/>
	<path d="M56.093,101.776c-0.1,0.409-0.124,0.494-0.941,0.494c-0.178,0-0.286,0-0.286,0.209c0,0.106,0.093,0.106,0.286,0.106h4.815
		c0.255,0,0.262,0,0.324-0.177l0.819-2.246c0.045-0.115,0.045-0.131,0.045-0.146c0-0.04-0.03-0.115-0.123-0.115
		s-0.108,0.053-0.178,0.224c-0.354,0.955-0.81,2.145-2.616,2.145h-0.98c-0.139,0-0.162,0-0.223-0.016
		c-0.108-0.009-0.139-0.016-0.139-0.099c0-0.032,0-0.056,0.054-0.241l1.404-5.625c0.093-0.37,0.124-0.486,1.104-0.486
		c0.316,0,0.393,0,0.393-0.201c0-0.123-0.109-0.123-0.162-0.123c-0.348,0-1.196,0.031-1.544,0.031c-0.308,0-1.072-0.031-1.381-0.031
		c-0.077,0-0.201,0-0.201,0.209c0,0.115,0.093,0.115,0.294,0.115c0.023,0,0.216,0,0.393,0.023c0.186,0.016,0.286,0.03,0.286,0.162
		c0,0.046-0.015,0.077-0.046,0.2L56.093,101.776z"/>
	<path d="M65.283,101.837c0-0.802-0.099-1.373-0.431-1.883c-0.224-0.331-0.671-0.626-1.258-0.626c-1.682,0-1.682,1.985-1.682,2.509
		c0,0.525,0,2.462,1.682,2.462C65.283,104.299,65.283,102.363,65.283,101.837z M62.676,103.303c-0.1-0.423-0.1-1.026-0.1-1.558
		c0-0.533,0-1.089,0.107-1.48c0.154-0.581,0.617-0.728,0.911-0.728c0.393,0,0.772,0.239,0.904,0.656
		c0.115,0.395,0.122,0.918,0.122,1.552c0,0.531,0,1.073-0.092,1.526c-0.146,0.665-0.64,0.827-0.934,0.827
		C63.262,104.099,62.822,103.899,62.676,103.303z"/>
	<path d="M66.596,105.458c0,0.046,0.054,0.1,0.101,0.1c0.101,0,0.719-0.578,0.719-1.443c0-0.454-0.179-0.793-0.51-0.793
		c-0.238,0-0.408,0.184-0.408,0.417c0,0.229,0.161,0.415,0.417,0.415c0.176,0,0.292-0.114,0.301-0.114
		c0,0.399-0.077,0.864-0.571,1.326C66.618,105.396,66.596,105.418,66.596,105.458z"/>
	<path d="M71.836,100.75c0-0.879-0.764-1.421-1.698-1.421c-0.902,0-1.513,0.634-1.513,1.305c0,0.371,0.317,0.402,0.386,0.402
		c0.178,0,0.385-0.125,0.385-0.379c0-0.132-0.045-0.385-0.424-0.385c0.224-0.518,0.719-0.68,1.058-0.68
		c0.726,0,1.104,0.57,1.104,1.157c0,0.633-0.448,1.136-0.68,1.396l-1.752,1.721c-0.077,0.07-0.077,0.086-0.077,0.286h2.994
		l0.217-1.32H71.59c-0.016,0.162-0.093,0.587-0.186,0.664c-0.062,0.039-0.618,0.039-0.717,0.039h-1.335
		c0.756-0.672,1.01-0.88,1.451-1.219C71.341,101.892,71.836,101.437,71.836,100.75z"/>
</g>
<g>
	<path d="M171.502,30.751c-0.102,0.409-0.125,0.494-0.943,0.494c-0.177,0-0.285,0-0.285,0.208c0,0.108,0.092,0.108,0.285,0.108
		h4.815c0.255,0,0.264,0,0.325-0.178l0.818-2.246c0.045-0.115,0.045-0.131,0.045-0.147c0-0.038-0.03-0.116-0.122-0.116
		c-0.094,0-0.108,0.054-0.179,0.225c-0.355,0.957-0.811,2.145-2.615,2.145h-0.979c-0.139,0-0.163,0-0.224-0.016
		c-0.109-0.008-0.139-0.016-0.139-0.1c0-0.031,0-0.054,0.054-0.24l1.403-5.625c0.093-0.37,0.125-0.486,1.104-0.486
		c0.316,0,0.393,0,0.393-0.201c0-0.124-0.107-0.124-0.162-0.124c-0.345,0-1.196,0.031-1.542,0.031c-0.309,0-1.074-0.031-1.382-0.031
		c-0.078,0-0.2,0-0.2,0.208c0,0.116,0.091,0.116,0.292,0.116c0.022,0,0.215,0,0.394,0.023c0.184,0.016,0.286,0.03,0.286,0.162
		c0,0.046-0.017,0.077-0.048,0.201L171.502,30.751z"/>
	<path d="M179.156,28.305c-0.462,0.463-1.126,0.463-1.42,0.463v0.262c0.17,0,0.649,0,1.05-0.201v3.705c0,0.24,0,0.332-0.726,0.332
		h-0.278v0.262c0.132-0.007,1.027-0.03,1.297-0.03c0.225,0,1.143,0.023,1.296,0.03v-0.262h-0.269c-0.734,0-0.734-0.092-0.734-0.332
		v-4.021C179.372,28.313,179.365,28.305,179.156,28.305z"/>
	<path d="M182.004,34.433c0,0.046,0.054,0.1,0.1,0.1c0.099,0,0.717-0.579,0.717-1.443c0-0.455-0.179-0.795-0.51-0.795
		c-0.238,0-0.409,0.185-0.409,0.416c0,0.232,0.162,0.417,0.417,0.417c0.179,0,0.293-0.115,0.3-0.115
		c0,0.401-0.077,0.865-0.569,1.327C182.028,34.372,182.004,34.394,182.004,34.433z"/>
	<path d="M186.008,32.534v-4.021c0-0.2-0.007-0.208-0.215-0.208c-0.462,0.463-1.126,0.463-1.42,0.463v0.262
		c0.17,0,0.649,0,1.049-0.201v3.705c0,0.24,0,0.332-0.725,0.332h-0.278v0.262c0.132-0.007,1.026-0.03,1.297-0.03
		c0.225,0,1.143,0.023,1.296,0.03v-0.262h-0.27C186.008,32.866,186.008,32.774,186.008,32.534z"/>
</g>
<g>
	<path d="M171.36,102.448c-0.102,0.407-0.125,0.493-0.942,0.493c-0.177,0-0.285,0-0.285,0.208c0,0.109,0.092,0.109,0.285,0.109
		h4.815c0.255,0,0.264,0,0.325-0.179l0.818-2.246c0.045-0.116,0.045-0.129,0.045-0.146c0-0.038-0.03-0.117-0.122-0.117
		c-0.093,0-0.107,0.056-0.179,0.225c-0.354,0.959-0.809,2.146-2.615,2.146h-0.979c-0.139,0-0.163,0-0.224-0.016
		c-0.109-0.007-0.139-0.016-0.139-0.101c0-0.031,0-0.054,0.054-0.239l1.403-5.626c0.093-0.369,0.125-0.486,1.104-0.486
		c0.316,0,0.393,0,0.393-0.201c0-0.122-0.108-0.122-0.162-0.122c-0.346,0-1.196,0.03-1.542,0.03c-0.309,0-1.074-0.03-1.382-0.03
		c-0.078,0-0.199,0-0.199,0.208c0,0.115,0.09,0.115,0.292,0.115c0.022,0,0.215,0,0.394,0.023c0.184,0.016,0.287,0.031,0.287,0.162
		c0,0.047-0.018,0.078-0.047,0.201L171.36,102.448z"/>
	<path d="M179.015,100.001c-0.462,0.462-1.127,0.462-1.42,0.462v0.264c0.169,0,0.649,0,1.05-0.202v3.704
		c0,0.239,0,0.333-0.726,0.333h-0.278v0.261c0.132-0.007,1.026-0.03,1.297-0.03c0.224,0,1.143,0.023,1.295,0.03v-0.261h-0.27
		c-0.734,0-0.734-0.094-0.734-0.333v-4.02C179.23,100.009,179.224,100.001,179.015,100.001z"/>
	<path d="M181.862,106.127c0,0.047,0.054,0.101,0.101,0.101c0.099,0,0.717-0.578,0.717-1.441c0-0.458-0.177-0.797-0.509-0.797
		c-0.24,0-0.409,0.185-0.409,0.417s0.161,0.416,0.416,0.416c0.179,0,0.294-0.115,0.3-0.115c0,0.402-0.076,0.864-0.569,1.327
		C181.887,106.066,181.862,106.09,181.862,106.127z"/>
	<path d="M187.103,101.42c0-0.88-0.766-1.419-1.698-1.419c-0.903,0-1.513,0.632-1.513,1.304c0,0.369,0.316,0.4,0.386,0.4
		c0.177,0,0.385-0.123,0.385-0.378c0-0.13-0.047-0.386-0.424-0.386c0.224-0.518,0.718-0.68,1.058-0.68
		c0.726,0,1.103,0.571,1.103,1.158c0,0.633-0.448,1.135-0.679,1.396l-1.752,1.722c-0.077,0.068-0.077,0.085-0.077,0.284h2.994
		l0.217-1.318h-0.247c-0.017,0.162-0.094,0.587-0.188,0.663c-0.061,0.039-0.617,0.039-0.717,0.039h-1.335
		c0.757-0.672,1.012-0.881,1.451-1.221C186.608,102.563,187.103,102.107,187.103,101.42z"/>
</g>
<g>
	<path d="M289.267,30.367c-0.099,0.409-0.121,0.494-0.94,0.494c-0.177,0-0.285,0-0.285,0.208c0,0.109,0.093,0.109,0.285,0.109h4.816
		c0.254,0,0.261,0,0.322-0.178l0.82-2.245c0.045-0.116,0.045-0.131,0.045-0.146c0-0.04-0.031-0.117-0.122-0.117
		c-0.093,0-0.109,0.055-0.179,0.225c-0.354,0.957-0.81,2.145-2.616,2.145h-0.981c-0.139,0-0.161,0-0.223-0.016
		c-0.108-0.008-0.14-0.015-0.14-0.1c0-0.032,0-0.054,0.055-0.24l1.405-5.626c0.093-0.37,0.122-0.485,1.104-0.485
		c0.317,0,0.394,0,0.394-0.2c0-0.124-0.107-0.124-0.162-0.124c-0.348,0-1.196,0.031-1.545,0.031c-0.308,0-1.071-0.031-1.38-0.031
		c-0.076,0-0.201,0-0.201,0.208c0,0.116,0.093,0.116,0.295,0.116c0.022,0,0.215,0,0.392,0.023c0.187,0.016,0.285,0.032,0.285,0.162
		c0,0.046-0.015,0.077-0.045,0.201L289.267,30.367z"/>
	<path d="M295.241,32.458c-0.077,0.069-0.077,0.085-0.077,0.286h2.993l0.216-1.319h-0.246c-0.015,0.162-0.093,0.586-0.186,0.663
		c-0.062,0.039-0.617,0.039-0.716,0.039h-1.336c0.755-0.672,1.011-0.88,1.45-1.22c0.533-0.424,1.033-0.879,1.033-1.566
		c0-0.879-0.763-1.42-1.696-1.42c-0.904,0-1.513,0.633-1.513,1.305c0,0.37,0.315,0.401,0.386,0.401c0.178,0,0.385-0.123,0.385-0.378
		c0-0.131-0.045-0.386-0.423-0.386c0.224-0.518,0.717-0.679,1.057-0.679c0.725,0,1.104,0.571,1.104,1.157
		c0,0.633-0.447,1.135-0.681,1.397L295.241,32.458z"/>
	<path d="M299.771,34.048c0,0.047,0.054,0.1,0.101,0.1c0.102,0,0.718-0.578,0.718-1.442c0-0.456-0.177-0.795-0.51-0.795
		c-0.238,0-0.407,0.185-0.407,0.417c0,0.231,0.161,0.416,0.416,0.416c0.176,0,0.292-0.115,0.3-0.115c0,0.401-0.075,0.864-0.57,1.327
		C299.793,33.987,299.771,34.01,299.771,34.048z"/>
	<path d="M303.776,32.149v-4.02c0-0.201-0.008-0.209-0.216-0.209c-0.464,0.464-1.129,0.464-1.419,0.464v0.263
		c0.169,0,0.646,0,1.048-0.201v3.704c0,0.239,0,0.333-0.726,0.333h-0.277v0.262c0.132-0.008,1.025-0.031,1.296-0.031
		c0.224,0,1.142,0.023,1.298,0.031v-0.262h-0.271C303.776,32.482,303.776,32.389,303.776,32.149z"/>
</g>
<g>
	<path d="M289.126,101.398c-0.103,0.41-0.125,0.494-0.943,0.494c-0.177,0-0.285,0-0.285,0.209c0,0.108,0.093,0.108,0.285,0.108
		h4.816c0.254,0,0.264,0,0.324-0.179l0.817-2.246c0.046-0.116,0.046-0.13,0.046-0.146c0-0.038-0.03-0.116-0.123-0.116
		c-0.094,0-0.107,0.056-0.178,0.225c-0.355,0.957-0.81,2.145-2.615,2.145h-0.979c-0.14,0-0.163,0-0.225-0.015
		c-0.108-0.008-0.14-0.015-0.14-0.101c0-0.031,0-0.054,0.055-0.24l1.403-5.624c0.094-0.371,0.124-0.487,1.104-0.487
		c0.315,0,0.393,0,0.393-0.2c0-0.124-0.107-0.124-0.161-0.124c-0.347,0-1.197,0.031-1.543,0.031c-0.309,0-1.075-0.031-1.382-0.031
		c-0.078,0-0.2,0-0.2,0.208c0,0.116,0.092,0.116,0.292,0.116c0.023,0,0.215,0,0.395,0.022c0.185,0.017,0.286,0.032,0.286,0.164
		c0,0.045-0.017,0.076-0.046,0.199L289.126,101.398z"/>
	<path d="M295.097,103.491c-0.075,0.067-0.075,0.085-0.075,0.285h2.992l0.218-1.319h-0.247c-0.017,0.161-0.094,0.586-0.187,0.662
		c-0.062,0.041-0.616,0.041-0.718,0.041h-1.335c0.757-0.673,1.013-0.882,1.452-1.222c0.532-0.424,1.034-0.88,1.034-1.566
		c0-0.879-0.766-1.42-1.698-1.42c-0.903,0-1.512,0.633-1.512,1.304c0,0.372,0.315,0.402,0.385,0.402c0.177,0,0.386-0.124,0.386-0.38
		c0-0.129-0.047-0.385-0.424-0.385c0.225-0.517,0.717-0.678,1.057-0.678c0.726,0,1.104,0.569,1.104,1.156
		c0,0.633-0.448,1.135-0.68,1.398L295.097,103.491z"/>
	<path d="M299.628,105.08c0,0.047,0.054,0.101,0.1,0.101c0.1,0,0.718-0.578,0.718-1.442c0-0.457-0.177-0.796-0.509-0.796
		c-0.239,0-0.409,0.186-0.409,0.417c0,0.23,0.161,0.417,0.417,0.417c0.178,0,0.293-0.115,0.3-0.115c0,0.4-0.077,0.863-0.569,1.326
		C299.651,105.018,299.628,105.042,299.628,105.08z"/>
	<path d="M304.868,100.372c0-0.879-0.767-1.42-1.698-1.42c-0.903,0-1.513,0.633-1.513,1.304c0,0.372,0.316,0.402,0.386,0.402
		c0.177,0,0.386-0.124,0.386-0.38c0-0.129-0.048-0.385-0.424-0.385c0.225-0.517,0.717-0.678,1.057-0.678
		c0.726,0,1.104,0.569,1.104,1.156c0,0.633-0.448,1.135-0.68,1.398l-1.752,1.721c-0.076,0.067-0.076,0.085-0.076,0.285h2.993
		l0.218-1.319h-0.247c-0.017,0.161-0.094,0.586-0.187,0.662c-0.062,0.041-0.617,0.041-0.718,0.041h-1.336
		c0.758-0.673,1.014-0.882,1.453-1.222C304.373,101.514,304.868,101.058,304.868,100.372z"/>
</g>
<g>
	<g>
		<path fill="#6D6E70" d="M84.851,20.864c-0.928,0-1.59-0.761-1.59-2.005c0-0.412,0.131-1.788,0.857-2.892
			c0.651-0.978,1.572-1.466,2.321-1.466c0.767,0,1.619,0.523,1.619,1.927c0,0.678-0.258,2.152-1.188,3.311
			C86.416,20.312,85.642,20.864,84.851,20.864 M88.897,16.799c0-1.515-1.001-2.535-2.405-2.535c-2.038,0-4.106,2.139-4.106,4.332
			c0,1.562,1.056,2.52,2.411,2.52C86.793,21.115,88.897,19.048,88.897,16.799z"/>
		<path fill="#6D6E70" d="M90.949,22.24c-0.301,0-0.699-0.175-0.832-0.712c-0.09-0.392-0.09-0.929-0.09-1.418
			c0-0.475,0-0.978,0.098-1.34c0.132-0.517,0.557-0.656,0.824-0.656c0.357,0,0.699,0.216,0.817,0.6
			c0.104,0.355,0.11,0.824,0.11,1.396c0,0.489,0,0.978-0.083,1.391C91.662,22.099,91.213,22.24,90.949,22.24 M92.478,20.201
			c0-0.727-0.089-1.244-0.391-1.704c-0.203-0.3-0.608-0.566-1.138-0.566c-1.523,0-1.523,1.794-1.523,2.27
			c0,0.467,0,2.228,1.523,2.228C92.478,22.428,92.478,20.668,92.478,20.201z"/>
		<path fill="#6D6E70" d="M94.227,22.191c0,0.362-0.071,0.783-0.519,1.201c-0.027,0.028-0.041,0.05-0.041,0.077
			c0,0.05,0.048,0.098,0.091,0.098c0.089,0,0.65-0.53,0.65-1.314c0-0.404-0.162-0.712-0.462-0.712c-0.217,0-0.377,0.168-0.377,0.371
			c0,0.209,0.153,0.384,0.384,0.384C94.113,22.296,94.217,22.191,94.227,22.191"/>
		<path fill="#6D6E70" d="M97.269,18.113c0-0.176-0.014-0.182-0.203-0.182c-0.419,0.411-1.019,0.418-1.284,0.418v0.238
			c0.153,0,0.592,0,0.95-0.181v3.352c0,0.217,0,0.3-0.658,0.3h-0.25v0.238c0.119-0.007,0.93-0.028,1.173-0.028
			c0.203,0,1.033,0.021,1.172,0.028v-0.238h-0.244c-0.657,0-0.657-0.083-0.657-0.3V18.113"/>
	</g>
	<g>
		<path fill="#6D6E70" d="M84.851,45.763c-0.928,0-1.59-0.761-1.59-2.006c0-0.412,0.131-1.787,0.857-2.891
			c0.651-0.978,1.572-1.466,2.321-1.466c0.767,0,1.619,0.522,1.619,1.927c0,0.678-0.258,2.151-1.188,3.311
			C86.416,45.211,85.642,45.763,84.851,45.763 M88.897,41.698c0-1.516-1.001-2.535-2.405-2.535c-2.038,0-4.106,2.138-4.106,4.331
			c0,1.563,1.056,2.521,2.411,2.521C86.793,46.014,88.897,43.947,88.897,41.698z"/>
		<path fill="#6D6E70" d="M90.949,47.139c-0.301,0-0.699-0.174-0.832-0.711c-0.09-0.392-0.09-0.93-0.09-1.418
			c0-0.475,0-0.978,0.098-1.34c0.132-0.518,0.557-0.656,0.824-0.656c0.357,0,0.699,0.215,0.817,0.599
			c0.104,0.356,0.11,0.824,0.11,1.397c0,0.489,0,0.978-0.083,1.39C91.662,46.999,91.213,47.139,90.949,47.139 M92.478,45.1
			c0-0.728-0.089-1.244-0.391-1.705c-0.203-0.3-0.608-0.565-1.138-0.565c-1.523,0-1.523,1.794-1.523,2.27
			c0,0.467,0,2.228,1.523,2.228C92.478,47.328,92.478,45.567,92.478,45.1z"/>
		<path fill="#6D6E70" d="M94.227,47.09c0,0.362-0.071,0.783-0.519,1.202c-0.027,0.028-0.041,0.049-0.041,0.076
			c0,0.049,0.048,0.098,0.091,0.098c0.089,0,0.65-0.53,0.65-1.313c0-0.404-0.162-0.712-0.462-0.712
			c-0.217,0-0.377,0.167-0.377,0.371c0,0.209,0.153,0.384,0.384,0.384C94.113,47.195,94.217,47.09,94.227,47.09"/>
		<path fill="#6D6E70" d="M97.269,43.012c0-0.176-0.014-0.182-0.203-0.182c-0.419,0.411-1.019,0.418-1.284,0.418v0.238
			c0.153,0,0.592,0,0.95-0.181v3.352c0,0.217,0,0.3-0.658,0.3h-0.25v0.238c0.119-0.007,0.93-0.028,1.173-0.028
			c0.203,0,1.033,0.021,1.172,0.028v-0.238h-0.244c-0.657,0-0.657-0.083-0.657-0.3V43.012"/>
	</g>
	<g>
		<path fill="#6D6E70" d="M83.892,91.254c-0.929,0-1.592-0.76-1.592-2.004c0-0.41,0.132-1.787,0.858-2.891
			c0.649-0.985,1.572-1.474,2.319-1.474c0.768,0,1.619,0.531,1.619,1.935c0,0.678-0.258,2.145-1.187,3.303
			C85.456,90.704,84.681,91.254,83.892,91.254 M87.936,87.19c0-1.521-1-2.534-2.403-2.534c-2.038,0-4.106,2.138-4.106,4.33
			c0,1.564,1.055,2.514,2.41,2.514C85.833,91.5,87.936,89.44,87.936,87.19z"/>
		<path fill="#6D6E70" d="M89.989,92.659c-0.3,0-0.699-0.182-0.833-0.719c-0.089-0.385-0.089-0.922-0.089-1.41
			c0-0.482,0-0.979,0.098-1.342c0.132-0.523,0.558-0.656,0.824-0.656c0.356,0,0.698,0.217,0.817,0.594
			c0.104,0.355,0.11,0.83,0.11,1.404c0,0.488,0,0.97-0.084,1.382C90.701,92.513,90.253,92.659,89.989,92.659 M91.518,90.614
			c0-0.719-0.09-1.244-0.391-1.705c-0.203-0.3-0.607-0.566-1.138-0.566c-1.523,0-1.523,1.797-1.523,2.271s0,2.227,1.523,2.227
			C91.518,92.84,91.518,91.088,91.518,90.614z"/>
		<path fill="#6D6E70" d="M93.265,92.604c0,0.363-0.071,0.782-0.518,1.209c-0.027,0.02-0.041,0.041-0.041,0.075
			c0,0.042,0.048,0.091,0.09,0.091c0.09,0,0.65-0.523,0.65-1.305c0-0.412-0.161-0.721-0.461-0.721c-0.217,0-0.378,0.176-0.378,0.378
			c0,0.21,0.154,0.377,0.385,0.377C93.153,92.708,93.257,92.604,93.265,92.604"/>
		<path fill="#6D6E70" d="M97.427,91.514h-0.223c-0.021,0.146-0.091,0.53-0.175,0.6c-0.049,0.036-0.559,0.036-0.648,0.036h-1.209
			c0.69-0.606,0.914-0.798,1.312-1.104c0.489-0.384,0.943-0.796,0.943-1.417c0-0.796-0.698-1.286-1.543-1.286
			c-0.81,0-1.362,0.574-1.362,1.182c0,0.335,0.279,0.371,0.343,0.371c0.161,0,0.348-0.113,0.348-0.352
			c0-0.117-0.041-0.348-0.383-0.348c0.202-0.469,0.649-0.615,0.957-0.615c0.656,0,1,0.517,1,1.048c0,0.572-0.404,1.027-0.615,1.265
			l-1.585,1.562c-0.07,0.058-0.07,0.072-0.07,0.253h2.709L97.427,91.514"/>
	</g>
	<g>
		<path fill="#6D6E70" d="M83.892,114.702c-0.929,0-1.592-0.759-1.592-2.003c0-0.411,0.132-1.788,0.858-2.893
			c0.649-0.983,1.572-1.474,2.319-1.474c0.768,0,1.619,0.533,1.619,1.937c0,0.678-0.258,2.144-1.187,3.303
			C85.456,114.151,84.681,114.702,83.892,114.702 M87.936,110.637c0-1.521-1-2.534-2.403-2.534c-2.038,0-4.106,2.137-4.106,4.331
			c0,1.563,1.055,2.513,2.41,2.513C85.833,114.947,87.936,112.887,87.936,110.637z"/>
		<path fill="#6D6E70" d="M89.989,116.106c-0.3,0-0.699-0.182-0.833-0.719c-0.089-0.385-0.089-0.923-0.089-1.411
			c0-0.48,0-0.978,0.098-1.341c0.132-0.523,0.558-0.657,0.824-0.657c0.356,0,0.698,0.218,0.817,0.596
			c0.104,0.354,0.11,0.83,0.11,1.402c0,0.488,0,0.971-0.084,1.383C90.701,115.961,90.253,116.106,89.989,116.106 M91.518,114.062
			c0-0.72-0.09-1.245-0.391-1.705c-0.203-0.301-0.607-0.565-1.138-0.565c-1.523,0-1.523,1.794-1.523,2.271
			c0,0.474,0,2.227,1.523,2.227C91.518,116.289,91.518,114.536,91.518,114.062z"/>
		<path fill="#6D6E70" d="M93.265,116.052c0,0.362-0.071,0.781-0.518,1.207c-0.027,0.021-0.041,0.041-0.041,0.077
			c0,0.043,0.048,0.09,0.09,0.09c0.09,0,0.65-0.522,0.65-1.305c0-0.412-0.161-0.719-0.461-0.719c-0.217,0-0.378,0.174-0.378,0.377
			c0,0.21,0.154,0.377,0.385,0.377C93.153,116.157,93.257,116.052,93.265,116.052"/>
		<path fill="#6D6E70" d="M97.427,114.962h-0.223c-0.021,0.146-0.091,0.529-0.175,0.6c-0.049,0.035-0.559,0.035-0.648,0.035h-1.209
			c0.69-0.606,0.914-0.797,1.312-1.104c0.489-0.382,0.943-0.797,0.943-1.418c0-0.796-0.698-1.283-1.543-1.283
			c-0.81,0-1.362,0.572-1.362,1.18c0,0.335,0.279,0.371,0.343,0.371c0.161,0,0.348-0.113,0.348-0.351
			c0-0.117-0.041-0.349-0.383-0.349c0.202-0.47,0.649-0.614,0.957-0.614c0.656,0,1,0.517,1,1.046c0,0.572-0.404,1.029-0.615,1.266
			l-1.585,1.563c-0.07,0.058-0.07,0.071-0.07,0.253h2.709L97.427,114.962"/>
	</g>
	<g>
		<path fill="#6D6E70" d="M200.214,20.86c-0.929,0-1.59-0.768-1.59-2.011c0-0.413,0.131-1.788,0.857-2.891
			c0.65-0.979,1.572-1.467,2.32-1.467c0.768,0,1.619,0.523,1.619,1.927c0,0.678-0.258,2.152-1.188,3.312
			C201.779,20.301,201.005,20.86,200.214,20.86 M204.259,16.79c0-1.516-1-2.537-2.403-2.537c-2.038,0-4.105,2.138-4.105,4.337
			c0,1.558,1.056,2.516,2.41,2.516C202.156,21.106,204.259,19.038,204.259,16.79z"/>
		<path fill="#6D6E70" d="M206.646,18.129c0-0.174-0.015-0.181-0.193-0.181c-0.422,0.412-1.021,0.419-1.286,0.419v0.238
			c0.152,0,0.586,0,0.949-0.181v3.352c0,0.216,0,0.301-0.656,0.301h-0.251v0.237c0.118-0.006,0.931-0.028,1.174-0.028
			c0.202,0,1.026,0.022,1.172,0.028v-0.237h-0.25c-0.658,0-0.658-0.084-0.658-0.301V18.129"/>
		<path fill="#6D6E70" d="M209.59,22.208c0,0.364-0.071,0.783-0.52,1.201c-0.027,0.029-0.041,0.048-0.041,0.077
			c0,0.049,0.048,0.091,0.091,0.091c0.089,0,0.651-0.523,0.651-1.306c0-0.404-0.162-0.711-0.462-0.711
			c-0.218,0-0.378,0.167-0.378,0.369c0,0.21,0.153,0.384,0.385,0.384C209.476,22.313,209.581,22.208,209.59,22.208"/>
		<path fill="#6D6E70" d="M212.632,18.129c0-0.174-0.014-0.181-0.201-0.181c-0.421,0.412-1.02,0.419-1.285,0.419v0.238
			c0.153,0,0.593,0,0.95-0.181v3.352c0,0.216,0,0.301-0.658,0.301h-0.251v0.237c0.119-0.006,0.931-0.028,1.174-0.028
			c0.203,0,1.033,0.022,1.172,0.028v-0.237h-0.243c-0.657,0-0.657-0.084-0.657-0.301V18.129"/>
	</g>
	<g>
		<path fill="#6D6E70" d="M200.214,44.083c-0.929,0-1.59-0.767-1.59-2.011c0-0.413,0.131-1.788,0.857-2.891
			c0.65-0.979,1.572-1.466,2.32-1.466c0.768,0,1.619,0.523,1.619,1.927c0,0.678-0.258,2.151-1.188,3.312
			C201.779,43.525,201.005,44.083,200.214,44.083 M204.259,40.013c0-1.516-1-2.536-2.403-2.536c-2.038,0-4.105,2.137-4.105,4.337
			c0,1.558,1.056,2.515,2.41,2.515C202.156,44.329,204.259,42.262,204.259,40.013z"/>
		<path fill="#6D6E70" d="M206.646,41.353c0-0.175-0.015-0.182-0.193-0.182c-0.422,0.412-1.021,0.418-1.286,0.418v0.239
			c0.152,0,0.586,0,0.949-0.182v3.352c0,0.216,0,0.3-0.656,0.3h-0.251v0.238c0.118-0.007,0.931-0.029,1.174-0.029
			c0.202,0,1.026,0.022,1.172,0.029v-0.238h-0.25c-0.658,0-0.658-0.084-0.658-0.3V41.353"/>
		<path fill="#6D6E70" d="M209.59,45.432c0,0.364-0.071,0.783-0.52,1.201c-0.027,0.028-0.041,0.048-0.041,0.077
			c0,0.048,0.048,0.091,0.091,0.091c0.089,0,0.651-0.524,0.651-1.306c0-0.405-0.162-0.712-0.462-0.712
			c-0.218,0-0.378,0.168-0.378,0.37c0,0.209,0.153,0.384,0.385,0.384C209.476,45.537,209.581,45.432,209.59,45.432"/>
		<path fill="#6D6E70" d="M212.632,41.353c0-0.175-0.014-0.182-0.201-0.182c-0.421,0.412-1.02,0.418-1.285,0.418v0.239
			c0.153,0,0.593,0,0.95-0.182v3.352c0,0.216,0,0.3-0.658,0.3h-0.251v0.238c0.119-0.007,0.931-0.029,1.174-0.029
			c0.203,0,1.033,0.022,1.172,0.029v-0.238h-0.243c-0.657,0-0.657-0.084-0.657-0.3V41.353"/>
	</g>
	<g>
		<path fill="#6D6E70" d="M200.106,91.571c-0.93,0-1.592-0.762-1.592-2.006c0-0.418,0.132-1.787,0.857-2.891
			c0.65-0.984,1.573-1.473,2.32-1.473c0.768,0,1.62,0.529,1.62,1.934c0,0.678-0.259,2.145-1.188,3.305
			C201.671,91.012,200.896,91.571,200.106,91.571 M204.15,87.499c0-1.515-0.999-2.527-2.402-2.527c-2.039,0-4.107,2.137-4.107,4.33
			c0,1.564,1.056,2.514,2.411,2.514C202.049,91.815,204.15,89.754,204.15,87.499z"/>
		<path fill="#6D6E70" d="M206.539,88.846c0-0.182-0.014-0.188-0.195-0.188c-0.419,0.418-1.021,0.426-1.284,0.426v0.23
			c0.152,0,0.587,0,0.949-0.182v3.352c0,0.217,0,0.301-0.658,0.301H205.1v0.238c0.118-0.008,0.931-0.021,1.174-0.021
			c0.203,0,1.028,0.014,1.172,0.021v-0.238h-0.249c-0.657,0-0.657-0.084-0.657-0.301V88.846"/>
		<path fill="#6D6E70" d="M209.48,92.919c0,0.362-0.071,0.78-0.519,1.2c-0.027,0.028-0.041,0.049-0.041,0.084
			c0,0.041,0.047,0.091,0.09,0.091c0.091,0,0.651-0.524,0.651-1.306c0-0.412-0.16-0.72-0.461-0.72c-0.219,0-0.379,0.168-0.379,0.378
			c0,0.208,0.154,0.377,0.385,0.377C209.368,93.024,209.473,92.919,209.48,92.919"/>
		<path fill="#6D6E70" d="M213.642,91.83h-0.222c-0.022,0.146-0.092,0.53-0.176,0.6c-0.049,0.036-0.56,0.036-0.65,0.036h-1.207
			c0.689-0.608,0.914-0.797,1.312-1.104c0.488-0.384,0.943-0.796,0.943-1.418c0-0.796-0.698-1.284-1.544-1.284
			c-0.81,0-1.362,0.572-1.362,1.179c0,0.336,0.28,0.371,0.342,0.371c0.162,0,0.35-0.118,0.35-0.349c0-0.119-0.04-0.35-0.384-0.35
			c0.202-0.469,0.649-0.615,0.957-0.615c0.657,0,0.999,0.518,0.999,1.048c0,0.573-0.405,1.027-0.615,1.265l-1.584,1.564
			c-0.071,0.056-0.071,0.07-0.071,0.252h2.71L213.642,91.83"/>
	</g>
	<g>
		<path fill="#6D6E70" d="M200.106,115.911c-0.93,0-1.592-0.76-1.592-2.004c0-0.418,0.132-1.788,0.857-2.893
			c0.65-0.983,1.573-1.473,2.32-1.473c0.768,0,1.62,0.53,1.62,1.935c0,0.678-0.259,2.145-1.188,3.304
			C201.671,115.353,200.896,115.911,200.106,115.911 M204.15,111.84c0-1.515-0.999-2.53-2.402-2.53
			c-2.039,0-4.107,2.138-4.107,4.333c0,1.562,1.056,2.513,2.411,2.513C202.049,116.156,204.15,114.096,204.15,111.84z"/>
		<path fill="#6D6E70" d="M206.539,113.185c0-0.18-0.014-0.187-0.195-0.187c-0.419,0.42-1.021,0.426-1.284,0.426v0.23
			c0.152,0,0.587,0,0.949-0.181v3.352c0,0.216,0,0.301-0.658,0.301H205.1v0.238c0.118-0.007,0.931-0.021,1.174-0.021
			c0.203,0,1.028,0.015,1.172,0.021v-0.238h-0.249c-0.657,0-0.657-0.085-0.657-0.301V113.185"/>
		<path fill="#6D6E70" d="M209.48,117.259c0,0.363-0.071,0.781-0.519,1.2c-0.027,0.029-0.041,0.05-0.041,0.085
			c0,0.042,0.047,0.09,0.09,0.09c0.091,0,0.651-0.523,0.651-1.305c0-0.412-0.16-0.719-0.461-0.719c-0.219,0-0.379,0.167-0.379,0.376
			s0.154,0.378,0.385,0.378C209.368,117.365,209.473,117.259,209.48,117.259"/>
		<path fill="#6D6E70" d="M213.642,116.171h-0.222c-0.022,0.145-0.092,0.529-0.176,0.598c-0.049,0.037-0.56,0.037-0.65,0.037h-1.207
			c0.689-0.61,0.914-0.797,1.312-1.104c0.488-0.385,0.943-0.797,0.943-1.419c0-0.794-0.698-1.284-1.544-1.284
			c-0.81,0-1.362,0.573-1.362,1.18c0,0.336,0.28,0.372,0.342,0.372c0.162,0,0.35-0.12,0.35-0.35c0-0.118-0.04-0.351-0.384-0.351
			c0.202-0.468,0.649-0.613,0.957-0.613c0.657,0,0.999,0.517,0.999,1.046c0,0.572-0.405,1.027-0.615,1.265l-1.584,1.564
			c-0.071,0.057-0.071,0.071-0.071,0.253h2.71L213.642,116.171"/>
	</g>
	<g>
		<path fill="#6D6E70" d="M344.353,20.607c-0.93,0-1.593-0.769-1.593-2.011c0-0.413,0.132-1.788,0.859-2.891
			c0.649-0.979,1.572-1.467,2.319-1.467c0.768,0,1.62,0.523,1.62,1.927c0,0.677-0.259,2.151-1.188,3.31
			C345.917,20.048,345.142,20.607,344.353,20.607 M348.396,16.535c0-1.515-1-2.535-2.402-2.535c-2.038,0-4.108,2.137-4.108,4.337
			c0,1.557,1.057,2.513,2.411,2.513C346.295,20.851,348.396,18.784,348.396,16.535z"/>
		<path fill="#6D6E70" d="M351.901,20.859h-0.222c-0.021,0.146-0.085,0.537-0.169,0.6c-0.055,0.042-0.56,0.042-0.649,0.042h-1.216
			c0.691-0.614,0.922-0.795,1.32-1.103c0.482-0.392,0.936-0.796,0.936-1.425c0-0.797-0.697-1.278-1.537-1.278
			c-0.815,0-1.368,0.573-1.368,1.173c0,0.335,0.287,0.37,0.35,0.37c0.16,0,0.351-0.111,0.351-0.349c0-0.118-0.051-0.35-0.391-0.35
			c0.209-0.468,0.654-0.607,0.962-0.607c0.656,0,1,0.51,1,1.04c0,0.573-0.406,1.027-0.622,1.264l-1.579,1.565
			c-0.07,0.063-0.07,0.069-0.07,0.259h2.711L351.901,20.859"/>
		<path fill="#6D6E70" d="M353.726,21.955c0,0.355-0.071,0.781-0.517,1.201c-0.028,0.027-0.043,0.042-0.043,0.077
			c0,0.049,0.048,0.091,0.091,0.091c0.092,0,0.65-0.523,0.65-1.305c0-0.405-0.16-0.721-0.461-0.721
			c-0.218,0-0.379,0.175-0.379,0.377c0,0.211,0.155,0.385,0.385,0.385C353.614,22.06,353.719,21.955,353.726,21.955"/>
		<path fill="#6D6E70" d="M356.77,17.876c0-0.174-0.014-0.181-0.202-0.181c-0.419,0.412-1.02,0.418-1.283,0.418v0.238
			c0.153,0,0.593,0,0.947-0.182v3.353c0,0.217,0,0.301-0.655,0.301h-0.253v0.237c0.12-0.007,0.93-0.028,1.175-0.028
			c0.203,0,1.034,0.021,1.173,0.028v-0.237h-0.244c-0.657,0-0.657-0.084-0.657-0.301V17.876"/>
	</g>
	<g>
		<path fill="#6D6E70" d="M344.312,92.936c-0.929,0-1.591-0.76-1.591-2.004c0-0.419,0.131-1.795,0.858-2.891
			c0.65-0.984,1.572-1.474,2.32-1.474c0.768,0,1.619,0.529,1.619,1.935c0,0.678-0.258,2.144-1.188,3.303
			C345.878,92.378,345.104,92.936,344.312,92.936 M348.357,88.866c0-1.516-1-2.528-2.403-2.528c-2.038,0-4.106,2.136-4.106,4.33
			c0,1.563,1.057,2.514,2.411,2.514C346.254,93.181,348.357,91.121,348.357,88.866z"/>
		<path fill="#6D6E70" d="M351.863,93.196h-0.222c-0.022,0.146-0.086,0.529-0.17,0.6c-0.055,0.035-0.56,0.035-0.648,0.035h-1.216
			c0.69-0.607,0.923-0.797,1.32-1.103c0.481-0.384,0.936-0.796,0.936-1.419c0-0.796-0.698-1.285-1.536-1.285
			c-0.817,0-1.37,0.573-1.37,1.18c0,0.336,0.286,0.365,0.351,0.365c0.16,0,0.35-0.113,0.35-0.344c0-0.117-0.05-0.349-0.393-0.349
			c0.211-0.468,0.657-0.614,0.965-0.614c0.654,0,0.999,0.516,0.999,1.047c0,0.573-0.405,1.027-0.623,1.266l-1.578,1.557
			c-0.07,0.062-0.07,0.077-0.07,0.258h2.711L351.863,93.196"/>
		<path fill="#6D6E70" d="M353.688,94.286c0,0.362-0.071,0.781-0.519,1.201c-0.027,0.026-0.042,0.049-0.042,0.082
			c0,0.043,0.049,0.092,0.092,0.092c0.089,0,0.65-0.524,0.65-1.306c0-0.412-0.161-0.72-0.462-0.72c-0.217,0-0.377,0.167-0.377,0.377
			c0,0.209,0.152,0.377,0.385,0.377C353.574,94.389,353.68,94.286,353.688,94.286"/>
		<path fill="#6D6E70" d="M357.85,93.196h-0.224c-0.021,0.146-0.092,0.529-0.176,0.6c-0.049,0.035-0.56,0.035-0.648,0.035h-1.209
			c0.691-0.607,0.916-0.797,1.312-1.103c0.489-0.384,0.944-0.796,0.944-1.419c0-0.796-0.698-1.285-1.546-1.285
			c-0.809,0-1.36,0.573-1.36,1.18c0,0.336,0.277,0.365,0.342,0.365c0.16,0,0.35-0.113,0.35-0.344c0-0.117-0.042-0.349-0.385-0.349
			c0.202-0.468,0.649-0.614,0.958-0.614c0.654,0,0.998,0.516,0.998,1.047c0,0.573-0.404,1.027-0.615,1.266l-1.585,1.557
			c-0.068,0.062-0.068,0.077-0.068,0.258h2.708L357.85,93.196"/>
	</g>
</g>
<g>
	<path fill="#6D6E70" d="M151.876,15.438c0.236-0.41,0.459-0.75,1.049-0.798c0.083-0.008,0.182-0.008,0.182-0.188
		c0-0.035-0.043-0.098-0.111-0.098c-0.229,0-0.487,0.028-0.723,0.028c-0.32,0-0.667-0.028-0.973-0.028c-0.062,0-0.181,0-0.181,0.174
		c0,0.104,0.084,0.112,0.139,0.112c0.23,0.014,0.556,0.089,0.556,0.369c0,0.102-0.048,0.178-0.125,0.312l-2.529,4.411l-0.347-4.647
		c-0.007-0.188-0.027-0.431,0.659-0.445c0.153,0,0.251,0,0.251-0.188c0-0.089-0.103-0.098-0.139-0.098
		c-0.376,0-0.771,0.028-1.147,0.028c-0.215,0-0.764-0.028-0.978-0.028c-0.064,0-0.182,0-0.182,0.188
		c0,0.098,0.091,0.098,0.222,0.098c0.416,0,0.48,0.062,0.501,0.235l0.054,0.723l-2.367,4.134l-0.363-4.751
		c0-0.11,0-0.326,0.717-0.335c0.089,0,0.192,0,0.192-0.187c0-0.104-0.11-0.104-0.13-0.104c-0.376,0-0.766,0.028-1.154,0.028
		c-0.326,0-0.661-0.028-0.98-0.028c-0.049,0-0.166,0-0.166,0.174c0,0.118,0.083,0.118,0.228,0.118c0.472,0,0.479,0.084,0.5,0.34
		l0.417,5.732c0.014,0.167,0.02,0.244,0.153,0.244c0.11,0,0.139-0.064,0.221-0.201l2.758-4.78l0.349,4.73
		c0.02,0.201,0.034,0.251,0.145,0.251c0.125,0,0.181-0.099,0.229-0.182L151.876,15.438"/>
	<path fill="#6D6E70" d="M154.323,17.974c0-0.173-0.015-0.181-0.196-0.181c-0.424,0.411-1.014,0.416-1.284,0.416v0.237
		c0.159,0,0.589,0,0.951-0.18V21.6c0,0.215,0,0.299-0.659,0.299h-0.244v0.236c0.118-0.008,0.916-0.028,1.159-0.028
		c0.202,0,1.029,0.02,1.174,0.028v-0.236h-0.25c-0.652,0-0.652-0.084-0.652-0.299V17.974"/>
	<path fill="#6D6E70" d="M157.24,22.031c0,0.361-0.062,0.778-0.508,1.194c-0.028,0.027-0.048,0.049-0.048,0.077
		c0,0.048,0.055,0.098,0.091,0.098c0.096,0,0.652-0.529,0.652-1.307c0-0.402-0.158-0.709-0.458-0.709
		c-0.217,0-0.375,0.167-0.375,0.369c0,0.21,0.153,0.383,0.382,0.383C157.129,22.136,157.233,22.031,157.24,22.031"/>
	<path fill="#6D6E70" d="M160.269,17.974c0-0.173-0.014-0.181-0.194-0.181c-0.417,0.411-1.015,0.416-1.286,0.416v0.237
		c0.161,0,0.591,0,0.951-0.18V21.6c0,0.215,0,0.299-0.652,0.299h-0.251v0.236c0.118-0.008,0.924-0.028,1.167-0.028
		c0.202,0,1.022,0.02,1.168,0.028v-0.236h-0.25c-0.653,0-0.653-0.084-0.653-0.299V17.974"/>
</g>
<g>
	<path fill="#6D6E70" d="M151.349,45.276c0.236-0.417,0.459-0.75,1.049-0.799c0.083-0.007,0.182-0.007,0.182-0.188
		c0-0.035-0.043-0.104-0.111-0.104c-0.229,0-0.487,0.027-0.723,0.027c-0.32,0-0.667-0.027-0.972-0.027c-0.062,0-0.182,0-0.182,0.181
		c0,0.104,0.084,0.111,0.139,0.111c0.23,0.013,0.556,0.083,0.556,0.368c0,0.104-0.048,0.173-0.125,0.307l-2.529,4.418l-0.347-4.648
		c-0.007-0.188-0.027-0.431,0.659-0.444c0.153,0,0.251,0,0.251-0.188c0-0.09-0.103-0.104-0.139-0.104
		c-0.376,0-0.771,0.027-1.147,0.027c-0.215,0-0.764-0.027-0.978-0.027c-0.064,0-0.182,0-0.182,0.188
		c0,0.104,0.091,0.104,0.222,0.104c0.416,0,0.48,0.055,0.501,0.236l0.054,0.722l-2.367,4.134l-0.363-4.752
		c0-0.111,0-0.327,0.717-0.34c0.089,0,0.193,0,0.193-0.188c0-0.104-0.111-0.104-0.13-0.104c-0.376,0-0.766,0.027-1.154,0.027
		c-0.326,0-0.661-0.027-0.979-0.027c-0.05,0-0.166,0-0.166,0.181c0,0.111,0.083,0.111,0.228,0.111c0.472,0,0.479,0.083,0.5,0.347
		l0.417,5.725c0.014,0.173,0.02,0.244,0.153,0.244c0.11,0,0.139-0.057,0.221-0.196l2.758-4.78l0.349,4.731
		c0.02,0.201,0.035,0.244,0.145,0.244c0.125,0,0.181-0.091,0.229-0.175L151.349,45.276"/>
	<path fill="#6D6E70" d="M153.796,47.838c0-0.18-0.015-0.187-0.196-0.187c-0.424,0.417-1.013,0.424-1.284,0.424v0.237
		c0.159,0,0.589,0,0.951-0.188v3.334c0,0.215,0,0.306-0.659,0.306h-0.244v0.23c0.118-0.008,0.916-0.023,1.159-0.023
		c0.202,0,1.029,0.015,1.174,0.023v-0.23h-0.25c-0.652,0-0.652-0.091-0.652-0.306V47.838"/>
	<path fill="#6D6E70" d="M156.712,51.889c0,0.36-0.062,0.777-0.507,1.202c-0.028,0.02-0.048,0.042-0.048,0.077
		c0,0.042,0.055,0.089,0.091,0.089c0.096,0,0.652-0.52,0.652-1.3c0-0.409-0.158-0.714-0.458-0.714c-0.217,0-0.375,0.173-0.375,0.374
		c0,0.21,0.153,0.377,0.382,0.377C156.602,51.995,156.706,51.889,156.712,51.889"/>
	<path fill="#6D6E70" d="M160.853,50.805h-0.222c-0.021,0.146-0.084,0.529-0.167,0.597c-0.055,0.036-0.556,0.036-0.652,0.036h-1.202
		c0.687-0.605,0.917-0.784,1.312-1.098c0.479-0.382,0.931-0.792,0.931-1.41c0-0.792-0.694-1.278-1.529-1.278
		c-0.811,0-1.361,0.57-1.361,1.174c0,0.334,0.285,0.368,0.348,0.368c0.16,0,0.347-0.11,0.347-0.347c0-0.118-0.048-0.347-0.388-0.347
		c0.207-0.465,0.646-0.611,0.958-0.611c0.652,0,0.994,0.514,0.994,1.042c0,0.57-0.41,1.021-0.619,1.258l-1.577,1.556
		c-0.062,0.056-0.062,0.069-0.062,0.251h2.696L160.853,50.805"/>
</g>
<g>
	<path fill="#6D6E70" d="M151.567,82.124c0.237-0.409,0.46-0.75,1.049-0.792c0.083-0.014,0.181-0.014,0.181-0.188
		c0-0.042-0.042-0.104-0.11-0.104c-0.23,0-0.488,0.027-0.723,0.027c-0.321,0-0.668-0.027-0.973-0.027c-0.062,0-0.181,0-0.181,0.173
		c0,0.104,0.083,0.118,0.139,0.118c0.229,0.006,0.556,0.083,0.556,0.361c0,0.104-0.048,0.181-0.125,0.312l-2.528,4.412l-0.348-4.648
		c-0.007-0.188-0.026-0.431,0.659-0.438c0.153,0,0.251,0,0.251-0.188c0-0.097-0.104-0.104-0.139-0.104
		c-0.376,0-0.771,0.027-1.147,0.027c-0.215,0-0.764-0.027-0.978-0.027c-0.064,0-0.181,0-0.181,0.187
		c0,0.104,0.091,0.104,0.221,0.104c0.417,0,0.481,0.055,0.502,0.229l0.054,0.723l-2.367,4.134l-0.363-4.752
		c0-0.111,0-0.327,0.716-0.333c0.09,0,0.193,0,0.193-0.188c0-0.104-0.11-0.104-0.13-0.104c-0.375,0-0.765,0.027-1.154,0.027
		c-0.325,0-0.66-0.027-0.979-0.027c-0.049,0-0.166,0-0.166,0.18c0,0.111,0.082,0.111,0.228,0.111c0.472,0,0.479,0.083,0.501,0.347
		l0.416,5.724c0.014,0.166,0.021,0.243,0.153,0.243c0.11,0,0.139-0.056,0.222-0.201l2.758-4.772l0.349,4.73
		c0.02,0.195,0.034,0.243,0.144,0.243c0.125,0,0.182-0.097,0.23-0.18L151.567,82.124"/>
	<path fill="#6D6E70" d="M154.014,84.687c0-0.173-0.014-0.181-0.195-0.181c-0.424,0.41-1.014,0.417-1.285,0.417v0.236
		c0.159,0,0.59,0,0.952-0.181v3.334c0,0.215,0,0.3-0.659,0.3h-0.244v0.235c0.117-0.008,0.916-0.027,1.16-0.027
		c0.201,0,1.029,0.02,1.173,0.027v-0.235h-0.25c-0.652,0-0.652-0.085-0.652-0.3V84.687"/>
	<path fill="#6D6E70" d="M156.931,88.745c0,0.361-0.062,0.777-0.508,1.195c-0.028,0.027-0.048,0.048-0.048,0.076
		c0,0.048,0.055,0.097,0.091,0.097c0.096,0,0.652-0.527,0.652-1.308c0-0.402-0.159-0.707-0.458-0.707
		c-0.217,0-0.376,0.166-0.376,0.367c0,0.21,0.153,0.383,0.383,0.383C156.82,88.848,156.924,88.745,156.931,88.745"/>
	<path fill="#6D6E70" d="M159.556,86.66c0.508,0,0.876,0.354,0.876,1.056c0,0.812-0.472,1.057-0.854,1.057
		c-0.256,0-0.833-0.076-1.111-0.459c0.313-0.014,0.381-0.229,0.381-0.367c0-0.209-0.153-0.362-0.36-0.362
		c-0.181,0-0.361,0.112-0.361,0.384c0,0.609,0.673,1.014,1.465,1.014c0.91,0,1.542-0.611,1.542-1.266
		c0-0.506-0.424-1.021-1.14-1.166c0.688-0.25,0.931-0.743,0.931-1.14c0-0.521-0.59-0.903-1.32-0.903
		c-0.723,0-1.278,0.354-1.278,0.875c0,0.224,0.146,0.349,0.34,0.349c0.201,0,0.333-0.153,0.333-0.335
		c0-0.187-0.132-0.326-0.333-0.34c0.229-0.291,0.682-0.361,0.917-0.361c0.299,0,0.709,0.146,0.709,0.716
		c0,0.272-0.091,0.577-0.264,0.778c-0.216,0.25-0.397,0.256-0.723,0.277c-0.161,0.015-0.173,0.015-0.208,0.021
		c-0.015,0-0.062,0.014-0.062,0.082c0,0.091,0.055,0.091,0.166,0.091H159.556"/>
</g>
<g>
	<path fill="#6D6E70" d="M151.519,109.152c0.237-0.417,0.459-0.751,1.048-0.799c0.084-0.006,0.182-0.006,0.182-0.188
		c0-0.035-0.043-0.104-0.111-0.104c-0.229,0-0.487,0.028-0.723,0.028c-0.32,0-0.667-0.028-0.972-0.028c-0.062,0-0.181,0-0.181,0.181
		c0,0.105,0.083,0.111,0.139,0.111c0.229,0.007,0.556,0.083,0.556,0.368c0,0.104-0.048,0.172-0.125,0.307l-2.529,4.418l-0.347-4.648
		c-0.007-0.187-0.027-0.438,0.659-0.444c0.153,0,0.25,0,0.25-0.188c0-0.091-0.104-0.104-0.139-0.104
		c-0.375,0-0.771,0.028-1.146,0.028c-0.215,0-0.764-0.028-0.978-0.028c-0.063,0-0.181,0-0.181,0.188
		c0,0.104,0.091,0.104,0.221,0.104c0.417,0,0.48,0.056,0.502,0.236l0.054,0.721l-2.367,4.136l-0.363-4.753
		c0-0.11,0-0.326,0.717-0.34c0.09,0,0.193,0,0.193-0.188c0-0.104-0.11-0.104-0.13-0.104c-0.375,0-0.766,0.028-1.154,0.028
		c-0.326,0-0.661-0.028-0.979-0.028c-0.05,0-0.166,0-0.166,0.181c0,0.111,0.082,0.111,0.228,0.111c0.472,0,0.479,0.083,0.5,0.348
		l0.417,5.724c0.014,0.166,0.02,0.243,0.153,0.243c0.111,0,0.139-0.056,0.222-0.194l2.758-4.779l0.349,4.73
		c0.02,0.194,0.034,0.243,0.145,0.243c0.125,0,0.182-0.091,0.229-0.173L151.519,109.152"/>
	<path fill="#6D6E70" d="M153.965,111.715c0-0.181-0.014-0.188-0.195-0.188c-0.424,0.417-1.014,0.424-1.284,0.424v0.228
		c0.158,0,0.589,0,0.951-0.181v3.337c0,0.214,0,0.299-0.659,0.299h-0.244v0.235c0.118-0.006,0.916-0.021,1.16-0.021
		c0.202,0,1.029,0.015,1.174,0.021v-0.235h-0.25c-0.652,0-0.652-0.085-0.652-0.299V111.715"/>
	<path fill="#6D6E70" d="M156.882,115.764c0,0.363-0.062,0.78-0.507,1.197c-0.029,0.025-0.048,0.047-0.048,0.082
		c0,0.042,0.055,0.09,0.091,0.09c0.096,0,0.652-0.521,0.652-1.298c0-0.411-0.159-0.717-0.458-0.717
		c-0.217,0-0.375,0.167-0.375,0.377c0,0.206,0.153,0.374,0.382,0.374C156.772,115.87,156.875,115.764,156.882,115.764"/>
	<path fill="#6D6E70" d="M159.946,112.173v2.389h-1.729L159.946,112.173 M161.183,114.8v-0.238h-0.73v-2.916
		c0-0.139,0-0.182-0.146-0.182c-0.077,0-0.104,0-0.167,0.092l-2.167,3.006v0.238h1.925v0.535c0,0.222,0,0.299-0.529,0.299h-0.173
		v0.235c0.326-0.015,0.743-0.021,0.979-0.021c0.243,0,0.659,0.006,0.987,0.021v-0.235h-0.18c-0.529,0-0.529-0.077-0.529-0.299V114.8
		H161.183z"/>
</g>
<g>
	<path fill="#6D6E70" d="M265.233,15.438c0.236-0.41,0.459-0.75,1.049-0.793c0.083-0.014,0.181-0.014,0.181-0.187
		c0-0.041-0.042-0.104-0.11-0.104c-0.229,0-0.487,0.028-0.723,0.028c-0.32,0-0.667-0.028-0.973-0.028c-0.062,0-0.182,0-0.182,0.174
		c0,0.104,0.085,0.118,0.139,0.118c0.229,0.007,0.557,0.084,0.557,0.362c0,0.105-0.049,0.18-0.125,0.313l-2.528,4.411l-0.349-4.648
		c-0.007-0.188-0.025-0.431,0.659-0.438c0.153,0,0.252,0,0.252-0.187c0-0.097-0.104-0.104-0.139-0.104
		c-0.377,0-0.772,0.028-1.147,0.028c-0.215,0-0.764-0.028-0.978-0.028c-0.063,0-0.182,0-0.182,0.188
		c0,0.103,0.091,0.103,0.221,0.103c0.417,0,0.481,0.056,0.503,0.23l0.053,0.723l-2.366,4.134l-0.363-4.751
		c0-0.112,0-0.328,0.717-0.335c0.089,0,0.192,0,0.192-0.187c0-0.104-0.11-0.104-0.129-0.104c-0.377,0-0.767,0.028-1.155,0.028
		c-0.325,0-0.66-0.028-0.979-0.028c-0.049,0-0.165,0-0.165,0.174c0,0.118,0.082,0.118,0.229,0.118c0.471,0,0.479,0.084,0.5,0.348
		l0.416,5.725c0.015,0.166,0.021,0.242,0.153,0.242c0.11,0,0.14-0.055,0.222-0.201l2.759-4.78l0.348,4.738
		c0.021,0.194,0.034,0.242,0.145,0.242c0.125,0,0.182-0.096,0.229-0.18L265.233,15.438"/>
	<path fill="#6D6E70" d="M268.79,20.975h-0.222c-0.021,0.139-0.084,0.529-0.175,0.591c-0.049,0.041-0.556,0.041-0.646,0.041h-1.202
		c0.688-0.611,0.918-0.792,1.307-1.097c0.485-0.39,0.938-0.792,0.938-1.417c0-0.792-0.694-1.271-1.527-1.271
		c-0.813,0-1.361,0.57-1.361,1.168c0,0.332,0.277,0.367,0.347,0.367c0.153,0,0.347-0.112,0.347-0.347
		c0-0.118-0.049-0.348-0.39-0.348c0.202-0.465,0.646-0.604,0.952-0.604c0.66,0,1.002,0.506,1.002,1.035
		c0,0.57-0.411,1.021-0.618,1.258l-1.578,1.556c-0.062,0.062-0.062,0.069-0.062,0.256h2.693L268.79,20.975"/>
	<path fill="#6D6E70" d="M270.597,22.059c0,0.361-0.062,0.776-0.508,1.193c-0.027,0.029-0.048,0.05-0.048,0.077
		c0,0.05,0.055,0.091,0.091,0.091c0.096,0,0.651-0.52,0.651-1.299c0-0.404-0.157-0.715-0.457-0.715
		c-0.218,0-0.376,0.175-0.376,0.375c0,0.207,0.152,0.381,0.383,0.381C270.486,22.163,270.59,22.059,270.597,22.059"/>
	<path fill="#6D6E70" d="M273.626,18.002c0-0.174-0.015-0.182-0.194-0.182c-0.417,0.41-1.016,0.417-1.286,0.417v0.237
		c0.16,0,0.592,0,0.951-0.182v3.335c0,0.215,0,0.299-0.651,0.299h-0.251v0.235c0.117-0.007,0.924-0.028,1.166-0.028
		c0.201,0,1.021,0.021,1.168,0.028v-0.235h-0.25c-0.652,0-0.652-0.083-0.652-0.299V18.002"/>
</g>
<g>
	<path fill="#6D6E70" d="M265.128,45.07c0.237-0.417,0.459-0.75,1.049-0.799c0.084-0.007,0.182-0.007,0.182-0.187
		c0-0.034-0.043-0.104-0.11-0.104c-0.229,0-0.488,0.028-0.724,0.028c-0.319,0-0.667-0.028-0.972-0.028c-0.062,0-0.182,0-0.182,0.181
		c0,0.103,0.083,0.11,0.139,0.11c0.229,0.007,0.557,0.083,0.557,0.369c0,0.098-0.049,0.174-0.125,0.305l-2.53,4.413l-0.347-4.648
		c-0.007-0.187-0.027-0.431,0.659-0.438c0.153,0,0.251,0,0.251-0.187c0-0.091-0.104-0.104-0.139-0.104
		c-0.376,0-0.771,0.028-1.146,0.028c-0.216,0-0.765-0.028-0.979-0.028c-0.063,0-0.181,0-0.181,0.188
		c0,0.104,0.091,0.104,0.221,0.104c0.417,0,0.48,0.057,0.502,0.237l0.055,0.723l-2.369,4.126l-0.361-4.746
		c0-0.118,0-0.333,0.717-0.34c0.089,0,0.192,0,0.192-0.187c0-0.104-0.11-0.104-0.131-0.104c-0.375,0-0.765,0.028-1.153,0.028
		c-0.326,0-0.66-0.028-0.979-0.028c-0.05,0-0.166,0-0.166,0.181c0,0.11,0.083,0.11,0.229,0.11c0.471,0,0.479,0.083,0.5,0.349
		l0.416,5.724c0.015,0.166,0.021,0.243,0.153,0.243c0.11,0,0.14-0.056,0.222-0.194l2.757-4.78l0.35,4.731
		c0.021,0.194,0.034,0.243,0.145,0.243c0.125,0,0.182-0.089,0.229-0.18L265.128,45.07"/>
	<path fill="#6D6E70" d="M268.687,50.6h-0.224c-0.021,0.146-0.083,0.527-0.174,0.598c-0.049,0.034-0.556,0.034-0.647,0.034h-1.201
		c0.688-0.604,0.919-0.793,1.308-1.097c0.485-0.383,0.938-0.792,0.938-1.411c0-0.792-0.695-1.278-1.529-1.278
		c-0.813,0-1.362,0.57-1.362,1.174c0,0.333,0.278,0.368,0.349,0.368c0.153,0,0.347-0.118,0.347-0.347c0-0.118-0.05-0.348-0.39-0.348
		c0.2-0.464,0.646-0.61,0.952-0.61c0.66,0,1.001,0.513,1.001,1.042c0,0.57-0.412,1.021-0.618,1.257l-1.577,1.556
		c-0.063,0.055-0.063,0.07-0.063,0.25h2.695L268.687,50.6"/>
	<path fill="#6D6E70" d="M270.491,51.684c0,0.359-0.062,0.776-0.507,1.194c-0.028,0.027-0.048,0.049-0.048,0.083
		c0,0.042,0.055,0.091,0.09,0.091c0.097,0,0.652-0.522,0.652-1.299c0-0.411-0.159-0.716-0.458-0.716
		c-0.217,0-0.376,0.166-0.376,0.374c0,0.208,0.153,0.375,0.383,0.375C270.381,51.787,270.484,51.684,270.491,51.684"/>
	<path fill="#6D6E70" d="M274.633,50.6h-0.224c-0.02,0.146-0.083,0.527-0.167,0.598c-0.055,0.034-0.556,0.034-0.652,0.034h-1.202
		c0.688-0.604,0.917-0.793,1.312-1.097c0.479-0.383,0.933-0.792,0.933-1.411c0-0.792-0.695-1.278-1.53-1.278
		c-0.811,0-1.36,0.57-1.36,1.174c0,0.333,0.285,0.368,0.347,0.368c0.16,0,0.348-0.118,0.348-0.347c0-0.118-0.049-0.348-0.389-0.348
		c0.207-0.464,0.646-0.61,0.959-0.61c0.652,0,0.993,0.513,0.993,1.042c0,0.57-0.41,1.021-0.619,1.257l-1.576,1.556
		c-0.062,0.055-0.062,0.07-0.062,0.25h2.695L274.633,50.6"/>
</g>
<g>
	<path fill="#6D6E70" d="M264.405,81.815c0.236-0.41,0.459-0.75,1.049-0.792c0.083-0.014,0.181-0.014,0.181-0.187
		c0-0.041-0.041-0.105-0.11-0.105c-0.229,0-0.487,0.028-0.722,0.028c-0.321,0-0.668-0.028-0.973-0.028c-0.063,0-0.183,0-0.183,0.174
		c0,0.104,0.085,0.118,0.14,0.118c0.229,0.007,0.556,0.084,0.556,0.361c0,0.105-0.049,0.182-0.125,0.312l-2.528,4.412l-0.348-4.648
		c-0.008-0.187-0.026-0.43,0.659-0.438c0.153,0,0.252,0,0.252-0.187c0-0.098-0.105-0.105-0.14-0.105
		c-0.376,0-0.771,0.028-1.147,0.028c-0.215,0-0.764-0.028-0.977-0.028c-0.064,0-0.183,0-0.183,0.189
		c0,0.103,0.091,0.103,0.222,0.103c0.417,0,0.48,0.055,0.502,0.229l0.054,0.723l-2.367,4.133l-0.363-4.752
		c0-0.11,0-0.326,0.717-0.333c0.09,0,0.192,0,0.192-0.187c0-0.105-0.11-0.105-0.129-0.105c-0.377,0-0.766,0.028-1.154,0.028
		c-0.325,0-0.66-0.028-0.98-0.028c-0.048,0-0.165,0-0.165,0.174c0,0.118,0.082,0.118,0.229,0.118c0.472,0,0.479,0.084,0.5,0.34
		l0.417,5.732c0.014,0.165,0.02,0.242,0.153,0.242c0.11,0,0.139-0.056,0.221-0.201l2.759-4.78l0.348,4.739
		c0.021,0.194,0.035,0.242,0.146,0.242c0.124,0,0.182-0.097,0.229-0.181L264.405,81.815"/>
	<path fill="#6D6E70" d="M267.963,87.344h-0.223c-0.021,0.146-0.084,0.535-0.174,0.598c-0.049,0.041-0.556,0.041-0.646,0.041h-1.202
		c0.689-0.609,0.918-0.791,1.307-1.096c0.486-0.391,0.938-0.793,0.938-1.418c0-0.793-0.695-1.271-1.527-1.271
		c-0.813,0-1.362,0.569-1.362,1.166c0,0.334,0.277,0.369,0.347,0.369c0.153,0,0.347-0.11,0.347-0.348
		c0-0.117-0.049-0.348-0.39-0.348c0.202-0.465,0.646-0.604,0.953-0.604c0.66,0,1.001,0.506,1.001,1.035
		c0,0.569-0.411,1.02-0.618,1.257l-1.578,1.557c-0.062,0.062-0.062,0.069-0.062,0.257h2.693L267.963,87.344"/>
	<path fill="#6D6E70" d="M269.77,88.436c0,0.353-0.063,0.776-0.509,1.193c-0.027,0.027-0.048,0.042-0.048,0.076
		c0,0.05,0.055,0.091,0.091,0.091c0.096,0,0.652-0.521,0.652-1.298c0-0.404-0.158-0.717-0.458-0.717
		c-0.217,0-0.376,0.174-0.376,0.376c0,0.208,0.153,0.382,0.384,0.382C269.659,88.54,269.762,88.436,269.77,88.436"/>
	<path fill="#6D6E70" d="M272.394,86.35c0.508,0,0.877,0.355,0.877,1.057c0,0.813-0.473,1.049-0.855,1.049
		c-0.256,0-0.834-0.069-1.111-0.451c0.313-0.014,0.381-0.229,0.381-0.368c0-0.208-0.153-0.361-0.359-0.361
		c-0.182,0-0.361,0.11-0.361,0.382c0,0.611,0.674,1.014,1.466,1.014c0.909,0,1.541-0.61,1.541-1.264
		c0-0.515-0.423-1.021-1.139-1.174c0.688-0.242,0.932-0.735,0.932-1.133c0-0.521-0.591-0.902-1.32-0.902
		c-0.723,0-1.278,0.354-1.278,0.876c0,0.223,0.146,0.347,0.341,0.347c0.2,0,0.332-0.152,0.332-0.334
		c0-0.194-0.132-0.326-0.332-0.341c0.229-0.292,0.682-0.361,0.917-0.361c0.299,0,0.709,0.146,0.709,0.715
		c0,0.271-0.092,0.57-0.264,0.779c-0.217,0.243-0.398,0.256-0.724,0.277c-0.16,0.014-0.174,0.014-0.208,0.021
		c-0.014,0-0.062,0.014-0.062,0.083c0,0.089,0.056,0.089,0.166,0.089H272.394"/>
</g>
<line fill="none" x1="325.711" y1="139.957" x2="326.68" y2="140.924"/>
<g>
	<path fill="#6D6E70" d="M264.405,109.401c0.236-0.417,0.459-0.751,1.049-0.801c0.083-0.008,0.181-0.008,0.181-0.187
		c0-0.036-0.041-0.104-0.11-0.104c-0.229,0-0.487,0.027-0.722,0.027c-0.321,0-0.668-0.027-0.973-0.027c-0.063,0-0.183,0-0.183,0.181
		c0,0.103,0.085,0.11,0.14,0.11c0.229,0.007,0.556,0.084,0.556,0.369c0,0.098-0.049,0.175-0.125,0.307l-2.528,4.411l-0.348-4.648
		c-0.008-0.187-0.026-0.432,0.659-0.438c0.153,0,0.252,0,0.252-0.187c0-0.092-0.105-0.104-0.14-0.104
		c-0.376,0-0.771,0.027-1.147,0.027c-0.215,0-0.764-0.027-0.977-0.027c-0.064,0-0.183,0-0.183,0.188
		c0,0.104,0.091,0.104,0.222,0.104c0.417,0,0.48,0.057,0.502,0.237l0.054,0.722l-2.367,4.128l-0.363-4.746
		c0-0.118,0-0.334,0.717-0.341c0.09,0,0.192,0,0.192-0.187c0-0.104-0.11-0.104-0.129-0.104c-0.377,0-0.766,0.027-1.154,0.027
		c-0.325,0-0.66-0.027-0.98-0.027c-0.048,0-0.165,0-0.165,0.181c0,0.11,0.082,0.11,0.229,0.11c0.472,0,0.479,0.084,0.5,0.348
		l0.417,5.725c0.014,0.166,0.02,0.242,0.153,0.242c0.11,0,0.139-0.055,0.221-0.193l2.759-4.78l0.348,4.731
		c0.021,0.195,0.035,0.242,0.146,0.242c0.124,0,0.182-0.09,0.229-0.18L264.405,109.401"/>
	<path fill="#6D6E70" d="M267.963,114.929h-0.223c-0.021,0.146-0.084,0.529-0.174,0.597c-0.049,0.036-0.556,0.036-0.646,0.036
		h-1.202c0.689-0.604,0.918-0.793,1.307-1.098c0.486-0.382,0.938-0.792,0.938-1.411c0-0.792-0.695-1.277-1.527-1.277
		c-0.813,0-1.362,0.57-1.362,1.173c0,0.335,0.277,0.361,0.347,0.361c0.153,0,0.347-0.11,0.347-0.347c0-0.11-0.049-0.34-0.39-0.34
		c0.202-0.466,0.646-0.611,0.953-0.611c0.66,0,1.001,0.513,1.001,1.041c0,0.57-0.411,1.021-0.618,1.251l-1.578,1.556
		c-0.062,0.063-0.062,0.077-0.062,0.258h2.693L267.963,114.929"/>
	<path fill="#6D6E70" d="M269.77,116.013c0,0.362-0.063,0.779-0.509,1.195c-0.027,0.026-0.048,0.048-0.048,0.083
		c0,0.042,0.055,0.09,0.091,0.09c0.096,0,0.652-0.521,0.652-1.298c0-0.41-0.158-0.716-0.458-0.716c-0.217,0-0.376,0.167-0.376,0.375
		s0.153,0.375,0.384,0.375C269.659,116.118,269.762,116.013,269.77,116.013"/>
	<path fill="#6D6E70" d="M272.832,112.415v2.396h-1.729L272.832,112.415 M274.069,115.046v-0.235h-0.73v-2.917
		c0-0.14,0-0.182-0.146-0.182c-0.076,0-0.104,0-0.168,0.091l-2.167,3.008v0.235h1.925v0.534c0,0.225,0,0.3-0.528,0.3h-0.174v0.237
		c0.327-0.014,0.744-0.027,0.98-0.027c0.242,0,0.659,0.014,0.986,0.027v-0.237h-0.18c-0.529,0-0.529-0.075-0.529-0.3v-0.534H274.069
		z"/>
</g>
<g>
</g>
<g>
</g>
<g>
</g>
<g>
</g>
<g>
</g>
<g>
</g>
<g>
</g>
</svg>
