<svg xmlns="http://www.w3.org/2000/svg" xmlns:xlink="http://www.w3.org/1999/xlink" height="113pt" version="1.1" viewBox="0 0 226 113" width="226pt">
 <defs>
  <clipPath id="p88502ce25f">
   <rect height="113.385826772" width="226.771653543" x="0.0" y="0.0"/>
  </clipPath>
 </defs>
<defs>
  <style type="text/css">
*{stroke-linecap:butt;stroke-linejoin:round;stroke-miterlimit:100000;}
  </style>
 </defs>
 <g id="figure_1">
  <g id="patch_1">
   <path d="M 0 113.385827  L 226.771654 113.385827  L 226.771654 0  L 0 0  z " style="fill:#ffffff;"/>
  </g>
  <g id="axes_1">
   <g id="patch_2">
    <path clip-path="url(#p88502ce25f)" d="M 70.616722 47.678758  L 67.086178 47.97923  L 68.212947 46.176399  L 54.107688 37.360612  L 54.107688 37.360612  L 68.212947 46.176399  L 69.339716 44.373568  L 70.616722 47.678758  z " style="fill:none;stroke:#000000;stroke-linejoin:miter;"/>
   </g>
   <g id="patch_3">
    <path clip-path="url(#p88502ce25f)" d="M 99.462018 47.678758  L 100.739024 44.373568  L 101.865793 46.176399  L 115.971052 37.360612  L 115.971052 37.360612  L 101.865793 46.176399  L 102.992563 47.97923  L 99.462018 47.678758  z " style="fill:none;stroke:#000000;stroke-linejoin:miter;"/>
   </g>
   <g id="patch_4">
    <path clip-path="url(#p88502ce25f)" d="M 161.325383 47.678758  L 157.794839 47.97923  L 158.921608 46.176399  L 144.816349 37.360612  L 144.816349 37.360612  L 158.921608 46.176399  L 160.048378 44.373568  L 161.325383 47.678758  z " style="fill:none;stroke:#000000;stroke-linejoin:miter;"/>
   </g>
   <g id="patch_5">
    <path clip-path="url(#p88502ce25f)" d="M 85.03937 73.700787  C 89.549911 73.700787 93.876319 71.908731 97.065753 68.719296  C 100.255187 65.529862 102.047244 61.203454 102.047244 56.692913  C 102.047244 52.182372 100.255187 47.855964 97.065753 44.66653  C 93.876319 41.477096 89.549911 39.685039 85.03937 39.685039  C 80.528829 39.685039 76.202421 41.477096 73.012987 44.66653  C 69.823553 47.855964 68.031496 52.182372 68.031496 56.692913  C 68.031496 61.203454 69.823553 65.529862 73.012987 68.719296  C 76.202421 71.908731 80.528829 73.700787 85.03937 73.700787  L 85.03937 73.700787  z " style="fill:none;stroke:#000000;stroke-linejoin:miter;"/>
   </g>
   <g id="patch_6">
    <path clip-path="url(#p88502ce25f)" d="M 175.748031 73.700787  C 180.258572 73.700787 184.58498 71.908731 187.774415 68.719296  C 190.963849 65.529862 192.755906 61.203454 192.755906 56.692913  C 192.755906 52.182372 190.963849 47.855964 187.774415 44.66653  C 184.58498 41.477096 180.258572 39.685039 175.748031 39.685039  C 171.237491 39.685039 166.911083 41.477096 163.721648 44.66653  C 160.532214 47.855964 158.740157 52.182372 158.740157 56.692913  C 158.740157 61.203454 160.532214 65.529862 163.721648 68.719296  C 166.911083 71.908731 171.237491 73.700787 175.748031 73.700787  L 175.748031 73.700787  z " style="fill:none;stroke:#000000;stroke-linejoin:miter;"/>
   </g>
   <g id="patch_7">
    <path clip-path="url(#p88502ce25f)" d="M 39.685039 45.354331  C 44.19558 45.354331 48.521988 43.562274 51.711422 40.37284  C 54.900856 37.183406 56.692913 32.856998 56.692913 28.346457  C 56.692913 23.835916 54.900856 19.509508 51.711422 16.320074  C 48.521988 13.13064 44.19558 11.338583 39.685039 11.338583  C 35.174498 11.338583 30.84809 13.13064 27.658656 16.320074  C 24.469222 19.509508 22.677165 23.835916 22.677165 28.346457  C 22.677165 32.856998 24.469222 37.183406 27.658656 40.37284  C 30.84809 43.562274 35.174498 45.354331 39.685039 45.354331  L 39.685039 45.354331  z " style="fill:none;stroke:#000000;stroke-linejoin:miter;"/>
   </g>
   <g id="patch_8">
    <path clip-path="url(#p88502ce25f)" d="M 130.393701 45.354331  C 134.904242 45.354331 139.23065 43.562274 142.420084 40.37284  C 145.609518 37.183406 147.401575 32.856998 147.401575 28.346457  C 147.401575 23.835916 145.609518 19.509508 142.420084 16.320074  C 139.23065 13.13064 134.904242 11.338583 130.393701 11.338583  C 125.88316 11.338583 121.556752 13.13064 118.367318 16.320074  C 115.177884 19.509508 113.385827 23.835916 113.385827 28.346457  C 113.385827 32.856998 115.177884 37.183406 118.367318 40.37284  C 121.556752 43.562274 125.88316 45.354331 130.393701 45.354331  L 130.393701 45.354331  z " style="fill:none;stroke:#000000;stroke-linejoin:miter;"/>
   </g>
   <g id="matplotlib.axis_1"/>
   <g id="matplotlib.axis_2"/>
   <g id="text_1">
    <!-- A -->
    <defs>
     <path d="M 34.1875 63.1875  L 20.796875 26.90625  L 47.609375 26.90625  z M 28.609375 72.90625  L 39.796875 72.90625  L 67.578125 0  L 57.328125 0  L 50.6875 18.703125  L 17.828125 18.703125  L 11.1875 0  L 0.78125 0  z " id="BitstreamVeraSans-Roman-41"/>
    </defs>
    <g transform="translate(78.8828075787 61.6597883858)scale(0.18 -0.18)">
     <use xlink:href="#BitstreamVeraSans-Roman-41"/>
    </g>
   </g>
   <g id="text_2">
    <!-- R -->
    <defs>
     <path d="M 44.390625 34.1875  Q 47.5625 33.109375 50.5625 29.59375  Q 53.5625 26.078125 56.59375 19.921875  L 66.609375 0  L 56 0  L 46.6875 18.703125  Q 43.0625 26.03125 39.671875 28.421875  Q 36.28125 30.8125 30.421875 30.8125  L 19.671875 30.8125  L 19.671875 0  L 9.8125 0  L 9.8125 72.90625  L 32.078125 72.90625  Q 44.578125 72.90625 50.734375 67.671875  Q 56.890625 62.453125 56.890625 51.90625  Q 56.890625 45.015625 53.6875 40.46875  Q 50.484375 35.9375 44.390625 34.1875  M 19.671875 64.796875  L 19.671875 38.921875  L 32.078125 38.921875  Q 39.203125 38.921875 42.84375 42.21875  Q 46.484375 45.515625 46.484375 51.90625  Q 46.484375 58.296875 42.84375 61.546875  Q 39.203125 64.796875 32.078125 64.796875  z " id="BitstreamVeraSans-Roman-52"/>
    </defs>
    <g transform="translate(169.494437746 61.6597883858)scale(0.18 -0.18)">
     <use xlink:href="#BitstreamVeraSans-Roman-52"/>
    </g>
   </g>
   <g id="text_3">
    <!-- B -->
    <defs>
     <path d="M 19.671875 34.8125  L 19.671875 8.109375  L 35.5 8.109375  Q 43.453125 8.109375 47.28125 11.40625  Q 51.125 14.703125 51.125 21.484375  Q 51.125 28.328125 47.28125 31.5625  Q 43.453125 34.8125 35.5 34.8125  z M 19.671875 64.796875  L 19.671875 42.828125  L 34.28125 42.828125  Q 41.5 42.828125 45.03125 45.53125  Q 48.578125 48.25 48.578125 53.8125  Q 48.578125 59.328125 45.03125 62.0625  Q 41.5 64.796875 34.28125 64.796875  z M 9.8125 72.90625  L 35.015625 72.90625  Q 46.296875 72.90625 52.390625 68.21875  Q 58.5 63.53125 58.5 54.890625  Q 58.5 48.1875 55.375 44.234375  Q 52.25 40.28125 46.1875 39.3125  Q 53.46875 37.75 57.5 32.78125  Q 61.53125 27.828125 61.53125 20.40625  Q 61.53125 10.640625 54.890625 5.3125  Q 48.25 0 35.984375 0  L 9.8125 0  z " id="BitstreamVeraSans-Roman-42"/>
    </defs>
    <g transform="translate(33.5101956201 33.3133316929)scale(0.18 -0.18)">
     <use xlink:href="#BitstreamVeraSans-Roman-42"/>
    </g>
   </g>
   <g id="text_4">
    <!-- E -->
    <defs>
     <path d="M 9.8125 72.90625  L 55.90625 72.90625  L 55.90625 64.59375  L 19.671875 64.59375  L 19.671875 43.015625  L 54.390625 43.015625  L 54.390625 34.71875  L 19.671875 34.71875  L 19.671875 8.296875  L 56.78125 8.296875  L 56.78125 0  L 9.8125 0  z " id="BitstreamVeraSans-Roman-45"/>
    </defs>
    <g transform="translate(124.706825787 33.3133316929)scale(0.18 -0.18)">
     <use xlink:href="#BitstreamVeraSans-Roman-45"/>
    </g>
   </g>
  </g>
 </g>
 </svg>
