<svg xmlns="http://www.w3.org/2000/svg" xmlns:xlink="http://www.w3.org/1999/xlink" height="113pt" version="1.1" viewBox="0 0 226 113" width="226pt">
 <defs>
  <clipPath id="pc8d6074962">
   <rect height="113.385826772" width="226.771653543" x="0.0" y="0.0"/>
  </clipPath>
 </defs>
<defs>
  <style type="text/css">
*{stroke-linecap:butt;stroke-linejoin:round;stroke-miterlimit:100000;}
  </style>
 </defs>
 <g id="figure_1">
  <g id="patch_1">
   <path d="M 0 113.385827  L 226.771654 113.385827  L 226.771654 0  L 0 0  z " style="fill:#ffffff;"/>
  </g>
  <g id="axes_1">
   <g id="matplotlib.axis_1"/>
   <g id="matplotlib.axis_2"/>
   <g id="patch_2">
    <path clip-path="url(#pc8d6074962)" d="M 70.616722 47.678758  L 67.086178 47.97923  L 68.212947 46.176399  L 54.107688 37.360612  L 54.107688 37.360612  L 68.212947 46.176399  L 69.339716 44.373568  L 70.616722 47.678758  z " style="fill:none;stroke:#000000;stroke-linejoin:miter;"/>
   </g>
   <g id="patch_3">
    <path clip-path="url(#pc8d6074962)" d="M 99.462018 47.678758  L 100.739024 44.373568  L 101.865793 46.176399  L 115.971052 37.360612  L 115.971052 37.360612  L 101.865793 46.176399  L 102.992563 47.97923  L 99.462018 47.678758  z " style="fill:none;stroke:#000000;stroke-linejoin:miter;"/>
   </g>
   <g id="patch_4">
    <path clip-path="url(#pc8d6074962)" d="M 161.325383 47.678758  L 157.794839 47.97923  L 158.921608 46.176399  L 144.816349 37.360612  L 144.816349 37.360612  L 158.921608 46.176399  L 160.048378 44.373568  L 161.325383 47.678758  z " style="fill:none;stroke:#000000;stroke-linejoin:miter;"/>
   </g>
   <g id="patch_5">
    <path clip-path="url(#pc8d6074962)" d="M 39.685039 45.354331  C 44.19558 45.354331 48.521988 43.562274 51.711422 40.37284  C 54.900856 37.183406 56.692913 32.856998 56.692913 28.346457  C 56.692913 23.835916 54.900856 19.509508 51.711422 16.320074  C 48.521988 13.13064 44.19558 11.338583 39.685039 11.338583  C 35.174498 11.338583 30.84809 13.13064 27.658656 16.320074  C 24.469222 19.509508 22.677165 23.835916 22.677165 28.346457  C 22.677165 32.856998 24.469222 37.183406 27.658656 40.37284  C 30.84809 43.562274 35.174498 45.354331 39.685039 45.354331  L 39.685039 45.354331  z " style="fill:none;stroke:#000000;stroke-linejoin:miter;"/>
   </g>
   <g id="patch_6">
    <path clip-path="url(#pc8d6074962)" d="M 85.03937 73.700787  C 89.549911 73.700787 93.876319 71.908731 97.065753 68.719296  C 100.255187 65.529862 102.047244 61.203454 102.047244 56.692913  C 102.047244 52.182372 100.255187 47.855964 97.065753 44.66653  C 93.876319 41.477096 89.549911 39.685039 85.03937 39.685039  C 80.528829 39.685039 76.202421 41.477096 73.012987 44.66653  C 69.823553 47.855964 68.031496 52.182372 68.031496 56.692913  C 68.031496 61.203454 69.823553 65.529862 73.012987 68.719296  C 76.202421 71.908731 80.528829 73.700787 85.03937 73.700787  L 85.03937 73.700787  z " style="fill:none;stroke:#000000;stroke-linejoin:miter;"/>
   </g>
   <g id="patch_7">
    <path clip-path="url(#pc8d6074962)" d="M 175.748031 73.700787  C 180.258572 73.700787 184.58498 71.908731 187.774415 68.719296  C 190.963849 65.529862 192.755906 61.203454 192.755906 56.692913  C 192.755906 52.182372 190.963849 47.855964 187.774415 44.66653  C 184.58498 41.477096 180.258572 39.685039 175.748031 39.685039  C 171.237491 39.685039 166.911083 41.477096 163.721648 44.66653  C 160.532214 47.855964 158.740157 52.182372 158.740157 56.692913  C 158.740157 61.203454 160.532214 65.529862 163.721648 68.719296  C 166.911083 71.908731 171.237491 73.700787 175.748031 73.700787  L 175.748031 73.700787  z " style="fill:none;stroke:#000000;stroke-linejoin:miter;"/>
   </g>
   <g id="patch_8">
    <path clip-path="url(#pc8d6074962)" d="M 130.393701 45.354331  C 134.904242 45.354331 139.23065 43.562274 142.420084 40.37284  C 145.609518 37.183406 147.401575 32.856998 147.401575 28.346457  C 147.401575 23.835916 145.609518 19.509508 142.420084 16.320074  C 139.23065 13.13064 134.904242 11.338583 130.393701 11.338583  C 125.88316 11.338583 121.556752 13.13064 118.367318 16.320074  C 115.177884 19.509508 113.385827 23.835916 113.385827 28.346457  C 113.385827 32.856998 115.177884 37.183406 118.367318 40.37284  C 121.556752 43.562274 125.88316 45.354331 130.393701 45.354331  L 130.393701 45.354331  z " style="fill:none;stroke:#000000;stroke-linejoin:miter;"/>
   </g>
   <g id="text_1">
    <!-- B -->
    <defs>
     <path d="M 38.796875 31.796875  Q 43.703125 30.5 46.796875 26.5  Q 49.90625 22.5 49.90625 17.296875  Q 49.90625 9 44.5 4.5  Q 39.09375 0 29.5 0  L 7.296875 0  L 7.296875 61.40625  L 27.5 61.40625  Q 37.09375 61.40625 42.4375 57.203125  Q 47.796875 53 47.796875 45.09375  Q 47.796875 39.90625 45.25 36.453125  Q 42.703125 33 38.796875 31.796875  M 15 34.703125  L 27.5 34.703125  Q 40.203125 34.703125 40.203125 44.703125  Q 40.203125 54.5 27.5 54.5  L 15 54.5  z M 15 28.09375  L 15 6.90625  L 29.5 6.90625  Q 35.59375 6.90625 38.890625 9.75  Q 42.203125 12.59375 42.203125 17.5  Q 42.203125 22.5 38.890625 25.296875  Q 35.59375 28.09375 29.5 28.09375  z " id="CalibreRegular-42"/>
    </defs>
    <g style="fill:#262626;" transform="translate(34.8433206201 32.6664566929)scale(0.18 -0.18)">
     <use xlink:href="#CalibreRegular-42"/>
    </g>
   </g>
   <g id="text_2">
    <!-- A -->
    <defs>
     <path d="M 26.09375 61.40625  L 33.5 61.40625  L 57.5 0  L 49.5 0  L 42.40625 18.5  L 17.09375 18.5  L 10.09375 0  L 2.09375 0  z M 29.703125 51.59375  L 19.703125 25.40625  L 39.703125 25.40625  z " id="CalibreRegular-41"/>
    </defs>
    <g style="fill:#262626;" transform="translate(79.6759325787 61.0129133858)scale(0.18 -0.18)">
     <use xlink:href="#CalibreRegular-41"/>
    </g>
   </g>
   <g id="text_3">
    <!-- R -->
    <defs>
     <path d="M 26.09375 26  L 15.203125 26  L 15.203125 0  L 7.296875 0  L 7.296875 61.40625  L 30.09375 61.40625  Q 39.5 61.40625 44.84375 56.796875  Q 50.203125 52.203125 50.203125 43.59375  Q 50.203125 36.09375 46.09375 31.6875  Q 42 27.296875 34.59375 26.296875  L 52.703125 0  L 43.703125 0  z M 15.203125 54.5  L 15.203125 32.703125  L 29.90625 32.703125  Q 35.90625 32.703125 39.15625 35.59375  Q 42.40625 38.5 42.40625 43.59375  Q 42.40625 48.703125 39.15625 51.59375  Q 35.90625 54.5 29.90625 54.5  z " id="CalibreRegular-52"/>
    </defs>
    <g style="fill:#262626;" transform="translate(170.779750246 61.0129133858)scale(0.18 -0.18)">
     <use xlink:href="#CalibreRegular-52"/>
    </g>
   </g>
   <g id="text_4">
    <!-- E -->
    <defs>
     <path d="M 7.296875 61.40625  L 46.40625 61.40625  L 46.40625 54.40625  L 15.09375 54.40625  L 15.09375 35  L 43.5 35  L 43.5 28  L 15.09375 28  L 15.09375 7.09375  L 46.40625 7.09375  L 46.40625 0  L 7.296875 0  z " id="CalibreRegular-45"/>
    </defs>
    <g style="fill:#262626;" transform="translate(125.758700787 32.6664566929)scale(0.18 -0.18)">
     <use xlink:href="#CalibreRegular-45"/>
    </g>
   </g>
  </g>
 </g>
 </svg>
