<?xml version="1.0" encoding="utf-8"?>
<!-- Generator: Adobe Illustrator 16.0.0, SVG Export Plug-In . SVG Version: 6.00 Build 0)  -->
<!DOCTYPE svg PUBLIC "-//W3C//DTD SVG 1.1 Tiny//EN" "http://www.w3.org/Graphics/SVG/1.1/DTD/svg11-tiny.dtd">
<svg version="1.1" baseProfile="tiny" id="Layer_1" xmlns="http://www.w3.org/2000/svg" xmlns:xlink="http://www.w3.org/1999/xlink"
	 x="0px" y="0px" width="459.346px" height="301.057px" viewBox="0 0 459.346 301.057" xml:space="preserve">
<line fill="none" stroke="#F9EC31" stroke-miterlimit="10" x1="261.797" y1="51.951" x2="261.797" y2="282.558"/>
<path fill="none" stroke="#212221" stroke-width="0.75" stroke-miterlimit="10" d="M350.703,167.297
	c0,65.856-53.375,119.234-119.252,119.234c-65.835,0-119.248-53.378-119.248-119.234c0-65.834,53.413-119.248,119.248-119.248
	C297.328,48.05,350.703,101.463,350.703,167.297z"/>
<g>
	
		<path fill="none" stroke="#26A9E0" stroke-width="0.75" stroke-linecap="round" stroke-linejoin="round" stroke-dasharray="4,4" d="
		M21.954,217.146c2.251-19.705,9.443-43.013,82.382-43.194"/>
	<g>
		<polygon fill="#26A9E0" points="102.871,175.27 104.117,173.973 102.819,172.728 103.898,172.706 105.196,173.951 
			103.951,175.248 		"/>
	</g>
</g>
<g>
	
		<path fill="none" stroke="#EC1C24" stroke-width="0.75" stroke-linecap="round" stroke-linejoin="round" stroke-dasharray="4,4" d="
		M42.135,166.932c0,0-64.346,0,62.203,0"/>
	<g>
		<polygon fill="#EC1C24" points="102.845,168.204 104.117,166.932 102.845,165.661 103.924,165.661 105.196,166.932 
			103.924,168.204 		"/>
	</g>
</g>
<g>
	
		<path fill="none" stroke="#EC1C24" stroke-width="0.75" stroke-linecap="round" stroke-linejoin="round" stroke-dasharray="4,4" d="
		M341.145,169.278c0,0,53.038,0,94.115,0"/>
	<g>
		<polygon fill="#EC1C24" points="433.766,170.549 435.038,169.278 433.766,168.006 434.845,168.006 436.117,169.278 
			434.845,170.549 		"/>
	</g>
</g>
<g>
	
		<path fill="none" stroke="#EC1C24" stroke-width="0.75" stroke-linecap="round" stroke-linejoin="round" stroke-dasharray="4,4" d="
		M341.145,169.278c29.293,0,77.977,26.688,95.751,57.965"/>
	<g>
		<polygon fill="#EC1C24" points="435.029,226.599 436.768,227.055 437.223,225.316 437.768,226.248 437.313,227.987 
			435.574,227.532 		"/>
	</g>
</g>
<g>
	<path d="M210.415,30.689c-0.259,1.071-0.318,1.294-2.466,1.294c-0.464,0-0.746,0-0.746,0.545c0,0.285,0.242,0.285,0.746,0.285
		h12.62c0.664,0,0.682,0,0.847-0.467l2.144-5.882c0.122-0.304,0.122-0.344,0.122-0.385c0-0.102-0.083-0.304-0.325-0.304
		c-0.24,0-0.283,0.143-0.464,0.587c-0.932,2.506-2.123,5.621-6.854,5.621h-2.571c-0.363,0-0.424,0-0.586-0.042
		c-0.281-0.019-0.363-0.039-0.363-0.261c0-0.082,0-0.142,0.144-0.627l3.68-14.74c0.242-0.969,0.321-1.273,2.889-1.273
		c0.831,0,1.032,0,1.032-0.523c0-0.325-0.279-0.325-0.424-0.325c-0.911,0-3.133,0.082-4.046,0.082c-0.805,0-2.806-0.082-3.617-0.082
		c-0.2,0-0.528,0-0.528,0.546c0,0.303,0.247,0.303,0.774,0.303c0.058,0,0.565,0,1.029,0.062c0.485,0.041,0.747,0.082,0.747,0.424
		c0,0.121-0.038,0.203-0.121,0.526L210.415,30.689z"/>
	<path d="M226.063,36.168c-0.2,0.183-0.2,0.223-0.2,0.749h7.844l0.563-3.457h-0.646c-0.038,0.425-0.241,1.537-0.481,1.738
		c-0.165,0.102-1.621,0.102-1.879,0.102h-3.499c1.978-1.76,2.647-2.306,3.799-3.195c1.397-1.11,2.706-2.305,2.706-4.104
		c0-2.304-1.997-3.721-4.444-3.721c-2.366,0-3.963,1.658-3.963,3.418c0,0.969,0.828,1.05,1.01,1.05c0.47,0,1.01-0.322,1.01-0.99
		c0-0.345-0.117-1.011-1.108-1.011c0.587-1.355,1.878-1.778,2.77-1.778c1.898,0,2.893,1.497,2.893,3.032
		c0,1.658-1.172,2.973-1.781,3.66L226.063,36.168z"/>
	<path d="M237.933,40.333c0,0.123,0.141,0.262,0.263,0.262c0.264,0,1.879-1.515,1.879-3.778c0-1.194-0.465-2.083-1.333-2.083
		c-0.628,0-1.068,0.485-1.068,1.091c0,0.605,0.423,1.092,1.091,1.092c0.46,0,0.767-0.302,0.789-0.302
		c0,1.05-0.203,2.263-1.497,3.477C237.992,40.172,237.933,40.233,237.933,40.333z"/>
	<path d="M248.426,35.359V24.828c0-0.525-0.02-0.548-0.564-0.548c-1.214,1.215-2.954,1.215-3.722,1.215v0.687
		c0.446,0,1.693,0,2.75-0.526v9.704c0,0.628,0,0.871-1.903,0.871h-0.726v0.688c0.345-0.021,2.689-0.082,3.393-0.082
		c0.592,0,2.994,0.062,3.403,0.082v-0.688h-0.712C248.426,36.229,248.426,35.987,248.426,35.359z"/>
</g>
<g>
	<path fill="none" d="M305.03,167.383c-0.666,0-1.138,0.397-1.396,0.783c-0.355,0.556-0.382,1.294-0.382,1.747
		c0,0.503,0.039,1.203,0.355,1.706c0.302,0.463,0.738,0.79,1.294,0.79c0.528,0,1.084-0.272,1.448-0.863
		c0.139-0.211,0.139-0.237,0.139-0.456v-2.516c0-0.219,0-0.246-0.139-0.454C305.968,167.565,305.458,167.383,305.03,167.383z"/>
	<path fill="none" d="M278.609,170.424c0.491,0,0.773-0.337,0.873-0.492c0.184-0.301,0.191-0.691,0.191-1.027
		c0-0.285,0-1.513-1.064-1.513c-0.493,0-0.774,0.346-0.876,0.491c-0.181,0.311-0.19,0.701-0.19,1.028
		C277.542,169.205,277.542,170.424,278.609,170.424z"/>
	<path fill="none" d="M296.764,171.464c0.275-0.549,0.275-1.204,0.275-1.648c0-0.466,0-1.177-0.318-1.705
		c-0.32-0.527-0.849-0.803-1.387-0.803c-0.493,0-1.074,0.257-1.401,0.82c-0.301,0.546-0.301,1.202-0.301,1.688
		c0,0.444,0,1.19,0.311,1.73c0.336,0.564,0.873,0.829,1.401,0.829C295.956,172.375,296.501,172.009,296.764,171.464z"/>
	<path fill="none" d="M278.955,174.789c1.203,0,2.077-0.608,2.077-1.274c0-1.057-1.374-1.057-2.433-1.057h-0.729
		c-0.537,0.035-1.002,0.491-1.002,1.057C276.868,174.161,277.714,174.789,278.955,174.789z"/>
	<path d="M270.081,172.41c-1.029,0-1.477-0.7-1.702-1.749c-0.038-0.163-0.056-0.208-0.176-0.208c-0.162,0-0.162,0.091-0.162,0.308
		v1.623c0,0.209,0,0.292,0.137,0.292c0.063,0,0.071-0.009,0.311-0.247c0.016-0.019,0.016-0.045,0.245-0.281
		c0.537,0.52,1.093,0.528,1.348,0.528c1.412,0,1.976-0.819,1.976-1.702c0-0.658-0.362-1.021-0.509-1.167
		c-0.41-0.4-0.894-0.493-1.404-0.592c-0.691-0.139-1.512-0.303-1.512-1.013c0-0.429,0.321-0.928,1.376-0.928
		c1.348,0,1.413,1.101,1.438,1.483c0.01,0.109,0.12,0.109,0.146,0.109c0.166,0,0.166-0.062,0.166-0.292v-1.237
		c0-0.211,0-0.301-0.138-0.301c-0.063,0-0.091,0-0.246,0.143c-0.036,0.058-0.165,0.167-0.21,0.204
		c-0.465-0.347-0.976-0.347-1.157-0.347c-1.504,0-1.967,0.819-1.967,1.513c0,0.426,0.2,0.773,0.527,1.047
		c0.392,0.317,0.739,0.392,1.621,0.562c0.274,0.047,1.276,0.246,1.276,1.132C271.465,171.917,271.038,172.41,270.081,172.41z"/>
	<path d="M274.72,164.977c0-0.401-0.311-0.656-0.648-0.656c-0.383,0-0.656,0.337-0.656,0.656c0,0.327,0.273,0.648,0.656,0.648
		C274.41,165.625,274.72,165.368,274.72,164.977z"/>
	<path d="M272.907,172.165v0.373c0.391-0.01,1.045-0.035,1.348-0.035c0.428,0,0.854,0.025,1.274,0.035v-0.373
		c-0.809,0-0.856-0.064-0.856-0.545v-4.513l-1.723,0.138v0.384c0.802,0,0.911,0.072,0.911,0.673v3.307
		C273.861,172.165,273.724,172.165,272.907,172.165z"/>
	<path d="M276.23,173.514c0,0.883,1.212,1.556,2.714,1.556c1.45,0,2.727-0.626,2.727-1.585c0-0.429-0.174-1.057-0.801-1.402
		c-0.647-0.336-1.359-0.336-2.115-0.336c-0.303,0-0.827,0-0.92-0.02c-0.393-0.043-0.646-0.429-0.646-0.818
		c0-0.048,0-0.329,0.208-0.574c0.473,0.338,0.983,0.373,1.212,0.373c1.147,0,1.995-0.847,1.995-1.796c0-0.446-0.2-0.9-0.511-1.184
		c0.446-0.42,0.885-0.483,1.112-0.483c0.02,0,0.08,0,0.116,0.01c-0.136,0.054-0.188,0.191-0.188,0.338
		c0,0.207,0.152,0.355,0.355,0.355c0.117,0,0.353-0.092,0.353-0.374c0-0.209-0.145-0.602-0.629-0.602
		c-0.243,0-0.783,0.073-1.301,0.582c-0.51-0.409-1.03-0.447-1.303-0.447c-1.141,0-1.987,0.849-1.987,1.798
		c0,0.536,0.265,1.009,0.574,1.264c-0.154,0.184-0.382,0.592-0.382,1.023c0,0.382,0.163,0.846,0.545,1.093
		C276.622,172.493,276.23,173.022,276.23,173.514z M277.733,167.883c0.102-0.146,0.383-0.491,0.876-0.491
		c1.064,0,1.064,1.228,1.064,1.513c0,0.336-0.008,0.727-0.191,1.027c-0.1,0.155-0.382,0.492-0.873,0.492
		c-1.066,0-1.066-1.22-1.066-1.513C277.542,168.584,277.552,168.194,277.733,167.883z M277.87,172.458h0.729
		c1.059,0,2.433,0,2.433,1.057c0,0.666-0.874,1.274-2.077,1.274c-1.24,0-2.087-0.628-2.087-1.274
		C276.868,172.949,277.333,172.493,277.87,172.458z"/>
	<path d="M282.434,172.165v0.373c0.427-0.01,1.058-0.035,1.386-0.035c0.32,0,0.965,0.025,1.374,0.035v-0.373
		c-0.819,0-0.956,0-0.956-0.557v-2.258c0-1.286,0.876-1.967,1.66-1.967c0.773,0,0.912,0.662,0.912,1.365v2.859
		c0,0.557-0.139,0.557-0.958,0.557v0.373c0.429-0.01,1.057-0.035,1.385-0.035c0.317,0,0.956,0.025,1.375,0.035v-0.373
		c-0.819,0-0.956,0-0.956-0.557v-2.258c0-1.286,0.875-1.967,1.657-1.967c0.773,0,0.911,0.662,0.911,1.365v2.859
		c0,0.549-0.138,0.549-0.956,0.549v0.381c0.43-0.01,1.059-0.035,1.384-0.035c0.319,0,0.957,0.025,1.377,0.035v-0.381
		c-0.641,0-0.948,0-0.957-0.363v-2.353c0-1.057,0-1.43-0.382-1.876c-0.174-0.212-0.575-0.458-1.285-0.458
		c-1.041,0-1.576,0.739-1.786,1.205c-0.174-1.067-1.083-1.205-1.629-1.205c-0.904,0-1.478,0.531-1.823,1.294v-1.294l-1.732,0.138
		v0.384c0.856,0,0.957,0.08,0.957,0.684v3.296C283.391,172.165,283.255,172.165,282.434,172.165z"/>
	<path d="M298.061,169.914c0-1.575-1.231-2.877-2.717-2.877c-1.54,0-2.734,1.338-2.734,2.877c0,1.585,1.287,2.762,2.725,2.762
		C296.82,172.675,298.061,171.472,298.061,169.914z M293.943,171.546c-0.311-0.54-0.311-1.286-0.311-1.73
		c0-0.485,0-1.142,0.301-1.688c0.327-0.563,0.908-0.82,1.401-0.82c0.538,0,1.066,0.275,1.387,0.803
		c0.318,0.528,0.318,1.239,0.318,1.705c0,0.444,0,1.1-0.275,1.648c-0.263,0.545-0.809,0.911-1.42,0.911
		C294.816,172.375,294.279,172.111,293.943,171.546z"/>
	<path d="M300.621,164.977c0-0.401-0.311-0.656-0.646-0.656c-0.384,0-0.658,0.337-0.658,0.656c0,0.327,0.274,0.648,0.658,0.648
		C300.31,165.625,300.621,165.368,300.621,164.977z"/>
	<path d="M298.797,172.165v0.373c0.4-0.01,1.057-0.035,1.358-0.035c0.427,0,0.854,0.025,1.273,0.035v-0.373
		c-0.809,0-0.856-0.064-0.856-0.545v-4.513l-1.723,0.138v0.384c0.796,0,0.912,0.072,0.912,0.673v3.307
		C299.762,172.165,299.626,172.165,298.797,172.165z"/>
	<path d="M304.974,167.107c-1.447,0-2.742,1.205-2.742,2.789c0,1.568,1.212,2.779,2.605,2.779c0.794,0,1.339-0.419,1.651-0.811
		v0.811l1.801-0.138v-0.373c-0.854,0-0.956-0.092-0.956-0.692v-7.462l-1.766,0.137v0.381c0.854,0,0.956,0.084,0.956,0.693v2.654
		C306.168,167.43,305.639,167.107,304.974,167.107z M306.489,171.09c0,0.219,0,0.245-0.139,0.456
		c-0.364,0.591-0.92,0.863-1.448,0.863c-0.556,0-0.992-0.327-1.294-0.79c-0.316-0.503-0.355-1.203-0.355-1.706
		c0-0.453,0.026-1.191,0.382-1.747c0.258-0.386,0.729-0.783,1.396-0.783c0.428,0,0.938,0.182,1.32,0.737
		c0.139,0.208,0.139,0.235,0.139,0.454V171.09z"/>
	<path d="M312.692,163.447c0-0.083-0.045-0.119-0.119-0.119c-0.127,0-1.231,0.838-1.959,2.396c-0.619,1.349-0.772,2.716-0.772,3.745
		c0,0.956,0.136,2.449,0.809,3.836c0.739,1.511,1.796,2.313,1.923,2.313c0.074,0,0.119-0.035,0.119-0.126
		c0-0.037,0-0.064-0.209-0.276c-1.53-1.538-1.924-3.861-1.924-5.747c0-2.131,0.465-4.273,1.978-5.813
		C312.692,163.509,312.692,163.481,312.692,163.447z"/>
	<path d="M316.873,164.858c0-0.246-0.173-0.435-0.456-0.435c-0.327,0-0.666,0.317-0.666,0.644c0,0.237,0.176,0.448,0.467,0.448
		C316.5,165.515,316.873,165.232,316.873,164.858z"/>
	<path d="M313.74,169.004c0,0.119,0.118,0.119,0.144,0.119c0.128,0,0.138-0.019,0.2-0.219c0.33-1.158,0.82-1.521,1.241-1.521
		c0.1,0,0.31,0,0.31,0.39c0,0.256-0.092,0.521-0.139,0.638c-0.1,0.318-0.656,1.748-0.845,2.279
		c-0.129,0.316-0.283,0.719-0.283,0.981c0,0.576,0.42,1.004,1.002,1.004c1.157,0,1.612-1.777,1.612-1.896
		c0-0.119-0.109-0.119-0.145-0.119c-0.13,0-0.13,0.036-0.183,0.22c-0.227,0.774-0.629,1.529-1.259,1.529
		c-0.208,0-0.289-0.125-0.289-0.408c0-0.311,0.071-0.484,0.354-1.229l0.473-1.286c0.156-0.362,0.156-0.381,0.274-0.719
		c0.1-0.247,0.164-0.419,0.164-0.646c0-0.556-0.4-1.014-1.009-1.014C314.205,167.107,313.74,168.895,313.74,169.004z"/>
	<path d="M318.25,174.05c-0.082,0.083-0.082,0.103-0.082,0.337h3.534l0.256-1.559h-0.292c-0.025,0.193-0.108,0.695-0.227,0.786
		c-0.066,0.043-0.729,0.043-0.849,0.043h-1.575c0.899-0.791,1.202-1.037,1.714-1.439c0.636-0.501,1.229-1.037,1.229-1.849
		c0-1.039-0.911-1.676-2.005-1.676c-1.066,0-1.785,0.747-1.785,1.541c0,0.438,0.363,0.473,0.455,0.473
		c0.2,0,0.455-0.145,0.455-0.457c0-0.144-0.062-0.444-0.51-0.444c0.264-0.61,0.847-0.802,1.247-0.802
		c0.866,0,1.312,0.674,1.312,1.365c0,0.747-0.536,1.34-0.811,1.64L318.25,174.05z"/>
	<path d="M323.595,175.926c0,0.058,0.075,0.119,0.121,0.119c0.126,0,0.854-0.683,0.854-1.703c0-0.537-0.208-0.938-0.601-0.938
		c-0.28,0-0.492,0.221-0.492,0.492c0,0.272,0.201,0.491,0.504,0.491c0.2,0,0.336-0.136,0.344-0.136c0,0.473-0.081,1.02-0.664,1.565
		C323.625,175.855,323.595,175.881,323.595,175.926z"/>
	<path d="M328.042,168.694c-0.545,0.547-1.33,0.547-1.686,0.547v0.31c0.21,0,0.774,0,1.25-0.237v4.372c0,0.282,0,0.393-0.858,0.393
		h-0.329v0.31c0.155-0.009,1.215-0.037,1.532-0.037c0.264,0,1.338,0.028,1.53,0.037v-0.31h-0.328c-0.854,0-0.854-0.11-0.854-0.393
		v-4.748C328.299,168.704,328.28,168.694,328.042,168.694z"/>
	<path d="M331.76,163.328c-0.074,0-0.129,0.044-0.129,0.119c0,0.034,0,0.062,0.237,0.283c1.203,1.219,1.905,3.169,1.905,5.738
		c0,2.105-0.456,4.265-1.977,5.812c-0.166,0.146-0.166,0.174-0.166,0.211c0,0.071,0.055,0.126,0.129,0.126
		c0.118,0,1.228-0.839,1.95-2.396c0.629-1.356,0.771-2.724,0.771-3.753c0-0.956-0.134-2.441-0.81-3.836
		C332.935,164.127,331.878,163.328,331.76,163.328z"/>
</g>
<g>
	<path fill="none" d="M235.136,170.19c1.092-1.355,1.388-3.07,1.388-3.865c0-1.642-0.986-2.262-1.896-2.262
		c-0.865,0-1.95,0.57-2.711,1.725c-0.851,1.282-0.998,2.892-0.998,3.381c0,1.454,0.768,2.345,1.864,2.345
		C233.707,171.513,234.604,170.859,235.136,170.19z"/>
	<path fill="none" d="M179.054,170.19c1.095-1.355,1.389-3.07,1.389-3.865c0-1.642-0.989-2.262-1.896-2.262
		c-0.874,0-1.952,0.57-2.711,1.725c-0.85,1.282-1.004,2.892-1.004,3.381c0,1.454,0.776,2.345,1.862,2.345
		C177.625,171.513,178.524,170.859,179.054,170.19z"/>
	<path d="M123.659,164.668c0-0.221-0.155-0.394-0.408-0.394c-0.294,0-0.588,0.288-0.588,0.581c0,0.213,0.146,0.398,0.417,0.398
		C123.332,165.254,123.659,165.003,123.659,164.668z"/>
	<path d="M120.85,168.386c0,0.105,0.114,0.105,0.139,0.105c0.106,0,0.114-0.017,0.171-0.197c0.303-1.035,0.736-1.365,1.111-1.365
		c0.09,0,0.278,0,0.278,0.353c0,0.229-0.074,0.465-0.123,0.571c-0.09,0.287-0.579,1.569-0.759,2.043
		c-0.107,0.286-0.253,0.646-0.253,0.884c0,0.515,0.375,0.896,0.906,0.896c1.038,0,1.438-1.593,1.438-1.69
		c0-0.114-0.099-0.114-0.131-0.114c-0.106,0-0.106,0.033-0.163,0.197c-0.196,0.691-0.563,1.373-1.128,1.373
		c-0.18,0-0.26-0.118-0.26-0.369c0-0.277,0.065-0.433,0.318-1.103l0.433-1.153c0.13-0.325,0.13-0.342,0.237-0.645
		c0.089-0.222,0.147-0.376,0.147-0.58c0-0.498-0.352-0.906-0.907-0.906C121.274,166.686,120.85,168.288,120.85,168.386z"/>
	<path d="M124.901,172.912c-0.082,0.072-0.082,0.088-0.082,0.302h3.17l0.229-1.397h-0.263c-0.024,0.171-0.098,0.62-0.195,0.704
		c-0.066,0.038-0.654,0.038-0.76,0.038h-1.421c0.808-0.71,1.078-0.932,1.544-1.29c0.563-0.448,1.095-0.932,1.095-1.656
		c0-0.933-0.818-1.506-1.797-1.506c-0.956,0-1.602,0.671-1.602,1.38c0,0.394,0.334,0.428,0.408,0.428c0.188,0,0.408-0.132,0.408-0.4
		c0-0.141-0.056-0.408-0.458-0.408c0.245-0.549,0.768-0.719,1.128-0.719c0.768,0,1.167,0.604,1.167,1.226
		c0,0.668-0.473,1.198-0.726,1.479L124.901,172.912z"/>
	<path d="M129.664,174.594c0,0.049,0.057,0.104,0.106,0.104c0.107,0,0.76-0.611,0.76-1.524c0-0.484-0.18-0.845-0.54-0.845
		c-0.252,0-0.432,0.197-0.432,0.443c0,0.243,0.171,0.44,0.441,0.44c0.188,0,0.311-0.123,0.318-0.123
		c0,0.424-0.082,0.915-0.604,1.405C129.688,174.529,129.664,174.554,129.664,174.594z"/>
	<path d="M133.674,168.106c-0.49,0.492-1.192,0.492-1.502,0.492v0.276c0.18,0,0.685,0,1.111-0.212v3.92c0,0.254,0,0.354-0.769,0.354
		h-0.294v0.277c0.139-0.01,1.088-0.032,1.373-0.032c0.238,0,1.209,0.022,1.374,0.032v-0.277h-0.287c-0.769,0-0.769-0.1-0.769-0.354
		v-4.254C133.911,168.116,133.896,168.106,133.674,168.106z"/>
	<path d="M140.3,167.951h6.576c0.163,0,0.375,0,0.375-0.219c0-0.222-0.212-0.222-0.359-0.222h-6.602c-0.155,0-0.367,0-0.367,0.222
		C139.924,167.951,140.136,167.951,140.3,167.951z"/>
	<path d="M140.291,170.092h6.602c0.146,0,0.359,0,0.359-0.221s-0.212-0.221-0.375-0.221H140.3c-0.164,0-0.376,0-0.376,0.221
		S140.136,170.092,140.291,170.092z"/>
	<path d="M154.171,164.374c0.114,0,0.236,0,0.236-0.219c0-0.125-0.13-0.125-0.155-0.125c-0.441,0-0.906,0.033-1.356,0.033
		c-0.383,0-0.784-0.033-1.16-0.033c-0.049,0-0.196,0-0.196,0.213c0,0.131,0.098,0.131,0.278,0.131c0.547,0,0.564,0.099,0.58,0.408
		l0.498,6.731c0.007,0.196,0.025,0.288,0.18,0.288c0.13,0,0.164-0.066,0.26-0.231l3.235-5.619l0.409,5.562
		c0.024,0.229,0.049,0.288,0.179,0.288c0.147,0,0.213-0.107,0.262-0.215l3.619-6.272c0.27-0.49,0.539-0.884,1.233-0.94
		c0.099-0.008,0.204-0.008,0.204-0.219c0-0.042-0.041-0.125-0.13-0.125c-0.262,0-0.572,0.033-0.85,0.033
		c-0.375,0-0.776-0.033-1.143-0.033c-0.065,0-0.213,0-0.213,0.213c0,0.123,0.106,0.131,0.172,0.131
		c0.261,0.007,0.645,0.099,0.645,0.433c0,0.116-0.049,0.205-0.139,0.36l-2.974,5.186l-0.408-5.464
		c-0.017-0.22-0.033-0.508,0.768-0.515c0.188,0,0.302,0,0.302-0.219c0-0.106-0.123-0.125-0.172-0.125
		c-0.44,0-0.898,0.033-1.339,0.033c-0.253,0-0.907-0.033-1.161-0.033c-0.065,0-0.211,0-0.211,0.223c0,0.121,0.114,0.121,0.269,0.121
		c0.482,0,0.563,0.066,0.58,0.277l0.065,0.849l-2.785,4.853l-0.417-5.578C153.337,164.633,153.337,164.38,154.171,164.374z"/>
	<path d="M165.216,169.612c0-0.933-0.808-1.506-1.797-1.506c-0.956,0-1.602,0.671-1.602,1.38c0,0.394,0.335,0.428,0.409,0.428
		c0.188,0,0.408-0.132,0.408-0.4c0-0.141-0.048-0.408-0.449-0.408c0.237-0.549,0.76-0.719,1.119-0.719
		c0.768,0,1.169,0.604,1.169,1.226c0,0.668-0.475,1.198-0.72,1.479l-1.854,1.821c-0.082,0.072-0.082,0.088-0.082,0.302h3.17
		l0.229-1.397h-0.262c-0.016,0.171-0.097,0.62-0.195,0.704c-0.065,0.038-0.653,0.038-0.76,0.038h-1.413
		c0.799-0.71,1.07-0.932,1.535-1.29C164.693,170.82,165.216,170.336,165.216,169.612z"/>
	<path d="M166.662,174.594c0,0.049,0.058,0.104,0.106,0.104c0.106,0,0.76-0.611,0.76-1.524c0-0.484-0.18-0.845-0.54-0.845
		c-0.253,0-0.432,0.197-0.432,0.443c0,0.243,0.17,0.44,0.441,0.44c0.188,0,0.311-0.123,0.318-0.123c0,0.424-0.073,0.915-0.596,1.405
		C166.687,174.529,166.662,174.554,166.662,174.594z"/>
	<path d="M170.672,168.106c-0.49,0.492-1.184,0.492-1.502,0.492v0.276c0.188,0,0.694,0,1.111-0.212v3.92
		c0,0.254,0,0.354-0.768,0.354h-0.287v0.277c0.131-0.01,1.079-0.032,1.364-0.032c0.237,0,1.209,0.022,1.381,0.032v-0.277h-0.295
		c-0.768,0-0.768-0.1-0.768-0.354v-4.254C170.909,168.116,170.893,168.106,170.672,168.106z"/>
	<path d="M181.424,166.752c0-1.773-1.169-2.957-2.811-2.957c-2.376,0-4.803,2.5-4.803,5.064c0,1.83,1.233,2.941,2.818,2.941
		C178.964,171.801,181.424,169.39,181.424,166.752z M174.832,169.168c0-0.489,0.154-2.099,1.004-3.381
		c0.759-1.154,1.838-1.725,2.711-1.725c0.907,0,1.896,0.62,1.896,2.262c0,0.795-0.294,2.51-1.389,3.865
		c-0.53,0.669-1.43,1.323-2.361,1.323C175.607,171.513,174.832,170.623,174.832,169.168z"/>
	<path d="M183.988,168.106c-0.49,0.492-1.193,0.492-1.503,0.492v0.276c0.18,0,0.695,0,1.111-0.212v3.92c0,0.254,0,0.354-0.768,0.354
		h-0.294v0.277c0.14-0.01,1.087-0.032,1.373-0.032c0.237,0,1.209,0.022,1.372,0.032v-0.277h-0.286c-0.768,0-0.768-0.1-0.768-0.354
		v-4.254C184.225,168.116,184.208,168.106,183.988,168.106z"/>
	<path d="M187.002,174.594c0,0.049,0.058,0.104,0.107,0.104c0.106,0,0.759-0.611,0.759-1.524c0-0.484-0.18-0.845-0.539-0.845
		c-0.253,0-0.433,0.197-0.433,0.443c0,0.243,0.172,0.44,0.442,0.44c0.187,0,0.31-0.123,0.318-0.123c0,0.424-0.082,0.915-0.605,1.405
		C187.027,174.529,187.002,174.554,187.002,174.594z"/>
	<path d="M190.99,168.106c-0.499,0.492-1.192,0.492-1.512,0.492v0.276c0.188,0,0.695,0,1.119-0.212v3.92
		c0,0.254,0,0.354-0.776,0.354h-0.285v0.277c0.139-0.01,1.079-0.032,1.364-0.032c0.236,0,1.209,0.022,1.38,0.032v-0.277h-0.294
		c-0.768,0-0.768-0.1-0.768-0.354v-4.254C191.218,168.116,191.203,168.106,190.99,168.106z"/>
	<path d="M200.318,165.133c-0.221,0-0.221,0.212-0.221,0.366v3.081h-3.08c-0.154,0-0.367,0-0.367,0.222
		c0,0.219,0.213,0.219,0.367,0.219h3.08v3.09c0,0.154,0,0.359,0.221,0.359c0.221,0,0.221-0.205,0.221-0.359v-3.09h3.079
		c0.147,0,0.36,0,0.36-0.219c0-0.222-0.213-0.222-0.36-0.222h-3.079V165.5C200.54,165.345,200.54,165.133,200.318,165.133z"/>
	<path d="M210.286,164.374c0.113,0,0.236,0,0.236-0.219c0-0.125-0.139-0.125-0.157-0.125c-0.439,0-0.905,0.033-1.354,0.033
		c-0.386,0-0.785-0.033-1.161-0.033c-0.057,0-0.196,0-0.196,0.213c0,0.131,0.097,0.131,0.278,0.131c0.548,0,0.556,0.099,0.58,0.408
		l0.499,6.731c0.008,0.196,0.023,0.288,0.17,0.288c0.14,0,0.172-0.066,0.271-0.231l3.235-5.619l0.408,5.562
		c0.022,0.229,0.05,0.288,0.178,0.288c0.14,0,0.206-0.107,0.263-0.215l3.619-6.272c0.271-0.49,0.54-0.884,1.235-0.94
		c0.096-0.008,0.204-0.008,0.204-0.219c0-0.042-0.041-0.125-0.133-0.125c-0.26,0-0.571,0.033-0.849,0.033
		c-0.376,0-0.784-0.033-1.144-0.033c-0.064,0-0.212,0-0.212,0.213c0,0.123,0.098,0.131,0.17,0.131
		c0.261,0.007,0.646,0.099,0.646,0.433c0,0.116-0.056,0.205-0.14,0.36l-2.98,5.186l-0.4-5.464c-0.018-0.22-0.042-0.508,0.767-0.515
		c0.188,0,0.295,0,0.295-0.219c0-0.106-0.116-0.125-0.165-0.125c-0.441,0-0.898,0.033-1.341,0.033c-0.253,0-0.907-0.033-1.159-0.033
		c-0.066,0-0.213,0-0.213,0.223c0,0.121,0.115,0.121,0.27,0.121c0.482,0,0.566,0.066,0.581,0.277l0.064,0.849l-2.785,4.853
		l-0.416-5.578C209.452,164.633,209.452,164.38,210.286,164.374z"/>
	
		<line fill="none" stroke="#000000" stroke-width="0" stroke-linecap="round" stroke-linejoin="round" x1="221.306" y1="171.816" x2="221.298" y2="171.816"/>
	<path d="M221.306,169.612c0-0.933-0.816-1.506-1.806-1.506c-0.947,0-1.603,0.671-1.603,1.38c0,0.394,0.335,0.428,0.408,0.428
		c0.19,0,0.41-0.132,0.41-0.4c0-0.141-0.05-0.408-0.451-0.408c0.238-0.549,0.759-0.719,1.119-0.719c0.77,0,1.17,0.604,1.17,1.226
		c0,0.668-0.474,1.198-0.72,1.479l-1.854,1.821c-0.082,0.072-0.082,0.088-0.082,0.302h3.169l0.231-1.397h-0.263
		c-0.018,0.171-0.096,0.62-0.195,0.704c-0.065,0.038-0.654,0.038-0.76,0.038h-1.414c0.802-0.71,1.069-0.932,1.535-1.29
		C220.775,170.82,221.306,170.336,221.306,169.612z"/>
	<path d="M222.777,174.594c0,0.049,0.057,0.104,0.105,0.104c0.106,0,0.761-0.611,0.761-1.524c0-0.484-0.182-0.845-0.54-0.845
		c-0.255,0-0.434,0.197-0.434,0.443c0,0.243,0.172,0.44,0.44,0.44c0.188,0,0.31-0.123,0.319-0.123c0,0.424-0.08,0.915-0.604,1.405
		C222.8,174.529,222.777,174.554,222.777,174.594z"/>
	<path d="M224.974,172.912c-0.075,0.072-0.075,0.088-0.075,0.302h3.161l0.238-1.397h-0.261c-0.026,0.171-0.1,0.62-0.204,0.704
		c-0.057,0.038-0.654,0.038-0.76,0.038h-1.414c0.809-0.71,1.076-0.932,1.534-1.29c0.574-0.448,1.104-0.932,1.104-1.656
		c0-0.933-0.816-1.506-1.806-1.506c-0.947,0-1.594,0.671-1.594,1.38c0,0.394,0.328,0.428,0.407,0.428c0.183,0,0.401-0.132,0.401-0.4
		c0-0.141-0.048-0.408-0.45-0.408c0.239-0.549,0.761-0.719,1.12-0.719c0.768,0,1.168,0.604,1.168,1.226
		c0,0.668-0.472,1.198-0.718,1.479L224.974,172.912z"/>
	<path d="M237.503,166.752c0-1.773-1.167-2.957-2.81-2.957c-2.376,0-4.803,2.5-4.803,5.064c0,1.83,1.232,2.941,2.819,2.941
		C235.044,171.801,237.503,169.39,237.503,166.752z M230.919,169.168c0-0.489,0.147-2.099,0.998-3.381
		c0.761-1.154,1.846-1.725,2.711-1.725c0.909,0,1.896,0.62,1.896,2.262c0,0.795-0.296,2.51-1.388,3.865
		c-0.532,0.669-1.43,1.323-2.353,1.323C231.687,171.513,230.919,170.623,230.919,169.168z"/>
	<path d="M240.102,168.106c-0.488,0.492-1.192,0.492-1.502,0.492v0.276c0.18,0,0.684,0,1.111-0.212v3.92
		c0,0.254,0,0.354-0.768,0.354h-0.294v0.277c0.138-0.01,1.084-0.032,1.372-0.032c0.235,0,1.209,0.022,1.373,0.032v-0.277h-0.289
		c-0.773,0-0.773-0.1-0.773-0.354v-4.254C240.333,168.116,240.325,168.106,240.102,168.106z"/>
	<path d="M243.117,174.594c0,0.049,0.057,0.104,0.106,0.104c0.106,0,0.758-0.611,0.758-1.524c0-0.484-0.186-0.845-0.536-0.845
		c-0.254,0-0.436,0.197-0.436,0.443c0,0.243,0.174,0.44,0.443,0.44c0.188,0,0.31-0.123,0.317-0.123c0,0.424-0.08,0.915-0.606,1.405
		C243.142,174.529,243.117,174.554,243.117,174.594z"/>
	<path d="M248.64,169.612c0-0.933-0.816-1.506-1.808-1.506c-0.944,0-1.593,0.671-1.593,1.38c0,0.394,0.328,0.428,0.409,0.428
		c0.18,0,0.401-0.132,0.401-0.4c0-0.141-0.05-0.408-0.45-0.408c0.238-0.549,0.759-0.719,1.119-0.719
		c0.767,0,1.169,0.604,1.169,1.226c0,0.668-0.473,1.198-0.719,1.479l-1.854,1.821c-0.075,0.072-0.075,0.088-0.075,0.302h3.162
		l0.238-1.397h-0.263c-0.025,0.171-0.105,0.62-0.204,0.704c-0.057,0.038-0.652,0.038-0.758,0.038H246
		c0.809-0.71,1.078-0.932,1.535-1.29C248.107,170.82,248.64,170.336,248.64,169.612z"/>
</g>
<g>
	
		<path fill="none" stroke="#EC1C24" stroke-width="0.75" stroke-linecap="round" stroke-linejoin="round" stroke-dasharray="4,4" d="
		M254.041,169.278c0,0,5.744,0,10.544,0"/>
	<g>
		<polygon fill="#EC1C24" points="263.086,170.549 264.359,169.278 263.086,168.006 264.167,168.006 265.438,169.278 
			264.167,170.549 		"/>
	</g>
</g>
<g>
</g>
<g>
</g>
<g>
</g>
<g>
</g>
<g>
</g>
<g>
</g>
<g>
</g>
</svg>
