<svg xmlns="http://www.w3.org/2000/svg" xmlns:xlink="http://www.w3.org/1999/xlink" height="226pt" version="1.1" viewBox="0 0 453 226" width="453pt">
 <defs>
  <clipPath id="p21a0d915ae">
   <rect height="226.771653543" width="453.543307087" x="0.0" y="0.0"/>
  </clipPath>
 </defs>
<defs>
  <style type="text/css">
*{stroke-linecap:butt;stroke-linejoin:round;stroke-miterlimit:100000;}
  </style>
 </defs>
 <g id="figure_1">
  <g id="patch_1">
   <path d="M 0 226.771654  L 453.543307 226.771654  L 453.543307 0  L 0 0  z " style="fill:#ffffff;"/>
  </g>
  <g id="axes_1">
   <g id="patch_2">
    <path clip-path="url(#p21a0d915ae)" d="M 141.732283 73.700787  C 146.242824 73.700787 150.569232 71.908731 153.758667 68.719296  C 156.948101 65.529862 158.740157 61.203454 158.740157 56.692913  C 158.740157 52.182372 156.948101 47.855964 153.758667 44.66653  C 150.569232 41.477096 146.242824 39.685039 141.732283 39.685039  C 137.221743 39.685039 132.895334 41.477096 129.7059 44.66653  C 126.516466 47.855964 124.724409 52.182372 124.724409 56.692913  C 124.724409 61.203454 126.516466 65.529862 129.7059 68.719296  C 132.895334 71.908731 137.221743 73.700787 141.732283 73.700787  L 141.732283 73.700787  z " style="fill:none;stroke:#000000;stroke-linejoin:miter;"/>
   </g>
   <g id="patch_3">
    <path clip-path="url(#p21a0d915ae)" d="M 340.15748 187.086614  C 344.668021 187.086614 348.994429 185.294557 352.183863 182.105123  C 355.373297 178.915689 357.165354 174.589281 357.165354 170.07874  C 357.165354 165.568199 355.373297 161.241791 352.183863 158.052357  C 348.994429 154.862923 344.668021 153.070866 340.15748 153.070866  C 335.646939 153.070866 331.320531 154.862923 328.131097 158.052357  C 324.941663 161.241791 323.149606 165.568199 323.149606 170.07874  C 323.149606 174.589281 324.941663 178.915689 328.131097 182.105123  C 331.320531 185.294557 335.646939 187.086614 340.15748 187.086614  L 340.15748 187.086614  z " style="fill:none;stroke:#000000;stroke-linejoin:miter;"/>
   </g>
   <g id="patch_4">
    <path clip-path="url(#p21a0d915ae)" d="M 85.03937 130.393701  C 89.549911 130.393701 93.876319 128.601644 97.065753 125.41221  C 100.255187 122.222776 102.047244 117.896368 102.047244 113.385827  C 102.047244 108.875286 100.255187 104.548878 97.065753 101.359444  C 93.876319 98.17001 89.549911 96.377953 85.03937 96.377953  C 80.528829 96.377953 76.202421 98.17001 73.012987 101.359444  C 69.823553 104.548878 68.031496 108.875286 68.031496 113.385827  C 68.031496 117.896368 69.823553 122.222776 73.012987 125.41221  C 76.202421 128.601644 80.528829 130.393701 85.03937 130.393701  L 85.03937 130.393701  z " style="fill:none;stroke:#000000;stroke-linejoin:miter;"/>
   </g>
   <g id="patch_5">
    <path clip-path="url(#p21a0d915ae)" d="M 28.346457 187.086614  C 32.856998 187.086614 37.183406 185.294557 40.37284 182.105123  C 43.562274 178.915689 45.354331 174.589281 45.354331 170.07874  C 45.354331 165.568199 43.562274 161.241791 40.37284 158.052357  C 37.183406 154.862923 32.856998 153.070866 28.346457 153.070866  C 23.835916 153.070866 19.509508 154.862923 16.320074 158.052357  C 13.13064 161.241791 11.338583 165.568199 11.338583 170.07874  C 11.338583 174.589281 13.13064 178.915689 16.320074 182.105123  C 19.509508 185.294557 23.835916 187.086614 28.346457 187.086614  L 28.346457 187.086614  z " style="fill:none;stroke:#000000;stroke-linejoin:miter;"/>
   </g>
   <g id="patch_6">
    <path clip-path="url(#p21a0d915ae)" d="M 226.771654 73.700787  C 231.282194 73.700787 235.608603 71.908731 238.798037 68.719296  C 241.987471 65.529862 243.779528 61.203454 243.779528 56.692913  C 243.779528 52.182372 241.987471 47.855964 238.798037 44.66653  C 235.608603 41.477096 231.282194 39.685039 226.771654 39.685039  C 222.261113 39.685039 217.934705 41.477096 214.74527 44.66653  C 211.555836 47.855964 209.76378 52.182372 209.76378 56.692913  C 209.76378 61.203454 211.555836 65.529862 214.74527 68.719296  C 217.934705 71.908731 222.261113 73.700787 226.771654 73.700787  L 226.771654 73.700787  z " style="fill:none;stroke:#000000;stroke-linejoin:miter;"/>
   </g>
   <g id="patch_7">
    <path clip-path="url(#p21a0d915ae)" d="M 28.346457 130.393701  C 32.856998 130.393701 37.183406 128.601644 40.37284 125.41221  C 43.562274 122.222776 45.354331 117.896368 45.354331 113.385827  C 45.354331 108.875286 43.562274 104.548878 40.37284 101.359444  C 37.183406 98.17001 32.856998 96.377953 28.346457 96.377953  C 23.835916 96.377953 19.509508 98.17001 16.320074 101.359444  C 13.13064 104.548878 11.338583 108.875286 11.338583 113.385827  C 11.338583 117.896368 13.13064 122.222776 16.320074 125.41221  C 19.509508 128.601644 23.835916 130.393701 28.346457 130.393701  L 28.346457 130.393701  z " style="fill:none;stroke:#000000;stroke-linejoin:miter;"/>
   </g>
   <g id="patch_8">
    <path clip-path="url(#p21a0d915ae)" d="M 340.15748 73.700787  C 344.668021 73.700787 348.994429 71.908731 352.183863 68.719296  C 355.373297 65.529862 357.165354 61.203454 357.165354 56.692913  C 357.165354 52.182372 355.373297 47.855964 352.183863 44.66653  C 348.994429 41.477096 344.668021 39.685039 340.15748 39.685039  C 335.646939 39.685039 331.320531 41.477096 328.131097 44.66653  C 324.941663 47.855964 323.149606 52.182372 323.149606 56.692913  C 323.149606 61.203454 324.941663 65.529862 328.131097 68.719296  C 331.320531 71.908731 335.646939 73.700787 340.15748 73.700787  L 340.15748 73.700787  z " style="fill:none;stroke:#000000;stroke-linejoin:miter;"/>
   </g>
   <g id="patch_9">
    <path clip-path="url(#p21a0d915ae)" d="M 85.03937 187.086614  C 89.549911 187.086614 93.876319 185.294557 97.065753 182.105123  C 100.255187 178.915689 102.047244 174.589281 102.047244 170.07874  C 102.047244 165.568199 100.255187 161.241791 97.065753 158.052357  C 93.876319 154.862923 89.549911 153.070866 85.03937 153.070866  C 80.528829 153.070866 76.202421 154.862923 73.012987 158.052357  C 69.823553 161.241791 68.031496 165.568199 68.031496 170.07874  C 68.031496 174.589281 69.823553 178.915689 73.012987 182.105123  C 76.202421 185.294557 80.528829 187.086614 85.03937 187.086614  L 85.03937 187.086614  z " style="fill:none;stroke:#000000;stroke-linejoin:miter;"/>
   </g>
   <g id="patch_10">
    <path clip-path="url(#p21a0d915ae)" d="M 226.771654 130.393701  C 231.282194 130.393701 235.608603 128.601644 238.798037 125.41221  C 241.987471 122.222776 243.779528 117.896368 243.779528 113.385827  C 243.779528 108.875286 241.987471 104.548878 238.798037 101.359444  C 235.608603 98.17001 231.282194 96.377953 226.771654 96.377953  C 222.261113 96.377953 217.934705 98.17001 214.74527 101.359444  C 211.555836 104.548878 209.76378 108.875286 209.76378 113.385827  C 209.76378 117.896368 211.555836 122.222776 214.74527 125.41221  C 217.934705 128.601644 222.261113 130.393701 226.771654 130.393701  L 226.771654 130.393701  z " style="fill:none;stroke:#000000;stroke-linejoin:miter;"/>
   </g>
   <g id="patch_11">
    <path clip-path="url(#p21a0d915ae)" d="M 226.771654 187.086614  C 231.282194 187.086614 235.608603 185.294557 238.798037 182.105123  C 241.987471 178.915689 243.779528 174.589281 243.779528 170.07874  C 243.779528 165.568199 241.987471 161.241791 238.798037 158.052357  C 235.608603 154.862923 231.282194 153.070866 226.771654 153.070866  C 222.261113 153.070866 217.934705 154.862923 214.74527 158.052357  C 211.555836 161.241791 209.76378 165.568199 209.76378 170.07874  C 209.76378 174.589281 211.555836 178.915689 214.74527 182.105123  C 217.934705 185.294557 222.261113 187.086614 226.771654 187.086614  L 226.771654 187.086614  z " style="fill:none;stroke:#000000;stroke-linejoin:miter;"/>
   </g>
   <g id="patch_12">
    <path clip-path="url(#p21a0d915ae)" d="M 141.732283 187.086614  C 146.242824 187.086614 150.569232 185.294557 153.758667 182.105123  C 156.948101 178.915689 158.740157 174.589281 158.740157 170.07874  C 158.740157 165.568199 156.948101 161.241791 153.758667 158.052357  C 150.569232 154.862923 146.242824 153.070866 141.732283 153.070866  C 137.221743 153.070866 132.895334 154.862923 129.7059 158.052357  C 126.516466 161.241791 124.724409 165.568199 124.724409 170.07874  C 124.724409 174.589281 126.516466 178.915689 129.7059 182.105123  C 132.895334 185.294557 137.221743 187.086614 141.732283 187.086614  L 141.732283 187.086614  z " style="fill:none;stroke:#000000;stroke-linejoin:miter;"/>
   </g>
   <g id="patch_13">
    <path clip-path="url(#p21a0d915ae)" d="M 28.346457 73.700787  C 32.856998 73.700787 37.183406 71.908731 40.37284 68.719296  C 43.562274 65.529862 45.354331 61.203454 45.354331 56.692913  C 45.354331 52.182372 43.562274 47.855964 40.37284 44.66653  C 37.183406 41.477096 32.856998 39.685039 28.346457 39.685039  C 23.835916 39.685039 19.509508 41.477096 16.320074 44.66653  C 13.13064 47.855964 11.338583 52.182372 11.338583 56.692913  C 11.338583 61.203454 13.13064 65.529862 16.320074 68.719296  C 19.509508 71.908731 23.835916 73.700787 28.346457 73.700787  L 28.346457 73.700787  z " style="fill:none;stroke:#000000;stroke-linejoin:miter;"/>
   </g>
   <g id="patch_14">
    <path clip-path="url(#p21a0d915ae)" d="M 85.03937 73.700787  C 89.549911 73.700787 93.876319 71.908731 97.065753 68.719296  C 100.255187 65.529862 102.047244 61.203454 102.047244 56.692913  C 102.047244 52.182372 100.255187 47.855964 97.065753 44.66653  C 93.876319 41.477096 89.549911 39.685039 85.03937 39.685039  C 80.528829 39.685039 76.202421 41.477096 73.012987 44.66653  C 69.823553 47.855964 68.031496 52.182372 68.031496 56.692913  C 68.031496 61.203454 69.823553 65.529862 73.012987 68.719296  C 76.202421 71.908731 80.528829 73.700787 85.03937 73.700787  L 85.03937 73.700787  z " style="fill:none;stroke:#000000;stroke-linejoin:miter;"/>
   </g>
   <g id="patch_15">
    <path clip-path="url(#p21a0d915ae)" d="M 283.464567 187.086614  C 287.975108 187.086614 292.301516 185.294557 295.49095 182.105123  C 298.680384 178.915689 300.472441 174.589281 300.472441 170.07874  C 300.472441 165.568199 298.680384 161.241791 295.49095 158.052357  C 292.301516 154.862923 287.975108 153.070866 283.464567 153.070866  C 278.954026 153.070866 274.627618 154.862923 271.438184 158.052357  C 268.24875 161.241791 266.456693 165.568199 266.456693 170.07874  C 266.456693 174.589281 268.24875 178.915689 271.438184 182.105123  C 274.627618 185.294557 278.954026 187.086614 283.464567 187.086614  L 283.464567 187.086614  z " style="fill:none;stroke:#000000;stroke-linejoin:miter;"/>
   </g>
   <g id="patch_16">
    <path clip-path="url(#p21a0d915ae)" d="M 283.464567 130.393701  C 287.975108 130.393701 292.301516 128.601644 295.49095 125.41221  C 298.680384 122.222776 300.472441 117.896368 300.472441 113.385827  C 300.472441 108.875286 298.680384 104.548878 295.49095 101.359444  C 292.301516 98.17001 287.975108 96.377953 283.464567 96.377953  C 278.954026 96.377953 274.627618 98.17001 271.438184 101.359444  C 268.24875 104.548878 266.456693 108.875286 266.456693 113.385827  C 266.456693 117.896368 268.24875 122.222776 271.438184 125.41221  C 274.627618 128.601644 278.954026 130.393701 283.464567 130.393701  L 283.464567 130.393701  z " style="fill:none;stroke:#000000;stroke-linejoin:miter;"/>
   </g>
   <g id="patch_17">
    <path clip-path="url(#p21a0d915ae)" d="M 141.732283 130.393701  C 146.242824 130.393701 150.569232 128.601644 153.758667 125.41221  C 156.948101 122.222776 158.740157 117.896368 158.740157 113.385827  C 158.740157 108.875286 156.948101 104.548878 153.758667 101.359444  C 150.569232 98.17001 146.242824 96.377953 141.732283 96.377953  C 137.221743 96.377953 132.895334 98.17001 129.7059 101.359444  C 126.516466 104.548878 124.724409 108.875286 124.724409 113.385827  C 124.724409 117.896368 126.516466 122.222776 129.7059 125.41221  C 132.895334 128.601644 137.221743 130.393701 141.732283 130.393701  L 141.732283 130.393701  z " style="fill:none;stroke:#000000;stroke-linejoin:miter;"/>
   </g>
   <g id="patch_18">
    <path clip-path="url(#p21a0d915ae)" d="M 340.15748 130.393701  C 344.668021 130.393701 348.994429 128.601644 352.183863 125.41221  C 355.373297 122.222776 357.165354 117.896368 357.165354 113.385827  C 357.165354 108.875286 355.373297 104.548878 352.183863 101.359444  C 348.994429 98.17001 344.668021 96.377953 340.15748 96.377953  C 335.646939 96.377953 331.320531 98.17001 328.131097 101.359444  C 324.941663 104.548878 323.149606 108.875286 323.149606 113.385827  C 323.149606 117.896368 324.941663 122.222776 328.131097 125.41221  C 331.320531 128.601644 335.646939 130.393701 340.15748 130.393701  L 340.15748 130.393701  z " style="fill:none;stroke:#000000;stroke-linejoin:miter;"/>
   </g>
   <g id="patch_19">
    <path clip-path="url(#p21a0d915ae)" d="M 283.464567 73.700787  C 287.975108 73.700787 292.301516 71.908731 295.49095 68.719296  C 298.680384 65.529862 300.472441 61.203454 300.472441 56.692913  C 300.472441 52.182372 298.680384 47.855964 295.49095 44.66653  C 292.301516 41.477096 287.975108 39.685039 283.464567 39.685039  C 278.954026 39.685039 274.627618 41.477096 271.438184 44.66653  C 268.24875 47.855964 266.456693 52.182372 266.456693 56.692913  C 266.456693 61.203454 268.24875 65.529862 271.438184 68.719296  C 274.627618 71.908731 278.954026 73.700787 283.464567 73.700787  L 283.464567 73.700787  z " style="fill:none;stroke:#000000;stroke-linejoin:miter;"/>
   </g>
   <g id="line2d_1">
    <path clip-path="url(#p21a0d915ae)" d="M 45.354331 56.692913  L 68.031496 56.692913  " style="fill:none;stroke:#000000;stroke-linecap:square;"/>
   </g>
   <g id="line2d_2">
    <path clip-path="url(#p21a0d915ae)" d="M 102.047244 56.692913  L 124.724409 56.692913  " style="fill:none;stroke:#000000;stroke-linecap:square;"/>
   </g>
   <g id="line2d_3">
    <path clip-path="url(#p21a0d915ae)" d="M 28.346457 73.700787  L 28.346457 96.377953  " style="fill:none;stroke:#000000;stroke-linecap:square;"/>
   </g>
   <g id="line2d_4">
    <path clip-path="url(#p21a0d915ae)" d="M 85.03937 73.700787  L 85.03937 96.377953  " style="fill:none;stroke:#000000;stroke-linecap:square;"/>
   </g>
   <g id="line2d_5">
    <path clip-path="url(#p21a0d915ae)" d="M 141.732283 73.700787  L 141.732283 96.377953  " style="fill:none;stroke:#000000;stroke-linecap:square;"/>
   </g>
   <g id="line2d_6">
    <path clip-path="url(#p21a0d915ae)" d="M 45.354331 113.385827  L 68.031496 113.385827  " style="fill:none;stroke:#000000;stroke-linecap:square;"/>
   </g>
   <g id="line2d_7">
    <path clip-path="url(#p21a0d915ae)" d="M 102.047244 113.385827  L 124.724409 113.385827  " style="fill:none;stroke:#000000;stroke-linecap:square;"/>
   </g>
   <g id="line2d_8">
    <path clip-path="url(#p21a0d915ae)" d="M 28.346457 130.393701  L 28.346457 153.070866  " style="fill:none;stroke:#000000;stroke-linecap:square;"/>
   </g>
   <g id="line2d_9">
    <path clip-path="url(#p21a0d915ae)" d="M 85.03937 130.393701  L 85.03937 153.070866  " style="fill:none;stroke:#000000;stroke-linecap:square;"/>
   </g>
   <g id="line2d_10">
    <path clip-path="url(#p21a0d915ae)" d="M 141.732283 130.393701  L 141.732283 153.070866  " style="fill:none;stroke:#000000;stroke-linecap:square;"/>
   </g>
   <g id="line2d_11">
    <path clip-path="url(#p21a0d915ae)" d="M 45.354331 170.07874  L 68.031496 170.07874  " style="fill:none;stroke:#000000;stroke-linecap:square;"/>
   </g>
   <g id="line2d_12">
    <path clip-path="url(#p21a0d915ae)" d="M 102.047244 170.07874  L 124.724409 170.07874  " style="fill:none;stroke:#000000;stroke-linecap:square;"/>
   </g>
   <g id="line2d_13">
    <path clip-path="url(#p21a0d915ae)" d="M 243.779528 56.692913  L 266.456693 56.692913  " style="fill:none;stroke:#000000;stroke-linecap:square;"/>
   </g>
   <g id="line2d_14">
    <path clip-path="url(#p21a0d915ae)" d="M 300.472441 56.692913  L 323.149606 56.692913  " style="fill:none;stroke:#000000;stroke-linecap:square;"/>
   </g>
   <g id="line2d_15">
    <path clip-path="url(#p21a0d915ae)" d="M 283.464567 73.700787  L 283.464567 96.377953  " style="fill:none;stroke:#000000;stroke-linecap:square;"/>
   </g>
   <g id="line2d_16">
    <path clip-path="url(#p21a0d915ae)" d="M 243.779528 113.385827  L 266.456693 113.385827  " style="fill:none;stroke:#000000;stroke-linecap:square;"/>
   </g>
   <g id="line2d_17">
    <path clip-path="url(#p21a0d915ae)" d="M 226.771654 130.393701  L 226.771654 153.070866  " style="fill:none;stroke:#000000;stroke-linecap:square;"/>
   </g>
   <g id="line2d_18">
    <path clip-path="url(#p21a0d915ae)" d="M 243.779528 170.07874  L 266.456693 170.07874  " style="fill:none;stroke:#000000;stroke-linecap:square;"/>
   </g>
   <g id="line2d_19">
    <path clip-path="url(#p21a0d915ae)" d="M 300.472441 170.07874  L 323.149606 170.07874  " style="fill:none;stroke:#000000;stroke-linecap:square;"/>
   </g>
   <g id="line2d_20">
    <path clip-path="url(#p21a0d915ae)" d="M 340.15748 153.070866  L 340.15748 130.393701  " style="fill:none;stroke:#000000;stroke-linecap:square;"/>
   </g>
   <g id="matplotlib.axis_1"/>
   <g id="matplotlib.axis_2"/>
   <g id="text_1">
    <!-- C -->
    <defs>
     <path d="M 64.40625 67.28125  L 64.40625 56.890625  Q 59.421875 61.53125 53.78125 63.8125  Q 48.140625 66.109375 41.796875 66.109375  Q 29.296875 66.109375 22.65625 58.46875  Q 16.015625 50.828125 16.015625 36.375  Q 16.015625 21.96875 22.65625 14.328125  Q 29.296875 6.6875 41.796875 6.6875  Q 48.140625 6.6875 53.78125 8.984375  Q 59.421875 11.28125 64.40625 15.921875  L 64.40625 5.609375  Q 59.234375 2.09375 53.4375 0.328125  Q 47.65625 -1.421875 41.21875 -1.421875  Q 24.65625 -1.421875 15.125 8.703125  Q 5.609375 18.84375 5.609375 36.375  Q 5.609375 53.953125 15.125 64.078125  Q 24.65625 74.21875 41.21875 74.21875  Q 47.75 74.21875 53.53125 72.484375  Q 59.328125 70.75 64.40625 67.28125  " id="BitstreamVeraSans-Roman-43"/>
    </defs>
    <g transform="translate(135.447752215 61.6597883858)scale(0.18 -0.18)">
     <use xlink:href="#BitstreamVeraSans-Roman-43"/>
    </g>
   </g>
   <g id="text_2">
    <!-- I -->
    <defs>
     <path d="M 9.8125 72.90625  L 19.671875 72.90625  L 19.671875 0  L 9.8125 0  z " id="BitstreamVeraSans-Roman-49"/>
    </defs>
    <g transform="translate(337.502480315 175.045615157)scale(0.18 -0.18)">
     <use xlink:href="#BitstreamVeraSans-Roman-49"/>
    </g>
   </g>
   <g id="text_3">
    <!-- E -->
    <defs>
     <path d="M 9.8125 72.90625  L 55.90625 72.90625  L 55.90625 64.59375  L 19.671875 64.59375  L 19.671875 43.015625  L 54.390625 43.015625  L 54.390625 34.71875  L 19.671875 34.71875  L 19.671875 8.296875  L 56.78125 8.296875  L 56.78125 0  L 9.8125 0  z " id="BitstreamVeraSans-Roman-45"/>
    </defs>
    <g transform="translate(79.3524950787 118.352701772)scale(0.18 -0.18)">
     <use xlink:href="#BitstreamVeraSans-Roman-45"/>
    </g>
   </g>
   <g id="text_4">
    <!-- G -->
    <defs>
     <path d="M 59.515625 10.40625  L 59.515625 29.984375  L 43.40625 29.984375  L 43.40625 38.09375  L 69.28125 38.09375  L 69.28125 6.78125  Q 63.578125 2.734375 56.6875 0.65625  Q 49.8125 -1.421875 42 -1.421875  Q 24.90625 -1.421875 15.25 8.5625  Q 5.609375 18.5625 5.609375 36.375  Q 5.609375 54.25 15.25 64.234375  Q 24.90625 74.21875 42 74.21875  Q 49.125 74.21875 55.546875 72.453125  Q 61.96875 70.703125 67.390625 67.28125  L 67.390625 56.78125  Q 61.921875 61.421875 55.765625 63.765625  Q 49.609375 66.109375 42.828125 66.109375  Q 29.4375 66.109375 22.71875 58.640625  Q 16.015625 51.171875 16.015625 36.375  Q 16.015625 21.625 22.71875 14.15625  Q 29.4375 6.6875 42.828125 6.6875  Q 48.046875 6.6875 52.140625 7.59375  Q 56.25 8.5 59.515625 10.40625  " id="BitstreamVeraSans-Roman-47"/>
    </defs>
    <g transform="translate(21.3728629429 175.045615157)scale(0.18 -0.18)">
     <use xlink:href="#BitstreamVeraSans-Roman-47"/>
    </g>
   </g>
   <g id="text_5">
    <!-- A -->
    <defs>
     <path d="M 34.1875 63.1875  L 20.796875 26.90625  L 47.609375 26.90625  z M 28.609375 72.90625  L 39.796875 72.90625  L 67.578125 0  L 57.328125 0  L 50.6875 18.703125  L 17.828125 18.703125  L 11.1875 0  L 0.78125 0  z " id="BitstreamVeraSans-Roman-41"/>
    </defs>
    <g transform="translate(220.615091043 61.6597883858)scale(0.18 -0.18)">
     <use xlink:href="#BitstreamVeraSans-Roman-41"/>
    </g>
   </g>
   <g id="text_6">
    <!-- D -->
    <defs>
     <path d="M 19.671875 64.796875  L 19.671875 8.109375  L 31.59375 8.109375  Q 46.6875 8.109375 53.6875 14.9375  Q 60.6875 21.78125 60.6875 36.53125  Q 60.6875 51.171875 53.6875 57.984375  Q 46.6875 64.796875 31.59375 64.796875  z M 9.8125 72.90625  L 30.078125 72.90625  Q 51.265625 72.90625 61.171875 64.09375  Q 71.09375 55.28125 71.09375 36.53125  Q 71.09375 17.671875 61.125 8.828125  Q 51.171875 0 30.078125 0  L 9.8125 0  z " id="BitstreamVeraSans-Roman-44"/>
    </defs>
    <g transform="translate(21.4164566929 118.352701772)scale(0.18 -0.18)">
     <use xlink:href="#BitstreamVeraSans-Roman-44"/>
    </g>
   </g>
   <g id="text_7">
    <!-- C -->
    <g transform="translate(333.872949065 61.6597883858)scale(0.18 -0.18)">
     <use xlink:href="#BitstreamVeraSans-Roman-43"/>
    </g>
   </g>
   <g id="text_8">
    <!-- H -->
    <defs>
     <path d="M 9.8125 72.90625  L 19.671875 72.90625  L 19.671875 43.015625  L 55.515625 43.015625  L 55.515625 72.90625  L 65.375 72.90625  L 65.375 0  L 55.515625 0  L 55.515625 34.71875  L 19.671875 34.71875  L 19.671875 0  L 9.8125 0  z " id="BitstreamVeraSans-Roman-48"/>
    </defs>
    <g transform="translate(78.2710888287 175.045615157)scale(0.18 -0.18)">
     <use xlink:href="#BitstreamVeraSans-Roman-48"/>
    </g>
   </g>
   <g id="text_9">
    <!-- D -->
    <g transform="translate(219.841653543 118.352701772)scale(0.18 -0.18)">
     <use xlink:href="#BitstreamVeraSans-Roman-44"/>
    </g>
   </g>
   <g id="text_10">
    <!-- G -->
    <g transform="translate(219.798059793 175.045615157)scale(0.18 -0.18)">
     <use xlink:href="#BitstreamVeraSans-Roman-47"/>
    </g>
   </g>
   <g id="text_11">
    <!-- I -->
    <g transform="translate(139.077283465 175.045615157)scale(0.18 -0.18)">
     <use xlink:href="#BitstreamVeraSans-Roman-49"/>
    </g>
   </g>
   <g id="text_12">
    <!-- A -->
    <g transform="translate(22.1898941929 61.6597883858)scale(0.18 -0.18)">
     <use xlink:href="#BitstreamVeraSans-Roman-41"/>
    </g>
   </g>
   <g id="text_13">
    <!-- B -->
    <defs>
     <path d="M 19.671875 34.8125  L 19.671875 8.109375  L 35.5 8.109375  Q 43.453125 8.109375 47.28125 11.40625  Q 51.125 14.703125 51.125 21.484375  Q 51.125 28.328125 47.28125 31.5625  Q 43.453125 34.8125 35.5 34.8125  z M 19.671875 64.796875  L 19.671875 42.828125  L 34.28125 42.828125  Q 41.5 42.828125 45.03125 45.53125  Q 48.578125 48.25 48.578125 53.8125  Q 48.578125 59.328125 45.03125 62.0625  Q 41.5 64.796875 34.28125 64.796875  z M 9.8125 72.90625  L 35.015625 72.90625  Q 46.296875 72.90625 52.390625 68.21875  Q 58.5 63.53125 58.5 54.890625  Q 58.5 48.1875 55.375 44.234375  Q 52.25 40.28125 46.1875 39.3125  Q 53.46875 37.75 57.5 32.78125  Q 61.53125 27.828125 61.53125 20.40625  Q 61.53125 10.640625 54.890625 5.3125  Q 48.25 0 35.984375 0  L 9.8125 0  z " id="BitstreamVeraSans-Roman-42"/>
    </defs>
    <g transform="translate(78.8645263287 61.6597883858)scale(0.18 -0.18)">
     <use xlink:href="#BitstreamVeraSans-Roman-42"/>
    </g>
   </g>
   <g id="text_14">
    <!-- H -->
    <g transform="translate(276.696285679 175.045615157)scale(0.18 -0.18)">
     <use xlink:href="#BitstreamVeraSans-Roman-48"/>
    </g>
   </g>
   <g id="text_15">
    <!-- E -->
    <g transform="translate(277.777691929 118.352701772)scale(0.18 -0.18)">
     <use xlink:href="#BitstreamVeraSans-Roman-45"/>
    </g>
   </g>
   <g id="text_16">
    <!-- F -->
    <defs>
     <path d="M 9.8125 72.90625  L 51.703125 72.90625  L 51.703125 64.59375  L 19.671875 64.59375  L 19.671875 43.109375  L 48.578125 43.109375  L 48.578125 34.8125  L 19.671875 34.8125  L 19.671875 0  L 9.8125 0  z " id="BitstreamVeraSans-Roman-46"/>
    </defs>
    <g transform="translate(136.555877215 118.352701772)scale(0.18 -0.18)">
     <use xlink:href="#BitstreamVeraSans-Roman-46"/>
    </g>
   </g>
   <g id="text_17">
    <!-- F -->
    <g transform="translate(334.981074065 118.352701772)scale(0.18 -0.18)">
     <use xlink:href="#BitstreamVeraSans-Roman-46"/>
    </g>
   </g>
   <g id="text_18">
    <!-- B -->
    <g transform="translate(277.289723179 61.6597883858)scale(0.18 -0.18)">
     <use xlink:href="#BitstreamVeraSans-Roman-42"/>
    </g>
   </g>
  </g>
 </g>
 </svg>
