<svg xmlns="http://www.w3.org/2000/svg" xmlns:xlink="http://www.w3.org/1999/xlink" height="226pt" version="1.1" viewBox="0 0 453 226" width="453pt">
 <defs>
  <clipPath id="pa454808d1b">
   <rect height="226.771653543" width="453.543307087" x="0.0" y="0.0"/>
  </clipPath>
 </defs>
<defs>
  <style type="text/css">
*{stroke-linecap:butt;stroke-linejoin:round;stroke-miterlimit:100000;}
  </style>
 </defs>
 <g id="figure_1">
  <g id="patch_1">
   <path d="M 0 226.771654  L 453.543307 226.771654  L 453.543307 0  L 0 0  z " style="fill:#ffffff;"/>
  </g>
  <g id="axes_1">
   <g id="matplotlib.axis_1"/>
   <g id="matplotlib.axis_2"/>
   <g id="patch_2">
    <path clip-path="url(#pa454808d1b)" d="M 28.346457 73.700787  C 32.856998 73.700787 37.183406 71.908731 40.37284 68.719296  C 43.562274 65.529862 45.354331 61.203454 45.354331 56.692913  C 45.354331 52.182372 43.562274 47.855964 40.37284 44.66653  C 37.183406 41.477096 32.856998 39.685039 28.346457 39.685039  C 23.835916 39.685039 19.509508 41.477096 16.320074 44.66653  C 13.13064 47.855964 11.338583 52.182372 11.338583 56.692913  C 11.338583 61.203454 13.13064 65.529862 16.320074 68.719296  C 19.509508 71.908731 23.835916 73.700787 28.346457 73.700787  L 28.346457 73.700787  z " style="fill:none;stroke:#000000;stroke-linejoin:miter;"/>
   </g>
   <g id="patch_3">
    <path clip-path="url(#pa454808d1b)" d="M 226.771654 130.393701  C 231.282194 130.393701 235.608603 128.601644 238.798037 125.41221  C 241.987471 122.222776 243.779528 117.896368 243.779528 113.385827  C 243.779528 108.875286 241.987471 104.548878 238.798037 101.359444  C 235.608603 98.17001 231.282194 96.377953 226.771654 96.377953  C 222.261113 96.377953 217.934705 98.17001 214.74527 101.359444  C 211.555836 104.548878 209.76378 108.875286 209.76378 113.385827  C 209.76378 117.896368 211.555836 122.222776 214.74527 125.41221  C 217.934705 128.601644 222.261113 130.393701 226.771654 130.393701  L 226.771654 130.393701  z " style="fill:none;stroke:#000000;stroke-linejoin:miter;"/>
   </g>
   <g id="patch_4">
    <path clip-path="url(#pa454808d1b)" d="M 28.346457 187.086614  C 32.856998 187.086614 37.183406 185.294557 40.37284 182.105123  C 43.562274 178.915689 45.354331 174.589281 45.354331 170.07874  C 45.354331 165.568199 43.562274 161.241791 40.37284 158.052357  C 37.183406 154.862923 32.856998 153.070866 28.346457 153.070866  C 23.835916 153.070866 19.509508 154.862923 16.320074 158.052357  C 13.13064 161.241791 11.338583 165.568199 11.338583 170.07874  C 11.338583 174.589281 13.13064 178.915689 16.320074 182.105123  C 19.509508 185.294557 23.835916 187.086614 28.346457 187.086614  L 28.346457 187.086614  z " style="fill:none;stroke:#000000;stroke-linejoin:miter;"/>
   </g>
   <g id="patch_5">
    <path clip-path="url(#pa454808d1b)" d="M 340.15748 130.393701  C 344.668021 130.393701 348.994429 128.601644 352.183863 125.41221  C 355.373297 122.222776 357.165354 117.896368 357.165354 113.385827  C 357.165354 108.875286 355.373297 104.548878 352.183863 101.359444  C 348.994429 98.17001 344.668021 96.377953 340.15748 96.377953  C 335.646939 96.377953 331.320531 98.17001 328.131097 101.359444  C 324.941663 104.548878 323.149606 108.875286 323.149606 113.385827  C 323.149606 117.896368 324.941663 122.222776 328.131097 125.41221  C 331.320531 128.601644 335.646939 130.393701 340.15748 130.393701  L 340.15748 130.393701  z " style="fill:none;stroke:#000000;stroke-linejoin:miter;"/>
   </g>
   <g id="patch_6">
    <path clip-path="url(#pa454808d1b)" d="M 283.464567 73.700787  C 287.975108 73.700787 292.301516 71.908731 295.49095 68.719296  C 298.680384 65.529862 300.472441 61.203454 300.472441 56.692913  C 300.472441 52.182372 298.680384 47.855964 295.49095 44.66653  C 292.301516 41.477096 287.975108 39.685039 283.464567 39.685039  C 278.954026 39.685039 274.627618 41.477096 271.438184 44.66653  C 268.24875 47.855964 266.456693 52.182372 266.456693 56.692913  C 266.456693 61.203454 268.24875 65.529862 271.438184 68.719296  C 274.627618 71.908731 278.954026 73.700787 283.464567 73.700787  L 283.464567 73.700787  z " style="fill:none;stroke:#000000;stroke-linejoin:miter;"/>
   </g>
   <g id="patch_7">
    <path clip-path="url(#pa454808d1b)" d="M 283.464567 130.393701  C 287.975108 130.393701 292.301516 128.601644 295.49095 125.41221  C 298.680384 122.222776 300.472441 117.896368 300.472441 113.385827  C 300.472441 108.875286 298.680384 104.548878 295.49095 101.359444  C 292.301516 98.17001 287.975108 96.377953 283.464567 96.377953  C 278.954026 96.377953 274.627618 98.17001 271.438184 101.359444  C 268.24875 104.548878 266.456693 108.875286 266.456693 113.385827  C 266.456693 117.896368 268.24875 122.222776 271.438184 125.41221  C 274.627618 128.601644 278.954026 130.393701 283.464567 130.393701  L 283.464567 130.393701  z " style="fill:none;stroke:#000000;stroke-linejoin:miter;"/>
   </g>
   <g id="patch_8">
    <path clip-path="url(#pa454808d1b)" d="M 141.732283 187.086614  C 146.242824 187.086614 150.569232 185.294557 153.758667 182.105123  C 156.948101 178.915689 158.740157 174.589281 158.740157 170.07874  C 158.740157 165.568199 156.948101 161.241791 153.758667 158.052357  C 150.569232 154.862923 146.242824 153.070866 141.732283 153.070866  C 137.221743 153.070866 132.895334 154.862923 129.7059 158.052357  C 126.516466 161.241791 124.724409 165.568199 124.724409 170.07874  C 124.724409 174.589281 126.516466 178.915689 129.7059 182.105123  C 132.895334 185.294557 137.221743 187.086614 141.732283 187.086614  L 141.732283 187.086614  z " style="fill:none;stroke:#000000;stroke-linejoin:miter;"/>
   </g>
   <g id="patch_9">
    <path clip-path="url(#pa454808d1b)" d="M 85.03937 187.086614  C 89.549911 187.086614 93.876319 185.294557 97.065753 182.105123  C 100.255187 178.915689 102.047244 174.589281 102.047244 170.07874  C 102.047244 165.568199 100.255187 161.241791 97.065753 158.052357  C 93.876319 154.862923 89.549911 153.070866 85.03937 153.070866  C 80.528829 153.070866 76.202421 154.862923 73.012987 158.052357  C 69.823553 161.241791 68.031496 165.568199 68.031496 170.07874  C 68.031496 174.589281 69.823553 178.915689 73.012987 182.105123  C 76.202421 185.294557 80.528829 187.086614 85.03937 187.086614  L 85.03937 187.086614  z " style="fill:none;stroke:#000000;stroke-linejoin:miter;"/>
   </g>
   <g id="patch_10">
    <path clip-path="url(#pa454808d1b)" d="M 226.771654 73.700787  C 231.282194 73.700787 235.608603 71.908731 238.798037 68.719296  C 241.987471 65.529862 243.779528 61.203454 243.779528 56.692913  C 243.779528 52.182372 241.987471 47.855964 238.798037 44.66653  C 235.608603 41.477096 231.282194 39.685039 226.771654 39.685039  C 222.261113 39.685039 217.934705 41.477096 214.74527 44.66653  C 211.555836 47.855964 209.76378 52.182372 209.76378 56.692913  C 209.76378 61.203454 211.555836 65.529862 214.74527 68.719296  C 217.934705 71.908731 222.261113 73.700787 226.771654 73.700787  L 226.771654 73.700787  z " style="fill:none;stroke:#000000;stroke-linejoin:miter;"/>
   </g>
   <g id="patch_11">
    <path clip-path="url(#pa454808d1b)" d="M 85.03937 130.393701  C 89.549911 130.393701 93.876319 128.601644 97.065753 125.41221  C 100.255187 122.222776 102.047244 117.896368 102.047244 113.385827  C 102.047244 108.875286 100.255187 104.548878 97.065753 101.359444  C 93.876319 98.17001 89.549911 96.377953 85.03937 96.377953  C 80.528829 96.377953 76.202421 98.17001 73.012987 101.359444  C 69.823553 104.548878 68.031496 108.875286 68.031496 113.385827  C 68.031496 117.896368 69.823553 122.222776 73.012987 125.41221  C 76.202421 128.601644 80.528829 130.393701 85.03937 130.393701  L 85.03937 130.393701  z " style="fill:none;stroke:#000000;stroke-linejoin:miter;"/>
   </g>
   <g id="patch_12">
    <path clip-path="url(#pa454808d1b)" d="M 28.346457 130.393701  C 32.856998 130.393701 37.183406 128.601644 40.37284 125.41221  C 43.562274 122.222776 45.354331 117.896368 45.354331 113.385827  C 45.354331 108.875286 43.562274 104.548878 40.37284 101.359444  C 37.183406 98.17001 32.856998 96.377953 28.346457 96.377953  C 23.835916 96.377953 19.509508 98.17001 16.320074 101.359444  C 13.13064 104.548878 11.338583 108.875286 11.338583 113.385827  C 11.338583 117.896368 13.13064 122.222776 16.320074 125.41221  C 19.509508 128.601644 23.835916 130.393701 28.346457 130.393701  L 28.346457 130.393701  z " style="fill:none;stroke:#000000;stroke-linejoin:miter;"/>
   </g>
   <g id="patch_13">
    <path clip-path="url(#pa454808d1b)" d="M 226.771654 187.086614  C 231.282194 187.086614 235.608603 185.294557 238.798037 182.105123  C 241.987471 178.915689 243.779528 174.589281 243.779528 170.07874  C 243.779528 165.568199 241.987471 161.241791 238.798037 158.052357  C 235.608603 154.862923 231.282194 153.070866 226.771654 153.070866  C 222.261113 153.070866 217.934705 154.862923 214.74527 158.052357  C 211.555836 161.241791 209.76378 165.568199 209.76378 170.07874  C 209.76378 174.589281 211.555836 178.915689 214.74527 182.105123  C 217.934705 185.294557 222.261113 187.086614 226.771654 187.086614  L 226.771654 187.086614  z " style="fill:none;stroke:#000000;stroke-linejoin:miter;"/>
   </g>
   <g id="patch_14">
    <path clip-path="url(#pa454808d1b)" d="M 340.15748 187.086614  C 344.668021 187.086614 348.994429 185.294557 352.183863 182.105123  C 355.373297 178.915689 357.165354 174.589281 357.165354 170.07874  C 357.165354 165.568199 355.373297 161.241791 352.183863 158.052357  C 348.994429 154.862923 344.668021 153.070866 340.15748 153.070866  C 335.646939 153.070866 331.320531 154.862923 328.131097 158.052357  C 324.941663 161.241791 323.149606 165.568199 323.149606 170.07874  C 323.149606 174.589281 324.941663 178.915689 328.131097 182.105123  C 331.320531 185.294557 335.646939 187.086614 340.15748 187.086614  L 340.15748 187.086614  z " style="fill:none;stroke:#000000;stroke-linejoin:miter;"/>
   </g>
   <g id="patch_15">
    <path clip-path="url(#pa454808d1b)" d="M 85.03937 73.700787  C 89.549911 73.700787 93.876319 71.908731 97.065753 68.719296  C 100.255187 65.529862 102.047244 61.203454 102.047244 56.692913  C 102.047244 52.182372 100.255187 47.855964 97.065753 44.66653  C 93.876319 41.477096 89.549911 39.685039 85.03937 39.685039  C 80.528829 39.685039 76.202421 41.477096 73.012987 44.66653  C 69.823553 47.855964 68.031496 52.182372 68.031496 56.692913  C 68.031496 61.203454 69.823553 65.529862 73.012987 68.719296  C 76.202421 71.908731 80.528829 73.700787 85.03937 73.700787  L 85.03937 73.700787  z " style="fill:none;stroke:#000000;stroke-linejoin:miter;"/>
   </g>
   <g id="patch_16">
    <path clip-path="url(#pa454808d1b)" d="M 141.732283 73.700787  C 146.242824 73.700787 150.569232 71.908731 153.758667 68.719296  C 156.948101 65.529862 158.740157 61.203454 158.740157 56.692913  C 158.740157 52.182372 156.948101 47.855964 153.758667 44.66653  C 150.569232 41.477096 146.242824 39.685039 141.732283 39.685039  C 137.221743 39.685039 132.895334 41.477096 129.7059 44.66653  C 126.516466 47.855964 124.724409 52.182372 124.724409 56.692913  C 124.724409 61.203454 126.516466 65.529862 129.7059 68.719296  C 132.895334 71.908731 137.221743 73.700787 141.732283 73.700787  L 141.732283 73.700787  z " style="fill:none;stroke:#000000;stroke-linejoin:miter;"/>
   </g>
   <g id="patch_17">
    <path clip-path="url(#pa454808d1b)" d="M 283.464567 187.086614  C 287.975108 187.086614 292.301516 185.294557 295.49095 182.105123  C 298.680384 178.915689 300.472441 174.589281 300.472441 170.07874  C 300.472441 165.568199 298.680384 161.241791 295.49095 158.052357  C 292.301516 154.862923 287.975108 153.070866 283.464567 153.070866  C 278.954026 153.070866 274.627618 154.862923 271.438184 158.052357  C 268.24875 161.241791 266.456693 165.568199 266.456693 170.07874  C 266.456693 174.589281 268.24875 178.915689 271.438184 182.105123  C 274.627618 185.294557 278.954026 187.086614 283.464567 187.086614  L 283.464567 187.086614  z " style="fill:none;stroke:#000000;stroke-linejoin:miter;"/>
   </g>
   <g id="patch_18">
    <path clip-path="url(#pa454808d1b)" d="M 340.15748 73.700787  C 344.668021 73.700787 348.994429 71.908731 352.183863 68.719296  C 355.373297 65.529862 357.165354 61.203454 357.165354 56.692913  C 357.165354 52.182372 355.373297 47.855964 352.183863 44.66653  C 348.994429 41.477096 344.668021 39.685039 340.15748 39.685039  C 335.646939 39.685039 331.320531 41.477096 328.131097 44.66653  C 324.941663 47.855964 323.149606 52.182372 323.149606 56.692913  C 323.149606 61.203454 324.941663 65.529862 328.131097 68.719296  C 331.320531 71.908731 335.646939 73.700787 340.15748 73.700787  L 340.15748 73.700787  z " style="fill:none;stroke:#000000;stroke-linejoin:miter;"/>
   </g>
   <g id="patch_19">
    <path clip-path="url(#pa454808d1b)" d="M 141.732283 130.393701  C 146.242824 130.393701 150.569232 128.601644 153.758667 125.41221  C 156.948101 122.222776 158.740157 117.896368 158.740157 113.385827  C 158.740157 108.875286 156.948101 104.548878 153.758667 101.359444  C 150.569232 98.17001 146.242824 96.377953 141.732283 96.377953  C 137.221743 96.377953 132.895334 98.17001 129.7059 101.359444  C 126.516466 104.548878 124.724409 108.875286 124.724409 113.385827  C 124.724409 117.896368 126.516466 122.222776 129.7059 125.41221  C 132.895334 128.601644 137.221743 130.393701 141.732283 130.393701  L 141.732283 130.393701  z " style="fill:none;stroke:#000000;stroke-linejoin:miter;"/>
   </g>
   <g id="line2d_1">
    <path clip-path="url(#pa454808d1b)" d="M 45.354331 56.692913  L 68.031496 56.692913  " style="fill:none;stroke:#000000;stroke-linecap:round;"/>
   </g>
   <g id="line2d_2">
    <path clip-path="url(#pa454808d1b)" d="M 102.047244 56.692913  L 124.724409 56.692913  " style="fill:none;stroke:#000000;stroke-linecap:round;"/>
   </g>
   <g id="line2d_3">
    <path clip-path="url(#pa454808d1b)" d="M 28.346457 73.700787  L 28.346457 96.377953  " style="fill:none;stroke:#000000;stroke-linecap:round;"/>
   </g>
   <g id="line2d_4">
    <path clip-path="url(#pa454808d1b)" d="M 85.03937 73.700787  L 85.03937 96.377953  " style="fill:none;stroke:#000000;stroke-linecap:round;"/>
   </g>
   <g id="line2d_5">
    <path clip-path="url(#pa454808d1b)" d="M 141.732283 73.700787  L 141.732283 96.377953  " style="fill:none;stroke:#000000;stroke-linecap:round;"/>
   </g>
   <g id="line2d_6">
    <path clip-path="url(#pa454808d1b)" d="M 45.354331 113.385827  L 68.031496 113.385827  " style="fill:none;stroke:#000000;stroke-linecap:round;"/>
   </g>
   <g id="line2d_7">
    <path clip-path="url(#pa454808d1b)" d="M 102.047244 113.385827  L 124.724409 113.385827  " style="fill:none;stroke:#000000;stroke-linecap:round;"/>
   </g>
   <g id="line2d_8">
    <path clip-path="url(#pa454808d1b)" d="M 28.346457 130.393701  L 28.346457 153.070866  " style="fill:none;stroke:#000000;stroke-linecap:round;"/>
   </g>
   <g id="line2d_9">
    <path clip-path="url(#pa454808d1b)" d="M 85.03937 130.393701  L 85.03937 153.070866  " style="fill:none;stroke:#000000;stroke-linecap:round;"/>
   </g>
   <g id="line2d_10">
    <path clip-path="url(#pa454808d1b)" d="M 141.732283 130.393701  L 141.732283 153.070866  " style="fill:none;stroke:#000000;stroke-linecap:round;"/>
   </g>
   <g id="line2d_11">
    <path clip-path="url(#pa454808d1b)" d="M 45.354331 170.07874  L 68.031496 170.07874  " style="fill:none;stroke:#000000;stroke-linecap:round;"/>
   </g>
   <g id="line2d_12">
    <path clip-path="url(#pa454808d1b)" d="M 102.047244 170.07874  L 124.724409 170.07874  " style="fill:none;stroke:#000000;stroke-linecap:round;"/>
   </g>
   <g id="line2d_13">
    <path clip-path="url(#pa454808d1b)" d="M 243.779528 56.692913  L 266.456693 56.692913  " style="fill:none;stroke:#000000;stroke-linecap:round;"/>
   </g>
   <g id="line2d_14">
    <path clip-path="url(#pa454808d1b)" d="M 300.472441 56.692913  L 323.149606 56.692913  " style="fill:none;stroke:#000000;stroke-linecap:round;"/>
   </g>
   <g id="line2d_15">
    <path clip-path="url(#pa454808d1b)" d="M 283.464567 73.700787  L 283.464567 96.377953  " style="fill:none;stroke:#000000;stroke-linecap:round;"/>
   </g>
   <g id="line2d_16">
    <path clip-path="url(#pa454808d1b)" d="M 243.779528 113.385827  L 266.456693 113.385827  " style="fill:none;stroke:#000000;stroke-linecap:round;"/>
   </g>
   <g id="line2d_17">
    <path clip-path="url(#pa454808d1b)" d="M 226.771654 130.393701  L 226.771654 153.070866  " style="fill:none;stroke:#000000;stroke-linecap:round;"/>
   </g>
   <g id="line2d_18">
    <path clip-path="url(#pa454808d1b)" d="M 243.779528 170.07874  L 266.456693 170.07874  " style="fill:none;stroke:#000000;stroke-linecap:round;"/>
   </g>
   <g id="line2d_19">
    <path clip-path="url(#pa454808d1b)" d="M 300.472441 170.07874  L 323.149606 170.07874  " style="fill:none;stroke:#000000;stroke-linecap:round;"/>
   </g>
   <g id="line2d_20">
    <path clip-path="url(#pa454808d1b)" d="M 340.15748 153.070866  L 340.15748 130.393701  " style="fill:none;stroke:#000000;stroke-linecap:round;"/>
   </g>
   <g id="text_1">
    <!-- A -->
    <defs>
     <path d="M 26.09375 61.40625  L 33.5 61.40625  L 57.5 0  L 49.5 0  L 42.40625 18.5  L 17.09375 18.5  L 10.09375 0  L 2.09375 0  z M 29.703125 51.59375  L 19.703125 25.40625  L 39.703125 25.40625  z " id="CalibreRegular-41"/>
    </defs>
    <g style="fill:#262626;" transform="translate(22.9830191929 61.0129133858)scale(0.18 -0.18)">
     <use xlink:href="#CalibreRegular-41"/>
    </g>
   </g>
   <g id="text_2">
    <!-- D -->
    <defs>
     <path d="M 15.203125 7.09375  L 26.90625 7.09375  Q 37.296875 7.09375 43.140625 13.4375  Q 49 19.796875 49 30.6875  Q 49 41.59375 43.09375 48  Q 37.203125 54.40625 26.90625 54.40625  L 15.203125 54.40625  z M 7.296875 0  L 7.296875 61.40625  L 27 61.40625  Q 40.5 61.40625 48.640625 53.046875  Q 56.796875 44.703125 56.796875 30.703125  Q 56.796875 16.703125 48.640625 8.34375  Q 40.5 0 27 0  z " id="CalibreRegular-44"/>
    </defs>
    <g style="fill:#262626;" transform="translate(221.326653543 117.705826772)scale(0.18 -0.18)">
     <use xlink:href="#CalibreRegular-44"/>
    </g>
   </g>
   <g id="text_3">
    <!-- G -->
    <defs>
     <path d="M 49.796875 23.5  L 35.09375 23.5  L 35.09375 30.296875  L 57.296875 30.296875  L 57.296875 26.09375  Q 57.296875 13.90625 50.25 6.5  Q 43.203125 -0.90625 31.90625 -0.90625  Q 19.703125 -0.90625 11.703125 7.796875  Q 3.703125 16.5 3.703125 30.703125  Q 3.703125 44.796875 11.703125 53.546875  Q 19.703125 62.296875 31.703125 62.296875  Q 41.296875 62.296875 47.640625 57.1875  Q 54 52.09375 55.90625 43.40625  L 48 43.40625  Q 43.703125 55.203125 31.703125 55.203125  Q 22.703125 55.203125 17.140625 48.453125  Q 11.59375 41.703125 11.59375 30.703125  Q 11.59375 19.703125 17.1875 12.890625  Q 22.796875 6.09375 31.90625 6.09375  Q 39.796875 6.09375 44.4375 10.75  Q 49.09375 15.40625 49.796875 23.5  " id="CalibreRegular-47"/>
    </defs>
    <g style="fill:#262626;" transform="translate(22.8564566929 174.398740157)scale(0.18 -0.18)">
     <use xlink:href="#CalibreRegular-47"/>
    </g>
   </g>
   <g id="text_4">
    <!-- F -->
    <defs>
     <path d="M 15.203125 0  L 7.296875 0  L 7.296875 61.40625  L 44.796875 61.40625  L 44.796875 54.40625  L 15.203125 54.40625  L 15.203125 33.703125  L 43 33.703125  L 43 26.703125  L 15.203125 26.703125  z " id="CalibreRegular-46"/>
    </defs>
    <g style="fill:#262626;" transform="translate(335.792480315 117.705826772)scale(0.18 -0.18)">
     <use xlink:href="#CalibreRegular-46"/>
    </g>
   </g>
   <g id="text_5">
    <!-- B -->
    <defs>
     <path d="M 38.796875 31.796875  Q 43.703125 30.5 46.796875 26.5  Q 49.90625 22.5 49.90625 17.296875  Q 49.90625 9 44.5 4.5  Q 39.09375 0 29.5 0  L 7.296875 0  L 7.296875 61.40625  L 27.5 61.40625  Q 37.09375 61.40625 42.4375 57.203125  Q 47.796875 53 47.796875 45.09375  Q 47.796875 39.90625 45.25 36.453125  Q 42.703125 33 38.796875 31.796875  M 15 34.703125  L 27.5 34.703125  Q 40.203125 34.703125 40.203125 44.703125  Q 40.203125 54.5 27.5 54.5  L 15 54.5  z M 15 28.09375  L 15 6.90625  L 29.5 6.90625  Q 35.59375 6.90625 38.890625 9.75  Q 42.203125 12.59375 42.203125 17.5  Q 42.203125 22.5 38.890625 25.296875  Q 35.59375 28.09375 29.5 28.09375  z " id="CalibreRegular-42"/>
    </defs>
    <g style="fill:#262626;" transform="translate(278.622848179 61.0129133858)scale(0.18 -0.18)">
     <use xlink:href="#CalibreRegular-42"/>
    </g>
   </g>
   <g id="text_6">
    <!-- E -->
    <defs>
     <path d="M 7.296875 61.40625  L 46.40625 61.40625  L 46.40625 54.40625  L 15.09375 54.40625  L 15.09375 35  L 43.5 35  L 43.5 28  L 15.09375 28  L 15.09375 7.09375  L 46.40625 7.09375  L 46.40625 0  L 7.296875 0  z " id="CalibreRegular-45"/>
    </defs>
    <g style="fill:#262626;" transform="translate(278.829566929 117.705826772)scale(0.18 -0.18)">
     <use xlink:href="#CalibreRegular-45"/>
    </g>
   </g>
   <g id="text_7">
    <!-- I -->
    <defs>
     <path d="M 15.203125 61.40625  L 15.203125 0  L 7.296875 0  L 7.296875 61.40625  z " id="CalibreRegular-49"/>
    </defs>
    <g style="fill:#262626;" transform="translate(139.707283465 174.398740157)scale(0.18 -0.18)">
     <use xlink:href="#CalibreRegular-49"/>
    </g>
   </g>
   <g id="text_8">
    <!-- H -->
    <defs>
     <path d="M 49.90625 61.40625  L 57.796875 61.40625  L 57.796875 0  L 49.90625 0  L 49.90625 28  L 15.203125 28  L 15.203125 0  L 7.296875 0  L 7.296875 61.40625  L 15.203125 61.40625  L 15.203125 35.09375  L 49.90625 35.09375  z " id="CalibreRegular-48"/>
    </defs>
    <g style="fill:#262626;" transform="translate(79.1809325787 174.398740157)scale(0.18 -0.18)">
     <use xlink:href="#CalibreRegular-48"/>
    </g>
   </g>
   <g id="text_9">
    <!-- A -->
    <g style="fill:#262626;" transform="translate(221.408216043 61.0129133858)scale(0.18 -0.18)">
     <use xlink:href="#CalibreRegular-41"/>
    </g>
   </g>
   <g id="text_10">
    <!-- E -->
    <g style="fill:#262626;" transform="translate(80.4043700787 117.705826772)scale(0.18 -0.18)">
     <use xlink:href="#CalibreRegular-45"/>
    </g>
   </g>
   <g id="text_11">
    <!-- D -->
    <g style="fill:#262626;" transform="translate(22.9014566929 117.705826772)scale(0.18 -0.18)">
     <use xlink:href="#CalibreRegular-44"/>
    </g>
   </g>
   <g id="text_12">
    <!-- G -->
    <g style="fill:#262626;" transform="translate(221.281653543 174.398740157)scale(0.18 -0.18)">
     <use xlink:href="#CalibreRegular-47"/>
    </g>
   </g>
   <g id="text_13">
    <!-- I -->
    <g style="fill:#262626;" transform="translate(338.132480315 174.398740157)scale(0.18 -0.18)">
     <use xlink:href="#CalibreRegular-49"/>
    </g>
   </g>
   <g id="text_14">
    <!-- B -->
    <g style="fill:#262626;" transform="translate(80.1976513287 61.0129133858)scale(0.18 -0.18)">
     <use xlink:href="#CalibreRegular-42"/>
    </g>
   </g>
   <g id="text_15">
    <!-- C -->
    <defs>
     <path d="M 19.40625 -0.90625  Q 3.703125 16.59375 3.703125 30.6875  Q 3.703125 44.796875 11.546875 53.546875  Q 19.40625 62.296875 31.203125 62.296875  Q 40.703125 62.296875 46.953125 57.1875  Q 53.203125 52.09375 55.09375 43.40625  L 47.296875 43.40625  Q 43.09375 55.203125 31.203125 55.203125  Q 22.40625 55.203125 17 48.453125  Q 11.59375 41.703125 11.59375 30.703125  Q 11.59375 19.796875 17 13  Q 22.40625 6.203125 31.203125 6.203125  Q 43.203125 6.203125 47.296875 18.09375  L 55.09375 18.09375  Q 53.203125 9.296875 46.953125 4.1875  Q 40.703125 -0.90625 31.203125 -0.90625  Q 19.40625 -0.90625 3.703125 16.59375  " id="CalibreRegular-43"/>
    </defs>
    <g style="fill:#262626;" transform="translate(136.458845965 61.0129133858)scale(0.18 -0.18)">
     <use xlink:href="#CalibreRegular-43"/>
    </g>
   </g>
   <g id="text_16">
    <!-- H -->
    <g style="fill:#262626;" transform="translate(277.606129429 174.398740157)scale(0.18 -0.18)">
     <use xlink:href="#CalibreRegular-48"/>
    </g>
   </g>
   <g id="text_17">
    <!-- C -->
    <g style="fill:#262626;" transform="translate(334.884042815 61.0129133858)scale(0.18 -0.18)">
     <use xlink:href="#CalibreRegular-43"/>
    </g>
   </g>
   <g id="text_18">
    <!-- F -->
    <g style="fill:#262626;" transform="translate(137.367283465 117.705826772)scale(0.18 -0.18)">
     <use xlink:href="#CalibreRegular-46"/>
    </g>
   </g>
  </g>
 </g>
 </svg>
