<?xml version="1.0" encoding="iso-8859-1"?>
<!-- Generator: Adobe Illustrator 16.0.0, SVG Export Plug-In . SVG Version: 6.00 Build 0)  -->
<!DOCTYPE svg PUBLIC "-//W3C//DTD SVG 1.1//EN" "http://www.w3.org/Graphics/SVG/1.1/DTD/svg11.dtd">
<svg version="1.1" id="Layer_1" xmlns="http://www.w3.org/2000/svg" xmlns:xlink="http://www.w3.org/1999/xlink" x="0px" y="0px"
	 width="330.037px" height="198.846px" viewBox="0 0 330.037 198.846" style="enable-background:new 0 0 330.037 198.846;"
	 xml:space="preserve">
<path style="fill:#C2F4FF;stroke:#41C8F7;stroke-miterlimit:10;" d="M59.265,18.672c53.047,0,112.532-37.512,131.286,0
	c18.757,37.509,37.511,18.754,56.266,56.264c18.758,37.51,18.758,93.777-18.755,93.777c-37.511,0-56.265-37.509-93.776,0
	c-37.509,37.511-93.775,37.511-93.775,0c0-37.509-37.511-68.526-37.511-93.777C2.999,55.044,40.51,18.672,59.265,18.672z"/>
<path style="fill:#FF6E6E;stroke:#F24444;stroke-linecap:round;stroke-linejoin:round;stroke-miterlimit:10;" d="M90.34,56.181
	c18.755-18.755,37.511-18.755,37.511,0s37.51,0,37.51,18.755c0,18.755,18.756,37.51,0,37.51c-18.754,0-37.51,37.511-56.266,18.758
	C90.34,112.446,71.586,74.936,90.34,56.181z"/>
<g>
	<rect x="105.033" y="83.27" style="fill:none;" width="37.511" height="37.513"/>
	<path style="fill:#FFFFFF;" d="M124.474,103.074h-1.401l-7.374-18.708h1.615l6.459,16.576l6.521-16.576h1.584L124.474,103.074z"/>
</g>
<g>
	<g>
		<rect x="24.351" y="51.839" style="fill:none;" width="37.508" height="37.509"/>
		<path style="fill:#3EC5DB;" d="M43.18,63.386h-4.479v8.257h-1.554V52.935h6.612c1.848,0,3.291,0.452,4.327,1.356
			c1.036,0.904,1.554,2.199,1.554,3.885c0,1.503-0.417,2.692-1.25,3.565c-0.833,0.874-2.001,1.402-3.504,1.584l5.637,8.318h-1.798
			L43.18,63.386z M38.701,54.337v7.678h4.997c1.422,0,2.514-0.335,3.275-1.005s1.143-1.615,1.143-2.834
			c0-1.239-0.381-2.188-1.143-2.849s-1.854-0.99-3.275-0.99H38.701z"/>
	</g>
	<g>
		<rect x="37.817" y="43.955" style="fill:none;" width="37.508" height="37.51"/>
		<path style="fill:#3EC5DB;" d="M53.108,57.158v-9.019h1.016v1.442c0.297-0.46,0.701-0.846,1.208-1.158
			c0.508-0.311,1.066-0.467,1.676-0.467c1.002,0,1.774,0.294,2.316,0.883c0.542,0.589,0.812,1.371,0.812,2.346v5.972h-0.996v-5.83
			c0-0.731-0.193-1.32-0.579-1.767c-0.386-0.447-0.965-0.67-1.737-0.67c-0.596,0-1.138,0.183-1.625,0.549
			c-0.488,0.365-0.847,0.833-1.077,1.401v6.317H53.108z"/>
	</g>
</g>
<g>
	<g>
		<path style="fill:none;stroke:#FFFA5A;stroke-width:2;stroke-linecap:round;stroke-linejoin:round;" d="M238.065,36.468
			c-42.351,6.49-43.504,45.474-84.15,56.679"/>
		<g>
			<polygon style="fill:#FFFA5A;" points="157.88,83.323 159.609,84.333 154.627,92.843 163.48,97.19 162.596,98.986 
				151.815,93.689 			"/>
		</g>
	</g>
</g>
<g>
	<rect x="233.069" y="28.501" style="fill:none;" width="94.47" height="47.234"/>
	<path d="M242.848,38.657h1.076c0.244,0.745,0.677,1.313,1.3,1.706c0.623,0.393,1.368,0.589,2.235,0.589
		c0.92,0,1.668-0.224,2.244-0.67c0.575-0.447,0.863-1.056,0.863-1.828c0-1.138-0.718-1.91-2.153-2.316l-2.376-0.67
		c-0.948-0.257-1.663-0.619-2.144-1.086s-0.721-1.121-0.721-1.96c0-1.029,0.379-1.849,1.137-2.458
		c0.759-0.609,1.693-0.914,2.804-0.914c1.178,0,2.14,0.281,2.885,0.843c0.744,0.562,1.245,1.324,1.503,2.285h-1.036
		c-0.515-1.462-1.632-2.194-3.352-2.194c-0.84,0-1.541,0.213-2.103,0.64c-0.562,0.427-0.843,1.006-0.843,1.737
		c0,0.623,0.186,1.09,0.559,1.402c0.372,0.312,0.979,0.583,1.818,0.812l2.092,0.609c1.016,0.284,1.761,0.688,2.234,1.208
		c0.474,0.521,0.711,1.195,0.711,2.021c0,1.07-0.386,1.916-1.158,2.539c-0.771,0.623-1.76,0.934-2.965,0.934
		c-1.165,0-2.164-0.284-2.997-0.853C243.63,40.465,243.091,39.673,242.848,38.657z"/>
	<path d="M260.886,32.685v9.019h-0.995v-1.442c-0.298,0.46-0.697,0.847-1.198,1.158c-0.501,0.311-1.057,0.467-1.666,0.467
		c-1.002,0-1.774-0.294-2.315-0.883c-0.542-0.589-0.812-1.371-0.812-2.346v-5.972h0.995v5.83c0,0.731,0.193,1.32,0.579,1.767
		s0.965,0.67,1.736,0.67c0.596,0,1.135-0.183,1.615-0.548c0.48-0.366,0.836-0.833,1.066-1.402v-6.317H260.886z"/>
	<path d="M264.928,40.363v1.341h-0.995V28.5h0.995v5.525c0.271-0.42,0.66-0.779,1.168-1.077s1.053-0.447,1.635-0.447
		c1.273,0,2.248,0.45,2.926,1.351c0.677,0.901,1.016,2.015,1.016,3.342s-0.339,2.441-1.016,3.341
		c-0.678,0.901-1.652,1.351-2.926,1.351c-0.582,0-1.127-0.149-1.635-0.447S265.198,40.783,264.928,40.363z M264.928,35.224v3.941
		c0.298,0.569,0.688,1.009,1.168,1.32s0.998,0.467,1.554,0.467c0.921,0,1.652-0.349,2.194-1.046
		c0.541-0.697,0.812-1.601,0.812-2.711s-0.271-2.015-0.812-2.712c-0.542-0.697-1.273-1.046-2.194-1.046
		c-0.556,0-1.073,0.156-1.554,0.467S265.226,34.655,264.928,35.224z"/>
	<path d="M273.216,39.368h1.016c0.365,1.097,1.205,1.646,2.519,1.646c0.65,0,1.179-0.143,1.585-0.427s0.609-0.697,0.609-1.239
		c0-0.758-0.556-1.293-1.666-1.604l-1.686-0.467c-1.422-0.379-2.133-1.138-2.133-2.275c0-0.758,0.291-1.364,0.873-1.818
		c0.582-0.454,1.307-0.68,2.174-0.68c0.921,0,1.669,0.217,2.244,0.65c0.575,0.434,0.944,1.036,1.107,1.808h-0.995
		c-0.353-1.056-1.138-1.584-2.356-1.584c-0.597,0-1.091,0.139-1.483,0.417c-0.393,0.278-0.589,0.667-0.589,1.168
		c0,0.406,0.125,0.711,0.376,0.914c0.25,0.203,0.667,0.386,1.249,0.549l1.604,0.447c1.504,0.393,2.255,1.212,2.255,2.458
		c0,0.799-0.298,1.425-0.894,1.879s-1.361,0.68-2.295,0.68c-0.922,0-1.703-0.223-2.347-0.67
		C273.74,40.77,273.351,40.154,273.216,39.368z"/>
	<path d="M283.311,40.363v4.794h-1.016V32.685h1.016v1.341c0.271-0.42,0.66-0.779,1.168-1.077s1.053-0.447,1.635-0.447
		c1.26,0,2.231,0.45,2.915,1.351c0.684,0.901,1.026,2.015,1.026,3.342s-0.343,2.441-1.026,3.341
		c-0.684,0.901-1.655,1.351-2.915,1.351c-0.582,0-1.127-0.149-1.635-0.447S283.581,40.783,283.311,40.363z M283.311,35.224v3.941
		c0.623,1.192,1.523,1.788,2.701,1.788c0.935,0,1.673-0.349,2.215-1.046c0.541-0.697,0.812-1.601,0.812-2.711
		s-0.271-2.015-0.812-2.712c-0.542-0.697-1.28-1.046-2.215-1.046C284.834,33.437,283.934,34.033,283.311,35.224z"/>
	<path d="M298.566,41.704h-0.976v-0.853c-0.217,0.257-0.556,0.487-1.016,0.69s-0.954,0.305-1.482,0.305
		c-0.948,0-1.74-0.254-2.377-0.762s-0.955-1.181-0.955-2.021c0-0.812,0.325-1.476,0.976-1.991c0.649-0.515,1.449-0.772,2.396-0.772
		c0.488,0,0.962,0.099,1.422,0.294c0.461,0.197,0.806,0.417,1.036,0.66v-1.604c0-0.677-0.2-1.222-0.599-1.635
		c-0.4-0.413-0.952-0.62-1.656-0.62c-1.124,0-1.855,0.515-2.193,1.544h-0.995c0.176-0.758,0.552-1.354,1.127-1.788
		c0.575-0.433,1.263-0.65,2.062-0.65c1.002,0,1.791,0.281,2.367,0.843c0.575,0.562,0.863,1.317,0.863,2.265V41.704z M297.591,39.652
		v-1.158c-0.149-0.393-0.45-0.714-0.903-0.965c-0.454-0.25-0.952-0.376-1.493-0.376c-0.69,0-1.276,0.166-1.758,0.498
		c-0.48,0.332-0.721,0.802-0.721,1.412s0.24,1.083,0.721,1.422c0.481,0.338,1.067,0.508,1.758,0.508
		c0.541,0,1.039-0.125,1.493-0.376C297.141,40.367,297.441,40.045,297.591,39.652z"/>
	<path d="M301.938,40.587c-0.73-0.867-1.097-1.998-1.097-3.392c0-1.395,0.366-2.526,1.097-3.393c0.731-0.866,1.693-1.3,2.885-1.3
		c0.935,0,1.703,0.254,2.306,0.762s0.985,1.188,1.147,2.042h-1.036c-0.135-0.596-0.413-1.06-0.832-1.392
		c-0.42-0.332-0.948-0.498-1.585-0.498c-0.88,0-1.595,0.345-2.143,1.036c-0.549,0.691-0.823,1.605-0.823,2.743
		c0,1.137,0.274,2.051,0.823,2.742c0.548,0.69,1.263,1.036,2.143,1.036c0.637,0,1.165-0.166,1.585-0.498
		c0.419-0.332,0.697-0.795,0.832-1.392h1.036c-0.162,0.854-0.545,1.534-1.147,2.042s-1.371,0.762-2.306,0.762
		C303.631,41.887,302.669,41.454,301.938,40.587z"/>
	<path d="M316.4,39.083h0.976c-0.177,0.854-0.572,1.534-1.188,2.042s-1.385,0.762-2.306,0.762c-1.191,0-2.156-0.433-2.895-1.3
		s-1.107-1.998-1.107-3.392c0-1.368,0.362-2.492,1.087-3.372s1.689-1.32,2.895-1.32c1.165,0,2.065,0.403,2.702,1.208
		c0.636,0.806,0.954,1.872,0.954,3.199v0.366h-6.643c0.014,1.138,0.298,2.042,0.854,2.712s1.272,1.005,2.153,1.005
		c0.637,0,1.182-0.169,1.635-0.508C315.971,40.147,316.265,39.68,316.4,39.083z M313.861,33.396c-0.812,0-1.479,0.278-2.001,0.833
		s-0.836,1.307-0.944,2.254h5.586c-0.027-0.866-0.264-1.598-0.711-2.193C315.345,33.694,314.701,33.396,313.861,33.396z"/>
</g>
<g>
</g>
<g>
</g>
<g>
</g>
<g>
</g>
<g>
</g>
<g>
</g>
<g>
</g>
</svg>
