<?xml version="1.0" encoding="utf-8"?>
<!-- Generator: Adobe Illustrator 16.0.0, SVG Export Plug-In . SVG Version: 6.00 Build 0)  -->
<!DOCTYPE svg PUBLIC "-//W3C//DTD SVG 1.1 Tiny//EN" "http://www.w3.org/Graphics/SVG/1.1/DTD/svg11-tiny.dtd">
<svg version="1.1" baseProfile="tiny" id="Layer_1" xmlns="http://www.w3.org/2000/svg" xmlns:xlink="http://www.w3.org/1999/xlink"
	 x="0px" y="0px" width="371.037px" height="192.841px" viewBox="0 0 371.037 192.841" xml:space="preserve">
<path fill="#C2F4FF" stroke="#41C8F7" stroke-miterlimit="10" d="M55.899,16.915c52.229,0,110.797-36.934,129.262,0
	c18.467,36.931,36.933,18.465,55.398,55.396c18.468,36.932,18.468,92.331-18.466,92.331c-36.933,0-55.397-36.931-92.331,0
	c-36.931,36.933-92.33,36.933-92.33,0c0-36.931-36.933-67.47-36.933-92.331C0.5,52.726,37.433,16.915,55.899,16.915z"/>
<path fill="#FF6E6E" stroke="#F24444" stroke-linecap="round" stroke-linejoin="round" stroke-miterlimit="10" d="M86.495,53.845
	c18.466-18.466,36.933-18.466,36.933,0s36.932,0,36.932,18.466c0,18.467,18.467,36.932,0,36.932
	c-18.465,0-36.932,36.934-55.398,18.469C86.495,109.243,68.03,72.311,86.495,53.845z"/>
<g>
	<rect x="104.961" y="80.517" fill="none" width="36.934" height="36.934"/>
	<path fill="#FFFFFF" d="M123.936,95.187h-1.038l-5.462-13.857h1.195l4.785,12.277l4.83-12.277h1.174L123.936,95.187z"/>
</g>
<g>
	<rect x="21.522" y="49.57" fill="none" width="36.931" height="36.932"/>
	<path fill="#65CDE5" d="M40.044,58.124h-3.318v6.116h-1.15V50.382h4.897c1.369,0,2.438,0.335,3.205,1.004
		c0.768,0.67,1.15,1.629,1.15,2.878c0,1.113-0.309,1.994-0.925,2.641c-0.617,0.646-1.482,1.038-2.596,1.174l4.176,6.161h-1.332
		L40.044,58.124z M36.726,51.42v5.688h3.702c1.053,0,1.861-0.248,2.426-0.745c0.564-0.496,0.847-1.196,0.847-2.099
		c0-0.918-0.282-1.621-0.847-2.11s-1.373-0.733-2.426-0.733H36.726z"/>
</g>
<g>
	<rect x="31.781" y="45.808" fill="none" width="36.931" height="36.932"/>
	<path fill="#65CDE5" d="M47.754,55.312v-6.491h0.73v1.038c0.215-0.331,0.505-0.609,0.87-0.833c0.365-0.225,0.768-0.337,1.206-0.337
		c0.722,0,1.277,0.213,1.667,0.637s0.585,0.986,0.585,1.688v4.298h-0.717v-4.195c0-0.526-0.139-0.951-0.417-1.272
		c-0.277-0.321-0.694-0.482-1.25-0.482c-0.429,0-0.818,0.132-1.169,0.395c-0.351,0.264-0.609,0.6-0.775,1.009v4.547H47.754z"/>
</g>
<g>
	<path fill="none" stroke="#FFFA5A" stroke-linecap="round" stroke-linejoin="round" d="M286.204,26.146
		c-42.052,6.444-96.214,53.581-138.133,64.369"/>
	<g>
		<polygon fill="#FFFA5A" points="150.209,85.687 151.058,86.217 148.441,90.396 152.801,92.701 152.332,93.585 147.023,90.777 		
			"/>
	</g>
</g>
<g>
	<rect x="278.023" y="19.306" fill="none" width="93.014" height="46.506"/>
	<path d="M292.181,28.079h0.93c0.211,0.644,0.585,1.135,1.123,1.474c0.538,0.34,1.181,0.509,1.93,0.509
		c0.795,0,1.441-0.192,1.938-0.579c0.497-0.386,0.746-0.912,0.746-1.578c0-0.982-0.62-1.649-1.86-2l-2.053-0.579
		c-0.818-0.222-1.436-0.535-1.851-0.938s-0.622-0.968-0.622-1.693c0-0.889,0.327-1.596,0.982-2.122
		c0.654-0.526,1.461-0.79,2.421-0.79c1.018,0,1.848,0.243,2.491,0.729c0.643,0.485,1.075,1.143,1.298,1.974h-0.895
		c-0.445-1.264-1.41-1.895-2.895-1.895c-0.726,0-1.331,0.184-1.816,0.552c-0.485,0.369-0.728,0.869-0.728,1.5
		c0,0.538,0.16,0.942,0.482,1.211c0.321,0.27,0.845,0.503,1.57,0.701l1.807,0.526c0.877,0.246,1.521,0.594,1.93,1.044
		s0.614,1.032,0.614,1.746c0,0.924-0.334,1.655-1,2.192c-0.667,0.538-1.521,0.808-2.562,0.808c-1.006,0-1.868-0.246-2.588-0.737
		C292.856,29.64,292.392,28.957,292.181,28.079z"/>
	<path d="M307.759,22.921v7.789h-0.859v-1.245c-0.257,0.397-0.603,0.73-1.035,0.999c-0.433,0.27-0.912,0.404-1.438,0.404
		c-0.865,0-1.532-0.255-2-0.764s-0.701-1.184-0.701-2.026v-5.157h0.859v5.035c0,0.631,0.167,1.14,0.5,1.525
		c0.333,0.387,0.833,0.579,1.5,0.579c0.515,0,0.979-0.157,1.395-0.474c0.415-0.315,0.722-0.719,0.921-1.21v-5.456H307.759z"/>
	<path d="M311.251,29.552v1.158h-0.86V19.307h0.86v4.771c0.233-0.362,0.57-0.672,1.009-0.93c0.438-0.257,0.909-0.386,1.412-0.386
		c1.099,0,1.941,0.389,2.526,1.167c0.584,0.777,0.877,1.739,0.877,2.886s-0.293,2.108-0.877,2.886
		c-0.585,0.778-1.428,1.167-2.526,1.167c-0.503,0-0.974-0.129-1.412-0.387C311.821,30.225,311.484,29.916,311.251,29.552z
		 M311.251,25.114v3.403c0.257,0.491,0.593,0.872,1.009,1.141c0.415,0.27,0.862,0.403,1.342,0.403c0.795,0,1.427-0.301,1.895-0.903
		s0.702-1.383,0.702-2.342s-0.234-1.739-0.702-2.342s-1.1-0.904-1.895-0.904c-0.479,0-0.927,0.135-1.342,0.404
		C311.844,24.243,311.508,24.623,311.251,25.114z"/>
	<path d="M318.407,28.693h0.877c0.316,0.947,1.041,1.421,2.176,1.421c0.562,0,1.018-0.123,1.368-0.368
		c0.351-0.246,0.526-0.603,0.526-1.07c0-0.654-0.479-1.116-1.438-1.386l-1.456-0.403c-1.229-0.327-1.842-0.982-1.842-1.965
		c0-0.655,0.251-1.179,0.754-1.57s1.129-0.588,1.877-0.588c0.795,0,1.441,0.188,1.938,0.562s0.816,0.895,0.956,1.562h-0.859
		c-0.305-0.912-0.982-1.368-2.035-1.368c-0.515,0-0.941,0.12-1.28,0.359c-0.34,0.239-0.509,0.576-0.509,1.009
		c0,0.351,0.107,0.614,0.324,0.789c0.217,0.176,0.576,0.334,1.079,0.474l1.386,0.386c1.298,0.34,1.947,1.047,1.947,2.123
		c0,0.69-0.257,1.231-0.771,1.623s-1.176,0.588-1.982,0.588c-0.796,0-1.471-0.193-2.026-0.579S318.524,29.372,318.407,28.693z"/>
	<path d="M327.127,29.552v4.141h-0.878V22.921h0.878v1.157c0.233-0.362,0.57-0.672,1.009-0.93c0.438-0.257,0.909-0.386,1.412-0.386
		c1.088,0,1.927,0.389,2.518,1.167c0.59,0.777,0.886,1.739,0.886,2.886s-0.296,2.108-0.886,2.886
		c-0.591,0.778-1.43,1.167-2.518,1.167c-0.503,0-0.974-0.129-1.412-0.387C327.697,30.225,327.36,29.916,327.127,29.552z
		 M327.127,25.114v3.403c0.537,1.029,1.315,1.544,2.333,1.544c0.807,0,1.444-0.301,1.912-0.903s0.702-1.383,0.702-2.342
		s-0.234-1.739-0.702-2.342s-1.105-0.904-1.912-0.904C328.442,23.57,327.664,24.085,327.127,25.114z"/>
	<path d="M340.302,30.71h-0.843v-0.737c-0.187,0.223-0.479,0.422-0.877,0.597c-0.397,0.176-0.824,0.264-1.28,0.264
		c-0.819,0-1.503-0.22-2.053-0.658s-0.824-1.021-0.824-1.745c0-0.702,0.28-1.275,0.842-1.72s1.251-0.667,2.07-0.667
		c0.421,0,0.83,0.085,1.228,0.255s0.696,0.359,0.895,0.57v-1.386c0-0.585-0.172-1.056-0.518-1.413
		c-0.345-0.356-0.821-0.534-1.43-0.534c-0.971,0-1.603,0.444-1.895,1.333h-0.859c0.151-0.655,0.477-1.17,0.974-1.544
		s1.091-0.562,1.78-0.562c0.866,0,1.547,0.243,2.044,0.729s0.746,1.138,0.746,1.956V30.71z M339.459,28.939v-1
		c-0.128-0.34-0.389-0.617-0.78-0.834c-0.392-0.216-0.822-0.324-1.289-0.324c-0.597,0-1.103,0.144-1.518,0.43
		c-0.416,0.287-0.623,0.693-0.623,1.22s0.207,0.936,0.623,1.228c0.415,0.293,0.921,0.438,1.518,0.438
		c0.467,0,0.897-0.107,1.289-0.324S339.331,29.278,339.459,28.939z"/>
	<path d="M343.214,29.746c-0.632-0.748-0.947-1.725-0.947-2.93c0-1.204,0.315-2.182,0.947-2.93c0.631-0.748,1.462-1.123,2.491-1.123
		c0.807,0,1.471,0.22,1.991,0.658c0.52,0.438,0.851,1.026,0.991,1.763h-0.896c-0.116-0.515-0.356-0.915-0.719-1.201
		c-0.363-0.287-0.819-0.43-1.368-0.43c-0.761,0-1.378,0.298-1.852,0.895s-0.71,1.386-0.71,2.368s0.236,1.771,0.71,2.368
		s1.091,0.895,1.852,0.895c0.549,0,1.005-0.143,1.368-0.43c0.362-0.286,0.603-0.687,0.719-1.201h0.896
		c-0.141,0.736-0.472,1.324-0.991,1.763c-0.521,0.438-1.185,0.658-1.991,0.658C344.676,30.869,343.845,30.495,343.214,29.746z"/>
	<path d="M355.703,28.448h0.842c-0.151,0.736-0.494,1.324-1.025,1.763c-0.533,0.438-1.196,0.658-1.991,0.658
		c-1.029,0-1.863-0.374-2.5-1.123c-0.638-0.748-0.956-1.725-0.956-2.93c0-1.182,0.312-2.152,0.938-2.912
		c0.625-0.761,1.459-1.141,2.5-1.141c1.005,0,1.783,0.349,2.333,1.044c0.55,0.696,0.824,1.617,0.824,2.763v0.316h-5.736
		c0.012,0.982,0.257,1.763,0.736,2.342s1.1,0.868,1.86,0.868c0.549,0,1.02-0.146,1.412-0.438
		C355.332,29.366,355.586,28.962,355.703,28.448z M353.511,23.536c-0.702,0-1.278,0.239-1.729,0.719s-0.722,1.129-0.815,1.947h4.824
		c-0.023-0.748-0.229-1.38-0.614-1.895S354.235,23.536,353.511,23.536z"/>
</g>
<g>
</g>
<g>
</g>
<g>
</g>
<g>
</g>
<g>
</g>
<g>
</g>
<g>
</g>
</svg>
