<?xml version="1.0" encoding="utf-8"?>
<!-- Generator: Adobe Illustrator 16.0.0, SVG Export Plug-In . SVG Version: 6.00 Build 0)  -->
<!DOCTYPE svg PUBLIC "-//W3C//DTD SVG 1.1//EN" "http://www.w3.org/Graphics/SVG/1.1/DTD/svg11.dtd">
<svg version="1.1" id="Layer_1" xmlns="http://www.w3.org/2000/svg" xmlns:xlink="http://www.w3.org/1999/xlink" x="0px" y="0px"
	 width="178.268px" height="157.632px" viewBox="0 0 178.268 157.632" enable-background="new 0 0 178.268 157.632"
	 xml:space="preserve">
<polyline fill="none" stroke="#231F20" stroke-miterlimit="10" points="2.745,0 2.745,150.124 165.379,150.124 "/>
<circle fill="none" stroke="#231F20" stroke-miterlimit="10" cx="59.177" cy="131.277" r="4.17"/>
<circle fill="none" stroke="#231F20" stroke-miterlimit="10" cx="62.728" cy="114.455" r="4.17"/>
<circle fill="none" stroke="#231F20" stroke-miterlimit="10" cx="111.415" cy="24.579" r="4.17"/>
<circle fill="none" stroke="#231F20" stroke-miterlimit="10" cx="73.636" cy="127.882" r="4.17"/>
<circle fill="none" stroke="#231F20" stroke-miterlimit="10" cx="49.555" cy="103.405" r="4.17"/>
<circle fill="none" stroke="#231F20" stroke-miterlimit="10" cx="34.59" cy="99.212" r="4.17"/>
<circle fill="none" stroke="#231F20" stroke-miterlimit="10" cx="103.987" cy="57.339" r="4.17"/>
<circle fill="none" stroke="#231F20" stroke-miterlimit="10" cx="101.858" cy="41.758" r="4.169"/>
<circle fill="none" stroke="#231F20" stroke-miterlimit="10" cx="82.466" cy="30.519" r="4.17"/>
<circle fill="none" stroke="#231F20" stroke-miterlimit="10" cx="92.555" cy="17.236" r="4.17"/>
<circle fill="none" stroke="#231F20" stroke-miterlimit="10" cx="119.92" cy="43.258" r="4.17"/>
<circle fill="none" stroke="#231F20" stroke-miterlimit="10" cx="140.77" cy="43.385" r="4.17"/>
<circle fill="none" stroke="#231F20" stroke-miterlimit="10" cx="125.635" cy="63.31" r="4.17"/>
<circle fill="none" stroke="#231F20" stroke-miterlimit="10" cx="130.009" cy="29.975" r="4.17"/>
<circle fill="none" stroke="#231F20" stroke-miterlimit="10" cx="143.165" cy="60.915" r="4.171"/>
<circle fill="none" stroke="#231F20" stroke-miterlimit="10" cx="36.679" cy="120.327" r="4.17"/>
<circle fill="none" stroke="#231F20" stroke-miterlimit="10" cx="21.681" cy="113.026" r="4.17"/>
<circle fill="none" stroke="#231F20" stroke-miterlimit="10" cx="34.458" cy="85.582" r="4.17"/>
<line fill="none" stroke="#EE4036" stroke-width="2" stroke-miterlimit="10" x1="15.255" y1="36.322" x2="161.388" y2="137.614"/>
<line fill="none" stroke="#5656F4" stroke-width="2" stroke-miterlimit="10" x1="31.564" y1="14.092" x2="177.698" y2="115.385"/>
<line fill="none" stroke="#5656F4" stroke-width="2" stroke-miterlimit="10" x1="0.57" y1="55.517" x2="146.702" y2="156.81"/>
<g>
	<g>
		<line fill="none" stroke="#FF39F6" stroke-miterlimit="10" x1="2.745" y1="150.124" x2="99.012" y2="62.672"/>
		<g>
			<polygon fill="#FF39F6" points="99.31,67.928 98.312,67.844 98.729,62.931 93.798,62.875 93.81,61.874 99.815,61.944 			"/>
		</g>
	</g>
</g>
<g>
	<g>
		<line fill="none" stroke="#3EE8FF" stroke-miterlimit="10" x1="2.745" y1="150.124" x2="36.203" y2="81.995"/>
		<g>
			<polygon fill="#3EE8FF" points="38.413,86.771 37.455,87.062 36.034,82.34 31.429,84.102 31.072,83.167 36.682,81.021 			"/>
		</g>
	</g>
</g>
<g>
	<g>
		<rect x="94.292" y="72.595" fill="none" width="71.026" height="30.64"/>
		<path d="M97.745,80.231c-0.489-0.733-0.518-0.921-0.518-0.921H97.17c0,0-0.043,0.173-0.562,0.936l-1.323,1.957h-0.792l2.303-3.381
			l-2.173-3.267h0.849l1.18,1.813c0.489,0.777,0.562,0.95,0.562,0.95h0.043c0,0,0.058-0.187,0.532-0.935l1.194-1.828h0.807
			l-2.173,3.252l2.287,3.396h-0.819L97.745,80.231z"/>
	</g>
	<polyline fill="none" stroke="#000000" stroke-width="0.5" stroke-miterlimit="10" points="94.292,73.85 102.835,73.85 
		99.688,70.703 	"/>
	<g>
		<rect x="99.813" y="76.563" fill="none" width="9.576" height="11.604"/>
		<path d="M103.181,82.358v-2.59h0.504v2.59h2.705v0.489h-2.705v2.792h-0.504v-2.792h-2.662v-0.489H103.181z"/>
	</g>
</g>
<g>
	<g>
		<line fill="none" stroke="#BABABA" stroke-miterlimit="10" x1="38.629" y1="80.921" x2="96.659" y2="61.264"/>
		<g>
			<polygon fill="#BABABA" points="94.833,66.2 93.952,65.726 96.296,61.388 91.798,59.366 92.209,58.454 97.687,60.917 			"/>
		</g>
	</g>
</g>
<g>
	<g>
		
			<rect x="32.185" y="65.643" transform="matrix(0.9917 -0.1285 0.1285 0.9917 -9.5295 8.4953)" fill="none" width="57.786" height="24.925"/>
		<path d="M34.408,75.259c-0.471-0.541-0.514-0.689-0.514-0.689l-0.046,0.006c0,0-0.017,0.145-0.355,0.814l-0.863,1.716
			l-0.638,0.083l1.504-2.968L31.4,71.813l0.685-0.089l1.142,1.338c0.476,0.576,0.552,0.708,0.552,0.708l0.035-0.004
			c0,0,0.026-0.157,0.331-0.811l0.773-1.599l0.65-0.084l-1.413,2.851l2.2,2.499l-0.662,0.086L34.408,75.259z"/>
	</g>
	<polyline fill="none" stroke="#000000" stroke-width="0.5" stroke-miterlimit="10" points="30.955,70.471 37.848,69.579 
		34.98,67.369 	"/>
	<g>
		
			<rect x="36.268" y="71.544" transform="matrix(0.9917 -0.1285 0.1285 0.9917 -9.4653 5.792)" fill="none" width="7.791" height="9.44"/>
		<path d="M39.016,76.407l-0.271-2.089l0.406-0.053l0.271,2.089l2.183-0.283l0.051,0.396l-2.182,0.283l0.292,2.251l-0.406,0.053
			l-0.292-2.251l-2.147,0.278l-0.051-0.396L39.016,76.407z"/>
	</g>
	<g>
		<g>
			
				<rect x="48.82" y="63.477" transform="matrix(0.9917 -0.1285 0.1285 0.9917 -9.1136 10.615)" fill="none" width="57.784" height="24.926"/>
			<path d="M51.042,73.093c-0.471-0.541-0.514-0.689-0.514-0.689l-0.046,0.006c0,0-0.017,0.145-0.355,0.813l-0.863,1.717
				l-0.638,0.083l1.504-2.967l-2.095-2.408l0.685-0.089l1.141,1.339c0.477,0.575,0.553,0.707,0.553,0.707l0.035-0.004
				c0,0,0.026-0.157,0.332-0.811l0.772-1.599l0.65-0.084l-1.412,2.851l2.2,2.499l-0.661,0.086L51.042,73.093z"/>
		</g>
		<polyline fill="none" stroke="#000000" stroke-width="0.5" stroke-miterlimit="10" points="47.59,68.306 54.482,67.414 
			51.614,65.204 		"/>
		<g>
			
				<rect x="52.902" y="69.378" transform="matrix(0.9917 -0.1286 0.1286 0.9917 -9.0586 7.9205)" fill="none" width="7.79" height="9.442"/>
			<path d="M53.758,74.215l2.6-0.337l0.066,0.512l-2.6,0.337L53.758,74.215z"/>
		</g>
	</g>
	<g>
		
			<rect x="41.688" y="67.076" transform="matrix(0.9917 -0.1284 0.1284 0.9917 -8.8736 7.0597)" fill="none" width="17.23" height="10.517"/>
		<path d="M42.514,72.523l2.6-0.336l0.066,0.511l-2.6,0.336L42.514,72.523z"/>
	</g>
</g>
<g>
	<g>
		<rect x="9.87" y="93.204" fill="none" width="71.026" height="30.639"/>
		<path d="M13.323,100.842c-0.489-0.733-0.518-0.921-0.518-0.921h-0.058c0,0-0.043,0.173-0.562,0.936l-1.324,1.957h-0.791
			l2.302-3.382l-2.173-3.266h0.849l1.18,1.812c0.489,0.777,0.561,0.95,0.561,0.95h0.043c0,0,0.057-0.188,0.532-0.936l1.194-1.827
			h0.806l-2.173,3.252l2.288,3.396h-0.82L13.323,100.842z"/>
	</g>
	<polyline fill="none" stroke="#000000" stroke-width="0.5" stroke-miterlimit="10" points="9.87,94.459 18.413,94.459 
		15.267,91.312 	"/>
	<g>
		<rect x="15.392" y="97.172" fill="none" width="9.576" height="11.604"/>
		<path d="M16.457,102.637h3.223v0.634h-3.223V102.637z"/>
	</g>
</g>
<g>
	<g>
		<line fill="none" stroke="#36FF87" stroke-miterlimit="10" x1="2.873" y1="150.754" x2="86.112" y2="40.583"/>
		<g>
			<polygon fill="#36FF87" points="87.377,45.693 86.382,45.795 85.881,40.89 81.025,41.748 80.852,40.762 86.767,39.719 			"/>
		</g>
	</g>
</g>
<g>
	<g>
		<rect x="61.213" y="45.495" fill="none" width="71.027" height="30.639"/>
		<path d="M67.343,52.629c0.374,1.324,0.432,1.957,0.432,1.957h0.043c0,0,0.058-0.619,0.417-1.957l1.137-4.173h0.748l-1.871,6.648
			h-0.892l-1.137-3.957c-0.374-1.324-0.446-1.942-0.446-1.942h-0.043c0,0-0.072,0.619-0.446,1.942l-1.108,3.957h-0.892l-1.899-6.648
			h0.762l1.151,4.173c0.36,1.295,0.446,1.957,0.446,1.957h0.043c0,0,0.058-0.647,0.417-1.957l1.18-4.173h0.777L67.343,52.629z"/>
	</g>
	<polyline fill="none" stroke="#000000" stroke-width="0.5" stroke-miterlimit="10" points="61.213,46.75 69.756,46.75 
		66.609,43.604 	"/>
</g>
<g>
</g>
<g>
</g>
<g>
</g>
<g>
</g>
<g>
</g>
<g>
</g>
<g>
</g>
</svg>
