<?xml version="1.0" encoding="utf-8"?>
<!-- Generator: Adobe Illustrator 16.0.0, SVG Export Plug-In . SVG Version: 6.00 Build 0)  -->
<!DOCTYPE svg PUBLIC "-//W3C//DTD SVG 1.1 Tiny//EN" "http://www.w3.org/Graphics/SVG/1.1/DTD/svg11-tiny.dtd">
<svg version="1.1" baseProfile="tiny" id="Layer_1" xmlns="http://www.w3.org/2000/svg" xmlns:xlink="http://www.w3.org/1999/xlink"
	 x="0px" y="0px" width="253.625px" height="234.153px" viewBox="0 0 253.625 234.153" xml:space="preserve">
<polyline fill="none" stroke="#231F20" stroke-miterlimit="10" points="8.5,7.385 8.5,226.268 245.625,226.268 "/>
<circle fill="none" stroke="#FF1614" stroke-miterlimit="10" cx="70.669" cy="57.962" r="6.08"/>
<circle fill="none" stroke="#FF1614" stroke-miterlimit="10" cx="173.263" cy="109.541" r="6.079"/>
<circle fill="none" stroke="#FF1614" stroke-miterlimit="10" cx="111.663" cy="148.049" r="6.081"/>
<path fill="none" stroke="#386DF9" stroke-width="0.75" stroke-miterlimit="10" d="M46.266,25.94
	c10.251-18.555,32.128-16.5,43.067-13.681c17.928,4.621,42.909,35.369,58.269,45.704c9.63,6.479,18.24,7.498,45.093,11.044
	c26.855,3.547,38.921,11.864,43.575,23.308c5.052,12.419,3.039,43.069-20.267,49.655c-23.309,6.586-51.175-1.761-69.415-11.521
	c-18.241-9.761-72.117-18.217-89.347-34.895C44.581,83.3,36.479,43.654,46.266,25.94z"/>
<g>
	<rect x="67.13" y="80.888" fill="none" width="86.557" height="23.048"/>
	<path fill="#A6A8AB" d="M69.253,91.131v4.14h-0.877v-10.77h0.877v1.158c0.234-0.362,0.57-0.672,1.009-0.93s0.909-0.386,1.412-0.386
		c1.087,0,1.926,0.389,2.517,1.166c0.59,0.778,0.886,1.74,0.886,2.885c0,1.146-0.295,2.108-0.886,2.886
		c-0.59,0.777-1.429,1.166-2.517,1.166c-0.503,0-0.974-0.129-1.412-0.386S69.487,91.494,69.253,91.131z M69.253,86.694v3.403
		c0.538,1.029,1.316,1.543,2.333,1.543c0.807,0,1.444-0.301,1.912-0.903c0.468-0.602,0.702-1.383,0.702-2.342
		c0-0.958-0.234-1.739-0.702-2.341c-0.468-0.602-1.105-0.903-1.912-0.903C70.569,85.15,69.791,85.665,69.253,86.694z"/>
	<path fill="#A6A8AB" d="M80.671,84.449v0.859c-0.222-0.093-0.462-0.14-0.719-0.14c-0.468,0-0.883,0.152-1.245,0.456
		c-0.363,0.304-0.638,0.713-0.825,1.228v5.438h-0.877v-7.788h0.877v1.245c0.187-0.409,0.468-0.745,0.842-1.008
		c0.374-0.263,0.795-0.395,1.263-0.395C80.209,84.344,80.438,84.379,80.671,84.449z"/>
	<path fill="#A6A8AB" d="M87.161,90.026h0.842c-0.152,0.737-0.494,1.324-1.026,1.763s-1.195,0.658-1.991,0.658
		c-1.029,0-1.862-0.374-2.499-1.123c-0.638-0.748-0.956-1.725-0.956-2.929c0-1.181,0.312-2.151,0.938-2.911
		c0.625-0.76,1.458-1.14,2.499-1.14c1.006,0,1.783,0.348,2.333,1.043c0.549,0.696,0.824,1.617,0.824,2.763v0.315H82.39
		c0.012,0.982,0.257,1.763,0.737,2.342c0.479,0.579,1.099,0.868,1.859,0.868c0.55,0,1.02-0.146,1.412-0.438
		C86.79,90.944,87.044,90.541,87.161,90.026z M84.968,85.115c-0.701,0-1.277,0.24-1.728,0.719s-0.722,1.128-0.815,1.947h4.823
		c-0.023-0.748-0.228-1.379-0.614-1.894S85.693,85.115,84.968,85.115z"/>
	<path fill="#A6A8AB" d="M95.317,92.289v-1.158c-0.234,0.363-0.57,0.673-1.009,0.93s-0.909,0.386-1.412,0.386
		c-1.1,0-1.941-0.389-2.526-1.166c-0.585-0.778-0.877-1.739-0.877-2.886c0-1.146,0.292-2.107,0.877-2.885
		c0.584-0.777,1.426-1.166,2.526-1.166c0.502,0,0.973,0.128,1.412,0.386s0.774,0.567,1.009,0.93v-4.771h0.859v11.401H95.317z
		 M95.317,90.097v-3.403c-0.257-0.491-0.594-0.871-1.009-1.14c-0.415-0.269-0.862-0.403-1.342-0.403
		c-0.795,0-1.427,0.301-1.894,0.903c-0.468,0.603-0.702,1.383-0.702,2.341c0,0.959,0.234,1.74,0.702,2.342
		c0.467,0.603,1.099,0.903,1.894,0.903c0.479,0,0.927-0.134,1.342-0.403S95.06,90.588,95.317,90.097z"/>
	<path fill="#A6A8AB" d="M99.544,81.713c0.117,0.117,0.175,0.257,0.175,0.421s-0.059,0.304-0.175,0.421
		c-0.117,0.117-0.257,0.175-0.421,0.175c-0.164,0-0.304-0.059-0.421-0.175s-0.175-0.257-0.175-0.421s0.059-0.304,0.175-0.421
		c0.117-0.117,0.257-0.176,0.421-0.176C99.287,81.537,99.427,81.596,99.544,81.713z M99.561,84.501v7.788h-0.877v-7.788H99.561z"/>
	<path fill="#A6A8AB" d="M102.438,91.324c-0.631-0.748-0.947-1.725-0.947-2.929c0-1.204,0.316-2.181,0.947-2.929
		c0.631-0.749,1.461-1.123,2.49-1.123c0.807,0,1.471,0.219,1.991,0.658c0.52,0.438,0.851,1.026,0.991,1.763h-0.895
		c-0.117-0.515-0.357-0.915-0.719-1.202c-0.362-0.286-0.818-0.43-1.368-0.43c-0.76,0-1.376,0.298-1.85,0.895s-0.71,1.386-0.71,2.368
		c0,0.982,0.237,1.772,0.71,2.368s1.09,0.895,1.85,0.895c0.55,0,1.006-0.143,1.368-0.43s0.602-0.687,0.719-1.202h0.895
		c-0.14,0.737-0.471,1.324-0.991,1.763c-0.521,0.438-1.184,0.658-1.991,0.658C103.899,92.447,103.069,92.073,102.438,91.324z"/>
	<path fill="#A6A8AB" d="M110.172,90.482v-5.227h-1.315v-0.754h1.315v-2h0.859v2h2.017v0.754h-2.017v5.139
		c0,0.842,0.374,1.263,1.123,1.263c0.374,0,0.73-0.099,1.07-0.298v0.824c-0.328,0.176-0.713,0.263-1.158,0.263
		c-0.584,0-1.046-0.167-1.385-0.5C110.342,91.614,110.172,91.125,110.172,90.482z"/>
</g>
<g>
	<rect x="23.849" y="179.727" fill="none" width="86.558" height="23.047"/>
	<path fill="#A6A8AB" d="M25.971,189.971v4.139h-0.877v-10.77h0.877v1.158c0.234-0.362,0.57-0.673,1.009-0.93
		s0.909-0.386,1.412-0.386c1.087,0,1.926,0.389,2.517,1.166c0.59,0.778,0.886,1.739,0.886,2.886c0,1.146-0.295,2.107-0.886,2.885
		c-0.59,0.778-1.429,1.167-2.517,1.167c-0.503,0-0.974-0.129-1.412-0.386C26.542,190.643,26.205,190.333,25.971,189.971z
		 M25.971,185.534v3.402c0.538,1.029,1.316,1.543,2.333,1.543c0.807,0,1.444-0.301,1.912-0.903c0.468-0.602,0.702-1.382,0.702-2.341
		s-0.234-1.739-0.702-2.342s-1.105-0.903-1.912-0.903C27.287,183.99,26.509,184.504,25.971,185.534z"/>
	<path fill="#A6A8AB" d="M37.39,183.289v0.859c-0.222-0.094-0.462-0.141-0.719-0.141c-0.468,0-0.883,0.152-1.245,0.456
		c-0.363,0.304-0.638,0.713-0.825,1.228v5.438h-0.877v-7.788h0.877v1.246c0.187-0.409,0.468-0.746,0.842-1.009
		c0.374-0.263,0.795-0.395,1.263-0.395C36.928,183.183,37.156,183.218,37.39,183.289z"/>
	<path fill="#A6A8AB" d="M43.879,188.866h0.842c-0.152,0.736-0.494,1.324-1.026,1.763s-1.195,0.658-1.991,0.658
		c-1.029,0-1.862-0.374-2.499-1.123c-0.638-0.748-0.956-1.725-0.956-2.929c0-1.182,0.312-2.151,0.938-2.912
		c0.625-0.76,1.458-1.14,2.499-1.14c1.006,0,1.783,0.348,2.333,1.044c0.549,0.695,0.824,1.616,0.824,2.762v0.316h-5.735
		c0.012,0.981,0.257,1.763,0.737,2.341c0.479,0.579,1.099,0.868,1.859,0.868c0.55,0,1.02-0.146,1.412-0.438
		C43.508,189.784,43.762,189.38,43.879,188.866z M41.687,183.955c-0.701,0-1.277,0.24-1.728,0.719
		c-0.45,0.48-0.722,1.129-0.815,1.947h4.823c-0.023-0.748-0.228-1.38-0.614-1.895C42.967,184.212,42.412,183.955,41.687,183.955z"/>
	<path fill="#A6A8AB" d="M52.035,191.128v-1.157c-0.234,0.362-0.57,0.672-1.009,0.93c-0.438,0.257-0.909,0.386-1.412,0.386
		c-1.1,0-1.941-0.389-2.526-1.167c-0.585-0.777-0.877-1.739-0.877-2.885c0-1.146,0.292-2.107,0.877-2.886
		c0.584-0.777,1.426-1.166,2.526-1.166c0.502,0,0.973,0.129,1.412,0.386s0.774,0.567,1.009,0.93v-4.771h0.859v11.4H52.035z
		 M52.035,188.936v-3.402c-0.257-0.491-0.594-0.871-1.009-1.141c-0.415-0.269-0.862-0.403-1.342-0.403
		c-0.795,0-1.427,0.301-1.894,0.903c-0.468,0.603-0.702,1.383-0.702,2.342s0.234,1.739,0.702,2.341
		c0.467,0.603,1.099,0.903,1.894,0.903c0.479,0,0.927-0.134,1.342-0.403C51.441,189.807,51.778,189.427,52.035,188.936z"/>
	<path fill="#A6A8AB" d="M56.262,180.552c0.117,0.117,0.175,0.257,0.175,0.421s-0.059,0.304-0.175,0.421
		c-0.117,0.117-0.257,0.175-0.421,0.175c-0.164,0-0.304-0.058-0.421-0.175s-0.175-0.257-0.175-0.421s0.059-0.304,0.175-0.421
		s0.257-0.176,0.421-0.176C56.005,180.376,56.145,180.435,56.262,180.552z M56.279,183.34v7.788h-0.877v-7.788H56.279z"/>
	<path fill="#A6A8AB" d="M59.156,190.164c-0.631-0.748-0.947-1.725-0.947-2.929s0.316-2.181,0.947-2.93
		c0.631-0.748,1.461-1.122,2.49-1.122c0.807,0,1.471,0.219,1.991,0.657c0.52,0.438,0.851,1.026,0.991,1.763h-0.895
		c-0.117-0.514-0.357-0.914-0.719-1.201c-0.362-0.286-0.818-0.43-1.368-0.43c-0.76,0-1.376,0.298-1.85,0.895s-0.71,1.386-0.71,2.368
		s0.237,1.771,0.71,2.367c0.474,0.597,1.09,0.895,1.85,0.895c0.55,0,1.006-0.143,1.368-0.43c0.362-0.286,0.602-0.687,0.719-1.201
		h0.895c-0.14,0.736-0.471,1.324-0.991,1.763c-0.521,0.438-1.184,0.658-1.991,0.658C60.617,191.287,59.787,190.913,59.156,190.164z"
		/>
	<path fill="#A6A8AB" d="M66.891,189.322v-5.227h-1.315v-0.755h1.315v-1.999h0.859v1.999h2.017v0.755H67.75v5.139
		c0,0.842,0.374,1.263,1.123,1.263c0.374,0,0.73-0.099,1.07-0.298v0.824c-0.328,0.176-0.713,0.264-1.158,0.264
		c-0.584,0-1.046-0.167-1.385-0.5C67.06,190.454,66.891,189.965,66.891,189.322z"/>
</g>
<g>
	<path d="M86.946,38.491c0-0.019,0-0.265-0.316-0.265c-0.545,0-2.268,0.193-2.881,0.246c-0.195,0.019-0.457,0.036-0.457,0.492
		c0,0.263,0.244,0.263,0.597,0.263c1.142,0,1.159,0.211,1.159,0.405l-0.07,0.475L81.991,51.95c-0.071,0.263-0.124,0.422-0.124,0.809
		c0,1.352,1.055,2.178,2.163,2.178c0.772,0,1.37-0.474,1.774-1.317c0.421-0.914,0.721-2.285,0.721-2.338
		c0-0.227-0.211-0.227-0.3-0.227c-0.229,0-0.247,0.088-0.317,0.422c-0.402,1.545-0.861,2.934-1.809,2.934
		c-0.704,0-0.704-0.755-0.704-1.09c0-0.561,0.017-0.685,0.14-1.125L86.946,38.491"/>
	<path d="M93.959,34.324c0-0.439-0.036-0.457-0.494-0.457c-1.055,1.037-2.565,1.054-3.25,1.054v0.599c0.405,0,1.493,0,2.408-0.474
		v8.452c0,0.544,0,0.755-1.653,0.755h-0.632v0.598c0.298-0.019,2.338-0.07,2.952-0.07c0.511,0,2.583,0.051,2.954,0.07v-0.598H95.61
		c-1.651,0-1.651-0.211-1.651-0.755V34.324"/>
</g>
<g>
	<path d="M126.074,147.844c0-0.02,0-0.247-0.316-0.247c-0.545,0-2.268,0.177-2.882,0.228c-0.194,0.02-0.457,0.054-0.457,0.493
		c0,0.264,0.244,0.264,0.596,0.264c1.142,0,1.159,0.21,1.159,0.404l-0.07,0.475l-2.986,11.862c-0.071,0.246-0.124,0.42-0.124,0.789
		c0,1.354,1.055,2.196,2.161,2.196c0.773,0,1.372-0.474,1.776-1.335c0.421-0.896,0.721-2.266,0.721-2.318
		c0-0.245-0.211-0.245-0.3-0.245c-0.229,0-0.247,0.104-0.317,0.438c-0.402,1.529-0.861,2.935-1.809,2.935
		c-0.704,0-0.704-0.756-0.704-1.091c0-0.579,0.017-0.684,0.14-1.14l3.411-13.688"/>
	<path d="M132.065,148.739c1.283,0,2.214,0.896,2.214,2.672c0,2.057-1.193,2.671-2.143,2.671c-0.668,0-2.129-0.193-2.812-1.161
		c0.771-0.034,0.949-0.579,0.949-0.931c0-0.527-0.389-0.913-0.916-0.913c-0.456,0-0.913,0.281-0.913,0.967
		c0,1.546,1.723,2.564,3.708,2.564c2.302,0,3.9-1.545,3.9-3.197c0-1.283-1.069-2.583-2.882-2.952
		c1.741-0.634,2.354-1.881,2.354-2.882c0-1.318-1.494-2.285-3.337-2.285c-1.828,0-3.234,0.896-3.234,2.215
		c0,0.562,0.37,0.877,0.861,0.877c0.51,0,0.843-0.387,0.843-0.844c0-0.472-0.333-0.824-0.843-0.859
		c0.579-0.722,1.721-0.913,2.337-0.913c0.738,0,1.775,0.37,1.775,1.81c0,0.686-0.229,1.46-0.651,1.969
		c-0.562,0.633-1.02,0.649-1.844,0.702c-0.404,0.035-0.439,0.035-0.527,0.053c-0.035,0-0.158,0.034-0.158,0.21
		c0,0.229,0.142,0.229,0.421,0.229H132.065"/>
</g>
<g>
	<path d="M189.55,87.37c0-0.035,0-0.261-0.316-0.261c-0.545,0-2.268,0.191-2.882,0.227c-0.194,0.035-0.457,0.053-0.457,0.51
		c0,0.264,0.244,0.264,0.598,0.264c1.142,0,1.158,0.211,1.158,0.387l-0.069,0.474l-2.986,11.861
		c-0.071,0.264-0.125,0.422-0.125,0.808c0,1.354,1.056,2.179,2.161,2.179c0.774,0,1.372-0.474,1.775-1.336
		c0.422-0.895,0.722-2.265,0.722-2.319c0-0.229-0.212-0.229-0.3-0.229c-0.229,0-0.247,0.087-0.317,0.423
		c-0.402,1.545-0.86,2.935-1.809,2.935c-0.703,0-0.703-0.755-0.703-1.089c0-0.563,0.018-0.686,0.14-1.142L189.55,87.37"/>
	<path d="M199.372,90.78h-0.562c-0.053,0.37-0.21,1.336-0.421,1.512c-0.141,0.087-1.407,0.087-1.636,0.087h-3.056
		c1.738-1.527,2.319-2.002,3.32-2.774c1.213-0.968,2.354-2.004,2.354-3.569c0-2.004-1.757-3.233-3.865-3.233
		c-2.057,0-3.445,1.442-3.445,2.969c0,0.844,0.722,0.915,0.879,0.915c0.403,0,0.878-0.283,0.878-0.879
		c0-0.28-0.121-0.862-0.983-0.862c0.526-1.176,1.65-1.544,2.425-1.544c1.653,0,2.514,1.3,2.514,2.635
		c0,1.442-1.037,2.583-1.566,3.163l-3.969,3.937c-0.177,0.158-0.177,0.192-0.177,0.649h6.818L199.372,90.78"/>
</g>
<g>
	<path fill="#A6A8AB" d="M128.323,85.611c0.064-0.252,0.064-0.293,0.064-0.411c0-0.332-0.25-0.491-0.515-0.491
		c-0.174,0-0.464,0.106-0.624,0.384c-0.04,0.079-0.186,0.636-0.253,0.955c-0.119,0.462-0.251,0.954-0.357,1.431l-0.808,3.223
		c-0.067,0.264-0.836,1.523-2.015,1.523c-0.915,0-1.114-0.795-1.114-1.458c0-0.822,0.306-1.921,0.915-3.5
		c0.292-0.729,0.357-0.928,0.357-1.285c0-0.811-0.57-1.471-1.47-1.471c-1.697,0-2.361,2.598-2.361,2.756
		c0,0.186,0.185,0.186,0.226,0.186c0.172,0,0.186-0.04,0.278-0.331c0.492-1.67,1.194-2.214,1.805-2.214c0.146,0,0.45,0,0.45,0.569
		c0,0.451-0.173,0.915-0.304,1.26c-0.717,1.894-1.033,2.902-1.033,3.75c0,1.59,1.125,2.121,2.185,2.121
		c0.691,0,1.3-0.306,1.804-0.795c-0.24,0.929-0.453,1.803-1.167,2.744c-0.464,0.61-1.139,1.125-1.961,1.125
		c-0.252,0-1.059-0.051-1.366-0.742c0.292,0,0.518,0,0.769-0.225c0.186-0.158,0.358-0.383,0.358-0.729
		c0-0.557-0.478-0.622-0.664-0.622c-0.41,0-0.994,0.292-0.994,1.165c0,0.889,0.781,1.552,1.896,1.552
		c1.843,0,3.685-1.629,4.175-3.645L128.323,85.611"/>
	<path fill="#A6A8AB" d="M146.271,90.039c0.251,0,0.581,0,0.581-0.359c0-0.359-0.33-0.359-0.609-0.359h-10.668
		c-0.266,0-0.609,0-0.609,0.359c0,0.359,0.344,0.359,0.595,0.359H146.271 M146.242,86.577c0.279,0,0.609,0,0.609-0.358
		c0-0.357-0.33-0.357-0.581-0.357H135.56c-0.251,0-0.595,0-0.595,0.357c0,0.358,0.344,0.358,0.609,0.358H146.242z"/>
	<path fill="#A6A8AB" d="M158.092,80.97c0-0.424,0-0.464-0.411-0.464c-1.113,1.153-2.688,1.153-3.258,1.153v0.542
		c0.356,0,1.417,0,2.344-0.462v9.265c0,0.65-0.052,0.861-1.67,0.861h-0.57v0.558c0.624-0.054,2.188-0.054,2.904-0.054
		s2.266,0,2.89,0.054v-0.558h-0.569c-1.604,0-1.659-0.198-1.659-0.861V80.97"/>
</g>
<g>
	<path fill="#A6A8AB" d="M85.082,183.738c0.066-0.251,0.066-0.279,0.066-0.411c0-0.319-0.251-0.477-0.516-0.477
		c-0.174,0-0.464,0.106-0.623,0.371c-0.041,0.093-0.186,0.648-0.253,0.969c-0.119,0.462-0.251,0.94-0.357,1.43l-0.808,3.221
		c-0.067,0.267-0.836,1.513-2.015,1.513c-0.916,0-1.113-0.782-1.113-1.446c0-0.821,0.305-1.935,0.915-3.499
		c0.292-0.741,0.357-0.927,0.357-1.286c0-0.808-0.569-1.471-1.47-1.471c-1.697,0-2.36,2.584-2.36,2.757
		c0,0.172,0.185,0.172,0.225,0.172c0.172,0,0.186-0.04,0.278-0.317c0.491-1.684,1.193-2.215,1.804-2.215c0.146,0,0.449,0,0.449,0.57
		c0,0.438-0.172,0.916-0.304,1.248c-0.717,1.895-1.033,2.914-1.033,3.75c0,1.592,1.125,2.133,2.185,2.133
		c0.691,0,1.301-0.305,1.804-0.808c-0.24,0.929-0.452,1.802-1.167,2.757c-0.464,0.609-1.139,1.126-1.961,1.126
		c-0.252,0-1.059-0.052-1.366-0.755c0.293,0,0.518,0,0.77-0.211c0.186-0.16,0.358-0.398,0.358-0.729
		c0-0.557-0.478-0.623-0.664-0.623c-0.41,0-0.994,0.277-0.994,1.152c0,0.903,0.781,1.564,1.896,1.564
		c1.843,0,3.684-1.632,4.175-3.658L85.082,183.738"/>
	<path fill="#A6A8AB" d="M103.03,188.177c0.251,0,0.581,0,0.581-0.356c0-0.359-0.33-0.359-0.61-0.359H92.333
		c-0.265,0-0.609,0-0.609,0.359c0,0.356,0.344,0.356,0.595,0.356H103.03 M103.001,184.705c0.28,0,0.61,0,0.61-0.356
		c0-0.359-0.33-0.359-0.581-0.359H92.318c-0.251,0-0.595,0-0.595,0.359c0,0.356,0.344,0.356,0.609,0.356H103.001z"/>
	<path fill="#A6A8AB" d="M114.043,190.549c-0.703,0-1.749-0.449-2.068-2.158c-0.199-1.074-0.199-2.718-0.199-3.78
		c0-1.139,0-2.316,0.133-3.285c0.346-2.121,1.683-2.281,2.134-2.281c0.595,0,1.776,0.318,2.107,2.081
		c0.187,1.009,0.187,2.361,0.187,3.485c0,1.354,0,2.561-0.198,3.712C115.872,190.022,114.851,190.549,114.043,190.549
		 M117.822,184.837c0-1.43-0.093-2.863-0.717-4.188c-0.821-1.723-2.294-2.001-3.05-2.001c-1.072,0-2.369,0.464-3.1,2.121
		c-0.581,1.233-0.663,2.639-0.663,4.057c0,1.35,0.067,2.954,0.795,4.32c0.768,1.443,2.081,1.804,2.956,1.804
		c0.966,0,2.318-0.386,3.116-2.083c0.57-1.231,0.663-2.625,0.663-4.041V184.837z"/>
</g>
<g>
</g>
<g>
</g>
<g>
</g>
<g>
</g>
<g>
</g>
<g>
</g>
</svg>
