<?xml version="1.0" encoding="utf-8"?>
<!-- Generator: Adobe Illustrator 16.0.0, SVG Export Plug-In . SVG Version: 6.00 Build 0)  -->
<!DOCTYPE svg PUBLIC "-//W3C//DTD SVG 1.1 Tiny//EN" "http://www.w3.org/Graphics/SVG/1.1/DTD/svg11-tiny.dtd">
<svg version="1.1" baseProfile="tiny" id="Layer_1" xmlns="http://www.w3.org/2000/svg" xmlns:xlink="http://www.w3.org/1999/xlink"
	 x="0px" y="0px" width="298.471px" height="132.282px" viewBox="0 0 298.471 132.282" xml:space="preserve">
<path fill="#FF6E6E" stroke="#F24444" stroke-linecap="round" stroke-linejoin="round" stroke-miterlimit="10" d="M250.671,129.23
	c-35.272,2.34-54.078-14.124-37.614-32.931c16.465-18.807-37.611-32.929-21.146-51.735c16.466-18.807,14.123-54.078,32.932-37.613
	c18.803,16.465,70.538-4.684,72.881,30.589C300.065,72.811,285.94,126.888,250.671,129.23z"/>
<path fill="#F25F5F" stroke="#DD3636" stroke-linecap="round" stroke-linejoin="round" stroke-miterlimit="10" d="M241.474,100.268
	c-18.243-6.632-20.349-13.138-15.817-25.981c2.965-8.404-4.638-23.053,9.818-27.847c14.455-4.793,34.129-18.737,44.541-11.46
	c14.199,9.924,19.593,36.379,8.927,52.598C278.274,103.795,259.718,106.896,241.474,100.268z"/>
<path fill="#C2F4FF" stroke="#41C8F7" stroke-miterlimit="10" d="M1.234,89.216c10.778-28.24,2.895-67.525,26.674-69.888
	C51.686,16.964,45.513,3.17,69.291,0.807c23.778-2.363,53.73,9.068,46.109,29.037S84.001,52.175,96.347,79.763
	c12.348,27.59,0.917,57.541-19.051,49.92s-44.1,6.046-57.541,0.916C9.166,126.558-2.576,99.198,1.234,89.216z"/>
<path fill="#A5E5EF" stroke="#2CB6DB" stroke-miterlimit="10" d="M37.378,94.922c-16.041-7.29-18.111-12.917-14.875-25.37
	c2.118-8.149-0.519-20.246,11.672-24.361c12.192-4.114,20.535-19.633,24.384-8.229C62.409,48.366,90.641,51.54,82.297,67.06
	C73.955,82.577,53.417,102.21,37.378,94.922z"/>
<g>
	<rect x="50.02" y="11.873" fill="none" width="36.933" height="36.933"/>
	<path fill="#65CDE5" d="M73.881,12.685l-4.739,6.816l4.92,7.042h-1.309l-4.288-6.116l-4.266,6.116h-1.264l4.898-7.019l-4.762-6.839
		h1.309l4.107,5.914l4.13-5.914H73.881z"/>
</g>
<g>
	<rect x="202.71" y="19.909" fill="none" width="36.933" height="36.934"/>
	<path fill="#E03434" d="M221.211,27.605l4.355-6.884h1.241l-5.056,7.945v5.913h-1.15v-5.913l-5.033-7.945h1.264L221.211,27.605z"/>
</g>
<circle fill="#EDD420" cx="58.554" cy="67.399" r="5.008"/>
<circle fill="#EDD420" cx="236.995" cy="67.399" r="5.008"/>
<g>
	<path fill="none" stroke="#8821EA" stroke-linecap="round" stroke-linejoin="round" d="M68.486,62.39
		c26.024-16.437,114.725-19.941,155.383,0.594"/>
	<g>
		<polygon fill="#8821EA" points="219.086,65.229 218.793,64.272 223.51,62.837 221.733,58.237 222.667,57.877 224.831,63.48 		"/>
	</g>
</g>
<g>
	<rect x="107.917" y="57.063" fill="none" width="77.483" height="28.508"/>
	<path d="M141.907,58.64v-0.894h9.502v0.894h-4.276v10.776h-0.969V58.64H141.907z"/>
</g>
<circle fill="#EDD420" cx="39.972" cy="74.56" r="5.008"/>
<circle fill="#EDD420" cx="248.605" cy="85.571" r="5.008"/>
<g>
	<path fill="none" stroke="#8821EA" stroke-linecap="round" stroke-linejoin="round" d="M51.668,80.408
		c26.098,13.048,142.9,3.271,186.893,5.115"/>
	<g>
		<polygon fill="#8821EA" points="235.187,89.599 234.515,88.857 238.174,85.552 234.61,82.144 235.302,81.421 239.642,85.573 		"/>
	</g>
</g>
<circle fill="#EDD420" cx="58.138" cy="53.253" r="5.009"/>
<circle fill="#EDD420" cx="255.501" cy="66.411" r="5.008"/>
<g>
	<path fill="none" stroke="#8821EA" stroke-linecap="round" stroke-linejoin="round" d="M66.288,48.245
		c26.033-16.442,155.898-26.167,183.588,12.268"/>
	<g>
		<polygon fill="#8821EA" points="244.573,60.395 244.74,59.408 249.6,60.237 250.073,55.329 251.069,55.425 250.493,61.403 		"/>
	</g>
</g>
<g>
	<rect x="18.582" y="48.162" fill="none" width="36.932" height="36.933"/>
	<path fill="#2C9CAF" d="M36.518,48.973h1.061l5.484,13.858h-1.151l-1.805-4.559h-6.139l-1.783,4.559h-1.151L36.518,48.973z
		 M37.037,50.463l-2.663,6.771H39.7L37.037,50.463z"/>
</g>
<g>
	<rect x="242.784" y="42.718" fill="none" width="53.976" height="36.933"/>
	<path fill="#C12323" d="M250.814,44.538v-1.03h10.965v1.03h-4.934v12.434h-1.119V44.538H250.814z"/>
	<path fill="#C12323" d="M264.707,55.941c-1.061-1.447-1.59-3.172-1.59-5.175c0-2.002,0.529-3.728,1.59-5.175
		c1.06-1.447,2.489-2.405,4.287-2.873v1.096c-1.359,0.337-2.5,1.129-3.421,2.379s-1.382,2.774-1.382,4.572s0.461,3.322,1.382,4.572
		s2.062,2.043,3.421,2.379v1.097C267.196,58.346,265.766,57.389,264.707,55.941z"/>
	<path fill="#C12323" d="M275.418,43.508h1.031l5.329,13.464h-1.119l-1.754-4.43h-5.965l-1.732,4.43h-1.118L275.418,43.508z
		 M275.923,44.955l-2.588,6.579h5.176L275.923,44.955z"/>
	<path fill="#C12323" d="M287.162,45.591c1.06,1.447,1.59,3.173,1.59,5.175c0,2.003-0.53,3.728-1.59,5.175s-2.489,2.405-4.287,2.873
		v-1.097c1.359-0.336,2.5-1.129,3.421-2.379s1.382-2.774,1.382-4.572s-0.461-3.322-1.382-4.572s-2.062-2.042-3.421-2.379v-1.096
		C284.672,43.186,286.102,44.144,287.162,45.591z"/>
</g>
<g>
</g>
<g>
</g>
<g>
</g>
<g>
</g>
<g>
</g>
<g>
</g>
<g>
</g>
</svg>
