<?xml version="1.0" encoding="iso-8859-1"?>
<!-- Generator: Adobe Illustrator 16.0.0, SVG Export Plug-In . SVG Version: 6.00 Build 0)  -->
<!DOCTYPE svg PUBLIC "-//W3C//DTD SVG 1.1//EN" "http://www.w3.org/Graphics/SVG/1.1/DTD/svg11.dtd">
<svg version="1.1" id="Layer_1" xmlns="http://www.w3.org/2000/svg" xmlns:xlink="http://www.w3.org/1999/xlink" x="0px" y="0px"
	 width="330.037px" height="156px" viewBox="0 0 330.037 156" style="enable-background:new 0 0 330.037 156;" xml:space="preserve"
	>
<path style="fill:#FF6E6E;stroke:#F24444;stroke-linecap:round;stroke-linejoin:round;stroke-miterlimit:10;" d="M275.742,145.914
	c-38.484,2.553-59.003-15.41-41.04-35.93c17.964-20.52-41.036-35.927-23.072-56.446c17.966-20.519,15.409-59.002,35.931-41.038
	c20.515,17.964,76.962-5.11,79.518,33.374C329.633,84.356,314.222,143.357,275.742,145.914z"/>
<path style="fill:#F25F5F;stroke:#DD3636;stroke-linecap:round;stroke-linejoin:round;stroke-miterlimit:10;" d="M265.707,114.313
	c-19.904-7.235-22.201-14.334-17.258-28.348c3.235-9.169-5.06-25.152,10.713-30.382c15.771-5.23,37.236-20.443,48.597-12.504
	c15.492,10.828,21.377,39.692,9.739,57.388C305.857,118.162,285.612,121.545,265.707,114.313z"/>
<path style="fill:#C2F4FF;stroke:#41C8F7;stroke-miterlimit:10;" d="M3.591,102.256C15.35,71.444,6.749,28.582,32.693,26.004
	c25.943-2.579,19.208-17.63,45.151-20.208c25.943-2.578,58.623,9.895,50.308,31.681s-34.258,24.364-20.788,54.464
	c13.472,30.103,1,62.781-20.786,54.466s-48.116,6.597-62.781,0.999C12.244,142.998-0.567,113.146,3.591,102.256z"/>
<path style="fill:#A5E5EF;stroke:#2CB6DB;stroke-miterlimit:10;" d="M43.026,108.481c-17.501-7.954-19.76-14.094-16.229-27.681
	c2.311-8.891-0.566-22.09,12.735-26.58c13.303-4.488,22.405-21.421,26.605-8.979c4.198,12.443,35.001,15.906,25.897,32.839
	C82.934,95.013,60.525,116.433,43.026,108.481z"/>
<g>
	<g>
		<path style="fill:#3EC5DB;" d="M83.659,17.787l-5.88,8.456l6.104,8.736h-1.624l-5.32-7.588l-5.292,7.588h-1.568l6.076-8.708
			l-5.908-8.484h1.624l5.096,7.336l5.124-7.336H83.659z"/>
	</g>
</g>
<g>
	<g>
		<path style="fill:#E03434;" d="M243.604,31.821l5.403-8.54h1.54l-6.271,9.856v7.336h-1.428v-7.336l-6.244-9.856h1.567
			L243.604,31.821z"/>
	</g>
</g>
<circle style="fill:#FFFA5A;" cx="66.13" cy="78.452" r="5.464"/>
<circle style="fill:#FFFA5A;" cx="260.82" cy="78.452" r="5.464"/>
<g>
	<g>
		<path style="fill:none;stroke:#8821EA;stroke-linecap:round;stroke-linejoin:round;" d="M76.967,72.986
			c28.413-17.945,125.3-21.762,169.62,0.693"/>
		<g>
			<polygon style="fill:#8821EA;" points="241.803,75.927 241.511,74.97 246.228,73.533 244.451,68.934 245.385,68.574 
				247.548,74.177 			"/>
		</g>
	</g>
</g>
<g>
	<rect x="119.987" y="67.175" style="fill:none;" width="84.539" height="31.104"/>
	<path d="M157.257,68.835v-0.94h10v0.94h-4.5v11.34h-1.02v-11.34H157.257z"/>
</g>
<circle style="fill:#FFFA5A;" cx="45.856" cy="86.265" r="5.464"/>
<circle style="fill:#FFFA5A;" cx="273.488" cy="98.279" r="5.464"/>
<g>
	<g>
		<path style="fill:none;stroke:#8821EA;stroke-linecap:round;stroke-linejoin:round;" d="M58.617,92.646
			c28.495,14.247,156.087,3.554,204.01,5.585"/>
		<g>
			<polygon style="fill:#8821EA;" points="259.196,102.243 258.535,101.492 262.24,98.239 258.725,94.78 259.428,94.067 
				263.708,98.28 			"/>
		</g>
	</g>
</g>
<circle style="fill:#FFFA5A;" cx="65.677" cy="63.018" r="5.465"/>
<circle style="fill:#FFFA5A;" cx="281.011" cy="77.374" r="5.464"/>
<g>
	<g>
		<path style="fill:none;stroke:#8821EA;stroke-linecap:round;stroke-linejoin:round;" d="M74.568,57.554
			c28.422-17.951,170.275-28.562,200.363,13.465"/>
		<g>
			<polygon style="fill:#8821EA;" points="269.631,70.878 269.802,69.892 274.658,70.741 275.15,65.834 276.146,65.935 
				275.546,71.91 			"/>
		</g>
	</g>
</g>
<g>
	<g>
		<path style="fill:#2C9CAF;" d="M42.087,58.35h1.157l5.984,15.12h-1.256l-1.97-4.975h-6.698l-1.945,4.975h-1.256L42.087,58.35z
			 M42.653,59.975l-2.906,7.388h5.812L42.653,59.975z"/>
	</g>
</g>
<g>
	<rect x="267.136" y="51.524" style="fill:none;" width="58.891" height="40.296"/>
	<path style="fill:#C12323;" d="M275.897,53.51v-1.125h11.963v1.125h-5.384v13.566h-1.22V53.51H275.897z"/>
	<path style="fill:#C12323;" d="M291.054,65.951c-1.156-1.579-1.734-3.461-1.734-5.646c0-2.185,0.578-4.067,1.734-5.646
		s2.716-2.624,4.678-3.134v1.196c-1.483,0.367-2.728,1.232-3.732,2.596s-1.507,3.027-1.507,4.989s0.502,3.625,1.507,4.988
		s2.249,2.229,3.732,2.596v1.196C293.77,68.575,292.21,67.53,291.054,65.951z"/>
	<path style="fill:#C12323;" d="M302.742,52.385h1.125l5.813,14.69h-1.22l-1.914-4.833h-6.508l-1.891,4.833h-1.22L302.742,52.385z
		 M303.293,53.964l-2.823,7.178h5.646L303.293,53.964z"/>
	<path style="fill:#C12323;" d="M315.555,54.658c1.156,1.579,1.735,3.461,1.735,5.646c0,2.186-0.579,4.067-1.735,5.646
		s-2.715,2.624-4.677,3.134v-1.196c1.483-0.367,2.728-1.232,3.732-2.596s1.507-3.026,1.507-4.988s-0.502-3.625-1.507-4.989
		s-2.249-2.229-3.732-2.596v-1.196C312.84,52.034,314.398,53.079,315.555,54.658z"/>
</g>
<g>
</g>
<g>
</g>
<g>
</g>
<g>
</g>
<g>
</g>
<g>
</g>
<g>
</g>
</svg>
