<?xml version="1.0" encoding="utf-8"?>
<!-- Generator: Adobe Illustrator 16.0.0, SVG Export Plug-In . SVG Version: 6.00 Build 0)  -->
<!DOCTYPE svg PUBLIC "-//W3C//DTD SVG 1.1//EN" "http://www.w3.org/Graphics/SVG/1.1/DTD/svg11.dtd">
<svg version="1.1" id="Layer_1" xmlns="http://www.w3.org/2000/svg" xmlns:xlink="http://www.w3.org/1999/xlink" x="0px" y="0px"
	 width="59.457px" height="72.107px" viewBox="0 0 59.457 72.107" enable-background="new 0 0 59.457 72.107" xml:space="preserve">
<path fill="none" stroke="#EFE026" stroke-linecap="round" stroke-linejoin="round" stroke-miterlimit="10" d="M23.97,38.225
	c3.781,0,7.056,2.171,8.646,5.333"/>
<g>
	<g>
		
			<line fill="none" stroke="#4BF9CF" stroke-linecap="round" stroke-miterlimit="10" x1="23.97" y1="47.896" x2="53.767" y2="32.927"/>
		<g>
			<polygon fill="#4BF9CF" points="52.642,38.07 51.703,37.722 53.424,33.101 48.689,31.722 48.97,30.761 54.735,32.443 			"/>
		</g>
	</g>
</g>
<g>
	<g>
		
			<line fill="none" stroke="#F7415B" stroke-linecap="round" stroke-miterlimit="10" x1="23.97" y1="47.896" x2="23.829" y2="2.616"/>
		<g>
			<polygon fill="#F7415B" points="27.93,5.917 27.199,6.602 23.832,3.001 20.485,6.623 19.751,5.942 23.827,1.532 			"/>
		</g>
	</g>
</g>
<g>
	<g>
		<rect y="19.134" fill="none" width="15.885" height="15.455"/>
		<path fill="#F7415B" d="M9.454,26.657c1.442,0.082,2.761,1.029,2.761,2.863c0,2.121-1.298,3.378-4.264,3.378H4.572V20.766h3.337
			c2.596,0,3.771,1.029,3.771,3.069c0,1.627-0.928,2.554-2.226,2.76V26.657z M7.951,26.266c1.565,0,2.637-0.659,2.637-2.287
			c0-1.647-0.989-2.286-2.802-2.286H5.664v4.573H7.951z M5.664,31.972h2.39c1.957,0,3.09-0.742,3.09-2.493
			c0-1.421-0.968-2.307-3.049-2.307H5.664V31.972z"/>
	</g>
</g>
<g>
	<g>
		<rect x="39.924" y="53.046" fill="none" width="15.884" height="15.455"/>
		<path fill="#4BF9CF" d="M50.572,62.958h-5.438l-1.442,3.853H42.56l4.614-12.133h1.421l4.573,12.133h-1.153L50.572,62.958z
			 M45.464,62.032h4.759l-1.339-3.604c-0.7-1.854-0.989-3.028-0.989-3.028h-0.082c0,0-0.288,1.153-0.989,3.008L45.464,62.032z"/>
	</g>
</g>
<g>
	<g>
		<g>
			<rect x="43.572" y="2.606" fill="none" width="15.885" height="15.454"/>
			<path fill="#41C8F7" d="M56.58,13.981c-0.927,1.73-2.328,2.575-4.512,2.575c-3.151,0-5.252-2.163-5.252-6.221
				c0-4.059,2.225-6.283,5.438-6.283c2.102,0,3.543,0.927,4.326,2.884L55.612,7.41c-0.577-1.606-1.772-2.431-3.42-2.431
				c-2.698,0-4.243,2.039-4.243,5.356c0,3.274,1.441,5.252,4.161,5.252c1.771,0,2.884-0.7,3.687-2.225L56.58,13.981z"/>
		</g>
	</g>
</g>
<g>
	<g>
		
			<line fill="none" stroke="#41C8F7" stroke-linecap="round" stroke-linejoin="round" x1="54.735" y1="32.441" x2="24.593" y2="2.299"/>
		<g>
			<polygon fill="#41C8F7" points="29.828,1.75 29.792,2.75 24.865,2.569 25.045,7.498 24.045,7.533 23.827,1.531 			"/>
		</g>
	</g>
</g>
<g>
	<rect x="22.116" y="29.756" fill="none" width="21" height="13.666"/>
	<path fill="#EFE026" d="M30.326,33.248c0-2.038,0.829-3.598,2.339-3.598c1.539,0,2.248,1.449,2.248,3.598
		c0,2.249-0.729,3.719-2.278,3.719C31.206,36.966,30.326,35.716,30.326,33.248z M34.044,32.868c-0.01-1.419-0.46-2.568-1.429-2.568
		c-0.89,0-1.42,1.21-1.42,2.568H34.044z M31.195,33.528c0,1.779,0.6,2.788,1.46,2.788c0.939,0,1.389-1.159,1.389-2.788H31.195z"/>
</g>
<g>
</g>
<g>
</g>
<g>
</g>
<g>
</g>
<g>
</g>
<g>
</g>
<g>
</g>
</svg>
