<?xml version="1.0" encoding="iso-8859-1"?>
<!-- Generator: Adobe Illustrator 16.0.0, SVG Export Plug-In . SVG Version: 6.00 Build 0)  -->
<!DOCTYPE svg PUBLIC "-//W3C//DTD SVG 1.1//EN" "http://www.w3.org/Graphics/SVG/1.1/DTD/svg11.dtd">
<svg version="1.1" xmlns="http://www.w3.org/2000/svg" xmlns:xlink="http://www.w3.org/1999/xlink" x="0px" y="0px"
	 width="321.305px" height="252.805px" viewBox="0 0 321.305 252.805" style="enable-background:new 0 0 321.305 252.805;"
	 xml:space="preserve">
<g id="triple_x5F_integral">
	
		<line style="fill:none;stroke:#BBBDBF;stroke-width:0.75;stroke-miterlimit:10;" x1="160.652" y1="-0.001" x2="160.652" y2="160.484"/>
	
		<line style="fill:none;stroke:#BBBDBF;stroke-width:0.75;stroke-miterlimit:10;" x1="160.652" y1="160.484" x2="0.168" y2="240.727"/>
	
		<line style="fill:none;stroke:#BBBDBF;stroke-width:0.75;stroke-miterlimit:10;" x1="160.652" y1="160.484" x2="321.137" y2="240.727"/>
	<g>
		<g>
			
				<line style="fill:none;stroke:#A6A8AB;stroke-width:0.75;stroke-linecap:round;stroke-linejoin:round;" x1="50.26" y1="215.68" x2="51.146" y2="216.143"/>
			
				<line style="fill:none;stroke:#A6A8AB;stroke-width:0.75;stroke-linecap:round;stroke-linejoin:round;stroke-dasharray:2.0365,2.0365;" x1="52.952" y1="217.084" x2="109.826" y2="246.758"/>
			
				<line style="fill:none;stroke:#A6A8AB;stroke-width:0.75;stroke-linecap:round;stroke-linejoin:round;" x1="110.729" y1="247.229" x2="111.615" y2="247.691"/>
		</g>
	</g>
	<polygon style="fill:#E80000;" points="129.569,198.385 129.819,205.99 135.576,203.627 135.576,196.65 	"/>
	<g>
		<g>
			
				<line style="fill:none;stroke:#A6A8AB;stroke-width:0.75;stroke-linecap:round;stroke-linejoin:round;" x1="220.834" y1="190.574" x2="220.834" y2="189.574"/>
			
				<line style="fill:none;stroke:#A6A8AB;stroke-width:0.75;stroke-linecap:round;stroke-linejoin:round;stroke-dasharray:1.9616,1.9616;" x1="220.834" y1="187.612" x2="220.834" y2="102.283"/>
			
				<line style="fill:none;stroke:#A6A8AB;stroke-width:0.75;stroke-linecap:round;stroke-linejoin:round;" x1="220.834" y1="101.302" x2="220.834" y2="100.302"/>
		</g>
	</g>
	<g>
		<g>
			
				<line style="fill:none;stroke:#A6A8AB;stroke-width:0.75;stroke-linecap:round;stroke-linejoin:round;" x1="220.834" y1="190.574" x2="219.948" y2="191.038"/>
			
				<line style="fill:none;stroke:#A6A8AB;stroke-width:0.75;stroke-linecap:round;stroke-linejoin:round;stroke-dasharray:1.9877,1.9877;" x1="218.187" y1="191.959" x2="113.382" y2="246.768"/>
			
				<line style="fill:none;stroke:#A6A8AB;stroke-width:0.75;stroke-linecap:round;stroke-linejoin:round;" x1="112.501" y1="247.228" x2="111.615" y2="247.691"/>
		</g>
	</g>
	<polygon style="fill:#FF1614;" points="129.819,205.99 124.804,202.926 124.804,196.24 129.569,198.385 	"/>
	<polygon style="fill:#FF4040;" points="135.576,196.65 129.569,198.385 124.804,196.24 130.19,194.01 	"/>
	<path style="opacity:0.7;fill:#386DF9;" d="M50.319,129.393c32.508-14.674,60.182,20.061,60.182,20.061l110.334-50.151
		c0,0-30.091-30.092-50.152-20.061C150.622,89.271,50.319,129.393,50.319,129.393z"/>
	<g>
		<g>
			
				<line style="fill:none;stroke:#231F20;stroke-width:0.5;stroke-linecap:round;stroke-linejoin:round;" x1="217.497" y1="85.482" x2="200.854" y2="97.059"/>
			<g>
				<polygon style="fill:#231F20;" points="201.046,94.434 201.535,94.54 201.011,96.949 203.452,97.296 203.381,97.791 
					200.408,97.368 				"/>
			</g>
		</g>
	</g>
	<g>
		<line style="fill:#5D22FF;" x1="124.993" y1="206.828" x2="118.028" y2="216.857"/>
		<g>
			
				<line style="fill:none;stroke:#231F20;stroke-width:0.5;stroke-linecap:round;stroke-linejoin:round;" x1="124.684" y1="207.273" x2="118.028" y2="216.857"/>
			<g>
				<polygon style="fill:#231F20;" points="122.059,207.468 122.165,207.957 124.574,207.431 124.922,209.872 125.418,209.801 
					124.993,206.828 				"/>
			</g>
		</g>
	</g>
	<g>
		<g>
			
				<line style="fill:none;stroke:#231F20;stroke-width:0.5;stroke-miterlimit:10;" x1="134.878" y1="206.345" x2="144.034" y2="214.258"/>
			<g>
				<polygon style="fill:#231F20;" points="134.794,208.976 135.292,208.922 135.023,206.471 137.487,206.382 137.469,205.882 
					134.467,205.99 				"/>
			</g>
		</g>
	</g>
	<g>
		<g>
			
				<line style="fill:none;stroke:#231F20;stroke-width:0.5;stroke-miterlimit:10;" x1="137.876" y1="200.45" x2="150.606" y2="196.65"/>
			<g>
				<polygon style="fill:#231F20;" points="140.049,201.936 140.271,201.487 138.06,200.396 139.311,198.271 138.879,198.018 
					137.356,200.605 				"/>
			</g>
		</g>
	</g>
	<g>
		<path d="M222.44,80.002l-0.128,0.65h3.903l-3.825,3.805c-0.453,0.464-0.945,0.888-1.369,1.38c-0.05,0.128-0.079,0.296-0.109,0.434
			c1.735-0.01,3.549,0.029,5.205-0.01c0.078-0.188,0.118-0.424,0.168-0.65h-4.15l3.913-3.883c0.424-0.424,0.868-0.849,1.272-1.292
			c0.039-0.128,0.078-0.286,0.107-0.434H222.44"/>
		<path d="M232.307,83.925c-0.088,0.147,0,0.346,0.158,0.385c0.078,0.029,0.168,0.01,0.246,0.01h8.043c0.1,0,0.197,0,0.276-0.079
			c0.167-0.157,0.05-0.424-0.177-0.453c-0.178-0.01-0.365,0-0.553,0h-7.59C232.533,83.788,232.406,83.778,232.307,83.925
			 M232.465,81.224c-0.266,0.08-0.246,0.453,0.029,0.504c0.079,0.029,0.178,0.02,0.256,0.02h7.984c0.109,0,0.217,0,0.296-0.09
			c0.157-0.138,0.05-0.424-0.157-0.443c-0.188-0.02-0.375,0-0.562,0h-7.619C232.633,81.214,232.533,81.195,232.465,81.224z"/>
		<path d="M247.26,80.002l-0.139,0.66h1.145c-0.414,1.854-0.799,3.755-1.193,5.608c0.276,0,0.582,0.02,0.818-0.02l0.039-0.099
			c0.296-1.419,0.611-2.8,0.907-4.229c0.108-0.395,0.147-0.857,0.276-1.231l0.138-0.03h1.498l0.138-0.66h-1.666
			c0.119-0.385,0.178-0.798,0.257-1.183c0.04-0.188,0.069-0.385,0.147-0.553c0.316-0.552,1.203-0.748,2.021-0.621
			c0.188,0.04,0.364,0.109,0.552,0.148l0.147-0.749c-0.473-0.089-0.995-0.147-1.488-0.079c-0.887,0.118-1.793,0.729-2.109,1.567
			c-0.118,0.325-0.305,1.261-0.305,1.261c0,0.061-0.021,0.148-0.07,0.178c-0.068,0.05-0.227,0.03-0.305,0.03H247.26"/>
		<path d="M257.373,89.228c-0.108-0.118-0.236-0.227-0.355-0.335c-0.107-0.089-0.197-0.196-0.295-0.306
			c-1.331-1.459-2.021-3.805-1.912-6.289c0.049-1.35,0.314-2.74,0.955-3.962c0.297-0.542,0.799-1.312,1.252-1.695
			c0.119-0.108,0.247-0.217,0.355-0.335h-0.434c-0.069,0-0.168-0.02-0.227,0.01c-0.158,0.078-0.562,0.482-0.611,0.532
			c-1.281,1.281-2.041,3.204-2.139,5.45c-0.069,1.607,0.197,3.244,0.916,4.683c0.316,0.641,0.74,1.222,1.242,1.726
			c0.138,0.137,0.434,0.424,0.592,0.502c0.059,0.029,0.157,0.02,0.227,0.02H257.373"/>
		<path d="M259.551,80.002c0.621,1.005,1.271,1.991,1.873,3.026l-0.049,0.078l-2.514,2.465l-0.71,0.699c0.306,0,0.631,0,0.917-0.01
			l0.256-0.236l2.405-2.504c0.522,0.907,0.995,1.854,1.538,2.73c0.285,0.039,0.631,0.02,0.946,0.02
			c-0.168-0.306-1.745-2.799-1.863-2.986c-0.04-0.068-0.128-0.158-0.118-0.236c0.029-0.1,0.147-0.178,0.217-0.246l0.582-0.572
			l1.626-1.577c0.207-0.217,0.464-0.414,0.65-0.65c-0.306,0-0.631,0-0.917,0.01c-0.65,0.581-1.242,1.242-1.862,1.853l-0.582,0.572
			l-0.364-0.611c-0.375-0.602-0.689-1.252-1.104-1.813C260.191,80.002,259.867,80.002,259.551,80.002"/>
		<path d="M266.924,85.236v1.035h0.326l-0.336,1.479h0.532c0.178-0.492,0.346-0.966,0.503-1.459c0.02-0.335,0.02-0.689,0.02-1.055
			H266.924"/>
		<path d="M273.144,80.002c0.069,0.464,0.167,0.917,0.267,1.37l0.828,4.238c0.02,0.108,0.128,0.542,0.117,0.641
			c0,0.079-0.059,0.148-0.098,0.207c-0.089,0.138-0.168,0.285-0.246,0.414c-0.227,0.385-0.533,0.848-0.986,1.016
			c-0.385,0.138-1.133-0.06-1.399-0.129l-0.089,0.75c0.345,0.049,1.006,0.127,1.351,0.068c0.917-0.197,1.488-1.104,1.873-1.773
			l3.687-6.151l0.227-0.384c0.049-0.1,0.107-0.178,0.147-0.267c-0.286,0-0.591-0.02-0.828,0.02
			c-0.335,0.454-0.581,0.985-0.887,1.469l-1.509,2.593c-0.236,0.434-0.492,0.857-0.689,1.34c-0.02-0.641-0.128-1.271-0.246-1.902
			c-0.068-0.345-0.602-3.4-0.67-3.499c-0.05-0.05-0.158-0.02-0.228-0.02H273.144"/>
		<path d="M279.975,76.306c0.108,0.118,0.236,0.227,0.355,0.335c0.107,0.089,0.206,0.197,0.295,0.306
			c1.153,1.32,1.823,3.135,1.912,5.352c0.068,1.646-0.188,3.361-0.946,4.85c-0.246,0.523-0.581,1.016-0.966,1.439
			c-0.089,0.109-0.188,0.217-0.295,0.306c-0.119,0.108-0.247,0.217-0.355,0.335h0.434c0.068,0,0.168,0.01,0.227-0.02
			c0.168-0.078,0.562-0.473,0.611-0.532c1.281-1.271,2.041-3.204,2.148-5.45c0.06-1.607-0.207-3.243-0.926-4.673
			c-0.315-0.641-0.74-1.222-1.242-1.735c-0.139-0.127-0.424-0.424-0.592-0.502c-0.059-0.029-0.158-0.01-0.227-0.01H279.975"/>
	</g>
	<path d="M308.262,242.586c0.082,0.551,0.211,1.09,0.316,1.627l0.984,5.035c0.035,0.129,0.151,0.645,0.141,0.762
		c0,0.094-0.059,0.176-0.105,0.258c-0.117,0.152-0.211,0.328-0.305,0.48c-0.27,0.455-0.633,1.018-1.171,1.205
		c-0.457,0.176-1.347-0.07-1.663-0.141l-0.105,0.879c0.41,0.07,1.207,0.164,1.615,0.082c1.09-0.234,1.77-1.312,2.226-2.096
		l4.367-7.318l0.27-0.457c0.069-0.105,0.128-0.211,0.175-0.316c-0.327,0-0.689-0.012-0.982,0.035
		c-0.387,0.539-0.691,1.172-1.055,1.732l-1.779,3.08c-0.293,0.527-0.586,1.031-0.819,1.592c-0.035-0.748-0.164-1.51-0.305-2.26
		c-0.082-0.41-0.714-4.039-0.796-4.145c-0.059-0.07-0.188-0.035-0.258-0.035H308.262"/>
	<path d="M4.692,241.951c0.725,1.152,1.47,2.283,2.159,3.469l-0.068,0.102l-2.882,2.814l-0.801,0.814c0.35,0,0.711,0,1.051-0.023
		l0.281-0.271l2.769-2.869c0.588,1.039,1.142,2.123,1.763,3.129c0.316,0.045,0.712,0.035,1.085,0.035
		c-0.203-0.363-2-3.221-2.136-3.436c-0.045-0.08-0.158-0.182-0.135-0.271c0.033-0.113,0.169-0.203,0.236-0.271l0.678-0.654
		l1.854-1.82c0.249-0.248,0.543-0.475,0.746-0.746c-0.351,0-0.712,0-1.051,0.012c-0.746,0.678-1.412,1.424-2.125,2.125l-0.678,0.654
		l-0.406-0.699c-0.43-0.689-0.791-1.436-1.266-2.08C5.427,241.951,5.065,241.951,4.692,241.951"/>
	<path d="M167.432,2.785l-0.126,0.643h3.849l-3.771,3.751c-0.446,0.456-0.933,0.874-1.351,1.36
		c-0.059,0.127-0.078,0.292-0.107,0.428c1.701-0.01,3.499,0.029,5.123-0.01c0.087-0.185,0.125-0.418,0.174-0.641h-4.092l3.859-3.83
		c0.418-0.418,0.846-0.836,1.254-1.273c0.038-0.126,0.077-0.281,0.106-0.428H167.432"/>
	<g>
		<path d="M199.871,206.529c0.071,0.48,0.175,0.953,0.276,1.424l0.852,4.408c0.03,0.111,0.143,0.572,0.133,0.666
			c0,0.082-0.062,0.152-0.103,0.225c-0.093,0.133-0.175,0.287-0.267,0.42c-0.225,0.41-0.543,0.893-1.015,1.057
			c-0.399,0.152-1.179-0.051-1.455-0.123l-0.093,0.768c0.359,0.062,1.046,0.145,1.404,0.072c0.953-0.205,1.548-1.148,1.947-1.834
			l3.833-6.406l0.235-0.4c0.053-0.092,0.113-0.174,0.154-0.275c-0.297,0-0.615-0.01-0.861,0.029
			c-0.348,0.473-0.604,1.025-0.922,1.518l-1.568,2.695c-0.246,0.461-0.512,0.902-0.717,1.395c-0.031-0.656-0.134-1.322-0.257-1.969
			c-0.071-0.369-0.625-3.545-0.696-3.639c-0.051-0.061-0.164-0.029-0.236-0.029H199.871"/>
		<path d="M210.868,210.607c-0.092,0.154,0,0.359,0.174,0.4c0.082,0.031,0.164,0.02,0.246,0.02h8.363c0.113,0,0.205,0,0.287-0.092
			c0.185-0.164,0.062-0.441-0.174-0.461c-0.195-0.02-0.389,0-0.584,0h-7.893C211.104,210.475,210.971,210.455,210.868,210.607
			 M211.042,207.799c-0.276,0.082-0.266,0.473,0.021,0.523c0.082,0.031,0.184,0.021,0.266,0.021h8.312c0.103,0,0.215,0,0.297-0.082
			c0.164-0.154,0.062-0.441-0.164-0.473c-0.194-0.01-0.389,0-0.584,0h-7.912C211.206,207.789,211.104,207.779,211.042,207.799z"/>
		<path d="M230.085,209.809l-0.215,0.953c-0.062,0.348-0.123,0.676-0.359,0.963c-0.45,0.574-1.301,0.82-1.998,0.738
			c-0.348-0.041-0.737-0.186-0.902-0.512c-0.245-0.482,0.123-1.035,0.503-1.344C227.8,210.064,228.979,209.809,230.085,209.809
			 M226.938,207.717c0.227-0.092,0.42-0.234,0.637-0.328c0.491-0.234,1.023-0.379,1.567-0.379c0.164,0,0.327-0.01,0.481,0.031
			c0.502,0.133,0.779,0.666,0.759,1.189c0,0.287-0.134,0.727-0.175,0.953c0,0.113-0.041,0.205-0.164,0.205h-0.225
			c-0.318,0.029-0.646,0.041-0.964,0.082c-1.188,0.184-2.521,0.625-3.013,1.609c-0.318,0.635-0.236,1.66,0.481,1.988
			c0.39,0.143,0.614,0.123,1.147,0.041c0.789-0.113,1.589-0.432,2.143-1.025l-0.205,0.973h0.635c0.134,0,0.257,0.021,0.257-0.152
			c0.071-0.268,0.276-1.312,0.298-1.373c0.061-0.328,0.645-2.994,0.676-3.209c0.041-0.533-0.113-1.096-0.513-1.486
			c-0.308-0.277-0.707-0.43-1.128-0.471c-0.809-0.072-1.906,0.246-2.346,0.471c-0.072,0.031-0.175,0.051-0.236,0.123
			c-0.041,0.051-0.041,0.154-0.041,0.215C226.979,207.359,226.96,207.543,226.938,207.717z"/>
	</g>
	<g>
		<path d="M50.608,240.773c0.621,1.014,1.271,1.988,1.871,3.031l-0.06,0.08l-2.501,2.451l-0.709,0.709c0.305,0,0.62,0,0.916-0.02
			l0.256-0.236l2.402-2.5c0.512,0.904,0.995,1.85,1.537,2.727c0.285,0.039,0.63,0.029,0.945,0.029
			c-0.168-0.305-1.744-2.807-1.861-2.994c-0.039-0.068-0.128-0.156-0.118-0.236c0.029-0.088,0.147-0.176,0.216-0.236l0.582-0.57
			l1.624-1.586c0.208-0.207,0.463-0.414,0.649-0.648c-0.305,0-0.629,0-0.914,0.01c-0.65,0.59-1.242,1.24-1.862,1.85l-0.591,0.572
			l-0.354-0.611c-0.375-0.6-0.689-1.25-1.104-1.811C51.239,240.773,50.923,240.773,50.608,240.773"/>
		<path d="M60.998,244.691c-0.089,0.148,0,0.346,0.167,0.385c0.079,0.029,0.158,0.01,0.236,0.01h8.035c0.109,0,0.197,0,0.276-0.078
			c0.178-0.158,0.06-0.424-0.167-0.445c-0.188-0.018-0.375,0-0.562,0h-7.583C61.224,244.562,61.097,244.545,60.998,244.691
			 M61.165,241.994c-0.266,0.078-0.256,0.453,0.02,0.502c0.079,0.029,0.178,0.02,0.256,0.02h7.987c0.099,0,0.206,0,0.285-0.078
			c0.157-0.148,0.06-0.424-0.157-0.453c-0.188-0.01-0.375,0-0.562,0h-7.603C61.323,241.984,61.224,241.975,61.165,241.994z"/>
		<path d="M79.63,241.521c0.117,0.059,0.227,0.127,0.314,0.227c0.463,0.441,0.492,1.162,0.414,1.762
			c-0.148,1.025-0.581,2.088-1.517,2.629c-0.413,0.236-1.161,0.502-1.753,0.256c-0.236-0.117-0.414-0.344-0.512-0.59
			c-0.029-0.09-0.089-0.197-0.089-0.285c0-0.148,0.069-0.326,0.099-0.473c0.068-0.326,0.128-0.65,0.207-0.975l0.246-1.184
			c0.02-0.137,0.068-0.256,0.088-0.393c0.02-0.08,0.029-0.168,0.06-0.246c0.059-0.139,0.207-0.266,0.315-0.365
			C78.044,241.412,78.821,241.117,79.63,241.521 M77.267,237.828l-1.96,9.217c0.296,0,0.591,0.01,0.837-0.029
			c0.099-0.266,0.139-0.57,0.207-0.867h0.01c0.118,0.326,0.354,0.611,0.64,0.779c0.847,0.512,1.94,0.078,2.64-0.492
			c0.827-0.689,1.359-1.695,1.526-2.738c0.187-1.113-0.05-2.059-0.62-2.629c-0.809-0.729-2.059-0.346-2.826,0.236
			c-0.148,0.107-0.296,0.236-0.434,0.373c0.266-1.289,0.561-2.551,0.816-3.85H77.267z"/>
	</g>
	<g>
		<path d="M112.812,225.49h0.009C112.821,225.502,112.812,225.52,112.812,225.49 M113.47,221.553
			c0.038,0.074,0.102,0.176,0.111,0.277c0.01,0.121-0.045,0.287-0.073,0.408c-0.065,0.277-0.528,2.457-0.528,2.457
			c-0.046,0.295-0.148,0.398-0.344,0.592c-0.314,0.334-0.713,0.566-1.166,0.604c-0.474,0.037-0.873-0.148-1.123-0.361
			c-0.463-0.436-0.5-1.104-0.416-1.688c0.129-0.936,0.5-1.9,1.344-2.428C111.858,221.016,113.017,220.783,113.47,221.553z
			 M114.472,217.744l-0.751,3.559h-0.009c-0.102-0.27-0.426-0.557-0.677-0.686c-0.815-0.436-1.78-0.102-2.438,0.463
			c-0.777,0.648-1.278,1.604-1.436,2.586c-0.213,1.242,0.194,2.299,0.982,2.697c0.713,0.352,1.594,0.055,2.178-0.398
			c0.176-0.131,0.334-0.297,0.482-0.463l-0.186,0.916c0.277,0,0.556,0.01,0.787-0.027l0.057-0.139
			c0.119-0.621,0.259-1.232,0.398-1.863l1.399-6.645H114.472z"/>
		<path d="M117.075,220.516c0.065,0.434,0.168,0.861,0.251,1.287l0.778,3.984c0.028,0.104,0.121,0.52,0.111,0.604
			c0,0.074-0.047,0.139-0.083,0.203c-0.093,0.121-0.167,0.26-0.241,0.381c-0.214,0.371-0.501,0.807-0.928,0.955
			c-0.36,0.139-1.064-0.047-1.315-0.113l-0.083,0.697c0.324,0.055,0.955,0.129,1.279,0.064c0.861-0.186,1.398-1.039,1.76-1.658
			l3.457-5.793l0.213-0.361c0.057-0.084,0.103-0.158,0.14-0.25c-0.259,0-0.546-0.01-0.778,0.027
			c-0.307,0.426-0.547,0.926-0.834,1.371l-1.408,2.438c-0.232,0.416-0.465,0.814-0.649,1.26c-0.027-0.592-0.13-1.195-0.241-1.779
			c-0.064-0.324-0.564-3.207-0.631-3.289c-0.046-0.057-0.147-0.027-0.203-0.027H117.075"/>
	</g>
	<g>
		<path d="M145.365,221.119h0.009C145.374,221.127,145.365,221.146,145.365,221.119 M146.025,217.162
			c0.037,0.074,0.103,0.178,0.111,0.279c0.02,0.121-0.046,0.289-0.074,0.41c-0.056,0.279-0.521,2.467-0.521,2.467
			c-0.057,0.297-0.158,0.4-0.354,0.604c-0.316,0.326-0.716,0.559-1.173,0.596c-0.475,0.039-0.875-0.148-1.126-0.363
			c-0.466-0.436-0.503-1.107-0.41-1.693c0.122-0.939,0.504-1.908,1.341-2.439C144.406,216.623,145.579,216.389,146.025,217.162z
			 M147.031,213.336l-0.754,3.574h-0.01c-0.103-0.27-0.428-0.557-0.68-0.688c-0.819-0.438-1.777-0.104-2.448,0.465
			c-0.781,0.652-1.284,1.609-1.442,2.598c-0.214,1.246,0.195,2.309,0.987,2.717c0.716,0.344,1.601,0.047,2.187-0.408
			c0.177-0.131,0.345-0.299,0.494-0.467l-0.187,0.922c0.27,0,0.549,0.01,0.791-0.027l0.047-0.141
			c0.12-0.623,0.261-1.236,0.399-1.871l1.406-6.674H147.031z"/>
		<path d="M149.507,216.119c0.586,0.959,1.201,1.891,1.769,2.867l-0.056,0.074l-2.374,2.318l-0.66,0.67c0.288,0,0.586,0,0.865-0.01
			l0.242-0.232l2.271-2.354c0.484,0.846,0.94,1.74,1.452,2.568c0.271,0.037,0.597,0.027,0.894,0.027
			c-0.158-0.289-1.646-2.652-1.759-2.83c-0.037-0.055-0.121-0.148-0.112-0.223c0.029-0.084,0.141-0.158,0.206-0.225l0.549-0.539
			l1.535-1.498c0.196-0.195,0.438-0.381,0.614-0.615c-0.288,0-0.595,0-0.865,0.02c-0.614,0.549-1.173,1.162-1.76,1.74l-0.558,0.539
			l-0.335-0.576c-0.354-0.568-0.652-1.182-1.043-1.703C150.103,216.119,149.805,216.119,149.507,216.119"/>
	</g>
	<g>
		<path d="M155.985,197.191h0.018C156.003,197.207,155.985,197.217,155.985,197.191 M156.618,193.463
			c0.034,0.07,0.096,0.166,0.104,0.264c0.009,0.113-0.044,0.27-0.07,0.393c-0.061,0.256-0.5,2.316-0.5,2.316
			c-0.044,0.281-0.141,0.377-0.333,0.57c-0.29,0.309-0.667,0.527-1.097,0.562c-0.447,0.035-0.825-0.141-1.062-0.344
			c-0.438-0.412-0.473-1.033-0.394-1.596c0.123-0.887,0.474-1.799,1.263-2.289C155.091,192.953,156.188,192.734,156.618,193.463z
			 M157.564,189.857l-0.71,3.367h-0.018c-0.088-0.254-0.396-0.525-0.632-0.648c-0.772-0.412-1.685-0.096-2.308,0.438
			c-0.736,0.615-1.21,1.52-1.368,2.449c-0.192,1.176,0.192,2.174,0.938,2.561c0.676,0.324,1.5,0.043,2.062-0.387
			c0.167-0.121,0.315-0.279,0.456-0.43l-0.175,0.859c0.263,0,0.517,0.01,0.745-0.025l0.044-0.131
			c0.123-0.588,0.255-1.166,0.386-1.764l1.325-6.289H157.564z"/>
		<path d="M160.372,192.48l-0.114,0.578h3.474l-3.403,3.387c-0.403,0.412-0.842,0.797-1.22,1.229
			c-0.052,0.121-0.07,0.262-0.096,0.393c1.535-0.008,3.157,0.027,4.622-0.008c0.079-0.166,0.114-0.385,0.159-0.578h-3.693
			l3.482-3.457c0.377-0.377,0.764-0.764,1.131-1.148c0.035-0.123,0.07-0.264,0.097-0.395H160.372"/>
	</g>
</g>
<g id="Layer_1">
</g>
</svg>
