<svg xmlns="http://www.w3.org/2000/svg" xmlns:xlink="http://www.w3.org/1999/xlink" height="288pt" version="1.1" viewBox="0 0 576 288" width="576pt">
 <defs>
  <clipPath id="pd17d8af51d">
   <rect height="223.2" width="446.4" x="72.0" y="28.8"/>
  </clipPath>
 </defs>
<defs>
  <style type="text/css">
*{stroke-linecap:butt;stroke-linejoin:round;}
  </style>
 </defs>
 <g id="figure_1">
  <g id="patch_1">
   <path d=" M0 288 L576 288 L576 0 L0 0 z " style="fill:#ffffff;"/>
  </g>
  <g id="axes_1">
   <g id="patch_2">
    <path d=" M72 252 L518.4 252 L518.4 28.8 L72 28.8 z " style="fill:#eaeaf2;"/>
   </g>
   <g id="matplotlib.axis_1">
    <g id="xtick_1">
     <g id="line2d_1">
      <path clip-path="url(#pd17d8af51d)" d=" M72 252 L72 28.8" style="fill:none;stroke:#ffffff;stroke-linecap:round;stroke-width:1.3;"/>
     </g>
     <g id="line2d_2">
      <defs>
       <path d=" M0 0 L0 0" id="m56cc5124a0" style="stroke:#262626;stroke-width:1.3;"/>
      </defs>
      <g>
       <use style="fill:#262626;stroke:#262626;stroke-width:1.3;" x="72.0" xlink:href="#m56cc5124a0" y="252.0"/>
      </g>
     </g>
     <g id="line2d_3">
      <g>
       <use style="fill:#262626;stroke:#262626;stroke-width:1.3;" x="72.0" xlink:href="#m56cc5124a0" y="28.8"/>
      </g>
     </g>
    </g>
    <g id="xtick_2">
     <g id="line2d_4">
      <path clip-path="url(#pd17d8af51d)" d=" M146.4 252 L146.4 28.8" style="fill:none;stroke:#ffffff;stroke-linecap:round;stroke-width:1.3;"/>
     </g>
     <g id="line2d_5">
      <g>
       <use style="fill:#262626;stroke:#262626;stroke-width:1.3;" x="146.4" xlink:href="#m56cc5124a0" y="252.0"/>
      </g>
     </g>
     <g id="line2d_6">
      <g>
       <use style="fill:#262626;stroke:#262626;stroke-width:1.3;" x="146.4" xlink:href="#m56cc5124a0" y="28.8"/>
      </g>
     </g>
    </g>
    <g id="xtick_3">
     <g id="line2d_7">
      <path clip-path="url(#pd17d8af51d)" d=" M220.8 252 L220.8 28.8" style="fill:none;stroke:#ffffff;stroke-linecap:round;stroke-width:1.3;"/>
     </g>
     <g id="line2d_8">
      <g>
       <use style="fill:#262626;stroke:#262626;stroke-width:1.3;" x="220.8" xlink:href="#m56cc5124a0" y="252.0"/>
      </g>
     </g>
     <g id="line2d_9">
      <g>
       <use style="fill:#262626;stroke:#262626;stroke-width:1.3;" x="220.8" xlink:href="#m56cc5124a0" y="28.8"/>
      </g>
     </g>
    </g>
    <g id="xtick_4">
     <g id="line2d_10">
      <path clip-path="url(#pd17d8af51d)" d=" M295.2 252 L295.2 28.8" style="fill:none;stroke:#ffffff;stroke-linecap:round;stroke-width:1.3;"/>
     </g>
     <g id="line2d_11">
      <g>
       <use style="fill:#262626;stroke:#262626;stroke-width:1.3;" x="295.2" xlink:href="#m56cc5124a0" y="252.0"/>
      </g>
     </g>
     <g id="line2d_12">
      <g>
       <use style="fill:#262626;stroke:#262626;stroke-width:1.3;" x="295.2" xlink:href="#m56cc5124a0" y="28.8"/>
      </g>
     </g>
    </g>
    <g id="xtick_5">
     <g id="line2d_13">
      <path clip-path="url(#pd17d8af51d)" d=" M369.6 252 L369.6 28.8" style="fill:none;stroke:#ffffff;stroke-linecap:round;stroke-width:1.3;"/>
     </g>
     <g id="line2d_14">
      <g>
       <use style="fill:#262626;stroke:#262626;stroke-width:1.3;" x="369.6" xlink:href="#m56cc5124a0" y="252.0"/>
      </g>
     </g>
     <g id="line2d_15">
      <g>
       <use style="fill:#262626;stroke:#262626;stroke-width:1.3;" x="369.6" xlink:href="#m56cc5124a0" y="28.8"/>
      </g>
     </g>
     <g id="text_1">
      <!-- $a$ -->
      <defs>
       <path d=" M16.9062 30.2031 L12.7969 33.2969 Q15.7969 40.0938 21.3438 43.1875 Q26.9062 46.2969 33.4062 46.2969 Q39.7031 46.2969 43.2031 43.6406 Q46.7031 41 46.7031 36.2031 Q46.7031 34.7969 46.2031 32.5938 L39.9062 7.59375 Q39.0938 4.70312 39.0938 0 L30.5938 0 L31.0938 4.40625 Q23.9062 -1 14.9062 -1 Q10.5 -1 8 0.953125 Q5.5 2.90625 5.5 6.59375 Q5.5 23.4062 37.5 29.4062 L38.2969 32.7031 Q38.5 33.7031 38.5 34.2031 Q38.5 36.5 36.5469 37.8438 Q34.5938 39.2031 31.4062 39.2031 Q23.7969 39.2031 18.4062 30.2031 z  M33.4062 13.2031 L35.7031 22.2031 Q13.9062 18.7031 13.9062 9.59375 Q13.9062 6.09375 18.7031 6.09375 Q25.5 6.09375 33.4062 13.2031" id="STIXGeneral-Italic-1d622"/>
      </defs>
      <g style="fill:#262626;" transform="translate(366.3825 270.395)scale(0.14300000000000002 -0.14300000000000002)">
       <use transform="translate(0.0 0.703125)" xlink:href="#STIXGeneral-Italic-1d622"/>
      </g>
     </g>
    </g>
    <g id="xtick_6">
     <g id="line2d_16">
      <path clip-path="url(#pd17d8af51d)" d=" M444 252 L444 28.8" style="fill:none;stroke:#ffffff;stroke-linecap:round;stroke-width:1.3;"/>
     </g>
     <g id="line2d_17">
      <g>
       <use style="fill:#262626;stroke:#262626;stroke-width:1.3;" x="444.0" xlink:href="#m56cc5124a0" y="252.0"/>
      </g>
     </g>
     <g id="line2d_18">
      <g>
       <use style="fill:#262626;stroke:#262626;stroke-width:1.3;" x="444.0" xlink:href="#m56cc5124a0" y="28.8"/>
      </g>
     </g>
     <g id="text_2">
      <!-- $b$ -->
      <defs>
       <path d=" M31.0938 67.9062 L24.5 41.4062 Q31.2031 46.2969 38.5 46.2969 Q45.5 46.2969 49.5 42.25 Q53.5 38.2031 53.5 31.2969 Q53.5 18.2031 44 8.59375 Q34.5 -1 22.5 -1 Q12.2031 -1 7.40625 4.70312 L22.7031 66 L30.2969 68.4062 z  M21.7031 30.2031 L16.5 9.40625 Q19.5938 6.09375 24.7969 6.09375 Q32 6.09375 38.5938 12.3906 Q45.2031 18.7031 45.2031 28.7969 Q45.2031 33.5938 42.6406 36.3906 Q40.0938 39.2031 35.2031 39.2031 Q31.5938 39.2031 27.9375 36.8438 Q24.2969 34.5 21.7031 30.2031" id="STIXGeneral-Italic-1d623"/>
      </defs>
      <g style="fill:#262626;" transform="translate(440.425 270.395)scale(0.14300000000000002 -0.14300000000000002)">
       <use transform="translate(0.0 0.59375)" xlink:href="#STIXGeneral-Italic-1d623"/>
      </g>
     </g>
    </g>
    <g id="xtick_7">
     <g id="line2d_19">
      <path clip-path="url(#pd17d8af51d)" d=" M518.4 252 L518.4 28.8" style="fill:none;stroke:#ffffff;stroke-linecap:round;stroke-width:1.3;"/>
     </g>
     <g id="line2d_20">
      <g>
       <use style="fill:#262626;stroke:#262626;stroke-width:1.3;" x="518.4" xlink:href="#m56cc5124a0" y="252.0"/>
      </g>
     </g>
     <g id="line2d_21">
      <g>
       <use style="fill:#262626;stroke:#262626;stroke-width:1.3;" x="518.4" xlink:href="#m56cc5124a0" y="28.8"/>
      </g>
     </g>
    </g>
   </g>
   <g id="matplotlib.axis_2">
    <g id="ytick_1">
     <g id="line2d_22">
      <path clip-path="url(#pd17d8af51d)" d=" M72 252 L518.4 252" style="fill:none;stroke:#ffffff;stroke-linecap:round;stroke-width:1.3;"/>
     </g>
     <g id="line2d_23">
      <g>
       <use style="fill:#262626;stroke:#262626;stroke-width:1.3;" x="72.0" xlink:href="#m56cc5124a0" y="252.0"/>
      </g>
     </g>
     <g id="line2d_24">
      <g>
       <use style="fill:#262626;stroke:#262626;stroke-width:1.3;" x="518.4" xlink:href="#m56cc5124a0" y="252.0"/>
      </g>
     </g>
    </g>
    <g id="ytick_2">
     <g id="line2d_25">
      <path clip-path="url(#pd17d8af51d)" d=" M72 207.36 L518.4 207.36" style="fill:none;stroke:#ffffff;stroke-linecap:round;stroke-width:1.3;"/>
     </g>
     <g id="line2d_26">
      <g>
       <use style="fill:#262626;stroke:#262626;stroke-width:1.3;" x="72.0" xlink:href="#m56cc5124a0" y="207.36"/>
      </g>
     </g>
     <g id="line2d_27">
      <g>
       <use style="fill:#262626;stroke:#262626;stroke-width:1.3;" x="518.4" xlink:href="#m56cc5124a0" y="207.36"/>
      </g>
     </g>
    </g>
    <g id="ytick_3">
     <g id="line2d_28">
      <path clip-path="url(#pd17d8af51d)" d=" M72 162.72 L518.4 162.72" style="fill:none;stroke:#ffffff;stroke-linecap:round;stroke-width:1.3;"/>
     </g>
     <g id="line2d_29">
      <g>
       <use style="fill:#262626;stroke:#262626;stroke-width:1.3;" x="72.0" xlink:href="#m56cc5124a0" y="162.72"/>
      </g>
     </g>
     <g id="line2d_30">
      <g>
       <use style="fill:#262626;stroke:#262626;stroke-width:1.3;" x="518.4" xlink:href="#m56cc5124a0" y="162.72"/>
      </g>
     </g>
    </g>
    <g id="ytick_4">
     <g id="line2d_31">
      <path clip-path="url(#pd17d8af51d)" d=" M72 118.08 L518.4 118.08" style="fill:none;stroke:#ffffff;stroke-linecap:round;stroke-width:1.3;"/>
     </g>
     <g id="line2d_32">
      <g>
       <use style="fill:#262626;stroke:#262626;stroke-width:1.3;" x="72.0" xlink:href="#m56cc5124a0" y="118.08"/>
      </g>
     </g>
     <g id="line2d_33">
      <g>
       <use style="fill:#262626;stroke:#262626;stroke-width:1.3;" x="518.4" xlink:href="#m56cc5124a0" y="118.08"/>
      </g>
     </g>
    </g>
    <g id="ytick_5">
     <g id="line2d_34">
      <path clip-path="url(#pd17d8af51d)" d=" M72 73.44 L518.4 73.44" style="fill:none;stroke:#ffffff;stroke-linecap:round;stroke-width:1.3;"/>
     </g>
     <g id="line2d_35">
      <g>
       <use style="fill:#262626;stroke:#262626;stroke-width:1.3;" x="72.0" xlink:href="#m56cc5124a0" y="73.44"/>
      </g>
     </g>
     <g id="line2d_36">
      <g>
       <use style="fill:#262626;stroke:#262626;stroke-width:1.3;" x="518.4" xlink:href="#m56cc5124a0" y="73.44"/>
      </g>
     </g>
    </g>
    <g id="ytick_6">
     <g id="line2d_37">
      <path clip-path="url(#pd17d8af51d)" d=" M72 28.8 L518.4 28.8" style="fill:none;stroke:#ffffff;stroke-linecap:round;stroke-width:1.3;"/>
     </g>
     <g id="line2d_38">
      <g>
       <use style="fill:#262626;stroke:#262626;stroke-width:1.3;" x="72.0" xlink:href="#m56cc5124a0" y="28.8"/>
      </g>
     </g>
     <g id="line2d_39">
      <g>
       <use style="fill:#262626;stroke:#262626;stroke-width:1.3;" x="518.4" xlink:href="#m56cc5124a0" y="28.8"/>
      </g>
     </g>
    </g>
   </g>
   <g id="line2d_40">
    <path clip-path="url(#pd17d8af51d)" d=" M72 252 L518.4 252" style="fill:none;stroke:#dcdce6;stroke-linecap:round;stroke-width:2;"/>
   </g>
   <g id="line2d_41">
    <path clip-path="url(#pd17d8af51d)" d=" M72 252 L72 28.8" style="fill:none;stroke:#dcdce6;stroke-linecap:round;stroke-width:2;"/>
   </g>
   <g id="line2d_42">
    <path clip-path="url(#pd17d8af51d)" d=" M369.6 252 L369.6 28.8" style="fill:none;stroke:#dcdce6;stroke-linecap:round;stroke-width:2;"/>
   </g>
   <g id="line2d_43">
    <path clip-path="url(#pd17d8af51d)" d=" M444 252 L444 28.8" style="fill:none;stroke:#dcdce6;stroke-linecap:round;stroke-width:2;"/>
   </g>
   <g id="patch_3">
    <path d=" M72 252 L72 28.8" style="fill:none;"/>
   </g>
   <g id="patch_4">
    <path d=" M518.4 252 L518.4 28.8" style="fill:none;"/>
   </g>
   <g id="patch_5">
    <path d=" M72 252 L518.4 252" style="fill:none;"/>
   </g>
   <g id="patch_6">
    <path d=" M72 28.8 L518.4 28.8" style="fill:none;"/>
   </g>
   <g id="text_3">
    <!-- Unbounded function -->
    <defs>
     <path d=" M14.7031 -0.90625 Q3.5 11.9062 3.5 22.2031 Q3.5 32.5 9.09375 38.8906 Q14.7031 45.2969 23.7031 45.2969 Q31 45.2969 35.6406 41.3906 Q40.2969 37.5 41.5 31 L33.7969 31 Q33 34.5938 30.3438 36.6406 Q27.7031 38.7031 23.7031 38.7031 Q18 38.7031 14.5469 34.0938 Q11.0938 29.5 11.0938 22.2031 Q11.0938 14.9062 14.5469 10.2969 Q18 5.70312 23.7031 5.70312 Q27.7031 5.70312 30.3438 7.75 Q33 9.79688 33.7969 13.4062 L41.5 13.4062 Q40.2969 6.90625 35.6406 3 Q31 -0.90625 23.7031 -0.90625 Q14.7031 -0.90625 3.5 11.9062" id="CalibreRegular-63"/>
     <path d=" M33 45.2969 Q44.2969 32.4062 44.2969 22.2031 Q44.2969 12 38.6406 5.54688 Q33 -0.90625 23.8906 -0.90625 Q14.7969 -0.90625 9.14062 5.54688 Q3.5 12 3.5 22.2031 Q3.5 32.4062 9.14062 38.8438 Q14.7969 45.2969 23.8906 45.2969 Q33 45.2969 44.2969 32.4062 M29.7969 5.70312 Q36.7031 14.7969 36.7031 22.1875 Q36.7031 29.5938 33.25 34.1406 Q29.7969 38.7031 23.8906 38.7031 Q18 38.7031 14.5469 34.1406 Q11.0938 29.5938 11.0938 22.1875 Q11.0938 14.7969 14.5469 10.25 Q18 5.70312 23.8906 5.70312 Q29.7969 5.70312 36.7031 14.7969" id="CalibreRegular-6f"/>
     <path d=" M14.2031 5.20312 L14.2031 0 L6.59375 0 L6.59375 65 L14.2031 65 L14.2031 39.2031 Q16 41.7969 19.3906 43.5469 Q22.7969 45.2969 26.7031 45.2969 Q36.0938 45.2969 41.3906 38.6406 Q46.7031 32 46.7031 22.2031 Q46.7031 12.2969 41.3906 5.6875 Q36.0938 -0.90625 26.7031 -0.90625 Q22.7969 -0.90625 19.3906 0.84375 Q16 2.59375 14.2031 5.20312 M14.2031 31.2031 L14.2031 13.2031 Q15.9062 9.79688 18.9531 7.84375 Q22 5.90625 25.5938 5.90625 Q31.7969 5.90625 35.4375 10.4531 Q39.0938 15 39.0938 22.2031 Q39.0938 29.4062 35.4375 33.9531 Q31.7969 38.5 25.5938 38.5 Q22 38.5 18.9531 36.5469 Q15.9062 34.5938 14.2031 31.2031" id="CalibreRegular-62"/>
     <path d=" M36 0 L36 5.20312 Q34.2031 2.59375 30.7969 0.84375 Q27.4062 -0.90625 23.5 -0.90625 Q14.0938 -0.90625 8.79688 5.6875 Q3.5 12.2969 3.5 22.2031 Q3.5 32 8.79688 38.6406 Q14.0938 45.2969 23.5 45.2969 Q27.4062 45.2969 30.7969 43.5469 Q34.2031 41.7969 36 39.2031 L36 65 L43.5938 65 L43.5938 0 z  M36 13.2031 L36 31.2031 Q34.2969 34.5938 31.25 36.5469 Q28.2031 38.5 24.5938 38.5 Q18.4062 38.5 14.75 33.9531 Q11.0938 29.4062 11.0938 22.2031 Q11.0938 15 14.75 10.4531 Q18.4062 5.90625 24.5938 5.90625 Q28.2031 5.90625 31.25 7.84375 Q34.2969 9.79688 36 13.2031" id="CalibreRegular-64"/>
     <path d=" M34.7031 13.2969 L41.7969 13.2969 Q40.5938 6.79688 35.8906 2.9375 Q31.2031 -0.90625 23.9062 -0.90625 Q14.7969 -0.90625 9.14062 5.4375 Q3.5 11.7969 3.5 22.0938 Q3.5 32.2031 9.09375 38.75 Q14.7031 45.2969 23.7031 45.2969 Q32.5938 45.2969 37.5 39.3438 Q42.4062 33.4062 42.4062 23.5 L42.4062 20.7969 L11 20.7969 Q11.0938 13.7969 14.6406 9.64062 Q18.2031 5.5 23.9062 5.5 Q28.0938 5.5 30.9375 7.54688 Q33.7969 9.59375 34.7031 13.2969 M23.7969 38.9062 Q18.7969 38.9062 15.3906 35.5938 Q12 32.2969 11.2031 26.5 L34.7969 26.5 Q34.7031 31.7969 31.8906 35.3438 Q29.0938 38.9062 23.7969 38.9062" id="CalibreRegular-65"/>
     <path id="CalibreRegular-20"/>
     <path d=" M28.9062 64.9062 L28.9062 58.0938 Q27 59.2969 24.2031 59.2969 Q20.7969 59.2969 18.8438 57.1875 Q16.9062 55.0938 16.9062 51.2031 L16.9062 44.4062 L26.9062 44.4062 L26.9062 38 L16.9062 38 L16.9062 0 L9.5 0 L9.5 38 L2 38 L2 44.4062 L9.5 44.4062 L9.5 51.7969 Q9.5 58.2969 13.2969 62.0938 Q17.0938 65.9062 23.0938 65.9062 Q26.5 65.9062 28.9062 64.9062" id="CalibreRegular-66"/>
     <path d=" M30.2969 -0.90625 Q19.5 -0.90625 12.8906 5.59375 Q6.29688 12.0938 6.29688 24.4062 L6.29688 61.4062 L14.0938 61.4062 L14.0938 25.2969 Q14.0938 15.7031 18.3906 10.8906 Q22.7031 6.09375 30.2969 6.09375 Q37.9062 6.09375 42.2031 10.8906 Q46.5 15.7031 46.5 25.2969 L46.5 61.4062 L54.4062 61.4062 L54.4062 24.2969 Q54.4062 12.0938 47.7969 5.59375 Q41.2031 -0.90625 30.2969 -0.90625" id="CalibreRegular-55"/>
     <path d=" M6.70312 0 L6.70312 44.4062 L14.2031 44.4062 L14.2031 38.7969 Q16.2969 41.5938 19.75 43.4375 Q23.2031 45.2969 27.2969 45.2969 Q34.7031 45.2969 38.7969 40.8906 Q42.9062 36.5 42.9062 29.0938 L42.9062 0 L35.2969 0 L35.2969 27.9062 Q35.2969 32.7031 32.8438 35.5469 Q30.4062 38.4062 25.5 38.4062 Q21.5938 38.4062 18.5 36.0469 Q15.4062 33.7031 14.2031 30.0938 L14.2031 0 z " id="CalibreRegular-6e"/>
     <path d=" M42.0938 44.4062 L42.0938 0 L34.5 0 L34.5 5.59375 Q32.5 2.79688 29.0938 0.9375 Q25.7031 -0.90625 21.5938 -0.90625 Q14.2031 -0.90625 10.1406 3.5 Q6.09375 7.90625 6.09375 15.2969 L6.09375 44.4062 L13.7031 44.4062 L13.7031 16.5 Q13.7031 11.5938 16.0938 8.79688 Q18.5 6 23.4062 6 Q27.2031 6 30.25 8.29688 Q33.2969 10.5938 34.5 14.2969 L34.5 44.4062 z " id="CalibreRegular-75"/>
     <path d=" M14.2031 44.4062 L14.2031 0 L6.70312 0 L6.70312 44.4062 z  M12.4062 62.5938 Q15.2969 59.7969 15.2969 57.7969 Q15.2969 55.7969 13.8438 54.3906 Q12.4062 53 10.4062 53 Q8.40625 53 7 54.3906 Q5.59375 55.7969 5.59375 57.7969 Q5.59375 59.7969 7 61.1875 Q8.40625 62.5938 10.4062 62.5938 Q12.4062 62.5938 15.2969 59.7969" id="CalibreRegular-69"/>
     <path d=" M8.79688 11.2031 L8.79688 38 L1.59375 38 L1.59375 44.4062 L8.79688 44.4062 L8.79688 56.0938 L16.2969 56.0938 L16.2969 44.4062 L27 44.4062 L27 38 L16.2969 38 L16.2969 12 Q16.2969 5.79688 22.2031 5.79688 Q25.2969 5.79688 28 7.59375 L28 0.59375 Q25.2031 -0.90625 21 -0.90625 Q15.4062 -0.90625 12.0938 2.14062 Q8.79688 5.20312 8.79688 11.2031" id="CalibreRegular-74"/>
    </defs>
    <g style="fill:#262626;" transform="translate(227.60300625 23.8)scale(0.17160000000000003 -0.17160000000000003)">
     <use xlink:href="#CalibreRegular-55"/>
     <use x="60.69999694824219" xlink:href="#CalibreRegular-6e"/>
     <use x="109.59999084472656" xlink:href="#CalibreRegular-62"/>
     <use x="159.79998779296875" xlink:href="#CalibreRegular-6f"/>
     <use x="207.5999755859375" xlink:href="#CalibreRegular-75"/>
     <use x="256.2999725341797" xlink:href="#CalibreRegular-6e"/>
     <use x="305.19996643066406" xlink:href="#CalibreRegular-64"/>
     <use x="355.39996337890625" xlink:href="#CalibreRegular-65"/>
     <use x="401.09996032714844" xlink:href="#CalibreRegular-64"/>
     <use x="451.2999572753906" xlink:href="#CalibreRegular-20"/>
     <use x="473.3999481201172" xlink:href="#CalibreRegular-66"/>
     <use x="502.29994201660156" xlink:href="#CalibreRegular-75"/>
     <use x="550.9999389648438" xlink:href="#CalibreRegular-6e"/>
     <use x="599.8999328613281" xlink:href="#CalibreRegular-63"/>
     <use x="644.4999237060547" xlink:href="#CalibreRegular-74"/>
     <use x="676.1999206542969" xlink:href="#CalibreRegular-69"/>
     <use x="697.0999145507812" xlink:href="#CalibreRegular-6f"/>
     <use x="744.89990234375" xlink:href="#CalibreRegular-6e"/>
    </g>
   </g>
   <g id="line2d_44">
    <path clip-path="url(#pd17d8af51d)" d=" M72 251.777 L117.884 251.475 L149.476 251.055 L173.546 250.519 L193.103 249.869 L209.651 249.099 L223.943 248.213 L236.354 247.228 L247.637 246.112 L257.791 244.885 L267.194 243.523 L275.844 242.04 L283.742 240.461 L291.264 238.725 L298.034 236.941 L304.427 235.035 L310.445 233.022 L316.462 230.771 L322.104 228.418 L327.369 225.987 L332.635 223.305 L337.524 220.568 L342.413 217.57 L346.926 214.55 L351.439 211.264 L355.953 207.691 L360.09 204.14 L364.227 200.305 L368.364 196.162 L372.501 191.687 L376.262 187.309 L380.023 182.613 L383.784 177.576 L387.545 172.174 L391.306 166.379 L395.067 160.164 L398.828 153.497 L402.588 146.347 L406.349 138.677 L410.11 130.451 L413.871 121.627 L417.256 113.14 L420.641 104.1 L424.026 94.4712 L427.411 84.2158 L430.796 73.2928 L434.181 61.6587 L437.565 49.2672 L440.95 36.0689 L444.335 22.0115 L447.72 7.03889 L447.72 7.03889" style="fill:none;stroke:#386df9;stroke-linecap:round;stroke-width:2.275;"/>
   </g>
  </g>
 </g>
 </svg>
