<svg xmlns="http://www.w3.org/2000/svg" xmlns:xlink="http://www.w3.org/1999/xlink" height="170pt" version="1.1" viewBox="0 0 170 170" width="170pt">
 <defs>
  <clipPath id="p5f862809f0">
   <rect height="170.078740157" width="170.078740157" x="0.0" y="0.0"/>
  </clipPath>
 </defs>
<defs>
  <style type="text/css">
*{stroke-linecap:butt;stroke-linejoin:round;stroke-miterlimit:100000;}
  </style>
 </defs>
 <g id="figure_1">
  <g id="patch_1">
   <path d="M 0 170.07874  L 170.07874 170.07874  L 170.07874 0  L 0 0  z " style="fill:#ffffff;"/>
  </g>
  <g id="axes_1">
   <g id="patch_2">
    <path clip-path="url(#p5f862809f0)" d="M 28.346457 73.700787  C 32.856998 73.700787 37.183406 71.908731 40.37284 68.719296  C 43.562274 65.529862 45.354331 61.203454 45.354331 56.692913  C 45.354331 52.182372 43.562274 47.855964 40.37284 44.66653  C 37.183406 41.477096 32.856998 39.685039 28.346457 39.685039  C 23.835916 39.685039 19.509508 41.477096 16.320074 44.66653  C 13.13064 47.855964 11.338583 52.182372 11.338583 56.692913  C 11.338583 61.203454 13.13064 65.529862 16.320074 68.719296  C 19.509508 71.908731 23.835916 73.700787 28.346457 73.700787  L 28.346457 73.700787  z " style="fill:none;stroke:#000000;stroke-linejoin:miter;"/>
   </g>
   <g id="patch_3">
    <path clip-path="url(#p5f862809f0)" d="M 85.03937 130.393701  C 89.549911 130.393701 93.876319 128.601644 97.065753 125.41221  C 100.255187 122.222776 102.047244 117.896368 102.047244 113.385827  C 102.047244 108.875286 100.255187 104.548878 97.065753 101.359444  C 93.876319 98.17001 89.549911 96.377953 85.03937 96.377953  C 80.528829 96.377953 76.202421 98.17001 73.012987 101.359444  C 69.823553 104.548878 68.031496 108.875286 68.031496 113.385827  C 68.031496 117.896368 69.823553 122.222776 73.012987 125.41221  C 76.202421 128.601644 80.528829 130.393701 85.03937 130.393701  L 85.03937 130.393701  z " style="fill:none;stroke:#000000;stroke-linejoin:miter;"/>
   </g>
   <g id="patch_4">
    <path clip-path="url(#p5f862809f0)" d="M 85.03937 73.700787  C 89.549911 73.700787 93.876319 71.908731 97.065753 68.719296  C 100.255187 65.529862 102.047244 61.203454 102.047244 56.692913  C 102.047244 52.182372 100.255187 47.855964 97.065753 44.66653  C 93.876319 41.477096 89.549911 39.685039 85.03937 39.685039  C 80.528829 39.685039 76.202421 41.477096 73.012987 44.66653  C 69.823553 47.855964 68.031496 52.182372 68.031496 56.692913  C 68.031496 61.203454 69.823553 65.529862 73.012987 68.719296  C 76.202421 71.908731 80.528829 73.700787 85.03937 73.700787  L 85.03937 73.700787  z " style="fill:none;stroke:#000000;stroke-linejoin:miter;"/>
   </g>
   <g id="patch_5">
    <path clip-path="url(#p5f862809f0)" d="M 130.393701 102.047244  C 134.904242 102.047244 139.23065 100.255187 142.420084 97.065753  C 145.609518 93.876319 147.401575 89.549911 147.401575 85.03937  C 147.401575 80.528829 145.609518 76.202421 142.420084 73.012987  C 139.23065 69.823553 134.904242 68.031496 130.393701 68.031496  C 125.88316 68.031496 121.556752 69.823553 118.367318 73.012987  C 115.177884 76.202421 113.385827 80.528829 113.385827 85.03937  C 113.385827 89.549911 115.177884 93.876319 118.367318 97.065753  C 121.556752 100.255187 125.88316 102.047244 130.393701 102.047244  L 130.393701 102.047244  z " style="fill:none;stroke:#000000;stroke-linejoin:miter;"/>
   </g>
   <g id="patch_6">
    <path clip-path="url(#p5f862809f0)" d="M 28.346457 130.393701  C 32.856998 130.393701 37.183406 128.601644 40.37284 125.41221  C 43.562274 122.222776 45.354331 117.896368 45.354331 113.385827  C 45.354331 108.875286 43.562274 104.548878 40.37284 101.359444  C 37.183406 98.17001 32.856998 96.377953 28.346457 96.377953  C 23.835916 96.377953 19.509508 98.17001 16.320074 101.359444  C 13.13064 104.548878 11.338583 108.875286 11.338583 113.385827  C 11.338583 117.896368 13.13064 122.222776 16.320074 125.41221  C 19.509508 128.601644 23.835916 130.393701 28.346457 130.393701  L 28.346457 130.393701  z " style="fill:none;stroke:#000000;stroke-linejoin:miter;"/>
   </g>
   <g id="line2d_1">
    <path clip-path="url(#p5f862809f0)" d="M 45.354331 56.692913  L 68.031496 56.692913  " style="fill:none;stroke:#000000;stroke-linecap:square;"/>
   </g>
   <g id="line2d_2">
    <path clip-path="url(#p5f862809f0)" d="M 28.346457 73.700787  L 28.346457 96.377953  " style="fill:none;stroke:#000000;stroke-linecap:square;"/>
   </g>
   <g id="line2d_3">
    <path clip-path="url(#p5f862809f0)" d="M 68.031496 113.385827  L 45.354331 113.385827  " style="fill:none;stroke:#000000;stroke-linecap:square;"/>
   </g>
   <g id="line2d_4">
    <path clip-path="url(#p5f862809f0)" d="M 40.37284 68.719296  L 73.012987 101.359444  " style="fill:none;stroke:#000000;stroke-linecap:square;"/>
   </g>
   <g id="line2d_5">
    <path clip-path="url(#p5f862809f0)" d="M 99.462018 104.371672  L 115.971052 94.053525  " style="fill:none;stroke:#000000;stroke-linecap:square;"/>
   </g>
   <g id="line2d_6">
    <path clip-path="url(#p5f862809f0)" d="M 85.03937 73.700787  L 85.03937 96.377953  " style="fill:none;stroke:#000000;stroke-linecap:square;"/>
   </g>
   <g id="line2d_7">
    <path clip-path="url(#p5f862809f0)" d="M 73.012987 68.719296  L 40.37284 101.359444  " style="fill:none;stroke:#000000;stroke-linecap:square;"/>
   </g>
   <g id="line2d_8">
    <path clip-path="url(#p5f862809f0)" d="M 115.971052 76.025215  L 99.462018 65.707069  " style="fill:none;stroke:#000000;stroke-linecap:square;"/>
   </g>
   <g id="matplotlib.axis_1"/>
   <g id="matplotlib.axis_2"/>
   <g id="text_1">
    <!-- A -->
    <defs>
     <path d="M 34.1875 63.1875  L 20.796875 26.90625  L 47.609375 26.90625  z M 28.609375 72.90625  L 39.796875 72.90625  L 67.578125 0  L 57.328125 0  L 50.6875 18.703125  L 17.828125 18.703125  L 11.1875 0  L 0.78125 0  z " id="BitstreamVeraSans-Roman-41"/>
    </defs>
    <g transform="translate(22.1898941929 61.6597883858)scale(0.18 -0.18)">
     <use xlink:href="#BitstreamVeraSans-Roman-41"/>
    </g>
   </g>
   <g id="text_2">
    <!-- C -->
    <defs>
     <path d="M 64.40625 67.28125  L 64.40625 56.890625  Q 59.421875 61.53125 53.78125 63.8125  Q 48.140625 66.109375 41.796875 66.109375  Q 29.296875 66.109375 22.65625 58.46875  Q 16.015625 50.828125 16.015625 36.375  Q 16.015625 21.96875 22.65625 14.328125  Q 29.296875 6.6875 41.796875 6.6875  Q 48.140625 6.6875 53.78125 8.984375  Q 59.421875 11.28125 64.40625 15.921875  L 64.40625 5.609375  Q 59.234375 2.09375 53.4375 0.328125  Q 47.65625 -1.421875 41.21875 -1.421875  Q 24.65625 -1.421875 15.125 8.703125  Q 5.609375 18.84375 5.609375 36.375  Q 5.609375 53.953125 15.125 64.078125  Q 24.65625 74.21875 41.21875 74.21875  Q 47.75 74.21875 53.53125 72.484375  Q 59.328125 70.75 64.40625 67.28125  " id="BitstreamVeraSans-Roman-43"/>
    </defs>
    <g transform="translate(78.7548388287 118.352701772)scale(0.18 -0.18)">
     <use xlink:href="#BitstreamVeraSans-Roman-43"/>
    </g>
   </g>
   <g id="text_3">
    <!-- B -->
    <defs>
     <path d="M 19.671875 34.8125  L 19.671875 8.109375  L 35.5 8.109375  Q 43.453125 8.109375 47.28125 11.40625  Q 51.125 14.703125 51.125 21.484375  Q 51.125 28.328125 47.28125 31.5625  Q 43.453125 34.8125 35.5 34.8125  z M 19.671875 64.796875  L 19.671875 42.828125  L 34.28125 42.828125  Q 41.5 42.828125 45.03125 45.53125  Q 48.578125 48.25 48.578125 53.8125  Q 48.578125 59.328125 45.03125 62.0625  Q 41.5 64.796875 34.28125 64.796875  z M 9.8125 72.90625  L 35.015625 72.90625  Q 46.296875 72.90625 52.390625 68.21875  Q 58.5 63.53125 58.5 54.890625  Q 58.5 48.1875 55.375 44.234375  Q 52.25 40.28125 46.1875 39.3125  Q 53.46875 37.75 57.5 32.78125  Q 61.53125 27.828125 61.53125 20.40625  Q 61.53125 10.640625 54.890625 5.3125  Q 48.25 0 35.984375 0  L 9.8125 0  z " id="BitstreamVeraSans-Roman-42"/>
    </defs>
    <g transform="translate(78.8645263287 61.6597883858)scale(0.18 -0.18)">
     <use xlink:href="#BitstreamVeraSans-Roman-42"/>
    </g>
   </g>
   <g id="text_4">
    <!-- E -->
    <defs>
     <path d="M 9.8125 72.90625  L 55.90625 72.90625  L 55.90625 64.59375  L 19.671875 64.59375  L 19.671875 43.015625  L 54.390625 43.015625  L 54.390625 34.71875  L 19.671875 34.71875  L 19.671875 8.296875  L 56.78125 8.296875  L 56.78125 0  L 9.8125 0  z " id="BitstreamVeraSans-Roman-45"/>
    </defs>
    <g transform="translate(124.706825787 90.0062450787)scale(0.18 -0.18)">
     <use xlink:href="#BitstreamVeraSans-Roman-45"/>
    </g>
   </g>
   <g id="text_5">
    <!-- D -->
    <defs>
     <path d="M 19.671875 64.796875  L 19.671875 8.109375  L 31.59375 8.109375  Q 46.6875 8.109375 53.6875 14.9375  Q 60.6875 21.78125 60.6875 36.53125  Q 60.6875 51.171875 53.6875 57.984375  Q 46.6875 64.796875 31.59375 64.796875  z M 9.8125 72.90625  L 30.078125 72.90625  Q 51.265625 72.90625 61.171875 64.09375  Q 71.09375 55.28125 71.09375 36.53125  Q 71.09375 17.671875 61.125 8.828125  Q 51.171875 0 30.078125 0  L 9.8125 0  z " id="BitstreamVeraSans-Roman-44"/>
    </defs>
    <g transform="translate(21.4164566929 118.352701772)scale(0.18 -0.18)">
     <use xlink:href="#BitstreamVeraSans-Roman-44"/>
    </g>
   </g>
  </g>
 </g>
 </svg>
