<?xml version="1.0" encoding="utf-8" standalone="no"?>
<!DOCTYPE svg PUBLIC "-//W3C//DTD SVG 1.1//EN"
  "http://www.w3.org/Graphics/SVG/1.1/DTD/svg11.dtd">
<!-- Created with matplotlib (http://matplotlib.org/) -->
<svg height="514pt" version="1.1" viewBox="0 0 748 514" width="748pt" xmlns="http://www.w3.org/2000/svg" xmlns:xlink="http://www.w3.org/1999/xlink">
 <defs>
  <style type="text/css">
*{stroke-linecap:butt;stroke-linejoin:round;}
  </style>
 </defs>
 <g id="figure_1">
  <g id="patch_1">
   <path d="
M0 514.8
L748.8 514.8
L748.8 0
L0 0
z
" style="fill:#ffffff;"/>
  </g>
  <g id="axes_1">
   <g id="patch_2">
    <path d="
M93.6 450.45
L673.92 450.45
L673.92 51.48
L93.6 51.48
z
" style="fill:#eaeaf2;"/>
   </g>
   <g id="matplotlib.axis_1">
    <g id="xtick_1">
     <g id="line2d_1">
      <path clip-path="url(#pd831f6c710)" d="
M93.6 450.45
L93.6 51.48" style="fill:none;stroke:#ffffff;stroke-linecap:round;stroke-width:1.3;"/>
     </g>
     <g id="line2d_2">
      <defs>
       <path d="
M0 0
L0 0" id="m56cc5124a0" style="stroke:#262626;stroke-width:1.3;"/>
      </defs>
      <g>
       <use style="fill:#262626;stroke:#262626;stroke-width:1.3;" x="93.6" xlink:href="#m56cc5124a0" y="450.45"/>
      </g>
     </g>
     <g id="line2d_3">
      <g>
       <use style="fill:#262626;stroke:#262626;stroke-width:1.3;" x="93.6" xlink:href="#m56cc5124a0" y="51.48"/>
      </g>
     </g>
     <g id="text_1">
      <!-- −5 -->
      <defs>
       <path d="
M23.7031 33
Q17.2031 33 12.7969 27.7031
L6.59375 27.7031
L6.59375 61.4062
L40.2031 61.4062
L40.2031 54.4062
L13.2031 54.4062
L13.2031 35.9062
Q17.5 39.7969 24.4062 39.7969
Q32.9062 39.7969 38.2969 34.0469
Q43.7031 28.2969 43.7031 19.4062
Q43.7031 10.7031 38.0938 4.89062
Q32.5 -0.90625 23.7969 -0.90625
Q15 -0.90625 9.39062 4
Q3.79688 8.90625 2.70312 17.5
L10.4062 17.5
Q12.5 5.90625 23.7969 5.90625
Q29.2969 5.90625 32.7969 9.75
Q36.2969 13.5938 36.2969 19.3906
Q36.2969 25.2031 32.7969 29.0938
Q29.2969 33 23.7031 33" id="CalibreRegular-35"/>
       <path d="
M7.29688 26.5938
L7.29688 32.7969
L46.7031 32.7969
L46.7031 26.5938
z
" id="CalibreRegular-2212"/>
      </defs>
      <g style="fill:#262626;" transform="translate(87.135953125 468.845)scale(0.14300000000000002 -0.14300000000000002)">
       <use xlink:href="#CalibreRegular-2212"/>
       <use x="53.99998474121094" xlink:href="#CalibreRegular-35"/>
      </g>
     </g>
    </g>
    <g id="xtick_2">
     <g id="line2d_4">
      <path clip-path="url(#pd831f6c710)" d="
M209.664 450.45
L209.664 51.48" style="fill:none;stroke:#ffffff;stroke-linecap:round;stroke-width:1.3;"/>
     </g>
     <g id="line2d_5">
      <g>
       <use style="fill:#262626;stroke:#262626;stroke-width:1.3;" x="209.664" xlink:href="#m56cc5124a0" y="450.45"/>
      </g>
     </g>
     <g id="line2d_6">
      <g>
       <use style="fill:#262626;stroke:#262626;stroke-width:1.3;" x="209.664" xlink:href="#m56cc5124a0" y="51.48"/>
      </g>
     </g>
     <g id="text_2">
      <!-- 0 -->
      <defs>
       <path d="
M49.7969 16.5938
Q37.0938 -0.90625 26.8906 -0.90625
Q16.7031 -0.90625 10.3438 7.84375
Q4 16.5938 4 30.6875
Q4 44.7969 10.3438 53.5469
Q16.7031 62.2969 26.8906 62.2969
Q37.0938 62.2969 43.4375 53.5469
Q49.7969 44.7969 49.7969 30.6875
Q49.7969 16.5938 37.0938 -0.90625
M26.9062 55.2031
Q19.5938 55.2031 15.6406 48.5
Q11.7031 41.7969 11.7031 30.6875
Q11.7031 19.5938 15.6406 12.8906
Q19.5938 6.20312 26.9062 6.20312
Q34.0938 6.20312 38.0938 12.9531
Q42.0938 19.7031 42.0938 30.7031
Q42.0938 41.7031 38.0938 48.4531
Q34.0938 55.2031 26.9062 55.2031" id="CalibreRegular-30"/>
      </defs>
      <g style="fill:#262626;" transform="translate(206.389523438 468.845)scale(0.14300000000000002 -0.14300000000000002)">
       <use xlink:href="#CalibreRegular-30"/>
      </g>
     </g>
    </g>
    <g id="xtick_3">
     <g id="line2d_7">
      <path clip-path="url(#pd831f6c710)" d="
M325.728 450.45
L325.728 51.48" style="fill:none;stroke:#ffffff;stroke-linecap:round;stroke-width:1.3;"/>
     </g>
     <g id="line2d_8">
      <g>
       <use style="fill:#262626;stroke:#262626;stroke-width:1.3;" x="325.728" xlink:href="#m56cc5124a0" y="450.45"/>
      </g>
     </g>
     <g id="line2d_9">
      <g>
       <use style="fill:#262626;stroke:#262626;stroke-width:1.3;" x="325.728" xlink:href="#m56cc5124a0" y="51.48"/>
      </g>
     </g>
     <g id="text_3">
      <!-- 5 -->
      <g style="fill:#262626;" transform="translate(322.7965 468.845)scale(0.14300000000000002 -0.14300000000000002)">
       <use xlink:href="#CalibreRegular-35"/>
      </g>
     </g>
    </g>
    <g id="xtick_4">
     <g id="line2d_10">
      <path clip-path="url(#pd831f6c710)" d="
M441.792 450.45
L441.792 51.48" style="fill:none;stroke:#ffffff;stroke-linecap:round;stroke-width:1.3;"/>
     </g>
     <g id="line2d_11">
      <g>
       <use style="fill:#262626;stroke:#262626;stroke-width:1.3;" x="441.792" xlink:href="#m56cc5124a0" y="450.45"/>
      </g>
     </g>
     <g id="line2d_12">
      <g>
       <use style="fill:#262626;stroke:#262626;stroke-width:1.3;" x="441.792" xlink:href="#m56cc5124a0" y="51.48"/>
      </g>
     </g>
     <g id="text_4">
      <!-- 10 -->
      <defs>
       <path d="
M25.4062 61.5
L25.4062 0
L17.7031 0
L17.7031 52
L2.5 44.2031
L2.5 52.2031
L20.7031 61.5
z
" id="CalibreRegular-31"/>
      </defs>
      <g style="fill:#262626;" transform="translate(436.057476563 468.845)scale(0.14300000000000002 -0.14300000000000002)">
       <use xlink:href="#CalibreRegular-31"/>
       <use x="32.899993896484375" xlink:href="#CalibreRegular-30"/>
      </g>
     </g>
    </g>
    <g id="xtick_5">
     <g id="line2d_13">
      <path clip-path="url(#pd831f6c710)" d="
M557.856 450.45
L557.856 51.48" style="fill:none;stroke:#ffffff;stroke-linecap:round;stroke-width:1.3;"/>
     </g>
     <g id="line2d_14">
      <g>
       <use style="fill:#262626;stroke:#262626;stroke-width:1.3;" x="557.856" xlink:href="#m56cc5124a0" y="450.45"/>
      </g>
     </g>
     <g id="line2d_15">
      <g>
       <use style="fill:#262626;stroke:#262626;stroke-width:1.3;" x="557.856" xlink:href="#m56cc5124a0" y="51.48"/>
      </g>
     </g>
     <g id="text_5">
      <!-- 15 -->
      <g style="fill:#262626;" transform="translate(552.557179688 468.845)scale(0.14300000000000002 -0.14300000000000002)">
       <use xlink:href="#CalibreRegular-31"/>
       <use x="32.899993896484375" xlink:href="#CalibreRegular-35"/>
      </g>
     </g>
    </g>
    <g id="xtick_6">
     <g id="line2d_16">
      <path clip-path="url(#pd831f6c710)" d="
M673.92 450.45
L673.92 51.48" style="fill:none;stroke:#ffffff;stroke-linecap:round;stroke-width:1.3;"/>
     </g>
     <g id="line2d_17">
      <g>
       <use style="fill:#262626;stroke:#262626;stroke-width:1.3;" x="673.92" xlink:href="#m56cc5124a0" y="450.45"/>
      </g>
     </g>
     <g id="line2d_18">
      <g>
       <use style="fill:#262626;stroke:#262626;stroke-width:1.3;" x="673.92" xlink:href="#m56cc5124a0" y="51.48"/>
      </g>
     </g>
     <g id="text_6">
      <!-- 20 -->
      <defs>
       <path d="
M34.0938 44.9062
Q34.0938 49.5938 31.0938 52.4375
Q28.0938 55.2969 23 55.2969
Q17.5938 55.2969 14.5469 51.9375
Q11.5 48.5938 11 43
L2.90625 43
Q3.79688 51.7031 9.1875 57
Q14.5938 62.2969 23 62.2969
Q31.7031 62.2969 36.7031 57.5938
Q41.7031 52.9062 41.7031 45
Q41.7031 43.5938 41.3438 42.0938
Q41 40.5938 40.6406 39.5
Q40.2969 38.4062 39.3438 36.75
Q38.4062 35.0938 37.9062 34.2969
Q37.4062 33.5 35.9062 31.7031
Q34.4062 29.9062 33.9062 29.2969
Q33.4062 28.7031 31.5469 26.6406
Q29.7031 24.5938 29.2969 24.0938
L13.7031 7
L43 7
L43 0
L2.90625 0
L2.90625 5.20312
L22.7031 27
Q27.2031 32 28.7969 33.7969
Q30.4062 35.5938 32.25 38.8906
Q34.0938 42.2031 34.0938 44.9062" id="CalibreRegular-32"/>
      </defs>
      <g style="fill:#262626;" transform="translate(667.299546875 468.845)scale(0.14300000000000002 -0.14300000000000002)">
       <use xlink:href="#CalibreRegular-32"/>
       <use x="45.69999694824219" xlink:href="#CalibreRegular-30"/>
      </g>
     </g>
    </g>
   </g>
   <g id="matplotlib.axis_2"/>
   <g id="line2d_19">
    <path clip-path="url(#pd831f6c710)" d="
M167.881 449.142
L171.281 447.862
L174.68 445.581
L178.08 441.786
L181.48 435.882
L184.879 427.294
L188.279 415.618
L191.679 400.786
L195.078 383.17
L198.478 363.579
L205.277 322.737
L208.677 303.32
L212.077 285.181
L215.476 268.331
L218.876 252.696
L222.276 238.41
L225.675 225.952
L229.075 216.023
L232.475 209.239
L235.874 205.809
L239.274 205.409
L242.674 207.334
L246.073 210.825
L249.473 215.373
L252.873 220.813
L256.272 227.174
L259.672 234.412
L266.471 249.997
L269.871 257.066
L273.271 262.826
L276.67 266.894
L280.07 269.079
L283.47 269.287
L286.869 267.455
L290.269 263.548
L293.669 257.595
L297.068 249.698
L300.468 239.979
L303.868 228.509
L307.267 215.319
L310.667 200.516
L314.067 184.46
L320.866 151.556
L324.266 136.452
L327.665 123
L331.065 111.219
L334.465 100.854
L337.864 91.7401
L341.264 84.0936
L344.664 78.5203
L348.063 75.7201
L351.463 76.0858
L354.863 79.4781
L358.262 85.3423
L361.662 93.089
L365.062 102.477
L368.461 113.729
L371.861 127.306
L375.261 143.488
L378.66 162.052
L385.46 203.1
L392.259 243.725
L399.059 281.601
L402.458 299.624
L405.858 316.867
L409.258 332.995
L412.657 347.678
L416.057 360.731
L419.457 372.164
L422.856 382.116
L426.256 390.755
L429.656 398.201
L433.055 404.51
L436.455 409.704
L439.855 413.818
L443.254 416.919
L446.654 419.109
L450.054 420.51
L453.453 421.255
L456.853 421.476
L460.253 421.295
L463.652 420.816
L467.052 420.109
L470.452 419.217
L477.251 417.025
L484.05 414.778
L487.45 413.881
L490.85 413.222
L494.249 412.806
L497.649 412.609
L501.049 412.624
L504.448 412.894
L507.848 413.505
L511.248 414.552
L514.647 416.081
L518.047 418.055
L521.447 420.359
L538.445 432.72
L545.244 437.3
L548.644 439.409
L552.044 441.326
L555.443 443.018
L558.843 444.475
L562.243 445.713
L565.642 446.758
L569.042 447.637
L572.442 448.369
L575.841 448.963
L579.241 449.43
L586.04 450.019
L592.84 450.2
L596.239 450.106
L599.639 449.804
L599.639 449.804" style="fill:none;stroke:#386df9;stroke-linecap:round;stroke-width:2.275;"/>
   </g>
   <g id="patch_3">
    <path d="
M93.6 450.45
L93.6 51.48" style="fill:none;"/>
   </g>
   <g id="patch_4">
    <path d="
M93.6 51.48
L673.92 51.48" style="fill:none;"/>
   </g>
   <g id="patch_5">
    <path d="
M673.92 450.45
L673.92 51.48" style="fill:none;"/>
   </g>
   <g id="patch_6">
    <path d="
M93.6 450.45
L673.92 450.45" style="fill:none;"/>
   </g>
   <g id="text_7">
    <!-- Unimodal -->
    <defs>
     <path d="
M33 45.2969
Q44.2969 32.4062 44.2969 22.2031
Q44.2969 12 38.6406 5.54688
Q33 -0.90625 23.8906 -0.90625
Q14.7969 -0.90625 9.14062 5.54688
Q3.5 12 3.5 22.2031
Q3.5 32.4062 9.14062 38.8438
Q14.7969 45.2969 23.8906 45.2969
Q33 45.2969 44.2969 32.4062
M29.7969 5.70312
Q36.7031 14.7969 36.7031 22.1875
Q36.7031 29.5938 33.25 34.1406
Q29.7969 38.7031 23.8906 38.7031
Q18 38.7031 14.5469 34.1406
Q11.0938 29.5938 11.0938 22.1875
Q11.0938 14.7969 14.5469 10.25
Q18 5.70312 23.8906 5.70312
Q29.7969 5.70312 36.7031 14.7969" id="CalibreRegular-6f"/>
     <path d="
M30.2969 -0.90625
Q19.5 -0.90625 12.8906 5.59375
Q6.29688 12.0938 6.29688 24.4062
L6.29688 61.4062
L14.0938 61.4062
L14.0938 25.2969
Q14.0938 15.7031 18.3906 10.8906
Q22.7031 6.09375 30.2969 6.09375
Q37.9062 6.09375 42.2031 10.8906
Q46.5 15.7031 46.5 25.2969
L46.5 61.4062
L54.4062 61.4062
L54.4062 24.2969
Q54.4062 12.0938 47.7969 5.59375
Q41.2031 -0.90625 30.2969 -0.90625" id="CalibreRegular-55"/>
     <path d="
M38.2031 38.2031
Q43.2031 45.2969 51.7031 45.2969
Q58.4062 45.2969 62.0469 41
Q65.7031 36.7031 65.7031 29.4062
L65.7031 0
L58.0938 0
L58.0938 28.2031
Q58.0938 33 56 35.75
Q53.9062 38.5 49.7031 38.5
Q46.2969 38.5 43.5938 36.3438
Q40.9062 34.2031 39.9062 30.5938
L39.9062 0
L32.4062 0
L32.4062 28.2031
Q32.4062 33 30.2969 35.75
Q28.2031 38.5 24 38.5
Q20.5938 38.5 17.8906 36.3438
Q15.2031 34.2031 14.2031 30.5938
L14.2031 0
L6.70312 0
L6.70312 44.4062
L14.2031 44.4062
L14.2031 39.2031
Q18 45.2969 26.2031 45.2969
Q34.5938 45.2969 38.2031 38.2031" id="CalibreRegular-6d"/>
     <path d="
M38.9062 0
L31.7031 0
L31.7031 3.29688
Q30.2969 1.79688 27 0.5
Q23.7031 -0.796875 20 -0.796875
Q13 -0.796875 8.25 3.09375
Q3.5 7 3.5 13.4062
Q3.5 19.5 8.39062 23.3906
Q13.2969 27.2969 20.5 27.2969
Q23.7969 27.2969 27 26.1875
Q30.2031 25.0938 31.7031 23.7031
L31.7031 29.2969
Q31.7031 33.5938 29.1406 36.1875
Q26.5938 38.7969 21.9062 38.7969
Q14.9062 38.7969 12.7969 32.7031
L5.40625 32.7031
Q6.5 38.2969 11.0469 41.7969
Q15.5938 45.2969 22 45.2969
Q29.9062 45.2969 34.4062 41.0938
Q38.9062 36.9062 38.9062 29.5938
z

M31.7031 11
L31.7031 15.5938
Q30.7031 18 27.75 19.5469
Q24.7969 21.0938 21.2969 21.0938
Q16.9062 21.0938 13.7969 19.0938
Q10.7031 17.0938 10.7031 13.4062
Q10.7031 9.59375 13.7969 7.54688
Q16.9062 5.5 21.2969 5.5
Q24.7969 5.5 27.75 7.04688
Q30.7031 8.59375 31.7031 11" id="CalibreRegular-61"/>
     <path d="
M36 0
L36 5.20312
Q34.2031 2.59375 30.7969 0.84375
Q27.4062 -0.90625 23.5 -0.90625
Q14.0938 -0.90625 8.79688 5.6875
Q3.5 12.2969 3.5 22.2031
Q3.5 32 8.79688 38.6406
Q14.0938 45.2969 23.5 45.2969
Q27.4062 45.2969 30.7969 43.5469
Q34.2031 41.7969 36 39.2031
L36 65
L43.5938 65
L43.5938 0
z

M36 13.2031
L36 31.2031
Q34.2969 34.5938 31.25 36.5469
Q28.2031 38.5 24.5938 38.5
Q18.4062 38.5 14.75 33.9531
Q11.0938 29.4062 11.0938 22.2031
Q11.0938 15 14.75 10.4531
Q18.4062 5.90625 24.5938 5.90625
Q28.2031 5.90625 31.25 7.84375
Q34.2969 9.79688 36 13.2031" id="CalibreRegular-64"/>
     <path d="
M14.2031 44.4062
L14.2031 0
L6.70312 0
L6.70312 44.4062
z

M12.4062 62.5938
Q15.2969 59.7969 15.2969 57.7969
Q15.2969 55.7969 13.8438 54.3906
Q12.4062 53 10.4062 53
Q8.40625 53 7 54.3906
Q5.59375 55.7969 5.59375 57.7969
Q5.59375 59.7969 7 61.1875
Q8.40625 62.5938 10.4062 62.5938
Q12.4062 62.5938 15.2969 59.7969" id="CalibreRegular-69"/>
     <path d="
M14.2031 65
L14.2031 0
L6.70312 0
L6.70312 65
z
" id="CalibreRegular-6c"/>
     <path d="
M6.70312 0
L6.70312 44.4062
L14.2031 44.4062
L14.2031 38.7969
Q16.2969 41.5938 19.75 43.4375
Q23.2031 45.2969 27.2969 45.2969
Q34.7031 45.2969 38.7969 40.8906
Q42.9062 36.5 42.9062 29.0938
L42.9062 0
L35.2969 0
L35.2969 27.9062
Q35.2969 32.7031 32.8438 35.5469
Q30.4062 38.4062 25.5 38.4062
Q21.5938 38.4062 18.5 36.0469
Q15.4062 33.7031 14.2031 30.0938
L14.2031 0
z
" id="CalibreRegular-6e"/>
    </defs>
    <g style="fill:#262626;" transform="translate(353.461875 46.48)scale(0.17160000000000003 -0.17160000000000003)">
     <use xlink:href="#CalibreRegular-55"/>
     <use x="60.69999694824219" xlink:href="#CalibreRegular-6e"/>
     <use x="109.59999084472656" xlink:href="#CalibreRegular-69"/>
     <use x="130.49998474121094" xlink:href="#CalibreRegular-6d"/>
     <use x="202.19996643066406" xlink:href="#CalibreRegular-6f"/>
     <use x="249.9999542236328" xlink:href="#CalibreRegular-64"/>
     <use x="300.199951171875" xlink:href="#CalibreRegular-61"/>
     <use x="345.19993591308594" xlink:href="#CalibreRegular-6c"/>
    </g>
   </g>
  </g>
 </g>
 <defs>
  <clipPath id="pd831f6c710">
   <rect height="398.97" width="580.32" x="93.6" y="51.48"/>
  </clipPath>
 </defs>
</svg>
