<?xml version="1.0" encoding="iso-8859-1"?>
<!-- Generator: Adobe Illustrator 16.0.0, SVG Export Plug-In . SVG Version: 6.00 Build 0)  -->
<!DOCTYPE svg PUBLIC "-//W3C//DTD SVG 1.1//EN" "http://www.w3.org/Graphics/SVG/1.1/DTD/svg11.dtd">
<svg version="1.1" id="Layer_1" xmlns="http://www.w3.org/2000/svg" xmlns:xlink="http://www.w3.org/1999/xlink" x="0px" y="0px"
	 width="695.107px" height="179.119px" viewBox="0 0 695.107 179.119" style="enable-background:new 0 0 695.107 179.119;"
	 xml:space="preserve">
<polygon style="fill:#F1F1F2;" points="592.674,113.41 480.423,171.645 417.621,138.878 530.616,82.382 "/>
<line style="fill:none;stroke:#BBBDBF;stroke-width:0.75;stroke-miterlimit:10;" x1="164.435" y1="0" x2="164.435" y2="82.382"/>
<line style="fill:none;stroke:#BBBDBF;stroke-width:0.75;stroke-miterlimit:10;" x1="164.435" y1="82.382" x2="0.167" y2="164.516"/>
<line style="fill:none;stroke:#BBBDBF;stroke-width:0.75;stroke-miterlimit:10;" x1="164.435" y1="82.382" x2="328.703" y2="164.516"/>
<line style="fill:none;stroke:#BBBDBF;stroke-miterlimit:10;" x1="530.616" y1="0" x2="530.616" y2="82.382"/>
<line style="fill:none;stroke:#BBBDBF;stroke-miterlimit:10;" x1="530.616" y1="82.382" x2="366.349" y2="164.516"/>
<line style="fill:none;stroke:#BBBDBF;stroke-miterlimit:10;" x1="530.616" y1="82.382" x2="694.884" y2="164.516"/>
<path style="opacity:0.7;fill:#386DF9;" d="M480.423,171.645l-62.802-32.767c0,0,90.18-45.089,112.995-56.496
	C463.123,127.013,480.423,171.645,480.423,171.645z"/>
<polygon style="opacity:0.7;fill:#386DF9;" points="226.492,113.41 114.242,171.645 51.44,138.878 164.435,82.382 "/>
<g>
	<path d="M110.648,126.931v0.903h-0.67v-8.897h0.67v3.723c0.183-0.282,0.445-0.524,0.787-0.726c0.342-0.2,0.709-0.301,1.102-0.301
		c0.858,0,1.515,0.304,1.971,0.91c0.456,0.607,0.685,1.357,0.685,2.252s-0.229,1.646-0.685,2.252
		c-0.457,0.607-1.113,0.91-1.971,0.91c-0.393,0-0.76-0.101-1.102-0.301C111.093,127.455,110.831,127.214,110.648,126.931z
		 M110.648,123.467v2.656c0.201,0.383,0.463,0.68,0.787,0.89s0.673,0.314,1.047,0.314c0.621,0,1.113-0.234,1.479-0.705
		c0.365-0.47,0.547-1.079,0.547-1.827s-0.183-1.357-0.547-1.827c-0.365-0.47-0.858-0.705-1.479-0.705
		c-0.375,0-0.724,0.104-1.047,0.314S110.849,123.084,110.648,123.467z"/>
	<path d="M120.908,122.509c0.498,0.584,0.746,1.347,0.746,2.286c0,0.94-0.249,1.702-0.746,2.286s-1.147,0.876-1.951,0.876
		s-1.451-0.292-1.944-0.876c-0.493-0.584-0.739-1.346-0.739-2.286c0-0.939,0.247-1.702,0.739-2.286
		c0.493-0.584,1.141-0.876,1.944-0.876S120.41,121.925,120.908,122.509z M120.422,126.649c0.365-0.47,0.547-1.088,0.547-1.854
		s-0.183-1.385-0.547-1.854c-0.365-0.47-0.854-0.705-1.465-0.705c-0.602,0-1.086,0.235-1.451,0.705
		c-0.365,0.47-0.548,1.088-0.548,1.854s0.183,1.385,0.548,1.854c0.365,0.471,0.849,0.705,1.451,0.705
		C119.568,127.354,120.057,127.12,120.422,126.649z"/>
	<path d="M127.8,121.756v6.078h-0.67v-0.972c-0.201,0.311-0.47,0.57-0.808,0.78c-0.338,0.21-0.712,0.314-1.123,0.314
		c-0.676,0-1.196-0.198-1.561-0.596c-0.365-0.396-0.548-0.924-0.548-1.581v-4.024h0.671v3.929c0,0.493,0.13,0.89,0.39,1.191
		c0.26,0.301,0.65,0.451,1.17,0.451c0.401,0,0.764-0.123,1.088-0.369c0.324-0.246,0.563-0.562,0.719-0.944v-4.258H127.8z"/>
	<path d="M129.743,127.834v-6.078h0.685v0.972c0.201-0.31,0.472-0.569,0.814-0.78c0.342-0.209,0.719-0.314,1.129-0.314
		c0.675,0,1.195,0.198,1.561,0.596c0.365,0.396,0.548,0.924,0.548,1.581v4.024h-0.671v-3.929c0-0.493-0.13-0.89-0.39-1.191
		c-0.26-0.301-0.65-0.451-1.17-0.451c-0.402,0-0.767,0.123-1.095,0.369c-0.329,0.247-0.57,0.562-0.726,0.945v4.257H129.743z"/>
	<path d="M140.462,127.834v-0.903c-0.183,0.283-0.445,0.524-0.787,0.726c-0.342,0.2-0.709,0.301-1.102,0.301
		c-0.858,0-1.515-0.303-1.971-0.91c-0.457-0.606-0.685-1.357-0.685-2.252s0.228-1.645,0.685-2.252
		c0.456-0.606,1.113-0.91,1.971-0.91c0.393,0,0.76,0.101,1.102,0.301c0.342,0.201,0.604,0.443,0.787,0.726v-3.723h0.671v8.897
		H140.462z M140.462,126.123v-2.656c-0.201-0.383-0.463-0.68-0.787-0.89c-0.324-0.21-0.673-0.314-1.047-0.314
		c-0.621,0-1.113,0.235-1.478,0.705c-0.365,0.47-0.548,1.079-0.548,1.827s0.183,1.357,0.548,1.827
		c0.365,0.471,0.857,0.705,1.478,0.705c0.374,0,0.723-0.104,1.047-0.314C139.999,126.803,140.261,126.506,140.462,126.123z"/>
	<path d="M147.224,127.834h-0.657v-0.575c-0.146,0.174-0.374,0.329-0.684,0.466c-0.311,0.137-0.644,0.205-1,0.205
		c-0.639,0-1.173-0.171-1.602-0.514c-0.429-0.342-0.644-0.796-0.644-1.361c0-0.548,0.219-0.995,0.657-1.342s0.977-0.521,1.615-0.521
		c0.329,0,0.648,0.066,0.958,0.199c0.31,0.132,0.542,0.28,0.698,0.444v-1.081c0-0.456-0.135-0.823-0.404-1.103
		c-0.269-0.278-0.641-0.417-1.116-0.417c-0.757,0-1.25,0.347-1.478,1.04h-0.671c0.119-0.511,0.372-0.912,0.76-1.204
		c0.388-0.292,0.851-0.438,1.389-0.438c0.675,0,1.207,0.189,1.595,0.568c0.388,0.379,0.582,0.888,0.582,1.526V127.834z
		 M146.567,126.451v-0.78c-0.1-0.265-0.303-0.481-0.609-0.65c-0.306-0.168-0.641-0.253-1.006-0.253c-0.465,0-0.86,0.112-1.184,0.336
		s-0.486,0.54-0.486,0.951c0,0.41,0.162,0.729,0.486,0.958s0.719,0.342,1.184,0.342c0.365,0,0.7-0.084,1.006-0.253
		C146.264,126.933,146.467,126.716,146.567,126.451z"/>
	<path d="M151.96,121.715v0.671c-0.173-0.073-0.361-0.109-0.562-0.109c-0.365,0-0.689,0.118-0.972,0.355
		c-0.283,0.237-0.498,0.557-0.644,0.959v4.243h-0.685v-6.078h0.685v0.972c0.146-0.319,0.365-0.581,0.657-0.787
		c0.292-0.205,0.621-0.308,0.985-0.308C151.6,121.633,151.778,121.66,151.96,121.715z"/>
	<path d="M153.89,119.579c0.091,0.092,0.137,0.201,0.137,0.329s-0.046,0.237-0.137,0.328c-0.091,0.092-0.201,0.137-0.329,0.137
		s-0.237-0.045-0.328-0.137c-0.092-0.091-0.137-0.2-0.137-0.328s0.045-0.237,0.137-0.329c0.091-0.091,0.2-0.137,0.328-0.137
		S153.799,119.488,153.89,119.579z M153.904,121.756v6.078h-0.685v-6.078H153.904z"/>
	<path d="M159.804,126.068h0.657c-0.119,0.574-0.386,1.033-0.801,1.376c-0.415,0.342-0.933,0.513-1.554,0.513
		c-0.803,0-1.453-0.292-1.951-0.876s-0.746-1.346-0.746-2.286c0-0.922,0.244-1.679,0.732-2.272c0.488-0.593,1.139-0.89,1.951-0.89
		c0.785,0,1.392,0.271,1.821,0.814c0.429,0.543,0.644,1.262,0.644,2.156v0.246h-4.477c0.009,0.767,0.201,1.376,0.575,1.828
		c0.374,0.451,0.857,0.677,1.451,0.677c0.429,0,0.796-0.113,1.102-0.342S159.712,126.47,159.804,126.068z M158.092,122.235
		c-0.547,0-0.997,0.187-1.348,0.562c-0.352,0.374-0.563,0.88-0.637,1.519h3.765c-0.019-0.583-0.178-1.076-0.479-1.478
		C159.092,122.436,158.658,122.235,158.092,122.235z"/>
	<path d="M161.542,126.26h0.685c0.246,0.739,0.812,1.108,1.697,1.108c0.438,0,0.794-0.096,1.068-0.287s0.411-0.47,0.411-0.835
		c0-0.511-0.375-0.871-1.123-1.081l-1.136-0.315c-0.958-0.255-1.438-0.767-1.438-1.533c0-0.511,0.196-0.919,0.589-1.225
		c0.392-0.306,0.88-0.459,1.465-0.459c0.621,0,1.125,0.146,1.513,0.438c0.388,0.292,0.636,0.698,0.746,1.218h-0.671
		c-0.237-0.712-0.767-1.067-1.588-1.067c-0.402,0-0.735,0.094-1,0.28c-0.265,0.188-0.397,0.45-0.397,0.787
		c0,0.274,0.084,0.479,0.253,0.616c0.168,0.137,0.449,0.26,0.842,0.369l1.082,0.302c1.013,0.265,1.52,0.816,1.52,1.656
		c0,0.538-0.201,0.961-0.603,1.267c-0.402,0.306-0.917,0.458-1.547,0.458c-0.621,0-1.147-0.15-1.581-0.451
		C161.895,127.204,161.633,126.789,161.542,126.26z"/>
</g>
<g>
	<line style="fill:#5D22FF;" x1="442.195" y1="156.216" x2="435.066" y2="166.481"/>
	<g>
		
			<line style="fill:none;stroke:#231F20;stroke-width:0.5;stroke-linecap:round;stroke-linejoin:round;" x1="441.886" y1="156.661" x2="435.066" y2="166.481"/>
		<g>
			<polygon style="fill:#231F20;" points="439.262,156.855 439.367,157.345 441.776,156.818 442.125,159.26 442.62,159.188 
				442.195,156.216 			"/>
		</g>
	</g>
</g>
<g>
	<line style="fill:#5D22FF;" x1="72.653" y1="156.216" x2="65.524" y2="166.481"/>
	<g>
		
			<line style="fill:none;stroke:#231F20;stroke-width:0.5;stroke-linecap:round;stroke-linejoin:round;" x1="72.344" y1="156.661" x2="65.524" y2="166.481"/>
		<g>
			<polygon style="fill:#231F20;" points="69.719,156.855 69.826,157.345 72.234,156.818 72.583,159.26 73.078,159.188 
				72.653,156.216 			"/>
		</g>
	</g>
</g>
<g>
	<g>
		
			<line style="fill:none;stroke:#A6A8AB;stroke-width:0.5;stroke-linecap:round;stroke-linejoin:round;" x1="417.621" y1="138.878" x2="418.508" y2="139.341"/>
		
			<line style="fill:none;stroke:#A6A8AB;stroke-width:0.5;stroke-linecap:round;stroke-linejoin:round;stroke-dasharray:1.9667,1.9667;" x1="420.252" y1="140.25" x2="478.664" y2="170.727"/>
		
			<line style="fill:none;stroke:#A6A8AB;stroke-width:0.5;stroke-linecap:round;stroke-linejoin:round;" x1="479.536" y1="171.182" x2="480.423" y2="171.645"/>
	</g>
</g>
<g>
	<g>
		
			<line style="fill:none;stroke:#A6A8AB;stroke-width:0.5;stroke-linecap:round;stroke-linejoin:round;" x1="480.423" y1="171.645" x2="481.311" y2="171.184"/>
		
			<line style="fill:none;stroke:#A6A8AB;stroke-width:0.5;stroke-linecap:round;stroke-linejoin:round;stroke-dasharray:1.9755,1.9755;" x1="483.064" y1="170.274" x2="590.909" y2="114.325"/>
		
			<line style="fill:none;stroke:#A6A8AB;stroke-width:0.5;stroke-linecap:round;stroke-linejoin:round;" x1="591.786" y1="113.871" x2="592.674" y2="113.41"/>
	</g>
</g>
<g>
	<path d="M475.805,124.884v0.903h-0.671v-8.897h0.671v3.723c0.183-0.282,0.445-0.524,0.787-0.726c0.343-0.2,0.71-0.301,1.103-0.301
		c0.857,0,1.515,0.304,1.971,0.91c0.456,0.607,0.685,1.357,0.685,2.252s-0.229,1.646-0.685,2.252
		c-0.456,0.607-1.113,0.91-1.971,0.91c-0.393,0-0.76-0.101-1.103-0.301C476.25,125.408,475.987,125.167,475.805,124.884z
		 M475.805,121.42v2.656c0.201,0.383,0.463,0.68,0.787,0.89s0.673,0.314,1.047,0.314c0.621,0,1.113-0.234,1.479-0.705
		c0.365-0.47,0.548-1.079,0.548-1.827s-0.183-1.357-0.548-1.827s-0.857-0.705-1.479-0.705c-0.374,0-0.723,0.104-1.047,0.314
		S476.006,121.037,475.805,121.42z"/>
	<path d="M486.064,120.462c0.497,0.584,0.746,1.347,0.746,2.286c0,0.94-0.249,1.702-0.746,2.286
		c-0.498,0.584-1.148,0.876-1.951,0.876s-1.451-0.292-1.943-0.876c-0.493-0.584-0.739-1.346-0.739-2.286
		c0-0.939,0.246-1.702,0.739-2.286c0.492-0.584,1.141-0.876,1.943-0.876S485.566,119.878,486.064,120.462z M485.578,124.603
		c0.365-0.47,0.548-1.088,0.548-1.854s-0.183-1.385-0.548-1.854s-0.854-0.705-1.465-0.705c-0.603,0-1.086,0.235-1.451,0.705
		s-0.547,1.088-0.547,1.854s0.182,1.385,0.547,1.854c0.365,0.471,0.849,0.705,1.451,0.705
		C484.725,125.308,485.213,125.073,485.578,124.603z"/>
	<path d="M492.956,119.709v6.078h-0.671v-0.972c-0.2,0.311-0.47,0.57-0.808,0.78s-0.712,0.314-1.122,0.314
		c-0.676,0-1.195-0.198-1.561-0.596c-0.365-0.396-0.548-0.924-0.548-1.581v-4.024h0.671v3.929c0,0.493,0.13,0.89,0.391,1.191
		c0.26,0.301,0.649,0.451,1.17,0.451c0.401,0,0.765-0.123,1.088-0.369c0.324-0.246,0.563-0.562,0.719-0.944v-4.258H492.956z"/>
	<path d="M494.899,125.787v-6.078h0.685v0.972c0.201-0.31,0.473-0.569,0.814-0.78c0.343-0.209,0.719-0.314,1.13-0.314
		c0.675,0,1.195,0.198,1.561,0.596c0.364,0.396,0.547,0.924,0.547,1.581v4.024h-0.671v-3.929c0-0.493-0.13-0.89-0.39-1.191
		c-0.26-0.301-0.65-0.451-1.171-0.451c-0.401,0-0.767,0.123-1.095,0.369c-0.328,0.247-0.57,0.562-0.726,0.945v4.257H494.899z"/>
	<path d="M505.617,125.787v-0.903c-0.183,0.283-0.444,0.524-0.787,0.726c-0.342,0.2-0.709,0.301-1.102,0.301
		c-0.857,0-1.515-0.303-1.971-0.91c-0.457-0.606-0.685-1.357-0.685-2.252s0.228-1.645,0.685-2.252
		c0.456-0.606,1.113-0.91,1.971-0.91c0.393,0,0.76,0.101,1.102,0.301c0.343,0.201,0.604,0.443,0.787,0.726v-3.723h0.671v8.897
		H505.617z M505.617,124.076v-2.656c-0.2-0.383-0.463-0.68-0.787-0.89c-0.323-0.21-0.673-0.314-1.047-0.314
		c-0.62,0-1.113,0.235-1.479,0.705s-0.547,1.079-0.547,1.827s0.182,1.357,0.547,1.827c0.365,0.471,0.858,0.705,1.479,0.705
		c0.374,0,0.724-0.104,1.047-0.314C505.154,124.756,505.417,124.459,505.617,124.076z"/>
	<path d="M512.38,125.787h-0.657v-0.575c-0.146,0.174-0.375,0.329-0.685,0.466c-0.311,0.137-0.644,0.205-0.999,0.205
		c-0.64,0-1.173-0.171-1.603-0.514c-0.429-0.342-0.643-0.796-0.643-1.361c0-0.548,0.219-0.995,0.657-1.342
		c0.438-0.347,0.976-0.521,1.615-0.521c0.328,0,0.647,0.066,0.958,0.199c0.31,0.132,0.543,0.28,0.698,0.444v-1.081
		c0-0.456-0.135-0.823-0.404-1.103c-0.27-0.278-0.641-0.417-1.115-0.417c-0.758,0-1.251,0.347-1.479,1.04h-0.671
		c0.118-0.511,0.372-0.912,0.76-1.204s0.851-0.438,1.39-0.438c0.675,0,1.206,0.189,1.595,0.568c0.388,0.379,0.582,0.888,0.582,1.526
		V125.787z M511.723,124.404v-0.78c-0.101-0.265-0.304-0.481-0.609-0.65c-0.306-0.168-0.642-0.253-1.006-0.253
		c-0.466,0-0.86,0.112-1.185,0.336s-0.486,0.54-0.486,0.951c0,0.41,0.162,0.729,0.486,0.958s0.719,0.342,1.185,0.342
		c0.364,0,0.7-0.084,1.006-0.253S511.622,124.669,511.723,124.404z"/>
	<path d="M517.116,119.668v0.671c-0.174-0.073-0.36-0.109-0.562-0.109c-0.365,0-0.689,0.118-0.972,0.355
		c-0.283,0.237-0.498,0.557-0.644,0.959v4.243h-0.685v-6.078h0.685v0.972c0.146-0.319,0.365-0.581,0.657-0.787
		c0.292-0.205,0.62-0.308,0.985-0.308C516.756,119.586,516.934,119.613,517.116,119.668z"/>
	<path d="M519.046,117.532c0.091,0.092,0.137,0.201,0.137,0.329s-0.046,0.237-0.137,0.328c-0.091,0.092-0.201,0.137-0.328,0.137
		c-0.128,0-0.237-0.045-0.329-0.137c-0.091-0.091-0.137-0.2-0.137-0.328s0.046-0.237,0.137-0.329
		c0.092-0.091,0.201-0.137,0.329-0.137C518.845,117.396,518.955,117.441,519.046,117.532z M519.06,119.709v6.078h-0.685v-6.078
		H519.06z"/>
	<path d="M524.959,124.021h0.657c-0.118,0.574-0.386,1.033-0.801,1.376c-0.415,0.342-0.933,0.513-1.554,0.513
		c-0.803,0-1.453-0.292-1.95-0.876c-0.498-0.584-0.746-1.346-0.746-2.286c0-0.922,0.244-1.679,0.732-2.272
		c0.487-0.593,1.138-0.89,1.95-0.89c0.785,0,1.392,0.271,1.82,0.814c0.43,0.543,0.644,1.262,0.644,2.156v0.246h-4.476
		c0.009,0.767,0.2,1.376,0.574,1.828c0.374,0.451,0.858,0.677,1.451,0.677c0.429,0,0.796-0.113,1.103-0.342
		C524.67,124.737,524.868,124.423,524.959,124.021z M523.248,120.188c-0.548,0-0.997,0.187-1.349,0.562
		c-0.351,0.374-0.563,0.88-0.636,1.519h3.764c-0.018-0.583-0.178-1.076-0.479-1.478
		C524.247,120.389,523.813,120.188,523.248,120.188z"/>
	<path d="M526.698,124.213h0.684c0.247,0.739,0.812,1.108,1.698,1.108c0.438,0,0.794-0.096,1.067-0.287s0.41-0.47,0.41-0.835
		c0-0.511-0.374-0.871-1.122-1.081l-1.136-0.315c-0.959-0.255-1.438-0.767-1.438-1.533c0-0.511,0.196-0.919,0.588-1.225
		c0.393-0.306,0.881-0.459,1.465-0.459c0.621,0,1.125,0.146,1.513,0.438s0.637,0.698,0.746,1.218h-0.671
		c-0.237-0.712-0.767-1.067-1.588-1.067c-0.401,0-0.734,0.094-0.999,0.28c-0.265,0.188-0.396,0.45-0.396,0.787
		c0,0.274,0.084,0.479,0.253,0.616s0.449,0.26,0.842,0.369l1.081,0.302c1.014,0.265,1.52,0.816,1.52,1.656
		c0,0.538-0.2,0.961-0.602,1.267c-0.402,0.306-0.918,0.458-1.547,0.458c-0.621,0-1.148-0.15-1.581-0.451
		C527.052,125.157,526.789,124.742,526.698,124.213z"/>
</g>
<g>
	<g>
		
			<line style="fill:none;stroke:#A6A8AB;stroke-width:0.75;stroke-linecap:round;stroke-linejoin:round;" x1="51.44" y1="138.878" x2="52.327" y2="139.341"/>
		
			<line style="fill:none;stroke:#A6A8AB;stroke-width:0.75;stroke-linecap:round;stroke-linejoin:round;stroke-dasharray:1.9667,1.9667;" x1="54.071" y1="140.25" x2="112.484" y2="170.728"/>
		
			<line style="fill:none;stroke:#A6A8AB;stroke-width:0.75;stroke-linecap:round;stroke-linejoin:round;" x1="113.355" y1="171.182" x2="114.242" y2="171.645"/>
	</g>
</g>
<g>
	<g>
		
			<line style="fill:none;stroke:#A6A8AB;stroke-width:0.75;stroke-linecap:round;stroke-linejoin:round;" x1="114.242" y1="171.645" x2="115.13" y2="171.184"/>
		
			<line style="fill:none;stroke:#A6A8AB;stroke-width:0.75;stroke-linecap:round;stroke-linejoin:round;stroke-dasharray:1.9755,1.9755;" x1="116.883" y1="170.274" x2="224.727" y2="114.325"/>
		
			<line style="fill:none;stroke:#A6A8AB;stroke-width:0.75;stroke-linecap:round;stroke-linejoin:round;" x1="225.604" y1="113.871" x2="226.492" y2="113.41"/>
	</g>
</g>
<path d="M319.359,166.489c0.082,0.551,0.211,1.09,0.316,1.628l0.983,5.035c0.035,0.128,0.152,0.644,0.141,0.761
	c0,0.094-0.059,0.176-0.105,0.258c-0.117,0.152-0.211,0.328-0.305,0.48c-0.269,0.456-0.632,1.018-1.17,1.205
	c-0.457,0.176-1.347-0.07-1.663-0.141l-0.105,0.879c0.41,0.07,1.206,0.164,1.615,0.082c1.089-0.234,1.769-1.312,2.225-2.096
	l4.367-7.318l0.27-0.457c0.07-0.105,0.128-0.211,0.175-0.316c-0.328,0-0.69-0.012-0.983,0.035c-0.387,0.539-0.691,1.172-1.054,1.733
	l-1.78,3.079c-0.292,0.527-0.585,1.031-0.819,1.593c-0.035-0.749-0.164-1.511-0.305-2.261c-0.082-0.409-0.714-4.039-0.796-4.145
	c-0.059-0.07-0.188-0.035-0.258-0.035H319.359"/>
<path d="M683.177,165.763c0.082,0.551,0.211,1.09,0.316,1.628l0.984,5.035c0.035,0.128,0.151,0.644,0.141,0.761
	c0,0.094-0.059,0.176-0.105,0.258c-0.117,0.152-0.211,0.328-0.305,0.48c-0.27,0.456-0.633,1.018-1.171,1.205
	c-0.457,0.176-1.347-0.07-1.663-0.141l-0.105,0.879c0.41,0.07,1.207,0.164,1.615,0.082c1.09-0.234,1.77-1.312,2.226-2.096
	l4.367-7.318l0.27-0.457c0.069-0.105,0.128-0.211,0.175-0.316c-0.327,0-0.689-0.012-0.982,0.035
	c-0.387,0.539-0.691,1.172-1.055,1.733l-1.779,3.079c-0.293,0.527-0.586,1.031-0.819,1.593c-0.035-0.749-0.164-1.511-0.305-2.261
	c-0.082-0.409-0.714-4.039-0.796-4.145c-0.059-0.07-0.188-0.035-0.258-0.035H683.177"/>
<path d="M4.753,165.629c0.724,1.152,1.469,2.283,2.159,3.469l-0.068,0.102l-2.881,2.814l-0.802,0.813c0.35,0,0.711,0,1.051-0.022
	l0.282-0.271l2.768-2.87c0.588,1.04,1.142,2.124,1.763,3.13c0.317,0.045,0.712,0.034,1.085,0.034c-0.203-0.362-2-3.22-2.136-3.435
	c-0.045-0.08-0.158-0.182-0.135-0.271c0.034-0.113,0.169-0.203,0.237-0.271l0.678-0.655l1.853-1.819
	c0.249-0.248,0.542-0.475,0.746-0.746c-0.351,0-0.712,0-1.051,0.012c-0.746,0.678-1.413,1.424-2.125,2.124L7.5,168.42l-0.407-0.7
	c-0.43-0.689-0.792-1.435-1.266-2.079C5.488,165.629,5.126,165.629,4.753,165.629"/>
<path d="M370.949,165.629c0.725,1.152,1.47,2.283,2.159,3.469l-0.068,0.102l-2.882,2.814l-0.801,0.813c0.35,0,0.711,0,1.051-0.022
	l0.281-0.271l2.769-2.87c0.588,1.04,1.142,2.124,1.763,3.13c0.316,0.045,0.712,0.034,1.085,0.034c-0.203-0.362-2-3.22-2.136-3.435
	c-0.045-0.08-0.158-0.182-0.135-0.271c0.033-0.113,0.169-0.203,0.236-0.271l0.678-0.655l1.854-1.819
	c0.249-0.248,0.543-0.475,0.746-0.746c-0.351,0-0.712,0-1.051,0.012c-0.746,0.678-1.412,1.424-2.125,2.124l-0.678,0.655l-0.406-0.7
	c-0.43-0.689-0.791-1.435-1.266-2.079C371.684,165.629,371.322,165.629,370.949,165.629"/>
<path d="M171.386,3.052l-0.126,0.643h3.849l-3.771,3.751c-0.446,0.456-0.933,0.874-1.351,1.36c-0.059,0.127-0.078,0.292-0.107,0.428
	c1.701-0.01,3.499,0.029,5.123-0.01c0.087-0.185,0.125-0.418,0.174-0.641h-4.092l3.859-3.83c0.418-0.418,0.846-0.836,1.254-1.273
	c0.038-0.126,0.077-0.281,0.106-0.428H171.386"/>
<path d="M538.076,3.483l-0.126,0.643h3.849l-3.771,3.751c-0.446,0.456-0.933,0.874-1.351,1.36c-0.059,0.127-0.078,0.292-0.107,0.428
	c1.701-0.01,3.499,0.029,5.123-0.01c0.087-0.185,0.125-0.418,0.174-0.641h-4.092l3.859-3.83c0.418-0.418,0.846-0.836,1.254-1.273
	c0.038-0.126,0.077-0.281,0.106-0.428H538.076"/>
<g>
	<path d="M171.264,148.893c0.071,0.48,0.175,0.953,0.276,1.424l0.852,4.408c0.03,0.111,0.143,0.573,0.133,0.666
		c0,0.082-0.062,0.153-0.103,0.225c-0.093,0.134-0.175,0.287-0.267,0.421c-0.225,0.409-0.543,0.892-1.015,1.056
		c-0.399,0.153-1.179-0.051-1.455-0.123l-0.093,0.769c0.359,0.062,1.046,0.144,1.404,0.071c0.953-0.205,1.548-1.147,1.947-1.834
		l3.833-6.406l0.235-0.399c0.053-0.093,0.113-0.174,0.154-0.276c-0.297,0-0.615-0.01-0.861,0.03
		c-0.348,0.472-0.604,1.025-0.922,1.517l-1.568,2.695c-0.246,0.462-0.512,0.902-0.717,1.395c-0.031-0.656-0.134-1.322-0.257-1.968
		c-0.071-0.369-0.625-3.546-0.696-3.639c-0.051-0.062-0.164-0.03-0.236-0.03H171.264"/>
	<path d="M182.261,152.971c-0.092,0.154,0,0.359,0.174,0.4c0.082,0.031,0.164,0.021,0.246,0.021h8.363c0.113,0,0.205,0,0.287-0.093
		c0.185-0.164,0.062-0.44-0.174-0.461c-0.195-0.02-0.389,0-0.584,0h-7.893C182.497,152.838,182.363,152.818,182.261,152.971
		 M182.435,150.163c-0.276,0.082-0.266,0.472,0.021,0.522c0.082,0.031,0.184,0.021,0.266,0.021h8.312c0.103,0,0.215,0,0.297-0.082
		c0.164-0.154,0.062-0.441-0.164-0.473c-0.194-0.01-0.389,0-0.584,0h-7.912C182.599,150.152,182.497,150.143,182.435,150.163z"/>
	<path d="M201.478,152.172l-0.215,0.953c-0.062,0.349-0.123,0.677-0.359,0.963c-0.45,0.574-1.301,0.82-1.998,0.738
		c-0.348-0.041-0.737-0.185-0.902-0.512c-0.245-0.482,0.123-1.035,0.503-1.344C199.192,152.428,200.371,152.172,201.478,152.172
		 M198.331,150.081c0.227-0.092,0.42-0.235,0.637-0.328c0.491-0.235,1.023-0.38,1.567-0.38c0.164,0,0.327-0.01,0.481,0.031
		c0.502,0.134,0.779,0.666,0.759,1.189c0,0.287-0.134,0.728-0.175,0.953c0,0.113-0.041,0.205-0.164,0.205h-0.225
		c-0.318,0.03-0.646,0.041-0.964,0.082c-1.188,0.184-2.521,0.625-3.013,1.609c-0.318,0.635-0.236,1.66,0.481,1.988
		c0.39,0.143,0.614,0.123,1.147,0.041c0.789-0.113,1.589-0.431,2.143-1.025l-0.205,0.974h0.635c0.134,0,0.257,0.021,0.257-0.153
		c0.071-0.267,0.276-1.312,0.298-1.373c0.061-0.328,0.645-2.994,0.676-3.209c0.041-0.533-0.113-1.096-0.513-1.486
		c-0.308-0.276-0.707-0.43-1.128-0.471c-0.809-0.072-1.906,0.246-2.346,0.471c-0.072,0.031-0.175,0.052-0.236,0.123
		c-0.041,0.051-0.041,0.154-0.041,0.216C198.372,149.723,198.353,149.906,198.331,150.081z"/>
</g>
<g>
	<path d="M563.96,133.038c0.071,0.48,0.175,0.953,0.276,1.424l0.852,4.408c0.03,0.111,0.143,0.573,0.133,0.666
		c0,0.082-0.062,0.153-0.103,0.225c-0.093,0.134-0.175,0.287-0.267,0.421c-0.225,0.409-0.543,0.892-1.015,1.056
		c-0.399,0.153-1.179-0.051-1.455-0.123l-0.093,0.769c0.359,0.062,1.046,0.144,1.404,0.071c0.953-0.205,1.548-1.147,1.947-1.834
		l3.833-6.406l0.235-0.399c0.053-0.093,0.113-0.174,0.154-0.276c-0.297,0-0.615-0.01-0.861,0.03
		c-0.348,0.472-0.604,1.025-0.922,1.517l-1.568,2.695c-0.246,0.462-0.512,0.902-0.717,1.395c-0.031-0.656-0.134-1.322-0.257-1.968
		c-0.071-0.369-0.625-3.546-0.696-3.639c-0.051-0.062-0.164-0.03-0.236-0.03H563.96"/>
	<path d="M574.957,137.116c-0.092,0.154,0,0.359,0.174,0.4c0.082,0.031,0.164,0.021,0.246,0.021h8.363c0.113,0,0.205,0,0.287-0.093
		c0.185-0.164,0.062-0.44-0.174-0.461c-0.195-0.02-0.389,0-0.584,0h-7.893C575.193,136.983,575.06,136.964,574.957,137.116
		 M575.131,134.309c-0.276,0.082-0.266,0.472,0.021,0.522c0.082,0.031,0.184,0.021,0.266,0.021h8.312c0.103,0,0.215,0,0.297-0.082
		c0.164-0.154,0.062-0.441-0.164-0.473c-0.194-0.01-0.389,0-0.584,0h-7.912C575.295,134.298,575.193,134.288,575.131,134.309z"/>
	<path d="M594.174,136.317l-0.215,0.953c-0.062,0.349-0.123,0.677-0.359,0.963c-0.45,0.574-1.301,0.82-1.998,0.738
		c-0.348-0.041-0.737-0.185-0.902-0.512c-0.245-0.482,0.123-1.035,0.503-1.344C591.889,136.573,593.067,136.317,594.174,136.317
		 M591.027,134.227c0.227-0.092,0.42-0.235,0.637-0.328c0.491-0.235,1.023-0.38,1.567-0.38c0.164,0,0.327-0.01,0.481,0.031
		c0.502,0.134,0.779,0.666,0.759,1.189c0,0.287-0.134,0.728-0.175,0.953c0,0.113-0.041,0.205-0.164,0.205h-0.225
		c-0.318,0.03-0.646,0.041-0.964,0.082c-1.188,0.184-2.521,0.625-3.013,1.609c-0.318,0.635-0.236,1.66,0.481,1.988
		c0.39,0.143,0.614,0.123,1.147,0.041c0.789-0.113,1.589-0.431,2.143-1.025l-0.205,0.974h0.635c0.134,0,0.257,0.021,0.257-0.153
		c0.071-0.267,0.276-1.312,0.298-1.373c0.061-0.328,0.645-2.994,0.676-3.209c0.041-0.533-0.113-1.096-0.513-1.486
		c-0.308-0.276-0.707-0.43-1.128-0.471c-0.809-0.072-1.906,0.246-2.346,0.471c-0.072,0.031-0.175,0.052-0.236,0.123
		c-0.041,0.051-0.041,0.154-0.041,0.216C591.068,133.868,591.049,134.052,591.027,134.227z"/>
</g>
<g>
	<path d="M27.441,152.959c0.621,1.014,1.271,1.989,1.871,3.032l-0.06,0.079l-2.501,2.452l-0.709,0.709c0.305,0,0.62,0,0.916-0.02
		l0.256-0.236l2.403-2.501c0.512,0.905,0.995,1.851,1.536,2.728c0.286,0.039,0.63,0.029,0.945,0.029
		c-0.167-0.305-1.743-2.807-1.861-2.994c-0.04-0.068-0.128-0.157-0.118-0.236c0.029-0.088,0.147-0.177,0.216-0.236l0.581-0.57
		l1.625-1.586c0.208-0.207,0.463-0.414,0.65-0.649c-0.305,0-0.63,0-0.915,0.01c-0.65,0.591-1.241,1.241-1.862,1.851l-0.59,0.571
		l-0.354-0.61c-0.375-0.601-0.689-1.25-1.103-1.812C28.072,152.959,27.756,152.959,27.441,152.959"/>
	<path d="M37.831,156.878c-0.089,0.147,0,0.345,0.167,0.385c0.079,0.029,0.158,0.01,0.236,0.01h8.036c0.108,0,0.197,0,0.276-0.079
		c0.178-0.157,0.06-0.424-0.167-0.444c-0.187-0.019-0.374,0-0.561,0h-7.583C38.057,156.749,37.929,156.73,37.831,156.878
		 M37.998,154.18c-0.266,0.079-0.256,0.453,0.02,0.503c0.079,0.029,0.177,0.02,0.256,0.02h7.987c0.098,0,0.207,0,0.285-0.079
		c0.158-0.147,0.06-0.424-0.158-0.453c-0.187-0.01-0.374,0-0.561,0h-7.603C38.156,154.17,38.057,154.16,37.998,154.18z"/>
	<path d="M56.463,153.707c0.118,0.06,0.227,0.128,0.315,0.227c0.463,0.442,0.492,1.162,0.414,1.763
		c-0.148,1.024-0.581,2.088-1.517,2.629c-0.414,0.236-1.162,0.502-1.753,0.256c-0.236-0.117-0.414-0.344-0.512-0.59
		c-0.029-0.09-0.088-0.197-0.088-0.286c0-0.147,0.069-0.325,0.099-0.473c0.069-0.325,0.128-0.649,0.207-0.975l0.246-1.183
		c0.02-0.137,0.068-0.256,0.088-0.393c0.02-0.08,0.029-0.168,0.059-0.247c0.059-0.138,0.207-0.266,0.315-0.364
		C54.877,153.599,55.655,153.304,56.463,153.707 M54.099,150.015l-1.959,9.217c0.295,0,0.59,0.01,0.837-0.029
		c0.098-0.266,0.138-0.571,0.207-0.867h0.009c0.119,0.326,0.355,0.611,0.64,0.778c0.847,0.513,1.94,0.079,2.64-0.492
		c0.827-0.689,1.359-1.694,1.526-2.737c0.187-1.113-0.049-2.059-0.62-2.629c-0.808-0.729-2.059-0.346-2.827,0.235
		c-0.148,0.108-0.295,0.236-0.434,0.374c0.266-1.29,0.562-2.551,0.817-3.85H54.099z"/>
</g>
<g>
	<path d="M403.011,151.429c0.621,1.014,1.271,1.989,1.871,3.032l-0.06,0.079l-2.501,2.452l-0.709,0.709c0.305,0,0.62,0,0.916-0.02
		l0.256-0.236l2.402-2.501c0.512,0.905,0.995,1.851,1.537,2.728c0.285,0.039,0.63,0.029,0.945,0.029
		c-0.168-0.305-1.744-2.807-1.861-2.994c-0.039-0.068-0.128-0.157-0.118-0.236c0.029-0.088,0.147-0.177,0.216-0.236l0.582-0.57
		l1.624-1.586c0.208-0.207,0.463-0.414,0.649-0.649c-0.305,0-0.629,0-0.914,0.01c-0.65,0.591-1.242,1.241-1.862,1.851l-0.591,0.571
		l-0.354-0.61c-0.375-0.601-0.689-1.25-1.104-1.812C403.642,151.429,403.325,151.429,403.011,151.429"/>
	<path d="M413.4,155.348c-0.089,0.147,0,0.345,0.167,0.385c0.079,0.029,0.158,0.01,0.236,0.01h8.035c0.109,0,0.197,0,0.276-0.079
		c0.178-0.157,0.06-0.424-0.167-0.444c-0.188-0.019-0.375,0-0.562,0h-7.583C413.626,155.219,413.499,155.2,413.4,155.348
		 M413.567,152.649c-0.266,0.079-0.256,0.453,0.02,0.503c0.079,0.029,0.178,0.02,0.256,0.02h7.987c0.099,0,0.206,0,0.285-0.079
		c0.157-0.147,0.06-0.424-0.157-0.453c-0.188-0.01-0.375,0-0.562,0h-7.603C413.726,152.64,413.626,152.63,413.567,152.649z"/>
	<path d="M432.032,152.177c0.117,0.06,0.227,0.128,0.314,0.227c0.463,0.442,0.492,1.162,0.414,1.763
		c-0.148,1.024-0.581,2.088-1.517,2.629c-0.413,0.236-1.161,0.502-1.753,0.256c-0.236-0.117-0.414-0.344-0.512-0.59
		c-0.029-0.09-0.089-0.197-0.089-0.286c0-0.147,0.069-0.325,0.099-0.473c0.068-0.325,0.128-0.649,0.207-0.975l0.246-1.183
		c0.02-0.137,0.068-0.256,0.088-0.393c0.02-0.08,0.029-0.168,0.06-0.247c0.059-0.138,0.207-0.266,0.315-0.364
		C430.446,152.068,431.224,151.773,432.032,152.177 M429.669,148.484l-1.96,9.217c0.296,0,0.591,0.01,0.837-0.029
		c0.099-0.266,0.139-0.571,0.207-0.867h0.01c0.118,0.326,0.354,0.611,0.64,0.778c0.847,0.513,1.94,0.079,2.64-0.492
		c0.827-0.689,1.359-1.694,1.526-2.737c0.187-1.113-0.05-2.059-0.62-2.629c-0.809-0.729-2.059-0.346-2.826,0.235
		c-0.148,0.108-0.296,0.236-0.434,0.374c0.266-1.29,0.561-2.551,0.816-3.85H429.669z"/>
</g>
<g>
	<path d="M60.296,176.007h0.009C60.305,176.018,60.296,176.035,60.296,176.007 M60.954,172.068c0.038,0.074,0.102,0.176,0.111,0.278
		c0.01,0.12-0.046,0.286-0.074,0.407c-0.065,0.278-0.529,2.457-0.529,2.457c-0.045,0.296-0.147,0.398-0.343,0.593
		c-0.314,0.333-0.713,0.565-1.167,0.603c-0.473,0.037-0.872-0.148-1.122-0.361c-0.463-0.436-0.5-1.104-0.417-1.688
		c0.129-0.936,0.5-1.9,1.343-2.428C59.341,171.531,60.5,171.299,60.954,172.068z M61.955,168.26l-0.751,3.559h-0.009
		c-0.102-0.27-0.426-0.557-0.676-0.686c-0.815-0.436-1.78-0.102-2.438,0.463c-0.778,0.648-1.279,1.604-1.436,2.586
		c-0.213,1.242,0.194,2.299,0.982,2.697c0.713,0.352,1.594,0.055,2.178-0.398c0.176-0.131,0.333-0.297,0.481-0.463l-0.185,0.916
		c0.278,0,0.556,0.01,0.788-0.027l0.056-0.139c0.12-0.621,0.259-1.232,0.399-1.863l1.399-6.645H61.955z"/>
	<path d="M64.559,171.031c0.065,0.435,0.167,0.861,0.25,1.287l0.778,3.985c0.028,0.103,0.121,0.52,0.111,0.603
		c0,0.074-0.046,0.139-0.083,0.204c-0.093,0.12-0.167,0.259-0.241,0.38c-0.214,0.371-0.501,0.807-0.927,0.955
		c-0.361,0.139-1.065-0.047-1.316-0.112l-0.083,0.696c0.324,0.055,0.954,0.129,1.278,0.064c0.862-0.186,1.399-1.039,1.761-1.658
		l3.457-5.793l0.213-0.361c0.056-0.084,0.102-0.158,0.139-0.25c-0.259,0-0.546-0.01-0.778,0.027
		c-0.306,0.427-0.547,0.927-0.834,1.371l-1.408,2.438c-0.232,0.417-0.464,0.815-0.649,1.26c-0.027-0.592-0.13-1.195-0.241-1.778
		c-0.065-0.325-0.565-3.207-0.63-3.29c-0.046-0.057-0.148-0.027-0.204-0.027H64.559"/>
</g>
<g>
	<path d="M429.685,175.146h0.009C429.693,175.156,429.685,175.174,429.685,175.146 M430.342,171.207
		c0.038,0.074,0.102,0.176,0.111,0.278c0.01,0.12-0.045,0.286-0.073,0.407c-0.065,0.278-0.528,2.457-0.528,2.457
		c-0.046,0.296-0.148,0.398-0.344,0.593c-0.314,0.333-0.713,0.565-1.166,0.603c-0.474,0.037-0.873-0.148-1.123-0.361
		c-0.463-0.436-0.5-1.104-0.416-1.688c0.129-0.936,0.5-1.9,1.344-2.428C428.73,170.67,429.889,170.438,430.342,171.207z
		 M431.344,167.398l-0.751,3.559h-0.009c-0.102-0.27-0.426-0.557-0.677-0.686c-0.815-0.436-1.78-0.102-2.438,0.463
		c-0.777,0.648-1.278,1.604-1.436,2.586c-0.213,1.242,0.194,2.299,0.982,2.697c0.713,0.352,1.594,0.055,2.178-0.398
		c0.176-0.131,0.334-0.297,0.482-0.463l-0.186,0.916c0.277,0,0.556,0.01,0.787-0.027l0.057-0.139
		c0.119-0.621,0.259-1.232,0.398-1.863l1.399-6.645H431.344z"/>
	<path d="M433.947,170.17c0.065,0.435,0.168,0.861,0.251,1.287l0.778,3.985c0.028,0.103,0.121,0.52,0.111,0.603
		c0,0.074-0.047,0.139-0.083,0.204c-0.093,0.12-0.167,0.259-0.241,0.38c-0.214,0.371-0.501,0.807-0.928,0.955
		c-0.36,0.139-1.064-0.047-1.315-0.112l-0.083,0.696c0.324,0.055,0.955,0.129,1.279,0.064c0.861-0.186,1.398-1.039,1.76-1.658
		l3.457-5.793l0.213-0.361c0.057-0.084,0.103-0.158,0.14-0.25c-0.259,0-0.546-0.01-0.778,0.027
		c-0.307,0.427-0.547,0.927-0.834,1.371l-1.408,2.438c-0.232,0.417-0.465,0.815-0.649,1.26c-0.027-0.592-0.13-1.195-0.241-1.778
		c-0.064-0.325-0.564-3.207-0.631-3.29c-0.046-0.057-0.147-0.027-0.203-0.027H433.947"/>
</g>
<g>
</g>
<g>
</g>
<g>
</g>
<g>
</g>
<g>
</g>
<g>
</g>
<g>
</g>
</svg>
