<?xml version="1.0" encoding="utf-8"?>
<!-- Generator: Adobe Illustrator 16.0.0, SVG Export Plug-In . SVG Version: 6.00 Build 0)  -->
<!DOCTYPE svg PUBLIC "-//W3C//DTD SVG 1.1//EN" "http://www.w3.org/Graphics/SVG/1.1/DTD/svg11.dtd">
<svg version="1.1" id="Layer_1" xmlns="http://www.w3.org/2000/svg" xmlns:xlink="http://www.w3.org/1999/xlink" x="0px" y="0px"
	 width="82.854px" height="74.903px" viewBox="0 0 82.854 74.903" enable-background="new 0 0 82.854 74.903" xml:space="preserve">
<path fill="none" stroke="#EFE026" stroke-linecap="round" stroke-linejoin="round" stroke-miterlimit="10" d="M23.97,41.021
	c3.781,0,7.056,2.171,8.646,5.333"/>
<g>
	<g>
		
			<line fill="none" stroke="#4BF9CF" stroke-linecap="round" stroke-miterlimit="10" x1="23.97" y1="50.692" x2="53.767" y2="35.723"/>
		<g>
			<polygon fill="#4BF9CF" points="52.642,40.866 51.703,40.518 53.424,35.897 48.689,34.518 48.97,33.557 54.735,35.239 			"/>
		</g>
	</g>
</g>
<g>
	<g>
		
			<line fill="none" stroke="#F7415B" stroke-linecap="round" stroke-miterlimit="10" x1="23.97" y1="50.692" x2="23.829" y2="5.412"/>
		<g>
			<polygon fill="#F7415B" points="27.93,8.713 27.199,9.397 23.832,5.797 20.485,9.419 19.751,8.738 23.827,4.328 			"/>
		</g>
	</g>
</g>
<g>
	<g>
		<rect y="21.93" fill="none" width="15.885" height="15.455"/>
		<path fill="#F7415B" d="M4.923,35.694h-0.7V21.934h1.051v6.345c0.412-1.483,1.689-2.286,3.192-2.286
			c2.308,0,3.812,1.627,3.812,4.758c0,3.069-1.545,5.13-4.059,5.13c-1.709,0-2.698-0.886-3.049-1.937L4.923,35.694z M5.273,31.966
			c0,2.163,1.441,3.09,2.802,3.09c1.751,0,3.131-1.318,3.131-4.223c0-2.657-1.174-3.935-2.925-3.935
			c-1.607,0-3.008,1.092-3.008,3.296V31.966z"/>
	</g>
	
		<polyline fill="none" stroke="#F7415B" stroke-width="0.5" stroke-linecap="round" stroke-linejoin="round" stroke-miterlimit="10" points="
		4.293,19.567 11.591,19.567 7.942,16.777 	"/>
</g>
<g>
	<g>
		<rect x="39.924" y="55.842" fill="none" width="15.884" height="15.455"/>
		<path fill="#4BF9CF" d="M50.82,67.629c0,0.886,0.268,1.194,0.762,1.194c0.186,0,0.31-0.021,0.433-0.082v0.865
			c-0.165,0.041-0.371,0.082-0.639,0.082c-0.947,0-1.483-0.494-1.545-1.688c-0.453,1.235-1.647,1.792-2.925,1.792
			c-1.751,0-2.884-0.947-2.884-2.555c0-1.937,1.483-3.028,4.552-3.028c0.371,0,0.763,0,1.195,0.062v-1.318
			c0-1.628-0.927-2.163-2.225-2.163c-1.216,0-2.102,0.515-2.225,1.916l-0.969-0.145c0.145-2.019,1.73-2.657,3.296-2.657
			c1.73,0,3.173,0.721,3.173,2.925V67.629z M49.77,65.054c-0.33-0.041-0.618-0.062-0.989-0.062c-2.41,0-3.707,0.68-3.707,2.143
			c0,1.092,0.7,1.812,2.039,1.812c1.318,0,2.657-0.824,2.657-2.328V65.054z"/>
	</g>
	
		<polyline fill="none" stroke="#4BF9CF" stroke-width="0.5" stroke-linecap="round" stroke-linejoin="round" stroke-miterlimit="10" points="
		44.217,56.917 51.515,56.917 47.865,54.125 	"/>
</g>
<g>
	<g>
		<g>
			<rect x="43.572" y="5.402" fill="none" width="15.885" height="15.454"/>
			<path fill="#41C8F7" d="M48.495,19.167h-0.7V5.406h1.051v6.345c0.412-1.483,1.689-2.286,3.192-2.286
				c2.308,0,3.812,1.627,3.812,4.758c0,3.069-1.545,5.13-4.059,5.13c-1.709,0-2.698-0.886-3.049-1.937L48.495,19.167z
				 M48.846,15.438c0,2.163,1.441,3.09,2.802,3.09c1.751,0,3.131-1.318,3.131-4.223c0-2.657-1.174-3.935-2.925-3.935
				c-1.607,0-3.008,1.092-3.008,3.296V15.438z"/>
		</g>
		
			<polyline fill="none" stroke="#41C8F7" stroke-width="0.5" stroke-linecap="round" stroke-linejoin="round" stroke-miterlimit="10" points="
			47.865,3.04 55.164,3.04 51.515,0.25 		"/>
	</g>
	<g>
		<g>
			<rect x="66.969" y="5.402" fill="none" width="15.885" height="15.454"/>
			<path fill="#41C8F7" d="M77.866,17.189c0,0.886,0.268,1.194,0.762,1.194c0.186,0,0.31-0.021,0.433-0.082v0.865
				c-0.165,0.041-0.371,0.082-0.639,0.082c-0.947,0-1.483-0.494-1.545-1.688c-0.453,1.235-1.647,1.792-2.925,1.792
				c-1.751,0-2.884-0.947-2.884-2.555c0-1.937,1.482-3.028,4.552-3.028c0.371,0,0.763,0,1.195,0.062v-1.318
				c0-1.628-0.927-2.163-2.225-2.163c-1.216,0-2.102,0.515-2.225,1.916l-0.969-0.145c0.145-2.019,1.73-2.657,3.296-2.657
				c1.73,0,3.173,0.721,3.173,2.925V17.189z M76.815,14.614c-0.33-0.041-0.618-0.062-0.989-0.062c-2.41,0-3.707,0.68-3.707,2.143
				c0,1.092,0.7,1.812,2.039,1.812c1.318,0,2.657-0.824,2.657-2.328V14.614z"/>
		</g>
		<polyline fill="none" stroke="#41C8F7" stroke-width="0.5" stroke-miterlimit="10" points="71.262,6.475 78.56,6.475 
			74.911,3.685 		"/>
	</g>
	<g>
		<g>
			<path fill="#41C8F7" d="M60.572,12.697h4.614v0.906h-4.614V12.697z"/>
		</g>
	</g>
</g>
<g>
	<g>
		
			<line fill="none" stroke="#41C8F7" stroke-linecap="round" stroke-linejoin="round" x1="54.735" y1="35.237" x2="24.593" y2="5.095"/>
		<g>
			<polygon fill="#41C8F7" points="29.828,4.546 29.792,5.546 24.865,5.365 25.045,10.294 24.045,10.329 23.827,4.327 			"/>
		</g>
	</g>
</g>
<g>
	<rect x="22.116" y="32.552" fill="none" width="21" height="13.666"/>
	<path fill="#EFE026" d="M30.326,36.043c0-2.038,0.829-3.598,2.339-3.598c1.539,0,2.248,1.449,2.248,3.598
		c0,2.249-0.729,3.719-2.278,3.719C31.206,39.762,30.326,38.512,30.326,36.043z M34.044,35.664c-0.01-1.419-0.46-2.568-1.429-2.568
		c-0.89,0-1.42,1.21-1.42,2.568H34.044z M31.195,36.324c0,1.779,0.6,2.788,1.46,2.788c0.939,0,1.389-1.159,1.389-2.788H31.195z"/>
</g>
<g>
</g>
<g>
</g>
<g>
</g>
<g>
</g>
<g>
</g>
<g>
</g>
<g>
</g>
</svg>
